<svg xmlns="http://www.w3.org/2000/svg" id="lockup-svg" width="2502" height="324" data-surface="#0c322c" preserveAspectRatio="xMidYMid meet" style="display:block;width:100%;height:100%" viewBox="0 0 2502.24 324.48"><path fill="#30ba78" d="M536.64 86.72a9.1 9.1 0 0 0-13.04 0c-4 4-3.52 10.96 1.44 14.24 3.04 2 7.12 2 10.16 0a9.28 9.28 0 0 0 1.44-14.24m-11.92-31.28c-24.64-5.76-46.8 16.32-40.96 40.96a34.3 34.3 0 0 0 25.44 25.44c24.64 5.76 46.8-16.4 40.96-40.96a34.3 34.3 0 0 0-25.44-25.44M362.08 194.08c-16.08-5.92-22.24-4.72-42.8-4.48-14.24.16-14.72-.32-30.96-.32-5.04 0-6.88 24 11.28 29.04 7.92 2.16 16.56 3.6 22.48 9.68 2.64 2.72 4.16 6.8-2 6.8h-45.04c-7.92 0-15.36.16-21.36-4.88-9.12-7.68-13.36-18.24-17.92-28.8-4.72-10.88-9.84-21.68-15.76-31.92-11.92-20.48-27.6-38.96-48.72-50.24-26.32-14.16-71.04-21.12-106.48 6.08-37.28 28.64-29.28 82.32 3.36 108.56 12.88 10.4 29.68 14.72 46.24 13.76 32.24-1.92 56.08-25.68 50.16-54.96-2-9.84-7.68-19.04-16.32-24.16-6.16-3.6-13.36-4.88-20.48-4.88-7.6 0-15.76 1.6-21.2 6.88-6.48 6.24-7.52 17.36-2.32 24.8 2.88 4.08 7.52 7.52 6.72 12.88-.56 3.6-3.52 6.32-7.12 7.12-6.08 1.36-11.6-2.08-15.68-6.32-10.48-10.8-13.76-28-8-41.92 7.52-18.24 28.56-28.24 48.24-27.6 25.44.88 49.36 17.6 59.76 40.8s7.28 51.68-7.04 72.64C149.2 299.28 70.4 293.76 33.84 254.4 10.88 229.76-1.6 205.76.16 161.2c1.2-31.52 19.44-62.56 42.56-84.4C80.48 41.28 130.24 16.96 180.8 6.4a312 312 0 0 1 93.68-4.72c27.52 2.72 54.88 7.76 81.28 16 13.12 4.08 26 8.96 38.48 14.64 11.04 5.04 25.44 10.56 34 19.28 0-15.84-.64-33.2-.64-45.28a6.36 6.36 0 0 1 9.04-5.76c17.92 8.32 60.24 28.32 88.56 41.28 37.92 17.28 40.56 58.16 41.92 94.32 0 .8 0 1.68-.32 2.32-1.2 2.48-7.6 1.84-9.92 1.84-4.56 0-11.36 0-15.92.24-9.04.4-17.84.24-26.88-.24-16.72-.8-32.88-8.24-43.76-17.36-1.04-.88-4.56-1.92-6.24-.16s-1.12 4.56-.16 5.44c6.24 6.24 12.96 10.32 20.8 14.4 9.92 5.12 20.8 6.4 31.76 7.04 11.76.72 23.6.56 35.36-.72 9.84-.96 12.32-1.68 2.64 5.52-8.48 6.32-18.4 10.88-28.4 14.24-14.32 4.88-29.52 7.28-44.64 7.68q-13.78.36-27.44-1.44c-4.72-.56-9.36-1.44-14.08-1.92-3.84-.4-7.84-1.12-11.6-.32a15.5 15.5 0 0 0-8.88 5.44c-2.96 3.92-4 14.64-2.32 19.28 3.36 9.04 10.72 14.24 18.4 18.88 8.4 4.96 19.44 6.72 21.6 16.24.48 2-17.44 2.08-19.44 2h-23.76s-12.96.32-17.92-1.52c-.16 0-.32-.16-.48-.16-2.72-1.44-3.92-5.12-4.88-7.92-1.36-3.92-3.68-7.84-6.48-11.84-5.36-7.68-13.6-16-22.24-19.2M542.08 88.56a25.2 25.2 0 1 1-50.4 0 25.2 25.2 0 0 1 50.4 0"/><path fill="#fff" d="M717.92 232.96c48.64 0 81.6-27.84 81.6-70.72 0-80.96-112.64-49.28-112.64-97.92 0-18.88 15.36-31.04 38.72-31.04 17.28 0 30.08 6.72 43.2 19.84l24.96-24.96C778.72 11.2 754.72 0 725.92 0c-47.04 0-78.08 26.56-78.08 68.16 0 77.44 111.68 48.32 111.68 99.84 0 18.88-15.04 31.68-40.32 31.68-18.88 0-34.88-7.36-52.16-24.96l-24.32 24.32c17.28 20.48 41.6 33.92 75.2 33.92m203.2 0c52.48 0 87.04-27.2 87.04-81.92V4.48H968.8v143.36c0 32.64-18.88 48.64-47.68 48.64s-47.36-16-47.36-48.64V4.48H834.4v146.56c0 54.72 33.92 81.92 86.72 81.92m195.2 0c48.64 0 81.6-27.84 81.6-70.72 0-80.96-112.64-49.28-112.64-97.92 0-18.88 15.36-31.04 38.72-31.04 17.28 0 30.08 6.72 43.2 19.84l24.96-24.96C1177.12 11.2 1153.12 0 1124.32 0c-47.04 0-78.08 26.56-78.08 68.16 0 77.44 111.68 48.32 111.68 99.84 0 18.88-15.04 31.68-40.32 31.68-18.88 0-34.88-7.36-52.16-24.96l-24.32 24.32c17.28 20.48 41.6 33.92 75.2 33.92m153.6-4.48h109.12v-35.84h-96c-6.4 0-11.52-5.12-11.52-11.52v-48h100.8V98.88h-100.8V51.84c0-6.4 5.12-11.52 11.52-11.52h96V4.48h-109.12c-21.76 0-37.12 15.68-37.12 37.44v149.12c0 21.76 15.36 37.44 37.12 37.44m281.28 3.84c45.76 0 77.44-26.24 77.44-67.52 0-81.28-116.8-44.8-116.8-101.76 0-23.36 18.56-39.04 47.36-39.04 18.24 0 32.64 6.4 45.12 19.2l17.6-17.6C1607.84 10.24 1586.08.64 1559.2.64c-45.12 0-74.56 25.28-74.56 64.96 0 77.44 115.84 43.2 115.84 103.04 0 24-18.24 40.32-48.32 40.32-21.44 0-39.68-8-55.04-25.6l-17.28 17.28c16 19.52 40 31.68 71.36 31.68m160.64-3.84h23.68V206.4h-23.36c-9.6 0-17.28-7.36-17.28-17.28V96.96h40.64v-22.4h-40.64V36.48h-25.6v38.08h-27.84v22.4h27.84v90.56c0 29.76 21.44 40.96 42.56 40.96m119.68 3.2c44.16 0 76.48-32.64 76.48-79.36v-3.52c0-45.12-32.32-77.44-76.48-77.44-43.84 0-76.48 32.32-76.48 78.08v2.88c0 46.72 32.64 79.36 76.48 79.36m0-23.04c-29.76 0-50.88-23.04-50.88-56.32v-2.88c0-32.32 21.12-55.04 50.88-55.04 30.08 0 50.56 22.4 50.56 54.4v3.52c0 33.28-20.48 56.32-50.56 56.32m114.24 19.84h25.92v-91.2c0-25.6 14.72-37.76 39.68-37.76h15.04v-25.6h-13.12c-18.88 0-34.88 5.76-42.56 25.28V74.56h-24.96zm150.08 3.2c21.44 0 37.44-6.4 46.72-18.56l.32 15.36h23.04c-.64-16.64-.96-33.6-.96-50.56v-49.28c0-38.08-24.32-57.28-60.48-57.28-23.36 0-47.36 8.32-61.12 24l12.16 18.24c12.16-12.8 31.04-18.88 47.68-18.88 22.08 0 36.16 9.92 36.16 35.2v19.2c-9.6-6.72-23.36-10.56-40.32-10.56-34.88 0-61.12 20.16-61.12 47.04 0 27.2 22.72 46.08 57.92 46.08m6.72-19.52c-23.68 0-38.4-11.2-38.4-26.56 0-15.68 14.72-26.24 38.08-26.24 23.68 0 37.44 10.56 37.44 26.24s-13.76 26.56-37.12 26.56m93.44 80.32h94.08c27.2 0 45.12-16.96 45.12-41.6 0-26.56-17.6-40-43.84-40h-45.12c-10.88 0-10.24-8.32-7.36-14.08l7.68-15.04c6.08 1.6 12.8 2.24 19.84 2.24 38.72 0 65.92-23.04 65.92-55.68v-3.52c0-22.72-14.4-40.64-37.12-48.64l19.84-36.8h-25.92l-15.68 32.32c-2.24-.32-4.48-.32-7.04-.32-38.72 0-65.92 22.4-65.92 54.08v2.88c0 19.2 9.6 35.2 25.28 45.12l-10.24 20.8c-8.64 17.28-2.56 37.44 21.76 37.44h50.56c14.4 0 23.04 7.04 23.04 18.88 0 12.8-8.64 20.16-23.04 20.16H2196zm70.4-128.64c-17.92 0-40.64-8.64-40.64-37.12 0-20.48 16.64-34.24 40.64-34.24 23.68 0 40.64 13.76 40.64 34.24 0 28.48-22.08 37.12-40.64 37.12m169.6 67.84c22.4 0 41.92-7.04 53.76-19.84l-14.72-16c-9.6 8.64-22.08 12.16-38.08 12.16-30.72 0-50.24-21.44-52.16-48.64h111.36c6.08-53.44-21.12-88-65.28-88-43.2 0-72 33.28-72 77.76v3.2c0 47.04 31.36 79.36 77.12 79.36m-5.12-137.92c23.68 0 40.32 16.32 40.64 44.48h-86.4c3.52-26.88 19.84-44.48 45.76-44.48"/></svg>