<svg xmlns="http://www.w3.org/2000/svg" id="lockup-svg" width="736" height="747" data-surface="transparent" preserveAspectRatio="xMidYMid meet" style="display:block;width:100%;height:100%" viewBox="0 0 736.32 746.6"><path fill="#30ba78" d="M695.66 131.14a12.2 12.2 0 0 1-13.21 0 12.07 12.07 0 0 1-1.87-18.5 11.8 11.8 0 0 1 16.95 0 12.07 12.07 0 0 1-1.87 18.5m18.82-26.2c7.49 32.03-21.22 60.73-53.25 53.24a44.6 44.6 0 0 1-33.07-33.07c-7.49-31.93 21.22-60.73 53.25-53.25a44.7 44.7 0 0 1 33.07 32.97M499.1 277.06c3.64 5.3 6.65 10.3 8.42 15.39 1.14 3.64 2.7 8.32 6.34 10.3l.63.3c6.55 2.4 23.3 1.98 23.3 1.98h30.88c2.6 0 25.8 0 25.27-2.6-2.8-12.37-17.16-14.66-28.08-21.11-10.08-6.03-19.55-12.8-23.92-24.54-2.28-6.04-.93-19.97 3.02-25.07a19.5 19.5 0 0 1 11.54-7.07c5-1.04 10.1-.1 15.08.31 6.14.63 12.17 1.77 18.3 2.5a227 227 0 0 0 35.68 1.87c19.66-.52 39.31-3.64 57.93-9.98 13-4.37 25.79-10.3 36.81-18.52 12.59-9.36 9.26-8.42-3.43-7.17a295 295 0 0 1-45.97.93c-14.24-.83-28.39-2.5-41.28-9.15-10.2-5.2-18.93-10.5-26.94-18.61-1.25-1.25-1.98-4.79.2-7.08 2.2-2.18 6.66-.93 8.12.21 14.04 11.75 35.05 21.43 56.78 22.47 11.76.62 23.2.83 34.95.3 5.82-.3 14.77-.2 20.59-.3 3.02 0 11.34.83 12.9-2.4.52-.93.41-1.97.41-3.12-1.77-47-5.2-100.04-54.39-122.5C645.53 37.64 590.51 11.64 567.32.82c-5.4-2.6-11.65 1.46-11.65 7.49 0 15.7.83 38.27.83 58.76-11.12-11.34-29.84-18.51-44.2-25.06a409 409 0 0 0-50.02-19.04c-34.32-10.6-69.89-17.16-105.56-20.7a404 404 0 0 0-121.58 6.14c-65.72 13.63-130.3 45.24-179.3 91.42C25.39 128.13 1.78 168.48.22 209.35-2.07 267.28 14.15 298.38 44 330.41c47.53 51.06 149.87 58.24 191.26-2.4 18.61-27.24 22.67-64.27 9.15-94.32-13.52-30.16-44.62-51.9-77.58-53.04-25.59-.83-52.84 12.17-62.61 35.88-7.49 18.1-3.23 40.35 10.4 54.39 5.3 5.51 12.48 9.98 20.38 8.22 4.58-1.04 8.53-4.48 9.15-9.26 1.04-6.97-4.99-11.44-8.73-16.74-6.76-9.57-5.41-24.03 3.01-32.14 7.08-6.86 17.68-8.94 27.56-8.94 9.26 0 18.62 1.66 26.63 6.34 11.23 6.55 18.61 18.62 21.21 31.3 7.7 38.07-23.19 68.96-65.1 71.35-21.42 1.25-43.26-4.37-60-17.79-42.34-34.1-52.74-103.79-4.27-141.02 45.97-35.36 104-26.2 138.21-7.9 27.36 14.66 47.84 38.68 63.24 65.3 7.8 13.32 14.35 27.36 20.48 41.5 5.93 13.63 11.44 27.36 23.2 37.34 7.8 6.66 17.47 6.34 27.76 6.34h58.56c7.9 0 6.03-5.3 2.6-8.84-7.8-7.9-18.93-9.67-29.23-12.58-23.6-6.45-21.21-37.75-14.66-37.75 21.11 0 21.73.62 40.25.41 26.62-.41 34.73-1.87 55.53 5.83 11.13 4.16 21.84 14.97 28.81 24.96"/><path fill="#0c322c" d="M75.2 655.07c48.64 0 81.6-27.84 81.6-70.72 0-80.96-112.64-49.28-112.64-97.92 0-18.88 15.36-31.04 38.72-31.04 17.28 0 30.08 6.72 43.2 19.84l24.96-24.96C136 433.31 112 422.11 83.2 422.11c-47.04 0-78.08 26.56-78.08 68.16 0 77.44 111.68 48.32 111.68 99.84 0 18.88-15.04 31.68-40.32 31.68-18.88 0-34.88-7.36-52.16-24.96L0 621.15c17.28 20.48 41.6 33.92 75.2 33.92m203.2 0c52.48 0 87.04-27.2 87.04-81.92V426.59h-39.36v143.36c0 32.64-18.88 48.64-47.68 48.64s-47.36-16-47.36-48.64V426.59h-39.36v146.56c0 54.72 33.92 81.92 86.72 81.92m195.2 0c48.64 0 81.6-27.84 81.6-70.72 0-80.96-112.64-49.28-112.64-97.92 0-18.88 15.36-31.04 38.72-31.04 17.28 0 30.08 6.72 43.2 19.84l24.96-24.96c-15.04-16.96-39.04-28.16-67.84-28.16-47.04 0-78.08 26.56-78.08 68.16 0 77.44 111.68 48.32 111.68 99.84 0 18.88-15.04 31.68-40.32 31.68-18.88 0-34.88-7.36-52.16-24.96l-24.32 24.32c17.28 20.48 41.6 33.92 75.2 33.92m153.6-4.48h109.12v-35.84h-96c-6.4 0-11.52-5.12-11.52-11.52v-48h100.8v-34.24H628.8v-47.04c0-6.4 5.12-11.52 11.52-11.52h96v-35.84H627.2c-21.76 0-37.12 15.68-37.12 37.44v149.12c0 21.76 15.36 37.44 37.12 37.44"/></svg>