<svg xmlns="http://www.w3.org/2000/svg" id="lockup-svg" width="1163" height="1067" data-surface="#0c322c" preserveAspectRatio="xMidYMid meet" style="display:block;width:100%;height:100%" viewBox="0 0 1162.56 1066.6"><path fill="#fff" d="M697.63 112.74a11.8 11.8 0 0 0-16.95 0 12.07 12.07 0 0 0 1.87 18.5c3.95 2.6 9.26 2.6 13.21 0a12.07 12.07 0 0 0 1.87-18.5m-15.5-40.67c-32.03-7.49-60.83 21.22-53.24 53.25a44.6 44.6 0 0 0 33.07 33.07c32.03 7.49 60.84-21.32 53.25-53.25a44.6 44.6 0 0 0-33.07-33.07M470.7 252.3c-20.9-7.7-28.9-6.13-55.64-5.82-18.5.2-19.13-.42-40.24-.42-6.56 0-8.95 31.2 14.66 37.76 10.3 2.8 21.53 4.68 29.22 12.58 3.44 3.54 5.41 8.84-2.6 8.84h-58.55c-10.3 0-19.97.2-27.77-6.34-11.85-9.99-17.36-23.72-23.3-37.44-6.13-14.15-12.78-28.19-20.48-41.5-15.5-26.62-35.88-50.65-63.34-65.31-34.21-18.41-92.35-27.46-138.42 7.9-48.46 37.23-38.06 107.02 4.37 141.13 16.74 13.52 38.58 19.14 60.11 17.89 41.91-2.5 72.9-33.39 65.2-71.45-2.6-12.8-9.98-24.75-21.2-31.4-8.02-4.69-17.38-6.35-26.63-6.35-9.88 0-20.49 2.08-27.56 8.94-8.43 8.11-9.78 22.57-3.02 32.24 3.75 5.3 9.78 9.78 8.74 16.75-.73 4.68-4.58 8.21-9.26 9.25-7.9 1.77-15.08-2.7-20.38-8.21-13.63-14.04-17.89-36.4-10.4-54.5 9.77-23.71 37.13-36.71 62.71-35.88 33.07 1.14 64.17 22.88 77.69 53.04s9.46 67.18-9.15 94.43c-41.5 60.63-143.94 53.46-191.47 2.29C14.14 298.69-2.08 267.49.21 209.56c1.56-40.98 25.27-81.33 55.33-109.72 49.08-46.18 113.77-77.8 179.5-91.52a406 406 0 0 1 121.78-6.14c35.78 3.54 71.35 10.1 105.67 20.8a427 427 0 0 1 50.02 19.04c14.35 6.55 33.07 13.72 44.2 25.06 0-20.6-.83-43.16-.83-58.86 0-6.04 6.34-10.1 11.75-7.5 23.3 10.82 78.31 36.82 115.13 53.67 49.3 22.47 52.73 75.61 54.5 122.62 0 1.04 0 2.18-.42 3.01-1.56 3.23-9.88 2.4-12.9 2.4-5.92 0-14.76 0-20.7.3-11.74.53-23.18.32-34.94-.3-21.73-1.04-42.74-10.72-56.88-22.57-1.36-1.15-5.93-2.5-8.12-.21s-1.45 5.93-.2 7.07c8.1 8.11 16.84 13.42 27.04 18.72 12.9 6.66 27.04 8.32 41.28 9.15 15.3.94 30.68.73 45.97-.93 12.8-1.25 16.02-2.19 3.43 7.17-11.02 8.22-23.92 14.15-36.92 18.52-18.61 6.34-38.37 9.46-58.03 9.98-11.96.31-23.81-.31-35.67-1.87-6.14-.73-12.17-1.87-18.3-2.5-5-.52-10.2-1.45-15.08-.41a20 20 0 0 0-11.55 7.07c-3.85 5.1-5.2 19.03-3.01 25.06 4.36 11.75 13.93 18.51 23.92 24.55 10.92 6.44 25.27 8.73 28.08 21.1.62 2.6-22.68 2.71-25.28 2.6H538.1s-16.85.42-23.3-1.97c-.2 0-.42-.2-.62-.2-3.54-1.88-5.1-6.66-6.35-10.3-1.77-5.1-4.78-10.2-8.42-15.4-6.97-9.98-17.68-20.8-28.91-24.95m234.2-136.97a32.76 32.76 0 1 1-65.5 0 32.76 32.76 0 0 1 65.5 0M75.2 655.07c48.64 0 81.6-27.84 81.6-70.72 0-80.96-112.64-49.28-112.64-97.92 0-18.88 15.36-31.04 38.72-31.04 17.28 0 30.08 6.72 43.2 19.84l24.96-24.96C136 433.31 112 422.11 83.2 422.11c-47.04 0-78.08 26.56-78.08 68.16 0 77.44 111.68 48.32 111.68 99.84 0 18.88-15.04 31.68-40.32 31.68-18.88 0-34.88-7.36-52.16-24.96L0 621.15c17.28 20.48 41.6 33.92 75.2 33.92m203.2 0c52.48 0 87.04-27.2 87.04-81.92V426.59h-39.36v143.36c0 32.64-18.88 48.64-47.68 48.64s-47.36-16-47.36-48.64V426.59h-39.36v146.56c0 54.72 33.92 81.92 86.72 81.92m195.2 0c48.64 0 81.6-27.84 81.6-70.72 0-80.96-112.64-49.28-112.64-97.92 0-18.88 15.36-31.04 38.72-31.04 17.28 0 30.08 6.72 43.2 19.84l24.96-24.96c-15.04-16.96-39.04-28.16-67.84-28.16-47.04 0-78.08 26.56-78.08 68.16 0 77.44 111.68 48.32 111.68 99.84 0 18.88-15.04 31.68-40.32 31.68-18.88 0-34.88-7.36-52.16-24.96l-24.32 24.32c17.28 20.48 41.6 33.92 75.2 33.92m153.6-4.48h109.12v-35.84h-96c-6.4 0-11.52-5.12-11.52-11.52v-48h100.8v-34.24H628.8v-47.04c0-6.4 5.12-11.52 11.52-11.52h96v-35.84H627.2c-21.76 0-37.12 15.68-37.12 37.44v149.12c0 21.76 15.36 37.44 37.12 37.44m209.92 0h27.84L888 589.47h101.44l22.72 61.12h28.16l-85.12-224h-32.96zm59.52-84.48 42.24-112.32 41.6 112.32zM1056 650.59h106.56v-24.96h-39.68V451.55h39.68v-24.96H1056v24.96h39.36v174.08H1056zM0 970.59h27.2v-92.8h102.72v-24.96H27.2v-64.32c0-9.6 7.36-16.96 16.96-16.96h92.8v-24.96H35.52C14.72 746.59 0 761.63 0 782.11zm207.68 3.2c21.44 0 37.44-6.4 46.72-18.56l.32 15.36h23.04c-.64-16.64-.96-33.6-.96-50.56v-49.28c0-38.08-24.32-57.28-60.48-57.28-23.36 0-47.36 8.32-61.12 24l12.16 18.24c12.16-12.8 31.04-18.88 47.68-18.88 22.08 0 36.16 9.92 36.16 35.2v19.2c-9.6-6.72-23.36-10.56-40.32-10.56-34.88 0-61.12 20.16-61.12 47.04 0 27.2 22.72 46.08 57.92 46.08m6.72-19.52c-23.68 0-38.4-11.2-38.4-26.56 0-15.68 14.72-26.24 38.08-26.24 23.68 0 37.44 10.56 37.44 26.24s-13.76 26.56-37.12 26.56m177.28 19.52c22.4 0 42.24-8.64 54.72-23.68l-15.68-15.68c-10.24 10.56-23.36 15.36-38.72 15.36-30.72 0-53.44-21.76-53.44-54.4v-3.84c0-32.64 22.4-54.08 53.12-54.08 15.68 0 28.8 5.44 38.4 15.68l16-16c-12.8-15.04-32-23.68-54.4-23.68-45.44 0-78.72 32-78.72 78.08v3.84c0 46.08 32.96 78.4 78.72 78.4m140.48-3.2h23.68v-22.08h-23.36c-9.6 0-17.28-7.36-17.28-17.28v-92.16h40.64v-22.4H515.2v-38.08h-25.6v38.08h-27.84v22.4h27.84v90.56c0 29.76 21.44 40.96 42.56 40.96m119.68 3.2c44.16 0 76.48-32.64 76.48-79.36v-3.52c0-45.12-32.32-77.44-76.48-77.44-43.84 0-76.48 32.32-76.48 78.08v2.88c0 46.72 32.64 79.36 76.48 79.36m0-23.04c-29.76 0-50.88-23.04-50.88-56.32v-2.88c0-32.32 21.12-55.04 50.88-55.04 30.08 0 50.56 22.4 50.56 54.4v3.52c0 33.28-20.48 56.32-50.56 56.32m114.24 19.84H792v-91.2c0-25.6 14.72-37.76 39.68-37.76h15.04v-25.6H833.6c-18.88 0-34.88 5.76-42.56 25.28v-24.64h-24.96zm94.4 64h29.44c27.52 0 37.76-19.2 44.8-36.8l73.6-181.12h-28.48l-46.4 123.84-48.64-123.84h-28.48l63.36 155.52-11.2 24.64c-3.52 8.64-8.32 15.68-17.28 15.68h-30.72z"/></svg>