<svg xmlns="http://www.w3.org/2000/svg" id="chart-svg" width="1080" height="1080" style="width:100%;height:auto;display:block" viewBox="0 0 1080 1080"><defs><style>@font-face{font-family:&quot;SUSE&quot;;src:url(/catalog/fonts/webfonts/SUSE[wght].woff2)format(&quot;woff2-variations&quot;);font-weight:100 900;font-display:block}text{font-family:&quot;SUSE&quot;,system-ui,sans-serif}#chart-svg [data-canvas-input]{cursor:pointer}</style></defs><path id="chart-bg" fill="none" d="M0 0h1080v1080H0z" pointer-events="all"/><text x="72" y="124" fill="#fff" font-size="52" font-weight="700">Edge fleet by site type</text><text x="72" y="162" fill="#fff" font-size="28" font-weight="300" opacity=".65">Share of SUSE Edge nodes — illustrative sample data</text><path fill="#3c8eef" d="M352.8 600V341.66a258.34 258.34 0 0 1 218.12 396.76Z"/><text x="493.16" y="540.69" fill="#0c322c" font-size="51" font-weight="500" text-anchor="middle">34%</text><path fill="#fe7c3f" d="m352.8 600 218.12 138.42a258.34 258.34 0 0 1-382.79 60.63Z"/><text x="377.86" y="776.05" fill="#0c322c" font-size="51" font-weight="500" text-anchor="middle">27%</text><path fill="#42d29f" d="M352.8 600 188.13 799.05a258.34 258.34 0 0 1-69.08-309.04Z"/><text x="196.49" y="652.79" fill="#0c322c" font-size="51" font-weight="500" text-anchor="middle">21%</text><path fill="#d6973a" d="M352.8 600 119.05 490a258.3 258.3 0 0 1 123.76-123.75Z"/><text x="239.54" y="504.59" fill="#0c322c" font-size="51" font-weight="500" text-anchor="middle">11%</text><path fill="#7ac8ae" d="m352.8 600-110-233.75a258 258 0 0 1 110-24.59Z"/><text x="317.86" y="461.54" fill="#0c322c" font-size="51" font-weight="500" text-anchor="middle">7%</text><circle cx="643.5" cy="523.9" r="9.9" fill="#3c8eef" stroke="#fff" stroke-width="2"/><text x="661.4" y="530.7" fill="#fff" font-size="22" font-weight="500" opacity=".85">Retail</text><circle cx="643.5" cy="559.1" r="9.9" fill="#fe7c3f" stroke="#fff" stroke-width="2"/><text x="661.4" y="565.9" fill="#fff" font-size="22" font-weight="500" opacity=".85">Manufacturing</text><circle cx="643.5" cy="594.3" r="9.9" fill="#42d29f" stroke="#fff" stroke-width="2"/><text x="661.4" y="601.1" fill="#fff" font-size="22" font-weight="500" opacity=".85">Telco / RAN</text><circle cx="643.5" cy="629.5" r="9.9" fill="#d6973a" stroke="#fff" stroke-width="2"/><text x="661.4" y="636.3" fill="#fff" font-size="22" font-weight="500" opacity=".85">Branch</text><circle cx="643.5" cy="664.7" r="9.9" fill="#7ac8ae" stroke="#fff" stroke-width="2"/><text x="661.4" y="671.5" fill="#fff" font-size="22" font-weight="500" opacity=".85">Logistics</text></svg>