<svg xmlns="http://www.w3.org/2000/svg" id="chart-svg" width="1080" height="1080" style="width:100%;height:auto;display:block" viewBox="0 0 1080 1080"><defs><style>@font-face{font-family:&quot;SUSE&quot;;src:url(/catalog/fonts/webfonts/SUSE[wght].woff2)format(&quot;woff2-variations&quot;);font-weight:100 900;font-display:block}text{font-family:&quot;SUSE&quot;,system-ui,sans-serif}#chart-svg [data-canvas-input]{cursor:pointer}</style></defs><path id="chart-bg" fill="none" d="M0 0h1080v1080H0z" pointer-events="all"/><text x="72" y="124" fill="#fff" font-size="52" font-weight="700">Clusters by distribution</text><text x="72" y="162" fill="#fff" font-size="28" font-weight="300" opacity=".65">RKE2, K3s and Harvester — illustrative sample data</text><path stroke="#fff" d="M128 1008h880" opacity=".15"/><text x="120" y="1025.6" fill="#fff" font-size="35.2" opacity=".4" text-anchor="end">0</text><path stroke="#fff" d="M128 848h880" opacity=".08"/><text x="120" y="865.6" fill="#fff" font-size="35.2" opacity=".4" text-anchor="end">20</text><path stroke="#fff" d="M128 688h880" opacity=".08"/><text x="120" y="705.6" fill="#fff" font-size="35.2" opacity=".4" text-anchor="end">40</text><path stroke="#fff" d="M128 528h880" opacity=".08"/><text x="120" y="545.6" fill="#fff" font-size="35.2" opacity=".4" text-anchor="end">60</text><path stroke="#fff" d="M128 368h880" opacity=".08"/><text x="120" y="385.6" fill="#fff" font-size="35.2" opacity=".4" text-anchor="end">80</text><path stroke="#fff" d="M128 208h880" opacity=".08"/><text x="120" y="225.6" fill="#fff" font-size="35.2" opacity=".4" text-anchor="end">100</text><rect width="120" height="512" x="178" y="496" fill="#3c8eef" stroke="#fff" stroke-width="2" rx="4" ry="4"/><text x="238" y="769.85" fill="#0c322c" font-size="51" font-weight="500" text-anchor="middle">64</text><text x="238" y="990.4" fill="#0c322c" font-size="44" font-weight="600" text-anchor="middle">RKE2</text><rect width="120" height="384" x="398" y="624" fill="#fe7c3f" stroke="#fff" stroke-width="2" rx="4" ry="4"/><text x="458" y="833.85" fill="#0c322c" font-size="51" font-weight="500" text-anchor="middle">48</text><text x="458" y="990.4" fill="#0c322c" font-size="44" font-weight="600" text-anchor="middle">K3s</text><rect width="120" height="240" x="618" y="768" fill="#42d29f" stroke="#fff" stroke-width="2" rx="4" ry="4"/><text x="678" y="905.85" fill="#0c322c" font-size="51" font-weight="500" text-anchor="middle">30</text><text x="678" y="990.4" fill="#0c322c" font-size="44" font-weight="600" text-anchor="middle">Harvester</text><rect width="120" height="176" x="838" y="832" fill="#d6973a" stroke="#fff" stroke-width="2" rx="4" ry="4"/><text x="898" y="937.85" fill="#0c322c" font-size="51" font-weight="500" text-anchor="middle">22</text><text x="898" y="990.4" fill="#0c322c" font-size="44" font-weight="600" text-anchor="middle">Hosted</text></svg>