<svg xmlns="http://www.w3.org/2000/svg" id="chart-svg" width="1080" height="1080" style="width:100%;height:auto;display:block" viewBox="0 0 1080 1080"><defs><style>@font-face{font-family:&quot;SUSE&quot;;src:url(/catalog/fonts/webfonts/SUSE[wght].woff2)format(&quot;woff2-variations&quot;);font-weight:100 900;font-display:block}text{font-family:&quot;SUSE&quot;,system-ui,sans-serif}#chart-svg [data-canvas-input]{cursor:pointer}</style></defs><path id="chart-bg" fill="none" d="M0 0h1080v1080H0z" pointer-events="all"/><text x="72" y="124" fill="#0c322c" font-size="52" font-weight="700">Community growth by region</text><text x="72" y="162" fill="#0c322c" font-size="28" font-weight="300" opacity=".65">New contributors this year — illustrative sample data</text><path stroke="#0c322c" d="M128 1008h880" opacity=".15"/><text x="120" y="1025.6" fill="#0c322c" font-size="35.2" opacity=".4" text-anchor="end">0</text><path stroke="#0c322c" d="M128 848h880" opacity=".08"/><text x="120" y="865.6" fill="#0c322c" font-size="35.2" opacity=".4" text-anchor="end">20</text><path stroke="#0c322c" d="M128 688h880" opacity=".08"/><text x="120" y="705.6" fill="#0c322c" font-size="35.2" opacity=".4" text-anchor="end">40</text><path stroke="#0c322c" d="M128 528h880" opacity=".08"/><text x="120" y="545.6" fill="#0c322c" font-size="35.2" opacity=".4" text-anchor="end">60</text><path stroke="#0c322c" d="M128 368h880" opacity=".08"/><text x="120" y="385.6" fill="#0c322c" font-size="35.2" opacity=".4" text-anchor="end">80</text><path stroke="#0c322c" d="M128 208h880" opacity=".08"/><text x="120" y="225.6" fill="#0c322c" font-size="35.2" opacity=".4" text-anchor="end">100</text><rect width="120" height="464" x="178" y="544" fill="#30ba78" stroke="#fff" stroke-width="2" rx="4" ry="4"/><text x="238" y="793.85" fill="#0c322c" font-size="51" font-weight="500" text-anchor="middle">58</text><text x="238" y="990.4" fill="#0c322c" font-size="44" font-weight="600" text-anchor="middle">EMEA</text><rect width="120" height="368" x="398" y="640" fill="#0a9bd6" stroke="#fff" stroke-width="2" rx="4" ry="4"/><text x="458" y="841.85" fill="#0c322c" font-size="51" font-weight="500" text-anchor="middle">46</text><text x="458" y="990.4" fill="#0c322c" font-size="44" font-weight="600" text-anchor="middle">Americas</text><rect width="120" height="312" x="618" y="696" fill="#d6973a" stroke="#fff" stroke-width="2" rx="4" ry="4"/><text x="678" y="869.85" fill="#0c322c" font-size="51" font-weight="500" text-anchor="middle">39</text><text x="678" y="990.4" fill="#0c322c" font-size="44" font-weight="600" text-anchor="middle">APAC</text><rect width="120" height="192" x="838" y="816" fill="#fe7c3f" stroke="#fff" stroke-width="2" rx="4" ry="4"/><text x="898" y="929.85" fill="#0c322c" font-size="51" font-weight="500" text-anchor="middle">24</text><text x="898" y="990.4" fill="#0c322c" font-size="44" font-weight="600" text-anchor="middle">Global</text></svg>