<svg xmlns="http://www.w3.org/2000/svg" id="chart-svg" width="1080" height="1080" style="width:100%;height:auto;display:block" viewBox="0 0 1080 1080"><defs><style>@font-face{font-family:&quot;SUSE&quot;;src:url(/catalog/fonts/webfonts/SUSE[wght].woff2)format(&quot;woff2-variations&quot;);font-weight:100 900;font-display:block}text{font-family:&quot;SUSE&quot;,system-ui,sans-serif}#chart-svg [data-canvas-input]{cursor:pointer}</style></defs><path id="chart-bg" fill="none" d="M0 0h1080v1080H0z" pointer-events="all"/><text x="72" y="124" fill="#0c322c" font-size="52" font-weight="700">Adoption across the SUSE stack</text><text x="72" y="162" fill="#0c322c" font-size="28" font-weight="300" opacity=".65">Deployments by product — illustrative sample data</text><path stroke="#0c322c" d="M72 192v816" opacity=".15"/><path stroke="#0c322c" d="M259.2 192v816m187.2-816v816m187.2-816v816m187.2-816v816M1008 192v816" opacity=".08"/><rect width="861.12" height="66" x="72" y="219" fill="#0c322c" stroke="#fff" stroke-width="2" rx="4" ry="4"/><text x="82" y="263.9" fill="#fff" font-size="34" font-weight="600">SLES 16</text><text x="943.12" y="263.9" fill="#0c322c" font-size="34" font-weight="500" opacity=".75">92</text><rect width="711.36" height="66" x="72" y="339" fill="#17513f" stroke="#fff" stroke-width="2" rx="4" ry="4"/><text x="82" y="383.9" fill="#fff" font-size="34" font-weight="600">Rancher Prime</text><text x="793.36" y="383.9" fill="#0c322c" font-size="34" font-weight="500" opacity=".75">76</text><rect width="505.44" height="66" x="72" y="459" fill="#008657" stroke="#fff" stroke-width="2" rx="4" ry="4"/><text x="82" y="503.9" fill="#fff" font-size="34" font-weight="600">SUSE Edge</text><text x="587.44" y="503.9" fill="#0c322c" font-size="34" font-weight="500" opacity=".75">54</text><rect width="383.76" height="66" x="72" y="579" fill="#30ba78" stroke="#fff" stroke-width="2" rx="4" ry="4"/><text x="82" y="623.9" fill="#0c322c" font-size="34" font-weight="600">Harvester HCI</text><text x="465.76" y="623.9" fill="#0c322c" font-size="34" font-weight="500" opacity=".75">41</text><rect width="308.88" height="66" x="72" y="699" fill="#4fc48f" stroke="#fff" stroke-width="2" rx="4" ry="4"/><text x="82" y="743.9" fill="#0c322c" font-size="34" font-weight="600">SUSE Security</text><text x="390.88" y="743.9" fill="#0c322c" font-size="34" font-weight="500" opacity=".75">33</text></svg>