<svg xmlns="http://www.w3.org/2000/svg" id="chart-svg" width="1080" height="1080" style="width:100%;height:auto;display:block" viewBox="0 0 1080 1080"><defs><style>@font-face{font-family:&quot;SUSE&quot;;src:url(/catalog/fonts/webfonts/SUSE[wght].woff2)format(&quot;woff2-variations&quot;);font-weight:100 900;font-display:block}text{font-family:&quot;SUSE&quot;,system-ui,sans-serif}#chart-svg [data-canvas-input]{cursor:pointer}</style></defs><path id="chart-bg" fill="none" d="M0 0h1080v1080H0z" pointer-events="all"/><text x="72" y="124" fill="#0c322c" font-size="52" font-weight="700">Open source contributions</text><text x="72" y="162" fill="#0c322c" font-size="28" font-weight="300" opacity=".65">By SUSE project — illustrative sample data</text><path fill="#30ba78" d="M352.8 341.66a258.34 258.34 0 0 1 124.45 484.72L415.03 713.2a129.17 129.17 0 0 0-62.23-242.36Z"/><text x="540.46" y="569.67" fill="#0c322c" font-size="51" font-weight="500" text-anchor="middle">42%</text><path fill="#0a9bd6" d="M477.25 826.38A258.34 258.34 0 0 1 119.05 710l116.88-55a129.17 129.17 0 0 0 179.1 58.2Z"/><text x="292.93" y="802.12" fill="#0c322c" font-size="51" font-weight="500" text-anchor="middle">26%</text><path fill="#d6973a" d="M119.05 710a258.3 258.3 0 0 1 34.7-274.67l99.52 82.34A129.2 129.2 0 0 0 235.93 655Z"/><text x="160.58" y="593.57" fill="#0c322c" font-size="51" font-weight="500" text-anchor="middle">18%</text><path fill="#fe7c3f" d="M153.75 435.33a258.3 258.3 0 0 1 199.05-93.67v129.17a129.2 129.2 0 0 0-99.53 46.84Z"/><text x="270.3" y="442.54" fill="#0c322c" font-size="51" font-weight="500" text-anchor="middle">14%</text><circle cx="643.5" cy="541.5" r="9.9" fill="#30ba78" stroke="#fff" stroke-width="2"/><text x="661.4" y="548.3" fill="#0c322c" font-size="22" font-weight="500" opacity=".85">Rancher</text><circle cx="643.5" cy="576.7" r="9.9" fill="#0a9bd6" stroke="#fff" stroke-width="2"/><text x="661.4" y="583.5" fill="#0c322c" font-size="22" font-weight="500" opacity=".85">K3s</text><circle cx="643.5" cy="611.9" r="9.9" fill="#d6973a" stroke="#fff" stroke-width="2"/><text x="661.4" y="618.7" fill="#0c322c" font-size="22" font-weight="500" opacity=".85">Longhorn</text><circle cx="643.5" cy="647.1" r="9.9" fill="#fe7c3f" stroke="#fff" stroke-width="2"/><text x="661.4" y="653.9" fill="#0c322c" font-size="22" font-weight="500" opacity=".85">NeuVector</text></svg>