<svg xmlns="http://www.w3.org/2000/svg" id="chart-svg" width="1080" height="1080" style="width:100%;height:auto;display:block" viewBox="0 0 1080 1080"><defs><style>@font-face{font-family:&quot;SUSE&quot;;src:url(/catalog/fonts/webfonts/SUSE[wght].woff2)format(&quot;woff2-variations&quot;);font-weight:100 900;font-display:block}text{font-family:&quot;SUSE&quot;,system-ui,sans-serif}#chart-svg [data-canvas-input]{cursor:pointer}</style></defs><path id="chart-bg" fill="none" d="M0 0h1080v1080H0z" pointer-events="all"/><path fill="#008657" d="M540 72a468 468 0 0 1 320.37 809.16L680.97 690.1A205.92 205.92 0 0 0 540 334.08Z"/><text x="853.3" y="472.06" fill="#fff" font-size="51" font-weight="500" text-anchor="middle">38%</text><text x="853.3" y="376.36" fill="#fff" font-size="44" font-weight="600" text-anchor="middle">Public cl…</text><path fill="#2453ff" d="M860.37 881.16a468 468 0 0 1-755.5-168.88l243.67-96.48a205.92 205.92 0 0 0 332.42 74.3Z"/><text x="466.49" y="924.94" fill="#fff" font-size="51" font-weight="500" text-anchor="middle">31%</text><text x="466.49" y="829.24" fill="#fff" font-size="44" font-weight="600" text-anchor="middle">Data cent…</text><path fill="#fe7c3f" d="M104.86 712.28a468 468 0 0 1 114.77-513.44l179.4 191.05a205.9 205.9 0 0 0-50.49 225.91Z"/><text x="211.16" y="522.59" fill="#0c322c" font-size="51" font-weight="500" text-anchor="middle">19%</text><text x="211.16" y="426.89" fill="#0c322c" font-size="44" font-weight="600" text-anchor="middle">Edge sites</text><path fill="#00bda7" d="M219.63 198.84A468 468 0 0 1 540 72v262.08a206 206 0 0 0-140.96 55.81Z"/><text x="415.96" y="282.8" fill="#0c322c" font-size="51" font-weight="500" text-anchor="middle">12%</text><text x="415.96" y="187.1" fill="#0c322c" font-size="44" font-weight="600" text-anchor="middle">Air-gapped</text></svg>