<svg xmlns="http://www.w3.org/2000/svg" width="769" height="1350" viewBox="0 0 769 1350"><path fill="#fff" d="M0 0h769v1350H0z"/><path fill="#0c322c" d="M0 0h769v450H0z"/><path fill="#30ba78" d="M108.18 197.59q-21.93 0-38.14-7.23T42.4 170.07l29.62-31.73q13.06 11.2 21.46 14.46t16.33 3.27q5.36 0 8.63-2.22 3.26-2.21 3.26-5.94 0-5.14-5.36-7.93t-13.65-5.14q-8.28-2.33-17.72-5.48t-17.85-8.74q-8.39-5.6-13.64-14.93t-5.25-24.26q0-17.03 7.81-29.04 7.82-12.01 21.93-18.54t33.01-6.53q20.05 0 36.62 7.34t25.89 17.61l-27.53 32.19Q135 75.37 127.3 72.1t-15.63-3.27q-5.59 0-8.74 2.22T99.78 77q0 4.66 5.25 7.23t13.64 4.66q8.4 2.1 17.85 5.14 9.44 3.03 17.72 8.51t13.65 14.69q5.36 9.22 5.36 23.91 0 16.8-7.93 29.51t-22.51 19.82-34.63 7.12m75.34-3.5V23.82h45.71v64.61q5.6-6.53 13.88-10.15 8.28-3.61 17.61-3.61 19.59 0 31.72 11.78t12.13 33.47v74.17h-47.11v-61.58q0-7.7-3.5-11.54-3.5-3.85-9.33-3.85-6.3 0-10.15 3.85-3.85 3.84-3.85 11.54v61.58zm145.54 0v-77.91h-17.49V77h64.61v117.09zm-2.1-128.99V23.82h52.25V65.1zm64.15 175.64V77h43.85v8.63q7-6.07 14.93-8.51 7.93-2.45 16.32-2.45 15.63 0 27.53 7.46t18.66 20.99 6.76 31.72v2.34q0 18.19-6.88 31.49t-19.01 20.52-27.75 7.23q-7.7 0-14.35-1.86-6.65-1.87-12.95-5.13v51.31zm62.51-86.77q6.76 0 12.59-4.08t5.84-12.71v-2.34q0-9.09-5.84-13.41-5.83-4.31-12.59-4.31-7.23 0-12.95 4.66t-5.71 14q0 9.09 5.71 13.64t12.95 4.55M62.93 418v-77.91H46.36v-39.18h16.57v-11.43q0-20.06 12.36-30.91 12.36-10.84 34.29-10.84h20.75v38.72h-17.02q-3.27 0-3.27 3.26v11.2h20.29v39.18h-20.29V418zm110.09 2.33q-19.59 0-31.72-9.79-12.13-9.8-12.13-25.19 0-16.57 13.18-26.6t37.9-10.03q10.5 0 18.66 2.1v-3.96q0-10.5-13.99-10.5-8.63 0-18.31 3.27-9.68 3.26-16.45 8.16l-18.19-29.62q8.16-8.16 23.44-13.88 15.28-5.71 33-5.71 16.56 0 29.51 5.36t20.29 15.4 7.35 24.25v38.72q0 9.1.12 17.96t.58 17.73h-41.75v-12.36q-8.4 14.69-31.49 14.69m14.46-29.62q5.13 0 8.4-2.33 3.26-2.34 3.26-6.07 0-3.5-3.26-5.83-3.27-2.33-8.4-2.33-4.66 0-7.81 2.33t-3.15 5.83q0 3.73 3.15 6.07 3.15 2.33 7.81 2.33m114.53 28.92q-16.56 0-29.16-4.31-12.59-4.32-21.46-9.45l17.03-31.72q8.86 5.13 17.38 8.63t17.14 3.5q3.27 0 5.36-1.05t2.1-2.68q0-2.8-3.84-4.09-3.85-1.28-9.92-2.44-6.06-1.17-12.83-3.27-6.76-2.1-12.83-5.95-6.06-3.85-9.91-10.49t-3.85-17.38q0-17.5 13.88-28.92t38.6-11.43q26.59 0 46.42 10.96l-17.49 31.95q-7.93-4.43-15.16-7.34t-14-2.92q-7.93 0-7.93 3.5 0 2.33 3.97 3.62 3.96 1.28 10.26 2.56t13.41 3.38 13.41 6.18 10.27 10.97 3.96 17.84q0 11.9-7 20.99-6.99 9.1-19.36 14.23t-28.45 5.13M419.8 418q-7 0-14.81-1.28-7.82-1.29-14.81-5.48t-11.32-12.6q-4.31-8.4-4.31-22.62v-35.93h-16.33v-39.18h16.33v-27.76h47.11v27.76h19.13v39.18h-19.13v35.23q0 3.49 4.2 3.49h14.93V418zm87.7 2.33q-18.43 0-32.31-7.34-13.87-7.35-21.69-20.76-7.81-13.42-7.81-31.84v-2.34q0-16.32 7.35-29.73t20.76-21.58 31.13-8.16q19.6 0 33.13 9.09 13.52 9.1 19.47 25.08t2.68 36.97h-67.4q1.39 6.76 5.71 9.44 4.32 2.69 12.25 2.69 7.46 0 12.24-2.22t9.91-6.65l25.66 29.16q-9.33 9.33-22.86 13.76t-28.22 4.43m-2.33-87.7q-6.07 0-8.87 3.85t-3.49 10.15h24.25q-.46-7.24-3.96-10.62t-7.93-3.38M570.48 418V300.91h45.48v12.59q4.67-7.93 12.36-11.08 7.7-3.14 17.03-3.14h8.4v46.41h-12.6q-23.56 0-23.56 18.43V418zm73.7 0v-46.88h52.25V418z"/><path fill="#fe7c3f" d="M0 450h769v450H0z"/><path fill="#fff" d="M60.92 592.91q-5.37 0-8.8-3.48-3.42-3.48-3.42-8.85v-49.13q0-5.38 3.42-8.86 3.43-3.48 8.8-3.48h35.95v11.81H65.25q-1.58 0-2.69 1.11t-1.11 2.69v15.49h33.21v11.28H61.45v15.82q0 1.58 1.11 2.69t2.69 1.1h31.62v11.81zm46.71 0v-51.34h11.7v6.54q3.16-4.54 7.54-6.07t7.96-1.53q8.64 0 13.86 5.64 5.22 5.65 5.22 16.19v30.57h-12.13v-28.57q0-6.75-2.89-9.75t-7.44-3.01q-4.95 0-8.33 3.33-3.37 3.32-3.37 9.64v28.36zm78.12 0q-3.69 0-7.33-1.27-3.64-1.26-6.06-4.58-2.43-3.32-2.43-9.23V551.9h-8.75v-10.33h8.75v-12.55h12.13v12.55h11.91v10.33h-11.91v26.88q0 1.58 1.1 2.69 1.11 1.11 2.69 1.11h8.12v10.33zm39.85 1.05q-7.7 0-13.55-3.32t-9.12-9.27-3.27-13.87v-1.05q0-7.28 3.01-13.18t8.54-9.33 12.91-3.43q7.7 0 13.18 3.75t8.01 10.59 1.37 16.13h-35q.63 5.38 4.37 8.91t10.18 3.53q3.79 0 6.53-1.05 2.75-1.06 4.96-3.16l6.85 7.16q-3.06 3.8-7.96 5.7-4.9 1.89-11.01 1.89m-1.37-43.64q-5.38 0-8.44 3.32t-3.9 8.7h23.19q-.21-5.7-3.21-8.86t-7.64-3.16m32.89 42.59v-51.34h11.7v7.48q1.9-4.42 5.59-6.16t8.22-1.74h4.22v12.02h-5.17q-6.01 0-9.22 2.74t-3.22 8.01v28.99zm38.16 21.08v-72.42h11.39V548q2.95-3.48 7.16-5.48t9.18-2.01q6.85 0 12.38 3.33 5.54 3.32 8.7 9.22t3.16 13.6v1.05q0 7.91-3.16 13.81t-8.59 9.18q-5.43 3.26-12.39 3.26-4.74 0-8.75-1.79t-6.96-4.95v26.77zm25.83-30.67q5.9 0 9.96-4.22t4.06-11.39v-1.05q0-7.17-4.06-11.28t-9.96-4.11q-6.22 0-10.33 4.27t-4.11 11.75q0 7.38 4.11 11.7 4.11 4.33 10.33 4.33m36.58 9.59v-51.34h11.7v7.48q1.9-4.42 5.59-6.16t8.22-1.74h4.22v12.02h-5.17q-6 0-9.22 2.74t-3.22 8.01v28.99zm42.49 0V551.9h-9.28v-10.33h21.51v51.34zm-.53-61.57v-14.02h13.49v14.02zm41.64 62.52q-6.11 0-11.23-1.79-5.11-1.8-8.48-4.43l5.27-8.33q3.06 2.21 6.8 3.64 3.74 1.42 7.64 1.42 3.8 0 6.06-1.58 2.27-1.58 2.27-4.11t-1.85-3.8q-1.84-1.26-4.79-2.05t-6.27-1.64-6.28-2.42-4.85-4.48-1.89-7.65q0-7.06 5.37-11.59t14.44-4.54q5.07 0 9.6 1.38t8.12 3.79l-5.38 8.12q-5.9-4.01-12.44-4.01-3.69 0-5.9 1.64-2.22 1.63-2.22 4.16 0 2.32 1.95 3.64t4.96 2.11 6.38 1.74 6.37 2.58 4.96 4.53 1.95 7.64-2.64 8.33-7.27 5.64-10.65 2.06m53.35.1q-7.7 0-13.55-3.32t-9.12-9.27-3.27-13.87v-1.05q0-7.28 3.01-13.18t8.53-9.33q5.54-3.43 12.92-3.43 7.7 0 13.18 3.75t8.01 10.59 1.37 16.13h-35q.63 5.38 4.37 8.91t10.18 3.53q3.79 0 6.53-1.05 2.74-1.06 4.96-3.16l6.85 7.16q-3.06 3.8-7.96 5.7-4.9 1.89-11.01 1.89m-1.38-43.64q-5.37 0-8.43 3.32t-3.9 8.7h23.19q-.21-5.7-3.21-8.86t-7.65-3.16M61.35 710.97q-5.38 0-8.86-3.48t-3.48-8.85v-61.47h12.97v57.78q0 1.68 1.11 2.79 1.1 1.11 2.68 1.11H95.5v12.12zm43.11 0v-41.01h-9.27v-10.33h21.5v51.34zm-.52-61.57v-14.02h13.49v14.02zm26.25 61.57v-51.34h11.7v6.54q3.16-4.54 7.54-6.07t7.96-1.53q8.64 0 13.86 5.64 5.22 5.65 5.22 16.19v30.57h-12.13V682.4q0-6.75-2.89-9.75t-7.44-3.01q-4.95 0-8.32 3.33-3.38 3.32-3.38 9.64v28.36zm78.33 1.05q-8.44 0-14.08-5.11t-5.64-15.65v-31.63h12.13v29.31q0 6.64 2.9 9.33 2.89 2.68 7.43 2.68 4.85 0 8.06-3.11t3.22-9.43v-28.78h12.12v51.34h-10.54v-6.22q-3.27 4.32-7.64 5.8-4.38 1.47-7.96 1.47m33.63-1.05 17.5-25.62-16.98-25.72h14.24l10.96 17.92 10.86-17.92h14.02l-17.08 25.62 17.29 25.72h-14.34l-11.28-17.71-11.07 17.71zm56.93 0v-14.23h14.12v20.34q0 3.91-1.53 5.96-1.53 2.06-3.84 2.85-2.32.79-4.54.79h-4.53v-7.07h4.53q1.27 0 1.95-.79.69-.79.69-1.95v-5.9zM69.15 830.08q-6.96 0-12.44-3.26-5.48-3.27-8.65-9.18t-3.16-13.81v-1.05q0-7.7 3.22-13.6 3.21-5.9 8.69-9.22 5.49-3.33 12.44-3.33 4.75 0 8.7 1.8 3.95 1.79 6.91 4.95v-31.31h12.12v76.96H86.02v-6.96q-3.06 3.8-7.38 5.91-4.33 2.1-9.49 2.1m1.9-10.64q6.22 0 10.38-4.33t4.16-11.7q0-7.48-4.16-11.75t-10.38-4.27q-5.8 0-9.91 4.11t-4.12 11.28v1.05q0 7.17 4.12 11.39t9.91 4.22m62.3 10.64q-7.7 0-13.55-3.32t-9.12-9.27-3.26-13.87v-1.05q0-7.28 3-13.18t8.54-9.33 12.91-3.43q7.7 0 13.18 3.75t8.01 10.59 1.38 16.13h-35.01q.64 5.38 4.38 8.91t10.17 3.53q3.8 0 6.54-1.05 2.74-1.06 4.95-3.16l6.86 7.16q-3.06 3.8-7.96 5.7-4.9 1.89-11.02 1.89m-1.37-43.64q-5.38 0-8.43 3.32-3.06 3.32-3.9 8.7h23.19q-.21-5.7-3.22-8.86-3-3.16-7.64-3.16m48.07 42.59q-6.95 0-11.12-3.8t-4.16-10.43v-52.4h-8.54v-10.33h20.66v62.94q0 1.69 1.11 2.79 1.1 1.11 2.79 1.11h5.38v10.12zm17.61 0v-41.01h-9.28v-10.33h21.51v51.34zm-.53-61.57v-14.02h13.5v14.02zm39.54 61.57-19.82-51.34h12.65l13.49 37 13.49-37h12.66l-19.72 51.34zm61.35 1.05q-7.69 0-13.55-3.32-5.85-3.32-9.11-9.27-3.27-5.96-3.27-13.87v-1.05q0-7.28 3-13.18t8.54-9.33 12.92-3.43q7.69 0 13.17 3.75 5.49 3.74 8.02 10.59t1.37 16.13h-35q.63 5.38 4.37 8.91t10.17 3.53q3.8 0 6.54-1.05 2.74-1.06 4.95-3.16l6.86 7.16q-3.06 3.8-7.96 5.7-4.9 1.89-11.02 1.89m-1.37-43.64q-5.38 0-8.43 3.32-3.06 3.32-3.9 8.7h23.19q-.21-5.7-3.22-8.86-3-3.16-7.64-3.16m32.89 42.59v-51.34h11.7v7.48q1.9-4.42 5.59-6.16t8.23-1.74h4.21v12.02h-5.16q-6.01 0-9.23 2.74-3.21 2.74-3.21 8.01v28.99zm58.72 1.05q-7.69 0-13.54-3.32t-9.12-9.27-3.27-13.87v-1.05q0-7.28 3-13.18t8.54-9.33 12.92-3.43q7.69 0 13.18 3.75t8.01 10.59 1.37 16.13h-35q.63 5.38 4.37 8.91t10.18 3.53q3.79 0 6.53-1.05 2.74-1.06 4.96-3.16l6.85 7.16q-3.06 3.8-7.96 5.7-4.9 1.89-11.02 1.89m-1.37-43.64q-5.37 0-8.43 3.32t-3.9 8.7h23.19q-.21-5.7-3.21-8.86t-7.65-3.16m53.98 43.64q-6.96 0-12.44-3.26-5.48-3.27-8.65-9.18t-3.16-13.81v-1.05q0-7.7 3.22-13.6 3.21-5.9 8.69-9.22 5.49-3.33 12.44-3.33 4.75 0 8.7 1.8 3.96 1.79 6.91 4.95v-31.31h12.12v76.96h-10.96v-6.96q-3.06 3.8-7.38 5.91-4.32 2.1-9.49 2.1m1.9-10.64q6.22 0 10.38-4.33t4.17-11.7q0-7.48-4.17-11.75t-10.38-4.27q-5.8 0-9.91 4.11t-4.11 11.28v1.05q0 7.17 4.11 11.39t9.91 4.22"/><path fill="#192072" d="M0 900h769v450H0z"/><svg xmlns="http://www.w3.org/2000/svg" xmlns:c2pa="http://c2pa.org/manifest" width="576.75" height="337.5" x="96.13" y="956.25" viewBox="0 0 210.18 37.67"><path fill="#fff" d="M194.7 30.87a5.96 5.96 0 0 1-5.96-5.96V7.26a5.97 5.97 0 0 1 5.96-5.96h13.55c1.07 0 1.93.86 1.93 1.92a1.93 1.93 0 0 1-1.93 1.92H194.7a2.1 2.1 0 0 0-2.1 2.11v6.95h13.29c1 0 1.82.82 1.82 1.83a1.83 1.83 0 0 1-1.82 1.82h-13.3v7.06a2.1 2.1 0 0 0 2.1 2.11h13.56c1.07 0 1.93.87 1.93 1.93a1.93 1.93 0 0 1-1.93 1.92zm-60.78.39c-3.91 0-6.92-1-8.95-2.95s-3.06-4.9-3.06-8.74V3.14c0-1.23 1-2.23 2.23-2.23a2.23 2.23 0 0 1 2.23 2.23v15.84q0 4.34 1.84 6.41 1.86 2.08 5.7 2.09 3.86 0 5.7-2.09c1.23-1.37 1.85-3.53 1.85-6.4V3.13A2.24 2.24 0 0 1 143.69.9a2.23 2.23 0 0 1 2.23 2.23v16.43c0 3.84-1.03 6.78-3.06 8.74s-5.04 2.95-8.94 2.95m33.52 0c-5.03 0-8.87-1.43-11.4-4.25a2.1 2.1 0 0 1 .11-2.86l.01-.01.01-.01a2 2 0 0 1 1.5-.62c.6 0 1.16.26 1.55.7a9 9 0 0 0 2.4 1.97q2.33 1.3 5.78 1.3 3.26 0 5.15-1.14A3.7 3.7 0 0 0 174.5 23q-.01-1.74-1.76-2.8c-1.13-.69-3.04-1.27-5.84-1.8q-4.08-.76-6.5-1.88a8 8 0 0 1-3.47-2.73 7 7 0 0 1-1.08-3.96 8 8 0 0 1 1.37-4.5 9.4 9.4 0 0 1 3.96-3.23q2.6-1.2 6.1-1.2 4.06 0 6.93 1.47a12 12 0 0 1 3.45 2.68c.77.86.7 2.2-.16 2.97a2.1 2.1 0 0 1-3.08-.28 8 8 0 0 0-1.92-1.8q-1.96-1.25-5.18-1.25-3.19 0-4.97 1.28a4 4 0 0 0-1.8 3.36q0 1.92 1.77 3.06c1.14.72 3.12 1.33 6.04 1.86q4 .72 6.35 1.81a8 8 0 0 1 3.38 2.69 7 7 0 0 1 1.05 3.98q0 2.55-1.45 4.49a9 9 0 0 1-4.1 2.98q-2.64 1.05-6.14 1.05m-66.83 0c-5.03 0-8.87-1.42-11.4-4.24a2.1 2.1 0 0 1 .11-2.87l.02-.01a2.1 2.1 0 0 1 3.05.08 9 9 0 0 0 2.4 1.97q2.33 1.3 5.78 1.3 3.27 0 5.15-1.15a3.7 3.7 0 0 0 1.94-3.32q-.01-1.75-1.76-2.8c-1.13-.69-3.04-1.28-5.84-1.8q-4.08-.76-6.51-1.88a8 8 0 0 1-3.46-2.73A7 7 0 0 1 89 9.85a8 8 0 0 1 1.37-4.5 9.4 9.4 0 0 1 3.96-3.23q2.61-1.2 6.09-1.2 4.07 0 6.94 1.47a12 12 0 0 1 3.45 2.68 2.1 2.1 0 0 1-1.57 3.51 2.1 2.1 0 0 1-1.67-.82 8 8 0 0 0-1.92-1.8q-1.96-1.25-5.18-1.26-3.2 0-4.97 1.29a4 4 0 0 0-1.8 3.36q0 1.92 1.76 3.05c1.15.73 3.13 1.34 6.06 1.87a27 27 0 0 1 6.35 1.81 8 8 0 0 1 3.37 2.69 7 7 0 0 1 1.05 3.98q0 2.55-1.45 4.48a9 9 0 0 1-4.1 3q-2.64 1.04-6.14 1.04M70.97 11.39a1.17 1.17 0 0 0-1.68 0 1.2 1.2 0 0 0 .19 1.83c.39.25.9.25 1.3 0a1.2 1.2 0 0 0 .19-1.83m-1.56-4.2a4.55 4.55 0 0 0-5.46 5.47 4.6 4.6 0 0 0 3.4 3.4 4.55 4.55 0 0 0 5.46-5.47 4.6 4.6 0 0 0-3.4-3.4M14.6 37.68c-3.9 0-7.78-1.58-10.14-4.12C1.54 30.44-.21 27.29.02 21.29c.15-3.78 2.25-7.93 5.61-11.1A38 38 0 0 1 23.93.85a41 41 0 0 1 8.25-.83q2.1 0 4.17.2c3.87.4 7.5 1.1 10.8 2.13a42 42 0 0 1 5.1 1.94l.71.32c1.33.59 2.83 1.25 3.77 2.21l.36.37v-.52q0-1.7-.04-3.4Q57.01 1.8 57 .64c0-.4.33-.64.64-.64q.14 0 .26.06l3.14 1.47c2.72 1.27 6.1 2.86 8.67 4.03a8.2 8.2 0 0 1 4.5 5.22c.72 2.18.86 4.63.96 7.17q0 .14-.02.21c-.02.03-.1.14-.68.14h-.98c-.54 0-1.15 0-1.6.02a31 31 0 0 1-3.57-.03c-2-.1-4.13-.94-5.7-2.26-.14-.12-.4-.2-.62-.2a.7.7 0 0 0-.5.2.8.8 0 0 0-.02 1.02 10.4 10.4 0 0 0 7.15 2.91 32 32 0 0 0 4.74-.1l.24-.01q.3-.04.52-.05l-.55.43a13 13 0 0 1-3.72 1.86 20 20 0 0 1-5.9 1.02h-.61q-1.5 0-3-.19l-.79-.1q-.54-.1-1.1-.15l-.27-.03a7 7 0 0 0-.79-.06q-.3 0-.56.05a2.2 2.2 0 0 0-1.3.8c-.46.6-.59 2.13-.34 2.78.48 1.31 1.57 2.04 2.55 2.63q.48.28.99.49c.81.36 1.52.68 1.75 1.41-.3.08-1.21.14-2.22.14H54.7c-.96 0-1.7-.07-2.04-.2h-.03c-.29-.16-.43-.58-.54-.93v-.01a7 7 0 0 0-.9-1.64 7 7 0 0 0-3.06-2.64 9 9 0 0 0-3.56-.65l-1.15.02-1.07.02h-.79l-1.28-.01c-.49-.01-1.05-.03-2.05-.03-.33 0-.57.35-.65.94-.14 1.07.3 2.85 2.1 3.35l.49.13c.87.22 1.78.45 2.41 1.1.2.21.27.4.24.46-.01.03-.1.09-.35.09h-6.22c-1.04 0-1.83-.05-2.5-.6-1.11-.95-1.66-2.21-2.23-3.55l-.1-.22a40 40 0 0 0-2.11-4.28c-1.83-3.13-4.04-5.42-6.58-6.78-2-1.07-4.5-1.68-6.84-1.68-2.82 0-5.45.87-7.59 2.51a8.5 8.5 0 0 0-3.38 6.77 10.4 10.4 0 0 0 3.82 8.04 9 9 0 0 0 5.7 1.9q.3 0 .6-.03a7.8 7.8 0 0 0 5.8-2.82 5.8 5.8 0 0 0 1.1-4.75 5 5 0 0 0-2.28-3.36 5.6 5.6 0 0 0-2.84-.68h-.02q-1.96 0-2.95.98c-.94.9-1.09 2.5-.34 3.57l.32.41c.33.38.6.72.54 1.16a1 1 0 0 1-.78.76l-.31.04c-.65 0-1.22-.44-1.58-.82a5.1 5.1 0 0 1-1.03-5.36c1.02-2.45 3.75-3.55 6-3.55h.23a9.1 9.1 0 0 1 7.79 5.32 10 10 0 0 1-.93 9.48c-1.88 2.75-5.22 4.33-9.16 4.33m57.07-26.05a3.3 3.3 0 1 1-6.6 0 3.3 3.3 0 1 1 6.6 0"/></svg></svg>