<svg xmlns="http://www.w3.org/2000/svg" width="1080" height="1350" viewBox="0 0 1080 1350"><path fill="#fff" d="M0 0h1080v1350H0z"/><path fill="#0c322c" d="M0 0h540v675H0z"/><svg xmlns="http://www.w3.org/2000/svg" xmlns:c2pa="http://c2pa.org/manifest" width="432" height="540" x="54" y="67.5" viewBox="0 0 210.18 37.67"><path fill="#fff" d="M194.7 30.87a5.96 5.96 0 0 1-5.96-5.96V7.26a5.97 5.97 0 0 1 5.96-5.96h13.55c1.07 0 1.93.86 1.93 1.92a1.93 1.93 0 0 1-1.93 1.92H194.7a2.1 2.1 0 0 0-2.1 2.11v6.95h13.29c1 0 1.82.82 1.82 1.83a1.83 1.83 0 0 1-1.82 1.82h-13.3v7.06a2.1 2.1 0 0 0 2.1 2.11h13.56c1.07 0 1.93.87 1.93 1.93a1.93 1.93 0 0 1-1.93 1.92zm-60.78.39c-3.91 0-6.92-1-8.95-2.95s-3.06-4.9-3.06-8.74V3.14c0-1.23 1-2.23 2.23-2.23a2.23 2.23 0 0 1 2.23 2.23v15.84q0 4.34 1.84 6.41 1.86 2.08 5.7 2.09 3.86 0 5.7-2.09c1.23-1.37 1.85-3.53 1.85-6.4V3.13A2.24 2.24 0 0 1 143.69.9a2.23 2.23 0 0 1 2.23 2.23v16.43c0 3.84-1.03 6.78-3.06 8.74s-5.04 2.95-8.94 2.95m33.52 0c-5.03 0-8.87-1.43-11.4-4.25a2.1 2.1 0 0 1 .11-2.86l.01-.01.01-.01a2 2 0 0 1 1.5-.62c.6 0 1.16.26 1.55.7a9 9 0 0 0 2.4 1.97q2.33 1.3 5.78 1.3 3.26 0 5.15-1.14A3.7 3.7 0 0 0 174.5 23q-.01-1.74-1.76-2.8c-1.13-.69-3.04-1.27-5.84-1.8q-4.08-.76-6.5-1.88a8 8 0 0 1-3.47-2.73 7 7 0 0 1-1.08-3.96 8 8 0 0 1 1.37-4.5 9.4 9.4 0 0 1 3.96-3.23q2.6-1.2 6.1-1.2 4.06 0 6.93 1.47a12 12 0 0 1 3.45 2.68c.77.86.7 2.2-.16 2.97a2.1 2.1 0 0 1-3.08-.28 8 8 0 0 0-1.92-1.8q-1.96-1.25-5.18-1.25-3.19 0-4.97 1.28a4 4 0 0 0-1.8 3.36q0 1.92 1.77 3.06c1.14.72 3.12 1.33 6.04 1.86q4 .72 6.35 1.81a8 8 0 0 1 3.38 2.69 7 7 0 0 1 1.05 3.98q0 2.55-1.45 4.49a9 9 0 0 1-4.1 2.98q-2.64 1.05-6.14 1.05m-66.83 0c-5.03 0-8.87-1.42-11.4-4.24a2.1 2.1 0 0 1 .11-2.87l.02-.01a2.1 2.1 0 0 1 3.05.08 9 9 0 0 0 2.4 1.97q2.33 1.3 5.78 1.3 3.27 0 5.15-1.15a3.7 3.7 0 0 0 1.94-3.32q-.01-1.75-1.76-2.8c-1.13-.69-3.04-1.28-5.84-1.8q-4.08-.76-6.51-1.88a8 8 0 0 1-3.46-2.73A7 7 0 0 1 89 9.85a8 8 0 0 1 1.37-4.5 9.4 9.4 0 0 1 3.96-3.23q2.61-1.2 6.09-1.2 4.07 0 6.94 1.47a12 12 0 0 1 3.45 2.68 2.1 2.1 0 0 1-1.57 3.51 2.1 2.1 0 0 1-1.67-.82 8 8 0 0 0-1.92-1.8q-1.96-1.25-5.18-1.26-3.2 0-4.97 1.29a4 4 0 0 0-1.8 3.36q0 1.92 1.76 3.05c1.15.73 3.13 1.34 6.06 1.87a27 27 0 0 1 6.35 1.81 8 8 0 0 1 3.37 2.69 7 7 0 0 1 1.05 3.98q0 2.55-1.45 4.48a9 9 0 0 1-4.1 3q-2.64 1.04-6.14 1.04M70.97 11.39a1.17 1.17 0 0 0-1.68 0 1.2 1.2 0 0 0 .19 1.83c.39.25.9.25 1.3 0a1.2 1.2 0 0 0 .19-1.83m-1.56-4.2a4.55 4.55 0 0 0-5.46 5.47 4.6 4.6 0 0 0 3.4 3.4 4.55 4.55 0 0 0 5.46-5.47 4.6 4.6 0 0 0-3.4-3.4M14.6 37.68c-3.9 0-7.78-1.58-10.14-4.12C1.54 30.44-.21 27.29.02 21.29c.15-3.78 2.25-7.93 5.61-11.1A38 38 0 0 1 23.93.85a41 41 0 0 1 8.25-.83q2.1 0 4.17.2c3.87.4 7.5 1.1 10.8 2.13a42 42 0 0 1 5.1 1.94l.71.32c1.33.59 2.83 1.25 3.77 2.21l.36.37v-.52q0-1.7-.04-3.4Q57.01 1.8 57 .64c0-.4.33-.64.64-.64q.14 0 .26.06l3.14 1.47c2.72 1.27 6.1 2.86 8.67 4.03a8.2 8.2 0 0 1 4.5 5.22c.72 2.18.86 4.63.96 7.17q0 .14-.02.21c-.02.03-.1.14-.68.14h-.98c-.54 0-1.15 0-1.6.02a31 31 0 0 1-3.57-.03c-2-.1-4.13-.94-5.7-2.26-.14-.12-.4-.2-.62-.2a.7.7 0 0 0-.5.2.8.8 0 0 0-.02 1.02 10.4 10.4 0 0 0 7.15 2.91 32 32 0 0 0 4.74-.1l.24-.01q.3-.04.52-.05l-.55.43a13 13 0 0 1-3.72 1.86 20 20 0 0 1-5.9 1.02h-.61q-1.5 0-3-.19l-.79-.1q-.54-.1-1.1-.15l-.27-.03a7 7 0 0 0-.79-.06q-.3 0-.56.05a2.2 2.2 0 0 0-1.3.8c-.46.6-.59 2.13-.34 2.78.48 1.31 1.57 2.04 2.55 2.63q.48.28.99.49c.81.36 1.52.68 1.75 1.41-.3.08-1.21.14-2.22.14H54.7c-.96 0-1.7-.07-2.04-.2h-.03c-.29-.16-.43-.58-.54-.93v-.01a7 7 0 0 0-.9-1.64 7 7 0 0 0-3.06-2.64 9 9 0 0 0-3.56-.65l-1.15.02-1.07.02h-.79l-1.28-.01c-.49-.01-1.05-.03-2.05-.03-.33 0-.57.35-.65.94-.14 1.07.3 2.85 2.1 3.35l.49.13c.87.22 1.78.45 2.41 1.1.2.21.27.4.24.46-.01.03-.1.09-.35.09h-6.22c-1.04 0-1.83-.05-2.5-.6-1.11-.95-1.66-2.21-2.23-3.55l-.1-.22a40 40 0 0 0-2.11-4.28c-1.83-3.13-4.04-5.42-6.58-6.78-2-1.07-4.5-1.68-6.84-1.68-2.82 0-5.45.87-7.59 2.51a8.5 8.5 0 0 0-3.38 6.77 10.4 10.4 0 0 0 3.82 8.04 9 9 0 0 0 5.7 1.9q.3 0 .6-.03a7.8 7.8 0 0 0 5.8-2.82 5.8 5.8 0 0 0 1.1-4.75 5 5 0 0 0-2.28-3.36 5.6 5.6 0 0 0-2.84-.68h-.02q-1.96 0-2.95.98c-.94.9-1.09 2.5-.34 3.57l.32.41c.33.38.6.72.54 1.16a1 1 0 0 1-.78.76l-.31.04c-.65 0-1.22-.44-1.58-.82a5.1 5.1 0 0 1-1.03-5.36c1.02-2.45 3.75-3.55 6-3.55h.23a9.1 9.1 0 0 1 7.79 5.32 10 10 0 0 1-.93 9.48c-1.88 2.75-5.22 4.33-9.16 4.33m57.07-26.05a3.3 3.3 0 1 1-6.6 0 3.3 3.3 0 1 1 6.6 0"/></svg><path fill="#30ba78" d="M540 0h540v675H540z"/><path fill="#0c322c" d="M651.42 394.83q-12.83 0-23.61-4.36t-18.61-12.12-12.2-18.22-4.36-22.81v-.64q0-12.35 4.36-22.81t12.2-18.22 18.61-12.12 23.61-4.35q12.67 0 22.73 4.35 10.06 4.36 18.3 12.6l-21.7 25.03q-5.07-4.6-9.67-6.66t-9.66-2.06q-10.93 0-17.35 6.74-6.41 6.73-6.41 17.5v.64q0 10.61 6.41 17.42t17.35 6.82q5.39 0 10.22-2.3t10.22-7.53l21.54 25.19q-8.24 8.56-18.85 13.23t-23.13 4.68m45.63-2.38V276.8h31.05v43.88q3.8-4.43 9.42-6.89t11.97-2.45q13.3 0 21.54 8t8.24 22.73v50.38h-32v-41.82q0-5.23-2.38-7.85t-6.34-2.61q-4.27 0-6.89 2.61-2.61 2.62-2.61 7.85v41.82zm131.97 1.58q-12.2 0-22.26-5.14-10.06-5.15-15.93-14.26t-5.86-20.99v-1.75q0-11.88 5.86-21.07t15.93-14.34 22.26-5.14q12.35 0 22.33 5.22 9.98 5.23 15.85 14.42t5.86 21.07v1.59q0 11.88-5.86 20.99t-15.85 14.26-22.33 5.14m0-28.83q5.54 0 8.95-3.33 3.4-3.32 3.4-8.23v-1.59q0-5.07-3.4-8.47-3.41-3.41-8.95-3.41-5.39 0-8.8 3.33-3.4 3.32-3.4 8.39v1.75q0 4.91 3.4 8.23 3.41 3.33 8.8 3.33m57.03 27.25v-52.91h-11.88v-26.62h43.88v79.53zm-1.43-87.61V276.8h35.49v28.04zm81.43 89.19q-11.72 0-21.15-5.38t-14.97-14.66q-5.54-9.26-5.54-20.83v-1.27q0-12.04 5.7-21.15t15.21-14.26q9.51-5.14 20.91-5.14 9.82 0 18.46 4.04t14.02 11.32l-19.17 18.86q-4.44-5.07-10.93-5.07-5.39 0-8.95 3.16-3.57 3.17-3.57 8.24v1.27q0 4.91 3.49 8.32 3.48 3.4 8.71 3.4 6.34 0 11.57-5.7l19.32 19.65q-5.06 6.97-14.1 11.09t-19.01 4.11m73.04 0q-12.52 0-21.94-4.99t-14.74-14.1q-5.3-9.11-5.3-21.62v-1.59q0-11.09 4.99-20.19t14.1-14.66q9.11-5.54 21.15-5.54 13.3 0 22.49 6.17t13.23 17.04q4.04 10.85 1.82 25.11h-45.78q.95 4.59 3.88 6.41t8.32 1.82q5.07 0 8.31-1.5 3.25-1.51 6.74-4.52l17.42 19.81q-6.33 6.33-15.52 9.34t-19.17 3.01m-1.59-59.56q-4.12 0-6.02 2.61t-2.37 6.89h16.47q-.31-4.91-2.69-7.21t-5.39-2.29m43.41 57.98v-31.84h35.49v31.84z"/><path fill="#bff1ea" d="M0 675h540v675H0z"/><path fill="#0c322c" d="M97.29 847.65q-12.23 0-21.9-5.68t-15.22-15.84-5.56-23.52v-1q0-13.22 5.56-23.27t15.22-15.66q9.67-5.61 21.9-5.61 12.35 0 21.96 5.61 9.6 5.62 15.09 15.66 5.49 10.05 5.49 23.27v1q0 13.35-5.49 23.52t-15.09 15.84-21.96 5.68m0-12.72q8.48 0 15.09-3.94 6.62-3.93 10.36-11.22t3.74-17.16v-1q0-9.73-3.74-16.84-3.74-7.12-10.36-11.05t-15.09-3.93q-8.61 0-15.23 3.93-6.61 3.93-10.35 11.05-3.74 7.11-3.74 16.84v1q0 9.86 3.74 17.16 3.74 7.29 10.35 11.22 6.62 3.94 15.23 3.94m55.52 36.05v-85.34h11.48v8.86q3.49-4.74 8.73-7.42 5.24-2.69 11.61-2.69 8.23 0 14.66 3.87t10.1 10.79q3.69 6.93 3.69 16.04v1.24q0 9.24-3.62 16.22-3.62 6.99-10.05 10.86-6.42 3.87-14.66 3.87-6.11 0-11.17-2.5t-8.54-6.86v33.06zm30.07-34.43q7.61 0 12.79-5.49t5.18-14.73v-1.24q0-9.11-5.18-14.48-5.18-5.36-12.79-5.36-7.99 0-13.29 5.55t-5.3 15.04 5.3 15.09q5.3 5.62 13.29 5.62m70 10.73q-9.11 0-15.97-3.93t-10.67-10.92-3.81-16.22v-1.25q0-8.73 3.56-15.66t9.98-10.91q6.43-4 15.04-4 8.85 0 15.16 4.37 6.3 4.37 9.23 12.23t1.68 18.59h-42.54q.74 7.24 5.67 12.04t13.17 4.8q8.98 0 14.22-4.86l6.99 7.36q-3.62 4.12-9.24 6.24t-12.47 2.12m-1.87-52.78q-6.99 0-11.11 4.37t-5.11 11.48h30.56q-.12-7.49-4.11-11.67t-10.23-4.18m39.17 51.53v-60.39h11.73v8.61q3.75-5.74 9.17-7.8t9.92-2.06q10.23 0 16.47 6.62t6.24 19.34v35.68h-12.23v-33.81q0-8.86-3.86-12.73-3.87-3.87-9.86-3.87-6.36 0-10.86 4.24t-4.49 12.61v33.56zM75.33 986.89q-6.99 0-12.92-2.12t-9.79-5.24l5.36-8.36q3.62 2.75 8.11 4.43 4.5 1.69 9.24 1.69 4.99 0 8.04-2.25 3.06-2.25 3.06-5.74 0-3.24-2.24-4.93t-5.81-2.68q-3.55-1-7.61-2.06-4.05-1.06-7.61-2.87-3.55-1.81-5.86-5.12-2.31-3.3-2.31-8.92 0-8.23 6.18-13.41t16.53-5.18q5.86 0 11.04 1.69 5.18 1.68 9.17 4.43l-5.49 8.23q-3.24-2.24-7.05-3.55t-7.8-1.31q-4.86 0-7.86 2.24t-2.99 5.74q0 3.24 2.31 4.93 2.3 1.68 5.98 2.68t7.74 2.12 7.74 3 5.99 5.24 2.3 8.98q0 5.37-3.05 9.48-3.06 4.12-8.3 6.49t-12.1 2.37m62.76.13q-8.74 0-15.66-3.99t-10.98-10.98-4.06-16.1v-1.12q0-8.99 4.06-15.91t10.98-10.86q6.92-3.93 15.66-3.93t15.59 3.93q6.87 3.93 10.86 10.8 3.99 6.86 3.99 15.84v1.25q0 9.11-3.99 16.1-3.99 6.98-10.86 10.98t-15.59 3.99m0-10.86q8.11 0 13.16-5.61t5.05-14.6v-1.25q0-8.73-5.05-14.22t-13.16-5.49-13.23 5.55q-5.11 5.55-5.11 14.29v1.12q0 8.98 5.11 14.6t13.23 5.61m66 10.86q-9.98 0-16.59-5.99-6.62-5.99-6.62-18.72v-36.93h12.11v34.69q0 8.86 3.86 12.29 3.87 3.43 9.86 3.43 6.24 0 10.61-4.06t4.36-12.29v-34.06h12.11v60.39h-10.73v-8.23q-3.75 5.61-9.11 7.54-5.37 1.94-9.86 1.94m46.79-1.25v-60.39h11.85v9.23q2.13-5.49 6.55-7.55t9.92-2.05h5v12.1h-5.99q-7.24 0-11.17 3.43t-3.93 10.29v34.94zm68.5 1.25q-9.11 0-16.16-3.93t-11.1-10.86q-4.06-6.92-4.06-15.91v-1.49q0-9.11 4.12-16.04T303.35 928t16.03-3.87q6.61 0 12.23 2.56t9.36 7.05l-7.49 7.61q-5.37-5.99-14.1-5.99-8.23 0-13.6 5.3t-5.36 14.17v1.49q0 8.74 5.42 14.1 5.43 5.37 13.67 5.37 4.11 0 7.73-1.44 3.62-1.43 6.61-4.43l7.37 7.49q-3.75 4.49-9.49 7.05t-12.35 2.56m58.02 0q-9.11 0-15.97-3.93t-10.67-10.92-3.8-16.22v-1.25q0-8.73 3.55-15.66 3.56-6.92 9.98-10.91t15.04-4q8.86 0 15.16 4.37t9.23 12.23 1.69 18.59h-42.55q.75 7.24 5.68 12.04t13.16 4.8q8.98 0 14.22-4.86l6.99 7.36q-3.62 4.12-9.23 6.24t-12.48 2.12m-1.87-52.78q-6.99 0-11.11 4.37t-5.11 11.48h30.57q-.13-7.49-4.12-11.67t-10.23-4.18m36.81 51.53v-15.35h14.72v23.34q0 4.11-1.62 6.36t-4.12 3.12-4.99.87h-4.49V997h4.49q1.5 0 2.31-1t.81-2.37v-7.86zm-360.1 164.68v-10.48h12.61q2.12 0 3.43-1.37t2.18-3.37l4.12-8.86-24.83-61.26h13.6l17.72 46.29 16.47-46.29h13.6l-28.45 70.62q-1.37 3.37-3.43 6.8t-5.62 5.68q-3.55 2.24-9.42 2.24zm93.58-23.7q-8.73 0-15.66-3.99t-10.98-10.98-4.05-16.1v-1.12q0-8.99 4.05-15.91t10.98-10.86 15.66-3.93 15.6 3.93 10.85 10.8q4 6.86 4 15.84v1.25q0 9.11-4 16.1-3.99 6.98-10.85 10.98t-15.6 3.99m0-10.86q8.11 0 13.17-5.61 5.05-5.62 5.05-14.6v-1.25q0-8.73-5.05-14.22t-13.17-5.49-13.22 5.55q-5.12 5.55-5.12 14.29v1.12q0 8.98 5.12 14.6t13.22 5.61m66.01 10.86q-9.98 0-16.6-5.99-6.61-5.99-6.61-18.72v-36.93h12.1v34.69q0 8.86 3.87 12.29t9.86 3.43q6.24 0 10.6-4.06 4.37-4.05 4.37-12.29v-34.06h12.1v60.39h-10.73v-8.23q-3.74 5.61-9.11 7.54-5.36 1.94-9.85 1.94m46.79-1.25v-60.39h11.85v9.23q2.12-5.49 6.55-7.55t9.92-2.05h4.99v12.1h-5.99q-7.23 0-11.17 3.43t-3.93 10.29v34.94zM68.34 1265.23l-16.72-60.39h12.1l12.23 47.91 13.35-47.91h12.85l13.23 47.79 12.35-47.79h12.1l-16.72 60.39h-14.09l-13.36-49.41-13.35 49.41zm99.94 1.25q-10.23 0-16.41-5.06t-6.17-13.03q0-5.24 3.12-9.42t8.54-6.62 12.54-2.43q9.11 0 14.85 3.49v-6.61q0-6.61-3.62-9.48-3.61-2.87-9.48-2.87-4.74 0-9.73 1.74-4.99 1.75-8.61 5.37l-5.62-8.48q4.12-4.5 10.8-6.99 6.67-2.5 13.91-2.5 10.85 0 17.65 5.74t6.8 16.85v19.46q0 4.87.07 9.8.06 4.92.31 9.79h-10.98v-6.11q-5.37 7.36-17.97 7.36m3.37-9.11q6.11 0 9.67-2.56t3.56-6.67q0-4-3.56-6.55-3.56-2.56-9.79-2.56-6.12 0-9.8 2.56-3.68 2.55-3.68 6.55t3.68 6.61 9.92 2.62m34.94 32.81v-10.48h12.6q2.12 0 3.43-1.37t2.18-3.37l4.12-8.86-24.83-61.26h13.6l17.72 46.29 16.47-46.29h13.6l-28.45 70.62q-1.37 3.37-3.43 6.8t-5.61 5.68-9.42 2.24z"/><path fill="#2453ff" d="M540 675h540v675H540z"/><rect width="440" height="148.38" x="590" y="938.31" fill="none" stroke="#fff" stroke-width="2" rx="74.19" ry="74.19"/><path fill="#fff" d="M685.85 1037.91q-3.59 0-5.86-2.31-2.27-2.3-2.27-5.81v-43.12h6.22v41.43q0 1.69 1.1 2.78 1.1 1.1 2.78 1.1h20.42v5.93zm42.37.73q-5.19 0-9.18-2.3-3.99-2.31-6.22-6.41t-2.23-9.44v-.73q0-5.13 2.04-9.11 2.05-3.99 5.79-6.34 3.73-2.34 8.63-2.34 5.05 0 8.64 2.49t5.31 6.99.98 10.65h-25.47q.22 3.07 1.72 5.6t4.1 4.03 6.11 1.5q2.79 0 4.94-.66t3.77-2.13l3.37 3.66q-2.05 2.2-5.23 3.37t-7.07 1.17m-1.17-31.54q-4.39 0-7.13 2.78t-3.33 7.39h19.76q-.07-4.83-2.64-7.5-2.56-2.67-6.66-2.67m33.89 31.54q-6 0-9.62-2.93-3.63-2.92-3.63-7.61 0-3.07 1.83-5.49 1.83-2.41 5.02-3.84t7.13-1.43q5.79 0 9.23 2.42v-4.39q0-4.32-2.24-6.19-2.23-1.86-6.03-1.86-2.86 0-5.82 1.06t-5.09 3.25l-2.78-4.17q2.34-2.71 6.15-4.1 3.8-1.39 7.83-1.39 6.22 0 10.03 3.3t3.8 9.8v11.28q0 5.85.22 11.56h-5.27l-.07-3.51q-3.3 4.24-10.69 4.24m1.54-4.46q4.02 0 6.26-1.69 2.23-1.68 2.23-4.39t-2.23-4.35-6.33-1.65q-4.03 0-6.37 1.65-2.34 1.64-2.34 4.35 0 2.64 2.37 4.36t6.41 1.72m24.88 3.73v-35.21h5.71v5.64q1.32-3.37 3.92-4.57t5.82-1.21h3v5.85h-3.44q-4.32 0-6.7 2.13t-2.38 6.51v20.86zm25.4 0v-35.21h5.71v5.64q2.12-3.66 5.45-5.01 3.33-1.36 6.19-1.36 5.93 0 9.62 3.84 3.7 3.85 3.7 11.39v20.71h-5.93v-19.84q0-5.63-2.52-8.16-2.53-2.52-6.41-2.52-4.02 0-6.95 2.74t-2.93 8.02v19.76zm58.19 0v-35.21h5.64v5.57q2.05-3.59 5.16-4.94t6.04-1.36q3.8 0 6.69 1.69 2.89 1.68 4.36 5.19 1.53-2.63 3.62-4.13t4.32-2.13 4.21-.62q5.71 0 9.29 3.7 3.59 3.69 3.59 11.31v20.93h-5.78v-20.2q0-5.42-2.35-7.87-2.34-2.45-6.14-2.45-3.96 0-6.59 2.67-2.64 2.67-2.64 7.65v20.2h-5.85v-20.2q0-5.42-2.31-7.87-2.3-2.45-6.11-2.45-3.95 0-6.62 2.67t-2.67 7.65v20.2zm78.54.73q-5.05 0-9.01-2.3-3.95-2.31-6.22-6.41t-2.27-9.44v-.66q0-5.2 2.27-9.26t6.22-6.33 9.01-2.27 9 2.27 6.22 6.26 2.27 9.18v.81q0 5.34-2.27 9.44t-6.22 6.41q-3.95 2.3-9 2.3m0-5.27q3.44 0 6.04-1.64 2.59-1.65 4.06-4.54t1.46-6.7v-.81q0-5.48-3.22-8.96t-8.34-3.48q-3.37 0-6.01 1.61t-4.13 4.47-1.5 6.51v.66q0 3.81 1.5 6.7t4.13 4.54 6.01 1.64m26.13 4.54v-35.21h5.71v5.64q1.31-3.37 3.91-4.57t5.82-1.21h3v5.85h-3.44q-4.32 0-6.7 2.13t-2.37 6.51v20.86zm38.94.73q-5.2 0-9.19-2.3-3.99-2.31-6.22-6.41t-2.23-9.44v-.73q0-5.13 2.05-9.11 2.04-3.99 5.78-6.34 3.73-2.34 8.63-2.34 5.05 0 8.64 2.49t5.31 6.99.99 10.65h-25.48q.22 3.07 1.72 5.6t4.1 4.03 6.11 1.5q2.79 0 4.95-.66 2.15-.66 3.76-2.13l3.37 3.66q-2.05 2.2-5.23 3.37t-7.06 1.17m-1.18-31.54q-4.39 0-7.13 2.78t-3.33 7.39h19.76q-.07-4.83-2.64-7.5-2.56-2.67-6.66-2.67"/></svg>