<svg xmlns="http://www.w3.org/2000/svg" width="1350" height="759" viewBox="0 0 1350 759"><path fill="#fff" d="M0 0h1350v759H0z"/><path fill="#fff" d="M0 0h675v379.5H0z"/><svg xmlns="http://www.w3.org/2000/svg" xmlns:c2pa="http://c2pa.org/manifest" width="540" height="303.59" x="67.5" y="37.95" viewBox="0 0 122.72 106.67"><path fill="#0c322c" d="M119.77 102H106.2a1.9 1.9 0 0 1-1.9-1.9v-6.84h13.09a2.04 2.04 0 1 0 0-4.07H104.3v-6.74a1.9 1.9 0 0 1 1.9-1.9h13.56a2.14 2.14 0 1 0 0-4.27H106.2a6.2 6.2 0 0 0-6.17 6.17v17.66a6.2 6.2 0 0 0 6.17 6.17h13.56a2.14 2.14 0 1 0 0-4.28M79.9 89.24q-4.3-.77-5.98-1.83-1.67-1.07-1.67-2.88 0-1.94 1.72-3.19t4.84-1.24q3.17 0 5.07 1.22 1.02.66 1.86 1.75a2.32 2.32 0 1 0 3.57-2.96 12 12 0 0 0-3.5-2.73q-2.93-1.49-7.04-1.49-3.54 0-6.18 1.22-2.65 1.22-4.05 3.3a8 8 0 0 0-1.4 4.62q0 2.4 1.1 4.07 1.11 1.68 3.55 2.81 2.45 1.13 6.57 1.9t5.77 1.77 1.65 2.62q0 2.04-1.84 3.15-1.83 1.1-5.04 1.1-3.4 0-5.68-1.26a9 9 0 0 1-2.34-1.92 2.3 2.3 0 0 0-3.36-.1l-.01.02a2.3 2.3 0 0 0-.12 3.15q3.88 4.32 11.55 4.32 3.53 0 6.23-1.06 2.69-1.06 4.18-3.05 1.5-2 1.5-4.62 0-2.44-1.09-4.1-1.08-1.65-3.46-2.76t-6.4-1.83m-66.83.01q-4.3-.77-5.98-1.83-1.67-1.07-1.67-2.88 0-1.94 1.72-3.19 1.72-1.24 4.84-1.24 3.16 0 5.07 1.22 1.02.66 1.86 1.75a2.3 2.3 0 0 0 3.4.3 2.3 2.3 0 0 0 .17-3.26 12 12 0 0 0-3.51-2.73q-2.92-1.49-7.04-1.49-3.53 0-6.17 1.22t-4.05 3.3a8 8 0 0 0-1.4 4.62q0 2.4 1.1 4.07 1.11 1.68 3.55 2.81t6.56 1.9 5.78 1.77 1.65 2.62q0 2.04-1.84 3.15-1.83 1.1-5.04 1.1-3.4 0-5.68-1.26a9 9 0 0 1-2.34-1.92 2.3 2.3 0 0 0-3.37-.1v.02a2.3 2.3 0 0 0-.12 3.15q3.88 4.32 11.55 4.32 3.53 0 6.23-1.06 2.69-1.06 4.18-3.06 1.5-1.99 1.5-4.61 0-2.45-1.1-4.1-1.07-1.65-3.45-2.76t-6.4-1.83m44.57-10.91v16.42q0 5.88-3.13 8.9-3.12 3-9.1 3t-9.09-3-3.12-8.9V78.34a2.44 2.44 0 1 1 4.89 0v15.83q0 4.26 1.78 6.27t5.55 2.02 5.54-2.02q1.79-2.01 1.79-6.27V78.33a2.44 2.44 0 0 1 4.89 0"/><path fill="#30ba78" d="M115.91 21.85a2 2 0 0 1-2.2 0 2 2 0 0 1-.3-3.09c.77-.8 2.04-.8 2.82 0a2 2 0 0 1-.32 3.08m3.14-4.36a7.38 7.38 0 0 1-8.86 8.87 7.4 7.4 0 0 1-5.5-5.5 7.38 7.38 0 0 1 8.86-8.87 7.4 7.4 0 0 1 5.5 5.5M83.17 46.14a10 10 0 0 1 1.4 2.57c.2.6.46 1.4 1.05 1.7l.1.05c1.09.4 3.88.33 3.88.33h5.15c.43.01 4.3 0 4.2-.43-.46-2.07-2.86-2.44-4.67-3.52-1.68-1-3.27-2.13-4-4.08-.37-1-.14-3.33.5-4.17a3.3 3.3 0 0 1 1.92-1.18c.83-.18 1.69-.03 2.52.06 1.02.1 2.03.29 3.05.41a38 38 0 0 0 5.93.3c3.28-.08 6.56-.6 9.66-1.66 2.17-.73 4.3-1.71 6.14-3.08 2.1-1.56 1.55-1.41-.57-1.2a48 48 0 0 1-7.66.15c-2.38-.13-4.72-.41-6.88-1.52a17 17 0 0 1-4.49-3.1.9.9 0 0 1 .04-1.19c.36-.37 1.11-.15 1.35.04a16.6 16.6 0 0 0 9.45 3.75c1.96.1 3.86.13 5.82.05.98-.05 2.46-.04 3.44-.05.5 0 1.89.14 2.15-.4q.09-.23.06-.51c-.29-7.83-.87-16.66-9.06-20.4-6.11-2.8-15.28-7.13-19.15-8.93-.9-.42-1.95.25-1.95 1.25 0 2.61.13 6.37.13 9.8-1.85-1.9-4.97-3.09-7.36-4.18A70 70 0 0 0 77 3.82 89 89 0 0 0 59.41.37a67 67 0 0 0-20.26 1.02C28.21 3.66 17.45 8.93 9.29 16.62 4.27 21.34.34 28.06.07 34.87c-.38 9.64 2.33 14.82 7.3 20.16 7.91 8.5 24.95 9.7 31.86-.39a16.5 16.5 0 0 0 1.52-15.72 15.1 15.1 0 0 0-12.93-8.83c-4.26-.14-8.8 2.03-10.43 5.97a8.6 8.6 0 0 0 1.73 9.07c.88.91 2.08 1.66 3.39 1.37a1.9 1.9 0 0 0 1.53-1.54c.17-1.15-.84-1.9-1.46-2.78-1.12-1.6-.9-4 .51-5.36 1.18-1.15 2.94-1.49 4.59-1.48 1.53 0 3.1.28 4.43 1.05a7.8 7.8 0 0 1 3.52 5.22c1.28 6.33-3.87 11.48-10.85 11.88a14.5 14.5 0 0 1-10-2.97C7.73 44.84 6 33.23 14.07 27.04c7.66-5.89 17.33-4.37 23.03-1.31 4.56 2.44 7.96 6.44 10.54 10.87 1.3 2.22 2.4 4.55 3.42 6.9.98 2.28 1.9 4.57 3.87 6.23 1.3 1.1 2.9 1.06 4.62 1.06h9.74c1.32 0 1-.88.43-1.46-1.3-1.32-3.15-1.62-4.87-2.1-3.92-1.08-3.52-6.28-2.44-6.28 3.52 0 3.63.1 6.7.07 4.45-.06 5.79-.32 9.26.97 1.86.68 3.64 2.5 4.8 4.15"/></svg><path fill="#30ba78" d="M675 0h675v379.5H675z"/><path fill="#0c322c" d="M714.18 169v-21.98l51.66-66.11h-49.46V59.08h81.18v21.04l-53.23 67.05h53.86V169zm127.51 1.57q-11.78 0-20.65-4.95t-13.9-13.89-5.02-20.89v-1.57q0-10.99 4.71-19.86t13.19-14.13 19.78-5.26q12.25 0 20.81 5.88t12.4 16.57 1.97 25.12h-49.31q.94 6.13 5.26 9.74t12.01 3.61q5.66 0 9.11-1.8 3.46-1.81 6.44-4.95l13.35 13.66q-4.87 6.44-12.57 9.58t-17.58 3.14m-1.73-62.34q-6.28 0-9.66 3.93-3.37 3.92-4.47 10.2h26.85q-.47-6.91-3.93-10.52t-8.79-3.61M886.13 169V91.59h22.76v10.05q2.99-5.97 8.33-8.41 5.34-2.43 11.93-2.43h5.97v23.24h-8.01q-8.48 0-12.96 3.53-4.47 3.54-4.47 9.82V169zm91.54 1.57q-11.62 0-20.96-5.02-9.34-5.03-14.76-13.98T936.53 131v-1.57q0-11.62 5.42-20.49t14.76-13.9 20.96-5.02 20.89 5.02q9.26 5.03 14.68 13.9t5.42 20.49V131q0 11.62-5.42 20.57t-14.68 13.98-20.89 5.02m0-20.57q7.85 0 12.64-5.34T995.1 131v-1.57q0-8.32-4.79-13.58t-12.64-5.26q-7.69 0-12.64 5.26t-4.95 13.58V131q0 8.32 4.95 13.66t12.64 5.34M750.61 319.75q-4.39 0-9.03-.94t-8.56-3.61-6.35-7.54-2.44-12.72v-32.82h-12.09v-19.78h12.09v-18.69h23.56v18.69h15.86v19.78h-15.86v34.7q0 1.26.94 2.2t2.2.94h12.72v19.79zm24.65 0v-77.41h22.77v10.05q2.99-5.97 8.33-8.41 5.34-2.43 11.93-2.43h5.97v23.24h-8.01q-8.48 0-12.96 3.53-4.47 3.54-4.47 9.82v41.61zm86.68 1.57q-12.87 0-21.35-7.85t-8.48-22.93v-48.2h23.55v43.49q0 7.7 3.22 10.92t8.56 3.21q5.81 0 9.34-3.61t3.54-11.15v-42.86h23.55v77.41h-20.26v-7.54q-4.86 5.66-10.99 7.38-6.12 1.73-10.68 1.73m81.97-.31q-9.89 0-17.74-2.75t-13.19-6.52l9.89-15.86q5.02 2.99 10.28 5.03t10.76 2.04q4.24 0 6.75-1.49 2.52-1.5 2.52-4.01 0-2.82-2.67-4.16-2.67-1.33-6.83-2.35t-8.88-2.36-8.87-3.77-6.83-6.91-2.67-11.85q0-11.15 8.4-18.22t23.16-7.06q7.85 0 15.08 1.96 7.22 1.96 12.87 5.57l-10.05 15.71q-9.1-5.5-18.21-5.5-4.08 0-6.44 1.49-2.35 1.49-2.35 4.01 0 2.67 2.74 4.08t7.07 2.43 9.11 2.44 9.11 4 7.06 7.07q2.75 4.47 2.75 11.85t-4.24 13.04q-4.24 5.65-11.62 8.87t-16.96 3.22m76-1.26q-4.4 0-9.03-.94t-8.56-3.61-6.35-7.54q-2.44-4.87-2.44-12.72v-32.82h-12.09v-19.78h12.09v-18.69h23.56v18.69h15.85v19.78h-15.85v34.7q0 1.26.94 2.2t2.2.94h12.71v19.79z"/><path fill="#192072" d="M0 379.5h1350V759H0z"/><path fill="#fff" d="M42.35 534.77v-57.84q0-4.72 3.04-7.81t7.86-3.09h31.13v7.66H55.9q-2.26 0-3.73 1.52t-1.48 3.68v19.74h31.53v7.66H50.69v28.48zm68.64.98q-7.86 0-13.06-4.66t-5.2-14.78v-28.78h7.95v27.4q0 7.56 3.39 10.56t8.49 3q5.31 0 9.18-3.54t3.88-10.7v-26.72h7.86v47.24h-7.07v-7.07q-2.95 4.61-7.32 6.33t-8.1 1.72m49.89-.98q-5.8 0-9.28-3.29-3.49-3.29-3.49-8.79v-52.83h-8.64v-6.78h16.6v59.71q0 2.26 1.47 3.73t3.73 1.47h4.52v6.78zm26.41 0q-5.79 0-9.28-3.29t-3.48-8.79v-52.83h-8.64v-6.78h16.59v59.71q0 2.26 1.48 3.73 1.47 1.47 3.73 1.47h4.51v6.78zm9.33-23.37v-7.96h30.15v7.96zm55.19 23.37q-5.79 0-9.28-3.29t-3.48-8.79v-52.83h-8.64v-6.78H247v59.71q0 2.26 1.47 3.73 1.48 1.47 3.74 1.47h4.51v6.78zm16.6 0v-40.36h-9.23v-6.88h17.09v47.24zm-.49-57.65v-11.39h8.84v11.39zm26.61 57.65v-40.36h-8.64v-6.88h8.64v-11.88q0-5.79 3.68-9.18t9.58-3.39h7.86v6.78h-7.96q-2.26 0-3.73 1.47t-1.47 3.73v12.47h13.16v6.88h-13.16v40.36zm48.51.98q-6.97 0-12.32-3.09t-8.35-8.59q-2.99-5.5-2.99-12.67v-.98q0-6.88 2.75-12.23t7.76-8.5 11.58-3.14q6.78 0 11.59 3.34t7.12 9.38 1.33 14.29h-34.18q.3 4.12 2.31 7.51t5.5 5.4 8.2 2.02q3.73 0 6.63-.89 2.89-.88 5.05-2.85l4.52 4.91q-2.75 2.95-7.02 4.52t-9.48 1.57m-1.57-42.32q-5.89 0-9.57 3.73t-4.47 9.92h26.51q-.09-6.48-3.53-10.07t-8.94-3.58m52.44 42.32q-6.97 0-12.47-3.04t-8.59-8.5-3.09-12.52v-1.18q0-7.07 3.14-12.47t8.59-8.44q5.45-3.05 12.42-3.05 5.21 0 9.48 1.92 4.27 1.91 7.22 5.35l-4.91 4.91q-4.52-4.81-11.79-4.81-4.71 0-8.39 2.06t-5.8 5.79-2.11 8.74v1.18q0 5.01 2.16 8.79t5.85 5.84 8.39 2.07q7.17 0 11.88-4.72l4.82 4.82q-2.85 3.43-7.22 5.35t-9.58 1.91m21.8 18.66v-6.78h9.43q2.06 0 3.29-1.42t2.01-3.39l3.44-7.56-19.44-47.73h8.74l14.92 38.01 14.24-38.01h8.74l-22.58 55.59q-1.08 2.75-2.7 5.3t-4.23 4.27-6.82 1.72zm73.95-18.66q-6.97 0-12.47-3.04t-8.59-8.5q-3.1-5.45-3.1-12.52v-1.18q0-7.07 3.15-12.47t8.59-8.44q5.45-3.05 12.42-3.05 5.21 0 9.48 1.92 4.27 1.91 7.22 5.35l-4.91 4.91q-4.52-4.81-11.79-4.81-4.71 0-8.4 2.06-3.68 2.06-5.79 5.79-2.11 3.74-2.11 8.74v1.18q0 5.01 2.16 8.79t5.84 5.84q3.69 2.07 8.4 2.07 7.17 0 11.88-4.72l4.81 4.82q-2.84 3.43-7.21 5.35t-9.58 1.91m39.67-.98q-5.79 0-9.28-3.29t-3.48-8.79v-52.83h-8.64v-6.78h16.59v59.71q0 2.26 1.48 3.73 1.47 1.47 3.73 1.47h4.52v6.78zm33.39.98q-6.97 0-12.32-3.09t-8.35-8.59-2.99-12.67v-.98q0-6.88 2.75-12.23t7.75-8.5 11.59-3.14q6.78 0 11.59 3.34t7.12 9.38 1.33 14.29h-34.18q.3 4.12 2.31 7.51t5.5 5.4 8.2 2.02q3.73 0 6.63-.89 2.89-.88 5.05-2.85l4.52 4.91q-2.75 2.95-7.02 4.52t-9.48 1.57m-1.57-42.32q-5.89 0-9.57 3.73t-4.47 9.92h26.51q-.09-6.48-3.53-10.07t-8.94-3.58m54.31 60.98v-66.88h7.46v8.16q2.75-4.23 7.12-6.68 4.37-2.46 9.77-2.46 6.39 0 11.39 3.05t7.91 8.44 2.9 12.47v.89q0 7.26-2.85 12.76t-7.86 8.55-11.49 3.04q-5.2 0-9.42-2.31-4.23-2.3-6.98-6.33v27.3zm23.17-25.73q4.42 0 7.91-2.11t5.5-6.04 2.01-9.13v-.89q0-7.66-4.37-12.27-4.37-4.62-11.05-4.62-4.51 0-8.05 2.16-3.53 2.16-5.6 6.14t-2.06 9.28 2.06 9.23q2.07 3.93 5.6 6.09 3.54 2.16 8.05 2.16m34.96 6.09v-47.24h7.66v7.57q1.77-4.52 5.26-6.14t7.81-1.62h4.02v7.85h-4.61q-5.8 0-8.99 2.85t-3.19 8.74v27.99zm52.05.98q-6.77 0-12.08-3.09-5.3-3.09-8.34-8.59t-3.05-12.67v-.89q0-6.97 3.05-12.42t8.34-8.49q5.31-3.05 12.08-3.05t12.08 3.05 8.35 8.39q3.04 5.36 3.04 12.33v1.08q0 7.17-3.04 12.67t-8.35 8.59q-5.3 3.09-12.08 3.09m0-7.07q4.62 0 8.1-2.21 3.49-2.21 5.45-6.09 1.97-3.88 1.97-8.98v-1.08q0-7.37-4.32-12.03-4.32-4.67-11.2-4.67-4.52 0-8.05 2.16t-5.55 5.99-2.01 8.74v.89q0 5.1 2.01 8.98t5.55 6.09 8.05 2.21m50.38 6.09q-3.24 0-6.24-1.23t-4.91-3.97-1.91-7.37v-27.79h-8.54v-6.88h8.54v-11.68h7.86v11.68h12.47v6.88h-12.47v28.28q0 2.26 1.52 3.78t3.78 1.52h7.17v6.78zm36.92.98q-6.97 0-12.32-3.09t-8.35-8.59-2.99-12.67v-.98q0-6.88 2.75-12.23t7.76-8.5 11.58-3.14q6.78 0 11.59 3.34t7.12 9.38 1.33 14.29h-34.18q.3 4.12 2.31 7.51t5.5 5.4 8.2 2.02q3.73 0 6.63-.89 2.89-.88 5.06-2.85l4.51 4.91q-2.75 2.95-7.02 4.52t-9.48 1.57m-1.57-42.32q-5.89 0-9.57 3.73t-4.47 9.92h26.52q-.1-6.48-3.54-10.07t-8.94-3.58m52.44 42.32q-6.97 0-12.47-3.04t-8.59-8.5-3.09-12.52v-1.18q0-7.07 3.14-12.47t8.59-8.44q5.45-3.05 12.42-3.05 5.21 0 9.48 1.92 4.27 1.91 7.22 5.35l-4.91 4.91q-4.52-4.81-11.79-4.81-4.71 0-8.39 2.06t-5.8 5.79-2.11 8.74v1.18q0 5.01 2.16 8.79t5.85 5.84q3.68 2.07 8.39 2.07 7.17 0 11.88-4.72l4.82 4.82q-2.85 3.43-7.22 5.35t-9.58 1.91m43.11-.98q-3.24 0-6.23-1.23t-4.91-3.97-1.92-7.37v-27.79h-8.54v-6.88h8.54v-11.68h7.86v11.68h12.47v6.88h-12.47v28.28q0 2.26 1.52 3.78t3.78 1.52h7.17v6.78zm21.61 0v-40.36h-9.23v-6.88h17.09v47.24zm-.49-57.65v-11.39h8.84v11.39zm43.5 58.63q-6.77 0-12.08-3.09-5.3-3.09-8.34-8.59t-3.05-12.67v-.89q0-6.97 3.05-12.42t8.34-8.49q5.31-3.05 12.08-3.05t12.08 3.05 8.35 8.39 3.04 12.33v1.08q0 7.17-3.04 12.67t-8.35 8.59q-5.3 3.09-12.08 3.09m0-7.07q4.62 0 8.1-2.21 3.49-2.21 5.45-6.09 1.97-3.88 1.97-8.98v-1.08q0-7.37-4.32-12.03-4.32-4.67-11.2-4.67-4.52 0-8.05 2.16t-5.55 5.99-2.01 8.74v.89q0 5.1 2.01 8.98t5.55 6.09 8.05 2.21m35.06 6.09v-47.24h7.66v7.57q2.85-4.91 7.32-6.73 4.46-1.82 8.29-1.82 7.96 0 12.92 5.16t4.96 15.27v27.79h-7.96v-26.61q0-7.56-3.38-10.95-3.39-3.39-8.6-3.39-5.4 0-9.33 3.68t-3.93 10.76v26.51zm80.63 0v-40.36h-8.65v-6.88h8.65v-11.88q0-5.79 3.68-9.18t9.57-3.39h7.86v6.78h-7.96q-2.25 0-3.73 1.47-1.47 1.47-1.47 3.73v12.47h13.16v6.88h-13.16v40.36zm48.31.98q-6.78 0-12.08-3.09t-8.35-8.59-3.04-12.67v-.89q0-6.97 3.04-12.42t8.35-8.49 12.08-3.05 12.08 3.05 8.35 8.39q3.04 5.36 3.04 12.33v1.08q0 7.17-3.04 12.67t-8.35 8.59-12.08 3.09m0-7.07q4.62 0 8.1-2.21 3.49-2.21 5.45-6.09 1.97-3.88 1.97-8.98v-1.08q0-7.37-4.32-12.03-4.32-4.67-11.2-4.67-4.52 0-8.05 2.16t-5.55 5.99-2.01 8.74v.89q0 5.1 2.01 8.98t5.55 6.09 8.05 2.21m35.06 6.09v-47.24h7.66v7.57q1.77-4.52 5.25-6.14 3.49-1.62 7.81-1.62h4.03v7.85h-4.62q-5.79 0-8.98 2.85t-3.2 8.74v27.99zM62.38 673.23q-6.97 0-12.47-3.04t-8.59-8.5-3.1-12.52v-1.18q0-7.07 3.15-12.47t8.59-8.44 12.42-3.05q5.21 0 9.48 1.92 4.27 1.91 7.22 5.35l-4.92 4.91q-4.51-4.81-11.78-4.81-4.71 0-8.4 2.06-3.68 2.06-5.79 5.79-2.11 3.74-2.11 8.74v1.18q0 5.01 2.16 8.79t5.84 5.84 8.4 2.07q7.17 0 11.88-4.72l4.81 4.82q-2.84 3.43-7.21 5.35t-9.58 1.91m39.67-.98q-5.79 0-9.28-3.29t-3.48-8.79v-52.83h-8.64v-6.78h16.59v59.71q0 2.26 1.48 3.73 1.47 1.47 3.73 1.47h4.51v6.78zm33.2.98q-6.78 0-12.08-3.09t-8.35-8.59-3.04-12.67v-.89q0-6.97 3.04-12.42t8.35-8.49 12.08-3.05 12.08 3.05q5.3 3.04 8.34 8.39t3.05 12.33v1.08q0 7.17-3.05 12.67t-8.34 8.59q-5.31 3.09-12.08 3.09m0-7.07q4.61 0 8.1-2.21t5.45-6.09 1.96-8.98v-1.08q0-7.37-4.32-12.03-4.32-4.67-11.19-4.67-4.52 0-8.06 2.16-3.53 2.16-5.54 5.99t-2.02 8.74v.89q0 5.1 2.02 8.98 2.01 3.88 5.54 6.09t8.06 2.21m52.63 7.07q-7.85 0-13.06-4.66-5.2-4.67-5.2-14.78v-28.78h7.95v27.4q0 7.56 3.39 10.56t8.5 3q5.3 0 9.18-3.54t3.88-10.7v-26.72h7.85v47.24h-7.07v-7.07q-2.94 4.61-7.31 6.33t-8.11 1.72m56.27 0q-6.48 0-11.49-3.04t-7.85-8.55q-2.85-5.5-2.85-12.76v-.89q0-7.07 2.9-12.47t7.9-8.44 11.39-3.05q5.31 0 9.48 2.31t6.92 6.33v-32.11h7.96v71.69h-7.17v-8.54q-2.85 4.51-7.27 7.02t-9.92 2.5m1.08-7.07q4.62 0 8.16-2.16 3.53-2.16 5.59-6.09t2.06-9.23-2.06-9.28-5.59-6.14-8.16-2.16q-6.58 0-10.95 4.62t-4.37 12.27v.89q0 5.2 2.02 9.13 2.01 3.93 5.45 6.04t7.85 2.11m60.89 6.09v-47.24h7.66v7.57q2.85-4.91 7.32-6.73 4.46-1.82 8.29-1.82 7.96 0 12.92 5.16t4.96 15.27v27.79h-7.96v-26.61q0-7.56-3.39-10.95-3.38-3.39-8.59-3.39-5.4 0-9.33 3.68t-3.93 10.76v26.51zm69.33.98q-8.05 0-12.91-3.93-4.86-3.92-4.86-10.21 0-4.12 2.45-7.36t6.73-5.16q4.27-1.91 9.57-1.91 7.76 0 12.38 3.24V642q0-5.79-3-8.29-2.99-2.51-8.1-2.51-3.83 0-7.81 1.43-3.97 1.42-6.82 4.37l-3.73-5.6q3.14-3.64 8.24-5.5 5.11-1.87 10.51-1.87 8.35 0 13.46 4.42 5.1 4.42 5.1 13.16v15.12q0 7.86.3 15.52h-7.07l-.1-4.71q-4.42 5.69-14.34 5.69m2.06-5.99q5.4 0 8.4-2.26t2.99-5.89-2.99-5.84-8.49-2.21q-5.41 0-8.55 2.21t-3.14 5.84q0 3.54 3.19 5.84 3.19 2.31 8.59 2.31m48.91 5.01q-3.24 0-6.24-1.23t-4.91-3.97-1.91-7.37v-27.79h-8.55v-6.88h8.55v-11.68h7.85v11.68h12.48v6.88h-12.48v28.28q0 2.26 1.53 3.78 1.52 1.52 3.78 1.52h7.17v6.78zm21.6 0v-40.36h-9.23v-6.88h17.09v47.24zm-.49-57.65v-11.39h8.84v11.39zm35.65 57.65-18.76-47.24h8.25l14.73 37.91 14.63-37.91h8.25l-18.65 47.24zm55.29.98q-6.97 0-12.33-3.09-5.35-3.09-8.34-8.59t-3-12.67v-.98q0-6.88 2.75-12.23t7.76-8.5 11.59-3.14q6.77 0 11.58 3.34t7.12 9.38 1.33 14.29h-34.17q.29 4.12 2.3 7.51 2.02 3.39 5.5 5.4 3.49 2.02 8.2 2.02 3.73 0 6.63-.89 2.9-.88 5.06-2.85l4.52 4.91q-2.75 2.95-7.03 4.52-4.27 1.57-9.47 1.57m-1.57-42.32q-5.9 0-9.58 3.73t-4.47 9.92h26.52q-.1-6.48-3.54-10.07t-8.93-3.58m61.67 41.34-13.55-47.24h7.95l10.61 39.19 11.09-39.19h8.35l11.2 39.09 10.6-39.09h7.86l-13.55 47.24h-9.04l-11.19-39.97-11.2 39.97zm83.57.98q-6.78 0-12.08-3.09t-8.35-8.59-3.04-12.67v-.89q0-6.97 3.04-12.42t8.35-8.49 12.08-3.05 12.08 3.05q5.3 3.04 8.34 8.39t3.05 12.33v1.08q0 7.17-3.05 12.67t-8.34 8.59q-5.31 3.09-12.08 3.09m0-7.07q4.61 0 8.1-2.21t5.45-6.09 1.96-8.98v-1.08q0-7.37-4.32-12.03-4.32-4.67-11.19-4.67-4.52 0-8.05 2.16t-5.55 5.99-2.02 8.74v.89q0 5.1 2.02 8.98 2.01 3.88 5.55 6.09 3.53 2.21 8.05 2.21m35.06 6.09v-47.24h7.66v7.57q1.76-4.52 5.25-6.14t7.81-1.62h4.02v7.85h-4.61q-5.8 0-8.99 2.85t-3.19 8.74v27.99zm34.07 0v-71.69h7.96v46.94l21.8-22.49h9.82l-17.97 18.76 19.44 28.48h-9.82l-15.32-22.68-7.95 8.34v14.34zm61.58 0q-5.8 0-9.28-3.29-3.49-3.29-3.49-8.79v-52.83h-8.64v-6.78h16.59v59.71q0 2.26 1.48 3.73 1.47 1.47 3.73 1.47h4.52v6.78zm33.19.98q-6.78 0-12.08-3.09t-8.35-8.59-3.04-12.67v-.89q0-6.97 3.04-12.42t8.35-8.49q5.3-3.05 12.08-3.05 6.77 0 12.08 3.05 5.3 3.04 8.35 8.39t3.04 12.33v1.08q0 7.17-3.04 12.67t-8.35 8.59-12.08 3.09m0-7.07q4.61 0 8.1-2.21t5.45-6.09 1.96-8.98v-1.08q0-7.37-4.32-12.03-4.32-4.67-11.19-4.67-4.52 0-8.05 2.16t-5.55 5.99-2.02 8.74v.89q0 5.1 2.02 8.98 2.01 3.88 5.55 6.09 3.53 2.21 8.05 2.21m49.2 7.07q-8.05 0-12.92-3.93-4.86-3.92-4.86-10.21 0-4.12 2.46-7.36t6.73-5.16 9.57-1.91q7.76 0 12.37 3.24V642q0-5.79-2.99-8.29-3-2.51-8.1-2.51-3.83 0-7.81 1.43-3.98 1.42-6.82 4.37l-3.74-5.6q3.15-3.64 8.25-5.5 5.11-1.87 10.51-1.87 8.35 0 13.45 4.42 5.11 4.42 5.11 13.16v15.12q0 7.86.29 15.52h-7.07l-.09-4.71q-4.42 5.69-14.34 5.69m2.06-5.99q5.4 0 8.4-2.26t2.99-5.89-2.99-5.84-8.5-2.21q-5.4 0-8.54 2.21t-3.14 5.84q0 3.54 3.19 5.84 3.19 2.31 8.59 2.31m52.44 5.99q-6.48 0-11.49-3.04t-7.85-8.55-2.85-12.76v-.89q0-7.07 2.89-12.47t7.91-8.44 11.39-3.05q5.3 0 9.48 2.31 4.17 2.31 6.92 6.33v-32.11h7.96v71.69h-7.17v-8.54q-2.85 4.51-7.27 7.02t-9.92 2.5m1.08-7.07q4.62 0 8.15-2.16t5.6-6.09q2.06-3.93 2.06-9.23t-2.06-9.28-5.6-6.14q-3.53-2.16-8.15-2.16-6.58 0-10.95 4.62t-4.37 12.27v.89q0 5.2 2.01 9.13 2.02 3.93 5.46 6.04t7.85 2.11m51.07 6.97q-5.21 0-9.77-1.62-4.57-1.62-7.42-4.17l3.54-5.5q2.65 2.26 6.28 3.63t7.37 1.38q4.42 0 7.17-2.01 2.75-2.02 2.75-5.26 0-2.75-1.87-4.27t-4.71-2.36-6.09-1.67-6.14-2.21-4.71-3.92q-1.82-2.56-1.82-6.98 0-6.18 4.66-10.16t12.52-3.98q4.42 0 8.4 1.33 3.98 1.32 6.92 3.48l-3.53 5.5q-2.55-1.86-5.55-2.94t-6.33-1.08q-4.23 0-6.88 2.01t-2.65 5.25q0 2.75 1.87 4.23 1.86 1.47 4.76 2.35t6.19 1.72 6.23 2.26q2.95 1.43 4.76 4.03 1.82 2.6 1.82 7.02 0 4.12-2.26 7.27t-6.28 4.91-9.23 1.76m27.59-.88v-10.8h9.63v10.8z"/></svg>