<svg xmlns="http://www.w3.org/2000/svg" width="1280" height="720" viewBox="0 0 1280 720"><path fill="#0c322c" d="M0 0h1280v720H0z"/><svg width="518.39" height="518.39" x="380.8" y="100.8" aria-hidden="true" class="ct-donut" style="transform:none" transform="rotate(-90 640 360)" viewBox="0 0 200 200"><circle cx="100" cy="100" r="80" class="ct-track"/><circle id="ct-ring" cx="100" cy="100" r="80" stroke-dasharray="502.65" stroke-dashoffset="0" class="ct-ring" style="stroke:#30ba78"/></svg><path fill="#30ba78" d="M485.55 379.78h308.88v2H485.55z"/><path fill="#fff" fill-opacity=".28" d="M546.89 405.78q-.65 0-1.07-.41-.41-.42-.41-1.07v-6.11q0-.65.41-1.07.42-.41 1.07-.41h4.29v1.23h-3.87q-.24 0-.41.17t-.16.41v2.11h4.16v1.18h-4.16v2.16q0 .24.16.41.17.17.41.17h3.87v1.23zm7.33 0v-9.07h1.23l4.43 6.7v-6.7h1.35v9.07h-1.22l-4.44-6.71v6.71zm12.22 0v-7.84h-2.65v-1.23h6.68v1.23h-2.67v7.84zm7.89 0q-.64 0-1.06-.41-.41-.42-.41-1.07v-6.11q0-.65.41-1.07.42-.41 1.06-.41h4.29v1.23h-3.86q-.24 0-.41.17t-.16.41v2.11h4.16v1.18h-4.16v2.16q0 .24.16.41.17.17.41.17h3.86v1.23zm7.34 0v-9.07h3.08q1.4 0 2.26.71t.85 2.07q0 1.09-.52 1.75t-1.43.9l2.23 3.64h-1.56l-2.07-3.5h-1.49v3.5zm3.02-7.92h-1.67v3.28h1.67q.8 0 1.3-.41.49-.41.49-1.22 0-.78-.49-1.21-.5-.44-1.3-.44m11.83 7.92v-7.84h-2.65v-1.23h6.68v1.23h-2.67v7.84zm6.03 0v-1.23h1.55v-6.61h-1.55v-1.23h4.48v1.23h-1.57v6.61h1.57v1.23zm7.37 0v-9.07h1.8l2.43 5.19 2.41-5.19h1.81v9.07h-1.32v-7.32l-2.38 5.27h-1.04l-2.4-5.27v7.32zm13.29 0q-.65 0-1.07-.41-.41-.42-.41-1.07v-6.11q0-.65.41-1.07.42-.41 1.07-.41h4.29v1.23h-3.87q-.24 0-.4.17t-.17.41v2.11h4.16v1.18h-4.16v2.16q0 .24.17.41.16.17.4.17h3.87v1.23zm11.25-2.92v-1.59h1.49v1.59zm8.85 2.92v-9.07h2.93q1.4 0 2.25.74t.86 2.04-.86 2.05q-.85.73-2.25.73h-1.58v3.51zm2.99-7.92h-1.64v3.28h1.64q.77 0 1.24-.45.47-.46.47-1.2 0-.73-.47-1.18t-1.24-.45m5.77 7.92v-9.07h3.08q1.4 0 2.26.71t.85 2.07q0 1.09-.52 1.75-.53.66-1.43.9l2.23 3.64h-1.56l-2.07-3.5h-1.49v3.5zm3.02-7.92h-1.67v3.28h1.67q.8 0 1.29-.41.5-.41.5-1.22 0-.78-.5-1.21-.49-.44-1.29-.44m7.64 7.92q-.64 0-1.06-.41-.41-.42-.41-1.07v-6.11q0-.65.41-1.07.42-.41 1.06-.41h4.29v1.23h-3.86q-.24 0-.41.17t-.16.41v2.11h4.16v1.18h-4.16v2.16q0 .24.16.41.17.17.41.17h3.86v1.23zm9.67.17q-.98 0-1.71-.36-.74-.37-1.24-.96l.83-.85q.5.54 1.03.78.54.25 1.14.25.85 0 1.33-.41t.48-1.06q0-.48-.26-.77-.25-.3-.66-.48-.41-.19-.9-.32-.49-.14-.98-.31-.5-.16-.9-.43t-.66-.69-.26-1.1q0-.83.38-1.44.39-.6 1.09-.93t1.63-.33q.84 0 1.52.29.67.29 1.11.79l-.85.86q-.39-.4-.82-.6t-.97-.2q-.79 0-1.27.4-.48.39-.48 1.03 0 .45.25.72t.67.44.91.29.99.29.91.43q.41.28.67.72.25.45.25 1.15 0 .85-.41 1.48t-1.13.98-1.69.34m8.43 0q-.99 0-1.72-.36-.73-.37-1.24-.96l.83-.85q.51.54 1.04.78.53.25 1.14.25.84 0 1.32-.41t.48-1.06q0-.48-.25-.77-.26-.3-.66-.48-.41-.19-.9-.32-.5-.14-.99-.31t-.9-.43-.66-.69-.25-1.1q0-.83.38-1.44.38-.6 1.08-.93t1.63-.33q.85 0 1.52.29t1.11.79l-.85.86q-.39-.4-.82-.6t-.97-.2q-.79 0-1.27.4-.48.39-.48 1.03 0 .45.25.72.26.27.67.44t.92.29q.49.13.99.29.49.16.9.43.42.28.67.72.25.45.25 1.15 0 .85-.4 1.48t-1.14.98q-.72.34-1.68.34m11.73-.17q-.65 0-1.07-.41-.41-.42-.41-1.07v-6.11q0-.65.41-1.07.42-.41 1.07-.41h4.29v1.23h-3.87q-.24 0-.4.17t-.17.41v2.11h4.16v1.18h-4.16v2.16q0 .24.17.41.16.17.4.17h3.87v1.23zm7.33 0v-9.07h1.23l4.43 6.7v-6.7h1.35v9.07h-1.22l-4.44-6.71v6.71zm12.22 0v-7.84h-2.65v-1.23h6.68v1.23h-2.67v7.84zm7.9 0q-.65 0-1.07-.41-.41-.42-.41-1.07v-6.11q0-.65.41-1.07.42-.41 1.07-.41h4.28v1.23h-3.86q-.24 0-.41.17t-.16.41v2.11h4.16v1.18h-4.16v2.16q0 .24.16.41.17.17.41.17h3.86v1.23zm7.33 0v-9.07h3.08q1.4 0 2.26.71t.86 2.07q0 1.09-.53 1.75-.52.66-1.43.9l2.23 3.64h-1.56l-2.07-3.5h-1.49v3.5zm3.02-7.92h-1.67v3.28h1.67q.8 0 1.3-.41.49-.41.49-1.22 0-.78-.49-1.21-.5-.44-1.3-.44"/><rect width="92.25" height="35" x="593.86" y="427.2" fill="#30ba78" rx="17.5" ry="17.5"/><path fill="#0c322c" d="M623.08 449.37q-.96 0-1.67-.36-.71-.35-1.21-.94l1.04-1.04q.5.49.95.71t.96.21q.63 0 .99-.29.35-.28.35-.74 0-.38-.22-.62t-.59-.38-.8-.28q-.44-.12-.88-.29t-.8-.42-.59-.67-.22-1.04q0-.79.37-1.37t1.04-.9 1.58-.32q.84 0 1.52.3t1.13.81l-1.08 1.08q-.37-.39-.75-.58-.37-.19-.82-.19-.59 0-.95.28t-.36.74q0 .36.23.57.22.21.6.35.37.13.81.25t.88.27.81.41.6.68.23 1.07q0 .81-.39 1.42-.4.61-1.11.94-.72.34-1.65.34m6.98-.17v-6.86h-2.33v-1.54h6.39v1.54h-2.36v6.86zm4.46 0 3.02-8.4h2.1l3.01 8.4h-1.74l-.67-1.94h-3.3l-.68 1.94zm2.91-3.37h2.33l-1.17-3.41zm7.23 3.37v-8.4h3.17q1.35 0 2.17.7.82.69.82 2 0 .94-.41 1.56-.42.62-1.15.91l1.81 3.23h-1.93l-1.58-2.98h-1.19v2.98zm3.09-6.97h-1.38v2.58h1.38q.59 0 .96-.34t.37-.95q0-.57-.37-.93t-.96-.36m7.04 6.97v-6.86h-2.33v-1.54h6.39v1.54h-2.35v6.86z"/></svg>