<svg xmlns="http://www.w3.org/2000/svg" id="d3-svg" width="1280" height="800" style="width:100%;height:auto;display:block" viewBox="0 0 1280 800"><defs><style>@font-face{font-family:&quot;SUSE&quot;;src:url(/catalog/fonts/webfonts/SUSE[wght].woff2)format(&quot;woff2-variations&quot;);font-weight:100 900;font-display:block}#d3-svg text{font-family:&quot;SUSE&quot;,system-ui,-apple-system,sans-serif}#d3-svg [data-canvas-input]{cursor:pointer}</style></defs><path id="d3-bg" fill="#fff" d="M0 0h1280v800H0z" pointer-events="all"/><g id="d3-plot"><text x="52" y="86" fill="#0c322c" font-size="34" font-weight="500">Community growth by region</text><text x="52" y="118" fill="#0c322c" font-size="20" font-weight="400" opacity=".62">New contributors — illustrative sample data</text><g class="value-axis"><path stroke="#0c322c" d="M122.4 646H1216" opacity=".28"/><text x="114.4" y="651" fill="#0c322c" font-size="22" opacity=".6" text-anchor="end">0</text><path stroke="#0c322c" d="M122.4 573.14H1216" opacity=".1"/><text x="114.4" y="578.14" fill="#0c322c" font-size="22" opacity=".6" text-anchor="end">50</text><path stroke="#0c322c" d="M122.4 500.29H1216" opacity=".1"/><text x="114.4" y="505.29" fill="#0c322c" font-size="22" opacity=".6" text-anchor="end">100</text><path stroke="#0c322c" d="M122.4 427.43H1216" opacity=".1"/><text x="114.4" y="432.43" fill="#0c322c" font-size="22" opacity=".6" text-anchor="end">150</text><path stroke="#0c322c" d="M122.4 354.57H1216" opacity=".1"/><text x="114.4" y="359.57" fill="#0c322c" font-size="22" opacity=".6" text-anchor="end">200</text><path stroke="#0c322c" d="M122.4 281.71H1216" opacity=".1"/><text x="114.4" y="286.71" fill="#0c322c" font-size="22" opacity=".6" text-anchor="end">250</text><path stroke="#0c322c" d="M122.4 208.86H1216" opacity=".1"/><text x="114.4" y="213.86" fill="#0c322c" font-size="22" opacity=".6" text-anchor="end">300</text><path stroke="#0c322c" d="M122.4 136H1216" opacity=".1"/><text x="114.4" y="141" fill="#0c322c" font-size="22" opacity=".6" text-anchor="end">350</text></g><text x="259.1" y="674" fill="#0c322c" font-size="22" font-weight="500" opacity=".8" text-anchor="middle">2021</text><text x="532.5" y="674" fill="#0c322c" font-size="22" font-weight="500" opacity=".8" text-anchor="middle">2022</text><text x="805.9" y="674" fill="#0c322c" font-size="22" font-weight="500" opacity=".8" text-anchor="middle">2023</text><text x="1079.3" y="674" fill="#0c322c" font-size="22" font-weight="500" opacity=".8" text-anchor="middle">2024</text><path fill="none" stroke="#008657" stroke-linecap="round" stroke-linejoin="round" stroke-width="3" d="M259.1 471.14c91.13-26.71 182.27-53.43 273.4-87.43S714.77 306 805.9 267.14l273.4-116.57"/><circle cx="259.1" cy="471.14" r="5" fill="#008657" stroke="#fff" stroke-width="1.5"/><circle cx="532.5" cy="383.71" r="5" fill="#008657" stroke="#fff" stroke-width="1.5"/><circle cx="805.9" cy="267.14" r="5" fill="#008657" stroke="#fff" stroke-width="1.5"/><circle cx="1079.3" cy="150.57" r="5" fill="#008657" stroke="#fff" stroke-width="1.5"/><path fill="none" stroke="#2453ff" stroke-linecap="round" stroke-linejoin="round" stroke-width="3" d="M259.1 506.11c91.13-18.82 182.27-37.64 273.4-64.11s182.27-63.14 273.4-94.71l273.4-94.72"/><circle cx="259.1" cy="506.11" r="5" fill="#2453ff" stroke="#fff" stroke-width="1.5"/><circle cx="532.5" cy="442" r="5" fill="#2453ff" stroke="#fff" stroke-width="1.5"/><circle cx="805.9" cy="347.29" r="5" fill="#2453ff" stroke="#fff" stroke-width="1.5"/><circle cx="1079.3" cy="252.57" r="5" fill="#2453ff" stroke="#fff" stroke-width="1.5"/><path fill="none" stroke="#fe7c3f" stroke-linecap="round" stroke-linejoin="round" stroke-width="3" d="M259.1 552.74c91.13-20.64 182.27-41.28 273.4-67.03 91.13-25.74 182.27-53.42 273.4-87.42S988.17 323 1079.3 281.7"/><circle cx="259.1" cy="552.74" r="5" fill="#fe7c3f" stroke="#fff" stroke-width="1.5"/><circle cx="532.5" cy="485.71" r="5" fill="#fe7c3f" stroke="#fff" stroke-width="1.5"/><circle cx="805.9" cy="398.29" r="5" fill="#fe7c3f" stroke="#fff" stroke-width="1.5"/><circle cx="1079.3" cy="281.71" r="5" fill="#fe7c3f" stroke="#fff" stroke-width="1.5"/><g class="legend"><rect width="18.04" height="18.04" x="52" y="760.67" fill="#008657" rx="3"/><text x="78.04" y="776" fill="#0c322c" font-size="22" font-weight="500" opacity=".9">EMEA</text><rect width="18.04" height="18.04" x="151.32" y="760.67" fill="#2453ff" rx="3"/><text x="177.36" y="776" fill="#0c322c" font-size="22" font-weight="500" opacity=".9">Americas</text><rect width="18.04" height="18.04" x="299.92" y="760.67" fill="#fe7c3f" rx="3"/><text x="325.96" y="776" fill="#0c322c" font-size="22" font-weight="500" opacity=".9">APAC</text></g></g></svg>