<svg xmlns="http://www.w3.org/2000/svg" id="d3-svg" width="1280" height="800" style="width:100%;height:auto;display:block" viewBox="0 0 1280 800"><defs><style>@font-face{font-family:&quot;SUSE&quot;;src:url(/catalog/fonts/webfonts/SUSE[wght].woff2)format(&quot;woff2-variations&quot;);font-weight:100 900;font-display:block}#d3-svg text{font-family:&quot;SUSE&quot;,system-ui,-apple-system,sans-serif}#d3-svg [data-canvas-input]{cursor:pointer}</style></defs><path id="d3-bg" fill="#fff" d="M0 0h1280v800H0z" pointer-events="all"/><g id="d3-plot"><text x="52" y="86" fill="#0c322c" font-size="34" font-weight="500">Open-source contributions</text><text x="52" y="118" fill="#0c322c" font-size="20" font-weight="400" opacity=".62">By project — illustrative sample data</text><rect width="683" height="381" x="52" y="130" fill="#0c322c" stroke="#fff" stroke-width="2" rx="3" ry="3"/><rect width="683" height="236" x="52" y="512" fill="#219c65" stroke="#fff" stroke-width="2" rx="3" ry="3"/><rect width="276" height="403" x="736" y="130" fill="#4fc48e" stroke="#fff" stroke-width="2" rx="3" ry="3"/><rect width="215" height="403" x="1013" y="130" fill="#6fd4a7" stroke="#fff" stroke-width="2" rx="3" ry="3"/><rect width="318" height="214" x="736" y="534" fill="#88ddb8" stroke="#fff" stroke-width="2" rx="3" ry="3"/><rect width="173" height="214" x="1055" y="534" fill="#b0e9d1" stroke="#fff" stroke-width="2" rx="3" ry="3"/><text x="60" y="160" fill="#fff" font-size="22" font-weight="600">Rancher</text><text x="60" y="186" fill="#fff" font-size="18.7" opacity=".85">4,200</text><text x="60" y="542" fill="#fff" font-size="22" font-weight="600">K3s</text><text x="60" y="568" fill="#fff" font-size="18.7" opacity=".85">2,600</text><text x="744" y="160" fill="#fff" font-size="22" font-weight="600">Longhorn</text><text x="744" y="186" fill="#fff" font-size="18.7" opacity=".85">1,800</text><text x="1021" y="160" fill="#fff" font-size="22" font-weight="600">NeuVector</text><text x="1021" y="186" fill="#fff" font-size="18.7" opacity=".85">1,400</text><text x="744" y="564" fill="#fff" font-size="22" font-weight="600">Harvester</text><text x="744" y="590" fill="#fff" font-size="18.7" opacity=".85">1,100</text><text x="1063" y="564" fill="#fff" font-size="22" font-weight="600">Elemental</text><text x="1063" y="590" fill="#fff" font-size="18.7" opacity=".85">600</text></g></svg>