<svg xmlns="http://www.w3.org/2000/svg" id="d3-svg" width="1280" height="800" style="width:100%;height:auto;display:block" viewBox="0 0 1280 800"><defs><style>@font-face{font-family:&quot;SUSE&quot;;src:url(/catalog/fonts/webfonts/SUSE[wght].woff2)format(&quot;woff2-variations&quot;);font-weight:100 900;font-display:block}#d3-svg text{font-family:&quot;SUSE&quot;,system-ui,-apple-system,sans-serif}#d3-svg [data-canvas-input]{cursor:pointer}</style></defs><path id="d3-bg" fill="#fff" d="M0 0h1280v800H0z" pointer-events="all"/><g id="d3-plot"><text x="52" y="86" fill="#0c322c" font-size="34" font-weight="500">Revenue by product line</text><text x="52" y="118" fill="#0c322c" font-size="20" font-weight="400" opacity=".62">€M per quarter — illustrative sample data</text><g class="value-axis"><path stroke="#0c322c" d="M122.4 646H1216" opacity=".28"/><text x="114.4" y="651" fill="#0c322c" font-size="22" opacity=".6" text-anchor="end">0</text><path stroke="#0c322c" d="M122.4 567.54H1216" opacity=".1"/><text x="114.4" y="572.54" fill="#0c322c" font-size="22" opacity=".6" text-anchor="end">10</text><path stroke="#0c322c" d="M122.4 489.08H1216" opacity=".1"/><text x="114.4" y="494.08" fill="#0c322c" font-size="22" opacity=".6" text-anchor="end">20</text><path stroke="#0c322c" d="M122.4 410.62H1216" opacity=".1"/><text x="114.4" y="415.62" fill="#0c322c" font-size="22" opacity=".6" text-anchor="end">30</text><path stroke="#0c322c" d="M122.4 332.15H1216" opacity=".1"/><text x="114.4" y="337.15" fill="#0c322c" font-size="22" opacity=".6" text-anchor="end">40</text><path stroke="#0c322c" d="M122.4 253.69H1216" opacity=".1"/><text x="114.4" y="258.69" fill="#0c322c" font-size="22" opacity=".6" text-anchor="end">50</text><path stroke="#0c322c" d="M122.4 175.23H1216" opacity=".1"/><text x="114.4" y="180.23" fill="#0c322c" font-size="22" opacity=".6" text-anchor="end">60</text></g><g class="cat-axis"><text x="278.63" y="674" fill="#0c322c" font-size="22" font-weight="500" opacity=".8" text-anchor="middle">Q1</text><text x="539.01" y="674" fill="#0c322c" font-size="22" font-weight="500" opacity=".8" text-anchor="middle">Q2</text><text x="799.39" y="674" fill="#0c322c" font-size="22" font-weight="500" opacity=".8" text-anchor="middle">Q3</text><text x="1059.77" y="674" fill="#0c322c" font-size="22" font-weight="500" opacity=".8" text-anchor="middle">Q4</text></g><rect width="63.99" height="329.54" x="178.56" y="316.46" fill="#008657" rx="3" ry="3"/><rect width="63.99" height="219.69" x="246.63" y="426.31" fill="#2453ff" rx="3" ry="3"/><rect width="63.99" height="94.15" x="314.71" y="551.85" fill="#fe7c3f" rx="3" ry="3"/><rect width="63.99" height="384.46" x="438.94" y="261.54" fill="#008657" rx="3" ry="3"/><rect width="63.99" height="274.62" x="507.02" y="371.38" fill="#2453ff" rx="3" ry="3"/><rect width="63.99" height="141.23" x="575.09" y="504.77" fill="#fe7c3f" rx="3" ry="3"/><rect width="63.99" height="431.54" x="699.32" y="214.46" fill="#008657" rx="3" ry="3"/><rect width="63.99" height="321.69" x="767.4" y="324.31" fill="#2453ff" rx="3" ry="3"/><rect width="63.99" height="188.31" x="835.47" y="457.69" fill="#fe7c3f" rx="3" ry="3"/><rect width="63.99" height="494.31" x="959.7" y="151.69" fill="#008657" rx="3" ry="3"/><rect width="63.99" height="408" x="1027.78" y="238" fill="#2453ff" rx="3" ry="3"/><rect width="63.99" height="258.92" x="1095.85" y="387.08" fill="#fe7c3f" rx="3" ry="3"/><g class="legend"><rect width="18.04" height="18.04" x="52" y="760.67" fill="#008657" rx="3"/><text x="78.04" y="776" fill="#0c322c" font-size="22" font-weight="500" opacity=".9">SLES</text><rect width="18.04" height="18.04" x="151.32" y="760.67" fill="#2453ff" rx="3"/><text x="177.36" y="776" fill="#0c322c" font-size="22" font-weight="500" opacity=".9">Rancher</text><rect width="18.04" height="18.04" x="287.6" y="760.67" fill="#fe7c3f" rx="3"/><text x="313.64" y="776" fill="#0c322c" font-size="22" font-weight="500" opacity=".9">Edge</text></g></g></svg>