<svg xmlns="http://www.w3.org/2000/svg" id="d3-svg" width="1280" height="800" style="width:100%;height:auto;display:block" viewBox="0 0 1280 800"><defs><style>@font-face{font-family:&quot;SUSE&quot;;src:url(/catalog/fonts/webfonts/SUSE[wght].woff2)format(&quot;woff2-variations&quot;);font-weight:100 900;font-display:block}#d3-svg text{font-family:&quot;SUSE&quot;,system-ui,-apple-system,sans-serif}#d3-svg [data-canvas-input]{cursor:pointer}</style></defs><path id="d3-bg" fill="#fff" d="M0 0h1280v800H0z" pointer-events="all"/><g id="d3-plot"><text x="52" y="86" fill="#0c322c" font-size="34" font-weight="500">Cluster size vs. cost</text><text x="52" y="118" fill="#0c322c" font-size="20" font-weight="400" opacity=".62">One dot per cluster — illustrative sample data</text><g class="value-axis"><path stroke="#0c322c" d="M122.4 662H1216" opacity=".28"/><text x="114.4" y="667" fill="#0c322c" font-size="22" opacity=".6" text-anchor="end">0</text><path stroke="#0c322c" d="M122.4 558.67H1216" opacity=".1"/><text x="114.4" y="563.67" fill="#0c322c" font-size="22" opacity=".6" text-anchor="end">5</text><path stroke="#0c322c" d="M122.4 455.33H1216" opacity=".1"/><text x="114.4" y="460.33" fill="#0c322c" font-size="22" opacity=".6" text-anchor="end">10</text><path stroke="#0c322c" d="M122.4 352H1216" opacity=".1"/><text x="114.4" y="357" fill="#0c322c" font-size="22" opacity=".6" text-anchor="end">15</text><path stroke="#0c322c" d="M122.4 248.67H1216" opacity=".1"/><text x="114.4" y="253.67" fill="#0c322c" font-size="22" opacity=".6" text-anchor="end">20</text></g><g class="value-axis"><path stroke="#0c322c" d="M122.4 166v496" opacity=".28"/><text x="122.4" y="690" fill="#0c322c" font-size="22" opacity=".6" text-anchor="middle">0</text><path stroke="#0c322c" d="M278.63 166v496" opacity=".1"/><text x="278.63" y="690" fill="#0c322c" font-size="22" opacity=".6" text-anchor="middle">10</text><path stroke="#0c322c" d="M434.86 166v496" opacity=".1"/><text x="434.86" y="690" fill="#0c322c" font-size="22" opacity=".6" text-anchor="middle">20</text><path stroke="#0c322c" d="M591.09 166v496" opacity=".1"/><text x="591.09" y="690" fill="#0c322c" font-size="22" opacity=".6" text-anchor="middle">30</text><path stroke="#0c322c" d="M747.31 166v496" opacity=".1"/><text x="747.31" y="690" fill="#0c322c" font-size="22" opacity=".6" text-anchor="middle">40</text><path stroke="#0c322c" d="M903.54 166v496" opacity=".1"/><text x="903.54" y="690" fill="#0c322c" font-size="22" opacity=".6" text-anchor="middle">50</text><path stroke="#0c322c" d="M1059.77 166v496" opacity=".1"/><text x="1059.77" y="690" fill="#0c322c" font-size="22" opacity=".6" text-anchor="middle">60</text><path stroke="#0c322c" d="M1216 166v496" opacity=".1"/><text x="1216" y="690" fill="#0c322c" font-size="22" opacity=".6" text-anchor="middle">70</text></g><circle cx="309.87" cy="575.2" r="7" fill="#1d3bc1" fill-opacity=".7" stroke="#fff"/><circle cx="559.84" cy="473.93" r="7" fill="#1d3bc1" fill-opacity=".7" stroke="#fff"/><circle cx="966.03" cy="321" r="7" fill="#1d3bc1" fill-opacity=".7" stroke="#fff"/><circle cx="762.94" cy="414" r="7" fill="#1d3bc1" fill-opacity=".7" stroke="#fff"/><circle cx="231.76" cy="618.6" r="7" fill="#1d3bc1" fill-opacity=".7" stroke="#fff"/><circle cx="1106.64" cy="199.07" r="7" fill="#1d3bc1" fill-opacity=".7" stroke="#fff"/><text x="669.2" y="720" fill="#0c322c" font-size="22" font-weight="600" opacity=".75" text-anchor="middle">Nodes</text><text x="122.4" y="156" fill="#0c322c" font-size="22" font-weight="600" opacity=".75">Monthly cost (€K)</text></g></svg>