<svg xmlns="http://www.w3.org/2000/svg" id="d3-svg" width="1280" height="800" style="width:100%;height:auto;display:block" viewBox="0 0 1280 800"><defs><style>@font-face{font-family:&quot;SUSE&quot;;src:url(/catalog/fonts/webfonts/SUSE[wght].woff2)format(&quot;woff2-variations&quot;);font-weight:100 900;font-display:block}#d3-svg text{font-family:&quot;SUSE&quot;,system-ui,-apple-system,sans-serif}#d3-svg [data-canvas-input]{cursor:pointer}</style></defs><path id="d3-bg" fill="#fff" d="M0 0h1280v800H0z" pointer-events="all"/><g id="d3-plot"><text x="52" y="86" fill="#0c322c" font-size="34" font-weight="500">Edge fleet by site type</text><text x="52" y="118" fill="#0c322c" font-size="20" font-weight="400" opacity=".62">Share of nodes — illustrative sample data</text><path fill="#008657" d="M535.58 157.74a3 3 0 0 1 3.04-3 284.28 284.28 0 0 1 238.7 432.92 3 3 0 0 1-4.17.97l-95.9-60.53a3 3 0 0 1-.97-4.09A164.88 164.88 0 0 0 538.5 274.16a3 3 0 0 1-2.93-3Z"/><text x="196.67" y="-102.44" fill="#fff" font-size="22" font-weight="700" text-anchor="middle" transform="translate(535 439)">34%</text><path fill="#2453ff" d="M772.54 589.6a3 3 0 0 1 .91 4.18 284.3 284.3 0 0 1-416.04 67.2 3 3 0 0 1-.44-4.24l71.97-87.65a3 3 0 0 1 4.17-.46 164.9 164.9 0 0 0 239.41-38.67 3 3 0 0 1 4.1-.88Z"/><text x="35.81" y="227.71" fill="#fff" font-size="22" font-weight="700" text-anchor="middle" transform="translate(535 439)">27%</text><path fill="#fe7c3f" d="M356.08 656a3 3 0 0 1-4.26.4 284.3 284.3 0 0 1-76.02-334.16 3 3 0 0 1 4-1.48l102.81 47.89a3 3 0 0 1 1.48 3.93 164.9 164.9 0 0 0 43.59 191.6 3 3 0 0 1 .36 4.17Z"/><text x="-218.99" y="55.82" fill="#0c322c" font-size="22" font-weight="700" text-anchor="middle" transform="translate(535 439)">21%</text><path fill="#5d4f99" d="M280.3 319.7a3 3 0 0 1-1.44-4.01A284.3 284.3 0 0 1 410.1 183.62a3 3 0 0 1 4.03 1.41l48.53 102.51a3 3 0 0 1-1.37 3.97 165 165 0 0 0-74.24 74.7 3 3 0 0 1-3.96 1.39Z"/><text x="-159.29" y="-152.31" fill="#fff" font-size="22" font-weight="700" text-anchor="middle" transform="translate(535 439)">11%</text><path fill="#00bda7" d="M415.19 184.54a3 3 0 0 1 1.46-4.01 284 284 0 0 1 114.73-25.79 3 3 0 0 1 3.04 3v113.42a3 3 0 0 1-2.93 3 165 165 0 0 0-63.84 14.34 3 3 0 0 1-3.94-1.45Z"/><text x="-49.24" y="-213.12" fill="#0c322c" font-size="22" font-weight="700" text-anchor="middle" transform="translate(535 439)">7%</text><g class="legend"><rect width="18.04" height="18.04" x="1078" y="354" fill="#008657" rx="3"/><text x="1104.04" y="368.79" fill="#0c322c" font-size="22" font-weight="500" opacity=".9">Retail</text><rect width="18.04" height="18.04" x="1078" y="388" fill="#2453ff" rx="3"/><text x="1104.04" y="402.79" fill="#0c322c" font-size="22" font-weight="500" opacity=".9">Manufacturing</text><rect width="18.04" height="18.04" x="1078" y="422" fill="#fe7c3f" rx="3"/><text x="1104.04" y="436.79" fill="#0c322c" font-size="22" font-weight="500" opacity=".9">Telco</text><rect width="18.04" height="18.04" x="1078" y="456" fill="#5d4f99" rx="3"/><text x="1104.04" y="470.79" fill="#0c322c" font-size="22" font-weight="500" opacity=".9">Branch</text><rect width="18.04" height="18.04" x="1078" y="490" fill="#00bda7" rx="3"/><text x="1104.04" y="504.79" fill="#0c322c" font-size="22" font-weight="500" opacity=".9">Logistics</text></g></g></svg>