<svg xmlns="http://www.w3.org/2000/svg" id="d3-svg" width="1280" height="800" style="width:100%;height:auto;display:block" viewBox="0 0 1280 800"><defs><style>@font-face{font-family:&quot;SUSE&quot;;src:url(/catalog/fonts/webfonts/SUSE[wght].woff2)format(&quot;woff2-variations&quot;);font-weight:100 900;font-display:block}#d3-svg text{font-family:&quot;SUSE&quot;,system-ui,-apple-system,sans-serif}#d3-svg [data-canvas-input]{cursor:pointer}</style></defs><path id="d3-bg" fill="#0c322c" d="M0 0h1280v800H0z" pointer-events="all"/><g id="d3-plot"><text x="52" y="86" fill="#fff" font-size="34" font-weight="500">GPU hours across the AI pipeline</text><text x="52" y="118" fill="#fff" font-size="20" font-weight="400" opacity=".62">Thousands of hours — illustrative sample data</text><g class="value-axis"><path stroke="#fff" d="M122.4 646H1216" opacity=".28"/><text x="114.4" y="651" fill="#fff" font-size="22" opacity=".6" text-anchor="end">0</text><path stroke="#fff" d="M122.4 486.63H1216" opacity=".1"/><text x="114.4" y="491.63" fill="#fff" font-size="22" opacity=".6" text-anchor="end">5</text><path stroke="#fff" d="M122.4 327.25H1216" opacity=".1"/><text x="114.4" y="332.25" fill="#fff" font-size="22" opacity=".6" text-anchor="end">10</text><path stroke="#fff" d="M122.4 167.88H1216" opacity=".1"/><text x="114.4" y="172.88" fill="#fff" font-size="22" opacity=".6" text-anchor="end">15</text></g><text x="231.76" y="674" fill="#fff" font-size="22" font-weight="500" opacity=".8" text-anchor="middle">Jan</text><text x="450.48" y="674" fill="#fff" font-size="22" font-weight="500" opacity=".8" text-anchor="middle">Feb</text><text x="669.2" y="674" fill="#fff" font-size="22" font-weight="500" opacity=".8" text-anchor="middle">Mar</text><text x="887.92" y="674" fill="#fff" font-size="22" font-weight="500" opacity=".8" text-anchor="middle">Apr</text><text x="1106.64" y="674" fill="#fff" font-size="22" font-weight="500" opacity=".8" text-anchor="middle">May</text><path fill="#92dce2" fill-opacity=".85" stroke="#92dce2" d="M231.76 499.38c72.9-4.25 145.81-8.5 218.72-15.94s145.81-17.53 218.72-28.69 145.81-25.5 218.72-38.25l218.72-38.25V646H231.76Z"/><path fill="#3478d4" fill-opacity=".85" stroke="#3478d4" d="M231.76 410.13c72.9-5.85 145.81-11.7 218.72-22.32s145.81-29.75 218.72-41.43c72.9-11.7 145.81-12.75 218.72-28.7 72.9-15.93 145.81-41.43 218.72-66.93v127.5L887.92 416.5c-72.9 12.75-145.81 27.1-218.72 38.25-72.9 11.16-145.81 21.25-218.72 28.69s-145.81 11.69-218.72 15.94Z"/><path fill="#1c277d" fill-opacity=".85" stroke="#1c277d" d="M231.76 381.44c72.9-7.7 145.81-15.4 218.72-28.69 72.9-13.28 145.81-35.6 218.72-51s145.81-21.25 218.72-41.44 145.81-49.93 218.72-79.68v70.12c-72.9 25.5-145.81 51-218.72 66.94s-145.81 17-218.72 28.69c-72.9 11.68-145.81 30.8-218.72 41.43s-145.81 16.47-218.72 22.32Z"/><g class="legend"><rect width="18.04" height="18.04" x="52" y="760.67" fill="#92dce2" rx="3"/><text x="78.04" y="776" fill="#fff" font-size="22" font-weight="500" opacity=".9">Inference</text><rect width="18.04" height="18.04" x="212.92" y="760.67" fill="#3478d4" rx="3"/><text x="238.96" y="776" fill="#fff" font-size="22" font-weight="500" opacity=".9">Training</text><rect width="18.04" height="18.04" x="361.52" y="760.67" fill="#1c277d" rx="3"/><text x="387.56" y="776" fill="#fff" font-size="22" font-weight="500" opacity=".9">Retrieval</text></g></g></svg>