<svg xmlns="http://www.w3.org/2000/svg" width="1080" height="1080" viewBox="0 0 1080 1080"><path fill="#0c322c" d="M0 0h1080v1080H0z"/><path fill="#fff" fill-opacity=".45" d="M890.36 45v-7.26h-2.46V36.6h6.19v1.14h-2.47V45zm8.97.16q-1.45 0-2.32-.77-.87-.76-.87-2.26V36.6h1.25v5.44q0 .96.53 1.45.53.5 1.41.5.89 0 1.43-.5.53-.49.53-1.45V36.6h1.25v5.53q0 1.5-.88 2.26-.87.77-2.33.77m7.37-.16q-.6 0-.98-.38-.39-.39-.39-.99v-5.66q0-.6.39-.99.38-.38.98-.38h3.97v1.14h-3.57q-.23 0-.38.16-.15.15-.15.38v1.96h3.85v1.09h-3.85v1.99q0 .23.15.38.15.16.38.16h3.57V45zm8.71.16q-.91 0-1.59-.34-.67-.34-1.14-.89l.77-.78q.46.49.96.72t1.05.23q.78 0 1.23-.38t.44-.98q0-.44-.23-.72t-.62-.44q-.37-.17-.83-.29-.46-.13-.91-.29-.46-.15-.84-.4-.37-.24-.61-.64t-.23-1.02q0-.77.35-1.33.36-.55 1-.86.65-.31 1.52-.31.78 0 1.4.27t1.03.73l-.79.8q-.36-.37-.76-.55-.39-.19-.9-.19-.73 0-1.17.37-.45.36-.45.95 0 .42.24.67t.62.41.84.27.92.26.84.41q.38.25.62.66t.23 1.06q0 .8-.38 1.38-.37.58-1.05.9-.67.32-1.56.32m5.4-.16v-8.4h2.93q1.18 0 2.11.52.94.52 1.48 1.44t.54 2.12v.13q0 .93-.31 1.69-.31.77-.88 1.33-.56.56-1.31.86-.75.31-1.63.31zm2.84-7.22h-1.59v6.04h1.59q.85 0 1.51-.37.67-.38 1.05-1.06.39-.68.39-1.58v-.13q0-.86-.38-1.52t-1.04-1.02-1.53-.36m5.56 7.22 3.14-8.4h1.52L937 45h-1.28l-.79-2.17h-3.64L930.5 45zm2.46-3.24h2.87l-1.43-3.94zm8.52 3.24v-3.52l-3.02-4.88h1.36l2.29 3.68 2.3-3.68h1.36l-3.03 4.88V45zm4.78 0v-1.48h1.42v2.25q0 .39-.16.61t-.4.3-.48.08h-.43v-.68h.43q.15 0 .23-.1.07-.09.07-.22V45zm6.68 0v-1.14h1.78q.32 0 .54-.22.22-.21.22-.54v-5.36h-2.14V36.6h3.4v6.38q0 .99-.55 1.5-.55.52-1.58.52zm9.82.16q-1.45 0-2.32-.77-.87-.76-.87-2.26V36.6h1.25v5.44q0 .96.52 1.45.53.5 1.42.5t1.42-.5.54-1.45V36.6h1.24v5.53q0 1.5-.87 2.26-.88.77-2.33.77m7.4-.16q-.58 0-.97-.38-.39-.39-.39-.99V36.6h1.24v6.68q0 .23.16.39.16.15.38.15h3.38V45zm6.75 0v-3.52l-3.03-4.88h1.36l2.29 3.68 2.31-3.68h1.35l-3.02 4.88V45zm9.97 0 3.74-7.28h-4.46V36.6h5.83v.85L986.98 45zm7.38 0v-1.48h1.42v2.25q0 .39-.16.61t-.4.3-.48.08h-.43v-.68h.43q.15 0 .23-.1.07-.09.07-.22V45zm7.16 0v-.92l3.02-3.05q.6-.59.81-1.05t.22-.91q0-.65-.39-1.03t-1.06-.38q-.56 0-1.03.3t-.85.86l-.81-.78q.48-.73 1.18-1.15t1.54-.41q.81 0 1.41.31.61.31.94.87.34.56.34 1.29 0 .64-.31 1.31t-1.12 1.49l-2.12 2.13h3.89V45zm10.98.12q-1.45 0-2.28-1.13-.82-1.14-.82-3.18t.82-3.19 2.28-1.14q1.47 0 2.29 1.14t.82 3.19-.82 3.18-2.29 1.13m0-1.13q.89 0 1.38-.81t.48-2.37-.48-2.38q-.49-.82-1.38-.82t-1.37.82-.49 2.38q0 1.55.49 2.37.49.81 1.37.81m5.34 1.01v-.92l3.02-3.05q.6-.59.81-1.05t.22-.91q0-.65-.39-1.03t-1.06-.38q-.56 0-1.03.3t-.85.86l-.81-.78q.48-.73 1.18-1.15t1.54-.41q.81 0 1.41.31.61.31.94.87.34.56.34 1.29 0 .64-.31 1.31t-1.12 1.49l-2.12 2.13h3.89V45zm11.06.12q-.93 0-1.61-.35-.67-.36-1.05-1.01-.37-.64-.37-1.52 0-.58.23-1.15t.62-1.14l2.33-3.35h1.49l-2.27 3.08q.41-.15.88-.15.8 0 1.42.36t.97.98q.34.63.34 1.44 0 .85-.37 1.48-.38.63-1.05.98-.68.35-1.56.35m-.03-1.08q.78 0 1.27-.48.48-.48.48-1.25t-.48-1.25q-.49-.49-1.24-.49-.8 0-1.28.49-.49.48-.49 1.25 0 .78.48 1.26.48.47 1.26.47"/><path fill="#30ba78" d="M28.51 221.97v-44.54q0-6.72 3.07-11.81 3.08-5.09 8.5-7.97t12.43-2.88h11.71v18.72H53.76q-2.11 0-3.26 1.25-1.16 1.25-1.16 3.36v9.41h14.88v34.46zm41.28 0v-44.54q0-6.72 3.07-11.81 3.08-5.09 8.5-7.97t12.43-2.88h11.71v18.72H95.04q-2.11 0-3.26 1.25-1.16 1.25-1.16 3.36v9.41h14.88v34.46z"/><path fill="#fff" d="M29.1 296.77v-39.2h11.64q5.72 0 9.24 3.05t3.53 8.49q0 5.48-3.53 8.51t-9.24 3.02h-7.89v16.13zm11.81-35.9h-8.06v16.58h8.06q3.98 0 6.47-2.24t2.49-6.1-2.49-6.05-6.47-2.19m27.83 36.46q-3.92 0-6.94-1.76-3.02-1.77-4.7-4.88t-1.68-7.19v-.56q0-3.92 1.56-6.95 1.57-3.02 4.34-4.78 2.78-1.77 6.47-1.77 3.75 0 6.44 1.85t3.95 5.21.76 7.84h-20q.12 2.74 1.38 4.95 1.26 2.22 3.44 3.48t5.1 1.26q4.42 0 6.94-2.19l2.02 2.3q-1.52 1.51-3.9 2.35t-5.18.84m-.95-24.75q-3.69 0-6.02 2.41-2.32 2.4-2.77 6.38h16.58q.05-4.03-2.1-6.41-2.16-2.38-5.69-2.38m28.11 24.75q-3.8 0-6.77-1.76-2.97-1.77-4.65-4.88t-1.68-7.19v-.51q0-3.97 1.68-7.02 1.68-3.06 4.65-4.79 2.97-1.74 6.77-1.74 3.76 0 6.72 1.74 2.97 1.73 4.65 4.76t1.68 6.94v.62q0 4.09-1.68 7.19t-4.65 4.88q-2.96 1.76-6.72 1.76m0-3.19q2.8 0 4.93-1.37t3.33-3.76 1.21-5.51v-.62q0-3.02-1.21-5.32-1.2-2.29-3.33-3.61t-4.93-1.32-4.95 1.35-3.39 3.67-1.23 5.34v.51q0 3.13 1.23 5.51t3.39 3.76 4.95 1.37m18.93 13.83V270h3.36v5.38q1.57-2.75 4.17-4.34 2.61-1.6 5.91-1.6 3.64 0 6.47 1.74 2.83 1.73 4.45 4.79 1.63 3.05 1.63 7.02v.51q0 4.09-1.6 7.22-1.6 3.14-4.42 4.87-2.83 1.74-6.53 1.74-3.19 0-5.77-1.51t-4.08-4.15v16.3zm12.99-13.83q2.75 0 4.88-1.32 2.12-1.31 3.33-3.72 1.2-2.41 1.2-5.6v-.51q0-3.08-1.2-5.4-1.21-2.32-3.33-3.64t-4.88-1.32q-2.74 0-4.92 1.38-2.19 1.37-3.45 3.78t-1.26 5.6q0 3.24 1.26 5.65t3.45 3.75 4.92 1.35m25.65 2.63q-3.08 0-4.95-1.79t-1.88-4.76v-31.25h-5.15v-3.08h8.73v34.38q0 1.46.98 2.44t2.44.98h2.41v3.08zm17.64.56q-3.92 0-6.94-1.76-3.03-1.77-4.71-4.88t-1.68-7.19v-.56q0-3.92 1.57-6.95 1.57-3.02 4.34-4.78t6.47-1.77q3.75 0 6.44 1.85t3.95 5.21.75 7.84h-19.99q.11 2.74 1.37 4.95 1.26 2.22 3.45 3.48 2.18 1.26 5.09 1.26 4.43 0 6.95-2.19l2.01 2.3q-1.51 1.51-3.89 2.35t-5.18.84m-.95-24.75q-3.7 0-6.02 2.41-2.32 2.4-2.77 6.38h16.57q.06-4.03-2.1-6.41-2.15-2.38-5.68-2.38m33.32 24.19L195.53 270h3.58l6.55 23.13 6.78-23.13h3.75l6.78 23.02 6.61-23.02h3.52l-7.95 26.77h-4.03l-6.83-23.41-6.78 23.41zm34.27 0v-40.88h3.42v18.87q1.06-2.01 2.66-3.16 1.59-1.15 3.33-1.65 1.74-.51 3.25-.51 4.53 0 7.39 2.89 2.86 2.88 2.86 8.82v15.62h-3.59v-15.18q0-4.7-2.13-6.77t-5.37-2.07q-2.24 0-4.12 1-1.87 1.01-2.99 2.97t-1.12 4.93v15.12zm41.5.56q-3.81 0-6.78-1.76-2.97-1.77-4.65-4.88t-1.68-7.19v-.51q0-3.97 1.68-7.02 1.68-3.06 4.65-4.79 2.97-1.74 6.78-1.74 3.75 0 6.72 1.74 2.97 1.73 4.65 4.76t1.68 6.94v.62q0 4.09-1.68 7.19t-4.65 4.88q-2.97 1.76-6.72 1.76m0-3.19q2.8 0 4.93-1.37t3.33-3.76 1.2-5.51v-.62q0-3.02-1.2-5.32-1.21-2.29-3.33-3.61t-4.93-1.32-4.96 1.35-3.39 3.67-1.23 5.34v.51q0 3.13 1.23 5.51 1.24 2.38 3.39 3.76t4.96 1.37m37.97 2.63q-3.08 0-4.96-1.79t-1.88-4.76v-31.25h-5.15v-3.08h8.74v34.38q0 1.46.98 2.44t2.43.98h2.41v3.08zm17.41.56q-3.81 0-6.77-1.76-2.97-1.77-4.65-4.88t-1.68-7.19v-.51q0-3.97 1.68-7.02 1.68-3.06 4.65-4.79 2.96-1.74 6.77-1.74 3.75 0 6.72 1.74 2.97 1.73 4.65 4.76t1.68 6.94v.62q0 4.09-1.68 7.19t-4.65 4.88q-2.97 1.76-6.72 1.76m0-3.19q2.8 0 4.93-1.37t3.33-3.76 1.21-5.51v-.62q0-3.02-1.21-5.32-1.2-2.29-3.33-3.61t-4.93-1.32-4.95 1.35q-2.16 1.34-3.39 3.67-1.23 2.32-1.23 5.34v.51q0 3.13 1.23 5.51t3.39 3.76 4.95 1.37m25.65 2.63L349.47 270h3.7l9.01 22.51 8.96-22.51h3.7l-10.75 26.77zm29.74.56q-3.92 0-6.95-1.76-3.02-1.77-4.7-4.88t-1.68-7.19v-.56q0-3.92 1.57-6.95 1.56-3.02 4.34-4.78t6.46-1.77q3.76 0 6.44 1.85t3.95 5.21.76 7.84h-19.99q.11 2.74 1.37 4.95 1.26 2.22 3.44 3.48 2.19 1.26 5.1 1.26 4.42 0 6.94-2.19l2.02 2.3q-1.51 1.51-3.89 2.35t-5.18.84m-.96-24.75q-3.69 0-6.02 2.41-2.32 2.4-2.77 6.38h16.58q.05-4.03-2.1-6.41-2.16-2.38-5.69-2.38m30.52 24.19v-23.63h-5.37V270h8.9v26.77zm-.22-32.93v-6.05h3.98v6.05zm22.23 33.49q-3.69 0-6.52-1.74-2.83-1.73-4.43-4.87-1.59-3.13-1.59-7.22v-.51q0-3.97 1.62-7.02 1.63-3.06 4.45-4.79 2.83-1.74 6.47-1.74 3.25 0 5.8 1.54t4.06 4.17v-19.26h3.58v40.88h-3.25v-5.49q-1.56 2.8-4.2 4.43-2.63 1.62-5.99 1.62m.45-3.19q2.74 0 4.93-1.35 2.18-1.34 3.44-3.75t1.26-5.65q0-3.2-1.26-5.6-1.26-2.41-3.44-3.78-2.19-1.38-4.93-1.38t-4.87 1.32-3.33 3.64-1.21 5.4v.51q0 3.19 1.21 5.6 1.2 2.41 3.33 3.72 2.13 1.32 4.87 1.32m32.2 3.19q-3.92 0-6.94-1.76-3.03-1.77-4.71-4.88t-1.68-7.19v-.56q0-3.92 1.57-6.95 1.57-3.02 4.34-4.78t6.47-1.77q3.75 0 6.44 1.85t3.95 5.21.75 7.84h-19.99q.11 2.74 1.37 4.95 1.26 2.22 3.45 3.48 2.18 1.26 5.09 1.26 4.43 0 6.95-2.19l2.01 2.3q-1.51 1.51-3.89 2.35t-5.18.84m-.95-24.75q-3.7 0-6.02 2.41-2.33 2.4-2.77 6.38h16.57q.06-4.03-2.1-6.41-2.15-2.38-5.68-2.38m24.81 24.75q-4.65 0-7.4-2.18t-2.74-5.72q0-2.35 1.34-4.14 1.35-1.79 3.73-2.83 2.38-1.03 5.46-1.03 2.46 0 4.34.58 1.87.59 3.16 1.66v-4.15q0-3.64-1.85-5.23-1.84-1.6-4.98-1.6-2.24 0-4.56.81-2.33.81-3.9 2.61l-1.73-2.52q1.79-2.08 4.59-3.11 2.8-1.04 5.77-1.04 4.59 0 7.39 2.47 2.8 2.46 2.8 7.44v8.52q0 4.48.17 8.9h-3.19l-.06-2.91q-2.41 3.47-8.34 3.47m.84-2.74q3.41 0 5.23-1.46t1.82-3.7q0-2.29-1.85-3.69-1.84-1.4-5.26-1.4-3.36 0-5.32 1.4t-1.96 3.69q0 2.24 1.96 3.7t5.38 1.46m25.14 2.68q-2.8 0-5.38-.89-2.57-.9-4.14-2.41l1.62-2.46q1.46 1.34 3.59 2.12 2.13.79 4.31.79 2.74 0 4.48-1.29t1.74-3.42q0-1.73-1.07-2.68-1.06-.96-2.77-1.46t-3.58-.98-3.56-1.23-2.74-2.16-1.07-3.92q0-3.47 2.58-5.65 2.57-2.19 6.89-2.19 2.46 0 4.62.76 2.15.75 3.78 1.99l-1.63 2.52q-1.4-1.12-3.13-1.74-1.74-.62-3.7-.62-2.69 0-4.34 1.29t-1.65 3.36q0 1.74 1.06 2.66 1.07.93 2.77 1.46 1.71.53 3.62 1.01 1.9.47 3.61 1.26 1.71.78 2.77 2.24 1.06 1.45 1.06 3.97 0 3.36-2.71 5.52-2.72 2.15-7.03 2.15m27.66-.5V270h3.42v4.71q1.51-2.97 3.98-4.12t4.87-1.15q3.08 0 5.35 1.4t3.33 4.37q1.12-2.18 2.71-3.44 1.6-1.26 3.36-1.8 1.77-.53 3.39-.53 4.37 0 7.09 2.83t2.71 8.76v15.74h-3.47v-15.34q0-4.6-1.96-6.64t-5.15-2.04q-3.25 0-5.49 2.21t-2.24 6.41v15.4h-3.53v-15.34q0-4.6-1.93-6.64t-5.12-2.04q-3.31 0-5.55 2.21t-2.24 6.41v15.4zm57.52.56q-2.97 0-5.32-1.15t-3.7-3.58-1.34-6.41V270h3.52v15.63q0 4.7 2.13 6.55t5.32 1.85q2.19 0 4.03-.98t3-2.92q1.15-1.93 1.15-4.9V270h3.47v26.77h-3.25v-4.42q-1.62 2.8-4.2 3.89-2.57 1.09-4.81 1.09m27.1-.06q-2.8 0-5.38-.89-2.57-.9-4.14-2.41l1.62-2.46q1.46 1.34 3.59 2.12 2.13.79 4.31.79 2.74 0 4.48-1.29t1.74-3.42q0-1.73-1.07-2.68-1.06-.96-2.77-1.46t-3.58-.98-3.56-1.23-2.74-2.16q-1.07-1.4-1.07-3.92 0-3.47 2.58-5.65 2.57-2.19 6.89-2.19 2.46 0 4.62.76 2.15.75 3.78 1.99l-1.63 2.52q-1.4-1.12-3.13-1.74-1.74-.62-3.7-.62-2.69 0-4.34 1.29t-1.65 3.36q0 1.74 1.06 2.66 1.07.93 2.77 1.46 1.71.53 3.62 1.01 1.9.47 3.61 1.26 1.71.78 2.77 2.24 1.06 1.45 1.06 3.97 0 3.36-2.71 5.52-2.72 2.15-7.03 2.15m23.97-.5q-1.79 0-3.36-.73t-2.58-2.21-1.01-3.84v-16.85h-4.98V270h4.98v-6.66h3.53V270h7.45v3.14h-7.45v17.08q0 1.51 1.01 2.49t2.46.98h3.98v3.08zm21.39 0v-40.88h3.42v18.87q1.06-2.01 2.66-3.16 1.59-1.15 3.33-1.65 1.73-.51 3.25-.51 4.53 0 7.39 2.89 2.85 2.88 2.85 8.82v15.62h-3.58v-15.18q0-4.7-2.13-6.77t-5.37-2.07q-2.24 0-4.12 1-1.88 1.01-3 2.97t-1.12 4.93v15.12zm38.25.56q-4.65 0-7.39-2.18-2.75-2.19-2.75-5.72 0-2.35 1.35-4.14 1.34-1.79 3.72-2.83 2.38-1.03 5.46-1.03 2.46 0 4.34.58 1.88.59 3.16 1.66v-4.15q0-3.64-1.84-5.23-1.85-1.6-4.99-1.6-2.24 0-4.56.81-2.33.81-3.89 2.61l-1.74-2.52q1.79-2.08 4.59-3.11 2.8-1.04 5.77-1.04 4.59 0 7.39 2.47 2.8 2.46 2.8 7.44v8.52q0 4.48.17 8.9h-3.19l-.06-2.91q-2.41 3.47-8.34 3.47m.84-2.74q3.41 0 5.23-1.46t1.82-3.7q0-2.29-1.84-3.69-1.85-1.4-5.27-1.4-3.36 0-5.32 1.4t-1.96 3.69q0 2.24 1.96 3.7t5.38 1.46m24.81 2.18L734.81 270h3.69l9.02 22.51 8.96-22.51h3.7l-10.76 26.77zm29.73.56q-3.92 0-6.94-1.76-3.03-1.77-4.71-4.88t-1.68-7.19v-.56q0-3.92 1.57-6.95 1.57-3.02 4.34-4.78t6.47-1.77q3.75 0 6.44 1.85t3.95 5.21.75 7.84h-19.99q.11 2.74 1.37 4.95 1.26 2.22 3.45 3.48 2.18 1.26 5.09 1.26 4.43 0 6.95-2.19l2.01 2.3q-1.51 1.51-3.89 2.35t-5.18.84m-.95-24.75q-3.7 0-6.02 2.41-2.32 2.4-2.77 6.38h16.57q.06-4.03-2.1-6.41-2.15-2.38-5.68-2.38m37.13 24.75q-4.65 0-7.39-2.18-2.75-2.19-2.75-5.72 0-2.35 1.35-4.14 1.34-1.79 3.72-2.83 2.38-1.03 5.46-1.03 2.46 0 4.34.58 1.88.59 3.16 1.66v-4.15q0-3.64-1.84-5.23-1.85-1.6-4.99-1.6-2.24 0-4.56.81-2.33.81-3.89 2.61l-1.74-2.52q1.79-2.08 4.59-3.11 2.8-1.04 5.77-1.04 4.59 0 7.39 2.47 2.8 2.46 2.8 7.44v8.52q0 4.48.17 8.9h-3.19l-.06-2.91q-2.41 3.47-8.34 3.47m.84-2.74q3.41 0 5.23-1.46t1.82-3.7q0-2.29-1.84-3.69-1.85-1.4-5.27-1.4-3.36 0-5.32 1.4t-1.96 3.69q0 2.24 1.96 3.7t5.38 1.46m37.07 2.18q-3.08 0-4.96-1.79t-1.87-4.76v-31.25h-5.15v-3.08h8.73v34.38q0 1.46.98 2.44t2.44.98h2.41v3.08zm17.42.56q-3.81 0-6.78-1.76-2.97-1.77-4.65-4.88t-1.68-7.19v-.51q0-3.97 1.68-7.02 1.68-3.06 4.65-4.79 2.97-1.74 6.78-1.74 3.75 0 6.72 1.74 2.96 1.73 4.64 4.76t1.68 6.94v.62q0 4.09-1.68 7.19t-4.64 4.88q-2.97 1.76-6.72 1.76m0-3.19q2.8 0 4.92-1.37t3.34-3.76q1.2-2.38 1.2-5.51v-.62q0-3.02-1.2-5.32-1.21-2.29-3.34-3.61t-4.92-1.32-4.96 1.35q-2.16 1.34-3.39 3.67-1.23 2.32-1.23 5.34v.51q0 3.13 1.23 5.51t3.39 3.76 4.96 1.37m25.64 2.63L881.7 270h3.69l9.02 22.51 8.96-22.51h3.69l-10.75 26.77zm29.74.56q-3.92 0-6.94-1.76-3.03-1.77-4.71-4.88t-1.68-7.19v-.56q0-3.92 1.57-6.95 1.57-3.02 4.34-4.78t6.47-1.77q3.75 0 6.44 1.85t3.95 5.21.75 7.84h-19.99q.11 2.74 1.37 4.95 1.26 2.22 3.45 3.48 2.18 1.26 5.09 1.26 4.43 0 6.95-2.19l2.01 2.3q-1.51 1.51-3.89 2.35t-5.18.84m-.95-24.75q-3.7 0-6.02 2.41-2.33 2.4-2.77 6.38h16.57q.06-4.03-2.1-6.41-2.15-2.38-5.68-2.38m40.37 24.75q-3.8 0-6.77-1.76-2.97-1.77-4.65-4.88t-1.68-7.19v-.51q0-3.97 1.68-7.02 1.68-3.06 4.65-4.79 2.97-1.74 6.77-1.74 3.76 0 6.72 1.74 2.97 1.73 4.65 4.76t1.68 6.94v.62q0 4.09-1.68 7.19t-4.65 4.88q-2.96 1.76-6.72 1.76m0-3.19q2.8 0 4.93-1.37t3.33-3.76 1.21-5.51v-.62q0-3.02-1.21-5.32-1.2-2.29-3.33-3.61t-4.93-1.32-4.95 1.35q-2.16 1.34-3.39 3.67-1.23 2.32-1.23 5.34v.51q0 3.13 1.23 5.51t3.39 3.76 4.95 1.37m20.28 2.63v-23.63h-5.1V270h5.1v-7.33q0-3.08 1.96-4.93t5.04-1.85h4.42v3.08h-4.42q-1.52 0-2.5.98t-.98 2.44V270h7.9v3.14h-7.9v23.63zM33.3 365.08l-7.96-26.77h3.59l6.55 23.13 6.78-23.13h3.75l6.77 23.02 6.61-23.02h3.53l-7.95 26.77h-4.03l-6.84-23.41-6.77 23.41zm45.3.56q-3.81 0-6.78-1.76-2.96-1.77-4.64-4.88t-1.68-7.19v-.51q0-3.97 1.68-7.02 1.68-3.06 4.64-4.79 2.97-1.74 6.78-1.74 3.75 0 6.72 1.74 2.97 1.73 4.65 4.76t1.68 6.94v.62q0 4.09-1.68 7.19t-4.65 4.88q-2.97 1.76-6.72 1.76m0-3.19q2.8 0 4.93-1.37t3.33-3.76 1.2-5.51v-.62q0-3.02-1.2-5.32-1.2-2.29-3.33-3.61t-4.93-1.32-4.96 1.35-3.38 3.67q-1.24 2.32-1.24 5.34v.51q0 3.13 1.24 5.51 1.23 2.38 3.38 3.76 2.16 1.37 4.96 1.37m18.93 2.63v-26.77H101v4.37q1.01-2.58 3-3.5 1.98-.92 4.5-.92h2.3v3.52h-2.58q-3.3 0-5.2 1.71t-1.91 5.35v16.24zm27.05.56q-3.7 0-6.53-1.74-2.83-1.73-4.42-4.87-1.6-3.13-1.6-7.22v-.51q0-3.97 1.63-7.02 1.62-3.06 4.45-4.79 2.83-1.74 6.47-1.74 3.24 0 5.79 1.54t4.06 4.17V324.2h3.59v40.88h-3.25v-5.49q-1.57 2.8-4.2 4.43t-5.99 1.62m.44-3.19q2.75 0 4.93-1.35 2.19-1.34 3.45-3.75t1.26-5.65q0-3.2-1.26-5.6-1.26-2.41-3.45-3.78-2.18-1.38-4.93-1.38t-4.87 1.32-3.33 3.64-1.2 5.4v.51q0 3.19 1.2 5.6t3.33 3.72 4.87 1.32m27.84 3.13q-2.8 0-5.38-.89-2.58-.9-4.14-2.41l1.62-2.46q1.46 1.34 3.58 2.12 2.13.79 4.32.79 2.74 0 4.48-1.29 1.73-1.29 1.73-3.42 0-1.73-1.06-2.68-1.07-.96-2.77-1.46-1.71-.5-3.59-.98t-3.55-1.23-2.75-2.16q-1.06-1.4-1.06-3.92 0-3.47 2.57-5.65 2.58-2.19 6.89-2.19 2.47 0 4.62.76 2.16.75 3.78 1.99l-1.62 2.52q-1.4-1.12-3.14-1.74-1.73-.62-3.69-.62-2.69 0-4.34 1.29-1.66 1.29-1.66 3.36 0 1.74 1.07 2.66 1.06.93 2.77 1.46t3.61 1.01 3.61 1.26 2.78 2.24q1.06 1.45 1.06 3.97 0 3.36-2.72 5.52-2.71 2.15-7.02 2.15m14.16-.5v-5.15h4.43v9.41q0 2.07-1.23 2.94-1.24.86-2.69.86h-1.57v-2.24h1.57q.73 0 1.12-.44.39-.45.39-1.18v-4.2zm29.63.56q-4.65 0-7.39-2.18-2.75-2.19-2.75-5.72 0-2.35 1.35-4.14 1.34-1.79 3.72-2.83 2.38-1.03 5.46-1.03 2.46 0 4.34.58 1.88.59 3.16 1.66v-4.15q0-3.64-1.84-5.23-1.85-1.6-4.99-1.6-2.24 0-4.56.81-2.33.81-3.89 2.61l-1.74-2.52q1.79-2.08 4.59-3.11 2.8-1.04 5.77-1.04 4.59 0 7.39 2.47 2.8 2.46 2.8 7.44v8.52q0 4.48.17 8.9h-3.19l-.06-2.91q-2.41 3.47-8.34 3.47m.84-2.74q3.41 0 5.23-1.46t1.82-3.7q0-2.29-1.84-3.69-1.85-1.4-5.27-1.4-3.36 0-5.32 1.4t-1.96 3.69q0 2.24 1.96 3.7t5.38 1.46m18.03 2.18v-26.77h3.42v4.76q1.06-2.01 2.66-3.16 1.59-1.15 3.33-1.65 1.73-.51 3.25-.51 4.53 0 7.39 2.89 2.85 2.88 2.85 8.82v15.62h-3.58V349.9q0-4.7-2.13-6.77t-5.37-2.07q-2.24 0-4.12 1-1.88 1.01-3 2.97t-1.12 4.93v15.12zm40.94.56q-3.7 0-6.53-1.74-2.83-1.73-4.42-4.87-1.6-3.13-1.6-7.22v-.51q0-3.97 1.63-7.02 1.62-3.06 4.45-4.79 2.83-1.74 6.47-1.74 3.24 0 5.79 1.54t4.06 4.17V324.2h3.59v40.88h-3.25v-5.49q-1.57 2.8-4.2 4.43t-5.99 1.62m.44-3.19q2.75 0 4.93-1.35 2.19-1.34 3.45-3.75t1.26-5.65q0-3.2-1.26-5.6-1.26-2.41-3.45-3.78-2.18-1.38-4.93-1.38t-4.87 1.32-3.33 3.64-1.2 5.4v.51q0 3.19 1.2 5.6t3.33 3.72 4.87 1.32m40.88 2.63q-1.79 0-3.36-.73t-2.57-2.21-1.01-3.84v-16.85h-4.98v-3.14h4.98v-6.66h3.53v6.66h7.45v3.14h-7.45v17.08q0 1.51 1.01 2.49 1 .98 2.46.98h3.98v3.08zm9.13 0V324.2h3.42v18.87q1.06-2.01 2.66-3.16 1.59-1.15 3.33-1.65 1.74-.51 3.25-.51 4.53 0 7.39 2.89 2.86 2.88 2.86 8.82v15.62h-3.59V349.9q0-4.7-2.13-6.77t-5.37-2.07q-2.24 0-4.12 1-1.87 1.01-2.99 2.97t-1.12 4.93v15.12zm38.25.56q-4.65 0-7.39-2.18-2.75-2.19-2.75-5.72 0-2.35 1.35-4.14 1.34-1.79 3.72-2.83 2.38-1.03 5.46-1.03 2.47 0 4.34.58 1.88.59 3.17 1.66v-4.15q0-3.64-1.85-5.23t-4.99-1.6q-2.24 0-4.56.81t-3.89 2.61l-1.74-2.52q1.79-2.08 4.59-3.11 2.8-1.04 5.77-1.04 4.59 0 7.39 2.47 2.8 2.46 2.8 7.44v8.52q0 4.48.17 8.9h-3.19l-.06-2.91q-2.4 3.47-8.34 3.47m.84-2.74q3.42 0 5.24-1.46t1.82-3.7q0-2.29-1.85-3.69t-5.27-1.4q-3.36 0-5.32 1.4t-1.96 3.69q0 2.24 1.96 3.7t5.38 1.46m26.26 2.18q-1.79 0-3.36-.73t-2.57-2.21-1.01-3.84v-16.85h-4.98v-3.14h4.98v-6.66h3.53v6.66h7.45v3.14h-7.45v17.08q0 1.51 1.01 2.49 1 .98 2.46.98h3.98v3.08zm21.4 0v-26.77h3.41v4.71q1.51-2.97 3.98-4.12t4.87-1.15q3.08 0 5.35 1.4t3.33 4.37q1.12-2.18 2.72-3.44 1.59-1.26 3.36-1.8 1.76-.53 3.38-.53 4.37 0 7.09 2.83t2.71 8.76v15.74h-3.47v-15.34q0-4.6-1.96-6.64t-5.15-2.04q-3.25 0-5.49 2.21t-2.24 6.41v15.4h-3.53v-15.34q0-4.6-1.93-6.64t-5.12-2.04q-3.31 0-5.55 2.21t-2.24 6.41v15.4zm59.02.56q-3.92 0-6.94-1.76-3.03-1.77-4.71-4.88t-1.68-7.19v-.56q0-3.92 1.57-6.95 1.57-3.02 4.34-4.78t6.47-1.77q3.75 0 6.44 1.85t3.95 5.21.75 7.84h-19.99q.11 2.74 1.37 4.95 1.26 2.22 3.45 3.48 2.18 1.26 5.09 1.26 4.43 0 6.95-2.19l2.01 2.3q-1.51 1.51-3.89 2.35t-5.18.84m-.95-24.75q-3.7 0-6.02 2.41-2.33 2.4-2.77 6.38h16.57q.06-4.03-2.1-6.41-2.15-2.38-5.68-2.38m24.81 24.75q-4.65 0-7.4-2.18t-2.74-5.72q0-2.35 1.34-4.14 1.35-1.79 3.73-2.83 2.38-1.03 5.46-1.03 2.46 0 4.34.58 1.87.59 3.16 1.66v-4.15q0-3.64-1.85-5.23-1.84-1.6-4.98-1.6-2.24 0-4.56.81-2.33.81-3.9 2.61l-1.73-2.52q1.79-2.08 4.59-3.11 2.8-1.04 5.77-1.04 4.59 0 7.39 2.47 2.8 2.46 2.8 7.44v8.52q0 4.48.17 8.9h-3.19l-.06-2.91q-2.41 3.47-8.34 3.47m.84-2.74q3.41 0 5.23-1.46t1.82-3.7q0-2.29-1.85-3.69-1.84-1.4-5.26-1.4-3.36 0-5.32 1.4t-1.96 3.69q0 2.24 1.96 3.7t5.38 1.46m18.03 2.18v-26.77h3.41v4.76q1.07-2.01 2.66-3.16 1.6-1.15 3.34-1.65 1.73-.51 3.24-.51 4.54 0 7.4 2.89 2.85 2.88 2.85 8.82v15.62h-3.58V349.9q0-4.7-2.13-6.77t-5.38-2.07q-2.24 0-4.11 1-1.88 1.01-3 2.97t-1.12 4.93v15.12zm37.35.5q-2.8 0-5.38-.89-2.57-.9-4.14-2.41l1.62-2.46q1.46 1.34 3.59 2.12 2.13.79 4.31.79 2.74 0 4.48-1.29t1.74-3.42q0-1.73-1.07-2.68-1.06-.96-2.77-1.46t-3.58-.98-3.56-1.23-2.74-2.16q-1.07-1.4-1.07-3.92 0-3.47 2.58-5.65 2.57-2.19 6.89-2.19 2.46 0 4.62.76 2.15.75 3.78 1.99l-1.63 2.52q-1.4-1.12-3.13-1.74-1.74-.62-3.7-.62-2.69 0-4.34 1.29t-1.65 3.36q0 1.74 1.06 2.66 1.07.93 2.77 1.46 1.71.53 3.62 1.01 1.9.47 3.61 1.26 1.71.78 2.77 2.24 1.06 1.45 1.06 3.97 0 3.36-2.71 5.52-2.72 2.15-7.03 2.15m14.17-.5v-5.15h4.42v9.41q0 2.07-1.23 2.94-1.23.86-2.69.86h-1.57v-2.24h1.57q.73 0 1.12-.44.39-.45.39-1.18v-4.2zm18.65 11.2v-3.02h15.84q2.19 0 3.45-1.1 1.26-1.09 1.26-2.99 0-1.79-1.26-2.8t-3.45-1.01h-8.51q-2.07 0-3.13-.98-1.07-.98-1.18-2.44-.11-1.45.62-2.85l1.84-3.7q-2.07-1.23-3.27-3.27t-1.21-4.57v-.5q0-2.75 1.43-4.85t3.98-3.27 5.85-1.18q.84 0 1.57.06l2.85-5.83h3.59l-3.42 6.44q3.03 1.01 4.85 3.25t1.82 5.21v.67q0 2.8-1.43 4.96-1.43 2.15-3.98 3.39-2.55 1.23-5.85 1.23-2.07 0-3.92-.51l-1.46 2.8q-.28.62-.36 1.32t.36 1.2 1.57.51h7.84q3.42 0 5.52 1.73 2.1 1.74 2.1 4.99 0 3.19-2.13 5.15t-5.66 1.96zm12.26-22.01q1.79 0 3.58-.64 1.8-.65 3-2.16t1.2-4.25q0-2.92-2.18-4.71t-5.6-1.79-5.6 1.79-2.18 4.71q0 2.68 1.23 4.22t3.05 2.19 3.5.64m18.76 10.81v-23.63h-5.38v-3.14h8.91v26.77zm-.22-32.93v-6.05h3.97v6.05zm18.7 32.93-10.81-26.77h3.7l9.01 22.51 8.96-22.51h3.7l-10.75 26.77zm29.74.56q-3.92 0-6.95-1.76-3.02-1.77-4.7-4.88t-1.68-7.19v-.56q0-3.92 1.57-6.95 1.56-3.02 4.34-4.78t6.46-1.77q3.76 0 6.44 1.85t3.95 5.21.76 7.84h-19.99q.11 2.74 1.37 4.95 1.26 2.22 3.44 3.48 2.19 1.26 5.1 1.26 4.42 0 6.94-2.19l2.02 2.3q-1.51 1.51-3.89 2.35t-5.18.84m-.96-24.75q-3.69 0-6.02 2.41-2.32 2.4-2.77 6.38h16.58q.05-4.03-2.1-6.41-2.16-2.38-5.69-2.38m16.86 24.19v-26.77h3.42v4.76q1.06-2.01 2.66-3.16 1.59-1.15 3.33-1.65 1.73-.51 3.25-.51 4.53 0 7.39 2.89 2.85 2.88 2.85 8.82v15.62h-3.58V349.9q0-4.7-2.13-6.77t-5.37-2.07q-2.24 0-4.12 1-1.88 1.01-3 2.97t-1.12 4.93v15.12zm50.51.56q-4.65 0-7.39-2.18t-2.74-5.72q0-2.35 1.34-4.14t3.72-2.83 5.46-1.03q2.47 0 4.34.58 1.88.59 3.17 1.66v-4.15q0-3.64-1.85-5.23t-4.98-1.6q-2.24 0-4.57.81-2.32.81-3.89 2.61l-1.74-2.52q1.8-2.08 4.6-3.11 2.8-1.04 5.76-1.04 4.6 0 7.4 2.47 2.8 2.46 2.8 7.44v8.52q0 4.48.16 8.9h-3.19l-.05-2.91q-2.41 3.47-8.35 3.47m.84-2.74q3.42 0 5.24-1.46t1.82-3.7q0-2.29-1.85-3.69t-5.26-1.4q-3.36 0-5.32 1.4t-1.96 3.69q0 2.24 1.96 3.7t5.37 1.46m42.06 2.74q-3.98 0-7.06-1.74-3.08-1.73-4.81-4.78-1.74-3.06-1.74-7.09v-.73q0-3.97 1.76-7.02 1.77-3.06 4.82-4.79 3.05-1.74 7.03-1.74 2.91 0 5.26 1.04 2.35 1.03 4.03 2.88l-2.24 2.24q-2.74-2.85-7.11-2.85-2.91 0-5.18 1.28-2.27 1.29-3.55 3.62-1.29 2.32-1.29 5.34v.73q0 3.08 1.31 5.41 1.32 2.32 3.59 3.61t5.18 1.29q4.37 0 7.17-2.86l2.18 2.24q-1.68 1.85-4.06 2.88-2.38 1.04-5.29 1.04m14.45-.56V324.2h3.41v18.87q1.07-2.01 2.66-3.16 1.6-1.15 3.33-1.65 1.74-.51 3.25-.51 4.54 0 7.39 2.89 2.86 2.88 2.86 8.82v15.62h-3.58V349.9q0-4.7-2.13-6.77t-5.38-2.07q-2.24 0-4.11 1-1.88 1.01-3 2.97t-1.12 4.93v15.12zm38.24.56q-4.64 0-7.39-2.18t-2.74-5.72q0-2.35 1.34-4.14 1.35-1.79 3.73-2.83 2.38-1.03 5.46-1.03 2.46 0 4.34.58 1.87.59 3.16 1.66v-4.15q0-3.64-1.85-5.23t-4.98-1.6q-2.24 0-4.57.81-2.32.81-3.89 2.61l-1.73-2.52q1.79-2.08 4.59-3.11 2.8-1.04 5.77-1.04 4.59 0 7.39 2.47 2.8 2.46 2.8 7.44v8.52q0 4.48.17 8.9h-3.2l-.05-2.91q-2.41 3.47-8.35 3.47m.84-2.74q3.42 0 5.24-1.46t1.82-3.7q0-2.29-1.85-3.69t-5.26-1.4q-3.36 0-5.32 1.4t-1.96 3.69q0 2.24 1.96 3.7t5.37 1.46m18.04 2.18v-26.77h3.41v4.76q1.07-2.01 2.66-3.16 1.6-1.15 3.33-1.65 1.74-.51 3.25-.51 4.54 0 7.39 2.89 2.86 2.88 2.86 8.82v15.62h-3.58V349.9q0-4.7-2.13-6.77t-5.38-2.07q-2.24 0-4.11 1-1.88 1.01-3 2.97t-1.12 4.93v15.12zm42 .56q-3.98 0-7.06-1.74-3.08-1.73-4.82-4.78-1.73-3.06-1.73-7.09v-.73q0-3.97 1.76-7.02 1.77-3.06 4.82-4.79 3.05-1.74 7.03-1.74 2.91 0 5.26 1.04 2.35 1.03 4.03 2.88l-2.24 2.24q-2.74-2.85-7.11-2.85-2.91 0-5.18 1.28-2.27 1.29-3.56 3.62-1.28 2.32-1.28 5.34v.73q0 3.08 1.31 5.41 1.32 2.32 3.59 3.61t5.18 1.29q4.36 0 7.16-2.86l2.19 2.24q-1.68 1.85-4.06 2.88-2.38 1.04-5.29 1.04m25.14 0q-3.92 0-6.94-1.76-3.03-1.77-4.71-4.88t-1.68-7.19v-.56q0-3.92 1.57-6.95 1.57-3.02 4.34-4.78t6.47-1.77q3.75 0 6.44 1.85t3.95 5.21.75 7.84h-19.99q.11 2.74 1.37 4.95 1.26 2.22 3.45 3.48 2.18 1.26 5.09 1.26 4.43 0 6.95-2.19l2.01 2.3q-1.51 1.51-3.89 2.35t-5.18.84m-.95-24.75q-3.7 0-6.02 2.41-2.33 2.4-2.77 6.38h16.57q.06-4.03-2.1-6.41-2.15-2.38-5.68-2.38m15.62 24.19v-5.15h4.43v9.41q0 2.07-1.24 2.94-1.23.86-2.68.86h-1.57v-2.24h1.57q.72 0 1.12-.44.39-.45.39-1.18v-4.2zm29.51 0q-1.79 0-3.36-.73t-2.57-2.21-1.01-3.84v-16.85h-4.98v-3.14h4.98v-6.66h3.53v6.66h7.45v3.14h-7.45v17.08q0 1.51 1.01 2.49 1 .98 2.46.98h3.98v3.08zm9.13 0V324.2h3.42v18.87q1.06-2.01 2.66-3.16 1.59-1.15 3.33-1.65 1.74-.51 3.25-.51 4.53 0 7.39 2.89 2.86 2.88 2.86 8.82v15.62h-3.59V349.9q0-4.7-2.13-6.77t-5.37-2.07q-2.24 0-4.12 1-1.87 1.01-2.99 2.97t-1.12 4.93v15.12zm41.72.56q-3.92 0-6.94-1.76-3.03-1.77-4.71-4.88t-1.68-7.19v-.56q0-3.92 1.57-6.95 1.57-3.02 4.34-4.78t6.47-1.77q3.75 0 6.44 1.85t3.95 5.21.75 7.84h-19.99q.11 2.74 1.37 4.95 1.26 2.22 3.45 3.48 2.18 1.26 5.09 1.26 4.43 0 6.95-2.19l2.01 2.3q-1.51 1.51-3.89 2.35t-5.18.84m-.95-24.75q-3.7 0-6.02 2.41-2.32 2.4-2.77 6.38h16.57q.06-4.03-2.1-6.41-2.15-2.38-5.68-2.38m13.16 35.39v-3.08h5.1q1.4 0 2.21-.98t1.31-2.27l2.08-4.65-11.09-26.99h3.92l9.07 22.63 8.79-22.63h3.92l-13.05 31.75q-.61 1.52-1.48 2.94-.87 1.43-2.27 2.36t-3.58.92zM33.3 433.39l-7.96-26.77h3.59l6.55 23.13 6.78-23.13h3.75l6.77 23.02 6.61-23.02h3.53l-7.95 26.77h-4.03l-6.84-23.41-6.77 23.41zm36.28 0v-23.63h-5.37v-3.14h8.9v26.77zm-.22-32.93v-6.05h3.98v6.05zm18.37 32.93q-3.08 0-4.96-1.79t-1.87-4.76v-31.25h-5.16v-3.08h8.74v34.38q0 1.46.98 2.44t2.44.98h2.4v3.08zm13.44 0q-3.08 0-4.96-1.79t-1.87-4.76v-31.25h-5.16v-3.08h8.74v34.38q0 1.46.98 2.44t2.44.98h2.4v3.08zm26.15 0q-1.79 0-3.36-.73t-2.58-2.21q-1-1.48-1-3.84v-16.85h-4.99v-3.14h4.99v-6.66h3.52v6.66h7.45v3.14h-7.45v17.08q0 1.51 1.01 2.49t2.47.98h3.97v3.08zm17.14.56q-4.65 0-7.4-2.18t-2.74-5.72q0-2.35 1.34-4.14 1.35-1.79 3.73-2.83 2.38-1.03 5.46-1.03 2.46 0 4.34.58 1.87.59 3.16 1.66v-4.15q0-3.64-1.85-5.23-1.84-1.6-4.98-1.6-2.24 0-4.56.81-2.33.81-3.9 2.61l-1.73-2.52q1.79-2.08 4.59-3.11 2.8-1.04 5.77-1.04 4.59 0 7.39 2.47 2.8 2.46 2.8 7.44v8.52q0 4.48.17 8.9h-3.19l-.06-2.91q-2.41 3.47-8.34 3.47m.84-2.74q3.41 0 5.23-1.46t1.82-3.7q0-2.29-1.85-3.69-1.84-1.4-5.26-1.4-3.36 0-5.32 1.4t-1.96 3.69q0 2.24 1.96 3.7t5.38 1.46m18.03 2.18v-40.88h3.58v27.78l13.5-13.67h4.42l-10.41 10.64 11.48 16.13h-4.43l-9.57-13.55-4.99 5.09v8.46zm36.51.56q-3.92 0-6.94-1.76-3.03-1.77-4.71-4.88t-1.68-7.19v-.56q0-3.92 1.57-6.95 1.57-3.02 4.34-4.78t6.47-1.77q3.75 0 6.44 1.85t3.95 5.21.75 7.84h-19.99q.11 2.74 1.37 4.95 1.26 2.22 3.45 3.48 2.18 1.26 5.09 1.26 4.43 0 6.95-2.19l2.01 2.3q-1.51 1.51-3.89 2.35t-5.18.84m-.95-24.75q-3.7 0-6.02 2.41-2.33 2.4-2.77 6.38h16.57q.06-4.03-2.1-6.41-2.15-2.38-5.68-2.38m37.13 24.75q-4.65 0-7.4-2.18t-2.74-5.72q0-2.35 1.34-4.14 1.35-1.79 3.73-2.83 2.38-1.03 5.46-1.03 2.46 0 4.34.58 1.87.59 3.16 1.66v-4.15q0-3.64-1.85-5.23-1.84-1.6-4.98-1.6-2.24 0-4.56.81-2.33.81-3.9 2.61l-1.73-2.52q1.79-2.08 4.59-3.11 2.8-1.04 5.77-1.04 4.59 0 7.39 2.47 2.8 2.46 2.8 7.44v8.52q0 4.48.17 8.9h-3.19l-.06-2.91q-2.41 3.47-8.34 3.47m.84-2.74q3.41 0 5.23-1.46t1.82-3.7q0-2.29-1.85-3.69-1.84-1.4-5.26-1.4-3.36 0-5.32 1.4t-1.96 3.69q0 2.24 1.96 3.7t5.38 1.46m36.45 2.18-10.81-26.77h3.7l9.02 22.51 8.96-22.51h3.69l-10.75 26.77zm20.72 0v-23.63h-5.37v-3.14h8.9v26.77zm-.22-32.93v-6.05h3.97v6.05zm18.7 32.93-10.81-26.77h3.7l9.02 22.51 8.96-22.51h3.69l-10.75 26.77zm20.72 0v-23.63h-5.37v-3.14h8.9v26.77zm-.22-32.93v-6.05h3.97v6.05zm22.23 33.49q-3.7 0-6.52-1.74-2.83-1.73-4.43-4.87-1.59-3.13-1.59-7.22v-.51q0-3.97 1.62-7.02 1.62-3.06 4.45-4.79 2.83-1.74 6.47-1.74 3.25 0 5.8 1.54t4.06 4.17v-19.26h3.58v40.88h-3.25v-5.49q-1.57 2.8-4.2 4.43t-5.99 1.62m.45-3.19q2.74 0 4.93-1.35 2.18-1.34 3.44-3.75t1.26-5.65q0-3.2-1.26-5.6-1.26-2.41-3.44-3.78-2.19-1.38-4.93-1.38-2.75 0-4.87 1.32t-3.34 3.64q-1.2 2.32-1.2 5.4v.51q0 3.19 1.2 5.6 1.21 2.41 3.34 3.72 2.12 1.32 4.87 1.32m34.38 2.63v-23.63h-5.37v-3.14h8.9v26.77zm-.22-32.93v-6.05h3.97v6.05zm11.53 32.93v-26.77h3.42v4.76q1.06-2.01 2.66-3.16t3.33-1.65q1.74-.51 3.25-.51 4.54 0 7.39 2.89 2.86 2.88 2.86 8.82v15.62h-3.59v-15.18q0-4.7-2.12-6.77t-5.38-2.07q-2.24 0-4.12 1-1.87 1.01-2.99 2.97t-1.12 4.93v15.12zm38.36 0q-1.79 0-3.36-.73t-2.57-2.21-1.01-3.84v-16.85h-4.98v-3.14h4.98v-6.66h3.53v6.66h7.45v3.14h-7.45v17.08q0 1.51 1.01 2.49 1 .98 2.46.98h3.98v3.08zm19.72.56q-3.92 0-6.95-1.76-3.02-1.77-4.7-4.88t-1.68-7.19v-.56q0-3.92 1.57-6.95 1.56-3.02 4.34-4.78t6.46-1.77q3.76 0 6.44 1.85t3.95 5.21.76 7.84h-19.99q.11 2.74 1.37 4.95 1.26 2.22 3.44 3.48 2.19 1.26 5.1 1.26 4.42 0 6.94-2.19l2.02 2.3q-1.51 1.51-3.89 2.35t-5.18.84m-.96-24.75q-3.69 0-6.02 2.41-2.32 2.4-2.77 6.38h16.58q.05-4.03-2.1-6.41-2.16-2.38-5.69-2.38m16.86 24.19v-26.77h3.47v4.37q1.01-2.58 3-3.5t4.51-.92h2.29v3.52h-2.57q-3.31 0-5.21 1.71-1.91 1.71-1.91 5.35v16.24zm27.83.56q-3.92 0-6.94-1.76-3.03-1.77-4.71-4.88t-1.68-7.19v-.56q0-3.92 1.57-6.95 1.57-3.02 4.34-4.78t6.47-1.77q3.75 0 6.44 1.85t3.95 5.21.75 7.84h-19.99q.11 2.74 1.37 4.95 1.26 2.22 3.45 3.48 2.18 1.26 5.09 1.26 4.43 0 6.95-2.19l2.01 2.3q-1.51 1.51-3.89 2.35t-5.18.84m-.95-24.75q-3.7 0-6.02 2.41-2.32 2.4-2.77 6.38h16.57q.06-4.03-2.1-6.41-2.15-2.38-5.68-2.38m23.97 24.69q-2.8 0-5.38-.89-2.57-.9-4.14-2.41l1.62-2.46q1.46 1.34 3.59 2.12 2.12.79 4.31.79 2.74 0 4.48-1.29 1.73-1.29 1.73-3.42 0-1.73-1.06-2.68t-2.77-1.46-3.59-.98-3.55-1.23-2.75-2.16q-1.06-1.4-1.06-3.92 0-3.47 2.58-5.65 2.57-2.19 6.88-2.19 2.47 0 4.62.76 2.16.75 3.78 1.99l-1.62 2.52q-1.4-1.12-3.14-1.74-1.73-.62-3.69-.62-2.69 0-4.34 1.29t-1.65 3.36q0 1.74 1.06 2.66t2.77 1.46 3.61 1.01 3.62 1.26q1.7.78 2.77 2.24 1.06 1.45 1.06 3.97 0 3.36-2.71 5.52-2.72 2.15-7.03 2.15m23.97-.5q-1.8 0-3.36-.73-1.57-.73-2.58-2.21t-1.01-3.84v-16.85h-4.98v-3.14h4.98v-6.66h3.53v6.66h7.45v3.14h-7.45v17.08q0 1.51 1.01 2.49t2.46.98h3.98v3.08zm22.79 0v-23.63h-5.38v-3.14h8.91v26.77zm-.23-32.93v-6.05h3.98v6.05zm11.54 32.93v-26.77h3.42v4.76q1.06-2.01 2.66-3.16 1.59-1.15 3.33-1.65 1.73-.51 3.25-.51 4.53 0 7.39 2.89 2.85 2.88 2.85 8.82v15.62h-3.58v-15.18q0-4.7-2.13-6.77t-5.37-2.07q-2.24 0-4.12 1-1.88 1.01-3 2.97t-1.12 4.93v15.12zm50.4 0q-1.79 0-3.36-.73t-2.58-2.21-1-3.84v-16.85h-4.99v-3.14h4.99v-6.66h3.52v6.66h7.45v3.14h-7.45v17.08q0 1.51 1.01 2.49t2.47.98h3.97v3.08zm9.13 0v-40.88h3.41v18.87q1.07-2.01 2.66-3.16 1.6-1.15 3.34-1.65 1.73-.51 3.24-.51 4.54 0 7.4 2.89 2.85 2.88 2.85 8.82v15.62h-3.58v-15.18q0-4.7-2.13-6.77t-5.38-2.07q-2.24 0-4.11 1-1.88 1.01-3 2.97t-1.12 4.93v15.12zm41.72.56q-3.92 0-6.95-1.76-3.02-1.77-4.7-4.88t-1.68-7.19v-.56q0-3.92 1.57-6.95 1.57-3.02 4.34-4.78t6.47-1.77q3.75 0 6.44 1.85 2.68 1.85 3.94 5.21t.76 7.84h-19.99q.11 2.74 1.37 4.95 1.26 2.22 3.44 3.48 2.19 1.26 5.1 1.26 4.42 0 6.94-2.19l2.02 2.3q-1.51 1.51-3.89 2.35t-5.18.84m-.95-24.75q-3.7 0-6.02 2.41-2.33 2.4-2.78 6.38h16.58q.06-4.03-2.1-6.41t-5.68-2.38m40.88 24.75q-3.98 0-7.06-1.74-3.08-1.73-4.82-4.78-1.73-3.06-1.73-7.09v-.73q0-3.97 1.76-7.02 1.77-3.06 4.82-4.79 3.05-1.74 7.03-1.74 2.91 0 5.26 1.04 2.35 1.03 4.03 2.88l-2.24 2.24q-2.74-2.85-7.11-2.85-2.91 0-5.18 1.28-2.27 1.29-3.56 3.62-1.28 2.32-1.28 5.34v.73q0 3.08 1.31 5.41 1.32 2.32 3.59 3.61t5.18 1.29q4.36 0 7.16-2.86l2.19 2.24q-1.68 1.85-4.06 2.88-2.38 1.04-5.29 1.04m21.22-.56q-3.08 0-4.96-1.79t-1.87-4.76v-31.25h-5.15v-3.08h8.73v34.38q0 1.46.98 2.44t2.44.98h2.41v3.08zm17.42.56q-3.81 0-6.78-1.76-2.97-1.77-4.65-4.88t-1.68-7.19v-.51q0-3.97 1.68-7.02 1.68-3.06 4.65-4.79 2.97-1.74 6.78-1.74 3.75 0 6.72 1.74 2.96 1.73 4.64 4.76t1.68 6.94v.62q0 4.09-1.68 7.19t-4.64 4.88q-2.97 1.76-6.72 1.76m0-3.19q2.8 0 4.92-1.37t3.34-3.76q1.2-2.38 1.2-5.51v-.62q0-3.02-1.2-5.32-1.21-2.29-3.34-3.61t-4.92-1.32-4.96 1.35q-2.16 1.34-3.39 3.67-1.23 2.32-1.23 5.34v.51q0 3.13 1.23 5.51t3.39 3.76 4.96 1.37m27.04 2.63q-1.79 0-3.36-.73t-2.57-2.21-1.01-3.84v-16.85h-4.98v-3.14h4.98v-6.66h3.53v6.66h7.45v3.14h-7.45v17.08q0 1.51 1.01 2.49 1 .98 2.46.98h3.98v3.08zm9.13 0v-40.88h3.42v18.87q1.06-2.01 2.66-3.16 1.59-1.15 3.33-1.65 1.74-.51 3.25-.51 4.53 0 7.39 2.89 2.86 2.88 2.86 8.82v15.62h-3.59v-15.18q0-4.7-2.13-6.77t-5.37-2.07q-2.24 0-4.12 1-1.87 1.01-2.99 2.97t-1.12 4.93v15.12zm41.72.56q-3.92 0-6.94-1.76-3.03-1.77-4.71-4.88t-1.68-7.19v-.56q0-3.92 1.57-6.95 1.57-3.02 4.34-4.78t6.47-1.77q3.75 0 6.44 1.85t3.95 5.21.75 7.84h-19.99q.11 2.74 1.37 4.95 1.26 2.22 3.45 3.48 2.18 1.26 5.09 1.26 4.43 0 6.95-2.19l2.01 2.3q-1.51 1.51-3.89 2.35t-5.18.84m-.95-24.75q-3.7 0-6.02 2.41-2.32 2.4-2.77 6.38h16.57q.06-4.03-2.1-6.41-2.15-2.38-5.68-2.38m23.97 24.69q-2.8 0-5.38-.89-2.57-.9-4.14-2.41l1.62-2.46q1.46 1.34 3.59 2.12 2.12.79 4.31.79 2.74 0 4.48-1.29 1.73-1.29 1.73-3.42 0-1.73-1.06-2.68t-2.77-1.46-3.59-.98-3.55-1.23-2.75-2.16q-1.06-1.4-1.06-3.92 0-3.47 2.58-5.65 2.57-2.19 6.88-2.19 2.47 0 4.62.76 2.16.75 3.78 1.99l-1.62 2.52q-1.4-1.12-3.14-1.74-1.73-.62-3.69-.62-2.69 0-4.34 1.29t-1.65 3.36q0 1.74 1.06 2.66t2.77 1.46 3.61 1.01 3.62 1.26q1.7.78 2.77 2.24 1.06 1.45 1.06 3.97 0 3.36-2.71 5.52-2.72 2.15-7.03 2.15m31.86-.5-7.95-26.77h3.58l6.56 23.13 6.77-23.13h3.75l6.78 23.02 6.61-23.02h3.53l-7.96 26.77h-4.03l-6.83-23.41-6.78 23.41zm34.27 0v-40.88h3.42v18.87q1.06-2.01 2.66-3.16t3.33-1.65q1.74-.51 3.25-.51 4.54 0 7.39 2.89 2.86 2.88 2.86 8.82v15.62h-3.59v-15.18q0-4.7-2.12-6.77t-5.38-2.07q-2.24 0-4.12 1-1.87 1.01-2.99 2.97t-1.12 4.93v15.12zm31.76 0v-23.63h-5.38v-3.14h8.9v26.77zm-.23-32.93v-6.05h3.98v6.05zm23.3 33.49q-3.98 0-7.06-1.74-3.08-1.73-4.81-4.78-1.74-3.06-1.74-7.09v-.73q0-3.97 1.76-7.02 1.77-3.06 4.82-4.79 3.05-1.74 7.03-1.74 2.91 0 5.26 1.04 2.35 1.03 4.03 2.88l-2.24 2.24q-2.74-2.85-7.11-2.85-2.91 0-5.18 1.28-2.27 1.29-3.55 3.62-1.29 2.32-1.29 5.34v.73q0 3.08 1.31 5.41 1.32 2.32 3.59 3.61t5.18 1.29q4.37 0 7.17-2.86l2.18 2.24q-1.68 1.85-4.06 2.88-2.38 1.04-5.29 1.04m14.45-.56v-40.88h3.41v18.87q1.07-2.01 2.66-3.16 1.6-1.15 3.33-1.65 1.74-.51 3.25-.51 4.54 0 7.39 2.89 2.86 2.88 2.86 8.82v15.62h-3.58v-15.18q0-4.7-2.13-6.77t-5.38-2.07q-2.24 0-4.11 1-1.88 1.01-3 2.97t-1.12 4.93v15.12zM32.01 501.7l-7-27.44h7.33l4.37 19.71 5.15-19.71h7.84l5.1 19.71 4.42-19.71h7.34l-7 27.44h-8.62l-5.16-20.66-5.2 20.66zm50.29.56q-4.09 0-7.34-1.79t-5.15-4.96-1.91-7.31v-.56q0-4.08 1.91-7.22 1.9-3.14 5.15-4.93t7.34-1.79q4.03 0 7.28 1.79t5.12 4.93 1.88 7.22v.56q0 4.15-1.88 7.31-1.88 3.17-5.12 4.96t-7.28 1.79m0-6.5q3.02 0 4.92-2.12 1.91-2.13 1.91-5.44v-.56q0-3.24-1.91-5.34-1.9-2.1-4.92-2.1-3.08 0-5.02 2.1t-1.93 5.34v.56q0 3.31 1.93 5.44 1.94 2.12 5.02 2.12m18.48 5.94v-27.44H108v3.81q1.01-2.3 2.94-3.17 1.93-.86 4.34-.86h2.13v7.33h-2.8q-3.08 0-4.73 1.35-1.66 1.34-1.66 3.86v15.12zm30.35.56q-3.7 0-6.64-1.74-2.94-1.73-4.65-4.9-1.7-3.16-1.7-7.36v-.56q0-4.14 1.73-7.31 1.74-3.16 4.68-4.93t6.63-1.76q2.3 0 4.26.78 1.96.79 3.47 2.24v-15.9h7.45v40.88h-6.66v-3.19q-3.36 3.75-8.57 3.75m1.23-6.5q2.97 0 5.01-2.04 2.05-2.04 2.05-5.74 0-3.64-2.05-5.71t-5.01-2.07q-2.8 0-4.79 1.98-1.99 1.99-1.99 5.52v.56q0 3.53 1.99 5.52t4.79 1.98m28.39 6.39q-3.41 0-6.16-.95-2.74-.96-4.59-2.36l3.14-4.98q1.73 1.12 3.66 1.85t3.95.73q1.74 0 2.8-.7 1.07-.7 1.07-1.82t-.98-1.71-2.5-.98l-3.24-.84q-1.74-.45-3.25-1.32t-2.49-2.43-.98-4.15q0-3.86 2.94-6.33 2.94-2.46 7.98-2.46 2.74 0 5.23.73t4.4 1.96l-3.19 4.98q-3.2-2.01-6.56-2.01-1.73 0-2.71.67t-.98 1.79.98 1.71 2.55 1.01l3.33.89q1.76.48 3.33 1.37t2.58 2.5q1 1.59 1 4.17 0 2.52-1.45 4.51-1.46 1.98-4.01 3.08-2.54 1.09-5.85 1.09m30.86-.45-7-27.44h7.33l4.37 19.71 5.15-19.71h7.84l5.1 19.71 4.42-19.71h7.34l-7 27.44h-8.62l-5.16-20.66-5.2 20.66zm49.89.56q-4.2 0-7.33-1.76-3.14-1.77-4.9-4.93-1.77-3.17-1.77-7.42v-.56q0-3.87 1.66-7.03 1.65-3.16 4.62-5.01 2.96-1.85 7-1.85 4.2 0 7.16 2.04 2.97 2.05 4.34 5.77 1.38 3.73.76 8.77h-18.09q.28 2.52 2.05 4.11t4.84 1.6q2.07 0 3.39-.62 1.31-.61 2.43-1.73l4.26 4.36q-1.68 2.13-4.37 3.2-2.69 1.06-6.05 1.06m-.72-22.74q-2.52 0-3.92 1.6t-1.85 4.17h10.92q-.11-2.8-1.54-4.28t-3.61-1.49m24.75 22.74q-4.59 0-7.37-2.27-2.77-2.27-2.77-5.91 0-3.69 2.97-6.04t8.23-2.36q3.42 0 5.77 1.07v-2.24q0-2.41-1.4-3.39t-3.53-.98q-2.01 0-4.2.76-2.18.75-3.75 2.15l-3.3-4.93q1.84-2.01 5.01-3.22 3.16-1.2 6.75-1.2 5.15 0 8.45 2.66 3.31 2.66 3.31 7.7v13.27q0 2.19.16 4.37h-6.6v-2.86q-2.19 3.42-7.73 3.42m2.07-5.38q2.18 0 3.5-.86 1.32-.87 1.32-2.27t-1.32-2.24-3.5-.84q-2.13 0-3.44.84-1.32.84-1.32 2.24 0 1.34 1.32 2.24 1.31.89 3.44.89m17.7 4.82v-27.44h7.22v3.81q1.01-2.3 2.94-3.17 1.93-.86 4.34-.86h2.13v7.33h-2.8q-3.08 0-4.73 1.35-1.66 1.34-1.66 3.86v15.12z"/><path fill="#30ba78" d="M24.86 556.97v-1.94h16.2v1.94zm22.83 4.05v-12.6h4.61q1.89 0 2.98.87 1.08.88 1.08 2.35 0 .9-.44 1.72t-1.37 1.18q1.11.31 1.7 1.13.58.83.58 1.86 0 1.58-1.12 2.54-1.13.95-3.16.95zm4.34-10.78h-2.18v3.45h2.27q.95 0 1.48-.47.53-.48.53-1.29 0-.77-.56-1.23t-1.54-.46m.37 5.2h-2.55v3.76h2.34q1.13 0 1.74-.51t.62-1.36q0-.79-.56-1.34t-1.59-.55m10.39 5.76q-1.31 0-2.31-.57t-1.56-1.58-.56-2.37v-.18q0-1.24.52-2.25.51-1.01 1.45-1.59.95-.59 2.21-.59 1.31 0 2.25.64t1.37 1.81.23 2.76h-5.98q.11.91.75 1.52.64.6 1.74.6.65 0 1.11-.18t.85-.54l1.17 1.22q-.52.65-1.36.98t-1.88.32m-.23-7.45q-.92 0-1.44.57-.53.56-.67 1.48h3.96q-.04-.97-.55-1.51t-1.3-.54m8.49 7.45q-1.49 0-2.37-.73t-.89-1.88q0-1.17.97-1.93.96-.77 2.56-.77 1.21 0 2 .43v-.84q0-.87-.49-1.23-.48-.36-1.24-.36-.66 0-1.37.25-.72.26-1.22.72l-.94-1.4q.58-.65 1.58-1.02t2.08-.37q1.62 0 2.64.84 1.01.84 1.01 2.46v2.82l.01 1.43q.01.7.05 1.4h-1.84l-.02-.9q-.74 1.08-2.52 1.08m.58-1.53q.77 0 1.24-.32.47-.33.47-.85 0-.5-.47-.83t-1.26-.32q-.77 0-1.25.32-.48.33-.48.83 0 .52.48.85t1.27.32m9.48 1.35q-.63 0-1.25-.22-.62-.21-1.03-.78t-.42-1.57v-4.43h-1.49v-1.77h1.49v-2.14h2.07v2.14h2.04v1.77h-2.04v4.59q0 .27.19.46t.46.19h1.39v1.76zm3.42 0v-8.77h2v1.28q.33-.75.96-1.05t1.4-.3h.72v2.05h-.88q-1.03 0-1.58.47t-.55 1.37v4.95zm7.53 0v-7h-1.59v-1.77h3.68v8.77zm-.09-10.51v-2.4h2.3v2.4zm8.76 10.69q-1.31 0-2.35-.57-1.03-.56-1.62-1.57t-.6-2.32v-.2q0-1.33.61-2.34.6-1.01 1.63-1.57 1.04-.56 2.33-.56.98 0 1.82.39t1.37 1.07l-1.26 1.28q-.36-.41-.86-.62-.49-.21-1.05-.21-1.08 0-1.79.69t-.71 1.87v.2q0 1.17.73 1.86t1.79.69q.54 0 1.03-.19.5-.19.91-.6l1.25 1.24q-.53.69-1.39 1.07t-1.84.39m8.64 0q-1.31 0-2.31-.57t-1.56-1.58q-.55-1.02-.55-2.37v-.18q0-1.24.51-2.25t1.46-1.59 2.2-.59q1.32 0 2.25.64.94.64 1.37 1.81t.23 2.76H107q.11.91.74 1.52.64.6 1.74.6.65 0 1.12-.18t.84-.54l1.17 1.22q-.52.65-1.35.98t-1.89.32m-.23-7.45q-.92 0-1.44.57t-.67 1.48h3.96q-.03-.97-.54-1.51-.52-.54-1.31-.54m12.51 7.27-3.55-12.6h2.25l2.45 9.32 2.85-9.32h2.44l2.81 9.32 2.47-9.32h2.23l-3.55 12.6h-2.26l-2.94-9.88-2.91 9.88zm17.39.18q-1.5 0-2.38-.73t-.88-1.88q0-1.17.96-1.93.97-.77 2.57-.77 1.2 0 2 .43v-.84q0-.87-.49-1.23t-1.24-.36q-.67 0-1.38.25-.71.26-1.21.72l-.94-1.4q.58-.65 1.57-1.02t2.08-.37q1.62 0 2.64.84t1.02 2.46v2.82l.01 1.43.04 1.4h-1.83l-.02-.9q-.74 1.08-2.52 1.08m.57-1.53q.78 0 1.25-.32.46-.33.46-.85 0-.5-.46-.83t-1.26-.32q-.78 0-1.26.32-.47.33-.47.83 0 .52.47.85.48.32 1.27.32m6.25 1.35v-8.77h2v1.28q.32-.75.95-1.05t1.41-.3h.72v2.05h-.89q-1.02 0-1.57.47t-.55 1.37v4.95zm10.03.18q-1.19 0-2.13-.56t-1.47-1.56-.54-2.36v-.18q0-1.32.54-2.32.55-1.01 1.49-1.58t2.12-.57q.81 0 1.49.31t1.18.85v-5.35h2.07v13.14h-1.87v-1.19q-.53.65-1.26 1.01-.74.36-1.62.36m.32-1.82q1.06 0 1.77-.74.71-.73.71-1.99 0-1.28-.71-2.01t-1.77-.73q-.99 0-1.69.7t-.7 1.93v.18q0 1.22.7 1.94t1.69.72m10.91 1.82q-1.32 0-2.32-.57t-1.55-1.58-.56-2.37v-.18q0-1.24.51-2.25.52-1.01 1.46-1.59.95-.59 2.21-.59 1.31 0 2.25.64t1.36 1.81q.44 1.17.24 2.76h-5.98q.11.91.75 1.52.64.6 1.74.6.64 0 1.11-.18t.85-.54l1.17 1.22q-.52.65-1.36.98t-1.88.32m-.24-7.45q-.91 0-1.44.57t-.66 1.48h3.96q-.04-.97-.55-1.51t-1.31-.54"/><path fill="#30ba78" fill-opacity=".18" d="M0 719h1080v1H0z"/><path fill="#fff" d="M27.16 845.5v-29.2H48.6v29.2zm18.8-2.92v-23.84H29.6zm-20.1 49.92v-3.33l7.68-7.71q1.24-1.25 1.79-2.34.54-1.08.54-2.2 0-1.28-.81-2.1t-2.23-.82q-1.34 0-2.43.72t-2.08 2.13l-2.88-2.81q1.31-1.99 3.22-3.12 1.9-1.14 4.33-1.14 2.18 0 3.87.85 1.7.85 2.66 2.35t.96 3.49q0 1.82-.91 3.68-.91 1.85-2.9 3.87l-4.45 4.45h9.19v4.03zm17.76-4.83v-3.68l6.59-13.89h4.45l-6.31 13.63h5.19v-5.5h4.28v5.5h3.01v3.94h-3.01v4.83h-4.28v-4.83zm24.25-7.11q-1.63 0-2.89-.68t-1.99-1.91q-.72-1.21-.72-2.81 0-1.57.72-2.79.72-1.21 1.99-1.9 1.26-.69 2.89-.69 1.67 0 2.93.69t1.98 1.9q.72 1.22.72 2.79 0 1.6-.72 2.81-.72 1.22-1.98 1.91t-2.93.68m0-2.59q1.25 0 2.03-.78.79-.79.79-2.03 0-1.22-.79-2-.78-.79-2.03-.79-1.21 0-2 .79-.78.78-.78 2 0 1.24.78 2.03.79.78 2 .78m18.98 14.98q-2.43 0-4.53-.83-2.1-.84-3.7-2.37t-2.49-3.63-.9-4.63v-.38q0-2.53.9-4.63.89-2.09 2.49-3.63 1.6-1.53 3.7-2.37 2.1-.83 4.53-.83 2.27 0 4.17.72 1.91.72 3.41 2.1l-2.91 3.39q-1.92-1.79-4.67-1.79-2.02 0-3.6.89-1.59.9-2.48 2.48-.9 1.59-.9 3.67v.38q0 2.08.9 3.67.89 1.58 2.48 2.48t3.6.89q2.85 0 4.8-1.95l2.91 3.39q-1.54 1.44-3.49 2.21t-4.22.77"/><path fill="#fff" fill-opacity=".45" d="M25.04 922.5v-8.4h1.37l2.43 5.03 2.41-5.03h1.37v8.4h-1v-7.08l-2.39 5.08h-.8l-2.38-5.08v7.08zm11.16.12q-.98 0-1.57-.48t-.6-1.25q0-.5.3-.9.3-.39.82-.63.53-.23 1.17-.23.95 0 1.52.39v-.72q0-.7-.37-1.01t-.99-.31q-.47 0-.95.18-.49.17-.84.53l-.45-.68q.38-.45 1-.67.63-.23 1.29-.23 1.02 0 1.64.54.63.54.63 1.61v1.84q0 .96.03 1.9h-.86l-.01-.58q-.54.7-1.76.7m.26-.73q.66 0 1.02-.28.37-.27.37-.72t-.37-.71-1.04-.27q-.66 0-1.04.27t-.38.71q0 .43.39.72t1.05.28m4.45.61v-4.93h-1.13v-.84h2.09v5.77zm-.06-7.04v-1.4h1.08v1.4zm2.83 7.04v-5.77h.94v.92q.34-.6.89-.82t1.01-.22q.98 0 1.58.63t.61 1.86v3.4h-.97v-3.25q0-.93-.42-1.34-.41-.41-1.05-.41-.66 0-1.14.45t-.48 1.31v3.24zm8.29 0q-.71 0-1.13-.4-.43-.4-.43-1.08v-6.45h-1.05v-.83h2.02v7.3q0 .27.18.45t.46.18h.55v.83zm.78 2.4v-.83h1.15q.26 0 .41-.17t.24-.42l.42-.92-2.37-5.83h1.06l1.83 4.64 1.74-4.64h1.07l-2.76 6.79q-.14.34-.33.65-.2.31-.52.52t-.83.21zm13.12-2.26q-.9 0-1.68-.3-.77-.31-1.36-.87t-.92-1.35-.33-1.72v-.2q0-.94.33-1.72t.92-1.35q.59-.56 1.36-.87t1.68-.3q.78 0 1.44.23.67.23 1.19.67l-.65.76q-.82-.67-1.98-.67-.93 0-1.66.42-.73.41-1.15 1.14-.42.72-.42 1.69v.2q0 .97.42 1.69.42.73 1.15 1.14.73.42 1.66.42 1.19 0 2.01-.71l.65.78q-.53.44-1.21.68t-1.45.24m5.52-.14q-.71 0-1.14-.4t-.42-1.08v-6.45h-1.06v-.83h2.03v7.3q0 .27.18.45t.46.18h.55v.83zm4.08.12q-.85 0-1.51-.38-.65-.38-1.02-1.05-.36-.67-.36-1.55v-.12q0-.84.33-1.49.34-.65.95-1.04.61-.38 1.42-.38.82 0 1.41.41t.87 1.14.16 1.75h-4.17q.03.5.28.92.25.41.67.66.43.24 1 .24.46 0 .81-.11t.62-.34l.55.6q-.33.36-.85.55-.53.19-1.16.19m-.19-5.17q-.72 0-1.17.45-.45.46-.55 1.22h3.24q-.01-.8-.43-1.23-.42-.44-1.09-.44m5.55 5.17q-.98 0-1.58-.48-.59-.48-.59-1.25 0-.5.3-.9.3-.39.82-.63t1.17-.23q.95 0 1.51.39v-.72q0-.7-.36-1.01-.37-.31-.99-.31-.47 0-.96.18-.48.17-.83.53l-.46-.68q.39-.45 1.01-.67.63-.23 1.29-.23 1.02 0 1.64.54t.62 1.61v1.84q0 .96.04 1.9h-.86l-.02-.58q-.54.7-1.75.7m.25-.73q.66 0 1.03-.28.37-.27.37-.72t-.37-.71-1.04-.27q-.66 0-1.04.27-.39.27-.39.71t.39.72 1.05.28m4.08.61v-5.77h.94v.92q.22-.55.64-.75t.96-.2h.49v.96h-.57q-.7 0-1.09.35t-.39 1.07v3.42zm-58.47 20-2.47-8.4h1.04l1.96 6.9 2.14-6.9h1.13l2.15 6.91 1.96-6.91h1.03l-2.46 8.4h-1.06l-2.18-7.12-2.19 7.12zm10.4 0v-4.93h-1.13v-.84h2.09v5.77zm-.06-7.04v-1.4h1.08v1.4zm2.83 7.04v-5.77h.94v.92q.35-.6.89-.82.55-.22 1.02-.22.97 0 1.58.63.6.63.6 1.86v3.4h-.97v-3.25q0-.93-.41-1.34-.42-.41-1.05-.41-.66 0-1.14.45t-.48 1.31v3.24zm9.08.12q-.8 0-1.41-.37t-.96-1.05-.35-1.56v-.1q0-.87.36-1.53.35-.66.96-1.03.62-.37 1.4-.37.64 0 1.15.28t.85.77v-3.92h.97v8.76h-.87v-1.04q-.35.55-.89.85-.54.31-1.21.31m.13-.86q.56 0 .99-.27.44-.26.69-.74t.25-1.13-.25-1.13-.69-.75-.99-.27q-.81 0-1.34.57t-.53 1.5v.1q0 .64.24 1.12.25.48.67.74t.96.26m7.59.74v-.94h2.21v-5.92q0-.27-.16-.44t-.43-.16h-1.59v-.94h1.85q.58 0 .96.38.37.38.37.95v6.13h2.18v.94zm9.47.12q-.91 0-1.57-.29t-1.14-.74l.59-.69q.37.36.89.61.51.25 1.24.25.89 0 1.43-.44.54-.43.54-1.12 0-.66-.52-1.07t-1.41-.41h-1.2v-.89h1.13q.84 0 1.31-.44.48-.43.48-1.07 0-.67-.48-1.06t-1.28-.39q-.67 0-1.15.23t-.78.55l-.57-.71q.4-.4 1.05-.68t1.48-.28q.8 0 1.42.27t.96.77.34 1.18q0 .65-.33 1.18-.33.54-.95.82.75.28 1.13.82t.37 1.22q0 .71-.39 1.25-.38.53-1.05.83t-1.54.3m7.72-.12v-8.4h1.02v4.68l3.8-4.68h1.2L77 937.65l3.11 4.85h-1.23l-2.56-4.01-1.45 1.79v2.22zm7.17 0v-5.77h.93v.91q.33-.59.84-.81t.99-.22q.63 0 1.1.27.48.28.72.86.25-.44.59-.68t.71-.35q.36-.1.69-.1.93 0 1.52.6.59.61.59 1.86v3.43h-.95v-3.31q0-.89-.38-1.29-.39-.4-1.01-.4-.65 0-1.08.43-.43.44-.43 1.26v3.31h-.96v-3.31q0-.89-.38-1.29t-1-.4q-.65 0-1.09.43-.44.44-.44 1.26v3.31zm9.33 1.73 4.45-10.84h1l-4.47 10.84zm6.5-1.73v-8.76h.94v3.91q.35-.6.89-.82.55-.22 1.02-.22.97 0 1.57.63t.61 1.86v3.4h-.97v-3.25q0-.93-.42-1.34-.41-.41-1.05-.41-.66 0-1.14.45t-.48 1.31v3.24z"/><path fill="#fff" d="M26.12 967.5q-.56 0-.92-.36-.36-.37-.36-.93v-6.41h1.35v6.03q0 .17.11.29t.29.12h3.1v1.26zm8.23.15q-1.09 0-1.95-.5t-1.35-1.39-.49-2.08v-.08q0-1.18.49-2.07.5-.88 1.35-1.38t1.95-.5 1.95.5 1.35 1.38.49 2.07v.08q0 1.18-.49 2.08-.49.89-1.35 1.39t-1.95.5m0-1.32q.71 0 1.24-.32.54-.32.85-.92.31-.59.31-1.41v-.08q0-.81-.31-1.4-.31-.6-.85-.91-.53-.32-1.24-.32-.7 0-1.25.32-.54.31-.85.91-.31.59-.31 1.4v.08q0 .82.31 1.41.31.6.85.92.55.32 1.25.32m5.78 1.17v-7.7h1.22l3.55 5.31v-5.31h1.35v7.7h-1.2l-3.58-5.33v5.33zm8.52 0v-7.7h2.77q1.09 0 1.96.48t1.35 1.32q.5.85.5 1.96v.12q0 .84-.29 1.54t-.81 1.21-1.21.79-1.5.28zm2.66-6.43h-1.32v5.17h1.32q.74 0 1.31-.32t.9-.9.33-1.34v-.12q0-.75-.32-1.31t-.9-.87-1.32-.31m9.31 6.58q-1.09 0-1.95-.5t-1.35-1.39-.5-2.08v-.08q0-1.18.5-2.07.49-.88 1.35-1.38t1.95-.5 1.95.5 1.34 1.38.49 2.07v.08q0 1.18-.49 2.08-.49.89-1.34 1.39t-1.95.5m0-1.32q.7 0 1.24-.32t.85-.92.31-1.41v-.08q0-.81-.31-1.4-.31-.6-.85-.91t-1.24-.32-1.25.32q-.54.31-.85.91-.31.59-.31 1.4v.08q0 .82.31 1.41.31.6.85.92.55.32 1.25.32m5.77 1.17v-7.7h1.22l3.56 5.31v-5.31h1.35v7.7h-1.2l-3.58-5.33v5.33zm-38.61 16.65q-1.36 0-2.17-.7t-.81-2.11v-5.04h1.36v4.93q0 .85.44 1.26.45.41 1.18.41.75 0 1.2-.41t.44-1.26v-4.93h1.36v5.04q0 1.41-.82 2.11t-2.18.7m5.32-.15v-7.7h1.22l3.55 5.31v-5.31h1.35v7.7h-1.2l-3.58-5.33V984zm8.12 0v-1.23h1.28v-5.24h-1.28v-1.23h3.93v1.23h-1.29v5.24h1.29V984zm7.4 0v-6.47h-2.19v-1.23h5.76v1.23h-2.21V984zm6.4 0q-.56 0-.92-.36-.36-.37-.36-.93v-5.12q0-.56.36-.93.36-.36.92-.36h3.75v1.23h-3.3q-.16 0-.28.12-.11.11-.11.28v1.62h3.46v1.17h-3.46v1.65q0 .17.11.28t.28.12h3.3V984zm5.84 0v-7.7h2.77q1.09 0 1.96.48t1.35 1.32q.5.85.5 1.96v.12q0 .84-.29 1.54t-.81 1.21-1.21.79-1.5.28zm2.66-6.43H62.2v5.17h1.32q.74 0 1.31-.32t.9-.9.33-1.34v-.12q0-.75-.32-1.31t-.9-.87q-.57-.31-1.32-.31m9.01 6.43v-7.7h1.34v3.76l3.01-3.76h1.56l-2.51 3.17L78.6 984h-1.61l-1.95-3.41-1.17 1.46V984zm7.21 0v-1.23h1.28v-5.24h-1.28v-1.23h3.94v1.23h-1.3v5.24h1.3V984zm5.93 0v-7.7h1.22l3.55 5.31v-5.31h1.35v7.7h-1.2l-3.58-5.33V984zm12.01.16q-1.15 0-2.03-.5-.88-.51-1.37-1.4t-.5-2.04v-.12q0-1.17.51-2.06t1.4-1.4 2.05-.5q.83 0 1.5.28t1.2.78l-.94.95q-.36-.39-.8-.56t-.93-.17q-.77 0-1.36.34-.58.34-.92.95-.33.6-.33 1.39v.12q0 .79.33 1.39t.91.94q.57.35 1.31.35.63 0 1.1-.26.47-.27.74-.72t.27-1.02h-1.83v-1.1h3.15q.16 1.29-.23 2.27-.38.98-1.21 1.54-.83.55-2.02.55m5.34-.16v-7.7h2.78q1.09 0 1.95.48t1.36 1.32q.49.85.49 1.96v.12q0 .84-.28 1.54t-.81 1.21-1.22.79-1.49.28zm2.67-6.43h-1.32v5.17h1.32q.73 0 1.3-.32t.91-.9q.33-.58.33-1.34v-.12q0-.75-.33-1.31-.32-.56-.89-.87t-1.32-.31m9.3 6.58q-1.09 0-1.94-.5-.86-.5-1.36-1.39-.49-.9-.49-2.08v-.08q0-1.18.49-2.07.5-.88 1.36-1.38.85-.5 1.94-.5t1.95.5 1.35 1.38.49 2.07v.08q0 1.18-.49 2.08-.49.89-1.35 1.39t-1.95.5m0-1.32q.71 0 1.25-.32.53-.32.84-.92.31-.59.31-1.41v-.08q0-.81-.31-1.4-.31-.6-.84-.91-.54-.32-1.25-.32-.7 0-1.25.32-.54.31-.85.91-.31.59-.31 1.4v.08q0 .82.31 1.41.31.6.85.92.55.32 1.25.32m5.78 1.17v-7.7h1.8l1.89 4.2 1.88-4.2h1.82v7.7h-1.32v-5.93l-1.87 4.29h-1.01l-1.88-4.29V984z"/><svg xmlns="http://www.w3.org/2000/svg" id="dc-map" width="720" height="360" x="180" y="720" aria-hidden="true" class="dc-map-canvas" preserveAspectRatio="xMidYMid meet" viewBox="-185 -90 380 150"><path fill="#1a4a3a" fill-rule="evenodd" stroke="#30ba78" stroke-linecap="round" stroke-linejoin="round" stroke-width="0" d="m-59.5 80-7 .5 6-1zm-99.5-.5-4.5-1 4 .5zM-45 78l1.5 2-10.5.5 7.5-2.5zm-76-4.5h2.5-4zm-4.5 0 1.5.5-2.5-1zM-99 72l3 .5-6.5-.5h2zm30.5-1-.5 1h-6l3-1 1-2 2.5 1.5zM-180 84.5l37 .5-10.5-1.5.5-1.5-4-1 10.5-.5-9-1.5-3-2 7 .5 6.5-2.5 31-1.5 14 1.5-3.5-2.5L-76 74l7-1 2-1-1.5-2.5 1-2.5 9.5-3.5-7.5 4.5 3.5 2.5 1 3-9.5 3H-77l3.5 1.5-4.5 1 20 4 29.5-2.5-7-1-.5-1 18.5-3.5 2-2 8.5-2 34-.5 7-2 4.5 1.5 16-4 7 2H69l.5 1-1.5 3 2 .5 4-2.5 14-4 8 1.5 7-2 3 1.5 7.5-1 6.5 1.5 15-2 2.5 1.5h8l25.5 4.5-7.5 4.5 3.5 3h-5l-2 2 9.5 3 9 .5zM-68 54l3 .5-4 1-5.5-2.5 3.5 1 2.5-1zm9.5-3-2.5 1 2-.5zm129-1.5-2 .5.5-1.5zm75-8.5h3l-.5 2-2 .5-1.5-3zm27.5 0 1 .5-1 2.5-3.5 2.5-3-.5 6.5-5.5zm1.5-5 4 1.5-3.5 4-2.5-7 2 1zM167 22l-3-2 2.5 1.5zm11.37-4.66.35.29-.17.52-.62.14-.55-.13-.1-.44.4-.34.44.13zm-10.52-.87-.33.13-.34-.44.04-.27zm-.74-1.54.16.81-.27-.13-.2.06-.15-.28-.02-.76zM50 13.5 47 25h-3l.5-9 4.5-4 1 1zm93.5.5 9.5 12v5l-3 6.5-3.5 1.5-6-1-2.5-3.5-1 1 1-2.5-2 2-4.5-3.5L118 35l-3-1 .5-2.5-2-5.5.5-4 7-2.5 4.5-5.5 4 1 1-2.5 2-.5-.5-.5 4.5.5-1 3 4.5 2.5 2.5-7 1 3zm18.62-3.52.28.35-.7-.01-.38-.61.6.24zM120.5 10l-1.5-.5 2 .5Zm40.5 0-1.5-1 1 .5zm.5-.5-1-1 1 .5zm-37 .5 3-1.5-2.5 1zM118 8l1 .5-2.5.5 1-.5zm5 0-3 1 2-.5zm37 .5-2-1 1.5.5zm-2.46-1.15-.2.05-.44-.22-.4-.41.04-.17.6.42zM108.5 7l7 1.5-10-1.5 3-.5zm26.23-.79-.52.68-.1-.75.18-.36.2-.34.24.3zM156 7l-1.5-2 1.5 1.5Zm-4-1.5h-3.5l4-.5zm-25-2-1-.5h1zm3.5-.5-2.5.5 1.5-.5ZM153 4.5l-2.5-2L153 4ZM134 1l1.5 2.5 3-2 6 2.5 6 6.5-6-3-2 2-5-1 .5-3-5-1.5-1-1 1.5-1-3-1zm-9-2.5L120 0l1 1.5 2.5-1-2 1.5 1.5 3.5-2-3-1.5 3 .5-6zm3.5.5-.5 2-.5-2 1-.5zM106 6l-3.5-2-7-9.5 7 4 3.5 6zm12-8 1 1-3 5-6-1-1-2.5.5-2.5 3.5-1 3.5-4 2.5 1.5-1.5 2.5.5.5zm8.5-6.5-1 3-2-2.5-1.5 1 3.5-3 1 1zM81-6l-1-1v-3l1.5 3.5zm-142-4h-1l1-1zm185-.5-1.5 1L124-11zm-5.5 1-1.5 1 2.5-3-.5 1.5zM122-12l1 .5h-1zm3.5 0-.5 2v-2.5zm-3.97-1.07-.27.86-.43-.5-.5-.76.85.04zm-.03-5.43 1 1.5-1 2.5 2.5 2-3.5-1.5v-4.5zm-187 .5H-67l1-.5zM-77-18h-1.5 2.5zm4.5-2 4 1.5-5.5.5 1.5-.5-.5-1.5zm183 1.5-2-1h2zm-266-.5-.5-1.5 1 1.5zm-.58-1.64-.34.07-.17-.21-.11-.08-.01-.07.1-.08.35.1.27.15zm-.68-.54-.03.11-.54-.03.08-.12zm-.9-.14-.05.06-.07-.02-.35-.03-.12-.23-.04-.04.26-.14.09.07zm-1.69-.66-.12.1-.33-.18.05-.08.15-.1.24.02zM-79.5-23l5.5 2.5-4 .5-4-2.5-3 .5 4.5-1zm2-1-.5-1 .5.5zM121-23l-1-.5 2-1zm-199-3.5-1-.5h1zm1-.1-.17.72-.19-.13.02-.52-.45-.4v-.1zM134.5-34l-2 1 1.5-1.5zm-100-1.5-2 .5 1-.5zm-11 0h3zm-8-2.5-.5 1.5-2.5-1L15-38ZM9-41v2l-.5-2zm132 4-.5 2-4.5 1.5-1-1-4 .5 1 1-2 1.5-.5-2 6-2 6-6-.5 3.5zM9.56-42.15l-.33.77-.45-.2-.24-.68.2-.37.65-.38zM144-44l1.5.5-5.5 2 2-4 1 1zm-207.5-2.5h1.5l-2-.5zM-62-49l-2.5-1 2.5.5zm-61.5.5-5-2 4.5 1.5zm67.5-2-1 .5 3.5 1 .5 2.5-6.5-1 4-4zm-76.5-3.5 1.5 2-2-2zm276 3.5 1 1.5-1.5-.5.5 3.5H142l.5-8.5.5 2.5zM-7-52.5l-3 .5.5-2 3-1 .5 2zm19.5-3H11l1.5-.5ZM-153-57l-1.5-.5h2.5zm150-1.5-1 1h2L-3-56l4.5 3.5v1L-5-50l1.5-1.5-2-.5 1-1.5L-3-54l-3-3 2-1.5zM-165.5-60h-2l2-.5zm86.23-2.16-.39.53-.44-.09-.26-.3.04-.07.39-.3.41.03zM-82-62.5h-2l2-.5zm-89.5-1.5 3 .5h-3.5zm86.5-1.5 5 2h-7l1-2zm70.5-1 1 1.5-5 1.5-6-2 8.5-1zM-76-67l-1-.5h2zm-104-2 10 3-3 1.5-7-1.5m360 1-2.5.5 1.5 2-8.5 2.5h-7l-1.5 2 1 .5-1 2.5-5 4-1-6 8.5-5.5-4.5 2-3.5-1L154-60l1 1h-13l-7 4.5 5 .5 1.5 2-3.5 5.5-10.5 6.5 1.5 5-2.5.5-1-5-4.5.5.5-2-3.5 2 1 1.5h3.5L119-35l3 3.5-.5 3.5-5.5 5-5.5 2.5-2-1L106-20l3.5 6.5-.5 2-4 3-5-5L99-9l4 3.5 1 4-2.5-1.5-3-5-1.5-9-3 1-2.5-7-4.5 1.5-6.5 5.5-.5 5.5L77.5-8l-5-13.5-2 .5-4-4.5h-9l-1-1.5-5-1-1.5-2h-2l4 6 4.5-2.5.5 2.5 3 1.5-4.5 5.5-12 4.5-1-4.5L35-29.5l-1 2-1.5-2.5 5 11.5 5 7 2 1L51-12v1.5L47.5-4 39 4.5l2 10-6 5.5.5 4-3 1.5L32 29l-4 4-8.5 2L12 18l1.5-7.5L12 5 9 1l.5-4.5-3.5-1-1.5-2L-9-5l-7.5-7-.5-10 11-14 15.5-1.5 1.5.5-.5 3 8.5 3.5 2.5-2.5L34-31l2-5.5h-8.5l-1.5-3 7.5-2.5 5 1 3-1-5-3 2.5-2.5-4 1 1.5 1.5-2.5.5-1.5-1 1-.5-3-.5-3 4L29-41l-6.5.5 1.5 3-1.5 1-3-5-6.5-4-.5 1.5 6 4-1.5-.5-1 2.5-.5-2L9-44.5 3-43l-5 6.5-7-.5-.5-6 8-1 .5-2-3.5-2.5h3L-2-50l10-3.5.5-3.5 2-.5-1 2L11-54l8.5-.5 2-3 2.5.5-.5-2 5.5-1-7.5-.5V-63l4-2-3.5-.5-4 3-1 1 2 1.5-3 4-3 .5-2.5-4-5 1 .5-4L19-70l5.5-1L41-67.5 38.5-66l-5.5-.5 4 2.5v-1l7-1-.5-2.5 3 .5v1.5l7-2.5 6.5.5.5-1.5 8 2-2-3 2.5-2h3.5l-.5 1.5 1.5 3-2 2 1 .5 2.5-2-2-3.5 1.5-1.5 2 2 5-.5-1-2 24-4L114-76l-4.5 2 17.5.5 4.5 2.5 8.5-.5-1-1 1.5-.5 18.5 2 2 1.5h17.5zM49-41.5l1.5 1-1.5 3 5 .5-1.5-3 2-1-1-1-.5 1-2.5-3.5 2.5-1V-47l-6.5 2.5 2 2.5zM-95.5-69l-4.5-.5h3.5zM180-71h-1.5zm-270.5 1.5 3 2.5 2-3 3 .5 1 2L-93-62l-1.5 3 2 2 10 2 2.5 4 1.5-1.5-1.5-2 3.5-2-2-2.5 1-1-.5-2.5h4l4.5 1.5 2 3 3-2.5 2.5 4 4.5 2 2 2.5-4.5 2h-6.5l-4.5 3 6-2 .5 3 4-1 .5 1-5.5 2.5-.5-1 1.5-1-2.5.5-3.5 2 .5 1.5-5.5 2-.5 2.5-.5-2 1 3.5-6 4 1 6.5-3.5-5-10 .5-2.5 1-1.5 6 1.5 3 4.5 1 1.5-2.5 3.5-.5-2 5.5 5.5.5-.5 4.5 2.5 2 4.5.5 5-4 .5 3.5 1.5-3 2 1.5h6l5 4.5 5.5 2 1 4 6 2.5 4.5.5 4.5 2 1 2.5-4 5.5-2.5 9-6.5 3-1.5 3.5-5 6-4.5-.5 1.5 3-5.5 2v2H-65l1.5 1.5-4 3L-66 48l-3 2.5 1 2-3 1.5-4-1.5-.5-4L-74 47l-1.5-.5 3-4-2 .5 4.5-23-6-5.5-5.5-8.5 1.5-3.5-1-1.5 4-5-1-4.5-1.5-.5-1.5 2-4.5-3-2-3.5-16-5L-115-32l5.5 9-2.5-1.5-5.5-8.5-3-1.5-4-6V-48l2 1-.5-2-4.5-2-6.5-7-13-3-4.5 2 1-2.5-8 5.5-6.5 1.5 8-4.5-5 .5-4-3 5-3.5-7-.5 6.5-.5-5.5-2.5 10.5-3 20 2.5 8.5-1.5 19 3 3-1.5 4.5 1.5 4-1 1.5 1 2-1.5-2.5-1 1.5-2 3.5 2-1 .5zM-114-73l6 1.5-.5-1.5h2l5.5 3-1.5 1-11 .5-4-1.5 5-.5-7-1 4.5-2zm9.5-.5h-2.5 1.5zm28 .5-4.5-.5h3zm-10 0 4-1 1.5 2 9 .5 5 2.5-2 .5 7 1.5-2 2-4-1.5 3.5 3H-69l3 1.5-9-2.5-2.5.5-.5-1.5h4l1-2-6-2.5-11-1 .5-2 3.5-1zm-14-1h3l1 2.5-6-1h2l-1-1zm244 1-3.5-.5h3.5zM-93-73l-2.5 1-.5-1.5 5.5-.5-1.5 1zm-27.5 1.5-5.5-.5 2-1.5-1-1 9.5 1-5 1.5zm271-3.5H146l2-.5zm-244 0H-97l3-.5zm238.5-.5h-8l4.5-.5zm-243.5-1 .5 1.5-4.5-.5zm-9.5.5 2.5.5-12 .5 2-1.5 6.5 1-1.5-1h2zm165.5 5.5-6-1.5 4-3L69-76.5l-10.5 2-3 3zm-152-6.5 14.5 2h-12.5l-4-2zm-21.5-.5-7 1.5 5.5-1.5zm22 0-2.5-.5 3 .5zm-16 0h-3.5l3.5-.5zM24.5-78l-4 .5 3-.5zm-134-.5h-3l1.5-.5zm13.5.5-2.5-1 3 .5zm-4-.5-5.5-1 4.5.5zm205 0-5.5.5 2.5-1.5 3.5 1zm-86.5-1 3 .5-5.5 2-5.5-2.5L17-80zm7-1 2 .5-10-.5H23Zm25.5 0h-6 6.5zm49 1.5-9-1.5 5-1 4 1.5zm-187-.5h1l-5 1.5-5.5-2 4-1.5 4.5 1zm18.5-3.5 6.5.5-15 3 1.5 1-5 2.5-9-.5 1-1.5 3.5.5-3-1 3-1-2-1h5l-9.5-1.5 21-1zm41.5-.5 6 1-11 .5 20 .5-8 1.5h2.5l-2 1 1 2-3 .5 2 2-5.5 2 3 2-3.5-1-1 1.5h4L-40-65.5l-3.5 5.5-5-1-3-2.5L-54-67l3-3-3.5.5V-71l3 .5-4.5-1 1.5-1-4-3-10-.5-3-1 4.5-.5-6.5-.5 8-1.5-2.5-.5 5.5-2 18 .5-2.5-1 12-1z"/><g opacity=".95"><circle cx="-.13" cy="-51.51" r="6" fill="#fff" opacity=".18"/><circle cx="-.13" cy="-51.51" r="4" fill="none" stroke="#fff" stroke-width="1.2" opacity=".85"/><circle cx="-.13" cy="-51.51" r="2.2" fill="#fff"/></g></svg><path fill="#fff" d="M927.83 892.5v-1.98h8.8v-23.8q0-1.32-.84-2.18-.83-.86-2.15-.86h-5.5v-1.98h5.89q2.07 0 3.37 1.3t1.3 3.36v24.16h8.75v1.98zm34.85.44q-3.35 0-5.77-1.91-2.42-1.92-3.72-5.46-1.29-3.54-1.29-8.47 0-4.88 1.29-8.45 1.3-3.56 3.72-5.48 2.42-1.91 5.77-1.91 3.38 0 5.83 1.91 2.44 1.92 3.74 5.48 1.29 3.57 1.29 8.45 0 4.93-1.29 8.47-1.3 3.54-3.74 5.46-2.45 1.91-5.83 1.91m0-1.94q4.09 0 6.44-3.69 2.36-3.7 2.36-10.21t-2.36-10.21-6.44-3.69q-4.05 0-6.38 3.69-2.34 3.7-2.34 10.21t2.34 10.21 6.38 3.69m15.31-16.14v-3.26h2.46v3.26zm0 17.64v-3.26h2.46v3.26zm7.83 0v-1.58l11.84-12.02q1.89-1.89 2.88-3.38.99-1.5 1.36-2.78t.38-2.42q0-3.34-1.92-5.19-1.91-1.85-5.17-1.85-2.29 0-4.38 1.28t-3.49 3.52l-1.46-1.32q1.59-2.6 4.1-4.05t5.28-1.45q4.26 0 6.71 2.44 2.44 2.44 2.44 6.45 0 1.36-.4 2.84-.39 1.47-1.52 3.23t-3.32 3.96l-10.25 10.38h16.68v1.94zm34.5.44q-3.44 0-5.79-1.06-2.35-1.05-3.89-2.5l1.27-1.5q1.28 1.28 3.32 2.24t5.13.97q2.46 0 4.33-.86 1.87-.85 2.93-2.37t1.06-3.5q0-2.86-2.29-4.66t-6.34-1.81h-4.18V876h4.05q2.55 0 4.31-.9t2.69-2.42.92-3.32q0-2.86-2.11-4.54-2.11-1.67-5.46-1.67-2.73 0-4.6.88t-2.83 1.89l-1.19-1.54q1.19-1.14 3.41-2.13t5.26-.99q2.81 0 4.99.97t3.39 2.73 1.21 4.18q0 2.59-1.5 4.68-1.49 2.09-4.27 3.02 3.26.79 4.93 2.83t1.67 4.82q0 2.51-1.32 4.4t-3.69 2.97-5.41 1.08"/><path fill="#fff" fill-opacity=".45" d="M926.34 919.5v-6.47h-2.19v-1.23h5.77v1.23h-2.21v6.47zm8.4.15q-1.37 0-2.18-.7-.8-.7-.8-2.11v-5.04h1.35v4.93q0 .85.44 1.26.45.41 1.19.41t1.19-.41.45-1.26v-4.93h1.35v5.04q0 1.41-.82 2.11t-2.17.7m6.74-.15q-.56 0-.92-.36-.36-.37-.36-.93v-5.12q0-.56.36-.93.36-.36.92-.36h3.75v1.23h-3.3q-.16 0-.28.12t-.12.28v1.62H945v1.17h-3.47v1.65q0 .17.12.28t.28.12h3.3v1.23zm8.12.15q-.86 0-1.5-.31-.64-.32-1.09-.85l.84-.84q.44.45.87.66.44.2.92.2.65 0 1.02-.3t.37-.79q0-.38-.21-.61-.21-.24-.55-.38t-.76-.26-.81-.27q-.41-.14-.75-.37t-.55-.6-.21-.94q0-.72.33-1.24.34-.53.94-.82t1.41-.28q.74 0 1.34.26t.99.7l-.85.86q-.33-.34-.69-.51t-.8-.17q-.6 0-.97.29-.36.29-.36.78 0 .36.21.57t.55.34q.35.13.76.24t.83.25q.41.14.76.37.34.23.55.61.21.39.21.98 0 .74-.35 1.28-.35.55-.98.85-.64.3-1.47.3m4.95-.15v-7.7h2.77q1.09 0 1.95.48.87.48 1.36 1.32t.5 1.96v.12q0 .84-.29 1.54t-.81 1.21-1.21.79-1.5.28zm2.66-6.43h-1.32v5.17h1.32q.74 0 1.31-.32t.9-.9.33-1.34v-.12q0-.75-.32-1.31-.33-.56-.9-.87t-1.32-.31m5.09 6.43 2.82-7.7h1.66l2.8 7.7h-1.38l-.66-1.89h-3.19l-.66 1.89zm2.45-3.04h2.38l-1.18-3.36zm7.67 3.04v-3.19l-2.73-4.51h1.47l1.94 3.21 1.95-3.21h1.46l-2.72 4.51v3.19zM926.11 940q-.53 0-.87-.35-.35-.34-.35-.87v-5.26q0-.53.35-.87.34-.35.87-.35h3.56v.86h-3.26q-.25 0-.42.17t-.17.41v1.99h3.61v.83h-3.61v2q0 .24.17.41t.42.17h3.26v.86zm7.22.11q-.88 0-1.47-.52-.58-.52-.58-1.66v-3.22h.89v3.07q0 .85.38 1.18.38.34.95.34.6 0 1.03-.4t.44-1.2v-2.99h.88V940h-.79v-.79q-.33.52-.82.71t-.91.19m4.61-.11v-5.29h.86v.85q.19-.51.58-.69t.88-.18h.45v.88h-.52q-.65 0-1 .32-.36.32-.36.98V940zm6.27.11q-.76 0-1.36-.35-.59-.34-.93-.96t-.34-1.42v-.1q0-.78.34-1.39t.93-.95 1.36-.34 1.35.34.93.94.35 1.38v.12q0 .81-.35 1.42-.34.62-.93.96-.59.35-1.35.35m0-.79q.51 0 .9-.25.4-.25.62-.68t.22-1.01v-.12q0-.82-.49-1.35-.48-.52-1.25-.52-.51 0-.9.24-.4.25-.63.67t-.22.98v.1q0 .57.22 1.01.23.43.63.68.39.25.9.25m4.36 2.88v-7.49h.84v.91q.31-.47.8-.75.49-.27 1.09-.27.72 0 1.28.34t.88.95.33 1.39v.1q0 .82-.32 1.43-.32.62-.88.96t-1.29.34q-.58 0-1.05-.26t-.78-.71v3.06zm2.6-2.88q.5 0 .89-.24t.61-.67.23-1.03v-.1q0-.85-.49-1.37t-1.24-.52q-.51 0-.9.24-.4.25-.63.69-.23.45-.23 1.04t.23 1.03.63.69.9.24m6.65.79q-.78 0-1.38-.35t-.93-.96-.34-1.42v-.11q0-.77.31-1.37t.87-.95 1.3-.35q.76 0 1.3.37.54.38.79 1.05.26.68.15 1.6h-3.82q.03.47.25.85.23.38.62.6.39.23.92.23.42 0 .74-.1t.57-.32l.5.55q-.31.33-.78.5-.48.18-1.07.18m-.17-4.74q-.66 0-1.07.42t-.5 1.11h2.97q-.02-.73-.4-1.13t-1-.4m2.84 6.21 4.08-9.93h.91l-4.09 9.93zM968 940q-.54 0-.88-.35t-.34-.87v-6.48h.93v6.23q0 .25.17.41.16.17.42.17h3.07v.89zm6.79.11q-.76 0-1.36-.35-.59-.34-.93-.96t-.34-1.42v-.1q0-.78.34-1.39t.93-.95q.6-.34 1.36-.34t1.35.34.94.94.34 1.38v.12q0 .81-.34 1.42-.35.62-.94.96-.59.35-1.35.35m0-.79q.51 0 .9-.25t.62-.68.22-1.01v-.12q0-.82-.49-1.35-.48-.52-1.25-.52-.51 0-.9.24-.4.25-.63.67t-.22.98v.1q0 .57.22 1.01.23.43.63.68.39.25.9.25m4.36.68v-5.29h.86v.85q.32-.55.82-.76t.93-.2q.89 0 1.45.58.55.57.55 1.71V940h-.89v-2.98q0-.85-.38-1.23t-.96-.38q-.6 0-1.04.42-.45.41-.45 1.2V940zm8.76.11q-.73 0-1.29-.34t-.88-.96-.32-1.43v-.1q0-.79.33-1.39.32-.61.88-.95t1.28-.34q.59 0 1.06.26t.78.71v-3.6h.89V940h-.81v-.96q-.31.51-.81.79-.49.28-1.11.28m.12-.79q.52 0 .91-.24.4-.25.63-.69t.23-1.03-.23-1.04-.63-.69-.91-.24q-.74 0-1.23.52-.48.52-.48 1.37v.1q0 .59.22 1.03.23.44.61.67.39.24.88.24m6.98.79q-.76 0-1.36-.35-.59-.34-.93-.96t-.34-1.42v-.1q0-.78.34-1.39t.93-.95q.6-.34 1.36-.34.75 0 1.35.34.59.34.93.94t.34 1.38v.12q0 .81-.34 1.42-.34.62-.93.96-.6.35-1.35.35m0-.79q.51 0 .9-.25t.61-.68.22-1.01v-.12q0-.82-.48-1.35-.49-.52-1.25-.52-.51 0-.91.24-.39.25-.62.67t-.22.98v.1q0 .57.22 1.01.23.43.62.68.4.25.91.25m4.36.68v-5.29h.86v.85q.32-.55.82-.76t.93-.2q.89 0 1.45.58.55.57.55 1.71V940h-.89v-2.98q0-.85-.38-1.23t-.96-.38q-.61 0-1.05.42-.44.41-.44 1.2V940zm9.46-2.52v-1.21h1.08v1.21zm9.55 2.68q-1.13 0-2-.5-.86-.5-1.35-1.38-.49-.89-.49-2.04v-.17q0-1.15.5-2.04t1.38-1.39 2.03-.5q.72 0 1.34.23t1.12.68l-.64.67q-.38-.35-.84-.52-.47-.16-.97-.16-.87 0-1.54.38-.66.39-1.04 1.07-.37.69-.37 1.58v.17q0 .89.37 1.58.37.68 1.02 1.07.64.38 1.49.38.75 0 1.3-.34.56-.34.86-.92.3-.57.29-1.28h-2.03v-.79h2.95q.12 1.21-.26 2.17t-1.18 1.51q-.81.54-1.94.54m5.16-.16v-7.7h1.25l2.23 4.61 2.21-4.61h1.25v7.7h-.91v-6.49l-2.19 4.65h-.74l-2.18-4.65V940zm10.81 0v-6.84h-2.32v-.86h5.61v.86h-2.34V940zm6.8-1.3v-2.19h-2.18v-.73h2.18v-2.19h.76v2.19h2.18v.73h-2.18v2.19zm5.08 1.3v-.86h2.03v-5.43q0-.24-.15-.4-.15-.15-.39-.15h-1.47v-.86h1.7q.54 0 .88.35t.34.87v5.62h2v.86z"/></svg>