<svg xmlns="http://www.w3.org/2000/svg" width="1080" height="1080" viewBox="0 0 1080 1080"><path fill="#f5f5f0" d="M0 0h1080v1080H0z"/><path fill="#0c322c" fill-opacity=".5" d="M890.36 45v-7.26h-2.46V36.6h6.19v1.14h-2.47V45zm8.97.16q-1.45 0-2.32-.77-.87-.76-.87-2.26V36.6h1.25v5.44q0 .96.53 1.45.53.5 1.41.5.89 0 1.43-.5.53-.49.53-1.45V36.6h1.25v5.53q0 1.5-.88 2.26-.87.77-2.33.77m7.37-.16q-.6 0-.98-.38-.39-.39-.39-.99v-5.66q0-.6.39-.99.38-.38.98-.38h3.97v1.14h-3.57q-.23 0-.38.16-.15.15-.15.38v1.96h3.85v1.09h-3.85v1.99q0 .23.15.38.15.16.38.16h3.57V45zm8.71.16q-.91 0-1.59-.34-.67-.34-1.14-.89l.77-.78q.46.49.96.72t1.05.23q.78 0 1.23-.38t.44-.98q0-.44-.23-.72t-.62-.44q-.37-.17-.83-.29-.46-.13-.91-.29-.46-.15-.84-.4-.37-.24-.61-.64t-.23-1.02q0-.77.35-1.33.36-.55 1-.86.65-.31 1.52-.31.78 0 1.4.27t1.03.73l-.79.8q-.36-.37-.76-.55-.39-.19-.9-.19-.73 0-1.17.37-.45.36-.45.95 0 .42.24.67t.62.41.84.27.92.26.84.41q.38.25.62.66t.23 1.06q0 .8-.38 1.38-.37.58-1.05.9-.67.32-1.56.32m5.4-.16v-8.4h2.93q1.18 0 2.11.52.94.52 1.48 1.44t.54 2.12v.13q0 .93-.31 1.69-.31.77-.88 1.33-.56.56-1.31.86-.75.31-1.63.31zm2.84-7.22h-1.59v6.04h1.59q.85 0 1.51-.37.67-.38 1.05-1.06.39-.68.39-1.58v-.13q0-.86-.38-1.52t-1.04-1.02-1.53-.36m5.56 7.22 3.14-8.4h1.52L937 45h-1.28l-.79-2.17h-3.64L930.5 45zm2.46-3.24h2.87l-1.43-3.94zm8.52 3.24v-3.52l-3.02-4.88h1.36l2.29 3.68 2.3-3.68h1.36l-3.03 4.88V45zm4.78 0v-1.48h1.42v2.25q0 .39-.16.61t-.4.3-.48.08h-.43v-.68h.43q.15 0 .23-.1.07-.09.07-.22V45zm6.68 0v-1.14h1.78q.32 0 .54-.22.22-.21.22-.54v-5.36h-2.14V36.6h3.4v6.38q0 .99-.55 1.5-.55.52-1.58.52zm9.82.16q-1.45 0-2.32-.77-.87-.76-.87-2.26V36.6h1.25v5.44q0 .96.52 1.45.53.5 1.42.5t1.42-.5.54-1.45V36.6h1.24v5.53q0 1.5-.87 2.26-.88.77-2.33.77m7.4-.16q-.58 0-.97-.38-.39-.39-.39-.99V36.6h1.24v6.68q0 .23.16.39.16.15.38.15h3.38V45zm6.75 0v-3.52l-3.03-4.88h1.36l2.29 3.68 2.31-3.68h1.35l-3.02 4.88V45zm9.97 0 3.74-7.28h-4.46V36.6h5.83v.85L986.98 45zm7.38 0v-1.48h1.42v2.25q0 .39-.16.61t-.4.3-.48.08h-.43v-.68h.43q.15 0 .23-.1.07-.09.07-.22V45zm7.16 0v-.92l3.02-3.05q.6-.59.81-1.05t.22-.91q0-.65-.39-1.03t-1.06-.38q-.56 0-1.03.3t-.85.86l-.81-.78q.48-.73 1.18-1.15t1.54-.41q.81 0 1.41.31.61.31.94.87.34.56.34 1.29 0 .64-.31 1.31t-1.12 1.49l-2.12 2.13h3.89V45zm10.98.12q-1.45 0-2.28-1.13-.82-1.14-.82-3.18t.82-3.19 2.28-1.14q1.47 0 2.29 1.14t.82 3.19-.82 3.18-2.29 1.13m0-1.13q.89 0 1.38-.81t.48-2.37-.48-2.38q-.49-.82-1.38-.82t-1.37.82-.49 2.38q0 1.55.49 2.37.49.81 1.37.81m5.34 1.01v-.92l3.02-3.05q.6-.59.81-1.05t.22-.91q0-.65-.39-1.03t-1.06-.38q-.56 0-1.03.3t-.85.86l-.81-.78q.48-.73 1.18-1.15t1.54-.41q.81 0 1.41.31.61.31.94.87.34.56.34 1.29 0 .64-.31 1.31t-1.12 1.49l-2.12 2.13h3.89V45zm11.06.12q-.93 0-1.61-.35-.67-.36-1.05-1.01-.37-.64-.37-1.52 0-.58.23-1.15t.62-1.14l2.33-3.35h1.49l-2.27 3.08q.41-.15.88-.15.8 0 1.42.36t.97.98q.34.63.34 1.44 0 .85-.37 1.48-.38.63-1.05.98-.68.35-1.56.35m-.03-1.08q.78 0 1.27-.48.48-.48.48-1.25t-.48-1.25q-.49-.49-1.24-.49-.8 0-1.28.49-.49.48-.49 1.25 0 .78.48 1.26.48.47 1.26.47"/><path fill="#0c8c5c" d="M28.51 221.34V176.8q0-6.72 3.07-11.81 3.08-5.09 8.5-7.97t12.43-2.88h11.71v18.72H53.76q-2.11 0-3.26 1.25-1.16 1.25-1.16 3.36v9.41h14.88v34.46zm41.28 0V176.8q0-6.72 3.07-11.81 3.08-5.09 8.5-7.97t12.43-2.88h11.71v18.72H95.04q-2.11 0-3.26 1.25-1.16 1.25-1.16 3.36v9.41h14.88v34.46z"/><path fill="#0c322c" d="m41.25 314.14-15.75-52.5h5.1l13.2 45.23 14.25-45.23h5.48l14.25 45.3 13.19-45.3h5.11l-15.75 52.5h-5.1l-14.41-46.05-14.39 46.05zm72.6.75q-5.25 0-9.3-2.36t-6.3-6.53-2.25-9.63v-.75q0-5.25 2.1-9.3t5.81-6.42 8.67-2.36q5.02 0 8.62 2.48t5.29 6.97 1.01 10.5h-26.78q.16 3.68 1.84 6.64t4.62 4.65q2.92 1.69 6.82 1.69 5.93 0 9.3-2.93l2.7 3.08q-2.02 2.02-5.21 3.15t-6.94 1.12m-1.27-33.15q-4.95 0-8.07 3.23-3.11 3.22-3.71 8.55H123q.08-5.4-2.81-8.59t-7.61-3.19m38.99 32.4v-35.85h4.58v6.38q1.42-2.7 3.56-4.24t4.46-2.21q2.33-.68 4.36-.68 6.07 0 9.89 3.86 3.83 3.87 3.83 11.82v20.92h-4.8v-20.32q0-6.3-2.85-9.08-2.85-2.77-7.2-2.77-3 0-5.51 1.35t-4.01 3.97-1.5 6.6v20.25zm55.88.75q-5.25 0-9.3-2.36t-6.3-6.53-2.25-9.63v-.75q0-5.25 2.1-9.3t5.81-6.42 8.67-2.36q5.02 0 8.62 2.48t5.29 6.97 1.01 10.5h-26.77q.15 3.68 1.83 6.64t4.62 4.65q2.92 1.69 6.82 1.69 5.93 0 9.3-2.93l2.7 3.08q-2.02 2.02-5.21 3.15t-6.94 1.12m-1.27-33.15q-4.95 0-8.07 3.23-3.11 3.22-3.71 8.55h22.2q.08-5.4-2.81-8.59t-7.61-3.19m37.95 33.15q-5.25 0-9.3-2.36t-6.3-6.53-2.25-9.63v-.75q0-5.25 2.1-9.3t5.81-6.42 8.66-2.36q5.03 0 8.63 2.48t5.28 6.97 1.01 10.5H231q.15 3.68 1.84 6.64t4.61 4.65 6.83 1.69q5.92 0 9.3-2.93l2.69 3.08q-2.02 2.02-5.21 3.15t-6.93 1.12m-1.28-33.15q-4.95 0-8.06 3.23t-3.71 8.55h22.2q.07-5.4-2.82-8.59t-7.61-3.19m36.9 33.15q-4.95 0-8.74-2.32-3.78-2.33-5.92-6.53t-2.14-9.67v-.68q0-5.32 2.18-9.41 2.17-4.09 5.96-6.41t8.66-2.33q4.35 0 7.76 2.06t5.44 5.59v-25.8h4.8v54.75h-4.35v-7.35q-2.1 3.75-5.63 5.93t-8.02 2.17m.6-4.27q3.67 0 6.6-1.8t4.61-5.03 1.69-7.57q0-4.28-1.69-7.5-1.68-3.23-4.61-5.07-2.93-1.83-6.6-1.83t-6.52 1.76-4.47 4.87-1.61 7.24v.68q0 4.27 1.61 7.5 1.62 3.22 4.47 4.98t6.52 1.77m58.5 4.27q-4.95 0-8.74-2.32-3.78-2.33-5.92-6.53t-2.14-9.67v-.68q0-5.32 2.17-9.41 2.18-4.09 5.97-6.41t8.66-2.33q4.35 0 7.76 2.06t5.44 5.59v-25.8h4.8v54.75h-4.35v-7.35q-2.1 3.75-5.62 5.93t-8.03 2.17m.6-4.27q3.68 0 6.6-1.8t4.61-5.03 1.69-7.57q0-4.28-1.69-7.5-1.69-3.23-4.61-5.07-2.92-1.83-6.6-1.83t-6.52 1.76q-2.85 1.76-4.47 4.87t-1.61 7.24v.68q0 4.27 1.61 7.5 1.62 3.22 4.47 4.98t6.52 1.77m30.45 3.52v-31.65h-7.2v-4.2h11.93v35.85zm-.3-44.1v-8.1h5.33v8.1zm25.05 44.1-14.47-35.85h4.95l12.07 30.15 12-30.15h4.95l-14.4 35.85zm39.83.75q-5.25 0-9.3-2.36t-6.3-6.53-2.25-9.63v-.75q0-5.25 2.1-9.3t5.81-6.42 8.66-2.36q5.03 0 8.63 2.48t5.28 6.97 1.02 10.5h-26.78q.15 3.68 1.84 6.64t4.61 4.65 6.83 1.69q5.92 0 9.3-2.93l2.7 3.08q-2.03 2.02-5.22 3.15t-6.93 1.12m-1.28-33.15q-4.95 0-8.06 3.23t-3.71 8.55h22.2q.07-5.4-2.82-8.59t-7.61-3.19m22.58 32.4v-35.85h4.65v5.85q1.35-3.45 4.01-4.69 2.66-1.23 6.04-1.23h3.07v4.72h-3.45q-4.42 0-6.97 2.29t-2.55 7.16v21.75zm32.25.68q-3.75 0-7.2-1.2t-5.55-3.23l2.17-3.3q1.95 1.8 4.8 2.85t5.78 1.05q3.67 0 6-1.72 2.32-1.73 2.32-4.58 0-2.32-1.43-3.6-1.42-1.27-3.71-1.95t-4.8-1.31-4.76-1.65-3.67-2.89-1.43-5.25q0-4.65 3.45-7.57 3.45-2.93 9.23-2.93 3.3 0 6.18 1.01 2.89 1.02 5.07 2.67l-2.18 3.37q-1.88-1.5-4.2-2.32-2.32-.83-4.95-.83-3.6 0-5.81 1.73-2.21 1.72-2.21 4.5 0 2.32 1.42 3.56 1.43 1.24 3.71 1.95t4.84 1.35 4.84 1.69 3.71 3 1.43 5.32q0 4.5-3.64 7.39t-9.41 2.89m23.32-.68v-31.65h-7.2v-4.2h11.93v35.85zm-.3-44.1v-8.1h5.33v8.1zm26.93 44.1q-2.4 0-4.5-.97-2.1-.98-3.45-2.97-1.36-1.98-1.36-5.13v-22.58H522v-4.2h6.67v-8.92h4.73v8.92h9.98v4.2h-9.98v22.88q0 2.02 1.35 3.33 1.35 1.32 3.3 1.32h5.33v4.12zm7.8 15v-4.12h6.82q1.88 0 2.96-1.32 1.09-1.31 1.76-3.03l2.78-6.23-14.85-36.15h5.25l12.15 30.3 11.77-30.3h5.25l-17.47 42.53q-.82 2.02-1.99 3.93-1.16 1.92-3.04 3.15-1.87 1.24-4.79 1.24zm69.52-14.25q-5.1 0-9.07-2.36T600 306t-2.25-9.63v-.68q0-5.32 2.25-9.41t6.23-6.41 9.07-2.33q5.02 0 9 2.33 3.98 2.32 6.23 6.37t2.25 9.3v.83q0 5.47-2.25 9.63t-6.23 6.53-9 2.36m0-4.27q3.75 0 6.6-1.84t4.46-5.03 1.62-7.38v-.83q0-4.05-1.62-7.12-1.61-3.08-4.46-4.84t-6.6-1.76-6.64 1.8-4.53 4.91-1.65 7.16v.68q0 4.2 1.65 7.38 1.65 3.19 4.53 5.03t6.64 1.84m27.15 3.52v-31.65h-6.82v-4.2h6.82v-9.82q0-4.13 2.62-6.6 2.63-2.48 6.75-2.48h5.93v4.13h-5.93q-2.02 0-3.33 1.31-1.32 1.31-1.32 3.26v10.2h10.58v4.2h-10.58v31.65zm46.13 0q-2.4 0-4.5-.97-2.1-.98-3.45-2.97-1.35-1.98-1.35-5.13v-22.58h-6.68v-4.2h6.68v-8.92H684v8.92h9.98v4.2H684v22.88q0 2.02 1.35 3.33 1.35 1.32 3.3 1.32h5.33v4.12zm12.22 0v-54.75h4.58v25.28q1.42-2.7 3.56-4.24t4.46-2.21q2.33-.68 4.35-.68 6.08 0 9.9 3.86 3.83 3.87 3.83 11.82v20.92h-4.8v-20.32q0-6.3-2.85-9.08-2.85-2.77-7.2-2.77-3 0-5.52 1.35t-4.01 3.97-1.5 6.6v20.25zm55.58.75q-5.1 0-9.08-2.36-3.97-2.36-6.22-6.53t-2.25-9.63v-.68q0-5.32 2.25-9.41t6.22-6.41 9.08-2.33q5.02 0 9 2.33 3.97 2.32 6.22 6.37t2.25 9.3v.83q0 5.47-2.25 9.63t-6.22 6.53-9 2.36m0-4.27q3.75 0 6.6-1.84t4.46-5.03 1.61-7.38v-.83q0-4.05-1.61-7.12t-4.46-4.84-6.6-1.76-6.64 1.8-4.54 4.91-1.65 7.16v.68q0 4.2 1.65 7.38 1.65 3.19 4.54 5.03t6.64 1.84m38.7 4.27q-3.98 0-7.13-1.54-3.15-1.53-4.95-4.8t-1.8-8.58v-21.68h4.73v20.93q0 6.3 2.85 8.77 2.85 2.48 7.12 2.48 2.93 0 5.4-1.32 2.48-1.31 4.01-3.9 1.54-2.58 1.54-6.56v-20.4h4.65v35.85h-4.35v-5.92q-2.17 3.75-5.62 5.21t-6.45 1.46m22.8 14.25v-4.05h21.22q2.93 0 4.61-1.46t1.69-4.01q0-2.4-1.69-3.75-1.68-1.35-4.61-1.35h-11.4q-2.77 0-4.2-1.32-1.42-1.31-1.57-3.26t.82-3.82l2.48-4.95q-2.78-1.65-4.39-4.39t-1.61-6.11v-.68q0-3.67 1.91-6.49 1.91-2.81 5.32-4.38 3.42-1.58 7.84-1.58 1.13 0 2.1.08l3.83-7.8h4.8l-4.58 8.62q4.05 1.35 6.49 4.35t2.44 6.98v.9q0 3.75-1.92 6.63-1.91 2.89-5.32 4.54t-7.84 1.65q-2.77 0-5.25-.67l-1.95 3.75q-.37.82-.49 1.76t.49 1.61 2.1.68h10.5q4.58 0 7.39 2.32 2.81 2.33 2.81 6.68 0 4.27-2.85 6.9-2.85 2.62-7.57 2.62zm16.42-29.47q2.4 0 4.8-.87 2.4-.86 4.01-2.88 1.62-2.03 1.62-5.7 0-3.9-2.93-6.3-2.92-2.4-7.5-2.4t-7.5 2.4-2.92 6.3q0 3.6 1.65 5.66t4.08 2.92 4.69.87m22.65 14.47v-54.75h4.58v25.28q1.42-2.7 3.56-4.24t4.46-2.21q2.33-.68 4.35-.68 6.08 0 9.9 3.86 3.83 3.87 3.83 11.82v20.92h-4.8v-20.32q0-6.3-2.85-9.08-2.85-2.77-7.2-2.77-3 0-5.52 1.35t-4.01 3.97-1.5 6.6v20.25zm51.38 0q-2.4 0-4.5-.97-2.1-.98-3.45-2.97-1.35-1.98-1.35-5.13v-22.58h-6.68v-4.2h6.68v-8.92h4.72v8.92h9.98v4.2h-9.98v22.88q0 2.02 1.35 3.33 1.35 1.32 3.3 1.32h5.33v4.12zm30.52 0v-31.65h-7.2v-4.2h11.93v35.85zm-.3-44.1v-8.1h5.33v8.1zm15.45 44.1v-35.85h4.58v6.38q1.42-2.7 3.56-4.24t4.46-2.21 4.35-.68q6.08 0 9.9 3.86 3.83 3.87 3.83 11.82v20.92h-4.8v-20.32q0-6.3-2.85-9.08-2.85-2.77-7.2-2.77-3 0-5.52 1.35t-4.01 3.97-1.5 6.6v20.25zm-912.6 91.5q-2.4 0-4.5-.97-2.1-.98-3.45-2.97-1.35-1.98-1.35-5.13v-22.58h-6.67v-4.2h6.67v-8.92h4.73v8.92h9.97v4.2h-9.97v22.88q0 2.02 1.35 3.33 1.34 1.32 3.29 1.32h5.33v4.12zm12.23 0v-54.75h4.57v25.28q1.43-2.7 3.56-4.24 2.14-1.54 4.47-2.21 2.32-.68 4.35-.68 6.07 0 9.9 3.86 3.82 3.87 3.82 11.82v20.92h-4.8v-20.32q0-6.3-2.85-9.08-2.85-2.77-7.2-2.77-3 0-5.51 1.35-2.52 1.35-4.02 3.97t-1.5 6.6v20.25zm55.87.75q-5.25 0-9.3-2.36t-6.3-6.53-2.25-9.63v-.75q0-5.25 2.1-9.3t5.81-6.42 8.67-2.36q5.02 0 8.62 2.48t5.29 6.97 1.01 10.5H96.38q.14 3.68 1.83 6.64t4.62 4.65q2.92 1.69 6.82 1.69 5.93 0 9.3-2.93l2.7 3.08q-2.02 2.02-5.21 3.15t-6.94 1.12m-1.27-33.15q-4.96 0-8.07 3.23t-3.71 8.55h22.2q.08-5.4-2.81-8.59t-7.61-3.19m44.62 32.4-10.65-35.85h4.8l8.78 30.98 9.07-30.98h5.03l9.07 30.83 8.85-30.83h4.73l-10.65 35.85h-5.4l-9.16-31.35-9.07 31.35zm60.68.75q-5.1 0-9.08-2.36-3.97-2.36-6.22-6.53t-2.25-9.63v-.68q0-5.32 2.25-9.41t6.22-6.41 9.08-2.33q5.02 0 9 2.33 3.97 2.32 6.22 6.37t2.25 9.3v.83q0 5.47-2.25 9.63t-6.22 6.53-9 2.36m0-4.27q3.75 0 6.6-1.84t4.46-5.03 1.61-7.38v-.83q0-4.05-1.61-7.12t-4.46-4.84-6.6-1.76-6.64 1.8-4.54 4.91-1.65 7.16v.68q0 4.2 1.65 7.38 1.65 3.19 4.54 5.03t6.64 1.84m25.35 3.52v-35.85h4.65v5.85q1.35-3.45 4.01-4.69 2.66-1.23 6.04-1.23h3.07v4.72h-3.45q-4.42 0-6.97 2.29t-2.55 7.16v21.75zm32.85 0q-4.13 0-6.64-2.4t-2.51-6.37v-41.85h-6.9v-4.13h11.7v46.05q0 1.95 1.31 3.26 1.31 1.32 3.26 1.32h3.23v4.12zm22.65.75q-4.95 0-8.74-2.32-3.79-2.33-5.93-6.53t-2.13-9.67v-.68q0-5.32 2.17-9.41 2.18-4.09 5.96-6.41 3.79-2.33 8.67-2.33 4.34 0 7.76 2.06t5.44 5.59v-25.8h4.8v54.75h-4.36v-7.35q-2.09 3.75-5.62 5.93-3.52 2.17-8.02 2.17m.59-4.27q3.68 0 6.61-1.8 2.92-1.8 4.61-5.03 1.69-3.22 1.69-7.57 0-4.28-1.69-7.5-1.69-3.23-4.61-5.07-2.93-1.83-6.61-1.83-3.67 0-6.52 1.76t-4.46 4.87-1.61 7.24v.68q0 4.27 1.61 7.5 1.61 3.22 4.46 4.98t6.52 1.77m54.75 3.52q-2.39 0-4.5-.97-2.09-.98-3.45-2.97-1.34-1.98-1.34-5.13v-22.58h-6.68v-4.2h6.68v-8.92h4.72v8.92h9.98v4.2h-9.98v22.88q0 2.02 1.35 3.33 1.35 1.32 3.3 1.32h5.33v4.12zm26.11.75q-5.1 0-9.08-2.36-3.97-2.36-6.22-6.53t-2.25-9.63v-.68q0-5.32 2.25-9.41t6.22-6.41 9.08-2.33q5.02 0 9 2.33 3.97 2.32 6.22 6.37t2.25 9.3v.83q0 5.47-2.25 9.63t-6.22 6.53-9 2.36m0-4.27q3.75 0 6.6-1.84t4.46-5.03 1.61-7.38v-.83q0-4.05-1.61-7.12t-4.46-4.84-6.6-1.76-6.64 1.8-4.54 4.91-1.65 7.16v.68q0 4.2 1.65 7.38 1.65 3.19 4.54 5.03t6.64 1.84m43.42 3.52v-31.65h-6.82v-4.2h6.82v-9.82q0-4.13 2.63-6.6 2.62-2.48 6.75-2.48h5.92v4.13h-5.92q-2.03 0-3.34 1.31t-1.31 3.26v10.2h10.57v4.2h-10.57v31.65zm30.38.75q-6.23 0-9.9-2.92-3.68-2.93-3.68-7.65 0-3.15 1.8-5.55t4.99-3.79 7.31-1.39q3.3 0 5.81.79 2.52.79 4.24 2.21v-5.55q0-4.87-2.47-7.01t-6.68-2.14q-3 0-6.11 1.09t-5.21 3.49l-2.33-3.38q2.4-2.77 6.15-4.16t7.73-1.39q6.15 0 9.9 3.3t3.75 9.98v11.4q0 6 .22 11.92h-4.27l-.08-3.9q-3.22 4.65-11.17 4.65m1.12-3.67q4.58 0 7.01-1.95 2.44-1.95 2.44-4.95 0-3.08-2.47-4.95t-7.05-1.88q-4.5 0-7.13 1.88t-2.62 4.95q0 3 2.62 4.95t7.2 1.95m39.9 3.67q-5.32 0-9.45-2.32-4.12-2.33-6.45-6.42-2.32-4.08-2.32-9.48v-.98q0-5.32 2.36-9.41t6.45-6.41 9.41-2.33q3.9 0 7.05 1.39t5.4 3.86l-3 3q-3.68-3.82-9.52-3.82-3.91 0-6.94 1.72-3.04 1.73-4.76 4.84-1.73 3.11-1.73 7.16v.98q0 4.12 1.76 7.23 1.77 3.12 4.8 4.84 3.04 1.73 6.94 1.73 5.85 0 9.6-3.83l2.92 3q-2.25 2.48-5.43 3.86-3.19 1.39-7.09 1.39m33.68 0q-5.25 0-9.3-2.36t-6.3-6.53-2.25-9.63v-.75q0-5.25 2.1-9.3 2.09-4.05 5.81-6.42 3.71-2.36 8.66-2.36 5.03 0 8.62 2.48 3.61 2.47 5.29 6.97t1.02 10.5H511.2q.15 3.68 1.84 6.64t4.61 4.65 6.83 1.69q5.92 0 9.3-2.93l2.7 3.08q-2.03 2.02-5.22 3.15t-6.93 1.12m-1.28-33.15q-4.95 0-8.06 3.23t-3.71 8.55h22.2q.07-5.4-2.82-8.59t-7.61-3.19m49.58 32.4q-2.4 0-4.5-.97-2.1-.98-3.46-2.97-1.35-1.98-1.35-5.13v-22.58h-6.67v-4.2h6.67v-8.92h4.73v8.92h9.98v4.2h-9.98v22.88q0 2.02 1.35 3.33 1.35 1.32 3.3 1.32h5.33v4.12zm12.22 0v-54.75h4.57v25.28q1.43-2.7 3.57-4.24t4.46-2.21q2.33-.68 4.35-.68 6.08 0 9.9 3.86 3.83 3.87 3.83 11.82v20.92h-4.8v-20.32q0-6.3-2.85-9.08-2.85-2.77-7.21-2.77-3 0-5.51 1.35t-4.01 3.97-1.5 6.6v20.25zm55.88.75q-5.25 0-9.31-2.36-4.04-2.36-6.29-6.53t-2.25-9.63v-.75q0-5.25 2.1-9.3 2.09-4.05 5.81-6.42 3.71-2.36 8.66-2.36 5.03 0 8.62 2.48 3.6 2.47 5.29 6.97t1.02 10.5H627.6q.15 3.68 1.84 6.64t4.61 4.65 6.83 1.69q5.92 0 9.29-2.93l2.71 3.08q-2.03 2.02-5.22 3.15t-6.93 1.12m-1.28-33.15q-4.95 0-8.06 3.23t-3.72 8.55h22.21q.07-5.4-2.82-8.59t-7.61-3.19m39 32.4v-35.85h4.58v6.38q1.42-2.7 3.56-4.24t4.46-2.21q2.33-.68 4.35-.68 6.08 0 9.9 3.86 3.83 3.87 3.83 11.82v20.92h-4.8v-20.32q0-6.3-2.85-9.08-2.85-2.77-7.2-2.77-3 0-5.52 1.35t-4.01 3.97-1.5 6.6v20.25zm55.88.75q-5.25 0-9.3-2.36t-6.3-6.53-2.25-9.63v-.75q0-5.25 2.1-9.3t5.81-6.42 8.66-2.36q5.03 0 8.63 2.48t5.28 6.97 1.02 10.5H721.2q.15 3.68 1.84 6.64t4.61 4.65 6.83 1.69q5.92 0 9.3-2.93l2.7 3.08q-2.03 2.02-5.22 3.15t-6.93 1.12m-1.28-33.15q-4.95 0-8.06 3.23t-3.71 8.55h22.2q.07-5.4-2.82-8.59t-7.61-3.19m28.8 32.4-10.65-35.85h4.8l8.78 30.98 9.07-30.98h5.03l9.07 30.83 8.85-30.83h4.73l-10.65 35.85h-5.4l-9.15-31.35-9.08 31.35zM45.68 497.89q-5.33 0-9.45-2.32-4.13-2.33-6.45-6.42t-2.33-9.48v-.98q0-5.32 2.36-9.41t6.45-6.41 9.42-2.33q3.9 0 7.05 1.39t5.4 3.86l-3 3q-3.68-3.82-9.53-3.82-3.9 0-6.94 1.72-3.03 1.73-4.76 4.84t-1.73 7.16v.98q0 4.12 1.77 7.23 1.76 3.12 4.8 4.84 3.03 1.73 6.94 1.73 5.85 0 9.6-3.83l2.92 3q-2.25 2.48-5.44 3.86-3.18 1.39-7.08 1.39m19.35-.75v-54.75h4.57v25.28q1.43-2.7 3.56-4.24 2.14-1.54 4.47-2.21 2.32-.68 4.34-.68 6.08 0 9.91 3.86 3.82 3.87 3.82 11.82v20.92h-4.8v-20.32q0-6.3-2.85-9.08-2.85-2.77-7.2-2.77-3 0-5.51 1.35t-4.01 3.97-1.5 6.6v20.25zm51.22.75q-6.22 0-9.9-2.92-3.67-2.93-3.67-7.65 0-3.15 1.79-5.55 1.81-2.4 4.99-3.79t7.32-1.39q3.3 0 5.81.79t4.24 2.21v-5.55q0-4.87-2.48-7.01t-6.67-2.14q-3 0-6.12 1.09-3.11 1.09-5.21 3.49l-2.33-3.38q2.41-2.77 6.16-4.16t7.72-1.39q6.15 0 9.9 3.3t3.75 9.98v11.4q0 6 .23 11.92h-4.28l-.07-3.9q-3.23 4.65-11.18 4.65m1.13-3.67q4.57 0 7.01-1.95t2.44-4.95q0-3.08-2.48-4.95t-7.05-1.88q-4.5 0-7.12 1.88t-2.63 4.95q0 3 2.63 4.95t7.2 1.95m33.22 2.92q-4.12 0-6.64-2.4t-2.51-6.37v-41.85h-6.9v-4.13h11.7v46.05q0 1.95 1.31 3.26 1.32 1.32 3.26 1.32h3.23v4.12zm18 0q-4.12 0-6.64-2.4t-2.51-6.37v-41.85h-6.9v-4.13h11.7v46.05q0 1.95 1.31 3.26 1.32 1.32 3.26 1.32h3.23v4.12zm23.63.75q-5.25 0-9.31-2.36-4.04-2.36-6.29-6.53t-2.25-9.63v-.75q0-5.25 2.1-9.3 2.09-4.05 5.81-6.42 3.71-2.36 8.66-2.36 5.03 0 8.63 2.48t5.28 6.97 1.02 10.5H179.1q.15 3.68 1.84 6.64t4.61 4.65 6.83 1.69q5.92 0 9.3-2.93l2.7 3.08q-2.03 2.02-5.22 3.15t-6.93 1.12m-1.28-33.15q-4.95 0-8.06 3.23t-3.72 8.55h22.21q.07-5.4-2.82-8.59t-7.61-3.19m22.58 32.4v-35.85h4.57v6.38q1.43-2.7 3.56-4.24 2.14-1.54 4.47-2.21 2.32-.68 4.35-.68 6.07 0 9.9 3.86 3.82 3.87 3.82 11.82v20.92h-4.8v-20.32q0-6.3-2.85-9.08-2.85-2.77-7.2-2.77-3 0-5.51 1.35t-4.01 3.97-1.5 6.6v20.25zm36.52 15v-4.05h21.22q2.93 0 4.62-1.46t1.69-4.01q0-2.4-1.69-3.75t-4.62-1.35h-11.39q-2.78 0-4.2-1.32-1.43-1.31-1.58-3.26t.83-3.82l2.47-4.95q-2.77-1.65-4.39-4.39t-1.61-6.11v-.68q0-3.67 1.91-6.49 1.92-2.81 5.33-4.38 3.41-1.58 7.84-1.58 1.12 0 2.1.08l3.82-7.8h4.8l-4.57 8.62q4.05 1.35 6.48 4.35t2.44 6.98v.9q0 3.75-1.91 6.63-1.91 2.89-5.33 4.54t-7.83 1.65q-2.78 0-5.25-.67l-1.96 3.75q-.37.82-.48 1.76t.48 1.61q.61.68 2.11.68h10.5q4.57 0 7.38 2.32 2.82 2.33 2.82 6.68 0 4.27-2.85 6.9-2.85 2.62-7.58 2.62zm16.43-29.47q2.4 0 4.79-.87 2.41-.86 4.02-2.88t1.61-5.7q0-3.9-2.92-6.3-2.93-2.4-7.5-2.4t-7.5 2.4-2.93 6.3q0 3.6 1.65 5.66t4.09 2.92 4.69.87m38.02 15.22q-5.25 0-9.3-2.36t-6.3-6.53-2.25-9.63v-.75q0-5.25 2.1-9.3t5.81-6.42 8.66-2.36q5.03 0 8.63 2.48t5.29 6.97 1.01 10.5h-26.77q.14 3.68 1.83 6.64t4.62 4.65 6.82 1.69q5.93 0 9.3-2.93l2.7 3.08q-2.02 2.02-5.21 3.15t-6.94 1.12m-1.28-33.15q-4.95 0-8.06 3.23t-3.71 8.55h22.2q.07-5.4-2.81-8.59-2.89-3.19-7.62-3.19m32.11 33.08q-3.75 0-7.2-1.2t-5.55-3.23l2.17-3.3q1.95 1.8 4.8 2.85t5.78 1.05q3.67 0 6-1.72 2.32-1.73 2.32-4.58 0-2.32-1.43-3.6-1.42-1.27-3.71-1.95t-4.8-1.31-4.76-1.65-3.68-2.89-1.42-5.25q0-4.65 3.45-7.57 3.45-2.93 9.22-2.93 3.31 0 6.19 1.01 2.89 1.02 5.06 2.67l-2.17 3.37q-1.88-1.5-4.2-2.32-2.32-.83-4.95-.83-3.6 0-5.81 1.73-2.21 1.72-2.21 4.5 0 2.32 1.42 3.56t3.71 1.95 4.84 1.35 4.84 1.69 3.71 3 1.43 5.32q0 4.5-3.64 7.39t-9.41 2.89m19.5-.68v-6.9h5.77v6.9z"/><path fill="#0c8c5c" d="M24.86 557.59v-1.94h16.2v1.94zm24.68 4.05v-10.58h-3.58v-2.02h9.43v2.02h-3.62v10.58zm7.51 0v-7h-1.59v-1.77h3.68v8.77zm-.09-10.51v-2.4h2.3v2.4zm4.75 10.51v-8.77h1.98v1.1q.5-.74 1.21-1.01.7-.27 1.35-.27.86 0 1.52.36.65.35 1.05 1.07.4-.58.91-.89.51-.3 1.03-.42.51-.12.92-.12 1.42 0 2.32.92t.9 2.7v5.33h-2.05v-5.02q0-1.06-.46-1.55t-1.23-.49q-.79 0-1.3.54-.52.53-.52 1.5v5.02h-2.07v-5.02q0-1.06-.46-1.55t-1.21-.49q-.79 0-1.32.54-.52.53-.52 1.5v5.02zm20.05 0v-12.6h4.61q1.89 0 2.98.87 1.09.88 1.09 2.35 0 .9-.44 1.72t-1.38 1.18q1.12.31 1.7 1.13.59.83.59 1.86 0 1.58-1.13 2.54-1.12.95-3.16.95zm4.34-10.78h-2.18v3.45h2.27q.95 0 1.49-.47.53-.48.53-1.29 0-.77-.57-1.23t-1.54-.46m.38 5.2h-2.56v3.76h2.34q1.14 0 1.75-.51t.61-1.36q0-.79-.56-1.34t-1.58-.55m10.38 5.76q-1.31 0-2.31-.57t-1.56-1.58q-.55-1.02-.55-2.37v-.18q0-1.24.51-2.25t1.46-1.59 2.2-.59q1.32 0 2.25.64.94.64 1.37 1.81t.23 2.76h-5.97q.11.91.75 1.52.63.6 1.73.6.65 0 1.12-.18t.84-.54l1.17 1.22q-.52.65-1.36.98-.83.32-1.88.32m-.23-7.45q-.92 0-1.44.57t-.67 1.48h3.96q-.03-.97-.55-1.51-.51-.54-1.3-.54m5.89 7.27v-8.77h1.99v1.28q.33-.75.96-1.05t1.4-.3h.72v2.05h-.88q-1.03 0-1.58.47-.54.47-.54 1.37v4.95zm6.78 0v-8.77h2v1.12q.54-.77 1.29-1.03.74-.27 1.36-.27 1.47 0 2.36.97.89.96.89 2.76v5.22h-2.07v-4.88q0-1.15-.49-1.66-.5-.52-1.27-.52-.85 0-1.42.57-.58.57-.58 1.65v4.84zm14.28.18q-1.32 0-2.32-.57t-1.55-1.58-.56-2.37v-.18q0-1.24.51-2.25t1.46-1.59 2.2-.59q1.32 0 2.25.64.94.64 1.37 1.81t.24 2.76h-5.98q.11.91.75 1.52.64.6 1.73.6.65 0 1.12-.18t.85-.54l1.17 1.22q-.53.65-1.36.98t-1.88.32m-.24-7.45q-.92 0-1.44.57t-.66 1.48h3.96q-.04-.97-.55-1.51-.52-.54-1.31-.54m5.89 7.27v-8.77h2v1.28q.32-.75.95-1.05t1.4-.3h.72v2.05h-.88q-1.02 0-1.57.47t-.55 1.37v4.95zm9.18.16q-1.05 0-1.92-.3-.87-.31-1.45-.76l.9-1.42q.52.38 1.16.62t1.31.24q.65 0 1.03-.27.39-.27.39-.7t-.32-.65-.81-.35l-1.08-.28q-.56-.14-1.07-.41-.5-.27-.82-.77-.33-.49-.33-1.3 0-1.21.92-1.98.92-.78 2.47-.78.86 0 1.63.24.78.23 1.39.65l-.92 1.38q-1.01-.68-2.12-.68-.63 0-1.01.28t-.38.71q0 .39.33.62.34.22.85.36l1.09.3q.58.16 1.09.44t.85.77q.33.5.33 1.31t-.45 1.42-1.24.96-1.82.35m5.2-4.1v-2.07h5.47v2.07zm10.01 3.94q-.92 0-1.51-.59-.6-.6-.6-1.52v-10.49h2.22v9.86q0 .29.19.48.18.19.45.19h5.08v2.07zm11.03.18q-1.31 0-2.31-.57t-1.56-1.58-.56-2.37v-.18q0-1.24.52-2.25.51-1.01 1.46-1.59.94-.59 2.2-.59 1.31 0 2.25.64t1.37 1.81.23 2.76h-5.97q.1.91.74 1.52.64.6 1.74.6.65 0 1.12-.18.46-.18.84-.54l1.17 1.22q-.52.65-1.36.98-.83.32-1.88.32m-.23-7.45q-.92 0-1.44.57t-.67 1.48h3.96q-.03-.97-.55-1.51-.51-.54-1.3-.54m9.77 7.45q-1.31 0-2.31-.57t-1.56-1.58-.56-2.37v-.18q0-1.24.52-2.25.51-1.01 1.45-1.59.95-.59 2.21-.59 1.31 0 2.25.64t1.37 1.81.23 2.76h-5.97q.1.91.74 1.52.64.6 1.74.6.65 0 1.12-.18.46-.18.84-.54l1.17 1.22q-.52.65-1.36.98-.83.32-1.88.32m-.23-7.45q-.92 0-1.44.57t-.67 1.48h3.96q-.03-.97-.55-1.51-.51-.54-1.3-.54"/><path fill="#0c322c" fill-opacity=".12" d="M0 719h1080v1H0z"/><path fill="#0c322c" d="M27.16 845.5v-29.2H48.6v29.2zm18.8-2.92v-23.84H29.6zM26.85 892.5v-4.1h5.12v-13.53q0-.67-.64-.67h-4.64v-4.1h5.89q1.66 0 2.73 1.07t1.07 2.71v14.52h5.03v4.1zm24.51.32q-2.37 0-4.22-.77-1.86-.77-3.3-2.21l2.46-2.97q1.09 1.09 2.31 1.65 1.21.56 2.78.56 1.83 0 2.91-.85 1.09-.85 1.09-2.23 0-1.28-.96-2.01-.96-.74-2.49-.74h-3.43v-3.84h3.07q1.51 0 2.42-.8t.91-2.05q0-1.37-.94-2.16-.95-.78-2.55-.78-1.47 0-2.65.59-1.19.59-2.08 1.59l-2.53-3.01q1.38-1.41 3.3-2.21t4.12-.8q2.31 0 4.04.77 1.72.77 2.68 2.17.96 1.41.96 3.27 0 1.57-.67 2.86-.67 1.3-1.95 2.13 1.63.83 2.4 2.21t.77 3.01q0 1.98-1.11 3.47-1.1 1.49-3 2.32-1.91.83-4.34.83m16.51-12.26q-1.63 0-2.89-.68t-1.99-1.91q-.72-1.21-.72-2.81 0-1.57.72-2.79.72-1.21 1.99-1.9 1.26-.69 2.89-.69 1.67 0 2.93.69t1.98 1.9q.72 1.22.72 2.79 0 1.6-.72 2.81-.72 1.22-1.98 1.91t-2.93.68m0-2.59q1.25 0 2.03-.78.79-.79.79-2.03 0-1.22-.79-2-.78-.79-2.03-.79-1.21 0-2 .79-.78.78-.78 2 0 1.24.78 2.03.79.78 2 .78m18.98 14.98q-2.43 0-4.53-.83-2.1-.84-3.7-2.37t-2.49-3.63-.9-4.63v-.38q0-2.53.9-4.63.89-2.09 2.49-3.63 1.6-1.53 3.7-2.37 2.1-.83 4.53-.83 2.27 0 4.17.72 1.91.72 3.41 2.1l-2.91 3.39q-1.92-1.79-4.67-1.79-2.02 0-3.6.89-1.59.9-2.48 2.48-.9 1.59-.9 3.67v.38q0 2.08.9 3.67.89 1.58 2.48 2.48t3.6.89q2.85 0 4.8-1.95l2.91 3.39q-1.54 1.44-3.49 2.21t-4.22.77"/><path fill="#0c322c" fill-opacity=".5" d="M28.64 922.64q-1.17 0-2.09-.54-.92-.55-1.44-1.52t-.52-2.26v-.1q0-1.26.52-2.22t1.44-1.5 2.09-.54q1.18 0 2.1.54t1.44 1.5.52 2.22v.1q0 1.29-.52 2.26t-1.44 1.52-2.1.54m0-.99q.88 0 1.56-.42.68-.41 1.07-1.15.39-.75.39-1.76v-.1q0-.99-.39-1.72t-1.07-1.14-1.56-.41-1.56.41-1.06 1.14q-.39.73-.39 1.72v.1q0 1.01.39 1.76.38.74 1.06 1.15.69.42 1.56.42m7.04.85-2.3-5.77h1.01l1.8 4.63 1.79-4.63h1.01l-2.28 5.77zm6.75.12q-.85 0-1.5-.38-.66-.38-1.02-1.05-.37-.67-.37-1.55v-.12q0-.84.34-1.49.33-.65.94-1.04.62-.38 1.42-.38.83 0 1.42.41.58.4.87 1.14.28.74.16 1.75h-4.18q.04.5.28.92.25.41.68.66.42.24 1 .24.45 0 .81-.11.35-.1.62-.34l.55.6q-.34.36-.86.55t-1.16.19m-.19-5.17q-.72 0-1.17.45-.45.46-.55 1.22h3.24q-.01-.8-.43-1.23-.42-.44-1.09-.44m3.84 5.05v-5.77h.94v.92q.21-.55.64-.75.42-.2.95-.2h.49v.96h-.56q-.71 0-1.1.35t-.39 1.07v3.42zm6.44.12q-.85 0-1.52-.37t-1.05-1.04-.38-1.53v-.14q0-.87.39-1.53.38-.66 1.05-1.03.66-.37 1.51-.37.64 0 1.16.23t.88.66l-.6.6q-.55-.59-1.44-.59-.57 0-1.02.25t-.71.71-.26 1.07v.14q0 .61.27 1.07.26.47.71.72t1.03.25q.87 0 1.45-.58l.59.59q-.35.42-.89.66-.53.23-1.17.23m5.03 0q-.98 0-1.58-.48-.59-.48-.59-1.25 0-.5.3-.9.3-.39.82-.63t1.17-.23q.95 0 1.51.39v-.72q0-.7-.36-1.01-.37-.31-.99-.31-.47 0-.96.18-.48.17-.83.53l-.46-.68q.39-.45 1.01-.67.63-.23 1.29-.23 1.02 0 1.64.54t.62 1.61v1.84q0 .96.04 1.9h-.86l-.02-.58q-.54.7-1.75.7m.25-.73q.66 0 1.03-.28.37-.27.37-.72t-.37-.71-1.04-.27-1.04.27q-.39.27-.39.71t.39.72 1.05.28m5.68.72q-.64 0-1.19-.2-.56-.2-.91-.51l.43-.67q.33.27.77.44t.9.17q.54 0 .88-.25.33-.24.33-.64 0-.33-.23-.52-.22-.19-.57-.29l-.75-.2q-.39-.1-.75-.27-.35-.17-.57-.48t-.22-.85q0-.76.57-1.25.57-.48 1.53-.48.54 0 1.02.16.49.16.85.43l-.43.67q-.32-.23-.68-.36t-.78-.13q-.51 0-.84.24-.32.25-.32.64 0 .34.23.52t.58.29.76.21.76.27q.36.18.58.5.22.31.22.85 0 .51-.27.89-.28.39-.77.6-.49.22-1.13.22m5.52-.11q-.4 0-.76-.15-.37-.15-.6-.49-.24-.33-.24-.9v-3.39h-1.04v-.84h1.04v-1.43h.96v1.43h1.53v.84h-1.53v3.45q0 .28.19.47t.46.18h.88v.83zm-42.31 20-2.47-8.4h1.04l1.96 6.9 2.14-6.9h1.13l2.15 6.91 1.96-6.91h1.03l-2.46 8.4h-1.06l-2.18-7.12-2.19 7.12zm10.4 0v-4.93h-1.13v-.84h2.09v5.77zm-.06-7.04v-1.4h1.08v1.4zm2.83 7.04v-5.77h.94v.92q.35-.6.89-.82.55-.22 1.02-.22.97 0 1.58.63.6.63.6 1.86v3.4h-.97v-3.25q0-.93-.41-1.34-.42-.41-1.05-.41-.66 0-1.14.45t-.48 1.31v3.24zm9.08.12q-.8 0-1.41-.37t-.96-1.05-.35-1.56v-.1q0-.87.36-1.53.35-.66.96-1.03.62-.37 1.4-.37.64 0 1.15.28t.85.77v-3.92h.97v8.76h-.87v-1.04q-.35.55-.89.85-.54.31-1.21.31m.13-.86q.56 0 .99-.27.44-.26.69-.74t.25-1.13-.25-1.13-.69-.75-.99-.27q-.81 0-1.34.57t-.53 1.5v.1q0 .64.24 1.12.25.48.67.74t.96.26m7.59.74v-.94h2.21v-5.92q0-.27-.16-.44t-.43-.16h-1.59v-.94h1.85q.58 0 .96.38.37.38.37.95v6.13h2.18v.94zm9.47.12q-.91 0-1.57-.29t-1.14-.74l.59-.69q.37.36.89.61.51.25 1.24.25.89 0 1.43-.44.54-.43.54-1.12 0-.66-.52-1.07t-1.41-.41h-1.2v-.89h1.13q.84 0 1.31-.44.48-.43.48-1.07 0-.67-.48-1.06t-1.28-.39q-.67 0-1.15.23t-.78.55l-.57-.71q.4-.4 1.05-.68t1.48-.28q.8 0 1.42.27t.96.77.34 1.18q0 .65-.33 1.18-.33.54-.95.82.75.28 1.13.82t.37 1.22q0 .71-.39 1.25-.38.53-1.05.83t-1.54.3m7.72-.12v-8.4h1.02v4.68l3.8-4.68h1.2L77 937.65l3.11 4.85h-1.23l-2.56-4.01-1.45 1.79v2.22zm7.17 0v-5.77h.93v.91q.33-.59.84-.81t.99-.22q.63 0 1.1.27.48.28.72.86.25-.44.59-.68t.71-.35q.36-.1.69-.1.93 0 1.52.6.59.61.59 1.86v3.43h-.95v-3.31q0-.89-.38-1.29-.39-.4-1.01-.4-.65 0-1.08.43-.43.44-.43 1.26v3.31h-.96v-3.31q0-.89-.38-1.29t-1-.4q-.65 0-1.09.43-.44.44-.44 1.26v3.31zm9.33 1.73 4.45-10.84h1l-4.47 10.84zm6.5-1.73v-8.76h.94v3.91q.35-.6.89-.82.55-.22 1.02-.22.97 0 1.57.63t.61 1.86v3.4h-.97v-3.25q0-.93-.42-1.34-.41-.41-1.05-.41-.66 0-1.14.45t-.48 1.31v3.24z"/><path fill="#0c322c" d="M26.93 967.65q-.86 0-1.5-.31-.64-.32-1.09-.85l.84-.84q.44.45.87.66.44.2.92.2.65 0 1.02-.3t.37-.79q0-.38-.21-.61-.21-.24-.55-.38t-.76-.26q-.41-.12-.82-.27-.4-.14-.74-.37t-.55-.6-.21-.94q0-.72.33-1.24.34-.53.94-.82t1.41-.28q.74 0 1.34.26t.99.7l-.85.86q-.33-.34-.69-.51t-.8-.17q-.6 0-.97.29-.36.29-.36.78 0 .36.21.57t.55.34q.35.13.76.24t.83.25.76.37.55.61.21.98q0 .74-.35 1.28-.35.55-.99.85-.63.3-1.46.3m3.78-.15 2.82-7.7h1.66l2.8 7.7h-1.38l-.66-1.89h-3.19l-.66 1.89zm2.45-3.04h2.38l-1.18-3.36zm6.44 3.04v-7.7h1.22l3.55 5.31v-5.31h1.36v7.7h-1.2l-3.59-5.33v5.33zm11.58 0v-6.41q0-.56.36-.93.37-.36.93-.36h3.67v1.23h-3.21q-.17 0-.28.12t-.12.28v1.88h3.35v1.21h-3.35v2.98zm6.83 0v-7.7h2.75q1.22 0 1.96.62t.74 1.8q0 .89-.42 1.46-.41.56-1.12.81l1.77 3.01h-1.55l-1.61-2.85h-1.18v2.85zm2.69-6.56h-1.35v2.58h1.35q.61 0 .99-.33t.38-.95q0-.59-.38-.94-.38-.36-.99-.36m4.04 6.56 2.82-7.7h1.66l2.81 7.7h-1.39l-.66-1.89h-3.19l-.66 1.89zm2.46-3.04h2.37l-1.17-3.36zm6.43 3.04v-7.7h1.22l3.56 5.31v-5.31h1.35v7.7h-1.2l-3.59-5.33v5.33zm12.08.15q-.82 0-1.55-.28-.72-.29-1.26-.82-.54-.52-.85-1.24-.3-.71-.3-1.58v-.16q0-.87.3-1.58.31-.72.85-1.24.54-.53 1.26-.82.73-.28 1.55-.28.77 0 1.41.24t1.13.68l-.86 1.02q-.69-.62-1.68-.62-.74 0-1.33.33-.58.33-.92.91-.33.59-.33 1.36v.16q0 .77.33 1.36.34.58.92.91t1.33.33q1.02 0 1.72-.66l.87 1.02q-.51.46-1.17.71t-1.42.25m3.94-.15v-1.23h1.29v-5.24h-1.29v-1.23h3.94v1.23h-1.3v5.24h1.3v1.23zm7.98.15q-.85 0-1.49-.31-.64-.32-1.09-.85l.83-.84q.45.45.88.66.43.2.92.2.65 0 1.02-.3.36-.3.36-.79 0-.38-.21-.61-.2-.24-.55-.38-.34-.14-.75-.26t-.82-.27-.75-.37-.55-.6-.21-.94q0-.72.34-1.24.34-.53.94-.82t1.41-.28q.74 0 1.34.26t.99.7l-.86.86q-.33-.34-.68-.51t-.8-.17q-.61 0-.97.29t-.36.78q0 .36.21.57t.55.34.76.24.83.25.75.37.56.61q.21.39.21.98 0 .74-.35 1.28-.35.55-.99.85-.63.3-1.47.3m8.29 0q-.83 0-1.55-.28t-1.26-.82q-.55-.52-.85-1.24-.3-.71-.3-1.58v-.16q0-.87.3-1.58t.85-1.24 1.26-.82q.72-.28 1.55-.28.77 0 1.4.24.64.24 1.14.68l-.86 1.02q-.69-.62-1.68-.62-.74 0-1.33.33t-.92.91q-.34.59-.34 1.36v.16q0 .77.34 1.36.33.58.92.91t1.33.33q1.02 0 1.71-.66l.87 1.02q-.5.46-1.16.71t-1.42.25m7.46 0q-1.09 0-1.95-.5t-1.36-1.39q-.49-.9-.49-2.08v-.08q0-1.18.49-2.07.5-.88 1.36-1.38t1.95-.5 1.94.5 1.35 1.38.49 2.07v.08q0 1.18-.49 2.08-.49.89-1.35 1.39t-1.94.5m0-1.32q.7 0 1.24-.32t.84-.92.31-1.41v-.08q0-.81-.31-1.4-.3-.6-.84-.91t-1.24-.32-1.25.32q-.55.31-.86.91-.3.59-.3 1.4v.08q0 .82.3 1.41.31.6.86.92.54.32 1.25.32m-85.6 17.82q-1.36 0-2.17-.7t-.81-2.11v-5.04h1.36v4.93q0 .85.44 1.26.45.41 1.18.41.75 0 1.2-.41t.44-1.26v-4.93h1.36v5.04q0 1.41-.82 2.11t-2.18.7m5.32-.15v-7.7h1.22l3.55 5.31v-5.31h1.35v7.7h-1.2l-3.58-5.33V984zm8.12 0v-1.23h1.28v-5.24h-1.28v-1.23h3.93v1.23h-1.29v5.24h1.29V984zm7.4 0v-6.47h-2.19v-1.23h5.76v1.23h-2.21V984zm6.4 0q-.56 0-.92-.36-.36-.37-.36-.93v-5.12q0-.56.36-.93.36-.36.92-.36h3.75v1.23h-3.3q-.16 0-.28.12-.11.11-.11.28v1.62h3.46v1.17h-3.46v1.65q0 .17.11.28t.28.12h3.3V984zm5.84 0v-7.7h2.77q1.09 0 1.96.48t1.35 1.32q.5.85.5 1.96v.12q0 .84-.29 1.54t-.81 1.21-1.21.79-1.5.28zm2.66-6.43H62.2v5.17h1.32q.74 0 1.31-.32t.9-.9.33-1.34v-.12q0-.75-.32-1.31t-.9-.87q-.57-.31-1.32-.31m11.07 6.58q-.86 0-1.5-.31-.63-.32-1.09-.85l.84-.84q.44.45.87.66.44.2.92.2.65 0 1.02-.3t.37-.79q0-.38-.21-.61-.21-.24-.55-.38t-.75-.26q-.42-.12-.82-.27-.41-.14-.75-.37t-.55-.6-.21-.94q0-.72.34-1.24.33-.53.93-.82t1.41-.28q.74 0 1.35.26.6.26.99.7l-.86.86q-.33-.34-.69-.51t-.8-.17q-.6 0-.96.29-.37.29-.37.78 0 .36.21.57t.56.34q.34.13.76.24.41.11.82.25t.76.37.55.61.21.98q0 .74-.35 1.28-.35.55-.98.85t-1.47.3m6.07-.15v-6.47h-2.19v-1.23h5.77v1.23h-2.21V984zm3.63 0 2.82-7.7h1.66l2.8 7.7h-1.38l-.66-1.89h-3.19l-.66 1.89zm2.45-3.04h2.38l-1.18-3.36zm7.1 3.04v-6.47h-2.19v-1.23h5.76v1.23H95.2V984zm6.4 0q-.56 0-.92-.36-.36-.37-.36-.93v-5.12q0-.56.36-.93.36-.36.92-.36h3.75v1.23h-3.3q-.16 0-.28.12-.11.11-.11.28v1.62h3.46v1.17h-3.46v1.65q0 .17.11.28t.28.12h3.3V984zm7.9.15q-.86 0-1.5-.31-.63-.32-1.09-.85l.84-.84q.44.45.87.66.44.2.92.2.65 0 1.02-.3t.37-.79q0-.38-.21-.61-.21-.24-.55-.38t-.75-.26q-.42-.12-.82-.27-.41-.14-.75-.37t-.55-.6-.21-.94q0-.72.34-1.24.33-.53.93-.82t1.41-.28q.74 0 1.35.26.6.26.99.7l-.86.86q-.33-.34-.69-.51t-.8-.17q-.6 0-.97.29-.36.29-.36.78 0 .36.21.57t.56.34.76.24.82.25.76.37.56.61.2.98q0 .74-.35 1.28-.35.55-.98.85t-1.47.3"/><svg xmlns="http://www.w3.org/2000/svg" id="dc-map" width="720" height="360" x="180" y="720" aria-hidden="true" class="dc-map-canvas" preserveAspectRatio="xMidYMid meet" viewBox="-185 -90 380 150"><path fill="#c8d8c8" fill-rule="evenodd" stroke="#6aaa8a" stroke-linecap="round" stroke-linejoin="round" stroke-width="0" d="m-59.5 80-7 .5 6-1zm-99.5-.5-4.5-1 4 .5zM-45 78l1.5 2-10.5.5 7.5-2.5zm-76-4.5h2.5-4zm-4.5 0 1.5.5-2.5-1zM-99 72l3 .5-6.5-.5h2zm30.5-1-.5 1h-6l3-1 1-2 2.5 1.5zM-180 84.5l37 .5-10.5-1.5.5-1.5-4-1 10.5-.5-9-1.5-3-2 7 .5 6.5-2.5 31-1.5 14 1.5-3.5-2.5L-76 74l7-1 2-1-1.5-2.5 1-2.5 9.5-3.5-7.5 4.5 3.5 2.5 1 3-9.5 3H-77l3.5 1.5-4.5 1 20 4 29.5-2.5-7-1-.5-1 18.5-3.5 2-2 8.5-2 34-.5 7-2 4.5 1.5 16-4 7 2H69l.5 1-1.5 3 2 .5 4-2.5 14-4 8 1.5 7-2 3 1.5 7.5-1 6.5 1.5 15-2 2.5 1.5h8l25.5 4.5-7.5 4.5 3.5 3h-5l-2 2 9.5 3 9 .5zM-68 54l3 .5-4 1-5.5-2.5 3.5 1 2.5-1zm9.5-3-2.5 1 2-.5zm129-1.5-2 .5.5-1.5zm75-8.5h3l-.5 2-2 .5-1.5-3zm27.5 0 1 .5-1 2.5-3.5 2.5-3-.5 6.5-5.5zm1.5-5 4 1.5-3.5 4-2.5-7 2 1zM167 22l-3-2 2.5 1.5zm11.37-4.66.35.29-.17.52-.62.14-.55-.13-.1-.44.4-.34.44.13zm-10.52-.87-.33.13-.34-.44.04-.27zm-.74-1.54.16.81-.27-.13-.2.06-.15-.28-.02-.76zM50 13.5 47 25h-3l.5-9 4.5-4 1 1zm93.5.5 9.5 12v5l-3 6.5-3.5 1.5-6-1-2.5-3.5-1 1 1-2.5-2 2-4.5-3.5L118 35l-3-1 .5-2.5-2-5.5.5-4 7-2.5 4.5-5.5 4 1 1-2.5 2-.5-.5-.5 4.5.5-1 3 4.5 2.5 2.5-7 1 3zm18.62-3.52.28.35-.7-.01-.38-.61.6.24zM120.5 10l-1.5-.5 2 .5Zm40.5 0-1.5-1 1 .5zm.5-.5-1-1 1 .5zm-37 .5 3-1.5-2.5 1zM118 8l1 .5-2.5.5 1-.5zm5 0-3 1 2-.5zm37 .5-2-1 1.5.5zm-2.46-1.15-.2.05-.44-.22-.4-.41.04-.17.6.42zM108.5 7l7 1.5-10-1.5 3-.5zm26.23-.79-.52.68-.1-.75.18-.36.2-.34.24.3zM156 7l-1.5-2 1.5 1.5Zm-4-1.5h-3.5l4-.5zm-25-2-1-.5h1zm3.5-.5-2.5.5 1.5-.5ZM153 4.5l-2.5-2L153 4ZM134 1l1.5 2.5 3-2 6 2.5 6 6.5-6-3-2 2-5-1 .5-3-5-1.5-1-1 1.5-1-3-1zm-9-2.5L120 0l1 1.5 2.5-1-2 1.5 1.5 3.5-2-3-1.5 3 .5-6zm3.5.5-.5 2-.5-2 1-.5zM106 6l-3.5-2-7-9.5 7 4 3.5 6zm12-8 1 1-3 5-6-1-1-2.5.5-2.5 3.5-1 3.5-4 2.5 1.5-1.5 2.5.5.5zm8.5-6.5-1 3-2-2.5-1.5 1 3.5-3 1 1zM81-6l-1-1v-3l1.5 3.5zm-142-4h-1l1-1zm185-.5-1.5 1L124-11zm-5.5 1-1.5 1 2.5-3-.5 1.5zM122-12l1 .5h-1zm3.5 0-.5 2v-2.5zm-3.97-1.07-.27.86-.43-.5-.5-.76.85.04zm-.03-5.43 1 1.5-1 2.5 2.5 2-3.5-1.5v-4.5zm-187 .5H-67l1-.5zM-77-18h-1.5 2.5zm4.5-2 4 1.5-5.5.5 1.5-.5-.5-1.5zm183 1.5-2-1h2zm-266-.5-.5-1.5 1 1.5zm-.58-1.64-.34.07-.17-.21-.11-.08-.01-.07.1-.08.35.1.27.15zm-.68-.54-.03.11-.54-.03.08-.12zm-.9-.14-.05.06-.07-.02-.35-.03-.12-.23-.04-.04.26-.14.09.07zm-1.69-.66-.12.1-.33-.18.05-.08.15-.1.24.02zM-79.5-23l5.5 2.5-4 .5-4-2.5-3 .5 4.5-1zm2-1-.5-1 .5.5zM121-23l-1-.5 2-1zm-199-3.5-1-.5h1zm1-.1-.17.72-.19-.13.02-.52-.45-.4v-.1zM134.5-34l-2 1 1.5-1.5zm-100-1.5-2 .5 1-.5zm-11 0h3zm-8-2.5-.5 1.5-2.5-1L15-38ZM9-41v2l-.5-2zm132 4-.5 2-4.5 1.5-1-1-4 .5 1 1-2 1.5-.5-2 6-2 6-6-.5 3.5zM9.56-42.15l-.33.77-.45-.2-.24-.68.2-.37.65-.38zM144-44l1.5.5-5.5 2 2-4 1 1zm-207.5-2.5h1.5l-2-.5zM-62-49l-2.5-1 2.5.5zm-61.5.5-5-2 4.5 1.5zm67.5-2-1 .5 3.5 1 .5 2.5-6.5-1 4-4zm-76.5-3.5 1.5 2-2-2zm276 3.5 1 1.5-1.5-.5.5 3.5H142l.5-8.5.5 2.5zM-7-52.5l-3 .5.5-2 3-1 .5 2zm19.5-3H11l1.5-.5ZM-153-57l-1.5-.5h2.5zm150-1.5-1 1h2L-3-56l4.5 3.5v1L-5-50l1.5-1.5-2-.5 1-1.5L-3-54l-3-3 2-1.5zM-165.5-60h-2l2-.5zm86.23-2.16-.39.53-.44-.09-.26-.3.04-.07.39-.3.41.03zM-82-62.5h-2l2-.5zm-89.5-1.5 3 .5h-3.5zm86.5-1.5 5 2h-7l1-2zm70.5-1 1 1.5-5 1.5-6-2 8.5-1zM-76-67l-1-.5h2zm-104-2 10 3-3 1.5-7-1.5m360 1-2.5.5 1.5 2-8.5 2.5h-7l-1.5 2 1 .5-1 2.5-5 4-1-6 8.5-5.5-4.5 2-3.5-1L154-60l1 1h-13l-7 4.5 5 .5 1.5 2-3.5 5.5-10.5 6.5 1.5 5-2.5.5-1-5-4.5.5.5-2-3.5 2 1 1.5h3.5L119-35l3 3.5-.5 3.5-5.5 5-5.5 2.5-2-1L106-20l3.5 6.5-.5 2-4 3-5-5L99-9l4 3.5 1 4-2.5-1.5-3-5-1.5-9-3 1-2.5-7-4.5 1.5-6.5 5.5-.5 5.5L77.5-8l-5-13.5-2 .5-4-4.5h-9l-1-1.5-5-1-1.5-2h-2l4 6 4.5-2.5.5 2.5 3 1.5-4.5 5.5-12 4.5-1-4.5L35-29.5l-1 2-1.5-2.5 5 11.5 5 7 2 1L51-12v1.5L47.5-4 39 4.5l2 10-6 5.5.5 4-3 1.5L32 29l-4 4-8.5 2L12 18l1.5-7.5L12 5 9 1l.5-4.5-3.5-1-1.5-2L-9-5l-7.5-7-.5-10 11-14 15.5-1.5 1.5.5-.5 3 8.5 3.5 2.5-2.5L34-31l2-5.5h-8.5l-1.5-3 7.5-2.5 5 1 3-1-5-3 2.5-2.5-4 1 1.5 1.5-2.5.5-1.5-1 1-.5-3-.5-3 4L29-41l-6.5.5 1.5 3-1.5 1-3-5-6.5-4-.5 1.5 6 4-1.5-.5-1 2.5-.5-2L9-44.5 3-43l-5 6.5-7-.5-.5-6 8-1 .5-2-3.5-2.5h3L-2-50l10-3.5.5-3.5 2-.5-1 2L11-54l8.5-.5 2-3 2.5.5-.5-2 5.5-1-7.5-.5V-63l4-2-3.5-.5-4 3-1 1 2 1.5-3 4-3 .5-2.5-4-5 1 .5-4L19-70l5.5-1L41-67.5 38.5-66l-5.5-.5 4 2.5v-1l7-1-.5-2.5 3 .5v1.5l7-2.5 6.5.5.5-1.5 8 2-2-3 2.5-2h3.5l-.5 1.5 1.5 3-2 2 1 .5 2.5-2-2-3.5 1.5-1.5 2 2 5-.5-1-2 24-4L114-76l-4.5 2 17.5.5 4.5 2.5 8.5-.5-1-1 1.5-.5 18.5 2 2 1.5h17.5zM49-41.5l1.5 1-1.5 3 5 .5-1.5-3 2-1-1-1-.5 1-2.5-3.5 2.5-1V-47l-6.5 2.5 2 2.5zM-95.5-69l-4.5-.5h3.5zM180-71h-1.5zm-270.5 1.5 3 2.5 2-3 3 .5 1 2L-93-62l-1.5 3 2 2 10 2 2.5 4 1.5-1.5-1.5-2 3.5-2-2-2.5 1-1-.5-2.5h4l4.5 1.5 2 3 3-2.5 2.5 4 4.5 2 2 2.5-4.5 2h-6.5l-4.5 3 6-2 .5 3 4-1 .5 1-5.5 2.5-.5-1 1.5-1-2.5.5-3.5 2 .5 1.5-5.5 2-.5 2.5-.5-2 1 3.5-6 4 1 6.5-3.5-5-10 .5-2.5 1-1.5 6 1.5 3 4.5 1 1.5-2.5 3.5-.5-2 5.5 5.5.5-.5 4.5 2.5 2 4.5.5 5-4 .5 3.5 1.5-3 2 1.5h6l5 4.5 5.5 2 1 4 6 2.5 4.5.5 4.5 2 1 2.5-4 5.5-2.5 9-6.5 3-1.5 3.5-5 6-4.5-.5 1.5 3-5.5 2v2H-65l1.5 1.5-4 3L-66 48l-3 2.5 1 2-3 1.5-4-1.5-.5-4L-74 47l-1.5-.5 3-4-2 .5 4.5-23-6-5.5-5.5-8.5 1.5-3.5-1-1.5 4-5-1-4.5-1.5-.5-1.5 2-4.5-3-2-3.5-16-5L-115-32l5.5 9-2.5-1.5-5.5-8.5-3-1.5-4-6V-48l2 1-.5-2-4.5-2-6.5-7-13-3-4.5 2 1-2.5-8 5.5-6.5 1.5 8-4.5-5 .5-4-3 5-3.5-7-.5 6.5-.5-5.5-2.5 10.5-3 20 2.5 8.5-1.5 19 3 3-1.5 4.5 1.5 4-1 1.5 1 2-1.5-2.5-1 1.5-2 3.5 2-1 .5zM-114-73l6 1.5-.5-1.5h2l5.5 3-1.5 1-11 .5-4-1.5 5-.5-7-1 4.5-2zm9.5-.5h-2.5 1.5zm28 .5-4.5-.5h3zm-10 0 4-1 1.5 2 9 .5 5 2.5-2 .5 7 1.5-2 2-4-1.5 3.5 3H-69l3 1.5-9-2.5-2.5.5-.5-1.5h4l1-2-6-2.5-11-1 .5-2 3.5-1zm-14-1h3l1 2.5-6-1h2l-1-1zm244 1-3.5-.5h3.5zM-93-73l-2.5 1-.5-1.5 5.5-.5-1.5 1zm-27.5 1.5-5.5-.5 2-1.5-1-1 9.5 1-5 1.5zm271-3.5H146l2-.5zm-244 0H-97l3-.5zm238.5-.5h-8l4.5-.5zm-243.5-1 .5 1.5-4.5-.5zm-9.5.5 2.5.5-12 .5 2-1.5 6.5 1-1.5-1h2zm165.5 5.5-6-1.5 4-3L69-76.5l-10.5 2-3 3zm-152-6.5 14.5 2h-12.5l-4-2zm-21.5-.5-7 1.5 5.5-1.5zm22 0-2.5-.5 3 .5zm-16 0h-3.5l3.5-.5zM24.5-78l-4 .5 3-.5zm-134-.5h-3l1.5-.5zm13.5.5-2.5-1 3 .5zm-4-.5-5.5-1 4.5.5zm205 0-5.5.5 2.5-1.5 3.5 1zm-86.5-1 3 .5-5.5 2-5.5-2.5L17-80zm7-1 2 .5-10-.5H23Zm25.5 0h-6 6.5zm49 1.5-9-1.5 5-1 4 1.5zm-187-.5h1l-5 1.5-5.5-2 4-1.5 4.5 1zm18.5-3.5 6.5.5-15 3 1.5 1-5 2.5-9-.5 1-1.5 3.5.5-3-1 3-1-2-1h5l-9.5-1.5 21-1zm41.5-.5 6 1-11 .5 20 .5-8 1.5h2.5l-2 1 1 2-3 .5 2 2-5.5 2 3 2-3.5-1-1 1.5h4L-40-65.5l-3.5 5.5-5-1-3-2.5L-54-67l3-3-3.5.5V-71l3 .5-4.5-1 1.5-1-4-3-10-.5-3-1 4.5-.5-6.5-.5 8-1.5-2.5-.5 5.5-2 18 .5-2.5-1 12-1z"/><g opacity=".95"><circle cx="-122.42" cy="-37.77" r="6" fill="#0c322c" opacity=".18"/><circle cx="-122.42" cy="-37.77" r="4" fill="none" stroke="#0c322c" stroke-width="1.2" opacity=".85"/><circle cx="-122.42" cy="-37.77" r="2.2" fill="#0c322c"/></g></svg><path fill="#0c322c" d="M937.16 884.69q-3.35 0-5.77-1.91-2.42-1.92-3.72-5.46-1.29-3.54-1.29-8.47 0-4.88 1.29-8.45 1.3-3.56 3.72-5.48 2.42-1.91 5.77-1.91 3.38 0 5.83 1.91 2.44 1.92 3.74 5.48 1.29 3.57 1.29 8.45 0 4.93-1.29 8.47-1.3 3.54-3.74 5.46-2.45 1.91-5.83 1.91m0-1.94q4.09 0 6.44-3.69 2.36-3.7 2.36-10.21t-2.36-10.21-6.44-3.69q-4.05 0-6.38 3.69-2.34 3.7-2.34 10.21t2.34 10.21 6.38 3.69m14.78-6.55v-1.76l11.04-20.99h2.2l-10.86 20.81h12.18v-8.75h2.07v8.75h5.37v1.94h-5.37v8.05h-2.07v-8.05zm26.05-9.59v-3.26h2.46v3.26zm0 17.64v-3.26h2.46v3.26zm16.81.44q-3.44 0-5.79-1.06-2.35-1.05-3.89-2.5l1.27-1.5q1.28 1.28 3.32 2.24t5.13.97q2.46 0 4.33-.86 1.87-.85 2.93-2.37t1.06-3.5q0-2.86-2.29-4.66t-6.34-1.81h-4.18v-1.89h4.05q2.55 0 4.31-.9t2.69-2.42.92-3.32q0-2.86-2.11-4.54-2.11-1.67-5.46-1.67-2.73 0-4.6.88t-2.83 1.89l-1.19-1.54q1.19-1.14 3.41-2.13t5.26-.99q2.81 0 4.99.97t3.39 2.73 1.21 4.18q0 2.59-1.5 4.68-1.49 2.09-4.27 3.02 3.26.79 4.93 2.83t1.67 4.82q0 2.51-1.32 4.4t-3.69 2.97-5.41 1.08m26.75 0q-3.13 0-5.46-1.25-2.33-1.26-3.58-3.55-1.26-2.28-1.26-5.36 0-2.03.64-3.79t1.74-3.3l9.85-13.99h2.64l-8.88 12.23q1.05-.61 2.26-.88 1.21-.26 2.44-.26 2.91 0 5.13 1.27 2.22 1.28 3.5 3.55t1.27 5.21q0 2.99-1.32 5.28t-3.63 3.56-5.34 1.28m-.05-1.89q2.42 0 4.27-1.06 1.85-1.05 2.91-2.9 1.05-1.85 1.05-4.23 0-2.42-1.03-4.29-1.04-1.87-2.86-2.92-1.83-1.06-4.16-1.06-2.51 0-4.38 1.06-1.87 1.05-2.9 2.9-1.04 1.85-1.04 4.31 0 3.7 2.23 5.94t5.91 2.25"/><path fill="#0c322c" fill-opacity=".5" d="M926.34 911.25v-6.47h-2.19v-1.23h5.77v1.23h-2.21v6.47zm8.4.15q-1.37 0-2.18-.7-.8-.7-.8-2.11v-5.04h1.35v4.93q0 .85.44 1.26.45.41 1.19.41t1.19-.41.45-1.26v-4.93h1.35v5.04q0 1.41-.82 2.11t-2.17.7m6.74-.15q-.56 0-.92-.36-.36-.37-.36-.93v-5.12q0-.56.36-.93.36-.36.92-.36h3.75v1.23h-3.3q-.16 0-.28.12t-.12.28v1.62H945v1.17h-3.47v1.65q0 .17.12.28t.28.12h3.3v1.23zm8.12.15q-.86 0-1.5-.31-.64-.32-1.09-.85l.84-.84q.44.45.87.66.44.2.92.2.65 0 1.02-.3t.37-.79q0-.38-.21-.61-.21-.24-.55-.38t-.76-.26-.81-.27q-.41-.14-.75-.37t-.55-.6-.21-.94q0-.72.33-1.24.34-.53.94-.82t1.41-.28q.74 0 1.34.26t.99.7l-.85.86q-.33-.34-.69-.51t-.8-.17q-.6 0-.97.29-.36.29-.36.78 0 .36.21.57t.55.34q.35.13.76.24t.83.25q.41.14.76.37.34.23.55.61.21.39.21.98 0 .74-.35 1.28-.35.55-.98.85-.64.3-1.47.3m4.95-.15v-7.7h2.77q1.09 0 1.95.48.87.48 1.36 1.32t.5 1.96v.12q0 .84-.29 1.54t-.81 1.21-1.21.79-1.5.28zm2.66-6.43h-1.32v5.17h1.32q.74 0 1.31-.32t.9-.9.33-1.34v-.12q0-.75-.32-1.31-.33-.56-.9-.87t-1.32-.31m5.09 6.43 2.82-7.7h1.66l2.8 7.7h-1.38l-.66-1.89h-3.19l-.66 1.89zm2.45-3.04h2.38l-1.18-3.36zm7.67 3.04v-3.19l-2.73-4.51h1.47l1.94 3.21 1.95-3.21h1.46l-2.72 4.51v3.19zm-48.3 20.5 2.93-7.7h1.13l2.93 7.7h-.97l-.78-2.1h-3.49l-.79 2.1zm2.05-2.9h2.88l-1.43-3.86zm6.31 2.9v-5.29h.85v.84q.31-.54.77-.75t.91-.2q.57 0 1.01.25.43.26.65.78.23-.39.55-.62.31-.22.65-.32.33-.09.63-.09.86 0 1.4.55.53.56.53 1.7v3.15h-.86v-3.04q0-.81-.36-1.18-.35-.37-.92-.37-.6 0-.99.4-.4.41-.4 1.15v3.04h-.88v-3.04q0-.81-.34-1.18t-.92-.37q-.6 0-1 .4t-.4 1.15v3.04zm12.27.11q-.78 0-1.38-.35t-.94-.96-.33-1.42v-.11q0-.77.3-1.37.31-.6.87-.95t1.3-.35q.76 0 1.3.37.54.38.8 1.05.25.68.14 1.6h-3.82q.03.47.25.85.23.38.62.6.39.23.92.23.42 0 .74-.1.33-.1.57-.32l.5.55q-.3.33-.78.5-.48.18-1.06.18m-.18-4.74q-.66 0-1.07.42t-.5 1.11h2.97q-.01-.73-.4-1.13-.38-.4-1-.4m3.96 4.63v-5.29h.86v.85q.2-.51.59-.69t.87-.18h.45v.88h-.51q-.65 0-1.01.32t-.36.98v3.13zm4.68 0v-4.52h-1.04v-.77h1.91v5.29zm-.06-6.46v-1.27h.99v1.27zm5.39 6.57q-.78 0-1.4-.34t-.96-.95-.35-1.4v-.14q0-.79.36-1.39.35-.61.96-.95t1.39-.34q.58 0 1.06.21.48.22.81.6l-.55.55q-.51-.54-1.32-.54-.53 0-.94.24t-.65.64q-.24.42-.24.98v.14q0 .56.25.98.24.42.65.65t.94.24q.8 0 1.33-.53l.54.54q-.32.38-.81.6t-1.07.21m5.05 0q-.9 0-1.45-.44t-.54-1.14q0-.47.27-.83.28-.36.76-.58.47-.21 1.07-.21.87 0 1.39.36v-.66q0-.65-.34-.93t-.91-.28q-.43 0-.87.16-.45.16-.77.49l-.42-.63q.36-.4.93-.61t1.18-.21q.93 0 1.5.49.58.5.58 1.48v1.69q0 .88.03 1.74h-.79l-.01-.53q-.5.64-1.61.64m.23-.67q.6 0 .94-.25.34-.26.34-.66t-.34-.66-.95-.25-.96.25-.35.66q0 .39.36.65.35.26.96.26m3.21 2.14 4.08-9.93h.92l-4.1 9.93zm7.51-1.58q-.53 0-.87-.35-.35-.34-.35-.87v-6.48h.94v6.23q0 .25.16.41.17.17.42.17h3.07v.89zm6.79.11q-.76 0-1.35-.35t-.94-.96-.34-1.42v-.1q0-.78.34-1.39t.94-.95 1.35-.34 1.35.34.94.94.34 1.38v.12q0 .81-.34 1.42-.34.62-.94.96-.59.35-1.35.35m0-.79q.52 0 .91-.25t.61-.68.22-1.01v-.12q0-.82-.48-1.35-.49-.52-1.26-.52-.5 0-.9.24-.4.25-.62.67-.23.43-.23.98v.1q0 .57.23 1.01.22.43.62.68t.9.25m5.81.78q-.58 0-1.09-.18t-.83-.47l.39-.62q.3.26.71.41.4.16.82.16.5 0 .8-.23t.31-.59q0-.31-.21-.48t-.53-.26l-.68-.19q-.36-.09-.69-.25-.32-.15-.52-.44-.21-.28-.21-.78 0-.69.53-1.14.52-.44 1.4-.44.49 0 .94.15t.77.39l-.39.61q-.29-.2-.62-.33-.34-.12-.71-.12-.48 0-.77.23-.3.22-.3.59 0 .31.21.47.21.17.53.26l.7.2q.36.09.69.25t.54.45.2.79q0 .46-.25.81t-.71.55-1.03.2m5.7-.1 2.92-7.7h1.14l2.92 7.7h-.97l-.78-2.1h-3.48l-.79 2.1zm2.04-2.9h2.89l-1.43-3.86zm6.32 2.9v-5.29h.86v.85q.32-.55.82-.76t.92-.2q.9 0 1.45.58.56.57.56 1.71v3.11h-.89v-2.98q0-.85-.38-1.23t-.97-.38-1.04.42-.44 1.2v2.97zm6.09 2.2v-.75h3.16q.37 0 .58-.18t.21-.51q0-.31-.21-.48t-.58-.17h-1.74q-.42 0-.63-.2t-.24-.49.12-.6l.36-.71q-.41-.25-.64-.66-.23-.4-.23-.89v-.1q0-.55.29-.97t.8-.65q.51-.24 1.17-.24l.24.01.54-1.11h.89l-.68 1.26q.59.21.93.65t.35 1.03v.12q0 .56-.29.99t-.81.67q-.51.25-1.17.25-.35 0-.68-.08l-.26.52q-.08.14-.05.31.02.18.3.18h1.55q.67 0 1.09.34t.42 1.03q0 .63-.43 1.03-.42.4-1.12.4zm2.42-4.42q.32 0 .64-.12t.54-.39.22-.77q0-.53-.39-.85t-1.01-.32-1 .32-.39.85q0 .49.22.77t.54.39.63.12m6.27 2.33q-.78 0-1.38-.35t-.93-.96-.34-1.42v-.11q0-.77.31-1.37t.87-.95 1.3-.35q.76 0 1.29.37.54.38.8 1.05.26.68.15 1.6h-3.83q.04.47.26.85.23.38.62.6.39.23.92.23.41 0 .74-.1.32-.1.56-.32l.51.55q-.31.33-.79.5-.47.18-1.06.18m-.17-4.74q-.66 0-1.08.42-.41.42-.5 1.11h2.97q-.01-.73-.39-1.13-.39-.4-1-.4m5.37 4.63q-.64 0-1.03-.37t-.39-.98v-5.92h-.97v-.76h1.86v6.69q0 .25.16.42.17.16.42.16h.51v.76zm4.19.11q-.79 0-1.39-.35t-.93-.96-.34-1.42v-.11q0-.77.31-1.37t.87-.95 1.3-.35q.76 0 1.3.37.54.38.79 1.05.26.68.15 1.6h-3.83q.04.47.26.85.23.38.62.6.39.23.92.23.42 0 .74-.1t.57-.32l.5.55q-.31.33-.78.5-.48.18-1.06.18m-.18-4.74q-.66 0-1.07.42t-.5 1.11h2.97q-.02-.73-.4-1.13t-1-.4m5.42 4.73q-.58 0-1.09-.18t-.83-.47l.39-.62q.3.26.71.41.4.16.82.16.5 0 .81-.23.3-.23.3-.59 0-.31-.21-.48t-.52-.26l-.69-.19q-.36-.09-.68-.25-.33-.15-.53-.44-.2-.28-.2-.78 0-.69.52-1.14t1.4-.44q.5 0 .94.15.45.15.78.39l-.4.61q-.29-.2-.62-.33-.34-.12-.71-.12-.47 0-.77.23-.3.22-.3.59 0 .31.21.47.21.17.53.26l.7.2q.37.09.7.25t.53.45.2.79q0 .46-.25.81t-.7.55-1.04.2m6.54-2.62v-1.21h1.07v1.21zm-112.19 19.02v-7.7h2.38q1.16 0 1.87.61t.71 1.71-.71 1.7-1.87.61h-1.45v3.07zm2.43-6.89h-1.5v3.03h1.5q.71 0 1.16-.41.44-.42.44-1.11t-.44-1.1-1.16-.41m4.26 6.89v-7.7h2.59q1.08 0 1.93.47.84.48 1.34 1.32.49.84.49 1.93v.13q0 .85-.28 1.55t-.8 1.22-1.19.8q-.69.28-1.49.28zm2.52-6.82h-1.59v5.94h1.59q.83 0 1.48-.38t1.02-1.05.38-1.54v-.13q0-.85-.37-1.49-.37-.63-1.02-.99t-1.49-.36m6.79 6.82v-6.84h-2.32v-.86h5.61v.86h-2.34v6.84z"/></svg>