<svg xmlns="http://www.w3.org/2000/svg" width="1080" height="1080" viewBox="0 0 1080 1080"><path fill="#f5f5f0" d="M0 0h1080v1080H0z"/><path fill="#0c322c" fill-opacity=".5" d="M890.36 45v-7.26h-2.46V36.6h6.19v1.14h-2.47V45zm8.97.16q-1.45 0-2.32-.77-.87-.76-.87-2.26V36.6h1.25v5.44q0 .96.53 1.45.53.5 1.41.5.89 0 1.43-.5.53-.49.53-1.45V36.6h1.25v5.53q0 1.5-.88 2.26-.87.77-2.33.77m7.37-.16q-.6 0-.98-.38-.39-.39-.39-.99v-5.66q0-.6.39-.99.38-.38.98-.38h3.97v1.14h-3.57q-.23 0-.38.16-.15.15-.15.38v1.96h3.85v1.09h-3.85v1.99q0 .23.15.38.15.16.38.16h3.57V45zm8.71.16q-.91 0-1.59-.34-.67-.34-1.14-.89l.77-.78q.46.49.96.72t1.05.23q.78 0 1.23-.38t.44-.98q0-.44-.23-.72t-.62-.44q-.37-.17-.83-.29-.46-.13-.91-.29-.46-.15-.84-.4-.37-.24-.61-.64t-.23-1.02q0-.77.35-1.33.36-.55 1-.86.65-.31 1.52-.31.78 0 1.4.27t1.03.73l-.79.8q-.36-.37-.76-.55-.39-.19-.9-.19-.73 0-1.17.37-.45.36-.45.95 0 .42.24.67t.62.41.84.27.92.26.84.41q.38.25.62.66t.23 1.06q0 .8-.38 1.38-.37.58-1.05.9-.67.32-1.56.32m5.4-.16v-8.4h2.93q1.18 0 2.11.52.94.52 1.48 1.44t.54 2.12v.13q0 .93-.31 1.69-.31.77-.88 1.33-.56.56-1.31.86-.75.31-1.63.31zm2.84-7.22h-1.59v6.04h1.59q.85 0 1.51-.37.67-.38 1.05-1.06.39-.68.39-1.58v-.13q0-.86-.38-1.52t-1.04-1.02-1.53-.36m5.56 7.22 3.14-8.4h1.52L937 45h-1.28l-.79-2.17h-3.64L930.5 45zm2.46-3.24h2.87l-1.43-3.94zm8.52 3.24v-3.52l-3.02-4.88h1.36l2.29 3.68 2.3-3.68h1.36l-3.03 4.88V45zm4.78 0v-1.48h1.42v2.25q0 .39-.16.61t-.4.3-.48.08h-.43v-.68h.43q.15 0 .23-.1.07-.09.07-.22V45zm6.68 0v-1.14h1.78q.32 0 .54-.22.22-.21.22-.54v-5.36h-2.14V36.6h3.4v6.38q0 .99-.55 1.5-.55.52-1.58.52zm9.82.16q-1.45 0-2.32-.77-.87-.76-.87-2.26V36.6h1.25v5.44q0 .96.52 1.45.53.5 1.42.5t1.42-.5.54-1.45V36.6h1.24v5.53q0 1.5-.87 2.26-.88.77-2.33.77m7.4-.16q-.58 0-.97-.38-.39-.39-.39-.99V36.6h1.24v6.68q0 .23.16.39.16.15.38.15h3.38V45zm6.75 0v-3.52l-3.03-4.88h1.36l2.29 3.68 2.31-3.68h1.35l-3.02 4.88V45zm9.97 0 3.74-7.28h-4.46V36.6h5.83v.85L986.98 45zm7.38 0v-1.48h1.42v2.25q0 .39-.16.61t-.4.3-.48.08h-.43v-.68h.43q.15 0 .23-.1.07-.09.07-.22V45zm7.16 0v-.92l3.02-3.05q.6-.59.81-1.05t.22-.91q0-.65-.39-1.03t-1.06-.38q-.56 0-1.03.3t-.85.86l-.81-.78q.48-.73 1.18-1.15t1.54-.41q.81 0 1.41.31.61.31.94.87.34.56.34 1.29 0 .64-.31 1.31t-1.12 1.49l-2.12 2.13h3.89V45zm10.98.12q-1.45 0-2.28-1.13-.82-1.14-.82-3.18t.82-3.19 2.28-1.14q1.47 0 2.29 1.14t.82 3.19-.82 3.18-2.29 1.13m0-1.13q.89 0 1.38-.81t.48-2.37-.48-2.38q-.49-.82-1.38-.82t-1.37.82-.49 2.38q0 1.55.49 2.37.49.81 1.37.81m5.34 1.01v-.92l3.02-3.05q.6-.59.81-1.05t.22-.91q0-.65-.39-1.03t-1.06-.38q-.56 0-1.03.3t-.85.86l-.81-.78q.48-.73 1.18-1.15t1.54-.41q.81 0 1.41.31.61.31.94.87.34.56.34 1.29 0 .64-.31 1.31t-1.12 1.49l-2.12 2.13h3.89V45zm11.06.12q-.93 0-1.61-.35-.67-.36-1.05-1.01-.37-.64-.37-1.52 0-.58.23-1.15t.62-1.14l2.33-3.35h1.49l-2.27 3.08q.41-.15.88-.15.8 0 1.42.36t.97.98q.34.63.34 1.44 0 .85-.37 1.48-.38.63-1.05.98-.68.35-1.56.35m-.03-1.08q.78 0 1.27-.48.48-.48.48-1.25t-.48-1.25q-.49-.49-1.24-.49-.8 0-1.28.49-.49.48-.49 1.25 0 .78.48 1.26.48.47 1.26.47"/><path fill="#0c8c5c" d="M28.51 261v-44.54q0-6.72 3.07-11.81 3.08-5.09 8.5-7.97t12.43-2.88h11.71v18.72H53.76q-2.11 0-3.26 1.25-1.16 1.25-1.16 3.36v9.41h14.88V261zm41.28 0v-44.54q0-6.72 3.07-11.81 3.08-5.09 8.5-7.97t12.43-2.88h11.71v18.72H95.04q-2.11 0-3.26 1.25-1.16 1.25-1.16 3.36v9.41h14.88V261z"/><path fill="#0c322c" d="M31.28 358.8v-56h18.4q8 0 12.52 3.8t4.52 10.12q0 4.56-2.36 8.2t-7.08 5q5.36 1.28 8.36 4.96t3 8.56q0 6.96-4.68 11.16t-13.72 4.2zm17.92-51.44H36.56v20.48h13.2q5.6 0 8.6-2.96t3-7.6q0-4.48-3.24-7.2t-8.92-2.72m1.2 24.88H36.56v22h12.96q6.8 0 10.2-3.08t3.4-8.12q0-4.64-3.48-7.72t-9.24-3.08m43.44 27.36q-5.6 0-9.92-2.52t-6.72-6.96-2.4-10.28v-.8q0-5.6 2.24-9.92t6.2-6.84 9.24-2.52q5.36 0 9.2 2.64t5.64 7.44 1.08 11.2H79.84q.16 3.92 1.96 7.08t4.92 4.96 7.28 1.8q6.32 0 9.92-3.12l2.88 3.28q-2.16 2.16-5.56 3.36t-7.4 1.2m-1.36-35.36q-5.28 0-8.6 3.44t-3.96 9.12h23.68q.08-5.76-3-9.16t-8.12-3.4m33.76 34.56q-4.4 0-7.08-2.56t-2.68-6.8V304.8h-7.36v-4.4h12.48v49.12q0 2.08 1.4 3.48t3.48 1.4h3.44v4.4zm11.84 0v-33.76h-7.68v-4.48h12.72v38.24zm-.32-47.04v-8.64h5.68v8.64zm32.88 47.84q-5.6 0-9.92-2.52t-6.72-6.96-2.4-10.28v-.8q0-5.6 2.24-9.92t6.2-6.84 9.24-2.52q5.36 0 9.2 2.64t5.64 7.44 1.08 11.2h-28.56q.16 3.92 1.96 7.08t4.92 4.96 7.28 1.8q6.32 0 9.92-3.12l2.88 3.28q-2.16 2.16-5.56 3.36t-7.4 1.2m-1.36-35.36q-5.28 0-8.6 3.44t-3.96 9.12h23.68q.08-5.76-3-9.16t-8.12-3.4m33.84 34.56-15.44-38.24h5.28l12.88 32.16 12.8-32.16h5.28l-15.36 38.24zm42.48.8q-5.6 0-9.92-2.52t-6.72-6.96-2.4-10.28v-.8q0-5.6 2.24-9.92t6.2-6.84 9.24-2.52q5.36 0 9.2 2.64t5.64 7.44 1.08 11.2H231.6q.16 3.92 1.96 7.08t4.92 4.96 7.28 1.8q6.32 0 9.92-3.12l2.88 3.28q-2.16 2.16-5.56 3.36t-7.4 1.2m-1.36-35.36q-5.28 0-8.6 3.44t-3.96 9.12h23.68q.08-5.76-3-9.16t-8.12-3.4m35.44 50.56v-4.4h7.28q2 0 3.16-1.4t1.88-3.24l2.96-6.64-15.84-38.56h5.6l12.96 32.32 12.56-32.32h5.6l-18.64 45.36q-.88 2.16-2.12 4.2t-3.24 3.36-5.12 1.32zm57.44-15.2q-5.44 0-9.68-2.52t-6.64-6.96-2.4-10.28v-.72q0-5.68 2.4-10.04t6.64-6.84 9.68-2.48q5.36 0 9.6 2.48t6.64 6.8 2.4 9.92v.88q0 5.84-2.4 10.28t-6.64 6.96-9.6 2.52m0-4.56q4 0 7.04-1.96t4.76-5.36 1.72-7.88v-.88q0-4.32-1.72-7.6t-4.76-5.16-7.04-1.88-7.08 1.92-4.84 5.24-1.76 7.64v.72q0 4.48 1.76 7.88t4.84 5.36 7.08 1.96m41.28 4.56q-4.24 0-7.6-1.64t-5.28-5.12-1.92-9.16v-23.12h5.04v22.32q0 6.72 3.04 9.36t7.6 2.64q3.12 0 5.76-1.4t4.28-4.16 1.64-7v-21.76h4.96v38.24h-4.64v-6.32q-2.32 4-6 5.56t-6.88 1.56m62.88 0q-5.68 0-10.08-2.48t-6.88-6.84-2.48-10.12v-1.04q0-5.68 2.52-10.04t6.88-6.84 10.04-2.48q4.16 0 7.52 1.48t5.76 4.12l-3.2 3.2q-3.92-4.08-10.16-4.08-4.16 0-7.4 1.84t-5.08 5.16-1.84 7.64v1.04q0 4.4 1.88 7.72t5.12 5.16 7.4 1.84q6.24 0 10.24-4.08l3.12 3.2q-2.4 2.64-5.8 4.12t-7.56 1.48m32.08 0q-6.64 0-10.56-3.12t-3.92-8.16q0-3.36 1.92-5.92t5.32-4.04 7.8-1.48q3.52 0 6.2.84t4.52 2.36v-5.92q0-5.2-2.64-7.48t-7.12-2.28q-3.2 0-6.52 1.16t-5.56 3.72l-2.48-3.6q2.56-2.96 6.56-4.44t8.24-1.48q6.56 0 10.56 3.52t4 10.64v12.16q0 6.4.24 12.72h-4.56l-.08-4.16q-3.44 4.96-11.92 4.96m1.2-3.92q4.88 0 7.48-2.08t2.6-5.28q0-3.28-2.64-5.28t-7.52-2q-4.8 0-7.6 2t-2.8 5.28q0 3.2 2.8 5.28t7.68 2.08m25.76 3.12v-38.24h4.88v6.8q1.52-2.88 3.8-4.52t4.76-2.36 4.64-.72q6.48 0 10.56 4.12t4.08 12.6v22.32h-5.12v-21.68q0-6.72-3.04-9.68t-7.68-2.96q-3.2 0-5.88 1.44t-4.28 4.24-1.6 7.04v21.6zm72.16.8q-6.64 0-10.56-3.12t-3.92-8.16q0-3.36 1.92-5.92t5.32-4.04 7.8-1.48q3.52 0 6.2.84t4.52 2.36v-5.92q0-5.2-2.64-7.48T574 324.4q-3.2 0-6.52 1.16t-5.56 3.72l-2.48-3.6q2.56-2.96 6.56-4.44t8.24-1.48q6.56 0 10.56 3.52t4 10.64v12.16q0 6.4.24 12.72h-4.56l-.08-4.16q-3.44 4.96-11.92 4.96m1.2-3.92q4.88 0 7.48-2.08t2.6-5.28q0-3.28-2.64-5.28t-7.52-2q-4.8 0-7.6 2t-2.8 5.28q0 3.2 2.8 5.28t7.68 2.08m25.76 3.12v-38.24h4.88v6.8q1.52-2.88 3.8-4.52t4.76-2.36 4.64-.72q6.48 0 10.56 4.12t4.08 12.6v22.32h-5.12v-21.68q0-6.72-3.04-9.68t-7.68-2.96q-3.2 0-5.88 1.44t-4.28 4.24-1.6 7.04v21.6zm58.48.8q-5.28 0-9.32-2.48t-6.32-6.96-2.28-10.32v-.72q0-5.68 2.32-10.04t6.36-6.84 9.24-2.48q4.64 0 8.28 2.2t5.8 5.96V300.4h5.12v58.4h-4.64v-7.84q-2.24 4-6 6.32t-8.56 2.32m.64-4.56q3.92 0 7.04-1.92t4.92-5.36 1.8-8.08q0-4.56-1.8-8t-4.92-5.4-7.04-1.96-6.96 1.88-4.76 5.2-1.72 7.72v.72q0 4.56 1.72 8t4.76 5.32 6.96 1.88m40.96 19.76v-4.4h7.28q2 0 3.16-1.4t1.88-3.24l2.96-6.64-15.84-38.56h5.6l12.96 32.32 12.56-32.32h5.6l-18.64 45.36q-.88 2.16-2.12 4.2t-3.24 3.36-5.12 1.32zm57.44-15.2q-5.44 0-9.68-2.52t-6.64-6.96-2.4-10.28v-.72q0-5.68 2.4-10.04t6.64-6.84 9.68-2.48q5.36 0 9.6 2.48t6.64 6.8 2.4 9.92v.88q0 5.84-2.4 10.28t-6.64 6.96-9.6 2.52m0-4.56q4 0 7.04-1.96t4.76-5.36 1.72-7.88v-.88q0-4.32-1.72-7.6T764 326.2t-7.04-1.88-7.08 1.92-4.84 5.24-1.76 7.64v.72q0 4.48 1.76 7.88t4.84 5.36 7.08 1.96m41.28 4.56q-4.24 0-7.6-1.64t-5.28-5.12-1.92-9.16v-23.12h5.04v22.32q0 6.72 3.04 9.36t7.6 2.64q3.12 0 5.76-1.4t4.28-4.16 1.64-7v-21.76h4.96v38.24h-4.64v-6.32q-2.32 4-6 5.56t-6.88 1.56m26.64-38.72V302.8h4.72v18.08zm13.76 37.92v-38.24h4.96v6.24q1.44-3.68 4.28-5t6.44-1.32h3.28v5.04h-3.68q-4.72 0-7.44 2.44t-2.72 7.64v23.2zm39.76.8q-5.6 0-9.92-2.52t-6.72-6.96-2.4-10.28v-.8q0-5.6 2.24-9.92t6.2-6.84 9.24-2.52q5.36 0 9.2 2.64t5.64 7.44 1.08 11.2H864.4q.16 3.92 1.96 7.08t4.92 4.96 7.28 1.8q6.32 0 9.92-3.12l2.88 3.28q-2.16 2.16-5.56 3.36t-7.4 1.2m-1.36-35.36q-5.28 0-8.6 3.44t-3.96 9.12h23.68q.08-5.76-3-9.16t-8.12-3.4M30.32 456.39v-58.4h4.88v26.96q1.52-2.88 3.8-4.52t4.76-2.36 4.64-.72q6.48 0 10.56 4.12t4.08 12.6v22.32h-5.12v-21.68q0-6.72-3.04-9.68t-7.68-2.96q-3.2 0-5.88 1.44t-4.28 4.24-1.6 7.04v21.6zm54.64.8q-6.64 0-10.56-3.12t-3.92-8.16q0-3.36 1.92-5.92t5.32-4.04 7.8-1.48q3.52 0 6.2.84t4.52 2.36v-5.92q0-5.2-2.64-7.48t-7.12-2.28q-3.2 0-6.52 1.16t-5.56 3.72l-2.48-3.6q2.56-2.96 6.56-4.44t8.24-1.48q6.56 0 10.56 3.52t4 10.64v12.16q0 6.4.24 12.72h-4.56l-.08-4.16q-3.44 4.96-11.92 4.96m1.2-3.92q4.88 0 7.48-2.08t2.6-5.28q0-3.28-2.64-5.28t-7.52-2q-4.8 0-7.6 2t-2.8 5.28q0 3.2 2.8 5.28t7.68 2.08m35.44 3.12q-4.4 0-7.08-2.56t-2.68-6.8v-44.64h-7.36v-4.4h12.48v49.12q0 2.08 1.4 3.48t3.48 1.4h3.44v4.4zm11.6 0v-33.76h-7.28v-4.48h7.28v-10.48q0-4.4 2.8-7.04t7.2-2.64h6.32v4.4h-6.32q-2.16 0-3.56 1.4t-1.4 3.48v10.88h11.28v4.48h-11.28v33.76zm29.36 0-11.36-38.24h5.12l9.36 33.04 9.68-33.04h5.36l9.68 32.88 9.44-32.88h5.04l-11.36 38.24h-5.76L178 422.95l-9.68 33.44zm60 .8q-6.64 0-10.56-3.12t-3.92-8.16q0-3.36 1.92-5.92t5.32-4.04 7.8-1.48q3.52 0 6.2.84t4.52 2.36v-5.92q0-5.2-2.64-7.48t-7.12-2.28q-3.2 0-6.52 1.16t-5.56 3.72l-2.48-3.6q2.56-2.96 6.56-4.44t8.24-1.48q6.56 0 10.56 3.52t4 10.64v12.16q0 6.4.24 12.72h-4.56l-.08-4.16q-3.44 4.96-11.92 4.96m1.2-3.92q4.88 0 7.48-2.08t2.6-5.28q0-3.28-2.64-5.28t-7.52-2q-4.8 0-7.6 2t-2.8 5.28q0 3.2 2.8 5.28t7.68 2.08m20.48 19.12v-4.4h7.28q2 0 3.16-1.4t1.88-3.24l2.96-6.64-15.84-38.56h5.6l12.96 32.32 12.56-32.32h5.6l-18.64 45.36q-.88 2.16-2.12 4.2t-3.24 3.36-5.12 1.32zm69.36-16q-2.56 0-4.8-1.04t-3.68-3.16-1.44-5.48v-24.08h-7.12v-4.48h7.12v-9.52h5.04v9.52h10.64v4.48h-10.64v24.4q0 2.16 1.44 3.56t3.52 1.4h5.68v4.4zm13.04 0v-58.4h4.88v26.96q1.52-2.88 3.8-4.52t4.76-2.36 4.64-.72q6.48 0 10.56 4.12t4.08 12.6v22.32h-5.12v-21.68q0-6.72-3.04-9.68t-7.68-2.96q-3.2 0-5.88 1.44t-4.28 4.24-1.6 7.04v21.6zm59.6.8q-5.6 0-9.92-2.52t-6.72-6.96-2.4-10.28v-.8q0-5.6 2.24-9.92t6.2-6.84 9.24-2.52q5.36 0 9.2 2.64t5.64 7.44 1.08 11.2h-28.56q.16 3.92 1.96 7.08t4.92 4.96 7.28 1.8q6.32 0 9.92-3.12l2.88 3.28q-2.16 2.16-5.56 3.36t-7.4 1.2m-1.36-35.36q-5.28 0-8.6 3.44t-3.96 9.12H396q.08-5.76-3-9.16t-8.12-3.4m24.08 34.56v-38.24h4.96v6.24q1.44-3.68 4.28-5t6.44-1.32h3.28v5.04h-3.68q-4.72 0-7.44 2.44t-2.72 7.64v23.2zm39.76.8q-5.6 0-9.92-2.52t-6.72-6.96-2.4-10.28v-.8q0-5.6 2.24-9.92t6.2-6.84 9.24-2.52q5.36 0 9.2 2.64t5.64 7.44 1.08 11.2h-28.56q.16 3.92 1.96 7.08t4.92 4.96 7.28 1.8q6.32 0 9.92-3.12l2.88 3.28q-2.16 2.16-5.56 3.36t-7.4 1.2m-1.36-35.36q-5.28 0-8.6 3.44t-3.96 9.12h23.68q.08-5.76-3-9.16t-8.12-3.4m22.88 34.56v-7.36h6.16v7.36z"/><path fill="#0c8c5c" d="M24.86 517.93v-1.94h16.2v1.94zm24.68 4.05V511.4h-3.58v-2.02h9.43v2.02h-3.62v10.58zm7.36 0v-13.14h2v5.49q.54-.77 1.29-1.03.75-.27 1.36-.27 1.47 0 2.37.97.89.96.89 2.76v5.22h-2.07v-4.88q0-1.15-.5-1.66-.49-.52-1.27-.52-.84 0-1.42.57t-.58 1.65v4.84zm14.28.18q-1.32 0-2.32-.57t-1.55-1.58q-.56-1.02-.56-2.37v-.18q0-1.24.51-2.25.52-1.01 1.46-1.59.95-.59 2.21-.59 1.31 0 2.25.64t1.36 1.81q.44 1.17.24 2.76H68.8q.11.91.75 1.52.64.6 1.74.6.64 0 1.11-.18t.85-.54l1.17 1.22q-.52.65-1.36.98t-1.88.32m-.24-7.45q-.91 0-1.44.57t-.66 1.48h3.96q-.04-.97-.55-1.51t-1.31-.54m9.85 7.45q-1.28 0-2.3-.58-1.03-.57-1.62-1.59t-.6-2.33v-.16q0-1.32.6-2.32.59-1.01 1.62-1.58 1.02-.57 2.3-.57t2.29.57 1.62 1.58q.59 1 .59 2.3v.18q0 1.31-.59 2.33-.6 1.02-1.62 1.59-1.01.58-2.29.58m0-1.84q1.08 0 1.75-.74.68-.75.68-1.92v-.18q0-1.15-.68-1.88-.67-.73-1.75-.73-1.06 0-1.75.74t-.68 1.89v.16q0 1.17.68 1.92.69.74 1.75.74m10.13 1.84q-1.18 0-2.12-.56t-1.48-1.56-.54-2.36v-.18q0-1.32.55-2.32.55-1.01 1.49-1.58t2.12-.57q.81 0 1.49.31t1.18.85v-5.35h2.07v13.14H93.8v-1.19q-.52.65-1.26 1.01-.73.36-1.62.36m.33-1.82q1.06 0 1.77-.74.71-.73.71-1.99 0-1.28-.71-2.01t-1.77-.73q-.99 0-1.69.7-.71.7-.71 1.93v.18q0 1.22.71 1.94.7.72 1.69.72m10.98 1.82q-1.28 0-2.31-.58-1.02-.57-1.62-1.59-.59-1.02-.59-2.33v-.16q0-1.32.59-2.32.6-1.01 1.62-1.58 1.03-.57 2.31-.57t2.29.57 1.61 1.58.6 2.3v.18q0 1.31-.6 2.33-.59 1.02-1.61 1.59-1.01.58-2.29.58m0-1.84q1.08 0 1.75-.74.68-.75.68-1.92v-.18q0-1.15-.68-1.88-.67-.73-1.75-.73-1.06 0-1.75.74t-.68 1.89v.16q0 1.17.68 1.92.69.74 1.75.74m6.53 1.66v-8.77h2v1.28q.32-.75.95-1.05t1.41-.3h.72v2.05h-.88q-1.03 0-1.58.47t-.55 1.37v4.95zm10.3.18q-1.32 0-2.32-.57t-1.55-1.58q-.56-1.02-.56-2.37v-.18q0-1.24.51-2.25.52-1.01 1.46-1.59.95-.59 2.21-.59 1.31 0 2.25.64t1.36 1.81q.44 1.17.24 2.76h-5.98q.11.91.75 1.52.64.6 1.74.6.64 0 1.11-.18t.85-.54l1.17 1.22q-.52.65-1.36.98t-1.88.32m-.24-7.45q-.91 0-1.44.57t-.66 1.48h3.96q-.04-.97-.55-1.51t-1.31-.54m10.26 7.27v-12.6h4.5q2 0 3.21 1.02 1.2 1.01 1.2 2.94 0 1.46-.67 2.39-.68.92-1.85 1.32l2.9 4.93h-2.54l-2.62-4.66h-1.93v4.66zm4.4-10.73h-2.2v4.21h2.2q1 0 1.62-.54t.63-1.54q0-.98-.63-1.55-.62-.58-1.62-.58m10.36 10.91q-1.27 0-2.3-.58-1.03-.57-1.62-1.59t-.59-2.33v-.16q0-1.32.59-2.32.59-1.01 1.62-1.58t2.3-.57 2.3.57 1.61 1.58.59 2.3v.18q0 1.31-.59 2.33t-1.61 1.59q-1.02.58-2.3.58m0-1.84q1.08 0 1.76-.74.67-.75.67-1.92v-.18q0-1.15-.67-1.88-.68-.73-1.76-.73-1.06 0-1.74.74-.69.74-.69 1.89v.16q0 1.17.69 1.92.68.74 1.74.74m10.5 1.84q-1.28 0-2.31-.58-1.02-.57-1.62-1.59-.59-1.02-.59-2.33v-.16q0-1.32.59-2.32.6-1.01 1.62-1.58 1.03-.57 2.31-.57t2.29.57q1.02.57 1.61 1.58.6 1 .6 2.3v.18q0 1.31-.6 2.33-.59 1.02-1.61 1.59-1.01.58-2.29.58m0-1.84q1.08 0 1.75-.74.68-.75.68-1.92v-.18q0-1.15-.68-1.88-.67-.73-1.75-.73-1.06 0-1.75.74t-.68 1.89v.16q0 1.17.68 1.92.69.74 1.75.74m9.09 1.82q-1.05 0-1.92-.3-.87-.31-1.45-.76l.9-1.42q.52.38 1.16.62t1.31.24q.65 0 1.03-.27.39-.27.39-.7t-.31-.65-.82-.35l-1.08-.28q-.56-.14-1.07-.41-.5-.27-.82-.77-.33-.49-.33-1.3 0-1.21.92-1.98.92-.78 2.47-.78.86 0 1.63.24.78.23 1.39.65l-.92 1.38q-1.01-.68-2.12-.68-.63 0-1.01.28t-.38.71q0 .39.33.62.34.22.85.36l1.09.3q.58.16 1.09.44t.84.77q.34.5.34 1.31t-.45 1.42-1.24.96-1.82.35m9.38.02q-1.32 0-2.32-.57t-1.55-1.58-.56-2.37v-.18q0-1.24.51-2.25t1.46-1.59q.94-.59 2.2-.59 1.32 0 2.25.64.94.64 1.37 1.81t.24 2.76h-5.98q.11.91.75 1.52.64.6 1.73.6.65 0 1.12-.18t.85-.54l1.17 1.22q-.53.65-1.36.98t-1.88.32m-.24-7.45q-.92 0-1.44.57t-.66 1.48h3.96q-.04-.97-.55-1.51-.52-.54-1.31-.54m7.99 7.27-3.38-8.77h2.16l2.3 6.32 2.31-6.32h2.16l-3.37 8.77zm10.75.18q-1.31 0-2.31-.57t-1.56-1.58-.56-2.37v-.18q0-1.24.51-2.25.52-1.01 1.46-1.59.95-.59 2.21-.59 1.31 0 2.25.64t1.37 1.81.23 2.76h-5.98q.11.91.75 1.52.64.6 1.74.6.65 0 1.11-.18t.85-.54l1.17 1.22q-.52.65-1.36.98t-1.88.32m-.23-7.45q-.92 0-1.44.57-.53.56-.67 1.48h3.96q-.04-.97-.55-1.51t-1.3-.54m8.47 7.27q-1.18 0-1.9-.65-.71-.65-.71-1.78v-8.95h-1.45v-1.76h3.52v10.75q0 .28.19.47t.48.19h.92v1.73zm5.84 0q-.63 0-1.25-.22-.63-.21-1.04-.78t-.41-1.57v-4.43h-1.5v-1.77h1.5v-2.14h2.07v2.14h2.03v1.77h-2.03v4.59q0 .27.19.46.18.19.45.19h1.39v1.76z"/><path fill="#0c322c" fill-opacity=".12" d="M0 719h1080v1H0z"/><path fill="#0c322c" d="M27.16 845.5v-29.2H48.6v29.2zm18.8-2.92v-23.84H29.6zM26.85 892.5v-4.1h5.12v-13.53q0-.67-.64-.67h-4.64v-4.1h5.89q1.66 0 2.73 1.07t1.07 2.71v14.52h5.03v4.1zm25.47.32q-2.59 0-4.48-.96t-2.91-2.74-1.03-4.17q0-1.6.71-3.28.7-1.68 1.92-3.47l5.57-8.1h5.34l-5.86 7.87q.8-.22 1.67-.22 2.17 0 3.84.97 1.66.98 2.61 2.66.94 1.68.94 3.86 0 2.33-1.06 4.03-1.05 1.69-2.92 2.62-1.88.93-4.34.93m-.06-3.87q1.66 0 2.73-1.03 1.07-1.02 1.07-2.68 0-1.64-1.07-2.69-1.07-1.06-2.73-1.06-1.7 0-2.76 1.04t-1.05 2.71q0 1.66 1.05 2.68 1.06 1.03 2.76 1.03m15.61-8.39q-1.63 0-2.89-.68t-1.99-1.91q-.72-1.21-.72-2.81 0-1.57.72-2.79.72-1.21 1.99-1.9 1.26-.69 2.89-.69 1.67 0 2.93.69t1.98 1.9q.72 1.22.72 2.79 0 1.6-.72 2.81-.72 1.22-1.98 1.91t-2.93.68m0-2.59q1.25 0 2.03-.78.79-.79.79-2.03 0-1.22-.79-2-.78-.79-2.03-.79-1.21 0-2 .79-.78.78-.78 2 0 1.24.78 2.03.79.78 2 .78m18.98 14.98q-2.43 0-4.53-.83-2.1-.84-3.7-2.37t-2.49-3.63-.9-4.63v-.38q0-2.53.9-4.63.89-2.09 2.49-3.63 1.6-1.53 3.7-2.37 2.1-.83 4.53-.83 2.27 0 4.17.72 1.91.72 3.41 2.1l-2.91 3.39q-1.92-1.79-4.67-1.79-2.02 0-3.6.89-1.59.9-2.48 2.48-.9 1.59-.9 3.67v.38q0 2.08.9 3.67.89 1.58 2.48 2.48t3.6.89q2.85 0 4.8-1.95l2.91 3.39q-1.54 1.44-3.49 2.21t-4.22.77"/><path fill="#0c322c" fill-opacity=".5" d="M25.04 922.5v-8.4h2.61q1.26 0 2.03.67.78.66.78 1.86 0 1.19-.78 1.86-.77.66-2.03.66h-1.59v3.35zm2.66-7.51h-1.64v3.3h1.64q.78 0 1.26-.45.49-.45.49-1.21 0-.75-.49-1.2-.48-.44-1.26-.44m5.59 7.63q-.99 0-1.58-.48t-.59-1.25q0-.5.3-.9.3-.39.82-.63t1.17-.23q.95 0 1.51.39v-.72q0-.7-.37-1.01-.36-.31-.99-.31-.46 0-.95.18t-.83.53l-.46-.68q.38-.45 1.01-.67.62-.23 1.28-.23 1.02 0 1.65.54t.62 1.61v1.84q0 .96.04 1.9h-.87l-.01-.58q-.54.7-1.75.7m.25-.73q.66 0 1.03-.28.36-.27.36-.72t-.36-.71-1.04-.27q-.66 0-1.05.27-.38.27-.38.71t.39.72 1.05.28m4.08.61v-5.77h.94v.92q.21-.55.64-.75.42-.2.95-.2h.49v.96h-.56q-.71 0-1.1.35t-.39 1.07v3.42zm6.13 0q-.39 0-.76-.15t-.6-.49-.23-.9v-3.39h-1.05v-.84h1.05v-1.43h.96v1.43h1.52v.84h-1.52v3.45q0 .28.18.47.19.18.46.18h.88v.83zm3.73 0q-.7 0-1.13-.4t-.43-1.08v-6.45h-1.05v-.83h2.03v7.3q0 .27.18.45t.45.18h.55v.83zm.78 2.4v-.83h1.16q.25 0 .4-.17t.24-.42l.42-.92-2.37-5.83h1.07l1.82 4.64 1.74-4.64h1.07l-2.76 6.79q-.13.34-.33.65t-.52.52-.83.21zm13.12-2.26q-.9 0-1.67-.3-.78-.31-1.37-.87-.58-.57-.91-1.35t-.33-1.72v-.2q0-.94.33-1.72t.91-1.35q.59-.56 1.37-.87.77-.3 1.67-.3.78 0 1.45.23t1.18.67l-.65.76q-.82-.67-1.98-.67-.92 0-1.66.42-.73.41-1.15 1.14-.42.72-.42 1.69v.2q0 .97.42 1.69.42.73 1.15 1.14.74.42 1.66.42 1.19 0 2.02-.71l.64.78q-.52.44-1.21.68t-1.45.24m5.52-.14q-.71 0-1.13-.4-.43-.4-.43-1.08v-6.45h-1.06v-.83h2.03v7.3q0 .27.18.45t.46.18h.55v.83zm4.06.12q-.83 0-1.48-.38t-1.02-1.05-.37-1.55v-.1q0-.86.37-1.52.37-.67 1.02-1.04t1.48-.37q.82 0 1.47.37t1.02 1.03.37 1.5v.13q0 .88-.37 1.55t-1.02 1.05-1.47.38m0-.86q.56 0 .99-.27t.66-.75.24-1.1v-.13q0-.9-.53-1.47-.52-.57-1.36-.57-.56 0-.99.27-.43.26-.68.73-.24.47-.24 1.07v.1q0 .63.24 1.1.25.48.68.75t.99.27m6.43.86q-.96 0-1.6-.57-.63-.57-.63-1.81v-3.51h.97v3.35q0 .92.41 1.29.42.36 1.04.36.65 0 1.12-.43t.48-1.31v-3.26h.96v5.77h-.87v-.86q-.36.56-.89.77-.54.21-.99.21m6.87 0q-.79 0-1.4-.37t-.96-1.05-.35-1.56v-.1q0-.87.36-1.53.35-.66.96-1.03t1.39-.37q.65 0 1.16.28t.85.77v-3.92h.97v8.76h-.88v-1.04q-.34.55-.88.85-.54.31-1.22.31m.14-.86q.56 0 .99-.27.43-.26.69-.74t.25-1.13-.25-1.13q-.26-.49-.69-.75-.43-.27-.99-.27-.81 0-1.34.57-.54.56-.54 1.5v.1q0 .64.25 1.12t.67.74.96.26m4.02 3.14v-.83h1.15q.25 0 .4-.17t.25-.42l.42-.92-2.38-5.83h1.07l1.82 4.64 1.74-4.64h1.07l-2.76 6.79q-.13.34-.33.65t-.52.52-.83.21zm-61.73 17.6-2.47-8.4h1.04l1.96 6.9 2.14-6.9h1.13l2.15 6.91 1.96-6.91h1.03l-2.46 8.4h-1.06l-2.18-7.12-2.19 7.12zm10.4 0v-4.93h-1.13v-.84h2.09v5.77zm-.06-7.04v-1.4h1.08v1.4zm2.83 7.04v-5.77h.94v.92q.35-.6.89-.82.55-.22 1.02-.22.97 0 1.58.63.6.63.6 1.86v3.4h-.97v-3.25q0-.93-.41-1.34-.42-.41-1.05-.41-.66 0-1.14.45t-.48 1.31v3.24zm9.08.12q-.8 0-1.41-.37t-.96-1.05-.35-1.56v-.1q0-.87.36-1.53.35-.66.96-1.03.62-.37 1.4-.37.64 0 1.15.28t.85.77v-3.92h.97v8.76h-.87v-1.04q-.35.55-.89.85-.54.31-1.21.31m.13-.86q.56 0 .99-.27.44-.26.69-.74t.25-1.13-.25-1.13-.69-.75-.99-.27q-.81 0-1.34.57t-.53 1.5v.1q0 .64.24 1.12.25.48.67.74t.96.26m7.35.74v-.76l3.1-3.12q.65-.66.88-1.14.22-.49.22-.94 0-.75-.43-1.17-.44-.43-1.19-.43-.57 0-1.08.32-.5.32-.88.89l-.66-.63q.45-.71 1.15-1.13.69-.41 1.51-.41.79 0 1.38.31.59.3.91.86t.33 1.29q0 .61-.3 1.27-.29.66-1.13 1.5l-2.34 2.37h4.1v.92zm9.99.12q-1.43 0-2.25-1.14-.81-1.14-.81-3.17 0-1.35.36-2.33.37-.97 1.05-1.48.69-.52 1.65-.52.95 0 1.64.52.69.51 1.05 1.48.37.98.37 2.33 0 2.03-.82 3.17t-2.24 1.14m0-.92q.96 0 1.5-.89.54-.88.54-2.5t-.54-2.52-1.5-.89-1.5.89-.54 2.52q0 1.62.54 2.5.54.89 1.5.89m7.44.8v-8.4h1.02v4.68l3.8-4.68h1.2L77 937.65l3.11 4.85h-1.23l-2.56-4.01-1.45 1.79v2.22zm7.17 0v-5.77h.93v.91q.33-.59.84-.81t.99-.22q.63 0 1.1.27.48.28.72.86.25-.44.59-.68t.71-.35q.36-.1.69-.1.93 0 1.52.6.59.61.59 1.86v3.43h-.95v-3.31q0-.89-.38-1.29-.39-.4-1.01-.4-.65 0-1.08.43-.43.44-.43 1.26v3.31h-.96v-3.31q0-.89-.38-1.29t-1-.4q-.65 0-1.09.43-.44.44-.44 1.26v3.31zm9.33 1.73 4.45-10.84h1l-4.47 10.84zm6.5-1.73v-8.76h.94v3.91q.35-.6.89-.82.55-.22 1.02-.22.97 0 1.57.63t.61 1.86v3.4h-.97v-3.25q0-.93-.42-1.34-.41-.41-1.05-.41-.66 0-1.14.45t-.48 1.31v3.24z"/><path fill="#0c322c" d="M26.93 967.65q-.86 0-1.5-.31-.64-.32-1.09-.85l.84-.84q.44.45.87.66.44.2.92.2.65 0 1.02-.3t.37-.79q0-.38-.21-.61-.21-.24-.55-.38t-.76-.26q-.41-.12-.82-.27-.4-.14-.74-.37t-.55-.6-.21-.94q0-.72.33-1.24.34-.53.94-.82t1.41-.28q.74 0 1.34.26t.99.7l-.85.86q-.33-.34-.69-.51t-.8-.17q-.6 0-.97.29-.36.29-.36.78 0 .36.21.57t.55.34q.35.13.76.24t.83.25.76.37.55.61.21.98q0 .74-.35 1.28-.35.55-.99.85-.63.3-1.46.3m3.78-.15 2.82-7.7h1.66l2.8 7.7h-1.38l-.66-1.89h-3.19l-.66 1.89zm2.45-3.04h2.38l-1.18-3.36zm6.44 3.04v-7.7h1.22l3.55 5.31v-5.31h1.36v7.7h-1.2l-3.59-5.33v5.33zm11.58 0v-6.41q0-.56.36-.93.37-.36.93-.36h3.67v1.23h-3.21q-.17 0-.28.12t-.12.28v1.88h3.35v1.21h-3.35v2.98zm6.83 0v-7.7h2.75q1.22 0 1.96.62t.74 1.8q0 .89-.42 1.46-.41.56-1.12.81l1.77 3.01h-1.55l-1.61-2.85h-1.18v2.85zm2.69-6.56h-1.35v2.58h1.35q.61 0 .99-.33t.38-.95q0-.59-.38-.94-.38-.36-.99-.36m4.04 6.56 2.82-7.7h1.66l2.81 7.7h-1.39l-.66-1.89h-3.19l-.66 1.89zm2.46-3.04h2.37l-1.17-3.36zm6.43 3.04v-7.7h1.22l3.56 5.31v-5.31h1.35v7.7h-1.2l-3.59-5.33v5.33zm12.08.15q-.82 0-1.55-.28-.72-.29-1.26-.82-.54-.52-.85-1.24-.3-.71-.3-1.58v-.16q0-.87.3-1.58.31-.72.85-1.24.54-.53 1.26-.82.73-.28 1.55-.28.77 0 1.41.24t1.13.68l-.86 1.02q-.69-.62-1.68-.62-.74 0-1.33.33-.58.33-.92.91-.33.59-.33 1.36v.16q0 .77.33 1.36.34.58.92.91t1.33.33q1.02 0 1.72-.66l.87 1.02q-.51.46-1.17.71t-1.42.25m3.94-.15v-1.23h1.29v-5.24h-1.29v-1.23h3.94v1.23h-1.3v5.24h1.3v1.23zm7.98.15q-.85 0-1.49-.31-.64-.32-1.09-.85l.83-.84q.45.45.88.66.43.2.92.2.65 0 1.02-.3.36-.3.36-.79 0-.38-.21-.61-.2-.24-.55-.38-.34-.14-.75-.26t-.82-.27-.75-.37-.55-.6-.21-.94q0-.72.34-1.24.34-.53.94-.82t1.41-.28q.74 0 1.34.26t.99.7l-.86.86q-.33-.34-.68-.51t-.8-.17q-.61 0-.97.29t-.36.78q0 .36.21.57t.55.34.76.24.83.25.75.37.56.61q.21.39.21.98 0 .74-.35 1.28-.35.55-.99.85-.63.3-1.47.3m8.29 0q-.83 0-1.55-.28t-1.26-.82q-.55-.52-.85-1.24-.3-.71-.3-1.58v-.16q0-.87.3-1.58t.85-1.24 1.26-.82q.72-.28 1.55-.28.77 0 1.4.24.64.24 1.14.68l-.86 1.02q-.69-.62-1.68-.62-.74 0-1.33.33t-.92.91q-.34.59-.34 1.36v.16q0 .77.34 1.36.33.58.92.91t1.33.33q1.02 0 1.71-.66l.87 1.02q-.5.46-1.16.71t-1.42.25m7.46 0q-1.09 0-1.95-.5t-1.36-1.39q-.49-.9-.49-2.08v-.08q0-1.18.49-2.07.5-.88 1.36-1.38t1.95-.5 1.94.5 1.35 1.38.49 2.07v.08q0 1.18-.49 2.08-.49.89-1.35 1.39t-1.94.5m0-1.32q.7 0 1.24-.32t.84-.92.31-1.41v-.08q0-.81-.31-1.4-.3-.6-.84-.91t-1.24-.32-1.25.32q-.55.31-.86.91-.3.59-.3 1.4v.08q0 .82.3 1.41.31.6.86.92.54.32 1.25.32m-85.6 17.82q-1.36 0-2.17-.7t-.81-2.11v-5.04h1.36v4.93q0 .85.44 1.26.45.41 1.18.41.75 0 1.2-.41t.44-1.26v-4.93h1.36v5.04q0 1.41-.82 2.11t-2.18.7m5.32-.15v-7.7h1.22l3.55 5.31v-5.31h1.35v7.7h-1.2l-3.58-5.33V984zm8.12 0v-1.23h1.28v-5.24h-1.28v-1.23h3.93v1.23h-1.29v5.24h1.29V984zm7.4 0v-6.47h-2.19v-1.23h5.76v1.23h-2.21V984zm6.4 0q-.56 0-.92-.36-.36-.37-.36-.93v-5.12q0-.56.36-.93.36-.36.92-.36h3.75v1.23h-3.3q-.16 0-.28.12-.11.11-.11.28v1.62h3.46v1.17h-3.46v1.65q0 .17.11.28t.28.12h3.3V984zm5.84 0v-7.7h2.77q1.09 0 1.96.48t1.35 1.32q.5.85.5 1.96v.12q0 .84-.29 1.54t-.81 1.21-1.21.79-1.5.28zm2.66-6.43H62.2v5.17h1.32q.74 0 1.31-.32t.9-.9.33-1.34v-.12q0-.75-.32-1.31t-.9-.87q-.57-.31-1.32-.31m11.07 6.58q-.86 0-1.5-.31-.63-.32-1.09-.85l.84-.84q.44.45.87.66.44.2.92.2.65 0 1.02-.3t.37-.79q0-.38-.21-.61-.21-.24-.55-.38t-.75-.26q-.42-.12-.82-.27-.41-.14-.75-.37t-.55-.6-.21-.94q0-.72.34-1.24.33-.53.93-.82t1.41-.28q.74 0 1.35.26.6.26.99.7l-.86.86q-.33-.34-.69-.51t-.8-.17q-.6 0-.96.29-.37.29-.37.78 0 .36.21.57t.56.34q.34.13.76.24.41.11.82.25t.76.37.55.61.21.98q0 .74-.35 1.28-.35.55-.98.85t-1.47.3m6.07-.15v-6.47h-2.19v-1.23h5.77v1.23h-2.21V984zm3.63 0 2.82-7.7h1.66l2.8 7.7h-1.38l-.66-1.89h-3.19l-.66 1.89zm2.45-3.04h2.38l-1.18-3.36zm7.1 3.04v-6.47h-2.19v-1.23h5.76v1.23H95.2V984zm6.4 0q-.56 0-.92-.36-.36-.37-.36-.93v-5.12q0-.56.36-.93.36-.36.92-.36h3.75v1.23h-3.3q-.16 0-.28.12-.11.11-.11.28v1.62h3.46v1.17h-3.46v1.65q0 .17.11.28t.28.12h3.3V984zm7.9.15q-.86 0-1.5-.31-.63-.32-1.09-.85l.84-.84q.44.45.87.66.44.2.92.2.65 0 1.02-.3t.37-.79q0-.38-.21-.61-.21-.24-.55-.38t-.75-.26q-.42-.12-.82-.27-.41-.14-.75-.37t-.55-.6-.21-.94q0-.72.34-1.24.33-.53.93-.82t1.41-.28q.74 0 1.35.26.6.26.99.7l-.86.86q-.33-.34-.69-.51t-.8-.17q-.6 0-.97.29-.36.29-.36.78 0 .36.21.57t.56.34.76.24.82.25.76.37.56.61.2.98q0 .74-.35 1.28-.35.55-.98.85t-1.47.3"/><svg xmlns="http://www.w3.org/2000/svg" id="dc-map" width="720" height="360" x="180" y="720" aria-hidden="true" class="dc-map-canvas" preserveAspectRatio="xMidYMid meet" viewBox="-185 -90 380 150"><path fill="#c8d8c8" fill-rule="evenodd" stroke="#6aaa8a" stroke-linecap="round" stroke-linejoin="round" stroke-width="0" d="m-59.5 80-7 .5 6-1zm-99.5-.5-4.5-1 4 .5zM-45 78l1.5 2-10.5.5 7.5-2.5zm-76-4.5h2.5-4zm-4.5 0 1.5.5-2.5-1zM-99 72l3 .5-6.5-.5h2zm30.5-1-.5 1h-6l3-1 1-2 2.5 1.5zM-180 84.5l37 .5-10.5-1.5.5-1.5-4-1 10.5-.5-9-1.5-3-2 7 .5 6.5-2.5 31-1.5 14 1.5-3.5-2.5L-76 74l7-1 2-1-1.5-2.5 1-2.5 9.5-3.5-7.5 4.5 3.5 2.5 1 3-9.5 3H-77l3.5 1.5-4.5 1 20 4 29.5-2.5-7-1-.5-1 18.5-3.5 2-2 8.5-2 34-.5 7-2 4.5 1.5 16-4 7 2H69l.5 1-1.5 3 2 .5 4-2.5 14-4 8 1.5 7-2 3 1.5 7.5-1 6.5 1.5 15-2 2.5 1.5h8l25.5 4.5-7.5 4.5 3.5 3h-5l-2 2 9.5 3 9 .5zM-68 54l3 .5-4 1-5.5-2.5 3.5 1 2.5-1zm9.5-3-2.5 1 2-.5zm129-1.5-2 .5.5-1.5zm75-8.5h3l-.5 2-2 .5-1.5-3zm27.5 0 1 .5-1 2.5-3.5 2.5-3-.5 6.5-5.5zm1.5-5 4 1.5-3.5 4-2.5-7 2 1zM167 22l-3-2 2.5 1.5zm11.37-4.66.35.29-.17.52-.62.14-.55-.13-.1-.44.4-.34.44.13zm-10.52-.87-.33.13-.34-.44.04-.27zm-.74-1.54.16.81-.27-.13-.2.06-.15-.28-.02-.76zM50 13.5 47 25h-3l.5-9 4.5-4 1 1zm93.5.5 9.5 12v5l-3 6.5-3.5 1.5-6-1-2.5-3.5-1 1 1-2.5-2 2-4.5-3.5L118 35l-3-1 .5-2.5-2-5.5.5-4 7-2.5 4.5-5.5 4 1 1-2.5 2-.5-.5-.5 4.5.5-1 3 4.5 2.5 2.5-7 1 3zm18.62-3.52.28.35-.7-.01-.38-.61.6.24zM120.5 10l-1.5-.5 2 .5Zm40.5 0-1.5-1 1 .5zm.5-.5-1-1 1 .5zm-37 .5 3-1.5-2.5 1zM118 8l1 .5-2.5.5 1-.5zm5 0-3 1 2-.5zm37 .5-2-1 1.5.5zm-2.46-1.15-.2.05-.44-.22-.4-.41.04-.17.6.42zM108.5 7l7 1.5-10-1.5 3-.5zm26.23-.79-.52.68-.1-.75.18-.36.2-.34.24.3zM156 7l-1.5-2 1.5 1.5Zm-4-1.5h-3.5l4-.5zm-25-2-1-.5h1zm3.5-.5-2.5.5 1.5-.5ZM153 4.5l-2.5-2L153 4ZM134 1l1.5 2.5 3-2 6 2.5 6 6.5-6-3-2 2-5-1 .5-3-5-1.5-1-1 1.5-1-3-1zm-9-2.5L120 0l1 1.5 2.5-1-2 1.5 1.5 3.5-2-3-1.5 3 .5-6zm3.5.5-.5 2-.5-2 1-.5zM106 6l-3.5-2-7-9.5 7 4 3.5 6zm12-8 1 1-3 5-6-1-1-2.5.5-2.5 3.5-1 3.5-4 2.5 1.5-1.5 2.5.5.5zm8.5-6.5-1 3-2-2.5-1.5 1 3.5-3 1 1zM81-6l-1-1v-3l1.5 3.5zm-142-4h-1l1-1zm185-.5-1.5 1L124-11zm-5.5 1-1.5 1 2.5-3-.5 1.5zM122-12l1 .5h-1zm3.5 0-.5 2v-2.5zm-3.97-1.07-.27.86-.43-.5-.5-.76.85.04zm-.03-5.43 1 1.5-1 2.5 2.5 2-3.5-1.5v-4.5zm-187 .5H-67l1-.5zM-77-18h-1.5 2.5zm4.5-2 4 1.5-5.5.5 1.5-.5-.5-1.5zm183 1.5-2-1h2zm-266-.5-.5-1.5 1 1.5zm-.58-1.64-.34.07-.17-.21-.11-.08-.01-.07.1-.08.35.1.27.15zm-.68-.54-.03.11-.54-.03.08-.12zm-.9-.14-.05.06-.07-.02-.35-.03-.12-.23-.04-.04.26-.14.09.07zm-1.69-.66-.12.1-.33-.18.05-.08.15-.1.24.02zM-79.5-23l5.5 2.5-4 .5-4-2.5-3 .5 4.5-1zm2-1-.5-1 .5.5zM121-23l-1-.5 2-1zm-199-3.5-1-.5h1zm1-.1-.17.72-.19-.13.02-.52-.45-.4v-.1zM134.5-34l-2 1 1.5-1.5zm-100-1.5-2 .5 1-.5zm-11 0h3zm-8-2.5-.5 1.5-2.5-1L15-38ZM9-41v2l-.5-2zm132 4-.5 2-4.5 1.5-1-1-4 .5 1 1-2 1.5-.5-2 6-2 6-6-.5 3.5zM9.56-42.15l-.33.77-.45-.2-.24-.68.2-.37.65-.38zM144-44l1.5.5-5.5 2 2-4 1 1zm-207.5-2.5h1.5l-2-.5zM-62-49l-2.5-1 2.5.5zm-61.5.5-5-2 4.5 1.5zm67.5-2-1 .5 3.5 1 .5 2.5-6.5-1 4-4zm-76.5-3.5 1.5 2-2-2zm276 3.5 1 1.5-1.5-.5.5 3.5H142l.5-8.5.5 2.5zM-7-52.5l-3 .5.5-2 3-1 .5 2zm19.5-3H11l1.5-.5ZM-153-57l-1.5-.5h2.5zm150-1.5-1 1h2L-3-56l4.5 3.5v1L-5-50l1.5-1.5-2-.5 1-1.5L-3-54l-3-3 2-1.5zM-165.5-60h-2l2-.5zm86.23-2.16-.39.53-.44-.09-.26-.3.04-.07.39-.3.41.03zM-82-62.5h-2l2-.5zm-89.5-1.5 3 .5h-3.5zm86.5-1.5 5 2h-7l1-2zm70.5-1 1 1.5-5 1.5-6-2 8.5-1zM-76-67l-1-.5h2zm-104-2 10 3-3 1.5-7-1.5m360 1-2.5.5 1.5 2-8.5 2.5h-7l-1.5 2 1 .5-1 2.5-5 4-1-6 8.5-5.5-4.5 2-3.5-1L154-60l1 1h-13l-7 4.5 5 .5 1.5 2-3.5 5.5-10.5 6.5 1.5 5-2.5.5-1-5-4.5.5.5-2-3.5 2 1 1.5h3.5L119-35l3 3.5-.5 3.5-5.5 5-5.5 2.5-2-1L106-20l3.5 6.5-.5 2-4 3-5-5L99-9l4 3.5 1 4-2.5-1.5-3-5-1.5-9-3 1-2.5-7-4.5 1.5-6.5 5.5-.5 5.5L77.5-8l-5-13.5-2 .5-4-4.5h-9l-1-1.5-5-1-1.5-2h-2l4 6 4.5-2.5.5 2.5 3 1.5-4.5 5.5-12 4.5-1-4.5L35-29.5l-1 2-1.5-2.5 5 11.5 5 7 2 1L51-12v1.5L47.5-4 39 4.5l2 10-6 5.5.5 4-3 1.5L32 29l-4 4-8.5 2L12 18l1.5-7.5L12 5 9 1l.5-4.5-3.5-1-1.5-2L-9-5l-7.5-7-.5-10 11-14 15.5-1.5 1.5.5-.5 3 8.5 3.5 2.5-2.5L34-31l2-5.5h-8.5l-1.5-3 7.5-2.5 5 1 3-1-5-3 2.5-2.5-4 1 1.5 1.5-2.5.5-1.5-1 1-.5-3-.5-3 4L29-41l-6.5.5 1.5 3-1.5 1-3-5-6.5-4-.5 1.5 6 4-1.5-.5-1 2.5-.5-2L9-44.5 3-43l-5 6.5-7-.5-.5-6 8-1 .5-2-3.5-2.5h3L-2-50l10-3.5.5-3.5 2-.5-1 2L11-54l8.5-.5 2-3 2.5.5-.5-2 5.5-1-7.5-.5V-63l4-2-3.5-.5-4 3-1 1 2 1.5-3 4-3 .5-2.5-4-5 1 .5-4L19-70l5.5-1L41-67.5 38.5-66l-5.5-.5 4 2.5v-1l7-1-.5-2.5 3 .5v1.5l7-2.5 6.5.5.5-1.5 8 2-2-3 2.5-2h3.5l-.5 1.5 1.5 3-2 2 1 .5 2.5-2-2-3.5 1.5-1.5 2 2 5-.5-1-2 24-4L114-76l-4.5 2 17.5.5 4.5 2.5 8.5-.5-1-1 1.5-.5 18.5 2 2 1.5h17.5zM49-41.5l1.5 1-1.5 3 5 .5-1.5-3 2-1-1-1-.5 1-2.5-3.5 2.5-1V-47l-6.5 2.5 2 2.5zM-95.5-69l-4.5-.5h3.5zM180-71h-1.5zm-270.5 1.5 3 2.5 2-3 3 .5 1 2L-93-62l-1.5 3 2 2 10 2 2.5 4 1.5-1.5-1.5-2 3.5-2-2-2.5 1-1-.5-2.5h4l4.5 1.5 2 3 3-2.5 2.5 4 4.5 2 2 2.5-4.5 2h-6.5l-4.5 3 6-2 .5 3 4-1 .5 1-5.5 2.5-.5-1 1.5-1-2.5.5-3.5 2 .5 1.5-5.5 2-.5 2.5-.5-2 1 3.5-6 4 1 6.5-3.5-5-10 .5-2.5 1-1.5 6 1.5 3 4.5 1 1.5-2.5 3.5-.5-2 5.5 5.5.5-.5 4.5 2.5 2 4.5.5 5-4 .5 3.5 1.5-3 2 1.5h6l5 4.5 5.5 2 1 4 6 2.5 4.5.5 4.5 2 1 2.5-4 5.5-2.5 9-6.5 3-1.5 3.5-5 6-4.5-.5 1.5 3-5.5 2v2H-65l1.5 1.5-4 3L-66 48l-3 2.5 1 2-3 1.5-4-1.5-.5-4L-74 47l-1.5-.5 3-4-2 .5 4.5-23-6-5.5-5.5-8.5 1.5-3.5-1-1.5 4-5-1-4.5-1.5-.5-1.5 2-4.5-3-2-3.5-16-5L-115-32l5.5 9-2.5-1.5-5.5-8.5-3-1.5-4-6V-48l2 1-.5-2-4.5-2-6.5-7-13-3-4.5 2 1-2.5-8 5.5-6.5 1.5 8-4.5-5 .5-4-3 5-3.5-7-.5 6.5-.5-5.5-2.5 10.5-3 20 2.5 8.5-1.5 19 3 3-1.5 4.5 1.5 4-1 1.5 1 2-1.5-2.5-1 1.5-2 3.5 2-1 .5zM-114-73l6 1.5-.5-1.5h2l5.5 3-1.5 1-11 .5-4-1.5 5-.5-7-1 4.5-2zm9.5-.5h-2.5 1.5zm28 .5-4.5-.5h3zm-10 0 4-1 1.5 2 9 .5 5 2.5-2 .5 7 1.5-2 2-4-1.5 3.5 3H-69l3 1.5-9-2.5-2.5.5-.5-1.5h4l1-2-6-2.5-11-1 .5-2 3.5-1zm-14-1h3l1 2.5-6-1h2l-1-1zm244 1-3.5-.5h3.5zM-93-73l-2.5 1-.5-1.5 5.5-.5-1.5 1zm-27.5 1.5-5.5-.5 2-1.5-1-1 9.5 1-5 1.5zm271-3.5H146l2-.5zm-244 0H-97l3-.5zm238.5-.5h-8l4.5-.5zm-243.5-1 .5 1.5-4.5-.5zm-9.5.5 2.5.5-12 .5 2-1.5 6.5 1-1.5-1h2zm165.5 5.5-6-1.5 4-3L69-76.5l-10.5 2-3 3zm-152-6.5 14.5 2h-12.5l-4-2zm-21.5-.5-7 1.5 5.5-1.5zm22 0-2.5-.5 3 .5zm-16 0h-3.5l3.5-.5zM24.5-78l-4 .5 3-.5zm-134-.5h-3l1.5-.5zm13.5.5-2.5-1 3 .5zm-4-.5-5.5-1 4.5.5zm205 0-5.5.5 2.5-1.5 3.5 1zm-86.5-1 3 .5-5.5 2-5.5-2.5L17-80zm7-1 2 .5-10-.5H23Zm25.5 0h-6 6.5zm49 1.5-9-1.5 5-1 4 1.5zm-187-.5h1l-5 1.5-5.5-2 4-1.5 4.5 1zm18.5-3.5 6.5.5-15 3 1.5 1-5 2.5-9-.5 1-1.5 3.5.5-3-1 3-1-2-1h5l-9.5-1.5 21-1zm41.5-.5 6 1-11 .5 20 .5-8 1.5h2.5l-2 1 1 2-3 .5 2 2-5.5 2 3 2-3.5-1-1 1.5h4L-40-65.5l-3.5 5.5-5-1-3-2.5L-54-67l3-3-3.5.5V-71l3 .5-4.5-1 1.5-1-4-3-10-.5-3-1 4.5-.5-6.5-.5 8-1.5-2.5-.5 5.5-2 18 .5-2.5-1 12-1z"/><g opacity=".95"><circle cx="-122.42" cy="-37.77" r="6" fill="#0c322c" opacity=".18"/><circle cx="-122.42" cy="-37.77" r="4" fill="none" stroke="#0c322c" stroke-width="1.2" opacity=".85"/><circle cx="-122.42" cy="-37.77" r="2.2" fill="#0c322c"/></g></svg><path fill="#0c322c" d="M927.83 884.25v-1.98h8.8v-23.8q0-1.32-.84-2.18-.83-.86-2.15-.86h-5.5v-1.98h5.89q2.07 0 3.37 1.3t1.3 3.36v24.16h8.75v1.98zm24.99 0v-1.58l11.84-12.02q1.89-1.89 2.88-3.38.99-1.5 1.36-2.78t.38-2.42q0-3.34-1.92-5.19-1.91-1.85-5.17-1.85-2.29 0-4.38 1.28t-3.49 3.52l-1.46-1.32q1.59-2.6 4.1-4.05t5.28-1.45q4.26 0 6.71 2.44 2.44 2.44 2.44 6.45 0 1.36-.4 2.84-.39 1.47-1.52 3.23t-3.32 3.96l-10.25 10.38h16.68v1.94zm25.17-17.64v-3.26h2.46v3.26zm0 17.64v-3.26h2.46v3.26zm16.89.44q-3.25 0-5.63-1.1t-3.78-2.46l1.23-1.5q1.19 1.14 3.26 2.18 2.06 1.03 4.97 1.03 4 0 6.38-2.22t2.37-6.05q0-3.34-1.89-5.5t-5.45-2.16q-2.82 0-4.73 1.39t-2.62 3.59h-1.85l.66-14.35q.09-1.8 1.36-2.95 1.28-1.14 3.08-1.14h11.93v1.94h-11.62q-1.1 0-1.91.68-.82.68-.86 1.74l-.53 10.73q1.15-1.58 3.02-2.55t4.42-.97q2.81 0 4.86 1.21t3.12 3.32q1.08 2.12 1.08 4.89 0 3.21-1.36 5.5-1.37 2.29-3.83 3.52t-5.68 1.23m16.99-.44v-1.98h8.8v-23.8q0-1.32-.84-2.18-.83-.86-2.15-.86h-5.5v-1.98h5.89q2.07 0 3.37 1.3t1.3 3.36v24.16h8.75v1.98z"/><path fill="#0c322c" fill-opacity=".5" d="M926.34 911.25v-6.47h-2.19v-1.23h5.77v1.23h-2.21v6.47zm8.4.15q-1.37 0-2.18-.7-.8-.7-.8-2.11v-5.04h1.35v4.93q0 .85.44 1.26.45.41 1.19.41t1.19-.41.45-1.26v-4.93h1.35v5.04q0 1.41-.82 2.11t-2.17.7m6.74-.15q-.56 0-.92-.36-.36-.37-.36-.93v-5.12q0-.56.36-.93.36-.36.92-.36h3.75v1.23h-3.3q-.16 0-.28.12t-.12.28v1.62H945v1.17h-3.47v1.65q0 .17.12.28t.28.12h3.3v1.23zm8.12.15q-.86 0-1.5-.31-.64-.32-1.09-.85l.84-.84q.44.45.87.66.44.2.92.2.65 0 1.02-.3t.37-.79q0-.38-.21-.61-.21-.24-.55-.38t-.76-.26-.81-.27q-.41-.14-.75-.37t-.55-.6-.21-.94q0-.72.33-1.24.34-.53.94-.82t1.41-.28q.74 0 1.34.26t.99.7l-.85.86q-.33-.34-.69-.51t-.8-.17q-.6 0-.97.29-.36.29-.36.78 0 .36.21.57t.55.34q.35.13.76.24t.83.25q.41.14.76.37.34.23.55.61.21.39.21.98 0 .74-.35 1.28-.35.55-.98.85-.64.3-1.47.3m4.95-.15v-7.7h2.77q1.09 0 1.95.48.87.48 1.36 1.32t.5 1.96v.12q0 .84-.29 1.54t-.81 1.21-1.21.79-1.5.28zm2.66-6.43h-1.32v5.17h1.32q.74 0 1.31-.32t.9-.9.33-1.34v-.12q0-.75-.32-1.31-.33-.56-.9-.87t-1.32-.31m5.09 6.43 2.82-7.7h1.66l2.8 7.7h-1.38l-.66-1.89h-3.19l-.66 1.89zm2.45-3.04h2.38l-1.18-3.36zm7.67 3.04v-3.19l-2.73-4.51h1.47l1.94 3.21 1.95-3.21h1.46l-2.72 4.51v3.19zm-48.3 20.5 2.93-7.7h1.13l2.93 7.7h-.97l-.78-2.1h-3.49l-.79 2.1zm2.05-2.9h2.88l-1.43-3.86zm6.31 2.9v-5.29h.85v.84q.31-.54.77-.75t.91-.2q.57 0 1.01.25.43.26.65.78.23-.39.55-.62.31-.22.65-.32.33-.09.63-.09.86 0 1.4.55.53.56.53 1.7v3.15h-.86v-3.04q0-.81-.36-1.18-.35-.37-.92-.37-.6 0-.99.4-.4.41-.4 1.15v3.04h-.88v-3.04q0-.81-.34-1.18t-.92-.37q-.6 0-1 .4t-.4 1.15v3.04zm12.27.11q-.78 0-1.38-.35t-.94-.96-.33-1.42v-.11q0-.77.3-1.37.31-.6.87-.95t1.3-.35q.76 0 1.3.37.54.38.8 1.05.25.68.14 1.6h-3.82q.03.47.25.85.23.38.62.6.39.23.92.23.42 0 .74-.1.33-.1.57-.32l.5.55q-.3.33-.78.5-.48.18-1.06.18m-.18-4.74q-.66 0-1.07.42t-.5 1.11h2.97q-.01-.73-.4-1.13-.38-.4-1-.4m3.96 4.63v-5.29h.86v.85q.2-.51.59-.69t.87-.18h.45v.88h-.51q-.65 0-1.01.32t-.36.98v3.13zm4.68 0v-4.52h-1.04v-.77h1.91v5.29zm-.06-6.46v-1.27h.99v1.27zm5.39 6.57q-.78 0-1.4-.34t-.96-.95-.35-1.4v-.14q0-.79.36-1.39.35-.61.96-.95t1.39-.34q.58 0 1.06.21.48.22.81.6l-.55.55q-.51-.54-1.32-.54-.53 0-.94.24t-.65.64q-.24.42-.24.98v.14q0 .56.25.98.24.42.65.65t.94.24q.8 0 1.33-.53l.54.54q-.32.38-.81.6t-1.07.21m5.05 0q-.9 0-1.45-.44t-.54-1.14q0-.47.27-.83.28-.36.76-.58.47-.21 1.07-.21.87 0 1.39.36v-.66q0-.65-.34-.93t-.91-.28q-.43 0-.87.16-.45.16-.77.49l-.42-.63q.36-.4.93-.61t1.18-.21q.93 0 1.5.49.58.5.58 1.48v1.69q0 .88.03 1.74h-.79l-.01-.53q-.5.64-1.61.64m.23-.67q.6 0 .94-.25.34-.26.34-.66t-.34-.66-.95-.25-.96.25-.35.66q0 .39.36.65.35.26.96.26m3.21 2.14 4.08-9.93h.92l-4.1 9.93zm7.51-1.58q-.53 0-.87-.35-.35-.34-.35-.87v-6.48h.94v6.23q0 .25.16.41.17.17.42.17h3.07v.89zm6.79.11q-.76 0-1.35-.35t-.94-.96-.34-1.42v-.1q0-.78.34-1.39t.94-.95 1.35-.34 1.35.34.94.94.34 1.38v.12q0 .81-.34 1.42-.34.62-.94.96-.59.35-1.35.35m0-.79q.52 0 .91-.25t.61-.68.22-1.01v-.12q0-.82-.48-1.35-.49-.52-1.26-.52-.5 0-.9.24-.4.25-.62.67-.23.43-.23.98v.1q0 .57.23 1.01.22.43.62.68t.9.25m5.81.78q-.58 0-1.09-.18t-.83-.47l.39-.62q.3.26.71.41.4.16.82.16.5 0 .8-.23t.31-.59q0-.31-.21-.48t-.53-.26l-.68-.19q-.36-.09-.69-.25-.32-.15-.52-.44-.21-.28-.21-.78 0-.69.53-1.14.52-.44 1.4-.44.49 0 .94.15t.77.39l-.39.61q-.29-.2-.62-.33-.34-.12-.71-.12-.48 0-.77.23-.3.22-.3.59 0 .31.21.47.21.17.53.26l.7.2q.36.09.69.25t.54.45.2.79q0 .46-.25.81t-.71.55-1.03.2m5.7-.1 2.92-7.7h1.14l2.92 7.7h-.97l-.78-2.1h-3.48l-.79 2.1zm2.04-2.9h2.89l-1.43-3.86zm6.32 2.9v-5.29h.86v.85q.32-.55.82-.76t.92-.2q.9 0 1.45.58.56.57.56 1.71v3.11h-.89v-2.98q0-.85-.38-1.23t-.97-.38-1.04.42-.44 1.2v2.97zm6.09 2.2v-.75h3.16q.37 0 .58-.18t.21-.51q0-.31-.21-.48t-.58-.17h-1.74q-.42 0-.63-.2t-.24-.49.12-.6l.36-.71q-.41-.25-.64-.66-.23-.4-.23-.89v-.1q0-.55.29-.97t.8-.65q.51-.24 1.17-.24l.24.01.54-1.11h.89l-.68 1.26q.59.21.93.65t.35 1.03v.12q0 .56-.29.99t-.81.67q-.51.25-1.17.25-.35 0-.68-.08l-.26.52q-.08.14-.05.31.02.18.3.18h1.55q.67 0 1.09.34t.42 1.03q0 .63-.43 1.03-.42.4-1.12.4zm2.42-4.42q.32 0 .64-.12t.54-.39.22-.77q0-.53-.39-.85t-1.01-.32-1 .32-.39.85q0 .49.22.77t.54.39.63.12m6.27 2.33q-.78 0-1.38-.35t-.93-.96-.34-1.42v-.11q0-.77.31-1.37t.87-.95 1.3-.35q.76 0 1.29.37.54.38.8 1.05.26.68.15 1.6h-3.83q.04.47.26.85.23.38.62.6.39.23.92.23.41 0 .74-.1.32-.1.56-.32l.51.55q-.31.33-.79.5-.47.18-1.06.18m-.17-4.74q-.66 0-1.08.42-.41.42-.5 1.11h2.97q-.01-.73-.39-1.13-.39-.4-1-.4m5.37 4.63q-.64 0-1.03-.37t-.39-.98v-5.92h-.97v-.76h1.86v6.69q0 .25.16.42.17.16.42.16h.51v.76zm4.19.11q-.79 0-1.39-.35t-.93-.96-.34-1.42v-.11q0-.77.31-1.37t.87-.95 1.3-.35q.76 0 1.3.37.54.38.79 1.05.26.68.15 1.6h-3.83q.04.47.26.85.23.38.62.6.39.23.92.23.42 0 .74-.1t.57-.32l.5.55q-.31.33-.78.5-.48.18-1.06.18m-.18-4.74q-.66 0-1.07.42t-.5 1.11h2.97q-.02-.73-.4-1.13t-1-.4m5.42 4.73q-.58 0-1.09-.18t-.83-.47l.39-.62q.3.26.71.41.4.16.82.16.5 0 .81-.23.3-.23.3-.59 0-.31-.21-.48t-.52-.26l-.69-.19q-.36-.09-.68-.25-.33-.15-.53-.44-.2-.28-.2-.78 0-.69.52-1.14t1.4-.44q.5 0 .94.15.45.15.78.39l-.4.61q-.29-.2-.62-.33-.34-.12-.71-.12-.47 0-.77.23-.3.22-.3.59 0 .31.21.47.21.17.53.26l.7.2q.37.09.7.25t.53.45.2.79q0 .46-.25.81t-.7.55-1.04.2m6.54-2.62v-1.21h1.07v1.21zm-112.19 19.02v-7.7h2.38q1.16 0 1.87.61t.71 1.71-.71 1.7-1.87.61h-1.45v3.07zm2.43-6.89h-1.5v3.03h1.5q.71 0 1.16-.41.44-.42.44-1.11t-.44-1.1-1.16-.41m4.26 6.89v-7.7h2.59q1.08 0 1.93.47.84.48 1.34 1.32.49.84.49 1.93v.13q0 .85-.28 1.55t-.8 1.22-1.19.8q-.69.28-1.49.28zm2.52-6.82h-1.59v5.94h1.59q.83 0 1.48-.38t1.02-1.05.38-1.54v-.13q0-.85-.37-1.49-.37-.63-1.02-.99t-1.49-.36m6.79 6.82v-6.84h-2.32v-.86h5.61v.86h-2.34v6.84z"/></svg>