<svg xmlns="http://www.w3.org/2000/svg" width="1080" height="1080" viewBox="0 0 1080 1080"><path fill="#0c322c" d="M0 0h1080v1080H0z"/><path fill="#fff" fill-opacity=".45" d="M890.36 45v-7.26h-2.46V36.6h6.19v1.14h-2.47V45zm8.97.16q-1.45 0-2.32-.77-.87-.76-.87-2.26V36.6h1.25v5.44q0 .96.53 1.45.53.5 1.41.5.89 0 1.43-.5.53-.49.53-1.45V36.6h1.25v5.53q0 1.5-.88 2.26-.87.77-2.33.77m7.37-.16q-.6 0-.98-.38-.39-.39-.39-.99v-5.66q0-.6.39-.99.38-.38.98-.38h3.97v1.14h-3.57q-.23 0-.38.16-.15.15-.15.38v1.96h3.85v1.09h-3.85v1.99q0 .23.15.38.15.16.38.16h3.57V45zm8.71.16q-.91 0-1.59-.34-.67-.34-1.14-.89l.77-.78q.46.49.96.72t1.05.23q.78 0 1.23-.38t.44-.98q0-.44-.23-.72t-.62-.44q-.37-.17-.83-.29-.46-.13-.91-.29-.46-.15-.84-.4-.37-.24-.61-.64t-.23-1.02q0-.77.35-1.33.36-.55 1-.86.65-.31 1.52-.31.78 0 1.4.27t1.03.73l-.79.8q-.36-.37-.76-.55-.39-.19-.9-.19-.73 0-1.17.37-.45.36-.45.95 0 .42.24.67t.62.41.84.27.92.26.84.41q.38.25.62.66t.23 1.06q0 .8-.38 1.38-.37.58-1.05.9-.67.32-1.56.32m5.4-.16v-8.4h2.93q1.18 0 2.11.52.94.52 1.48 1.44t.54 2.12v.13q0 .93-.31 1.69-.31.77-.88 1.33-.56.56-1.31.86-.75.31-1.63.31zm2.84-7.22h-1.59v6.04h1.59q.85 0 1.51-.37.67-.38 1.05-1.06.39-.68.39-1.58v-.13q0-.86-.38-1.52t-1.04-1.02-1.53-.36m5.56 7.22 3.14-8.4h1.52L937 45h-1.28l-.79-2.17h-3.64L930.5 45zm2.46-3.24h2.87l-1.43-3.94zm8.52 3.24v-3.52l-3.02-4.88h1.36l2.29 3.68 2.3-3.68h1.36l-3.03 4.88V45zm4.78 0v-1.48h1.42v2.25q0 .39-.16.61t-.4.3-.48.08h-.43v-.68h.43q.15 0 .23-.1.07-.09.07-.22V45zm6.68 0v-1.14h1.78q.32 0 .54-.22.22-.21.22-.54v-5.36h-2.14V36.6h3.4v6.38q0 .99-.55 1.5-.55.52-1.58.52zm9.82.16q-1.45 0-2.32-.77-.87-.76-.87-2.26V36.6h1.25v5.44q0 .96.52 1.45.53.5 1.42.5t1.42-.5.54-1.45V36.6h1.24v5.53q0 1.5-.87 2.26-.88.77-2.33.77m7.4-.16q-.58 0-.97-.38-.39-.39-.39-.99V36.6h1.24v6.68q0 .23.16.39.16.15.38.15h3.38V45zm6.75 0v-3.52l-3.03-4.88h1.36l2.29 3.68 2.31-3.68h1.35l-3.02 4.88V45zm9.97 0 3.74-7.28h-4.46V36.6h5.83v.85L986.98 45zm7.38 0v-1.48h1.42v2.25q0 .39-.16.61t-.4.3-.48.08h-.43v-.68h.43q.15 0 .23-.1.07-.09.07-.22V45zm7.16 0v-.92l3.02-3.05q.6-.59.81-1.05t.22-.91q0-.65-.39-1.03t-1.06-.38q-.56 0-1.03.3t-.85.86l-.81-.78q.48-.73 1.18-1.15t1.54-.41q.81 0 1.41.31.61.31.94.87.34.56.34 1.29 0 .64-.31 1.31t-1.12 1.49l-2.12 2.13h3.89V45zm10.98.12q-1.45 0-2.28-1.13-.82-1.14-.82-3.18t.82-3.19 2.28-1.14q1.47 0 2.29 1.14t.82 3.19-.82 3.18-2.29 1.13m0-1.13q.89 0 1.38-.81t.48-2.37-.48-2.38q-.49-.82-1.38-.82t-1.37.82-.49 2.38q0 1.55.49 2.37.49.81 1.37.81m5.34 1.01v-.92l3.02-3.05q.6-.59.81-1.05t.22-.91q0-.65-.39-1.03t-1.06-.38q-.56 0-1.03.3t-.85.86l-.81-.78q.48-.73 1.18-1.15t1.54-.41q.81 0 1.41.31.61.31.94.87.34.56.34 1.29 0 .64-.31 1.31t-1.12 1.49l-2.12 2.13h3.89V45zm11.06.12q-.93 0-1.61-.35-.67-.36-1.05-1.01-.37-.64-.37-1.52 0-.58.23-1.15t.62-1.14l2.33-3.35h1.49l-2.27 3.08q.41-.15.88-.15.8 0 1.42.36t.97.98q.34.63.34 1.44 0 .85-.37 1.48-.38.63-1.05.98-.68.35-1.56.35m-.03-1.08q.78 0 1.27-.48.48-.48.48-1.25t-.48-1.25q-.49-.49-1.24-.49-.8 0-1.28.49-.49.48-.49 1.25 0 .78.48 1.26.48.47 1.26.47"/><path fill="#30ba78" d="M28.51 392.7v-44.54q0-6.72 3.07-11.81 3.08-5.09 8.5-7.97t12.43-2.88h11.71v18.72H53.76q-2.11 0-3.26 1.25-1.16 1.25-1.16 3.36v9.41h14.88v34.46zm41.28 0v-44.54q0-6.72 3.07-11.81 3.08-5.09 8.5-7.97t12.43-2.88h11.71v18.72H95.04q-2.11 0-3.26 1.25-1.16 1.25-1.16 3.36v9.41h14.88v34.46z"/><path fill="#fff" d="M42.4 490.5v-51.12H25.04v-4.88H65.2v4.88H47.76v51.12zm28 0v-58.4h4.88v26.96q1.52-2.88 3.8-4.52t4.76-2.36 4.64-.72q6.48 0 10.56 4.12t4.08 12.6v22.32H98v-21.68q0-6.72-3.04-9.68t-7.68-2.96q-3.2 0-5.88 1.44t-4.28 4.24-1.6 7.04v21.6zm59.6.8q-5.6 0-9.92-2.52t-6.72-6.96-2.4-10.28v-.8q0-5.6 2.24-9.92t6.2-6.84 9.24-2.52q5.36 0 9.2 2.64t5.64 7.44 1.08 11.2H116q.16 3.92 1.96 7.08t4.92 4.96 7.28 1.8q6.32 0 9.92-3.12l2.88 3.28q-2.16 2.16-5.56 3.36t-7.4 1.2m-1.36-35.36q-5.28 0-8.6 3.44t-3.96 9.12h23.68q.08-5.76-3-9.16t-8.12-3.4M172 490.5v-33.76h-7.28v-4.48H172v-10.48q0-4.4 2.8-7.04t7.2-2.64h6.32v4.4H182q-2.16 0-3.56 1.4t-1.4 3.48v10.88h11.28v4.48h-11.28v33.76zm36.64.8q-4.24 0-7.6-1.64t-5.28-5.12-1.92-9.16v-23.12h5.04v22.32q0 6.72 3.04 9.36t7.6 2.64q3.12 0 5.76-1.4t4.28-4.16 1.64-7v-21.76h4.96v38.24h-4.64v-6.32q-2.32 4-6 5.56t-6.88 1.56m40.8-.8q-2.56 0-4.8-1.04t-3.68-3.16-1.44-5.48v-24.08h-7.12v-4.48h7.12v-9.52h5.04v9.52h10.64v4.48h-10.64v24.4q0 2.16 1.44 3.56t3.52 1.4h5.68v4.4zm27.28.8q-4.24 0-7.6-1.64t-5.28-5.12-1.92-9.16v-23.12h5.04v22.32q0 6.72 3.04 9.36t7.6 2.64q3.12 0 5.76-1.4t4.28-4.16 1.64-7v-21.76h4.96v38.24h-4.64v-6.32q-2.32 4-6 5.56t-6.88 1.56m28.56-.8v-38.24h4.96v6.24q1.44-3.68 4.28-5t6.44-1.32h3.28v5.04h-3.68q-4.72 0-7.44 2.44t-2.72 7.64v23.2zm39.76.8q-5.6 0-9.92-2.52t-6.72-6.96-2.4-10.28v-.8q0-5.6 2.24-9.92t6.2-6.84 9.24-2.52q5.36 0 9.2 2.64t5.64 7.44 1.08 11.2h-28.56q.16 3.92 1.96 7.08t4.92 4.96 7.28 1.8q6.32 0 9.92-3.12l2.88 3.28q-2.16 2.16-5.56 3.36t-7.4 1.2m-1.36-35.36q-5.28 0-8.6 3.44t-3.96 9.12h23.68q.08-5.76-3-9.16t-8.12-3.4m60.8 35.36q-4.72 0-8.52-2.28t-5.96-6.36v7.84h-4.72v-58.4h5.12v27.52q2.16-3.76 5.8-5.96t8.28-2.2q5.2 0 9.24 2.48t6.36 6.84 2.32 10.04v.72q0 5.84-2.28 10.32t-6.32 6.96-9.32 2.48m-.64-4.56q3.92 0 6.96-1.88t4.76-5.32 1.72-8v-.72q0-4.4-1.72-7.72t-4.76-5.2-6.96-1.88-7.04 1.96-4.92 5.4-1.8 8q0 4.64 1.8 8.08t4.92 5.36 7.04 1.92m43.36 4.56q-5.6 0-9.92-2.52t-6.72-6.96-2.4-10.28v-.8q0-5.6 2.24-9.92t6.2-6.84 9.24-2.52q5.36 0 9.2 2.64t5.64 7.44 1.08 11.2H433.2q.16 3.92 1.96 7.08t4.92 4.96 7.28 1.8q6.32 0 9.92-3.12l2.88 3.28q-2.16 2.16-5.56 3.36t-7.4 1.2m-1.36-35.36q-5.28 0-8.6 3.44t-3.96 9.12h23.68q.08-5.76-3-9.16t-8.12-3.4m33.76 34.56q-4.4 0-7.08-2.56t-2.68-6.8V436.5h-7.36v-4.4h12.48v49.12q0 2.08 1.4 3.48t3.48 1.4h3.44v4.4zm24.88.8q-5.44 0-9.68-2.52t-6.64-6.96-2.4-10.28v-.72q0-5.68 2.4-10.04t6.64-6.84 9.68-2.48q5.36 0 9.6 2.48t6.64 6.8 2.4 9.92v.88q0 5.84-2.4 10.28t-6.64 6.96-9.6 2.52m0-4.56q4 0 7.04-1.96t4.76-5.36 1.72-7.88v-.88q0-4.32-1.72-7.6t-4.76-5.16-7.04-1.88-7.08 1.92-4.84 5.24-1.76 7.64v.72q0 4.48 1.76 7.88t4.84 5.36 7.08 1.96m27.04 3.76v-38.24h4.88v6.8q1.52-2.88 3.8-4.52t4.76-2.36 4.64-.72q6.48 0 10.56 4.12t4.08 12.6v22.32h-5.12v-21.68q0-6.72-3.04-9.68t-7.68-2.96q-3.2 0-5.88 1.44t-4.28 4.24-1.6 7.04v21.6zm38.96 16v-4.32h22.64q3.12 0 4.92-1.56t1.8-4.28q0-2.56-1.8-4t-4.92-1.44h-12.16q-2.96 0-4.48-1.4t-1.68-3.48.88-4.08l2.64-5.28q-2.96-1.76-4.68-4.68t-1.72-6.52v-.72q0-3.92 2.04-6.92t5.68-4.68 8.36-1.68q1.2 0 2.24.08l4.08-8.32h5.12l-4.88 9.2q4.32 1.44 6.92 4.64t2.6 7.44v.96q0 4-2.04 7.08t-5.68 4.84-8.36 1.76q-2.96 0-5.6-.72l-2.08 4q-.4.88-.52 1.88t.52 1.72 2.24.72h11.2q4.88 0 7.88 2.48t3 7.12q0 4.56-3.04 7.36t-8.08 2.8zM588 475.06q2.56 0 5.12-.92t4.28-3.08 1.72-6.08q0-4.16-3.12-6.72t-8-2.56-8 2.56-3.12 6.72q0 3.84 1.76 6.04t4.36 3.12 5 .92m34.32 16.16q-4 0-7.68-1.28t-5.92-3.44l2.32-3.52q2.08 1.92 5.12 3.04t6.16 1.12q3.92 0 6.4-1.84t2.48-4.88q0-2.48-1.52-3.84t-3.96-2.08-5.12-1.4-5.08-1.76-3.92-3.08-1.52-5.6q0-4.96 3.68-8.08t9.84-3.12q3.52 0 6.6 1.08t5.4 2.84l-2.32 3.6q-2-1.6-4.48-2.48t-5.28-.88q-3.84 0-6.2 1.84t-2.36 4.8q0 2.48 1.52 3.8t3.96 2.08 5.16 1.44 5.16 1.8 3.96 3.2 1.52 5.68q0 4.8-3.88 7.88t-10.04 3.08m50.8-.72q-2.56 0-4.8-1.04t-3.68-3.16-1.44-5.48v-24.08h-7.12v-4.48h7.12v-9.52h5.04v9.52h10.64v4.48h-10.64v24.4q0 2.16 1.44 3.56t3.52 1.4h5.68v4.4zm27.84.8q-5.44 0-9.68-2.52t-6.64-6.96-2.4-10.28v-.72q0-5.68 2.4-10.04t6.64-6.84 9.68-2.48q5.36 0 9.6 2.48t6.64 6.8 2.4 9.92v.88q0 5.84-2.4 10.28t-6.64 6.96-9.6 2.52m0-4.56q4 0 7.04-1.96t4.76-5.36 1.72-7.88v-.88q0-4.32-1.72-7.6T708 457.9t-7.04-1.88-7.08 1.92-4.84 5.24-1.76 7.64v.72q0 4.48 1.76 7.88t4.84 5.36 7.08 1.96m55.84 3.76q-2.56 0-4.8-1.04t-3.68-3.16-1.44-5.48v-24.08h-7.12v-4.48h7.12v-9.52h5.04v9.52h10.64v4.48h-10.64v24.4q0 2.16 1.44 3.56t3.52 1.4h5.68v4.4zm13.04 0v-58.4h4.88v26.96q1.52-2.88 3.8-4.52t4.76-2.36 4.64-.72q6.48 0 10.56 4.12t4.08 12.6v22.32h-5.12v-21.68q0-6.72-3.04-9.68t-7.68-2.96q-3.2 0-5.88 1.44t-4.28 4.24-1.6 7.04v21.6zm59.28.8q-5.44 0-9.68-2.52t-6.64-6.96-2.4-10.28v-.72q0-5.68 2.4-10.04t6.64-6.84 9.68-2.48q5.36 0 9.6 2.48t6.64 6.8 2.4 9.92v.88q0 5.84-2.4 10.28t-6.64 6.96-9.6 2.52m0-4.56q4 0 7.04-1.96t4.76-5.36 1.72-7.88v-.88q0-4.32-1.72-7.6t-4.76-5.16-7.04-1.88-7.08 1.92-4.84 5.24-1.76 7.64v.72q0 4.48 1.76 7.88t4.84 5.36 7.08 1.96m37.12 4.48q-4 0-7.68-1.28t-5.92-3.44l2.32-3.52q2.08 1.92 5.12 3.04t6.16 1.12q3.92 0 6.4-1.84t2.48-4.88q0-2.48-1.52-3.84t-3.96-2.08-5.12-1.4-5.08-1.76-3.92-3.08-1.52-5.6q0-4.96 3.68-8.08t9.84-3.12q3.52 0 6.6 1.08t5.4 2.84l-2.32 3.6q-2-1.6-4.48-2.48t-5.28-.88q-3.84 0-6.2 1.84t-2.36 4.8q0 2.48 1.52 3.8t3.96 2.08 5.16 1.44 5.16 1.8 3.96 3.2 1.52 5.68q0 4.8-3.88 7.88t-10.04 3.08m38.32.08q-5.6 0-9.92-2.52t-6.72-6.96-2.4-10.28v-.8q0-5.6 2.24-9.92t6.2-6.84 9.24-2.52q5.36 0 9.2 2.64t5.64 7.44 1.08 11.2h-28.56q.16 3.92 1.96 7.08t4.92 4.96 7.28 1.8q6.32 0 9.92-3.12l2.88 3.28q-2.16 2.16-5.56 3.36t-7.4 1.2m-1.36-35.36q-5.28 0-8.6 3.44t-3.96 9.12h23.68q.08-5.76-3-9.16t-8.12-3.4M37.28 588.09l-11.36-38.24h5.12l9.36 33.04 9.68-33.04h5.36l9.68 32.88 9.44-32.88h5.04l-11.36 38.24h-5.76l-9.76-33.44-9.68 33.44zm48.96 0v-58.4h4.88v26.96q1.52-2.88 3.8-4.52t4.76-2.36 4.64-.72q6.48 0 10.56 4.12t4.08 12.6v22.32h-5.12v-21.68q0-6.72-3.04-9.68t-7.68-2.96q-3.2 0-5.88 1.44t-4.28 4.24-1.6 7.04v21.6zm59.28.8q-5.44 0-9.68-2.52t-6.64-6.96-2.4-10.28v-.72q0-5.68 2.4-10.04t6.64-6.84 9.68-2.48q5.36 0 9.6 2.48t6.64 6.8 2.4 9.92v.88q0 5.84-2.4 10.28t-6.64 6.96-9.6 2.52m0-4.56q4 0 7.04-1.96t4.76-5.36 1.72-7.88v-.88q0-4.32-1.72-7.6t-4.76-5.16-7.04-1.88-7.08 1.92-4.84 5.24-1.76 7.64v.72q0 4.48 1.76 7.88t4.84 5.36 7.08 1.96m63.76 4.56q-4.72 0-8.52-2.28t-5.96-6.36v7.84h-4.72v-58.4h5.12v27.52q2.16-3.76 5.8-5.96t8.28-2.2q5.2 0 9.24 2.48t6.36 6.84 2.32 10.04v.72q0 5.84-2.28 10.32t-6.32 6.96-9.32 2.48m-.64-4.56q3.92 0 6.96-1.88t4.76-5.32 1.72-8v-.72q0-4.4-1.72-7.72t-4.76-5.2-6.96-1.88-7.04 1.96-4.92 5.4-1.8 8q0 4.64 1.8 8.08t4.92 5.36 7.04 1.92m43.36 4.56q-5.6 0-9.92-2.52t-6.72-6.96-2.4-10.28v-.8q0-5.6 2.24-9.92t6.2-6.84 9.24-2.52q5.36 0 9.2 2.64t5.64 7.44 1.08 11.2H238q.16 3.92 1.96 7.08t4.92 4.96 7.28 1.8q6.32 0 9.92-3.12l2.88 3.28q-2.16 2.16-5.56 3.36t-7.4 1.2m-1.36-35.36q-5.28 0-8.6 3.44t-3.96 9.12h23.68q.08-5.76-3-9.16t-8.12-3.4m33.76 34.56q-4.4 0-7.08-2.56t-2.68-6.8v-44.64h-7.36v-4.4h12.48v49.12q0 2.08 1.4 3.48t3.48 1.4h3.44v4.4zm11.84 0v-33.76h-7.68v-4.48h12.72v38.24zm-.32-47.04v-8.64h5.68v8.64zm32.88 47.84q-5.6 0-9.92-2.52t-6.72-6.96-2.4-10.28v-.8q0-5.6 2.24-9.92t6.2-6.84 9.24-2.52q5.36 0 9.2 2.64t5.64 7.44 1.08 11.2H314.8q.16 3.92 1.96 7.08t4.92 4.96 7.28 1.8q6.32 0 9.92-3.12l2.88 3.28q-2.16 2.16-5.56 3.36t-7.4 1.2m-1.36-35.36q-5.28 0-8.6 3.44t-3.96 9.12h23.68q.08-5.76-3-9.16t-8.12-3.4m33.84 34.56-15.44-38.24h5.28L364 582.01l12.8-32.16h5.28l-15.36 38.24zm42.48.8q-5.6 0-9.92-2.52t-6.72-6.96-2.4-10.28v-.8q0-5.6 2.24-9.92t6.2-6.84 9.24-2.52q5.36 0 9.2 2.64t5.64 7.44 1.08 11.2h-28.56q.16 3.92 1.96 7.08t4.92 4.96 7.28 1.8q6.32 0 9.92-3.12l2.88 3.28q-2.16 2.16-5.56 3.36t-7.4 1.2m-1.36-35.36q-5.28 0-8.6 3.44t-3.96 9.12h23.68q.08-5.76-3-9.16t-8.12-3.4m43.6 34.56v-33.76h-7.68v-4.48h12.72v38.24zm-.32-47.04v-8.64h5.68v8.64zm16.48 47.04v-38.24h4.88v6.8q1.52-2.88 3.8-4.52t4.76-2.36 4.64-.72q6.48 0 10.56 4.12t4.08 12.6v22.32h-5.12v-21.68q0-6.72-3.04-9.68t-7.68-2.96q-3.2 0-5.88 1.44t-4.28 4.24-1.6 7.04v21.6zm72 0q-2.56 0-4.8-1.04t-3.68-3.16-1.44-5.48v-24.08h-7.12v-4.48h7.12v-9.52h5.04v9.52h10.64v4.48h-10.64v24.4q0 2.16 1.44 3.56t3.52 1.4h5.68v4.4zm13.04 0v-58.4h4.88v26.96q1.52-2.88 3.8-4.52t4.76-2.36 4.64-.72q6.48 0 10.56 4.12t4.08 12.6v22.32h-5.12v-21.68q0-6.72-3.04-9.68t-7.68-2.96q-3.2 0-5.88 1.44t-4.28 4.24-1.6 7.04v21.6zm59.6.8q-5.6 0-9.92-2.52t-6.72-6.96-2.4-10.28v-.8q0-5.6 2.24-9.92t6.2-6.84 9.24-2.52q5.36 0 9.2 2.64t5.64 7.44 1.08 11.2H592.8q.16 3.92 1.96 7.08t4.92 4.96 7.28 1.8q6.32 0 9.92-3.12l2.88 3.28q-2.16 2.16-5.56 3.36t-7.4 1.2m-1.36-35.36q-5.28 0-8.6 3.44t-3.96 9.12h23.68q.08-5.76-3-9.16t-8.12-3.4m60.8 35.36q-4.72 0-8.52-2.28t-5.96-6.36v7.84h-4.72v-58.4h5.12v27.52q2.16-3.76 5.8-5.96t8.28-2.2q5.2 0 9.24 2.48t6.36 6.84 2.32 10.04v.72q0 5.84-2.28 10.32t-6.32 6.96-9.32 2.48m-.64-4.56q3.92 0 6.96-1.88t4.76-5.32 1.72-8v-.72q0-4.4-1.72-7.72t-4.76-5.2-6.96-1.88-7.04 1.96-4.92 5.4-1.8 8q0 4.64 1.8 8.08t4.92 5.36 7.04 1.92m43.36 4.56q-5.6 0-9.92-2.52t-6.72-6.96-2.4-10.28v-.8q0-5.6 2.24-9.92t6.2-6.84 9.24-2.52q5.36 0 9.2 2.64t5.64 7.44 1.08 11.2h-28.56q.16 3.92 1.96 7.08t4.92 4.96 7.28 1.8q6.32 0 9.92-3.12l2.88 3.28q-2.16 2.16-5.56 3.36t-7.4 1.2m-1.36-35.36q-5.28 0-8.6 3.44t-3.96 9.12h23.68q.08-5.76-3-9.16t-8.12-3.4m35.44 35.36q-6.64 0-10.56-3.12t-3.92-8.16q0-3.36 1.92-5.92t5.32-4.04 7.8-1.48q3.52 0 6.2.84t4.52 2.36v-5.92q0-5.2-2.64-7.48t-7.12-2.28q-3.2 0-6.52 1.16t-5.56 3.72l-2.48-3.6q2.56-2.96 6.56-4.44t8.24-1.48q6.56 0 10.56 3.52t4 10.64v12.16q0 6.4.24 12.72h-4.56l-.08-4.16q-3.44 4.96-11.92 4.96m1.2-3.92q4.88 0 7.48-2.08t2.6-5.28q0-3.28-2.64-5.28t-7.52-2q-4.8 0-7.6 2t-2.8 5.28q0 3.2 2.8 5.28t7.68 2.08m40 3.92q-4.24 0-7.6-1.64t-5.28-5.12-1.92-9.16v-23.12h5.04v22.32q0 6.72 3.04 9.36t7.6 2.64q3.12 0 5.76-1.4t4.28-4.16 1.64-7v-21.76h4.96v38.24h-4.64v-6.32q-2.32 4-6 5.56t-6.88 1.56m40.8-.8q-2.56 0-4.8-1.04t-3.68-3.16-1.44-5.48v-24.08H808v-4.48h7.12v-9.52h5.04v9.52h10.64v4.48h-10.64v24.4q0 2.16 1.44 3.56t3.52 1.4h5.68v4.4zm8.32 16v-4.4h7.28q2 0 3.16-1.4t1.88-3.24l2.96-6.64-15.84-38.56h5.6l12.96 32.32 12.56-32.32h5.6l-18.64 45.36q-.88 2.16-2.12 4.2t-3.24 3.36-5.12 1.32zm74.16-15.2q-5.44 0-9.68-2.52t-6.64-6.96-2.4-10.28v-.72q0-5.68 2.4-10.04t6.64-6.84 9.68-2.48q5.36 0 9.6 2.48t6.64 6.8 2.4 9.92v.88q0 5.84-2.4 10.28t-6.64 6.96-9.6 2.52m0-4.56q4 0 7.04-1.96t4.76-5.36 1.72-7.88v-.88q0-4.32-1.72-7.6t-4.76-5.16-7.04-1.88-7.08 1.92-4.84 5.24-1.76 7.64v.72q0 4.48 1.76 7.88t4.84 5.36 7.08 1.96m28.96 3.76v-33.76h-7.28v-4.48h7.28v-10.48q0-4.4 2.8-7.04t7.2-2.64h6.32v4.4h-6.32q-2.16 0-3.56 1.4t-1.4 3.48v10.88h11.28v4.48h-11.28v33.76zm-893.92 97.6q-2.56 0-4.8-1.04t-3.68-3.16-1.44-5.48v-24.08h-7.12v-4.48h7.12v-9.52h5.04v9.52h10.64v4.48H37.68v24.4q0 2.16 1.44 3.56t3.52 1.4h5.68v4.4zm13.04 0v-58.4h4.88v26.96q1.52-2.88 3.8-4.52t4.76-2.36 4.64-.72q6.48 0 10.56 4.12t4.08 12.6v22.32H83.2v-21.68q0-6.72-3.04-9.68t-7.68-2.96q-3.2 0-5.88 1.44t-4.28 4.24-1.6 7.04v21.6zm59.6.8q-5.6 0-9.92-2.52t-6.72-6.96-2.4-10.28v-.8q0-5.6 2.24-9.92t6.2-6.84 9.24-2.52q5.36 0 9.2 2.64t5.64 7.44 1.08 11.2H101.2q.16 3.92 1.96 7.08t4.92 4.96 7.28 1.8q6.32 0 9.92-3.12l2.88 3.28q-2.16 2.16-5.56 3.36t-7.4 1.2m-1.36-35.36q-5.28 0-8.6 3.44t-3.96 9.12h23.68q.08-5.76-3-9.16t-8.12-3.4m26.64 34.56v-33.76h-7.68v-4.48h12.72v38.24zm-.32-47.04v-8.64h5.68v8.64zm16.48 47.04v-38.24h4.96v6.24q1.44-3.68 4.28-5t6.44-1.32h3.28v5.04h-3.68q-4.72 0-7.44 2.44t-2.72 7.64v23.2zm56.32.8q-5.28 0-9.32-2.48t-6.32-6.96-2.28-10.32v-.72q0-5.68 2.32-10.04t6.36-6.84 9.24-2.48q4.64 0 8.28 2.2t5.8 5.96v-27.52h5.12v58.4h-4.64v-7.84q-2.24 4-6 6.32t-8.56 2.32m.64-4.56q3.92 0 7.04-1.92t4.92-5.36 1.8-8.08q0-4.56-1.8-8t-4.92-5.4-7.04-1.96-6.96 1.88-4.76 5.2-1.72 7.72v.72q0 4.56 1.72 8t4.76 5.32 6.96 1.88m29.6 3.76v-38.24h4.96v6.24q1.44-3.68 4.28-5t6.44-1.32h3.28v5.04h-3.68q-4.72 0-7.44 2.44t-2.72 7.64v23.2zm39.76.8q-5.6 0-9.92-2.52t-6.72-6.96-2.4-10.28v-.8q0-5.6 2.24-9.92t6.2-6.84 9.24-2.52q5.36 0 9.2 2.64t5.64 7.44 1.08 11.2h-28.56q.16 3.92 1.96 7.08t4.92 4.96 7.28 1.8q6.32 0 9.92-3.12l2.88 3.28q-2.16 2.16-5.56 3.36t-7.4 1.2m-1.36-35.36q-5.28 0-8.6 3.44t-3.96 9.12h23.68q.08-5.76-3-9.16t-8.12-3.4m35.44 35.36q-6.64 0-10.56-3.12t-3.92-8.16q0-3.36 1.92-5.92t5.32-4.04 7.8-1.48q3.52 0 6.2.84t4.52 2.36v-5.92q0-5.2-2.64-7.48t-7.12-2.28q-3.2 0-6.52 1.16t-5.56 3.72l-2.48-3.6q2.56-2.96 6.56-4.44t8.24-1.48q6.56 0 10.56 3.52t4 10.64v12.16q0 6.4.24 12.72h-4.56l-.08-4.16q-3.44 4.96-11.92 4.96m1.2-3.92q4.88 0 7.48-2.08t2.6-5.28q0-3.28-2.64-5.28t-7.52-2q-4.8 0-7.6 2t-2.8 5.28q0 3.2 2.8 5.28t7.68 2.08m25.76 3.12v-38.24h4.88v6.72q2.16-4.24 5.68-5.88t6.96-1.64q4.4 0 7.64 2t4.76 6.24q1.6-3.12 3.88-4.92t4.8-2.56 4.84-.76q6.24 0 10.12 4.04t3.88 12.52v22.48h-4.96v-21.92q0-6.56-2.8-9.48t-7.36-2.92q-4.64 0-7.84 3.16t-3.2 9.16v22h-5.04v-21.92q0-6.56-2.76-9.48t-7.32-2.92q-4.72 0-7.92 3.16t-3.2 9.16v22zm78.08.72q-4 0-7.68-1.28t-5.92-3.44l2.32-3.52q2.08 1.92 5.12 3.04t6.16 1.12q3.92 0 6.4-1.84t2.48-4.88q0-2.48-1.52-3.84t-3.96-2.08-5.12-1.4-5.08-1.76-3.92-3.08-1.52-5.6q0-4.96 3.68-8.08t9.84-3.12q3.52 0 6.6 1.08t5.4 2.84l-2.32 3.6q-2-1.6-4.48-2.48t-5.28-.88q-3.84 0-6.2 1.84t-2.36 4.8q0 2.48 1.52 3.8t3.96 2.08 5.16 1.44 5.16 1.8 3.96 3.2 1.52 5.68q0 4.8-3.88 7.88t-10.04 3.08m20.8-.72v-7.36h6.16v7.36z"/><path fill="#30ba78" d="M24.86 747.23v-1.94h16.2v1.94zm24.81 4.05q-.92 0-1.5-.59-.59-.6-.59-1.52v-8.38q0-.92.59-1.52.58-.59 1.5-.59h6.14v2.02h-5.4q-.27 0-.46.19-.19.18-.19.45v2.65h5.67v1.93h-5.67v2.7q0 .27.19.46.19.18.46.18h5.4v2.02zm11.07 0q-1.19 0-1.9-.65t-.71-1.78v-8.95h-1.46v-1.76h3.53v10.75q0 .28.19.47t.47.19h.92v1.73zm6.51.18q-1.31 0-2.31-.57t-1.56-1.58-.55-2.37v-.18q0-1.24.51-2.25t1.46-1.59 2.2-.59q1.32 0 2.25.64.94.64 1.37 1.81t.23 2.76h-5.97q.11.91.75 1.52.63.6 1.73.6.65 0 1.12-.18t.84-.54l1.17 1.22q-.52.65-1.35.98t-1.89.32m-.23-7.45q-.92 0-1.44.57t-.67 1.48h3.96q-.03-.97-.54-1.51-.52-.54-1.31-.54m8.5 7.45q-1.5 0-2.38-.73t-.88-1.88q0-1.17.96-1.93.96-.77 2.57-.77 1.2 0 1.99.43v-.84q0-.87-.48-1.23-.49-.36-1.24-.36-.67 0-1.38.25-.71.26-1.22.72l-.93-1.4q.57-.65 1.57-1.02t2.08-.37q1.62 0 2.64.84t1.02 2.46v2.82l.01 1.43q0 .7.04 1.4h-1.84l-.01-.9q-.74 1.08-2.52 1.08m.57-1.53q.78 0 1.24-.32.47-.33.47-.85 0-.5-.47-.83t-1.26-.32q-.77 0-1.25.32-.47.33-.47.83 0 .52.47.85.48.32 1.27.32m6.25 1.35v-8.77h2v1.12q.54-.77 1.28-1.03.75-.27 1.36-.27 1.48 0 2.37.97.89.96.89 2.76v5.22h-2.07v-4.88q0-1.15-.49-1.66-.5-.52-1.27-.52-.85 0-1.43.57-.57.57-.57 1.65v4.84zm14.34.18q-1.27 0-2.3-.58-1.03-.57-1.62-1.59t-.59-2.33v-.16q0-1.32.59-2.32.59-1.01 1.62-1.58t2.3-.57 2.3.57 1.61 1.58.59 2.3v.18q0 1.31-.59 2.33t-1.61 1.59q-1.02.58-2.3.58m0-1.84q1.08 0 1.76-.74.67-.75.67-1.92v-.18q0-1.15-.67-1.88-.68-.73-1.76-.73-1.06 0-1.74.74-.69.74-.69 1.89v.16q0 1.17.69 1.92.68.74 1.74.74m6.54 1.66v-8.77h2v1.28q.32-.75.95-1.05t1.4-.3h.72v2.05h-.88q-1.02 0-1.57.47t-.55 1.37v4.95zm10.74 0v-12.6h4.5q2 0 3.21 1.02 1.2 1.01 1.2 2.94 0 1.46-.67 2.39-.68.92-1.85 1.32l2.9 4.93h-2.54l-2.62-4.66h-1.93v4.66zm4.4-10.73h-2.2v4.21h2.2q1 0 1.63-.54t.62-1.54q0-.98-.62-1.55-.63-.58-1.63-.58m10.36 10.91q-1.27 0-2.3-.58-1.03-.57-1.62-1.59t-.59-2.33v-.16q0-1.32.59-2.32.59-1.01 1.62-1.58t2.3-.57 2.3.57 1.61 1.58.59 2.3v.18q0 1.31-.59 2.33t-1.61 1.59q-1.02.58-2.3.58m0-1.84q1.08 0 1.76-.74.67-.75.67-1.92v-.18q0-1.15-.67-1.88-.68-.73-1.76-.73-1.06 0-1.74.74-.69.74-.69 1.89v.16q0 1.17.69 1.92.68.74 1.74.74m10.5 1.84q-1.28 0-2.31-.58-1.02-.57-1.62-1.59-.59-1.02-.59-2.33v-.16q0-1.32.59-2.32.6-1.01 1.62-1.58 1.03-.57 2.31-.57t2.29.57q1.02.57 1.61 1.58.6 1 .6 2.3v.18q0 1.31-.6 2.33-.59 1.02-1.61 1.59-1.01.58-2.29.58m0-1.84q1.08 0 1.75-.74.68-.75.68-1.92v-.18q0-1.15-.68-1.88-.67-.73-1.75-.73-1.06 0-1.75.74t-.68 1.89v.16q0 1.17.68 1.92.69.74 1.75.74m9.09 1.82q-1.05 0-1.92-.3-.87-.31-1.45-.76l.9-1.42q.52.38 1.16.62t1.31.24q.65 0 1.03-.27.39-.27.39-.7t-.31-.65-.82-.35l-1.07-.28q-.57-.14-1.08-.41-.5-.27-.82-.77-.33-.49-.33-1.3 0-1.21.92-1.98.92-.78 2.47-.78.86 0 1.63.24.78.23 1.39.65l-.92 1.38q-1.01-.68-2.12-.68-.63 0-1.01.28t-.38.71q0 .39.34.62.33.22.84.36l1.09.3q.58.16 1.09.44t.84.77q.34.5.34 1.31t-.45 1.42-1.24.96-1.82.35m9.38.02q-1.32 0-2.32-.57t-1.55-1.58-.56-2.37v-.18q0-1.24.51-2.25t1.46-1.59 2.2-.59q1.32 0 2.25.64.94.64 1.37 1.81t.24 2.76h-5.98q.11.91.75 1.52.64.6 1.73.6.65 0 1.12-.18t.85-.54l1.17 1.22q-.53.65-1.36.98t-1.88.32m-.24-7.45q-.92 0-1.44.57t-.66 1.48h3.96q-.04-.97-.55-1.51-.52-.54-1.31-.54m7.99 7.27-3.38-8.77h2.16l2.3 6.32 2.31-6.32h2.16l-3.37 8.77zm10.75.18q-1.31 0-2.31-.57t-1.56-1.58-.56-2.37v-.18q0-1.24.51-2.25.52-1.01 1.46-1.59.95-.59 2.21-.59 1.31 0 2.25.64t1.37 1.81.23 2.76h-5.98q.11.91.75 1.52.64.6 1.74.6.65 0 1.11-.18t.85-.54l1.17 1.22q-.52.65-1.36.98t-1.88.32m-.23-7.45q-.92 0-1.44.57-.53.56-.67 1.48h3.96q-.04-.97-.55-1.51t-1.3-.54m8.47 7.27q-1.18 0-1.89-.65-.72-.65-.72-1.78v-8.95h-1.45v-1.76h3.52v10.75q0 .28.19.47t.48.19h.92v1.73zm5.84 0q-.63 0-1.25-.22-.63-.21-1.04-.78t-.41-1.57v-4.43h-1.5v-1.77h1.5v-2.14h2.07v2.14h2.03v1.77h-2.03v4.59q0 .27.19.46.18.19.45.19h1.39v1.76z"/></svg>