<svg xmlns="http://www.w3.org/2000/svg" width="1080" height="1080" viewBox="0 0 1080 1080"><path fill="#30ba78" d="M0 0h1080v1080H0z"/><path fill="#0c322c" fill-opacity=".55" d="M890.36 45v-7.26h-2.46V36.6h6.19v1.14h-2.47V45zm8.97.16q-1.45 0-2.32-.77-.87-.76-.87-2.26V36.6h1.25v5.44q0 .96.53 1.45.53.5 1.41.5.89 0 1.43-.5.53-.49.53-1.45V36.6h1.25v5.53q0 1.5-.88 2.26-.87.77-2.33.77m7.37-.16q-.6 0-.98-.38-.39-.39-.39-.99v-5.66q0-.6.39-.99.38-.38.98-.38h3.97v1.14h-3.57q-.23 0-.38.16-.15.15-.15.38v1.96h3.85v1.09h-3.85v1.99q0 .23.15.38.15.16.38.16h3.57V45zm8.71.16q-.91 0-1.59-.34-.67-.34-1.14-.89l.77-.78q.46.49.96.72t1.05.23q.78 0 1.23-.38t.44-.98q0-.44-.23-.72t-.62-.44q-.37-.17-.83-.29-.46-.13-.91-.29-.46-.15-.84-.4-.37-.24-.61-.64t-.23-1.02q0-.77.35-1.33.36-.55 1-.86.65-.31 1.52-.31.78 0 1.4.27t1.03.73l-.79.8q-.36-.37-.76-.55-.39-.19-.9-.19-.73 0-1.17.37-.45.36-.45.95 0 .42.24.67t.62.41.84.27.92.26.84.41q.38.25.62.66t.23 1.06q0 .8-.38 1.38-.37.58-1.05.9-.67.32-1.56.32m5.4-.16v-8.4h2.93q1.18 0 2.11.52.94.52 1.48 1.44t.54 2.12v.13q0 .93-.31 1.69-.31.77-.88 1.33-.56.56-1.31.86-.75.31-1.63.31zm2.84-7.22h-1.59v6.04h1.59q.85 0 1.51-.37.67-.38 1.05-1.06.39-.68.39-1.58v-.13q0-.86-.38-1.52t-1.04-1.02-1.53-.36m5.56 7.22 3.14-8.4h1.52L937 45h-1.28l-.79-2.17h-3.64L930.5 45zm2.46-3.24h2.87l-1.43-3.94zm8.52 3.24v-3.52l-3.02-4.88h1.36l2.29 3.68 2.3-3.68h1.36l-3.03 4.88V45zm4.78 0v-1.48h1.42v2.25q0 .39-.16.61t-.4.3-.48.08h-.43v-.68h.43q.15 0 .23-.1.07-.09.07-.22V45zm6.68 0v-1.14h1.78q.32 0 .54-.22.22-.21.22-.54v-5.36h-2.14V36.6h3.4v6.38q0 .99-.55 1.5-.55.52-1.58.52zm9.82.16q-1.45 0-2.32-.77-.87-.76-.87-2.26V36.6h1.25v5.44q0 .96.52 1.45.53.5 1.42.5t1.42-.5.54-1.45V36.6h1.24v5.53q0 1.5-.87 2.26-.88.77-2.33.77m7.4-.16q-.58 0-.97-.38-.39-.39-.39-.99V36.6h1.24v6.68q0 .23.16.39.16.15.38.15h3.38V45zm6.75 0v-3.52l-3.03-4.88h1.36l2.29 3.68 2.31-3.68h1.35l-3.02 4.88V45zm9.97 0 3.74-7.28h-4.46V36.6h5.83v.85L986.98 45zm7.38 0v-1.48h1.42v2.25q0 .39-.16.61t-.4.3-.48.08h-.43v-.68h.43q.15 0 .23-.1.07-.09.07-.22V45zm7.16 0v-.92l3.02-3.05q.6-.59.81-1.05t.22-.91q0-.65-.39-1.03t-1.06-.38q-.56 0-1.03.3t-.85.86l-.81-.78q.48-.73 1.18-1.15t1.54-.41q.81 0 1.41.31.61.31.94.87.34.56.34 1.29 0 .64-.31 1.31t-1.12 1.49l-2.12 2.13h3.89V45zm10.98.12q-1.45 0-2.28-1.13-.82-1.14-.82-3.18t.82-3.19 2.28-1.14q1.47 0 2.29 1.14t.82 3.19-.82 3.18-2.29 1.13m0-1.13q.89 0 1.38-.81t.48-2.37-.48-2.38q-.49-.82-1.38-.82t-1.37.82-.49 2.38q0 1.55.49 2.37.49.81 1.37.81m5.34 1.01v-.92l3.02-3.05q.6-.59.81-1.05t.22-.91q0-.65-.39-1.03t-1.06-.38q-.56 0-1.03.3t-.85.86l-.81-.78q.48-.73 1.18-1.15t1.54-.41q.81 0 1.41.31.61.31.94.87.34.56.34 1.29 0 .64-.31 1.31t-1.12 1.49l-2.12 2.13h3.89V45zm11.06.12q-.93 0-1.61-.35-.67-.36-1.05-1.01-.37-.64-.37-1.52 0-.58.23-1.15t.62-1.14l2.33-3.35h1.49l-2.27 3.08q.41-.15.88-.15.8 0 1.42.36t.97.98q.34.63.34 1.44 0 .85-.37 1.48-.38.63-1.05.98-.68.35-1.56.35m-.03-1.08q.78 0 1.27-.48.48-.48.48-1.25t-.48-1.25q-.49-.49-1.24-.49-.8 0-1.28.49-.49.48-.49 1.25 0 .78.48 1.26.48.47 1.26.47"/><path fill="#0c322c" d="M28.51 243.31v-44.54q0-6.72 3.07-11.81 3.08-5.09 8.5-7.97t12.43-2.88h11.71v18.72H53.76q-2.11 0-3.26 1.25-1.16 1.25-1.16 3.36v9.41h14.88v34.46zm41.28 0v-44.54q0-6.72 3.07-11.81 3.08-5.09 8.5-7.97t12.43-2.88h11.71v18.72H95.04q-2.11 0-3.26 1.25-1.16 1.25-1.16 3.36v9.41h14.88v34.46zm-43.46 81.8v-3.84h7.94v-36.42h-7.94v-3.84h20.22v3.84h-8v36.42h8v3.84zm34.27 0q-2.01 0-3.78-.82-1.76-.82-2.89-2.49t-1.14-4.31v-18.97h-5.61V295h5.61v-7.5h3.97v7.5h8.38v3.52h-8.38v19.22q0 1.7 1.13 2.8 1.14 1.11 2.78 1.11h4.47v3.46zm25.64 0v-26.59H80.2V295h10.01v30.11zm-.25-37.04v-6.81h4.48v6.81zm20.98 37.61q-3.15 0-6.05-1.01t-4.66-2.71l1.83-2.77q1.64 1.51 4.03 2.39t4.85.88q3.09 0 5.04-1.44 1.95-1.45 1.95-3.85 0-1.95-1.19-3.02-1.2-1.07-3.12-1.64t-4.03-1.1-4-1.39-3.09-2.42-1.2-4.41q0-3.91 2.9-6.37t7.75-2.45q2.77 0 5.2.85 2.42.85 4.25 2.23l-1.83 2.84q-1.57-1.26-3.53-1.95-1.95-.7-4.15-.7-3.03 0-4.89 1.45t-1.85 3.78q0 1.95 1.19 2.99 1.2 1.04 3.12 1.64t4.06 1.14q2.15.53 4.07 1.41 1.92.89 3.12 2.52 1.19 1.64 1.19 4.48 0 3.78-3.05 6.2-3.06 2.43-7.91 2.43m31.12-.57V295h3.85v5.35q1.19-2.27 2.99-3.56 1.79-1.29 3.75-1.86 1.95-.56 3.65-.56 5.1 0 8.32 3.24 3.21 3.25 3.21 9.92v17.58h-4.03v-17.07q0-5.29-2.4-7.63t-6.04-2.33q-2.52 0-4.63 1.14-2.11 1.13-3.37 3.34t-1.26 5.54v17.01zm46.69.63q-4.29 0-7.63-1.98-3.34-1.99-5.23-5.49t-1.89-8.09v-.57q0-4.47 1.89-7.9t5.23-5.39q3.34-1.95 7.63-1.95 4.22 0 7.56 1.95t5.23 5.35 1.89 7.82v.69q0 4.6-1.89 8.09t-5.23 5.49q-3.34 1.98-7.56 1.98m0-3.59q3.15 0 5.54-1.54 2.39-1.55 3.75-4.23 1.35-2.67 1.35-6.2v-.69q0-3.41-1.35-5.99-1.36-2.58-3.75-4.06t-5.54-1.48-5.58 1.51q-2.42 1.51-3.81 4.13-1.39 2.61-1.39 6.01v.57q0 3.53 1.39 6.2t3.81 4.23q2.43 1.54 5.58 1.54m30.43 2.96q-2.02 0-3.78-.82-1.77-.82-2.9-2.49-1.14-1.67-1.14-4.31v-18.97h-5.6V295h5.6v-7.5h3.97v7.5h8.38v3.52h-8.38v19.22q0 1.7 1.14 2.8 1.13 1.11 2.77 1.11h4.47v3.46zm32.94 0q-2.01 0-3.78-.82-1.76-.82-2.89-2.49t-1.14-4.31v-18.97h-5.6V295h5.6v-7.5h3.97v7.5h8.38v3.52h-8.38v19.22q0 1.7 1.14 2.8 1.13 1.11 2.77 1.11h4.47v3.46zm10.27 0v-45.99h3.85v21.23q1.19-2.27 2.99-3.56 1.79-1.29 3.75-1.86 1.95-.56 3.65-.56 5.1 0 8.32 3.24 3.21 3.25 3.21 9.92v17.58h-4.03v-17.07q0-5.29-2.4-7.63t-6.04-2.33q-2.52 0-4.63 1.14-2.11 1.13-3.37 3.34t-1.26 5.54v17.01zm46.94.63q-4.41 0-7.81-1.98-3.41-1.99-5.3-5.49t-1.89-8.09v-.63q0-4.41 1.77-7.81 1.76-3.4 4.88-5.39t7.28-1.98q4.22 0 7.24 2.08 3.03 2.07 4.44 5.85t.85 8.82h-22.49q.13 3.09 1.55 5.58 1.41 2.49 3.87 3.91 2.46 1.41 5.73 1.41 4.98 0 7.82-2.45l2.26 2.58q-1.7 1.7-4.37 2.65-2.68.94-5.83.94m-1.07-27.85q-4.16 0-6.78 2.71-2.61 2.71-3.11 7.19h18.64q.07-4.54-2.36-7.22t-6.39-2.68m40.76 27.79q-3.15 0-6.05-1.01t-4.66-2.71l1.83-2.77q1.63 1.51 4.03 2.39 2.39.88 4.85.88 3.09 0 5.04-1.44 1.95-1.45 1.95-3.85 0-1.95-1.2-3.02-1.19-1.07-3.11-1.64-1.93-.57-4.04-1.1t-4-1.39-3.08-2.42q-1.2-1.58-1.2-4.41 0-3.91 2.9-6.37t7.75-2.45q2.77 0 5.19.85t4.26 2.23l-1.83 2.84q-1.58-1.26-3.53-1.95-1.95-.7-4.16-.7-3.02 0-4.88 1.45t-1.86 3.78q0 1.95 1.2 2.99t3.12 1.64 4.06 1.14q2.14.53 4.06 1.41 1.93.89 3.12 2.52 1.2 1.64 1.2 4.48 0 3.78-3.06 6.2-3.05 2.43-7.9 2.43m26.96-.57q-2.01 0-3.78-.82-1.76-.82-2.9-2.49-1.13-1.67-1.13-4.31v-18.97h-5.61V295h5.61v-7.5h3.97v7.5h8.38v3.52h-8.38v19.22q0 1.7 1.13 2.8 1.14 1.11 2.78 1.11h4.47v3.46zm10.27 0V295h3.91v4.91q1.13-2.9 3.37-3.94 2.23-1.04 5.07-1.04h2.58v3.97h-2.9q-3.71 0-5.85 1.92-2.15 1.93-2.15 6.02v18.27zm31.06.63q-4.28 0-7.62-1.98-3.34-1.99-5.23-5.49t-1.89-8.09v-.57q0-4.47 1.89-7.9t5.23-5.39q3.34-1.95 7.62-1.95 4.22 0 7.56 1.95t5.23 5.35 1.89 7.82v.69q0 4.6-1.89 8.09t-5.23 5.49q-3.34 1.98-7.56 1.98m0-3.59q3.15 0 5.54-1.54 2.4-1.55 3.75-4.23 1.36-2.67 1.36-6.2v-.69q0-3.41-1.36-5.99-1.35-2.58-3.75-4.06t-5.54-1.48-5.58 1.51q-2.42 1.51-3.81 4.13-1.38 2.61-1.38 6.01v.57q0 3.53 1.38 6.2 1.39 2.68 3.81 4.23 2.43 1.54 5.58 1.54m21.29 2.96V295h3.85v5.35q1.19-2.27 2.99-3.56t3.75-1.86 3.65-.56q5.11 0 8.32 3.24t3.21 9.92v17.58h-4.03v-17.07q0-5.29-2.39-7.63t-6.05-2.33q-2.52 0-4.63 1.14-2.11 1.13-3.37 3.34t-1.26 5.54v17.01zm30.69 12.6v-3.4h17.82q2.46 0 3.88-1.23t1.42-3.37q0-2.02-1.42-3.15t-3.88-1.13h-9.57q-2.33 0-3.53-1.11-1.2-1.1-1.32-2.74t.69-3.21l2.08-4.16q-2.33-1.38-3.69-3.68t-1.35-5.14v-.57q0-3.08 1.61-5.45 1.6-2.36 4.47-3.68t6.58-1.32q.95 0 1.77.06l3.21-6.55h4.03l-3.84 7.24q3.4 1.14 5.45 3.66t2.05 5.85v.76q0 3.15-1.61 5.58-1.61 2.42-4.47 3.81-2.87 1.38-6.59 1.38-2.33 0-4.41-.56l-1.64 3.15q-.31.69-.41 1.48t.41 1.35 1.77.57h8.82q3.84 0 6.2 1.95 2.37 1.96 2.37 5.61 0 3.59-2.4 5.8t-6.36 2.2zm13.79-24.76q2.02 0 4.03-.72 2.02-.73 3.37-2.43 1.36-1.7 1.36-4.79 0-3.27-2.46-5.29-2.45-2.01-6.3-2.01t-6.3 2.01-2.45 5.29q0 3.03 1.38 4.76 1.39 1.73 3.43 2.46 2.05.72 3.94.72m31.94 12.79q-4.41 0-7.81-1.98-3.4-1.99-5.29-5.49t-1.89-8.09v-.63q0-4.41 1.76-7.81 1.77-3.4 4.89-5.39t7.27-1.98q4.22 0 7.25 2.08 3.02 2.07 4.44 5.85t.85 8.82h-22.49q.12 3.09 1.54 5.58t3.88 3.91 5.73 1.41q4.98 0 7.81-2.45l2.27 2.58q-1.7 1.7-4.38 2.65-2.68.94-5.83.94m-1.07-27.85q-4.16 0-6.77 2.71t-3.12 7.19h18.65q.06-4.54-2.36-7.22-2.43-2.68-6.4-2.68m26.97 27.79q-3.15 0-6.05-1.01t-4.66-2.71l1.82-2.77q1.64 1.51 4.04 2.39 2.39.88 4.85.88 3.08 0 5.04-1.44 1.95-1.45 1.95-3.85 0-1.95-1.2-3.02t-3.12-1.64-4.03-1.1-4-1.39-3.09-2.42-1.19-4.41q0-3.91 2.9-6.37t7.74-2.45q2.78 0 5.2.85t4.25 2.23l-1.82 2.84q-1.58-1.26-3.53-1.95-1.95-.7-4.16-.7-3.02 0-4.88 1.45t-1.86 3.78q0 1.95 1.2 2.99 1.19 1.04 3.12 1.64 1.92.6 4.06 1.14t4.06 1.41q1.92.89 3.12 2.52 1.2 1.64 1.2 4.48 0 3.78-3.06 6.2-3.05 2.43-7.9 2.43m26.96-.57q-2.02 0-3.78-.82t-2.9-2.49-1.13-4.31v-18.97h-5.61V295h5.61v-7.5h3.97v7.5h8.38v3.52h-8.38v19.22q0 1.7 1.13 2.8 1.14 1.11 2.77 1.11h4.48v3.46zm36.73.63q-4.28 0-7.62-1.98-3.34-1.99-5.23-5.49t-1.89-8.09v-.57q0-4.47 1.89-7.9t5.23-5.39q3.34-1.95 7.62-1.95 4.22 0 7.56 1.95t5.23 5.35 1.89 7.82v.69q0 4.6-1.89 8.09t-5.23 5.49q-3.34 1.98-7.56 1.98m0-3.59q3.15 0 5.54-1.54 2.4-1.55 3.75-4.23 1.36-2.67 1.36-6.2v-.69q0-3.41-1.36-5.99-1.35-2.58-3.75-4.06t-5.54-1.48-5.58 1.51q-2.42 1.51-3.81 4.13-1.38 2.61-1.38 6.01v.57q0 3.53 1.38 6.2 1.39 2.68 3.81 4.23 2.43 1.54 5.58 1.54m22.81 2.96v-26.59h-5.74V295h5.74v-8.26q0-3.46 2.2-5.54t5.67-2.08h4.98v3.47h-4.98q-1.7 0-2.8 1.1-1.11 1.1-1.11 2.74V295h8.89v3.52h-8.89v26.59zm38.74 0q-2.02 0-3.78-.82t-2.9-2.49-1.13-4.31v-18.97h-5.61V295h5.61v-7.5h3.97v7.5h8.38v3.52h-8.38v19.22q0 1.7 1.13 2.8 1.14 1.11 2.77 1.11h4.48v3.46zm10.27 0v-45.99h3.84v21.23q1.2-2.27 2.99-3.56t3.75-1.86 3.66-.56q5.1 0 8.31 3.24t3.22 9.92v17.58h-4.04v-17.07q0-5.29-2.39-7.63t-6.05-2.33q-2.52 0-4.63 1.14-2.11 1.13-3.37 3.34t-1.26 5.54v17.01zm46.93.63q-4.41 0-7.81-1.98-3.4-1.99-5.29-5.49t-1.89-8.09v-.63q0-4.41 1.76-7.81 1.77-3.4 4.89-5.39t7.27-1.98q4.22 0 7.25 2.08 3.02 2.07 4.44 5.85t.85 8.82h-22.49q.13 3.09 1.54 5.58t3.88 3.91q2.45 1.41 5.73 1.41 4.98 0 7.81-2.45l2.27 2.58q-1.7 1.7-4.38 2.65-2.68.94-5.83.94m-1.07-27.85q-4.15 0-6.77 2.71t-3.12 7.19h18.65q.06-4.54-2.36-7.22-2.43-2.68-6.4-2.68m40.76 27.79q-3.15 0-6.04-1.01t-4.67-2.71l1.83-2.77q1.64 1.51 4.03 2.39t4.85.88q3.09 0 5.04-1.44 1.96-1.45 1.96-3.85 0-1.95-1.2-3.02t-3.12-1.64-4.03-1.1-4-1.39-3.09-2.42-1.19-4.41q0-3.91 2.89-6.37t7.75-2.45q2.77 0 5.2.85t4.25 2.23l-1.82 2.84q-1.58-1.26-3.53-1.95-1.96-.7-4.16-.7-3.02 0-4.88 1.45t-1.86 3.78q0 1.95 1.2 2.99 1.19 1.04 3.11 1.64 1.93.6 4.07 1.14t4.06 1.41q1.92.89 3.12 2.52 1.2 1.64 1.2 4.48 0 3.78-3.06 6.2-3.05 2.43-7.91 2.43m17.33 12.03V295h3.78v6.04q1.76-3.08 4.69-4.88t6.65-1.79q4.09 0 7.28 1.95 3.18 1.95 5 5.39 1.83 3.43 1.83 7.9v.57q0 4.6-1.79 8.13-1.8 3.52-4.98 5.48-3.18 1.95-7.34 1.95-3.59 0-6.49-1.7t-4.6-4.66v18.33zm14.62-15.56q3.08 0 5.48-1.48 2.39-1.48 3.74-4.19 1.36-2.71 1.36-6.3v-.57q0-3.46-1.36-6.08-1.35-2.61-3.74-4.09t-5.48-1.48-5.55 1.54-3.87 4.25-1.42 6.3q0 3.66 1.42 6.37 1.41 2.71 3.87 4.22t5.55 1.51m34.14 3.59q-4.41 0-7.81-1.98-3.4-1.99-5.29-5.49t-1.89-8.09v-.63q0-4.41 1.76-7.81 1.77-3.4 4.88-5.39 3.12-1.98 7.28-1.98 4.22 0 7.25 2.08 3.02 2.07 4.44 5.85 1.41 3.78.85 8.82h-22.49q.12 3.09 1.54 5.58t3.87 3.91 5.74 1.41q4.97 0 7.81-2.45l2.27 2.58q-1.7 1.7-4.38 2.65-2.68.94-5.83.94m-1.07-27.85q-4.16 0-6.77 2.71-2.62 2.71-3.12 7.19h18.65q.06-4.54-2.37-7.22-2.42-2.68-6.39-2.68m32.19 27.85q-4.47 0-7.93-1.95-3.47-1.96-5.42-5.39-1.96-3.43-1.96-7.97v-.82q0-4.47 1.99-7.9 1.98-3.44 5.42-5.39t7.9-1.95q3.28 0 5.93 1.16 2.64 1.17 4.53 3.25l-2.52 2.52q-3.09-3.22-8-3.22-3.28 0-5.83 1.45t-4 4.07-1.45 6.01v.82q0 3.47 1.48 6.08 1.48 2.62 4.04 4.06 2.55 1.45 5.82 1.45 4.92 0 8.07-3.21l2.45 2.52q-1.89 2.08-4.56 3.24-2.68 1.17-5.96 1.17m18.53-.63v-26.59h-6.05V295h10.01v30.11zm-.26-37.04v-6.81h4.48v6.81zm25.9 37.67q-4.41 0-7.82-1.98-3.4-1.99-5.29-5.49t-1.89-8.09v-.63q0-4.41 1.77-7.81 1.76-3.4 4.88-5.39t7.28-1.98q4.22 0 7.24 2.08 3.02 2.07 4.44 5.85t.85 8.82h-22.49q.13 3.09 1.54 5.58t3.88 3.91 5.73 1.41q4.98 0 7.81-2.45l2.27 2.58q-1.7 1.7-4.38 2.65-2.67.94-5.82.94m-1.07-27.85q-4.16 0-6.78 2.71-2.61 2.71-3.12 7.19h18.65q.07-4.54-2.36-7.22t-6.39-2.68m26.96 27.79q-3.15 0-6.05-1.01t-4.66-2.71l1.83-2.77q1.63 1.51 4.03 2.39 2.39.88 4.85.88 3.09 0 5.04-1.44 1.95-1.45 1.95-3.85 0-1.95-1.19-3.02-1.2-1.07-3.12-1.64t-4.04-1.1-4-1.39-3.08-2.42-1.2-4.41q0-3.91 2.9-6.37t7.75-2.45q2.77 0 5.19.85t4.26 2.23l-1.83 2.84q-1.57-1.26-3.53-1.95-1.95-.7-4.16-.7-3.02 0-4.88 1.45t-1.86 3.78q0 1.95 1.2 2.99t3.12 1.64 4.06 1.14q2.14.53 4.07 1.41 1.92.89 3.11 2.52 1.2 1.64 1.2 4.48 0 3.78-3.05 6.2-3.06 2.43-7.91 2.43m40-.57q-2.01 0-3.78-.82-1.76-.82-2.89-2.49t-1.14-4.31v-18.97h-5.6V295h5.6v-7.5h3.97v7.5h8.38v3.52h-8.38v19.22q0 1.7 1.14 2.8 1.13 1.11 2.77 1.11h4.47v3.46zm10.27 0v-45.99h3.85v21.23q1.19-2.27 2.99-3.56 1.79-1.29 3.75-1.86 1.95-.56 3.65-.56 5.1 0 8.32 3.24 3.21 3.25 3.21 9.92v17.58h-4.03v-17.07q0-5.29-2.4-7.63t-6.04-2.33q-2.52 0-4.63 1.14-2.11 1.13-3.37 3.34t-1.26 5.54v17.01zm43.03.63q-5.23 0-8.31-2.46t-3.09-6.42q0-2.65 1.51-4.66t4.19-3.19q2.68-1.16 6.14-1.16 2.78 0 4.89.66t3.56 1.86v-4.66q0-4.1-2.08-5.89-2.08-1.8-5.61-1.8-2.52 0-5.14.91-2.61.92-4.37 2.93l-1.96-2.83q2.02-2.33 5.17-3.5 3.15-1.16 6.49-1.16 5.16 0 8.31 2.77t3.15 8.38v9.57q0 5.04.19 10.02h-3.59l-.06-3.28q-2.71 3.91-9.39 3.91m.95-3.09q3.84 0 5.89-1.63 2.05-1.64 2.05-4.16 0-2.59-2.08-4.16t-5.93-1.58q-3.78 0-5.98 1.58-2.21 1.57-2.21 4.16 0 2.52 2.21 4.16 2.2 1.63 6.05 1.63m29.54 2.46q-2.01 0-3.78-.82-1.76-.82-2.89-2.49t-1.14-4.31v-18.97h-5.6V295h5.6v-7.5h3.97v7.5h8.38v3.52h-8.38v19.22q0 1.7 1.14 2.8 1.13 1.11 2.77 1.11h4.47v3.46zM36.98 402.54q-3.15 0-6.05-1.01t-4.66-2.71l1.83-2.77q1.63 1.51 4.03 2.39 2.39.88 4.85.88 3.09 0 5.04-1.44 1.95-1.45 1.95-3.85 0-1.95-1.2-3.02-1.19-1.07-3.11-1.64-1.93-.57-4.04-1.1t-4-1.39-3.08-2.42q-1.2-1.58-1.2-4.41 0-3.91 2.9-6.37t7.75-2.45q2.77 0 5.19.85t4.26 2.23l-1.83 2.84q-1.58-1.26-3.53-1.95-1.95-.7-4.16-.7-3.02 0-4.88 1.45t-1.86 3.78q0 1.95 1.2 2.99t3.12 1.64 4.06 1.14q2.14.53 4.06 1.41 1.93.89 3.12 2.52 1.2 1.64 1.2 4.48 0 3.78-3.06 6.2-3.05 2.43-7.9 2.43m28.54.06q-3.34 0-5.99-1.29-2.64-1.29-4.16-4.03-1.51-2.74-1.51-7.22v-18.2h3.97v17.57q0 5.3 2.4 7.37t5.98 2.08q2.46 0 4.54-1.1t3.37-3.28 1.29-5.51v-17.13h3.9v30.11h-3.65v-4.98q-1.83 3.15-4.72 4.38-2.9 1.23-5.42 1.23m22.49-.63v-30.11h3.9v4.91q1.14-2.9 3.37-3.94t5.08-1.04h2.58v3.97h-2.9q-3.72 0-5.86 1.92-2.14 1.93-2.14 6.02v18.27zm28.03 0-12.16-30.11h4.16l10.15 25.32 10.08-25.32h4.15l-12.09 30.11zm23.31 0v-26.59h-6.04v-3.52h10.01v30.11zm-.25-37.04v-6.81h4.47v6.81zm21.04 37.04-12.16-30.11h4.16l10.15 25.32 10.08-25.32h4.15l-12.09 30.11zm33.46.63q-4.41 0-7.82-1.98-3.4-1.99-5.29-5.49t-1.89-8.09v-.63q0-4.41 1.77-7.81 1.76-3.4 4.88-5.39t7.28-1.98q4.22 0 7.24 2.08 3.02 2.07 4.44 5.85t.85 8.82h-22.49q.13 3.09 1.54 5.58t3.88 3.91 5.73 1.41q4.98 0 7.81-2.45l2.27 2.58q-1.7 1.7-4.38 2.65-2.67.94-5.82.94m-1.07-27.85q-4.16 0-6.78 2.71-2.61 2.71-3.12 7.19h18.65q.07-4.54-2.36-7.22t-6.39-2.68m17.57 27.22v-5.8h4.98v10.59q0 2.33-1.39 3.31-1.38.97-3.02.97h-1.76v-2.52h1.76q.82 0 1.26-.5.44-.51.44-1.33v-4.72zm24.32 0v-30.11h3.84v5.35q1.2-2.27 3-3.56 1.79-1.29 3.74-1.86 1.96-.56 3.66-.56 5.1 0 8.31 3.24t3.22 9.92v17.58h-4.03V384.9q0-5.29-2.4-7.63t-6.05-2.33q-2.52 0-4.63 1.14-2.11 1.13-3.37 3.34t-1.26 5.54v17.01zm46.68.63q-4.28 0-7.62-1.98-3.34-1.99-5.23-5.49t-1.89-8.09v-.57q0-4.47 1.89-7.9t5.23-5.39q3.34-1.95 7.62-1.95 4.22 0 7.56 1.95t5.23 5.35 1.89 7.82v.69q0 4.6-1.89 8.09t-5.23 5.49q-3.34 1.98-7.56 1.98m0-3.59q3.15 0 5.55-1.54 2.39-1.55 3.75-4.23 1.35-2.67 1.35-6.2v-.69q0-3.41-1.35-5.99-1.36-2.58-3.75-4.06-2.4-1.48-5.55-1.48t-5.57 1.51-3.81 4.13-1.39 6.01v.57q0 3.53 1.39 6.2 1.38 2.68 3.81 4.23 2.42 1.54 5.57 1.54m21.3 2.96v-30.11h3.9v4.91q1.14-2.9 3.37-3.94t5.08-1.04h2.58v3.97h-2.9q-3.72 0-5.86 1.92-2.14 1.93-2.14 6.02v18.27zm41.2 0q-2.02 0-3.78-.82t-2.9-2.49-1.13-4.31v-18.97h-5.61v-3.52h5.61v-7.5h3.97v7.5h8.38v3.52h-8.38v19.22q0 1.7 1.13 2.8 1.13 1.11 2.77 1.11h4.48v3.46zm10.27 0v-45.99h3.84v21.23q1.2-2.27 2.99-3.56t3.75-1.86 3.66-.56q5.1 0 8.31 3.24t3.22 9.92v17.58h-4.04V384.9q0-5.29-2.39-7.63t-6.05-2.33q-2.52 0-4.63 1.14-2.11 1.13-3.37 3.34t-1.26 5.54v17.01zm46.93.63q-4.41 0-7.81-1.98-3.4-1.99-5.29-5.49t-1.89-8.09v-.63q0-4.41 1.76-7.81 1.77-3.4 4.89-5.39t7.27-1.98q4.22 0 7.25 2.08 3.02 2.07 4.44 5.85t.85 8.82h-22.49q.12 3.09 1.54 5.58t3.88 3.91 5.73 1.41q4.98 0 7.81-2.45l2.27 2.58q-1.7 1.7-4.38 2.65-2.68.94-5.83.94m-1.07-27.85q-4.16 0-6.77 2.71t-3.12 7.19h18.65q.06-4.54-2.36-7.22-2.43-2.68-6.4-2.68m32.76 27.22v-30.11h3.85v5.29q1.7-3.34 4.47-4.63t5.48-1.29q3.46 0 6.02 1.57 2.55 1.58 3.74 4.92 1.26-2.46 3.06-3.88t3.78-2.02 3.81-.59q4.92 0 7.97 3.18 3.06 3.18 3.06 9.86v17.7h-3.91v-17.26q0-5.17-2.2-7.47t-5.8-2.3q-3.65 0-6.17 2.49t-2.52 7.22v17.32h-3.97v-17.26q0-5.17-2.18-7.47-2.17-2.3-5.76-2.3-3.72 0-6.24 2.49t-2.52 7.22v17.32zm66.15.63q-4.28 0-7.62-1.98-3.34-1.99-5.23-5.49t-1.89-8.09v-.57q0-4.47 1.89-7.9t5.23-5.39q3.34-1.95 7.62-1.95 4.22 0 7.56 1.95t5.23 5.35 1.89 7.82v.69q0 4.6-1.89 8.09t-5.23 5.49q-3.34 1.98-7.56 1.98m0-3.59q3.15 0 5.55-1.54 2.39-1.55 3.74-4.23 1.36-2.67 1.36-6.2v-.69q0-3.41-1.36-5.99-1.35-2.58-3.74-4.06t-5.55-1.48q-3.15 0-5.57 1.51t-3.81 4.13-1.39 6.01v.57q0 3.53 1.39 6.2 1.38 2.68 3.81 4.23 2.42 1.54 5.57 1.54m29.23 3.53q-3.15 0-6.04-1.01t-4.67-2.71l1.83-2.77q1.64 1.51 4.03 2.39t4.85.88q3.09 0 5.04-1.44 1.96-1.45 1.96-3.85 0-1.95-1.2-3.02t-3.12-1.64-4.03-1.1-4-1.39-3.09-2.42-1.19-4.41q0-3.91 2.89-6.37t7.75-2.45q2.77 0 5.2.85t4.25 2.23l-1.82 2.84q-1.58-1.26-3.53-1.95-1.96-.7-4.16-.7-3.02 0-4.88 1.45t-1.86 3.78q0 1.95 1.2 2.99 1.19 1.04 3.11 1.64 1.93.6 4.07 1.14t4.06 1.41q1.92.89 3.12 2.52 1.2 1.64 1.2 4.48 0 3.78-3.06 6.2-3.05 2.43-7.91 2.43m26.97-.57q-2.02 0-3.78-.82-1.77-.82-2.9-2.49t-1.13-4.31v-18.97h-5.61v-3.52h5.61v-7.5H551v7.5h8.37v3.52H551v19.22q0 1.7 1.13 2.8 1.13 1.11 2.77 1.11h4.47v3.46zm25.64 0v-26.59h-6.05v-3.52h10.02v30.11zm-.25-37.04v-6.81h4.47v6.81zm12.98 37.04v-30.11h3.84v5.35q1.2-2.27 2.99-3.56t3.75-1.86 3.65-.56q5.11 0 8.32 3.24t3.21 9.92v17.58h-4.03V384.9q0-5.29-2.39-7.63t-6.05-2.33q-2.52 0-4.63 1.14-2.11 1.13-3.37 3.34t-1.26 5.54v17.01zm43.15 0q-2.02 0-3.78-.82t-2.9-2.49-1.13-4.31v-18.97h-5.61v-3.52h5.61v-7.5h3.97v7.5h8.38v3.52h-8.38v19.22q0 1.7 1.13 2.8 1.14 1.11 2.77 1.11h4.48v3.46zm22.18.63q-4.41 0-7.82-1.98-3.4-1.99-5.29-5.49t-1.89-8.09v-.63q0-4.41 1.77-7.81 1.76-3.4 4.88-5.39t7.28-1.98q4.22 0 7.24 2.08 3.02 2.07 4.44 5.85t.85 8.82h-22.49q.13 3.09 1.54 5.58t3.88 3.91 5.73 1.41q4.98 0 7.81-2.45l2.27 2.58q-1.7 1.7-4.38 2.65-2.67.94-5.82.94m-1.07-27.85q-4.16 0-6.78 2.71-2.61 2.71-3.12 7.19h18.65q.07-4.54-2.36-7.22t-6.39-2.68m26.58 27.22q-3.46 0-5.57-2.02-2.11-2.01-2.11-5.35v-35.15h-5.8v-3.47h9.83v38.68q0 1.64 1.1 2.74t2.74 1.11h2.71v3.46zm15.12 0q-3.46 0-5.57-2.02-2.11-2.01-2.11-5.35v-35.15h-5.8v-3.47h9.83v38.68q0 1.64 1.1 2.74t2.74 1.11h2.71v3.46zm9.33 0v-26.59h-6.05v-3.52h10.01v30.11zm-.26-37.04v-6.81h4.48v6.81zm9.64 49.64v-3.4h17.83q2.46 0 3.88-1.23 1.41-1.23 1.41-3.37 0-2.02-1.41-3.15-1.42-1.13-3.88-1.13h-9.57q-2.34 0-3.53-1.11-1.2-1.1-1.33-2.74-.12-1.64.7-3.21l2.08-4.16q-2.33-1.38-3.69-3.68t-1.35-5.14v-.57q0-3.08 1.6-5.45 1.61-2.36 4.48-3.68 2.86-1.32 6.58-1.32.94 0 1.76.06l3.22-6.55h4.03l-3.84 7.24q3.4 1.14 5.44 3.66t2.05 5.85v.76q0 3.15-1.6 5.58-1.61 2.42-4.48 3.81-2.86 1.38-6.58 1.38-2.33 0-4.41-.56l-1.64 3.15q-.31.69-.41 1.48t.41 1.35 1.77.57h8.82q3.84 0 6.2 1.95 2.36 1.96 2.36 5.61 0 3.59-2.39 5.8t-6.36 2.2zm13.8-24.76q2.02 0 4.03-.72 2.02-.73 3.37-2.43 1.36-1.7 1.36-4.79 0-3.27-2.46-5.29-2.46-2.01-6.3-2.01t-6.3 2.01-2.46 5.29q0 3.03 1.39 4.76 1.38 1.73 3.43 2.46 2.05.72 3.94.72m31.94 12.79q-4.41 0-7.81-1.98-3.4-1.99-5.29-5.49t-1.89-8.09v-.63q0-4.41 1.76-7.81t4.88-5.39 7.28-1.98q4.22 0 7.24 2.08 3.03 2.07 4.45 5.85 1.41 3.78.85 8.82H752.6q.12 3.09 1.54 5.58t3.87 3.91 5.74 1.41q4.97 0 7.81-2.45l2.27 2.58q-1.7 1.7-4.38 2.65-2.68.94-5.83.94m-1.07-27.85q-4.16 0-6.77 2.71-2.62 2.71-3.12 7.19h18.65q.06-4.54-2.37-7.22-2.42-2.68-6.39-2.68m18.96 27.22v-30.11h3.85v5.35q1.19-2.27 2.99-3.56 1.79-1.29 3.75-1.86 1.95-.56 3.65-.56 5.1 0 8.32 3.24 3.21 3.25 3.21 9.92v17.58h-4.03V384.9q0-5.29-2.4-7.63t-6.04-2.33q-2.52 0-4.64 1.14-2.11 1.13-3.37 3.34t-1.26 5.54v17.01zm43.16 0q-2.02 0-3.78-.82-1.77-.82-2.9-2.49t-1.13-4.31v-18.97h-5.61v-3.52h5.61v-7.5h3.96v7.5h8.38v3.52h-8.38v19.22q0 1.7 1.14 2.8 1.13 1.11 2.77 1.11h4.47v3.46zm8.88 0v-5.8h4.98v10.59q0 2.33-1.39 3.31-1.38.97-3.02.97h-1.77v-2.52h1.77q.82 0 1.26-.5.44-.51.44-1.33v-4.72zm39.44.63q-3.72 0-6.71-1.8-2.99-1.79-4.69-5v6.17h-3.72v-45.99h4.03v21.67q1.7-2.96 4.57-4.69 2.86-1.73 6.52-1.73 4.09 0 7.27 1.95 3.19 1.95 5.01 5.39 1.83 3.43 1.83 7.9v.57q0 4.6-1.8 8.13-1.79 3.52-4.97 5.48-3.18 1.95-7.34 1.95m-.51-3.59q3.09 0 5.49-1.48 2.39-1.48 3.74-4.19 1.36-2.71 1.36-6.3v-.57q0-3.46-1.36-6.08-1.35-2.61-3.74-4.09t-5.49-1.48q-3.08 0-5.54 1.54t-3.87 4.25-1.42 6.3q0 3.66 1.42 6.37 1.41 2.71 3.87 4.22t5.54 1.51m32.45 3.59q-3.34 0-5.99-1.29-2.64-1.29-4.15-4.03t-1.52-7.22v-18.2h3.97v17.57q0 5.3 2.4 7.37t5.98 2.08q2.46 0 4.54-1.1t3.37-3.28 1.29-5.51v-17.13h3.91v30.11h-3.66v-4.98q-1.82 3.15-4.72 4.38t-5.42 1.23m32.13-.63q-2.02 0-3.78-.82t-2.9-2.49-1.13-4.31v-18.97h-5.61v-3.52h5.61v-7.5h3.97v7.5h8.38v3.52h-8.38v19.22q0 1.7 1.13 2.8 1.13 1.11 2.77 1.11h4.48v3.46zm32.95 0q-2.02 0-3.78-.82-1.77-.82-2.9-2.49t-1.13-4.31v-18.97h-5.61v-3.52h5.61v-7.5h3.97v7.5h8.37v3.52h-8.37v19.22q0 1.7 1.13 2.8 1.13 1.11 2.77 1.11h4.47v3.46zm10.27 0v-45.99h3.84v21.23q1.2-2.27 2.99-3.56t3.75-1.86 3.66-.56q5.1 0 8.31 3.24t3.21 9.92v17.58h-4.03V384.9q0-5.29-2.39-7.63t-6.05-2.33q-2.52 0-4.63 1.14-2.11 1.13-3.37 3.34t-1.26 5.54v17.01zm46.93.63q-4.41 0-7.81-1.98-3.4-1.99-5.29-5.49t-1.89-8.09v-.63q0-4.41 1.76-7.81 1.77-3.4 4.88-5.39 3.12-1.98 7.28-1.98 4.22 0 7.25 2.08 3.02 2.07 4.44 5.85t.85 8.82h-22.49q.12 3.09 1.54 5.58t3.88 3.91 5.73 1.41q4.98 0 7.81-2.45l2.27 2.58q-1.7 1.7-4.38 2.65-2.68.94-5.83.94m-1.07-27.85q-4.16 0-6.77 2.71-2.62 2.71-3.12 7.19h18.65q.06-4.54-2.36-7.22-2.43-2.68-6.4-2.68M41.64 479.46q-4.28 0-7.62-1.98-3.34-1.99-5.23-5.49t-1.89-8.09v-.57q0-4.47 1.89-7.9t5.23-5.39q3.34-1.95 7.62-1.95 4.22 0 7.56 1.95t5.23 5.35 1.89 7.82v.69q0 4.6-1.89 8.09t-5.23 5.49q-3.34 1.98-7.56 1.98m0-3.59q3.15 0 5.54-1.54 2.4-1.55 3.75-4.23 1.36-2.67 1.36-6.2v-.69q0-3.41-1.36-5.99-1.35-2.58-3.75-4.06t-5.54-1.48-5.58 1.51q-2.42 1.51-3.81 4.13-1.38 2.61-1.38 6.01v.57q0 3.53 1.38 6.2 1.39 2.68 3.81 4.23 2.43 1.54 5.58 1.54m21.29 2.96v-30.11h3.85v5.35q1.19-2.27 2.99-3.56t3.75-1.86 3.65-.56q5.11 0 8.32 3.24t3.21 9.92v17.58h-4.03v-17.07q0-5.29-2.39-7.63t-6.05-2.33q-2.52 0-4.63 1.14-2.11 1.13-3.37 3.34t-1.26 5.54v17.01zm46.94.63q-4.41 0-7.81-1.98-3.4-1.99-5.29-5.49t-1.89-8.09v-.63q0-4.41 1.76-7.81t4.88-5.39 7.28-1.98q4.22 0 7.24 2.08 3.03 2.07 4.44 5.85t.86 8.82h-22.5q.13 3.09 1.55 5.58t3.87 3.91 5.74 1.41q4.97 0 7.81-2.45l2.27 2.58q-1.71 1.7-4.38 2.65-2.68.94-5.83.94m-1.07-27.85q-4.16 0-6.77 2.71-2.62 2.71-3.12 7.19h18.65q.06-4.54-2.37-7.22-2.42-2.68-6.39-2.68m27.95 27.22 7.56-30.81h7.87l-.63 2.52q1.83-1.89 3.78-2.52 1.96-.63 4.1-.63 2.33 0 4.31 1.07 1.99 1.08 3.12 3.15 2.21-2.45 4.76-3.33 2.55-.89 4.88-.89 3.22 0 5.7 1.55 2.49 1.54 3.53 4.66t-.09 7.78l-2.14 8.82q-.45 1.89 1.51 1.89h2.77l-1.7 6.74h-4.16q-4.09 0-5.89-2.17-1.8-2.18-.91-5.83l2.52-10.14q.69-2.96-.44-4.45-1.14-1.48-3.53-1.48-2.27 0-3.75 1.45t-2.11 4.1l-4.73 18.52h-8.12l4.41-18.08q.75-2.96-.38-4.47-1.14-1.52-3.66-1.52-4.53 0-5.85 5.55l-4.6 18.52zm66.59.63q-3.84 0-6.77-1.67t-4.57-4.72-1.64-7.22q0-5.29 2.27-9.48t6.14-6.58 8.73-2.4q3.65 0 6.52 1.61t4.5 4.5 1.64 6.75q0 4.85-1.45 8.44t-3.9 5.98-5.45 3.59-6.02 1.2m.57-7.37q2.14 0 4-1.42t2.99-3.97 1.13-6.01q0-2.78-1.38-4.35-1.39-1.58-3.78-1.58-2.33 0-4.22 1.42t-3.03 3.81q-1.13 2.4-1.13 5.36 0 3.27 1.51 5.01t3.91 1.73m27.34 7.24q-3.84 0-6.9-1.35-3.05-1.35-4.57-3.18l4.29-4.92q1.64 1.39 3.68 2.3 2.05.92 3.88.92 1.82 0 2.93-.88 1.1-.89 1.1-2.27 0-1.33-1.1-2.05-1.11-.72-2.68-1.32-1.58-.6-3.18-1.48-1.61-.89-2.68-2.52-1.07-1.64-1.07-4.41 0-3.22 1.57-5.64 1.58-2.43 4.35-3.78 2.77-1.36 6.36-1.36 2.97 0 5.74 1.01t4.6 2.77l-4.35 4.92q-1.51-1.26-3.31-1.89-1.79-.63-3.18-.63-1.7 0-2.74.82t-1.04 2.2 1.1 2.14 2.71 1.39 3.21 1.54q1.61.92 2.71 2.55 1.11 1.64 1.11 4.48 0 3.21-1.61 5.6-1.61 2.4-4.44 3.72t-6.49 1.32m27.09-.5q-4.66 0-6.87-2.74t-1.13-7.15l3.46-14.05h-4.41l1.64-6.87h4.41l1.89-7.49h8.13l-1.89 7.49h6.17l-1.7 6.87h-6.11l-3.72 15.18q-.25.82.19 1.36.44.53 1.2.53h4.28l-1.7 6.87zm21.23 0 7.56-30.81h7.88l-.95 3.85q1.51-2.33 3.56-3.25t4.63-.91h2.21l-1.96 8.06h-2.9q-3.46 0-5.26 1.73-1.79 1.74-2.67 5.2l-3.97 16.13zm34.02.63q-3.02 0-5.76-1.39-2.74-1.38-4.48-4.34-1.73-2.96-1.73-7.63 0-3.46 1.35-6.8 1.36-3.34 3.82-6.02t5.79-4.28q3.34-1.61 7.37-1.61 4.22 0 6.78 2.08 2.55 2.08 2.55 5.55 0 4.47-2.4 7.08t-6.77 3.82q-4.38 1.19-10.3 1.38.32 3.09 1.8 4.22 1.48 1.14 3.49 1.14t3.62-.7 3.19-1.89l3.97 5.55q-2.27 1.89-5.42 2.86-3.15.98-6.87.98m4.66-25.7q-1.95 0-3.46 1.1t-2.59 2.9-1.7 3.81q10.71-.44 10.71-5.23 0-1.13-.85-1.86-.85-.72-2.11-.72m21.11 25.57q-3.85 0-6.9-1.35t-4.57-3.18l4.29-4.92q1.63 1.39 3.68 2.3 2.05.92 3.88.92 1.82 0 2.92-.88 1.11-.89 1.11-2.27 0-1.33-1.11-2.05-1.1-.72-2.67-1.32-1.58-.6-3.18-1.48-1.61-.89-2.68-2.52-1.07-1.64-1.07-4.41 0-3.22 1.57-5.64 1.58-2.43 4.35-3.78 2.77-1.36 6.36-1.36 2.96 0 5.74 1.01 2.77 1.01 4.59 2.77l-4.34 4.92q-1.51-1.26-3.31-1.89t-3.18-.63q-1.7 0-2.74.82t-1.04 2.2 1.1 2.14 2.71 1.39 3.21 1.54 2.71 2.55 1.1 4.48q0 3.21-1.6 5.6-1.61 2.4-4.44 3.72t-6.49 1.32m11.9 12.1 10.65-43.41h7.25l-.82 3.34q1.7-1.82 3.93-2.9t4.7-1.07q4.66 0 7.5 3.06 2.83 3.05 2.83 8.72 0 4.79-1.35 8.54-1.36 3.75-3.66 6.4-2.3 2.64-5.13 4t-5.8 1.35q-5.54 0-8-4.6l-4.09 16.57zm19.6-19.15q1.64 0 3.59-1.17 1.95-1.16 3.34-3.59 1.38-2.42 1.38-6.14 0-3.4-1.48-5.07t-3.87-1.67q-2.33 0-4.19 1.54-1.86 1.55-2.96 4.07-1.1 2.51-1.1 5.48 0 2.96 1.26 4.75 1.26 1.8 4.03 1.8m32.25 7.18q-3.84 0-6.77-1.67t-4.57-4.72-1.63-7.22q0-5.29 2.26-9.48 2.27-4.19 6.15-6.58 3.87-2.4 8.72-2.4 3.66 0 6.52 1.61 2.87 1.61 4.51 4.5 1.63 2.9 1.63 6.75 0 4.85-1.44 8.44-1.45 3.59-3.91 5.98t-5.45 3.59-6.02 1.2m.57-7.37q2.14 0 4-1.42t2.99-3.97 1.14-6.01q0-2.78-1.39-4.35-1.38-1.58-3.78-1.58-2.33 0-4.22 1.42t-3.02 3.81-1.14 5.36q0 3.27 1.51 5.01 1.52 1.73 3.91 1.73m17.33 6.74 7.56-30.81h7.87l-.69 2.65q1.95-1.95 4.09-2.62 2.14-.66 4.16-.66 5.17 0 7.53 3.63t.66 10.3l-2.2 9q-.45 1.77 1.57 1.77h2.83l-1.7 6.74h-4.22q-4.15 0-5.92-2.2t-.88-5.93l2.33-9.57q.76-2.96-.35-4.66t-3.81-1.71q-2.39 0-4 1.67t-2.3 4.7l-4.34 17.7zm44.66.5q-3.84 0-6.9-1.35-3.05-1.35-4.56-3.18l4.28-4.92q1.64 1.39 3.69 2.3 2.04.92 3.87.92t2.93-.88 1.1-2.27q0-1.33-1.1-2.05t-2.68-1.32-3.18-1.48-2.68-2.52-1.07-4.41q0-3.22 1.58-5.64 1.57-2.43 4.34-3.78 2.78-1.36 6.37-1.36 2.96 0 5.73 1.01t4.6 2.77l-4.35 4.92q-1.51-1.26-3.31-1.89-1.79-.63-3.18-.63-1.7 0-2.74.82t-1.04 2.2 1.11 2.14 2.7 1.39q1.61.63 3.22 1.54 1.6.92 2.71 2.55 1.1 1.64 1.1 4.48 0 3.21-1.61 5.6-1.6 2.4-4.44 3.72-2.83 1.32-6.49 1.32m25.64-.5q-3.9 0-5.6-2.17-1.7-2.18-.76-6.08l3.84-15.69h-5.35l1.64-6.87h13.54l-5.48 22.24q-.44 1.83 1.39 1.83h2.71l-1.71 6.74zm.26-36.73 2.07-8.76h9.08l-2.15 8.76zm14.23 36.73-3.52-30.81h7.93l1.7 20.79 12.04-20.79h9.07l-18.65 30.81zm36.1.63q-3.02 0-5.76-1.39-2.74-1.38-4.48-4.34-1.73-2.96-1.73-7.63 0-3.46 1.36-6.8 1.35-3.34 3.81-6.02t5.79-4.28q3.34-1.61 7.38-1.61 4.22 0 6.77 2.08t2.55 5.55q0 4.47-2.39 7.08t-6.78 3.82q-4.38 1.19-10.3 1.38.32 3.09 1.8 4.22 1.48 1.14 3.49 1.14t3.63-.7q1.6-.69 3.18-1.89l3.97 5.55q-2.27 1.89-5.42 2.86-3.15.98-6.87.98m4.66-25.7q-1.95 0-3.46 1.1t-2.58 2.9-1.7 3.81q10.71-.44 10.71-5.23 0-1.13-.86-1.86-.85-.72-2.11-.72m35.28 25.07q-4.66 0-6.86-2.74t-1.14-7.15l3.47-14.05h-4.41l1.64-6.87h4.41l1.89-7.49h8.12l-1.89 7.49h6.18l-1.7 6.87h-6.11l-3.72 15.18q-.25.82.19 1.36.44.53 1.19.53h4.29l-1.7 6.87zm23.19.63q-3.84 0-6.77-1.67t-4.57-4.72-1.64-7.22q0-5.29 2.27-9.48t6.14-6.58 8.73-2.4q3.65 0 6.52 1.61t4.5 4.5 1.64 6.75q0 4.85-1.45 8.44t-3.91 5.98-5.45 3.59-6.01 1.2m.57-7.37q2.14 0 4-1.42t2.99-3.97 1.13-6.01q0-2.78-1.38-4.35-1.39-1.58-3.78-1.58-2.33 0-4.22 1.42t-3.03 3.81-1.13 5.36q0 3.27 1.51 5.01t3.91 1.73m44.35 7.37q-3.15 0-6.05-1.32-2.9-1.33-4.73-4.22-1.82-2.9-1.82-7.69 0-3.91 1.29-7.34t3.56-6.02q2.27-2.58 5.35-4.03 3.09-1.45 6.68-1.45 3.53 0 6.3 1.52 2.77 1.51 4.22 4.15l-5.92 4.73q-.94-1.51-2.2-2.24-1.27-.72-2.78-.72-2.39 0-4.28 1.32t-2.99 3.65-1.11 5.23q0 3.91 1.77 5.45 1.76 1.55 3.84 1.55 1.32 0 2.8-.6t3.19-2.05l4.28 5.67q-2.2 2.02-5.1 3.21-2.9 1.2-6.3 1.2m13.61-.63 11.27-45.99h7.88l-4.41 17.83q1.95-1.95 4.09-2.62 2.14-.66 4.16-.66 5.17 0 7.53 3.63t.66 10.3l-2.2 9q-.45 1.77 1.57 1.77h2.84l-1.71 6.74h-4.22q-4.16 0-5.92-2.2t-.88-5.93l2.33-9.57q.76-2.96-.32-4.66-1.07-1.71-3.65-1.71-2.52 0-4.16 1.67-1.63 1.67-2.33 4.7l-4.34 17.7zm47.12.63q-2.65 0-5.17-1.13-2.52-1.14-4.12-3.85-1.61-2.71-1.61-7.37 0-4.09 1.23-7.65t3.43-6.27 5.11-4.25q2.89-1.55 6.23-1.55 5.42 0 7.88 4.41l1.01-3.78h8.12l-5.54 22.24q-.44 1.83 1.32 1.83h2.84l-1.7 6.74h-3.15q-5.61 0-6.68-4.03-1.64 2.08-4.1 3.37t-5.1 1.29m2.83-7.24q2.27 0 4.1-1.58 1.83-1.57 2.83-4.13 1.01-2.55 1.01-5.38 0-2.96-1.19-4.76-1.2-1.79-3.97-1.79-2.46 0-4.38 1.57-1.92 1.58-2.99 4.03t-1.08 5.11q0 2.7.79 4.22t2.08 2.11q1.29.6 2.8.6m20.23 6.61 7.56-30.81h7.87l-.69 2.65q1.95-1.95 4.09-2.62 2.15-.66 4.16-.66 5.17 0 7.53 3.63t.66 10.3l-2.2 9q-.44 1.77 1.57 1.77h2.84l-1.7 6.74h-4.22q-4.16 0-5.93-2.2t-.88-5.93l2.33-9.57q.76-2.96-.34-4.66-1.11-1.71-3.82-1.71-2.39 0-4 1.67t-2.3 4.7l-4.34 17.7zm34.02 12.6 1.7-6.74h15.06q1.89 0 2.39-1.95l1.64-6.49q-1.89 1.51-3.97 2.36t-4.35.85q-2.64 0-5.01-1.32-2.36-1.33-3.87-4.07t-1.51-6.96q0-4.03 1.19-7.59 1.2-3.56 3.34-6.3t4.95-4.28q2.8-1.55 5.89-1.55 3.15 0 5.2 1.2 2.04 1.2 3.24 3.4l.95-3.97h8.19l-8.51 34.59q-1.07 4.35-4.09 6.58-3.03 2.24-7.75 2.24zm15.68-19.21q2.34 0 4.13-1.58 1.8-1.57 2.84-4.13t1.04-5.38q0-2.96-1.2-4.76t-4.03-1.79q-2.4 0-4.29 1.57-1.89 1.58-2.99 4.03t-1.1 5.11q0 2.77.78 4.28.79 1.51 2.05 2.08t2.77.57m32.07 7.24q-3.02 0-5.76-1.39-2.74-1.38-4.48-4.34-1.73-2.96-1.73-7.63 0-3.46 1.36-6.8 1.35-3.34 3.81-6.02t5.79-4.28q3.34-1.61 7.37-1.61 4.23 0 6.78 2.08t2.55 5.55q0 4.47-2.4 7.08t-6.77 3.82q-4.38 1.19-10.3 1.38.32 3.09 1.8 4.22 1.48 1.14 3.49 1.14t3.63-.7q1.6-.69 3.18-1.89l3.97 5.55q-2.27 1.89-5.42 2.86-3.15.98-6.87.98m4.66-25.7q-1.95 0-3.46 1.1t-2.58 2.9-1.71 3.81q10.71-.44 10.71-5.23 0-1.13-.85-1.86-.85-.72-2.11-.72m16.13 25.07v-5.8h4.85v5.8zM24.86 535.64v-1.94h16.2v1.94zm28.64 4.3q-1.35 0-2.53-.47t-2.07-1.33-1.38-2.03-.5-2.59v-.26q0-1.42.5-2.59.49-1.17 1.38-2.03.89-.87 2.07-1.33t2.53-.47q1.26 0 2.31.39 1.04.4 1.85 1.12l-1.4 1.67Q55.12 529 53.5 529q-1.2 0-2.17.54-.96.54-1.51 1.5t-.55 2.22v.26q0 1.26.55 2.22t1.51 1.5 2.17.54q1.68 0 2.81-1.08l1.42 1.66q-.83.75-1.91 1.17t-2.32.41m6-.25v-13.14h1.99v5.49q.54-.77 1.29-1.03.75-.27 1.36-.27 1.48 0 2.37.97.89.96.89 2.76v5.22h-2.07v-4.88q0-1.15-.5-1.66-.49-.52-1.27-.52-.84 0-1.42.57-.57.57-.57 1.65v4.84zm13.03.18q-1.5 0-2.38-.73t-.88-1.88q0-1.17.96-1.93.97-.77 2.57-.77 1.2 0 2 .43v-.84q0-.87-.49-1.23t-1.24-.36q-.67 0-1.38.25-.71.26-1.21.72l-.94-1.4q.58-.65 1.57-1.02t2.08-.37q1.62 0 2.64.84t1.02 2.46v2.82l.01 1.43.04 1.4h-1.83l-.02-.9q-.74 1.08-2.52 1.08m.57-1.53q.78 0 1.25-.32.46-.33.46-.85 0-.5-.46-.83t-1.26-.32q-.78 0-1.26.32-.47.33-.47.83 0 .52.47.85.48.32 1.27.32m6.25 1.35v-8.77h2v1.28q.32-.75.95-1.05t1.41-.3h.72v2.05h-.89q-1.02 0-1.57.47t-.55 1.37v4.95zm9.38 0q-1.19 0-1.9-.65t-.71-1.78v-8.95h-1.46v-1.76h3.53v10.75q0 .28.19.47t.47.19h.92v1.73zm6.51.18q-1.31 0-2.31-.57t-1.56-1.58q-.55-1.02-.55-2.37v-.18q0-1.24.51-2.25t1.46-1.59 2.2-.59q1.32 0 2.25.64.94.64 1.37 1.81t.23 2.76h-5.97q.11.91.74 1.52.64.6 1.74.6.65 0 1.12-.18t.84-.54l1.17 1.22q-.52.65-1.35.98t-1.89.32m-.23-7.45q-.92 0-1.44.57t-.67 1.48h3.96q-.03-.97-.54-1.51-.52-.54-1.31-.54m8.51 7.43q-1.04 0-1.91-.3-.88-.31-1.45-.76l.9-1.42q.52.38 1.16.62t1.3.24 1.04-.27.39-.7-.32-.65q-.31-.21-.82-.35l-1.07-.28q-.57-.14-1.07-.41t-.83-.77q-.32-.49-.32-1.3 0-1.21.92-1.98.91-.78 2.46-.78.87 0 1.64.24t1.39.65l-.92 1.38q-1.01-.68-2.13-.68-.63 0-1 .28-.38.28-.38.71 0 .39.33.62t.85.36l1.09.3q.57.16 1.08.44t.85.77q.33.5.33 1.31t-.45 1.42-1.24.96-1.82.35m9.9-.16v-12.6h4.54q1.78 0 3.19.78 1.42.79 2.23 2.17.81 1.39.81 3.21v.19q0 1.37-.47 2.52-.47 1.14-1.32 1.98-.86.83-1.99 1.29-1.14.46-2.45.46zm4.36-10.53h-2.16v8.46h2.16q1.21 0 2.14-.52t1.48-1.47.54-2.19v-.19q0-1.23-.53-2.15t-1.47-1.43-2.16-.51m11.07 10.71q-1.49 0-2.38-.73t-.88-1.88q0-1.17.97-1.93.96-.77 2.56-.77 1.21 0 2 .43v-.84q0-.87-.49-1.23-.48-.36-1.24-.36-.67 0-1.38.25-.71.26-1.21.72l-.94-1.4q.58-.65 1.58-1.02t2.08-.37q1.62 0 2.63.84 1.02.84 1.02 2.46v2.82l.01 1.43.04 1.4h-1.83l-.02-.9q-.74 1.08-2.52 1.08m.58-1.53q.77 0 1.24-.32.47-.33.47-.85 0-.5-.47-.83t-1.26-.32-1.25.32q-.48.33-.48.83 0 .52.48.85.47.32 1.27.32m6.24 1.35v-8.77h2v1.28q.32-.75.95-1.05t1.41-.3h.72v2.05h-.88q-1.03 0-1.58.47t-.55 1.37v4.95zm8.26 0-2.34-8.77h2.06l1.6 6.65 1.78-6.65h2.18l1.78 6.63 1.6-6.63h2.05l-2.34 8.77h-2.39l-1.8-6.89-1.78 6.89zm13.18 0v-7h-1.58v-1.77h3.67v8.77zm-.09-10.51v-2.4h2.3v2.4zm4.75 10.51v-8.77h2v1.12q.54-.77 1.29-1.03.74-.27 1.36-.27 1.47 0 2.36.97.89.96.89 2.76v5.22h-2.07v-4.88q0-1.15-.49-1.66-.5-.52-1.27-.52-.85 0-1.42.57-.58.57-.58 1.65v4.84z"/><path fill="#0c322c" fill-opacity=".15" d="M0 719h1080v1H0z"/><path fill="#0c322c" d="M27.16 845.5v-29.2H48.6v29.2zm18.8-2.92v-23.84H29.6zm-20.1 49.92v-3.33l7.68-7.71q1.24-1.25 1.79-2.34.54-1.08.54-2.2 0-1.28-.81-2.1t-2.23-.82q-1.34 0-2.43.72t-2.08 2.13l-2.88-2.81q1.31-1.99 3.22-3.12 1.9-1.14 4.33-1.14 2.18 0 3.87.85 1.7.85 2.66 2.35t.96 3.49q0 1.82-.91 3.68-.91 1.85-2.9 3.87l-4.45 4.45h9.19v4.03zm18.56 0v-3.33l7.68-7.71q1.24-1.25 1.79-2.34.54-1.08.54-2.2 0-1.28-.81-2.1t-2.23-.82q-1.34 0-2.43.72t-2.08 2.13L44 874.04q1.31-1.99 3.22-3.12 1.9-1.14 4.33-1.14 2.18 0 3.87.85 1.7.85 2.66 2.35t.96 3.49q0 1.82-.91 3.68-.91 1.85-2.9 3.87l-4.45 4.45h9.19v4.03zm23.45-11.94q-1.63 0-2.89-.68t-1.99-1.91q-.72-1.21-.72-2.81 0-1.57.72-2.79.72-1.21 1.99-1.9 1.26-.69 2.89-.69 1.67 0 2.93.69t1.98 1.9q.72 1.22.72 2.79 0 1.6-.72 2.81-.72 1.22-1.98 1.91t-2.93.68m0-2.59q1.25 0 2.03-.78.79-.79.79-2.03 0-1.22-.79-2-.78-.79-2.03-.79-1.21 0-2 .79-.78.78-.78 2 0 1.24.78 2.03.79.78 2 .78m18.98 14.98q-2.43 0-4.53-.83-2.1-.84-3.7-2.37t-2.49-3.63-.9-4.63v-.38q0-2.53.9-4.63.89-2.09 2.49-3.63 1.6-1.53 3.7-2.37 2.1-.83 4.53-.83 2.27 0 4.17.72 1.91.72 3.41 2.1l-2.91 3.39q-1.92-1.79-4.67-1.79-2.02 0-3.6.89-1.59.9-2.48 2.48-.9 1.59-.9 3.67v.38q0 2.08.9 3.67.89 1.58 2.48 2.48t3.6.89q2.85 0 4.8-1.95l2.91 3.39q-1.54 1.44-3.49 2.21t-4.22.77"/><path fill="#0c322c" fill-opacity=".55" d="M28.86 922.64q-.9 0-1.67-.3-.78-.31-1.37-.87-.58-.57-.91-1.35t-.33-1.72v-.2q0-.94.33-1.72t.91-1.35q.59-.56 1.37-.87.77-.3 1.67-.3.78 0 1.45.23t1.18.67l-.65.76q-.82-.67-1.98-.67-.92 0-1.66.42-.73.41-1.15 1.14-.42.72-.42 1.69v.2q0 .97.42 1.69.42.73 1.15 1.14.74.42 1.66.42 1.19 0 2.02-.71l.64.78q-.52.44-1.21.68t-1.45.24m5.52-.14q-.71 0-1.13-.4-.43-.4-.43-1.08v-6.45h-1.06v-.83h2.03v7.3q0 .27.18.45t.46.18h.55v.83zm4.08.12q-.85 0-1.51-.38-.65-.38-1.02-1.05-.36-.67-.36-1.55v-.12q0-.84.33-1.49.34-.65.95-1.04.61-.38 1.42-.38.83 0 1.41.41.59.4.87 1.14t.17 1.75h-4.18q.04.5.28.92.25.41.67.66.43.24 1.01.24.45 0 .81-.11.35-.1.61-.34l.56.6q-.34.36-.86.55t-1.16.19m-.19-5.17q-.72 0-1.17.45-.45.46-.55 1.22h3.24q-.01-.8-.43-1.23-.42-.44-1.09-.44m5.55 5.17q-.98 0-1.57-.48t-.6-1.25q0-.5.3-.9.3-.39.82-.63.53-.23 1.17-.23.95 0 1.52.39v-.72q0-.7-.37-1.01t-.99-.31q-.47 0-.95.18-.49.17-.84.53l-.45-.68q.38-.45 1-.67.63-.23 1.29-.23 1.02 0 1.64.54.63.54.63 1.61v1.84q0 .96.03 1.9h-.86l-.01-.58q-.54.7-1.76.7m.26-.73q.66 0 1.02-.28.37-.27.37-.72t-.37-.71-1.04-.27q-.66 0-1.04.27t-.38.71q0 .43.39.72t1.05.28m4.08.61v-5.77h.93v.92q.22-.55.64-.75t.96-.2h.49v.96h-.56q-.71 0-1.1.35t-.39 1.07v3.42zm8.91.14q-.89 0-1.55-.31-.67-.32-1.12-.87l.64-.65q.87.96 2.07.96.84 0 1.32-.42t.49-1.09q0-.48-.23-.78-.24-.29-.62-.47-.39-.17-.85-.3-.47-.13-.93-.28t-.86-.39-.62-.63-.23-1.02q0-.74.34-1.29.35-.54.98-.84t1.47-.3q.76 0 1.36.25t.99.68l-.66.66q-.34-.36-.76-.54-.41-.18-.93-.18-.8 0-1.29.4-.48.41-.48 1.07 0 .45.23.72t.62.43.86.29.94.27.86.39.63.65.24 1.06q0 .78-.37 1.35-.37.56-1.03.87t-1.51.31m4.25-.14v-8.76h.97v5.74l2.67-2.75h1.2l-2.2 2.29 2.38 3.48h-1.2l-1.88-2.77-.97 1.02v1.75zm5.35 2.4v-.83h1.15q.26 0 .41-.17t.24-.42l.42-.92-2.37-5.83h1.06l1.83 4.64 1.74-4.64h1.07l-2.76 6.79q-.14.34-.33.65-.2.31-.52.52t-.83.21zm-39.98 17.6-2.47-8.4h1.04l1.96 6.9 2.14-6.9h1.13l2.15 6.91 1.96-6.91h1.03l-2.46 8.4h-1.06l-2.18-7.12-2.19 7.12zm10.4 0v-4.93h-1.13v-.84h2.09v5.77zm-.06-7.04v-1.4h1.08v1.4zm2.83 7.04v-5.77h.94v.92q.35-.6.89-.82.55-.22 1.02-.22.97 0 1.58.63.6.63.6 1.86v3.4h-.97v-3.25q0-.93-.41-1.34-.42-.41-1.05-.41-.66 0-1.14.45t-.48 1.31v3.24zm9.08.12q-.8 0-1.41-.37t-.96-1.05-.35-1.56v-.1q0-.87.36-1.53.35-.66.96-1.03.62-.37 1.4-.37.64 0 1.15.28t.85.77v-3.92h.97v8.76h-.87v-1.04q-.35.55-.89.85-.54.31-1.21.31m.13-.86q.56 0 .99-.27.44-.26.69-.74t.25-1.13-.25-1.13-.69-.75-.99-.27q-.81 0-1.34.57t-.53 1.5v.1q0 .64.24 1.12.25.48.67.74t.96.26m8.05.74 3.84-7.49h-4.63v-.91h5.77v.71l-3.85 7.69zm9.53 0v-8.4h1.02v4.68l3.8-4.68h1.2l-2.87 3.55 3.11 4.85h-1.23l-2.56-4.01-1.45 1.79v2.22zm7.17 0v-5.77h.93v.91q.33-.59.84-.81t.99-.22q.63 0 1.1.27.48.28.72.86.25-.44.59-.68t.71-.35.69-.1q.93 0 1.52.6.59.61.59 1.86v3.43h-.95v-3.31q0-.89-.38-1.29-.39-.4-1.01-.4-.65 0-1.08.43-.43.44-.43 1.26v3.31h-.96v-3.31q0-.89-.38-1.29t-1-.4q-.65 0-1.09.43-.44.44-.44 1.26v3.31zm9.33 1.73 4.45-10.84h1l-4.47 10.84zm6.5-1.73v-8.76h.94v3.91q.35-.6.89-.82.55-.22 1.02-.22.97 0 1.57.63t.61 1.86v3.4h-.97v-3.25q0-.93-.42-1.34-.41-.41-1.05-.41-.66 0-1.14.45t-.48 1.31v3.24z"/><path fill="#0c322c" d="M24.87 967.5v-7.7h2.58q1.23 0 1.97.64t.74 1.78-.74 1.77-1.97.63h-1.24v2.88zm2.65-6.56h-1.31v2.56h1.31q.59 0 .95-.36.35-.36.35-.92t-.35-.92-.95-.36m4.43 6.56v-7.7h2.75q1.22 0 1.96.62t.74 1.8q0 .89-.41 1.46-.42.56-1.13.81l1.77 3.01h-1.55l-1.61-2.85H33.3v2.85zm2.69-6.56H33.3v2.58h1.34q.61 0 .99-.33t.38-.95q0-.59-.38-.94-.38-.36-.99-.36m8.15 6.71q-1.09 0-1.95-.5t-1.35-1.39-.5-2.08v-.08q0-1.18.5-2.07.49-.88 1.35-1.38t1.95-.5 1.95.5 1.34 1.38.49 2.07v.08q0 1.18-.49 2.08-.49.89-1.34 1.39t-1.95.5m0-1.32q.7 0 1.24-.32t.85-.92.31-1.41v-.08q0-.81-.31-1.4-.31-.6-.85-.91t-1.24-.32-1.25.32q-.55.31-.85.91-.31.59-.31 1.4v.08q0 .82.31 1.41.3.6.85.92.54.32 1.25.32m7.53 1.17-2.8-7.7h1.44l2.1 5.98 2.09-5.98h1.44l-2.81 7.7zm9.01.15q-1.09 0-1.94-.5-.86-.5-1.36-1.39-.49-.9-.49-2.08v-.08q0-1.18.49-2.07.5-.88 1.36-1.38.85-.5 1.94-.5t1.95.5 1.35 1.38.49 2.07v.08q0 1.18-.49 2.08-.49.89-1.35 1.39t-1.95.5m0-1.32q.71 0 1.24-.32.54-.32.85-.92.31-.59.31-1.41v-.08q0-.81-.31-1.4-.31-.6-.85-.91-.53-.32-1.24-.32-.7 0-1.25.32-.54.31-.85.91-.31.59-.31 1.4v.08q0 .82.31 1.41.31.6.85.92.55.32 1.25.32m-31.55 17.82q-1.36 0-2.17-.7t-.81-2.11v-5.04h1.36v4.93q0 .85.44 1.26.45.41 1.18.41.75 0 1.2-.41t.44-1.26v-4.93h1.36v5.04q0 1.41-.82 2.11t-2.18.7m5.32-.15v-7.7h1.22l3.55 5.31v-5.31h1.35v7.7h-1.2l-3.58-5.33V984zm8.12 0v-1.23h1.28v-5.24h-1.28v-1.23h3.93v1.23h-1.29v5.24h1.29V984zm7.4 0v-6.47h-2.19v-1.23h5.76v1.23h-2.21V984zm6.4 0q-.56 0-.92-.36-.36-.37-.36-.93v-5.12q0-.56.36-.93.36-.36.92-.36h3.75v1.23h-3.3q-.16 0-.28.12-.11.11-.11.28v1.62h3.46v1.17h-3.46v1.65q0 .17.11.28t.28.12h3.3V984zm5.84 0v-7.7h2.77q1.09 0 1.96.48t1.35 1.32q.5.85.5 1.96v.12q0 .84-.29 1.54t-.81 1.21-1.21.79-1.5.28zm2.66-6.43H62.2v5.17h1.32q.74 0 1.31-.32t.9-.9.33-1.34v-.12q0-.75-.32-1.31t-.9-.87q-.57-.31-1.32-.31m11.07 6.58q-.86 0-1.5-.31-.63-.32-1.09-.85l.84-.84q.44.45.87.66.44.2.92.2.65 0 1.02-.3t.37-.79q0-.38-.21-.61-.21-.24-.55-.38t-.75-.26q-.42-.12-.82-.27-.41-.14-.75-.37t-.55-.6-.21-.94q0-.72.34-1.24.33-.53.93-.82t1.41-.28q.74 0 1.35.26.6.26.99.7l-.86.86q-.33-.34-.69-.51t-.8-.17q-.6 0-.96.29-.37.29-.37.78 0 .36.21.57t.56.34q.34.13.76.24.41.11.82.25t.76.37.55.61.21.98q0 .74-.35 1.28-.35.55-.98.85t-1.47.3m6.07-.15v-6.47h-2.19v-1.23h5.77v1.23h-2.21V984zm3.63 0 2.82-7.7h1.66l2.8 7.7h-1.38l-.66-1.89h-3.19l-.66 1.89zm2.45-3.04h2.38l-1.18-3.36zm7.1 3.04v-6.47h-2.19v-1.23h5.76v1.23H95.2V984zm6.4 0q-.56 0-.92-.36-.36-.37-.36-.93v-5.12q0-.56.36-.93.36-.36.92-.36h3.75v1.23h-3.3q-.16 0-.28.12-.11.11-.11.28v1.62h3.46v1.17h-3.46v1.65q0 .17.11.28t.28.12h3.3V984zm7.9.15q-.86 0-1.5-.31-.63-.32-1.09-.85l.84-.84q.44.45.87.66.44.2.92.2.65 0 1.02-.3t.37-.79q0-.38-.21-.61-.21-.24-.55-.38t-.75-.26q-.42-.12-.82-.27-.41-.14-.75-.37t-.55-.6-.21-.94q0-.72.34-1.24.33-.53.93-.82t1.41-.28q.74 0 1.35.26.6.26.99.7l-.86.86q-.33-.34-.69-.51t-.8-.17q-.6 0-.97.29-.36.29-.36.78 0 .36.21.57t.56.34.76.24.82.25.76.37.56.61.2.98q0 .74-.35 1.28-.35.55-.98.85t-1.47.3"/><svg xmlns="http://www.w3.org/2000/svg" id="dc-map" width="720" height="360" x="180" y="720" aria-hidden="true" class="dc-map-canvas" preserveAspectRatio="xMidYMid meet" viewBox="-185 -90 380 150"><path fill="#0c322c" fill-rule="evenodd" stroke="#30ba78" stroke-linecap="round" stroke-linejoin="round" stroke-width="0" d="m-59.5 80-7 .5 6-1zm-99.5-.5-4.5-1 4 .5zM-45 78l1.5 2-10.5.5 7.5-2.5zm-76-4.5h2.5-4zm-4.5 0 1.5.5-2.5-1zM-99 72l3 .5-6.5-.5h2zm30.5-1-.5 1h-6l3-1 1-2 2.5 1.5zM-180 84.5l37 .5-10.5-1.5.5-1.5-4-1 10.5-.5-9-1.5-3-2 7 .5 6.5-2.5 31-1.5 14 1.5-3.5-2.5L-76 74l7-1 2-1-1.5-2.5 1-2.5 9.5-3.5-7.5 4.5 3.5 2.5 1 3-9.5 3H-77l3.5 1.5-4.5 1 20 4 29.5-2.5-7-1-.5-1 18.5-3.5 2-2 8.5-2 34-.5 7-2 4.5 1.5 16-4 7 2H69l.5 1-1.5 3 2 .5 4-2.5 14-4 8 1.5 7-2 3 1.5 7.5-1 6.5 1.5 15-2 2.5 1.5h8l25.5 4.5-7.5 4.5 3.5 3h-5l-2 2 9.5 3 9 .5zM-68 54l3 .5-4 1-5.5-2.5 3.5 1 2.5-1zm9.5-3-2.5 1 2-.5zm129-1.5-2 .5.5-1.5zm75-8.5h3l-.5 2-2 .5-1.5-3zm27.5 0 1 .5-1 2.5-3.5 2.5-3-.5 6.5-5.5zm1.5-5 4 1.5-3.5 4-2.5-7 2 1zM167 22l-3-2 2.5 1.5zm11.37-4.66.35.29-.17.52-.62.14-.55-.13-.1-.44.4-.34.44.13zm-10.52-.87-.33.13-.34-.44.04-.27zm-.74-1.54.16.81-.27-.13-.2.06-.15-.28-.02-.76zM50 13.5 47 25h-3l.5-9 4.5-4 1 1zm93.5.5 9.5 12v5l-3 6.5-3.5 1.5-6-1-2.5-3.5-1 1 1-2.5-2 2-4.5-3.5L118 35l-3-1 .5-2.5-2-5.5.5-4 7-2.5 4.5-5.5 4 1 1-2.5 2-.5-.5-.5 4.5.5-1 3 4.5 2.5 2.5-7 1 3zm18.62-3.52.28.35-.7-.01-.38-.61.6.24zM120.5 10l-1.5-.5 2 .5Zm40.5 0-1.5-1 1 .5zm.5-.5-1-1 1 .5zm-37 .5 3-1.5-2.5 1zM118 8l1 .5-2.5.5 1-.5zm5 0-3 1 2-.5zm37 .5-2-1 1.5.5zm-2.46-1.15-.2.05-.44-.22-.4-.41.04-.17.6.42zM108.5 7l7 1.5-10-1.5 3-.5zm26.23-.79-.52.68-.1-.75.18-.36.2-.34.24.3zM156 7l-1.5-2 1.5 1.5Zm-4-1.5h-3.5l4-.5zm-25-2-1-.5h1zm3.5-.5-2.5.5 1.5-.5ZM153 4.5l-2.5-2L153 4ZM134 1l1.5 2.5 3-2 6 2.5 6 6.5-6-3-2 2-5-1 .5-3-5-1.5-1-1 1.5-1-3-1zm-9-2.5L120 0l1 1.5 2.5-1-2 1.5 1.5 3.5-2-3-1.5 3 .5-6zm3.5.5-.5 2-.5-2 1-.5zM106 6l-3.5-2-7-9.5 7 4 3.5 6zm12-8 1 1-3 5-6-1-1-2.5.5-2.5 3.5-1 3.5-4 2.5 1.5-1.5 2.5.5.5zm8.5-6.5-1 3-2-2.5-1.5 1 3.5-3 1 1zM81-6l-1-1v-3l1.5 3.5zm-142-4h-1l1-1zm185-.5-1.5 1L124-11zm-5.5 1-1.5 1 2.5-3-.5 1.5zM122-12l1 .5h-1zm3.5 0-.5 2v-2.5zm-3.97-1.07-.27.86-.43-.5-.5-.76.85.04zm-.03-5.43 1 1.5-1 2.5 2.5 2-3.5-1.5v-4.5zm-187 .5H-67l1-.5zM-77-18h-1.5 2.5zm4.5-2 4 1.5-5.5.5 1.5-.5-.5-1.5zm183 1.5-2-1h2zm-266-.5-.5-1.5 1 1.5zm-.58-1.64-.34.07-.17-.21-.11-.08-.01-.07.1-.08.35.1.27.15zm-.68-.54-.03.11-.54-.03.08-.12zm-.9-.14-.05.06-.07-.02-.35-.03-.12-.23-.04-.04.26-.14.09.07zm-1.69-.66-.12.1-.33-.18.05-.08.15-.1.24.02zM-79.5-23l5.5 2.5-4 .5-4-2.5-3 .5 4.5-1zm2-1-.5-1 .5.5zM121-23l-1-.5 2-1zm-199-3.5-1-.5h1zm1-.1-.17.72-.19-.13.02-.52-.45-.4v-.1zM134.5-34l-2 1 1.5-1.5zm-100-1.5-2 .5 1-.5zm-11 0h3zm-8-2.5-.5 1.5-2.5-1L15-38ZM9-41v2l-.5-2zm132 4-.5 2-4.5 1.5-1-1-4 .5 1 1-2 1.5-.5-2 6-2 6-6-.5 3.5zM9.56-42.15l-.33.77-.45-.2-.24-.68.2-.37.65-.38zM144-44l1.5.5-5.5 2 2-4 1 1zm-207.5-2.5h1.5l-2-.5zM-62-49l-2.5-1 2.5.5zm-61.5.5-5-2 4.5 1.5zm67.5-2-1 .5 3.5 1 .5 2.5-6.5-1 4-4zm-76.5-3.5 1.5 2-2-2zm276 3.5 1 1.5-1.5-.5.5 3.5H142l.5-8.5.5 2.5zM-7-52.5l-3 .5.5-2 3-1 .5 2zm19.5-3H11l1.5-.5ZM-153-57l-1.5-.5h2.5zm150-1.5-1 1h2L-3-56l4.5 3.5v1L-5-50l1.5-1.5-2-.5 1-1.5L-3-54l-3-3 2-1.5zM-165.5-60h-2l2-.5zm86.23-2.16-.39.53-.44-.09-.26-.3.04-.07.39-.3.41.03zM-82-62.5h-2l2-.5zm-89.5-1.5 3 .5h-3.5zm86.5-1.5 5 2h-7l1-2zm70.5-1 1 1.5-5 1.5-6-2 8.5-1zM-76-67l-1-.5h2zm-104-2 10 3-3 1.5-7-1.5m360 1-2.5.5 1.5 2-8.5 2.5h-7l-1.5 2 1 .5-1 2.5-5 4-1-6 8.5-5.5-4.5 2-3.5-1L154-60l1 1h-13l-7 4.5 5 .5 1.5 2-3.5 5.5-10.5 6.5 1.5 5-2.5.5-1-5-4.5.5.5-2-3.5 2 1 1.5h3.5L119-35l3 3.5-.5 3.5-5.5 5-5.5 2.5-2-1L106-20l3.5 6.5-.5 2-4 3-5-5L99-9l4 3.5 1 4-2.5-1.5-3-5-1.5-9-3 1-2.5-7-4.5 1.5-6.5 5.5-.5 5.5L77.5-8l-5-13.5-2 .5-4-4.5h-9l-1-1.5-5-1-1.5-2h-2l4 6 4.5-2.5.5 2.5 3 1.5-4.5 5.5-12 4.5-1-4.5L35-29.5l-1 2-1.5-2.5 5 11.5 5 7 2 1L51-12v1.5L47.5-4 39 4.5l2 10-6 5.5.5 4-3 1.5L32 29l-4 4-8.5 2L12 18l1.5-7.5L12 5 9 1l.5-4.5-3.5-1-1.5-2L-9-5l-7.5-7-.5-10 11-14 15.5-1.5 1.5.5-.5 3 8.5 3.5 2.5-2.5L34-31l2-5.5h-8.5l-1.5-3 7.5-2.5 5 1 3-1-5-3 2.5-2.5-4 1 1.5 1.5-2.5.5-1.5-1 1-.5-3-.5-3 4L29-41l-6.5.5 1.5 3-1.5 1-3-5-6.5-4-.5 1.5 6 4-1.5-.5-1 2.5-.5-2L9-44.5 3-43l-5 6.5-7-.5-.5-6 8-1 .5-2-3.5-2.5h3L-2-50l10-3.5.5-3.5 2-.5-1 2L11-54l8.5-.5 2-3 2.5.5-.5-2 5.5-1-7.5-.5V-63l4-2-3.5-.5-4 3-1 1 2 1.5-3 4-3 .5-2.5-4-5 1 .5-4L19-70l5.5-1L41-67.5 38.5-66l-5.5-.5 4 2.5v-1l7-1-.5-2.5 3 .5v1.5l7-2.5 6.5.5.5-1.5 8 2-2-3 2.5-2h3.5l-.5 1.5 1.5 3-2 2 1 .5 2.5-2-2-3.5 1.5-1.5 2 2 5-.5-1-2 24-4L114-76l-4.5 2 17.5.5 4.5 2.5 8.5-.5-1-1 1.5-.5 18.5 2 2 1.5h17.5zM49-41.5l1.5 1-1.5 3 5 .5-1.5-3 2-1-1-1-.5 1-2.5-3.5 2.5-1V-47l-6.5 2.5 2 2.5zM-95.5-69l-4.5-.5h3.5zM180-71h-1.5zm-270.5 1.5 3 2.5 2-3 3 .5 1 2L-93-62l-1.5 3 2 2 10 2 2.5 4 1.5-1.5-1.5-2 3.5-2-2-2.5 1-1-.5-2.5h4l4.5 1.5 2 3 3-2.5 2.5 4 4.5 2 2 2.5-4.5 2h-6.5l-4.5 3 6-2 .5 3 4-1 .5 1-5.5 2.5-.5-1 1.5-1-2.5.5-3.5 2 .5 1.5-5.5 2-.5 2.5-.5-2 1 3.5-6 4 1 6.5-3.5-5-10 .5-2.5 1-1.5 6 1.5 3 4.5 1 1.5-2.5 3.5-.5-2 5.5 5.5.5-.5 4.5 2.5 2 4.5.5 5-4 .5 3.5 1.5-3 2 1.5h6l5 4.5 5.5 2 1 4 6 2.5 4.5.5 4.5 2 1 2.5-4 5.5-2.5 9-6.5 3-1.5 3.5-5 6-4.5-.5 1.5 3-5.5 2v2H-65l1.5 1.5-4 3L-66 48l-3 2.5 1 2-3 1.5-4-1.5-.5-4L-74 47l-1.5-.5 3-4-2 .5 4.5-23-6-5.5-5.5-8.5 1.5-3.5-1-1.5 4-5-1-4.5-1.5-.5-1.5 2-4.5-3-2-3.5-16-5L-115-32l5.5 9-2.5-1.5-5.5-8.5-3-1.5-4-6V-48l2 1-.5-2-4.5-2-6.5-7-13-3-4.5 2 1-2.5-8 5.5-6.5 1.5 8-4.5-5 .5-4-3 5-3.5-7-.5 6.5-.5-5.5-2.5 10.5-3 20 2.5 8.5-1.5 19 3 3-1.5 4.5 1.5 4-1 1.5 1 2-1.5-2.5-1 1.5-2 3.5 2-1 .5zM-114-73l6 1.5-.5-1.5h2l5.5 3-1.5 1-11 .5-4-1.5 5-.5-7-1 4.5-2zm9.5-.5h-2.5 1.5zm28 .5-4.5-.5h3zm-10 0 4-1 1.5 2 9 .5 5 2.5-2 .5 7 1.5-2 2-4-1.5 3.5 3H-69l3 1.5-9-2.5-2.5.5-.5-1.5h4l1-2-6-2.5-11-1 .5-2 3.5-1zm-14-1h3l1 2.5-6-1h2l-1-1zm244 1-3.5-.5h3.5zM-93-73l-2.5 1-.5-1.5 5.5-.5-1.5 1zm-27.5 1.5-5.5-.5 2-1.5-1-1 9.5 1-5 1.5zm271-3.5H146l2-.5zm-244 0H-97l3-.5zm238.5-.5h-8l4.5-.5zm-243.5-1 .5 1.5-4.5-.5zm-9.5.5 2.5.5-12 .5 2-1.5 6.5 1-1.5-1h2zm165.5 5.5-6-1.5 4-3L69-76.5l-10.5 2-3 3zm-152-6.5 14.5 2h-12.5l-4-2zm-21.5-.5-7 1.5 5.5-1.5zm22 0-2.5-.5 3 .5zm-16 0h-3.5l3.5-.5zM24.5-78l-4 .5 3-.5zm-134-.5h-3l1.5-.5zm13.5.5-2.5-1 3 .5zm-4-.5-5.5-1 4.5.5zm205 0-5.5.5 2.5-1.5 3.5 1zm-86.5-1 3 .5-5.5 2-5.5-2.5L17-80zm7-1 2 .5-10-.5H23Zm25.5 0h-6 6.5zm49 1.5-9-1.5 5-1 4 1.5zm-187-.5h1l-5 1.5-5.5-2 4-1.5 4.5 1zm18.5-3.5 6.5.5-15 3 1.5 1-5 2.5-9-.5 1-1.5 3.5.5-3-1 3-1-2-1h5l-9.5-1.5 21-1zm41.5-.5 6 1-11 .5 20 .5-8 1.5h2.5l-2 1 1 2-3 .5 2 2-5.5 2 3 2-3.5-1-1 1.5h4L-40-65.5l-3.5 5.5-5-1-3-2.5L-54-67l3-3-3.5.5V-71l3 .5-4.5-1 1.5-1-4-3-10-.5-3-1 4.5-.5-6.5-.5 8-1.5-2.5-.5 5.5-2 18 .5-2.5-1 12-1z"/><g opacity=".95"><circle cx="-111.66" cy="-40.23" r="6" fill="#fff" opacity=".18"/><circle cx="-111.66" cy="-40.23" r="4" fill="none" stroke="#fff" stroke-width="1.2" opacity=".85"/><circle cx="-111.66" cy="-40.23" r="2.2" fill="#fff"/></g></svg><path fill="#0c322c" d="M937.16 892.94q-3.35 0-5.77-1.91-2.42-1.92-3.72-5.46-1.29-3.54-1.29-8.47 0-4.88 1.29-8.45 1.3-3.56 3.72-5.48 2.42-1.91 5.77-1.91 3.38 0 5.83 1.91 2.44 1.92 3.74 5.48 1.29 3.57 1.29 8.45 0 4.93-1.29 8.47-1.3 3.54-3.74 5.46-2.45 1.91-5.83 1.91m0-1.94q4.09 0 6.44-3.69 2.36-3.7 2.36-10.21t-2.36-10.21-6.44-3.69q-4.05 0-6.38 3.69-2.34 3.7-2.34 10.21t2.34 10.21 6.38 3.69m24.64 1.94q-3.44 0-5.79-1.06-2.35-1.05-3.89-2.5l1.27-1.5q1.28 1.28 3.32 2.24t5.13.97q2.46 0 4.33-.86 1.87-.85 2.93-2.37t1.06-3.5q0-2.86-2.29-4.66t-6.34-1.81h-4.18V876h4.05q2.55 0 4.31-.9t2.69-2.42.92-3.32q0-2.86-2.11-4.54-2.11-1.67-5.46-1.67-2.73 0-4.6.88t-2.83 1.89l-1.19-1.54q1.19-1.14 3.41-2.13t5.26-.99q2.81 0 4.99.97t3.39 2.73 1.21 4.18q0 2.59-1.5 4.68-1.49 2.09-4.27 3.02 3.26.79 4.93 2.83t1.67 4.82q0 2.51-1.32 4.4t-3.69 2.97-5.41 1.08m16.19-18.08v-3.26h2.46v3.26zm0 17.64v-3.26h2.46v3.26zm7.83 0v-1.58l11.84-12.02q1.89-1.89 2.88-3.38.99-1.5 1.36-2.78t.38-2.42q0-3.34-1.92-5.19-1.91-1.85-5.17-1.85-2.29 0-4.38 1.28t-3.49 3.52l-1.46-1.32q1.59-2.6 4.1-4.05t5.28-1.45q4.26 0 6.71 2.44 2.44 2.44 2.44 6.45 0 1.36-.4 2.84-.39 1.47-1.52 3.23t-3.32 3.96l-10.25 10.38h16.68v1.94zm34.5.44q-3.44 0-5.79-1.06-2.35-1.05-3.89-2.5l1.27-1.5q1.28 1.28 3.32 2.24t5.13.97q2.46 0 4.33-.86 1.87-.85 2.93-2.37t1.06-3.5q0-2.86-2.29-4.66t-6.34-1.81h-4.18V876h4.05q2.55 0 4.31-.9t2.69-2.42.92-3.32q0-2.86-2.11-4.54-2.11-1.67-5.46-1.67-2.73 0-4.6.88t-2.83 1.89l-1.19-1.54q1.19-1.14 3.41-2.13t5.26-.99q2.81 0 4.99.97t3.39 2.73 1.21 4.18q0 2.59-1.5 4.68-1.49 2.09-4.27 3.02 3.26.79 4.93 2.83t1.67 4.82q0 2.51-1.32 4.4t-3.69 2.97-5.41 1.08"/><path fill="#0c322c" fill-opacity=".55" d="M926.34 919.5v-6.47h-2.19v-1.23h5.77v1.23h-2.21v6.47zm8.4.15q-1.37 0-2.18-.7-.8-.7-.8-2.11v-5.04h1.35v4.93q0 .85.44 1.26.45.41 1.19.41t1.19-.41.45-1.26v-4.93h1.35v5.04q0 1.41-.82 2.11t-2.17.7m6.74-.15q-.56 0-.92-.36-.36-.37-.36-.93v-5.12q0-.56.36-.93.36-.36.92-.36h3.75v1.23h-3.3q-.16 0-.28.12t-.12.28v1.62H945v1.17h-3.47v1.65q0 .17.12.28t.28.12h3.3v1.23zm8.12.15q-.86 0-1.5-.31-.64-.32-1.09-.85l.84-.84q.44.45.87.66.44.2.92.2.65 0 1.02-.3t.37-.79q0-.38-.21-.61-.21-.24-.55-.38t-.76-.26-.81-.27q-.41-.14-.75-.37t-.55-.6-.21-.94q0-.72.33-1.24.34-.53.94-.82t1.41-.28q.74 0 1.34.26t.99.7l-.85.86q-.33-.34-.69-.51t-.8-.17q-.6 0-.97.29-.36.29-.36.78 0 .36.21.57t.55.34q.35.13.76.24t.83.25q.41.14.76.37.34.23.55.61.21.39.21.98 0 .74-.35 1.28-.35.55-.98.85-.64.3-1.47.3m4.95-.15v-7.7h2.77q1.09 0 1.95.48.87.48 1.36 1.32t.5 1.96v.12q0 .84-.29 1.54t-.81 1.21-1.21.79-1.5.28zm2.66-6.43h-1.32v5.17h1.32q.74 0 1.31-.32t.9-.9.33-1.34v-.12q0-.75-.32-1.31-.33-.56-.9-.87t-1.32-.31m5.09 6.43 2.82-7.7h1.66l2.8 7.7h-1.38l-.66-1.89h-3.19l-.66 1.89zm2.45-3.04h2.38l-1.18-3.36zm7.67 3.04v-3.19l-2.73-4.51h1.47l1.94 3.21 1.95-3.21h1.46l-2.72 4.51v3.19zm-48.3 20.5 2.93-7.7h1.13l2.93 7.7h-.97l-.78-2.1h-3.49l-.79 2.1zm2.05-2.9h2.88l-1.43-3.86zm6.31 2.9v-5.29h.85v.84q.31-.54.77-.75t.91-.2q.57 0 1.01.25.43.26.65.78.23-.39.55-.62.31-.22.65-.32.33-.09.63-.09.86 0 1.4.55.53.56.53 1.7V940h-.86v-3.04q0-.81-.36-1.18-.35-.37-.92-.37-.6 0-.99.4-.4.41-.4 1.15V940h-.88v-3.04q0-.81-.34-1.18t-.92-.37q-.6 0-1 .4t-.4 1.15V940zm12.27.11q-.78 0-1.38-.35t-.94-.96-.33-1.42v-.11q0-.77.3-1.37.31-.6.87-.95t1.3-.35q.76 0 1.3.37.54.38.8 1.05.25.68.14 1.6h-3.82q.03.47.25.85.23.38.62.6.39.23.92.23.42 0 .74-.1.33-.1.57-.32l.5.55q-.3.33-.78.5-.48.18-1.06.18m-.18-4.74q-.66 0-1.07.42t-.5 1.11h2.97q-.01-.73-.4-1.13-.38-.4-1-.4m3.96 4.63v-5.29h.86v.85q.2-.51.59-.69t.87-.18h.45v.88h-.51q-.65 0-1.01.32t-.36.98V940zm4.68 0v-4.52h-1.04v-.77h1.91V940zm-.06-6.46v-1.27h.99v1.27zm5.39 6.57q-.78 0-1.4-.34t-.96-.95-.35-1.4v-.14q0-.79.36-1.39.35-.61.96-.95t1.39-.34q.58 0 1.06.21.48.22.81.6l-.55.55q-.51-.54-1.32-.54-.53 0-.94.24t-.65.64q-.24.42-.24.98v.14q0 .56.25.98.24.42.65.65t.94.24q.8 0 1.33-.53l.54.54q-.32.38-.81.6t-1.07.21m5.05 0q-.9 0-1.45-.44t-.54-1.14q0-.47.27-.83.28-.36.76-.58.47-.21 1.07-.21.87 0 1.39.36v-.66q0-.65-.34-.93t-.91-.28q-.43 0-.87.16-.45.16-.77.49l-.42-.63q.36-.4.93-.61t1.18-.21q.93 0 1.5.49.58.5.58 1.48v1.69q0 .88.03 1.74h-.79l-.01-.53q-.5.64-1.61.64m.23-.67q.6 0 .94-.25.34-.26.34-.66t-.34-.66-.95-.25-.96.25-.35.66q0 .39.36.65.35.26.96.26m3.21 2.14 4.08-9.93h.92l-4.1 9.93zm6.29-1.58v-7.7h2.6q1.08 0 1.93.47.84.48 1.34 1.32.49.84.49 1.93v.13q0 .85-.28 1.55t-.8 1.22-1.2.8-1.48.28zm2.53-6.82h-1.59v5.94h1.59q.83 0 1.48-.38t1.02-1.05.37-1.54v-.13q0-.85-.36-1.49-.37-.63-1.02-.99t-1.49-.36m7.89 6.93q-.78 0-1.38-.35t-.93-.96-.34-1.42v-.11q0-.77.31-1.37t.87-.95 1.3-.35 1.29.37.8 1.05.15 1.6h-3.83q.03.47.26.85t.62.6.91.23q.42 0 .75-.1.32-.1.56-.32l.51.55q-.31.33-.79.5-.48.18-1.06.18m-.17-4.74q-.67 0-1.08.42t-.5 1.11h2.97q-.01-.73-.39-1.13-.39-.4-1-.4m3.96 4.63v-5.29h.85v.85q.32-.55.82-.76t.93-.2q.89 0 1.45.58.55.57.55 1.71V940h-.89v-2.98q0-.85-.38-1.23t-.96-.38q-.6 0-1.04.42-.44.41-.44 1.2V940zm7.91 0-2.1-5.29h.93l1.65 4.25 1.64-4.25h.92l-2.09 5.29zm6.64.11q-.78 0-1.38-.35t-.94-.96-.33-1.42v-.11q0-.77.31-1.37.3-.6.86-.95t1.3-.35q.76 0 1.3.37.54.38.8 1.05.26.68.15 1.6h-3.83q.03.47.26.85.22.38.61.6.39.23.92.23.42 0 .74-.1.33-.1.57-.32l.51.55q-.31.33-.79.5-.48.18-1.06.18m-.18-4.74q-.66 0-1.07.42t-.5 1.11h2.97q-.01-.73-.4-1.13-.38-.4-1-.4m3.96 4.63v-5.29h.86v.85q.2-.51.59-.69t.87-.18h.45v.88h-.51q-.65 0-1.01.32t-.36.98V940zm6.84-2.52v-1.21h1.08v1.21zm6.14 2.52v-7.7h1.26l2.22 4.61 2.21-4.61h1.25v7.7h-.91v-6.49l-2.19 4.65h-.74l-2.17-4.65V940zm9.31 0v-7.7h2.59q1.08 0 1.93.47.85.48 1.34 1.32t.5 1.93v.13q0 .85-.29 1.55t-.8 1.22-1.19.8-1.49.28zm2.53-6.82h-1.6v5.94h1.6q.82 0 1.47-.38t1.03-1.05.37-1.54v-.13q0-.85-.37-1.49-.37-.63-1.02-.99t-1.48-.36m6.78 6.82v-6.84h-2.32v-.86h5.61v.86h-2.34V940z"/></svg>