<svg xmlns="http://www.w3.org/2000/svg" width="1080" height="1080" viewBox="0 0 1080 1080"><path fill="#0c322c" d="M0 0h1080v1080H0z"/><path fill="#fff" fill-opacity=".45" d="M890.36 45v-7.26h-2.46V36.6h6.19v1.14h-2.47V45zm8.97.16q-1.45 0-2.32-.77-.87-.76-.87-2.26V36.6h1.25v5.44q0 .96.53 1.45.53.5 1.41.5.89 0 1.43-.5.53-.49.53-1.45V36.6h1.25v5.53q0 1.5-.88 2.26-.87.77-2.33.77m7.37-.16q-.6 0-.98-.38-.39-.39-.39-.99v-5.66q0-.6.39-.99.38-.38.98-.38h3.97v1.14h-3.57q-.23 0-.38.16-.15.15-.15.38v1.96h3.85v1.09h-3.85v1.99q0 .23.15.38.15.16.38.16h3.57V45zm8.71.16q-.91 0-1.59-.34-.67-.34-1.14-.89l.77-.78q.46.49.96.72t1.05.23q.78 0 1.23-.38t.44-.98q0-.44-.23-.72t-.62-.44q-.37-.17-.83-.29-.46-.13-.91-.29-.46-.15-.84-.4-.37-.24-.61-.64t-.23-1.02q0-.77.35-1.33.36-.55 1-.86.65-.31 1.52-.31.78 0 1.4.27t1.03.73l-.79.8q-.36-.37-.76-.55-.39-.19-.9-.19-.73 0-1.17.37-.45.36-.45.95 0 .42.24.67t.62.41.84.27.92.26.84.41q.38.25.62.66t.23 1.06q0 .8-.38 1.38-.37.58-1.05.9-.67.32-1.56.32m5.4-.16v-8.4h2.93q1.18 0 2.11.52.94.52 1.48 1.44t.54 2.12v.13q0 .93-.31 1.69-.31.77-.88 1.33-.56.56-1.31.86-.75.31-1.63.31zm2.84-7.22h-1.59v6.04h1.59q.85 0 1.51-.37.67-.38 1.05-1.06.39-.68.39-1.58v-.13q0-.86-.38-1.52t-1.04-1.02-1.53-.36m5.56 7.22 3.14-8.4h1.52L937 45h-1.28l-.79-2.17h-3.64L930.5 45zm2.46-3.24h2.87l-1.43-3.94zm8.52 3.24v-3.52l-3.02-4.88h1.36l2.29 3.68 2.3-3.68h1.36l-3.03 4.88V45zm4.78 0v-1.48h1.42v2.25q0 .39-.16.61t-.4.3-.48.08h-.43v-.68h.43q.15 0 .23-.1.07-.09.07-.22V45zm6.68 0v-1.14h1.78q.32 0 .54-.22.22-.21.22-.54v-5.36h-2.14V36.6h3.4v6.38q0 .99-.55 1.5-.55.52-1.58.52zm9.82.16q-1.45 0-2.32-.77-.87-.76-.87-2.26V36.6h1.25v5.44q0 .96.52 1.45.53.5 1.42.5t1.42-.5.54-1.45V36.6h1.24v5.53q0 1.5-.87 2.26-.88.77-2.33.77m7.4-.16q-.58 0-.97-.38-.39-.39-.39-.99V36.6h1.24v6.68q0 .23.16.39.16.15.38.15h3.38V45zm6.75 0v-3.52l-3.03-4.88h1.36l2.29 3.68 2.31-3.68h1.35l-3.02 4.88V45zm9.97 0 3.74-7.28h-4.46V36.6h5.83v.85L986.98 45zm7.38 0v-1.48h1.42v2.25q0 .39-.16.61t-.4.3-.48.08h-.43v-.68h.43q.15 0 .23-.1.07-.09.07-.22V45zm7.16 0v-.92l3.02-3.05q.6-.59.81-1.05t.22-.91q0-.65-.39-1.03t-1.06-.38q-.56 0-1.03.3t-.85.86l-.81-.78q.48-.73 1.18-1.15t1.54-.41q.81 0 1.41.31.61.31.94.87.34.56.34 1.29 0 .64-.31 1.31t-1.12 1.49l-2.12 2.13h3.89V45zm10.98.12q-1.45 0-2.28-1.13-.82-1.14-.82-3.18t.82-3.19 2.28-1.14q1.47 0 2.29 1.14t.82 3.19-.82 3.18-2.29 1.13m0-1.13q.89 0 1.38-.81t.48-2.37-.48-2.38q-.49-.82-1.38-.82t-1.37.82-.49 2.38q0 1.55.49 2.37.49.81 1.37.81m5.34 1.01v-.92l3.02-3.05q.6-.59.81-1.05t.22-.91q0-.65-.39-1.03t-1.06-.38q-.56 0-1.03.3t-.85.86l-.81-.78q.48-.73 1.18-1.15t1.54-.41q.81 0 1.41.31.61.31.94.87.34.56.34 1.29 0 .64-.31 1.31t-1.12 1.49l-2.12 2.13h3.89V45zm11.06.12q-.93 0-1.61-.35-.67-.36-1.05-1.01-.37-.64-.37-1.52 0-.58.23-1.15t.62-1.14l2.33-3.35h1.49l-2.27 3.08q.41-.15.88-.15.8 0 1.42.36t.97.98q.34.63.34 1.44 0 .85-.37 1.48-.38.63-1.05.98-.68.35-1.56.35m-.03-1.08q.78 0 1.27-.48.48-.48.48-1.25t-.48-1.25q-.49-.49-1.24-.49-.8 0-1.28.49-.49.48-.49 1.25 0 .78.48 1.26.48.47 1.26.47"/><path fill="#30ba78" d="M28.51 264.66v-44.54q0-6.72 3.07-11.81 3.08-5.09 8.5-7.97t12.43-2.88h11.71v18.72H53.76q-2.11 0-3.26 1.25-1.16 1.25-1.16 3.36v9.41h14.88v34.46zm41.28 0v-44.54q0-6.72 3.07-11.81 3.08-5.09 8.5-7.97t12.43-2.88h11.71v18.72H95.04q-2.11 0-3.26 1.25-1.16 1.25-1.16 3.36v9.41h14.88v34.46z"/><path fill="#fff" d="m41.71 359.45-16.17-53.9h5.24l13.55 46.43 14.63-46.43h5.62l14.63 46.51 13.55-46.51H98l-16.17 53.9h-5.24l-14.78-47.28-14.79 47.28zm62.29 0v-56.21h4.7v25.95q1.46-2.77 3.66-4.35 2.19-1.58 4.58-2.27 2.39-.7 4.47-.7 6.23 0 10.16 3.97t3.93 12.13v21.48h-4.93v-20.87q0-6.46-2.93-9.31-2.92-2.85-7.39-2.85-3.08 0-5.66 1.38-2.58 1.39-4.12 4.08t-1.54 6.78v20.79zm57.37.77q-5.39 0-9.55-2.43-4.16-2.42-6.47-6.69t-2.31-9.9v-.77q0-5.39 2.16-9.55 2.15-4.15 5.97-6.58t8.89-2.43q5.16 0 8.85 2.55 3.7 2.54 5.43 7.16t1.04 10.78h-27.49q.16 3.77 1.89 6.81t4.73 4.77q3.01 1.74 7.01 1.74 6.08 0 9.55-3.01l2.77 3.16q-2.08 2.08-5.35 3.24-3.27 1.15-7.12 1.15m-1.31-34.03q-5.08 0-8.28 3.31t-3.81 8.78h22.79q.08-5.55-2.89-8.82-2.96-3.27-7.81-3.27m23.18 33.26v-36.81h4.69v6.55q1.47-2.77 3.66-4.35t4.58-2.27q2.39-.7 4.47-.7 6.24 0 10.16 3.97 3.93 3.97 3.93 12.13v21.48h-4.93v-20.87q0-6.46-2.92-9.31-2.93-2.85-7.4-2.85-3.08 0-5.66 1.38-2.58 1.39-4.12 4.08t-1.54 6.78v20.79zm52.51 15.4v-4.23h7.01q1.92 0 3.04-1.35t1.81-3.12l2.85-6.39-15.25-37.12h5.39l12.48 31.11 12.08-31.11h5.39l-17.94 43.66q-.84 2.08-2.04 4.05-1.19 1.96-3.12 3.23-1.92 1.27-4.92 1.27zm55.29-14.63q-5.24 0-9.32-2.43-4.08-2.42-6.39-6.69t-2.31-9.9v-.69q0-5.47 2.31-9.67t6.39-6.58 9.32-2.39q5.16 0 9.24 2.39t6.39 6.55q2.31 4.15 2.31 9.54v.85q0 5.62-2.31 9.9-2.31 4.27-6.39 6.69t-9.24 2.43m0-4.39q3.85 0 6.77-1.89 2.93-1.88 4.58-5.15 1.66-3.28 1.66-7.59v-.85q0-4.15-1.66-7.31-1.65-3.16-4.58-4.97-2.92-1.81-6.77-1.81t-6.82 1.85q-2.96 1.85-4.66 5.04-1.69 3.2-1.69 7.36v.69q0 4.31 1.69 7.59 1.7 3.27 4.66 5.15 2.97 1.89 6.82 1.89m39.73 4.39q-4.08 0-7.32-1.58-3.23-1.58-5.08-4.93t-1.85-8.81v-22.26h4.85v21.49q0 6.47 2.93 9.01t7.32 2.54q3 0 5.54-1.35t4.12-4q1.58-2.66 1.58-6.74v-20.95h4.77v36.81h-4.46v-6.08q-2.24 3.85-5.78 5.35t-6.62 1.5m44.35-.77v-36.81h4.77v6.01q1.39-3.54 4.12-4.81t6.2-1.27h3.16v4.85h-3.54q-4.55 0-7.16 2.35t-2.62 7.35v22.33zm38.27.77q-5.39 0-9.55-2.43-4.16-2.42-6.47-6.69t-2.31-9.9v-.77q0-5.39 2.16-9.55 2.16-4.15 5.97-6.58t8.89-2.43q5.16 0 8.86 2.55t5.42 7.16q1.74 4.62 1.04 10.78h-27.49q.16 3.77 1.89 6.81t4.74 4.77q3 1.74 7 1.74 6.09 0 9.55-3.01l2.77 3.16q-2.08 2.08-5.35 3.24-3.27 1.15-7.12 1.15m-1.31-34.03q-5.08 0-8.28 3.31t-3.81 8.78h22.79q.08-5.55-2.88-8.82-2.97-3.27-7.82-3.27m34.11 34.03q-6.39 0-10.16-3t-3.78-7.86q0-3.23 1.85-5.69t5.12-3.89 7.51-1.43q3.39 0 5.97.81t4.35 2.27v-5.7q0-5-2.54-7.2-2.54-2.19-6.86-2.19-3.08 0-6.27 1.12-3.2 1.11-5.35 3.58l-2.39-3.47q2.46-2.85 6.31-4.27 3.85-1.43 7.94-1.43 6.31 0 10.16 3.39t3.85 10.24v11.71q0 6.16.23 12.24h-4.39l-.08-4q-3.31 4.77-11.47 4.77m1.16-3.77q4.69 0 7.2-2t2.5-5.09q0-3.15-2.54-5.08-2.54-1.92-7.24-1.92-4.62 0-7.32 1.92-2.69 1.93-2.69 5.08 0 3.08 2.69 5.09 2.7 2 7.4 2m40.96 3.77q-5.47 0-9.7-2.39-4.24-2.38-6.62-6.58-2.39-4.2-2.39-9.74v-1q0-5.47 2.42-9.67 2.43-4.19 6.63-6.58t9.66-2.39q4 0 7.24 1.43 3.23 1.42 5.54 3.96l-3.08 3.08q-3.77-3.92-9.78-3.92-4 0-7.12 1.77t-4.89 4.96-1.77 7.36v1q0 4.23 1.81 7.43t4.93 4.97 7.12 1.77q6.01 0 9.86-3.93l3 3.08q-2.31 2.54-5.58 3.97-3.28 1.42-7.28 1.42m19.87-.77v-56.21h4.69v25.95q1.47-2.77 3.66-4.35t4.58-2.27q2.39-.7 4.47-.7 6.24 0 10.16 3.97 3.93 3.97 3.93 12.13v21.48h-4.93v-20.87q0-6.46-2.92-9.31-2.93-2.85-7.4-2.85-3.08 0-5.66 1.38-2.58 1.39-4.12 4.08t-1.54 6.78v20.79zm69.3 0q-2.47 0-4.62-1-2.16-1-3.55-3.04t-1.38-5.28v-23.17h-6.85v-4.32h6.85v-9.16h4.85v9.16h10.24v4.32h-10.24v23.48q0 2.08 1.39 3.43 1.38 1.34 3.38 1.34h5.47v4.24zm12.55 0v-56.21h4.69v25.95q1.47-2.77 3.66-4.35t4.58-2.27q2.39-.7 4.47-.7 6.24 0 10.16 3.97 3.93 3.97 3.93 12.13v21.48h-4.93v-20.87q0-6.46-2.92-9.31-2.93-2.85-7.4-2.85-3.08 0-5.66 1.38-2.57 1.39-4.11 4.08t-1.54 6.78v20.79zm57.36.77q-5.39 0-9.55-2.43-4.15-2.42-6.46-6.69t-2.31-9.9v-.77q0-5.39 2.15-9.55 2.16-4.15 5.97-6.58t8.89-2.43q5.16 0 8.86 2.55t5.43 7.16 1.04 10.78h-27.49q.15 3.77 1.88 6.81 1.74 3.04 4.74 4.77 3 1.74 7.01 1.74 6.08 0 9.54-3.01l2.78 3.16q-2.08 2.08-5.36 3.24-3.27 1.15-7.12 1.15m-1.31-34.03q-5.08 0-8.27 3.31-3.2 3.31-3.82 8.78h22.8q.07-5.55-2.89-8.82-2.97-3.27-7.82-3.27m55.83 34.03q-5.39 0-9.55-2.43-4.16-2.42-6.47-6.69t-2.31-9.9v-.77q0-5.39 2.16-9.55 2.15-4.15 5.97-6.58t8.89-2.43q5.16 0 8.85 2.55 3.7 2.54 5.43 7.16 1.74 4.62 1.04 10.78h-27.49q.16 3.77 1.89 6.81t4.74 4.77q3 1.74 7 1.74 6.09 0 9.55-3.01l2.77 3.16q-2.08 2.08-5.35 3.24-3.27 1.15-7.12 1.15m-1.31-34.03q-5.08 0-8.28 3.31t-3.81 8.78h22.79q.08-5.55-2.89-8.82-2.96-3.27-7.81-3.27m23.18 33.26v-36.81h4.69v6.55q1.47-2.77 3.66-4.35t4.58-2.27q2.39-.7 4.47-.7 6.24 0 10.16 3.97 3.93 3.97 3.93 12.13v21.48h-4.93v-20.87q0-6.46-2.92-9.31-2.93-2.85-7.4-2.85-3.08 0-5.66 1.38-2.58 1.39-4.12 4.08t-1.54 6.78v20.79zm56.28.77q-5.08 0-8.97-2.39-3.89-2.38-6.08-6.7-2.19-4.31-2.19-9.93v-.69q0-5.47 2.23-9.67t6.12-6.58 8.89-2.39q4.47 0 7.97 2.12t5.59 5.74v-26.49h4.92v56.21h-4.46v-7.55q-2.16 3.85-5.78 6.09t-8.24 2.23m.62-4.39q3.77 0 6.78-1.85 3-1.84 4.73-5.16 1.73-3.31 1.73-7.77 0-4.39-1.73-7.7t-4.73-5.2-6.78-1.89-6.7 1.81-4.58 5.01-1.66 7.43v.69q0 4.39 1.66 7.7 1.65 3.31 4.58 5.12t6.7 1.81m60.83 4.39q-5.24 0-9.32-2.43-4.08-2.42-6.39-6.69t-2.31-9.9v-.69q0-5.47 2.31-9.67t6.39-6.58 9.32-2.39q5.16 0 9.24 2.39t6.39 6.55q2.31 4.15 2.31 9.54v.85q0 5.62-2.31 9.9-2.31 4.27-6.39 6.69t-9.24 2.43m0-4.39q3.85 0 6.78-1.89 2.92-1.88 4.58-5.15 1.65-3.28 1.65-7.59v-.85q0-4.15-1.65-7.31-1.66-3.16-4.58-4.97-2.93-1.81-6.78-1.81t-6.82 1.85-4.65 5.04q-1.7 3.2-1.7 7.36v.69q0 4.31 1.7 7.59 1.69 3.27 4.65 5.15t6.82 1.89m27.87 3.62v-32.49h-7v-4.32h7v-10.08q0-4.24 2.7-6.78 2.69-2.54 6.93-2.54h6.08v4.24h-6.08q-2.08 0-3.43 1.34-1.35 1.35-1.35 3.35v10.47h10.86v4.32h-10.86v32.49zm30.57 15.4v-4.23h7.01q1.92 0 3.04-1.35t1.81-3.12l2.85-6.39-15.25-37.12h5.39l12.48 31.11 12.09-31.11h5.39l-17.94 43.66q-.85 2.08-2.05 4.05t-3.11 3.23q-1.93 1.27-4.93 1.27zm55.29-14.63q-5.24 0-9.32-2.43-4.08-2.42-6.39-6.69t-2.31-9.9v-.69q0-5.47 2.31-9.67t6.39-6.58 9.32-2.39q5.16 0 9.24 2.39t6.39 6.55q2.31 4.15 2.31 9.54v.85q0 5.62-2.31 9.9-2.31 4.27-6.39 6.69t-9.24 2.43m0-4.39q3.85 0 6.77-1.89 2.93-1.88 4.59-5.15t1.65-7.59v-.85q0-4.15-1.65-7.31-1.66-3.16-4.59-4.97t-6.77-1.81q-3.85 0-6.82 1.85-2.96 1.85-4.65 5.04-1.7 3.2-1.7 7.36v.69q0 4.31 1.7 7.59 1.69 3.27 4.65 5.15t6.82 1.89m39.73 4.39q-4.08 0-7.31-1.58-3.24-1.58-5.09-4.93t-1.84-8.81v-22.26h4.85v21.49q0 6.47 2.92 9.01 2.93 2.54 7.32 2.54 3 0 5.54-1.35t4.12-4q1.58-2.66 1.58-6.74v-20.95h4.77v36.81h-4.46v-6.08q-2.24 3.85-5.78 5.35t-6.62 1.5m27.49-.77v-36.81h4.77v6.01q1.39-3.54 4.12-4.81t6.2-1.27h3.16v4.85h-3.54q-4.55 0-7.16 2.35t-2.62 7.35v22.33zM30.08 453.39v-36.81h4.78v6.01q1.38-3.54 4.12-4.81 2.73-1.27 6.2-1.27h3.15v4.85h-3.54q-4.54 0-7.16 2.35t-2.62 7.35v22.33zm37.96.77q-5.23 0-9.31-2.43-4.08-2.42-6.39-6.69t-2.31-9.9v-.69q0-5.47 2.31-9.67t6.39-6.58 9.31-2.39q5.16 0 9.24 2.39t6.4 6.55q2.31 4.15 2.31 9.54v.85q0 5.62-2.31 9.9-2.31 4.27-6.4 6.69t-9.24 2.43m0-4.39q3.85 0 6.78-1.89 2.93-1.88 4.58-5.15 1.66-3.28 1.66-7.59v-.85q0-4.15-1.66-7.31-1.65-3.16-4.58-4.97t-6.78-1.81-6.81 1.85-4.66 5.04q-1.69 3.2-1.69 7.36v.69q0 4.31 1.69 7.59 1.7 3.27 4.66 5.15t6.81 1.89m26.03 19.02v-52.21h4.62v7.4q2.16-3.78 5.74-5.97 3.58-2.2 8.12-2.2 5.01 0 8.89 2.39t6.13 6.58q2.23 4.2 2.23 9.67v.69q0 5.62-2.2 9.93-2.19 4.32-6.08 6.7-3.89 2.39-8.97 2.39-4.39 0-7.93-2.08t-5.62-5.7v22.41zm17.86-19.02q3.78 0 6.7-1.81t4.58-5.12 1.66-7.7v-.69q0-4.24-1.66-7.43-1.65-3.2-4.58-5.01-2.92-1.81-6.7-1.81-3.77 0-6.77 1.89t-4.74 5.2-1.73 7.7q0 4.46 1.73 7.77 1.74 3.32 4.74 5.16t6.77 1.85m41.74 4.39q-5.39 0-9.55-2.43-4.16-2.42-6.47-6.69t-2.31-9.9v-.77q0-5.39 2.16-9.55 2.15-4.15 5.97-6.58t8.89-2.43q5.16 0 8.85 2.55 3.7 2.54 5.43 7.16 1.74 4.62 1.04 10.78h-27.49q.16 3.77 1.89 6.81t4.74 4.77q3 1.74 7 1.74 6.09 0 9.55-3.01l2.77 3.16q-2.08 2.08-5.35 3.24-3.27 1.15-7.12 1.15m-1.31-34.03q-5.08 0-8.28 3.31t-3.81 8.78h22.79q.08-5.55-2.89-8.82-2.96-3.27-7.81-3.27m21.48 33.26v-7.08h6.09v12.93q0 2.85-1.7 4.04-1.69 1.2-3.69 1.2h-2.16v-3.08h2.16q1 0 1.53-.62.54-.61.54-1.61v-5.78zm40.58 0q-2.46 0-4.62-1-2.15-1-3.54-3.04t-1.39-5.28V420.9h-6.85v-4.32h6.85v-9.16h4.85v9.16h10.25v4.32h-10.25v23.48q0 2.08 1.39 3.43 1.39 1.34 3.39 1.34h5.47v4.24zm15.32 0V420.9h-7.39v-4.32h12.25v36.81zm-.3-45.28v-8.31h5.46v8.31zm31.64 46.05q-5.39 0-9.54-2.43-4.16-2.42-6.47-6.69t-2.31-9.9v-.77q0-5.39 2.15-9.55 2.16-4.15 5.97-6.58t8.89-2.43q5.16 0 8.86 2.55t5.43 7.16 1.04 10.78h-27.49q.15 3.77 1.88 6.81 1.74 3.04 4.74 4.77 3 1.74 7.01 1.74 6.08 0 9.55-3.01l2.77 3.16q-2.08 2.08-5.35 3.24-3.28 1.15-7.13 1.15m-1.31-34.03q-5.08 0-8.27 3.31-3.2 3.31-3.81 8.78h22.79q.07-5.55-2.89-8.82t-7.82-3.27m51.06 34.03q-6.4 0-10.17-3t-3.77-7.86q0-3.23 1.85-5.69 1.84-2.47 5.12-3.89 3.27-1.43 7.5-1.43 3.39 0 5.97.81t4.35 2.27v-5.7q0-5-2.54-7.2-2.54-2.19-6.85-2.19-3.08 0-6.28 1.12-3.19 1.11-5.35 3.58l-2.39-3.47q2.47-2.85 6.32-4.27 3.85-1.43 7.93-1.43 6.31 0 10.16 3.39t3.85 10.24v11.71q0 6.16.23 12.24h-4.38l-.08-4q-3.31 4.77-11.47 4.77m1.15-3.77q4.7 0 7.2-2t2.5-5.09q0-3.15-2.54-5.08-2.54-1.92-7.24-1.92-4.62 0-7.31 1.92-2.7 1.93-2.7 5.08 0 3.08 2.7 5.09 2.69 2 7.39 2m41.66 3v-56.21h4.93v38.19l18.55-18.79h6.09l-14.33 14.63 15.79 22.18h-6.08l-13.17-18.63-6.85 7v11.63zm36.03 0v-36.81h4.7v6.55q1.46-2.77 3.66-4.35 2.19-1.58 4.58-2.27 2.39-.7 4.47-.7 6.23 0 10.16 3.97t3.93 12.13v21.48h-4.93v-20.87q0-6.46-2.93-9.31-2.92-2.85-7.39-2.85-3.08 0-5.66 1.38-2.58 1.39-4.12 4.08t-1.54 6.78v20.79zm57.06.77q-5.24 0-9.32-2.43-4.08-2.42-6.39-6.69t-2.31-9.9v-.69q0-5.47 2.31-9.67t6.39-6.58 9.32-2.39q5.16 0 9.24 2.39t6.39 6.55q2.31 4.15 2.31 9.54v.85q0 5.62-2.31 9.9-2.31 4.27-6.39 6.69t-9.24 2.43m0-4.39q3.85 0 6.78-1.89 2.92-1.88 4.58-5.15 1.65-3.28 1.65-7.59v-.85q0-4.15-1.65-7.31-1.66-3.16-4.58-4.97-2.93-1.81-6.78-1.81t-6.81 1.85-4.66 5.04-1.7 7.36v.69q0 4.31 1.7 7.59 1.69 3.27 4.66 5.15 2.96 1.89 6.81 1.89m37.19 3.62q-2.46 0-4.62-1-2.15-1-3.54-3.04t-1.39-5.28V420.9h-6.85v-4.32h6.85v-9.16h4.85v9.16h10.25v4.32h-10.25v23.48q0 2.08 1.39 3.43 1.39 1.34 3.39 1.34h5.47v4.24zm31.34 0V420.9h-7.39v-4.32h12.24v36.81zm-.31-45.28v-8.31h5.47v8.31zm15.86 45.28v-36.81h4.7v6.55q1.46-2.77 3.66-4.35 2.19-1.58 4.58-2.27 2.39-.7 4.47-.7 6.23 0 10.16 3.97t3.93 12.13v21.48h-4.93v-20.87q0-6.46-2.93-9.31-2.92-2.85-7.39-2.85-3.08 0-5.66 1.38-2.58 1.39-4.12 4.08t-1.54 6.78v20.79zm60.37 0V420.9h-7.39v-4.32h12.24v36.81zm-.31-45.28v-8.31h5.47v8.31zm27.65 45.28q-2.47 0-4.62-1-2.16-1-3.54-3.04-1.39-2.04-1.39-5.28V420.9h-6.85v-4.32h6.85v-9.16h4.85v9.16h10.24v4.32h-10.24v23.48q0 2.08 1.39 3.43 1.38 1.34 3.38 1.34h5.47v4.24zm40.42.77q-6.39 0-10.16-3t-3.77-7.86q0-3.23 1.84-5.69 1.85-2.47 5.12-3.89 3.28-1.43 7.51-1.43 3.39 0 5.97.81t4.35 2.27v-5.7q0-5-2.54-7.2-2.54-2.19-6.85-2.19-3.08 0-6.28 1.12-3.2 1.11-5.35 3.58l-2.39-3.47q2.47-2.85 6.32-4.27 3.84-1.43 7.93-1.43 6.31 0 10.16 3.39t3.85 10.24v11.71q0 6.16.23 12.24h-4.39l-.07-4q-3.32 4.77-11.48 4.77m1.16-3.77q4.69 0 7.2-2t2.5-5.09q0-3.15-2.54-5.08-2.54-1.92-7.24-1.92-4.62 0-7.31 1.92-2.7 1.93-2.7 5.08 0 3.08 2.7 5.09 2.69 2 7.39 2m24.79 3v-36.81h4.7v6.55q1.46-2.77 3.66-4.35 2.19-1.58 4.58-2.27 2.38-.7 4.46-.7 6.24 0 10.17 3.97t3.92 12.13v21.48h-4.92v-20.87q0-6.46-2.93-9.31t-7.39-2.85q-3.08 0-5.66 1.38-2.58 1.39-4.12 4.08t-1.54 6.78v20.79zm56.29.77q-5.08 0-8.97-2.39-3.89-2.38-6.09-6.7-2.19-4.31-2.19-9.93v-.69q0-5.47 2.23-9.67 2.24-4.19 6.12-6.58 3.89-2.39 8.9-2.39 4.46 0 7.97 2.12t5.58 5.74v-26.49h4.93v56.21h-4.47v-7.55q-2.15 3.85-5.77 6.09t-8.24 2.23m.61-4.39q3.78 0 6.78-1.85 3-1.84 4.74-5.16 1.73-3.31 1.73-7.77 0-4.39-1.73-7.7-1.74-3.31-4.74-5.2t-6.78-1.89-6.69 1.81-4.59 5.01q-1.65 3.19-1.65 7.43v.69q0 4.39 1.65 7.7 1.66 3.31 4.59 5.12t6.69 1.81m45.36 3.62v-56.21h4.69v25.95q1.47-2.77 3.66-4.35t4.58-2.27q2.39-.7 4.47-.7 6.24 0 10.16 3.97 3.93 3.97 3.93 12.13v21.48h-4.93v-20.87q0-6.46-2.92-9.31-2.93-2.85-7.4-2.85-3.08 0-5.66 1.38-2.57 1.39-4.11 4.08t-1.54 6.78v20.79zm52.59.77q-6.39 0-10.17-3-3.77-3.01-3.77-7.86 0-3.23 1.85-5.69t5.12-3.89 7.51-1.43q3.39 0 5.96.81 2.58.81 4.36 2.27v-5.7q0-5-2.55-7.2-2.54-2.19-6.85-2.19-3.08 0-6.27 1.12-3.2 1.11-5.36 3.58l-2.38-3.47q2.46-2.85 6.31-4.27 3.85-1.43 7.93-1.43 6.32 0 10.17 3.39t3.85 10.24v11.71q0 6.16.23 12.24h-4.39l-.08-4q-3.31 4.77-11.47 4.77m1.15-3.77q4.7 0 7.2-2t2.51-5.09q0-3.15-2.55-5.08-2.54-1.92-7.23-1.92-4.62 0-7.32 1.92-2.69 1.93-2.69 5.08 0 3.08 2.69 5.09 2.7 2 7.39 2m24.8 3v-36.81h4.69v6.55q1.47-2.77 3.66-4.35t4.58-2.27q2.39-.7 4.47-.7 6.24 0 10.16 3.97 3.93 3.97 3.93 12.13v21.48h-4.93v-20.87q0-6.46-2.92-9.31-2.93-2.85-7.4-2.85-3.08 0-5.66 1.38-2.57 1.39-4.11 4.08t-1.54 6.78v20.79zm37.5 15.4v-4.16h21.79q3 0 4.73-1.5t1.74-4.12q0-2.46-1.74-3.85-1.73-1.38-4.73-1.38h-11.71q-2.85 0-4.31-1.35t-1.62-3.35q-.15-2 .85-3.93l2.54-5.08q-2.85-1.69-4.5-4.51-1.66-2.81-1.66-6.27v-.69q0-3.78 1.97-6.66 1.96-2.89 5.46-4.51t8.05-1.62q1.15 0 2.16.08l3.92-8.01h4.93l-4.7 8.86q4.16 1.38 6.66 4.46t2.51 7.17v.92q0 3.85-1.97 6.81-1.96 2.97-5.46 4.66-3.51 1.7-8.05 1.7-2.85 0-5.39-.7l-2 3.85q-.39.85-.5 1.81-.12.97.5 1.66.61.69 2.15.69h10.78q4.7 0 7.59 2.39t2.89 6.85q0 4.39-2.93 7.09-2.93 2.69-7.78 2.69zm16.86-30.26q2.46 0 4.93-.89 2.46-.88 4.12-2.96 1.65-2.08 1.65-5.85 0-4.01-3-6.47t-7.7-2.46-7.7 2.46-3 6.47q0 3.69 1.69 5.81t4.2 3 4.81.89m55.59 15.63q-5.23 0-9.31-2.43-4.08-2.42-6.39-6.69t-2.31-9.9v-.69q0-5.47 2.31-9.67t6.39-6.58 9.31-2.39q5.16 0 9.24 2.39t6.39 6.55q2.31 4.15 2.31 9.54v.85q0 5.62-2.31 9.9-2.31 4.27-6.39 6.69t-9.24 2.43m0-4.39q3.85 0 6.78-1.89 2.93-1.88 4.58-5.15 1.66-3.28 1.66-7.59v-.85q0-4.15-1.66-7.31-1.65-3.16-4.58-4.97t-6.78-1.81-6.81 1.85-4.66 5.04-1.69 7.36v.69q0 4.31 1.69 7.59 1.69 3.27 4.66 5.15 2.96 1.89 6.81 1.89m26.03 3.62v-36.81h4.7v6.55q1.46-2.77 3.65-4.35 2.2-1.58 4.59-2.27 2.38-.7 4.46-.7 6.24 0 10.17 3.97t3.92 12.13v21.48h-4.93v-20.87q0-6.46-2.92-9.31-2.93-2.85-7.39-2.85-3.08 0-5.66 1.38-2.58 1.39-4.12 4.08t-1.54 6.78v20.79zm40.42 0v-7.08h5.93v7.08z"/><path fill="#30ba78" d="M24.86 514.28v-1.94h16.2v1.94zm22.77 4.05v-10.49q0-.92.6-1.52.59-.59 1.51-.59h6.01v2.02H50.5q-.27 0-.46.19-.19.18-.19.45v3.08h5.47v1.98h-5.47v4.88zm9.69 0v-8.77h2v1.28q.32-.75.95-1.05t1.4-.3h.72v2.05h-.88q-1.02 0-1.57.47t-.55 1.37v4.95zm9.09.18q-1.5 0-2.38-.73t-.88-1.88q0-1.17.96-1.93.97-.77 2.57-.77 1.2 0 2 .43v-.84q0-.87-.49-1.23t-1.24-.36q-.67 0-1.38.25-.71.26-1.21.72l-.94-1.4q.58-.65 1.58-1.02.99-.37 2.07-.37 1.62 0 2.64.84t1.02 2.46v2.82l.01 1.43.04 1.4h-1.83l-.02-.9q-.74 1.08-2.52 1.08m.57-1.53q.78 0 1.25-.32.46-.33.46-.85 0-.5-.46-.83t-1.26-.32q-.78 0-1.25.32-.48.33-.48.83 0 .52.48.85.47.32 1.26.32m6.25 1.35v-8.77h2v1.12q.54-.77 1.28-1.03.75-.27 1.36-.27 1.48 0 2.37.97.89.96.89 2.76v5.22h-2.07v-4.88q0-1.15-.49-1.66-.5-.52-1.27-.52-.85 0-1.42.57-.58.57-.58 1.65v4.84zm10.39 0v-13.14h2.07v7.94l3.31-3.57h2.55l-3.2 3.46 3.35 5.31h-2.56l-2.27-3.71-1.18 1.28v2.43zm12.11 0q-1.19 0-1.9-.65t-.71-1.78v-8.95h-1.46v-1.76h3.53v10.75q0 .28.19.47t.48.19h.91v1.73zm3.28 0v-7h-1.59v-1.77h3.67v8.77zm-.09-10.51v-2.4h2.3v2.4zm4.75 10.51v-8.77h2v1.12q.54-.77 1.28-1.03.75-.27 1.36-.27 1.48 0 2.37.97.89.96.89 2.76v5.22h-2.07v-4.88q0-1.15-.49-1.66-.5-.52-1.27-.52-.85 0-1.43.57-.57.57-.57 1.65v4.84zm14.76 0v-12.6h4.53q1.79 0 3.2.78 1.41.79 2.22 2.17.81 1.39.81 3.21v.19q0 1.37-.47 2.52-.46 1.14-1.32 1.98-.85.83-1.99 1.29-1.13.46-2.45.46zm4.35-10.53h-2.16v8.46h2.16q1.21 0 2.15-.52t1.47-1.47q.54-.94.54-2.19v-.19q0-1.23-.53-2.15t-1.47-1.43-2.16-.51m7.58 10.53v-2.43h2.38v2.43zm8.66 0v-12.6h4.5q2 0 3.2 1.02 1.21 1.01 1.21 2.94 0 1.46-.67 2.39-.68.92-1.85 1.32l2.9 4.93h-2.54l-2.63-4.66h-1.92v4.66zm4.39-10.73h-2.19v4.21h2.19q1.01 0 1.63-.54t.62-1.54q0-.98-.62-1.55t-1.63-.58m10.37 10.91q-1.28 0-2.3-.58-1.03-.57-1.62-1.59t-.6-2.33v-.16q0-1.32.6-2.32.59-1.01 1.62-1.58 1.02-.57 2.3-.57t2.29.57 1.62 1.58q.59 1 .59 2.3v.18q0 1.31-.59 2.33-.6 1.02-1.62 1.59-1.01.58-2.29.58m0-1.84q1.08 0 1.76-.74.67-.75.67-1.92v-.18q0-1.15-.67-1.88-.68-.73-1.76-.73-1.06 0-1.75.74t-.68 1.89v.16q0 1.17.68 1.92.69.74 1.75.74m10.49 1.84q-1.27 0-2.3-.58-1.03-.57-1.62-1.59t-.59-2.33v-.16q0-1.32.59-2.32.59-1.01 1.62-1.58t2.3-.57 2.3.57 1.61 1.58.59 2.3v.18q0 1.31-.59 2.33t-1.61 1.59q-1.02.58-2.3.58m0-1.84q1.08 0 1.76-.74.67-.75.67-1.92v-.18q0-1.15-.67-1.88-.68-.73-1.76-.73-1.06 0-1.74.74-.69.74-.69 1.89v.16q0 1.17.69 1.92.68.74 1.74.74m9.09 1.82q-1.04 0-1.91-.3-.88-.31-1.45-.76l.9-1.42q.52.38 1.16.62t1.3.24q.65 0 1.04-.27t.39-.7-.32-.65-.82-.35l-1.07-.28q-.57-.14-1.07-.41t-.83-.77-.32-1.3q0-1.21.92-1.98.91-.78 2.46-.78.87 0 1.64.24t1.39.65l-.92 1.38q-1.01-.68-2.13-.68-.63 0-1 .28-.38.28-.38.71 0 .39.33.62t.85.36l1.09.3q.57.16 1.09.44.51.28.84.77.33.5.33 1.31t-.45 1.42-1.24.96-1.82.35m9.38.02q-1.31 0-2.31-.57t-1.56-1.58-.56-2.37v-.18q0-1.24.52-2.25.51-1.01 1.46-1.59.94-.59 2.2-.59 1.31 0 2.25.64t1.37 1.81.23 2.76h-5.97q.1.91.74 1.52.64.6 1.74.6.65 0 1.12-.18.46-.18.84-.54l1.17 1.22q-.52.65-1.36.98-.83.32-1.88.32m-.23-7.45q-.92 0-1.44.57t-.67 1.48h3.96q-.03-.97-.55-1.51-.51-.54-1.3-.54m7.99 7.27-3.38-8.77h2.16l2.3 6.32 2.3-6.32h2.16l-3.36 8.77zm10.75.18q-1.32 0-2.32-.57t-1.55-1.58-.56-2.37v-.18q0-1.24.51-2.25t1.46-1.59 2.2-.59q1.32 0 2.25.64.94.64 1.37 1.81t.24 2.76h-5.98q.11.91.75 1.52.64.6 1.73.6.65 0 1.12-.18t.85-.54l1.17 1.22q-.53.65-1.36.98t-1.88.32m-.24-7.45q-.92 0-1.44.57t-.66 1.48h3.96q-.04-.97-.55-1.51-.52-.54-1.31-.54m8.48 7.27q-1.19 0-1.9-.65t-.71-1.78v-8.95h-1.46v-1.76h3.53v10.75q0 .28.19.47t.48.19h.91v1.73zm5.83 0q-.63 0-1.25-.22-.62-.21-1.03-.78t-.42-1.57v-4.43h-1.49v-1.77h1.49v-2.14h2.07v2.14h2.04v1.77h-2.04v4.59q0 .27.19.46t.46.19h1.39v1.76z"/><path fill="#30ba78" fill-opacity=".18" d="M0 719h1080v1H0z"/><path fill="#fff" d="M27.16 845.5v-29.2H48.6v29.2zm18.8-2.92v-23.84H29.6zm-20.1 49.92v-3.33l7.68-7.71q1.24-1.25 1.79-2.34.54-1.08.54-2.2 0-1.28-.81-2.1t-2.23-.82q-1.34 0-2.43.72t-2.08 2.13l-2.88-2.81q1.31-1.99 3.22-3.12 1.9-1.14 4.33-1.14 2.18 0 3.87.85 1.7.85 2.66 2.35t.96 3.49q0 1.82-.91 3.68-.91 1.85-2.9 3.87l-4.45 4.45h9.19v4.03zm17.76-4.83v-3.68l6.59-13.89h4.45l-6.31 13.63h5.19v-5.5h4.28v5.5h3.01v3.94h-3.01v4.83h-4.28v-4.83zm24.25-7.11q-1.63 0-2.89-.68t-1.99-1.91q-.72-1.21-.72-2.81 0-1.57.72-2.79.72-1.21 1.99-1.9 1.26-.69 2.89-.69 1.67 0 2.93.69t1.98 1.9q.72 1.22.72 2.79 0 1.6-.72 2.81-.72 1.22-1.98 1.91t-2.93.68m0-2.59q1.25 0 2.03-.78.79-.79.79-2.03 0-1.22-.79-2-.78-.79-2.03-.79-1.21 0-2 .79-.78.78-.78 2 0 1.24.78 2.03.79.78 2 .78m18.98 14.98q-2.43 0-4.53-.83-2.1-.84-3.7-2.37t-2.49-3.63-.9-4.63v-.38q0-2.53.9-4.63.89-2.09 2.49-3.63 1.6-1.53 3.7-2.37 2.1-.83 4.53-.83 2.27 0 4.17.72 1.91.72 3.41 2.1l-2.91 3.39q-1.92-1.79-4.67-1.79-2.02 0-3.6.89-1.59.9-2.48 2.48-.9 1.59-.9 3.67v.38q0 2.08.9 3.67.89 1.58 2.48 2.48t3.6.89q2.85 0 4.8-1.95l2.91 3.39q-1.54 1.44-3.49 2.21t-4.22.77"/><path fill="#fff" fill-opacity=".45" d="M25.04 922.5v-8.4h2.61q1.26 0 2.03.67.78.66.78 1.86 0 1.19-.78 1.86-.77.66-2.03.66h-1.59v3.35zm2.66-7.51h-1.64v3.3h1.64q.78 0 1.26-.45.49-.45.49-1.21 0-.75-.49-1.2-.48-.44-1.26-.44m5.59 7.63q-.99 0-1.58-.48t-.59-1.25q0-.5.3-.9.3-.39.82-.63t1.17-.23q.95 0 1.51.39v-.72q0-.7-.37-1.01-.36-.31-.99-.31-.46 0-.95.18t-.83.53l-.46-.68q.38-.45 1.01-.67.62-.23 1.28-.23 1.02 0 1.65.54t.62 1.61v1.84q0 .96.04 1.9h-.87l-.01-.58q-.54.7-1.75.7m.25-.73q.66 0 1.03-.28.36-.27.36-.72t-.36-.71-1.04-.27q-.66 0-1.05.27-.38.27-.38.71t.39.72 1.05.28m4.08.61v-5.77h.94v.92q.21-.55.64-.75.42-.2.95-.2h.49v.96h-.56q-.71 0-1.1.35t-.39 1.07v3.42zm6.13 0q-.39 0-.76-.15t-.6-.49-.23-.9v-3.39h-1.05v-.84h1.05v-1.43h.96v1.43h1.52v.84h-1.52v3.45q0 .28.18.47.19.18.46.18h.88v.83zm3.73 0q-.7 0-1.13-.4t-.43-1.08v-6.45h-1.05v-.83h2.03v7.3q0 .27.18.45t.45.18h.55v.83zm.78 2.4v-.83h1.16q.25 0 .4-.17t.24-.42l.42-.92-2.37-5.83h1.07l1.82 4.64 1.74-4.64h1.07l-2.76 6.79q-.13.34-.33.65t-.52.52-.83.21zm13.12-2.26q-.9 0-1.67-.3-.78-.31-1.37-.87-.58-.57-.91-1.35t-.33-1.72v-.2q0-.94.33-1.72t.91-1.35q.59-.56 1.37-.87.77-.3 1.67-.3.78 0 1.45.23t1.18.67l-.65.76q-.82-.67-1.98-.67-.92 0-1.66.42-.73.41-1.15 1.14-.42.72-.42 1.69v.2q0 .97.42 1.69.42.73 1.15 1.14.74.42 1.66.42 1.19 0 2.02-.71l.64.78q-.52.44-1.21.68t-1.45.24m5.52-.14q-.71 0-1.13-.4-.43-.4-.43-1.08v-6.45h-1.06v-.83h2.03v7.3q0 .27.18.45t.46.18h.55v.83zm4.06.12q-.83 0-1.48-.38t-1.02-1.05-.37-1.55v-.1q0-.86.37-1.52.37-.67 1.02-1.04t1.48-.37q.82 0 1.47.37t1.02 1.03.37 1.5v.13q0 .88-.37 1.55t-1.02 1.05-1.47.38m0-.86q.56 0 .99-.27t.66-.75.24-1.1v-.13q0-.9-.53-1.47-.52-.57-1.36-.57-.56 0-.99.27-.43.26-.68.73-.24.47-.24 1.07v.1q0 .63.24 1.1.25.48.68.75t.99.27m6.43.86q-.96 0-1.6-.57-.63-.57-.63-1.81v-3.51h.97v3.35q0 .92.41 1.29.42.36 1.04.36.65 0 1.12-.43t.48-1.31v-3.26h.96v5.77h-.87v-.86q-.36.56-.89.77-.54.21-.99.21m6.87 0q-.79 0-1.4-.37t-.96-1.05-.35-1.56v-.1q0-.87.36-1.53.35-.66.96-1.03t1.39-.37q.65 0 1.16.28t.85.77v-3.92h.97v8.76h-.88v-1.04q-.34.55-.88.85-.54.31-1.22.31m.14-.86q.56 0 .99-.27.43-.26.69-.74t.25-1.13-.25-1.13q-.26-.49-.69-.75-.43-.27-.99-.27-.81 0-1.34.57-.54.56-.54 1.5v.1q0 .64.25 1.12t.67.74.96.26m4.02 3.14v-.83h1.15q.25 0 .4-.17t.25-.42l.42-.92-2.38-5.83h1.07l1.82 4.64 1.74-4.64h1.07l-2.76 6.79q-.13.34-.33.65t-.52.52-.83.21zm-61.73 17.6-2.47-8.4h1.04l1.96 6.9 2.14-6.9h1.13l2.15 6.91 1.96-6.91h1.03l-2.46 8.4h-1.06l-2.18-7.12-2.19 7.12zm10.4 0v-4.93h-1.13v-.84h2.09v5.77zm-.06-7.04v-1.4h1.08v1.4zm2.83 7.04v-5.77h.94v.92q.35-.6.89-.82.55-.22 1.02-.22.97 0 1.58.63.6.63.6 1.86v3.4h-.97v-3.25q0-.93-.41-1.34-.42-.41-1.05-.41-.66 0-1.14.45t-.48 1.31v3.24zm9.08.12q-.8 0-1.41-.37t-.96-1.05-.35-1.56v-.1q0-.87.36-1.53.35-.66.96-1.03.62-.37 1.4-.37.64 0 1.15.28t.85.77v-3.92h.97v8.76h-.87v-1.04q-.35.55-.89.85-.54.31-1.21.31m.13-.86q.56 0 .99-.27.44-.26.69-.74t.25-1.13-.25-1.13-.69-.75-.99-.27q-.81 0-1.34.57t-.53 1.5v.1q0 .64.24 1.12.25.48.67.74t.96.26m7.35.74v-.76l3.1-3.12q.65-.66.88-1.14.22-.49.22-.94 0-.75-.43-1.17-.44-.43-1.19-.43-.57 0-1.08.32-.5.32-.88.89l-.66-.63q.45-.71 1.15-1.13.69-.41 1.51-.41.79 0 1.38.31.59.3.91.86t.33 1.29q0 .61-.3 1.27-.29.66-1.13 1.5l-2.34 2.37h4.1v.92zm10.23 0v-8.4h1.02v4.68l3.8-4.68h1.2l-2.87 3.55 3.11 4.85h-1.23l-2.56-4.01-1.45 1.79v2.22zm7.17 0v-5.77h.93v.91q.33-.59.84-.81t.99-.22q.63 0 1.1.27.48.28.72.86.25-.44.59-.68t.71-.35.69-.1q.93 0 1.52.6.59.61.59 1.86v3.43h-.95v-3.31q0-.89-.38-1.29-.39-.4-1.01-.4-.65 0-1.08.43-.43.44-.43 1.26v3.31h-.96v-3.31q0-.89-.38-1.29t-1-.4q-.65 0-1.09.43-.44.44-.44 1.26v3.31zm9.33 1.73 4.45-10.84h1l-4.47 10.84zm6.5-1.73v-8.76h.94v3.91q.35-.6.89-.82.55-.22 1.02-.22.97 0 1.57.63t.61 1.86v3.4h-.97v-3.25q0-.93-.42-1.34-.41-.41-1.05-.41-.66 0-1.14.45t-.48 1.31v3.24z"/><path fill="#fff" d="M26.34 967.5v-6.47h-2.19v-1.23h5.77v1.23h-2.21v6.47zm8.3.15q-1.09 0-1.95-.5t-1.35-1.39-.5-2.08v-.08q0-1.18.5-2.07.49-.88 1.35-1.38t1.95-.5 1.94.5q.86.5 1.35 1.38.49.89.49 2.07v.08q0 1.18-.49 2.08-.49.89-1.35 1.39-.85.5-1.94.5m0-1.32q.7 0 1.24-.32t.85-.92q.3-.59.3-1.41v-.08q0-.81-.3-1.4-.31-.6-.85-.91t-1.24-.32-1.25.32q-.55.31-.85.91-.31.59-.31 1.4v.08q0 .82.31 1.41.3.6.85.92.54.32 1.25.32m5.77 1.17v-7.7h1.34v3.76l3.01-3.76h1.56l-2.51 3.17 2.67 4.53h-1.61l-1.95-3.41-1.17 1.46v1.95zm9.51 0v-3.19l-2.73-4.51h1.46l1.95 3.21 1.95-3.21h1.46l-2.73 4.51v3.19zm8.55.15q-1.08 0-1.94-.5t-1.36-1.39-.49-2.08v-.08q0-1.18.49-2.07.5-.88 1.36-1.38t1.94-.5q1.09 0 1.95.5t1.35 1.38.49 2.07v.08q0 1.18-.49 2.08-.49.89-1.35 1.39t-1.95.5m0-1.32q.71 0 1.25-.32t.84-.92.31-1.41v-.08q0-.81-.31-1.4-.3-.6-.84-.91t-1.25-.32-1.24.32q-.55.31-.86.91-.3.59-.3 1.4v.08q0 .82.3 1.41.31.6.86.92.54.32 1.24.32M24.29 984v-1.23h1.56q.27 0 .46-.18t.19-.47v-4.59h-1.86v-1.23h3.22v5.69q0 .99-.54 1.5t-1.59.51zm5.02 0 2.82-7.7h1.66l2.81 7.7h-1.39l-.66-1.89h-3.19L30.7 984zm2.46-3.04h2.37l-1.17-3.36zM38.2 984v-7.7h2.59q1.22 0 1.96.64t.74 1.78-.74 1.77-1.96.63h-1.25V984zm2.65-6.56h-1.31V980h1.31q.6 0 .95-.36t.35-.92-.35-.92-.95-.36m3.07 6.56 2.82-7.7h1.66l2.8 7.7h-1.38l-.66-1.89h-3.19l-.66 1.89zm2.45-3.04h2.38l-1.18-3.36zm6.44 3.04v-7.7h1.22l3.55 5.31v-5.31h1.36v7.7h-1.2l-3.59-5.33V984z"/><svg xmlns="http://www.w3.org/2000/svg" id="dc-map" width="720" height="360" x="180" y="720" aria-hidden="true" class="dc-map-canvas" preserveAspectRatio="xMidYMid meet" viewBox="-185 -90 380 150"><path fill="#1a4a3a" fill-rule="evenodd" stroke="#30ba78" stroke-linecap="round" stroke-linejoin="round" stroke-width="0" d="m-59.5 80-7 .5 6-1zm-99.5-.5-4.5-1 4 .5zM-45 78l1.5 2-10.5.5 7.5-2.5zm-76-4.5h2.5-4zm-4.5 0 1.5.5-2.5-1zM-99 72l3 .5-6.5-.5h2zm30.5-1-.5 1h-6l3-1 1-2 2.5 1.5zM-180 84.5l37 .5-10.5-1.5.5-1.5-4-1 10.5-.5-9-1.5-3-2 7 .5 6.5-2.5 31-1.5 14 1.5-3.5-2.5L-76 74l7-1 2-1-1.5-2.5 1-2.5 9.5-3.5-7.5 4.5 3.5 2.5 1 3-9.5 3H-77l3.5 1.5-4.5 1 20 4 29.5-2.5-7-1-.5-1 18.5-3.5 2-2 8.5-2 34-.5 7-2 4.5 1.5 16-4 7 2H69l.5 1-1.5 3 2 .5 4-2.5 14-4 8 1.5 7-2 3 1.5 7.5-1 6.5 1.5 15-2 2.5 1.5h8l25.5 4.5-7.5 4.5 3.5 3h-5l-2 2 9.5 3 9 .5zM-68 54l3 .5-4 1-5.5-2.5 3.5 1 2.5-1zm9.5-3-2.5 1 2-.5zm129-1.5-2 .5.5-1.5zm75-8.5h3l-.5 2-2 .5-1.5-3zm27.5 0 1 .5-1 2.5-3.5 2.5-3-.5 6.5-5.5zm1.5-5 4 1.5-3.5 4-2.5-7 2 1zM167 22l-3-2 2.5 1.5zm11.37-4.66.35.29-.17.52-.62.14-.55-.13-.1-.44.4-.34.44.13zm-10.52-.87-.33.13-.34-.44.04-.27zm-.74-1.54.16.81-.27-.13-.2.06-.15-.28-.02-.76zM50 13.5 47 25h-3l.5-9 4.5-4 1 1zm93.5.5 9.5 12v5l-3 6.5-3.5 1.5-6-1-2.5-3.5-1 1 1-2.5-2 2-4.5-3.5L118 35l-3-1 .5-2.5-2-5.5.5-4 7-2.5 4.5-5.5 4 1 1-2.5 2-.5-.5-.5 4.5.5-1 3 4.5 2.5 2.5-7 1 3zm18.62-3.52.28.35-.7-.01-.38-.61.6.24zM120.5 10l-1.5-.5 2 .5Zm40.5 0-1.5-1 1 .5zm.5-.5-1-1 1 .5zm-37 .5 3-1.5-2.5 1zM118 8l1 .5-2.5.5 1-.5zm5 0-3 1 2-.5zm37 .5-2-1 1.5.5zm-2.46-1.15-.2.05-.44-.22-.4-.41.04-.17.6.42zM108.5 7l7 1.5-10-1.5 3-.5zm26.23-.79-.52.68-.1-.75.18-.36.2-.34.24.3zM156 7l-1.5-2 1.5 1.5Zm-4-1.5h-3.5l4-.5zm-25-2-1-.5h1zm3.5-.5-2.5.5 1.5-.5ZM153 4.5l-2.5-2L153 4ZM134 1l1.5 2.5 3-2 6 2.5 6 6.5-6-3-2 2-5-1 .5-3-5-1.5-1-1 1.5-1-3-1zm-9-2.5L120 0l1 1.5 2.5-1-2 1.5 1.5 3.5-2-3-1.5 3 .5-6zm3.5.5-.5 2-.5-2 1-.5zM106 6l-3.5-2-7-9.5 7 4 3.5 6zm12-8 1 1-3 5-6-1-1-2.5.5-2.5 3.5-1 3.5-4 2.5 1.5-1.5 2.5.5.5zm8.5-6.5-1 3-2-2.5-1.5 1 3.5-3 1 1zM81-6l-1-1v-3l1.5 3.5zm-142-4h-1l1-1zm185-.5-1.5 1L124-11zm-5.5 1-1.5 1 2.5-3-.5 1.5zM122-12l1 .5h-1zm3.5 0-.5 2v-2.5zm-3.97-1.07-.27.86-.43-.5-.5-.76.85.04zm-.03-5.43 1 1.5-1 2.5 2.5 2-3.5-1.5v-4.5zm-187 .5H-67l1-.5zM-77-18h-1.5 2.5zm4.5-2 4 1.5-5.5.5 1.5-.5-.5-1.5zm183 1.5-2-1h2zm-266-.5-.5-1.5 1 1.5zm-.58-1.64-.34.07-.17-.21-.11-.08-.01-.07.1-.08.35.1.27.15zm-.68-.54-.03.11-.54-.03.08-.12zm-.9-.14-.05.06-.07-.02-.35-.03-.12-.23-.04-.04.26-.14.09.07zm-1.69-.66-.12.1-.33-.18.05-.08.15-.1.24.02zM-79.5-23l5.5 2.5-4 .5-4-2.5-3 .5 4.5-1zm2-1-.5-1 .5.5zM121-23l-1-.5 2-1zm-199-3.5-1-.5h1zm1-.1-.17.72-.19-.13.02-.52-.45-.4v-.1zM134.5-34l-2 1 1.5-1.5zm-100-1.5-2 .5 1-.5zm-11 0h3zm-8-2.5-.5 1.5-2.5-1L15-38ZM9-41v2l-.5-2zm132 4-.5 2-4.5 1.5-1-1-4 .5 1 1-2 1.5-.5-2 6-2 6-6-.5 3.5zM9.56-42.15l-.33.77-.45-.2-.24-.68.2-.37.65-.38zM144-44l1.5.5-5.5 2 2-4 1 1zm-207.5-2.5h1.5l-2-.5zM-62-49l-2.5-1 2.5.5zm-61.5.5-5-2 4.5 1.5zm67.5-2-1 .5 3.5 1 .5 2.5-6.5-1 4-4zm-76.5-3.5 1.5 2-2-2zm276 3.5 1 1.5-1.5-.5.5 3.5H142l.5-8.5.5 2.5zM-7-52.5l-3 .5.5-2 3-1 .5 2zm19.5-3H11l1.5-.5ZM-153-57l-1.5-.5h2.5zm150-1.5-1 1h2L-3-56l4.5 3.5v1L-5-50l1.5-1.5-2-.5 1-1.5L-3-54l-3-3 2-1.5zM-165.5-60h-2l2-.5zm86.23-2.16-.39.53-.44-.09-.26-.3.04-.07.39-.3.41.03zM-82-62.5h-2l2-.5zm-89.5-1.5 3 .5h-3.5zm86.5-1.5 5 2h-7l1-2zm70.5-1 1 1.5-5 1.5-6-2 8.5-1zM-76-67l-1-.5h2zm-104-2 10 3-3 1.5-7-1.5m360 1-2.5.5 1.5 2-8.5 2.5h-7l-1.5 2 1 .5-1 2.5-5 4-1-6 8.5-5.5-4.5 2-3.5-1L154-60l1 1h-13l-7 4.5 5 .5 1.5 2-3.5 5.5-10.5 6.5 1.5 5-2.5.5-1-5-4.5.5.5-2-3.5 2 1 1.5h3.5L119-35l3 3.5-.5 3.5-5.5 5-5.5 2.5-2-1L106-20l3.5 6.5-.5 2-4 3-5-5L99-9l4 3.5 1 4-2.5-1.5-3-5-1.5-9-3 1-2.5-7-4.5 1.5-6.5 5.5-.5 5.5L77.5-8l-5-13.5-2 .5-4-4.5h-9l-1-1.5-5-1-1.5-2h-2l4 6 4.5-2.5.5 2.5 3 1.5-4.5 5.5-12 4.5-1-4.5L35-29.5l-1 2-1.5-2.5 5 11.5 5 7 2 1L51-12v1.5L47.5-4 39 4.5l2 10-6 5.5.5 4-3 1.5L32 29l-4 4-8.5 2L12 18l1.5-7.5L12 5 9 1l.5-4.5-3.5-1-1.5-2L-9-5l-7.5-7-.5-10 11-14 15.5-1.5 1.5.5-.5 3 8.5 3.5 2.5-2.5L34-31l2-5.5h-8.5l-1.5-3 7.5-2.5 5 1 3-1-5-3 2.5-2.5-4 1 1.5 1.5-2.5.5-1.5-1 1-.5-3-.5-3 4L29-41l-6.5.5 1.5 3-1.5 1-3-5-6.5-4-.5 1.5 6 4-1.5-.5-1 2.5-.5-2L9-44.5 3-43l-5 6.5-7-.5-.5-6 8-1 .5-2-3.5-2.5h3L-2-50l10-3.5.5-3.5 2-.5-1 2L11-54l8.5-.5 2-3 2.5.5-.5-2 5.5-1-7.5-.5V-63l4-2-3.5-.5-4 3-1 1 2 1.5-3 4-3 .5-2.5-4-5 1 .5-4L19-70l5.5-1L41-67.5 38.5-66l-5.5-.5 4 2.5v-1l7-1-.5-2.5 3 .5v1.5l7-2.5 6.5.5.5-1.5 8 2-2-3 2.5-2h3.5l-.5 1.5 1.5 3-2 2 1 .5 2.5-2-2-3.5 1.5-1.5 2 2 5-.5-1-2 24-4L114-76l-4.5 2 17.5.5 4.5 2.5 8.5-.5-1-1 1.5-.5 18.5 2 2 1.5h17.5zM49-41.5l1.5 1-1.5 3 5 .5-1.5-3 2-1-1-1-.5 1-2.5-3.5 2.5-1V-47l-6.5 2.5 2 2.5zM-95.5-69l-4.5-.5h3.5zM180-71h-1.5zm-270.5 1.5 3 2.5 2-3 3 .5 1 2L-93-62l-1.5 3 2 2 10 2 2.5 4 1.5-1.5-1.5-2 3.5-2-2-2.5 1-1-.5-2.5h4l4.5 1.5 2 3 3-2.5 2.5 4 4.5 2 2 2.5-4.5 2h-6.5l-4.5 3 6-2 .5 3 4-1 .5 1-5.5 2.5-.5-1 1.5-1-2.5.5-3.5 2 .5 1.5-5.5 2-.5 2.5-.5-2 1 3.5-6 4 1 6.5-3.5-5-10 .5-2.5 1-1.5 6 1.5 3 4.5 1 1.5-2.5 3.5-.5-2 5.5 5.5.5-.5 4.5 2.5 2 4.5.5 5-4 .5 3.5 1.5-3 2 1.5h6l5 4.5 5.5 2 1 4 6 2.5 4.5.5 4.5 2 1 2.5-4 5.5-2.5 9-6.5 3-1.5 3.5-5 6-4.5-.5 1.5 3-5.5 2v2H-65l1.5 1.5-4 3L-66 48l-3 2.5 1 2-3 1.5-4-1.5-.5-4L-74 47l-1.5-.5 3-4-2 .5 4.5-23-6-5.5-5.5-8.5 1.5-3.5-1-1.5 4-5-1-4.5-1.5-.5-1.5 2-4.5-3-2-3.5-16-5L-115-32l5.5 9-2.5-1.5-5.5-8.5-3-1.5-4-6V-48l2 1-.5-2-4.5-2-6.5-7-13-3-4.5 2 1-2.5-8 5.5-6.5 1.5 8-4.5-5 .5-4-3 5-3.5-7-.5 6.5-.5-5.5-2.5 10.5-3 20 2.5 8.5-1.5 19 3 3-1.5 4.5 1.5 4-1 1.5 1 2-1.5-2.5-1 1.5-2 3.5 2-1 .5zM-114-73l6 1.5-.5-1.5h2l5.5 3-1.5 1-11 .5-4-1.5 5-.5-7-1 4.5-2zm9.5-.5h-2.5 1.5zm28 .5-4.5-.5h3zm-10 0 4-1 1.5 2 9 .5 5 2.5-2 .5 7 1.5-2 2-4-1.5 3.5 3H-69l3 1.5-9-2.5-2.5.5-.5-1.5h4l1-2-6-2.5-11-1 .5-2 3.5-1zm-14-1h3l1 2.5-6-1h2l-1-1zm244 1-3.5-.5h3.5zM-93-73l-2.5 1-.5-1.5 5.5-.5-1.5 1zm-27.5 1.5-5.5-.5 2-1.5-1-1 9.5 1-5 1.5zm271-3.5H146l2-.5zm-244 0H-97l3-.5zm238.5-.5h-8l4.5-.5zm-243.5-1 .5 1.5-4.5-.5zm-9.5.5 2.5.5-12 .5 2-1.5 6.5 1-1.5-1h2zm165.5 5.5-6-1.5 4-3L69-76.5l-10.5 2-3 3zm-152-6.5 14.5 2h-12.5l-4-2zm-21.5-.5-7 1.5 5.5-1.5zm22 0-2.5-.5 3 .5zm-16 0h-3.5l3.5-.5zM24.5-78l-4 .5 3-.5zm-134-.5h-3l1.5-.5zm13.5.5-2.5-1 3 .5zm-4-.5-5.5-1 4.5.5zm205 0-5.5.5 2.5-1.5 3.5 1zm-86.5-1 3 .5-5.5 2-5.5-2.5L17-80zm7-1 2 .5-10-.5H23Zm25.5 0h-6 6.5zm49 1.5-9-1.5 5-1 4 1.5zm-187-.5h1l-5 1.5-5.5-2 4-1.5 4.5 1zm18.5-3.5 6.5.5-15 3 1.5 1-5 2.5-9-.5 1-1.5 3.5.5-3-1 3-1-2-1h5l-9.5-1.5 21-1zm41.5-.5 6 1-11 .5 20 .5-8 1.5h2.5l-2 1 1 2-3 .5 2 2-5.5 2 3 2-3.5-1-1 1.5h4L-40-65.5l-3.5 5.5-5-1-3-2.5L-54-67l3-3-3.5.5V-71l3 .5-4.5-1 1.5-1-4-3-10-.5-3-1 4.5-.5-6.5-.5 8-1.5-2.5-.5 5.5-2 18 .5-2.5-1 12-1z"/><g opacity=".95"><circle cx="139.69" cy="-35.69" r="6" fill="#fff" opacity=".18"/><circle cx="139.69" cy="-35.69" r="4" fill="none" stroke="#fff" stroke-width="1.2" opacity=".85"/><circle cx="139.69" cy="-35.69" r="2.2" fill="#fff"/></g></svg><path fill="#fff" d="M927.83 892.5v-1.98h8.8v-23.8q0-1.32-.84-2.18-.83-.86-2.15-.86h-5.5v-1.98h5.89q2.07 0 3.37 1.3t1.3 3.36v24.16h8.75v1.98zm34.89.44q-3.17 0-5.61-1.1t-3.81-3.08-1.36-4.53q0-2.99 1.85-5.08t4.93-2.84q-2.56-.79-4.05-2.69-1.5-1.89-1.5-4.53 0-2.33 1.19-4.09t3.34-2.75 5.02-.99q2.9 0 5.04.99 2.13.99 3.32 2.75t1.19 4.09q0 2.64-1.48 4.53-1.47 1.9-4.07 2.69 3.08.75 4.93 2.84t1.85 5.08q0 2.55-1.36 4.53-1.37 1.98-3.81 3.08t-5.61 1.1m0-17.47q3.39 0 5.43-1.69 2.05-1.7 2.05-4.47 0-2.73-2.05-4.42t-5.43-1.69-5.43 1.69-2.05 4.42q0 2.77 2.05 4.47t5.43 1.69m0 15.58q2.51 0 4.47-.9 1.95-.91 3.08-2.49 1.12-1.58 1.12-3.65t-1.12-3.59-3.06-2.35q-1.94-.84-4.49-.84-2.51 0-4.47.84-1.95.83-3.08 2.35-1.12 1.52-1.12 3.59t1.12 3.65 3.08 2.49q1.96.9 4.47.9m15.27-16.19v-3.26h2.46v3.26zm0 17.64v-3.26h2.46v3.26zm7.83 0v-1.58l11.84-12.02q1.89-1.89 2.88-3.38.99-1.5 1.36-2.78t.38-2.42q0-3.34-1.92-5.19-1.91-1.85-5.17-1.85-2.29 0-4.38 1.28t-3.49 3.52l-1.46-1.32q1.59-2.6 4.1-4.05t5.28-1.45q4.26 0 6.71 2.44 2.44 2.44 2.44 6.45 0 1.36-.4 2.84-.39 1.47-1.52 3.23t-3.32 3.96l-10.25 10.38h16.68v1.94zm34.5.44q-3.44 0-5.79-1.06-2.35-1.05-3.89-2.5l1.27-1.5q1.28 1.28 3.32 2.24t5.13.97q2.46 0 4.33-.86 1.87-.85 2.93-2.37t1.06-3.5q0-2.86-2.29-4.66t-6.34-1.81h-4.18V876h4.05q2.55 0 4.31-.9t2.69-2.42.92-3.32q0-2.86-2.11-4.54-2.11-1.67-5.46-1.67-2.73 0-4.6.88t-2.83 1.89l-1.19-1.54q1.19-1.14 3.41-2.13t5.26-.99q2.81 0 4.99.97t3.39 2.73 1.21 4.18q0 2.59-1.5 4.68-1.49 2.09-4.27 3.02 3.26.79 4.93 2.83t1.67 4.82q0 2.51-1.32 4.4t-3.69 2.97-5.41 1.08"/><path fill="#fff" fill-opacity=".45" d="M926.34 919.5v-6.47h-2.19v-1.23h5.77v1.23h-2.21v6.47zm8.4.15q-1.37 0-2.18-.7-.8-.7-.8-2.11v-5.04h1.35v4.93q0 .85.44 1.26.45.41 1.19.41t1.19-.41.45-1.26v-4.93h1.35v5.04q0 1.41-.82 2.11t-2.17.7m6.74-.15q-.56 0-.92-.36-.36-.37-.36-.93v-5.12q0-.56.36-.93.36-.36.92-.36h3.75v1.23h-3.3q-.16 0-.28.12t-.12.28v1.62H945v1.17h-3.47v1.65q0 .17.12.28t.28.12h3.3v1.23zm8.12.15q-.86 0-1.5-.31-.64-.32-1.09-.85l.84-.84q.44.45.87.66.44.2.92.2.65 0 1.02-.3t.37-.79q0-.38-.21-.61-.21-.24-.55-.38t-.76-.26-.81-.27q-.41-.14-.75-.37t-.55-.6-.21-.94q0-.72.33-1.24.34-.53.94-.82t1.41-.28q.74 0 1.34.26t.99.7l-.85.86q-.33-.34-.69-.51t-.8-.17q-.6 0-.97.29-.36.29-.36.78 0 .36.21.57t.55.34q.35.13.76.24t.83.25q.41.14.76.37.34.23.55.61.21.39.21.98 0 .74-.35 1.28-.35.55-.98.85-.64.3-1.47.3m4.95-.15v-7.7h2.77q1.09 0 1.95.48.87.48 1.36 1.32t.5 1.96v.12q0 .84-.29 1.54t-.81 1.21-1.21.79-1.5.28zm2.66-6.43h-1.32v5.17h1.32q.74 0 1.31-.32t.9-.9.33-1.34v-.12q0-.75-.32-1.31-.33-.56-.9-.87t-1.32-.31m5.09 6.43 2.82-7.7h1.66l2.8 7.7h-1.38l-.66-1.89h-3.19l-.66 1.89zm2.45-3.04h2.38l-1.18-3.36zm7.67 3.04v-3.19l-2.73-4.51h1.47l1.94 3.21 1.95-3.21h1.46l-2.72 4.51v3.19zm-48.3 20.5 2.93-7.7h1.13l2.93 7.7h-.97l-.78-2.1h-3.49l-.79 2.1zm2.05-2.9h2.88l-1.43-3.86zm7.72 3q-.58 0-1.1-.18-.51-.18-.83-.47l.4-.62q.3.26.7.41.41.16.83.16.49 0 .8-.23t.31-.59q0-.31-.21-.48t-.53-.26l-.68-.19q-.36-.09-.69-.25-.32-.15-.52-.44-.21-.28-.21-.78 0-.69.52-1.14.53-.44 1.41-.44.49 0 .94.15t.77.39l-.39.61q-.29-.2-.62-.33-.34-.12-.71-.12-.48 0-.77.23-.3.22-.3.59 0 .31.21.47.21.17.53.26l.69.2q.37.09.7.25t.54.45.2.79q0 .46-.25.81-.26.35-.71.55t-1.03.2m4.11-.1v-4.52h-1.03v-.77h1.91V940zm-.05-6.46v-1.27h.99v1.27zm4.62 6.57q-.9 0-1.45-.44t-.54-1.14q0-.47.27-.83.28-.36.76-.58.47-.21 1.07-.21.87 0 1.38.36v-.66q0-.65-.33-.93-.34-.28-.91-.28-.43 0-.87.16-.45.16-.77.49l-.42-.63q.36-.4.93-.61t1.17-.21q.94 0 1.51.49.57.5.57 1.48v1.69q0 .88.04 1.74h-.8l-.01-.53q-.49.64-1.6.64m.23-.67q.6 0 .94-.25.34-.26.34-.66t-.34-.66-.95-.25-.96.25-.35.66q0 .39.36.65.35.26.96.26m3.21 2.14 4.08-9.93h.92l-4.1 9.93zm8.04-1.58v-6.84h-2.32v-.86h5.61v.86H955V940zm5.95.11q-.76 0-1.35-.35t-.94-.96-.34-1.42v-.1q0-.78.34-1.39t.94-.95 1.35-.34 1.36.34q.59.34.93.94t.34 1.38v.12q0 .81-.34 1.42-.34.62-.93.96-.6.35-1.36.35m0-.79q.52 0 .91-.25t.61-.68.22-1.01v-.12q0-.82-.48-1.35-.49-.52-1.26-.52-.5 0-.9.24-.39.25-.62.67t-.23.98v.1q0 .57.23 1.01.23.43.62.68.4.25.9.25m4.37.68v-8.03h.89v5.26l2.44-2.52h1.1l-2.01 2.1 2.18 3.19h-1.1l-1.72-2.54-.89.93V940zm5.35 2.2v-.76h1.05q.23 0 .37-.16t.23-.38l.38-.85-2.18-5.34h.98l1.67 4.26 1.6-4.26h.98l-2.53 6.23q-.12.3-.3.59-.19.29-.48.48t-.76.19zm8.64-2.09q-.76 0-1.35-.35t-.94-.96-.34-1.42v-.1q0-.78.34-1.39t.94-.95 1.35-.34 1.36.34q.59.34.93.94t.34 1.38v.12q0 .81-.34 1.42-.34.62-.93.96-.6.35-1.36.35m0-.79q.52 0 .91-.25t.61-.68.22-1.01v-.12q0-.82-.48-1.35-.49-.52-1.26-.52-.5 0-.9.24-.4.25-.62.67-.23.43-.23.98v.1q0 .57.23 1.01.22.43.62.68t.9.25m7.21-1.84v-1.21h1.08v1.21zm9.54 2.68q-1.13 0-1.99-.5t-1.35-1.38-.49-2.04v-.17q0-1.15.5-2.04t1.38-1.39 2.02-.5q.73 0 1.35.23t1.12.68l-.64.67q-.39-.35-.85-.52-.46-.16-.97-.16-.87 0-1.53.38-.67.39-1.04 1.07-.38.69-.38 1.58v.17q0 .89.37 1.58.37.68 1.02 1.07.65.38 1.5.38.74 0 1.3-.34t.86-.92.29-1.28h-2.04v-.79h2.95q.12 1.21-.26 2.17t-1.18 1.51q-.8.54-1.94.54m5.16-.16v-7.7h1.26l2.22 4.61 2.21-4.61h1.25v7.7h-.91v-6.49l-2.19 4.65h-.73l-2.18-4.65V940zm10.82 0v-6.84h-2.32v-.86h5.61v.86h-2.35V940zm6.8-1.3v-2.19h-2.18v-.73h2.18v-2.19h.75v2.19h2.18v.73h-2.18v2.19zm5.95 1.3 2.13-2.89q-.43.17-.92.17-.74 0-1.31-.32-.56-.33-.88-.9t-.32-1.31q0-.77.34-1.34t.95-.9 1.4-.32q.83 0 1.43.32.61.32.94.9t.33 1.39q0 .51-.19 1.01-.2.49-.53.98l-2.24 3.21zm1.38-3.5q.79 0 1.28-.49t.49-1.27-.48-1.26-1.27-.48q-.77 0-1.26.49-.5.48-.5 1.25t.49 1.27 1.25.49"/></svg>