<svg xmlns="http://www.w3.org/2000/svg" width="1080" height="1080" viewBox="0 0 1080 1080"><path fill="#f5f5f0" d="M0 0h1080v1080H0z"/><path fill="#0c322c" fill-opacity=".5" d="M890.36 45v-7.26h-2.46V36.6h6.19v1.14h-2.47V45zm8.97.16q-1.45 0-2.32-.77-.87-.76-.87-2.26V36.6h1.25v5.44q0 .96.53 1.45.53.5 1.41.5.89 0 1.43-.5.53-.49.53-1.45V36.6h1.25v5.53q0 1.5-.88 2.26-.87.77-2.33.77m7.37-.16q-.6 0-.98-.38-.39-.39-.39-.99v-5.66q0-.6.39-.99.38-.38.98-.38h3.97v1.14h-3.57q-.23 0-.38.16-.15.15-.15.38v1.96h3.85v1.09h-3.85v1.99q0 .23.15.38.15.16.38.16h3.57V45zm8.71.16q-.91 0-1.59-.34-.67-.34-1.14-.89l.77-.78q.46.49.96.72t1.05.23q.78 0 1.23-.38t.44-.98q0-.44-.23-.72t-.62-.44q-.37-.17-.83-.29-.46-.13-.91-.29-.46-.15-.84-.4-.37-.24-.61-.64t-.23-1.02q0-.77.35-1.33.36-.55 1-.86.65-.31 1.52-.31.78 0 1.4.27t1.03.73l-.79.8q-.36-.37-.76-.55-.39-.19-.9-.19-.73 0-1.17.37-.45.36-.45.95 0 .42.24.67t.62.41.84.27.92.26.84.41q.38.25.62.66t.23 1.06q0 .8-.38 1.38-.37.58-1.05.9-.67.32-1.56.32m5.4-.16v-8.4h2.93q1.18 0 2.11.52.94.52 1.48 1.44t.54 2.12v.13q0 .93-.31 1.69-.31.77-.88 1.33-.56.56-1.31.86-.75.31-1.63.31zm2.84-7.22h-1.59v6.04h1.59q.85 0 1.51-.37.67-.38 1.05-1.06.39-.68.39-1.58v-.13q0-.86-.38-1.52t-1.04-1.02-1.53-.36m5.56 7.22 3.14-8.4h1.52L937 45h-1.28l-.79-2.17h-3.64L930.5 45zm2.46-3.24h2.87l-1.43-3.94zm8.52 3.24v-3.52l-3.02-4.88h1.36l2.29 3.68 2.3-3.68h1.36l-3.03 4.88V45zm4.78 0v-1.48h1.42v2.25q0 .39-.16.61t-.4.3-.48.08h-.43v-.68h.43q.15 0 .23-.1.07-.09.07-.22V45zm6.68 0v-1.14h1.78q.32 0 .54-.22.22-.21.22-.54v-5.36h-2.14V36.6h3.4v6.38q0 .99-.55 1.5-.55.52-1.58.52zm9.82.16q-1.45 0-2.32-.77-.87-.76-.87-2.26V36.6h1.25v5.44q0 .96.52 1.45.53.5 1.42.5t1.42-.5.54-1.45V36.6h1.24v5.53q0 1.5-.87 2.26-.88.77-2.33.77m7.4-.16q-.58 0-.97-.38-.39-.39-.39-.99V36.6h1.24v6.68q0 .23.16.39.16.15.38.15h3.38V45zm6.75 0v-3.52l-3.03-4.88h1.36l2.29 3.68 2.31-3.68h1.35l-3.02 4.88V45zm9.97 0 3.74-7.28h-4.46V36.6h5.83v.85L986.98 45zm7.38 0v-1.48h1.42v2.25q0 .39-.16.61t-.4.3-.48.08h-.43v-.68h.43q.15 0 .23-.1.07-.09.07-.22V45zm7.16 0v-.92l3.02-3.05q.6-.59.81-1.05t.22-.91q0-.65-.39-1.03t-1.06-.38q-.56 0-1.03.3t-.85.86l-.81-.78q.48-.73 1.18-1.15t1.54-.41q.81 0 1.41.31.61.31.94.87.34.56.34 1.29 0 .64-.31 1.31t-1.12 1.49l-2.12 2.13h3.89V45zm10.98.12q-1.45 0-2.28-1.13-.82-1.14-.82-3.18t.82-3.19 2.28-1.14q1.47 0 2.29 1.14t.82 3.19-.82 3.18-2.29 1.13m0-1.13q.89 0 1.38-.81t.48-2.37-.48-2.38q-.49-.82-1.38-.82t-1.37.82-.49 2.38q0 1.55.49 2.37.49.81 1.37.81m5.34 1.01v-.92l3.02-3.05q.6-.59.81-1.05t.22-.91q0-.65-.39-1.03t-1.06-.38q-.56 0-1.03.3t-.85.86l-.81-.78q.48-.73 1.18-1.15t1.54-.41q.81 0 1.41.31.61.31.94.87.34.56.34 1.29 0 .64-.31 1.31t-1.12 1.49l-2.12 2.13h3.89V45zm11.06.12q-.93 0-1.61-.35-.67-.36-1.05-1.01-.37-.64-.37-1.52 0-.58.23-1.15t.62-1.14l2.33-3.35h1.49l-2.27 3.08q.41-.15.88-.15.8 0 1.42.36t.97.98q.34.63.34 1.44 0 .85-.37 1.48-.38.63-1.05.98-.68.35-1.56.35m-.03-1.08q.78 0 1.27-.48.48-.48.48-1.25t-.48-1.25q-.49-.49-1.24-.49-.8 0-1.28.49-.49.48-.49 1.25 0 .78.48 1.26.48.47 1.26.47"/><path fill="#0c8c5c" d="M28.51 261v-44.54q0-6.72 3.07-11.81 3.08-5.09 8.5-7.97t12.43-2.88h11.71v18.72H53.76q-2.11 0-3.26 1.25-1.16 1.25-1.16 3.36v9.41h14.88V261zm41.28 0v-44.54q0-6.72 3.07-11.81 3.08-5.09 8.5-7.97t12.43-2.88h11.71v18.72H95.04q-2.11 0-3.26 1.25-1.16 1.25-1.16 3.36v9.41h14.88V261z"/><path fill="#0c322c" d="m42.4 358.8-16.8-56h5.44l14.08 48.24 15.2-48.24h5.84l15.2 48.32 14.08-48.32h5.44l-16.8 56h-5.44l-15.36-49.12-15.36 49.12zm77.44.8q-5.6 0-9.92-2.52t-6.72-6.96-2.4-10.28v-.8q0-5.6 2.24-9.92t6.2-6.84 9.24-2.52q5.36 0 9.2 2.64t5.64 7.44 1.08 11.2h-28.56q.16 3.92 1.96 7.08t4.92 4.96 7.28 1.8q6.32 0 9.92-3.12l2.88 3.28q-2.16 2.16-5.56 3.36t-7.4 1.2m-1.36-35.36q-5.28 0-8.6 3.44t-3.96 9.12h23.68q.08-5.76-3-9.16t-8.12-3.4m33.76 34.56q-4.4 0-7.08-2.56t-2.68-6.8V304.8h-7.36v-4.4h12.48v49.12q0 2.08 1.4 3.48t3.48 1.4h3.44v4.4zm19.2 0q-4.4 0-7.08-2.56t-2.68-6.8V304.8h-7.36v-4.4h12.48v49.12q0 2.08 1.4 3.48t3.48 1.4h3.44v4.4zm41.36.8q-5.28 0-9.32-2.48t-6.32-6.96-2.28-10.32v-.72q0-5.68 2.32-10.04t6.36-6.84 9.24-2.48q4.64 0 8.28 2.2t5.8 5.96V300.4H232v58.4h-4.64v-7.84q-2.24 4-6 6.32t-8.56 2.32m.64-4.56q3.92 0 7.04-1.92t4.92-5.36 1.8-8.08q0-4.56-1.8-8t-4.92-5.4-7.04-1.96-6.96 1.88-4.76 5.2-1.72 7.72v.72q0 4.56 1.72 8t4.76 5.32 6.96 1.88m45.68 4.56q-5.44 0-9.68-2.52t-6.64-6.96-2.4-10.28v-.72q0-5.68 2.4-10.04t6.64-6.84 9.68-2.48q5.36 0 9.6 2.48t6.64 6.8 2.4 9.92v.88q0 5.84-2.4 10.28t-6.64 6.96-9.6 2.52m0-4.56q4 0 7.04-1.96t4.76-5.36 1.72-7.88v-.88q0-4.32-1.72-7.6t-4.76-5.16-7.04-1.88-7.08 1.92-4.84 5.24-1.76 7.64v.72q0 4.48 1.76 7.88t4.84 5.36 7.08 1.96m27.04 3.76v-38.24h4.88v6.8q1.52-2.88 3.8-4.52t4.76-2.36 4.64-.72q6.48 0 10.56 4.12t4.08 12.6v22.32h-5.12v-21.68q0-6.72-3.04-9.68t-7.68-2.96q-3.2 0-5.88 1.44t-4.28 4.24-1.6 7.04v21.6zm59.6.8q-5.6 0-9.92-2.52t-6.72-6.96-2.4-10.28v-.8q0-5.6 2.24-9.92t6.2-6.84 9.24-2.52q5.36 0 9.2 2.64t5.64 7.44 1.08 11.2h-28.56q.16 3.92 1.96 7.08t4.92 4.96 7.28 1.8q6.32 0 9.92-3.12l2.88 3.28q-2.16 2.16-5.56 3.36t-7.4 1.2m-1.36-35.36q-5.28 0-8.6 3.44t-3.96 9.12h23.68q.08-5.76-3-9.16t-8.12-3.4M388 358.8v-33.76h-7.68v-4.48h12.72v38.24zm-.32-47.04v-8.64h5.68v8.64zm26.64 47.76q-4 0-7.68-1.28t-5.92-3.44l2.32-3.52q2.08 1.92 5.12 3.04t6.16 1.12q3.92 0 6.4-1.84t2.48-4.88q0-2.48-1.52-3.84t-3.96-2.08-5.12-1.4-5.08-1.76-3.92-3.08-1.52-5.6q0-4.96 3.68-8.08t9.84-3.12q3.52 0 6.6 1.08t5.4 2.84l-2.32 3.6q-2-1.6-4.48-2.48t-5.28-.88q-3.84 0-6.2 1.84t-2.36 4.8q0 2.48 1.52 3.8t3.96 2.08 5.16 1.44 5.16 1.8 3.96 3.2 1.52 5.68q0 4.8-3.88 7.88t-10.04 3.08m58.72.08q-4.72 0-8.52-2.28t-5.96-6.36v7.84h-4.72v-58.4h5.12v27.52q2.16-3.76 5.8-5.96t8.28-2.2q5.2 0 9.24 2.48t6.36 6.84 2.32 10.04v.72q0 5.84-2.28 10.32t-6.32 6.96-9.32 2.48m-.64-4.56q3.92 0 6.96-1.88t4.76-5.32 1.72-8v-.72q0-4.4-1.72-7.72t-4.76-5.2-6.96-1.88-7.04 1.96-4.92 5.4-1.8 8q0 4.64 1.8 8.08t4.92 5.36 7.04 1.92m43.36 4.56q-5.6 0-9.92-2.52t-6.72-6.96-2.4-10.28v-.8q0-5.6 2.24-9.92t6.2-6.84 9.24-2.52q5.36 0 9.2 2.64t5.64 7.44 1.08 11.2h-28.56q.16 3.92 1.96 7.08t4.92 4.96 7.28 1.8q6.32 0 9.92-3.12l2.88 3.28q-2.16 2.16-5.56 3.36t-7.4 1.2m-1.36-35.36q-5.28 0-8.6 3.44t-3.96 9.12h23.68q.08-5.76-3-9.16t-8.12-3.4m36 34.56q-2.56 0-4.8-1.04t-3.68-3.16-1.44-5.48v-24.08h-7.12v-4.48h7.12v-9.52h5.04v9.52h10.64v4.48h-10.64v24.4q0 2.16 1.44 3.56t3.52 1.4h5.68v4.4zm25.28 0q-2.56 0-4.8-1.04t-3.68-3.16-1.44-5.48v-24.08h-7.12v-4.48h7.12v-9.52h5.04v9.52h10.64v4.48H570.8v24.4q0 2.16 1.44 3.56t3.52 1.4h5.68v4.4zm28.16.8q-5.6 0-9.92-2.52t-6.72-6.96-2.4-10.28v-.8q0-5.6 2.24-9.92t6.2-6.84 9.24-2.52q5.36 0 9.2 2.64t5.64 7.44 1.08 11.2h-28.56q.16 3.92 1.96 7.08t4.92 4.96 7.28 1.8q6.32 0 9.92-3.12l2.88 3.28q-2.16 2.16-5.56 3.36t-7.4 1.2m-1.36-35.36q-5.28 0-8.6 3.44t-3.96 9.12h23.68q.08-5.76-3-9.16t-8.12-3.4m24.08 34.56v-38.24h4.96v6.24q1.44-3.68 4.28-5t6.44-1.32h3.28v5.04h-3.68q-4.72 0-7.44 2.44t-2.72 7.64v23.2zm52.32 0q-2.56 0-4.8-1.04t-3.68-3.16-1.44-5.48v-24.08h-7.12v-4.48h7.12v-9.52H674v9.52h10.64v4.48H674v24.4q0 2.16 1.44 3.56t3.52 1.4h5.68v4.4zm13.04 0v-58.4h4.88v26.96q1.52-2.88 3.8-4.52t4.76-2.36 4.64-.72q6.48 0 10.56 4.12t4.08 12.6v22.32h-5.12v-21.68q0-6.72-3.04-9.68t-7.68-2.96q-3.2 0-5.88 1.44t-4.28 4.24-1.6 7.04v21.6zm54.64.8q-6.64 0-10.56-3.12t-3.92-8.16q0-3.36 1.92-5.92t5.32-4.04 7.8-1.48q3.52 0 6.2.84t4.52 2.36v-5.92q0-5.2-2.64-7.48t-7.12-2.28q-3.2 0-6.52 1.16t-5.56 3.72l-2.48-3.6q2.56-2.96 6.56-4.44t8.24-1.48q6.56 0 10.56 3.52t4 10.64v12.16q0 6.4.24 12.72h-4.56l-.08-4.16q-3.44 4.96-11.92 4.96m1.2-3.92q4.88 0 7.48-2.08t2.6-5.28q0-3.28-2.64-5.28t-7.52-2q-4.8 0-7.6 2t-2.8 5.28q0 3.2 2.8 5.28t7.68 2.08m25.76 3.12v-38.24h4.88v6.8q1.52-2.88 3.8-4.52t4.76-2.36 4.64-.72q6.48 0 10.56 4.12t4.08 12.6v22.32h-5.12v-21.68q0-6.72-3.04-9.68t-7.68-2.96q-3.2 0-5.88 1.44t-4.28 4.24-1.6 7.04v21.6zm66.72 0-11.36-38.24H834l9.36 33.04 9.68-33.04h5.36l9.68 32.88 9.44-32.88h5.04L871.2 358.8h-5.76l-9.76-33.44L846 358.8zm65.04.8q-5.6 0-9.92-2.52t-6.72-6.96-2.4-10.28v-.8q0-5.6 2.24-9.92t6.2-6.84 9.24-2.52q5.36 0 9.2 2.64t5.64 7.44 1.08 11.2h-28.56q.16 3.92 1.96 7.08t4.92 4.96 7.28 1.8q6.32 0 9.92-3.12l2.88 3.28q-2.16 2.16-5.56 3.36t-7.4 1.2m-1.36-35.36q-5.28 0-8.6 3.44t-3.96 9.12h23.68q.08-5.76-3-9.16t-8.12-3.4m33.76 34.56q-4.4 0-7.08-2.56t-2.68-6.8V304.8h-7.36v-4.4h12.48v49.12q0 2.08 1.4 3.48t3.48 1.4h3.44v4.4zm19.2 0q-4.4 0-7.08-2.56t-2.68-6.8V304.8h-7.36v-4.4h12.48v49.12q0 2.08 1.4 3.48t3.48 1.4h3.44v4.4zm-916.4 98.31q-4 0-7.68-1.28t-5.92-3.44l2.32-3.52q2.08 1.92 5.12 3.04t6.16 1.12q3.92 0 6.4-1.84t2.48-4.88q0-2.48-1.52-3.84t-3.96-2.08-5.12-1.4-5.08-1.76-3.92-3.08-1.52-5.6q0-4.96 3.68-8.08t9.84-3.12q3.52 0 6.6 1.08t5.4 2.84l-2.32 3.6q-2-1.6-4.48-2.48t-5.28-.88q-3.84 0-6.2 1.84t-2.36 4.8q0 2.48 1.52 3.8t3.96 2.08 5.16 1.44 5.16 1.8 3.96 3.2 1.52 5.68q0 4.8-3.88 7.88t-10.04 3.08m33.44.08q-6.64 0-10.56-3.12t-3.92-8.16q0-3.36 1.92-5.92t5.32-4.04 7.8-1.48q3.52 0 6.2.84t4.52 2.36v-5.92q0-5.2-2.64-7.48t-7.12-2.28q-3.2 0-6.52 1.16t-5.56 3.72l-2.48-3.6q2.56-2.96 6.56-4.44t8.24-1.48q6.56 0 10.56 3.52t4 10.64v12.16q0 6.4.24 12.72h-4.56l-.08-4.16q-3.44 4.96-11.92 4.96m1.2-3.92q4.88 0 7.48-2.08t2.6-5.28q0-3.28-2.64-5.28t-7.52-2q-4.8 0-7.6 2t-2.8 5.28q0 3.2 2.8 5.28t7.68 2.08m28.08 3.12v-33.76h-7.68v-4.48h12.72v38.24zm-.32-47.04v-8.64h5.68v8.64zm31.76 47.84q-5.28 0-9.32-2.48t-6.32-6.96-2.28-10.32v-.72q0-5.68 2.32-10.04t6.36-6.84 9.24-2.48q4.64 0 8.28 2.2t5.8 5.96v-27.52h5.12v58.4h-4.64v-7.84q-2.24 4-6 6.32t-8.56 2.32m.64-4.56q3.92 0 7.04-1.92t4.92-5.36 1.8-8.08q0-4.56-1.8-8t-4.92-5.4-7.04-1.96-6.96 1.88-4.76 5.2-1.72 7.72v.72q0 4.56 1.72 8t4.76 5.32 6.96 1.88m28.4 3.76v-7.36h6.16v7.36z"/><path fill="#0c8c5c" d="M24.86 517.93v-1.94h16.2v1.94zm22.83 4.05v-12.6h4.61q1.89 0 2.98.87 1.08.88 1.08 2.35 0 .9-.44 1.72t-1.37 1.18q1.11.31 1.7 1.13.58.83.58 1.86 0 1.58-1.12 2.54-1.13.95-3.16.95zm4.34-10.78h-2.18v3.45h2.27q.95 0 1.48-.47.53-.48.53-1.29 0-.77-.56-1.23t-1.54-.46m.37 5.2h-2.55v3.76h2.34q1.13 0 1.74-.51t.62-1.36q0-.79-.56-1.34t-1.59-.55m10.39 5.76q-1.31 0-2.31-.57t-1.56-1.58-.56-2.37v-.18q0-1.24.52-2.25.51-1.01 1.45-1.59.95-.59 2.21-.59 1.31 0 2.25.64t1.37 1.81.23 2.76h-5.98q.11.91.75 1.52.64.6 1.74.6.65 0 1.11-.18t.85-.54l1.17 1.22q-.52.65-1.36.98t-1.88.32m-.23-7.45q-.92 0-1.44.57-.53.56-.67 1.48h3.96q-.04-.97-.55-1.51t-1.3-.54m5.88 7.27v-8.77h2v1.12q.54-.77 1.29-1.03.74-.27 1.36-.27 1.47 0 2.36.97.89.96.89 2.76v5.22h-2.07v-4.88q0-1.15-.49-1.66-.5-.52-1.27-.52-.85 0-1.42.57-.58.57-.58 1.65v4.84zm9.29 3.6v-1.73h1.06q.27 0 .46-.19t.19-.47v-8.21h-1.58v-1.77h3.67v9.58q0 1.31-.82 2.05t-2.19.74zm1.66-14.11v-2.4h2.3v2.4zm7.36 10.69q-1.5 0-2.38-.73t-.88-1.88q0-1.17.96-1.93.97-.77 2.57-.77 1.2 0 2 .43v-.84q0-.87-.49-1.23t-1.24-.36q-.67 0-1.38.25-.71.26-1.21.72l-.94-1.4q.58-.65 1.57-1.02t2.08-.37q1.62 0 2.64.84t1.02 2.46v2.82l.01 1.43.04 1.4h-1.83l-.02-.9q-.74 1.08-2.52 1.08m.57-1.53q.78 0 1.25-.32.46-.33.46-.85 0-.5-.46-.83t-1.26-.32q-.78 0-1.26.32-.47.33-.47.83 0 .52.47.85.48.32 1.27.32m6.25 1.35v-8.77h1.98v1.1q.5-.74 1.21-1.01.7-.27 1.35-.27.86 0 1.52.36.65.35 1.05 1.07.4-.58.91-.89.51-.3 1.02-.42.52-.12.93-.12 1.42 0 2.32.92t.9 2.7v5.33h-2.05v-5.02q0-1.06-.46-1.55t-1.23-.49q-.79 0-1.31.54-.51.53-.51 1.5v5.02h-2.07v-5.02q0-1.06-.46-1.55t-1.21-.49q-.79 0-1.32.54-.52.53-.52 1.5v5.02zm16.29 0v-7h-1.58v-1.77h3.67v8.77zm-.09-10.51v-2.4h2.3v2.4zm4.75 10.51v-8.77h2v1.12q.54-.77 1.29-1.03.74-.27 1.36-.27 1.47 0 2.36.97.89.96.89 2.76v5.22h-2.07v-4.88q0-1.15-.49-1.66-.5-.52-1.27-.52-.85 0-1.42.57-.58.57-.58 1.65v4.84zm14.71 0v-10.49q0-.92.59-1.52.6-.59 1.51-.59h6.02v2.02h-5.26q-.27 0-.46.19-.19.18-.19.45v3.08h5.47v1.98h-5.47v4.88zm9.68 0v-8.77h2v1.28q.32-.75.95-1.05t1.41-.3h.72v2.05h-.88q-1.03 0-1.58.47t-.55 1.37v4.95zm9.09.18q-1.49 0-2.37-.73t-.89-1.88q0-1.17.97-1.93.96-.77 2.56-.77 1.21 0 2 .43v-.84q0-.87-.49-1.23-.48-.36-1.24-.36-.66 0-1.37.25-.72.26-1.22.72l-.94-1.4q.58-.65 1.58-1.02t2.08-.37q1.62 0 2.64.84 1.01.84 1.01 2.46v2.82l.01 1.43q.01.7.05 1.4h-1.84l-.02-.9q-.74 1.08-2.52 1.08m.58-1.53q.77 0 1.24-.32.47-.33.47-.85 0-.5-.47-.83t-1.26-.32q-.77 0-1.25.32-.48.33-.48.83 0 .52.48.85t1.27.32m6.24 1.35v-8.77h2v1.12q.54-.77 1.29-1.03.75-.27 1.36-.27 1.47 0 2.36.97.9.96.9 2.76v5.22h-2.07v-4.88q0-1.15-.5-1.66-.49-.52-1.27-.52-.84 0-1.42.57t-.58 1.65v4.84zm10.39 0v-13.14h2.07v7.94l3.31-3.57h2.56l-3.21 3.46 3.35 5.31h-2.55l-2.27-3.71-1.19 1.28v2.43zm12.11 0q-1.18 0-1.9-.65-.71-.65-.71-1.78v-8.95h-1.45v-1.76h3.52v10.75q0 .28.19.47t.48.19h.92v1.73zm3.28 0v-7h-1.58v-1.77h3.67v8.77zm-.09-10.51v-2.4h2.3v2.4zm4.75 10.51v-8.77h2v1.12q.54-.77 1.29-1.03.74-.27 1.36-.27 1.47 0 2.36.97.89.96.89 2.76v5.22h-2.07v-4.88q0-1.15-.49-1.66-.5-.52-1.27-.52-.85 0-1.42.57-.58.57-.58 1.65v4.84z"/><path fill="#0c322c" fill-opacity=".12" d="M0 719h1080v1H0z"/><path fill="#0c322c" d="M27.16 845.5v-29.2H48.6v29.2zm18.8-2.92v-23.84H29.6zM32.8 892.82q-2.37 0-4.22-.77-1.86-.77-3.3-2.21l2.46-2.97q1.09 1.09 2.31 1.65 1.21.56 2.78.56 1.83 0 2.91-.85 1.09-.85 1.09-2.23 0-1.28-.96-2.01-.96-.74-2.49-.74h-3.43v-3.84h3.07q1.51 0 2.42-.8t.91-2.05q0-1.37-.94-2.16-.95-.78-2.55-.78-1.47 0-2.65.59-1.19.59-2.08 1.59l-2.53-3.01q1.38-1.41 3.3-2.21t4.12-.8q2.31 0 4.04.77 1.72.77 2.68 2.17.96 1.41.96 3.27 0 1.57-.67 2.86-.67 1.3-1.95 2.13 1.63.83 2.4 2.21t.77 3.01q0 1.98-1.11 3.47-1.1 1.49-3 2.32-1.91.83-4.34.83m12.61-.32v-4.1h5.12v-13.53q0-.67-.64-.67h-4.64v-4.1h5.89q1.66 0 2.73 1.07t1.07 2.71v14.52h5.03v4.1zm22.46-11.94q-1.63 0-2.89-.68t-1.99-1.91q-.72-1.21-.72-2.81 0-1.57.72-2.79.72-1.21 1.99-1.9 1.26-.69 2.89-.69 1.67 0 2.93.69t1.98 1.9q.72 1.22.72 2.79 0 1.6-.72 2.81-.72 1.22-1.98 1.91t-2.93.68m0-2.59q1.25 0 2.03-.78.79-.79.79-2.03 0-1.22-.79-2-.78-.79-2.03-.79-1.21 0-2 .79-.78.78-.78 2 0 1.24.78 2.03.79.78 2 .78m18.98 14.98q-2.43 0-4.53-.83-2.1-.84-3.7-2.37t-2.49-3.63-.9-4.63v-.38q0-2.53.9-4.63.89-2.09 2.49-3.63 1.6-1.53 3.7-2.37 2.1-.83 4.53-.83 2.27 0 4.17.72 1.91.72 3.41 2.1l-2.91 3.39q-1.92-1.79-4.67-1.79-2.02 0-3.6.89-1.59.9-2.48 2.48-.9 1.59-.9 3.67v.38q0 2.08.9 3.67.89 1.58 2.48 2.48t3.6.89q2.85 0 4.8-1.95l2.91 3.39q-1.54 1.44-3.49 2.21t-4.22.77"/><path fill="#0c322c" fill-opacity=".5" d="M28.86 922.64q-.9 0-1.67-.3-.78-.31-1.37-.87-.58-.57-.91-1.35t-.33-1.72v-.2q0-.94.33-1.72t.91-1.35q.59-.56 1.37-.87.77-.3 1.67-.3.78 0 1.45.23t1.18.67l-.65.76q-.82-.67-1.98-.67-.92 0-1.66.42-.73.41-1.15 1.14-.42.72-.42 1.69v.2q0 .97.42 1.69.42.73 1.15 1.14.74.42 1.66.42 1.19 0 2.02-.71l.64.78q-.52.44-1.21.68t-1.45.24m5.52-.14q-.71 0-1.13-.4-.43-.4-.43-1.08v-6.45h-1.06v-.83h2.03v7.3q0 .27.18.45t.46.18h.55v.83zm4.08.12q-.85 0-1.51-.38-.65-.38-1.02-1.05-.36-.67-.36-1.55v-.12q0-.84.33-1.49.34-.65.95-1.04.61-.38 1.42-.38.83 0 1.41.41.59.4.87 1.14t.17 1.75h-4.18q.04.5.28.92.25.41.67.66.43.24 1.01.24.45 0 .81-.11.35-.1.61-.34l.56.6q-.34.36-.86.55t-1.16.19m-.19-5.17q-.72 0-1.17.45-.45.46-.55 1.22h3.24q-.01-.8-.43-1.23-.42-.44-1.09-.44m5.55 5.17q-.98 0-1.57-.48t-.6-1.25q0-.5.3-.9.3-.39.82-.63.53-.23 1.17-.23.95 0 1.52.39v-.72q0-.7-.37-1.01t-.99-.31q-.47 0-.95.18-.49.17-.84.53l-.45-.68q.38-.45 1-.67.63-.23 1.29-.23 1.02 0 1.64.54.63.54.63 1.61v1.84q0 .96.03 1.9h-.86l-.01-.58q-.54.7-1.76.7m.26-.73q.66 0 1.02-.28.37-.27.37-.72t-.37-.71-1.04-.27q-.66 0-1.04.27t-.38.71q0 .43.39.72t1.05.28m4.08.61v-5.77h.93v.92q.22-.55.64-.75t.96-.2h.49v.96h-.56q-.71 0-1.1.35t-.39 1.07v3.42zm8.91.14q-.89 0-1.55-.31-.67-.32-1.12-.87l.64-.65q.87.96 2.07.96.84 0 1.32-.42t.49-1.09q0-.48-.23-.78-.24-.29-.62-.47-.39-.17-.85-.3-.47-.13-.93-.28t-.86-.39-.62-.63-.23-1.02q0-.74.34-1.29.35-.54.98-.84t1.47-.3q.76 0 1.36.25t.99.68l-.66.66q-.34-.36-.76-.54-.41-.18-.93-.18-.8 0-1.29.4-.48.41-.48 1.07 0 .45.23.72t.62.43.86.29.94.27.86.39.63.65.24 1.06q0 .78-.37 1.35-.37.56-1.03.87t-1.51.31m4.25-.14v-8.76h.97v5.74l2.67-2.75h1.2l-2.2 2.29 2.38 3.48h-1.2l-1.88-2.77-.97 1.02v1.75zm5.35 2.4v-.83h1.15q.26 0 .41-.17t.24-.42l.42-.92-2.37-5.83h1.06l1.83 4.64 1.74-4.64h1.07l-2.76 6.79q-.14.34-.33.65-.2.31-.52.52t-.83.21zm-39.98 17.6-2.47-8.4h1.04l1.96 6.9 2.14-6.9h1.13l2.15 6.91 1.96-6.91h1.03l-2.46 8.4h-1.06l-2.18-7.12-2.19 7.12zm10.4 0v-4.93h-1.13v-.84h2.09v5.77zm-.06-7.04v-1.4h1.08v1.4zm2.83 7.04v-5.77h.94v.92q.35-.6.89-.82.55-.22 1.02-.22.97 0 1.58.63.6.63.6 1.86v3.4h-.97v-3.25q0-.93-.41-1.34-.42-.41-1.05-.41-.66 0-1.14.45t-.48 1.31v3.24zm9.08.12q-.8 0-1.41-.37t-.96-1.05-.35-1.56v-.1q0-.87.36-1.53.35-.66.96-1.03.62-.37 1.4-.37.64 0 1.15.28t.85.77v-3.92h.97v8.76h-.87v-1.04q-.35.55-.89.85-.54.31-1.21.31m.13-.86q.56 0 .99-.27.44-.26.69-.74t.25-1.13-.25-1.13-.69-.75-.99-.27q-.81 0-1.34.57t-.53 1.5v.1q0 .64.24 1.12.25.48.67.74t.96.26m8.05.74 3.84-7.49h-4.63v-.91h5.77v.71l-3.85 7.69zm9.53 0v-8.4h1.02v4.68l3.8-4.68h1.2l-2.87 3.55 3.11 4.85h-1.23l-2.56-4.01-1.45 1.79v2.22zm7.17 0v-5.77h.93v.91q.33-.59.84-.81t.99-.22q.63 0 1.1.27.48.28.72.86.25-.44.59-.68t.71-.35.69-.1q.93 0 1.52.6.59.61.59 1.86v3.43h-.95v-3.31q0-.89-.38-1.29-.39-.4-1.01-.4-.65 0-1.08.43-.43.44-.43 1.26v3.31h-.96v-3.31q0-.89-.38-1.29t-1-.4q-.65 0-1.09.43-.44.44-.44 1.26v3.31zm9.33 1.73 4.45-10.84h1l-4.47 10.84zm6.5-1.73v-8.76h.94v3.91q.35-.6.89-.82.55-.22 1.02-.22.97 0 1.57.63t.61 1.86v3.4h-.97v-3.25q0-.93-.42-1.34-.41-.41-1.05-.41-.66 0-1.14.45t-.48 1.31v3.24z"/><path fill="#0c322c" d="M24.87 967.5v-7.7h2.81q1.16 0 1.83.53.66.54.66 1.44 0 .55-.27 1.05t-.84.72q.68.19 1.04.69.36.51.36 1.14 0 .96-.69 1.55-.69.58-1.93.58zm2.65-6.59h-1.33v2.11h1.39q.58 0 .9-.29t.33-.78-.35-.76-.94-.28m.23 3.18h-1.56v2.3h1.43q.69 0 1.07-.31.37-.32.37-.83 0-.49-.34-.82-.34-.34-.97-.34m3.77 3.41 2.82-7.7H36l2.81 7.7h-1.39l-.66-1.89h-3.19l-.66 1.89zm2.46-3.04h2.37l-1.17-3.36zm6.43 3.04v-7.7h2.75q1.22 0 1.96.62t.74 1.8q0 .89-.42 1.46-.41.56-1.12.81l1.77 3.01h-1.55l-1.61-2.85h-1.18v2.85zm2.69-6.56h-1.35v2.58h1.35q.61 0 .99-.33t.38-.95q0-.59-.38-.94-.38-.36-.99-.36m8.31 6.71q-.82 0-1.54-.28t-1.27-.82q-.54-.52-.85-1.24-.3-.71-.3-1.58v-.16q0-.87.3-1.58.31-.72.85-1.24.55-.53 1.27-.82t1.54-.28q.77 0 1.41.24t1.13.68l-.85 1.02q-.7-.62-1.69-.62-.74 0-1.32.33t-.93.91q-.33.59-.33 1.36v.16q0 .77.33 1.36.34.58.93.91.58.33 1.32.33 1.03 0 1.72-.66l.87 1.02q-.51.46-1.17.71t-1.42.25m5.56-.15q-.56 0-.92-.36-.36-.37-.36-.93v-5.12q0-.56.36-.93.36-.36.92-.36h3.75v1.23h-3.3q-.17 0-.28.12t-.12.28v1.62h3.47v1.17h-3.47v1.65q0 .17.12.28t.28.12h3.3v1.23zm7.09 0q-.56 0-.92-.36-.36-.37-.36-.93v-6.41h1.35v6.03q0 .17.11.29t.28.12h3.11v1.26zm8.23.15q-1.09 0-1.95-.5t-1.35-1.39-.49-2.08v-.08q0-1.18.49-2.07.5-.88 1.35-1.38t1.95-.5 1.95.5 1.34 1.38.49 2.07v.08q0 1.18-.49 2.08-.48.89-1.34 1.39t-1.95.5m0-1.32q.7 0 1.24-.32t.85-.92.31-1.41v-.08q0-.81-.31-1.4-.31-.6-.85-.91t-1.24-.32-1.25.32q-.54.31-.85.91-.31.59-.31 1.4v.08q0 .82.31 1.41.31.6.85.92.55.32 1.25.32m5.78 1.17v-7.7h1.22l3.55 5.31v-5.31h1.35v7.7h-1.2l-3.58-5.33v5.33zm7.72 0 2.81-7.7h1.66l2.81 7.7h-1.39l-.66-1.89h-3.19l-.66 1.89zm2.45-3.04h2.38l-1.18-3.36zm-61.31 19.69q-.86 0-1.5-.31-.64-.32-1.09-.85l.84-.84q.44.45.87.66.44.2.92.2.65 0 1.02-.3t.37-.79q0-.38-.21-.61-.21-.24-.55-.38t-.76-.26q-.41-.12-.82-.27-.4-.14-.74-.37t-.55-.6-.21-.94q0-.72.33-1.24.34-.53.94-.82t1.41-.28q.74 0 1.34.26t.99.7l-.85.86q-.33-.34-.69-.51t-.8-.17q-.6 0-.97.29-.36.29-.36.78 0 .36.21.57t.55.34q.35.13.76.24t.83.25.76.37.55.61.21.98q0 .74-.35 1.28-.35.55-.99.85-.63.3-1.46.3m4.73-.15v-7.7h2.58q1.22 0 1.96.64.75.64.75 1.78 0 1.13-.75 1.77-.74.63-1.96.63H33V984zm2.65-6.56H33V980h1.31q.59 0 .94-.36t.35-.92-.35-.92-.94-.36m3.07 6.56 2.81-7.7h1.66l2.81 7.7h-1.39l-.66-1.89h-3.19l-.66 1.89zm2.45-3.04h2.37l-1.17-3.36zm6.03 3.04v-1.23h1.28v-5.24h-1.28v-1.23h3.94v1.23h-1.3v5.24h1.3V984zm5.93 0v-7.7h1.22l3.55 5.31v-5.31h1.35v7.7h-1.2l-3.58-5.33V984z"/><svg xmlns="http://www.w3.org/2000/svg" id="dc-map" width="720" height="360" x="180" y="720" aria-hidden="true" class="dc-map-canvas" preserveAspectRatio="xMidYMid meet" viewBox="-185 -90 380 150"><path fill="#c8d8c8" fill-rule="evenodd" stroke="#6aaa8a" stroke-linecap="round" stroke-linejoin="round" stroke-width="0" d="m-59.5 80-7 .5 6-1zm-99.5-.5-4.5-1 4 .5zM-45 78l1.5 2-10.5.5 7.5-2.5zm-76-4.5h2.5-4zm-4.5 0 1.5.5-2.5-1zM-99 72l3 .5-6.5-.5h2zm30.5-1-.5 1h-6l3-1 1-2 2.5 1.5zM-180 84.5l37 .5-10.5-1.5.5-1.5-4-1 10.5-.5-9-1.5-3-2 7 .5 6.5-2.5 31-1.5 14 1.5-3.5-2.5L-76 74l7-1 2-1-1.5-2.5 1-2.5 9.5-3.5-7.5 4.5 3.5 2.5 1 3-9.5 3H-77l3.5 1.5-4.5 1 20 4 29.5-2.5-7-1-.5-1 18.5-3.5 2-2 8.5-2 34-.5 7-2 4.5 1.5 16-4 7 2H69l.5 1-1.5 3 2 .5 4-2.5 14-4 8 1.5 7-2 3 1.5 7.5-1 6.5 1.5 15-2 2.5 1.5h8l25.5 4.5-7.5 4.5 3.5 3h-5l-2 2 9.5 3 9 .5zM-68 54l3 .5-4 1-5.5-2.5 3.5 1 2.5-1zm9.5-3-2.5 1 2-.5zm129-1.5-2 .5.5-1.5zm75-8.5h3l-.5 2-2 .5-1.5-3zm27.5 0 1 .5-1 2.5-3.5 2.5-3-.5 6.5-5.5zm1.5-5 4 1.5-3.5 4-2.5-7 2 1zM167 22l-3-2 2.5 1.5zm11.37-4.66.35.29-.17.52-.62.14-.55-.13-.1-.44.4-.34.44.13zm-10.52-.87-.33.13-.34-.44.04-.27zm-.74-1.54.16.81-.27-.13-.2.06-.15-.28-.02-.76zM50 13.5 47 25h-3l.5-9 4.5-4 1 1zm93.5.5 9.5 12v5l-3 6.5-3.5 1.5-6-1-2.5-3.5-1 1 1-2.5-2 2-4.5-3.5L118 35l-3-1 .5-2.5-2-5.5.5-4 7-2.5 4.5-5.5 4 1 1-2.5 2-.5-.5-.5 4.5.5-1 3 4.5 2.5 2.5-7 1 3zm18.62-3.52.28.35-.7-.01-.38-.61.6.24zM120.5 10l-1.5-.5 2 .5Zm40.5 0-1.5-1 1 .5zm.5-.5-1-1 1 .5zm-37 .5 3-1.5-2.5 1zM118 8l1 .5-2.5.5 1-.5zm5 0-3 1 2-.5zm37 .5-2-1 1.5.5zm-2.46-1.15-.2.05-.44-.22-.4-.41.04-.17.6.42zM108.5 7l7 1.5-10-1.5 3-.5zm26.23-.79-.52.68-.1-.75.18-.36.2-.34.24.3zM156 7l-1.5-2 1.5 1.5Zm-4-1.5h-3.5l4-.5zm-25-2-1-.5h1zm3.5-.5-2.5.5 1.5-.5ZM153 4.5l-2.5-2L153 4ZM134 1l1.5 2.5 3-2 6 2.5 6 6.5-6-3-2 2-5-1 .5-3-5-1.5-1-1 1.5-1-3-1zm-9-2.5L120 0l1 1.5 2.5-1-2 1.5 1.5 3.5-2-3-1.5 3 .5-6zm3.5.5-.5 2-.5-2 1-.5zM106 6l-3.5-2-7-9.5 7 4 3.5 6zm12-8 1 1-3 5-6-1-1-2.5.5-2.5 3.5-1 3.5-4 2.5 1.5-1.5 2.5.5.5zm8.5-6.5-1 3-2-2.5-1.5 1 3.5-3 1 1zM81-6l-1-1v-3l1.5 3.5zm-142-4h-1l1-1zm185-.5-1.5 1L124-11zm-5.5 1-1.5 1 2.5-3-.5 1.5zM122-12l1 .5h-1zm3.5 0-.5 2v-2.5zm-3.97-1.07-.27.86-.43-.5-.5-.76.85.04zm-.03-5.43 1 1.5-1 2.5 2.5 2-3.5-1.5v-4.5zm-187 .5H-67l1-.5zM-77-18h-1.5 2.5zm4.5-2 4 1.5-5.5.5 1.5-.5-.5-1.5zm183 1.5-2-1h2zm-266-.5-.5-1.5 1 1.5zm-.58-1.64-.34.07-.17-.21-.11-.08-.01-.07.1-.08.35.1.27.15zm-.68-.54-.03.11-.54-.03.08-.12zm-.9-.14-.05.06-.07-.02-.35-.03-.12-.23-.04-.04.26-.14.09.07zm-1.69-.66-.12.1-.33-.18.05-.08.15-.1.24.02zM-79.5-23l5.5 2.5-4 .5-4-2.5-3 .5 4.5-1zm2-1-.5-1 .5.5zM121-23l-1-.5 2-1zm-199-3.5-1-.5h1zm1-.1-.17.72-.19-.13.02-.52-.45-.4v-.1zM134.5-34l-2 1 1.5-1.5zm-100-1.5-2 .5 1-.5zm-11 0h3zm-8-2.5-.5 1.5-2.5-1L15-38ZM9-41v2l-.5-2zm132 4-.5 2-4.5 1.5-1-1-4 .5 1 1-2 1.5-.5-2 6-2 6-6-.5 3.5zM9.56-42.15l-.33.77-.45-.2-.24-.68.2-.37.65-.38zM144-44l1.5.5-5.5 2 2-4 1 1zm-207.5-2.5h1.5l-2-.5zM-62-49l-2.5-1 2.5.5zm-61.5.5-5-2 4.5 1.5zm67.5-2-1 .5 3.5 1 .5 2.5-6.5-1 4-4zm-76.5-3.5 1.5 2-2-2zm276 3.5 1 1.5-1.5-.5.5 3.5H142l.5-8.5.5 2.5zM-7-52.5l-3 .5.5-2 3-1 .5 2zm19.5-3H11l1.5-.5ZM-153-57l-1.5-.5h2.5zm150-1.5-1 1h2L-3-56l4.5 3.5v1L-5-50l1.5-1.5-2-.5 1-1.5L-3-54l-3-3 2-1.5zM-165.5-60h-2l2-.5zm86.23-2.16-.39.53-.44-.09-.26-.3.04-.07.39-.3.41.03zM-82-62.5h-2l2-.5zm-89.5-1.5 3 .5h-3.5zm86.5-1.5 5 2h-7l1-2zm70.5-1 1 1.5-5 1.5-6-2 8.5-1zM-76-67l-1-.5h2zm-104-2 10 3-3 1.5-7-1.5m360 1-2.5.5 1.5 2-8.5 2.5h-7l-1.5 2 1 .5-1 2.5-5 4-1-6 8.5-5.5-4.5 2-3.5-1L154-60l1 1h-13l-7 4.5 5 .5 1.5 2-3.5 5.5-10.5 6.5 1.5 5-2.5.5-1-5-4.5.5.5-2-3.5 2 1 1.5h3.5L119-35l3 3.5-.5 3.5-5.5 5-5.5 2.5-2-1L106-20l3.5 6.5-.5 2-4 3-5-5L99-9l4 3.5 1 4-2.5-1.5-3-5-1.5-9-3 1-2.5-7-4.5 1.5-6.5 5.5-.5 5.5L77.5-8l-5-13.5-2 .5-4-4.5h-9l-1-1.5-5-1-1.5-2h-2l4 6 4.5-2.5.5 2.5 3 1.5-4.5 5.5-12 4.5-1-4.5L35-29.5l-1 2-1.5-2.5 5 11.5 5 7 2 1L51-12v1.5L47.5-4 39 4.5l2 10-6 5.5.5 4-3 1.5L32 29l-4 4-8.5 2L12 18l1.5-7.5L12 5 9 1l.5-4.5-3.5-1-1.5-2L-9-5l-7.5-7-.5-10 11-14 15.5-1.5 1.5.5-.5 3 8.5 3.5 2.5-2.5L34-31l2-5.5h-8.5l-1.5-3 7.5-2.5 5 1 3-1-5-3 2.5-2.5-4 1 1.5 1.5-2.5.5-1.5-1 1-.5-3-.5-3 4L29-41l-6.5.5 1.5 3-1.5 1-3-5-6.5-4-.5 1.5 6 4-1.5-.5-1 2.5-.5-2L9-44.5 3-43l-5 6.5-7-.5-.5-6 8-1 .5-2-3.5-2.5h3L-2-50l10-3.5.5-3.5 2-.5-1 2L11-54l8.5-.5 2-3 2.5.5-.5-2 5.5-1-7.5-.5V-63l4-2-3.5-.5-4 3-1 1 2 1.5-3 4-3 .5-2.5-4-5 1 .5-4L19-70l5.5-1L41-67.5 38.5-66l-5.5-.5 4 2.5v-1l7-1-.5-2.5 3 .5v1.5l7-2.5 6.5.5.5-1.5 8 2-2-3 2.5-2h3.5l-.5 1.5 1.5 3-2 2 1 .5 2.5-2-2-3.5 1.5-1.5 2 2 5-.5-1-2 24-4L114-76l-4.5 2 17.5.5 4.5 2.5 8.5-.5-1-1 1.5-.5 18.5 2 2 1.5h17.5zM49-41.5l1.5 1-1.5 3 5 .5-1.5-3 2-1-1-1-.5 1-2.5-3.5 2.5-1V-47l-6.5 2.5 2 2.5zM-95.5-69l-4.5-.5h3.5zM180-71h-1.5zm-270.5 1.5 3 2.5 2-3 3 .5 1 2L-93-62l-1.5 3 2 2 10 2 2.5 4 1.5-1.5-1.5-2 3.5-2-2-2.5 1-1-.5-2.5h4l4.5 1.5 2 3 3-2.5 2.5 4 4.5 2 2 2.5-4.5 2h-6.5l-4.5 3 6-2 .5 3 4-1 .5 1-5.5 2.5-.5-1 1.5-1-2.5.5-3.5 2 .5 1.5-5.5 2-.5 2.5-.5-2 1 3.5-6 4 1 6.5-3.5-5-10 .5-2.5 1-1.5 6 1.5 3 4.5 1 1.5-2.5 3.5-.5-2 5.5 5.5.5-.5 4.5 2.5 2 4.5.5 5-4 .5 3.5 1.5-3 2 1.5h6l5 4.5 5.5 2 1 4 6 2.5 4.5.5 4.5 2 1 2.5-4 5.5-2.5 9-6.5 3-1.5 3.5-5 6-4.5-.5 1.5 3-5.5 2v2H-65l1.5 1.5-4 3L-66 48l-3 2.5 1 2-3 1.5-4-1.5-.5-4L-74 47l-1.5-.5 3-4-2 .5 4.5-23-6-5.5-5.5-8.5 1.5-3.5-1-1.5 4-5-1-4.5-1.5-.5-1.5 2-4.5-3-2-3.5-16-5L-115-32l5.5 9-2.5-1.5-5.5-8.5-3-1.5-4-6V-48l2 1-.5-2-4.5-2-6.5-7-13-3-4.5 2 1-2.5-8 5.5-6.5 1.5 8-4.5-5 .5-4-3 5-3.5-7-.5 6.5-.5-5.5-2.5 10.5-3 20 2.5 8.5-1.5 19 3 3-1.5 4.5 1.5 4-1 1.5 1 2-1.5-2.5-1 1.5-2 3.5 2-1 .5zM-114-73l6 1.5-.5-1.5h2l5.5 3-1.5 1-11 .5-4-1.5 5-.5-7-1 4.5-2zm9.5-.5h-2.5 1.5zm28 .5-4.5-.5h3zm-10 0 4-1 1.5 2 9 .5 5 2.5-2 .5 7 1.5-2 2-4-1.5 3.5 3H-69l3 1.5-9-2.5-2.5.5-.5-1.5h4l1-2-6-2.5-11-1 .5-2 3.5-1zm-14-1h3l1 2.5-6-1h2l-1-1zm244 1-3.5-.5h3.5zM-93-73l-2.5 1-.5-1.5 5.5-.5-1.5 1zm-27.5 1.5-5.5-.5 2-1.5-1-1 9.5 1-5 1.5zm271-3.5H146l2-.5zm-244 0H-97l3-.5zm238.5-.5h-8l4.5-.5zm-243.5-1 .5 1.5-4.5-.5zm-9.5.5 2.5.5-12 .5 2-1.5 6.5 1-1.5-1h2zm165.5 5.5-6-1.5 4-3L69-76.5l-10.5 2-3 3zm-152-6.5 14.5 2h-12.5l-4-2zm-21.5-.5-7 1.5 5.5-1.5zm22 0-2.5-.5 3 .5zm-16 0h-3.5l3.5-.5zM24.5-78l-4 .5 3-.5zm-134-.5h-3l1.5-.5zm13.5.5-2.5-1 3 .5zm-4-.5-5.5-1 4.5.5zm205 0-5.5.5 2.5-1.5 3.5 1zm-86.5-1 3 .5-5.5 2-5.5-2.5L17-80zm7-1 2 .5-10-.5H23Zm25.5 0h-6 6.5zm49 1.5-9-1.5 5-1 4 1.5zm-187-.5h1l-5 1.5-5.5-2 4-1.5 4.5 1zm18.5-3.5 6.5.5-15 3 1.5 1-5 2.5-9-.5 1-1.5 3.5.5-3-1 3-1-2-1h5l-9.5-1.5 21-1zm41.5-.5 6 1-11 .5 20 .5-8 1.5h2.5l-2 1 1 2-3 .5 2 2-5.5 2 3 2-3.5-1-1 1.5h4L-40-65.5l-3.5 5.5-5-1-3-2.5L-54-67l3-3-3.5.5V-71l3 .5-4.5-1 1.5-1-4-3-10-.5-3-1 4.5-.5-6.5-.5 8-1.5-2.5-.5 5.5-2 18 .5-2.5-1 12-1z"/><g opacity=".95"><circle cx="2.16" cy="-41.39" r="6" fill="#0c322c" opacity=".18"/><circle cx="2.16" cy="-41.39" r="4" fill="none" stroke="#0c322c" stroke-width="1.2" opacity=".85"/><circle cx="2.16" cy="-41.39" r="2.2" fill="#0c322c"/></g></svg><path fill="#0c322c" d="M927.83 892.5v-1.98h8.8v-23.8q0-1.32-.84-2.18-.83-.86-2.15-.86h-5.5v-1.98h5.89q2.07 0 3.37 1.3t1.3 3.36v24.16h8.75v1.98zm25.52 0v-1.98h8.8v-23.8q0-1.32-.84-2.18-.83-.86-2.15-.86h-5.5v-1.98h5.89q2.07 0 3.37 1.3t1.3 3.36v24.16h8.75v1.98zm24.64-17.64v-3.26h2.46v3.26zm0 17.64v-3.26h2.46v3.26zm7.83 0v-1.58l11.84-12.02q1.89-1.89 2.88-3.38.99-1.5 1.36-2.78t.38-2.42q0-3.34-1.92-5.19-1.91-1.85-5.17-1.85-2.29 0-4.38 1.28t-3.49 3.52l-1.46-1.32q1.59-2.6 4.1-4.05t5.28-1.45q4.26 0 6.71 2.44 2.44 2.44 2.44 6.45 0 1.36-.4 2.84-.39 1.47-1.52 3.23t-3.32 3.96l-10.25 10.38h16.68v1.94zm34.5.44q-3.44 0-5.79-1.06-2.35-1.05-3.89-2.5l1.27-1.5q1.28 1.28 3.32 2.24t5.13.97q2.46 0 4.33-.86 1.87-.85 2.93-2.37t1.06-3.5q0-2.86-2.29-4.66t-6.34-1.81h-4.18V876h4.05q2.55 0 4.31-.9t2.69-2.42.92-3.32q0-2.86-2.11-4.54-2.11-1.67-5.46-1.67-2.73 0-4.6.88t-2.83 1.89l-1.19-1.54q1.19-1.14 3.41-2.13t5.26-.99q2.81 0 4.99.97t3.39 2.73 1.21 4.18q0 2.59-1.5 4.68-1.49 2.09-4.27 3.02 3.26.79 4.93 2.83t1.67 4.82q0 2.51-1.32 4.4t-3.69 2.97-5.41 1.08"/><path fill="#0c322c" fill-opacity=".5" d="M926.34 919.5v-6.47h-2.19v-1.23h5.77v1.23h-2.21v6.47zm8.4.15q-1.37 0-2.18-.7-.8-.7-.8-2.11v-5.04h1.35v4.93q0 .85.44 1.26.45.41 1.19.41t1.19-.41.45-1.26v-4.93h1.35v5.04q0 1.41-.82 2.11t-2.17.7m6.74-.15q-.56 0-.92-.36-.36-.37-.36-.93v-5.12q0-.56.36-.93.36-.36.92-.36h3.75v1.23h-3.3q-.16 0-.28.12t-.12.28v1.62H945v1.17h-3.47v1.65q0 .17.12.28t.28.12h3.3v1.23zm8.12.15q-.86 0-1.5-.31-.64-.32-1.09-.85l.84-.84q.44.45.87.66.44.2.92.2.65 0 1.02-.3t.37-.79q0-.38-.21-.61-.21-.24-.55-.38t-.76-.26-.81-.27q-.41-.14-.75-.37t-.55-.6-.21-.94q0-.72.33-1.24.34-.53.94-.82t1.41-.28q.74 0 1.34.26t.99.7l-.85.86q-.33-.34-.69-.51t-.8-.17q-.6 0-.97.29-.36.29-.36.78 0 .36.21.57t.55.34q.35.13.76.24t.83.25q.41.14.76.37.34.23.55.61.21.39.21.98 0 .74-.35 1.28-.35.55-.98.85-.64.3-1.47.3m4.95-.15v-7.7h2.77q1.09 0 1.95.48.87.48 1.36 1.32t.5 1.96v.12q0 .84-.29 1.54t-.81 1.21-1.21.79-1.5.28zm2.66-6.43h-1.32v5.17h1.32q.74 0 1.31-.32t.9-.9.33-1.34v-.12q0-.75-.32-1.31-.33-.56-.9-.87t-1.32-.31m5.09 6.43 2.82-7.7h1.66l2.8 7.7h-1.38l-.66-1.89h-3.19l-.66 1.89zm2.45-3.04h2.38l-1.18-3.36zm7.67 3.04v-3.19l-2.73-4.51h1.47l1.94 3.21 1.95-3.21h1.46l-2.72 4.51v3.19zM926.11 940q-.53 0-.87-.35-.35-.34-.35-.87v-5.26q0-.53.35-.87.34-.35.87-.35h3.56v.86h-3.26q-.25 0-.42.17t-.17.41v1.99h3.61v.83h-3.61v2q0 .24.17.41t.42.17h3.26v.86zm7.22.11q-.88 0-1.47-.52-.58-.52-.58-1.66v-3.22h.89v3.07q0 .85.38 1.18.38.34.95.34.6 0 1.03-.4t.44-1.2v-2.99h.88V940h-.79v-.79q-.33.52-.82.71t-.91.19m4.61-.11v-5.29h.86v.85q.19-.51.58-.69t.88-.18h.45v.88h-.52q-.65 0-1 .32-.36.32-.36.98V940zm6.27.11q-.76 0-1.36-.35-.59-.34-.93-.96t-.34-1.42v-.1q0-.78.34-1.39t.93-.95 1.36-.34 1.35.34.93.94.35 1.38v.12q0 .81-.35 1.42-.34.62-.93.96-.59.35-1.35.35m0-.79q.51 0 .9-.25.4-.25.62-.68t.22-1.01v-.12q0-.82-.49-1.35-.48-.52-1.25-.52-.51 0-.9.24-.4.25-.63.67t-.22.98v.1q0 .57.22 1.01.23.43.63.68.39.25.9.25m4.36 2.88v-7.49h.84v.91q.31-.47.8-.75.49-.27 1.09-.27.72 0 1.28.34t.88.95.33 1.39v.1q0 .82-.32 1.43-.32.62-.88.96t-1.29.34q-.58 0-1.05-.26t-.78-.71v3.06zm2.6-2.88q.5 0 .89-.24t.61-.67.23-1.03v-.1q0-.85-.49-1.37t-1.24-.52q-.51 0-.9.24-.4.25-.63.69-.23.45-.23 1.04t.23 1.03.63.69.9.24m6.65.79q-.78 0-1.38-.35t-.93-.96-.34-1.42v-.11q0-.77.31-1.37t.87-.95 1.3-.35q.76 0 1.3.37.54.38.79 1.05.26.68.15 1.6h-3.82q.03.47.25.85.23.38.62.6.39.23.92.23.42 0 .74-.1t.57-.32l.5.55q-.31.33-.78.5-.48.18-1.07.18m-.17-4.74q-.66 0-1.07.42t-.5 1.11h2.97q-.02-.73-.4-1.13t-1-.4m2.84 6.21 4.08-9.93h.91l-4.09 9.93zm6.29-1.58v-7.7h1.25l2.23 4.61 2.21-4.61h1.25v7.7h-.91v-6.49l-2.19 4.65h-.74l-2.18-4.65V940zm10.67.11q-.9 0-1.45-.44t-.54-1.14q0-.47.27-.83.28-.36.76-.58t1.07-.21q.87 0 1.39.36v-.66q0-.65-.34-.93t-.91-.28q-.43 0-.87.16-.45.16-.77.49l-.41-.63q.35-.4.92-.61t1.18-.21q.93 0 1.5.49.58.5.58 1.48v1.69q0 .88.03 1.74h-.79l-.01-.53q-.5.64-1.61.64m.23-.67q.61 0 .94-.25.34-.26.34-.66t-.34-.66-.95-.25-.96.25-.35.66q0 .39.36.65t.96.26m6.31.67q-.72 0-1.28-.34t-.88-.96-.32-1.43v-.1q0-.79.32-1.39.33-.61.89-.95t1.27-.34q.6 0 1.07.26.46.26.77.71v-3.6h.89V940h-.8v-.96q-.32.51-.81.79t-1.12.28m.12-.79q.52 0 .92-.24.39-.25.62-.69.24-.44.24-1.03t-.24-1.04-.62-.69q-.4-.24-.92-.24-.73 0-1.22.52t-.49 1.37v.1q0 .59.22 1.03.23.44.62.67.38.24.87.24m4.7.68v-5.29h.86v.85q.2-.51.59-.69t.87-.18h.45v.88h-.51q-.65 0-1.01.32t-.36.98V940zm4.68 0v-4.52h-1.04v-.77h1.92V940zm-.06-6.46v-1.27h.99v1.27zm5.17 6.57q-.72 0-1.28-.34t-.88-.96-.32-1.43v-.1q0-.79.32-1.39.33-.61.89-.95t1.27-.34q.6 0 1.06.26t.78.71v-3.6h.89V940h-.8v-.96q-.32.51-.82.79t-1.11.28m.12-.79q.52 0 .92-.24.39-.25.62-.69t.23-1.03-.23-1.04-.62-.69-.92-.24q-.73 0-1.22.52t-.49 1.37v.1q0 .59.22 1.03.23.44.61.67.39.24.88.24m7.54-1.84v-1.21h1.08v1.21zm9.55 2.68q-1.14 0-2-.5t-1.35-1.38-.49-2.04v-.17q0-1.15.5-2.04t1.38-1.39 2.02-.5q.73 0 1.35.23t1.12.68l-.64.67q-.39-.35-.85-.52-.46-.16-.97-.16-.87 0-1.53.38-.67.39-1.04 1.07-.38.69-.38 1.58v.17q0 .89.37 1.58.37.68 1.02 1.07.65.38 1.5.38.75 0 1.3-.34.56-.34.86-.92.3-.57.29-1.28h-2.03v-.79h2.94q.12 1.21-.26 2.17t-1.18 1.51q-.8.54-1.93.54m5.15-.16v-7.7h1.26l2.22 4.61 2.21-4.61h1.26v7.7h-.92v-6.49l-2.19 4.65h-.73l-2.18-4.65V940zm10.82 0v-6.84h-2.32v-.86h5.61v.86h-2.35V940zm6.8-1.3v-2.19h-2.18v-.73h2.18v-2.19h.76v2.19h2.17v.73h-2.17v2.19zm4.86 1.3v-.69l2.84-2.86q.59-.61.8-1.05t.21-.87q0-.68-.4-1.07t-1.09-.39q-.52 0-.99.29t-.81.82l-.61-.58q.42-.65 1.06-1.03t1.39-.38q.72 0 1.26.28t.84.79.29 1.19q0 .56-.27 1.16-.26.61-1.03 1.38l-2.15 2.16h3.76v.85z"/></svg>