<svg xmlns="http://www.w3.org/2000/svg" width="1080" height="1080" viewBox="0 0 1080 1080"><path fill="#0c322c" d="M0 0h1080v1080H0z"/><path fill="#fff" fill-opacity=".45" d="M890.36 45v-7.26h-2.46V36.6h6.19v1.14h-2.47V45zm8.97.16q-1.45 0-2.32-.77-.87-.76-.87-2.26V36.6h1.25v5.44q0 .96.53 1.45.53.5 1.41.5.89 0 1.43-.5.53-.49.53-1.45V36.6h1.25v5.53q0 1.5-.88 2.26-.87.77-2.33.77m7.37-.16q-.6 0-.98-.38-.39-.39-.39-.99v-5.66q0-.6.39-.99.38-.38.98-.38h3.97v1.14h-3.57q-.23 0-.38.16-.15.15-.15.38v1.96h3.85v1.09h-3.85v1.99q0 .23.15.38.15.16.38.16h3.57V45zm8.71.16q-.91 0-1.59-.34-.67-.34-1.14-.89l.77-.78q.46.49.96.72t1.05.23q.78 0 1.23-.38t.44-.98q0-.44-.23-.72t-.62-.44q-.37-.17-.83-.29-.46-.13-.91-.29-.46-.15-.84-.4-.37-.24-.61-.64t-.23-1.02q0-.77.35-1.33.36-.55 1-.86.65-.31 1.52-.31.78 0 1.4.27t1.03.73l-.79.8q-.36-.37-.76-.55-.39-.19-.9-.19-.73 0-1.17.37-.45.36-.45.95 0 .42.24.67t.62.41.84.27.92.26.84.41q.38.25.62.66t.23 1.06q0 .8-.38 1.38-.37.58-1.05.9-.67.32-1.56.32m5.4-.16v-8.4h2.93q1.18 0 2.11.52.94.52 1.48 1.44t.54 2.12v.13q0 .93-.31 1.69-.31.77-.88 1.33-.56.56-1.31.86-.75.31-1.63.31zm2.84-7.22h-1.59v6.04h1.59q.85 0 1.51-.37.67-.38 1.05-1.06.39-.68.39-1.58v-.13q0-.86-.38-1.52t-1.04-1.02-1.53-.36m5.56 7.22 3.14-8.4h1.52L937 45h-1.28l-.79-2.17h-3.64L930.5 45zm2.46-3.24h2.87l-1.43-3.94zm8.52 3.24v-3.52l-3.02-4.88h1.36l2.29 3.68 2.3-3.68h1.36l-3.03 4.88V45zm4.78 0v-1.48h1.42v2.25q0 .39-.16.61t-.4.3-.48.08h-.43v-.68h.43q.15 0 .23-.1.07-.09.07-.22V45zm6.68 0v-1.14h1.78q.32 0 .54-.22.22-.21.22-.54v-5.36h-2.14V36.6h3.4v6.38q0 .99-.55 1.5-.55.52-1.58.52zm9.82.16q-1.45 0-2.32-.77-.87-.76-.87-2.26V36.6h1.25v5.44q0 .96.52 1.45.53.5 1.42.5t1.42-.5.54-1.45V36.6h1.24v5.53q0 1.5-.87 2.26-.88.77-2.33.77m7.4-.16q-.58 0-.97-.38-.39-.39-.39-.99V36.6h1.24v6.68q0 .23.16.39.16.15.38.15h3.38V45zm6.75 0v-3.52l-3.03-4.88h1.36l2.29 3.68 2.31-3.68h1.35l-3.02 4.88V45zm9.97 0 3.74-7.28h-4.46V36.6h5.83v.85L986.98 45zm7.38 0v-1.48h1.42v2.25q0 .39-.16.61t-.4.3-.48.08h-.43v-.68h.43q.15 0 .23-.1.07-.09.07-.22V45zm7.16 0v-.92l3.02-3.05q.6-.59.81-1.05t.22-.91q0-.65-.39-1.03t-1.06-.38q-.56 0-1.03.3t-.85.86l-.81-.78q.48-.73 1.18-1.15t1.54-.41q.81 0 1.41.31.61.31.94.87.34.56.34 1.29 0 .64-.31 1.31t-1.12 1.49l-2.12 2.13h3.89V45zm10.98.12q-1.45 0-2.28-1.13-.82-1.14-.82-3.18t.82-3.19 2.28-1.14q1.47 0 2.29 1.14t.82 3.19-.82 3.18-2.29 1.13m0-1.13q.89 0 1.38-.81t.48-2.37-.48-2.38q-.49-.82-1.38-.82t-1.37.82-.49 2.38q0 1.55.49 2.37.49.81 1.37.81m5.34 1.01v-.92l3.02-3.05q.6-.59.81-1.05t.22-.91q0-.65-.39-1.03t-1.06-.38q-.56 0-1.03.3t-.85.86l-.81-.78q.48-.73 1.18-1.15t1.54-.41q.81 0 1.41.31.61.31.94.87.34.56.34 1.29 0 .64-.31 1.31t-1.12 1.49l-2.12 2.13h3.89V45zm11.06.12q-.93 0-1.61-.35-.67-.36-1.05-1.01-.37-.64-.37-1.52 0-.58.23-1.15t.62-1.14l2.33-3.35h1.49l-2.27 3.08q.41-.15.88-.15.8 0 1.42.36t.97.98q.34.63.34 1.44 0 .85-.37 1.48-.38.63-1.05.98-.68.35-1.56.35m-.03-1.08q.78 0 1.27-.48.48-.48.48-1.25t-.48-1.25q-.49-.49-1.24-.49-.8 0-1.28.49-.49.48-.49 1.25 0 .78.48 1.26.48.47 1.26.47"/><path fill="#30ba78" d="M28.51 221.34V176.8q0-6.72 3.07-11.81 3.08-5.09 8.5-7.97t12.43-2.88h11.71v18.72H53.76q-2.11 0-3.26 1.25-1.16 1.25-1.16 3.36v9.41h14.88v34.46zm41.28 0V176.8q0-6.72 3.07-11.81 3.08-5.09 8.5-7.97t12.43-2.88h11.71v18.72H95.04q-2.11 0-3.26 1.25-1.16 1.25-1.16 3.36v9.41h14.88v34.46z"/><path fill="#fff" d="M43.35 314.97q-5.32 0-9.41-1.92-4.09-1.91-6.79-5.21l3.15-3.22q5.25 6.07 13.28 6.07 5.7 0 9-2.89 3.3-2.88 3.3-7.61 0-3.22-1.5-5.17t-3.98-3.12-5.4-1.98q-2.92-.83-5.89-1.73t-5.44-2.32T29.7 282q-1.5-2.43-1.5-6.33 0-4.5 2.14-7.84t5.96-5.18q3.83-1.83 9-1.83 4.5 0 8.06 1.46t5.96 4.01l-3.22 3.3q-2.18-2.25-4.84-3.37t-5.96-1.13q-5.55 0-8.85 2.81t-3.3 7.32q0 3.07 1.5 4.87t4.01 2.89q2.52 1.09 5.48 1.84t5.92 1.65 5.44 2.4 4.01 4.05 1.54 6.6q0 4.8-2.25 8.25t-6.22 5.32-9.23 1.88m38.48-.08q-3.98 0-7.13-1.54-3.15-1.53-4.95-4.8t-1.8-8.58v-21.68h4.73v20.93q0 6.3 2.85 8.77 2.85 2.48 7.12 2.48 2.93 0 5.4-1.32 2.47-1.31 4.01-3.9t1.54-6.56v-20.4h4.65v35.85H93.9v-5.92q-2.18 3.75-5.63 5.21t-6.44 1.46m42.52 0q-5.32 0-9.45-2.32-4.12-2.33-6.45-6.42-2.32-4.08-2.32-9.48v-.98q0-5.32 2.36-9.41t6.45-6.41 9.41-2.33q3.9 0 7.05 1.39t5.4 3.86l-3 3q-3.67-3.82-9.52-3.82-3.9 0-6.94 1.72-3.04 1.73-4.76 4.84-1.73 3.11-1.73 7.16v.98q0 4.12 1.76 7.23 1.77 3.12 4.8 4.84 3.04 1.73 6.94 1.73 5.85 0 9.6-3.83l2.93 3q-2.25 2.48-5.44 3.86-3.19 1.39-7.09 1.39m34.05 0q-5.33 0-9.45-2.32-4.13-2.33-6.45-6.42t-2.32-9.48v-.98q0-5.32 2.36-9.41t6.45-6.41 9.41-2.33q3.9 0 7.05 1.39t5.4 3.86l-3 3q-3.68-3.82-9.53-3.82-3.9 0-6.93 1.72-3.04 1.73-4.76 4.84-1.73 3.11-1.73 7.16v.98q0 4.12 1.76 7.23 1.77 3.12 4.8 4.84 3.04 1.73 6.94 1.73 5.85 0 9.6-3.83l2.92 3q-2.25 2.48-5.43 3.86-3.19 1.39-7.09 1.39m33.68 0q-5.26 0-9.3-2.36t-6.3-6.53-2.25-9.63v-.75q0-5.25 2.09-9.3 2.1-4.05 5.82-6.42 3.71-2.36 8.66-2.36 5.03 0 8.63 2.48t5.28 6.97 1.02 10.5h-26.78q.15 3.68 1.84 6.64t4.61 4.65 6.83 1.69q5.92 0 9.3-2.93l2.7 3.08q-2.03 2.02-5.22 3.15t-6.93 1.12m-1.28-33.15q-4.95 0-8.06 3.23t-3.71 8.55h22.2q.07-5.4-2.82-8.59t-7.61-3.19m32.1 33.08q-3.75 0-7.2-1.2t-5.55-3.23l2.18-3.3q1.95 1.8 4.8 2.85t5.77 1.05q3.68 0 6-1.72 2.33-1.73 2.33-4.58 0-2.32-1.43-3.6-1.42-1.27-3.71-1.95t-4.8-1.31-4.76-1.65-3.68-2.89q-1.42-1.87-1.42-5.25 0-4.65 3.45-7.57 3.45-2.93 9.22-2.93 3.3 0 6.19 1.01 2.89 1.02 5.06 2.67l-2.17 3.37q-1.88-1.5-4.2-2.32-2.33-.83-4.95-.83-3.6 0-5.82 1.73-2.21 1.72-2.21 4.5 0 2.32 1.43 3.56 1.42 1.24 3.71 1.95t4.84 1.35 4.83 1.69 3.72 3q1.42 1.95 1.42 5.32 0 4.5-3.64 7.39-3.63 2.89-9.41 2.89m30.08 0q-3.75 0-7.2-1.2t-5.55-3.23l2.17-3.3q1.95 1.8 4.8 2.85t5.78 1.05q3.67 0 6-1.72 2.32-1.73 2.32-4.58 0-2.32-1.42-3.6-1.43-1.27-3.72-1.95-2.28-.67-4.8-1.31-2.51-.64-4.76-1.65t-3.67-2.89q-1.43-1.87-1.43-5.25 0-4.65 3.45-7.57 3.45-2.93 9.23-2.93 3.3 0 6.18 1.01 2.89 1.02 5.07 2.67l-2.18 3.37q-1.87-1.5-4.2-2.32-2.32-.83-4.95-.83-3.6 0-5.81 1.73-2.21 1.72-2.21 4.5 0 2.32 1.42 3.56 1.43 1.24 3.71 1.95t4.84 1.35 4.84 1.69q2.29 1.05 3.71 3t1.42 5.32q0 4.5-3.63 7.39-3.64 2.89-9.41 2.89m38.92-.68v-31.65h-7.2v-4.2h11.93v35.85zm-.3-44.1v-8.1h5.33v8.1zm24.98 44.78q-3.75 0-7.2-1.2t-5.55-3.23l2.17-3.3q1.95 1.8 4.8 2.85t5.78 1.05q3.67 0 6-1.72 2.32-1.73 2.32-4.58 0-2.32-1.43-3.6-1.42-1.27-3.71-1.95t-4.8-1.31-4.76-1.65-3.68-2.89-1.42-5.25q0-4.65 3.45-7.57 3.45-2.93 9.22-2.93 3.31 0 6.19 1.01 2.89 1.02 5.06 2.67l-2.17 3.37q-1.88-1.5-4.2-2.32-2.32-.83-4.95-.83-3.6 0-5.81 1.73-2.21 1.72-2.21 4.5 0 2.32 1.42 3.56t3.71 1.95 4.84 1.35 4.84 1.69 3.71 3 1.43 5.32q0 4.5-3.64 7.39t-9.41 2.89m37.05-.68v-35.85h4.57v6.38q1.43-2.7 3.56-4.24 2.14-1.54 4.47-2.21 2.32-.68 4.35-.68 6.07 0 9.9 3.86 3.82 3.87 3.82 11.82v20.92h-4.8v-20.32q0-6.3-2.85-9.08-2.85-2.77-7.2-2.77-3 0-5.51 1.35t-4.01 3.97-1.5 6.6v20.25zm55.57.75q-5.1 0-9.07-2.36T393.9 306q-2.25-4.16-2.25-9.63v-.68q0-5.32 2.25-9.41t6.23-6.41 9.07-2.33q5.03 0 9 2.33 3.98 2.32 6.23 6.37t2.25 9.3v.83q0 5.47-2.25 9.63t-6.23 6.53-9 2.36m0-4.27q3.75 0 6.6-1.84t4.46-5.03q1.62-3.18 1.62-7.38v-.83q0-4.05-1.62-7.12-1.61-3.08-4.46-4.84t-6.6-1.76-6.64 1.8-4.53 4.91-1.65 7.16v.68q0 4.2 1.65 7.38 1.65 3.19 4.53 5.03t6.64 1.84m36.23 3.52q-2.4 0-4.5-.97-2.1-.98-3.45-2.97-1.35-1.98-1.35-5.13v-22.58h-6.68v-4.2h6.68v-8.92h4.72v8.92h9.98v4.2h-9.98v22.88q0 2.02 1.35 3.33 1.35 1.32 3.3 1.32h5.33v4.12zm30.3 0v-31.65h-6.83v-4.2h6.83v-9.82q0-4.13 2.62-6.6 2.63-2.48 6.75-2.48h6.9v4.13h-6.9q-2.02 0-3.34 1.31t-1.31 3.26v10.2h23.03v35.85h-4.81v-31.65h-18.22v31.65zm22.8-44.1v-8.1h5.1v8.1zm15.3 44.1v-35.85h4.57v6.38q1.43-2.7 3.56-4.24 2.14-1.54 4.46-2.21 2.33-.68 4.36-.68 6.07 0 9.89 3.86 3.83 3.87 3.83 11.82v20.92h-4.8v-20.32q0-6.3-2.85-9.08-2.85-2.77-7.2-2.77-3 0-5.51 1.35t-4.01 3.97-1.5 6.6v20.25zm51.22.75q-6.23 0-9.9-2.92-3.67-2.93-3.67-7.65 0-3.15 1.8-5.55 1.79-2.4 4.98-3.79t7.31-1.39q3.31 0 5.82.79t4.24 2.21v-5.55q0-4.87-2.48-7.01t-6.67-2.14q-3 0-6.12 1.09-3.11 1.09-5.21 3.49l-2.33-3.38q2.41-2.77 6.16-4.16t7.72-1.39q6.15 0 9.9 3.3t3.75 9.98v11.4q0 6 .22 11.92h-4.27l-.07-3.9q-3.23 4.65-11.18 4.65m1.12-3.67q4.58 0 7.02-1.95t2.44-4.95q0-3.08-2.48-4.95t-7.05-1.88q-4.5 0-7.12 1.88t-2.63 4.95q0 3 2.63 4.95t7.19 1.95m33.23 2.92q-4.12 0-6.64-2.4t-2.51-6.37v-41.85h-6.9v-4.13h11.7v46.05q0 1.95 1.31 3.26 1.31 1.32 3.27 1.32h3.22v4.12zm7.58 0v-6.9h5.92v12.6q0 2.78-1.65 3.94t-3.6 1.16h-2.1v-3h2.1q.98 0 1.5-.6t.52-1.57v-5.63zm30.59 0v-31.65h-6.82v-4.2h6.82v-9.82q0-4.13 2.63-6.6 2.62-2.48 6.75-2.48h5.93v4.13h-5.93q-2.03 0-3.34 1.31t-1.31 3.26v10.2h10.58v4.2H642.3v31.65zm30.38.75q-6.22 0-9.9-2.92-3.67-2.93-3.67-7.65 0-3.15 1.79-5.55 1.81-2.4 4.99-3.79t7.32-1.39q3.3 0 5.81.79t4.24 2.21v-5.55q0-4.87-2.48-7.01t-6.67-2.14q-3 0-6.12 1.09-3.11 1.09-5.21 3.49l-2.32-3.38q2.4-2.77 6.15-4.16t7.72-1.39q6.15 0 9.9 3.3t3.75 9.98v11.4q0 6 .23 11.92h-4.28l-.07-3.9q-3.23 4.65-11.18 4.65m1.12-3.67q4.58 0 7.02-1.95t2.44-4.95q0-3.08-2.48-4.95t-7.05-1.88q-4.5 0-7.12 1.88t-2.63 4.95q0 3 2.63 4.95t7.19 1.95m26.33 2.92v-31.65h-7.2v-4.2h11.93v35.85zm-.3-44.1v-8.1h5.33v8.1zm24.6 44.1q-4.12 0-6.64-2.4t-2.51-6.37v-41.85h-6.9v-4.13h11.7v46.05q0 1.95 1.31 3.26 1.32 1.32 3.27 1.32h3.22v4.12zm21.75.75q-3.97 0-7.12-1.54-3.15-1.53-4.95-4.8t-1.8-8.58v-21.68h4.72v20.93q0 6.3 2.85 8.77 2.85 2.48 7.13 2.48 2.92 0 5.4-1.32 2.47-1.31 4.01-3.9t1.54-6.56v-20.4h4.65v35.85h-4.35v-5.92q-2.18 3.75-5.63 5.21t-6.45 1.46m26.78-.75v-35.85h4.65v5.85q1.35-3.45 4.01-4.69 2.66-1.23 6.04-1.23H786v4.72h-3.45q-4.42 0-6.97 2.29t-2.55 7.16v21.75zm37.27.75q-5.25 0-9.3-2.36t-6.3-6.53-2.25-9.63v-.75q0-5.25 2.1-9.3t5.81-6.42q3.72-2.36 8.67-2.36 5.02 0 8.62 2.48t5.29 6.97 1.01 10.5h-26.77q.15 3.68 1.83 6.64t4.62 4.65q2.92 1.69 6.82 1.69 5.93 0 9.3-2.93l2.7 3.08q-2.02 2.02-5.21 3.15t-6.94 1.12m-1.27-33.15q-4.95 0-8.07 3.23-3.11 3.22-3.71 8.55h22.2q.08-5.4-2.81-8.59t-7.61-3.19m40.87 32.4v-31.65h-7.2v-4.2h11.93v35.85zm-.3-44.1v-8.1h5.33v8.1zm24.98 44.78q-3.75 0-7.2-1.2t-5.55-3.23l2.17-3.3q1.95 1.8 4.8 2.85t5.78 1.05q3.67 0 6-1.72 2.32-1.73 2.32-4.58 0-2.32-1.42-3.6-1.43-1.27-3.72-1.95-2.28-.67-4.8-1.31-2.51-.64-4.76-1.65t-3.67-2.89-1.43-5.25q0-4.65 3.45-7.57 3.45-2.93 9.23-2.93 3.3 0 6.18 1.01 2.89 1.02 5.07 2.67l-2.18 3.37q-1.87-1.5-4.2-2.32-2.32-.83-4.95-.83-3.6 0-5.81 1.73-2.21 1.72-2.21 4.5 0 2.32 1.42 3.56 1.43 1.24 3.71 1.95t4.84 1.35 4.84 1.69 3.71 3 1.43 5.32q0 4.5-3.64 7.39t-9.41 2.89m37.05-.68v-35.85h4.57v6.38q1.43-2.7 3.56-4.24 2.14-1.54 4.47-2.21 2.32-.68 4.35-.68 6.07 0 9.9 3.86 3.82 3.87 3.82 11.82v20.92h-4.8v-20.32q0-6.3-2.85-9.08-2.85-2.77-7.2-2.77-3 0-5.51 1.35t-4.01 3.97-1.5 6.6v20.25zm55.57.75q-5.1 0-9.07-2.36T947.1 306q-2.25-4.16-2.25-9.63v-.68q0-5.32 2.25-9.41t6.23-6.41 9.07-2.33q5.03 0 9 2.33 3.98 2.32 6.23 6.37t2.25 9.3v.83q0 5.47-2.25 9.63t-6.23 6.53-9 2.36m0-4.27q3.75 0 6.6-1.84t4.46-5.03 1.62-7.38v-.83q0-4.05-1.62-7.12-1.61-3.08-4.46-4.84t-6.6-1.76-6.64 1.8-4.54 4.91-1.64 7.16v.68q0 4.2 1.64 7.38 1.66 3.19 4.54 5.03 2.89 1.84 6.64 1.84m36.23 3.52q-2.41 0-4.5-.97-2.1-.98-3.45-2.97-1.35-1.98-1.35-5.13v-22.58h-6.68v-4.2h6.68v-8.92h4.72v8.92h9.98v4.2h-9.98v22.88q0 2.02 1.35 3.33 1.35 1.32 3.3 1.32h5.33v4.12zM32.4 405.64v-31.65h-6.82v-4.2h6.82v-9.82q0-4.13 2.63-6.6 2.62-2.48 6.74-2.48h5.93v4.13h-5.93q-2.02 0-3.33 1.31t-1.31 3.26v10.2H47.7v4.2H37.13v31.65zm30.38.75q-6.23 0-9.9-2.92-3.68-2.93-3.68-7.65 0-3.15 1.8-5.55t4.99-3.79 7.31-1.39q3.3 0 5.81.79 2.52.79 4.24 2.21v-5.55q0-4.87-2.47-7.01t-6.68-2.14q-3 0-6.11 1.09t-5.21 3.49l-2.33-3.38q2.4-2.77 6.15-4.16t7.72-1.39q6.16 0 9.91 3.3t3.75 9.98v11.4q0 6 .22 11.92h-4.27l-.08-3.9q-3.22 4.65-11.17 4.65m1.12-3.67q4.58 0 7.01-1.95 2.44-1.95 2.44-4.95 0-3.08-2.47-4.95t-7.06-1.88q-4.5 0-7.12 1.88t-2.62 4.95q0 3 2.62 4.95t7.2 1.95m35.18 2.92q-2.4 0-4.5-.97-2.11-.98-3.45-2.97-1.36-1.98-1.36-5.13v-22.58H83.1v-4.2h6.67v-8.92h4.73v8.92h9.97v4.2H94.5v22.88q0 2.02 1.35 3.33 1.35 1.32 3.3 1.32h5.32v4.12zm22.95.75q-6.23 0-9.9-2.92-3.68-2.93-3.68-7.65 0-3.15 1.8-5.55t4.99-3.79 7.31-1.39q3.3 0 5.81.79 2.52.79 4.24 2.21v-5.55q0-4.87-2.47-7.01t-6.68-2.14q-3 0-6.11 1.09t-5.21 3.49l-2.33-3.38q2.4-2.77 6.15-4.16t7.73-1.39q6.15 0 9.9 3.3t3.75 9.98v11.4q0 6 .22 11.92h-4.27l-.08-3.9q-3.22 4.65-11.17 4.65m1.12-3.67q4.58 0 7.01-1.95 2.44-1.95 2.44-4.95 0-3.08-2.47-4.95t-7.05-1.88q-4.5 0-7.13 1.88t-2.62 4.95q0 3 2.62 4.95t7.2 1.95m33.23 2.92q-4.13 0-6.64-2.4t-2.51-6.37v-41.85h-6.91v-4.13h11.71v46.05q0 1.95 1.31 3.26 1.31 1.32 3.26 1.32h3.22v4.12zm8.02-28.95v-6.9h5.77v6.9zm0 28.95v-6.9h5.77v6.9zm33.3 0v-31.65h-7.2v-4.2h11.93v35.85zm-.3-44.1v-8.1h5.33v8.1zm26.93 44.1q-2.4 0-4.5-.97-2.1-.98-3.45-2.97-1.35-1.98-1.35-5.13v-22.58h-6.68v-4.2h6.68v-8.92h4.72v8.92h9.98v4.2h-9.98v22.88q0 2.02 1.35 3.33 1.35 1.32 3.3 1.32h5.33v4.12zm30.52 0v-31.65h-7.2v-4.2h11.93v35.85zm-.3-44.1v-8.1h5.33v8.1zm24.97 44.78q-3.75 0-7.19-1.2t-5.56-3.23l2.18-3.3q1.95 1.8 4.8 2.85t5.77 1.05q3.68 0 6-1.72 2.33-1.73 2.33-4.58 0-2.32-1.42-3.6-1.43-1.27-3.72-1.95-2.28-.67-4.8-1.31-2.51-.64-4.76-1.65t-3.67-2.89-1.43-5.25q0-4.65 3.45-7.57 3.45-2.93 9.22-2.93 3.3 0 6.19 1.01 2.89 1.02 5.06 2.67l-2.17 3.37q-1.87-1.5-4.2-2.32-2.33-.83-4.95-.83-3.6 0-5.81 1.73-2.21 1.72-2.21 4.5 0 2.32 1.42 3.56 1.43 1.24 3.71 1.95t4.84 1.35 4.84 1.69 3.71 3 1.43 5.32q0 4.5-3.64 7.39t-9.42 2.89m47.63-.68q-2.4 0-4.5-.97-2.1-.98-3.45-2.97-1.35-1.98-1.35-5.13v-22.58h-6.67v-4.2h6.67v-8.92h4.73v8.92h9.97v4.2h-9.97v22.88q0 2.02 1.35 3.33 1.34 1.32 3.29 1.32h5.33v4.12zm12.23 0v-54.75h4.57v25.28q1.43-2.7 3.56-4.24 2.14-1.54 4.47-2.21 2.32-.68 4.35-.68 6.07 0 9.9 3.86 3.82 3.87 3.82 11.82v20.92h-4.8v-20.32q0-6.3-2.85-9.08-2.85-2.77-7.2-2.77-3 0-5.51 1.35t-4.01 3.97-1.5 6.6v20.25zm55.87.75q-5.25 0-9.3-2.36t-6.3-6.53-2.25-9.63v-.75q0-5.25 2.1-9.3t5.81-6.42q3.72-2.36 8.67-2.36 5.02 0 8.62 2.48t5.29 6.97 1.01 10.5h-26.77q.15 3.68 1.83 6.64t4.62 4.65q2.92 1.69 6.82 1.69 5.93 0 9.3-2.93l2.7 3.08q-2.02 2.02-5.21 3.15t-6.94 1.12m-1.27-33.15q-4.95 0-8.07 3.23-3.11 3.22-3.71 8.55h22.2q.08-5.4-2.81-8.59t-7.61-3.19m54.75 33.15q-5.33 0-9.45-2.32-4.13-2.33-6.45-6.42t-2.33-9.48v-.98q0-5.32 2.36-9.41 2.37-4.09 6.45-6.41t9.42-2.33q3.9 0 7.05 1.39t5.4 3.86l-3 3q-3.68-3.82-9.53-3.82-3.9 0-6.94 1.72-3.03 1.73-4.76 4.84-1.72 3.11-1.72 7.16v.98q0 4.12 1.76 7.23t4.8 4.84 6.94 1.73q5.85 0 9.6-3.83l2.92 3q-2.25 2.48-5.44 3.86-3.18 1.39-7.08 1.39m33.37 0q-5.1 0-9.07-2.36t-6.23-6.53-2.25-9.63v-.68q0-5.32 2.25-9.41t6.23-6.41 9.07-2.33q5.03 0 9 2.33 3.98 2.32 6.23 6.37t2.25 9.3v.83q0 5.47-2.25 9.63t-6.23 6.53-9 2.36m0-4.27q3.75 0 6.6-1.84t4.46-5.03 1.62-7.38v-.83q0-4.05-1.62-7.12-1.61-3.08-4.46-4.84t-6.6-1.76-6.64 1.8-4.53 4.91-1.65 7.16v.68q0 4.2 1.65 7.38 1.65 3.19 4.53 5.03t6.64 1.84m38.7 4.27q-3.97 0-7.13-1.54-3.14-1.53-4.94-4.8t-1.81-8.58v-21.68h4.73v20.93q0 6.3 2.85 8.77 2.85 2.48 7.13 2.48 2.92 0 5.4-1.32 2.47-1.31 4.01-3.9t1.54-6.56v-20.4h4.65v35.85h-4.35v-5.92q-2.18 3.75-5.63 5.21t-6.45 1.46m26.77-.75v-35.85h4.66v5.85q1.34-3.45 4.01-4.69 2.66-1.23 6.04-1.23h3.07v4.72h-3.45q-4.42 0-6.98 2.29-2.54 2.29-2.54 7.16v21.75zm32.71.75q-6.23 0-9.9-2.92-3.68-2.93-3.68-7.65 0-3.15 1.8-5.55t4.99-3.79q3.18-1.39 7.31-1.39 3.3 0 5.81.79 2.52.79 4.24 2.21v-5.55q0-4.87-2.47-7.01t-6.68-2.14q-3 0-6.11 1.09t-5.21 3.49l-2.33-3.38q2.4-2.77 6.15-4.16t7.72-1.39q6.15 0 9.9 3.3t3.75 9.98v11.4q0 6 .23 11.92h-4.27l-.08-3.9q-3.22 4.65-11.17 4.65m1.12-3.67q4.58 0 7.01-1.95 2.44-1.95 2.44-4.95 0-3.08-2.47-4.95t-7.06-1.88q-4.5 0-7.12 1.88t-2.63 4.95q0 3 2.63 4.95t7.2 1.95m20.17 17.92v-4.05h21.23q2.93 0 4.61-1.46t1.69-4.01q0-2.4-1.69-3.75-1.68-1.35-4.61-1.35h-11.4q-2.77 0-4.2-1.32-1.42-1.31-1.57-3.26t.82-3.82l2.47-4.95q-2.77-1.65-4.38-4.39-1.62-2.74-1.62-6.11v-.68q0-3.67 1.92-6.49 1.91-2.81 5.32-4.38 3.41-1.58 7.84-1.58 1.13 0 2.1.08l3.82-7.8h4.81l-4.58 8.62q4.05 1.35 6.49 4.35 2.43 3 2.43 6.98v.9q0 3.75-1.91 6.63-1.91 2.89-5.32 4.54t-7.84 1.65q-2.77 0-5.25-.67l-1.95 3.75q-.38.82-.49 1.76t.49 1.61 2.1.68h10.5q4.58 0 7.39 2.32 2.81 2.33 2.81 6.68 0 4.27-2.85 6.9-2.85 2.62-7.58 2.62zM618 391.17q2.4 0 4.8-.87 2.4-.86 4.01-2.88t1.61-5.7q0-3.9-2.92-6.3-2.93-2.4-7.5-2.4t-7.5 2.4-2.93 6.3q0 3.6 1.66 5.66 1.65 2.06 4.08 2.92 2.44.87 4.69.87m38.03 15.22q-5.25 0-9.3-2.36t-6.31-6.53-2.25-9.63v-.75q0-5.25 2.11-9.3t5.81-6.42 8.66-2.36q5.03 0 8.63 2.48t5.28 6.97q1.69 4.5 1.01 10.5H642.9q.15 3.68 1.84 6.64 1.68 2.96 4.61 4.65t6.82 1.69q5.93 0 9.31-2.93l2.69 3.08q-2.02 2.02-5.21 3.15t-6.93 1.12m-1.28-33.15q-4.95 0-8.06 3.23t-3.71 8.55h22.19q.08-5.4-2.81-8.59-2.88-3.19-7.61-3.19m49.58 32.4q-2.4 0-4.5-.97-2.1-.98-3.45-2.97-1.35-1.98-1.35-5.13v-22.58h-6.68v-4.2h6.68v-8.92h4.72v8.92h9.98v4.2h-9.98v22.88q0 2.02 1.35 3.33 1.35 1.32 3.3 1.32h5.33v4.12zm26.1.75q-5.1 0-9.08-2.36-3.97-2.36-6.22-6.53t-2.25-9.63v-.68q0-5.32 2.25-9.41t6.22-6.41 9.08-2.33q5.02 0 9 2.33 3.97 2.32 6.22 6.37t2.25 9.3v.83q0 5.47-2.25 9.63t-6.22 6.53-9 2.36m0-4.27q3.75 0 6.6-1.84t4.46-5.03 1.61-7.38v-.83q0-4.05-1.61-7.12t-4.46-4.84-6.6-1.76-6.64 1.8-4.54 4.91-1.65 7.16v.68q0 4.2 1.65 7.38 1.65 3.19 4.54 5.03t6.64 1.84m57.52 4.27q-5.32 0-9.45-2.32-4.12-2.33-6.45-6.42-2.32-4.08-2.32-9.48v-.98q0-5.32 2.36-9.41t6.45-6.41 9.41-2.33q3.9 0 7.05 1.39t5.4 3.86l-3 3q-3.67-3.82-9.52-3.82-3.9 0-6.94 1.72-3.04 1.73-4.76 4.84-1.73 3.11-1.73 7.16v.98q0 4.12 1.76 7.23 1.77 3.12 4.8 4.84 3.04 1.73 6.94 1.73 5.85 0 9.6-3.83l2.93 3q-2.25 2.48-5.44 3.86-3.19 1.39-7.09 1.39m33.38 0q-5.1 0-9.08-2.36-3.97-2.36-6.22-6.53t-2.25-9.63v-.68q0-5.32 2.25-9.41t6.22-6.41 9.08-2.33q5.02 0 9 2.33 3.97 2.32 6.22 6.37t2.25 9.3v.83q0 5.47-2.25 9.63t-6.22 6.53-9 2.36m0-4.27q3.75 0 6.6-1.84t4.46-5.03 1.61-7.38v-.83q0-4.05-1.61-7.12t-4.46-4.84-6.6-1.76-6.64 1.8-4.54 4.91-1.65 7.16v.68q0 4.2 1.65 7.38 1.65 3.19 4.54 5.03t6.64 1.84m25.35 3.52v-35.85h4.57v6.38q1.43-2.7 3.56-4.24 2.14-1.54 4.47-2.21 2.32-.68 4.35-.68 6.07 0 9.9 3.86 3.82 3.87 3.82 11.82v20.92h-4.8v-20.32q0-6.3-2.85-9.08-2.85-2.77-7.2-2.77-3 0-5.51 1.35t-4.01 3.97-1.5 6.6v20.25zm51.37 0q-2.4 0-4.5-.97-2.1-.98-3.45-2.97-1.35-1.98-1.35-5.13v-22.58h-6.67v-4.2h6.67v-8.92h4.73v8.92h9.97v4.2h-9.97v22.88q0 2.02 1.35 3.33 1.35 1.32 3.3 1.32h5.32v4.12zm14.93 0v-31.65h-7.2v-4.2h11.92v35.85zm-.3-44.1v-8.1H918v8.1zm15.45 44.1v-35.85h4.57v6.38q1.43-2.7 3.56-4.24 2.14-1.54 4.47-2.21 2.32-.68 4.35-.68 6.07 0 9.89 3.86 3.83 3.87 3.83 11.82v20.92H954v-20.32q0-6.3-2.85-9.08-2.85-2.77-7.2-2.77-3 0-5.51 1.35t-4.01 3.97-1.5 6.6v20.25zm53.84.75q-3.97 0-7.12-1.54-3.15-1.53-4.95-4.8t-1.8-8.58v-21.68h4.73v20.93q0 6.3 2.85 8.77 2.85 2.48 7.12 2.48 2.92 0 5.4-1.32 2.48-1.31 4.01-3.9 1.54-2.58 1.54-6.56v-20.4h4.65v35.85h-4.35v-5.92q-2.17 3.75-5.62 5.21t-6.46 1.46m42.16 0q-5.25 0-9.3-2.36t-6.3-6.53-2.25-9.63v-.75q0-5.25 2.1-9.3 2.09-4.05 5.81-6.42 3.71-2.36 8.66-2.36 5.03 0 8.62 2.48 3.61 2.47 5.29 6.97t1.02 10.5H1011q.15 3.68 1.84 6.64t4.61 4.65 6.83 1.69q5.92 0 9.3-2.93l2.7 3.08q-2.03 2.02-5.22 3.15t-6.93 1.12m-1.28-33.15q-4.95 0-8.06 3.23t-3.71 8.55h22.2q.07-5.4-2.82-8.59t-7.61-3.19M41.4 497.14q-2.4 0-4.5-.97-2.1-.98-3.45-2.97-1.35-1.98-1.35-5.13v-22.58h-6.67v-4.2h6.67v-8.92h4.73v8.92h9.97v4.2h-9.97v22.88q0 2.02 1.35 3.33 1.34 1.32 3.29 1.32h5.33v4.12zm12.23 0v-54.75h4.57v25.28q1.43-2.7 3.56-4.24 2.14-1.54 4.47-2.21 2.32-.68 4.35-.68 6.07 0 9.9 3.86 3.82 3.87 3.82 11.82v20.92h-4.8v-20.32q0-6.3-2.85-9.08-2.85-2.77-7.2-2.77-3 0-5.51 1.35-2.52 1.35-4.02 3.97t-1.5 6.6v20.25zm51.22.75q-6.22 0-9.9-2.92-3.68-2.93-3.68-7.65 0-3.15 1.81-5.55 1.8-2.4 4.98-3.79t7.32-1.39q3.3 0 5.81.79t4.24 2.21v-5.55q0-4.87-2.48-7.01t-6.67-2.14q-3.01 0-6.12 1.09t-5.21 3.49l-2.32-3.38q2.39-2.77 6.14-4.16t7.73-1.39q6.15 0 9.9 3.3t3.75 9.98v11.4q0 6 .23 11.92h-4.28l-.07-3.9q-3.23 4.65-11.18 4.65m1.13-3.67q4.57 0 7.01-1.95t2.44-4.95q0-3.08-2.48-4.95t-7.05-1.88q-4.5 0-7.13 1.88t-2.62 4.95q0 3 2.62 4.95t7.21 1.95m35.17 2.92q-2.4 0-4.5-.97-2.1-.98-3.45-2.97-1.35-1.98-1.35-5.13v-22.58h-6.67v-4.2h6.67v-8.92h4.73v8.92h9.97v4.2h-9.97v22.88q0 2.02 1.35 3.33 1.35 1.32 3.3 1.32h5.32v4.12zm44.4.75q-5.32 0-9.45-2.32-4.12-2.33-6.45-6.42t-2.33-9.48v-.98q0-5.32 2.37-9.41 2.36-4.09 6.45-6.41t9.41-2.33q3.9 0 7.05 1.39t5.4 3.86l-3 3q-3.67-3.82-9.52-3.82-3.91 0-6.94 1.72-3.04 1.73-4.76 4.84-1.73 3.11-1.73 7.16v.98q0 4.12 1.76 7.23t4.8 4.84 6.94 1.73q5.85 0 9.6-3.83l2.93 3q-2.25 2.48-5.44 3.86-3.19 1.39-7.09 1.39m33.38 0q-5.1 0-9.08-2.36-3.97-2.36-6.22-6.53t-2.25-9.63v-.68q0-5.32 2.25-9.41t6.22-6.41 9.08-2.33q5.02 0 9 2.33 3.97 2.32 6.22 6.37t2.25 9.3v.83q0 5.47-2.25 9.63t-6.22 6.53-9 2.36m0-4.27q3.75 0 6.6-1.84t4.46-5.03 1.61-7.38v-.83q0-4.05-1.61-7.12t-4.46-4.84-6.6-1.76-6.64 1.8-4.54 4.91-1.65 7.16v.68q0 4.2 1.65 7.38 1.65 3.19 4.54 5.03t6.64 1.84m38.7 4.27q-3.98 0-7.13-1.54-3.15-1.53-4.95-4.8t-1.8-8.58v-21.68h4.73v20.93q0 6.3 2.85 8.77 2.85 2.48 7.12 2.48 2.93 0 5.4-1.32 2.48-1.31 4.01-3.9 1.54-2.58 1.54-6.56v-20.4h4.65v35.85h-4.35v-5.92q-2.18 3.75-5.62 5.21-3.45 1.46-6.45 1.46m26.77-.75v-35.85h4.57v6.38q1.43-2.7 3.57-4.24t4.46-2.21 4.35-.68q6.08 0 9.9 3.86 3.83 3.87 3.83 11.82v20.92h-4.81v-20.32q0-6.3-2.84-9.08-2.85-2.77-7.21-2.77-3 0-5.51 1.35t-4.01 3.97-1.5 6.6v20.25zm51.37 0q-2.39 0-4.5-.97-2.09-.98-3.44-2.97-1.36-1.98-1.36-5.13v-22.58h-6.67v-4.2h6.67v-8.92h4.73v8.92h9.98v4.2h-9.98v22.88q0 2.02 1.35 3.33 1.35 1.32 3.3 1.32h5.33v4.12zm21.76.68q-3.75 0-7.2-1.2t-5.56-3.23l2.18-3.3q1.95 1.8 4.8 2.85t5.78 1.05q3.67 0 6-1.72 2.32-1.73 2.32-4.58 0-2.32-1.42-3.6-1.43-1.27-3.72-1.95-2.28-.67-4.8-1.31-2.51-.64-4.76-1.65t-3.68-2.89-1.42-5.25q0-4.65 3.45-7.57 3.45-2.93 9.23-2.93 3.3 0 6.18 1.01 2.89 1.02 5.07 2.67l-2.18 3.37q-1.87-1.5-4.2-2.32-2.32-.83-4.95-.83-3.6 0-5.81 1.73-2.21 1.72-2.21 4.5 0 2.32 1.42 3.56 1.43 1.24 3.71 1.95t4.84 1.35 4.84 1.69 3.71 3 1.43 5.32q0 4.5-3.64 7.39t-9.41 2.89m19.5-.68v-6.9h5.77v6.9z"/><path fill="#30ba78" d="M24.86 557.59v-1.94h16.2v1.94zm25.08 4.05-3.55-12.6h2.25l2.45 9.32 2.84-9.32h2.45l2.81 9.32 2.47-9.32h2.23l-3.55 12.6h-2.27l-2.93-9.88-2.92 9.88zm16.11 0v-7h-1.59v-1.77h3.68v8.77zm-.09-10.51v-2.4h2.3v2.4zm4.75 10.51v-8.77h2v1.12q.54-.77 1.29-1.03.74-.27 1.35-.27 1.48 0 2.37.97.89.96.89 2.76v5.22h-2.07v-4.88q0-1.15-.49-1.66-.5-.52-1.27-.52-.85 0-1.42.57-.58.57-.58 1.65v4.84zm13.01.16q-1.04 0-1.91-.3-.88-.31-1.45-.76l.9-1.42q.52.38 1.16.62t1.3.24 1.04-.27.39-.7-.32-.65q-.31-.21-.82-.35l-1.07-.28q-.57-.14-1.07-.41t-.83-.77q-.32-.49-.32-1.3 0-1.21.92-1.98.91-.78 2.46-.78.87 0 1.64.24t1.39.65l-.92 1.38q-1.01-.68-2.13-.68-.63 0-1 .28-.38.28-.38.71 0 .39.33.62t.85.36l1.09.3q.57.16 1.08.44t.85.77q.33.5.33 1.31t-.45 1.42-1.24.96-1.82.35m8.86-.16q-.63 0-1.25-.22-.62-.21-1.04-.78-.41-.57-.41-1.57v-4.43h-1.49v-1.77h1.49v-2.14h2.07v2.14h2.03v1.77h-2.03v4.59q0 .27.19.46t.46.19h1.38v1.76zm7.15.18q-1.28 0-2.31-.58-1.02-.57-1.62-1.59-.59-1.02-.59-2.33v-.16q0-1.32.59-2.32.6-1.01 1.62-1.58 1.03-.57 2.31-.57 1.27 0 2.29.57t1.61 1.58.6 2.3v.18q0 1.31-.6 2.33-.59 1.02-1.61 1.59t-2.29.58m0-1.84q1.08 0 1.75-.74.68-.75.68-1.92v-.18q0-1.15-.68-1.88-.67-.73-1.75-.73-1.07 0-1.75.74t-.68 1.89v.16q0 1.17.68 1.92.68.74 1.75.74m6.53 1.66v-8.77h2v1.12q.54-.77 1.28-1.03.75-.27 1.36-.27 1.48 0 2.37.97.89.96.89 2.76v5.22h-2.07v-4.88q0-1.15-.49-1.66-.5-.52-1.27-.52-.85 0-1.42.57-.58.57-.58 1.65v4.84zm20.57.25q-1.35 0-2.52-.47-1.18-.46-2.07-1.33-.9-.86-1.39-2.03-.5-1.17-.5-2.59v-.26q0-1.42.5-2.59.49-1.17 1.39-2.03.89-.87 2.07-1.33t2.52-.47q1.26 0 2.31.39 1.04.4 1.85 1.12l-1.4 1.67q-1.14-1.02-2.76-1.02-1.2 0-2.16.54t-1.52 1.5q-.55.96-.55 2.22v.26q0 1.26.55 2.22t1.52 1.5 2.16.54q1.68 0 2.81-1.08l1.42 1.66q-.82.75-1.9 1.17t-2.33.41m6-.25V548.5h2v5.49q.54-.77 1.28-1.03.75-.27 1.36-.27 1.48 0 2.37.97.89.96.89 2.76v5.22h-2.07v-4.88q0-1.15-.49-1.66-.5-.52-1.27-.52-.85 0-1.43.57-.57.57-.57 1.65v4.84zm13.64.18q-1.44 0-2.4-.87-.96-.88-.96-2.68v-5.4h2.07v5.01q0 1.13.49 1.59.5.46 1.27.46.83 0 1.38-.53t.55-1.61v-4.92h2.07v8.77h-1.8v-1.06q-.56.74-1.31.99t-1.36.25m7.06-.18v-8.77h2v1.28q.32-.75.95-1.05t1.4-.3h.72v2.05h-.88q-1.02 0-1.57.47t-.55 1.37v4.95zm10.42.18q-1.31 0-2.35-.57-1.03-.56-1.63-1.57t-.59-2.32v-.2q0-1.33.6-2.34t1.64-1.57 2.33-.56q.97 0 1.82.39.84.39 1.37 1.07l-1.26 1.28q-.36-.41-.86-.62-.49-.21-1.05-.21-1.08 0-1.79.69t-.71 1.87v.2q0 1.17.73 1.86.72.69 1.79.69.54 0 1.03-.19.5-.19.91-.6l1.24 1.24q-.52.69-1.38 1.07-.87.39-1.84.39m5.02-.18V548.5h2v5.49q.54-.77 1.29-1.03.74-.27 1.36-.27 1.47 0 2.36.97.89.96.89 2.76v5.22h-2.07v-4.88q0-1.15-.49-1.66-.5-.52-1.27-.52-.85 0-1.42.57-.58.57-.58 1.65v4.84zm11 0v-7h-1.58v-1.77h3.67v8.77zm-.09-10.51v-2.4h2.3v2.4zm7.38 10.51q-1.19 0-1.9-.65t-.71-1.78v-8.95h-1.46v-1.76h3.53v10.75q0 .28.19.47t.48.19h.91v1.73zm5.35 0q-1.19 0-1.9-.65t-.71-1.78v-8.95h-1.46v-1.76h3.53v10.75q0 .28.19.47.18.19.47.19h.92v1.73z"/><path fill="#30ba78" fill-opacity=".18" d="M0 719h1080v1H0z"/><path fill="#fff" d="M27.16 845.5v-29.2H48.6v29.2zm18.8-2.92v-23.84H29.6zm-20.1 49.92v-3.33l7.68-7.71q1.24-1.25 1.79-2.34.54-1.08.54-2.2 0-1.28-.81-2.1t-2.23-.82q-1.34 0-2.43.72t-2.08 2.13l-2.88-2.81q1.31-1.99 3.22-3.12 1.9-1.14 4.33-1.14 2.18 0 3.87.85 1.7.85 2.66 2.35t.96 3.49q0 1.82-.91 3.68-.91 1.85-2.9 3.87l-4.45 4.45h9.19v4.03zm19.93 0 9.38-18.4H44.26v-4H60.1v3.1l-9.32 19.3zm22.08-11.94q-1.63 0-2.89-.68t-1.99-1.91q-.72-1.21-.72-2.81 0-1.57.72-2.79.72-1.21 1.99-1.9 1.26-.69 2.89-.69 1.67 0 2.93.69t1.98 1.9q.72 1.22.72 2.79 0 1.6-.72 2.81-.72 1.22-1.98 1.91t-2.93.68m0-2.59q1.25 0 2.03-.78.79-.79.79-2.03 0-1.22-.79-2-.78-.79-2.03-.79-1.21 0-2 .79-.78.78-.78 2 0 1.24.78 2.03.79.78 2 .78m18.98 14.98q-2.43 0-4.53-.83-2.1-.84-3.7-2.37t-2.49-3.63-.9-4.63v-.38q0-2.53.9-4.63.89-2.09 2.49-3.63 1.6-1.53 3.7-2.37 2.1-.83 4.53-.83 2.27 0 4.17.72 1.91.72 3.41 2.1l-2.91 3.39q-1.92-1.79-4.67-1.79-2.02 0-3.6.89-1.59.9-2.48 2.48-.9 1.59-.9 3.67v.38q0 2.08.9 3.67.89 1.58 2.48 2.48t3.6.89q2.85 0 4.8-1.95l2.91 3.39q-1.54 1.44-3.49 2.21t-4.22.77"/><path fill="#fff" fill-opacity=".45" d="M25.04 922.5v-8.4h1.37l2.43 5.03 2.41-5.03h1.37v8.4h-1v-7.08l-2.39 5.08h-.8l-2.38-5.08v7.08zm11.16.12q-.98 0-1.57-.48t-.6-1.25q0-.5.3-.9.3-.39.82-.63.53-.23 1.17-.23.95 0 1.52.39v-.72q0-.7-.37-1.01t-.99-.31q-.47 0-.95.18-.49.17-.84.53l-.45-.68q.38-.45 1-.67.63-.23 1.29-.23 1.02 0 1.64.54.63.54.63 1.61v1.84q0 .96.03 1.9h-.86l-.01-.58q-.54.7-1.76.7m.26-.73q.66 0 1.02-.28.37-.27.37-.72t-.37-.71-1.04-.27q-.66 0-1.04.27t-.38.71q0 .43.39.72t1.05.28m4.45.61v-4.93h-1.13v-.84h2.09v5.77zm-.06-7.04v-1.4h1.08v1.4zm2.83 7.04v-5.77h.94v.92q.34-.6.89-.82t1.01-.22q.98 0 1.58.63t.61 1.86v3.4h-.97v-3.25q0-.93-.42-1.34-.41-.41-1.05-.41-.66 0-1.14.45t-.48 1.31v3.24zm8.29 0q-.71 0-1.13-.4-.43-.4-.43-1.08v-6.45h-1.05v-.83h2.02v7.3q0 .27.18.45t.46.18h.55v.83zm.78 2.4v-.83h1.15q.26 0 .41-.17t.24-.42l.42-.92-2.37-5.83h1.06l1.83 4.64 1.74-4.64h1.07l-2.76 6.79q-.14.34-.33.65-.2.31-.52.52t-.83.21zm13.12-2.26q-.9 0-1.68-.3-.77-.31-1.36-.87t-.92-1.35-.33-1.72v-.2q0-.94.33-1.72t.92-1.35q.59-.56 1.36-.87t1.68-.3q.78 0 1.44.23.67.23 1.19.67l-.65.76q-.82-.67-1.98-.67-.93 0-1.66.42-.73.41-1.15 1.14-.42.72-.42 1.69v.2q0 .97.42 1.69.42.73 1.15 1.14.73.42 1.66.42 1.19 0 2.01-.71l.65.78q-.53.44-1.21.68t-1.45.24m5.52-.14q-.71 0-1.14-.4t-.42-1.08v-6.45h-1.06v-.83h2.03v7.3q0 .27.18.45t.46.18h.55v.83zm4.08.12q-.85 0-1.51-.38-.65-.38-1.02-1.05-.36-.67-.36-1.55v-.12q0-.84.33-1.49.34-.65.95-1.04.61-.38 1.42-.38.82 0 1.41.41t.87 1.14.16 1.75h-4.17q.03.5.28.92.25.41.67.66.43.24 1 .24.46 0 .81-.11t.62-.34l.55.6q-.33.36-.85.55-.53.19-1.16.19m-.19-5.17q-.72 0-1.17.45-.45.46-.55 1.22h3.24q-.01-.8-.43-1.23-.42-.44-1.09-.44m5.55 5.17q-.98 0-1.58-.48-.59-.48-.59-1.25 0-.5.3-.9.3-.39.82-.63t1.17-.23q.95 0 1.51.39v-.72q0-.7-.36-1.01-.37-.31-.99-.31-.47 0-.96.18-.48.17-.83.53l-.46-.68q.39-.45 1.01-.67.63-.23 1.29-.23 1.02 0 1.64.54t.62 1.61v1.84q0 .96.04 1.9h-.86l-.02-.58q-.54.7-1.75.7m.25-.73q.66 0 1.03-.28.37-.27.37-.72t-.37-.71-1.04-.27q-.66 0-1.04.27-.39.27-.39.71t.39.72 1.05.28m4.08.61v-5.77h.94v.92q.22-.55.64-.75t.96-.2h.49v.96h-.57q-.7 0-1.09.35t-.39 1.07v3.42zm-58.47 20-2.47-8.4h1.04l1.96 6.9 2.14-6.9h1.13l2.15 6.91 1.96-6.91h1.03l-2.46 8.4h-1.06l-2.18-7.12-2.19 7.12zm10.4 0v-4.93h-1.13v-.84h2.09v5.77zm-.06-7.04v-1.4h1.08v1.4zm2.83 7.04v-5.77h.94v.92q.35-.6.89-.82.55-.22 1.02-.22.97 0 1.58.63.6.63.6 1.86v3.4h-.97v-3.25q0-.93-.41-1.34-.42-.41-1.05-.41-.66 0-1.14.45t-.48 1.31v3.24zm9.08.12q-.8 0-1.41-.37t-.96-1.05-.35-1.56v-.1q0-.87.36-1.53.35-.66.96-1.03.62-.37 1.4-.37.64 0 1.15.28t.85.77v-3.92h.97v8.76h-.87v-1.04q-.35.55-.89.85-.54.31-1.21.31m.13-.86q.56 0 .99-.27.44-.26.69-.74t.25-1.13-.25-1.13-.69-.75-.99-.27q-.81 0-1.34.57t-.53 1.5v.1q0 .64.24 1.12.25.48.67.74t.96.26m7.59.74v-.94h2.21v-5.92q0-.27-.16-.44t-.43-.16h-1.59v-.94h1.85q.58 0 .96.38.37.38.37.95v6.13h2.18v.94zm9.47.12q-.91 0-1.57-.29t-1.14-.74l.59-.69q.37.36.89.61.51.25 1.24.25.89 0 1.43-.44.54-.43.54-1.12 0-.66-.52-1.07t-1.41-.41h-1.2v-.89h1.13q.84 0 1.31-.44.48-.43.48-1.07 0-.67-.48-1.06t-1.28-.39q-.67 0-1.15.23t-.78.55l-.57-.71q.4-.4 1.05-.68t1.48-.28q.8 0 1.42.27t.96.77.34 1.18q0 .65-.33 1.18-.33.54-.95.82.75.28 1.13.82t.37 1.22q0 .71-.39 1.25-.38.53-1.05.83t-1.54.3m7.72-.12v-8.4h1.02v4.68l3.8-4.68h1.2L77 937.65l3.11 4.85h-1.23l-2.56-4.01-1.45 1.79v2.22zm7.17 0v-5.77h.93v.91q.33-.59.84-.81t.99-.22q.63 0 1.1.27.48.28.72.86.25-.44.59-.68t.71-.35q.36-.1.69-.1.93 0 1.52.6.59.61.59 1.86v3.43h-.95v-3.31q0-.89-.38-1.29-.39-.4-1.01-.4-.65 0-1.08.43-.43.44-.43 1.26v3.31h-.96v-3.31q0-.89-.38-1.29t-1-.4q-.65 0-1.09.43-.44.44-.44 1.26v3.31zm9.33 1.73 4.45-10.84h1l-4.47 10.84zm6.5-1.73v-8.76h.94v3.91q.35-.6.89-.82.55-.22 1.02-.22.97 0 1.57.63t.61 1.86v3.4h-.97v-3.25q0-.93-.42-1.34-.41-.41-1.05-.41-.66 0-1.14.45t-.48 1.31v3.24z"/><path fill="#fff" d="M26.12 967.5q-.56 0-.92-.36-.36-.37-.36-.93v-6.41h1.35v6.03q0 .17.11.29t.29.12h3.1v1.26zm8.23.15q-1.09 0-1.95-.5t-1.35-1.39-.49-2.08v-.08q0-1.18.49-2.07.5-.88 1.35-1.38t1.95-.5 1.95.5 1.35 1.38.49 2.07v.08q0 1.18-.49 2.08-.49.89-1.35 1.39t-1.95.5m0-1.32q.71 0 1.24-.32.54-.32.85-.92.31-.59.31-1.41v-.08q0-.81-.31-1.4-.31-.6-.85-.91-.53-.32-1.24-.32-.7 0-1.25.32-.54.31-.85.91-.31.59-.31 1.4v.08q0 .82.31 1.41.31.6.85.92.55.32 1.25.32m5.78 1.17v-7.7h1.22l3.55 5.31v-5.31h1.35v7.7h-1.2l-3.58-5.33v5.33zm8.52 0v-7.7h2.77q1.09 0 1.96.48t1.35 1.32q.5.85.5 1.96v.12q0 .84-.29 1.54t-.81 1.21-1.21.79-1.5.28zm2.66-6.43h-1.32v5.17h1.32q.74 0 1.31-.32t.9-.9.33-1.34v-.12q0-.75-.32-1.31t-.9-.87-1.32-.31m9.31 6.58q-1.09 0-1.95-.5t-1.35-1.39-.5-2.08v-.08q0-1.18.5-2.07.49-.88 1.35-1.38t1.95-.5 1.95.5 1.34 1.38.49 2.07v.08q0 1.18-.49 2.08-.49.89-1.34 1.39t-1.95.5m0-1.32q.7 0 1.24-.32t.85-.92.31-1.41v-.08q0-.81-.31-1.4-.31-.6-.85-.91t-1.24-.32-1.25.32q-.54.31-.85.91-.31.59-.31 1.4v.08q0 .82.31 1.41.31.6.85.92.55.32 1.25.32m5.77 1.17v-7.7h1.22l3.56 5.31v-5.31h1.35v7.7h-1.2l-3.58-5.33v5.33zm-38.61 16.65q-1.36 0-2.17-.7t-.81-2.11v-5.04h1.36v4.93q0 .85.44 1.26.45.41 1.18.41.75 0 1.2-.41t.44-1.26v-4.93h1.36v5.04q0 1.41-.82 2.11t-2.18.7m5.32-.15v-7.7h1.22l3.55 5.31v-5.31h1.35v7.7h-1.2l-3.58-5.33V984zm8.12 0v-1.23h1.28v-5.24h-1.28v-1.23h3.93v1.23h-1.29v5.24h1.29V984zm7.4 0v-6.47h-2.19v-1.23h5.76v1.23h-2.21V984zm6.4 0q-.56 0-.92-.36-.36-.37-.36-.93v-5.12q0-.56.36-.93.36-.36.92-.36h3.75v1.23h-3.3q-.16 0-.28.12-.11.11-.11.28v1.62h3.46v1.17h-3.46v1.65q0 .17.11.28t.28.12h3.3V984zm5.84 0v-7.7h2.77q1.09 0 1.96.48t1.35 1.32q.5.85.5 1.96v.12q0 .84-.29 1.54t-.81 1.21-1.21.79-1.5.28zm2.66-6.43H62.2v5.17h1.32q.74 0 1.31-.32t.9-.9.33-1.34v-.12q0-.75-.32-1.31t-.9-.87q-.57-.31-1.32-.31m9.01 6.43v-7.7h1.34v3.76l3.01-3.76h1.56l-2.51 3.17L78.6 984h-1.61l-1.95-3.41-1.17 1.46V984zm7.21 0v-1.23h1.28v-5.24h-1.28v-1.23h3.94v1.23h-1.3v5.24h1.3V984zm5.93 0v-7.7h1.22l3.55 5.31v-5.31h1.35v7.7h-1.2l-3.58-5.33V984zm12.01.16q-1.15 0-2.03-.5-.88-.51-1.37-1.4t-.5-2.04v-.12q0-1.17.51-2.06t1.4-1.4 2.05-.5q.83 0 1.5.28t1.2.78l-.94.95q-.36-.39-.8-.56t-.93-.17q-.77 0-1.36.34-.58.34-.92.95-.33.6-.33 1.39v.12q0 .79.33 1.39t.91.94q.57.35 1.31.35.63 0 1.1-.26.47-.27.74-.72t.27-1.02h-1.83v-1.1h3.15q.16 1.29-.23 2.27-.38.98-1.21 1.54-.83.55-2.02.55m5.34-.16v-7.7h2.78q1.09 0 1.95.48t1.36 1.32q.49.85.49 1.96v.12q0 .84-.28 1.54t-.81 1.21-1.22.79-1.49.28zm2.67-6.43h-1.32v5.17h1.32q.73 0 1.3-.32t.91-.9q.33-.58.33-1.34v-.12q0-.75-.33-1.31-.32-.56-.89-.87t-1.32-.31m9.3 6.58q-1.09 0-1.94-.5-.86-.5-1.36-1.39-.49-.9-.49-2.08v-.08q0-1.18.49-2.07.5-.88 1.36-1.38.85-.5 1.94-.5t1.95.5 1.35 1.38.49 2.07v.08q0 1.18-.49 2.08-.49.89-1.35 1.39t-1.95.5m0-1.32q.71 0 1.25-.32.53-.32.84-.92.31-.59.31-1.41v-.08q0-.81-.31-1.4-.31-.6-.84-.91-.54-.32-1.25-.32-.7 0-1.25.32-.54.31-.85.91-.31.59-.31 1.4v.08q0 .82.31 1.41.31.6.85.92.55.32 1.25.32m5.78 1.17v-7.7h1.8l1.89 4.2 1.88-4.2h1.82v7.7h-1.32v-5.93l-1.87 4.29h-1.01l-1.88-4.29V984z"/><svg xmlns="http://www.w3.org/2000/svg" id="dc-map" width="720" height="360" x="180" y="720" aria-hidden="true" class="dc-map-canvas" preserveAspectRatio="xMidYMid meet" viewBox="-185 -90 380 150"><path fill="#1a4a3a" fill-rule="evenodd" stroke="#30ba78" stroke-linecap="round" stroke-linejoin="round" stroke-width="0" d="m-59.5 80-7 .5 6-1zm-99.5-.5-4.5-1 4 .5zM-45 78l1.5 2-10.5.5 7.5-2.5zm-76-4.5h2.5-4zm-4.5 0 1.5.5-2.5-1zM-99 72l3 .5-6.5-.5h2zm30.5-1-.5 1h-6l3-1 1-2 2.5 1.5zM-180 84.5l37 .5-10.5-1.5.5-1.5-4-1 10.5-.5-9-1.5-3-2 7 .5 6.5-2.5 31-1.5 14 1.5-3.5-2.5L-76 74l7-1 2-1-1.5-2.5 1-2.5 9.5-3.5-7.5 4.5 3.5 2.5 1 3-9.5 3H-77l3.5 1.5-4.5 1 20 4 29.5-2.5-7-1-.5-1 18.5-3.5 2-2 8.5-2 34-.5 7-2 4.5 1.5 16-4 7 2H69l.5 1-1.5 3 2 .5 4-2.5 14-4 8 1.5 7-2 3 1.5 7.5-1 6.5 1.5 15-2 2.5 1.5h8l25.5 4.5-7.5 4.5 3.5 3h-5l-2 2 9.5 3 9 .5zM-68 54l3 .5-4 1-5.5-2.5 3.5 1 2.5-1zm9.5-3-2.5 1 2-.5zm129-1.5-2 .5.5-1.5zm75-8.5h3l-.5 2-2 .5-1.5-3zm27.5 0 1 .5-1 2.5-3.5 2.5-3-.5 6.5-5.5zm1.5-5 4 1.5-3.5 4-2.5-7 2 1zM167 22l-3-2 2.5 1.5zm11.37-4.66.35.29-.17.52-.62.14-.55-.13-.1-.44.4-.34.44.13zm-10.52-.87-.33.13-.34-.44.04-.27zm-.74-1.54.16.81-.27-.13-.2.06-.15-.28-.02-.76zM50 13.5 47 25h-3l.5-9 4.5-4 1 1zm93.5.5 9.5 12v5l-3 6.5-3.5 1.5-6-1-2.5-3.5-1 1 1-2.5-2 2-4.5-3.5L118 35l-3-1 .5-2.5-2-5.5.5-4 7-2.5 4.5-5.5 4 1 1-2.5 2-.5-.5-.5 4.5.5-1 3 4.5 2.5 2.5-7 1 3zm18.62-3.52.28.35-.7-.01-.38-.61.6.24zM120.5 10l-1.5-.5 2 .5Zm40.5 0-1.5-1 1 .5zm.5-.5-1-1 1 .5zm-37 .5 3-1.5-2.5 1zM118 8l1 .5-2.5.5 1-.5zm5 0-3 1 2-.5zm37 .5-2-1 1.5.5zm-2.46-1.15-.2.05-.44-.22-.4-.41.04-.17.6.42zM108.5 7l7 1.5-10-1.5 3-.5zm26.23-.79-.52.68-.1-.75.18-.36.2-.34.24.3zM156 7l-1.5-2 1.5 1.5Zm-4-1.5h-3.5l4-.5zm-25-2-1-.5h1zm3.5-.5-2.5.5 1.5-.5ZM153 4.5l-2.5-2L153 4ZM134 1l1.5 2.5 3-2 6 2.5 6 6.5-6-3-2 2-5-1 .5-3-5-1.5-1-1 1.5-1-3-1zm-9-2.5L120 0l1 1.5 2.5-1-2 1.5 1.5 3.5-2-3-1.5 3 .5-6zm3.5.5-.5 2-.5-2 1-.5zM106 6l-3.5-2-7-9.5 7 4 3.5 6zm12-8 1 1-3 5-6-1-1-2.5.5-2.5 3.5-1 3.5-4 2.5 1.5-1.5 2.5.5.5zm8.5-6.5-1 3-2-2.5-1.5 1 3.5-3 1 1zM81-6l-1-1v-3l1.5 3.5zm-142-4h-1l1-1zm185-.5-1.5 1L124-11zm-5.5 1-1.5 1 2.5-3-.5 1.5zM122-12l1 .5h-1zm3.5 0-.5 2v-2.5zm-3.97-1.07-.27.86-.43-.5-.5-.76.85.04zm-.03-5.43 1 1.5-1 2.5 2.5 2-3.5-1.5v-4.5zm-187 .5H-67l1-.5zM-77-18h-1.5 2.5zm4.5-2 4 1.5-5.5.5 1.5-.5-.5-1.5zm183 1.5-2-1h2zm-266-.5-.5-1.5 1 1.5zm-.58-1.64-.34.07-.17-.21-.11-.08-.01-.07.1-.08.35.1.27.15zm-.68-.54-.03.11-.54-.03.08-.12zm-.9-.14-.05.06-.07-.02-.35-.03-.12-.23-.04-.04.26-.14.09.07zm-1.69-.66-.12.1-.33-.18.05-.08.15-.1.24.02zM-79.5-23l5.5 2.5-4 .5-4-2.5-3 .5 4.5-1zm2-1-.5-1 .5.5zM121-23l-1-.5 2-1zm-199-3.5-1-.5h1zm1-.1-.17.72-.19-.13.02-.52-.45-.4v-.1zM134.5-34l-2 1 1.5-1.5zm-100-1.5-2 .5 1-.5zm-11 0h3zm-8-2.5-.5 1.5-2.5-1L15-38ZM9-41v2l-.5-2zm132 4-.5 2-4.5 1.5-1-1-4 .5 1 1-2 1.5-.5-2 6-2 6-6-.5 3.5zM9.56-42.15l-.33.77-.45-.2-.24-.68.2-.37.65-.38zM144-44l1.5.5-5.5 2 2-4 1 1zm-207.5-2.5h1.5l-2-.5zM-62-49l-2.5-1 2.5.5zm-61.5.5-5-2 4.5 1.5zm67.5-2-1 .5 3.5 1 .5 2.5-6.5-1 4-4zm-76.5-3.5 1.5 2-2-2zm276 3.5 1 1.5-1.5-.5.5 3.5H142l.5-8.5.5 2.5zM-7-52.5l-3 .5.5-2 3-1 .5 2zm19.5-3H11l1.5-.5ZM-153-57l-1.5-.5h2.5zm150-1.5-1 1h2L-3-56l4.5 3.5v1L-5-50l1.5-1.5-2-.5 1-1.5L-3-54l-3-3 2-1.5zM-165.5-60h-2l2-.5zm86.23-2.16-.39.53-.44-.09-.26-.3.04-.07.39-.3.41.03zM-82-62.5h-2l2-.5zm-89.5-1.5 3 .5h-3.5zm86.5-1.5 5 2h-7l1-2zm70.5-1 1 1.5-5 1.5-6-2 8.5-1zM-76-67l-1-.5h2zm-104-2 10 3-3 1.5-7-1.5m360 1-2.5.5 1.5 2-8.5 2.5h-7l-1.5 2 1 .5-1 2.5-5 4-1-6 8.5-5.5-4.5 2-3.5-1L154-60l1 1h-13l-7 4.5 5 .5 1.5 2-3.5 5.5-10.5 6.5 1.5 5-2.5.5-1-5-4.5.5.5-2-3.5 2 1 1.5h3.5L119-35l3 3.5-.5 3.5-5.5 5-5.5 2.5-2-1L106-20l3.5 6.5-.5 2-4 3-5-5L99-9l4 3.5 1 4-2.5-1.5-3-5-1.5-9-3 1-2.5-7-4.5 1.5-6.5 5.5-.5 5.5L77.5-8l-5-13.5-2 .5-4-4.5h-9l-1-1.5-5-1-1.5-2h-2l4 6 4.5-2.5.5 2.5 3 1.5-4.5 5.5-12 4.5-1-4.5L35-29.5l-1 2-1.5-2.5 5 11.5 5 7 2 1L51-12v1.5L47.5-4 39 4.5l2 10-6 5.5.5 4-3 1.5L32 29l-4 4-8.5 2L12 18l1.5-7.5L12 5 9 1l.5-4.5-3.5-1-1.5-2L-9-5l-7.5-7-.5-10 11-14 15.5-1.5 1.5.5-.5 3 8.5 3.5 2.5-2.5L34-31l2-5.5h-8.5l-1.5-3 7.5-2.5 5 1 3-1-5-3 2.5-2.5-4 1 1.5 1.5-2.5.5-1.5-1 1-.5-3-.5-3 4L29-41l-6.5.5 1.5 3-1.5 1-3-5-6.5-4-.5 1.5 6 4-1.5-.5-1 2.5-.5-2L9-44.5 3-43l-5 6.5-7-.5-.5-6 8-1 .5-2-3.5-2.5h3L-2-50l10-3.5.5-3.5 2-.5-1 2L11-54l8.5-.5 2-3 2.5.5-.5-2 5.5-1-7.5-.5V-63l4-2-3.5-.5-4 3-1 1 2 1.5-3 4-3 .5-2.5-4-5 1 .5-4L19-70l5.5-1L41-67.5 38.5-66l-5.5-.5 4 2.5v-1l7-1-.5-2.5 3 .5v1.5l7-2.5 6.5.5.5-1.5 8 2-2-3 2.5-2h3.5l-.5 1.5 1.5 3-2 2 1 .5 2.5-2-2-3.5 1.5-1.5 2 2 5-.5-1-2 24-4L114-76l-4.5 2 17.5.5 4.5 2.5 8.5-.5-1-1 1.5-.5 18.5 2 2 1.5h17.5zM49-41.5l1.5 1-1.5 3 5 .5-1.5-3 2-1-1-1-.5 1-2.5-3.5 2.5-1V-47l-6.5 2.5 2 2.5zM-95.5-69l-4.5-.5h3.5zM180-71h-1.5zm-270.5 1.5 3 2.5 2-3 3 .5 1 2L-93-62l-1.5 3 2 2 10 2 2.5 4 1.5-1.5-1.5-2 3.5-2-2-2.5 1-1-.5-2.5h4l4.5 1.5 2 3 3-2.5 2.5 4 4.5 2 2 2.5-4.5 2h-6.5l-4.5 3 6-2 .5 3 4-1 .5 1-5.5 2.5-.5-1 1.5-1-2.5.5-3.5 2 .5 1.5-5.5 2-.5 2.5-.5-2 1 3.5-6 4 1 6.5-3.5-5-10 .5-2.5 1-1.5 6 1.5 3 4.5 1 1.5-2.5 3.5-.5-2 5.5 5.5.5-.5 4.5 2.5 2 4.5.5 5-4 .5 3.5 1.5-3 2 1.5h6l5 4.5 5.5 2 1 4 6 2.5 4.5.5 4.5 2 1 2.5-4 5.5-2.5 9-6.5 3-1.5 3.5-5 6-4.5-.5 1.5 3-5.5 2v2H-65l1.5 1.5-4 3L-66 48l-3 2.5 1 2-3 1.5-4-1.5-.5-4L-74 47l-1.5-.5 3-4-2 .5 4.5-23-6-5.5-5.5-8.5 1.5-3.5-1-1.5 4-5-1-4.5-1.5-.5-1.5 2-4.5-3-2-3.5-16-5L-115-32l5.5 9-2.5-1.5-5.5-8.5-3-1.5-4-6V-48l2 1-.5-2-4.5-2-6.5-7-13-3-4.5 2 1-2.5-8 5.5-6.5 1.5 8-4.5-5 .5-4-3 5-3.5-7-.5 6.5-.5-5.5-2.5 10.5-3 20 2.5 8.5-1.5 19 3 3-1.5 4.5 1.5 4-1 1.5 1 2-1.5-2.5-1 1.5-2 3.5 2-1 .5zM-114-73l6 1.5-.5-1.5h2l5.5 3-1.5 1-11 .5-4-1.5 5-.5-7-1 4.5-2zm9.5-.5h-2.5 1.5zm28 .5-4.5-.5h3zm-10 0 4-1 1.5 2 9 .5 5 2.5-2 .5 7 1.5-2 2-4-1.5 3.5 3H-69l3 1.5-9-2.5-2.5.5-.5-1.5h4l1-2-6-2.5-11-1 .5-2 3.5-1zm-14-1h3l1 2.5-6-1h2l-1-1zm244 1-3.5-.5h3.5zM-93-73l-2.5 1-.5-1.5 5.5-.5-1.5 1zm-27.5 1.5-5.5-.5 2-1.5-1-1 9.5 1-5 1.5zm271-3.5H146l2-.5zm-244 0H-97l3-.5zm238.5-.5h-8l4.5-.5zm-243.5-1 .5 1.5-4.5-.5zm-9.5.5 2.5.5-12 .5 2-1.5 6.5 1-1.5-1h2zm165.5 5.5-6-1.5 4-3L69-76.5l-10.5 2-3 3zm-152-6.5 14.5 2h-12.5l-4-2zm-21.5-.5-7 1.5 5.5-1.5zm22 0-2.5-.5 3 .5zm-16 0h-3.5l3.5-.5zM24.5-78l-4 .5 3-.5zm-134-.5h-3l1.5-.5zm13.5.5-2.5-1 3 .5zm-4-.5-5.5-1 4.5.5zm205 0-5.5.5 2.5-1.5 3.5 1zm-86.5-1 3 .5-5.5 2-5.5-2.5L17-80zm7-1 2 .5-10-.5H23Zm25.5 0h-6 6.5zm49 1.5-9-1.5 5-1 4 1.5zm-187-.5h1l-5 1.5-5.5-2 4-1.5 4.5 1zm18.5-3.5 6.5.5-15 3 1.5 1-5 2.5-9-.5 1-1.5 3.5.5-3-1 3-1-2-1h5l-9.5-1.5 21-1zm41.5-.5 6 1-11 .5 20 .5-8 1.5h2.5l-2 1 1 2-3 .5 2 2-5.5 2 3 2-3.5-1-1 1.5h4L-40-65.5l-3.5 5.5-5-1-3-2.5L-54-67l3-3-3.5.5V-71l3 .5-4.5-1 1.5-1-4-3-10-.5-3-1 4.5-.5-6.5-.5 8-1.5-2.5-.5 5.5-2 18 .5-2.5-1 12-1z"/><g opacity=".95"><circle cx="-.13" cy="-51.51" r="6" fill="#fff" opacity=".18"/><circle cx="-.13" cy="-51.51" r="4" fill="none" stroke="#fff" stroke-width="1.2" opacity=".85"/><circle cx="-.13" cy="-51.51" r="2.2" fill="#fff"/></g></svg><path fill="#fff" d="M927.83 892.5v-1.98h8.8v-23.8q0-1.32-.84-2.18-.83-.86-2.15-.86h-5.5v-1.98h5.89q2.07 0 3.37 1.3t1.3 3.36v24.16h8.75v1.98zm24.99 0v-1.58l11.84-12.02q1.89-1.89 2.88-3.38.99-1.5 1.36-2.78t.38-2.42q0-3.34-1.92-5.19-1.91-1.85-5.17-1.85-2.29 0-4.38 1.28t-3.49 3.52l-1.46-1.32q1.59-2.6 4.1-4.05t5.28-1.45q4.26 0 6.71 2.44 2.44 2.44 2.44 6.45 0 1.36-.4 2.84-.39 1.47-1.52 3.23t-3.32 3.96l-10.25 10.38h16.68v1.94zm25.17-17.64v-3.26h2.46v3.26zm0 17.64v-3.26h2.46v3.26zm16.81.44q-3.44 0-5.79-1.06-2.35-1.05-3.89-2.5l1.27-1.5q1.28 1.28 3.32 2.24t5.13.97q2.46 0 4.33-.86 1.87-.85 2.93-2.37t1.06-3.5q0-2.86-2.29-4.66t-6.34-1.81h-4.18V876h4.05q2.55 0 4.31-.9t2.69-2.42.92-3.32q0-2.86-2.11-4.54-2.11-1.67-5.46-1.67-2.73 0-4.6.88t-2.83 1.89l-1.19-1.54q1.19-1.14 3.41-2.13t5.26-.99q2.81 0 4.99.97t3.39 2.73 1.21 4.18q0 2.59-1.5 4.68-1.49 2.09-4.27 3.02 3.26.79 4.93 2.83t1.67 4.82q0 2.51-1.32 4.4t-3.69 2.97-5.41 1.08m26.75 0q-3.13 0-5.46-1.25-2.33-1.26-3.58-3.55-1.26-2.28-1.26-5.36 0-2.03.64-3.79t1.74-3.3l9.85-13.99h2.64l-8.88 12.23q1.05-.61 2.26-.88 1.21-.26 2.44-.26 2.91 0 5.13 1.27 2.22 1.28 3.5 3.55t1.27 5.21q0 2.99-1.32 5.28t-3.63 3.56-5.34 1.28m-.05-1.89q2.42 0 4.27-1.06 1.85-1.05 2.91-2.9 1.05-1.85 1.05-4.23 0-2.42-1.03-4.29-1.04-1.87-2.86-2.92-1.83-1.06-4.16-1.06-2.51 0-4.38 1.06-1.87 1.05-2.9 2.9-1.04 1.85-1.04 4.31 0 3.7 2.23 5.94t5.91 2.25"/><path fill="#fff" fill-opacity=".45" d="M926.34 919.5v-6.47h-2.19v-1.23h5.77v1.23h-2.21v6.47zm8.4.15q-1.37 0-2.18-.7-.8-.7-.8-2.11v-5.04h1.35v4.93q0 .85.44 1.26.45.41 1.19.41t1.19-.41.45-1.26v-4.93h1.35v5.04q0 1.41-.82 2.11t-2.17.7m6.74-.15q-.56 0-.92-.36-.36-.37-.36-.93v-5.12q0-.56.36-.93.36-.36.92-.36h3.75v1.23h-3.3q-.16 0-.28.12t-.12.28v1.62H945v1.17h-3.47v1.65q0 .17.12.28t.28.12h3.3v1.23zm8.12.15q-.86 0-1.5-.31-.64-.32-1.09-.85l.84-.84q.44.45.87.66.44.2.92.2.65 0 1.02-.3t.37-.79q0-.38-.21-.61-.21-.24-.55-.38t-.76-.26-.81-.27q-.41-.14-.75-.37t-.55-.6-.21-.94q0-.72.33-1.24.34-.53.94-.82t1.41-.28q.74 0 1.34.26t.99.7l-.85.86q-.33-.34-.69-.51t-.8-.17q-.6 0-.97.29-.36.29-.36.78 0 .36.21.57t.55.34q.35.13.76.24t.83.25q.41.14.76.37.34.23.55.61.21.39.21.98 0 .74-.35 1.28-.35.55-.98.85-.64.3-1.47.3m4.95-.15v-7.7h2.77q1.09 0 1.95.48.87.48 1.36 1.32t.5 1.96v.12q0 .84-.29 1.54t-.81 1.21-1.21.79-1.5.28zm2.66-6.43h-1.32v5.17h1.32q.74 0 1.31-.32t.9-.9.33-1.34v-.12q0-.75-.32-1.31-.33-.56-.9-.87t-1.32-.31m5.09 6.43 2.82-7.7h1.66l2.8 7.7h-1.38l-.66-1.89h-3.19l-.66 1.89zm2.45-3.04h2.38l-1.18-3.36zm7.67 3.04v-3.19l-2.73-4.51h1.47l1.94 3.21 1.95-3.21h1.46l-2.72 4.51v3.19zM926.11 940q-.53 0-.87-.35-.35-.34-.35-.87v-5.26q0-.53.35-.87.34-.35.87-.35h3.56v.86h-3.26q-.25 0-.42.17t-.17.41v1.99h3.61v.83h-3.61v2q0 .24.17.41t.42.17h3.26v.86zm7.22.11q-.88 0-1.47-.52-.58-.52-.58-1.66v-3.22h.89v3.07q0 .85.38 1.18.38.34.95.34.6 0 1.03-.4t.44-1.2v-2.99h.88V940h-.79v-.79q-.33.52-.82.71t-.91.19m4.61-.11v-5.29h.86v.85q.19-.51.58-.69t.88-.18h.45v.88h-.52q-.65 0-1 .32-.36.32-.36.98V940zm6.27.11q-.76 0-1.36-.35-.59-.34-.93-.96t-.34-1.42v-.1q0-.78.34-1.39t.93-.95 1.36-.34 1.35.34.93.94.35 1.38v.12q0 .81-.35 1.42-.34.62-.93.96-.59.35-1.35.35m0-.79q.51 0 .9-.25.4-.25.62-.68t.22-1.01v-.12q0-.82-.49-1.35-.48-.52-1.25-.52-.51 0-.9.24-.4.25-.63.67t-.22.98v.1q0 .57.22 1.01.23.43.63.68.39.25.9.25m4.36 2.88v-7.49h.84v.91q.31-.47.8-.75.49-.27 1.09-.27.72 0 1.28.34t.88.95.33 1.39v.1q0 .82-.32 1.43-.32.62-.88.96t-1.29.34q-.58 0-1.05-.26t-.78-.71v3.06zm2.6-2.88q.5 0 .89-.24t.61-.67.23-1.03v-.1q0-.85-.49-1.37t-1.24-.52q-.51 0-.9.24-.4.25-.63.69-.23.45-.23 1.04t.23 1.03.63.69.9.24m6.65.79q-.78 0-1.38-.35t-.93-.96-.34-1.42v-.11q0-.77.31-1.37t.87-.95 1.3-.35q.76 0 1.3.37.54.38.79 1.05.26.68.15 1.6h-3.82q.03.47.25.85.23.38.62.6.39.23.92.23.42 0 .74-.1t.57-.32l.5.55q-.31.33-.78.5-.48.18-1.07.18m-.17-4.74q-.66 0-1.07.42t-.5 1.11h2.97q-.02-.73-.4-1.13t-1-.4m2.84 6.21 4.08-9.93h.91l-4.09 9.93zM968 940q-.54 0-.88-.35t-.34-.87v-6.48h.93v6.23q0 .25.17.41.16.17.42.17h3.07v.89zm6.79.11q-.76 0-1.36-.35-.59-.34-.93-.96t-.34-1.42v-.1q0-.78.34-1.39t.93-.95q.6-.34 1.36-.34t1.35.34.94.94.34 1.38v.12q0 .81-.34 1.42-.35.62-.94.96-.59.35-1.35.35m0-.79q.51 0 .9-.25t.62-.68.22-1.01v-.12q0-.82-.49-1.35-.48-.52-1.25-.52-.51 0-.9.24-.4.25-.63.67t-.22.98v.1q0 .57.22 1.01.23.43.63.68.39.25.9.25m4.36.68v-5.29h.86v.85q.32-.55.82-.76t.93-.2q.89 0 1.45.58.55.57.55 1.71V940h-.89v-2.98q0-.85-.38-1.23t-.96-.38q-.6 0-1.04.42-.45.41-.45 1.2V940zm8.76.11q-.73 0-1.29-.34t-.88-.96-.32-1.43v-.1q0-.79.33-1.39.32-.61.88-.95t1.28-.34q.59 0 1.06.26t.78.71v-3.6h.89V940h-.81v-.96q-.31.51-.81.79-.49.28-1.11.28m.12-.79q.52 0 .91-.24.4-.25.63-.69t.23-1.03-.23-1.04-.63-.69-.91-.24q-.74 0-1.23.52-.48.52-.48 1.37v.1q0 .59.22 1.03.23.44.61.67.39.24.88.24m6.98.79q-.76 0-1.36-.35-.59-.34-.93-.96t-.34-1.42v-.1q0-.78.34-1.39t.93-.95q.6-.34 1.36-.34.75 0 1.35.34.59.34.93.94t.34 1.38v.12q0 .81-.34 1.42-.34.62-.93.96-.6.35-1.35.35m0-.79q.51 0 .9-.25t.61-.68.22-1.01v-.12q0-.82-.48-1.35-.49-.52-1.25-.52-.51 0-.91.24-.39.25-.62.67t-.22.98v.1q0 .57.22 1.01.23.43.62.68.4.25.91.25m4.36.68v-5.29h.86v.85q.32-.55.82-.76t.93-.2q.89 0 1.45.58.55.57.55 1.71V940h-.89v-2.98q0-.85-.38-1.23t-.96-.38q-.61 0-1.05.42-.44.41-.44 1.2V940zm9.46-2.52v-1.21h1.08v1.21zm9.55 2.68q-1.13 0-2-.5-.86-.5-1.35-1.38-.49-.89-.49-2.04v-.17q0-1.15.5-2.04t1.38-1.39 2.03-.5q.72 0 1.34.23t1.12.68l-.64.67q-.38-.35-.84-.52-.47-.16-.97-.16-.87 0-1.54.38-.66.39-1.04 1.07-.37.69-.37 1.58v.17q0 .89.37 1.58.37.68 1.02 1.07.64.38 1.49.38.75 0 1.3-.34.56-.34.86-.92.3-.57.29-1.28h-2.03v-.79h2.95q.12 1.21-.26 2.17t-1.18 1.51q-.81.54-1.94.54m5.16-.16v-7.7h1.25l2.23 4.61 2.21-4.61h1.25v7.7h-.91v-6.49l-2.19 4.65h-.74l-2.18-4.65V940zm10.81 0v-6.84h-2.32v-.86h5.61v.86h-2.34V940zm6.8-1.3v-2.19h-2.18v-.73h2.18v-2.19h.76v2.19h2.18v.73h-2.18v2.19zm5.08 1.3v-.86h2.03v-5.43q0-.24-.15-.4-.15-.15-.39-.15h-1.47v-.86h1.7q.54 0 .88.35t.34.87v5.62h2v.86z"/></svg>