<svg xmlns="http://www.w3.org/2000/svg" width="1080" height="1080" viewBox="0 0 1080 1080"><path fill="#0c322c" d="M0 0h1080v1080H0z"/><path fill="#fff" fill-opacity=".45" d="M890.36 45v-7.26h-2.46V36.6h6.19v1.14h-2.47V45zm8.97.16q-1.45 0-2.32-.77-.87-.76-.87-2.26V36.6h1.25v5.44q0 .96.53 1.45.53.5 1.41.5.89 0 1.43-.5.53-.49.53-1.45V36.6h1.25v5.53q0 1.5-.88 2.26-.87.77-2.33.77m7.37-.16q-.6 0-.98-.38-.39-.39-.39-.99v-5.66q0-.6.39-.99.38-.38.98-.38h3.97v1.14h-3.57q-.23 0-.38.16-.15.15-.15.38v1.96h3.85v1.09h-3.85v1.99q0 .23.15.38.15.16.38.16h3.57V45zm8.71.16q-.91 0-1.59-.34-.67-.34-1.14-.89l.77-.78q.46.49.96.72t1.05.23q.78 0 1.23-.38t.44-.98q0-.44-.23-.72t-.62-.44q-.37-.17-.83-.29-.46-.13-.91-.29-.46-.15-.84-.4-.37-.24-.61-.64t-.23-1.02q0-.77.35-1.33.36-.55 1-.86.65-.31 1.52-.31.78 0 1.4.27t1.03.73l-.79.8q-.36-.37-.76-.55-.39-.19-.9-.19-.73 0-1.17.37-.45.36-.45.95 0 .42.24.67t.62.41.84.27.92.26.84.41q.38.25.62.66t.23 1.06q0 .8-.38 1.38-.37.58-1.05.9-.67.32-1.56.32m5.4-.16v-8.4h2.93q1.18 0 2.11.52.94.52 1.48 1.44t.54 2.12v.13q0 .93-.31 1.69-.31.77-.88 1.33-.56.56-1.31.86-.75.31-1.63.31zm2.84-7.22h-1.59v6.04h1.59q.85 0 1.51-.37.67-.38 1.05-1.06.39-.68.39-1.58v-.13q0-.86-.38-1.52t-1.04-1.02-1.53-.36m5.56 7.22 3.14-8.4h1.52L937 45h-1.28l-.79-2.17h-3.64L930.5 45zm2.46-3.24h2.87l-1.43-3.94zm8.52 3.24v-3.52l-3.02-4.88h1.36l2.29 3.68 2.3-3.68h1.36l-3.03 4.88V45zm4.78 0v-1.48h1.42v2.25q0 .39-.16.61t-.4.3-.48.08h-.43v-.68h.43q.15 0 .23-.1.07-.09.07-.22V45zm6.68 0v-1.14h1.78q.32 0 .54-.22.22-.21.22-.54v-5.36h-2.14V36.6h3.4v6.38q0 .99-.55 1.5-.55.52-1.58.52zm9.82.16q-1.45 0-2.32-.77-.87-.76-.87-2.26V36.6h1.25v5.44q0 .96.52 1.45.53.5 1.42.5t1.42-.5.54-1.45V36.6h1.24v5.53q0 1.5-.87 2.26-.88.77-2.33.77m7.4-.16q-.58 0-.97-.38-.39-.39-.39-.99V36.6h1.24v6.68q0 .23.16.39.16.15.38.15h3.38V45zm6.75 0v-3.52l-3.03-4.88h1.36l2.29 3.68 2.31-3.68h1.35l-3.02 4.88V45zm9.97 0 3.74-7.28h-4.46V36.6h5.83v.85L986.98 45zm7.38 0v-1.48h1.42v2.25q0 .39-.16.61t-.4.3-.48.08h-.43v-.68h.43q.15 0 .23-.1.07-.09.07-.22V45zm7.16 0v-.92l3.02-3.05q.6-.59.81-1.05t.22-.91q0-.65-.39-1.03t-1.06-.38q-.56 0-1.03.3t-.85.86l-.81-.78q.48-.73 1.18-1.15t1.54-.41q.81 0 1.41.31.61.31.94.87.34.56.34 1.29 0 .64-.31 1.31t-1.12 1.49l-2.12 2.13h3.89V45zm10.98.12q-1.45 0-2.28-1.13-.82-1.14-.82-3.18t.82-3.19 2.28-1.14q1.47 0 2.29 1.14t.82 3.19-.82 3.18-2.29 1.13m0-1.13q.89 0 1.38-.81t.48-2.37-.48-2.38q-.49-.82-1.38-.82t-1.37.82-.49 2.38q0 1.55.49 2.37.49.81 1.37.81m5.34 1.01v-.92l3.02-3.05q.6-.59.81-1.05t.22-.91q0-.65-.39-1.03t-1.06-.38q-.56 0-1.03.3t-.85.86l-.81-.78q.48-.73 1.18-1.15t1.54-.41q.81 0 1.41.31.61.31.94.87.34.56.34 1.29 0 .64-.31 1.31t-1.12 1.49l-2.12 2.13h3.89V45zm11.06.12q-.93 0-1.61-.35-.67-.36-1.05-1.01-.37-.64-.37-1.52 0-.58.23-1.15t.62-1.14l2.33-3.35h1.49l-2.27 3.08q.41-.15.88-.15.8 0 1.42.36t.97.98q.34.63.34 1.44 0 .85-.37 1.48-.38.63-1.05.98-.68.35-1.56.35m-.03-1.08q.78 0 1.27-.48.48-.48.48-1.25t-.48-1.25q-.49-.49-1.24-.49-.8 0-1.28.49-.49.48-.49 1.25 0 .78.48 1.26.48.47 1.26.47"/><path fill="#30ba78" d="M28.51 441.5v-44.54q0-6.72 3.07-11.81 3.08-5.09 8.5-7.97t12.43-2.88h11.71v18.72H53.76q-2.11 0-3.26 1.25-1.16 1.25-1.16 3.36v9.41h14.88v34.46zm41.28 0v-44.54q0-6.72 3.07-11.81 3.08-5.09 8.5-7.97t12.43-2.88h11.71v18.72H95.04q-2.11 0-3.26 1.25-1.16 1.25-1.16 3.36v9.41h14.88v34.46z"/><path fill="#fff" d="M31.28 539.3v-56h7.12l17.36 34.88 17.28-34.88h7.12v56h-5.2v-49.04l-17.04 34.96h-4.4l-16.96-34.96v49.04zm71.84.8q-6.64 0-10.56-3.12t-3.92-8.16q0-3.36 1.92-5.92t5.32-4.04 7.8-1.48q3.52 0 6.2.84t4.52 2.36v-5.92q0-5.2-2.64-7.48t-7.12-2.28q-3.2 0-6.52 1.16t-5.56 3.72l-2.48-3.6q2.56-2.96 6.56-4.44t8.24-1.48q6.56 0 10.56 3.52t4 10.64v12.16q0 6.4.24 12.72h-4.56l-.08-4.16q-3.44 4.96-11.92 4.96m1.2-3.92q4.88 0 7.48-2.08t2.6-5.28q0-3.28-2.64-5.28t-7.52-2q-4.8 0-7.6 2t-2.8 5.28q0 3.2 2.8 5.28t7.68 2.08m20.48 19.12v-4.4h7.28q2 0 3.16-1.4t1.88-3.24l2.96-6.64-15.84-38.56h5.6l12.96 32.32 12.56-32.32h5.6l-18.64 45.36q-.88 2.16-2.12 4.2t-3.24 3.36-5.12 1.32zm51.92 0v-4.4H184q2 0 3.16-1.4t1.88-3.24l2.96-6.64-15.84-38.56h5.6l12.96 32.32 12.56-32.32h5.6l-18.64 45.36q-.88 2.16-2.12 4.2t-3.24 3.36-5.12 1.32zm57.44-15.2q-5.44 0-9.68-2.52t-6.64-6.96-2.4-10.28v-.72q0-5.68 2.4-10.04t6.64-6.84 9.68-2.48q5.36 0 9.6 2.48t6.64 6.8 2.4 9.92v.88q0 5.84-2.4 10.28t-6.64 6.96-9.6 2.52m0-4.56q4 0 7.04-1.96t4.76-5.36 1.72-7.88v-.88q0-4.32-1.72-7.6t-4.76-5.16-7.04-1.88-7.08 1.92-4.84 5.24-1.76 7.64v.72q0 4.48 1.76 7.88t4.84 5.36 7.08 1.96m41.28 4.56q-4.24 0-7.6-1.64t-5.28-5.12-1.92-9.16v-23.12h5.04v22.32q0 6.72 3.04 9.36t7.6 2.64q3.12 0 5.76-1.4t4.28-4.16 1.64-7v-21.76h4.96v38.24h-4.64v-6.32q-2.32 4-6 5.56t-6.88 1.56m28.56-.8v-38.24h4.96v6.24q1.44-3.68 4.28-5t6.44-1.32h3.28v5.04h-3.68q-4.72 0-7.44 2.44t-2.72 7.64v23.2zm57.84.8q-5.68 0-10.08-2.48t-6.88-6.84-2.48-10.12v-1.04q0-5.68 2.52-10.04t6.88-6.84 10.04-2.48q4.16 0 7.52 1.48t5.76 4.12l-3.2 3.2q-3.92-4.08-10.16-4.08-4.16 0-7.4 1.84t-5.08 5.16-1.84 7.64v1.04q0 4.4 1.88 7.72t5.12 5.16 7.4 1.84q6.24 0 10.24-4.08l3.12 3.2q-2.4 2.64-5.8 4.12t-7.56 1.48m20.64-.8v-58.4h4.88v26.96q1.52-2.88 3.8-4.52t4.76-2.36 4.64-.72q6.48 0 10.56 4.12t4.08 12.6v22.32h-5.12v-21.68q0-6.72-3.04-9.68t-7.68-2.96q-3.2 0-5.88 1.44t-4.28 4.24-1.6 7.04v21.6zm59.28.8q-5.44 0-9.68-2.52t-6.64-6.96-2.4-10.28v-.72q0-5.68 2.4-10.04t6.64-6.84 9.68-2.48q5.36 0 9.6 2.48t6.64 6.8 2.4 9.92v.88q0 5.84-2.4 10.28t-6.64 6.96-9.6 2.52m0-4.56q4 0 7.04-1.96t4.76-5.36 1.72-7.88v-.88q0-4.32-1.72-7.6t-4.76-5.16-7.04-1.88-7.08 1.92-4.84 5.24-1.76 7.64v.72q0 4.48 1.76 7.88t4.84 5.36 7.08 1.96m29.2 3.76v-33.76h-7.68v-4.48H476v38.24zm-.32-47.04v-8.64h5.68v8.64zm33.28 47.84q-5.68 0-10.08-2.48t-6.88-6.84-2.48-10.12v-1.04q0-5.68 2.52-10.04t6.88-6.84 10.04-2.48q4.16 0 7.52 1.48t5.76 4.12l-3.2 3.2q-3.92-4.08-10.16-4.08-4.16 0-7.4 1.84t-5.08 5.16-1.84 7.64v1.04q0 4.4 1.88 7.72t5.12 5.16 7.4 1.84q6.24 0 10.24-4.08l3.12 3.2q-2.4 2.64-5.8 4.12t-7.56 1.48m35.92 0q-5.6 0-9.92-2.52t-6.72-6.96-2.4-10.28v-.8q0-5.6 2.24-9.92t6.2-6.84 9.24-2.52q5.36 0 9.2 2.64t5.64 7.44 1.08 11.2h-28.56q.16 3.92 1.96 7.08t4.92 4.96 7.28 1.8q6.32 0 9.92-3.12l2.88 3.28q-2.16 2.16-5.56 3.36t-7.4 1.2m-1.36-35.36q-5.28 0-8.6 3.44t-3.96 9.12h23.68q.08-5.76-3-9.16t-8.12-3.4m34.24 35.28q-4 0-7.68-1.28t-5.92-3.44l2.32-3.52q2.08 1.92 5.12 3.04t6.16 1.12q3.92 0 6.4-1.84t2.48-4.88q0-2.48-1.52-3.84t-3.96-2.08-5.12-1.4-5.08-1.76-3.92-3.08-1.52-5.6q0-4.96 3.68-8.08t9.84-3.12q3.52 0 6.6 1.08t5.4 2.84l-2.32 3.6q-2-1.6-4.48-2.48t-5.28-.88q-3.84 0-6.2 1.84t-2.36 4.8q0 2.48 1.52 3.8t3.96 2.08 5.16 1.44 5.16 1.8 3.96 3.2 1.52 5.68q0 4.8-3.88 7.88t-10.04 3.08m39.52-.72v-38.24h4.96v6.24q1.44-3.68 4.28-5t6.44-1.32h3.28v5.04h-3.68q-4.72 0-7.44 2.44t-2.72 7.64v23.2zm39.76.8q-5.6 0-9.92-2.52t-6.72-6.96-2.4-10.28v-.8q0-5.6 2.24-9.92t6.2-6.84 9.24-2.52q5.36 0 9.2 2.64t5.64 7.44 1.08 11.2H638q.16 3.92 1.96 7.08t4.92 4.96 7.28 1.8q6.32 0 9.92-3.12l2.88 3.28q-2.16 2.16-5.56 3.36t-7.4 1.2m-1.36-35.36q-5.28 0-8.6 3.44t-3.96 9.12h23.68q.08-5.76-3-9.16t-8.12-3.4m26.4 34.56v-33.76h-7.28v-4.48h7.28v-10.48q0-4.4 2.8-7.04t7.2-2.64h5.84v4.4h-5.84q-2.16 0-3.56 1.4t-1.4 3.48v10.88h17.68V480.9h5.04v49.12q0 2.08 1.4 3.48t3.48 1.4h3.44v4.4h-3.68q-4.32 0-7-2.56t-2.68-6.8v-24.4h-17.68v33.76zm57.6.8q-5.6 0-9.92-2.52t-6.72-6.96-2.4-10.28v-.8q0-5.6 2.24-9.92t6.2-6.84 9.24-2.52q5.36 0 9.2 2.64t5.64 7.44 1.08 11.2h-28.56q.16 3.92 1.96 7.08t4.92 4.96 7.28 1.8q6.32 0 9.92-3.12l2.88 3.28q-2.16 2.16-5.56 3.36t-7.4 1.2m-1.36-35.36q-5.28 0-8.6 3.44t-3.96 9.12h23.68q.08-5.76-3-9.16t-8.12-3.4m40.88 35.36q-5.68 0-10.08-2.48t-6.88-6.84-2.48-10.12v-1.04q0-5.68 2.52-10.04t6.88-6.84 10.04-2.48q4.16 0 7.52 1.48t5.76 4.12l-3.2 3.2q-3.92-4.08-10.16-4.08-4.16 0-7.4 1.84t-5.08 5.16-1.84 7.64v1.04q0 4.4 1.88 7.72t5.12 5.16 7.4 1.84q6.24 0 10.24-4.08l3.12 3.2q-2.4 2.64-5.8 4.12t-7.56 1.48m32.88-.8q-2.56 0-4.8-1.04t-3.68-3.16-1.44-5.48v-24.08H790v-4.48h7.12v-9.52h5.04v9.52h10.64v4.48h-10.64v24.4q0 2.16 1.44 3.56t3.52 1.4h5.68v4.4zm24.4 16v-4.4h7.28q2 0 3.16-1.4t1.88-3.24l2.96-6.64-15.84-38.56h5.6l12.96 32.32L862 501.06h5.6l-18.64 45.36q-.88 2.16-2.12 4.2t-3.24 3.36-5.12 1.32zm57.44-15.2q-5.44 0-9.68-2.52t-6.64-6.96-2.4-10.28v-.72q0-5.68 2.4-10.04t6.64-6.84 9.68-2.48q5.36 0 9.6 2.48t6.64 6.8 2.4 9.92v.88q0 5.84-2.4 10.28t-6.64 6.96-9.6 2.52m0-4.56q4 0 7.04-1.96t4.76-5.36 1.72-7.88v-.88q0-4.32-1.72-7.6t-4.76-5.16-7.04-1.88-7.08 1.92-4.84 5.24-1.76 7.64v.72q0 4.48 1.76 7.88t4.84 5.36 7.08 1.96m41.28 4.56q-4.24 0-7.6-1.64t-5.28-5.12-1.92-9.16v-23.12h5.04v22.32q0 6.72 3.04 9.36t7.6 2.64q3.12 0 5.76-1.4t4.28-4.16 1.64-7v-21.76h4.96v38.24h-4.64v-6.32q-2.32 4-6 5.56t-6.88 1.56m28.56-.8v-38.24h4.96v6.24q1.44-3.68 4.28-5t6.44-1.32h3.28v5.04H974q-4.72 0-7.44 2.44t-2.72 7.64v23.2zm-928.4 97.59v-58.4h4.88v26.96q1.52-2.88 3.8-4.52t4.76-2.36 4.64-.72q6.48 0 10.56 4.12t4.08 12.6v22.32h-5.12v-21.68q0-6.72-3.04-9.68t-7.68-2.96q-3.2 0-5.88 1.44t-4.28 4.24-1.6 7.04v21.6zm59.28.8q-5.44 0-9.68-2.52t-6.64-6.96-2.4-10.28v-.72q0-5.68 2.4-10.04t6.64-6.84 9.68-2.48q5.36 0 9.6 2.48t6.64 6.8 2.4 9.92v.88q0 5.84-2.4 10.28t-6.64 6.96-9.6 2.52m0-4.56q4 0 7.04-1.96t4.76-5.36 1.72-7.88v-.88q0-4.32-1.72-7.6t-4.76-5.16-7.04-1.88-7.08 1.92-4.84 5.24-1.76 7.64v.72q0 4.48 1.76 7.88t4.84 5.36 7.08 1.96m27.04 19.76v-54.24h4.8v7.68q2.24-3.92 5.96-6.2t8.44-2.28q5.2 0 9.24 2.48t6.36 6.84 2.32 10.04v.72q0 5.84-2.28 10.32t-6.32 6.96-9.32 2.48q-4.56 0-8.24-2.16t-5.84-5.92v23.28zm18.56-19.76q3.92 0 6.96-1.88t4.76-5.32 1.72-8v-.72q0-4.4-1.72-7.72t-4.76-5.2-6.96-1.88-7.04 1.96-4.92 5.4-1.8 8q0 4.64 1.8 8.08t4.92 5.36 7.04 1.92m43.36 4.56q-5.6 0-9.92-2.52t-6.72-6.96-2.4-10.28v-.8q0-5.6 2.24-9.92t6.2-6.84 9.24-2.52q5.36 0 9.2 2.64t5.64 7.44 1.08 11.2h-28.56q.16 3.92 1.96 7.08t4.92 4.96 7.28 1.8q6.32 0 9.92-3.12l2.88 3.28q-2.16 2.16-5.56 3.36t-7.4 1.2m-1.36-35.36q-5.28 0-8.6 3.44t-3.96 9.12h23.68q.08-5.76-3-9.16t-8.12-3.4m34.24 35.28q-4 0-7.68-1.28t-5.92-3.44l2.32-3.52q2.08 1.92 5.12 3.04t6.16 1.12q3.92 0 6.4-1.84t2.48-4.88q0-2.48-1.52-3.84t-3.96-2.08-5.12-1.4-5.08-1.76-3.92-3.08-1.52-5.6q0-4.96 3.68-8.08t9.84-3.12q3.52 0 6.6 1.08t5.4 2.84l-2.32 3.6q-2-1.6-4.48-2.48t-5.28-.88q-3.84 0-6.2 1.84t-2.36 4.8q0 2.48 1.52 3.8t3.96 2.08 5.16 1.44 5.16 1.8 3.96 3.2 1.52 5.68q0 4.8-3.88 7.88t-10.04 3.08m20.24-.72v-7.36H238v13.44q0 2.96-1.76 4.2t-3.84 1.24h-2.24v-3.2h2.24q1.04 0 1.6-.64t.56-1.68v-6zm30.88 0v-38.24h4.88v6.8q1.52-2.88 3.8-4.52t4.76-2.36 4.64-.72q6.48 0 10.56 4.12t4.08 12.6v22.32h-5.12v-21.68q0-6.72-3.04-9.68t-7.68-2.96q-3.2 0-5.88 1.44t-4.28 4.24-1.6 7.04v21.6zm59.28.8q-5.44 0-9.68-2.52t-6.64-6.96-2.4-10.28v-.72q0-5.68 2.4-10.04t6.64-6.84 9.68-2.48q5.36 0 9.6 2.48t6.64 6.8 2.4 9.92v.88q0 5.84-2.4 10.28t-6.64 6.96-9.6 2.52m0-4.56q4 0 7.04-1.96t4.76-5.36 1.72-7.88v-.88q0-4.32-1.72-7.6t-4.76-5.16-7.04-1.88-7.08 1.92-4.84 5.24-1.76 7.64v.72q0 4.48 1.76 7.88t4.84 5.36 7.08 1.96m38.64 3.76q-2.56 0-4.8-1.04t-3.68-3.16-1.44-5.48v-24.08h-7.12v-4.48h7.12v-9.52h5.04v9.52h10.64v4.48H355.6v24.4q0 2.16 1.44 3.56t3.52 1.4h5.68v4.4zm24.4 16v-4.4h7.28q2 0 3.16-1.4t1.88-3.24l2.96-6.64-15.84-38.56h5.6l12.96 32.32 12.56-32.32h5.6l-18.64 45.36q-.88 2.16-2.12 4.2t-3.24 3.36-5.12 1.32zm57.44-15.2q-5.44 0-9.68-2.52t-6.64-6.96-2.4-10.28v-.72q0-5.68 2.4-10.04t6.64-6.84 9.68-2.48q5.36 0 9.6 2.48t6.64 6.8 2.4 9.92v.88q0 5.84-2.4 10.28t-6.64 6.96-9.6 2.52m0-4.56q4 0 7.04-1.96t4.76-5.36 1.72-7.88v-.88q0-4.32-1.72-7.6t-4.76-5.16-7.04-1.88-7.08 1.92-4.84 5.24-1.76 7.64v.72q0 4.48 1.76 7.88t4.84 5.36 7.08 1.96m41.28 4.56q-4.24 0-7.6-1.64t-5.28-5.12-1.92-9.16v-23.12h5.04v22.32q0 6.72 3.04 9.36t7.6 2.64q3.12 0 5.76-1.4t4.28-4.16 1.64-7v-21.76h4.96v38.24h-4.64v-6.32q-2.32 4-6 5.56t-6.88 1.56m28.56-.8v-38.24h4.96v6.24q1.44-3.68 4.28-5t6.44-1.32h3.28v5.04h-3.68q-4.72 0-7.44 2.44t-2.72 7.64v23.2zm42.8 0v-33.76h-7.28v-4.48h7.28v-10.48q0-4.4 2.8-7.04t7.2-2.64h6.32v4.4h-6.32q-2.16 0-3.56 1.4t-1.4 3.48v10.88h11.28v4.48H560v33.76zm36.8.8q-5.6 0-9.92-2.52t-6.72-6.96-2.4-10.28v-.8q0-5.6 2.24-9.92t6.2-6.84 9.24-2.52q5.36 0 9.2 2.64t5.64 7.44 1.08 11.2h-28.56q.16 3.92 1.96 7.08t4.92 4.96 7.28 1.8q6.32 0 9.92-3.12l2.88 3.28q-2.16 2.16-5.56 3.36t-7.4 1.2m-1.36-35.36q-5.28 0-8.6 3.44t-3.96 9.12h23.68q.08-5.76-3-9.16t-8.12-3.4m35.44 35.36q-6.64 0-10.56-3.12t-3.92-8.16q0-3.36 1.92-5.92t5.32-4.04 7.8-1.48q3.52 0 6.2.84t4.52 2.36v-5.92q0-5.2-2.64-7.48t-7.12-2.28q-3.2 0-6.52 1.16t-5.56 3.72l-2.48-3.6q2.56-2.96 6.56-4.44t8.24-1.48q6.56 0 10.56 3.52t4 10.64v12.16q0 6.4.24 12.72h-4.56l-.08-4.16q-3.44 4.96-11.92 4.96m1.2-3.92q4.88 0 7.48-2.08t2.6-5.28q0-3.28-2.64-5.28t-7.52-2q-4.8 0-7.6 2t-2.8 5.28q0 3.2 2.8 5.28t7.68 2.08m25.76 3.12v-38.24h4.96v6.24q1.44-3.68 4.28-5t6.44-1.32h3.28v5.04h-3.68q-4.72 0-7.44 2.44t-2.72 7.64v23.2zm34.4.72q-4 0-7.68-1.28t-5.92-3.44l2.32-3.52q2.08 1.92 5.12 3.04t6.16 1.12q3.92 0 6.4-1.84t2.48-4.88q0-2.48-1.52-3.84t-3.96-2.08-5.12-1.4-5.08-1.76-3.92-3.08-1.52-5.6q0-4.96 3.68-8.08t9.84-3.12q3.52 0 6.6 1.08t5.4 2.84l-2.32 3.6q-2-1.6-4.48-2.48t-5.28-.88q-3.84 0-6.2 1.84t-2.36 4.8q0 2.48 1.52 3.8t3.96 2.08 5.16 1.44 5.16 1.8 3.96 3.2 1.52 5.68q0 4.8-3.88 7.88t-10.04 3.08m20.8-.72v-7.36h6.16v7.36z"/><path fill="#30ba78" d="M24.86 698.43v-1.94h16.2v1.94zm22.83 4.05v-12.6h2l5.81 8.69v-8.69h2.21v12.6h-1.96l-5.87-8.73v8.73zm16.5.18q-1.31 0-2.31-.57t-1.56-1.58q-.55-1.02-.55-2.37v-.18q0-1.24.51-2.25t1.46-1.59q.94-.59 2.2-.59 1.32 0 2.25.64.94.64 1.37 1.81t.23 2.76h-5.97q.11.91.75 1.52.63.6 1.73.6.65 0 1.12-.18t.84-.54l1.17 1.22q-.52.65-1.35.98t-1.89.32m-.23-7.45q-.92 0-1.44.57t-.67 1.48h3.96q-.03-.97-.55-1.51-.51-.54-1.3-.54m8.48 7.27q-1.19 0-1.9-.65t-.71-1.78v-8.95h-1.46v-1.76h3.53v10.75q0 .28.19.47t.47.19h.92v1.73zm5.47.16q-1.04 0-1.92-.3-.87-.31-1.45-.76l.9-1.42q.53.38 1.17.62t1.3.24 1.03-.27q.39-.27.39-.7t-.31-.65-.82-.35l-1.07-.28q-.57-.14-1.07-.41t-.83-.77-.33-1.3q0-1.21.92-1.98.92-.78 2.47-.78.86 0 1.64.24t1.38.65l-.92 1.38q-1-.68-2.12-.68-.63 0-1.01.28t-.38.71q0 .39.34.62.33.22.84.36.52.13 1.09.3t1.09.44.85.77.33 1.31-.45 1.42-1.24.96-1.82.35m9.45.02q-1.28 0-2.3-.58-1.03-.57-1.62-1.59t-.6-2.33V698q0-1.32.6-2.32.59-1.01 1.62-1.58 1.02-.57 2.3-.57t2.3.57 1.61 1.58.59 2.3v.18q0 1.31-.59 2.33-.6 1.02-1.61 1.59t-2.3.58m0-1.84q1.08 0 1.75-.74.68-.75.68-1.92v-.18q0-1.15-.68-1.88-.67-.73-1.75-.73-1.06 0-1.75.74t-.68 1.89v.16q0 1.17.68 1.92.69.74 1.75.74m6.53 1.66v-8.77h2v1.12q.54-.77 1.29-1.03.75-.27 1.36-.27 1.47 0 2.37.97.89.96.89 2.76v5.22h-2.07v-4.88q0-1.15-.5-1.66-.49-.52-1.27-.52-.84 0-1.42.57t-.58 1.65v4.84zm14.76 0v-12.6h2.96l3.09 6.88 3.08-6.88h2.97v12.6h-2.16v-9.7l-3.06 7.02h-1.66l-3.07-7.02v9.7zm17.37.18q-1.49 0-2.37-.73t-.88-1.88q0-1.17.96-1.93.96-.77 2.56-.77 1.21 0 2 .43v-.84q0-.87-.48-1.23-.49-.36-1.25-.36-.66 0-1.37.25-.71.26-1.22.72l-.93-1.4q.57-.65 1.57-1.02t2.08-.37q1.62 0 2.64.84 1.01.84 1.01 2.46v2.82l.01 1.43q.01.7.05 1.4h-1.84l-.02-.9q-.73 1.08-2.52 1.08m.58-1.53q.77 0 1.24-.32.47-.33.47-.85 0-.5-.47-.83t-1.26-.32q-.77 0-1.25.32-.48.33-.48.83 0 .52.48.85t1.27.32m6.25 1.35v-8.77h1.99v1.12q.54-.77 1.29-1.03.75-.27 1.36-.27 1.48 0 2.37.97.89.96.89 2.76v5.22h-2.07v-4.88q0-1.15-.5-1.66-.49-.52-1.27-.52-.84 0-1.42.57-.57.57-.57 1.65v4.84zm13.98.18q-1.19 0-2.12-.56t-1.48-1.56-.54-2.36V698q0-1.32.55-2.32.55-1.01 1.49-1.58t2.12-.57q.81 0 1.49.31t1.17.85v-5.35h2.07v13.14h-1.87v-1.19q-.52.65-1.26 1.01t-1.62.36m.33-1.82q1.06 0 1.77-.74.71-.73.71-1.99 0-1.28-.71-2.01t-1.77-.73q-.99 0-1.7.7-.7.7-.7 1.93v.18q0 1.22.7 1.94.71.72 1.7.72m10.9 1.82q-1.31 0-2.31-.57t-1.56-1.58-.55-2.37v-.18q0-1.24.51-2.25t1.46-1.59 2.2-.59q1.32 0 2.25.64.94.64 1.37 1.81t.23 2.76h-5.97q.11.91.75 1.52.63.6 1.73.6.65 0 1.12-.18t.84-.54l1.17 1.22q-.52.65-1.35.98t-1.89.32m-.23-7.45q-.92 0-1.44.57t-.67 1.48h3.96q-.03-.97-.54-1.51-.52-.54-1.31-.54m8.48 7.27q-1.19 0-1.9-.65t-.71-1.78v-8.95h-1.46v-1.76h3.53v10.75q0 .28.19.47t.47.19h.92v1.73zm5.47.18q-1.49 0-2.38-.73t-.88-1.88q0-1.17.96-1.93.97-.77 2.57-.77 1.21 0 2 .43v-.84q0-.87-.49-1.23-.48-.36-1.24-.36-.67 0-1.38.25-.71.26-1.21.72l-.94-1.4q.58-.65 1.58-1.02t2.08-.37q1.62 0 2.63.84 1.02.84 1.02 2.46v2.82l.01 1.43.04 1.4h-1.83l-.02-.9q-.74 1.08-2.52 1.08m.58-1.53q.77 0 1.24-.32.47-.33.47-.85 0-.5-.47-.83t-1.26-.32-1.25.32q-.48.33-.48.83 0 .52.48.85.47.32 1.27.32"/></svg>