<svg xmlns="http://www.w3.org/2000/svg" width="1080" height="1080" viewBox="0 0 1080 1080"><path fill="#0c322c" d="M232.01 498.3v-6.91h6.16v-23.98h-6.16v-6.91h20.04v6.91h-6.16v23.98h6.16v6.91zm24.73 0v-26.46h6.92v2.92q1.51-2.06 3.53-2.76 2.03-.7 3.86-.7 2.43 0 4.35.97t3.11 2.92q1.18-1.57 2.72-2.4 1.54-.84 3.03-1.17t2.67-.32q4.27 0 6.99 2.75t2.73 8.05v16.2h-7.13v-15.12q0-2.81-1.21-4.08-1.22-1.27-3.27-1.27t-3.4 1.41-1.35 3.89v15.17h-7.18v-15.12q0-2.81-1.19-4.08t-3.19-1.27q-2.1 0-3.48 1.41-1.38 1.4-1.38 3.89v15.17zm46.34 10.8v-37.26h6.69v2.75q1.51-1.56 3.57-2.43 2.05-.86 4.37-.86 3.56 0 6.4 1.7 2.83 1.7 4.51 4.75t1.67 7.05v.54q0 4.05-1.64 7.1-1.65 3.05-4.46 4.73-2.81 1.67-6.43 1.67-2.21 0-4.1-.76-1.89-.75-3.4-2.16v13.18zm13.55-16.52q2.65 0 4.56-1.92 1.92-1.92 1.92-5.32v-.54q0-3.4-1.92-5.32-1.91-1.92-4.56-1.92-2.92 0-4.89 2t-1.97 5.51q0 3.56 1.97 5.54 1.97 1.97 4.89 1.97m31.16 6.26q-3.94 0-7.08-1.73-3.13-1.73-4.96-4.78-1.84-3.05-1.84-7.04v-.54q0-3.95 1.84-6.97 1.83-3.02 4.96-4.75 3.14-1.73 7.08-1.73 3.89 0 7.02 1.73t4.94 4.75 1.81 6.97v.54q0 3.99-1.81 7.04t-4.94 4.78-7.02 1.73m0-6.26q2.91 0 4.75-2.06 1.84-2.05 1.84-5.23v-.54q0-3.14-1.84-5.16t-4.75-2.03q-2.97 0-4.83 2.03-1.87 2.02-1.87 5.16v.54q0 3.18 1.87 5.23 1.86 2.06 4.83 2.06m18.9 5.72v-26.46h6.96v3.67q.98-2.21 2.84-3.05t4.18-.84h2.06v7.08h-2.7q-2.97 0-4.57 1.29-1.59 1.3-1.59 3.73v14.58zm30.94 0q-1.94 0-3.91-.65t-3.33-2.4-1.35-5.1v-12.26h-4.26v-6.05h4.26v-6.43h7.19v6.43H402v6.05h-5.77v12.85q0 .65.43 1.08t1.08.43H402v6.05zm29.32.54q-4.43 0-7.1-2.19t-2.67-5.69q0-3.57 2.86-5.84 2.86-2.26 7.94-2.26 3.29 0 5.56 1.02v-2.16q0-2.32-1.35-3.26-1.35-.95-3.4-.95-1.95 0-4.05.73-2.11.73-3.62 2.08l-3.19-4.75q1.79-1.95 4.84-3.11t6.5-1.16q4.97 0 8.16 2.57 3.18 2.56 3.18 7.42v12.8q0 2.1.17 4.21h-6.38v-2.75q-2.1 3.29-7.45 3.29m2-5.18q2.11 0 3.38-.84 1.26-.84 1.26-2.19t-1.26-2.16-3.38-.81q-2.05 0-3.32.81t-1.27 2.16q0 1.3 1.27 2.16t3.32.87m30.35 4.64v-31.37q0-2.81 1.81-4.62t4.61-1.81h18.47v6.91h-15.71q-.65 0-1.11.46t-.46 1.11v8.42h15.99v6.81h-15.99v14.09zm31.64 0v-20.41h-4.59v-6.05h11.77v26.46zm-.32-31.48v-7.56h7.94v7.56zm12.42 42.28v-5.89h16.14q2 0 2-1.78t-2-1.78h-9.5q-2.05 0-3.24-1.05-1.19-1.06-1.38-2.7t.68-3.43l1.62-3.3q-1.95-1.35-3.05-3.32-1.11-1.97-1.11-4.4v-.54q0-2.81 1.51-4.97t4.21-3.4 6.16-1.24h.22l2.26-4.97h7.24l-3.46 6.27q2.6 1.18 4.11 3.34t1.51 4.92v.59q0 2.86-1.51 5.11-1.51 2.24-4.19 3.48-2.67 1.24-6.18 1.24-1.03 0-2-.11l-1.02 2.05q-.17.33-.08.6.08.27.51.27h7.77q3.35 0 5.49 1.78 2.13 1.78 2.13 5.62 0 3.29-2.22 5.45-2.21 2.16-5.72 2.16zm12.04-23.22q1.13 0 2.27-.43 1.13-.43 1.86-1.43t.73-2.78q0-1.89-1.35-3.05-1.35-1.17-3.51-1.17t-3.51 1.17-1.35 3.05q0 1.78.76 2.78.75 1 1.86 1.43t2.24.43m17.23 12.42v-26.46h6.91v2.92q1.51-2.06 3.54-2.76 2.02-.7 3.86-.7 2.43 0 4.34.97 1.92.97 3.11 2.92 1.19-1.57 2.73-2.4 1.53-.84 3.02-1.17 1.48-.32 2.67-.32 4.27 0 7 2.75 2.72 2.76 2.72 8.05v16.2h-7.13v-15.12q0-2.81-1.21-4.08-1.22-1.27-3.27-1.27t-3.4 1.41-1.35 3.89v15.17h-7.18v-15.12q0-2.81-1.19-4.08t-3.19-1.27q-2.1 0-3.48 1.41-1.38 1.4-1.38 3.89v15.17zm54.37.54q-4.42 0-7.1-2.19t-2.67-5.69q0-3.57 2.86-5.84 2.86-2.26 7.94-2.26 3.29 0 5.56 1.02v-2.16q0-2.32-1.35-3.26-1.35-.95-3.4-.95-1.94 0-4.05.73t-3.62 2.08l-3.18-4.75q1.78-1.95 4.83-3.11t6.51-1.16q4.96 0 8.15 2.57t3.19 7.42v12.8q0 2.1.16 4.21h-6.37v-2.75q-2.11 3.29-7.46 3.29m2-5.18q2.11 0 3.38-.84t1.27-2.19-1.27-2.16-3.38-.81q-2.05 0-3.32.81t-1.27 2.16q0 1.3 1.27 2.16t3.32.87m42.12 5.18q-3.94 0-7.07-1.73t-4.97-4.78-1.84-7.04v-.54q0-3.95 1.84-6.97t4.97-4.75 7.07-1.73q3.89 0 7.02 1.73t4.94 4.75 1.81 6.97v.54q0 3.99-1.81 7.04t-4.94 4.78-7.02 1.73m0-6.26q2.92 0 4.75-2.06 1.84-2.05 1.84-5.23v-.54q0-3.14-1.84-5.16-1.83-2.03-4.75-2.03-2.97 0-4.83 2.03t-1.86 5.16v.54q0 3.18 1.86 5.23t4.83 2.06m18.9 5.72v-26.46h6.97v3.67q.97-2.21 2.83-3.05 1.87-.84 4.19-.84h2.05v7.08h-2.7q-2.97 0-4.56 1.29-1.6 1.3-1.6 3.73v14.58zm31.48 0v-37.8h13.18q6.21 0 9.91 3.21 3.7 3.22 3.7 8.89t-3.7 8.85-9.91 3.19h-5.51v13.66zm13.56-31.32h-5.89v11.34h5.89q2.64 0 4.18-1.62t1.54-4.1q0-2.43-1.54-4.03-1.54-1.59-4.18-1.59m28.46 31.86q-4.05 0-7.08-1.7-3.02-1.7-4.72-4.75t-1.7-7.16v-.54q0-3.72 1.59-6.77 1.59-3.06 4.45-4.84t6.75-1.78q4.05 0 6.92 1.97 2.86 1.97 4.18 5.56t.73 8.45h-17.44q.27 2.43 1.97 3.97t4.67 1.54q2 0 3.27-.59 1.27-.6 2.35-1.68l4.1 4.22q-1.62 2.05-4.21 3.07-2.59 1.03-5.83 1.03m-.71-21.92q-2.43 0-3.78 1.54-1.35 1.53-1.78 4.02h10.53q-.11-2.7-1.48-4.13-1.38-1.43-3.49-1.43m17.07 21.38v-26.46h6.91v2.97q1.62-2.11 3.78-2.81t3.83-.7q4.49 0 7.16 2.94 2.67 2.95 2.67 8.24v15.82h-7.18v-14.69q0-3.02-1.3-4.4-1.29-1.38-3.4-1.38-2.27 0-3.78 1.52-1.51 1.51-1.51 4.48v14.47zm30.78 10.8v-37.26h6.69v2.75q1.52-1.56 3.57-2.43 2.05-.86 4.37-.86 3.57 0 6.4 1.7t4.51 4.75q1.67 3.05 1.67 7.05v.54q0 4.05-1.64 7.1-1.65 3.05-4.46 4.73-2.81 1.67-6.42 1.67-2.22 0-4.11-.76-1.89-.75-3.4-2.16v13.18zm13.55-16.52q2.65 0 4.57-1.92 1.91-1.92 1.91-5.32v-.54q0-3.4-1.91-5.32-1.92-1.92-4.57-1.92-2.91 0-4.89 2t-1.97 5.51q0 3.56 1.97 5.54 1.98 1.97 4.89 1.97m31.16 6.26q-3.94 0-7.07-1.73t-4.97-4.78-1.84-7.04v-.54q0-3.95 1.84-6.97 1.83-3.02 4.97-4.75t7.07-1.73q3.89 0 7.02 1.73t4.94 4.75 1.81 6.97v.54q0 3.99-1.81 7.04t-4.94 4.78-7.02 1.73m0-6.26q2.92 0 4.75-2.06 1.84-2.05 1.84-5.23v-.54q0-3.14-1.84-5.16-1.83-2.03-4.75-2.03-2.97 0-4.83 2.03-1.87 2.02-1.87 5.16v.54q0 3.18 1.87 5.23 1.86 2.06 4.83 2.06m29.05 5.72q-1.94 0-3.91-.65t-3.32-2.4-1.35-5.1v-12.26h-4.27v-6.05h4.27v-6.43h7.18v6.43h5.78v6.05h-5.78v12.85q0 .65.43 1.08t1.08.43h4.27v6.05zm-369.46 61.01q-3.56 0-6.39-1.67-2.84-1.68-4.49-4.73-1.64-3.05-1.64-7.1v-.54q0-4 1.67-7.05t4.51-4.75 6.4-1.7q2.21 0 4.1.76 1.89.75 3.35 2.16v-15.34h7.18v39.42h-6.42v-3.08q-3.24 3.62-8.27 3.62m1.19-6.26q2.86 0 4.83-1.97 1.98-1.98 1.98-5.54 0-3.51-1.98-5.51-1.97-2-4.83-2-2.7 0-4.61 1.92t-1.92 5.32v.54q0 3.4 1.92 5.32 1.91 1.92 4.61 1.92m32.13 6.26q-4.05 0-7.07-1.7t-4.73-4.75q-1.7-3.05-1.7-7.16v-.54q0-3.72 1.6-6.77 1.59-3.06 4.45-4.84t6.75-1.78q4.05 0 6.91 1.97t4.19 5.56.73 8.45h-17.45q.27 2.43 1.98 3.97 1.7 1.54 4.67 1.54 1.99 0 3.26-.59 1.27-.6 2.35-1.68l4.11 4.22q-1.62 2.05-4.22 3.07-2.59 1.03-5.83 1.03m-.7-21.92q-2.43 0-3.78 1.54-1.35 1.53-1.78 4.02h10.53q-.11-2.7-1.49-4.13t-3.48-1.43m25.33 21.81q-3.3 0-5.94-.92-2.65-.91-4.43-2.26l3.02-4.81q1.68 1.08 3.54 1.78t3.81.7q1.67 0 2.7-.67 1.02-.68 1.02-1.76t-.94-1.64q-.95-.57-2.41-.95l-3.13-.81q-1.67-.43-3.13-1.27-1.46-.83-2.4-2.35-.95-1.51-.95-3.99 0-3.73 2.84-6.1 2.83-2.38 7.69-2.38 2.65 0 5.05.7t4.24 1.89l-3.08 4.81q-3.08-1.95-6.32-1.95-1.67 0-2.61.65-.95.65-.95 1.73t.95 1.65 2.45.97l3.22.86q1.7.46 3.21 1.33 1.51.86 2.48 2.4t.97 4.02q0 2.43-1.4 4.35t-3.86 2.97-5.64 1.05m18.36-.43v-20.41h-4.59v-6.05h11.77v26.46zm-.33-31.48v-7.56h7.94v7.56zm12.42 42.28v-5.89h16.15q2 0 2-1.78t-2-1.78h-9.51q-2.05 0-3.24-1.05-1.18-1.06-1.37-2.7t.67-3.43l1.62-3.3q-1.94-1.35-3.05-3.32t-1.11-4.4v-.54q0-2.81 1.52-4.97 1.51-2.16 4.21-3.4t6.15-1.24h.22l2.27-4.97h7.23l-3.45 6.27q2.59 1.18 4.1 3.34t1.51 4.92v.59q0 2.86-1.51 5.11-1.51 2.24-4.18 3.48-2.68 1.24-6.19 1.24-1.02 0-1.99-.11l-1.03 2.05q-.16.33-.08.6t.51.27h7.78q3.35 0 5.48 1.78t2.13 5.62q0 3.29-2.21 5.45-2.22 2.16-5.73 2.16zm12.04-23.22q1.14 0 2.27-.43t1.87-1.43q.72-1 .72-2.78 0-1.89-1.35-3.05-1.35-1.17-3.51-1.17t-3.51 1.17-1.35 3.05q0 1.78.76 2.78t1.86 1.43 2.24.43m17.23 12.42v-26.46h6.91v2.97q1.62-2.11 3.78-2.81t3.84-.7q4.48 0 7.15 2.94 2.67 2.95 2.67 8.24v15.82h-7.18v-14.69q0-3.02-1.29-4.4-1.3-1.38-3.41-1.38-2.26 0-3.78 1.52-1.51 1.51-1.51 4.48v14.47zm-354.56 61q-4.42 0-7.31-2.67-2.89-2.68-2.89-7.97v-16.36h7.13v14.96q0 3.08 1.32 4.29 1.32 1.22 3.37 1.22 2.22 0 3.68-1.41 1.45-1.4 1.45-4.32v-14.74h7.13v26.46h-6.21v-2.92q-1.62 2.11-3.8 2.79-2.19.67-3.87.67m28.84-.11q-3.29 0-5.94-.92-2.65-.91-4.43-2.26l3.03-4.81q1.67 1.08 3.53 1.78 1.87.7 3.81.7 1.67 0 2.7-.67 1.03-.68 1.03-1.76t-.95-1.64q-.94-.57-2.4-.95l-3.13-.81q-1.68-.43-3.14-1.27-1.45-.83-2.4-2.35-.94-1.51-.94-3.99 0-3.73 2.83-6.1 2.84-2.38 7.7-2.38 2.64 0 5.05.7t4.23 1.89l-3.07 4.81q-3.08-1.95-6.32-1.95-1.68 0-2.62.65t-.95 1.73.95 1.65q.94.56 2.46.97l3.21.86q1.7.46 3.21 1.33 1.51.86 2.49 2.4.97 1.54.97 4.02 0 2.43-1.41 4.35-1.4 1.92-3.86 2.97t-5.64 1.05m18.36-.43v-20.41h-4.59v-6.05h11.77v26.46zm-.32-31.48v-7.56h7.93v7.56zm14.2 31.48v-26.46h6.91v2.97q1.62-2.11 3.78-2.81t3.83-.7q4.49 0 7.16 2.94 2.67 2.95 2.67 8.24v15.82H316v-14.69q0-3.02-1.3-4.4-1.29-1.38-3.4-1.38-2.27 0-3.78 1.52-1.51 1.51-1.51 4.48v14.47zm29 10.8v-5.89h16.14q2 0 2-1.78t-2-1.78h-9.5q-2.05 0-3.24-1.05-1.19-1.06-1.38-2.7t.68-3.43l1.62-3.3q-1.95-1.35-3.05-3.32-1.11-1.97-1.11-4.4v-.54q0-2.81 1.51-4.97t4.21-3.4 6.16-1.24h.21l2.27-4.97h7.24l-3.46 6.27q2.59 1.18 4.11 3.34 1.51 2.16 1.51 4.92v.59q0 2.86-1.51 5.11-1.52 2.24-4.19 3.48t-6.18 1.24q-1.03 0-2-.11l-1.03 2.05q-.16.33-.08.6t.52.27h7.77q3.35 0 5.48 1.78t2.14 5.62q0 3.29-2.22 5.45-2.21 2.16-5.72 2.16zm12.04-23.22q1.13 0 2.27-.43 1.13-.43 1.86-1.43t.73-2.78q0-1.89-1.35-3.05-1.35-1.17-3.51-1.17t-3.51 1.17-1.35 3.05q0 1.78.75 2.78.76 1 1.87 1.43 1.1.43 2.24.43m39.36 12.42q-1.94 0-3.91-.65t-3.32-2.4-1.35-5.1v-12.26h-4.27v-6.05h4.27v-6.43h7.18v6.43h5.78v6.05h-5.78v12.85q0 .65.43 1.08t1.08.43h4.27v6.05zm9.62 0v-39.42h6.91v15.93q1.62-2.11 3.78-2.81t3.83-.7q4.48 0 7.16 2.94 2.67 2.95 2.67 8.24v15.82h-7.18v-14.69q0-3.02-1.3-4.4-1.29-1.38-3.4-1.38-2.27 0-3.78 1.52-1.51 1.51-1.51 4.48v14.47zm42.71.54q-4.05 0-7.07-1.7t-4.73-4.75q-1.7-3.05-1.7-7.16v-.54q0-3.72 1.59-6.77 1.6-3.06 4.46-4.84t6.75-1.78q4.05 0 6.91 1.97t4.19 5.56.72 8.45h-17.44q.27 2.43 1.97 3.97t4.67 1.54q2 0 3.27-.59 1.27-.6 2.35-1.68l4.1 4.22q-1.62 2.05-4.21 3.07-2.59 1.03-5.83 1.03m-.7-21.92q-2.43 0-3.78 1.54-1.35 1.53-1.78 4.02h10.53q-.11-2.7-1.49-4.13t-3.48-1.43m27.7 21.38v-6.91h6.16v-23.98h-6.16v-6.91h20.03v6.91h-6.15v23.98h6.15v6.91zm24.73 0v-26.46h6.91v2.92q1.52-2.06 3.54-2.76t3.86-.7q2.43 0 4.35.97t3.1 2.92q1.19-1.57 2.73-2.4 1.54-.84 3.02-1.17 1.49-.32 2.68-.32 4.26 0 6.99 2.75t2.73 8.05v16.2h-7.13v-15.12q0-2.81-1.21-4.08-1.22-1.27-3.27-1.27t-3.4 1.41-1.35 3.89v15.17h-7.19v-15.12q0-2.81-1.18-4.08-1.19-1.27-3.19-1.27-2.11 0-3.48 1.41-1.38 1.4-1.38 3.89v15.17zm46.33 10.8v-37.26h6.7v2.75q1.51-1.56 3.56-2.43 2.06-.86 4.38-.86 3.56 0 6.4 1.7 2.83 1.7 4.51 4.75t1.67 7.05v.54q0 4.05-1.65 7.1-1.64 3.05-4.45 4.73-2.81 1.67-6.43 1.67-2.21 0-4.1-.76-1.89-.75-3.4-2.16v13.18zm13.56-16.52q2.64 0 4.56-1.92t1.92-5.32v-.54q0-3.4-1.92-5.32t-4.56-1.92q-2.92 0-4.89 2t-1.97 5.51q0 3.56 1.97 5.54 1.97 1.97 4.89 1.97m31.16 6.26q-3.95 0-7.08-1.73t-4.97-4.78-1.83-7.04v-.54q0-3.95 1.83-6.97 1.84-3.02 4.97-4.75t7.08-1.73q3.88 0 7.02 1.73t4.94 4.75 1.81 6.97v.54q0 3.99-1.81 7.04t-4.94 4.78-7.02 1.73m0-6.26q2.91 0 4.75-2.06 1.83-2.05 1.83-5.23v-.54q0-3.14-1.83-5.16-1.84-2.03-4.75-2.03-2.97 0-4.84 2.03t-1.86 5.16v.54q0 3.18 1.86 5.23 1.87 2.06 4.84 2.06m18.9 5.72v-26.46h6.96v3.67q.97-2.21 2.84-3.05t4.18-.84h2.05v7.08h-2.7q-2.97 0-4.56 1.29-1.59 1.3-1.59 3.73v14.58zm30.94 0q-1.95 0-3.92-.65t-3.32-2.4-1.35-5.1v-12.26h-4.26v-6.05h4.26v-6.43h7.18v6.43h5.78v6.05h-5.78v12.85q0 .65.44 1.08.43.43 1.08.43h4.26v6.05zm35.96.54q-2.48 0-4.56-.94-2.08-.95-3.65-2.62v3.02h-6.48v-39.42h7.19v15.34q1.45-1.41 3.34-2.16t4.11-.76q3.56 0 6.4 1.7 2.83 1.7 4.51 4.75t1.67 7.05v.54q0 4.05-1.65 7.1-1.64 3.05-4.45 4.73-2.81 1.67-6.43 1.67m-1.13-6.26q2.64 0 4.56-1.92t1.92-5.32v-.54q0-3.4-1.92-5.32t-4.56-1.92q-2.92 0-4.89 2t-1.97 5.51q0 3.56 1.97 5.54 1.97 1.97 4.89 1.97m28.78 6.26q-4.43 0-7.32-2.67-2.89-2.68-2.89-7.97v-16.36h7.13v14.96q0 3.08 1.33 4.29 1.32 1.22 3.37 1.22 2.21 0 3.67-1.41 1.46-1.4 1.46-4.32v-14.74h7.13v26.46h-6.21v-2.92q-1.62 2.11-3.81 2.79-2.19.67-3.86.67m31.16-.54q-1.95 0-3.92-.65t-3.32-2.4-1.35-5.1v-12.26h-4.26v-6.05h4.26v-6.43h7.18v6.43h5.78v6.05h-5.78v12.85q0 .65.44 1.08.43.43 1.08.43h4.26v6.05zm20.19 0q-1.94 0-3.91-.65t-3.32-2.4-1.35-5.1v-12.26h-4.27v-6.05h4.27v-6.43h7.18v6.43h5.78v6.05h-5.78v12.85q0 .65.43 1.08t1.08.43h4.27v6.05zm21.28.54q-3.94 0-7.07-1.73t-4.97-4.78-1.84-7.04v-.54q0-3.95 1.84-6.97 1.83-3.02 4.97-4.75t7.07-1.73q3.89 0 7.02 1.73t4.94 4.75 1.81 6.97v.54q0 3.99-1.81 7.04t-4.94 4.78-7.02 1.73m0-6.26q2.92 0 4.75-2.06 1.84-2.05 1.84-5.23v-.54q0-3.14-1.84-5.16-1.83-2.03-4.75-2.03-2.97 0-4.83 2.03-1.87 2.02-1.87 5.16v.54q0 3.18 1.87 5.23 1.86 2.06 4.83 2.06m18.9 5.72v-26.46h6.91v2.97q1.62-2.11 3.78-2.81t3.84-.7q4.48 0 7.15 2.94 2.67 2.95 2.67 8.24v15.82h-7.18v-14.69q0-3.02-1.29-4.4-1.3-1.38-3.41-1.38-2.26 0-3.78 1.52-1.51 1.51-1.51 4.48v14.47zm60.53 2.65h-5.77v-32.03l-14.15 14.26v-8.32l17.22-17.01 16.91 17.01v8.43l-14.21-14.58z"/></svg>