<svg xmlns="http://www.w3.org/2000/svg" width="1600" height="1000" style="width:100%;height:auto;max-height:100%;display:block" viewBox="-254 -94 508 1097"><path fill="#eafaf4" d="M-254-94h508v1097h-508z" pointer-events="all"/><path fill="#0c322c" d="M-254.7-96a1.3 1.3 0 1 1-2.6 0 1.3 1.3 0 1 1 2.6 0m32 0a1.3 1.3 0 1 1-2.6 0 1.3 1.3 0 1 1 2.6 0m32 0a1.3 1.3 0 1 1-2.6 0 1.3 1.3 0 1 1 2.6 0m32 0a1.3 1.3 0 1 1-2.6 0 1.3 1.3 0 1 1 2.6 0m32 0a1.3 1.3 0 1 1-2.6 0 1.3 1.3 0 1 1 2.6 0m32 0a1.3 1.3 0 1 1-2.6 0 1.3 1.3 0 1 1 2.6 0m32 0a1.3 1.3 0 1 1-2.6 0 1.3 1.3 0 1 1 2.6 0m32 0a1.3 1.3 0 1 1-2.6 0 1.3 1.3 0 1 1 2.6 0m32 0a1.3 1.3 0 1 1-2.6 0 1.3 1.3 0 1 1 2.6 0m32 0a1.3 1.3 0 1 1-2.6 0 1.3 1.3 0 1 1 2.6 0m32 0a1.3 1.3 0 1 1-2.6 0 1.3 1.3 0 1 1 2.6 0m32 0a1.3 1.3 0 1 1-2.6 0 1.3 1.3 0 1 1 2.6 0m32 0a1.3 1.3 0 1 1-2.6 0 1.3 1.3 0 1 1 2.6 0m32 0a1.3 1.3 0 1 1-2.6 0 1.3 1.3 0 1 1 2.6 0m32 0a1.3 1.3 0 1 1-2.6 0 1.3 1.3 0 1 1 2.6 0m32 0a1.3 1.3 0 1 1-2.6 0 1.3 1.3 0 1 1 2.6 0m-480 32a1.3 1.3 0 1 1-2.6 0 1.3 1.3 0 1 1 2.6 0m32 0a1.3 1.3 0 1 1-2.6 0 1.3 1.3 0 1 1 2.6 0m32 0a1.3 1.3 0 1 1-2.6 0 1.3 1.3 0 1 1 2.6 0m32 0a1.3 1.3 0 1 1-2.6 0 1.3 1.3 0 1 1 2.6 0m32 0a1.3 1.3 0 1 1-2.6 0 1.3 1.3 0 1 1 2.6 0m32 0a1.3 1.3 0 1 1-2.6 0 1.3 1.3 0 1 1 2.6 0m32 0a1.3 1.3 0 1 1-2.6 0 1.3 1.3 0 1 1 2.6 0m32 0a1.3 1.3 0 1 1-2.6 0 1.3 1.3 0 1 1 2.6 0m32 0a1.3 1.3 0 1 1-2.6 0 1.3 1.3 0 1 1 2.6 0m32 0a1.3 1.3 0 1 1-2.6 0 1.3 1.3 0 1 1 2.6 0m32 0a1.3 1.3 0 1 1-2.6 0 1.3 1.3 0 1 1 2.6 0m32 0a1.3 1.3 0 1 1-2.6 0 1.3 1.3 0 1 1 2.6 0m32 0a1.3 1.3 0 1 1-2.6 0 1.3 1.3 0 1 1 2.6 0m32 0a1.3 1.3 0 1 1-2.6 0 1.3 1.3 0 1 1 2.6 0m32 0a1.3 1.3 0 1 1-2.6 0 1.3 1.3 0 1 1 2.6 0m32 0a1.3 1.3 0 1 1-2.6 0 1.3 1.3 0 1 1 2.6 0m-480 32a1.3 1.3 0 1 1-2.6 0 1.3 1.3 0 1 1 2.6 0m32 0a1.3 1.3 0 1 1-2.6 0 1.3 1.3 0 1 1 2.6 0m32 0a1.3 1.3 0 1 1-2.6 0 1.3 1.3 0 1 1 2.6 0m32 0a1.3 1.3 0 1 1-2.6 0 1.3 1.3 0 1 1 2.6 0m32 0a1.3 1.3 0 1 1-2.6 0 1.3 1.3 0 1 1 2.6 0m32 0a1.3 1.3 0 1 1-2.6 0 1.3 1.3 0 1 1 2.6 0m32 0a1.3 1.3 0 1 1-2.6 0 1.3 1.3 0 1 1 2.6 0m32 0a1.3 1.3 0 1 1-2.6 0 1.3 1.3 0 1 1 2.6 0m32 0a1.3 1.3 0 1 1-2.6 0 1.3 1.3 0 1 1 2.6 0m32 0a1.3 1.3 0 1 1-2.6 0 1.3 1.3 0 1 1 2.6 0m32 0a1.3 1.3 0 1 1-2.6 0 1.3 1.3 0 1 1 2.6 0m32 0a1.3 1.3 0 1 1-2.6 0 1.3 1.3 0 1 1 2.6 0m32 0a1.3 1.3 0 1 1-2.6 0 1.3 1.3 0 1 1 2.6 0m32 0a1.3 1.3 0 1 1-2.6 0 1.3 1.3 0 1 1 2.6 0m32 0a1.3 1.3 0 1 1-2.6 0 1.3 1.3 0 1 1 2.6 0m32 0a1.3 1.3 0 1 1-2.6 0 1.3 1.3 0 1 1 2.6 0m-480 32a1.3 1.3 0 1 1-2.6 0 1.3 1.3 0 1 1 2.6 0m32 0a1.3 1.3 0 1 1-2.6 0 1.3 1.3 0 1 1 2.6 0m32 0a1.3 1.3 0 1 1-2.6 0 1.3 1.3 0 1 1 2.6 0m32 0a1.3 1.3 0 1 1-2.6 0 1.3 1.3 0 1 1 2.6 0m32 0a1.3 1.3 0 1 1-2.6 0 1.3 1.3 0 1 1 2.6 0m32 0a1.3 1.3 0 1 1-2.6 0 1.3 1.3 0 1 1 2.6 0m32 0a1.3 1.3 0 1 1-2.6 0 1.3 1.3 0 1 1 2.6 0m32 0a1.3 1.3 0 1 1-2.6 0 1.3 1.3 0 1 1 2.6 0m32 0a1.3 1.3 0 1 1-2.6 0 1.3 1.3 0 1 1 2.6 0m32 0a1.3 1.3 0 1 1-2.6 0 1.3 1.3 0 1 1 2.6 0m32 0a1.3 1.3 0 1 1-2.6 0 1.3 1.3 0 1 1 2.6 0m32 0a1.3 1.3 0 1 1-2.6 0 1.3 1.3 0 1 1 2.6 0m32 0a1.3 1.3 0 1 1-2.6 0 1.3 1.3 0 1 1 2.6 0m32 0a1.3 1.3 0 1 1-2.6 0 1.3 1.3 0 1 1 2.6 0m32 0a1.3 1.3 0 1 1-2.6 0 1.3 1.3 0 1 1 2.6 0m32 0a1.3 1.3 0 1 1-2.6 0 1.3 1.3 0 1 1 2.6 0m-480 32a1.3 1.3 0 1 1-2.6 0 1.3 1.3 0 1 1 2.6 0m32 0a1.3 1.3 0 1 1-2.6 0 1.3 1.3 0 1 1 2.6 0m32 0a1.3 1.3 0 1 1-2.6 0 1.3 1.3 0 1 1 2.6 0m32 0a1.3 1.3 0 1 1-2.6 0 1.3 1.3 0 1 1 2.6 0m32 0a1.3 1.3 0 1 1-2.6 0 1.3 1.3 0 1 1 2.6 0m32 0a1.3 1.3 0 1 1-2.6 0 1.3 1.3 0 1 1 2.6 0m32 0a1.3 1.3 0 1 1-2.6 0 1.3 1.3 0 1 1 2.6 0m32 0a1.3 1.3 0 1 1-2.6 0 1.3 1.3 0 1 1 2.6 0m32 0a1.3 1.3 0 1 1-2.6 0 1.3 1.3 0 1 1 2.6 0m32 0a1.3 1.3 0 1 1-2.6 0 1.3 1.3 0 1 1 2.6 0m32 0a1.3 1.3 0 1 1-2.6 0 1.3 1.3 0 1 1 2.6 0m32 0a1.3 1.3 0 1 1-2.6 0 1.3 1.3 0 1 1 2.6 0m32 0a1.3 1.3 0 1 1-2.6 0 1.3 1.3 0 1 1 2.6 0m32 0a1.3 1.3 0 1 1-2.6 0 1.3 1.3 0 1 1 2.6 0m32 0a1.3 1.3 0 1 1-2.6 0 1.3 1.3 0 1 1 2.6 0m32 0a1.3 1.3 0 1 1-2.6 0 1.3 1.3 0 1 1 2.6 0m-480 32a1.3 1.3 0 1 1-2.6 0 1.3 1.3 0 1 1 2.6 0m32 0a1.3 1.3 0 1 1-2.6 0 1.3 1.3 0 1 1 2.6 0m32 0a1.3 1.3 0 1 1-2.6 0 1.3 1.3 0 1 1 2.6 0m32 0a1.3 1.3 0 1 1-2.6 0 1.3 1.3 0 1 1 2.6 0m32 0a1.3 1.3 0 1 1-2.6 0 1.3 1.3 0 1 1 2.6 0m32 0a1.3 1.3 0 1 1-2.6 0 1.3 1.3 0 1 1 2.6 0m32 0a1.3 1.3 0 1 1-2.6 0 1.3 1.3 0 1 1 2.6 0m32 0a1.3 1.3 0 1 1-2.6 0 1.3 1.3 0 1 1 2.6 0m32 0a1.3 1.3 0 1 1-2.6 0 1.3 1.3 0 1 1 2.6 0m32 0a1.3 1.3 0 1 1-2.6 0 1.3 1.3 0 1 1 2.6 0m32 0a1.3 1.3 0 1 1-2.6 0 1.3 1.3 0 1 1 2.6 0m32 0a1.3 1.3 0 1 1-2.6 0 1.3 1.3 0 1 1 2.6 0m32 0a1.3 1.3 0 1 1-2.6 0 1.3 1.3 0 1 1 2.6 0m32 0a1.3 1.3 0 1 1-2.6 0 1.3 1.3 0 1 1 2.6 0m32 0a1.3 1.3 0 1 1-2.6 0 1.3 1.3 0 1 1 2.6 0m32 0a1.3 1.3 0 1 1-2.6 0 1.3 1.3 0 1 1 2.6 0m-480 32a1.3 1.3 0 1 1-2.6 0 1.3 1.3 0 1 1 2.6 0m32 0a1.3 1.3 0 1 1-2.6 0 1.3 1.3 0 1 1 2.6 0m32 0a1.3 1.3 0 1 1-2.6 0 1.3 1.3 0 1 1 2.6 0m32 0a1.3 1.3 0 1 1-2.6 0 1.3 1.3 0 1 1 2.6 0m32 0a1.3 1.3 0 1 1-2.6 0 1.3 1.3 0 1 1 2.6 0m32 0a1.3 1.3 0 1 1-2.6 0 1.3 1.3 0 1 1 2.6 0m32 0a1.3 1.3 0 1 1-2.6 0 1.3 1.3 0 1 1 2.6 0m32 0a1.3 1.3 0 1 1-2.6 0 1.3 1.3 0 1 1 2.6 0m32 0a1.3 1.3 0 1 1-2.6 0 1.3 1.3 0 1 1 2.6 0m32 0a1.3 1.3 0 1 1-2.6 0 1.3 1.3 0 1 1 2.6 0m32 0a1.3 1.3 0 1 1-2.6 0 1.3 1.3 0 1 1 2.6 0m32 0a1.3 1.3 0 1 1-2.6 0 1.3 1.3 0 1 1 2.6 0m32 0a1.3 1.3 0 1 1-2.6 0 1.3 1.3 0 1 1 2.6 0m32 0a1.3 1.3 0 1 1-2.6 0 1.3 1.3 0 1 1 2.6 0m32 0a1.3 1.3 0 1 1-2.6 0 1.3 1.3 0 1 1 2.6 0m32 0a1.3 1.3 0 1 1-2.6 0 1.3 1.3 0 1 1 2.6 0m-480 32a1.3 1.3 0 1 1-2.6 0 1.3 1.3 0 1 1 2.6 0m32 0a1.3 1.3 0 1 1-2.6 0 1.3 1.3 0 1 1 2.6 0m32 0a1.3 1.3 0 1 1-2.6 0 1.3 1.3 0 1 1 2.6 0m32 0a1.3 1.3 0 1 1-2.6 0 1.3 1.3 0 1 1 2.6 0m32 0a1.3 1.3 0 1 1-2.6 0 1.3 1.3 0 1 1 2.6 0m32 0a1.3 1.3 0 1 1-2.6 0 1.3 1.3 0 1 1 2.6 0m32 0a1.3 1.3 0 1 1-2.6 0 1.3 1.3 0 1 1 2.6 0m32 0a1.3 1.3 0 1 1-2.6 0 1.3 1.3 0 1 1 2.6 0m32 0a1.3 1.3 0 1 1-2.6 0 1.3 1.3 0 1 1 2.6 0m32 0a1.3 1.3 0 1 1-2.6 0 1.3 1.3 0 1 1 2.6 0m32 0a1.3 1.3 0 1 1-2.6 0 1.3 1.3 0 1 1 2.6 0m32 0a1.3 1.3 0 1 1-2.6 0 1.3 1.3 0 1 1 2.6 0m32 0a1.3 1.3 0 1 1-2.6 0 1.3 1.3 0 1 1 2.6 0m32 0a1.3 1.3 0 1 1-2.6 0 1.3 1.3 0 1 1 2.6 0m32 0a1.3 1.3 0 1 1-2.6 0 1.3 1.3 0 1 1 2.6 0m32 0a1.3 1.3 0 1 1-2.6 0 1.3 1.3 0 1 1 2.6 0m-480 32a1.3 1.3 0 1 1-2.6 0 1.3 1.3 0 1 1 2.6 0m32 0a1.3 1.3 0 1 1-2.6 0 1.3 1.3 0 1 1 2.6 0m32 0a1.3 1.3 0 1 1-2.6 0 1.3 1.3 0 1 1 2.6 0m32 0a1.3 1.3 0 1 1-2.6 0 1.3 1.3 0 1 1 2.6 0m32 0a1.3 1.3 0 1 1-2.6 0 1.3 1.3 0 1 1 2.6 0m32 0a1.3 1.3 0 1 1-2.6 0 1.3 1.3 0 1 1 2.6 0m32 0a1.3 1.3 0 1 1-2.6 0 1.3 1.3 0 1 1 2.6 0m32 0a1.3 1.3 0 1 1-2.6 0 1.3 1.3 0 1 1 2.6 0m32 0a1.3 1.3 0 1 1-2.6 0 1.3 1.3 0 1 1 2.6 0m32 0a1.3 1.3 0 1 1-2.6 0 1.3 1.3 0 1 1 2.6 0m32 0a1.3 1.3 0 1 1-2.6 0 1.3 1.3 0 1 1 2.6 0m32 0a1.3 1.3 0 1 1-2.6 0 1.3 1.3 0 1 1 2.6 0m32 0a1.3 1.3 0 1 1-2.6 0 1.3 1.3 0 1 1 2.6 0m32 0a1.3 1.3 0 1 1-2.6 0 1.3 1.3 0 1 1 2.6 0m32 0a1.3 1.3 0 1 1-2.6 0 1.3 1.3 0 1 1 2.6 0m32 0a1.3 1.3 0 1 1-2.6 0 1.3 1.3 0 1 1 2.6 0m-480 32a1.3 1.3 0 1 1-2.6 0 1.3 1.3 0 1 1 2.6 0m32 0a1.3 1.3 0 1 1-2.6 0 1.3 1.3 0 1 1 2.6 0m32 0a1.3 1.3 0 1 1-2.6 0 1.3 1.3 0 1 1 2.6 0m32 0a1.3 1.3 0 1 1-2.6 0 1.3 1.3 0 1 1 2.6 0m32 0a1.3 1.3 0 1 1-2.6 0 1.3 1.3 0 1 1 2.6 0m32 0a1.3 1.3 0 1 1-2.6 0 1.3 1.3 0 1 1 2.6 0m32 0a1.3 1.3 0 1 1-2.6 0 1.3 1.3 0 1 1 2.6 0m32 0a1.3 1.3 0 1 1-2.6 0 1.3 1.3 0 1 1 2.6 0m32 0a1.3 1.3 0 1 1-2.6 0 1.3 1.3 0 1 1 2.6 0m32 0a1.3 1.3 0 1 1-2.6 0 1.3 1.3 0 1 1 2.6 0m32 0a1.3 1.3 0 1 1-2.6 0 1.3 1.3 0 1 1 2.6 0m32 0a1.3 1.3 0 1 1-2.6 0 1.3 1.3 0 1 1 2.6 0m32 0a1.3 1.3 0 1 1-2.6 0 1.3 1.3 0 1 1 2.6 0m32 0a1.3 1.3 0 1 1-2.6 0 1.3 1.3 0 1 1 2.6 0m32 0a1.3 1.3 0 1 1-2.6 0 1.3 1.3 0 1 1 2.6 0m32 0a1.3 1.3 0 1 1-2.6 0 1.3 1.3 0 1 1 2.6 0m-480 32a1.3 1.3 0 1 1-2.6 0 1.3 1.3 0 1 1 2.6 0m32 0a1.3 1.3 0 1 1-2.6 0 1.3 1.3 0 1 1 2.6 0m32 0a1.3 1.3 0 1 1-2.6 0 1.3 1.3 0 1 1 2.6 0m32 0a1.3 1.3 0 1 1-2.6 0 1.3 1.3 0 1 1 2.6 0m32 0a1.3 1.3 0 1 1-2.6 0 1.3 1.3 0 1 1 2.6 0m32 0a1.3 1.3 0 1 1-2.6 0 1.3 1.3 0 1 1 2.6 0m32 0a1.3 1.3 0 1 1-2.6 0 1.3 1.3 0 1 1 2.6 0m32 0a1.3 1.3 0 1 1-2.6 0 1.3 1.3 0 1 1 2.6 0m32 0a1.3 1.3 0 1 1-2.6 0 1.3 1.3 0 1 1 2.6 0m32 0a1.3 1.3 0 1 1-2.6 0 1.3 1.3 0 1 1 2.6 0m32 0a1.3 1.3 0 1 1-2.6 0 1.3 1.3 0 1 1 2.6 0m32 0a1.3 1.3 0 1 1-2.6 0 1.3 1.3 0 1 1 2.6 0m32 0a1.3 1.3 0 1 1-2.6 0 1.3 1.3 0 1 1 2.6 0m32 0a1.3 1.3 0 1 1-2.6 0 1.3 1.3 0 1 1 2.6 0m32 0a1.3 1.3 0 1 1-2.6 0 1.3 1.3 0 1 1 2.6 0m32 0a1.3 1.3 0 1 1-2.6 0 1.3 1.3 0 1 1 2.6 0m-480 32a1.3 1.3 0 1 1-2.6 0 1.3 1.3 0 1 1 2.6 0m32 0a1.3 1.3 0 1 1-2.6 0 1.3 1.3 0 1 1 2.6 0m32 0a1.3 1.3 0 1 1-2.6 0 1.3 1.3 0 1 1 2.6 0m32 0a1.3 1.3 0 1 1-2.6 0 1.3 1.3 0 1 1 2.6 0m32 0a1.3 1.3 0 1 1-2.6 0 1.3 1.3 0 1 1 2.6 0m32 0a1.3 1.3 0 1 1-2.6 0 1.3 1.3 0 1 1 2.6 0m32 0a1.3 1.3 0 1 1-2.6 0 1.3 1.3 0 1 1 2.6 0m32 0a1.3 1.3 0 1 1-2.6 0 1.3 1.3 0 1 1 2.6 0m32 0a1.3 1.3 0 1 1-2.6 0 1.3 1.3 0 1 1 2.6 0m32 0a1.3 1.3 0 1 1-2.6 0 1.3 1.3 0 1 1 2.6 0m32 0a1.3 1.3 0 1 1-2.6 0 1.3 1.3 0 1 1 2.6 0m32 0a1.3 1.3 0 1 1-2.6 0 1.3 1.3 0 1 1 2.6 0m32 0a1.3 1.3 0 1 1-2.6 0 1.3 1.3 0 1 1 2.6 0m32 0a1.3 1.3 0 1 1-2.6 0 1.3 1.3 0 1 1 2.6 0m32 0a1.3 1.3 0 1 1-2.6 0 1.3 1.3 0 1 1 2.6 0m32 0a1.3 1.3 0 1 1-2.6 0 1.3 1.3 0 1 1 2.6 0m-480 32a1.3 1.3 0 1 1-2.6 0 1.3 1.3 0 1 1 2.6 0m32 0a1.3 1.3 0 1 1-2.6 0 1.3 1.3 0 1 1 2.6 0m32 0a1.3 1.3 0 1 1-2.6 0 1.3 1.3 0 1 1 2.6 0m32 0a1.3 1.3 0 1 1-2.6 0 1.3 1.3 0 1 1 2.6 0m32 0a1.3 1.3 0 1 1-2.6 0 1.3 1.3 0 1 1 2.6 0m32 0a1.3 1.3 0 1 1-2.6 0 1.3 1.3 0 1 1 2.6 0m32 0a1.3 1.3 0 1 1-2.6 0 1.3 1.3 0 1 1 2.6 0m32 0a1.3 1.3 0 1 1-2.6 0 1.3 1.3 0 1 1 2.6 0m32 0a1.3 1.3 0 1 1-2.6 0 1.3 1.3 0 1 1 2.6 0m32 0a1.3 1.3 0 1 1-2.6 0 1.3 1.3 0 1 1 2.6 0m32 0a1.3 1.3 0 1 1-2.6 0 1.3 1.3 0 1 1 2.6 0m32 0a1.3 1.3 0 1 1-2.6 0 1.3 1.3 0 1 1 2.6 0m32 0a1.3 1.3 0 1 1-2.6 0 1.3 1.3 0 1 1 2.6 0m32 0a1.3 1.3 0 1 1-2.6 0 1.3 1.3 0 1 1 2.6 0m32 0a1.3 1.3 0 1 1-2.6 0 1.3 1.3 0 1 1 2.6 0m32 0a1.3 1.3 0 1 1-2.6 0 1.3 1.3 0 1 1 2.6 0m-480 32a1.3 1.3 0 1 1-2.6 0 1.3 1.3 0 1 1 2.6 0m32 0a1.3 1.3 0 1 1-2.6 0 1.3 1.3 0 1 1 2.6 0m32 0a1.3 1.3 0 1 1-2.6 0 1.3 1.3 0 1 1 2.6 0m32 0a1.3 1.3 0 1 1-2.6 0 1.3 1.3 0 1 1 2.6 0m32 0a1.3 1.3 0 1 1-2.6 0 1.3 1.3 0 1 1 2.6 0m32 0a1.3 1.3 0 1 1-2.6 0 1.3 1.3 0 1 1 2.6 0m32 0a1.3 1.3 0 1 1-2.6 0 1.3 1.3 0 1 1 2.6 0m32 0a1.3 1.3 0 1 1-2.6 0 1.3 1.3 0 1 1 2.6 0m32 0a1.3 1.3 0 1 1-2.6 0 1.3 1.3 0 1 1 2.6 0m32 0a1.3 1.3 0 1 1-2.6 0 1.3 1.3 0 1 1 2.6 0m32 0a1.3 1.3 0 1 1-2.6 0 1.3 1.3 0 1 1 2.6 0m32 0a1.3 1.3 0 1 1-2.6 0 1.3 1.3 0 1 1 2.6 0m32 0a1.3 1.3 0 1 1-2.6 0 1.3 1.3 0 1 1 2.6 0m32 0a1.3 1.3 0 1 1-2.6 0 1.3 1.3 0 1 1 2.6 0m32 0a1.3 1.3 0 1 1-2.6 0 1.3 1.3 0 1 1 2.6 0m32 0a1.3 1.3 0 1 1-2.6 0 1.3 1.3 0 1 1 2.6 0m-480 32a1.3 1.3 0 1 1-2.6 0 1.3 1.3 0 1 1 2.6 0m32 0a1.3 1.3 0 1 1-2.6 0 1.3 1.3 0 1 1 2.6 0m32 0a1.3 1.3 0 1 1-2.6 0 1.3 1.3 0 1 1 2.6 0m32 0a1.3 1.3 0 1 1-2.6 0 1.3 1.3 0 1 1 2.6 0m32 0a1.3 1.3 0 1 1-2.6 0 1.3 1.3 0 1 1 2.6 0m32 0a1.3 1.3 0 1 1-2.6 0 1.3 1.3 0 1 1 2.6 0m32 0a1.3 1.3 0 1 1-2.6 0 1.3 1.3 0 1 1 2.6 0m32 0a1.3 1.3 0 1 1-2.6 0 1.3 1.3 0 1 1 2.6 0m32 0a1.3 1.3 0 1 1-2.6 0 1.3 1.3 0 1 1 2.6 0m32 0a1.3 1.3 0 1 1-2.6 0 1.3 1.3 0 1 1 2.6 0m32 0a1.3 1.3 0 1 1-2.6 0 1.3 1.3 0 1 1 2.6 0m32 0a1.3 1.3 0 1 1-2.6 0 1.3 1.3 0 1 1 2.6 0m32 0a1.3 1.3 0 1 1-2.6 0 1.3 1.3 0 1 1 2.6 0m32 0a1.3 1.3 0 1 1-2.6 0 1.3 1.3 0 1 1 2.6 0m32 0a1.3 1.3 0 1 1-2.6 0 1.3 1.3 0 1 1 2.6 0m32 0a1.3 1.3 0 1 1-2.6 0 1.3 1.3 0 1 1 2.6 0m-480 32a1.3 1.3 0 1 1-2.6 0 1.3 1.3 0 1 1 2.6 0m32 0a1.3 1.3 0 1 1-2.6 0 1.3 1.3 0 1 1 2.6 0m32 0a1.3 1.3 0 1 1-2.6 0 1.3 1.3 0 1 1 2.6 0m32 0a1.3 1.3 0 1 1-2.6 0 1.3 1.3 0 1 1 2.6 0m32 0a1.3 1.3 0 1 1-2.6 0 1.3 1.3 0 1 1 2.6 0m32 0a1.3 1.3 0 1 1-2.6 0 1.3 1.3 0 1 1 2.6 0m32 0a1.3 1.3 0 1 1-2.6 0 1.3 1.3 0 1 1 2.6 0m32 0a1.3 1.3 0 1 1-2.6 0 1.3 1.3 0 1 1 2.6 0m32 0a1.3 1.3 0 1 1-2.6 0 1.3 1.3 0 1 1 2.6 0m32 0a1.3 1.3 0 1 1-2.6 0 1.3 1.3 0 1 1 2.6 0m32 0a1.3 1.3 0 1 1-2.6 0 1.3 1.3 0 1 1 2.6 0m32 0a1.3 1.3 0 1 1-2.6 0 1.3 1.3 0 1 1 2.6 0m32 0a1.3 1.3 0 1 1-2.6 0 1.3 1.3 0 1 1 2.6 0m32 0a1.3 1.3 0 1 1-2.6 0 1.3 1.3 0 1 1 2.6 0m32 0a1.3 1.3 0 1 1-2.6 0 1.3 1.3 0 1 1 2.6 0m32 0a1.3 1.3 0 1 1-2.6 0 1.3 1.3 0 1 1 2.6 0m-480 32a1.3 1.3 0 1 1-2.6 0 1.3 1.3 0 1 1 2.6 0m32 0a1.3 1.3 0 1 1-2.6 0 1.3 1.3 0 1 1 2.6 0m32 0a1.3 1.3 0 1 1-2.6 0 1.3 1.3 0 1 1 2.6 0m32 0a1.3 1.3 0 1 1-2.6 0 1.3 1.3 0 1 1 2.6 0m32 0a1.3 1.3 0 1 1-2.6 0 1.3 1.3 0 1 1 2.6 0m32 0a1.3 1.3 0 1 1-2.6 0 1.3 1.3 0 1 1 2.6 0m32 0a1.3 1.3 0 1 1-2.6 0 1.3 1.3 0 1 1 2.6 0m32 0a1.3 1.3 0 1 1-2.6 0 1.3 1.3 0 1 1 2.6 0m32 0a1.3 1.3 0 1 1-2.6 0 1.3 1.3 0 1 1 2.6 0m32 0a1.3 1.3 0 1 1-2.6 0 1.3 1.3 0 1 1 2.6 0m32 0a1.3 1.3 0 1 1-2.6 0 1.3 1.3 0 1 1 2.6 0m32 0a1.3 1.3 0 1 1-2.6 0 1.3 1.3 0 1 1 2.6 0m32 0a1.3 1.3 0 1 1-2.6 0 1.3 1.3 0 1 1 2.6 0m32 0a1.3 1.3 0 1 1-2.6 0 1.3 1.3 0 1 1 2.6 0m32 0a1.3 1.3 0 1 1-2.6 0 1.3 1.3 0 1 1 2.6 0m32 0a1.3 1.3 0 1 1-2.6 0 1.3 1.3 0 1 1 2.6 0m-480 32a1.3 1.3 0 1 1-2.6 0 1.3 1.3 0 1 1 2.6 0m32 0a1.3 1.3 0 1 1-2.6 0 1.3 1.3 0 1 1 2.6 0m32 0a1.3 1.3 0 1 1-2.6 0 1.3 1.3 0 1 1 2.6 0m32 0a1.3 1.3 0 1 1-2.6 0 1.3 1.3 0 1 1 2.6 0m32 0a1.3 1.3 0 1 1-2.6 0 1.3 1.3 0 1 1 2.6 0m32 0a1.3 1.3 0 1 1-2.6 0 1.3 1.3 0 1 1 2.6 0m32 0a1.3 1.3 0 1 1-2.6 0 1.3 1.3 0 1 1 2.6 0m32 0a1.3 1.3 0 1 1-2.6 0 1.3 1.3 0 1 1 2.6 0m32 0a1.3 1.3 0 1 1-2.6 0 1.3 1.3 0 1 1 2.6 0m32 0a1.3 1.3 0 1 1-2.6 0 1.3 1.3 0 1 1 2.6 0m32 0a1.3 1.3 0 1 1-2.6 0 1.3 1.3 0 1 1 2.6 0m32 0a1.3 1.3 0 1 1-2.6 0 1.3 1.3 0 1 1 2.6 0m32 0a1.3 1.3 0 1 1-2.6 0 1.3 1.3 0 1 1 2.6 0m32 0a1.3 1.3 0 1 1-2.6 0 1.3 1.3 0 1 1 2.6 0m32 0a1.3 1.3 0 1 1-2.6 0 1.3 1.3 0 1 1 2.6 0m32 0a1.3 1.3 0 1 1-2.6 0 1.3 1.3 0 1 1 2.6 0m-480 32a1.3 1.3 0 1 1-2.6 0 1.3 1.3 0 1 1 2.6 0m32 0a1.3 1.3 0 1 1-2.6 0 1.3 1.3 0 1 1 2.6 0m32 0a1.3 1.3 0 1 1-2.6 0 1.3 1.3 0 1 1 2.6 0m32 0a1.3 1.3 0 1 1-2.6 0 1.3 1.3 0 1 1 2.6 0m32 0a1.3 1.3 0 1 1-2.6 0 1.3 1.3 0 1 1 2.6 0m32 0a1.3 1.3 0 1 1-2.6 0 1.3 1.3 0 1 1 2.6 0m32 0a1.3 1.3 0 1 1-2.6 0 1.3 1.3 0 1 1 2.6 0m32 0a1.3 1.3 0 1 1-2.6 0 1.3 1.3 0 1 1 2.6 0m32 0a1.3 1.3 0 1 1-2.6 0 1.3 1.3 0 1 1 2.6 0m32 0a1.3 1.3 0 1 1-2.6 0 1.3 1.3 0 1 1 2.6 0m32 0a1.3 1.3 0 1 1-2.6 0 1.3 1.3 0 1 1 2.6 0m32 0a1.3 1.3 0 1 1-2.6 0 1.3 1.3 0 1 1 2.6 0m32 0a1.3 1.3 0 1 1-2.6 0 1.3 1.3 0 1 1 2.6 0m32 0a1.3 1.3 0 1 1-2.6 0 1.3 1.3 0 1 1 2.6 0m32 0a1.3 1.3 0 1 1-2.6 0 1.3 1.3 0 1 1 2.6 0m32 0a1.3 1.3 0 1 1-2.6 0 1.3 1.3 0 1 1 2.6 0m-480 32a1.3 1.3 0 1 1-2.6 0 1.3 1.3 0 1 1 2.6 0m32 0a1.3 1.3 0 1 1-2.6 0 1.3 1.3 0 1 1 2.6 0m32 0a1.3 1.3 0 1 1-2.6 0 1.3 1.3 0 1 1 2.6 0m32 0a1.3 1.3 0 1 1-2.6 0 1.3 1.3 0 1 1 2.6 0m32 0a1.3 1.3 0 1 1-2.6 0 1.3 1.3 0 1 1 2.6 0m32 0a1.3 1.3 0 1 1-2.6 0 1.3 1.3 0 1 1 2.6 0m32 0a1.3 1.3 0 1 1-2.6 0 1.3 1.3 0 1 1 2.6 0m32 0a1.3 1.3 0 1 1-2.6 0 1.3 1.3 0 1 1 2.6 0m32 0a1.3 1.3 0 1 1-2.6 0 1.3 1.3 0 1 1 2.6 0m32 0a1.3 1.3 0 1 1-2.6 0 1.3 1.3 0 1 1 2.6 0m32 0a1.3 1.3 0 1 1-2.6 0 1.3 1.3 0 1 1 2.6 0m32 0a1.3 1.3 0 1 1-2.6 0 1.3 1.3 0 1 1 2.6 0m32 0a1.3 1.3 0 1 1-2.6 0 1.3 1.3 0 1 1 2.6 0m32 0a1.3 1.3 0 1 1-2.6 0 1.3 1.3 0 1 1 2.6 0m32 0a1.3 1.3 0 1 1-2.6 0 1.3 1.3 0 1 1 2.6 0m32 0a1.3 1.3 0 1 1-2.6 0 1.3 1.3 0 1 1 2.6 0m-480 32a1.3 1.3 0 1 1-2.6 0 1.3 1.3 0 1 1 2.6 0m32 0a1.3 1.3 0 1 1-2.6 0 1.3 1.3 0 1 1 2.6 0m32 0a1.3 1.3 0 1 1-2.6 0 1.3 1.3 0 1 1 2.6 0m32 0a1.3 1.3 0 1 1-2.6 0 1.3 1.3 0 1 1 2.6 0m32 0a1.3 1.3 0 1 1-2.6 0 1.3 1.3 0 1 1 2.6 0m32 0a1.3 1.3 0 1 1-2.6 0 1.3 1.3 0 1 1 2.6 0m32 0a1.3 1.3 0 1 1-2.6 0 1.3 1.3 0 1 1 2.6 0m32 0a1.3 1.3 0 1 1-2.6 0 1.3 1.3 0 1 1 2.6 0m32 0a1.3 1.3 0 1 1-2.6 0 1.3 1.3 0 1 1 2.6 0m32 0a1.3 1.3 0 1 1-2.6 0 1.3 1.3 0 1 1 2.6 0m32 0a1.3 1.3 0 1 1-2.6 0 1.3 1.3 0 1 1 2.6 0m32 0a1.3 1.3 0 1 1-2.6 0 1.3 1.3 0 1 1 2.6 0m32 0a1.3 1.3 0 1 1-2.6 0 1.3 1.3 0 1 1 2.6 0m32 0a1.3 1.3 0 1 1-2.6 0 1.3 1.3 0 1 1 2.6 0m32 0a1.3 1.3 0 1 1-2.6 0 1.3 1.3 0 1 1 2.6 0m32 0a1.3 1.3 0 1 1-2.6 0 1.3 1.3 0 1 1 2.6 0m-480 32a1.3 1.3 0 1 1-2.6 0 1.3 1.3 0 1 1 2.6 0m32 0a1.3 1.3 0 1 1-2.6 0 1.3 1.3 0 1 1 2.6 0m32 0a1.3 1.3 0 1 1-2.6 0 1.3 1.3 0 1 1 2.6 0m32 0a1.3 1.3 0 1 1-2.6 0 1.3 1.3 0 1 1 2.6 0m32 0a1.3 1.3 0 1 1-2.6 0 1.3 1.3 0 1 1 2.6 0m32 0a1.3 1.3 0 1 1-2.6 0 1.3 1.3 0 1 1 2.6 0m32 0a1.3 1.3 0 1 1-2.6 0 1.3 1.3 0 1 1 2.6 0m32 0a1.3 1.3 0 1 1-2.6 0 1.3 1.3 0 1 1 2.6 0m32 0a1.3 1.3 0 1 1-2.6 0 1.3 1.3 0 1 1 2.6 0m32 0a1.3 1.3 0 1 1-2.6 0 1.3 1.3 0 1 1 2.6 0m32 0a1.3 1.3 0 1 1-2.6 0 1.3 1.3 0 1 1 2.6 0m32 0a1.3 1.3 0 1 1-2.6 0 1.3 1.3 0 1 1 2.6 0m32 0a1.3 1.3 0 1 1-2.6 0 1.3 1.3 0 1 1 2.6 0m32 0a1.3 1.3 0 1 1-2.6 0 1.3 1.3 0 1 1 2.6 0m32 0a1.3 1.3 0 1 1-2.6 0 1.3 1.3 0 1 1 2.6 0m32 0a1.3 1.3 0 1 1-2.6 0 1.3 1.3 0 1 1 2.6 0m-480 32a1.3 1.3 0 1 1-2.6 0 1.3 1.3 0 1 1 2.6 0m32 0a1.3 1.3 0 1 1-2.6 0 1.3 1.3 0 1 1 2.6 0m32 0a1.3 1.3 0 1 1-2.6 0 1.3 1.3 0 1 1 2.6 0m32 0a1.3 1.3 0 1 1-2.6 0 1.3 1.3 0 1 1 2.6 0m32 0a1.3 1.3 0 1 1-2.6 0 1.3 1.3 0 1 1 2.6 0m32 0a1.3 1.3 0 1 1-2.6 0 1.3 1.3 0 1 1 2.6 0m32 0a1.3 1.3 0 1 1-2.6 0 1.3 1.3 0 1 1 2.6 0m32 0a1.3 1.3 0 1 1-2.6 0 1.3 1.3 0 1 1 2.6 0m32 0a1.3 1.3 0 1 1-2.6 0 1.3 1.3 0 1 1 2.6 0m32 0a1.3 1.3 0 1 1-2.6 0 1.3 1.3 0 1 1 2.6 0m32 0a1.3 1.3 0 1 1-2.6 0 1.3 1.3 0 1 1 2.6 0m32 0a1.3 1.3 0 1 1-2.6 0 1.3 1.3 0 1 1 2.6 0m32 0a1.3 1.3 0 1 1-2.6 0 1.3 1.3 0 1 1 2.6 0m32 0a1.3 1.3 0 1 1-2.6 0 1.3 1.3 0 1 1 2.6 0m32 0a1.3 1.3 0 1 1-2.6 0 1.3 1.3 0 1 1 2.6 0m32 0a1.3 1.3 0 1 1-2.6 0 1.3 1.3 0 1 1 2.6 0m-480 32a1.3 1.3 0 1 1-2.6 0 1.3 1.3 0 1 1 2.6 0m32 0a1.3 1.3 0 1 1-2.6 0 1.3 1.3 0 1 1 2.6 0m32 0a1.3 1.3 0 1 1-2.6 0 1.3 1.3 0 1 1 2.6 0m32 0a1.3 1.3 0 1 1-2.6 0 1.3 1.3 0 1 1 2.6 0m32 0a1.3 1.3 0 1 1-2.6 0 1.3 1.3 0 1 1 2.6 0m32 0a1.3 1.3 0 1 1-2.6 0 1.3 1.3 0 1 1 2.6 0m32 0a1.3 1.3 0 1 1-2.6 0 1.3 1.3 0 1 1 2.6 0m32 0a1.3 1.3 0 1 1-2.6 0 1.3 1.3 0 1 1 2.6 0m32 0a1.3 1.3 0 1 1-2.6 0 1.3 1.3 0 1 1 2.6 0m32 0a1.3 1.3 0 1 1-2.6 0 1.3 1.3 0 1 1 2.6 0m32 0a1.3 1.3 0 1 1-2.6 0 1.3 1.3 0 1 1 2.6 0m32 0a1.3 1.3 0 1 1-2.6 0 1.3 1.3 0 1 1 2.6 0m32 0a1.3 1.3 0 1 1-2.6 0 1.3 1.3 0 1 1 2.6 0m32 0a1.3 1.3 0 1 1-2.6 0 1.3 1.3 0 1 1 2.6 0m32 0a1.3 1.3 0 1 1-2.6 0 1.3 1.3 0 1 1 2.6 0m32 0a1.3 1.3 0 1 1-2.6 0 1.3 1.3 0 1 1 2.6 0m-480 32a1.3 1.3 0 1 1-2.6 0 1.3 1.3 0 1 1 2.6 0m32 0a1.3 1.3 0 1 1-2.6 0 1.3 1.3 0 1 1 2.6 0m32 0a1.3 1.3 0 1 1-2.6 0 1.3 1.3 0 1 1 2.6 0m32 0a1.3 1.3 0 1 1-2.6 0 1.3 1.3 0 1 1 2.6 0m32 0a1.3 1.3 0 1 1-2.6 0 1.3 1.3 0 1 1 2.6 0m32 0a1.3 1.3 0 1 1-2.6 0 1.3 1.3 0 1 1 2.6 0m32 0a1.3 1.3 0 1 1-2.6 0 1.3 1.3 0 1 1 2.6 0m32 0a1.3 1.3 0 1 1-2.6 0 1.3 1.3 0 1 1 2.6 0m32 0a1.3 1.3 0 1 1-2.6 0 1.3 1.3 0 1 1 2.6 0m32 0a1.3 1.3 0 1 1-2.6 0 1.3 1.3 0 1 1 2.6 0m32 0a1.3 1.3 0 1 1-2.6 0 1.3 1.3 0 1 1 2.6 0m32 0a1.3 1.3 0 1 1-2.6 0 1.3 1.3 0 1 1 2.6 0m32 0a1.3 1.3 0 1 1-2.6 0 1.3 1.3 0 1 1 2.6 0m32 0a1.3 1.3 0 1 1-2.6 0 1.3 1.3 0 1 1 2.6 0m32 0a1.3 1.3 0 1 1-2.6 0 1.3 1.3 0 1 1 2.6 0m32 0a1.3 1.3 0 1 1-2.6 0 1.3 1.3 0 1 1 2.6 0m-480 32a1.3 1.3 0 1 1-2.6 0 1.3 1.3 0 1 1 2.6 0m32 0a1.3 1.3 0 1 1-2.6 0 1.3 1.3 0 1 1 2.6 0m32 0a1.3 1.3 0 1 1-2.6 0 1.3 1.3 0 1 1 2.6 0m32 0a1.3 1.3 0 1 1-2.6 0 1.3 1.3 0 1 1 2.6 0m32 0a1.3 1.3 0 1 1-2.6 0 1.3 1.3 0 1 1 2.6 0m32 0a1.3 1.3 0 1 1-2.6 0 1.3 1.3 0 1 1 2.6 0m32 0a1.3 1.3 0 1 1-2.6 0 1.3 1.3 0 1 1 2.6 0m32 0a1.3 1.3 0 1 1-2.6 0 1.3 1.3 0 1 1 2.6 0m32 0a1.3 1.3 0 1 1-2.6 0 1.3 1.3 0 1 1 2.6 0m32 0a1.3 1.3 0 1 1-2.6 0 1.3 1.3 0 1 1 2.6 0m32 0a1.3 1.3 0 1 1-2.6 0 1.3 1.3 0 1 1 2.6 0m32 0a1.3 1.3 0 1 1-2.6 0 1.3 1.3 0 1 1 2.6 0m32 0a1.3 1.3 0 1 1-2.6 0 1.3 1.3 0 1 1 2.6 0m32 0a1.3 1.3 0 1 1-2.6 0 1.3 1.3 0 1 1 2.6 0m32 0a1.3 1.3 0 1 1-2.6 0 1.3 1.3 0 1 1 2.6 0m32 0a1.3 1.3 0 1 1-2.6 0 1.3 1.3 0 1 1 2.6 0m-480 32a1.3 1.3 0 1 1-2.6 0 1.3 1.3 0 1 1 2.6 0m32 0a1.3 1.3 0 1 1-2.6 0 1.3 1.3 0 1 1 2.6 0m32 0a1.3 1.3 0 1 1-2.6 0 1.3 1.3 0 1 1 2.6 0m32 0a1.3 1.3 0 1 1-2.6 0 1.3 1.3 0 1 1 2.6 0m32 0a1.3 1.3 0 1 1-2.6 0 1.3 1.3 0 1 1 2.6 0m32 0a1.3 1.3 0 1 1-2.6 0 1.3 1.3 0 1 1 2.6 0m32 0a1.3 1.3 0 1 1-2.6 0 1.3 1.3 0 1 1 2.6 0m32 0a1.3 1.3 0 1 1-2.6 0 1.3 1.3 0 1 1 2.6 0m32 0a1.3 1.3 0 1 1-2.6 0 1.3 1.3 0 1 1 2.6 0m32 0a1.3 1.3 0 1 1-2.6 0 1.3 1.3 0 1 1 2.6 0m32 0a1.3 1.3 0 1 1-2.6 0 1.3 1.3 0 1 1 2.6 0m32 0a1.3 1.3 0 1 1-2.6 0 1.3 1.3 0 1 1 2.6 0m32 0a1.3 1.3 0 1 1-2.6 0 1.3 1.3 0 1 1 2.6 0m32 0a1.3 1.3 0 1 1-2.6 0 1.3 1.3 0 1 1 2.6 0m32 0a1.3 1.3 0 1 1-2.6 0 1.3 1.3 0 1 1 2.6 0m32 0a1.3 1.3 0 1 1-2.6 0 1.3 1.3 0 1 1 2.6 0m-480 32a1.3 1.3 0 1 1-2.6 0 1.3 1.3 0 1 1 2.6 0m32 0a1.3 1.3 0 1 1-2.6 0 1.3 1.3 0 1 1 2.6 0m32 0a1.3 1.3 0 1 1-2.6 0 1.3 1.3 0 1 1 2.6 0m32 0a1.3 1.3 0 1 1-2.6 0 1.3 1.3 0 1 1 2.6 0m32 0a1.3 1.3 0 1 1-2.6 0 1.3 1.3 0 1 1 2.6 0m32 0a1.3 1.3 0 1 1-2.6 0 1.3 1.3 0 1 1 2.6 0m32 0a1.3 1.3 0 1 1-2.6 0 1.3 1.3 0 1 1 2.6 0m32 0a1.3 1.3 0 1 1-2.6 0 1.3 1.3 0 1 1 2.6 0m32 0a1.3 1.3 0 1 1-2.6 0 1.3 1.3 0 1 1 2.6 0m32 0a1.3 1.3 0 1 1-2.6 0 1.3 1.3 0 1 1 2.6 0m32 0a1.3 1.3 0 1 1-2.6 0 1.3 1.3 0 1 1 2.6 0m32 0a1.3 1.3 0 1 1-2.6 0 1.3 1.3 0 1 1 2.6 0m32 0a1.3 1.3 0 1 1-2.6 0 1.3 1.3 0 1 1 2.6 0m32 0a1.3 1.3 0 1 1-2.6 0 1.3 1.3 0 1 1 2.6 0m32 0a1.3 1.3 0 1 1-2.6 0 1.3 1.3 0 1 1 2.6 0m32 0a1.3 1.3 0 1 1-2.6 0 1.3 1.3 0 1 1 2.6 0m-480 32a1.3 1.3 0 1 1-2.6 0 1.3 1.3 0 1 1 2.6 0m32 0a1.3 1.3 0 1 1-2.6 0 1.3 1.3 0 1 1 2.6 0m32 0a1.3 1.3 0 1 1-2.6 0 1.3 1.3 0 1 1 2.6 0m32 0a1.3 1.3 0 1 1-2.6 0 1.3 1.3 0 1 1 2.6 0m32 0a1.3 1.3 0 1 1-2.6 0 1.3 1.3 0 1 1 2.6 0m32 0a1.3 1.3 0 1 1-2.6 0 1.3 1.3 0 1 1 2.6 0m32 0a1.3 1.3 0 1 1-2.6 0 1.3 1.3 0 1 1 2.6 0m32 0a1.3 1.3 0 1 1-2.6 0 1.3 1.3 0 1 1 2.6 0m32 0a1.3 1.3 0 1 1-2.6 0 1.3 1.3 0 1 1 2.6 0m32 0a1.3 1.3 0 1 1-2.6 0 1.3 1.3 0 1 1 2.6 0m32 0a1.3 1.3 0 1 1-2.6 0 1.3 1.3 0 1 1 2.6 0m32 0a1.3 1.3 0 1 1-2.6 0 1.3 1.3 0 1 1 2.6 0m32 0a1.3 1.3 0 1 1-2.6 0 1.3 1.3 0 1 1 2.6 0m32 0a1.3 1.3 0 1 1-2.6 0 1.3 1.3 0 1 1 2.6 0m32 0a1.3 1.3 0 1 1-2.6 0 1.3 1.3 0 1 1 2.6 0m32 0a1.3 1.3 0 1 1-2.6 0 1.3 1.3 0 1 1 2.6 0m-480 32a1.3 1.3 0 1 1-2.6 0 1.3 1.3 0 1 1 2.6 0m32 0a1.3 1.3 0 1 1-2.6 0 1.3 1.3 0 1 1 2.6 0m32 0a1.3 1.3 0 1 1-2.6 0 1.3 1.3 0 1 1 2.6 0m32 0a1.3 1.3 0 1 1-2.6 0 1.3 1.3 0 1 1 2.6 0m32 0a1.3 1.3 0 1 1-2.6 0 1.3 1.3 0 1 1 2.6 0m32 0a1.3 1.3 0 1 1-2.6 0 1.3 1.3 0 1 1 2.6 0m32 0a1.3 1.3 0 1 1-2.6 0 1.3 1.3 0 1 1 2.6 0m32 0a1.3 1.3 0 1 1-2.6 0 1.3 1.3 0 1 1 2.6 0m32 0a1.3 1.3 0 1 1-2.6 0 1.3 1.3 0 1 1 2.6 0m32 0a1.3 1.3 0 1 1-2.6 0 1.3 1.3 0 1 1 2.6 0m32 0a1.3 1.3 0 1 1-2.6 0 1.3 1.3 0 1 1 2.6 0m32 0a1.3 1.3 0 1 1-2.6 0 1.3 1.3 0 1 1 2.6 0m32 0a1.3 1.3 0 1 1-2.6 0 1.3 1.3 0 1 1 2.6 0m32 0a1.3 1.3 0 1 1-2.6 0 1.3 1.3 0 1 1 2.6 0m32 0a1.3 1.3 0 1 1-2.6 0 1.3 1.3 0 1 1 2.6 0m32 0a1.3 1.3 0 1 1-2.6 0 1.3 1.3 0 1 1 2.6 0m-480 32a1.3 1.3 0 1 1-2.6 0 1.3 1.3 0 1 1 2.6 0m32 0a1.3 1.3 0 1 1-2.6 0 1.3 1.3 0 1 1 2.6 0m32 0a1.3 1.3 0 1 1-2.6 0 1.3 1.3 0 1 1 2.6 0m32 0a1.3 1.3 0 1 1-2.6 0 1.3 1.3 0 1 1 2.6 0m32 0a1.3 1.3 0 1 1-2.6 0 1.3 1.3 0 1 1 2.6 0m32 0a1.3 1.3 0 1 1-2.6 0 1.3 1.3 0 1 1 2.6 0m32 0a1.3 1.3 0 1 1-2.6 0 1.3 1.3 0 1 1 2.6 0m32 0a1.3 1.3 0 1 1-2.6 0 1.3 1.3 0 1 1 2.6 0m32 0a1.3 1.3 0 1 1-2.6 0 1.3 1.3 0 1 1 2.6 0m32 0a1.3 1.3 0 1 1-2.6 0 1.3 1.3 0 1 1 2.6 0m32 0a1.3 1.3 0 1 1-2.6 0 1.3 1.3 0 1 1 2.6 0m32 0a1.3 1.3 0 1 1-2.6 0 1.3 1.3 0 1 1 2.6 0m32 0a1.3 1.3 0 1 1-2.6 0 1.3 1.3 0 1 1 2.6 0m32 0a1.3 1.3 0 1 1-2.6 0 1.3 1.3 0 1 1 2.6 0m32 0a1.3 1.3 0 1 1-2.6 0 1.3 1.3 0 1 1 2.6 0m32 0a1.3 1.3 0 1 1-2.6 0 1.3 1.3 0 1 1 2.6 0m-480 32a1.3 1.3 0 1 1-2.6 0 1.3 1.3 0 1 1 2.6 0m32 0a1.3 1.3 0 1 1-2.6 0 1.3 1.3 0 1 1 2.6 0m32 0a1.3 1.3 0 1 1-2.6 0 1.3 1.3 0 1 1 2.6 0m32 0a1.3 1.3 0 1 1-2.6 0 1.3 1.3 0 1 1 2.6 0m32 0a1.3 1.3 0 1 1-2.6 0 1.3 1.3 0 1 1 2.6 0m32 0a1.3 1.3 0 1 1-2.6 0 1.3 1.3 0 1 1 2.6 0m32 0a1.3 1.3 0 1 1-2.6 0 1.3 1.3 0 1 1 2.6 0m32 0a1.3 1.3 0 1 1-2.6 0 1.3 1.3 0 1 1 2.6 0m32 0a1.3 1.3 0 1 1-2.6 0 1.3 1.3 0 1 1 2.6 0m32 0a1.3 1.3 0 1 1-2.6 0 1.3 1.3 0 1 1 2.6 0m32 0a1.3 1.3 0 1 1-2.6 0 1.3 1.3 0 1 1 2.6 0m32 0a1.3 1.3 0 1 1-2.6 0 1.3 1.3 0 1 1 2.6 0m32 0a1.3 1.3 0 1 1-2.6 0 1.3 1.3 0 1 1 2.6 0m32 0a1.3 1.3 0 1 1-2.6 0 1.3 1.3 0 1 1 2.6 0m32 0a1.3 1.3 0 1 1-2.6 0 1.3 1.3 0 1 1 2.6 0m32 0a1.3 1.3 0 1 1-2.6 0 1.3 1.3 0 1 1 2.6 0m-480 32a1.3 1.3 0 1 1-2.6 0 1.3 1.3 0 1 1 2.6 0m32 0a1.3 1.3 0 1 1-2.6 0 1.3 1.3 0 1 1 2.6 0m32 0a1.3 1.3 0 1 1-2.6 0 1.3 1.3 0 1 1 2.6 0m32 0a1.3 1.3 0 1 1-2.6 0 1.3 1.3 0 1 1 2.6 0m32 0a1.3 1.3 0 1 1-2.6 0 1.3 1.3 0 1 1 2.6 0m32 0a1.3 1.3 0 1 1-2.6 0 1.3 1.3 0 1 1 2.6 0m32 0a1.3 1.3 0 1 1-2.6 0 1.3 1.3 0 1 1 2.6 0m32 0a1.3 1.3 0 1 1-2.6 0 1.3 1.3 0 1 1 2.6 0m32 0a1.3 1.3 0 1 1-2.6 0 1.3 1.3 0 1 1 2.6 0m32 0a1.3 1.3 0 1 1-2.6 0 1.3 1.3 0 1 1 2.6 0m32 0a1.3 1.3 0 1 1-2.6 0 1.3 1.3 0 1 1 2.6 0m32 0a1.3 1.3 0 1 1-2.6 0 1.3 1.3 0 1 1 2.6 0m32 0a1.3 1.3 0 1 1-2.6 0 1.3 1.3 0 1 1 2.6 0m32 0a1.3 1.3 0 1 1-2.6 0 1.3 1.3 0 1 1 2.6 0m32 0a1.3 1.3 0 1 1-2.6 0 1.3 1.3 0 1 1 2.6 0m32 0a1.3 1.3 0 1 1-2.6 0 1.3 1.3 0 1 1 2.6 0m-480 32a1.3 1.3 0 1 1-2.6 0 1.3 1.3 0 1 1 2.6 0m32 0a1.3 1.3 0 1 1-2.6 0 1.3 1.3 0 1 1 2.6 0m32 0a1.3 1.3 0 1 1-2.6 0 1.3 1.3 0 1 1 2.6 0m32 0a1.3 1.3 0 1 1-2.6 0 1.3 1.3 0 1 1 2.6 0m32 0a1.3 1.3 0 1 1-2.6 0 1.3 1.3 0 1 1 2.6 0m32 0a1.3 1.3 0 1 1-2.6 0 1.3 1.3 0 1 1 2.6 0m32 0a1.3 1.3 0 1 1-2.6 0 1.3 1.3 0 1 1 2.6 0m32 0a1.3 1.3 0 1 1-2.6 0 1.3 1.3 0 1 1 2.6 0m32 0a1.3 1.3 0 1 1-2.6 0 1.3 1.3 0 1 1 2.6 0m32 0a1.3 1.3 0 1 1-2.6 0 1.3 1.3 0 1 1 2.6 0m32 0a1.3 1.3 0 1 1-2.6 0 1.3 1.3 0 1 1 2.6 0m32 0a1.3 1.3 0 1 1-2.6 0 1.3 1.3 0 1 1 2.6 0m32 0a1.3 1.3 0 1 1-2.6 0 1.3 1.3 0 1 1 2.6 0m32 0a1.3 1.3 0 1 1-2.6 0 1.3 1.3 0 1 1 2.6 0m32 0a1.3 1.3 0 1 1-2.6 0 1.3 1.3 0 1 1 2.6 0m32 0a1.3 1.3 0 1 1-2.6 0 1.3 1.3 0 1 1 2.6 0m-480 32a1.3 1.3 0 1 1-2.6 0 1.3 1.3 0 1 1 2.6 0m32 0a1.3 1.3 0 1 1-2.6 0 1.3 1.3 0 1 1 2.6 0m32 0a1.3 1.3 0 1 1-2.6 0 1.3 1.3 0 1 1 2.6 0m32 0a1.3 1.3 0 1 1-2.6 0 1.3 1.3 0 1 1 2.6 0m32 0a1.3 1.3 0 1 1-2.6 0 1.3 1.3 0 1 1 2.6 0m32 0a1.3 1.3 0 1 1-2.6 0 1.3 1.3 0 1 1 2.6 0m32 0a1.3 1.3 0 1 1-2.6 0 1.3 1.3 0 1 1 2.6 0m32 0a1.3 1.3 0 1 1-2.6 0 1.3 1.3 0 1 1 2.6 0m32 0a1.3 1.3 0 1 1-2.6 0 1.3 1.3 0 1 1 2.6 0m32 0a1.3 1.3 0 1 1-2.6 0 1.3 1.3 0 1 1 2.6 0m32 0a1.3 1.3 0 1 1-2.6 0 1.3 1.3 0 1 1 2.6 0m32 0a1.3 1.3 0 1 1-2.6 0 1.3 1.3 0 1 1 2.6 0m32 0a1.3 1.3 0 1 1-2.6 0 1.3 1.3 0 1 1 2.6 0m32 0a1.3 1.3 0 1 1-2.6 0 1.3 1.3 0 1 1 2.6 0m32 0a1.3 1.3 0 1 1-2.6 0 1.3 1.3 0 1 1 2.6 0m32 0a1.3 1.3 0 1 1-2.6 0 1.3 1.3 0 1 1 2.6 0" opacity=".26"/><path fill="#90ebcd" stroke="#0c322c" stroke-width="2" d="M-25.2 0h50.4l26.4 131H-51.6Z"/><text y="68.5" fill="#0c322c" font-family="SUSE, system-ui, -apple-system, 'Segoe UI', Roboto, sans-serif" font-size="10" font-weight="600" text-anchor="middle">CEO</text><text y="79.5" fill="#6f6f6f" font-family="SUSE, system-ui, -apple-system, 'Segoe UI', Roboto, sans-serif" font-size="8" font-weight="400" text-anchor="middle">DP Van Leeuwen</text><path fill="#bff1ea" stroke="#0c322c" stroke-width="2" d="M-51.6 137H51.6L78 268H-78Z"/><text y="205.5" fill="#0c322c" font-family="SUSE, system-ui, -apple-system, 'Segoe UI', Roboto, sans-serif" font-size="10" font-weight="600" text-anchor="middle">CAISO</text><text y="216.5" fill="#6f6f6f" font-family="SUSE, system-ui, -apple-system, 'Segoe UI', Roboto, sans-serif" font-size="8" font-weight="400" text-anchor="middle">Frank Feldmann</text><path fill="#d8f3ec" stroke="#0c322c" stroke-width="2" d="M-78 274H78l26.4 131h-208.8Z"/><text y="342.5" fill="#0c322c" font-family="SUSE, system-ui, -apple-system, 'Segoe UI', Roboto, sans-serif" font-size="10" font-weight="600" text-anchor="middle">Corporate Development</text><text y="353.5" fill="#6f6f6f" font-family="SUSE, system-ui, -apple-system, 'Segoe UI', Roboto, sans-serif" font-size="8" font-weight="400" text-anchor="middle">Charlie Metz</text><path fill="#effbf7" stroke="#0c322c" stroke-width="2" d="M-104.4 411h208.8l26.4 131h-261.6Z"/><text y="479.5" fill="#0c322c" font-family="SUSE, system-ui, -apple-system, 'Segoe UI', Roboto, sans-serif" font-size="10" font-weight="600" text-anchor="middle">CIO</text><text y="490.5" fill="#6f6f6f" font-family="SUSE, system-ui, -apple-system, 'Segoe UI', Roboto, sans-serif" font-size="8" font-weight="400" text-anchor="middle">Jochen Jasser</text><path fill="#90ebcd" stroke="#0c322c" stroke-width="2" d="M-130.8 548h261.6l26.4 131h-314.4Z"/><text y="616.5" fill="#0c322c" font-family="SUSE, system-ui, -apple-system, 'Segoe UI', Roboto, sans-serif" font-size="10" font-weight="600" text-anchor="middle">Lolly&apos;s Dad</text><text y="627.5" fill="#6f6f6f" font-family="SUSE, system-ui, -apple-system, 'Segoe UI', Roboto, sans-serif" font-size="8" font-weight="400" text-anchor="middle">Andy Fitzsimon</text><path fill="#bff1ea" stroke="#0c322c" stroke-width="2" d="M-157.2 685h314.4l26.4 131h-367.2Z"/><text y="753.5" fill="#0c322c" font-family="SUSE, system-ui, -apple-system, 'Segoe UI', Roboto, sans-serif" font-size="10" font-weight="600" text-anchor="middle">Sovereign Solutions</text><text y="764.5" fill="#6f6f6f" font-family="SUSE, system-ui, -apple-system, 'Segoe UI', Roboto, sans-serif" font-size="8" font-weight="400" text-anchor="middle">Andreas Prins</text><path fill="#d8f3ec" stroke="#0c322c" stroke-width="2" d="M-183.6 822h367.2L210 953h-420Z"/><text y="890.5" fill="#0c322c" font-family="SUSE, system-ui, -apple-system, 'Segoe UI', Roboto, sans-serif" font-size="10" font-weight="600" text-anchor="middle">EPMO</text><text y="901.5" fill="#6f6f6f" font-family="SUSE, system-ui, -apple-system, 'Segoe UI', Roboto, sans-serif" font-size="8" font-weight="400" text-anchor="middle">Frank Rego</text><text y="-59" fill="#0c322c" font-family="SUSE, system-ui, -apple-system, 'Segoe UI', Roboto, sans-serif" font-size="26" font-weight="600" text-anchor="middle">Adoption Model</text></svg>