<svg xmlns="http://www.w3.org/2000/svg" width="1080" height="1080" viewBox="0 0 1080 1080"><path fill="#0c322c" d="M0 0h1080v1080H0z"/><path fill="#0c322c" d="M0 0h1080v1080H0z"/><svg xmlns="http://www.w3.org/2000/svg" xmlns:c2pa="http://c2pa.org/manifest" width="539.95" height="96.77" x="270.02" y="370.39" viewBox="0 0 210.18 37.67"><path fill="#fff" d="M194.7 30.87a5.96 5.96 0 0 1-5.96-5.96V7.26a5.97 5.97 0 0 1 5.96-5.96h13.55c1.07 0 1.93.86 1.93 1.92a1.93 1.93 0 0 1-1.93 1.92H194.7a2.1 2.1 0 0 0-2.1 2.11v6.95h13.29c1 0 1.82.82 1.82 1.83a1.83 1.83 0 0 1-1.82 1.82h-13.3v7.06a2.1 2.1 0 0 0 2.1 2.11h13.56c1.07 0 1.93.87 1.93 1.93a1.93 1.93 0 0 1-1.93 1.92zm-60.78.39c-3.91 0-6.92-1-8.95-2.95s-3.06-4.9-3.06-8.74V3.14c0-1.23 1-2.23 2.23-2.23a2.23 2.23 0 0 1 2.23 2.23v15.84q0 4.34 1.84 6.41 1.86 2.08 5.7 2.09 3.86 0 5.7-2.09c1.23-1.37 1.85-3.53 1.85-6.4V3.13A2.24 2.24 0 0 1 143.69.9a2.23 2.23 0 0 1 2.23 2.23v16.43c0 3.84-1.03 6.78-3.06 8.74s-5.04 2.95-8.94 2.95m33.52 0c-5.03 0-8.87-1.43-11.4-4.25a2.1 2.1 0 0 1 .11-2.86l.01-.01.01-.01a2 2 0 0 1 1.5-.62c.6 0 1.16.26 1.55.7a9 9 0 0 0 2.4 1.97q2.33 1.3 5.78 1.3 3.26 0 5.15-1.14A3.7 3.7 0 0 0 174.5 23q-.01-1.74-1.76-2.8c-1.13-.69-3.04-1.27-5.84-1.8q-4.08-.76-6.5-1.88a8 8 0 0 1-3.47-2.73 7 7 0 0 1-1.08-3.96 8 8 0 0 1 1.37-4.5 9.4 9.4 0 0 1 3.96-3.23q2.6-1.2 6.1-1.2 4.06 0 6.93 1.47a12 12 0 0 1 3.45 2.68c.77.86.7 2.2-.16 2.97a2.1 2.1 0 0 1-3.08-.28 8 8 0 0 0-1.92-1.8q-1.96-1.25-5.18-1.25-3.19 0-4.97 1.28a4 4 0 0 0-1.8 3.36q0 1.92 1.77 3.06c1.14.72 3.12 1.33 6.04 1.86q4 .72 6.35 1.81a8 8 0 0 1 3.38 2.69 7 7 0 0 1 1.05 3.98q0 2.55-1.45 4.49a9 9 0 0 1-4.1 2.98q-2.64 1.05-6.14 1.05m-66.83 0c-5.03 0-8.87-1.42-11.4-4.24a2.1 2.1 0 0 1 .11-2.87l.02-.01a2.1 2.1 0 0 1 3.05.08 9 9 0 0 0 2.4 1.97q2.33 1.3 5.78 1.3 3.27 0 5.15-1.15a3.7 3.7 0 0 0 1.94-3.32q-.01-1.75-1.76-2.8c-1.13-.69-3.04-1.28-5.84-1.8q-4.08-.76-6.51-1.88a8 8 0 0 1-3.46-2.73A7 7 0 0 1 89 9.85a8 8 0 0 1 1.37-4.5 9.4 9.4 0 0 1 3.96-3.23q2.61-1.2 6.09-1.2 4.07 0 6.94 1.47a12 12 0 0 1 3.45 2.68 2.1 2.1 0 0 1-1.57 3.51 2.1 2.1 0 0 1-1.67-.82 8 8 0 0 0-1.92-1.8q-1.96-1.25-5.18-1.26-3.2 0-4.97 1.29a4 4 0 0 0-1.8 3.36q0 1.92 1.76 3.05c1.15.73 3.13 1.34 6.06 1.87a27 27 0 0 1 6.35 1.81 8 8 0 0 1 3.37 2.69 7 7 0 0 1 1.05 3.98q0 2.55-1.45 4.48a9 9 0 0 1-4.1 3q-2.64 1.04-6.14 1.04M70.97 11.39a1.17 1.17 0 0 0-1.68 0 1.2 1.2 0 0 0 .19 1.83c.39.25.9.25 1.3 0a1.2 1.2 0 0 0 .19-1.83m-1.56-4.2a4.55 4.55 0 0 0-5.46 5.47 4.6 4.6 0 0 0 3.4 3.4 4.55 4.55 0 0 0 5.46-5.47 4.6 4.6 0 0 0-3.4-3.4M14.6 37.68c-3.9 0-7.78-1.58-10.14-4.12C1.54 30.44-.21 27.29.02 21.29c.15-3.78 2.25-7.93 5.61-11.1A38 38 0 0 1 23.93.85a41 41 0 0 1 8.25-.83q2.1 0 4.17.2c3.87.4 7.5 1.1 10.8 2.13a42 42 0 0 1 5.1 1.94l.71.32c1.33.59 2.83 1.25 3.77 2.21l.36.37v-.52q0-1.7-.04-3.4Q57.01 1.8 57 .64c0-.4.33-.64.64-.64q.14 0 .26.06l3.14 1.47c2.72 1.27 6.1 2.86 8.67 4.03a8.2 8.2 0 0 1 4.5 5.22c.72 2.18.86 4.63.96 7.17q0 .14-.02.21c-.02.03-.1.14-.68.14h-.98c-.54 0-1.15 0-1.6.02a31 31 0 0 1-3.57-.03c-2-.1-4.13-.94-5.7-2.26-.14-.12-.4-.2-.62-.2a.7.7 0 0 0-.5.2.8.8 0 0 0-.02 1.02 10.4 10.4 0 0 0 7.15 2.91 32 32 0 0 0 4.74-.1l.24-.01q.3-.04.52-.05l-.55.43a13 13 0 0 1-3.72 1.86 20 20 0 0 1-5.9 1.02h-.61q-1.5 0-3-.19l-.79-.1q-.54-.1-1.1-.15l-.27-.03a7 7 0 0 0-.79-.06q-.3 0-.56.05a2.2 2.2 0 0 0-1.3.8c-.46.6-.59 2.13-.34 2.78.48 1.31 1.57 2.04 2.55 2.63q.48.28.99.49c.81.36 1.52.68 1.75 1.41-.3.08-1.21.14-2.22.14H54.7c-.96 0-1.7-.07-2.04-.2h-.03c-.29-.16-.43-.58-.54-.93v-.01a7 7 0 0 0-.9-1.64 7 7 0 0 0-3.06-2.64 9 9 0 0 0-3.56-.65l-1.15.02-1.07.02h-.79l-1.28-.01c-.49-.01-1.05-.03-2.05-.03-.33 0-.57.35-.65.94-.14 1.07.3 2.85 2.1 3.35l.49.13c.87.22 1.78.45 2.41 1.1.2.21.27.4.24.46-.01.03-.1.09-.35.09h-6.22c-1.04 0-1.83-.05-2.5-.6-1.11-.95-1.66-2.21-2.23-3.55l-.1-.22a40 40 0 0 0-2.11-4.28c-1.83-3.13-4.04-5.42-6.58-6.78-2-1.07-4.5-1.68-6.84-1.68-2.82 0-5.45.87-7.59 2.51a8.5 8.5 0 0 0-3.38 6.77 10.4 10.4 0 0 0 3.82 8.04 9 9 0 0 0 5.7 1.9q.3 0 .6-.03a7.8 7.8 0 0 0 5.8-2.82 5.8 5.8 0 0 0 1.1-4.75 5 5 0 0 0-2.28-3.36 5.6 5.6 0 0 0-2.84-.68h-.02q-1.96 0-2.95.98c-.94.9-1.09 2.5-.34 3.57l.32.41c.33.38.6.72.54 1.16a1 1 0 0 1-.78.76l-.31.04c-.65 0-1.22-.44-1.58-.82a5.1 5.1 0 0 1-1.03-5.36c1.02-2.45 3.75-3.55 6-3.55h.23a9.1 9.1 0 0 1 7.79 5.32 10 10 0 0 1-.93 9.48c-1.88 2.75-5.22 4.33-9.16 4.33m57.07-26.05a3.3 3.3 0 1 1-6.6 0 3.3 3.3 0 1 1 6.6 0"/></svg><path fill="#fff" d="M299.59 583.81q-12.35 0-21.85-5.46t-14.85-15.09-5.35-22.1v-1.3q0-12.6 5.46-22.22t15.09-15.09 22.22-5.46q8.91 0 16.15 3.03 7.25 3.03 12.95 8.49l-10.09 10.22q-3.92-4.16-8.68-6t-10.09-1.84q-8.32 0-14.62 3.68t-9.92 10.22q-3.62 6.53-3.62 14.97v1.3q0 8.56 3.56 15.03 3.57 6.48 9.8 10.22t14.2 3.74q6.77 0 11.88-2.85t8.02-7.72 2.91-11.05h-19.84v-11.88h34.1q1.66 13.9-2.5 24.53t-13.13 16.63-21.8 6m73.07-.59q-8.68 0-15.27-3.74t-10.28-10.46-3.68-15.62v-1.19q0-8.2 3.39-14.85 3.38-6.65 9.62-10.51t14.55-3.86q8.68 0 14.85 4.21t9.03 11.94 1.55 18.18h-39.44q.71 6.06 4.93 10.04t11.46 3.98q4.28 0 7.37-1.19t5.58-3.56l7.72 8.07q-3.44 4.28-8.97 6.42-5.52 2.14-12.41 2.14m-1.55-49.19q-6.06 0-9.5 3.75t-4.4 9.8h26.14q-.24-6.42-3.62-9.98-3.39-3.57-8.62-3.57m57.26 48q-4.15 0-8.25-1.43-4.1-1.42-6.83-5.16t-2.74-10.4v-29.22h-9.86v-11.65h9.86v-14.13h13.67v14.13h13.42v11.65h-13.42v30.29q0 1.78 1.24 3.03 1.25 1.25 3.03 1.25h9.15v11.64zm61.42 1.07q-6.89 0-12.65-2.02t-9.56-4.99l5.94-9.39q3.44 2.5 7.66 4.1 4.22 1.61 8.61 1.61 4.28 0 6.83-1.78 2.56-1.79 2.56-4.64t-2.08-4.27-5.41-2.32q-3.32-.89-7.06-1.84-3.75-.95-7.07-2.74-3.33-1.78-5.47-5.04-2.14-3.27-2.14-8.62 0-7.96 6.06-13.07 6.06-5.1 16.28-5.1 5.7 0 10.81 1.54 5.11 1.55 9.15 4.28l-6.06 9.15q-6.65-4.52-14.02-4.52-4.16 0-6.65 1.84t-2.5 4.69q0 2.62 2.2 4.1 2.2 1.49 5.58 2.38 3.39.89 7.19 1.96t7.19 2.91 5.58 5.11 2.2 8.61q0 5.35-2.97 9.39t-8.2 6.35-12 2.32m55.48-1.07q-4.15 0-8.25-1.43-4.1-1.42-6.83-5.16t-2.74-10.4v-29.22h-9.86v-11.65h9.86v-14.13h13.67v14.13h13.42v11.65h-13.42v30.29q0 1.78 1.24 3.03 1.25 1.25 3.03 1.25h9.15v11.64zm37.07 1.19q-9.86 0-15.68-4.81t-5.82-12.42q0-7.72 6.35-12.77 6.36-5.05 16.93-5.05 7.96 0 13.19 2.85v-5.58q0-5.7-3.21-8.08t-8.2-2.37q-4.39 0-9.09 1.66t-8.01 4.75l-6.18-9.27q3.8-4.27 10.39-6.71 6.6-2.43 13.72-2.43 10.7 0 17.41 5.52t6.71 16.22v18.65q0 4.75.06 9.38t.3 9.27h-12.12l-.12-5.94q-4.87 7.13-16.63 7.13m3.8-10.1q5.11 0 8.2-2.14t3.09-5.58q0-3.33-3.09-5.47t-8.32-2.14q-5.11 0-8.25 2.14-3.15 2.14-3.15 5.47 0 3.44 3.15 5.58t8.37 2.14m38.25 8.91v-57.86h13.19v8.44q2.14-4.99 6.3-6.95t9.26-1.96h4.76v13.54h-5.83q-6.77 0-10.39 3.09t-3.62 9.03v32.67zm63.8 0q-4.16 0-8.26-1.43-4.1-1.42-6.83-5.16t-2.73-10.4v-29.22h-9.86v-11.65h9.86v-14.13h13.66v14.13h13.43v11.65h-13.43v30.29q0 1.78 1.25 3.03t3.03 1.25h9.15v11.64zm43.72 1.19q-8.67 0-15.27-3.74t-10.27-10.46q-3.69-6.71-3.69-15.62v-1.19q0-8.2 3.39-14.85 3.38-6.65 9.62-10.51t14.55-3.86q8.68 0 14.85 4.21t9.03 11.94 1.55 18.18h-39.44q.71 6.06 4.93 10.04t11.46 3.98q4.28 0 7.37-1.19t5.58-3.56l7.72 8.07q-3.44 4.28-8.97 6.42-5.52 2.14-12.41 2.14m-1.55-49.19q-6.06 0-9.5 3.75t-4.4 9.8h26.14q-.24-6.42-3.62-9.98-3.39-3.57-8.62-3.57M790 583.22q-7.84 0-14.02-3.68t-9.74-10.34-3.56-15.56v-1.19q0-8.67 3.62-15.33t9.8-10.39 14.02-3.74q5.35 0 9.8 2.02t7.78 5.58v-35.28h13.66v86.72h-12.35v-7.84q-3.45 4.28-8.32 6.65T790 583.22m2.14-12q7.01 0 11.7-4.87t4.69-13.19q0-8.43-4.69-13.24t-11.7-4.82q-6.53 0-11.17 4.64t-4.63 12.71v1.19q0 8.08 4.63 12.83t11.17 4.75"/><rect width="297.88" height="99.34" x="391.06" y="610.27" fill="#fff" rx="49.67" ry="49.67"/><path fill="#0c322c" d="M455.96 676.35q-2.58 0-4.76-.78-2.19-.78-3.62-1.93l1.98-3.08q1.34 1.01 2.99 1.63t3.41.62q1.84 0 2.96-.83 1.13-.82 1.13-2.11 0-1.2-.83-1.82t-2.14-.99-2.8-.76-2.81-1.05-2.16-1.89-.85-3.29q0-3.04 2.28-4.94t6.09-1.91q2.16 0 4.07.62t3.38 1.63l-2.02 3.04q-1.2-.83-2.6-1.31t-2.88-.49q-1.79 0-2.89.83-1.11.83-1.11 2.12 0 1.19.85 1.81t2.21.99l2.85.78q1.5.42 2.86 1.11t2.2 1.93q.85 1.24.85 3.31 0 1.98-1.12 3.5t-3.06 2.39-4.46.87m21.89.05q-3.68 0-6.12-2.21t-2.43-6.9v-13.61h4.46v12.78q0 3.27 1.42 4.54 1.43 1.26 3.64 1.26 2.3 0 3.91-1.49 1.61-1.5 1.61-4.54v-12.55h4.46v22.26h-3.96v-3.04q-1.38 2.07-3.35 2.79-1.98.71-3.64.71m23.92-.05q-2.57 0-4.76-.78t-3.61-1.93l1.98-3.08q1.33 1.01 2.99 1.63 1.65.62 3.4.62 1.84 0 2.97-.83 1.13-.82 1.13-2.11 0-1.2-.83-1.82t-2.14-.99-2.81-.76-2.8-1.05-2.16-1.89-.86-3.29q0-3.04 2.28-4.94t6.1-1.91q2.16 0 4.07.62t3.38 1.63l-2.03 3.04q-1.19-.83-2.59-1.31-1.41-.49-2.88-.49-1.79 0-2.9.83t-1.1 2.12q0 1.19.85 1.81t2.21.99l2.85.78q1.49.42 2.85 1.11t2.21 1.93.85 3.31q0 1.98-1.13 3.5t-3.06 2.39-4.46.87m23.32.05q-3.35 0-5.88-1.45t-3.94-4.02q-1.4-2.58-1.4-5.98v-.46q0-3.22 1.31-5.78 1.31-2.55 3.68-4.02t5.54-1.47q3.27 0 5.59 1.61 2.33 1.61 3.41 4.5 1.08 2.9.62 6.86h-15.69q.28 2.67 2.1 4.44 1.81 1.77 4.85 1.77 3.31 0 5.24-1.8l2.58 2.72q-1.34 1.52-3.41 2.3t-4.6.78m-.69-19.46q-2.57 0-4.09 1.61t-1.89 4.23h11.27q-.04-2.76-1.51-4.3-1.48-1.54-3.78-1.54m14.08 19v-5.66h5.29v5.66zm20.84.46q-3.36 0-5.96-1.45t-4.09-4-1.5-5.87v-.55q0-3.36 1.52-5.91t4.12-3.98 5.91-1.42q2.44 0 4.51.94t3.45 2.6l-2.76 2.8q-1.98-2.2-5.2-2.2-3.04 0-5.02 1.95-1.97 1.96-1.97 5.22v.55q0 3.22 2 5.2t5.03 1.98q1.52 0 2.86-.53t2.43-1.63l2.72 2.76q-1.38 1.65-3.5 2.6-2.11.94-4.55.94m21.66 0q-3.22 0-5.77-1.47t-4.05-4.05-1.49-5.93v-.42q0-3.31 1.49-5.86 1.5-2.56 4.05-4 2.55-1.45 5.77-1.45t5.75 1.45 4.01 3.97 1.47 5.85v.46q0 3.35-1.47 5.93-1.48 2.58-4.01 4.05t-5.75 1.47m0-4q2.99 0 4.86-2.07 1.86-2.07 1.86-5.38v-.46q0-3.22-1.86-5.25-1.87-2.02-4.86-2.02t-4.87 2.05-1.89 5.26v.42q0 3.31 1.89 5.38 1.88 2.07 4.87 2.07m16.29 3.54v-22.26h4.32v3.12q1.29-2.07 3.15-2.82 1.87-.76 3.61-.76 2.3 0 4.05.99 1.75.98 2.72 2.96.96-1.56 2.27-2.41t2.69-1.2 2.49-.34q3.63 0 5.91 2.32t2.28 7.01v13.39h-4.47V663.2q0-3.08-1.31-4.46t-3.52-1.38-3.7 1.49-1.49 4.3v12.79h-4.51V663.2q0-3.08-1.31-4.46t-3.48-1.38q-2.25 0-3.74 1.49-1.5 1.5-1.5 4.3v12.79z"/></svg>