<svg xmlns="http://www.w3.org/2000/svg" width="970" height="250" viewBox="0 0 970 250"><path fill="#0c322c" d="M0 0h970v250H0z"/><path fill="#2fb9a0" d="M0 0h970v250H0z"/><svg xmlns="http://www.w3.org/2000/svg" xmlns:c2pa="http://c2pa.org/manifest" width="388" height="69.53" x="-19.48" y="90.23" viewBox="0 0 210.18 37.67"><path fill="#fff" d="M194.7 30.87a5.96 5.96 0 0 1-5.96-5.96V7.26a5.97 5.97 0 0 1 5.96-5.96h13.55c1.07 0 1.93.86 1.93 1.92a1.93 1.93 0 0 1-1.93 1.92H194.7a2.1 2.1 0 0 0-2.1 2.11v6.95h13.29c1 0 1.82.82 1.82 1.83a1.83 1.83 0 0 1-1.82 1.82h-13.3v7.06a2.1 2.1 0 0 0 2.1 2.11h13.56c1.07 0 1.93.87 1.93 1.93a1.93 1.93 0 0 1-1.93 1.92zm-60.78.39c-3.91 0-6.92-1-8.95-2.95s-3.06-4.9-3.06-8.74V3.14c0-1.23 1-2.23 2.23-2.23a2.23 2.23 0 0 1 2.23 2.23v15.84q0 4.34 1.84 6.41 1.86 2.08 5.7 2.09 3.86 0 5.7-2.09c1.23-1.37 1.85-3.53 1.85-6.4V3.13A2.24 2.24 0 0 1 143.69.9a2.23 2.23 0 0 1 2.23 2.23v16.43c0 3.84-1.03 6.78-3.06 8.74s-5.04 2.95-8.94 2.95m33.52 0c-5.03 0-8.87-1.43-11.4-4.25a2.1 2.1 0 0 1 .11-2.86l.01-.01.01-.01a2 2 0 0 1 1.5-.62c.6 0 1.16.26 1.55.7a9 9 0 0 0 2.4 1.97q2.33 1.3 5.78 1.3 3.26 0 5.15-1.14A3.7 3.7 0 0 0 174.5 23q-.01-1.74-1.76-2.8c-1.13-.69-3.04-1.27-5.84-1.8q-4.08-.76-6.5-1.88a8 8 0 0 1-3.47-2.73 7 7 0 0 1-1.08-3.96 8 8 0 0 1 1.37-4.5 9.4 9.4 0 0 1 3.96-3.23q2.6-1.2 6.1-1.2 4.06 0 6.93 1.47a12 12 0 0 1 3.45 2.68c.77.86.7 2.2-.16 2.97a2.1 2.1 0 0 1-3.08-.28 8 8 0 0 0-1.92-1.8q-1.96-1.25-5.18-1.25-3.19 0-4.97 1.28a4 4 0 0 0-1.8 3.36q0 1.92 1.77 3.06c1.14.72 3.12 1.33 6.04 1.86q4 .72 6.35 1.81a8 8 0 0 1 3.38 2.69 7 7 0 0 1 1.05 3.98q0 2.55-1.45 4.49a9 9 0 0 1-4.1 2.98q-2.64 1.05-6.14 1.05m-66.83 0c-5.03 0-8.87-1.42-11.4-4.24a2.1 2.1 0 0 1 .11-2.87l.02-.01a2.1 2.1 0 0 1 3.05.08 9 9 0 0 0 2.4 1.97q2.33 1.3 5.78 1.3 3.27 0 5.15-1.15a3.7 3.7 0 0 0 1.94-3.32q-.01-1.75-1.76-2.8c-1.13-.69-3.04-1.28-5.84-1.8q-4.08-.76-6.51-1.88a8 8 0 0 1-3.46-2.73A7 7 0 0 1 89 9.85a8 8 0 0 1 1.37-4.5 9.4 9.4 0 0 1 3.96-3.23q2.61-1.2 6.09-1.2 4.07 0 6.94 1.47a12 12 0 0 1 3.45 2.68 2.1 2.1 0 0 1-1.57 3.51 2.1 2.1 0 0 1-1.67-.82 8 8 0 0 0-1.92-1.8q-1.96-1.25-5.18-1.26-3.2 0-4.97 1.29a4 4 0 0 0-1.8 3.36q0 1.92 1.76 3.05c1.15.73 3.13 1.34 6.06 1.87a27 27 0 0 1 6.35 1.81 8 8 0 0 1 3.37 2.69 7 7 0 0 1 1.05 3.98q0 2.55-1.45 4.48a9 9 0 0 1-4.1 3q-2.64 1.04-6.14 1.04M70.97 11.39a1.17 1.17 0 0 0-1.68 0 1.2 1.2 0 0 0 .19 1.83c.39.25.9.25 1.3 0a1.2 1.2 0 0 0 .19-1.83m-1.56-4.2a4.55 4.55 0 0 0-5.46 5.47 4.6 4.6 0 0 0 3.4 3.4 4.55 4.55 0 0 0 5.46-5.47 4.6 4.6 0 0 0-3.4-3.4M14.6 37.68c-3.9 0-7.78-1.58-10.14-4.12C1.54 30.44-.21 27.29.02 21.29c.15-3.78 2.25-7.93 5.61-11.1A38 38 0 0 1 23.93.85a41 41 0 0 1 8.25-.83q2.1 0 4.17.2c3.87.4 7.5 1.1 10.8 2.13a42 42 0 0 1 5.1 1.94l.71.32c1.33.59 2.83 1.25 3.77 2.21l.36.37v-.52q0-1.7-.04-3.4Q57.01 1.8 57 .64c0-.4.33-.64.64-.64q.14 0 .26.06l3.14 1.47c2.72 1.27 6.1 2.86 8.67 4.03a8.2 8.2 0 0 1 4.5 5.22c.72 2.18.86 4.63.96 7.17q0 .14-.02.21c-.02.03-.1.14-.68.14h-.98c-.54 0-1.15 0-1.6.02a31 31 0 0 1-3.57-.03c-2-.1-4.13-.94-5.7-2.26-.14-.12-.4-.2-.62-.2a.7.7 0 0 0-.5.2.8.8 0 0 0-.02 1.02 10.4 10.4 0 0 0 7.15 2.91 32 32 0 0 0 4.74-.1l.24-.01q.3-.04.52-.05l-.55.43a13 13 0 0 1-3.72 1.86 20 20 0 0 1-5.9 1.02h-.61q-1.5 0-3-.19l-.79-.1q-.54-.1-1.1-.15l-.27-.03a7 7 0 0 0-.79-.06q-.3 0-.56.05a2.2 2.2 0 0 0-1.3.8c-.46.6-.59 2.13-.34 2.78.48 1.31 1.57 2.04 2.55 2.63q.48.28.99.49c.81.36 1.52.68 1.75 1.41-.3.08-1.21.14-2.22.14H54.7c-.96 0-1.7-.07-2.04-.2h-.03c-.29-.16-.43-.58-.54-.93v-.01a7 7 0 0 0-.9-1.64 7 7 0 0 0-3.06-2.64 9 9 0 0 0-3.56-.65l-1.15.02-1.07.02h-.79l-1.28-.01c-.49-.01-1.05-.03-2.05-.03-.33 0-.57.35-.65.94-.14 1.07.3 2.85 2.1 3.35l.49.13c.87.22 1.78.45 2.41 1.1.2.21.27.4.24.46-.01.03-.1.09-.35.09h-6.22c-1.04 0-1.83-.05-2.5-.6-1.11-.95-1.66-2.21-2.23-3.55l-.1-.22a40 40 0 0 0-2.11-4.28c-1.83-3.13-4.04-5.42-6.58-6.78-2-1.07-4.5-1.68-6.84-1.68-2.82 0-5.45.87-7.59 2.51a8.5 8.5 0 0 0-3.38 6.77 10.4 10.4 0 0 0 3.82 8.04 9 9 0 0 0 5.7 1.9q.3 0 .6-.03a7.8 7.8 0 0 0 5.8-2.82 5.8 5.8 0 0 0 1.1-4.75 5 5 0 0 0-2.28-3.36 5.6 5.6 0 0 0-2.84-.68h-.02q-1.96 0-2.95.98c-.94.9-1.09 2.5-.34 3.57l.32.41c.33.38.6.72.54 1.16a1 1 0 0 1-.78.76l-.31.04c-.65 0-1.22-.44-1.58-.82a5.1 5.1 0 0 1-1.03-5.36c1.02-2.45 3.75-3.55 6-3.55h.23a9.1 9.1 0 0 1 7.79 5.32 10 10 0 0 1-.93 9.48c-1.88 2.75-5.22 4.33-9.16 4.33m57.07-26.05a3.3 3.3 0 1 1-6.6 0 3.3 3.3 0 1 1 6.6 0"/></svg><path fill="#0c322c" d="M389.15 147v-37.63h-12.73v-7.17h33.53v7.17h-12.86V147zm19.46 0v-31.17h7.1v4.55q1.15-2.69 3.39-3.75 2.24-1.05 5-1.05h2.56v7.29h-3.14q-3.65 0-5.6 1.67-1.95 1.66-1.95 4.86V147zm20.09 12.8v-6.27h6.79q.89 0 1.41-.51.51-.52.89-1.35l1.92-4.22-12.67-31.62h8.19l8.45 22.59 7.68-22.59h8.19l-14.4 36.16q-.7 1.79-1.79 3.62-1.09 1.82-3.04 3.01t-5.22 1.18zM476 147v-44.8h16q7.1 0 11.39 3.62 4.29 3.61 4.29 10.46 0 5.18-2.4 8.48t-6.56 4.7l10.3 17.54H500l-9.34-16.58h-6.85V147zm15.62-38.14h-7.81v14.97h7.81q3.58 0 5.79-1.92t2.21-5.5q0-3.46-2.21-5.51t-5.79-2.04m31.48 38.78q-5.31 0-8.44-2.59-3.14-2.59-3.14-6.69 0-4.16 3.42-6.88 3.43-2.72 9.12-2.72 4.29 0 7.11 1.54v-3.01q0-3.07-1.73-4.35t-4.42-1.28q-2.36 0-4.89.89-2.53.9-4.32 2.56l-3.33-4.99q2.05-2.3 5.6-3.62 3.55-1.31 7.39-1.31 5.76 0 9.38 2.98 3.61 2.97 3.61 8.73v10.05q0 2.56.04 5.06.03 2.49.16 4.99h-6.53l-.07-3.2q-2.62 3.84-8.96 3.84m2.05-5.44q2.75 0 4.42-1.15 1.66-1.15 1.66-3.01 0-1.79-1.66-2.94-1.67-1.16-4.48-1.16-2.75 0-4.45 1.16-1.7 1.15-1.7 2.94 0 1.86 1.7 3.01t4.51 1.15m20.61 4.8v-31.17h7.1v3.97q1.92-2.75 4.58-3.68t4.83-.93q5.25 0 8.42 3.43 3.17 3.42 3.17 9.82V147h-7.36v-17.34q0-4.1-1.76-5.92t-4.52-1.83q-3 0-5.05 2.02-2.05 2.01-2.05 5.85V147zm49.6.64q-4.67 0-8.35-2.02-3.68-2.01-5.79-5.6-2.12-3.58-2.12-8.25v-.71q0-4.73 2.15-8.32t5.82-5.56q3.68-1.99 8.29-1.99 3.46 0 6.46 1.38t4.87 3.81l-4.48 4.54q-1.28-1.47-3.04-2.21-1.76-.73-3.75-.73-3.84 0-6.36 2.43t-2.53 6.65v.71q0 4.16 2.59 6.62 2.59 2.47 6.37 2.47 1.92 0 3.68-.68 1.76-.67 3.23-2.14l4.42 4.42q-1.86 2.43-4.93 3.8-3.07 1.38-6.53 1.38m16.26-.64v-46.72h7.1v19.52q1.92-2.75 4.58-3.68 2.65-.93 4.83-.93 5.25 0 8.41 3.43 3.17 3.42 3.17 9.82V147h-7.36v-17.34q0-4.1-1.76-5.92t-4.51-1.83q-3.01 0-5.06 2.02-2.04 2.01-2.04 5.85V147zm49.15.64q-4.67 0-8.23-2.02-3.55-2.01-5.53-5.63-1.99-3.61-1.99-8.41v-.64q0-4.42 1.83-8 1.82-3.59 5.18-5.67t7.84-2.08q4.67 0 8 2.27t4.87 6.44.83 9.79h-21.25q.38 3.26 2.66 5.41 2.27 2.14 6.17 2.14 2.31 0 3.97-.64t3.01-1.92l4.16 4.35q-1.86 2.31-4.83 3.46-2.98 1.15-6.69 1.15m-.83-26.5q-3.27 0-5.12 2.02-1.86 2.02-2.37 5.28h14.08q-.13-3.46-1.95-5.38-1.83-1.92-4.64-1.92M679.26 147v-31.17h7.11v4.55q1.15-2.69 3.39-3.75 2.24-1.05 4.99-1.05h2.56v7.29h-3.13q-3.65 0-5.6 1.67-1.96 1.66-1.96 4.86V147zm28.44-7v-21.3h4.18v3.26q.75-1.94 2.31-2.66 1.57-.73 3.5-.73h1.76v4.27h-2.11q-2.55 0-3.94 1.21-1.38 1.21-1.38 3.63V140zm21.17.44q-3.61 0-5.79-1.78t-2.18-4.6q0-1.85 1.1-3.32 1.1-1.48 3.02-2.33 1.91-.86 4.42-.86 3.21 0 5.24 1.23v-2.33q0-2.33-1.28-3.35-1.28-1.01-3.34-1.01-1.68 0-3.44.62-1.76.61-3.03 1.89l-1.98-2.99q1.45-1.59 3.8-2.47 2.36-.88 4.91-.88 3.83 0 6.23 2.03 2.39 2.02 2.39 5.94v6.86q0 1.72.03 3.46.02 1.73.11 3.45h-3.88v-2.16q-1.89 2.6-6.33 2.6m1.19-3.21q2.15 0 3.41-.9 1.25-.91 1.25-2.36 0-1.41-1.25-2.31-1.26-.9-3.46-.9-2.15 0-3.45.9t-1.3 2.31 1.3 2.33 3.5.93m14.91 2.77v-21.3h4.14v3.04q1.32-2.02 3.23-2.75 1.92-.73 3.5-.73 3.61 0 5.81 2.34t2.2 6.82V140h-4.31v-11.92q0-3.13-1.37-4.49-1.36-1.37-3.47-1.37-2.25 0-3.83 1.5-1.59 1.5-1.59 4.44V140zm34.5.44q-3.21 0-5.7-1.39-2.49-1.38-3.92-3.82-1.43-2.45-1.43-5.61v-.53q0-3.21 1.46-5.66 1.45-2.44 3.93-3.8 2.49-1.37 5.66-1.37 2.33 0 4.31.91 1.98.9 3.3 2.48l-2.64 2.69q-1.89-2.12-4.97-2.12-2.91 0-4.8 1.87t-1.89 5v.53q0 3.08 1.91 4.97 1.92 1.89 4.82 1.89 1.45 0 2.73-.51 1.28-.5 2.33-1.56l2.6 2.64q-1.32 1.59-3.35 2.49-2.02.9-4.35.9m11.97-.44v-32.12h4.13v13.86q1.32-2.02 3.24-2.75 1.91-.73 3.49-.73 3.61 0 5.81 2.34t2.2 6.82V140H806v-11.92q0-3.13-1.36-4.49-1.37-1.37-3.48-1.37-2.24 0-3.83 1.5t-1.58 4.44V140zm34.23.44q-3.21 0-5.63-1.39-2.42-1.38-3.77-3.85-1.34-2.46-1.34-5.72v-.44q0-3.08 1.26-5.52 1.25-2.44 3.52-3.85 2.26-1.41 5.3-1.41 3.12 0 5.34 1.54 2.23 1.54 3.26 4.32 1.03 2.77.59 6.55h-15q.26 2.55 2 4.25 1.74 1.69 4.64 1.69 3.17 0 5.02-1.71l2.46 2.59q-1.27 1.45-3.25 2.2t-4.4.75m-.66-18.61q-2.47 0-3.92 1.54t-1.8 4.05h10.78q-.05-2.64-1.45-4.12-1.41-1.47-3.61-1.47M839.04 140v-21.3h4.18v3.26q.75-1.94 2.31-2.66 1.57-.73 3.5-.73h1.76v4.27h-2.11q-2.55 0-3.94 1.21-1.38 1.21-1.38 3.63V140zm11.97 0v-5.41h5.06V140zm19.93.44q-3.21 0-5.69-1.39-2.49-1.38-3.92-3.82-1.43-2.45-1.43-5.61v-.53q0-3.21 1.45-5.66 1.45-2.44 3.94-3.8 2.49-1.37 5.65-1.37 2.34 0 4.32.91 1.98.9 3.3 2.48l-2.64 2.69q-1.9-2.12-4.98-2.12-2.9 0-4.79 1.87t-1.89 5v.53q0 3.08 1.91 4.97t4.82 1.89q1.45 0 2.73-.51 1.27-.5 2.33-1.56l2.59 2.64q-1.32 1.59-3.34 2.49t-4.36.9m20.73 0q-3.08 0-5.52-1.41-2.45-1.41-3.88-3.87t-1.43-5.68v-.39q0-3.17 1.43-5.61t3.88-3.83 5.52-1.39 5.5 1.39 3.83 3.81 1.4 5.58v.44q0 3.22-1.4 5.68-1.41 2.46-3.83 3.87t-5.5 1.41m0-3.83q2.86 0 4.64-1.98t1.78-5.15v-.44q0-3.08-1.78-5.01-1.78-1.94-4.64-1.94t-4.67 1.96-1.8 5.04v.39q0 3.17 1.8 5.15 1.81 1.98 4.67 1.98m15.57 3.39v-21.3h4.14v3q1.23-1.98 3.01-2.71 1.79-.73 3.46-.73 2.2 0 3.87.95t2.6 2.84q.92-1.5 2.17-2.31 1.26-.82 2.58-1.15t2.37-.33q3.48 0 5.66 2.23t2.18 6.71V140h-4.27v-12.19q0-2.95-1.26-4.27-1.25-1.32-3.36-1.32t-3.54 1.43-1.43 4.12V140h-4.32v-12.19q0-2.95-1.25-4.27t-3.32-1.32q-2.16 0-3.59 1.43t-1.43 4.12V140z"/></svg>