<svg xmlns="http://www.w3.org/2000/svg" width="864" height="1080" viewBox="0 0 864 1080"><path fill="#0c322c" d="M0 0h864v1080H0z"/><path fill="#30ba78" d="M0 0h864v1080H0z"/><svg xmlns="http://www.w3.org/2000/svg" xmlns:c2pa="http://c2pa.org/manifest" width="376.39" height="67.45" x="243.8" y="425.47" viewBox="0 0 210.18 37.67"><path fill="#fff" d="M194.7 30.87a5.96 5.96 0 0 1-5.96-5.96V7.26a5.97 5.97 0 0 1 5.96-5.96h13.55c1.07 0 1.93.86 1.93 1.92a1.93 1.93 0 0 1-1.93 1.92H194.7a2.1 2.1 0 0 0-2.1 2.11v6.95h13.29c1 0 1.82.82 1.82 1.83a1.83 1.83 0 0 1-1.82 1.82h-13.3v7.06a2.1 2.1 0 0 0 2.1 2.11h13.56c1.07 0 1.93.87 1.93 1.93a1.93 1.93 0 0 1-1.93 1.92zm-60.78.39c-3.91 0-6.92-1-8.95-2.95s-3.06-4.9-3.06-8.74V3.14c0-1.23 1-2.23 2.23-2.23a2.23 2.23 0 0 1 2.23 2.23v15.84q0 4.34 1.84 6.41 1.86 2.08 5.7 2.09 3.86 0 5.7-2.09c1.23-1.37 1.85-3.53 1.85-6.4V3.13A2.24 2.24 0 0 1 143.69.9a2.23 2.23 0 0 1 2.23 2.23v16.43c0 3.84-1.03 6.78-3.06 8.74s-5.04 2.95-8.94 2.95m33.52 0c-5.03 0-8.87-1.43-11.4-4.25a2.1 2.1 0 0 1 .11-2.86l.01-.01.01-.01a2 2 0 0 1 1.5-.62c.6 0 1.16.26 1.55.7a9 9 0 0 0 2.4 1.97q2.33 1.3 5.78 1.3 3.26 0 5.15-1.14A3.7 3.7 0 0 0 174.5 23q-.01-1.74-1.76-2.8c-1.13-.69-3.04-1.27-5.84-1.8q-4.08-.76-6.5-1.88a8 8 0 0 1-3.47-2.73 7 7 0 0 1-1.08-3.96 8 8 0 0 1 1.37-4.5 9.4 9.4 0 0 1 3.96-3.23q2.6-1.2 6.1-1.2 4.06 0 6.93 1.47a12 12 0 0 1 3.45 2.68c.77.86.7 2.2-.16 2.97a2.1 2.1 0 0 1-3.08-.28 8 8 0 0 0-1.92-1.8q-1.96-1.25-5.18-1.25-3.19 0-4.97 1.28a4 4 0 0 0-1.8 3.36q0 1.92 1.77 3.06c1.14.72 3.12 1.33 6.04 1.86q4 .72 6.35 1.81a8 8 0 0 1 3.38 2.69 7 7 0 0 1 1.05 3.98q0 2.55-1.45 4.49a9 9 0 0 1-4.1 2.98q-2.64 1.05-6.14 1.05m-66.83 0c-5.03 0-8.87-1.42-11.4-4.24a2.1 2.1 0 0 1 .11-2.87l.02-.01a2.1 2.1 0 0 1 3.05.08 9 9 0 0 0 2.4 1.97q2.33 1.3 5.78 1.3 3.27 0 5.15-1.15a3.7 3.7 0 0 0 1.94-3.32q-.01-1.75-1.76-2.8c-1.13-.69-3.04-1.28-5.84-1.8q-4.08-.76-6.51-1.88a8 8 0 0 1-3.46-2.73A7 7 0 0 1 89 9.85a8 8 0 0 1 1.37-4.5 9.4 9.4 0 0 1 3.96-3.23q2.61-1.2 6.09-1.2 4.07 0 6.94 1.47a12 12 0 0 1 3.45 2.68 2.1 2.1 0 0 1-1.57 3.51 2.1 2.1 0 0 1-1.67-.82 8 8 0 0 0-1.92-1.8q-1.96-1.25-5.18-1.26-3.2 0-4.97 1.29a4 4 0 0 0-1.8 3.36q0 1.92 1.76 3.05c1.15.73 3.13 1.34 6.06 1.87a27 27 0 0 1 6.35 1.81 8 8 0 0 1 3.37 2.69 7 7 0 0 1 1.05 3.98q0 2.55-1.45 4.48a9 9 0 0 1-4.1 3q-2.64 1.04-6.14 1.04M70.97 11.39a1.17 1.17 0 0 0-1.68 0 1.2 1.2 0 0 0 .19 1.83c.39.25.9.25 1.3 0a1.2 1.2 0 0 0 .19-1.83m-1.56-4.2a4.55 4.55 0 0 0-5.46 5.47 4.6 4.6 0 0 0 3.4 3.4 4.55 4.55 0 0 0 5.46-5.47 4.6 4.6 0 0 0-3.4-3.4M14.6 37.68c-3.9 0-7.78-1.58-10.14-4.12C1.54 30.44-.21 27.29.02 21.29c.15-3.78 2.25-7.93 5.61-11.1A38 38 0 0 1 23.93.85a41 41 0 0 1 8.25-.83q2.1 0 4.17.2c3.87.4 7.5 1.1 10.8 2.13a42 42 0 0 1 5.1 1.94l.71.32c1.33.59 2.83 1.25 3.77 2.21l.36.37v-.52q0-1.7-.04-3.4Q57.01 1.8 57 .64c0-.4.33-.64.64-.64q.14 0 .26.06l3.14 1.47c2.72 1.27 6.1 2.86 8.67 4.03a8.2 8.2 0 0 1 4.5 5.22c.72 2.18.86 4.63.96 7.17q0 .14-.02.21c-.02.03-.1.14-.68.14h-.98c-.54 0-1.15 0-1.6.02a31 31 0 0 1-3.57-.03c-2-.1-4.13-.94-5.7-2.26-.14-.12-.4-.2-.62-.2a.7.7 0 0 0-.5.2.8.8 0 0 0-.02 1.02 10.4 10.4 0 0 0 7.15 2.91 32 32 0 0 0 4.74-.1l.24-.01q.3-.04.52-.05l-.55.43a13 13 0 0 1-3.72 1.86 20 20 0 0 1-5.9 1.02h-.61q-1.5 0-3-.19l-.79-.1q-.54-.1-1.1-.15l-.27-.03a7 7 0 0 0-.79-.06q-.3 0-.56.05a2.2 2.2 0 0 0-1.3.8c-.46.6-.59 2.13-.34 2.78.48 1.31 1.57 2.04 2.55 2.63q.48.28.99.49c.81.36 1.52.68 1.75 1.41-.3.08-1.21.14-2.22.14H54.7c-.96 0-1.7-.07-2.04-.2h-.03c-.29-.16-.43-.58-.54-.93v-.01a7 7 0 0 0-.9-1.64 7 7 0 0 0-3.06-2.64 9 9 0 0 0-3.56-.65l-1.15.02-1.07.02h-.79l-1.28-.01c-.49-.01-1.05-.03-2.05-.03-.33 0-.57.35-.65.94-.14 1.07.3 2.85 2.1 3.35l.49.13c.87.22 1.78.45 2.41 1.1.2.21.27.4.24.46-.01.03-.1.09-.35.09h-6.22c-1.04 0-1.83-.05-2.5-.6-1.11-.95-1.66-2.21-2.23-3.55l-.1-.22a40 40 0 0 0-2.11-4.28c-1.83-3.13-4.04-5.42-6.58-6.78-2-1.07-4.5-1.68-6.84-1.68-2.82 0-5.45.87-7.59 2.51a8.5 8.5 0 0 0-3.38 6.77 10.4 10.4 0 0 0 3.82 8.04 9 9 0 0 0 5.7 1.9q.3 0 .6-.03a7.8 7.8 0 0 0 5.8-2.82 5.8 5.8 0 0 0 1.1-4.75 5 5 0 0 0-2.28-3.36 5.6 5.6 0 0 0-2.84-.68h-.02q-1.96 0-2.95.98c-.94.9-1.09 2.5-.34 3.57l.32.41c.33.38.6.72.54 1.16a1 1 0 0 1-.78.76l-.31.04c-.65 0-1.22-.44-1.58-.82a5.1 5.1 0 0 1-1.03-5.36c1.02-2.45 3.75-3.55 6-3.55h.23a9.1 9.1 0 0 1 7.79 5.32 10 10 0 0 1-.93 9.48c-1.88 2.75-5.22 4.33-9.16 4.33m57.07-26.05a3.3 3.3 0 1 1-6.6 0 3.3 3.3 0 1 1 6.6 0"/></svg><path fill="#fff" d="M269.06 588.13q-7.41 0-12.92-2.76t-9.41-7.31l7.22-7.23q3.8 3.9 7.55 5.66t7.94 1.76q5.61 0 8.79-2.62 3.19-2.61 3.19-6.79 0-3.33-1.81-5.32t-4.75-3.24q-2.95-1.23-6.51-2.28-3.57-1.04-7.08-2.28t-6.47-3.23q-2.94-2-4.75-5.18-1.8-3.18-1.8-8.13 0-6.17 2.9-10.73t8.07-7.04 12.22-2.47q6.36 0 11.59 2.28t8.56 6.08l-7.42 7.42q-2.85-2.95-5.94-4.42t-6.89-1.47q-5.23 0-8.36 2.51-3.14 2.52-3.14 6.7 0 3.14 1.81 4.95 1.8 1.8 4.8 2.94t6.55 2.09q3.57.95 7.13 2.14t6.56 3.19 4.8 5.32 1.81 8.46q0 6.36-3.05 11.07t-8.5 7.32q-5.47 2.61-12.69 2.61m48.28-1.33q-3.33 0-6.6-1.14-3.28-1.14-5.47-4.13t-2.19-8.32v-23.38h-7.88v-9.31h7.88v-11.31h10.93v11.31h10.74v9.31h-10.74v24.23q0 1.43 1 2.43t2.43 1h7.31v9.31zm29.65.95q-7.88 0-12.54-3.85t-4.66-9.93q0-6.18 5.09-10.22t13.54-4.04q6.37 0 10.55 2.28v-4.46q0-4.56-2.57-6.47-2.56-1.9-6.56-1.9-3.51 0-7.27 1.33-3.75 1.34-6.41 3.81l-4.94-7.42q3.04-3.42 8.31-5.37 5.28-1.94 10.98-1.94 8.55 0 13.92 4.41t5.37 12.98v14.92q0 3.8.05 7.51t.24 7.41h-9.7l-.09-4.75q-3.9 5.7-13.31 5.7m3.04-8.08q4.09 0 6.56-1.71t2.47-4.47q0-2.66-2.47-4.37t-6.65-1.71q-4.09 0-6.61 1.71-2.51 1.71-2.51 4.37 0 2.76 2.51 4.47 2.52 1.71 6.7 1.71m30.61 7.13v-46.28h10.55v6.74q1.71-3.99 5.03-5.56t7.42-1.56h3.8v10.83h-4.66q-5.42 0-8.31 2.47t-2.9 7.22v26.14zm51.03 0q-3.32 0-6.6-1.14t-5.47-4.13-2.18-8.32v-23.38h-7.89v-9.31h7.89v-11.31h10.93v11.31h10.74v9.31h-10.74v24.23q0 1.43 1 2.43.99 1 2.42 1h7.32v9.31zm38.59 0v-36.97h-7.98v-9.31h7.98v-9.6q0-6.28 3.94-9.89 3.95-3.61 10.7-3.61h7.79v9.12h-7.98q-1.43 0-2.43 1t-1 2.52v10.46h11.41v9.31h-11.41v36.97zm28.89 0v-46.28h10.55v6.74q1.71-3.99 5.04-5.56t7.41-1.56h3.8v10.83h-4.65q-5.42 0-8.32 2.47t-2.9 7.22v26.14zm51.99.95q-6.94 0-12.21-2.99t-8.22-8.37-2.95-12.49v-.96q0-6.55 2.71-11.88 2.71-5.32 7.7-8.41t11.64-3.08q6.94 0 11.88 3.37t7.22 9.55 1.24 14.54h-31.56q.57 4.85 3.95 8.03 3.37 3.19 9.17 3.19 3.42 0 5.89-.95t4.47-2.86l6.18 6.47q-2.76 3.42-7.18 5.13t-9.93 1.71m-1.24-39.35q-4.84 0-7.6 3t-3.52 7.84h20.91q-.19-5.13-2.9-7.98t-6.89-2.86m49.23 39.35q-6.93 0-12.21-2.99-5.27-3-8.22-8.37t-2.95-12.49v-.96q0-6.55 2.71-11.88 2.71-5.32 7.7-8.41t11.64-3.08q6.94 0 11.88 3.37t7.23 9.55q2.28 6.18 1.23 14.54h-31.55q.57 4.85 3.94 8.03 3.38 3.19 9.17 3.19 3.43 0 5.9-.95t4.46-2.86l6.18 6.47q-2.75 3.42-7.17 5.13t-9.94 1.71m-1.23-39.35q-4.85 0-7.6 3t-3.52 7.84h20.91q-.19-5.13-2.9-7.98t-6.89-2.86m-302.69 98.93v-20.91h4.1v3.2q.74-1.9 2.27-2.62 1.53-.71 3.43-.71h1.73v4.19h-2.07q-2.51 0-3.87 1.19t-1.36 3.56v12.1zm20.78.43q-3.55 0-5.68-1.75-2.14-1.75-2.14-4.51 0-1.82 1.08-3.26 1.08-1.45 2.96-2.29t4.34-.85q3.15 0 5.14 1.21v-2.29q0-2.29-1.25-3.28-1.26-.99-3.29-.99-1.64 0-3.37.6-1.72.61-2.98 1.86l-1.94-2.94q1.42-1.55 3.74-2.42 2.31-.86 4.81-.86 3.76 0 6.11 1.99 2.36 1.98 2.36 5.83v6.74l.02 3.39q.02 1.71.11 3.39h-3.8v-2.12q-1.86 2.55-6.22 2.55m1.16-3.15q2.12 0 3.35-.89 1.23-.88 1.23-2.31 0-1.38-1.23-2.27-1.23-.88-3.39-.88-2.12 0-3.39.88-1.28.89-1.28 2.27t1.28 2.29 3.43.91m14.65 2.72v-20.91h4.06v2.98q1.29-1.99 3.17-2.7t3.44-.71q3.54 0 5.7 2.29t2.16 6.69v12.36h-4.23v-11.71q0-3.06-1.34-4.4t-3.42-1.34q-2.2 0-3.75 1.47-1.56 1.46-1.56 4.36v11.62zm33.87.43q-3.16 0-5.6-1.36t-3.84-3.76q-1.41-2.39-1.41-5.51v-.51q0-3.16 1.43-5.55 1.42-2.4 3.87-3.74 2.44-1.34 5.55-1.34 2.29 0 4.23.88 1.94.89 3.24 2.45l-2.59 2.63q-1.86-2.07-4.88-2.07-2.85 0-4.71 1.83-1.86 1.84-1.86 4.91v.51q0 3.03 1.88 4.89t4.73 1.85q1.43 0 2.68-.49 1.25-.5 2.29-1.54l2.55 2.6q-1.3 1.55-3.29 2.44-1.98.88-4.27.88m11.75-.43v-31.54h4.06v13.61q1.29-1.99 3.17-2.7t3.44-.71q3.54 0 5.7 2.29t2.16 6.69v12.36h-4.23v-11.71q0-3.06-1.34-4.4t-3.42-1.34q-2.2 0-3.75 1.47-1.56 1.46-1.56 4.36v11.62zm33.61.43q-3.16 0-5.53-1.36t-3.7-3.78q-1.31-2.42-1.31-5.61v-.44q0-3.02 1.23-5.42t3.45-3.78 5.21-1.38q3.07 0 5.25 1.51t3.19 4.23.59 6.44h-14.73q.26 2.51 1.96 4.17 1.71 1.66 4.56 1.66 3.11 0 4.92-1.68l2.42 2.55q-1.25 1.42-3.19 2.16-1.95.73-4.32.73m-.65-18.27q-2.42 0-3.85 1.51-1.42 1.51-1.77 3.97h10.59q-.05-2.59-1.43-4.03t-3.54-1.45m13.78 17.84v-20.91h4.1v3.2q.74-1.9 2.27-2.62 1.53-.71 3.44-.71h1.72v4.19h-2.07q-2.51 0-3.87 1.19t-1.36 3.56v12.1zm11.75 0v-5.31h4.97v5.31zm19.57.43q-3.15 0-5.6-1.36t-3.84-3.76q-1.4-2.39-1.4-5.51v-.51q0-3.16 1.42-5.55 1.43-2.4 3.87-3.74t5.55-1.34q2.29 0 4.23.88 1.95.89 3.24 2.45l-2.59 2.63q-1.86-2.07-4.88-2.07-2.85 0-4.71 1.83-1.86 1.84-1.86 4.91v.51q0 3.03 1.88 4.89t4.73 1.85q1.43 0 2.68-.49 1.25-.5 2.29-1.54l2.55 2.6q-1.3 1.55-3.28 2.44-1.99.88-4.28.88m20.35 0q-3.03 0-5.43-1.38t-3.8-3.8-1.4-5.57v-.39q0-3.11 1.4-5.51 1.41-2.4 3.8-3.76 2.4-1.36 5.43-1.36t5.4 1.36 3.75 3.74 1.39 5.48v.44q0 3.15-1.39 5.57-1.38 2.42-3.75 3.8t-5.4 1.38m0-3.76q2.8 0 4.55-1.94t1.75-5.05v-.44q0-3.02-1.75-4.92t-4.55-1.9-4.58 1.92-1.77 4.95v.39q0 3.11 1.77 5.05t4.58 1.94m15.29 3.33v-20.91h4.06v2.94q1.21-1.95 2.96-2.66t3.39-.71q2.16 0 3.8.93t2.55 2.78q.91-1.46 2.14-2.26t2.53-1.13 2.33-.32q3.41 0 5.55 2.18t2.14 6.59v12.57h-4.19v-11.97q0-2.89-1.23-4.19-1.23-1.29-3.31-1.29-2.07 0-3.48 1.4-1.4 1.41-1.4 4.04v12.01h-4.23v-11.97q0-2.89-1.23-4.19-1.24-1.29-3.27-1.29-2.11 0-3.52 1.4-1.4 1.41-1.4 4.04v12.01z"/></svg>