<svg xmlns="http://www.w3.org/2000/svg" width="608" height="1080" viewBox="0 0 608 1080"><path fill="#0c322c" d="M0 0h608v1080H0z"/><path fill="#fcb244" d="M0 0h608v1080H0z"/><svg xmlns="http://www.w3.org/2000/svg" xmlns:c2pa="http://c2pa.org/manifest" width="303.92" height="54.97" x="152.03" y="452.75" viewBox="0 0 210.6 38.09"><path d="M208.46 27.03h-13.55a1.9 1.9 0 0 1-1.9-1.9v-6.85h13.09a2.04 2.04 0 1 0 0-4.07H193V7.47c0-1.04.85-1.9 1.9-1.9h13.55a2.14 2.14 0 1 0 0-4.27H194.9a6.2 6.2 0 0 0-6.17 6.17v17.66a6.2 6.2 0 0 0 6.17 6.17h13.55a2.14 2.14 0 1 0 0-4.27M168.6 14.27q-4.3-.78-5.97-1.84-1.68-1.06-1.68-2.87 0-1.94 1.72-3.19 1.72-1.24 4.85-1.24 3.16 0 5.06 1.22 1.03.66 1.87 1.75A2.32 2.32 0 1 0 178 5.14a12 12 0 0 0-3.5-2.73q-2.92-1.5-7.04-1.5-3.53 0-6.18 1.23-2.65 1.22-4.05 3.3a8 8 0 0 0-1.4 4.62q0 2.4 1.1 4.07 1.12 1.68 3.56 2.8 2.44 1.14 6.56 1.9 4.12.78 5.77 1.77 1.66 1 1.65 2.62 0 2.05-1.83 3.15-1.83 1.11-5.04 1.11-3.4 0-5.68-1.27a9 9 0 0 1-2.34-1.92 2.3 2.3 0 0 0-3.37-.09v.01a2.3 2.3 0 0 0-.12 3.16q3.87 4.32 11.55 4.32 3.53 0 6.22-1.07 2.7-1.06 4.19-3.05t1.5-4.62q0-2.44-1.1-4.09-1.08-1.65-3.46-2.76t-6.4-1.83m-66.83 0q-4.3-.77-5.97-1.83-1.68-1.06-1.68-2.87 0-1.95 1.72-3.2t4.84-1.24q3.17 0 5.07 1.23 1.03.66 1.87 1.75a2.32 2.32 0 1 0 3.56-2.96 12 12 0 0 0-3.5-2.73q-2.92-1.5-7.04-1.5-3.53 0-6.18 1.23-2.65 1.22-4.05 3.3a8 8 0 0 0-1.4 4.62q0 2.4 1.1 4.07 1.12 1.68 3.56 2.8 2.44 1.14 6.56 1.9 4.12.78 5.77 1.77 1.65 1 1.65 2.63 0 2.03-1.83 3.14t-5.05 1.11q-3.4 0-5.68-1.27a9 9 0 0 1-2.33-1.92 2.3 2.3 0 0 0-3.37-.09v.01a2.3 2.3 0 0 0-.12 3.16q3.87 4.32 11.55 4.32 3.53 0 6.22-1.07t4.19-3.05 1.5-4.62q0-2.44-1.1-4.1t-3.46-2.75-6.4-1.83m44.57-10.92v16.43q0 5.88-3.12 8.89t-9.1 3.01-9.1-3.01q-3.11-3.01-3.11-8.9V3.37a2.44 2.44 0 0 1 4.88 0V19.2q0 4.25 1.8 6.27t5.54 2.01 5.54-2.01 1.79-6.27V3.36a2.44 2.44 0 0 1 4.88 0M71.4 13.46a1.2 1.2 0 0 1-1.35 0 1.23 1.23 0 0 1-.2-1.9 1.2 1.2 0 0 1 1.74 0c.54.54.47 1.46-.2 1.9m1.94-2.69a4.55 4.55 0 0 1-5.46 5.47 4.6 4.6 0 0 1-3.4-3.4 4.55 4.55 0 0 1 5.47-5.45 4.6 4.6 0 0 1 3.4 3.39M51.22 28.44q.59.8.86 1.58c.13.37.29.85.65 1.05l.06.03c.67.24 2.4.2 2.4.2h3.16c.27 0 2.66 0 2.6-.27-.3-1.27-1.76-1.5-2.88-2.17-1.04-.61-2.02-1.31-2.46-2.51-.23-.62-.1-2.05.3-2.57a2 2 0 0 1 1.18-.73c.52-.1 1.05-.01 1.56.04.63.06 1.25.18 1.88.25q1.81.23 3.65.2a20 20 0 0 0 5.95-1.04 14 14 0 0 0 3.79-1.9c1.29-.95.95-.86-.36-.73q-2.35.23-4.71.1a10 10 0 0 1-4.24-.95 10 10 0 0 1-2.77-1.91.6.6 0 0 1 .03-.73c.22-.23.68-.1.82.03 1.45 1.2 3.6 2.2 5.83 2.3q1.79.11 3.59.04c.6-.03 1.51-.03 2.12-.03.3-.01 1.16.08 1.32-.25q.06-.14.04-.32C75.42 13.33 75.06 7.9 70 5.58c-3.76-1.72-9.41-4.4-11.8-5.5a.85.85 0 0 0-1.2.77c0 1.61.08 3.93.08 6.04-1.14-1.17-3.07-1.9-4.53-2.58a43 43 0 0 0-5.14-1.96A55 55 0 0 0 36.6.23a42 42 0 0 0-12.5.63 38.6 38.6 0 0 0-18.4 9.38C2.6 13.15.19 17.3.02 21.5c-.23 5.94 1.43 9.13 4.5 12.42 4.87 5.24 15.38 5.98 19.63-.24 1.91-2.8 2.33-6.6.94-9.69a9.3 9.3 0 0 0-7.97-5.43c-2.62-.1-5.42 1.25-6.43 3.67a5.3 5.3 0 0 0 1.07 5.6c.54.55 1.28 1.01 2.09.83.47-.1.87-.46.94-.94.1-.71-.51-1.17-.9-1.72a2.64 2.64 0 0 1 .32-3.3c.73-.7 1.8-.92 2.82-.91.95 0 1.92.17 2.73.64a4.8 4.8 0 0 1 2.17 3.22c.8 3.9-2.38 7.07-6.68 7.32a9 9 0 0 1-6.16-1.83c-4.35-3.5-5.42-10.65-.45-14.47 4.72-3.62 10.68-2.69 14.2-.8 2.81 1.5 4.9 3.97 6.5 6.7a39 39 0 0 1 2.1 4.25c.6 1.4 1.17 2.81 2.39 3.84.8.68 1.8.65 2.84.65h6c.82 0 .63-.54.27-.9-.8-.82-1.94-1-3-1.3-2.42-.66-2.17-3.86-1.5-3.86 2.16 0 2.23.06 4.13.04 2.73-.04 3.56-.2 5.7.6a7 7 0 0 1 2.96 2.56"/></svg><path fill="#0c322c" d="M164.12 577.59q-3.41 0-5.58-2.21-2.18-2.2-2.18-5.61V538.6q0-3.41 2.18-5.62 2.17-2.21 5.58-2.21h22.81v7.49h-20.07q-1 0-1.7.71-.71.7-.71 1.7v9.83h21.07v7.16h-21.07v10.03q0 1 .71 1.71.7.7 1.7.7h20.07v7.49zm25.82 0 11.1-16.25-10.77-16.32h9.03l6.95 11.37 6.89-11.37h8.9l-10.84 16.25 10.97 16.32h-9.09l-7.16-11.24-7.02 11.24zm36.45 13.38v-45.95h7.22v4.08q1.87-2.21 4.55-3.48t5.82-1.27q4.34 0 7.85 2.11t5.52 5.85 2.01 8.63v.67q0 5.01-2.01 8.76t-5.45 5.82-7.86 2.07q-3.01 0-5.55-1.14t-4.41-3.14v16.99zm16.38-19.47q3.75 0 6.32-2.67 2.58-2.68 2.58-7.22v-.67q0-4.55-2.58-7.16-2.57-2.61-6.32-2.61-3.94 0-6.55 2.71t-2.61 7.46q0 4.68 2.61 7.42t6.55 2.74m32.17 6.09q-4.41 0-7.06-2.41t-2.64-6.62v-33.24h-5.41v-6.55h13.1v39.92q0 1.08.71 1.78.7.7 1.77.7h3.41v6.42zm22.81.67q-4.75 0-8.56-2.14t-6.02-5.92-2.21-8.66v-.6q0-4.89 2.21-8.63t6.02-5.85 8.56-2.11 8.52 2.11 5.99 5.85 2.21 8.56v.67q0 4.88-2.21 8.66t-5.99 5.92-8.52 2.14m0-6.82q4.01 0 6.52-2.78t2.51-7.12v-.67q0-4.28-2.51-6.99t-6.52-2.71q-3.95 0-6.49 2.74t-2.54 7.03v.6q0 4.35 2.54 7.12t6.49 2.78m22.6 6.15v-32.57h7.43v4.75q1.2-2.81 3.54-3.91 2.34-1.11 5.22-1.11h2.67v7.63h-3.27q-3.82 0-5.86 1.74-2.04 1.73-2.04 5.08v18.39zm36.59.67q-4.89 0-8.6-2.11t-5.78-5.88-2.08-8.8v-.67q0-4.61 1.91-8.36t5.42-5.92 8.19-2.17q4.88 0 8.36 2.37t5.08 6.73q1.61 4.34.87 10.23h-22.2q.4 3.41 2.77 5.65t6.46 2.24q2.4 0 4.14-.67t3.15-2l4.34 4.54q-1.94 2.41-5.05 3.61-3.11 1.21-6.98 1.21m-.87-27.69q-3.41 0-5.35 2.11t-2.48 5.51h14.71q-.13-3.61-2.04-5.61-1.9-2.01-4.84-2.01m28.09 27.02 17.12-46.82h10.1l17.05 46.82H420l-4.01-11.5H396.6l-4.02 11.5zm14.91-18.46h14.45l-7.16-20.46zm31.63 18.46v-7.49h7.83v-31.84h-7.83v-7.49h23.95v7.49h-7.89v31.84h7.89v7.49zM214.35 622.1q-1.7 0-3.14-.51-1.45-.52-2.39-1.28l1.31-2.04q.88.67 1.97 1.08 1.1.41 2.25.41 1.22 0 1.97-.54.74-.55.74-1.4 0-.79-.55-1.2-.54-.41-1.41-.66l-1.86-.5q-.98-.26-1.85-.7t-1.43-1.24-.56-2.18q0-2 1.5-3.27 1.51-1.26 4.03-1.26 1.43 0 2.69.41t2.24 1.08l-1.34 2.01q-.79-.55-1.72-.87t-1.9-.32q-1.18 0-1.91.55t-.73 1.4q0 .79.56 1.2t1.46.65l1.88.52q.99.27 1.89.73t1.46 1.28.56 2.18q0 1.31-.75 2.32-.74 1-2.02 1.58-1.27.57-2.95.57m14.47.03q-2.43 0-4.04-1.46-1.61-1.45-1.61-4.56v-8.99h2.95v8.45q0 2.16.94 2.99t2.4.84q1.52 0 2.59-.99t1.06-2.99v-8.3h2.95v14.71h-2.61v-2.01q-.92 1.37-2.22 1.84t-2.41.47m15.81-.03q-1.7 0-3.14-.51-1.45-.52-2.39-1.28l1.31-2.04q.88.67 1.97 1.08 1.1.41 2.25.41 1.22 0 1.96-.54.75-.55.75-1.4 0-.79-.55-1.2t-1.41-.66l-1.86-.5q-.98-.26-1.85-.7t-1.43-1.24-.56-2.18q0-2 1.5-3.27 1.51-1.26 4.03-1.26 1.43 0 2.69.41t2.24 1.08l-1.34 2.01q-.79-.55-1.72-.87t-1.9-.32q-1.19 0-1.92.55-.72.55-.72 1.4 0 .79.56 1.2t1.46.65l1.88.52q.99.27 1.89.73t1.46 1.28.56 2.18q0 1.31-.75 2.32-.74 1-2.02 1.58-1.28.57-2.95.57m15.42.03q-2.22 0-3.9-.95-1.67-.96-2.59-2.66-.93-1.71-.93-3.96v-.3q0-2.13.86-3.81.87-1.69 2.44-2.66t3.66-.98q2.16 0 3.69 1.07 1.54 1.06 2.25 2.98.72 1.91.41 4.53h-10.36q.18 1.76 1.38 2.93t3.21 1.17q2.19 0 3.46-1.19l1.71 1.8q-.89 1-2.25 1.52-1.37.51-3.04.51m-.46-12.86q-1.7 0-2.71 1.07-1 1.06-1.24 2.8h7.45q-.03-1.83-1.01-2.85-.97-1.02-2.49-1.02m9.3 12.56v-3.74h3.5v3.74zm13.77.3q-2.22 0-3.93-.95-1.72-.96-2.71-2.65t-.99-3.87v-.37q0-2.22 1.01-3.91 1-1.68 2.72-2.63 1.71-.94 3.9-.94 1.61 0 2.98.63 1.37.62 2.28 1.71l-1.82 1.86q-1.31-1.46-3.44-1.46-2 0-3.31 1.29t-1.31 3.45v.37q0 2.12 1.32 3.43 1.33 1.31 3.33 1.31 1.01 0 1.89-.35t1.61-1.08l1.79 1.82q-.91 1.1-2.31 1.72t-3.01.62m14.32 0q-2.13 0-3.81-.97t-2.68-2.67-.99-3.93v-.27q0-2.19.99-3.88.99-1.68 2.68-2.64 1.68-.96 3.81-.96t3.8.96 2.65 2.63.97 3.86v.3q0 2.22-.97 3.93-.98 1.7-2.65 2.67t-3.8.97m0-2.64q1.98 0 3.21-1.37t1.23-3.56v-.3q0-2.13-1.23-3.47-1.23-1.33-3.21-1.33-1.97 0-3.22 1.35t-1.25 3.48v.27q0 2.19 1.25 3.56t3.22 1.37m10.76 2.34v-14.71h2.86v2.06q.85-1.36 2.08-1.87 1.23-.5 2.39-.5 1.52 0 2.67.66 1.16.65 1.8 1.96.64-1.04 1.5-1.6.87-.56 1.78-.79t1.64-.23q2.4 0 3.91 1.54 1.5 1.53 1.5 4.63v8.85h-2.94v-8.42q0-2.04-.87-2.95t-2.33-.91-2.44.99-.99 2.84v8.45h-2.98v-8.42q0-2.04-.87-2.95-.86-.91-2.29-.91-1.49 0-2.48.99-.99.98-.99 2.84v8.45zm23.62 4.38 11.04-27.45h3.04l-11.1 27.45zm18.7-4.08q-2.49 0-4-1.23t-1.5-3.17q0-1.28.76-2.3t2.08-1.61 3.06-.59q2.21 0 3.61.85v-1.61q0-1.61-.88-2.31t-2.31-.7q-1.15 0-2.37.42-1.22.43-2.1 1.31l-1.37-2.07q1.01-1.09 2.63-1.7 1.63-.61 3.39-.61 2.65 0 4.3 1.4 1.66 1.4 1.66 4.1v4.75l.02 2.38q.01 1.2.07 2.39h-2.67v-1.49q-1.31 1.79-4.38 1.79m.82-2.22q1.49 0 2.36-.62t.86-1.62q0-.98-.86-1.6-.87-.62-2.39-.62-1.49 0-2.39.62-.89.62-.89 1.6 0 .97.89 1.61.9.63 2.42.63m11.31 1.92v-12.16h-2.74v-2.55h5.75v14.71zm-.12-17.78v-3.8h3.31v3.8z"/></svg>