<svg xmlns="http://www.w3.org/2000/svg" width="1080" height="1080" viewBox="0 0 1080 1080"><path fill="#0c322c" d="M0 0h1080v1080H0z"/><path fill="#0c322c" d="M0 0h1080v1080H0z"/><svg xmlns="http://www.w3.org/2000/svg" xmlns:c2pa="http://c2pa.org/manifest" width="539.91" height="97.75" x="270.05" y="369.89" viewBox="0 0 210.39 38.09"><path fill="#fff" d="M208.46 27.03h-13.55a1.9 1.9 0 0 1-1.9-1.9v-6.85h13.09a2.04 2.04 0 1 0 0-4.07H193V7.47c0-1.04.85-1.9 1.9-1.9h13.55a2.14 2.14 0 1 0 0-4.27H194.9a6.2 6.2 0 0 0-6.17 6.17v17.66a6.2 6.2 0 0 0 6.17 6.17h13.55a2.14 2.14 0 1 0 0-4.27M168.6 14.27q-4.3-.78-5.97-1.84-1.68-1.06-1.68-2.87 0-1.94 1.72-3.19 1.72-1.24 4.85-1.24 3.16 0 5.06 1.22 1.03.66 1.87 1.75A2.32 2.32 0 1 0 178 5.14a12 12 0 0 0-3.5-2.73q-2.92-1.5-7.04-1.5-3.53 0-6.18 1.23-2.65 1.22-4.05 3.3a8 8 0 0 0-1.4 4.62q0 2.4 1.1 4.07 1.12 1.68 3.56 2.8 2.44 1.14 6.56 1.9 4.12.78 5.77 1.77 1.66 1 1.65 2.62 0 2.05-1.83 3.15-1.83 1.11-5.04 1.11-3.4 0-5.68-1.27a9 9 0 0 1-2.34-1.92 2.3 2.3 0 0 0-3.37-.09v.01a2.3 2.3 0 0 0-.12 3.16q3.87 4.32 11.55 4.32 3.53 0 6.22-1.07 2.7-1.06 4.19-3.05t1.5-4.62q0-2.44-1.1-4.09-1.08-1.65-3.46-2.76t-6.4-1.83m-66.83 0q-4.3-.77-5.97-1.83-1.68-1.06-1.68-2.87 0-1.95 1.72-3.2t4.84-1.24q3.17 0 5.07 1.23 1.03.66 1.87 1.75a2.32 2.32 0 1 0 3.56-2.96 12 12 0 0 0-3.5-2.73q-2.92-1.5-7.04-1.5-3.53 0-6.18 1.23-2.65 1.22-4.05 3.3a8 8 0 0 0-1.4 4.62q0 2.4 1.1 4.07 1.12 1.68 3.56 2.8 2.44 1.14 6.56 1.9 4.12.78 5.77 1.77 1.65 1 1.65 2.63 0 2.03-1.83 3.14t-5.05 1.11q-3.4 0-5.68-1.27a9 9 0 0 1-2.33-1.92 2.3 2.3 0 0 0-3.37-.09v.01a2.3 2.3 0 0 0-.12 3.16q3.87 4.32 11.55 4.32 3.53 0 6.22-1.07t4.19-3.05 1.5-4.62q0-2.44-1.1-4.1t-3.46-2.75-6.4-1.83m44.57-10.92v16.43q0 5.88-3.12 8.89t-9.1 3.01-9.1-3.01q-3.11-3.01-3.11-8.9V3.37a2.44 2.44 0 0 1 4.88 0V19.2q0 4.25 1.8 6.27t5.54 2.01 5.54-2.01 1.79-6.27V3.36a2.44 2.44 0 0 1 4.88 0"/><path fill="#30ba78" d="M71.54 11.56a1.2 1.2 0 0 0-1.74 0 1.23 1.23 0 0 0 .2 1.9c.4.27.94.27 1.35 0a1.24 1.24 0 0 0 .2-1.9m-1.6-4.18a4.55 4.55 0 0 0-5.46 5.47 4.6 4.6 0 0 0 3.4 3.39 4.54 4.54 0 0 0 5.45-5.47 4.6 4.6 0 0 0-3.39-3.38M48.27 25.87c-2.14-.79-2.97-.63-5.7-.6-1.9.03-1.97-.03-4.13-.03-.67 0-.92 3.2 1.5 3.87 1.06.29 2.2.47 3 1.29.36.36.55.9-.26.9h-6c-1.06 0-2.05.02-2.85-.66-1.22-1.02-1.78-2.43-2.39-3.83a40 40 0 0 0-2.1-4.26c-1.6-2.72-3.69-5.19-6.5-6.7-3.52-1.88-9.48-2.81-14.2.81-4.97 3.82-3.9 10.97.45 14.47a9 9 0 0 0 6.16 1.83c4.3-.24 7.47-3.42 6.68-7.32a4.8 4.8 0 0 0-2.17-3.22 5.4 5.4 0 0 0-2.73-.64c-1.01 0-2.1.2-2.83.9-.86.85-1 2.33-.3 3.31.37.55 1 1 .89 1.72-.07.48-.47.84-.94.94-.81.18-1.55-.28-2.1-.84a5.3 5.3 0 0 1-1.06-5.59c1-2.42 3.8-3.76 6.43-3.67 3.39.11 6.58 2.34 7.97 5.44s.97 6.88-.94 9.68c-4.25 6.22-14.76 5.48-19.64.24C1.45 30.62-.2 27.43.02 21.5c.17-4.2 2.59-8.34 5.68-11.25A38.6 38.6 0 0 1 24.1.86 42 42 0 0 1 36.6.23a55 55 0 0 1 10.83 2.13 43 43 0 0 1 5.14 1.95c1.47.68 3.39 1.41 4.53 2.58 0-2.11-.08-4.43-.08-6.04a.85.85 0 0 1 1.2-.77c2.39 1.1 8.04 3.78 11.8 5.5 5.05 2.3 5.41 7.75 5.59 12.58q.01.16-.04.31c-.16.33-1.01.24-1.32.25-.6 0-1.52 0-2.12.03a38 38 0 0 1-3.59-.03 10.2 10.2 0 0 1-5.83-2.31c-.14-.13-.6-.26-.83-.03a.6.6 0 0 0-.02.73 10 10 0 0 0 2.77 1.91c1.32.68 2.77.86 4.24.94q2.36.15 4.71-.09c1.31-.13 1.65-.22.36.74a14 14 0 0 1-3.78 1.9c-1.92.65-3.94.97-5.96 1.02a23 23 0 0 1-3.65-.19c-.63-.07-1.25-.19-1.88-.25-.52-.05-1.05-.15-1.55-.04-.47.1-.9.35-1.19.73-.4.52-.53 1.95-.3 2.57.44 1.2 1.42 1.9 2.46 2.52 1.12.66 2.59.89 2.88 2.16.06.27-2.33.28-2.6.27H55.2s-1.72.04-2.39-.2l-.06-.03c-.36-.2-.52-.68-.64-1.05a7 7 0 0 0-.87-1.58 7 7 0 0 0-2.96-2.57m24-14.06a3.36 3.36 0 1 1-6.72 0 3.36 3.36 0 0 1 6.72 0"/></svg><path fill="#fff" d="M299.59 584.3q-12.35 0-21.85-5.46t-14.85-15.09-5.35-22.1v-1.3q0-12.6 5.46-22.22t15.09-15.09 22.22-5.46q8.91 0 16.15 3.03 7.25 3.03 12.95 8.49l-10.09 10.22q-3.92-4.16-8.68-6t-10.09-1.84q-8.32 0-14.62 3.68t-9.92 10.22q-3.62 6.53-3.62 14.97v1.3q0 8.56 3.56 15.03 3.57 6.48 9.8 10.22t14.2 3.74q6.77 0 11.88-2.85t8.02-7.72 2.91-11.05h-19.84v-11.88h34.1q1.66 13.9-2.5 24.53t-13.13 16.63-21.8 6m73.07-.59q-8.68 0-15.27-3.74t-10.28-10.46-3.68-15.62v-1.19q0-8.2 3.39-14.85 3.38-6.65 9.62-10.51t14.55-3.86q8.68 0 14.85 4.21t9.03 11.94 1.55 18.18h-39.44q.71 6.06 4.93 10.04t11.46 3.98q4.28 0 7.37-1.19t5.58-3.56l7.72 8.07q-3.44 4.28-8.97 6.42-5.52 2.14-12.41 2.14m-1.55-49.19q-6.06 0-9.5 3.75t-4.4 9.8h26.14q-.24-6.42-3.62-9.98-3.39-3.57-8.62-3.57m57.26 48q-4.15 0-8.25-1.43-4.1-1.42-6.83-5.16t-2.74-10.4v-29.22h-9.86v-11.65h9.86v-14.13h13.67v14.13h13.42v11.65h-13.42v30.29q0 1.78 1.24 3.03 1.25 1.25 3.03 1.25h9.15v11.64zm61.42 1.07q-6.89 0-12.65-2.02t-9.56-4.99l5.94-9.39q3.44 2.5 7.66 4.1 4.22 1.61 8.61 1.61 4.28 0 6.83-1.78 2.56-1.79 2.56-4.64t-2.08-4.27-5.41-2.32q-3.32-.89-7.06-1.84-3.75-.95-7.07-2.74-3.33-1.78-5.47-5.04-2.14-3.27-2.14-8.62 0-7.96 6.06-13.07 6.06-5.1 16.28-5.1 5.7 0 10.81 1.54 5.11 1.55 9.15 4.28l-6.06 9.15q-6.65-4.52-14.02-4.52-4.16 0-6.65 1.84t-2.5 4.69q0 2.62 2.2 4.1 2.2 1.49 5.58 2.38 3.39.89 7.19 1.96t7.19 2.91 5.58 5.11 2.2 8.61q0 5.35-2.97 9.39t-8.2 6.35-12 2.32m55.48-1.07q-4.15 0-8.25-1.43-4.1-1.42-6.83-5.16t-2.74-10.4v-29.22h-9.86v-11.65h9.86v-14.13h13.67v14.13h13.42v11.65h-13.42v30.29q0 1.78 1.24 3.03 1.25 1.25 3.03 1.25h9.15v11.64zm37.07 1.19q-9.86 0-15.68-4.81t-5.82-12.42q0-7.72 6.35-12.77 6.36-5.05 16.93-5.05 7.96 0 13.19 2.85v-5.58q0-5.7-3.21-8.08t-8.2-2.37q-4.39 0-9.09 1.66t-8.01 4.75l-6.18-9.27q3.8-4.27 10.39-6.71 6.6-2.43 13.72-2.43 10.7 0 17.41 5.52t6.71 16.22v18.65q0 4.75.06 9.38t.3 9.27h-12.12l-.12-5.94q-4.87 7.13-16.63 7.13m3.8-10.1q5.11 0 8.2-2.14t3.09-5.58q0-3.33-3.09-5.47t-8.32-2.14q-5.11 0-8.25 2.14-3.15 2.14-3.15 5.47 0 3.44 3.15 5.58t8.37 2.14m38.25 8.91v-57.86h13.19v8.44q2.14-4.99 6.3-6.95t9.26-1.96h4.76v13.54h-5.83q-6.77 0-10.39 3.09t-3.62 9.03v32.67zm63.8 0q-4.16 0-8.26-1.43-4.1-1.42-6.83-5.16t-2.73-10.4v-29.22h-9.86v-11.65h9.86v-14.13h13.66v14.13h13.43v11.65h-13.43v30.29q0 1.78 1.25 3.03t3.03 1.25h9.15v11.64zm43.72 1.19q-8.67 0-15.27-3.74t-10.27-10.46q-3.69-6.71-3.69-15.62v-1.19q0-8.2 3.39-14.85 3.38-6.65 9.62-10.51t14.55-3.86q8.68 0 14.85 4.21t9.03 11.94 1.55 18.18h-39.44q.71 6.06 4.93 10.04t11.46 3.98q4.28 0 7.37-1.19t5.58-3.56l7.72 8.07q-3.44 4.28-8.97 6.42-5.52 2.14-12.41 2.14m-1.55-49.19q-6.06 0-9.5 3.75t-4.4 9.8h26.14q-.24-6.42-3.62-9.98-3.39-3.57-8.62-3.57M790 583.71q-7.84 0-14.02-3.68t-9.74-10.34-3.56-15.56v-1.19q0-8.67 3.62-15.33t9.8-10.39 14.02-3.74q5.35 0 9.8 2.02t7.78 5.58V495.8h13.66v86.72h-12.35v-7.84q-3.45 4.28-8.32 6.65T790 583.71m2.14-12q7.01 0 11.7-4.87t4.69-13.19q0-8.43-4.69-13.24t-11.7-4.82q-6.53 0-11.17 4.64t-4.63 12.71v1.19q0 8.08 4.63 12.83t11.17 4.75"/><rect width="297.88" height="99.34" x="391.06" y="610.75" fill="#fff" rx="49.67" ry="49.67"/><path fill="#0c322c" d="M455.96 676.83q-2.58 0-4.76-.78-2.19-.78-3.62-1.93l1.98-3.08q1.34 1.01 2.99 1.63t3.41.62q1.84 0 2.96-.83 1.13-.82 1.13-2.11 0-1.2-.83-1.82t-2.14-.99-2.8-.76-2.81-1.05-2.16-1.89-.85-3.29q0-3.04 2.28-4.94t6.09-1.91q2.16 0 4.07.62t3.38 1.63l-2.02 3.04q-1.2-.83-2.6-1.31t-2.88-.49q-1.79 0-2.89.83-1.11.83-1.11 2.12 0 1.19.85 1.81t2.21.99l2.85.78q1.5.42 2.86 1.11t2.2 1.93q.85 1.24.85 3.31 0 1.98-1.12 3.5t-3.06 2.39-4.46.87m21.89.05q-3.68 0-6.12-2.21t-2.43-6.9v-13.61h4.46v12.78q0 3.27 1.42 4.54 1.43 1.26 3.64 1.26 2.3 0 3.91-1.49 1.61-1.5 1.61-4.54v-12.55h4.46v22.26h-3.96v-3.04q-1.38 2.07-3.35 2.79-1.98.71-3.64.71m23.92-.05q-2.57 0-4.76-.78t-3.61-1.93l1.98-3.08q1.33 1.01 2.99 1.63 1.65.62 3.4.62 1.84 0 2.97-.83 1.13-.82 1.13-2.11 0-1.2-.83-1.82t-2.14-.99-2.81-.76-2.8-1.05-2.16-1.89-.86-3.29q0-3.04 2.28-4.94t6.1-1.91q2.16 0 4.07.62t3.38 1.63l-2.03 3.04q-1.19-.83-2.59-1.31-1.41-.49-2.88-.49-1.79 0-2.9.83t-1.1 2.12q0 1.19.85 1.81t2.21.99l2.85.78q1.49.42 2.85 1.11t2.21 1.93.85 3.31q0 1.98-1.13 3.5t-3.06 2.39-4.46.87m23.32.05q-3.35 0-5.88-1.45t-3.94-4.02q-1.4-2.58-1.4-5.98v-.46q0-3.22 1.31-5.78 1.31-2.55 3.68-4.02t5.54-1.47q3.27 0 5.59 1.61 2.33 1.61 3.41 4.5 1.08 2.9.62 6.86h-15.69q.28 2.67 2.1 4.44 1.81 1.77 4.85 1.77 3.31 0 5.24-1.8l2.58 2.72q-1.34 1.52-3.41 2.3t-4.6.78m-.69-19.46q-2.57 0-4.09 1.61t-1.89 4.23h11.27q-.04-2.76-1.51-4.3-1.48-1.54-3.78-1.54m14.08 19v-5.66h5.29v5.66zm20.84.46q-3.36 0-5.96-1.45t-4.09-4-1.5-5.87v-.55q0-3.36 1.52-5.91t4.12-3.98 5.91-1.42q2.44 0 4.51.94t3.45 2.6l-2.76 2.8q-1.98-2.2-5.2-2.2-3.04 0-5.02 1.95-1.97 1.96-1.97 5.22v.55q0 3.22 2 5.2t5.03 1.98q1.52 0 2.86-.53t2.43-1.63l2.72 2.76q-1.38 1.65-3.5 2.6-2.11.94-4.55.94m21.66 0q-3.22 0-5.77-1.47t-4.05-4.05-1.49-5.93v-.42q0-3.31 1.49-5.86 1.5-2.56 4.05-4 2.55-1.45 5.77-1.45t5.75 1.45 4.01 3.97 1.47 5.85v.46q0 3.35-1.47 5.93-1.48 2.58-4.01 4.05t-5.75 1.47m0-4q2.99 0 4.86-2.07 1.86-2.07 1.86-5.38v-.46q0-3.22-1.86-5.25-1.87-2.02-4.86-2.02t-4.87 2.05-1.89 5.26v.42q0 3.31 1.89 5.38 1.88 2.07 4.87 2.07m16.29 3.54v-22.26h4.32v3.12q1.29-2.07 3.15-2.82 1.87-.76 3.61-.76 2.3 0 4.05.99 1.75.98 2.72 2.96.96-1.56 2.27-2.41t2.69-1.2 2.49-.34q3.63 0 5.91 2.32t2.28 7.01v13.39h-4.47v-12.74q0-3.08-1.31-4.46t-3.52-1.38-3.7 1.49-1.49 4.3v12.79h-4.51v-12.74q0-3.08-1.31-4.46t-3.48-1.38q-2.25 0-3.74 1.49-1.5 1.5-1.5 4.3v12.79z"/></svg>