<svg xmlns="http://www.w3.org/2000/svg" width="1080" height="565" viewBox="0 0 1080 565"><path fill="#0c322c" d="M0 0h1080v565H0z"/><path fill="#0a9bd6" d="M0 0h1080v565H0z"/><svg xmlns="http://www.w3.org/2000/svg" xmlns:c2pa="http://c2pa.org/manifest" width="282.48" height="50.63" x="398.75" y="184.58" viewBox="0 0 210.18 37.67"><path fill="#fff" d="M194.7 30.87a5.96 5.96 0 0 1-5.96-5.96V7.26a5.97 5.97 0 0 1 5.96-5.96h13.55c1.07 0 1.93.86 1.93 1.92a1.93 1.93 0 0 1-1.93 1.92H194.7a2.1 2.1 0 0 0-2.1 2.11v6.95h13.29c1 0 1.82.82 1.82 1.83a1.83 1.83 0 0 1-1.82 1.82h-13.3v7.06a2.1 2.1 0 0 0 2.1 2.11h13.56c1.07 0 1.93.87 1.93 1.93a1.93 1.93 0 0 1-1.93 1.92zm-60.78.39c-3.91 0-6.92-1-8.95-2.95s-3.06-4.9-3.06-8.74V3.14c0-1.23 1-2.23 2.23-2.23a2.23 2.23 0 0 1 2.23 2.23v15.84q0 4.34 1.84 6.41 1.86 2.08 5.7 2.09 3.86 0 5.7-2.09c1.23-1.37 1.85-3.53 1.85-6.4V3.13A2.24 2.24 0 0 1 143.69.9a2.23 2.23 0 0 1 2.23 2.23v16.43c0 3.84-1.03 6.78-3.06 8.74s-5.04 2.95-8.94 2.95m33.52 0c-5.03 0-8.87-1.43-11.4-4.25a2.1 2.1 0 0 1 .11-2.86l.01-.01.01-.01a2 2 0 0 1 1.5-.62c.6 0 1.16.26 1.55.7a9 9 0 0 0 2.4 1.97q2.33 1.3 5.78 1.3 3.26 0 5.15-1.14A3.7 3.7 0 0 0 174.5 23q-.01-1.74-1.76-2.8c-1.13-.69-3.04-1.27-5.84-1.8q-4.08-.76-6.5-1.88a8 8 0 0 1-3.47-2.73 7 7 0 0 1-1.08-3.96 8 8 0 0 1 1.37-4.5 9.4 9.4 0 0 1 3.96-3.23q2.6-1.2 6.1-1.2 4.06 0 6.93 1.47a12 12 0 0 1 3.45 2.68c.77.86.7 2.2-.16 2.97a2.1 2.1 0 0 1-3.08-.28 8 8 0 0 0-1.92-1.8q-1.96-1.25-5.18-1.25-3.19 0-4.97 1.28a4 4 0 0 0-1.8 3.36q0 1.92 1.77 3.06c1.14.72 3.12 1.33 6.04 1.86q4 .72 6.35 1.81a8 8 0 0 1 3.38 2.69 7 7 0 0 1 1.05 3.98q0 2.55-1.45 4.49a9 9 0 0 1-4.1 2.98q-2.64 1.05-6.14 1.05m-66.83 0c-5.03 0-8.87-1.42-11.4-4.24a2.1 2.1 0 0 1 .11-2.87l.02-.01a2.1 2.1 0 0 1 3.05.08 9 9 0 0 0 2.4 1.97q2.33 1.3 5.78 1.3 3.27 0 5.15-1.15a3.7 3.7 0 0 0 1.94-3.32q-.01-1.75-1.76-2.8c-1.13-.69-3.04-1.28-5.84-1.8q-4.08-.76-6.51-1.88a8 8 0 0 1-3.46-2.73A7 7 0 0 1 89 9.85a8 8 0 0 1 1.37-4.5 9.4 9.4 0 0 1 3.96-3.23q2.61-1.2 6.09-1.2 4.07 0 6.94 1.47a12 12 0 0 1 3.45 2.68 2.1 2.1 0 0 1-1.57 3.51 2.1 2.1 0 0 1-1.67-.82 8 8 0 0 0-1.92-1.8q-1.96-1.25-5.18-1.26-3.2 0-4.97 1.29a4 4 0 0 0-1.8 3.36q0 1.92 1.76 3.05c1.15.73 3.13 1.34 6.06 1.87a27 27 0 0 1 6.35 1.81 8 8 0 0 1 3.37 2.69 7 7 0 0 1 1.05 3.98q0 2.55-1.45 4.48a9 9 0 0 1-4.1 3q-2.64 1.04-6.14 1.04M70.97 11.39a1.17 1.17 0 0 0-1.68 0 1.2 1.2 0 0 0 .19 1.83c.39.25.9.25 1.3 0a1.2 1.2 0 0 0 .19-1.83m-1.56-4.2a4.55 4.55 0 0 0-5.46 5.47 4.6 4.6 0 0 0 3.4 3.4 4.55 4.55 0 0 0 5.46-5.47 4.6 4.6 0 0 0-3.4-3.4M14.6 37.68c-3.9 0-7.78-1.58-10.14-4.12C1.54 30.44-.21 27.29.02 21.29c.15-3.78 2.25-7.93 5.61-11.1A38 38 0 0 1 23.93.85a41 41 0 0 1 8.25-.83q2.1 0 4.17.2c3.87.4 7.5 1.1 10.8 2.13a42 42 0 0 1 5.1 1.94l.71.32c1.33.59 2.83 1.25 3.77 2.21l.36.37v-.52q0-1.7-.04-3.4Q57.01 1.8 57 .64c0-.4.33-.64.64-.64q.14 0 .26.06l3.14 1.47c2.72 1.27 6.1 2.86 8.67 4.03a8.2 8.2 0 0 1 4.5 5.22c.72 2.18.86 4.63.96 7.17q0 .14-.02.21c-.02.03-.1.14-.68.14h-.98c-.54 0-1.15 0-1.6.02a31 31 0 0 1-3.57-.03c-2-.1-4.13-.94-5.7-2.26-.14-.12-.4-.2-.62-.2a.7.7 0 0 0-.5.2.8.8 0 0 0-.02 1.02 10.4 10.4 0 0 0 7.15 2.91 32 32 0 0 0 4.74-.1l.24-.01q.3-.04.52-.05l-.55.43a13 13 0 0 1-3.72 1.86 20 20 0 0 1-5.9 1.02h-.61q-1.5 0-3-.19l-.79-.1q-.54-.1-1.1-.15l-.27-.03a7 7 0 0 0-.79-.06q-.3 0-.56.05a2.2 2.2 0 0 0-1.3.8c-.46.6-.59 2.13-.34 2.78.48 1.31 1.57 2.04 2.55 2.63q.48.28.99.49c.81.36 1.52.68 1.75 1.41-.3.08-1.21.14-2.22.14H54.7c-.96 0-1.7-.07-2.04-.2h-.03c-.29-.16-.43-.58-.54-.93v-.01a7 7 0 0 0-.9-1.64 7 7 0 0 0-3.06-2.64 9 9 0 0 0-3.56-.65l-1.15.02-1.07.02h-.79l-1.28-.01c-.49-.01-1.05-.03-2.05-.03-.33 0-.57.35-.65.94-.14 1.07.3 2.85 2.1 3.35l.49.13c.87.22 1.78.45 2.41 1.1.2.21.27.4.24.46-.01.03-.1.09-.35.09h-6.22c-1.04 0-1.83-.05-2.5-.6-1.11-.95-1.66-2.21-2.23-3.55l-.1-.22a40 40 0 0 0-2.11-4.28c-1.83-3.13-4.04-5.42-6.58-6.78-2-1.07-4.5-1.68-6.84-1.68-2.82 0-5.45.87-7.59 2.51a8.5 8.5 0 0 0-3.38 6.77 10.4 10.4 0 0 0 3.82 8.04 9 9 0 0 0 5.7 1.9q.3 0 .6-.03a7.8 7.8 0 0 0 5.8-2.82 5.8 5.8 0 0 0 1.1-4.75 5 5 0 0 0-2.28-3.36 5.6 5.6 0 0 0-2.84-.68h-.02q-1.96 0-2.95.98c-.94.9-1.09 2.5-.34 3.57l.32.41c.33.38.6.72.54 1.16a1 1 0 0 1-.78.76l-.31.04c-.65 0-1.22-.44-1.58-.82a5.1 5.1 0 0 1-1.03-5.36c1.02-2.45 3.75-3.55 6-3.55h.23a9.1 9.1 0 0 1 7.79 5.32 10 10 0 0 1-.93 9.48c-1.88 2.75-5.22 4.33-9.16 4.33m57.07-26.05a3.3 3.3 0 1 1-6.6 0 3.3 3.3 0 1 1 6.6 0"/></svg><path fill="#fff" d="M401.18 301.08q-3.16 0-5.22-2.05t-2.05-5.22v-36.23h7.65v34.05q0 1 .65 1.65t1.59.65h17.52v7.15zm36.55.62q-4.54 0-7.99-1.96-3.45-1.95-5.37-5.47-1.93-3.51-1.93-8.17v-.62q0-4.29 1.77-7.77t5.04-5.5q3.26-2.02 7.61-2.02 4.54 0 7.77 2.21t4.72 6.24.81 9.51h-20.63q.37 3.17 2.57 5.25 2.21 2.09 6 2.09 2.24 0 3.86-.62 1.61-.63 2.92-1.87l4.04 4.23q-1.81 2.23-4.7 3.35t-6.49 1.12m-.81-25.73q-3.17 0-4.97 1.96t-2.3 5.13h13.67q-.12-3.36-1.89-5.22-1.77-1.87-4.51-1.87m27.78 25.73q-5.16 0-8.2-2.52-3.05-2.51-3.05-6.49 0-4.04 3.33-6.68 3.32-2.64 8.85-2.64 4.17 0 6.9 1.49v-2.92q0-2.99-1.67-4.23-1.68-1.24-4.29-1.24-2.3 0-4.76.87t-4.19 2.48l-3.23-4.84q1.98-2.24 5.43-3.51 3.45-1.28 7.18-1.28 5.6 0 9.11 2.89t3.51 8.48v9.76q0 2.49.03 4.91.03 2.43.15 4.85h-6.33l-.07-3.11q-2.54 3.73-8.7 3.73m1.99-5.28q2.67 0 4.29-1.12t1.62-2.92q0-1.74-1.62-2.86t-4.35-1.12q-2.67 0-4.32 1.12t-1.65 2.86q0 1.8 1.65 2.92t4.38 1.12m20.01 4.66v-30.27h6.9v4.42q1.12-2.61 3.3-3.64t4.84-1.03h2.49v7.09h-3.05q-3.54 0-5.43 1.62-1.9 1.61-1.9 4.72v17.09zm21.88 0v-30.27h6.9v3.86q1.86-2.68 4.44-3.58t4.69-.9q5.1 0 8.18 3.33 3.07 3.32 3.07 9.54v18.02h-7.14v-16.84q0-3.98-1.71-5.75t-4.38-1.77q-2.93 0-4.91 1.95-1.99 1.96-1.99 5.69v16.72zm47.11 0v-30.27h6.84v3.79q1.74-2.54 4.16-3.48t4.66-.93q2.98 0 5.25 1.21 2.27 1.22 3.64 3.7 1.37-1.99 3.14-3.04 1.77-1.06 3.54-1.46 1.77-.41 3.2-.41 4.91 0 8.02 3.17t3.11 9.32v18.4h-7.09v-17.34q0-3.67-1.58-5.34-1.59-1.68-4.26-1.68-2.74 0-4.51 1.83t-1.77 5.19v17.34h-7.15v-17.34q0-3.67-1.58-5.34-1.59-1.68-4.2-1.68-2.73 0-4.53 1.83t-1.81 5.19v17.34zm66.25.62q-4.41 0-7.95-1.99t-5.6-5.5-2.05-8.05v-.56q0-4.53 2.05-8.01t5.6-5.44q3.54-1.96 7.95-1.96t7.93 1.96 5.56 5.44 2.05 7.95v.62q0 4.54-2.05 8.05t-5.56 5.5-7.93 1.99m0-6.34q3.73 0 6.06-2.58t2.33-6.62v-.62q0-3.98-2.33-6.49t-6.06-2.52q-3.67 0-6.03 2.55t-2.36 6.52v.56q0 4.04 2.36 6.62t6.03 2.58m21.01 5.72v-30.27h6.9v4.42q1.12-2.61 3.29-3.64 2.18-1.03 4.85-1.03h2.48v7.09h-3.04q-3.54 0-5.44 1.62-1.89 1.61-1.89 4.72v17.09zm33.99.62q-4.53 0-7.98-1.96-3.45-1.95-5.38-5.47t-1.92-8.17v-.62q0-4.29 1.77-7.77t5.03-5.5 7.61-2.02q4.54 0 7.77 2.21t4.73 6.24.8 9.51h-20.63q.37 3.17 2.58 5.25t6 2.09q2.23 0 3.85-.62 1.62-.63 2.92-1.87l4.04 4.23q-1.8 2.23-4.69 3.35t-6.5 1.12m-.8-25.73q-3.17 0-4.98 1.96-1.8 1.96-2.29 5.13h13.67q-.13-3.36-1.9-5.22-1.77-1.87-4.5-1.87"/><rect width="253.64" height="61" x="413.17" y="319.41" fill="#fff" rx="30.5" ry="30.5"/><path fill="#0a9bd6" d="M453.02 360.03q-1.58 0-2.92-.48t-2.22-1.18l1.21-1.9q.82.63 1.84 1.01t2.09.38q1.13 0 1.82-.51t.7-1.3q0-.73-.51-1.11t-1.32-.61-1.72-.47-1.72-.65-1.33-1.16q-.52-.74-.52-2.02 0-1.86 1.39-3.03 1.4-1.18 3.75-1.18 1.33 0 2.5.39 1.17.38 2.07 1l-1.24 1.86q-.73-.51-1.6-.8-.86-.3-1.76-.3-1.1 0-1.78.51t-.68 1.3q0 .73.52 1.12.53.38 1.36.6l1.75.48q.92.26 1.75.68.84.42 1.36 1.19.52.76.52 2.03 0 1.22-.69 2.15t-1.88 1.47q-1.19.53-2.74.53m13.45.03q-2.26 0-3.76-1.35-1.5-1.36-1.5-4.24v-8.36h2.74v7.85q0 2.01.88 2.78.88.78 2.23.78 1.41 0 2.4-.92t.99-2.78v-7.71h2.74v13.67h-2.43v-1.86q-.85 1.27-2.06 1.7-1.22.44-2.23.44m14.69-.03q-1.58 0-2.93-.48-1.34-.48-2.21-1.18l1.21-1.9q.82.63 1.84 1.01 1.01.38 2.09.38 1.13 0 1.82-.51t.69-1.3q0-.73-.51-1.11-.5-.39-1.31-.61l-1.72-.47q-.92-.24-1.73-.65t-1.32-1.16q-.53-.74-.53-2.02 0-1.86 1.4-3.03 1.4-1.18 3.74-1.18 1.33 0 2.5.39 1.18.38 2.08 1l-1.24 1.86q-.74-.51-1.6-.8t-1.76-.3q-1.11 0-1.78.51-.68.51-.68 1.3 0 .73.52 1.12.52.38 1.36.6l1.75.48q.92.26 1.75.68t1.36 1.19.52 2.03q0 1.22-.69 2.15-.7.93-1.88 1.47-1.19.53-2.74.53m14.32.03q-2.06 0-3.62-.89-1.55-.89-2.41-2.47t-.86-3.67v-.28q0-1.98.8-3.55.81-1.57 2.26-2.47 1.46-.91 3.41-.91 2 0 3.43.99t2.09 2.77.38 4.21h-9.63q.17 1.64 1.28 2.73 1.12 1.08 2.98 1.08 2.04 0 3.22-1.1l1.59 1.67q-.82.93-2.09 1.41-1.28.48-2.83.48m-.42-11.95q-1.59 0-2.52.99t-1.16 2.6h6.93q-.03-1.69-.94-2.64t-2.31-.95m8.64 11.67v-3.47h3.25v3.47zm12.8.28q-2.06 0-3.66-.89t-2.51-2.46-.92-3.6v-.34q0-2.06.93-3.63t2.53-2.44 3.63-.88q1.5 0 2.77.58t2.12 1.6l-1.7 1.72q-1.21-1.35-3.19-1.35-1.87 0-3.08 1.2-1.22 1.2-1.22 3.2v.34q0 1.98 1.23 3.2 1.23 1.21 3.1 1.21.93 0 1.75-.32.82-.33 1.5-1.01l1.66 1.7q-.85 1.01-2.14 1.59-1.3.58-2.8.58m13.3 0q-1.97 0-3.54-.9-1.57-.91-2.49-2.49t-.92-3.64v-.26q0-2.03.92-3.6t2.49-2.46 3.54-.89q1.98 0 3.54.89 1.55.89 2.45 2.45.91 1.55.91 3.59v.28q0 2.06-.91 3.64-.9 1.58-2.45 2.49-1.56.9-3.54.9m0-2.46q1.84 0 2.98-1.27 1.15-1.27 1.15-3.3v-.28q0-1.98-1.15-3.22-1.14-1.25-2.98-1.25-1.83 0-2.99 1.26t-1.16 3.23v.26q0 2.03 1.16 3.3t2.99 1.27m10 2.18v-13.67h2.66v1.92q.79-1.27 1.94-1.74 1.14-.47 2.21-.47 1.42 0 2.49.61t1.67 1.82q.59-.96 1.39-1.48.81-.52 1.66-.73.84-.22 1.52-.22 2.23 0 3.63 1.43t1.4 4.31v8.22h-2.74v-7.83q0-1.89-.8-2.74-.81-.84-2.17-.84t-2.27.92-.92 2.64v7.85h-2.77v-7.83q0-1.89-.8-2.74-.81-.84-2.13-.84-1.39 0-2.31.92-.91.91-.91 2.64v7.85zm21.96 4.07 10.25-25.51h2.82l-10.31 25.51zm19.12-3.79q-2.06 0-3.62-.89-1.55-.89-2.41-2.47t-.86-3.67v-.28q0-1.98.8-3.55.81-1.57 2.26-2.47 1.46-.91 3.41-.91 2 0 3.43.99t2.09 2.77.38 4.21h-9.63q.17 1.64 1.28 2.73 1.12 1.08 2.98 1.08 2.04 0 3.22-1.1l1.59 1.67q-.82.93-2.09 1.41-1.28.48-2.83.48m-.42-11.95q-1.59 0-2.52.99t-1.16 2.6h6.93q-.03-1.69-.94-2.64t-2.31-.95m14.57 11.95q-1.86 0-3.32-.87-1.45-.88-2.28-2.46-.84-1.58-.84-3.67v-.29q0-2.06.85-3.63t2.3-2.44q1.46-.88 3.32-.88 1.39 0 2.52.57t1.92 1.58v-8.81h2.77v20.62h-2.52v-2.15q-.79 1.16-2 1.8-1.22.63-2.72.63m.43-2.43q1.81 0 3.01-1.27t1.2-3.42-1.2-3.4-3.01-1.26q-1.75 0-2.93 1.22-1.17 1.21-1.17 3.27v.29q0 2.09 1.17 3.33 1.18 1.24 2.93 1.24m9.57 7.8v-2.29h8.22q1.73 0 1.73-1.52 0-1.42-1.73-1.42h-4.6q-1.07 0-1.65-.52t-.65-1.31.32-1.64l.91-1.78q-1.05-.68-1.64-1.7-.6-1.01-.6-2.31v-.26q0-1.41.77-2.51.76-1.1 2.1-1.72 1.34-.63 3.1-.63h.45l1.3-2.76h2.79l-1.75 3.24q1.44.6 2.29 1.73t.85 2.6v.31q0 1.47-.75 2.6t-2.09 1.76-3.09.64q-.8 0-1.53-.14l-.62 1.24q-.17.31-.11.65.05.34.62.34h3.98q1.75 0 2.84.89t1.09 2.72q0 1.67-1.12 2.73-1.11 1.06-2.92 1.06zm6.28-11.64q.73 0 1.48-.27t1.24-.92.5-1.8q0-1.22-.91-1.97-.9-.75-2.31-.75-1.45 0-2.35.75t-.9 1.97q0 1.15.51 1.8.5.65 1.25.92t1.49.27m15.05 6.27q-2.06 0-3.61-.89-1.56-.89-2.42-2.47t-.86-3.67v-.28q0-1.98.8-3.55.81-1.57 2.26-2.47 1.46-.91 3.41-.91 2 0 3.43.99t2.09 2.77.38 4.21h-9.63q.17 1.64 1.29 2.73 1.11 1.08 2.98 1.08 2.03 0 3.22-1.1l1.58 1.67q-.82.93-2.09 1.41t-2.83.48m-.42-11.95q-1.58 0-2.52.99t-1.15 2.6h6.92q-.03-1.69-.93-2.64-.91-.95-2.32-.95"/></svg>