<svg xmlns="http://www.w3.org/2000/svg" width="1920" height="1080" viewBox="0 0 1920 1080"><path fill="#fff" d="M0 0h1920v1080H0z"/><path fill="#30ba78" d="M0 0h610.55v1080H0z"/><path fill="#0c322c" d="M101.73 467.32q-8.85 0-16.49-3.03t-13.46-8.62-9.09-13.23-3.26-16.84v-1.4q0-9.21 3.26-16.84 3.27-7.63 9.09-13.23 5.83-5.59 13.46-8.62t16.49-3.03q8.28 0 15.21 2.62t12.42 7.63l-10.61 12.36q-6.99-6.53-17.02-6.53-7.34 0-13.11 3.26-5.77 3.27-9.03 9.04t-3.26 13.34v1.4q0 7.57 3.26 13.34t9.03 9.04q5.77 3.26 13.11 3.26 10.38 0 17.49-7.11l10.6 12.35q-5.59 5.25-12.7 8.04-7.11 2.8-15.39 2.8m58.16-.46q-8.51 0-15.27-3.73t-10.72-10.32-3.96-15.21v-1.16q0-8.51 3.96-15.04t10.72-10.25q6.76-3.73 15.27-3.73 8.39 0 15.15 3.73t10.66 10.25q3.91 6.53 3.91 15.04v1.16q0 8.63-3.91 15.21-3.9 6.59-10.66 10.32t-15.15 3.73m0-13.52q6.29 0 10.26-4.43t3.96-11.31v-1.16q0-6.76-3.96-11.13-3.97-4.37-10.26-4.37-6.41 0-10.43 4.37t-4.02 11.13v1.16q0 6.88 4.02 11.31t10.43 4.43m37.88 12.35v-57.11h14.91v6.41q3.5-4.54 8.16-6.06t8.28-1.51q9.67 0 15.44 6.35t5.77 17.77v34.15h-15.5v-31.7q0-6.53-2.8-9.5t-7.34-2.97q-4.9 0-8.16 3.26-3.26 3.27-3.26 9.68v31.23zm67.71 0v-44.05h-9.56v-13.06h9.56v-10.49q0-8.27 5.07-12.87 5.07-4.61 13.81-4.61h9.79v12.82h-9.91q-1.4 0-2.39.99t-.99 2.28v11.88h37.53v57.11h-15.5v-44.05h-22.03v44.05zm36.71-67.95v-16.31h17.02v16.31zm45.1 69.12q-9.55 0-15.32-4.72t-5.77-12.3q0-7.69 6.17-12.59t17.14-4.89q7.11 0 12 2.21v-4.66q0-5.01-2.91-7.05t-7.35-2.04q-4.19 0-8.74 1.57-4.54 1.58-7.8 4.49l-6.88-10.26q3.85-4.19 10.43-6.7t14.04-2.5q10.73 0 17.6 5.53t6.88 16.03v27.62q0 4.54.35 9.09h-13.75v-5.94q-4.55 7.11-16.09 7.11m4.31-11.19q4.55 0 7.29-1.81t2.74-4.72-2.74-4.66-7.29-1.75q-4.42 0-7.16 1.75t-2.74 4.66q0 2.8 2.74 4.66t7.16 1.87m36.25 10.02v-57.11h14.92v6.41q3.49-4.54 8.16-6.06t8.27-1.51q9.67 0 15.44 6.35t5.77 17.77v34.15h-15.5v-31.7q0-6.53-2.8-9.5t-7.34-2.97q-4.89 0-8.16 3.26-3.26 3.27-3.26 9.68v31.23zm60.37 0v-11.77l26.11-31.82h-25.76v-13.52h44.99v11.89l-26.46 31.82h27.39v13.4zm71.79 1.17q-9.56 0-15.32-4.72t-5.77-12.3q0-7.69 6.17-12.59t17.13-4.89q7.11 0 12.01 2.21v-4.66q0-5.01-2.91-7.05t-7.35-2.04q-4.19 0-8.74 1.57-4.54 1.58-7.81 4.49l-6.87-10.26q3.84-4.19 10.43-6.7t14.04-2.5q10.72 0 17.6 5.53t6.88 16.03v27.62q0 4.54.35 9.09h-13.76v-5.94q-4.54 7.11-16.08 7.11m4.31-11.19q4.55 0 7.29-1.81t2.74-4.72-2.74-4.66-7.29-1.75q-4.43 0-7.16 1.75t-2.74 4.66q0 2.8 2.74 4.66 2.73 1.87 7.16 1.87M88.91 581.06q-8.74 0-15.5-3.73t-10.66-10.32-3.9-15.09v-1.28q0-8.63 3.96-15.15 3.96-6.53 10.72-10.2t15.38-3.67q6.3 0 11.95 2.62t9.03 7.17l-9.44 9.44q-2.1-2.57-5.13-3.85t-6.41-1.28q-6.17 0-10.37 4.02t-4.19 10.9v1.28q0 6.88 4.31 10.95 4.31 4.08 10.49 4.08 3.14 0 6.23-1.16 3.09-1.17 5.65-3.85l9.21 9.33q-3.49 4.54-9.26 7.16t-12.07 2.63m51.87 0q-8.74 0-15.27-3.68-6.53-3.67-10.2-10.25t-3.67-15.44v-1.17q0-8.04 3.44-14.63 3.44-6.58 9.61-10.43t14.57-3.84q8.74 0 14.92 4.25t9.03 12.01 1.57 18.24h-37.64q.58 5.24 4.25 8.56 3.68 3.32 10.09 3.32 4.31 0 7.05-1.28t5.07-3.61l8.85 9.09q-3.49 4.43-9.09 6.64-5.59 2.22-12.58 2.22m-1.52-47.32q-5.24 0-8.16 3.32t-3.84 8.68h22.72q-.23-5.82-3.2-8.91t-7.52-3.09m33.92 46.15v-57.11h15.03v7.93q2.1-4.78 6.12-6.59t9.03-1.8h4.43v15.26h-5.83q-6.41 0-9.85 2.8t-3.43 8.04v31.47zm65.38 1.17q-8.51 0-15.27-3.73t-10.72-10.32-3.96-15.21v-1.16q0-8.51 3.96-15.04t10.72-10.25 15.27-3.73q8.39 0 15.15 3.73t10.66 10.25q3.91 6.53 3.91 15.04v1.16q0 8.63-3.91 15.21-3.9 6.59-10.66 10.32t-15.15 3.73m0-13.52q6.29 0 10.25-4.43 3.97-4.43 3.97-11.31v-1.16q0-6.76-3.97-11.13-3.96-4.37-10.25-4.37-6.41 0-10.43 4.37t-4.02 11.13v1.16q0 6.88 4.02 11.31t10.43 4.43m36.36 12.35v-17.25h17.48v23.43q0 4.66-1.86 7.11-1.87 2.44-4.67 3.32t-5.47.87h-5.6v-8.74h5.6q1.39 0 2.15-.82t.76-2.09v-5.83zm73.89 1.17q-8.74 0-15.5-3.73t-10.67-10.32q-3.9-6.58-3.9-15.09v-1.28q0-8.63 3.96-15.15 3.96-6.53 10.72-10.2t15.39-3.67q6.29 0 11.94 2.62 5.66 2.62 9.04 7.17l-9.44 9.44q-2.1-2.57-5.13-3.85t-6.41-1.28q-6.18 0-10.37 4.02-4.2 4.02-4.2 10.9v1.28q0 6.88 4.31 10.95 4.31 4.08 10.49 4.08 3.15 0 6.24-1.16 3.08-1.17 5.65-3.85l9.21 9.33q-3.5 4.54-9.27 7.16t-12.06 2.63m51.86 0q-8.74 0-15.27-3.68-6.52-3.67-10.2-10.25t-3.67-15.44v-1.17q0-8.04 3.44-14.63 3.44-6.58 9.62-10.43t14.56-3.84q8.75 0 14.92 4.25t9.03 12.01 1.58 18.24h-37.65q.59 5.24 4.26 8.56t10.08 3.32q4.31 0 7.05-1.28t5.07-3.61l8.86 9.09q-3.5 4.43-9.09 6.64-5.6 2.22-12.59 2.22m-1.52-47.32q-5.24 0-8.15 3.32t-3.85 8.68h22.73q-.24-5.82-3.21-8.91t-7.52-3.09m33.92 46.15v-57.11h15.03v7.93q2.1-4.78 6.12-6.59t9.03-1.8h4.43v15.26h-5.82q-6.41 0-9.85 2.8t-3.44 8.04v31.47zm65.38 1.17q-8.51 0-15.27-3.73t-10.72-10.32-3.96-15.21v-1.16q0-8.51 3.96-15.04t10.72-10.25 15.27-3.73q8.39 0 15.15 3.73t10.66 10.25 3.91 15.04v1.16q0 8.63-3.91 15.21-3.9 6.59-10.66 10.32t-15.15 3.73m0-13.52q6.29 0 10.26-4.43t3.96-11.31v-1.16q0-6.76-3.96-11.13-3.97-4.37-10.26-4.37-6.41 0-10.43 4.37T484 550.64v1.16q0 6.88 4.02 11.31t10.43 4.43M86 695.26q-7.69 0-13.81-3.62-6.12-3.61-9.67-10.2-3.56-6.58-3.56-15.32v-1.17q0-8.62 3.62-15.2 3.61-6.59 9.73-10.26t13.81-3.67q4.78 0 8.85 1.63 4.08 1.63 7.23 4.66v-33.1h15.5v85.08h-13.87v-6.64q-6.99 7.81-17.83 7.81m2.56-13.52q6.18 0 10.44-4.26t4.25-11.94q0-7.58-4.25-11.89t-10.44-4.31q-5.82 0-9.96 4.13t-4.14 11.48v1.17q0 7.34 4.14 11.48t9.96 4.14m40.68 12.35v-57.11h15.03v7.93q2.1-4.78 6.12-6.59t9.03-1.8h4.43v15.26h-5.83q-6.41 0-9.84 2.8-3.44 2.8-3.44 8.04v31.47zm56.41 1.17q-9.56 0-15.33-4.72t-5.77-12.3q0-7.69 6.18-12.59t17.13-4.89q7.11 0 12 2.21v-4.66q0-5.01-2.91-7.05t-7.34-2.04q-4.2 0-8.74 1.57-4.55 1.58-7.81 4.49l-6.88-10.26q3.85-4.19 10.43-6.7t14.05-2.5q10.72 0 17.6 5.53 6.87 5.54 6.87 16.03V685q0 4.54.35 9.09h-13.75v-5.94q-4.55 7.11-16.08 7.11m4.31-11.19q4.54 0 7.28-1.81t2.74-4.72-2.74-4.66-7.28-1.75q-4.43 0-7.17 1.75t-2.74 4.66q0 2.8 2.74 4.66t7.17 1.87m36.24 10.02v-57.11h14.92v6.3q3.26-4.43 7.63-5.95 4.37-1.51 8.34-1.51 5.24 0 9.38 2.1 4.14 2.09 6.7 6.29 2.56-3.38 5.89-5.19 3.32-1.8 6.52-2.5 3.21-.7 5.77-.7 9.21 0 15.09 5.94 5.89 5.95 5.89 17.37v34.96h-15.38v-32.63q0-6.06-2.63-8.8t-7.05-2.74-7.34 3.03-2.91 8.39v32.75h-15.5v-32.63q0-6.06-2.57-8.8t-6.87-2.74q-4.55 0-7.52 3.03t-2.97 8.39v32.75zm114.45 1.17q-9.56 0-15.33-4.72t-5.77-12.3q0-7.69 6.18-12.59t17.13-4.89q7.11 0 12.01 2.21v-4.66q0-5.01-2.92-7.05t-7.34-2.04q-4.19 0-8.74 1.57-4.54 1.58-7.81 4.49l-6.87-10.26q3.84-4.19 10.43-6.7t14.04-2.5q10.72 0 17.6 5.53t6.88 16.03V685q0 4.54.34 9.09h-13.75v-5.94q-4.54 7.11-16.08 7.11m4.31-11.19q4.55 0 7.29-1.81 2.73-1.81 2.73-4.72t-2.73-4.66-7.29-1.75q-4.43 0-7.17 1.75-2.73 1.75-2.73 4.66 0 2.8 2.73 4.66 2.74 1.87 7.17 1.87m54.08 10.95q-7.11 0-12.82-1.98t-9.56-4.89l6.53-10.38q3.61 2.33 7.63 3.85 4.02 1.51 8.22 1.51 3.61 0 5.83-1.45 2.21-1.46 2.21-3.79t-2.04-3.55-5.19-2.04l-6.76-1.75q-3.61-.93-6.76-2.74t-5.18-5.07-2.04-8.62q0-8.05 6.12-13.17 6.12-5.13 16.6-5.13 5.72 0 10.9 1.51 5.19 1.52 9.15 4.08l-6.64 10.37q-6.65-4.19-13.64-4.19-3.61 0-5.65 1.4t-2.04 3.73 2.04 3.55q2.04 1.23 5.3 2.1l6.94 1.86q3.67.99 6.93 2.86t5.36 5.19 2.1 8.68q0 5.24-3.03 9.38t-8.33 6.41-12.18 2.27M731.3 399.03q-7.26 0-12.65-2.7-5.4-2.69-9.22-7.16l7.08-7.07q3.72 3.81 7.39 5.53 3.68 1.73 7.77 1.73 5.49 0 8.61-2.56t3.12-6.66q0-3.25-1.77-5.21-1.77-1.95-4.65-3.16t-6.38-2.23-6.93-2.24-6.33-3.16q-2.88-1.96-4.65-5.07t-1.77-7.96q0-6.05 2.84-10.51t7.91-6.89 11.96-2.42q6.23 0 11.35 2.23 5.12 2.24 8.38 5.96l-7.26 7.26q-2.79-2.89-5.82-4.33-3.02-1.44-6.74-1.44-5.12 0-8.19 2.46-3.07 2.47-3.07 6.56 0 3.07 1.76 4.84 1.77 1.77 4.7 2.89 2.93 1.11 6.42 2.04 3.49.94 6.98 2.1t6.42 3.12 4.7 5.21 1.77 8.28q0 6.23-2.98 10.84t-8.33 7.16-12.42 2.56m52.95-.37q-6.79 0-11.96-2.93-5.16-2.93-8.05-8.19-2.88-5.26-2.88-12.24v-.93q0-6.42 2.65-11.63t7.54-8.23 11.4-3.03q6.79 0 11.63 3.31 4.84 3.3 7.07 9.35t1.21 14.24h-30.89q.55 4.74 3.86 7.86t8.98 3.12q3.35 0 5.77-.94t4.37-2.79l6.05 6.33q-2.7 3.35-7.03 5.03-4.32 1.67-9.72 1.67m-1.21-38.52q-4.75 0-7.45 2.93-2.69 2.93-3.44 7.67h20.47q-.18-5.02-2.83-7.81-2.66-2.79-6.75-2.79m25.4 56.2v-8.84h27.45q4.56 0 4.56-4.09 0-3.82-4.56-3.82h-15.72q-3.63 0-5.59-1.77-1.95-1.76-2.23-4.51t1.12-5.63l2.88-5.77q-3.44-2.23-5.35-5.63t-1.91-7.68v-.83q0-4.75 2.56-8.42 2.56-3.68 7.07-5.77 4.52-2.1 10.47-2.1h.93l4.1-8.84h10.79l-5.86 10.7q4.65 2.05 7.35 5.77 2.7 3.73 2.7 8.56v.93q0 4.94-2.56 8.7-2.56 3.77-7.07 5.91t-10.38 2.14q-2.23 0-4.28-.28l-1.86 3.82q-.46.74-.28 1.54.19.79 1.49.79h13.21q5.77 0 9.4 2.97t3.63 9.4q0 5.49-3.77 9.12t-9.72 3.63zm20.75-39.17q2.14 0 4.33-.8 2.19-.79 3.68-2.74 1.48-1.95 1.48-5.4 0-3.63-2.65-5.86t-6.84-2.23q-4.28 0-6.93 2.23t-2.65 5.86q0 3.45 1.49 5.4t3.67 2.74 4.42.8m46.06 21.49q-7.44 0-12.42-4.51t-4.98-13.82v-27.92h10.7v25.87q0 5.86 2.56 8.24t6.56 2.37q4.28 0 7.12-2.75t2.84-8.32v-25.41h10.7v45.32h-9.3v-5.49q-2.89 3.82-6.75 5.12t-7.03 1.3m35.08-.93v-45.32h10.33v6.61q1.68-3.91 4.94-5.44 3.25-1.54 7.25-1.54h3.73v10.61h-4.56q-5.31 0-8.15 2.42-2.83 2.42-2.83 7.07v25.59zm37.5 0v-36.2h-8.18v-9.12h18.98v45.32zm-.46-54.34v-12.38h11.91v12.38zm41.78 55.27q-6.14 0-10.98-2.88-4.84-2.89-7.63-8.1t-2.79-12.19v-.93q0-6.79 2.84-12t7.67-8.15 10.98-2.93q4.19 0 7.68 1.58 3.49 1.59 6.09 4.38V329.8h10.71v67.93h-9.68v-6.14q-2.7 3.35-6.52 5.21t-8.37 1.86m1.68-9.4q5.49 0 9.16-3.81 3.68-3.82 3.68-10.33 0-6.61-3.68-10.38-3.67-3.77-9.16-3.77-5.12 0-8.75 3.63t-3.63 9.96v.93q0 6.33 3.63 10.05t8.75 3.72m48.57 9.4q-7.72 0-12.28-3.77t-4.56-9.72q0-6.05 4.97-10.01 4.98-3.95 13.26-3.95 6.24 0 10.33 2.23v-4.37q0-4.47-2.51-6.33t-6.42-1.86q-3.44 0-7.12 1.3-3.67 1.31-6.28 3.73l-4.84-7.26q2.98-3.35 8.14-5.26t10.75-1.91q8.38 0 13.63 4.33t5.26 12.7v14.61q0 3.72.05 7.35.04 3.63.23 7.26h-9.49l-.09-4.65q-3.82 5.58-13.03 5.58m2.98-7.91q4 0 6.42-1.67 2.42-1.68 2.42-4.38 0-2.6-2.42-4.28-2.42-1.67-6.52-1.67-4 0-6.46 1.67-2.47 1.68-2.47 4.28 0 2.7 2.47 4.38 2.46 1.67 6.56 1.67m49.5 7.91q-6.14 0-10.98-2.88-4.84-2.89-7.63-8.1t-2.79-12.19v-.93q0-6.79 2.84-12t7.67-8.15 10.98-2.93q4.19 0 7.68 1.58 3.49 1.59 6.09 4.38V329.8h10.71v67.93h-9.68v-6.14q-2.7 3.35-6.52 5.21t-8.37 1.86m1.67-9.4q5.5 0 9.17-3.81 3.68-3.82 3.68-10.33 0-6.61-3.68-10.38-3.67-3.77-9.17-3.77-5.11 0-8.74 3.63t-3.63 9.96v.93q0 6.33 3.63 10.05t8.74 3.72m73.61 9.4q-6.14 0-10.98-2.88-4.84-2.89-7.63-8.1t-2.79-12.19v-.93q0-6.79 2.84-12t7.67-8.15 10.98-2.93q4.19 0 7.68 1.58 3.49 1.59 6.09 4.38V329.8h10.71v67.93h-9.68v-6.14q-2.7 3.35-6.52 5.21t-8.37 1.86m1.67-9.4q5.49 0 9.17-3.81t3.68-10.33q0-6.61-3.68-10.38t-9.17-3.77q-5.11 0-8.74 3.63t-3.63 9.96v.93q0 6.33 3.63 10.05t8.74 3.72m55 9.4q-6.79 0-11.96-2.93-5.16-2.93-8.05-8.19-2.88-5.26-2.88-12.24v-.93q0-6.42 2.65-11.63t7.54-8.23 11.4-3.03q6.79 0 11.63 3.31 4.84 3.3 7.07 9.35t1.21 14.24h-30.89q.55 4.74 3.86 7.86t8.98 3.12q3.35 0 5.77-.94t4.37-2.79l6.05 6.33q-2.7 3.35-7.03 5.03-4.32 1.67-9.72 1.67m-1.21-38.52q-4.75 0-7.45 2.93-2.69 2.93-3.44 7.67h20.47q-.18-5.02-2.84-7.81t-6.74-2.79m69.88 38.52q-6.79 0-12.14-2.93t-8.42-8.14-3.07-12.01v-1.02q0-6.89 3.11-12.1 3.12-5.21 8.47-8.09 5.35-2.89 12.05-2.89 5.03 0 9.4 2t7.07 5.54l-6.51 6.61q-1.86-2.14-4.42-3.21t-5.45-1.07q-5.58 0-9.25 3.53-3.68 3.54-3.68 9.68v1.02q0 6.05 3.77 9.63t9.26 3.59q2.79 0 5.35-.98t4.7-3.12l6.42 6.42q-2.7 3.54-7.17 5.54t-9.49 2m43.64 0q-6.6 0-11.91-2.98-5.3-2.97-8.37-8.23t-3.07-12.05v-.84q0-6.79 3.07-12t8.37-8.15 11.91-2.93 11.87 2.93q5.25 2.94 8.32 8.15t3.08 11.91v.93q0 6.79-3.08 12.05-3.07 5.26-8.32 8.23t-11.87 2.98m0-9.49q5.59 0 9.08-3.86 3.48-3.86 3.48-9.91v-.93q0-5.96-3.48-9.73-3.49-3.77-9.08-3.77-5.49 0-9.02 3.82-3.54 3.81-3.54 9.77v.84q0 6.05 3.54 9.91 3.53 3.86 9.02 3.86m32.38 8.56v-45.32h10.33v5.77q2.8-4 6.66-5.35t7.02-1.35q7.63 0 12.24 4.98 4.6 4.98 4.6 14.28v26.99h-10.7v-25.22q0-5.95-2.56-8.6-2.55-2.66-6.56-2.66-4.37 0-7.35 2.93t-2.97 8.52v25.03zm68.96 0q-3.26 0-6.47-1.12-3.21-1.11-5.35-4.04-2.14-2.94-2.14-8.15v-22.89h-7.72v-9.12h7.72v-11.07h10.7v11.07h10.51v9.12h-10.51v23.73q0 1.4.98 2.37.97.98 2.37.98h7.16v9.12zm35.17.93q-6.79 0-11.96-2.93-5.16-2.93-8.05-8.19-2.88-5.26-2.88-12.24v-.93q0-6.42 2.65-11.63t7.54-8.23 11.4-3.03q6.79 0 11.63 3.31 4.84 3.3 7.07 9.35t1.21 14.24h-30.89q.56 4.74 3.86 7.86t8.98 3.12q3.35 0 5.77-.94t4.37-2.79l6.05 6.33q-2.7 3.35-7.03 5.03-4.32 1.67-9.72 1.67m-1.21-38.52q-4.74 0-7.44 2.93t-3.45 7.67h20.48q-.19-5.02-2.84-7.81t-6.75-2.79m29.03 37.59v-45.32h10.33v5.77q2.79-4 6.66-5.35 3.86-1.35 7.02-1.35 7.63 0 12.24 4.98 4.6 4.98 4.6 14.28v26.99h-10.7v-25.22q0-5.95-2.56-8.6-2.56-2.66-6.56-2.66-4.37 0-7.35 2.93t-2.98 8.52v25.03zm72.4.93q-6.79 0-11.96-2.93-5.16-2.93-8.05-8.19-2.88-5.26-2.88-12.24v-.93q0-6.42 2.65-11.63t7.54-8.23 11.4-3.03q6.79 0 11.63 3.31 4.84 3.3 7.07 9.35t1.21 14.24h-30.9q.56 4.74 3.87 7.86 3.3 3.12 8.98 3.12 3.35 0 5.77-.94t4.37-2.79l6.05 6.33q-2.7 3.35-7.03 5.03-4.33 1.67-9.72 1.67m-1.21-38.52q-4.75 0-7.45 2.93-2.69 2.93-3.44 7.67h20.47q-.18-5.02-2.84-7.81t-6.74-2.79m47.64 38.52q-6.14 0-10.98-2.88-4.84-2.89-7.63-8.1t-2.79-12.19v-.93q0-6.79 2.84-12t7.67-8.15 10.98-2.93q4.19 0 7.68 1.58 3.49 1.59 6.1 4.38V329.8h10.7v67.93h-9.68v-6.14q-2.7 3.35-6.51 5.21-3.82 1.86-8.38 1.86m1.68-9.4q5.49 0 9.16-3.81 3.68-3.82 3.68-10.33 0-6.61-3.68-10.38-3.67-3.77-9.16-3.77-5.12 0-8.75 3.63t-3.63 9.96v.93q0 6.33 3.63 10.05t8.75 3.72m55.36 9.4q-6.6 0-11.91-2.98-5.3-2.97-8.37-8.23t-3.07-12.05v-.84q0-6.79 3.07-12t8.37-8.15 11.91-2.93 11.87 2.93q5.25 2.94 8.32 8.15t3.08 11.91v.93q0 6.79-3.08 12.05-3.07 5.26-8.32 8.23t-11.87 2.98m0-9.49q5.59 0 9.07-3.86t3.49-9.91v-.93q0-5.96-3.49-9.73-3.48-3.77-9.07-3.77-5.49 0-9.02 3.82-3.54 3.81-3.54 9.77v.84q0 6.05 3.54 9.91 3.53 3.86 9.02 3.86m32.38 8.56v-45.32h10.33v6.61q1.68-3.91 4.93-5.44t7.26-1.54h3.73v10.61h-4.56q-5.31 0-8.15 2.42-2.83 2.42-2.83 7.07v25.59zm51.83.93q-6.79 0-11.95-2.93-5.17-2.93-8.05-8.19t-2.89-12.24v-.93q0-6.42 2.66-11.63 2.65-5.21 7.53-8.23t11.4-3.03q6.79 0 11.63 3.31 4.84 3.3 7.08 9.35 2.23 6.05 1.21 14.24h-30.9q.56 4.74 3.86 7.86 3.31 3.12 8.98 3.12 3.35 0 5.77-.94t4.38-2.79l6.04 6.33q-2.69 3.35-7.02 5.03-4.33 1.67-9.73 1.67m-1.21-38.52q-4.74 0-7.44 2.93t-3.44 7.67h20.47q-.19-5.02-2.84-7.81t-6.75-2.79m42.62 38.43q-5.39 0-9.91-1.58-4.51-1.59-7.49-3.91l4.65-7.35q2.7 1.95 6.01 3.21 3.3 1.25 6.74 1.25 3.35 0 5.35-1.39 2-1.4 2-3.63 0-2.24-1.62-3.35-1.63-1.12-4.24-1.82-2.6-.69-5.53-1.44-2.94-.74-5.54-2.14-2.61-1.39-4.28-3.95t-1.68-6.75q0-6.23 4.75-10.24t12.75-4q4.46 0 8.46 1.21t7.17 3.35l-4.75 7.17q-5.21-3.54-10.98-3.54-3.25 0-5.21 1.44-1.95 1.45-1.95 3.68 0 2.05 1.72 3.21t4.37 1.86 5.63 1.54 5.63 2.28 4.38 4 1.72 6.74-2.33 7.35-6.42 4.98q-4.09 1.82-9.4 1.82M745.26 532.64v-23.63q-2.61 2.79-6.14 4.37-3.54 1.58-7.73 1.58-6.14 0-10.98-2.88-4.83-2.89-7.63-8.1t-2.79-12.19v-.93q0-6.79 2.84-12t7.68-8.15 10.98-2.93q4.37 0 8.09 1.77 3.73 1.77 6.42 4.93v-5.77h9.96v63.93zm-12.19-27.08q5.49 0 9.17-3.81t3.67-10.33q0-6.61-3.67-10.38-3.68-3.77-9.17-3.77-5.12 0-8.75 3.63t-3.63 9.96v.93q0 6.33 3.63 10.05t8.75 3.72m51.74 9.4q-7.45 0-12.43-4.51t-4.97-13.82v-27.92h10.7v25.87q0 5.86 2.56 8.24t6.56 2.37q4.28 0 7.11-2.75t2.84-8.32v-25.41h10.7v45.32h-9.3v-5.49q-2.89 3.82-6.75 5.12t-7.02 1.3m55.18 0q-6.8 0-11.96-2.93t-8.05-8.19-2.88-12.24v-.93q0-6.42 2.65-11.63t7.54-8.23 11.39-3.03q6.8 0 11.64 3.31 4.83 3.3 7.07 9.35 2.23 6.05 1.21 14.24h-30.9q.56 4.74 3.87 7.86 3.3 3.12 8.98 3.12 3.35 0 5.76-.94 2.42-.93 4.38-2.79l6.05 6.33q-2.7 3.35-7.03 5.03-4.33 1.67-9.72 1.67m-1.21-38.52q-4.75 0-7.45 2.93t-3.44 7.67h20.47q-.18-5.02-2.84-7.81t-6.74-2.79m49.13 37.59v-45.32h10.33v5.77q2.79-4 6.65-5.35t7.03-1.35q7.63 0 12.23 4.98t4.61 14.28v26.99h-10.7v-25.22q0-5.95-2.56-8.6-2.56-2.66-6.56-2.66-4.37 0-7.35 2.93t-2.98 8.52v25.03zm72.77.93q-6.61 0-11.91-2.98t-8.38-8.23-3.07-12.05v-.84q0-6.79 3.07-12t8.38-8.15 11.91-2.93 11.86 2.93q5.26 2.94 8.33 8.15t3.07 11.91v.93q0 6.79-3.07 12.05t-8.33 8.23-11.86 2.98m0-9.49q5.58 0 9.07-3.86t3.49-9.91v-.93q0-5.96-3.49-9.73t-9.07-3.77q-5.49 0-9.03 3.82t-3.54 9.77v.84q0 6.05 3.54 9.91t9.03 3.86m66.06 9.4q-5.39 0-9.91-1.58-4.51-1.59-7.49-3.91l4.66-7.35q2.69 1.95 6 3.21 3.3 1.25 6.74 1.25 3.35 0 5.35-1.39 2-1.4 2-3.63 0-2.24-1.62-3.35-1.63-1.12-4.24-1.82-2.6-.69-5.53-1.44-2.94-.74-5.54-2.14-2.61-1.39-4.28-3.95t-1.68-6.75q0-6.23 4.75-10.24t12.75-4q4.46 0 8.47 1.21 4 1.21 7.16 3.35l-4.75 7.17q-5.21-3.54-10.98-3.54-3.25 0-5.21 1.44-1.95 1.45-1.95 3.68 0 2.05 1.72 3.21t4.37 1.86q2.66.7 5.63 1.54 2.98.83 5.63 2.28 2.66 1.44 4.38 4t1.72 6.74-2.33 7.35-6.42 4.98q-4.09 1.82-9.4 1.82m47.09.09q-6.8 0-11.96-2.93t-8.05-8.19-2.88-12.24v-.93q0-6.42 2.65-11.63t7.54-8.23 11.4-3.03q6.79 0 11.63 3.31 4.84 3.3 7.07 9.35t1.21 14.24h-30.9q.56 4.74 3.87 7.86 3.3 3.12 8.98 3.12 3.35 0 5.77-.94t4.37-2.79l6.05 6.33q-2.7 3.35-7.03 5.03-4.33 1.67-9.72 1.67m-1.21-38.52q-4.75 0-7.45 2.93-2.69 2.93-3.44 7.67h20.47q-.18-5.02-2.84-7.81t-6.74-2.79m81.61 56.2v-23.63q-2.61 2.79-6.15 4.37-3.53 1.58-7.72 1.58-6.14 0-10.98-2.88-4.84-2.89-7.63-8.1t-2.79-12.19v-.93q0-6.79 2.84-12t7.67-8.15 10.98-2.93q4.38 0 8.1 1.77t6.42 4.93v-5.77h9.96v63.93zm-12.19-27.08q5.49 0 9.16-3.81 3.68-3.82 3.68-10.33 0-6.61-3.68-10.38-3.67-3.77-9.16-3.77-5.12 0-8.75 3.63t-3.63 9.96v.93q0 6.33 3.63 10.05t8.75 3.72m51.73 9.4q-7.44 0-12.42-4.51t-4.98-13.82v-27.92h10.7v25.87q0 5.86 2.56 8.24t6.56 2.37q4.28 0 7.12-2.75t2.84-8.32v-25.41h10.7v45.32h-9.31v-5.49q-2.88 3.82-6.74 5.12t-7.03 1.3m55.18 0q-6.79 0-11.95-2.93-5.17-2.93-8.05-8.19t-2.89-12.24v-.93q0-6.42 2.65-11.63 2.66-5.21 7.54-8.23t11.4-3.03q6.79 0 11.63 3.31 4.84 3.3 7.07 9.35t1.21 14.24h-30.89q.56 4.74 3.86 7.86t8.98 3.12q3.35 0 5.77-.94t4.37-2.79l6.05 6.33q-2.7 3.35-7.02 5.03-4.33 1.67-9.73 1.67m-1.21-38.52q-4.74 0-7.44 2.93t-3.44 7.67h20.47q-.19-5.02-2.84-7.81t-6.75-2.79m47.65 38.52q-6.15 0-10.98-2.88-4.84-2.89-7.63-8.1t-2.8-12.19v-.93q0-6.79 2.84-12t7.68-8.15 10.98-2.93q4.19 0 7.68 1.58 3.48 1.59 6.09 4.38V446.1h10.7v67.93h-9.68v-6.14q-2.69 3.35-6.51 5.21t-8.37 1.86m1.67-9.4q5.49 0 9.17-3.81t3.67-10.33q0-6.61-3.67-10.38-3.68-3.77-9.17-3.77-5.12 0-8.75 3.63t-3.63 9.96v.93q0 6.33 3.63 10.05t8.75 3.72m48.57 9.4q-7.72 0-12.28-3.77t-4.56-9.72q0-6.05 4.98-10.01t13.26-3.95q6.23 0 10.33 2.23v-4.37q0-4.47-2.51-6.33-2.52-1.86-6.42-1.86-3.45 0-7.12 1.3-3.68 1.31-6.28 3.73l-4.84-7.26q2.97-3.35 8.14-5.26t10.75-1.91q8.37 0 13.63 4.33t5.26 12.7v14.61q0 3.72.04 7.35.05 3.63.24 7.26h-9.5l-.09-4.65q-3.81 5.58-13.03 5.58m2.98-7.91q4 0 6.42-1.67 2.42-1.68 2.42-4.38 0-2.6-2.42-4.28-2.42-1.67-6.51-1.67-4 0-6.47 1.67-2.46 1.68-2.46 4.28 0 2.7 2.46 4.38 2.47 1.67 6.56 1.67m64.67 7.91q-7.72 0-12.28-3.77t-4.56-9.72q0-6.05 4.98-10.01t13.26-3.95q6.23 0 10.33 2.23v-4.37q0-4.47-2.51-6.33-2.52-1.86-6.43-1.86-3.44 0-7.11 1.3-3.68 1.31-6.28 3.73l-4.84-7.26q2.97-3.35 8.14-5.26t10.75-1.91q8.37 0 13.63 4.33t5.26 12.7v14.61q0 3.72.04 7.35.05 3.63.23 7.26h-9.49l-.09-4.65q-3.81 5.58-13.03 5.58m2.98-7.91q4 0 6.42-1.67 2.42-1.68 2.42-4.38 0-2.6-2.42-4.28-2.42-1.67-6.51-1.67-4 0-6.47 1.67-2.47 1.68-2.47 4.28 0 2.7 2.47 4.38t6.56 1.67m47.64 6.98q-3.25 0-6.46-1.12-3.21-1.11-5.35-4.04-2.14-2.94-2.14-8.15v-22.89h-7.73v-9.12h7.73v-11.07h10.7v11.07h10.51v9.12h-10.51v23.73q0 1.4.97 2.37.98.98 2.38.98h7.16v9.12zm16.29 0v-45.32h10.33v6.61q1.67-3.91 4.93-5.44t7.26-1.54h3.72v10.61h-4.56q-5.31 0-8.14 2.42t-2.84 7.07v25.59zm45.59.93q-7.72 0-12.28-3.77t-4.56-9.72q0-6.05 4.98-10.01t13.26-3.95q6.23 0 10.33 2.23v-4.37q0-4.47-2.51-6.33-2.52-1.86-6.43-1.86-3.44 0-7.11 1.3-3.68 1.31-6.28 3.73l-4.84-7.26q2.97-3.35 8.14-5.26t10.75-1.91q8.37 0 13.63 4.33t5.26 12.7v14.61q0 3.72.04 7.35.05 3.63.24 7.26h-9.5l-.09-4.65q-3.81 5.58-13.03 5.58m2.98-7.91q4 0 6.42-1.67 2.42-1.68 2.42-4.38 0-2.6-2.42-4.28-2.42-1.67-6.51-1.67-4 0-6.47 1.67-2.47 1.68-2.47 4.28 0 2.7 2.47 4.38t6.56 1.67m-5.12-45.22 8.01-14.89h12.74l-9.58 14.89zm49.6 53.04q-5.4 0-9.91-1.58-4.51-1.59-7.49-3.91l4.65-7.35q2.7 1.95 6 3.21 3.31 1.25 6.75 1.25 3.35 0 5.35-1.39 2-1.4 2-3.63 0-2.24-1.63-3.35-1.63-1.12-4.23-1.82-2.61-.69-5.54-1.44-2.93-.74-5.53-2.14-2.61-1.39-4.28-3.95t-1.68-6.75q0-6.23 4.75-10.24t12.74-4q4.47 0 8.47 1.21t7.17 3.35l-4.75 7.17q-5.21-3.54-10.98-3.54-3.26 0-5.21 1.44-1.95 1.45-1.95 3.68 0 2.05 1.72 3.21t4.37 1.86 5.63 1.54 5.63 2.28 4.37 4 1.73 6.74-2.33 7.35-6.42 4.98-9.4 1.82M712.2 656.56v-43.42h12.9q6.33 0 10.23 3.38t3.91 9.39q0 6.08-3.91 9.43-3.9 3.35-10.23 3.35h-8.75v17.87zm13.08-39.76h-8.93v18.36h8.93q4.41 0 7.17-2.48t2.76-6.77-2.76-6.7-7.17-2.41m20.35 39.76v-29.65h3.85v4.84q1.11-2.86 3.32-3.88t4.99-1.02h2.54v3.9h-2.85q-3.66 0-5.77 1.9-2.11 1.89-2.11 5.92v17.99zm31.83.62q-4.22 0-7.51-1.95-3.29-1.96-5.15-5.4t-1.86-7.97v-.56q0-4.41 1.86-7.79t5.15-5.3 7.51-1.92q4.15 0 7.44 1.92t5.15 5.27 1.86 7.7v.68q0 4.53-1.86 7.97t-5.15 5.4-7.44 1.95m0-3.54q3.1 0 5.46-1.52t3.69-4.15 1.33-6.11v-.68q0-3.35-1.33-5.9-1.34-2.54-3.69-4-2.36-1.46-5.46-1.46t-5.49 1.49-3.76 4.07-1.36 5.92v.56q0 3.47 1.36 6.11 1.37 2.63 3.76 4.15t5.49 1.52m31.2 2.92q-1.99 0-3.72-.81-1.74-.8-2.86-2.45-1.11-1.64-1.11-4.25v-18.67h-5.52v-3.47h5.52v-7.38h3.91v7.38h8.25v3.47h-8.25v18.92q0 1.68 1.11 2.76 1.12 1.09 2.73 1.09h4.41v3.41zm23.08.62q-4.35 0-7.7-1.95-3.35-1.96-5.21-5.4t-1.86-7.97v-.62q0-4.35 1.74-7.69t4.81-5.31q3.07-1.95 7.16-1.95 4.16 0 7.14 2.04t4.37 5.77.84 8.69h-22.15q.12 3.04 1.52 5.49t3.82 3.84q2.41 1.4 5.64 1.4 4.9 0 7.69-2.42l2.24 2.54q-1.68 1.68-4.32 2.61-2.63.93-5.73.93m-1.06-27.42q-4.09 0-6.67 2.67-2.57 2.67-3.07 7.07h18.36q.07-4.47-2.32-7.1-2.39-2.64-6.3-2.64m32.94 27.42q-4.4 0-7.81-1.92-3.42-1.93-5.34-5.31t-1.92-7.84v-.81q0-4.41 1.95-7.79 1.96-3.38 5.34-5.3t7.78-1.92q3.23 0 5.83 1.14 2.61 1.15 4.47 3.2l-2.48 2.48q-3.04-3.16-7.88-3.16-3.23 0-5.74 1.42-2.51 1.43-3.94 4.01-1.42 2.57-1.42 5.92v.81q0 3.41 1.45 5.98 1.46 2.58 3.97 4 2.52 1.43 5.74 1.43 4.84 0 7.94-3.16l2.42 2.48q-1.86 2.05-4.5 3.19t-5.86 1.15m29.41 0q-4.41 0-7.82-1.92-3.41-1.93-5.33-5.31-1.93-3.38-1.93-7.84v-.81q0-4.41 1.96-7.79 1.95-3.38 5.33-5.3t7.79-1.92q3.22 0 5.83 1.14 2.6 1.15 4.47 3.2l-2.49 2.48q-3.04-3.16-7.87-3.16-3.23 0-5.74 1.42-2.52 1.43-3.94 4.01-1.43 2.57-1.43 5.92v.81q0 3.41 1.46 5.98t3.97 4 5.74 1.43q4.84 0 7.94-3.16l2.42 2.48q-1.86 2.05-4.5 3.19t-5.86 1.15m19.48-.62v-26.18h-5.96v-3.47h9.86v29.65zm-.25-36.48v-6.7h4.4v6.7zm26.49 37.1q-4.22 0-7.51-1.95-3.29-1.96-5.15-5.4t-1.86-7.97v-.56q0-4.41 1.86-7.79t5.15-5.3 7.51-1.92q4.15 0 7.44 1.92t5.15 5.27 1.86 7.7v.68q0 4.53-1.86 7.97t-5.15 5.4-7.44 1.95m0-3.54q3.1 0 5.46-1.52t3.69-4.15 1.33-6.11v-.68q0-3.35-1.33-5.9-1.34-2.54-3.69-4-2.36-1.46-5.46-1.46t-5.49 1.49-3.76 4.07-1.36 5.92v.56q0 3.47 1.36 6.11 1.37 2.63 3.76 4.15t5.49 1.52m-2.05-32.19 5.33-8.87h4.84l-6.08 8.87zm24.26 35.11v-29.65h3.78v5.27q1.18-2.23 2.95-3.5 1.76-1.28 3.69-1.83 1.92-.56 3.6-.56 5.02 0 8.18 3.19 3.17 3.2 3.17 9.77v17.31h-3.97v-16.81q0-5.21-2.36-7.51t-5.96-2.29q-2.48 0-4.55 1.11-2.08 1.12-3.32 3.29t-1.24 5.46v16.75zm61.41.62q-4.09 0-7.23-1.92-3.13-1.93-4.9-5.4t-1.77-8v-.56q0-4.41 1.8-7.79t4.94-5.3q3.13-1.92 7.16-1.92 3.6 0 6.42 1.7 2.82 1.71 4.5 4.62v-21.34h3.97v45.29h-3.6v-6.08q-1.74 3.1-4.65 4.9t-6.64 1.8m.5-3.54q3.04 0 5.46-1.48 2.41-1.49 3.81-4.16t1.4-6.27q0-3.53-1.4-6.2t-3.81-4.19q-2.42-1.52-5.46-1.52t-5.4 1.46-3.69 4.03q-1.34 2.58-1.34 5.99v.56q0 3.53 1.34 6.2 1.33 2.67 3.69 4.13 2.36 1.45 5.4 1.45m36.91 3.54q-4.35 0-7.7-1.95-3.34-1.96-5.21-5.4-1.86-3.44-1.86-7.97v-.62q0-4.35 1.74-7.69t4.81-5.31q3.07-1.95 7.16-1.95 4.16 0 7.14 2.04t4.37 5.77.84 8.69h-22.15q.13 3.04 1.52 5.49t3.82 3.84 5.64 1.4q4.9 0 7.69-2.42l2.24 2.54q-1.68 1.68-4.31 2.61-2.64.93-5.74.93m-1.06-27.42q-4.09 0-6.67 2.67-2.57 2.67-3.07 7.07h18.37q.06-4.47-2.33-7.1-2.39-2.64-6.3-2.64m47.77 27.42q-4.4 0-7.82-1.92-3.41-1.93-5.33-5.31t-1.92-7.84v-.81q0-4.41 1.95-7.79t5.33-5.3 7.79-1.92q3.23 0 5.83 1.14 2.61 1.15 4.47 3.2l-2.48 2.48q-3.04-3.16-7.88-3.16-3.23 0-5.74 1.42-2.51 1.43-3.94 4.01-1.43 2.57-1.43 5.92v.81q0 3.41 1.46 5.98t3.97 4 5.74 1.43q4.84 0 7.94-3.16l2.42 2.48q-1.86 2.05-4.5 3.19t-5.86 1.15m19.48-.62v-26.18h-5.96v-3.47h9.87v29.65zm-.25-36.48v-6.7h4.4v6.7zm27.05 37.1q-4.41 0-7.82-1.92-3.41-1.93-5.33-5.31-1.93-3.38-1.93-7.84v-.81q0-4.41 1.96-7.79 1.95-3.38 5.33-5.3t7.79-1.92q3.22 0 5.83 1.14 2.6 1.15 4.47 3.2l-2.49 2.48q-3.04-3.16-7.87-3.16-3.23 0-5.74 1.42-2.51 1.43-3.94 4.01-1.43 2.57-1.43 5.92v.81q0 3.41 1.46 5.98t3.97 4 5.74 1.43q4.84 0 7.94-3.16l2.42 2.48q-1.86 2.05-4.5 3.19t-5.86 1.15m24.75-.62q-3.41 0-5.49-1.99-2.08-1.98-2.08-5.27v-34.61h-5.71v-3.42h9.68v38.09q0 1.62 1.09 2.7 1.08 1.09 2.7 1.09h2.66v3.41zm20.53.62q-4.22 0-7.5-1.95-3.29-1.96-5.15-5.4t-1.86-7.97v-.56q0-4.41 1.86-7.79t5.15-5.3 7.5-1.92q4.16 0 7.45 1.92t5.15 5.27 1.86 7.7v.68q0 4.53-1.86 7.97t-5.15 5.4-7.45 1.95m0-3.54q3.11 0 5.46-1.52t3.69-4.15 1.34-6.11v-.68q0-3.35-1.34-5.9-1.33-2.54-3.69-4t-5.46-1.46-5.49 1.49-3.75 4.07-1.36 5.92v.56q0 3.47 1.36 6.11 1.36 2.63 3.75 4.15t5.49 1.52m50.07 3.54q-4.41 0-7.82-1.92-3.41-1.93-5.34-5.31t-1.92-7.84v-.81q0-4.41 1.96-7.79 1.95-3.38 5.33-5.3t7.79-1.92q3.22 0 5.83 1.14 2.6 1.15 4.46 3.2l-2.48 2.48q-3.04-3.16-7.88-3.16-3.22 0-5.73 1.42-2.52 1.43-3.94 4.01-1.43 2.57-1.43 5.92v.81q0 3.41 1.46 5.98 1.45 2.58 3.97 4 2.51 1.43 5.74 1.43 4.83 0 7.94-3.16l2.42 2.48q-1.87 2.05-4.5 3.19-2.64 1.15-5.86 1.15m28.84 0q-4.22 0-7.5-1.95-3.29-1.96-5.15-5.4t-1.86-7.97v-.56q0-4.41 1.86-7.79t5.15-5.3 7.5-1.92q4.16 0 7.45 1.92 3.28 1.92 5.14 5.27 1.87 3.35 1.87 7.7v.68q0 4.53-1.87 7.97-1.86 3.44-5.14 5.4-3.29 1.95-7.45 1.95m0-3.54q3.1 0 5.46-1.52t3.69-4.15 1.34-6.11v-.68q0-3.35-1.34-5.9-1.33-2.54-3.69-4t-5.46-1.46-5.49 1.49-3.75 4.07-1.37 5.92v.56q0 3.47 1.37 6.11 1.36 2.63 3.75 4.15t5.49 1.52m22.21 2.92v-29.65h3.78v5.21q1.68-3.29 4.41-4.56t5.4-1.27q3.41 0 5.92 1.55t3.69 4.84q1.24-2.42 3.01-3.82 1.77-1.39 3.72-1.98t3.76-.59q4.83 0 7.84 3.13t3.01 9.71v17.43h-3.84v-17q0-5.08-2.18-7.35-2.17-2.26-5.7-2.26-3.6 0-6.08 2.45t-2.48 7.1v17.06h-3.91v-17q0-5.08-2.14-7.35t-5.68-2.26q-3.66 0-6.14 2.45t-2.48 7.1v17.06zm53.91 12.41v-42.06h3.72v5.95q1.74-3.04 4.62-4.81 2.89-1.76 6.55-1.76 4.03 0 7.16 1.92t4.93 5.3 1.8 7.79v.56q0 4.53-1.76 8-1.77 3.47-4.91 5.4-3.13 1.92-7.22 1.92-3.54 0-6.39-1.67-2.86-1.68-4.53-4.6v18.06zm14.39-15.33q3.04 0 5.4-1.45 2.36-1.46 3.69-4.13t1.33-6.2v-.56q0-3.41-1.33-5.99-1.33-2.57-3.69-4.03t-5.4-1.46-5.46 1.52-3.81 4.19-1.4 6.2q0 3.6 1.4 6.27 1.39 2.67 3.81 4.16 2.42 1.48 5.46 1.48m29.65 2.92q-3.41 0-5.49-1.99-2.07-1.98-2.07-5.27v-34.61h-5.71v-3.42h9.68v38.09q0 1.62 1.08 2.7 1.09 1.09 2.7 1.09h2.67v3.41zm20.79.62q-4.35 0-7.7-1.95-3.35-1.96-5.21-5.4t-1.86-7.97v-.62q0-4.35 1.74-7.69 1.73-3.35 4.81-5.31t7.16-1.95q4.16 0 7.13 2.04 2.98 2.05 4.38 5.77 1.39 3.73.84 8.69h-22.15q.12 3.04 1.52 5.49 1.39 2.45 3.81 3.84 2.42 1.4 5.65 1.4 4.9 0 7.69-2.42l2.24 2.54q-1.68 1.68-4.32 2.61-2.63.93-5.73.93m-1.06-27.42q-4.09 0-6.67 2.67-2.57 2.67-3.07 7.07h18.36q.07-4.47-2.32-7.1-2.39-2.64-6.3-2.64m29.16 26.8q-1.99 0-3.72-.81-1.74-.8-2.86-2.45-1.12-1.64-1.12-4.25v-18.67h-5.52v-3.47h5.52v-7.38h3.91v7.38h8.25v3.47h-8.25v18.92q0 1.68 1.12 2.76 1.12 1.09 2.73 1.09h4.4v3.41zm22.83.62q-4.22 0-7.51-1.95-3.29-1.96-5.15-5.4t-1.86-7.97v-.56q0-4.41 1.86-7.79t5.15-5.3 7.51-1.92q4.15 0 7.44 1.92t5.15 5.27 1.86 7.7v.68q0 4.53-1.86 7.97t-5.15 5.4-7.44 1.95m0-3.54q3.1 0 5.46-1.52t3.69-4.15 1.33-6.11v-.68q0-3.35-1.33-5.9-1.34-2.54-3.69-4-2.36-1.46-5.46-1.46t-5.49 1.49-3.76 4.07q-1.36 2.57-1.36 5.92v.56q0 3.47 1.36 6.11 1.37 2.63 3.76 4.15t5.49 1.52m37.03 15.33v-42.06h3.72v5.95q1.74-3.04 4.62-4.81 2.89-1.76 6.55-1.76 4.03 0 7.16 1.92 3.14 1.92 4.94 5.3t1.8 7.79v.56q0 4.53-1.77 8t-4.9 5.4-7.23 1.92q-3.54 0-6.39-1.67-2.85-1.68-4.53-4.6v18.06zm14.39-15.33q3.04 0 5.4-1.45 2.36-1.46 3.69-4.13t1.33-6.2v-.56q0-3.41-1.33-5.99-1.33-2.57-3.69-4.03t-5.4-1.46-5.46 1.52-3.81 4.19q-1.4 2.67-1.4 6.2 0 3.6 1.4 6.27 1.39 2.67 3.81 4.16 2.42 1.48 5.46 1.48m31.02 3.54q-5.15 0-8.19-2.42t-3.04-6.33q0-2.6 1.49-4.59t4.13-3.13 6.04-1.15q2.73 0 4.81.65 2.08.66 3.51 1.83v-4.59q0-4.03-2.05-5.8t-5.52-1.77q-2.48 0-5.06.9t-4.31 2.89l-1.92-2.79q1.98-2.3 5.09-3.45 3.1-1.14 6.39-1.14 5.08 0 8.18 2.73 3.11 2.73 3.11 8.25v9.43q0 4.96.18 9.86h-3.53l-.07-3.23q-2.66 3.85-9.24 3.85m.93-3.04q3.79 0 5.8-1.61 2.02-1.62 2.02-4.1 0-2.54-2.05-4.09t-5.83-1.55q-3.72 0-5.89 1.55-2.18 1.55-2.18 4.09 0 2.48 2.18 4.1 2.17 1.61 5.95 1.61m21.22 2.42v-29.65h3.84v4.84q1.12-2.86 3.32-3.88t5-1.02h2.54v3.9h-2.85q-3.66 0-5.77 1.9-2.11 1.89-2.11 5.92v17.99zm28.29.62q-5.15 0-8.19-2.42t-3.04-6.33q0-2.6 1.49-4.59 1.48-1.98 4.12-3.13t6.05-1.15q2.73 0 4.81.65 2.08.66 3.5 1.83v-4.59q0-4.03-2.05-5.8t-5.52-1.77q-2.48 0-5.05.9-2.58.9-4.31 2.89l-1.93-2.79q1.99-2.3 5.09-3.45 3.1-1.14 6.39-1.14 5.09 0 8.19 2.73t3.1 8.25v9.43q0 4.96.19 9.86h-3.54l-.06-3.23q-2.67 3.85-9.24 3.85m.93-3.04q3.78 0 5.8-1.61 2.01-1.62 2.01-4.1 0-2.54-2.05-4.09t-5.83-1.55q-3.72 0-5.89 1.55t-2.17 4.09q0 2.48 2.17 4.1t5.96 1.61m49.07 3.04q-4.41 0-7.82-1.92-3.41-1.93-5.34-5.31t-1.92-7.84v-.81q0-4.41 1.95-7.79 1.96-3.38 5.34-5.3t7.79-1.92q3.22 0 5.83 1.14 2.6 1.15 4.46 3.2l-2.48 2.48q-3.04-3.16-7.88-3.16-3.22 0-5.74 1.42-2.51 1.43-3.93 4.01-1.43 2.57-1.43 5.92v.81q0 3.41 1.46 5.98 1.45 2.58 3.97 4 2.51 1.43 5.74 1.43 4.83 0 7.94-3.16l2.42 2.48q-1.87 2.05-4.5 3.19-2.64 1.15-5.86 1.15m26.11 0q-5.15 0-8.19-2.42t-3.04-6.33q0-2.6 1.49-4.59t4.13-3.13 6.05-1.15q2.73 0 4.8.65 2.08.66 3.51 1.83v-4.59q0-4.03-2.05-5.8t-5.52-1.77q-2.48 0-5.06.9t-4.31 2.89l-1.92-2.79q1.99-2.3 5.09-3.45 3.1-1.14 6.39-1.14 5.08 0 8.19 2.73t3.1 8.25v9.43q0 4.96.18 9.86h-3.53l-.06-3.23q-2.67 3.85-9.25 3.85m.93-3.04q3.79 0 5.8-1.61 2.02-1.62 2.02-4.1 0-2.54-2.05-4.09t-5.83-1.55q-3.72 0-5.89 1.55t-2.17 4.09q0 2.48 2.17 4.1t5.95 1.61m21.22 2.42v-29.65h3.84v4.84q1.12-2.86 3.32-3.88 2.21-1.02 5-1.02h2.54v3.9h-2.85q-3.66 0-5.77 1.9-2.11 1.89-2.11 5.92v17.99zm16.62 12.41v-3.35h17.56q2.42 0 3.81-1.21t1.4-3.32q0-1.99-1.4-3.1-1.39-1.12-3.81-1.12h-9.43q-2.29 0-3.47-1.09-1.18-1.08-1.31-2.69-.12-1.62.69-3.17l2.04-4.09q-2.29-1.37-3.63-3.63-1.33-2.27-1.33-5.06v-.56q0-3.03 1.58-5.36t4.41-3.63 6.48-1.3q.93 0 1.74.06l3.16-6.45h3.97l-3.78 7.13q3.35 1.12 5.36 3.6t2.02 5.77v.74q0 3.1-1.58 5.49-1.59 2.39-4.41 3.76t-6.48 1.36q-2.3 0-4.34-.56l-1.62 3.1q-.31.69-.4 1.46-.09.78.4 1.34.5.55 1.74.55h8.69q3.78 0 6.11 1.93 2.32 1.92 2.32 5.52 0 3.53-2.35 5.71-2.36 2.17-6.27 2.17zm13.59-24.38q1.98 0 3.97-.72 1.98-.71 3.32-2.38 1.33-1.68 1.33-4.72 0-3.22-2.42-5.21t-6.2-1.99-6.2 1.99-2.42 5.21q0 2.98 1.36 4.68 1.37 1.71 3.38 2.42 2.02.72 3.88.72m28.66 12.59q-5.15 0-8.19-2.42t-3.04-6.33q0-2.6 1.49-4.59t4.13-3.13 6.04-1.15q2.73 0 4.81.65 2.08.66 3.51 1.83v-4.59q0-4.03-2.05-5.8t-5.52-1.77q-2.48 0-5.06.9t-4.31 2.89l-1.92-2.79q1.98-2.3 5.08-3.45 3.11-1.14 6.39-1.14 5.09 0 8.19 2.73t3.1 8.25v9.43q0 4.96.19 9.86h-3.54l-.06-3.23q-2.66 3.85-9.24 3.85m.93-3.04q3.78 0 5.8-1.61 2.02-1.62 2.02-4.1 0-2.54-2.05-4.09t-5.83-1.55q-3.72 0-5.9 1.55-2.17 1.55-2.17 4.09 0 2.48 2.17 4.1 2.18 1.61 5.96 1.61m29.09 2.98q-3.1 0-5.95-.99-2.85-1-4.59-2.67l1.8-2.73q1.61 1.49 3.97 2.36t4.77.86q3.04 0 4.97-1.42 1.92-1.43 1.92-3.79 0-1.92-1.18-2.97t-3.07-1.62-3.97-1.08q-2.08-.53-3.94-1.37-1.86-.83-3.04-2.39-1.18-1.55-1.18-4.34 0-3.84 2.86-6.26t7.63-2.42q2.73 0 5.12.83 2.38.84 4.18 2.21l-1.8 2.79q-1.55-1.24-3.47-1.92-1.92-.69-4.09-.69-2.98 0-4.81 1.43t-1.83 3.72q0 1.92 1.18 2.95 1.17 1.02 3.07 1.61 1.89.59 4 1.12t4 1.39 3.07 2.49q1.18 1.61 1.18 4.4 0 3.72-3.01 6.11t-7.79 2.39M724.48 750.23q-4.41 0-7.82-1.92-3.41-1.93-5.33-5.31-1.93-3.38-1.93-7.84v-.81q0-4.41 1.96-7.79 1.95-3.38 5.33-5.3t7.79-1.92q3.22 0 5.83 1.14 2.6 1.15 4.47 3.2l-2.49 2.48q-3.04-3.16-7.87-3.16-3.23 0-5.74 1.42-2.51 1.43-3.94 4.01-1.43 2.57-1.43 5.92v.81q0 3.41 1.46 5.98t3.97 4 5.74 1.43q4.84 0 7.94-3.16l2.42 2.48q-1.86 2.05-4.5 3.19t-5.86 1.15m24.75-.62q-3.41 0-5.49-1.99-2.08-1.98-2.08-5.27v-34.61h-5.71v-3.42h9.68v38.09q0 1.62 1.09 2.7 1.08 1.09 2.7 1.09h2.66v3.41zm20.53.62q-4.21 0-7.5-1.95-3.29-1.96-5.15-5.4t-1.86-7.97v-.56q0-4.41 1.86-7.79t5.15-5.3 7.5-1.92q4.16 0 7.45 1.92t5.15 5.27 1.86 7.7v.68q0 4.53-1.86 7.97t-5.15 5.4-7.45 1.95m0-3.54q3.11 0 5.46-1.52t3.69-4.15 1.34-6.11v-.68q0-3.35-1.34-5.9-1.33-2.54-3.69-4t-5.46-1.46-5.49 1.49-3.75 4.07-1.36 5.92v.56q0 3.47 1.36 6.11 1.37 2.63 3.75 4.15 2.39 1.52 5.49 1.52m33.25 3.54q-3.28 0-5.89-1.27t-4.09-3.97-1.49-7.1v-17.93h3.91v17.31q0 5.21 2.35 7.25t5.9 2.05q2.42 0 4.46-1.09 2.05-1.08 3.32-3.22t1.27-5.43v-16.87h3.85v29.65H813v-4.9q-1.8 3.1-4.65 4.31t-5.34 1.21m35.24 0q-4.09 0-7.23-1.92-3.13-1.93-4.9-5.4t-1.77-8v-.56q0-4.41 1.8-7.79t4.94-5.3 7.16-1.92q3.6 0 6.42 1.7 2.82 1.71 4.5 4.62v-21.34h3.97v45.29h-3.6v-6.08q-1.74 3.1-4.65 4.9t-6.64 1.8m.5-3.54q3.04 0 5.46-1.48 2.42-1.49 3.81-4.16t1.4-6.27q0-3.53-1.4-6.2-1.39-2.67-3.81-4.19t-5.46-1.52-5.4 1.46-3.69 4.03-1.34 5.99v.56q0 3.53 1.34 6.2 1.33 2.67 3.69 4.13 2.36 1.45 5.4 1.45m39.02 2.92v-29.65h3.78v5.27q1.18-2.23 2.95-3.5 1.77-1.28 3.69-1.83 1.92-.56 3.6-.56 5.02 0 8.19 3.19 3.16 3.2 3.16 9.77v17.31h-3.97V732.8q0-5.21-2.36-7.51t-5.95-2.29q-2.49 0-4.56 1.11-2.08 1.12-3.32 3.29t-1.24 5.46v16.75zm43.61.62q-5.15 0-8.19-2.42t-3.04-6.33q0-2.6 1.49-4.59t4.12-3.13 6.05-1.15q2.73 0 4.81.65 2.08.66 3.5 1.83v-4.59q0-4.03-2.04-5.8t-5.52-1.77q-2.49 0-5.06.9t-4.31 2.89l-1.92-2.79q1.98-2.3 5.08-3.45 3.1-1.14 6.39-1.14 5.09 0 8.19 2.73t3.1 8.25v9.43q0 4.96.19 9.86h-3.54l-.06-3.23q-2.67 3.85-9.24 3.85m.93-3.04q3.78 0 5.8-1.61 2.01-1.62 2.01-4.1 0-2.54-2.04-4.09t-5.83-1.55q-3.73 0-5.9 1.55t-2.17 4.09q0 2.48 2.17 4.1t5.96 1.61m30.33 2.42q-1.98 0-3.72-.81-1.74-.8-2.85-2.45-1.12-1.64-1.12-4.25v-18.67h-5.52v-3.47h5.52v-7.38h3.91v7.38h8.25v3.47h-8.25v18.92q0 1.68 1.12 2.76 1.11 1.09 2.72 1.09h4.41v3.41zm13.59 0v-26.18h-5.96v-3.47h9.87v29.65zm-.25-36.48v-6.7h4.4v6.7zm21.96 36.48-11.97-29.65h4.09l9.99 24.94 9.93-24.94h4.09l-11.91 29.65zm34.18.62q-4.34 0-7.69-1.95-3.35-1.96-5.21-5.4t-1.86-7.97v-.62q0-4.35 1.73-7.69 1.74-3.35 4.81-5.31t7.17-1.95q4.15 0 7.13 2.04t4.37 5.77.84 8.69h-22.14q.12 3.04 1.52 5.49 1.39 2.45 3.81 3.84 2.42 1.4 5.65 1.4 4.9 0 7.69-2.42l2.23 2.54q-1.67 1.68-4.31 2.61t-5.74.93m-1.05-27.42q-4.1 0-6.67 2.67t-3.07 7.07h18.36q.06-4.47-2.33-7.1-2.38-2.64-6.29-2.64m18.98 26.8v-5.71h4.78v5.71z"/><rect width="360.73" height="108.36" x="708.05" y="824.39" fill="none" stroke="#0c322c" stroke-width="3" rx="54.18" ry="54.18"/><path fill="#0c322c" d="m779.01 895.05-12.32-32.93h3.29l10.72 29.03 10.73-29.03h3.34l-12.42 32.93zm27 .47q-3.29 0-5.83-1.48t-3.95-4.09-1.41-6.05v-.47q0-3.29 1.31-5.83 1.32-2.54 3.65-4.03 2.33-1.48 5.43-1.48 3.16 0 5.41 1.56 2.26 1.55 3.32 4.37t.64 6.59h-16.8q.1 2.3 1.15 4.16 1.06 1.86 2.9 2.92t4.28 1.05q3.71 0 5.83-1.83l1.69 1.93q-1.27 1.27-3.26 1.97-2 .71-4.36.71m-.8-20.79q-3.1 0-5.05 2.02-1.96 2.02-2.33 5.36h13.92q.05-3.38-1.76-5.38t-4.78-2m15.34 20.32v-22.49h2.92v3.67q.84-2.16 2.51-2.94t3.79-.77h1.93v2.96h-2.16q-2.78 0-4.38 1.43-1.6 1.44-1.6 4.5v13.64zm32.18 0q-2.59 0-4.17-1.51-1.57-1.5-1.57-3.99V863.3h-4.33v-2.59H850v28.88q0 1.23.82 2.05.83.82 2.05.82h2.02v2.59zm13.59.47q-3.9 0-6.21-1.83-2.3-1.84-2.3-4.8 0-1.98 1.13-3.48 1.13-1.51 3.13-2.38t4.58-.87q2.07 0 3.65.49 1.57.5 2.66 1.39v-3.48q0-3.06-1.56-4.4-1.55-1.34-4.18-1.34-1.88 0-3.84.68-1.95.69-3.27 2.19l-1.45-2.12q1.5-1.74 3.85-2.61t4.85-.87q3.86 0 6.21 2.07t2.35 6.26v7.15q0 3.76.14 7.48h-2.68l-.05-2.45q-2.02 2.92-7.01 2.92m.71-2.3q2.87 0 4.4-1.23 1.53-1.22 1.53-3.1 0-1.93-1.56-3.11-1.55-1.17-4.42-1.17-2.82 0-4.47 1.17-1.64 1.18-1.64 3.11 0 1.88 1.64 3.1 1.65 1.23 4.52 1.23m36.79 2.3q-3.11 0-5.48-1.46t-3.72-4.09-1.34-6.07v-.42q0-3.34 1.36-5.91 1.37-2.56 3.74-4.02t5.44-1.46q2.73 0 4.87 1.3 2.14 1.29 3.41 3.5v-16.18h3.01v34.34h-2.73v-4.61q-1.32 2.35-3.53 3.72-2.21 1.36-5.03 1.36m.37-2.68q2.31 0 4.14-1.13 1.84-1.13 2.9-3.15t1.05-4.75q0-2.68-1.05-4.71-1.06-2.02-2.9-3.17-1.83-1.16-4.14-1.16t-4.09 1.11-2.8 3.06-1.01 4.54v.42q0 2.68 1.01 4.71t2.8 3.12q1.79 1.11 4.09 1.11m28.23 2.68q-3.29 0-5.83-1.48t-3.96-4.09-1.41-6.05v-.47q0-3.29 1.32-5.83t3.65-4.03 5.43-1.48q3.15 0 5.41 1.56 2.26 1.55 3.32 4.37 1.05 2.82.63 6.59h-16.79q.09 2.3 1.15 4.16t2.89 2.92 4.28 1.05q3.72 0 5.84-1.83l1.69 1.93q-1.27 1.27-3.27 1.97-2 .71-4.35.71m-.8-20.79q-3.11 0-5.06 2.02t-2.33 5.36h13.93q.05-3.38-1.77-5.38-1.81-2-4.77-2m15.34 20.32v-22.49h2.86v3.95q1.27-2.49 3.34-3.45 2.07-.97 4.1-.97 2.59 0 4.49 1.18t2.8 3.67q.94-1.84 2.28-2.89 1.34-1.06 2.82-1.51 1.49-.45 2.85-.45 3.67 0 5.95 2.38t2.28 7.36v13.22h-2.91v-12.89q0-3.86-1.65-5.57t-4.33-1.72q-2.73 0-4.61 1.86-1.88 1.85-1.88 5.38v12.94h-2.96v-12.89q0-3.86-1.63-5.57t-4.3-1.72q-2.78 0-4.66 1.86-1.88 1.85-1.88 5.38v12.94zm50.57.47q-3.2 0-5.7-1.48t-3.9-4.09-1.41-6.05v-.42q0-3.34 1.41-5.91 1.41-2.56 3.9-4.02t5.7-1.46q3.15 0 5.64 1.46 2.5 1.46 3.91 4t1.41 5.83v.52q0 3.43-1.41 6.05t-3.91 4.09-5.64 1.48m0-2.68q2.35 0 4.14-1.15 1.78-1.16 2.8-3.16 1.01-1.99 1.01-4.63v-.52q0-2.54-1.01-4.47-1.02-1.92-2.8-3.03-1.79-1.11-4.14-1.11-2.36 0-4.17 1.13t-2.84 3.08-1.04 4.5v.42q0 2.64 1.04 4.63 1.03 2 2.84 3.16 1.81 1.15 4.17 1.15"/><svg xmlns="http://www.w3.org/2000/svg" xmlns:c2pa="http://c2pa.org/manifest" width="497.58" height="108" x="1326.42" y="96" viewBox="0 0 210.6 38.09"><path fill="#0c322c" d="M208.46 27.03h-13.55a1.9 1.9 0 0 1-1.9-1.9v-6.85h13.09a2.04 2.04 0 1 0 0-4.07H193V7.47c0-1.04.85-1.9 1.9-1.9h13.55a2.14 2.14 0 1 0 0-4.27H194.9a6.2 6.2 0 0 0-6.17 6.17v17.66a6.2 6.2 0 0 0 6.17 6.17h13.55a2.14 2.14 0 1 0 0-4.27M168.6 14.27q-4.3-.78-5.97-1.84-1.68-1.06-1.68-2.87 0-1.94 1.72-3.19 1.72-1.24 4.85-1.24 3.16 0 5.06 1.22 1.03.66 1.87 1.75A2.32 2.32 0 1 0 178 5.14a12 12 0 0 0-3.5-2.73q-2.92-1.5-7.04-1.5-3.53 0-6.18 1.23-2.65 1.22-4.05 3.3a8 8 0 0 0-1.4 4.62q0 2.4 1.1 4.07 1.12 1.68 3.56 2.8 2.44 1.14 6.56 1.9 4.12.78 5.77 1.77 1.66 1 1.65 2.62 0 2.05-1.83 3.15-1.83 1.11-5.04 1.11-3.4 0-5.68-1.27a9 9 0 0 1-2.34-1.92 2.3 2.3 0 0 0-3.37-.09v.01a2.3 2.3 0 0 0-.12 3.16q3.87 4.32 11.55 4.32 3.53 0 6.22-1.07 2.7-1.06 4.19-3.05t1.5-4.62q0-2.44-1.1-4.09-1.08-1.65-3.46-2.76t-6.4-1.83m-66.83 0q-4.3-.77-5.97-1.83-1.68-1.06-1.68-2.87 0-1.95 1.72-3.2t4.84-1.24q3.17 0 5.07 1.23 1.03.66 1.87 1.75a2.32 2.32 0 1 0 3.56-2.96 12 12 0 0 0-3.5-2.73q-2.92-1.5-7.04-1.5-3.53 0-6.18 1.23-2.65 1.22-4.05 3.3a8 8 0 0 0-1.4 4.62q0 2.4 1.1 4.07 1.12 1.68 3.56 2.8 2.44 1.14 6.56 1.9 4.12.78 5.77 1.77 1.65 1 1.65 2.63 0 2.03-1.83 3.14t-5.05 1.11q-3.4 0-5.68-1.27a9 9 0 0 1-2.33-1.92 2.3 2.3 0 0 0-3.37-.09v.01a2.3 2.3 0 0 0-.12 3.16q3.87 4.32 11.55 4.32 3.53 0 6.22-1.07t4.19-3.05 1.5-4.62q0-2.44-1.1-4.1t-3.46-2.75-6.4-1.83m44.57-10.92v16.43q0 5.88-3.12 8.89t-9.1 3.01-9.1-3.01q-3.11-3.01-3.11-8.9V3.37a2.44 2.44 0 0 1 4.88 0V19.2q0 4.25 1.8 6.27t5.54 2.01 5.54-2.01 1.79-6.27V3.36a2.44 2.44 0 0 1 4.88 0"/><path fill="#30ba78" d="M71.4 13.46a1.2 1.2 0 0 1-1.35 0 1.23 1.23 0 0 1-.19-1.9 1.2 1.2 0 0 1 1.74 0c.54.54.47 1.46-.2 1.9m1.94-2.69a4.55 4.55 0 0 1-5.46 5.47 4.6 4.6 0 0 1-3.4-3.4 4.55 4.55 0 0 1 5.47-5.45 4.6 4.6 0 0 1 3.4 3.39M51.22 28.44q.59.8.86 1.58c.13.37.29.85.65 1.05l.06.03c.67.24 2.4.2 2.4.2h3.16c.27 0 2.66 0 2.6-.27-.3-1.27-1.76-1.5-2.88-2.17-1.04-.61-2.02-1.31-2.46-2.51-.23-.62-.1-2.05.3-2.57a2 2 0 0 1 1.18-.73c.52-.1 1.05-.01 1.56.04.63.06 1.25.18 1.88.25q1.81.23 3.65.2a20 20 0 0 0 5.95-1.04 14 14 0 0 0 3.79-1.9c1.29-.95.95-.86-.36-.73q-2.35.23-4.71.1a10 10 0 0 1-4.24-.95 10 10 0 0 1-2.77-1.91.6.6 0 0 1 .03-.73c.22-.23.68-.1.82.03 1.45 1.2 3.6 2.2 5.83 2.3q1.79.11 3.59.04c.6-.03 1.51-.03 2.12-.03.3-.01 1.16.08 1.32-.25q.06-.14.04-.32C75.42 13.33 75.06 7.9 70 5.58c-3.76-1.72-9.41-4.4-11.8-5.5a.85.85 0 0 0-1.2.77c0 1.61.08 3.93.08 6.04-1.14-1.17-3.07-1.9-4.53-2.58a43 43 0 0 0-5.14-1.96A55 55 0 0 0 36.6.23a42 42 0 0 0-12.5.63 38.6 38.6 0 0 0-18.4 9.38C2.6 13.15.19 17.3.02 21.5c-.23 5.94 1.43 9.13 4.5 12.42 4.87 5.24 15.38 5.98 19.63-.24 1.91-2.8 2.33-6.6.94-9.69a9.3 9.3 0 0 0-7.97-5.43c-2.62-.1-5.42 1.25-6.43 3.67a5.3 5.3 0 0 0 1.07 5.6c.54.55 1.28 1.01 2.09.83.47-.1.87-.46.94-.94.1-.71-.51-1.17-.9-1.72a2.64 2.64 0 0 1 .32-3.3c.73-.7 1.8-.92 2.82-.91.95 0 1.92.17 2.73.64a4.8 4.8 0 0 1 2.17 3.22c.8 3.9-2.38 7.07-6.68 7.32a9 9 0 0 1-6.16-1.83c-4.35-3.5-5.42-10.65-.45-14.47 4.72-3.62 10.68-2.69 14.2-.8 2.81 1.5 4.9 3.97 6.5 6.7a39 39 0 0 1 2.1 4.25c.6 1.4 1.17 2.81 2.39 3.84.8.68 1.8.65 2.84.65h6c.82 0 .63-.54.27-.9-.8-.82-1.94-1-3-1.3-2.42-.66-2.17-3.86-1.5-3.86 2.16 0 2.23.06 4.13.04 2.73-.04 3.56-.2 5.7.6a7 7 0 0 1 2.96 2.56"/></svg><path fill="rgba(255,255,255,0.85)" d="M1695.95 1050H1912v22h-216.05z"/><path fill="none" stroke="#c0392b" d="M1696.45 1050.5h215.05v21h-215.05z"/><text x="1704.95" y="1055" fill="#c0392b" dominant-baseline="text-before-edge" font-family="monospace" font-size="10" font-weight="700">EXPERIMENTAL — NOT BRAND APPROVED</text></svg>