<svg xmlns="http://www.w3.org/2000/svg" width="1920" height="1080" viewBox="0 0 1920 1080"><path fill="#fff" d="M0 0h1920v1080H0z"/><path fill="#30ba78" d="M0 0h687.36v1080H0z"/><path fill="#0c322c" d="M68.06 458.3v-6.93h118.55l-47.77-47.76h10.21l51.06 51.57-51.06 50.71h-9.69l47.94-47.59zM76.54 685V558.66h7.61v60.4q3.12-6.75 8.22-10.64t10.73-5.63 10.65-1.73q13.84 0 22.67 8.83t8.83 27.34V685h-7.96v-46.73q0-15.92-7.19-22.84-7.18-6.93-17.91-6.93-7.44 0-13.76 3.38t-10.12 9.95-3.81 16.27V685zm126.86 1.73q-12.12 0-21.29-5.45t-14.36-15.06-5.2-22.06v-1.73q0-12.12 4.76-21.38t13.24-14.62 19.73-5.37q11.08 0 19.13 5.63t11.94 15.57 2.51 23.11h-63.35q.18 9.86 4.42 17.48 4.24 7.61 11.59 12.03 7.36 4.41 17.05 4.41 6.58 0 12.37-1.82 5.8-1.82 9.78-5.28l4.68 5.37q-4.68 4.32-11.77 6.75t-15.23 2.42m-3.12-78.4q-12.63 0-20.59 8.39t-9 21.9h55.55q.35-13.85-6.92-22.07t-19.04-8.22m75.81 78.4q-14.2 0-22.68-6.58t-8.48-17.48q0-10.38 8.74-17.13t23.11-6.75q8.48 0 14.71 2.25t9.86 6.06v-15.58q0-12.11-5.97-17.56-5.97-5.46-16.52-5.46-7.1 0-14.37 2.51t-12.29 8.4l-4.15-5.71q5.71-6.58 14.1-9.61t16.88-3.03q13.84 0 22.06 7.44 8.23 7.45 8.23 22.85v25.96q0 13.84.51 27.69h-7.26l-.18-9.86q-3.29 5.53-9.95 8.56t-16.35 3.03m1.73-6.4q11.42 0 17.56-4.94 6.15-4.93 6.15-12.54 0-7.79-6.15-12.64-6.14-4.84-17.74-4.84-11.42 0-18 4.84t-6.57 12.46 6.57 12.64q6.58 5.02 18.18 5.02m87.57 6.4q-11.42 0-20.08-5.36t-13.5-14.97-4.84-22.24v-1.56q0-12.12 4.93-21.55t13.59-14.71 19.9-5.28q10.9 0 19.21 5.45t12.98 14.8v-62.65h7.96V685h-7.44v-19.21q-4.67 9.69-13.15 15.32-8.48 5.62-19.56 5.62m.69-7.27q9.35 0 16.44-4.5t11.25-12.46 4.16-18.52-4.16-18.52q-4.15-7.96-11.25-12.46t-16.44-4.5q-9.17 0-16.18 4.33t-10.99 12.03-3.98 17.74v1.56q0 10.38 3.98 18.34t10.99 12.46 16.18 4.5M436 685v-74.94h-17.13v-7.27h25.09V685zm-.52-101.94v-17.48h9v17.48zM468.71 685v-82.21h7.62v16.27q3.11-6.75 8.22-10.64 5.1-3.9 10.73-5.63 5.62-1.73 10.64-1.73 13.85 0 22.67 8.83t8.83 27.34V685h-7.96v-46.73q0-15.92-7.18-22.84-7.19-6.93-17.92-6.93-7.44 0-13.75 3.38-6.32 3.37-10.13 9.95t-3.81 16.27V685zm81.86 34.61v-6.92h48.29q7.62 0 12.11-3.89 4.5-3.9 4.5-10.65 0-6.05-4.5-9.6T598.86 685h-25.09q-6.58 0-9.7-2.94t-3.37-7.18 1.82-8.4l5.88-11.59q-6.58-3.81-10.3-10.04t-3.72-14.19v-1.39q0-8.31 4.33-14.62 4.32-6.32 12.03-9.95 7.7-3.64 17.74-3.64 2.94 0 5.71.35l9.34-18.69h7.96l-10.55 20.07q9.69 2.77 15.57 9.69t5.89 16.27v1.91q0 8.65-4.33 15.23t-12.03 10.29q-7.7 3.72-17.56 3.72-7.27 0-13.5-2.07l-4.85 9.52q-1.21 2.07-1.47 4.67t1.3 4.41 5.88 1.82h23.89q10.55 0 16.96 5.19t6.4 14.89q0 9.52-6.4 15.4t-17.31 5.88zm37.91-66.45q5.88 0 11.85-2.08t10.13-7.18 4.15-14.28q0-9.69-7.36-15.66-7.35-5.98-18.77-5.98-11.77 0-19.04 5.89t-7.27 15.75q0 9 4.24 14.19t10.3 7.27 11.77 2.08M806.13 344.1q-6.46 0-11.3-2.31t-8.15-6.33l4.71-4.71q6.28 6.98 15 6.98 6.11 0 9.64-3.06 3.54-3.05 3.54-7.93 0-3.49-1.71-5.63-1.7-2.14-4.49-3.4-2.79-1.27-6.19-2.23t-6.76-2.05-6.2-2.83-4.54-4.58-1.7-7.38q0-5.4 2.53-9.37t7.11-6.15q4.58-2.19 10.69-2.19 5.5 0 9.86 1.84 4.36 1.83 7.24 4.97l-4.8 4.8q-2.53-2.62-5.54-3.93t-6.76-1.31q-5.84 0-9.38 2.93-3.53 2.92-3.53 7.72 0 3.31 1.7 5.27 1.7 1.97 4.54 3.15 2.83 1.17 6.23 2.05t6.81 1.96 6.24 2.83 4.58 4.76 1.74 7.72q0 5.67-2.66 9.77t-7.46 6.37-10.99 2.27m46.06-.18q-6.98 0-11.6-4.14-4.62-4.15-4.62-13.13v-25.56h7.06v24.34q0 6.71 3.01 9.38 3.01 2.66 7.55 2.66 4.71 0 8.16-3.14 3.44-3.14 3.44-9.51v-23.73h6.98v41.96h-6.28v-6.28q-2.62 4.1-6.5 5.63-3.88 1.52-7.2 1.52m54.27 0q-4.89 0-8.81-2.22t-6.37-6.15v7.5h-6.46v-63.69h7.07v28.53q2.44-3.58 6.19-5.63t8.38-2.05q5.67 0 10.12 2.71t7.02 7.5 2.57 11.08v.79q0 6.45-2.53 11.34t-6.98 7.59-10.2 2.7m-1.05-6.28q3.93 0 7.02-1.87 3.1-1.88 4.89-5.37t1.79-8.11v-.79q0-6.8-3.89-10.9-3.88-4.1-9.81-4.1-4.01 0-7.15 1.92-3.14 1.91-4.98 5.45-1.83 3.53-1.83 8.24t1.83 8.2 4.98 5.41 7.15 1.92m30.62 5.41v-63.69h6.81v28.44q2.53-4.36 6.5-5.97 3.97-1.62 7.37-1.62 7.06 0 11.47 4.58t4.41 13.57v24.69h-7.07v-23.64q0-6.72-3.01-9.73t-7.63-3.01q-4.8 0-8.29 3.27t-3.49 9.55v23.56zm66.83.87q-6.2 0-10.95-2.75t-7.42-7.63-2.66-11.25v-.88q0-6.1 2.45-10.86 2.44-4.75 6.89-7.54t10.29-2.8q6.02 0 10.3 2.97 4.27 2.97 6.32 8.33 2.05 5.37 1.18 12.7H988.9q.26 3.66 2.05 6.67t4.89 4.8 7.28 1.79q3.32 0 5.89-.79 2.57-.78 4.49-2.53l4.02 4.36q-2.45 2.62-6.24 4.02t-8.42 1.39m-1.4-37.6q-5.23 0-8.5 3.32t-3.97 8.81h23.55q-.08-5.76-3.14-8.94-3.05-3.19-7.94-3.19m39.96 37.6q-7.15 0-11.47-3.49t-4.32-9.07q0-3.66 2.18-6.54t5.98-4.58 8.5-1.7q6.89 0 10.99 2.87v-5.23q0-5.15-2.66-7.37-2.66-2.23-7.19-2.23-3.41 0-6.94 1.27-3.53 1.26-6.06 3.88l-3.32-4.97q2.79-3.23 7.33-4.89t9.33-1.66q7.42 0 11.96 3.93 4.53 3.93 4.53 11.69v13.44q0 6.98.26 13.78h-6.28l-.08-4.19q-3.93 5.06-12.74 5.06m1.83-5.32q4.8 0 7.46-2.01t2.66-5.23-2.66-5.19-7.55-1.96q-4.79 0-7.59 1.96t-2.79 5.19q0 3.14 2.84 5.19t7.63 2.05m46.15 5.32q-5.76 0-10.21-2.7-4.44-2.71-6.97-7.59t-2.53-11.34v-.79q0-6.28 2.57-11.08t7.02-7.5 10.12-2.71q4.71 0 8.42 2.05t6.15 5.63v-28.53h7.07v63.69h-6.37v-7.59q-2.53 4.01-6.46 6.24-3.92 2.22-8.81 2.22m.96-6.28q4.1 0 7.24-1.92t4.98-5.41 1.83-8.2-1.83-8.24-4.98-5.45-7.24-1.92q-5.84 0-9.73 4.1-3.88 4.1-3.88 10.9v.79q0 4.62 1.79 8.11t4.84 5.37 6.98 1.87m36.64 5.41v-35.86h-8.2v-6.1h15.18v41.96zm-.43-51.21v-10.12h7.85v10.12zm20.15 51.21v-41.96h6.8v6.71q2.53-4.36 6.5-5.97 3.97-1.62 7.38-1.62 7.06 0 11.47 4.58 4.4 4.58 4.4 13.57v24.69h-7.06v-23.64q0-6.72-3.01-9.73t-7.64-3.01q-4.8 0-8.28 3.27-3.49 3.27-3.49 9.55v23.56zm44.4 17.45v-5.93h25.04q2.97 0 4.63-1.44t1.65-4.06q0-2.44-1.65-3.8-1.66-1.35-4.63-1.35h-13.78q-3.32 0-5.02-1.57t-1.92-3.92 1.01-4.71l2.79-5.68q-3.23-2-5.06-5.19-1.83-3.18-1.83-7.11v-.78q0-4.36 2.31-7.68t6.37-5.19 9.29-1.88q.96 0 1.92.09l4.27-8.81h7.07l-5.41 10.03q4.62 1.66 7.37 5.15t2.75 8.11v.96q0 4.45-2.31 7.86-2.31 3.4-6.37 5.36t-9.29 1.96q-2.79 0-5.41-.61l-2.09 4.1q-.62 1.14-.4 2.49t2.4 1.35h12.3q5.32 0 8.64 2.75 3.31 2.75 3.31 8.16 0 4.97-3.35 8.15t-8.95 3.19zm19.2-35.07q2.53 0 5.06-.92 2.53-.91 4.27-3.14 1.75-2.22 1.75-6.06 0-4.19-3.1-6.76-3.1-2.58-7.98-2.58t-7.98 2.58-3.1 6.76q0 3.84 1.74 6.06 1.75 2.23 4.32 3.14t5.02.92M788.65 476.31V435.6h13.38q5.82 0 9.1 2.76 3.29 2.76 3.29 7.36 0 3.31-1.72 5.96-1.71 2.65-5.15 3.63 3.9.93 6.08 3.61t2.18 6.22q0 5.06-3.4 8.12t-9.97 3.05zm13.03-37.4h-9.19v14.89h9.6q4.07 0 6.25-2.15t2.18-5.53q0-3.25-2.35-5.23t-6.49-1.98m.87 18.09h-10.06v15.99h9.42q4.95 0 7.42-2.23 2.47-2.24 2.47-5.91 0-3.37-2.53-5.61t-6.72-2.24m32.51 19.89q-3.95 0-7.03-1.83T823.2 470t-1.74-7.47V462q0-4.13 1.74-7.3t4.83-4.97 7.03-1.8q3.9 0 6.98 1.8t4.83 4.94 1.75 7.22v.64q0 4.24-1.75 7.47-1.74 3.23-4.83 5.06t-6.98 1.83m0-3.31q2.91 0 5.12-1.43 2.21-1.42 3.46-3.9t1.25-5.72v-.64q0-3.14-1.25-5.53-1.25-2.38-3.46-3.75t-5.12-1.37-5.14 1.4-3.52 3.81-1.28 5.55v.53q0 3.25 1.28 5.72 1.28 2.48 3.52 3.9 2.24 1.43 5.14 1.43m31.94 3.31q-3.84 0-6.78-1.8t-4.6-5.06q-1.65-3.26-1.65-7.5V462q0-4.13 1.68-7.3 1.69-3.17 4.63-4.97t6.72-1.8q3.37 0 6.01 1.6 2.65 1.6 4.22 4.33v-20.01h3.72v42.46h-3.37v-5.7q-1.63 2.91-4.36 4.59-2.74 1.69-6.22 1.69m.46-3.31q2.85 0 5.12-1.4t3.58-3.9 1.3-5.87q0-3.32-1.3-5.82-1.31-2.5-3.58-3.92-2.27-1.43-5.12-1.43t-5.06 1.37-3.46 3.78-1.25 5.61v.53q0 3.31 1.25 5.81t3.46 3.87 5.06 1.37m19.25 14.36v-3.2H892q1.46 0 2.3-1.01.84-1.02 1.37-2.36l2.15-4.83-11.52-28.03h4.08l9.42 23.5 9.13-23.5H913l-13.55 32.98q-.64 1.57-1.54 3.05t-2.36 2.44-3.72.96zm51.42-11.63v-37.16H925.5v-3.55h29.2v3.55h-12.68v37.16zm28.44.58q-4.08 0-7.22-1.83t-4.88-5.06-1.75-7.47v-.59q0-4.07 1.63-7.21t4.51-4.97 6.72-1.83q3.89 0 6.69 1.92 2.79 1.92 4.1 5.41t.78 8.14h-20.76q.11 2.85 1.42 5.15 1.31 2.29 3.58 3.6t5.29 1.31q4.6 0 7.21-2.27l2.1 2.39q-1.57 1.57-4.04 2.44-2.48.87-5.38.87m-.99-25.71q-3.84 0-6.25 2.51t-2.88 6.63h17.21q.06-4.19-2.18-6.66-2.24-2.48-5.9-2.48m14.54 25.13 10.06-13.84-9.77-13.96h4.36l7.85 11.63 7.91-11.63h4.25l-9.72 13.96 10.01 13.84h-4.48l-8.03-11.46-8.08 11.46zm39.49 0q-1.86 0-3.49-.76-1.63-.75-2.68-2.29-1.04-1.54-1.04-3.99v-17.5h-5.18v-3.26h5.18v-6.92h3.66v6.92h7.74v3.26h-7.74v17.74q0 1.57 1.05 2.58 1.04 1.02 2.56 1.02h4.13v3.2zm-160.3 119.74q-2.91 0-5.58-.93-2.68-.93-4.31-2.5l1.69-2.56q1.51 1.4 3.72 2.21t4.48.82q2.85 0 4.65-1.34t1.81-3.55q0-1.8-1.11-2.79-1.1-.99-2.88-1.51-1.77-.53-3.72-1.02t-3.69-1.28-2.85-2.24-1.11-4.07q0-3.61 2.68-5.87 2.67-2.27 7.15-2.27 2.56 0 4.8.78 2.24.79 3.93 2.07l-1.69 2.61q-1.45-1.16-3.26-1.8t-3.84-.64q-2.79 0-4.5 1.34-1.72 1.34-1.72 3.49 0 1.8 1.11 2.76 1.1.96 2.87 1.51 1.78.56 3.76 1.05 1.97.5 3.75 1.31 1.77.81 2.88 2.33 1.1 1.51 1.1 4.13 0 3.49-2.82 5.72-2.82 2.24-7.3 2.24m27.51.06q-3.08 0-5.52-1.19-2.45-1.19-3.84-3.72-1.4-2.53-1.4-6.66v-16.81h3.67v16.23q0 4.88 2.21 6.8t5.52 1.92q2.27 0 4.19-1.02t3.11-3.02 1.19-5.09v-15.82h3.61v27.8h-3.38v-4.59q-1.68 2.9-4.36 4.04-2.67 1.13-5 1.13m21.93 11.05v-39.43h3.49v5.58q1.63-2.85 4.33-4.5 2.7-1.66 6.14-1.66 3.78 0 6.71 1.8t4.63 4.97q1.68 3.17 1.68 7.3v.53q0 4.24-1.65 7.5-1.66 3.26-4.6 5.06t-6.77 1.8q-3.32 0-5.99-1.57t-4.25-4.3v16.92zm13.49-14.36q2.85 0 5.06-1.37t3.46-3.87 1.25-5.81v-.53q0-3.2-1.25-5.61t-3.46-3.78-5.06-1.37-5.12 1.43-3.57 3.92-1.31 5.82q0 3.37 1.31 5.87 1.3 2.5 3.57 3.9t5.12 1.4M943 607.16v-39.43h3.49v5.58q1.63-2.85 4.34-4.5 2.7-1.66 6.13-1.66 3.78 0 6.72 1.8t4.62 4.97q1.69 3.17 1.69 7.3v.53q0 4.24-1.66 7.5-1.65 3.26-4.59 5.06t-6.78 1.8q-3.31 0-5.99-1.57-2.67-1.57-4.24-4.3v16.92zm13.5-14.36q2.85 0 5.06-1.37t3.46-3.87 1.25-5.81v-.53q0-3.2-1.25-5.61t-3.46-3.78-5.06-1.37-5.12 1.43-3.58 3.92-1.31 5.82q0 3.37 1.31 5.87t3.58 3.9 5.12 1.4m32.45 3.31q-3.95 0-7.04-1.83t-4.82-5.06q-1.75-3.23-1.75-7.47v-.53q0-4.13 1.75-7.3 1.74-3.17 4.82-4.97t7.04-1.8q3.9 0 6.98 1.8t4.83 4.94 1.74 7.22v.64q0 4.24-1.74 7.47-1.75 3.23-4.83 5.06t-6.98 1.83m0-3.31q2.91 0 5.12-1.43 2.21-1.42 3.46-3.9t1.25-5.72v-.64q0-3.14-1.25-5.53-1.25-2.38-3.46-3.75t-5.12-1.37-5.15 1.4-3.51 3.81-1.28 5.55v.53q0 3.25 1.28 5.72 1.27 2.48 3.51 3.9 2.24 1.43 5.15 1.43m20.82 2.73v-27.8h3.61v4.54q1.05-2.68 3.11-3.64 2.07-.96 4.68-.96h2.39v3.67h-2.68q-3.43 0-5.41 1.77-1.97 1.77-1.97 5.55v16.87zm28.5 0q-1.86 0-3.49-.76-1.63-.75-2.67-2.29-1.05-1.54-1.05-3.99v-17.5h-5.18v-3.26h5.18v-6.92h3.66v6.92h7.74v3.26h-7.74v17.74q0 1.57 1.05 2.58 1.05 1.02 2.56 1.02h4.13v3.2zm18.03.52q-2.91 0-5.58-.93-2.68-.93-4.31-2.5l1.69-2.56q1.51 1.4 3.72 2.21t4.48.82q2.85 0 4.65-1.34t1.81-3.55q0-1.8-1.11-2.79-1.1-.99-2.88-1.51-1.77-.53-3.72-1.02t-3.69-1.28-2.85-2.24-1.11-4.07q0-3.61 2.68-5.87 2.67-2.27 7.15-2.27 2.56 0 4.8.78 2.24.79 3.93 2.07l-1.69 2.61q-1.45-1.16-3.26-1.8t-3.84-.64q-2.79 0-4.5 1.34-1.72 1.34-1.72 3.49 0 1.8 1.11 2.76 1.1.96 2.87 1.51 1.78.56 3.76 1.05 1.97.5 3.75 1.31 1.77.81 2.88 2.33 1.1 1.51 1.1 4.13 0 3.49-2.82 5.72-2.82 2.24-7.3 2.24m45.02.06q-3.43 0-6.2-1.66-2.76-1.65-4.33-4.62v5.7h-3.43v-42.46h3.72v20.01q1.57-2.73 4.22-4.33t6.02-1.6q3.78 0 6.72 1.8t4.62 4.97 1.69 7.3v.53q0 4.24-1.66 7.5t-4.6 5.06-6.77 1.8m-.47-3.31q2.85 0 5.06-1.37t3.46-3.87 1.25-5.81v-.53q0-3.2-1.25-5.61t-3.46-3.78-5.06-1.37-5.12 1.43-3.57 3.92-1.31 5.82q0 3.37 1.31 5.87t3.57 3.9 5.12 1.4m31.12 3.31q-3.08 0-5.53-1.19-2.44-1.19-3.84-3.72-1.39-2.53-1.39-6.66v-16.81h3.66v16.23q0 4.88 2.21 6.8t5.53 1.92q2.27 0 4.19-1.02t3.11-3.02 1.19-5.09v-15.82h3.61v27.8h-3.38v-4.59q-1.68 2.9-4.36 4.04-2.68 1.13-5 1.13m28.96-.58q-3.2 0-5.14-1.86-1.95-1.86-1.95-4.94v-32.46h-5.35v-3.2h9.07v35.71q0 1.52 1.02 2.53 1.01 1.02 2.53 1.02h2.5v3.2zm15.12 0q-3.19 0-5.14-1.86t-1.95-4.94v-32.46h-5.35v-3.2h9.07v35.71q0 1.52 1.02 2.53 1.02 1.02 2.53 1.02h2.5v3.2zm19.49.58q-4.07 0-7.21-1.83t-4.89-5.06-1.74-7.47v-.59q0-4.07 1.62-7.21t4.51-4.97 6.72-1.83q3.9 0 6.69 1.92t4.1 5.41.78 8.14h-20.76q.12 2.85 1.42 5.15 1.31 2.29 3.58 3.6t5.29 1.31q4.6 0 7.22-2.27l2.09 2.39q-1.57 1.57-4.04 2.44t-5.38.87m-.99-25.71q-3.84 0-6.25 2.51t-2.88 6.63h17.21q.06-4.19-2.18-6.66-2.24-2.48-5.9-2.48m27.33 25.13q-1.86 0-3.48-.76-1.63-.75-2.68-2.29t-1.05-3.99v-17.5h-5.17v-3.26h5.17v-6.92h3.67v6.92h7.73v3.26h-7.73v17.74q0 1.57 1.04 2.58 1.05 1.02 2.56 1.02h4.13v3.2zm18.03.52q-2.9 0-5.58-.93-2.67-.93-4.3-2.5l1.68-2.56q1.52 1.4 3.73 2.21t4.47.82q2.85 0 4.66-1.34 1.8-1.34 1.8-3.55 0-1.8-1.1-2.79-1.11-.99-2.88-1.51-1.78-.53-3.73-1.02-1.94-.49-3.69-1.28-1.74-.78-2.85-2.24-1.1-1.45-1.1-4.07 0-3.61 2.67-5.87 2.68-2.27 7.16-2.27 2.55 0 4.79.78 2.24.79 3.93 2.07l-1.69 2.61q-1.45-1.16-3.25-1.8-1.81-.64-3.84-.64-2.79 0-4.51 1.34t-1.72 3.49q0 1.8 1.11 2.76 1.1.96 2.88 1.51 1.77.56 3.75 1.05 1.98.5 3.75 1.31t2.88 2.33 1.1 4.13q0 3.49-2.82 5.72-2.82 2.24-7.3 2.24m-457.43-19.24v-3.03h38.73l-15.94-15.93h4.54l17.45 17.56-17.45 17.27h-4.36l15.99-15.87zm76.48 126.3q-3.2 0-5.15-1.86-1.94-1.86-1.94-4.94v-32.46h-5.35v-3.2h9.07v35.71q0 1.52 1.02 2.53 1.01 1.02 2.53 1.02h2.5v3.2zm9.77 0v-24.54h-5.58v-3.26h9.25v27.8zm-.23-34.2v-6.28h4.13v6.28zm13.14 34.2v-42.46h3.73v28.85l14.01-14.19h4.6l-10.82 11.05 11.92 16.75h-4.59l-9.95-14.07-5.17 5.29v8.78zm39.09.58q-4.07 0-7.21-1.83t-4.89-5.06-1.74-7.47v-.59q0-4.07 1.63-7.21t4.5-4.97 6.72-1.83q3.9 0 6.69 1.92t4.1 5.41.78 8.14h-20.76q.12 2.85 1.43 5.15 1.3 2.29 3.57 3.6t5.3 1.31q4.59 0 7.21-2.27l2.09 2.39q-1.57 1.57-4.04 2.44t-5.38.87m-.99-25.71q-3.84 0-6.25 2.51t-2.88 6.63h17.21q.06-4.19-2.18-6.66-2.24-2.48-5.9-2.48m40.77 25.13q-1.86 0-3.49-.76-1.63-.75-2.67-2.29-1.05-1.54-1.05-3.99v-17.5h-5.18v-3.26h5.18v-6.92h3.66v6.92h7.74v3.26h-7.74v17.74q0 1.57 1.05 2.58 1.05 1.02 2.56 1.02h4.13v3.2zm10.64 0v-42.46h3.55v19.6q1.11-2.09 2.76-3.28 1.66-1.2 3.47-1.72 1.8-.52 3.37-.52 4.71 0 7.68 2.99t2.96 9.16v16.23h-3.72v-15.76q0-4.89-2.21-7.04t-5.58-2.15q-2.33 0-4.28 1.05-1.95 1.04-3.11 3.08-1.16 2.03-1.16 5.12v15.7zm44.5.58q-4.07 0-7.21-1.83-3.15-1.83-4.89-5.06-1.75-3.23-1.75-7.47v-.59q0-4.07 1.63-7.21t4.51-4.97 6.72-1.83q3.9 0 6.69 1.92t4.1 5.41.78 8.14h-20.76q.12 2.85 1.42 5.15 1.31 2.29 3.58 3.6t5.29 1.31q4.6 0 7.22-2.27l2.09 2.39q-1.57 1.57-4.04 2.44t-5.38.87m-.99-25.71q-3.84 0-6.25 2.51t-2.88 6.63h17.21q.06-4.19-2.18-6.66-2.24-2.48-5.9-2.48m26.05 25.65q-2.9 0-5.58-.93-2.67-.93-4.3-2.5l1.68-2.56q1.52 1.4 3.73 2.21t4.47.82q2.85 0 4.66-1.34 1.8-1.34 1.8-3.55 0-1.8-1.1-2.79-1.11-.99-2.88-1.51-1.78-.53-3.73-1.02-1.94-.49-3.69-1.28-1.74-.78-2.85-2.24-1.1-1.45-1.1-4.07 0-3.61 2.67-5.87 2.68-2.27 7.15-2.27 2.56 0 4.8.78 2.24.79 3.93 2.07l-1.69 2.61q-1.45-1.16-3.25-1.8-1.81-.64-3.84-.64-2.79 0-4.51 1.34t-1.72 3.49q0 1.8 1.11 2.76 1.1.96 2.88 1.51 1.77.56 3.75 1.05 1.98.5 3.75 1.31t2.88 2.33 1.1 4.13q0 3.49-2.82 5.72-2.82 2.24-7.3 2.24m29.03.06q-4.07 0-7.22-1.83t-4.88-5.06q-1.75-3.23-1.75-7.47v-.59q0-4.07 1.63-7.21t4.51-4.97 6.72-1.83q3.89 0 6.69 1.92 2.79 1.92 4.1 5.41t.78 8.14h-20.76q.11 2.85 1.42 5.15 1.31 2.29 3.58 3.6t5.29 1.31q4.6 0 7.21-2.27l2.1 2.39q-1.57 1.57-4.04 2.44-2.48.87-5.38.87m-.99-25.71q-3.84 0-6.25 2.51t-2.88 6.63h17.21q.06-4.19-2.18-6.66-2.24-2.48-5.9-2.48m-286.27 6.41v-3.03h38.73l-15.94-15.93h4.54l17.45 17.56-17.45 17.27h-4.36l15.99-15.87z"/><path fill="#30ba78" d="M802.79 811.27q-2.68 0-4.92-1.02-2.24-1.01-3.92-2.82v3.26h-6.98v-42.46h7.73v16.52q1.57-1.51 3.61-2.33 2.03-.81 4.42-.81 3.84 0 6.89 1.83t4.86 5.12q1.8 3.29 1.8 7.59v.58q0 4.36-1.77 7.65-1.78 3.29-4.8 5.09-3.03 1.8-6.92 1.8m-1.23-6.75q2.85 0 4.92-2.06t2.06-5.73v-.58q0-3.66-2.06-5.73-2.07-2.06-4.92-2.06-3.14 0-5.26 2.15t-2.12 5.93q0 3.84 2.12 5.96t5.26 2.12m33.56 6.75q-4.24 0-7.62-1.86t-5.35-5.15-1.97-7.59v-.58q0-4.24 1.97-7.5 1.98-3.26 5.35-5.12 3.38-1.86 7.62-1.86 4.19 0 7.56 1.86 3.38 1.86 5.33 5.12 1.94 3.26 1.94 7.5v.58q0 4.31-1.94 7.59-1.95 3.29-5.33 5.15t-7.56 1.86m0-6.75q3.14 0 5.12-2.21t1.98-5.64v-.58q0-3.37-1.98-5.55t-5.12-2.18q-3.2 0-5.2 2.18t-2.01 5.55v.58q0 3.43 2.01 5.64t5.2 2.21m29.26 6.17q-4.07 0-6.49-2.18t-2.41-6.02v-27.74H851v-6.52h12.21v34.43q0 .64.47 1.14t1.16.49h3.14v6.4zm19.95.58q-3.84 0-6.9-1.8-3.05-1.8-4.82-5.09t-1.78-7.65v-.58q0-4.3 1.81-7.59 1.8-3.29 4.85-5.12 3.06-1.83 6.9-1.83 2.38 0 4.42.81 2.03.82 3.6 2.33v-16.52h7.74v42.46h-6.92v-3.32q-3.49 3.9-8.9 3.9m1.28-6.75q3.08 0 5.2-2.12t2.12-5.96q0-3.78-2.12-5.93t-5.2-2.15q-2.91 0-4.98 2.06-2.06 2.07-2.06 5.73v.58q0 3.67 2.06 5.73t4.98 2.06"/><path fill="#0c322c" d="M930.52 811.27q-4.83 0-7.68-2.27-2.85-2.26-2.85-5.93 0-2.44 1.4-4.3t3.87-2.94 5.67-1.08q2.56 0 4.51.61 1.94.62 3.28 1.72v-4.3q0-3.78-1.92-5.44t-5.17-1.66q-2.33 0-4.74.84-2.42.85-4.05 2.71l-1.8-2.62q1.86-2.15 4.77-3.23 2.91-1.07 5.99-1.07 4.77 0 7.68 2.56t2.91 7.73v8.84q0 4.66.17 9.25h-3.31l-.06-3.02q-2.5 3.6-8.67 3.6m.87-2.85q3.55 0 5.44-1.51t1.89-3.84q0-2.38-1.92-3.84-1.92-1.45-5.46-1.45-3.49 0-5.53 1.45-2.03 1.46-2.03 3.84 0 2.33 2.03 3.84 2.04 1.51 5.58 1.51m19.9 2.27v-27.8h3.54v4.94q1.11-2.09 2.77-3.28 1.65-1.2 3.46-1.72 1.8-.52 3.37-.52 4.71 0 7.68 2.99t2.96 9.16v16.23h-3.72v-15.76q0-4.89-2.21-7.04t-5.58-2.15q-2.33 0-4.28 1.05-1.95 1.04-3.11 3.08-1.16 2.03-1.16 5.12v15.7zm43.67.58q-3.83 0-6.77-1.8t-4.6-5.06q-1.65-3.26-1.65-7.5v-.53q0-4.13 1.68-7.3 1.69-3.17 4.63-4.97t6.71-1.8q3.38 0 6.02 1.6 2.65 1.6 4.22 4.33v-20.01h3.72v42.46h-3.37v-5.7q-1.63 2.91-4.36 4.59-2.74 1.69-6.23 1.69m.47-3.31q2.85 0 5.12-1.4t3.57-3.9 1.31-5.87q0-3.32-1.31-5.82-1.3-2.5-3.57-3.92-2.27-1.43-5.12-1.43t-5.06 1.37-3.46 3.78-1.25 5.61v.53q0 3.31 1.25 5.81t3.46 3.87 5.06 1.37m41.27 2.73q-2.97 0-4.31-1.72-1.34-1.71-.58-4.68l4.48-18.26h-5.47l.76-3.08h9.01l-5.29 21.46q-.35 1.51.29 2.38.64.88 2.15.88h1.81l-.76 3.02zm1.74-34.2 1.51-6.22h3.9l-1.51 6.22zm13.73 34.2q-3.14 0-4.69-2.04-1.54-2.03-.78-5.11l4.3-17.51h-4.65l.76-3.08h4.65l1.74-6.92h3.44l-1.69 6.92h7.09l-.75 3.08h-7.1l-4.42 17.97q-.4 1.57.38 2.62.79 1.05 2.36 1.05h3.49l-.76 3.02zm20.64.58q-2.44 0-4.77-1.16t-3.81-3.64-1.48-6.48q0-5.06 1.95-9.05 1.95-3.98 5.21-6.28 3.25-2.29 7.21-2.29 3.25 0 5.52 1.77t3.09 5.03l1.57-6.22h3.49l-5.3 21.46q-.35 1.57.29 2.41t2.16.85h1.8l-.76 3.02h-1.8q-2.56 0-3.84-1.22t-1.22-3.32q-1.57 2.33-4.07 3.73-2.5 1.39-5.24 1.39m.93-3.14q2.5 0 4.48-1.25t3.35-3.31q1.36-2.07 2.06-4.51t.7-4.77q0-4.13-1.83-6.46-1.83-2.32-5.15-2.32-3.14 0-5.64 1.86t-3.99 4.97-1.48 6.95q0 3.2 1.11 5.15 1.1 1.95 2.82 2.82t3.57.87m27.05 2.56q-2.97 0-4.45-1.86t-.73-4.89l7.97-32.68h-5.35l.76-3.03h8.89L1099.1 804q-.46 1.69.29 2.68.76.99 2.45.99h2.38l-.76 3.02zm15.3 0q-2.97 0-4.31-1.72-1.34-1.71-.58-4.68l4.48-18.26h-5.47l.76-3.08h9.01l-5.29 21.46q-.35 1.51.29 2.38.64.88 2.15.88h1.8l-.75 3.02zm1.74-34.2 1.51-6.22h3.9l-1.51 6.22zm17.22 34.78q-2.74 0-5.15-1.16t-3.93-3.69-1.51-6.78q0-4.89 1.98-8.81t5.41-6.2q3.43-2.26 7.67-2.26 2.91 0 5.12 1.13t3.38 3l-2.56 2.15q-1.05-1.46-2.56-2.24-1.52-.79-3.49-.79-3.26 0-5.88 1.81-2.61 1.8-4.1 4.88t-1.48 6.98q0 3.2 1.1 5.12 1.11 1.92 2.83 2.76 1.71.84 3.57.84 3.84 0 7.45-3.08l1.8 2.56q-2.09 1.8-4.54 2.79-2.44.99-5.11.99"/><rect width="215.95" height="101.8" x="784.86" y="880.66" fill="none" stroke="#0c322c" stroke-width="3" rx="50.9" ry="50.9"/><path fill="#0c322c" d="M840.82 932.21v-2.29h29.38l-12.09-12.09h3.44l13.23 13.32-13.23 13.1h-3.3l12.12-12.04zm59.28 14.73q-3.13 0-5.56-1.37-2.42-1.36-3.79-3.77-1.37-2.4-1.37-5.58v-.57q0-3.13 1.39-5.54 1.39-2.4 3.8-3.77 2.4-1.36 5.53-1.36 2.29 0 4.15.81 1.85.82 3.17 2.27l-1.76 1.77q-2.16-2.25-5.6-2.25-2.3 0-4.08 1.01-1.79 1.02-2.8 2.85-1.02 1.83-1.02 4.21v.57q0 2.43 1.04 4.26t2.82 2.84 4.08 1.02q3.44 0 5.65-2.25l1.72 1.76q-1.33 1.46-3.2 2.28t-4.17.81m19.23-.44q-1.41 0-2.65-.57-1.23-.58-2.02-1.75-.8-1.16-.8-3.02v-13.27h-3.92v-2.47h3.92v-5.25h2.78v5.25h5.87v2.47h-5.87v13.45q0 1.19.79 1.96.8.77 1.95.77h3.13v2.43zm14.6.44q-3.66 0-5.82-1.72t-2.16-4.5q0-1.85 1.06-3.26 1.05-1.41 2.93-2.23 1.87-.81 4.3-.81 1.94 0 3.42.46 1.47.46 2.49 1.3v-3.26q0-2.87-1.46-4.13-1.45-1.26-3.92-1.26-1.77 0-3.6.64t-3.06 2.06l-1.37-1.99q1.41-1.63 3.62-2.45 2.2-.81 4.54-.81 3.62 0 5.82 1.94t2.21 5.86v6.71q0 3.53.13 7.01h-2.51l-.05-2.29q-1.9 2.73-6.57 2.73m.66-2.16q2.69 0 4.13-1.15 1.43-1.14 1.43-2.91 0-1.81-1.46-2.91-1.45-1.1-4.14-1.1-2.65 0-4.19 1.1t-1.55 2.91q0 1.77 1.55 2.91 1.54 1.15 4.23 1.15"/><svg xmlns="http://www.w3.org/2000/svg" xmlns:c2pa="http://c2pa.org/manifest" width="468.39" height="108" x="1355.61" y="96" viewBox="0 0 210.6 38.09"><path d="M208.46 27.03h-13.55a1.9 1.9 0 0 1-1.9-1.9v-6.85h13.09a2.04 2.04 0 1 0 0-4.07H193V7.47c0-1.04.85-1.9 1.9-1.9h13.55a2.14 2.14 0 1 0 0-4.27H194.9a6.2 6.2 0 0 0-6.17 6.17v17.66a6.2 6.2 0 0 0 6.17 6.17h13.55a2.14 2.14 0 1 0 0-4.27M168.6 14.27q-4.3-.78-5.97-1.84-1.68-1.06-1.68-2.87 0-1.94 1.72-3.19 1.72-1.24 4.85-1.24 3.16 0 5.06 1.22 1.03.66 1.87 1.75A2.32 2.32 0 1 0 178 5.14a12 12 0 0 0-3.5-2.73q-2.92-1.5-7.04-1.5-3.53 0-6.18 1.23-2.65 1.22-4.05 3.3a8 8 0 0 0-1.4 4.62q0 2.4 1.1 4.07 1.12 1.68 3.56 2.8 2.44 1.14 6.56 1.9 4.12.78 5.77 1.77 1.66 1 1.65 2.62 0 2.05-1.83 3.15-1.83 1.11-5.04 1.11-3.4 0-5.68-1.27a9 9 0 0 1-2.34-1.92 2.3 2.3 0 0 0-3.37-.09v.01a2.3 2.3 0 0 0-.12 3.16q3.87 4.32 11.55 4.32 3.53 0 6.22-1.07 2.7-1.06 4.19-3.05t1.5-4.62q0-2.44-1.1-4.09-1.08-1.65-3.46-2.76t-6.4-1.83m-66.83 0q-4.3-.77-5.97-1.83-1.68-1.06-1.68-2.87 0-1.95 1.72-3.2t4.84-1.24q3.17 0 5.07 1.23 1.03.66 1.87 1.75a2.32 2.32 0 1 0 3.56-2.96 12 12 0 0 0-3.5-2.73q-2.92-1.5-7.04-1.5-3.53 0-6.18 1.23-2.65 1.22-4.05 3.3a8 8 0 0 0-1.4 4.62q0 2.4 1.1 4.07 1.12 1.68 3.56 2.8 2.44 1.14 6.56 1.9 4.12.78 5.77 1.77 1.65 1 1.65 2.63 0 2.03-1.83 3.14t-5.05 1.11q-3.4 0-5.68-1.27a9 9 0 0 1-2.33-1.92 2.3 2.3 0 0 0-3.37-.09v.01a2.3 2.3 0 0 0-.12 3.16q3.87 4.32 11.55 4.32 3.53 0 6.22-1.07t4.19-3.05 1.5-4.62q0-2.44-1.1-4.1t-3.46-2.75-6.4-1.83m44.57-10.92v16.43q0 5.88-3.12 8.89t-9.1 3.01-9.1-3.01q-3.11-3.01-3.11-8.9V3.37a2.44 2.44 0 0 1 4.88 0V19.2q0 4.25 1.8 6.27t5.54 2.01 5.54-2.01 1.79-6.27V3.36a2.44 2.44 0 0 1 4.88 0M71.4 13.46a1.2 1.2 0 0 1-1.35 0 1.23 1.23 0 0 1-.2-1.9 1.2 1.2 0 0 1 1.74 0c.54.54.47 1.46-.2 1.9m1.94-2.69a4.55 4.55 0 0 1-5.46 5.47 4.6 4.6 0 0 1-3.4-3.4 4.55 4.55 0 0 1 5.47-5.45 4.6 4.6 0 0 1 3.4 3.39M51.22 28.44q.59.8.86 1.58c.13.37.29.85.65 1.05l.06.03c.67.24 2.4.2 2.4.2h3.16c.27 0 2.66 0 2.6-.27-.3-1.27-1.76-1.5-2.88-2.17-1.04-.61-2.02-1.31-2.46-2.51-.23-.62-.1-2.05.3-2.57a2 2 0 0 1 1.18-.73c.52-.1 1.05-.01 1.56.04.63.06 1.25.18 1.88.25q1.81.23 3.65.2a20 20 0 0 0 5.95-1.04 14 14 0 0 0 3.79-1.9c1.29-.95.95-.86-.36-.73q-2.35.23-4.71.1a10 10 0 0 1-4.24-.95 10 10 0 0 1-2.77-1.91.6.6 0 0 1 .03-.73c.22-.23.68-.1.82.03 1.45 1.2 3.6 2.2 5.83 2.3q1.79.11 3.59.04c.6-.03 1.51-.03 2.12-.03.3-.01 1.16.08 1.32-.25q.06-.14.04-.32C75.42 13.33 75.06 7.9 70 5.58c-3.76-1.72-9.41-4.4-11.8-5.5a.85.85 0 0 0-1.2.77c0 1.61.08 3.93.08 6.04-1.14-1.17-3.07-1.9-4.53-2.58a43 43 0 0 0-5.14-1.96A55 55 0 0 0 36.6.23a42 42 0 0 0-12.5.63 38.6 38.6 0 0 0-18.4 9.38C2.6 13.15.19 17.3.02 21.5c-.23 5.94 1.43 9.13 4.5 12.42 4.87 5.24 15.38 5.98 19.63-.24 1.91-2.8 2.33-6.6.94-9.69a9.3 9.3 0 0 0-7.97-5.43c-2.62-.1-5.42 1.25-6.43 3.67a5.3 5.3 0 0 0 1.07 5.6c.54.55 1.28 1.01 2.09.83.47-.1.87-.46.94-.94.1-.71-.51-1.17-.9-1.72a2.64 2.64 0 0 1 .32-3.3c.73-.7 1.8-.92 2.82-.91.95 0 1.92.17 2.73.64a4.8 4.8 0 0 1 2.17 3.22c.8 3.9-2.38 7.07-6.68 7.32a9 9 0 0 1-6.16-1.83c-4.35-3.5-5.42-10.65-.45-14.47 4.72-3.62 10.68-2.69 14.2-.8 2.81 1.5 4.9 3.97 6.5 6.7a39 39 0 0 1 2.1 4.25c.6 1.4 1.17 2.81 2.39 3.84.8.68 1.8.65 2.84.65h6c.82 0 .63-.54.27-.9-.8-.82-1.94-1-3-1.3-2.42-.66-2.17-3.86-1.5-3.86 2.16 0 2.23.06 4.13.04 2.73-.04 3.56-.2 5.7.6a7 7 0 0 1 2.96 2.56"/></svg><path fill="rgba(255,255,255,0.85)" d="M1695.95 1050H1912v22h-216.05z"/><path fill="none" stroke="#c0392b" d="M1696.45 1050.5h215.05v21h-215.05z"/><text x="1704.95" y="1055" fill="#c0392b" dominant-baseline="text-before-edge" font-family="monospace" font-size="10" font-weight="700">EXPERIMENTAL — NOT BRAND APPROVED</text></svg>