<svg xmlns="http://www.w3.org/2000/svg" width="1920" height="1080" viewBox="0 0 1920 1080"><path fill="#8a3410" d="M0 0h1920v1080H0z"/><path fill="#5c2109" d="M0 0h687.36v1080H0z"/><path fill="#fc9869" d="M117.34 275.47V121.23H65.06v-10.6h116.33v10.6h-52.51v154.24zm99.37 2.35q-12.48 0-22.13-4.7-9.66-4.71-15.31-15.08-5.65-10.36-5.65-27.08v-67.34h10.83v65.93q0 14.13 4.47 22.49 4.48 8.36 12.13 12.01t17.31 3.65q9.89 0 18.37-4.48 8.47-4.47 13.66-13.3t5.18-22.25v-64.05h6.59q23.55 0 18.84-27.32h10.36q2.83 16.01-3.3 25.31-6.12 9.31-21.9 10.25v103.61h-9.65v-21.66q-4.24 8.71-10.95 14.01t-14.25 7.65q-7.53 2.35-14.6 2.35m-2.12-135.87-22.6-32.26h13.89l20.49 32.26zm-78.18 366.63q-15.07 0-26.72-7.65-11.66-7.65-17.78-20.84v26.14H81.78v-171.9h10.83v85.24q6.13-12.71 17.55-20.13t26.25-7.42q15.31 0 26.97 7.18 11.65 7.19 18.36 20.02t6.71 29.32v2.12q0 17.19-6.59 30.26t-18.37 20.36-27.08 7.3m-1.41-9.89q12.48 0 22.13-6.12 9.66-6.12 15.08-16.95t5.41-24.96v-2.12q0-13.66-5.41-24.14t-15.08-16.37q-9.65-5.88-22.13-5.88-12.25 0-22.02 6.12t-15.3 16.95q-5.54 10.84-5.54 25.2t5.54 25.2q5.53 10.83 15.3 16.95t22.02 6.12m84.54 7.54V404.27h-23.32v-9.89h34.15v111.85zm-.71-138.7v-23.78h12.25v23.78zm92.55 141.05q-16.49 0-28.97-7.41t-19.54-20.49-7.07-30.02v-2.36q0-16.48 6.48-29.08 6.47-12.6 18.01-19.9t26.85-7.3q15.07 0 26.02 7.65t16.25 21.2 3.41 31.43h-86.19q.24 13.43 6.01 23.79t15.78 16.36 23.19 6.01q8.95 0 16.84-2.47t13.3-7.19l6.36 7.3q-6.36 5.89-16.01 9.19t-20.72 3.29m-4.24-106.67q-17.19 0-28.03 11.42t-12.24 29.79h75.59q.47-18.84-9.42-30.02t-25.9-11.19m-36.03-29.2 29.9-32.26h11.54l29.67 32.26h-11.54l-24.25-24.72-23.78 24.72zm106.2 133.52V394.38h10.36v22.13q4.24-9.18 11.19-14.48t14.6-7.65 14.48-2.36q18.84 0 30.85 12.01t12.01 37.21v64.99h-10.84v-63.58q0-21.66-9.77-31.08t-24.37-9.42q-10.13 0-18.72 4.59-8.6 4.59-13.78 13.54t-5.18 22.13v63.82zM125.82 739.35q-15.55 0-27.32-7.3t-18.37-20.36q-6.59-13.07-6.59-30.26v-2.12q0-16.49 6.71-29.32t18.49-20.02q11.77-7.18 27.08-7.18 14.83 0 26.13 7.42 11.31 7.42 17.67 20.13v-50.16h-26.61V591h26.61v-25.9h10.83V591h17.66v9.18h-17.66V737h-10.13v-26.14q-6.36 13.19-17.89 20.84t-26.61 7.65m.94-9.89q12.71 0 22.37-6.12t15.3-16.95q5.66-10.83 5.66-25.2t-5.66-25.2-15.3-16.95q-9.66-6.12-22.37-6.12-12.48 0-22.02 5.88t-14.95 16.37-5.42 24.14v2.12q0 14.13 5.42 24.96t14.95 16.95 22.02 6.12m134.69 9.89q-16.48 0-28.96-7.41t-19.55-20.49-7.06-30.02v-2.36q0-16.48 6.48-29.08 6.47-12.6 18.01-19.9t26.84-7.3q15.08 0 26.03 7.65t16.24 21.2 3.42 31.43h-86.19q.24 13.43 6.01 23.79t15.77 16.36 23.2 6.01q8.95 0 16.84-2.47 7.88-2.48 13.3-7.19l6.36 7.3q-6.36 5.89-16.01 9.19t-20.73 3.29m-4.24-106.67q-17.19 0-28.02 11.42t-12.24 29.79h75.59q.47-18.84-9.42-30.02t-25.91-11.19m-5.65-71.11 20.49-28.03h13.42l-22.6 28.03zm-30.37 41.91 29.9-32.02h11.54l29.67 32.02h-11.54l-24.25-24.25-23.79 24.25zM327.39 737V625.15h10.36v22.13q4.24-9.18 11.18-14.48 6.95-5.3 14.6-7.65 7.66-2.36 14.49-2.36 18.84 0 30.84 12.01t12.01 37.21V737h-10.83v-63.58q0-21.66-9.77-31.08t-24.37-9.42q-10.13 0-18.72 4.59-8.6 4.59-13.78 13.54t-5.18 22.13V737zM108.15 967.77q-12.01 0-19.42-7.3t-7.42-18.84V805.52H58.7v-9.65h33.44v145.76q0 7.3 4.71 11.89t11.78 4.6h9.41v9.65zm69.71 2.35q-15.54 0-27.67-7.41t-19.08-20.49-6.94-30.02v-1.89q0-16.72 6.94-29.43t19.08-20.02q12.13-7.3 27.67-7.3 15.77 0 27.78 7.18 12.01 7.19 18.96 19.78t6.95 29.09v2.59q0 16.95-6.95 30.02t-18.96 20.49-27.78 7.41m0-10.12q12.71 0 22.37-6.01t15.07-16.83 5.41-24.96v-2.59q0-13.66-5.41-24.02t-15.07-16.13-22.37-5.77q-12.48 0-22.14 5.88t-15.19 16.49Q135 896.65 135 910.31v1.89q0 14.13 5.53 24.96t15.19 16.83 22.14 6.01m16.72-126.22q-5.66 0-10.36-3.53-4.71-3.53-8.72-8.13-4-4.59-7.65-8t-7.18-3.42q-4.01 0-6.36 4.36t-2.59 11.19h-8.71q.23-11.31 4.94-17.67 4.71-6.35 12.95-6.35 5.42 0 9.89 3.53t8.36 8 7.66 8.01 7.77 3.53q4.71 0 7.18-4.59t2.24-12.13h8.71q.23 12.01-4.59 18.61t-13.54 6.59m68.05 133.99V865.81h-23.31v-9.89h34.14v111.85zm-.71-138.7v-23.78h12.25v23.78zm555.94-649.38q-6.39 0-11.88-2.17t-9.67-6.18-6.52-9.54-2.34-12.27v-1.36q0-6.73 2.34-12.27 2.35-5.54 6.52-9.54t9.67-6.18q5.49-2.17 11.88-2.17 5.54 0 10.27 1.66t8.39 4.73l-4.6 5.45q-5.79-4.77-14.06-4.77-6.56 0-11.75 2.94t-8.18 8.1-2.98 12.05v1.36q0 6.9 2.98 12.06t8.18 8.09 11.75 2.94q8.44 0 14.32-5.03l4.6 5.54q-3.75 3.15-8.61 4.86-4.85 1.7-10.31 1.7m27.1-1.02v-62.19h6.64v27.77q2.47-4.26 6.35-5.83t7.2-1.58q6.9 0 11.2 4.47t4.3 13.25v24.11h-6.9v-23.09q0-6.56-2.94-9.5t-7.45-2.94q-4.69 0-8.1 3.2-3.4 3.19-3.4 9.33v23zm59.72.85q-6.99 0-11.21-3.41-4.21-3.4-4.21-8.86 0-3.57 2.13-6.39t5.83-4.47 8.31-1.66q6.73 0 10.73 2.81v-5.11q0-5.03-2.6-7.2-2.59-2.17-7.02-2.17-3.33 0-6.78 1.23-3.45 1.24-5.92 3.8l-3.24-4.86q2.73-3.15 7.16-4.77t9.12-1.62q7.24 0 11.67 3.83t4.43 11.42v13.12q0 6.81.25 13.46h-6.13l-.08-4.09q-3.84 4.94-12.44 4.94m1.79-5.19q4.68 0 7.28-1.96t2.6-5.12-2.6-5.07-7.37-1.91q-4.68 0-7.41 1.91-2.73 1.92-2.73 5.07 0 3.07 2.77 5.07t7.46 2.01m-3.58 19.59v-9.63h7.67v9.63zm27 1.79v-5.88h8.18q1.79 0 2.86-1.23 1.06-1.24 1.74-2.94l2.99-6.56-16.87-41.41h7.58l12.95 32.97 12.35-32.97h7.58l-19.59 48.22q-.94 2.39-2.34 4.6-1.41 2.22-3.67 3.71t-5.92 1.49zm81.79-16.19q-5.88 0-10.48-2.68t-7.24-7.46-2.64-10.99v-.76q0-6.05 2.64-10.78t7.24-7.37 10.48-2.64q3.32 0 5.41.6 2.09.59 3.54 1.23 1.44.64 2.89.64 5.8 0 4.35-8.43h5.79q.94 5.19-.47 8.6-1.4 3.41-5.83 4.35 2.21 2.64 3.45 6.09 1.23 3.45 1.23 7.54v.93q0 6.22-2.64 10.99t-7.24 7.46-10.48 2.68m0-6.13q4.01 0 7.03-1.92t4.77-5.28 1.75-7.8v-.93q0-6.39-3.79-10.44t-9.76-4.05q-3.92 0-6.98 1.88t-4.82 5.19q-1.74 3.33-1.74 7.59v.76q0 4.43 1.74 7.8 1.75 3.36 4.82 5.28 3.06 1.92 6.98 1.92m-1.96-42.85q2.22-2.05 3.15-3.54.94-1.49.94-2.85 0-1.54-1.15-2.35t-2.94-.81q-1.36 0-3.02.43t-3.2 1.19v-4.68q1.79-1.03 4.09-1.54t4.18-.51q3.74 0 6.09 1.96t2.34 5.03q0 4.26-4.34 7.67zm52.14 48.13v-40.98h6.56v6.48q2.39-4.18 6.01-5.75t7.03-1.58q4.43 0 7.79 1.96t5.07 6.05q1.79-3.07 4.22-4.82 2.42-1.74 5.02-2.47 2.6-.72 4.9-.72 6.65 0 10.82 4.3t4.18 13.16v24.37h-6.73v-23.51q0-6.31-2.73-9.16t-7.16-2.86q-4.6 0-7.66 3.11t-3.07 8.91v23.51h-6.82v-23.51q0-6.31-2.68-9.16t-7.11-2.86q-4.6 0-7.71 3.11t-3.11 8.91v23.51zm90.99.85q-5.88 0-10.48-2.68t-7.24-7.46-2.64-10.99v-.76q0-6.05 2.64-10.78t7.24-7.37 10.48-2.64 10.48 2.64 7.24 7.28 2.64 10.7v.93q0 6.22-2.64 10.99t-7.24 7.46-10.48 2.68m0-6.13q4 0 7.03-1.92 3.02-1.92 4.72-5.28 1.71-3.37 1.71-7.8v-.93q0-6.39-3.75-10.44t-9.71-4.05q-3.92 0-6.99 1.88-3.06 1.87-4.81 5.19t-1.75 7.59v.76q0 4.43 1.75 7.8 1.75 3.36 4.81 5.28 3.07 1.92 6.99 1.92m-3.84 20.53v-9.63h7.67v9.63zm36.3-15.25v-35.01h-8.01v-5.97h14.82v40.98zm-.43-50.01v-9.88h7.67v9.88zm39.11 50.01v-40.98h6.64v6.56q2.47-4.26 6.35-5.83t7.2-1.58q6.9 0 11.2 4.47t4.3 13.25v24.11h-6.9v-23.09q0-6.56-2.94-9.5t-7.45-2.94q-4.69 0-8.1 3.2-3.4 3.19-3.4 9.33v23zm65.08.85q-5.87 0-10.47-2.68t-7.25-7.46-2.64-10.99v-.76q0-6.05 2.64-10.78t7.25-7.37 10.47-2.64q3.33 0 5.41.6 2.09.59 3.54 1.23t2.9.64q5.79 0 4.34-8.43h5.79q.94 5.19-.46 8.6-1.41 3.41-5.84 4.35 2.21 2.64 3.45 6.09t1.24 7.54v.93q0 6.22-2.65 10.99t-7.24 7.46-10.48 2.68m0-6.13q4.01 0 7.03-1.92t4.77-5.28 1.75-7.8v-.93q0-6.39-3.79-10.44t-9.76-4.05q-3.91 0-6.98 1.88t-4.82 5.19q-1.74 3.33-1.74 7.59v.76q0 4.43 1.74 7.8 1.75 3.36 4.82 5.28t6.98 1.92m33.66 5.28v-35.01h-8.01v-5.97h14.82v40.98zm-.43-50.01v-9.88h7.67v9.88zm17.72 50.01v-9.37h8.69v15.33q0 3.67-2.09 5.07t-4.56 1.41h-2.55v-4.18h2.55q1.11 0 1.67-.68t.55-1.7v-5.88zm67.13 17.04v-23.69q-2.38 3.5-6.05 5.5t-8.17 2q-5.63 0-9.97-2.64t-6.82-7.41-2.47-11.08v-.76q0-6.14 2.52-10.82 2.51-4.69 6.85-7.33t9.89-2.64q4.77 0 8.52 2.13t6.13 5.88v-7.16h6.47v58.02zm-13.29-22.32q4.01 0 7.07-1.88t4.86-5.28 1.79-8.01-1.79-8.05-4.86-5.32q-3.06-1.88-7.07-1.88-5.7 0-9.5 4.01t-3.79 10.65v.76q0 4.52 1.75 7.93 1.75 3.4 4.73 5.24 2.98 1.83 6.81 1.83m47.8 6.13q-6.82 0-11.33-4.04t-4.52-12.83v-24.96h6.9v23.77q0 6.56 2.94 9.16t7.37 2.6q4.6 0 7.97-3.07 3.36-3.07 3.36-9.29v-23.17h6.82v40.98h-6.14v-6.13q-2.55 4-6.34 5.49t-7.03 1.49m44.13 0q-6.99 0-11.21-3.41-4.21-3.4-4.21-8.86 0-3.57 2.13-6.39t5.83-4.47q3.71-1.66 8.31-1.66 6.73 0 10.73 2.81v-5.11q0-5.03-2.59-7.2-2.6-2.17-7.03-2.17-3.33 0-6.78 1.23-3.45 1.24-5.92 3.8l-3.23-4.86q2.72-3.15 7.15-4.77t9.12-1.62q7.24 0 11.67 3.83t4.43 11.42v13.12q0 6.81.26 13.46h-6.14l-.08-4.09q-3.84 4.94-12.44 4.94m1.79-5.19q4.68 0 7.28-1.96t2.6-5.12-2.6-5.07-7.37-1.91q-4.68 0-7.41 1.91-2.73 1.92-2.73 5.07 0 3.07 2.77 5.07t7.46 2.01m-1.45-43.79q2.21-2.05 3.15-3.54t.94-2.85q0-1.54-1.15-2.35t-2.94-.81q-1.36 0-3.03.43t-3.19 1.19v-4.68q1.79-1.03 4.09-1.54t4.17-.51q3.75 0 6.09 1.96 2.35 1.96 2.35 5.03 0 4.26-4.35 7.67zm29.99 48.13v-40.98h6.64v6.56q2.47-4.26 6.35-5.83t7.2-1.58q6.9 0 11.2 4.47t4.3 13.25v24.11h-6.9v-23.09q0-6.56-2.94-9.5t-7.45-2.94q-4.69 0-8.09 3.2-3.41 3.19-3.41 9.33v23zm77.86 0q-5.02 0-8.05-2.85-3.02-2.86-3.02-7.63v-45.83h-7.5v-5.88h14.4v51.8q0 1.96 1.28 3.23 1.28 1.28 3.24 1.28h3.91v5.88zm5.12 17.04v-5.88h8.18q1.78 0 2.85-1.23 1.06-1.24 1.75-2.94l2.98-6.56-16.87-41.41h7.58l12.95 32.97 12.35-32.97h7.59l-19.6 48.22q-.94 2.39-2.34 4.6-1.41 2.22-3.66 3.71t-5.93 1.49zm15.84-65.09 7.33-12.69h8.35l-8.52 12.69zm48.31 48.05v-40.98h6.56v6.48q2.38-4.18 6-5.75t7.03-1.58q4.43 0 7.8 1.96 3.36 1.96 5.07 6.05 1.79-3.07 4.21-4.82 2.43-1.74 5.03-2.47 2.6-.72 4.9-.72 6.64 0 10.82 4.3 4.17 4.3 4.17 13.16v24.37h-6.73v-23.51q0-6.31-2.72-9.16t-7.16-2.86q-4.6 0-7.67 3.11-3.06 3.11-3.06 8.91v23.51h-6.82v-23.51q0-6.31-2.68-9.16t-7.12-2.86q-4.6 0-7.71 3.11t-3.11 8.91v23.51zm90.99.85q-5.88 0-10.48-2.68t-7.25-7.46-2.64-10.99v-.76q0-6.05 2.64-10.78t7.25-7.37 10.48-2.64 10.47 2.64 7.25 7.28 2.64 10.7v.93q0 6.22-2.64 10.99t-7.25 7.46-10.47 2.68m0-6.13q4 0 7.02-1.92 3.03-1.92 4.73-5.28t1.71-7.8v-.93q0-6.39-3.75-10.44t-9.71-4.05q-3.92 0-6.99 1.88t-4.81 5.19q-1.75 3.33-1.75 7.59v.76q0 4.43 1.75 7.8 1.74 3.36 4.81 5.28t6.99 1.92m-3.84 20.53v-9.63h7.67v9.63zm36.29-15.25v-35.01h-8v-5.97h14.82v40.98zm-.42-50.01v-9.88h7.67v9.88zM807.98 286.01q-6.05 0-10.82-2.64t-7.45-7.37q-2.69-4.73-2.69-10.86v-1.02q0-6.14 2.73-10.82t7.45-7.33 10.78-2.64q4.52 0 8.22 1.66t6.26 4.64l-4.26 4.26q-3.91-4.17-10.22-4.17-4.09 0-7.28 1.79t-5.03 5.02-1.83 7.59v1.02q0 4.34 1.87 7.62t5.07 5.07 7.29 1.79q6.22 0 10.3-4.09l4.18 4.18q-2.47 2.98-6.26 4.64t-8.31 1.66m23-.85v-62.19h6.65v27.77q2.47-4.26 6.35-5.83t7.19-1.58q6.91 0 11.21 4.47t4.3 13.25v24.11h-6.9v-23.09q0-6.56-2.94-9.5t-7.45-2.94q-4.69 0-8.1 3.2-3.41 3.19-3.41 9.33v23zm65.09.85q-5.88 0-10.48-2.68t-7.24-7.46-2.64-10.99v-.76q0-6.05 2.64-10.78t7.24-7.37 10.48-2.64 10.48 2.64 7.24 7.28 2.64 10.7v.93q0 6.22-2.64 10.99t-7.24 7.46-10.48 2.68m0-6.13q4.01 0 7.03-1.92t4.73-5.28 1.7-7.8v-.93q0-6.39-3.75-10.44t-9.71-4.05q-3.92 0-6.98 1.88t-4.82 5.19q-1.74 3.33-1.74 7.59v.76q0 4.43 1.74 7.8 1.75 3.36 4.82 5.28 3.06 1.92 6.98 1.92m-3.15-59.04 7.33-11.08h8l-8.51 11.08zm-11.25 16.27 10.82-12.35h7.25l10.73 12.35h-6.9l-7.58-7.92-7.41 7.92zm44.39 48.05v-40.98h6.65v6.56q2.47-4.26 6.34-5.83 3.88-1.58 7.2-1.58 6.9 0 11.2 4.47 4.31 4.47 4.31 13.25v24.11h-6.9v-23.09q0-6.56-2.94-9.5t-7.46-2.94q-4.68 0-8.09 3.2-3.41 3.19-3.41 9.33v23zM851 421.48v-39.76h12.1q5.9 0 9.48 2.93 3.58 2.92 3.58 8.66 0 5.22-2.67 7.98-2.67 2.75-7.21 3.38l11.07 16.81h-4.43l-10.85-16.58h-7.27v16.58zm11.98-36.46h-8.18v16.58h8.18q4.21 0 6.76-1.93 2.56-1.93 2.56-6.3 0-4.09-2.56-6.22-2.55-2.13-6.76-2.13m28.74 37.03q-4.71 0-7.5-2.22-2.78-2.21-2.78-5.79 0-2.39 1.36-4.2 1.37-1.82 3.78-2.87 2.42-1.05 5.54-1.05 2.5 0 4.4.59 1.9.6 3.21 1.68v-4.2q0-3.69-1.87-5.31t-5.06-1.62q-2.27 0-4.63.82t-3.95 2.64l-1.76-2.55q1.82-2.11 4.66-3.16t5.85-1.05q4.66 0 7.5 2.5t2.84 7.56v8.63q0 4.54.17 9.03h-3.24l-.06-2.95q-2.44 3.52-8.46 3.52m.85-2.79q3.47 0 5.31-1.47 1.85-1.48 1.85-3.75 0-2.33-1.87-3.75t-5.34-1.42q-3.41 0-5.4 1.42t-1.99 3.75q0 2.27 1.99 3.75 1.99 1.47 5.45 1.47m19.43 2.22v-27.15h3.46v4.83q1.08-2.05 2.7-3.21t3.38-1.68q1.76-.51 3.29-.51 4.6 0 7.5 2.93 2.9 2.92 2.9 8.94v15.85h-3.64v-15.39q0-4.77-2.16-6.87-2.15-2.11-5.45-2.11-2.27 0-4.17 1.03-1.91 1.02-3.04 3.01t-1.14 5v15.33zm43.73.57q-4.03 0-7.16-1.76t-4.88-4.86q-1.76-3.09-1.76-7.18v-.74q0-4.03 1.79-7.13t4.88-4.86 7.13-1.76q2.95 0 5.34 1.05t4.09 2.93l-2.27 2.27q-2.79-2.9-7.22-2.9-2.95 0-5.25 1.31t-3.61 3.66q-1.3 2.36-1.3 5.43v.74q0 3.12 1.33 5.48 1.34 2.35 3.64 3.66t5.25 1.31q4.43 0 7.27-2.9l2.22 2.27q-1.71 1.88-4.12 2.93t-5.37 1.05m15.79-.57v-41.46h3.46v19.14q1.08-2.05 2.7-3.21t3.38-1.68q1.76-.51 3.3-.51 4.6 0 7.49 2.93 2.9 2.92 2.9 8.94v15.85h-3.64v-15.39q0-4.77-2.15-6.87-2.16-2.11-5.46-2.11-2.27 0-4.17 1.03-1.9 1.02-3.04 3.01t-1.14 5v15.33zm43.45.57q-3.98 0-7.04-1.79t-4.77-4.94-1.71-7.3v-.57q0-3.97 1.59-7.04t4.4-4.86 6.56-1.79q3.81 0 6.54 1.88t4 5.28q1.28 3.41.77 7.95h-20.28q.11 2.78 1.39 5.03 1.28 2.24 3.49 3.52 2.22 1.28 5.17 1.28 4.49 0 7.05-2.22l2.04 2.33q-1.53 1.53-3.95 2.39-2.41.85-5.25.85m-.97-25.11q-3.75 0-6.1 2.45-2.36 2.44-2.81 6.47h16.81q.06-4.09-2.13-6.5t-5.77-2.42m18.24 24.54v-27.15h3.52v4.43q1.02-2.61 3.04-3.55 2.01-.94 4.57-.94h2.33v3.58h-2.62q-3.35 0-5.28 1.74-1.93 1.73-1.93 5.42v16.47zm32.08 0v-39.76h11.82q5.79 0 9.37 3.1 3.58 3.09 3.58 8.6 0 5.57-3.58 8.64-3.58 3.06-9.37 3.06h-8.01v16.36zm11.99-36.41h-8.18v16.82h8.18q4.03 0 6.56-2.28t2.53-6.19-2.53-6.13-6.56-2.22m18.63 36.41v-27.15h3.52v4.43q1.02-2.61 3.04-3.55 2.01-.94 4.57-.94h2.33v3.58h-2.61q-3.35 0-5.29 1.74-1.93 1.73-1.93 5.42v16.47zm21.18 0v-23.97h-5.45v-3.18h9.03v27.15zm-.22-33.4v-6.13h4.03v6.13zm12.83 33.4v-27.15h3.47v4.77q1.53-3.01 4.03-4.17t4.94-1.17q3.12 0 5.42 1.42t3.38 4.43q1.14-2.21 2.76-3.49t3.41-1.82 3.43-.54q4.43 0 7.19 2.87 2.75 2.87 2.75 8.89v15.96h-3.52v-15.56q0-4.66-1.99-6.73t-5.22-2.08q-3.3 0-5.57 2.25t-2.27 6.5v15.62h-3.58v-15.56q0-4.66-1.96-6.73t-5.2-2.08q-3.35 0-5.62 2.25t-2.27 6.5v15.62zm61 .57q-3.97 0-7.04-1.79t-4.77-4.94-1.71-7.3v-.57q0-3.97 1.59-7.04t4.41-4.86 6.56-1.79q3.8 0 6.53 1.88 2.72 1.87 4 5.28t.77 7.95h-20.28q.12 2.78 1.39 5.03 1.28 2.24 3.5 3.52t5.16 1.28q4.49 0 7.05-2.22l2.04 2.33q-1.53 1.53-3.95 2.39-2.41.85-5.25.85m-.96-25.11q-3.75 0-6.11 2.45-2.36 2.44-2.81 6.47h16.81q.06-4.09-2.13-6.5t-5.76-2.42m-406.27 6.74v-2.96h37.82l-15.56-15.56h4.43l17.04 17.15-17.04 16.87h-4.26l15.62-15.5zm77.98 123.49q-4.03 0-7.12-1.44-3.1-1.45-5.14-3.95l2.38-2.44q3.98 4.6 10.05 4.6 4.32 0 6.82-2.19t2.5-5.76q0-2.45-1.14-3.92-1.13-1.48-3.01-2.36t-4.09-1.51-4.46-1.3-4.11-1.76q-1.88-1.08-3.01-2.93-1.14-1.84-1.14-4.8 0-3.4 1.62-5.93t4.51-3.92 6.82-1.39q3.41 0 6.11 1.11 2.69 1.1 4.51 3.03l-2.44 2.5q-1.65-1.7-3.66-2.55t-4.52-.85q-4.2 0-6.7 2.13t-2.5 5.53q0 2.33 1.14 3.69 1.13 1.37 3.03 2.19 1.91.82 4.15 1.39t4.49 1.25 4.11 1.82q1.88 1.14 3.04 3.07t1.17 4.99q0 3.64-1.71 6.25-1.7 2.61-4.71 4.03t-6.99 1.42m35.16 0q-6.64 0-10.59-3.6t-3.95-10.31v-26.47h3.75v26.24q0 5.06 2.95 7.84t7.84 2.78q4.94 0 7.87-2.78t2.92-7.84v-26.24h3.75v26.47q0 6.7-3.95 10.31-3.94 3.6-10.59 3.6m34.08 0q-4.03 0-7.13-1.44-3.1-1.45-5.14-3.95l2.39-2.44q3.97 4.6 10.05 4.6 4.31 0 6.81-2.19t2.5-5.76q0-2.45-1.13-3.92-1.14-1.48-3.01-2.36-1.88-.88-4.09-1.51-2.22-.62-4.46-1.3t-4.12-1.76-3.01-2.93-1.13-4.8q0-3.4 1.61-5.93 1.62-2.53 4.52-3.92t6.81-1.39q3.41 0 6.11 1.11 2.7 1.1 4.52 3.03l-2.45 2.5q-1.64-1.7-3.66-2.55t-4.52-.85q-4.2 0-6.7 2.13t-2.5 5.53q0 2.33 1.14 3.69 1.14 1.37 3.04 2.19t4.14 1.39 4.49 1.25 4.12 1.82 3.04 3.07 1.16 4.99q0 3.64-1.7 6.25-1.71 2.61-4.72 4.03t-6.98 1.42m26.81-.62q-2.67 0-4.43-1.76t-1.76-4.37v-27.49q0-2.62 1.73-4.38t4.46-1.76h17.77v3.47h-16.7q-1.53 0-2.52 1.02-1 1.02-1 2.5v11.19h19.03v3.35h-19.03v11.24q0 1.48 1 2.5.99 1.03 2.52 1.03h16.7v3.46zm45.43 0q-2.67 0-4.43-1.76t-1.76-4.37v-27.49q0-2.62 1.73-4.38 1.74-1.76 4.46-1.76h17.78v3.47h-16.7q-1.53 0-2.53 1.02t-.99 2.5v11.19h19.03v3.35h-19.03v11.24q0 1.48.99 2.5 1 1.03 2.53 1.03h16.7v3.46zm35.44.57q-3.74 0-6.61-1.76t-4.49-4.94-1.62-7.33v-.51q0-4.03 1.65-7.13t4.51-4.86 6.56-1.76q3.3 0 5.88 1.57 2.59 1.56 4.12 4.23v-19.54h3.63v41.46h-3.29v-5.57q-1.59 2.84-4.26 4.49t-6.08 1.65m.46-3.24q2.78 0 5-1.36 2.21-1.37 3.49-3.81t1.28-5.73q0-3.24-1.28-5.68-1.28-2.45-3.49-3.84-2.22-1.39-5-1.39-2.79 0-4.94 1.34-2.16 1.33-3.38 3.69t-1.22 5.48v.51q0 3.24 1.22 5.68t3.38 3.78 4.94 1.33m19.14 14.03v-3.07h16.07q2.22 0 3.49-1.11 1.28-1.1 1.28-3.03 0-1.82-1.28-2.84-1.27-1.03-3.49-1.03h-8.63q-2.1 0-3.18-.99t-1.19-2.47.62-2.9l1.87-3.75q-2.1-1.25-3.32-3.32t-1.22-4.63v-.51q0-2.78 1.45-4.91t4.03-3.32 5.94-1.2q.85 0 1.59.06l2.89-5.91h3.64l-3.47 6.54q3.07 1.02 4.92 3.29 1.84 2.27 1.84 5.28v.68q0 2.84-1.45 5.03-1.44 2.19-4.03 3.44-2.58 1.24-5.93 1.24-2.1 0-3.98-.51l-1.48 2.84q-.28.63-.36 1.34-.09.71.36 1.22.46.51 1.59.51h7.96q3.46 0 5.59 1.76t2.13 5.06q0 3.23-2.16 5.22t-5.73 1.99zm12.44-22.32q1.81 0 3.63-.65 1.82-.66 3.04-2.19t1.22-4.32q0-2.95-2.21-4.77-2.22-1.82-5.68-1.82-3.47 0-5.68 1.82-2.22 1.82-2.22 4.77 0 2.73 1.25 4.29t3.1 2.22 3.55.65m29.93 11.53q-3.98 0-7.04-1.79t-4.78-4.94q-1.7-3.15-1.7-7.3v-.57q0-3.97 1.59-7.04t4.4-4.86 6.56-1.79q3.81 0 6.53 1.88t4.01 5.28q1.28 3.41.77 7.95h-20.28q.11 2.78 1.39 5.03 1.28 2.24 3.49 3.52 2.22 1.28 5.17 1.28 4.49 0 7.04-2.22l2.05 2.33q-1.53 1.53-3.95 2.39-2.41.85-5.25.85m-.97-25.11q-3.75 0-6.1 2.45-2.36 2.44-2.81 6.47h16.81q.05-4.09-2.13-6.5-2.19-2.42-5.77-2.42m-315.9 6.73v-2.96h37.82l-15.56-15.56h4.43l17.04 17.15-17.04 16.87h-4.26l15.62-15.5zM851 631.61v-39.76h3.63l21.53 33.29v-33.29h3.75v39.76h-3.64l-21.47-33.23v33.23zm49.64.57q-3.98 0-7.04-1.79t-4.78-4.94q-1.7-3.15-1.7-7.3v-.57q0-3.97 1.59-7.04t4.4-4.86 6.56-1.79q3.81 0 6.53 1.88t4.01 5.28.77 7.95H890.7q.11 2.78 1.39 5.03 1.28 2.24 3.49 3.52 2.22 1.28 5.17 1.28 4.49 0 7.04-2.22l2.05 2.33q-1.53 1.53-3.95 2.39-2.41.85-5.25.85m-.97-25.11q-3.75 0-6.1 2.45-2.36 2.44-2.81 6.47h16.81q.05-4.09-2.13-6.5-2.19-2.42-5.77-2.42m28.34 25.11q-3.01 0-5.39-1.17-2.39-1.16-3.75-3.63t-1.36-6.5v-16.42h3.57v15.85q0 4.77 2.16 6.64t5.4 1.88q2.21 0 4.09-1 1.87-.99 3.04-2.95 1.16-1.96 1.16-4.97v-15.45h3.52v27.15h-3.29v-4.49q-1.65 2.84-4.26 3.95t-4.89 1.11m29.54-.57-14.88-39.76h3.97l12.95 35.05 12.95-35.05h4.03l-14.99 39.76zm32.32.57q-3.98 0-7.05-1.79t-4.77-4.94-1.7-7.3v-.57q0-3.97 1.59-7.04t4.4-4.86 6.56-1.79q3.8 0 6.53 1.88t4.01 5.28.76 7.95h-20.27q.11 2.78 1.39 5.03 1.28 2.24 3.49 3.52 2.22 1.28 5.17 1.28 4.49 0 7.04-2.22l2.05 2.33q-1.54 1.53-3.95 2.39-2.42.85-5.25.85m-.97-25.11q-3.75 0-6.11 2.45-2.35 2.44-2.81 6.47h16.81q.06-4.09-2.13-6.5t-5.76-2.42m30.16 25.11q-4.03 0-7.16-1.76t-4.88-4.86-1.76-7.18v-.74q0-4.03 1.79-7.13t4.88-4.86 7.13-1.76q2.95 0 5.34 1.05t4.09 2.93l-2.28 2.27q-2.78-2.9-7.21-2.9-2.95 0-5.25 1.31t-3.61 3.66q-1.3 2.36-1.3 5.43v.74q0 3.12 1.33 5.48 1.33 2.35 3.63 3.66 2.31 1.31 5.26 1.31 4.43 0 7.27-2.9l2.21 2.27q-1.7 1.88-4.11 2.93t-5.37 1.05m24.48-.57q-1.82 0-3.41-.74t-2.61-2.24-1.03-3.89v-17.1h-5.05v-3.18h5.05v-6.76h3.58v6.76h7.56v3.18h-7.56v17.32q0 1.54 1.03 2.53 1.02 1 2.49 1h4.04v3.12zm20.9.57q-3.86 0-6.87-1.79t-4.72-4.94-1.7-7.3v-.51q0-4.03 1.7-7.13 1.71-3.1 4.72-4.86t6.87-1.76q3.8 0 6.81 1.76t4.72 4.83 1.7 7.04v.63q0 4.15-1.7 7.3-1.71 3.15-4.72 4.94t-6.81 1.79m0-3.24q2.84 0 5-1.39 2.15-1.39 3.38-3.81 1.22-2.41 1.22-5.59v-.63q0-3.06-1.22-5.39-1.23-2.33-3.38-3.66-2.16-1.34-5-1.34t-5.03 1.36-3.43 3.72-1.25 5.43v.51q0 3.18 1.25 5.59 1.25 2.42 3.43 3.81t5.03 1.39m20.33 2.67v-27.15h3.52v4.43q1.03-2.61 3.04-3.55 2.02-.94 4.57-.94h2.33v3.58h-2.61q-3.35 0-5.28 1.74-1.93 1.73-1.93 5.42v16.47zm-302.27-17.8v-2.96h37.82l-15.56-15.56h4.43l17.04 17.15-17.04 16.87h-4.26l15.62-15.5z"/><rect width="445.09" height="99.48" x="784.86" y="720.34" fill="none" stroke="#fc9869" stroke-width="3" rx="49.74" ry="49.74"/><path fill="#fc9869" d="M849.49 784.55v-27.61h-9.35v-2.54h21.62v2.54h-9.39v27.61zm19.16 0v-2.15h8.4v-16.28h-8.18v-2.16h10.94v18.44h7.75v2.15zm8.36-24.38-4.39-6.16h3.7l3.53 6.16zm15.63 24.38v-20.59h2.33v2.93q.73-1.94 2.05-2.65t2.64-.71q1.68 0 2.72.82 1.03.82 1.55 2.24.64-1.38 1.94-2.22t2.92-.84q2.37 0 3.71 1.62 1.33 1.61 1.33 4.45v14.95h-2.41v-14.99q0-1.72-.92-2.73-.93-1.02-2.44-1.02-1.59 0-2.6 1.06-1.02 1.05-1.02 2.69v14.99h-2.41v-14.99q0-1.72-.84-2.73-.84-1.02-2.39-1.02-1.46 0-2.6 1.15-1.14 1.14-1.14 3.76v13.83zm54.1 0v-31.44h2.63v14.9q.73-1.68 1.89-2.67 1.17-.99 2.48-1.4t2.56-.41q3.45 0 5.43 2.22t1.98 6.78v12.02H961v-11.89q0-3.66-1.49-5.25-1.49-1.6-3.98-1.6-2.59 0-4.31 1.75-1.72 1.74-1.72 5.1v11.89zm26.14 0v-2.15h8.4v-16.28h-8.18v-2.16h10.94v18.44h7.75v2.15zm8.1-25.33v-4.65h3.36v4.65zm27.35 25.76q-2.97 0-5.17-1.33-2.19-1.34-3.4-3.73t-1.21-5.58v-.43q0-3.06 1.17-5.38 1.16-2.33 3.23-3.66 2.06-1.34 4.82-1.34 2.84 0 4.82 1.42t2.91 4.03.54 6.18h-14.73q.13 3.49 2 5.54t5.11 2.04q1.55 0 2.97-.49 1.42-.5 2.37-1.4l1.46 1.68q-1.07 1.12-2.95 1.78-1.87.67-3.94.67m-.56-19.29q-2.84 0-4.54 2t-1.92 5.32h12.1q.18-3.41-1.38-5.37-1.55-1.95-4.26-1.95m-1.03-13.1q.99-.9 1.48-1.59.5-.69.5-1.38 0-.73-.58-1.21-.58-.47-1.53-.47-.69 0-1.51.22-.82.21-1.55.64v-1.81q.82-.51 1.81-.75t1.85-.24q1.81 0 2.87.88 1.05.89 1.05 2.31 0 1.81-1.98 3.4zm-5.9 7.58 5.29-6.03h3.23l5.26 6.03h-2.8l-4.14-4.22-4.04 4.22zm31.39 24.81q-3.44 0-5.4-2.22t-1.96-6.78v-12.02h2.71v11.89q0 3.66 1.47 5.25 1.46 1.6 3.92 1.6 2.58 0 4.33-1.75 1.74-1.74 1.74-5.1v-11.89h2.71v20.59h-2.58v-4.05q-.73 1.68-1.9 2.67-1.16.99-2.49 1.4t-2.55.41m55.31-.43q-1.38 0-2.59-.56-1.2-.56-1.98-1.7-.77-1.14-.77-2.95v-13.22h-7.8v-2.16h7.8v-7.28h2.71v7.28h10.04v2.16h-10.04v13.65q0 1.12.78 1.87.77.76 1.89.76h7.37v2.15zm15.55 0v-31.44h2.62v14.9q.74-1.68 1.9-2.67t2.47-1.4 2.57-.41q3.44 0 5.42 2.22 1.99 2.22 1.99 6.78v12.02h-2.72v-11.89q0-3.66-1.48-5.25-1.49-1.6-3.99-1.6-2.58 0-4.3 1.75-1.73 1.74-1.73 5.1v11.89zm35.53.43q-2.97 0-5.17-1.33-2.2-1.34-3.4-3.73-1.21-2.39-1.21-5.58v-.43q0-3.06 1.16-5.38 1.17-2.33 3.24-3.66 2.06-1.34 4.82-1.34 2.84 0 4.82 1.42t2.91 4.03.54 6.18h-14.73q.13 3.49 2 5.54t5.11 2.04q1.55 0 2.97-.49 1.42-.5 2.37-1.4l1.46 1.68q-1.08 1.12-2.95 1.78-1.87.67-3.94.67m-.56-19.29q-2.84 0-4.54 2t-1.92 5.32h12.1q.17-3.41-1.38-5.37-1.55-1.95-4.26-1.95m-6.94-5.52 5.3-6.16h3.23l5.26 6.16h-2.8l-4.14-4.3-4.05 4.3zm22.1 24.38v-20.59h2.33v2.93q.73-1.94 2.04-2.65 1.32-.71 2.65-.71 1.68 0 2.71.82 1.04.82 1.55 2.24.65-1.38 1.94-2.22t2.93-.84q2.37 0 3.71 1.62 1.33 1.61 1.33 4.45v14.95H1172v-14.99q0-1.72-.93-2.73-.92-1.02-2.43-1.02-1.59 0-2.61 1.06-1.01 1.05-1.01 2.69v14.99h-2.41v-14.99q0-1.72-.84-2.73-.84-1.02-2.39-1.02-1.47 0-2.61 1.15-1.14 1.14-1.14 3.76v13.83z"/><svg xmlns="http://www.w3.org/2000/svg" xmlns:c2pa="http://c2pa.org/manifest" width="468.39" height="108" x="1355.61" y="876" viewBox="0 0 210.39 38.09"><path fill="#fff" d="M208.46 27.03h-13.55a1.9 1.9 0 0 1-1.9-1.9v-6.85h13.09a2.04 2.04 0 1 0 0-4.07H193V7.47c0-1.04.85-1.9 1.9-1.9h13.55a2.14 2.14 0 1 0 0-4.27H194.9a6.2 6.2 0 0 0-6.17 6.17v17.66a6.2 6.2 0 0 0 6.17 6.17h13.55a2.14 2.14 0 1 0 0-4.27M168.6 14.27q-4.3-.78-5.97-1.84-1.68-1.06-1.68-2.87 0-1.94 1.72-3.19 1.72-1.24 4.85-1.24 3.16 0 5.06 1.22 1.03.66 1.87 1.75A2.32 2.32 0 1 0 178 5.14a12 12 0 0 0-3.5-2.73q-2.92-1.5-7.04-1.5-3.53 0-6.18 1.23-2.65 1.22-4.05 3.3a8 8 0 0 0-1.4 4.62q0 2.4 1.1 4.07 1.12 1.68 3.56 2.8 2.44 1.14 6.56 1.9 4.12.78 5.77 1.77 1.66 1 1.65 2.62 0 2.05-1.83 3.15-1.83 1.11-5.04 1.11-3.4 0-5.68-1.27a9 9 0 0 1-2.34-1.92 2.3 2.3 0 0 0-3.37-.09v.01a2.3 2.3 0 0 0-.12 3.16q3.87 4.32 11.55 4.32 3.53 0 6.22-1.07 2.7-1.06 4.19-3.05t1.5-4.62q0-2.44-1.1-4.09-1.08-1.65-3.46-2.76t-6.4-1.83m-66.83 0q-4.3-.77-5.97-1.83-1.68-1.06-1.68-2.87 0-1.95 1.72-3.2t4.84-1.24q3.17 0 5.07 1.23 1.03.66 1.87 1.75a2.32 2.32 0 1 0 3.56-2.96 12 12 0 0 0-3.5-2.73q-2.92-1.5-7.04-1.5-3.53 0-6.18 1.23-2.65 1.22-4.05 3.3a8 8 0 0 0-1.4 4.62q0 2.4 1.1 4.07 1.12 1.68 3.56 2.8 2.44 1.14 6.56 1.9 4.12.78 5.77 1.77 1.65 1 1.65 2.63 0 2.03-1.83 3.14t-5.05 1.11q-3.4 0-5.68-1.27a9 9 0 0 1-2.33-1.92 2.3 2.3 0 0 0-3.37-.09v.01a2.3 2.3 0 0 0-.12 3.16q3.87 4.32 11.55 4.32 3.53 0 6.22-1.07t4.19-3.05 1.5-4.62q0-2.44-1.1-4.1t-3.46-2.75-6.4-1.83m44.57-10.92v16.43q0 5.88-3.12 8.89t-9.1 3.01-9.1-3.01q-3.11-3.01-3.11-8.9V3.37a2.44 2.44 0 0 1 4.88 0V19.2q0 4.25 1.8 6.27t5.54 2.01 5.54-2.01 1.79-6.27V3.36a2.44 2.44 0 0 1 4.88 0"/><path fill="#30ba78" d="M71.54 11.56a1.2 1.2 0 0 0-1.74 0 1.23 1.23 0 0 0 .2 1.9c.4.27.94.27 1.35 0a1.24 1.24 0 0 0 .2-1.9m-1.6-4.18a4.55 4.55 0 0 0-5.46 5.47 4.6 4.6 0 0 0 3.4 3.39 4.54 4.54 0 0 0 5.45-5.47 4.6 4.6 0 0 0-3.39-3.38M48.27 25.87c-2.14-.79-2.97-.63-5.7-.6-1.9.03-1.97-.03-4.13-.03-.67 0-.92 3.2 1.5 3.87 1.06.29 2.2.47 3 1.29.36.36.55.9-.26.9h-6c-1.06 0-2.05.02-2.85-.66-1.22-1.02-1.78-2.43-2.39-3.83a40 40 0 0 0-2.1-4.26c-1.6-2.72-3.69-5.19-6.5-6.7-3.52-1.88-9.48-2.81-14.2.81-4.97 3.82-3.9 10.97.45 14.47a9 9 0 0 0 6.16 1.83c4.3-.24 7.47-3.42 6.68-7.32a4.8 4.8 0 0 0-2.17-3.22 5.4 5.4 0 0 0-2.73-.64c-1.01 0-2.1.2-2.83.9-.86.85-1 2.33-.3 3.31.37.55 1 1 .89 1.72-.07.48-.47.84-.94.94-.81.18-1.55-.28-2.1-.84a5.3 5.3 0 0 1-1.06-5.59c1-2.42 3.8-3.76 6.43-3.67 3.39.11 6.58 2.34 7.97 5.44s.97 6.88-.94 9.68c-4.25 6.22-14.76 5.48-19.64.24C1.45 30.62-.2 27.43.02 21.5c.17-4.2 2.59-8.34 5.68-11.25A38.6 38.6 0 0 1 24.1.86 42 42 0 0 1 36.6.23a55 55 0 0 1 10.83 2.13 43 43 0 0 1 5.14 1.95c1.47.68 3.39 1.41 4.53 2.58 0-2.11-.08-4.43-.08-6.04a.85.85 0 0 1 1.2-.77c2.39 1.1 8.04 3.78 11.8 5.5 5.05 2.3 5.41 7.75 5.59 12.58q.01.16-.04.31c-.16.33-1.01.24-1.32.25-.6 0-1.52 0-2.12.03a38 38 0 0 1-3.59-.03 10.2 10.2 0 0 1-5.83-2.31c-.14-.13-.6-.26-.83-.03a.6.6 0 0 0-.02.73 10 10 0 0 0 2.77 1.91c1.32.68 2.77.86 4.24.94q2.36.15 4.71-.09c1.31-.13 1.65-.22.36.74a14 14 0 0 1-3.78 1.9c-1.92.65-3.94.97-5.96 1.02a23 23 0 0 1-3.65-.19c-.63-.07-1.25-.19-1.88-.25-.52-.05-1.05-.15-1.55-.04-.47.1-.9.35-1.19.73-.4.52-.53 1.95-.3 2.57.44 1.2 1.42 1.9 2.46 2.52 1.12.66 2.59.89 2.88 2.16.06.27-2.33.28-2.6.27H55.2s-1.72.04-2.39-.2l-.06-.03c-.36-.2-.52-.68-.64-1.05a7 7 0 0 0-.87-1.58 7 7 0 0 0-2.96-2.57m24-14.06a3.36 3.36 0 1 1-6.72 0 3.36 3.36 0 0 1 6.72 0"/></svg><path fill="rgba(255,255,255,0.85)" d="M1695.95 1050H1912v22h-216.05z"/><path fill="none" stroke="#c0392b" d="M1696.45 1050.5h215.05v21h-215.05z"/><text x="1704.95" y="1055" fill="#c0392b" dominant-baseline="text-before-edge" font-family="monospace" font-size="10" font-weight="700">EXPERIMENTAL — NOT BRAND APPROVED</text></svg>