<svg xmlns="http://www.w3.org/2000/svg" width="1920" height="1080" viewBox="0 0 1920 1080"><path fill="#0c322c" d="M0 0h1920v1080H0z"/><path fill="#30ba78" d="M0 0h687.36v1080H0z"/><path fill="#0c322c" d="M96.4 574.83q-9.47 0-16.74-3.4t-12.06-9.27l5.6-5.73q9.33 10.8 23.6 10.8 10.13 0 15.99-5.14 5.87-5.13 5.87-13.53 0-5.73-2.67-9.2t-7.06-5.53-9.6-3.53-10.47-3.07-9.66-4.13-7.07-6.87q-2.66-4.33-2.66-11.26 0-8 3.8-13.93 3.79-5.94 10.59-9.2 6.8-3.27 16-3.27 8 0 14.33 2.6t10.6 7.13l-5.73 5.87q-3.87-4-8.6-6t-10.6-2q-9.86 0-15.73 5t-5.87 13q0 5.46 2.67 8.66t7.13 5.14q4.47 1.93 9.74 3.26 5.26 1.34 10.53 2.94t9.66 4.26 7.14 7.2q2.73 4.53 2.73 11.73 0 8.54-4 14.67t-11.07 9.46-16.39 3.34m79.19 0q-15.6 0-24.87-8.47-9.26-8.46-9.26-24.2v-62.12h8.8v61.59q0 11.87 6.93 18.4t18.4 6.53q11.59 0 18.46-6.53t6.87-18.4v-61.59h8.8v62.12q0 15.74-9.27 24.2-9.27 8.47-24.86 8.47m76.65 0q-9.46 0-16.73-3.4t-12.06-9.27l5.6-5.73q9.33 10.8 23.59 10.8 10.14 0 16-5.14 5.87-5.13 5.87-13.53 0-5.73-2.67-9.2t-7.06-5.53-9.6-3.53-10.47-3.07-9.66-4.13-7.07-6.87-2.67-11.26q0-8 3.8-13.93 3.8-5.94 10.6-9.2 6.8-3.27 16-3.27 8 0 14.33 2.6t10.6 7.13l-5.73 5.87q-3.87-4-8.6-6t-10.6-2q-9.87 0-15.73 5t-5.87 13q0 5.46 2.67 8.66t7.13 5.14 9.73 3.26q5.27 1.34 10.54 2.94t9.66 4.26 7.13 7.2 2.74 11.73q0 8.54-4 14.67t-11.07 9.46-16.4 3.34m59.6-1.47q-6.27 0-10.4-4.13t-4.14-10.27v-64.52q0-6.14 4.07-10.27t10.47-4.13h41.72v8.13h-39.19q-3.6 0-5.93 2.4-2.34 2.4-2.34 5.87v26.26h44.66v7.87H306.1v26.39q0 3.47 2.34 5.87t5.93 2.4h39.19v8.13zm97.98 1.47q-9.86 0-18.46-3.34t-15.07-9.6q-6.46-6.26-10.13-14.86-3.66-8.6-3.66-19.13v-2.4q0-10.53 3.66-19.13t10.13-14.87 15.07-9.6 18.46-3.33q8.4 0 15.67 2.4t12.86 6.93l-5.6 6.67q-9.46-7.33-22.93-7.33-10.79 0-19.46 4.8t-13.67 13.39q-4.99 8.6-4.99 20.07v2.4q0 11.46 4.99 20.06t13.67 13.4 19.46 4.8q13.74 0 23.2-7.73l5.6 6.8q-5.73 4.66-13.13 7.13t-15.67 2.47m77.33 0q-12.93 0-23.07-6.07t-15.86-16.86-5.73-25.07v-1.2q0-14 5.73-24.59t15.86-16.54q10.14-5.93 23.07-5.93 13.06 0 23.13 5.93 10.06 5.94 15.8 16.54t5.73 24.59v1.2q0 14.27-5.73 25.07-5.74 10.79-15.8 16.86t-23.13 6.07m0-8.67q10.4 0 18.4-4.93t12.59-13.73q4.6-8.8 4.6-20.67v-1.2q0-11.46-4.6-20.13t-12.59-13.46q-8-4.8-18.4-4.8t-18.47 4.8-12.59 13.46q-4.54 8.67-4.54 20.13v1.2q0 11.87 4.54 20.67t12.59 13.73q8.07 4.93 18.47 4.93m60.39 7.2v-93.32h8.53l50.53 78.12v-78.12h8.8v93.32h-8.53l-50.4-77.99v77.99zM71.47 704v-6.67l35.19-35.46q7.87-8 10.47-13.73t2.6-10.93q0-9.07-5.27-14.27t-14.33-5.2q-6.8 0-12.73 3.67t-10.2 10.33l-5.87-5.46q4.93-8 12.6-12.47t16.47-4.47q13.06 0 20.73 7.47t7.66 19.73q0 4.27-1.33 8.87t-4.8 9.93-9.73 11.73l-28.67 28.8h48.13V704zm107.18 1.33q-10.4 0-17.86-5.73-7.47-5.73-11.53-16.46-4.07-10.74-4.07-25.67 0-15.06 4.07-25.79 4.06-10.74 11.53-16.54t17.86-5.8 17.87 5.8q7.46 5.8 11.53 16.54t4.06 25.79q0 14.93-4.06 25.67-4.07 10.73-11.53 16.46-7.47 5.73-17.87 5.73m0-8.13q11.47 0 18-10.46t6.53-29.27q0-18.93-6.53-29.46t-18-10.53q-11.6 0-18.06 10.53-6.47 10.53-6.47 29.46 0 18.8 6.47 29.27t18.06 10.46m46.13 6.8v-6.67l35.2-35.46q7.86-8 10.46-13.73t2.6-10.93q0-9.07-5.27-14.27t-14.33-5.2q-6.8 0-12.73 3.67t-10.2 10.33l-5.86-5.46q4.93-8 12.6-12.47t16.46-4.47q13.06 0 20.73 7.47t7.67 19.73q0 4.27-1.34 8.87-1.33 4.6-4.8 9.93t-9.73 11.73l-28.66 28.8h48.13V704zm108.12 1.33q-9.87 0-17.06-3.8-7.2-3.8-11.07-10.86-3.87-7.07-3.87-16.53 0-6.27 2.14-11.93 2.13-5.67 5.73-10.87l28.66-40.66h10.8l-26.4 35.99q3.07-1.46 6.27-2.13t6.53-.67q8.8 0 15.6 3.94t10.67 10.86 3.86 15.87q0 9.2-4.06 16.13-4.07 6.93-11.27 10.8-7.2 3.86-16.53 3.86m-.13-7.86q6.8 0 12-2.94t8.13-8.06q2.93-5.13 2.93-11.93t-2.93-12-8.07-8.13-11.8-2.94q-10.53 0-16.93 6.4t-6.4 16.67q0 10.4 6.27 16.66t16.8 6.27"/><svg xmlns="http://www.w3.org/2000/svg" xmlns:c2pa="http://c2pa.org/manifest" width="261.19" height="69" x="62" y="62" viewBox="0 0 210.18 37.67"><path fill="#fff" d="M194.7 30.87a5.96 5.96 0 0 1-5.96-5.96V7.26a5.97 5.97 0 0 1 5.96-5.96h13.55c1.07 0 1.93.86 1.93 1.92a1.93 1.93 0 0 1-1.93 1.92H194.7a2.1 2.1 0 0 0-2.1 2.11v6.95h13.29c1 0 1.82.82 1.82 1.83a1.83 1.83 0 0 1-1.82 1.82h-13.3v7.06a2.1 2.1 0 0 0 2.1 2.11h13.56c1.07 0 1.93.87 1.93 1.93a1.93 1.93 0 0 1-1.93 1.92zm-60.78.39c-3.91 0-6.92-1-8.95-2.95s-3.06-4.9-3.06-8.74V3.14c0-1.23 1-2.23 2.23-2.23a2.23 2.23 0 0 1 2.23 2.23v15.84q0 4.34 1.84 6.41 1.86 2.08 5.7 2.09 3.86 0 5.7-2.09c1.23-1.37 1.85-3.53 1.85-6.4V3.13A2.24 2.24 0 0 1 143.69.9a2.23 2.23 0 0 1 2.23 2.23v16.43c0 3.84-1.03 6.78-3.06 8.74s-5.04 2.95-8.94 2.95m33.52 0c-5.03 0-8.87-1.43-11.4-4.25a2.1 2.1 0 0 1 .11-2.86l.01-.01.01-.01a2 2 0 0 1 1.5-.62c.6 0 1.16.26 1.55.7a9 9 0 0 0 2.4 1.97q2.33 1.3 5.78 1.3 3.26 0 5.15-1.14A3.7 3.7 0 0 0 174.5 23q-.01-1.74-1.76-2.8c-1.13-.69-3.04-1.27-5.84-1.8q-4.08-.76-6.5-1.88a8 8 0 0 1-3.47-2.73 7 7 0 0 1-1.08-3.96 8 8 0 0 1 1.37-4.5 9.4 9.4 0 0 1 3.96-3.23q2.6-1.2 6.1-1.2 4.06 0 6.93 1.47a12 12 0 0 1 3.45 2.68c.77.86.7 2.2-.16 2.97a2.1 2.1 0 0 1-3.08-.28 8 8 0 0 0-1.92-1.8q-1.96-1.25-5.18-1.25-3.19 0-4.97 1.28a4 4 0 0 0-1.8 3.36q0 1.92 1.77 3.06c1.14.72 3.12 1.33 6.04 1.86q4 .72 6.35 1.81a8 8 0 0 1 3.38 2.69 7 7 0 0 1 1.05 3.98q0 2.55-1.45 4.49a9 9 0 0 1-4.1 2.98q-2.64 1.05-6.14 1.05m-66.83 0c-5.03 0-8.87-1.42-11.4-4.24a2.1 2.1 0 0 1 .11-2.87l.02-.01a2.1 2.1 0 0 1 3.05.08 9 9 0 0 0 2.4 1.97q2.33 1.3 5.78 1.3 3.27 0 5.15-1.15a3.7 3.7 0 0 0 1.94-3.32q-.01-1.75-1.76-2.8c-1.13-.69-3.04-1.28-5.84-1.8q-4.08-.76-6.51-1.88a8 8 0 0 1-3.46-2.73A7 7 0 0 1 89 9.85a8 8 0 0 1 1.37-4.5 9.4 9.4 0 0 1 3.96-3.23q2.61-1.2 6.09-1.2 4.07 0 6.94 1.47a12 12 0 0 1 3.45 2.68 2.1 2.1 0 0 1-1.57 3.51 2.1 2.1 0 0 1-1.67-.82 8 8 0 0 0-1.92-1.8q-1.96-1.25-5.18-1.26-3.2 0-4.97 1.29a4 4 0 0 0-1.8 3.36q0 1.92 1.76 3.05c1.15.73 3.13 1.34 6.06 1.87a27 27 0 0 1 6.35 1.81 8 8 0 0 1 3.37 2.69 7 7 0 0 1 1.05 3.98q0 2.55-1.45 4.48a9 9 0 0 1-4.1 3q-2.64 1.04-6.14 1.04M70.97 11.39a1.17 1.17 0 0 0-1.68 0 1.2 1.2 0 0 0 .19 1.83c.39.25.9.25 1.3 0a1.2 1.2 0 0 0 .19-1.83m-1.56-4.2a4.55 4.55 0 0 0-5.46 5.47 4.6 4.6 0 0 0 3.4 3.4 4.55 4.55 0 0 0 5.46-5.47 4.6 4.6 0 0 0-3.4-3.4M14.6 37.68c-3.9 0-7.78-1.58-10.14-4.12C1.54 30.44-.21 27.29.02 21.29c.15-3.78 2.25-7.93 5.61-11.1A38 38 0 0 1 23.93.85a41 41 0 0 1 8.25-.83q2.1 0 4.17.2c3.87.4 7.5 1.1 10.8 2.13a42 42 0 0 1 5.1 1.94l.71.32c1.33.59 2.83 1.25 3.77 2.21l.36.37v-.52q0-1.7-.04-3.4Q57.01 1.8 57 .64c0-.4.33-.64.64-.64q.14 0 .26.06l3.14 1.47c2.72 1.27 6.1 2.86 8.67 4.03a8.2 8.2 0 0 1 4.5 5.22c.72 2.18.86 4.63.96 7.17q0 .14-.02.21c-.02.03-.1.14-.68.14h-.98c-.54 0-1.15 0-1.6.02a31 31 0 0 1-3.57-.03c-2-.1-4.13-.94-5.7-2.26-.14-.12-.4-.2-.62-.2a.7.7 0 0 0-.5.2.8.8 0 0 0-.02 1.02 10.4 10.4 0 0 0 7.15 2.91 32 32 0 0 0 4.74-.1l.24-.01q.3-.04.52-.05l-.55.43a13 13 0 0 1-3.72 1.86 20 20 0 0 1-5.9 1.02h-.61q-1.5 0-3-.19l-.79-.1q-.54-.1-1.1-.15l-.27-.03a7 7 0 0 0-.79-.06q-.3 0-.56.05a2.2 2.2 0 0 0-1.3.8c-.46.6-.59 2.13-.34 2.78.48 1.31 1.57 2.04 2.55 2.63q.48.28.99.49c.81.36 1.52.68 1.75 1.41-.3.08-1.21.14-2.22.14H54.7c-.96 0-1.7-.07-2.04-.2h-.03c-.29-.16-.43-.58-.54-.93v-.01a7 7 0 0 0-.9-1.64 7 7 0 0 0-3.06-2.64 9 9 0 0 0-3.56-.65l-1.15.02-1.07.02h-.79l-1.28-.01c-.49-.01-1.05-.03-2.05-.03-.33 0-.57.35-.65.94-.14 1.07.3 2.85 2.1 3.35l.49.13c.87.22 1.78.45 2.41 1.1.2.21.27.4.24.46-.01.03-.1.09-.35.09h-6.22c-1.04 0-1.83-.05-2.5-.6-1.11-.95-1.66-2.21-2.23-3.55l-.1-.22a40 40 0 0 0-2.11-4.28c-1.83-3.13-4.04-5.42-6.58-6.78-2-1.07-4.5-1.68-6.84-1.68-2.82 0-5.45.87-7.59 2.51a8.5 8.5 0 0 0-3.38 6.77 10.4 10.4 0 0 0 3.82 8.04 9 9 0 0 0 5.7 1.9q.3 0 .6-.03a7.8 7.8 0 0 0 5.8-2.82 5.8 5.8 0 0 0 1.1-4.75 5 5 0 0 0-2.28-3.36 5.6 5.6 0 0 0-2.84-.68h-.02q-1.96 0-2.95.98c-.94.9-1.09 2.5-.34 3.57l.32.41c.33.38.6.72.54 1.16a1 1 0 0 1-.78.76l-.31.04c-.65 0-1.22-.44-1.58-.82a5.1 5.1 0 0 1-1.03-5.36c1.02-2.45 3.75-3.55 6-3.55h.23a9.1 9.1 0 0 1 7.79 5.32 10 10 0 0 1-.93 9.48c-1.88 2.75-5.22 4.33-9.16 4.33m57.07-26.05a3.3 3.3 0 1 1-6.6 0 3.3 3.3 0 1 1 6.6 0"/></svg><path fill="#fff" d="M791.86 208.52v-80.41h14.59l35.15 51.69v-51.69h16.2v80.41h-14.25l-35.38-51.92v51.92zm100.51 1.15q-9.42 0-15.56-5.69-6.15-5.68-6.15-16.94v-34.81h15.17v31.82q0 6.55 2.81 9.13t7.18 2.59q4.71 0 7.81-2.99 3.1-2.98 3.1-9.19v-31.36h15.17v56.29h-13.21v-6.2q-3.45 4.48-8.1 5.91-4.66 1.44-8.22 1.44m8.5-68.35v-15.74h15.17v15.74zm-24.46 0v-15.74h15.16v15.74zm59.16 67.2v-56.29h14.81v7.81q2.07-4.71 6.03-6.49t8.91-1.78h4.36v15.05h-5.74q-6.32 0-9.71 2.76t-3.39 7.92v31.02zm42.73 0v-56.29H993v6.32q3.45-4.48 8.04-5.97 4.6-1.5 8.16-1.5 9.53 0 15.22 6.26t5.69 17.52v33.66h-15.28v-31.25q0-6.43-2.76-9.36t-7.24-2.93q-4.82 0-8.04 3.22t-3.21 9.53v30.79zm96.15 1.15q-5.29 0-9.71-2.01t-7.75-5.57v6.43h-13.79v-83.86h15.28v32.63q3.1-2.99 7.12-4.6t8.73-1.61q7.58 0 13.61 3.62t9.59 10.11 3.57 14.99v1.15q0 8.62-3.51 15.11t-9.47 10.05q-5.98 3.56-13.67 3.56m-2.42-13.33q5.63 0 9.71-4.07t4.08-11.32v-1.15q0-7.23-4.08-11.31t-9.71-4.08q-6.2 0-10.39 4.25t-4.2 11.72q0 7.58 4.2 11.77t10.39 4.19m64.91 13.33q-8.62 0-15.05-3.62t-10.05-10.11-3.62-15.22v-1.15q0-7.92 3.39-14.41t9.47-10.29 14.36-3.79q8.62 0 14.71 4.2 6.08 4.19 8.9 11.83 2.81 7.64 1.55 17.98h-37.1q.57 5.17 4.19 8.44t9.94 3.27q4.25 0 6.94-1.26t5-3.56l8.73 8.96q-3.44 4.36-8.96 6.55-5.51 2.18-12.4 2.18m-1.5-46.64q-5.17 0-8.04 3.27t-3.79 8.56h22.4q-.23-5.74-3.16-8.79t-7.41-3.04m35.73 45.49v-56.29h14.82v7.81q2.06-4.71 6.03-6.49 3.96-1.78 8.9-1.78h4.36v15.05h-5.74q-6.32 0-9.71 2.76-3.38 2.76-3.38 7.92v31.02zm37.68 22.97v-12.52h34.34q4.25 0 4.25-3.79t-4.25-3.79h-20.21q-4.37 0-6.9-2.24-2.52-2.24-2.93-5.74-.4-3.51 1.44-7.3l3.45-7q-4.14-2.88-6.49-7.07t-2.36-9.36v-1.15q0-5.97 3.22-10.57 3.21-4.59 8.96-7.23 5.74-2.65 13.09-2.65h.46l4.83-10.56h15.39l-7.35 13.32q5.51 2.53 8.73 7.12 3.21 4.6 3.21 10.46v1.26q0 6.09-3.21 10.86-3.22 4.76-8.9 7.4-5.69 2.65-13.16 2.65-2.18 0-4.25-.23l-2.18 4.36q-.35.69-.17 1.27.17.57 1.09.57h16.54q7.12 0 11.66 3.79t4.54 11.95q0 7-4.71 11.6t-12.18 4.59zm25.61-49.39q2.41 0 4.83-.92t3.96-3.04 1.55-5.92q0-4.02-2.87-6.49t-7.47-2.47q-4.59 0-7.46 2.47t-2.88 6.49q0 3.79 1.61 5.92t3.97 3.04 4.76.92m61.95.11v-12.63h11.26v12.63zm53.88 26.31v-8.96h21.13v-56.75q0-2.52-1.55-4.13t-4.07-1.61h-15.28v-8.96h17.69q5.63 0 9.19 3.62t3.56 9.13v58.7h20.9v8.96zm66.05 0v-7.24l29.64-29.86q6.2-6.32 8.38-10.97t2.18-9.02q0-7.12-4.19-11.2t-11.31-4.08q-5.52 0-10.34 3.04t-8.5 8.56l-6.32-6.09q4.36-6.77 11.03-10.74 6.66-3.96 14.47-3.96 7.58 0 13.21 2.93t8.73 8.27 3.1 12.35q0 5.86-2.81 12.18t-10.86 14.36l-22.4 22.62h39.29v8.85zm67.43 0v-12.64h11.26v12.64zm17.34-27.68v-8.73h45.95v8.73zm61.23 27.68v-8.96h21.14v-56.75q0-2.52-1.55-4.13t-4.08-1.61h-15.28v-8.96h17.69q5.63 0 9.19 3.62t3.56 9.13v58.7h20.91v8.96zm63.53-19.53v-8.04l26.76-52.84h9.88l-26.08 52.15h26.54v-21.59h9.42v21.59h12.63v8.73h-12.63v19.53h-9.42v-19.53zm69.95 19.53v-12.64h11.26v12.64zM793.35 352.11V271.7h13.1l23.2 48.13 23.09-48.13h13.1v80.41h-9.54v-67.77l-22.86 48.59h-7.69L803 284.34v67.77zm106.26 1.15q-9.42 0-15.11-4.6t-5.68-11.94q0-4.83 2.87-8.62t7.87-6.03 11.2-2.24q9.07 0 14.47 3.79v-6.89q0-6.78-3.5-9.71t-9.48-2.93q-4.48 0-9.13 1.67-4.65 1.66-7.98 5.11l-4.37-6.55q3.68-4.25 9.65-6.43t12.29-2.18q9.77 0 15.74 5.17t5.97 15.39v17.69q0 9.19.35 18.15h-8.27l-.12-5.51q-5.17 6.66-16.77 6.66m2.41-7.01q6.32 0 9.82-2.64t3.51-6.89-3.51-6.84q-3.5-2.58-9.93-2.58-6.32 0-10 2.58t-3.67 6.84q0 4.13 3.73 6.83t10.05 2.7m42.05 5.86V304.9h-10.8v-8.04h19.99v55.25zm-.58-67.43v-13.33h10.34v13.33zM790.33 527.27v-53.61h17.46q7.43 0 13.32 3.3t9.31 9.07 3.41 13.36v.92q0 5.9-1.99 10.84-2 4.94-5.52 8.58t-8.23 5.59-10.3 1.95zm17.15-48.78h-12.02v43.96h12.02q6.05 0 10.84-2.84t7.54-7.81q2.76-4.98 2.76-11.49v-.92q0-6.2-2.76-10.91t-7.54-7.35-10.84-2.64m35.84 48.78v-36.61h4.75v5.98q1.38-3.53 4.1-4.79t6.16-1.26h3.14v4.82h-3.52q-4.52 0-7.12 2.34t-2.61 7.31v22.21zm39.6.77q-5.36 0-9.5-2.42t-6.43-6.66-2.3-9.84v-.77q0-5.36 2.14-9.49t5.94-6.55 8.84-2.41q5.14 0 8.81 2.53t5.4 7.12 1.03 10.72h-27.34q.16 3.75 1.88 6.78 1.72 3.02 4.71 4.74t6.97 1.73q6.05 0 9.5-2.99l2.75 3.14q-2.07 2.07-5.32 3.22t-7.08 1.15m-1.31-33.85q-5.05 0-8.23 3.29t-3.79 8.73h22.67q.08-5.51-2.87-8.77t-7.78-3.25m27.04 33.08v-32.32h-7.35v-4.29h12.17v36.61zm-.31-45.03v-8.27h5.44v8.27zm44.65 45.03v-48.94h-16.62v-4.67h38.44v4.67h-16.69v48.94zm32.47.77q-6.36 0-10.11-2.99t-3.75-7.81q0-3.22 1.84-5.67 1.83-2.45 5.09-3.87 3.25-1.41 7.46-1.41 3.37 0 5.94.8t4.33 2.26v-5.67q0-4.97-2.53-7.16-2.53-2.18-6.82-2.18-3.06 0-6.24 1.11t-5.32 3.56l-2.37-3.44q2.45-2.84 6.28-4.26 3.82-1.41 7.88-1.41 6.28 0 10.11 3.37t3.83 10.18v11.64q0 6.13.23 12.18h-4.36l-.08-3.98q-3.29 4.75-11.41 4.75m1.15-3.76q4.67 0 7.16-1.99t2.49-5.05q0-3.14-2.53-5.06t-7.2-1.91q-4.59 0-7.27 1.91-2.68 1.92-2.68 5.06 0 3.06 2.68 5.05t7.35 1.99m22.13 18.31v-4.14h21.67q2.99 0 4.71-1.49 1.72-1.5 1.72-4.1 0-2.45-1.72-3.83t-4.71-1.38h-11.64q-2.83 0-4.29-1.34-1.45-1.34-1.61-3.33-.15-1.99.85-3.9l2.52-5.06q-2.83-1.68-4.48-4.48-1.64-2.79-1.64-6.24v-.69q0-3.75 1.95-6.62t5.44-4.48 8-1.61q1.15 0 2.14.07l3.91-7.96h4.9l-4.67 8.81q4.14 1.38 6.62 4.44t2.49 7.12v.92q0 3.83-1.95 6.78t-5.44 4.63-8 1.69q-2.83 0-5.36-.69l-1.99 3.83q-.38.84-.5 1.79t.5 1.65 2.14.69h10.72q4.68 0 7.55 2.37t2.87 6.82q0 4.37-2.91 7.05t-7.74 2.68zm16.77-30.1q2.45 0 4.9-.88t4.1-2.95 1.65-5.82q0-3.98-2.99-6.43t-7.66-2.45-7.66 2.45-2.98 6.43q0 3.68 1.68 5.78 1.69 2.11 4.17 2.99 2.49.88 4.79.88m40.36 15.55q-5.36 0-9.5-2.42t-6.43-6.66-2.3-9.84v-.77q0-5.36 2.15-9.49t5.93-6.55 8.85-2.41q5.13 0 8.8 2.53t5.4 7.12 1.04 10.72h-27.34q.15 3.75 1.87 6.78 1.73 3.02 4.71 4.74 2.99 1.73 6.97 1.73 6.05 0 9.5-2.99l2.76 3.14q-2.07 2.07-5.33 3.22-3.25 1.15-7.08 1.15m-1.3-33.85q-5.06 0-8.24 3.29-3.17 3.29-3.79 8.73h22.67q.08-5.51-2.87-8.77t-7.77-3.25m43.8 33.08v-53.61h5.13v31.63l25.96-31.63h6.05l-18.84 22.98 20.53 30.63h-6.2l-17.69-26.5-9.81 12.03v14.47zm59.05.77q-5.36 0-9.5-2.42t-6.43-6.66-2.3-9.84v-.77q0-5.36 2.14-9.49t5.94-6.55 8.84-2.41q5.14 0 8.81 2.53t5.4 7.12 1.03 10.72h-27.34q.16 3.75 1.88 6.78 1.72 3.02 4.71 4.74t6.97 1.73q6.05 0 9.5-2.99l2.75 3.14q-2.07 2.07-5.32 3.22t-7.08 1.15m-1.31-33.85q-5.05 0-8.23 3.29t-3.79 8.73h22.67q.08-5.51-2.87-8.77t-7.78-3.25m19.53 48.4v-4.22h6.97q1.92 0 3.03-1.34t1.8-3.1l2.83-6.35-15.16-36.92h5.36l12.4 30.94 12.03-30.94h5.36l-17.85 43.43q-.84 2.06-2.03 4.02-1.18 1.95-3.1 3.21-1.91 1.27-4.9 1.27zm41.74-15.32v-36.61h4.67v6.51q1.46-2.75 3.64-4.32t4.56-2.26 4.44-.69q6.2 0 10.11 3.94 3.9 3.95 3.9 12.06v21.37h-4.9v-20.75q0-6.44-2.91-9.27t-7.35-2.83q-3.07 0-5.63 1.38t-4.1 4.05-1.53 6.74v20.68zm58.28.77q-5.21 0-9.27-2.42t-6.35-6.66-2.3-9.84v-.69q0-5.44 2.3-9.61t6.35-6.55 9.27-2.37q5.13 0 9.19 2.37t6.35 6.51 2.3 9.5v.84q0 5.59-2.3 9.84t-6.35 6.66-9.19 2.42m0-4.37q3.83 0 6.74-1.88t4.55-5.13q1.65-3.25 1.65-7.54v-.84q0-4.14-1.65-7.28-1.64-3.14-4.55-4.94t-6.74-1.8-6.78 1.84-4.63 5.02-1.69 7.31v.69q0 4.29 1.69 7.54 1.68 3.26 4.63 5.13t6.78 1.88m38.52 3.6q-2.45 0-4.6-1-2.14-.99-3.52-3.02t-1.38-5.25v-23.05h-6.81v-4.29h6.81v-9.11h4.83v9.11h10.18v4.29h-10.18v23.36q0 2.07 1.38 3.41t3.37 1.34h5.43v4.21zm28.49.77q-5.36 0-9.5-2.42t-6.43-6.66-2.3-9.84v-.77q0-5.36 2.14-9.49t5.94-6.55 8.84-2.41q5.14 0 8.81 2.53t5.4 7.12q1.72 4.59 1.03 10.72h-27.33q.15 3.75 1.87 6.78 1.72 3.02 4.71 4.74t6.97 1.73q6.05 0 9.5-2.99l2.75 3.14q-2.06 2.07-5.32 3.22-3.25 1.15-7.08 1.15m-1.31-33.85q-5.05 0-8.23 3.29t-3.79 8.73h22.67q.08-5.51-2.87-8.77t-7.78-3.25m34.31 33.77q-3.83 0-7.35-1.23-3.52-1.22-5.67-3.29l2.23-3.37q1.99 1.84 4.9 2.91t5.89 1.07q3.76 0 6.13-1.76t2.37-4.67q0-2.37-1.45-3.68-1.46-1.3-3.79-1.99t-4.9-1.34-4.87-1.68-3.75-2.95-1.45-5.36q0-4.75 3.52-7.74 3.52-2.98 9.42-2.98 3.37 0 6.32 1.03 2.95 1.04 5.17 2.72l-2.22 3.45q-1.92-1.53-4.29-2.38t-5.06-.84q-3.67 0-5.93 1.76t-2.26 4.6q0 2.37 1.45 3.63 1.46 1.27 3.79 2 2.34.72 4.94 1.37t4.94 1.73 3.79 3.06 1.46 5.44q0 4.59-3.72 7.54-3.71 2.95-9.61 2.95m20.91-.69v-7.05h6.05v12.87q0 2.83-1.68 4.02-1.69 1.19-3.68 1.19h-2.14v-3.07h2.14q1 0 1.53-.61.54-.61.54-1.61v-5.74zm32.62 15.32v-51.93h4.6v7.36q2.14-3.76 5.7-5.94t8.08-2.18q4.98 0 8.85 2.37t6.09 6.55 2.22 9.61v.69q0 5.59-2.18 9.88t-6.05 6.66-8.93 2.38q-4.36 0-7.88-2.07-3.53-2.07-5.59-5.67v22.29zm17.77-18.92q3.75 0 6.66-1.8t4.56-5.09 1.65-7.66v-.69q0-4.21-1.65-7.39t-4.56-4.98-6.66-1.8-6.74 1.88-4.71 5.17-1.72 7.66q0 4.44 1.72 7.73 1.73 3.29 4.71 5.13 2.99 1.84 6.74 1.84m27.34 3.6v-36.61h4.75v5.98q1.38-3.53 4.1-4.79t6.16-1.26h3.14v4.82h-3.52q-4.52 0-7.12 2.34t-2.61 7.31v22.21zm34.92.77q-6.35 0-10.11-2.99t-3.75-7.81q0-3.22 1.84-5.67t5.09-3.87 7.47-1.41q3.37 0 5.93.8 2.57.8 4.33 2.26v-5.67q0-4.97-2.53-7.16-2.52-2.18-6.81-2.18-3.07 0-6.24 1.11t-5.33 3.56l-2.37-3.44q2.45-2.84 6.28-4.26 3.83-1.41 7.89-1.41 6.28 0 10.11 3.37t3.82 10.18v11.64q0 6.13.23 12.18h-4.36l-.08-3.98q-3.29 4.75-11.41 4.75m1.15-3.76q4.67 0 7.16-1.99t2.49-5.05q0-3.14-2.53-5.06t-7.2-1.91q-4.59 0-7.27 1.91-2.68 1.92-2.68 5.06 0 3.06 2.68 5.05t7.35 1.99m26.19 2.99v-55.9h4.9v37.98l18.46-18.69h6.05l-14.25 14.55 15.7 22.06h-6.05l-13.09-18.53-6.82 6.97v11.56zm49.09 0q-2.45 0-4.59-1-2.15-.99-3.53-3.02t-1.38-5.25v-23.05h-6.81v-4.29h6.81v-9.11h4.83v9.11h10.18v4.29h-10.18v23.36q0 2.07 1.38 3.41t3.37 1.34h5.43v4.21zm16.77 0v-32.32h-7.35v-4.29h12.18v36.61zm-.31-45.03v-8.27h5.44v8.27zm27.04 45.72q-3.83 0-7.35-1.23-3.53-1.22-5.67-3.29l2.22-3.37q1.99 1.84 4.9 2.91t5.9 1.07q3.75 0 6.12-1.76t2.38-4.67q0-2.37-1.46-3.68-1.45-1.3-3.79-1.99t-4.9-1.34-4.86-1.68-3.75-2.95-1.46-5.36q0-4.75 3.52-7.74 3.53-2.98 9.42-2.98 3.37 0 6.32 1.03 2.95 1.04 5.17 2.72l-2.22 3.45q-1.91-1.53-4.29-2.38t-5.05-.84q-3.68 0-5.94 1.76t-2.26 4.6q0 2.37 1.46 3.63 1.45 1.27 3.79 2 2.33.72 4.94 1.37 2.6.65 4.94 1.73 2.33 1.07 3.79 3.06 1.45 1.99 1.45 5.44 0 4.59-3.71 7.54t-9.61 2.95m38.6.08q-5.44 0-9.65-2.38t-6.59-6.55-2.37-9.68v-1q0-5.44 2.41-9.61t6.58-6.55 9.62-2.37q3.98 0 7.19 1.41 3.22 1.42 5.52 3.95l-3.07 3.06q-3.75-3.9-9.72-3.9-3.98 0-7.09 1.76t-4.86 4.94-1.76 7.31v1q0 4.21 1.8 7.39t4.9 4.94 7.09 1.76q5.97 0 9.8-3.91l2.98 3.07q-2.29 2.52-5.55 3.94t-7.23 1.42m21.28-.77v-55.9h4.68v25.8q1.45-2.75 3.63-4.32 2.19-1.57 4.56-2.26t4.44-.69q6.21 0 10.11 3.94 3.91 3.95 3.91 12.06v21.37h-4.9v-20.75q0-6.44-2.91-9.27t-7.36-2.83q-3.06 0-5.63 1.38t-4.09 4.05-1.53 6.74v20.68zm58.59.77q-5.36 0-9.5-2.42t-6.43-6.66-2.3-9.84v-.77q0-5.36 2.15-9.49t5.93-6.55 8.85-2.41q5.13 0 8.8 2.53t5.4 7.12 1.04 10.72h-27.34q.15 3.75 1.87 6.78 1.73 3.02 4.71 4.74 2.99 1.73 6.97 1.73 6.05 0 9.5-2.99l2.76 3.14q-2.07 2.07-5.33 3.22-3.25 1.15-7.08 1.15m-1.3-33.85q-5.06 0-8.23 3.29t-3.8 8.73h22.67q.08-5.51-2.87-8.77t-7.77-3.25M800.97 642.13l-16.08-53.61h5.21l13.48 46.18 14.55-46.18h5.59l14.55 46.26 13.48-46.26h5.2l-16.08 53.61h-5.2l-14.71-47.02-14.7 47.02zm75.36.77q-5.21 0-9.27-2.42t-6.35-6.66-2.3-9.84v-.69q0-5.44 2.3-9.61t6.35-6.55 9.27-2.37q5.13 0 9.19 2.37t6.36 6.51 2.29 9.5v.84q0 5.59-2.29 9.84t-6.36 6.66-9.19 2.42m0-4.37q3.83 0 6.74-1.88t4.56-5.13 1.64-7.54v-.84q0-4.14-1.64-7.28-1.65-3.14-4.56-4.94t-6.74-1.8-6.78 1.84-4.63 5.02-1.69 7.31v.69q0 4.29 1.69 7.54 1.68 3.26 4.63 5.13t6.78 1.88m27.42 3.6v-36.61h4.74v5.98q1.38-3.53 4.1-4.79t6.17-1.26h3.14v4.82h-3.53q-4.52 0-7.12 2.34t-2.6 7.31v22.21zm25.8 0v-55.9h4.91v37.98l18.45-18.69h6.05l-14.24 14.55 15.7 22.06h-6.05l-13.1-18.53-6.81 6.97v11.56zm46.41.69q-3.83 0-7.35-1.23-3.52-1.22-5.67-3.29l2.22-3.37q2 1.84 4.91 2.91t5.89 1.07q3.75 0 6.13-1.76t2.37-4.67q0-2.37-1.45-3.68-1.46-1.3-3.79-1.99t-4.9-1.34-4.87-1.68-3.75-2.95-1.45-5.36q0-4.75 3.52-7.74 3.52-2.98 9.42-2.98 3.37 0 6.32 1.03 2.94 1.04 5.17 2.72l-2.23 3.45q-1.91-1.53-4.28-2.38t-5.06-.84q-3.67 0-5.93 1.76t-2.26 4.6q0 2.37 1.45 3.63 1.46 1.27 3.79 2 2.34.72 4.94 1.37t4.94 1.73 3.79 3.06q1.46 1.99 1.46 5.44 0 4.59-3.72 7.54-3.71 2.95-9.61 2.95m22.59-.69v-55.9h4.68v25.8q1.45-2.75 3.63-4.32 2.19-1.57 4.56-2.26t4.44-.69q6.2 0 10.11 3.94 3.91 3.95 3.91 12.06v21.37h-4.91v-20.75q0-6.44-2.91-9.27t-7.35-2.83q-3.06 0-5.63 1.38t-4.09 4.05-1.53 6.74v20.68zm58.28.77q-5.21 0-9.26-2.42t-6.36-6.66-2.3-9.84v-.69q0-5.44 2.3-9.61t6.36-6.55 9.26-2.37q5.13 0 9.19 2.37t6.36 6.51 2.3 9.5v.84q0 5.59-2.3 9.84t-6.36 6.66-9.19 2.42m0-4.37q3.83 0 6.74-1.88t4.56-5.13 1.64-7.54v-.84q0-4.14-1.64-7.28-1.65-3.14-4.56-4.94t-6.74-1.8-6.77 1.84-4.64 5.02q-1.68 3.18-1.68 7.31v.69q0 4.29 1.68 7.54 1.69 3.26 4.64 5.13t6.77 1.88m27.42 18.92v-51.93h4.59v7.36q2.15-3.76 5.71-5.94t8.08-2.18q4.98 0 8.84 2.37 3.87 2.38 6.09 6.55t2.22 9.61v.69q0 5.59-2.18 9.88t-6.05 6.66-8.92 2.38q-4.37 0-7.89-2.07t-5.59-5.67v22.29zm17.77-18.92q3.75 0 6.66-1.8t4.55-5.09q1.65-3.29 1.65-7.66v-.69q0-4.21-1.65-7.39-1.64-3.18-4.55-4.98t-6.66-1.8-6.74 1.88-4.71 5.17-1.73 7.66q0 4.44 1.73 7.73 1.72 3.29 4.71 5.13 2.98 1.84 6.74 1.84m36.98 4.29q-3.82 0-7.35-1.23-3.52-1.22-5.66-3.29l2.22-3.37q1.99 1.84 4.9 2.91t5.89 1.07q3.76 0 6.13-1.76t2.38-4.67q0-2.37-1.46-3.68-1.46-1.3-3.79-1.99t-4.9-1.34-4.86-1.68-3.76-2.95q-1.45-1.91-1.45-5.36 0-4.75 3.52-7.74 3.52-2.98 9.42-2.98 3.37 0 6.32 1.03 2.95 1.04 5.17 2.72l-2.22 3.45q-1.92-1.53-4.29-2.38t-5.06-.84q-3.67 0-5.93 1.76t-2.26 4.6q0 2.37 1.45 3.63 1.46 1.27 3.79 2 2.34.72 4.94 1.37t4.94 1.73 3.79 3.06q1.46 1.99 1.46 5.44 0 4.59-3.71 7.54-3.72 2.95-9.62 2.95m54.53.08q-4.06 0-7.27-1.57-3.22-1.57-5.06-4.91t-1.84-8.76v-22.14h4.83v21.37q0 6.43 2.91 8.96t7.27 2.53q2.99 0 5.52-1.34t4.09-3.98 1.57-6.71v-20.83h4.75v36.61h-4.44v-6.05q-2.22 3.83-5.74 5.32t-6.59 1.5m28.87-.77v-36.61h4.67v6.51q1.46-2.75 3.64-4.32t4.56-2.26 4.44-.69q6.2 0 10.11 3.94 3.9 3.95 3.9 12.06v21.37h-4.9v-20.75q0-6.44-2.91-9.27t-7.35-2.83q-3.06 0-5.63 1.38t-4.1 4.05-1.53 6.74v20.68zm57.51.77q-5.05 0-8.92-2.38-3.86-2.37-6.05-6.66t-2.18-9.88v-.69q0-5.44 2.22-9.61t6.09-6.55 8.84-2.37q4.45 0 7.93 2.1 3.49 2.11 5.55 5.71v-26.34h4.9v55.9h-4.44v-7.5q-2.14 3.82-5.74 6.04t-8.2 2.23m.62-4.37q3.75 0 6.74-1.84 2.98-1.84 4.71-5.13 1.72-3.29 1.72-7.73 0-4.37-1.72-7.66-1.73-3.29-4.71-5.17-2.99-1.88-6.74-1.88t-6.67 1.8-4.55 4.98q-1.65 3.18-1.65 7.39v.69q0 4.37 1.65 7.66 1.64 3.29 4.55 5.09t6.67 1.8m71.75 4.44q-7.42 0-13.24-3.48-5.82-3.49-9.12-9.69t-3.29-14.4v-.69q0-8.04 3.29-14.13 3.3-6.08 9.12-9.49t13.24-3.41q7.51 0 13.29 3.41t9.08 9.49 3.29 14.13v.69q0 8.2-3.29 14.4t-9.08 9.69q-5.78 3.48-13.29 3.48m0-4.98q5.98 0 10.57-2.83t7.24-7.89 2.64-11.87v-.69q0-6.58-2.64-11.56t-7.24-7.73-10.57-2.76-10.6 2.76-7.24 7.73q-2.6 4.98-2.6 11.56v.69q0 6.82 2.6 11.87 2.6 5.06 7.24 7.89 4.63 2.83 10.6 2.83m35.23 19.46v-51.93h4.6v7.36q2.14-3.76 5.7-5.94t8.08-2.18q4.98 0 8.85 2.37t6.08 6.55q2.23 4.17 2.23 9.61v.69q0 5.59-2.19 9.88t-6.05 6.66-8.92 2.38q-4.36 0-7.89-2.07t-5.59-5.67v22.29zm17.77-18.92q3.75 0 6.66-1.8t4.56-5.09 1.64-7.66v-.69q0-4.21-1.64-7.39-1.65-3.18-4.56-4.98t-6.66-1.8-6.74 1.88-4.71 5.17-1.72 7.66q0 4.44 1.72 7.73t4.71 5.13 6.74 1.84m43.04 4.37q-5.36 0-9.5-2.42t-6.43-6.66-2.3-9.84v-.77q0-5.36 2.15-9.49t5.93-6.55 8.85-2.41q5.13 0 8.8 2.53t5.4 7.12 1.03 10.72h-27.33q.15 3.75 1.87 6.78 1.72 3.02 4.71 4.74t6.97 1.73q6.05 0 9.5-2.99l2.75 3.14q-2.06 2.07-5.32 3.22-3.25 1.15-7.08 1.15m-1.3-33.85q-5.06 0-8.24 3.29t-3.79 8.73h22.67q.08-5.51-2.87-8.77t-7.77-3.25m24.58 33.08v-36.61h4.67v6.51q1.45-2.75 3.64-4.32 2.18-1.57 4.55-2.26 2.38-.69 4.45-.69 6.2 0 10.1 3.94 3.91 3.95 3.91 12.06v21.37h-4.9v-20.75q0-6.44-2.91-9.27t-7.35-2.83q-3.07 0-5.63 1.38t-4.1 4.05-1.53 6.74v20.68zm40.82-18.92v-4.9h23.66v4.9zm47.02 19.76q-5.44 0-9.61-1.95-4.18-1.95-6.93-5.32l3.21-3.3q5.36 6.21 13.56 6.21 5.82 0 9.19-2.95t3.37-7.77q0-3.3-1.54-5.29-1.53-1.99-4.05-3.18-2.53-1.18-5.52-2.03t-6.01-1.76-5.55-2.37-4.06-3.95-1.53-6.47q0-4.59 2.18-8t6.09-5.28 9.19-1.88q4.59 0 8.23 1.49 3.64 1.5 6.09 4.1l-3.29 3.37q-2.23-2.3-4.94-3.45-2.72-1.14-6.09-1.14-5.67 0-9.04 2.87t-3.37 7.46q0 3.14 1.53 4.98 1.54 1.84 4.1 2.95 2.57 1.11 5.59 1.88t6.05 1.68 5.55 2.45 4.1 4.14 1.57 6.74q0 4.9-2.3 8.42t-6.35 5.44-9.42 1.91m42.73-.07q-5.21 0-9.27-2.42t-6.35-6.66-2.3-9.84v-.69q0-5.44 2.3-9.61t6.35-6.55 9.27-2.37q5.13 0 9.19 2.37t6.36 6.51 2.29 9.5v.84q0 5.59-2.29 9.84t-6.36 6.66-9.19 2.42m0-4.37q3.83 0 6.74-1.88t4.56-5.13 1.64-7.54v-.84q0-4.14-1.64-7.28-1.65-3.14-4.56-4.94t-6.74-1.8-6.78 1.84-4.63 5.02-1.69 7.31v.69q0 4.29 1.69 7.54 1.68 3.26 4.63 5.13t6.78 1.88m41.05 4.37q-4.06 0-7.28-1.57-3.21-1.57-5.05-4.91t-1.84-8.76v-22.14h4.82v21.37q0 6.43 2.91 8.96t7.28 2.53q2.99 0 5.51-1.34 2.53-1.34 4.1-3.98 1.57-2.65 1.57-6.71v-20.83h4.75v36.61h-4.44v-6.05q-2.22 3.83-5.75 5.32t-6.58 1.5m28.87-.77v-36.61h4.75v5.98q1.37-3.53 4.09-4.79t6.17-1.26h3.14v4.82h-3.52q-4.52 0-7.13 2.34-2.6 2.33-2.6 7.31v22.21zm39.97.77q-5.43 0-9.65-2.38-4.21-2.37-6.58-6.55t-2.38-9.68v-1q0-5.44 2.42-9.61t6.58-6.55q4.18-2.37 9.61-2.37 3.99 0 7.2 1.41 3.22 1.42 5.52 3.95l-3.07 3.06q-3.75-3.9-9.72-3.9-3.98 0-7.09 1.76t-4.86 4.94-1.76 7.31v1q0 4.21 1.8 7.39t4.9 4.94 7.08 1.76q5.98 0 9.81-3.91l2.98 3.07q-2.29 2.52-5.55 3.94t-7.24 1.42m35.92 0q-5.36 0-9.5-2.42t-6.43-6.66-2.3-9.84v-.77q0-5.36 2.15-9.49t5.93-6.55 8.85-2.41q5.13 0 8.81 2.53 3.67 2.52 5.39 7.12 1.73 4.59 1.04 10.72h-27.34q.15 3.75 1.88 6.78 1.72 3.02 4.7 4.74t6.97 1.73q6.05 0 9.5-2.99l2.76 3.14q-2.07 2.07-5.33 3.22-3.25 1.15-7.08 1.15m-1.3-33.85q-5.06 0-8.23 3.29t-3.79 8.73h22.66q.08-5.51-2.87-8.77t-7.77-3.25m22.51 14.16v-4.9h23.67v4.9zM814.45 757.82q-5.66 0-10.6-1.91-4.94-1.92-8.66-5.52t-5.82-8.53q-2.1-4.94-2.1-10.99v-1.38q0-6.05 2.1-10.99t5.82-8.54 8.66-5.51 10.6-1.92q4.83 0 9 1.38t7.39 3.98l-3.22 3.83q-5.43-4.21-13.17-4.21-6.2 0-11.18 2.76t-7.85 7.69-2.87 11.53v1.38q0 6.58 2.87 11.52t7.85 7.7q4.98 2.75 11.18 2.75 7.89 0 13.33-4.44l3.21 3.91q-3.29 2.68-7.54 4.1t-9 1.41m38.52-.07q-5.2 0-9.26-2.42t-6.36-6.66-2.3-9.84v-.69q0-5.44 2.3-9.61t6.36-6.55 9.26-2.37q5.13 0 9.19 2.37t6.36 6.51 2.3 9.5v.84q0 5.59-2.3 9.84t-6.36 6.66-9.19 2.42m0-4.37q3.83 0 6.74-1.88t4.56-5.13 1.64-7.54v-.84q0-4.14-1.64-7.28-1.65-3.14-4.56-4.94t-6.74-1.8-6.77 1.84q-2.95 1.84-4.64 5.02t-1.68 7.31v.69q0 4.29 1.68 7.54 1.69 3.26 4.64 5.13t6.77 1.88m27.42 3.6v-36.61h4.67v6.44q2.07-4.06 5.44-5.63t6.66-1.57q4.21 0 7.31 1.91 3.11 1.92 4.56 5.98 1.53-2.99 3.71-4.71 2.19-1.73 4.6-2.45t4.63-.73q5.98 0 9.69 3.87 3.71 3.86 3.71 11.98v21.52h-4.74V736q0-6.28-2.68-9.08t-7.05-2.79q-4.44 0-7.5 3.02-3.07 3.03-3.07 8.77v21.06h-4.82V736q0-6.28-2.64-9.08t-7.01-2.79q-4.52 0-7.58 3.02t-3.07 8.77v21.06zm66.55 0v-36.61h4.67v6.44q2.07-4.06 5.44-5.63t6.66-1.57q4.21 0 7.31 1.91 3.1 1.92 4.56 5.98 1.53-2.99 3.71-4.71 2.19-1.73 4.6-2.45t4.63-.73q5.98 0 9.69 3.87 3.71 3.86 3.71 11.98v21.52h-4.74V736q0-6.28-2.68-9.08t-7.05-2.79q-4.44 0-7.51 3.02t-3.06 8.77v21.06h-4.82V736q0-6.28-2.65-9.08t-7-2.79q-4.52 0-7.58 3.02t-3.07 8.77v21.06zm80.18.77q-4.06 0-7.28-1.57-3.21-1.57-5.05-4.91t-1.84-8.76v-22.14h4.83v21.37q0 6.43 2.91 8.96t7.27 2.53q2.99 0 5.52-1.34t4.09-3.98 1.57-6.71v-20.83h4.75v36.61h-4.44v-6.05q-2.22 3.83-5.75 5.32t-6.58 1.5m28.87-.77v-36.61h4.67v6.51q1.46-2.75 3.64-4.32t4.56-2.26 4.44-.69q6.2 0 10.11 3.94 3.9 3.95 3.9 12.06v21.37h-4.9v-20.75q0-6.44-2.91-9.27t-7.35-2.83q-3.06 0-5.63 1.38t-4.1 4.05-1.53 6.74v20.68zm44.95 0v-32.32h-7.35v-4.29h12.18v36.61zm-.3-45.03v-8.27h5.43v8.27zm29.02 45.03q-2.45 0-4.59-1-2.15-.99-3.53-3.02t-1.37-5.25v-23.05h-6.82v-4.29h6.82v-9.11h4.82v9.11h10.19v4.29h-10.19v23.36q0 2.07 1.38 3.41t3.37 1.34h5.44v4.21zm9.5 15.32v-4.22h6.97q1.91 0 3.02-1.34t1.8-3.1l2.83-6.35-15.16-36.92h5.36l12.41 30.94 12.02-30.94h5.36l-17.84 43.43q-.84 2.06-2.03 4.02t-3.1 3.21q-1.92 1.27-4.9 1.27zm35.99-15.32v-7.05h5.9v7.05z"/><rect width="423.44" height="133.08" x="784.86" y="848.91" fill="none" stroke="#fff" stroke-width="3" rx="66.54" ry="66.54"/><path fill="#fff" d="m858.31 935.41 12.84-40.65h4.59l12.89 40.65h-4.01l-3.48-11.27h-15.39l-3.43 11.27zm8.43-14.52h13.47L873.47 899zm30.48 14.52v-27.76h3.49v5.46q.99-2.27 2.55-3.6 1.57-1.34 3.37-1.89t3.43-.55q4.65 0 7.32 2.99t2.67 9.15v16.2h-3.66v-16.03q0-4.93-2-7.08t-5.38-2.15q-3.48 0-5.8 2.35-2.33 2.35-2.33 6.88v16.03zm32.47 0v-27.76h3.13v3.95q.99-2.61 2.76-3.57t3.57-.96q2.27 0 3.66 1.1 1.4 1.11 2.09 3.02.87-1.86 2.62-2.99 1.74-1.13 3.95-1.13 3.19 0 4.99 2.18t1.8 6.01v20.15h-3.25V915.2q0-2.32-1.25-3.69-1.25-1.36-3.28-1.36-2.15 0-3.51 1.42-1.37 1.42-1.37 3.63v20.21h-3.25V915.2q0-2.32-1.13-3.69-1.14-1.36-3.23-1.36-1.97 0-3.51 1.54t-1.54 5.08v18.64zm50.58.58q-4.01 0-6.97-1.8t-4.59-5.02-1.62-7.52v-.58q0-4.13 1.57-7.26 1.56-3.14 4.35-4.94t6.51-1.8q3.83 0 6.5 1.92 2.67 1.91 3.92 5.43t.73 8.33H970.8q.18 4.7 2.71 7.46t6.88 2.76q2.09 0 4-.67 1.92-.66 3.2-1.88l1.97 2.26q-1.45 1.51-3.98 2.41-2.52.9-5.31.9m-.75-26.02q-3.84 0-6.13 2.7t-2.59 7.18h16.32q.24-4.59-1.85-7.23-2.1-2.65-5.75-2.65m37.4 25.44q-3.2 0-5.14-1.86-1.95-1.86-1.95-4.93v-32.7h-9.81v-2.9h13.53v35.94q0 1.51 1.01 2.53 1.02 1.02 2.53 1.02h12.02v2.9zm30.48.58q-5.57 0-8.68-3.95t-3.1-10.39v-.53q0-4.18 1.39-7.34t4.04-4.94 6.35-1.77q3.49 0 5.96 1.68 2.47 1.69 3.86 4.65v-20.38h3.72v42.39h-3.43v-6.1q-1.45 3.14-3.98 4.91-2.52 1.77-6.13 1.77m.88-2.96q4.29 0 6.73-3.14 2.44-3.13 2.44-8.36t-2.44-8.33-6.73-3.11-6.65 3.02-2.36 8.01v.53q0 5.17 2.36 8.27 2.35 3.11 6.65 3.11m37.4 2.96q-4.01 0-6.97-1.8t-4.59-5.02-1.63-7.52v-.58q0-4.13 1.57-7.26 1.57-3.14 4.36-4.94 2.78-1.8 6.5-1.8 3.83 0 6.51 1.92 2.67 1.91 3.92 5.43 1.24 3.51.72 8.33h-19.86q.17 4.7 2.7 7.46t6.88 2.76q2.09 0 4.01-.67 1.92-.66 3.19-1.88l1.98 2.26q-1.45 1.51-3.98 2.41t-5.31.9m-.76-26.02q-3.83 0-6.13 2.7t-2.58 7.18h16.32q.23-4.59-1.86-7.23t-5.75-2.65m23.11 25.44v-27.76h3.49v5.46q.99-2.27 2.55-3.6 1.57-1.34 3.37-1.89t3.43-.55q4.64 0 7.32 2.99 2.67 2.99 2.67 9.15v16.2h-3.66v-16.03q0-4.93-2-7.08t-5.38-2.15q-3.48 0-5.8 2.35-2.33 2.35-2.33 6.88v16.03z"/><path fill="rgba(255,255,255,0.85)" d="M1695.95 1050H1912v22h-216.05z"/><path fill="none" stroke="#c0392b" d="M1696.45 1050.5h215.05v21h-215.05z"/><text x="1704.95" y="1055" fill="#c0392b" dominant-baseline="text-before-edge" font-family="monospace" font-size="10" font-weight="700">EXPERIMENTAL — NOT BRAND APPROVED</text></svg>