<svg xmlns="http://www.w3.org/2000/svg" width="1920" height="1080" viewBox="0 0 1920 1080"><path fill="#fff" d="M0 0h1920v1080H0z"/><path fill="#30ba78" d="M0 0h610.55v1080H0z"/><path fill="#0c322c" d="M75.88 295.78V143.55h48.06q21.31 0 33.38 10.22t12.07 27.4q0 12.83-6.96 22.73t-20.22 13.37q14.78 3.27 23.37 13.38t8.59 23.59q0 18.71-12.39 30.12t-36.97 11.42zm47.19-143.09H86.1v60.23h38.71q16.53 0 25.33-8.69 8.81-8.7 8.81-22.19 0-13.26-9.57-21.31t-26.31-8.04m2.82 69.15H86.1v64.81h37.4q20.23 0 30.01-9.14t9.79-23.92q0-13.7-10.22-22.72t-27.19-9.03m110.26 76.11q-11.52 0-20.44-4.34t-14.14-13.92-5.22-25.01v-62.2h10.01v60.89q0 13.05 4.13 20.77t11.2 11.09 15.98 3.37q9.14 0 16.97-4.13t12.61-12.29q4.78-8.15 4.78-20.55v-59.15h9.79v103.3h-9.35v-18.92q-6.09 11.53-16.53 16.31t-19.79 4.78m83.94-2.17v-94.16h-21.52v-9.14h31.53v103.3zm-.65-128.09v-21.96h11.31v21.96zm66.11 128.09q-11.09 0-17.94-6.74t-6.85-17.4v-125.7h-20.88v-8.91h30.88v134.61q0 6.74 4.35 10.98t10.88 4.24h8.7v8.92zm63.29 2.17q-14.36 0-25.23-6.74t-16.96-18.81-6.09-27.94v-1.96q0-15.22 6.2-27.07t17.07-18.49q10.87-6.63 25.01-6.63 13.7 0 24.14 6.85 10.43 6.85 16.31 18.59v-78.72h10v158.75h-9.35v-24.14q-5.87 12.18-16.53 19.25-10.66 7.06-24.57 7.06m.87-9.13q11.74 0 20.66-5.65t14.13-15.66q5.22-10 5.22-23.27t-5.22-23.27-14.13-15.66q-8.92-5.65-20.66-5.65-11.53 0-20.34 5.44-8.8 5.43-13.81 15.11t-5 22.29v1.96q0 13.05 5 23.05t13.81 15.66 20.34 5.65M115.24 511.06q-14.35 0-25.55-6.85t-17.62-18.92-6.41-27.72v-1.74q0-15.44 6.41-27.19 6.42-11.74 17.62-18.48t25.55-6.74q14.57 0 25.66 6.63t17.51 18.27 6.41 26.86v2.39q0 15.66-6.41 27.72-6.42 12.07-17.51 18.92t-25.66 6.85m0-9.35q11.74 0 20.66-5.54t13.92-15.55 5-23.05v-2.39q0-12.62-5-22.19T135.9 418.1t-20.66-5.33q-11.53 0-20.44 5.44-8.92 5.43-14.03 15.22-5.11 9.78-5.11 22.4v1.74q0 13.05 5.11 23.05t14.03 15.55q8.91 5.54 20.44 5.54m73.07 7.18v-103.3h9.57v20.44q3.91-8.48 10.33-13.37t13.48-7.07q7.07-2.17 13.37-2.17 17.4 0 28.49 11.09t11.09 34.36v60.02h-10v-58.72q0-20-9.02-28.7t-22.51-8.7q-9.35 0-17.29 4.24t-12.72 12.5-4.79 20.45v58.93zm-129.4 256.6v-8.91h18.27q6.31 0 9.9-4.35 3.58-4.35 6.19-10.44l8.49-19.36L58.7 618.7h10.87l37.41 91.34 36.75-91.34h10.87l-51.1 123.31q-2.4 5.87-5.66 11.2t-8.26 8.8q-5 3.48-12.62 3.48zm152.89-41.32q-14.36 0-25.56-6.85t-17.61-18.92q-6.42-12.06-6.42-27.72v-1.74q0-15.44 6.42-27.19 6.41-11.74 17.61-18.48t25.56-6.74q14.57 0 25.66 6.63t17.5 18.27 6.42 26.86v2.39q0 15.66-6.42 27.72-6.41 12.07-17.5 18.92t-25.66 6.85m0-9.35q11.74 0 20.65-5.54 8.92-5.55 13.92-15.55t5-23.05v-2.39q0-12.62-5-22.19t-13.92-14.89q-8.91-5.33-20.65-5.33-11.53 0-20.45 5.44-8.91 5.43-14.02 15.22-5.11 9.78-5.11 22.4v1.74q0 13.05 5.11 23.05t14.02 15.55 20.45 5.54m111.12 9.35q-11.52 0-20.44-4.34t-14.14-13.92-5.22-25.01v-62.2h10.01v60.89q0 13.05 4.13 20.77t11.2 11.09 15.98 3.37q9.14 0 16.97-4.13t12.61-12.29 4.78-20.55V618.7h9.79V722h-9.35v-18.92q-6.09 11.53-16.53 16.31t-19.79 4.78m76.77-2.17V618.7h9.57v17.18q4.13-10.22 11.96-13.81t17.4-3.59h9.35v10.01h-9.79q-13.27 0-20.88 6.96t-7.61 22.4V722zM104.15 935.11q-10.22 0-17.62-6.31-7.39-6.3-7.39-18.26v-69.59H58.91v-9.14h20.23v-25.88h9.79v25.88h30.22v9.14H88.93v70.02q0 6.53 4.34 10.87 4.35 4.35 10.88 4.35h15v8.92zm74.81 2.17q-15.23 0-26.75-6.85t-18.05-18.92-6.53-27.72v-2.18q0-15.22 5.99-26.85t16.63-18.38q10.66-6.74 24.79-6.74 13.92 0 24.03 7.07 10.12 7.06 15.01 19.57 4.89 12.5 3.15 29.03h-79.59q.22 12.4 5.54 21.96t14.57 15.12q9.25 5.54 21.42 5.54 8.27 0 15.55-2.28t12.29-6.63l5.87 6.74q-5.87 5.44-14.79 8.48t-19.13 3.04m-3.92-98.51q-15.87 0-25.88 10.55t-11.3 27.51h69.8q.44-17.4-8.7-27.73t-23.92-10.33m64.81 96.34v-103.3h9.57v17.18q4.13-10.22 11.96-13.81t17.4-3.59h9.35v10.01h-9.79q-13.26 0-20.88 6.96t-7.61 22.4v64.15zm65.67 0v-103.3h9.36v20.23q5.87-12.4 15.87-17.4t19.57-5q12.62 0 21.75 5.98t13.27 18.59q3.91-9.13 10.11-14.57t13.26-7.72 13.81-2.28q17.18 0 27.51 10.98t10.33 34.25v60.24h-9.57v-59.37q0-19.35-8.26-28.05t-21.75-8.7q-13.92 0-23.38 9.35t-9.45 27.4v59.37h-9.79v-59.37q0-19.35-8.26-28.05t-21.75-8.7q-13.92 0-23.38 9.35t-9.46 27.4v59.37zm210.3 2.17q-10.44 0-20.23-3.47-9.78-3.48-15.66-9.36l5.01-7.39q5.43 5.44 13.81 8.59 8.37 3.15 17.07 3.15 11.74 0 19.03-5.65 7.28-5.65 7.28-14.57 0-7.61-4.24-11.53t-10.98-6.09-14.25-3.91-14.13-4.68-10.88-8.26-4.24-14.9q0-13.04 9.79-21.31t25.44-8.26q9.36 0 17.51 3.04t14.24 7.83l-5 7.18q-5.22-4.35-12.07-6.96t-14.68-2.61q-11.3 0-18.48 5.76t-7.18 14.68q0 7.18 4.35 11.09t10.98 6.09 14.25 4.02 14.35 4.9q6.74 3.04 10.98 8.48t4.24 15q0 12.83-10.11 20.99t-26.2 8.15m209.69-597.03v-52.64h-17.86v-6.6h43.16v6.6h-18.02v52.64zm31.73 0v-61.78h6.6v27.59q2.46-4.23 6.31-5.8t7.15-1.56q6.86 0 11.13 4.44t4.27 13.16v23.95h-6.85v-22.93q0-6.52-2.92-9.44t-7.41-2.92q-4.65 0-8.04 3.17-3.38 3.18-3.38 9.27v22.85zm64.83.85q-6.01 0-10.62-2.67t-7.19-7.4q-2.59-4.74-2.59-10.92v-.85q0-5.92 2.37-10.53 2.37-4.62 6.69-7.33t9.99-2.7q5.84 0 9.98 2.87t6.14 8.09q1.99 5.2 1.14 12.31h-29.45q.25 3.55 1.99 6.47 1.73 2.92 4.74 4.66 3 1.73 7.06 1.73 3.22 0 5.72-.76t4.36-2.45l3.89 4.23q-2.37 2.54-6.05 3.89-3.68 1.36-8.17 1.36m-1.35-36.48q-5.08 0-8.26 3.22-3.17 3.21-3.85 8.54h22.85q-.08-5.58-3.04-8.67t-7.7-3.09m63.47 36.48q-5.84 0-10.41-2.67t-7.19-7.4-2.63-10.92v-.76q0-6.01 2.63-10.71t7.19-7.32 10.41-2.62 10.41 2.62 7.19 7.24 2.63 10.62v.93q0 6.18-2.63 10.92t-7.19 7.4-10.41 2.67m0-6.1q3.98 0 6.98-1.9 3.01-1.91 4.7-5.25t1.69-7.74v-.93q0-6.35-3.72-10.37t-9.65-4.02q-3.89 0-6.94 1.86t-4.78 5.16-1.74 7.54v.76q0 4.4 1.74 7.74 1.73 3.34 4.78 5.25 3.05 1.9 6.94 1.9m29.79 22.18v-57.64h6.43v7.03q2.37-3.64 6.14-5.76t8.42-2.11q5.5 0 9.81 2.62t6.82 7.28q2.49 4.65 2.49 10.75v.76q0 6.26-2.45 11t-6.77 7.36-9.9 2.63q-4.49 0-8.13-1.99t-6.01-5.46v23.53zM933.95 335q3.81 0 6.81-1.82 3.01-1.82 4.74-5.2 1.74-3.39 1.74-7.87v-.76q0-6.6-3.77-10.58-3.76-3.98-9.52-3.98-3.89 0-6.94 1.86-3.04 1.86-4.82 5.29t-1.78 8 1.78 7.95 4.82 5.25 6.94 1.86m47.39 6.1q-6 0-10.62-2.67t-7.19-7.4-2.58-10.92v-.85q0-5.92 2.37-10.53 2.37-4.62 6.68-7.33 4.32-2.7 9.99-2.7 5.84 0 9.99 2.87 4.14 2.88 6.13 8.09t1.15 12.31H967.8q.26 3.55 1.99 6.47 1.74 2.92 4.74 4.66 3.01 1.73 7.07 1.73 3.21 0 5.71-.76t4.36-2.45l3.89 4.23q-2.37 2.54-6.05 3.89-3.68 1.36-8.17 1.36m-1.35-36.48q-5.08 0-8.25 3.22-3.17 3.21-3.85 8.54h22.85q-.09-5.58-3.05-8.67t-7.7-3.09m26.66 35.63v-40.71h6.6v6.52q2.45-4.23 6.31-5.8t7.15-1.56q6.85 0 11.13 4.44 4.27 4.44 4.27 13.16v23.95h-6.86v-22.93q0-6.52-2.92-9.44t-7.4-2.92q-4.66 0-8.04 3.17-3.39 3.18-3.39 9.27v22.85zm77.69.76q-4.49 0-8.42-1.39-3.94-1.4-6.39-3.6l3.05-4.74q2.28 1.95 5.41 3.13 3.13 1.19 6.35 1.19 3.81 0 6.18-1.74 2.37-1.73 2.37-4.53 0-2.37-1.61-3.68t-4.06-2.03-5.25-1.44-5.29-1.9-4.06-3.39-1.57-6.01q0-5.33 4.02-8.76t10.79-3.42q3.81 0 7.24 1.14t5.97 3l-3.05 4.74q-2.2-1.61-4.78-2.54t-5.46-.93q-3.64 0-5.93 1.74-2.28 1.73-2.28 4.53 0 2.37 1.61 3.63 1.61 1.27 4.1 2.04 2.5.76 5.33 1.48t5.38 1.94q2.54 1.23 4.1 3.47 1.57 2.25 1.57 6.05 0 3.56-1.95 6.27-1.94 2.7-5.41 4.23-3.47 1.52-7.96 1.52m42.06.09q-5.84 0-10.41-2.67t-7.19-7.4q-2.63-4.74-2.63-10.92v-.76q0-6.01 2.63-10.71t7.19-7.32 10.41-2.62 10.41 2.62 7.19 7.24 2.63 10.62v.93q0 6.18-2.63 10.92t-7.19 7.4-10.41 2.67m0-6.1q3.98 0 6.98-1.9 3.01-1.91 4.7-5.25t1.69-7.74v-.93q0-6.35-3.72-10.37t-9.65-4.02q-3.89 0-6.94 1.86-3.04 1.86-4.78 5.16-1.73 3.3-1.73 7.54v.76q0 4.4 1.73 7.74 1.74 3.34 4.78 5.25 3.05 1.9 6.94 1.9m44.94 6.1q-6.77 0-11.26-4.02t-4.48-12.74v-24.8h6.85v23.61q0 6.52 2.92 9.1t7.32 2.58q4.57 0 7.92-3.04t3.34-9.23v-23.02h6.77v40.71h-6.09v-6.09q-2.54 3.97-6.31 5.46t-6.98 1.48m31.65-.85v-40.71h6.6v6.52q1.53-3.89 4.53-5.29t6.73-1.4h3.47v6.77h-3.98q-4.99 0-7.74 2.46t-2.75 7.53v24.12zm45.03.85q-6.01 0-10.75-2.63t-7.41-7.32-2.66-10.79v-1.01q0-6.1 2.7-10.75t7.41-7.28 10.71-2.62q4.48 0 8.16 1.65t6.22 4.61l-4.23 4.23q-3.89-4.15-10.15-4.15-4.07 0-7.24 1.78t-4.99 4.99-1.82 7.54v1.01q0 4.32 1.86 7.58t5.03 5.03 7.24 1.78q6.18 0 10.24-4.06l4.15 4.14q-2.46 2.97-6.22 4.62-3.77 1.65-8.25 1.65m39.35 0q-6.01 0-10.62-2.67-4.62-2.67-7.2-7.4t-2.58-10.92v-.85q0-5.92 2.37-10.53 2.37-4.62 6.69-7.33 4.31-2.7 9.98-2.7 5.84 0 9.99 2.87t6.14 8.09q1.99 5.2 1.14 12.31h-29.45q.25 3.55 1.99 6.47 1.73 2.92 4.74 4.66 3 1.73 7.06 1.73 3.22 0 5.71-.76 2.5-.76 4.36-2.45l3.9 4.23q-2.37 2.54-6.05 3.89-3.69 1.36-8.17 1.36m-1.36-36.48q-5.07 0-8.25 3.22-3.17 3.21-3.85 8.54h22.85q-.08-5.58-3.04-8.67-2.97-3.09-7.71-3.09m45.96 52.56v-57.64h6.43v7.03q2.37-3.64 6.14-5.76t8.42-2.11q5.5 0 9.81 2.62t6.82 7.28q2.49 4.65 2.49 10.75v.76q0 6.26-2.45 11t-6.77 7.36-9.9 2.63q-4.49 0-8.13-1.99t-6.01-5.46v23.53zm19.97-22.18q3.81 0 6.81-1.82 3.01-1.82 4.74-5.2 1.74-3.39 1.74-7.87v-.76q0-6.6-3.77-10.58-3.76-3.98-9.52-3.98-3.89 0-6.94 1.86-3.04 1.86-4.82 5.29t-1.78 8 1.78 7.95 4.82 5.25 6.94 1.86m40.62 5.25q-4.99 0-7.99-2.84t-3.01-7.57v-45.53h-7.45v-5.84h14.31v51.46q0 1.94 1.27 3.21t3.21 1.27h3.9v5.84zm23.79.85q-6.94 0-11.13-3.39-4.19-3.38-4.19-8.8 0-3.55 2.11-6.35 2.12-2.79 5.8-4.44t8.25-1.65q6.69 0 10.66 2.79v-5.08q0-4.99-2.58-7.15t-6.98-2.16q-3.3 0-6.73 1.23-3.42 1.23-5.88 3.77l-3.21-4.83q2.7-3.13 7.1-4.74 4.41-1.6 9.06-1.6 7.19 0 11.59 3.8 4.41 3.81 4.41 11.35v13.03q0 6.77.25 13.37h-6.09l-.09-4.06q-3.81 4.91-12.35 4.91m1.77-5.17q4.66 0 7.24-1.94 2.58-1.95 2.58-5.08t-2.58-5.04q-2.58-1.9-7.32-1.9-4.66 0-7.37 1.9-2.7 1.91-2.7 5.04 0 3.05 2.75 5.04 2.75 1.98 7.4 1.98m41.73 4.32q-2.8 0-5.38-1.06t-4.23-3.43-1.65-6.34v-23.95h-7.36v-5.93h7.36v-10.07h6.77v10.07h10.75v5.93h-10.75v24.37q0 1.95 1.31 3.26t3.26 1.31h6.18v5.84zm17.94 0v-34.78h-7.45v-5.93h7.45V289.3q0-4.99 3.17-7.91t8.25-2.92h6.77v5.84h-6.85q-1.95 0-3.22 1.27t-1.27 3.21v10.75h11.34v5.93h-11.34v34.78zm41.21.85q-5.84 0-10.41-2.67t-7.19-7.4-2.62-10.92v-.76q0-6.01 2.62-10.71t7.19-7.32 10.41-2.62 10.41 2.62 7.19 7.24 2.63 10.62v.93q0 6.18-2.63 10.92t-7.19 7.4-10.41 2.67m0-6.1q3.98 0 6.98-1.9 3.01-1.91 4.7-5.25t1.69-7.74v-.93q0-6.35-3.72-10.37t-9.65-4.02q-3.89 0-6.94 1.86-3.04 1.86-4.78 5.16-1.73 3.3-1.73 7.54v.76q0 4.4 1.73 7.74 1.74 3.34 4.78 5.25 3.05 1.9 6.94 1.9m29.79 5.25v-40.71h6.6v6.52q1.53-3.89 4.53-5.29t6.73-1.4h3.47v6.77h-3.98q-4.99 0-7.74 2.46t-2.75 7.53v24.12zm28.95 0v-40.71h6.51v6.43q2.37-4.14 5.97-5.71 3.6-1.56 6.98-1.56 4.4 0 7.74 1.94 3.35 1.95 5.04 6.01 1.78-3.04 4.19-4.78 2.41-1.73 4.99-2.45t4.87-.72q6.6 0 10.75 4.27 4.14 4.27 4.14 13.08v24.2h-6.68v-23.36q0-6.26-2.71-9.1t-7.11-2.83q-4.57 0-7.62 3.09t-3.04 8.84v23.36h-6.77v-23.36q0-6.26-2.67-9.1t-7.07-2.83q-4.57 0-7.66 3.09t-3.08 8.84v23.36zm94.36 0v-34.78h-7.45v-5.93h7.45V289.3q0-4.99 3.17-7.91 3.18-2.92 8.25-2.92h6.77v5.84h-6.85q-1.95 0-3.22 1.27t-1.27 3.21v10.75h11.34v5.93h-11.34v34.78zm41.21.85q-5.84 0-10.41-2.67t-7.19-7.4-2.62-10.92v-.76q0-6.01 2.62-10.71t7.19-7.32 10.41-2.62 10.41 2.62 7.2 7.24 2.62 10.62v.93q0 6.18-2.62 10.92t-7.2 7.4-10.41 2.67m0-6.1q3.98 0 6.99-1.9 3-1.91 4.69-5.25t1.69-7.74v-.93q0-6.35-3.72-10.37t-9.65-4.02q-3.89 0-6.94 1.86-3.04 1.86-4.78 5.16-1.73 3.3-1.73 7.54v.76q0 4.4 1.73 7.74 1.74 3.34 4.78 5.25 3.05 1.9 6.94 1.9m29.79 5.25v-40.71h6.6v6.52q1.53-3.89 4.53-5.29t6.73-1.4h3.47v6.77h-3.98q-4.99 0-7.74 2.46t-2.75 7.53v24.12zM726.78 446.03q-2.8 0-5.38-1.06t-4.23-3.43-1.65-6.34v-23.95h-7.36v-5.93h7.36v-10.07h6.77v10.07h10.75v5.93h-10.75v24.37q0 1.95 1.31 3.26t3.26 1.31h6.18v5.84zm14.98 0v-61.78h6.6v27.59q2.45-4.23 6.3-5.8t7.15-1.56q6.86 0 11.13 4.44t4.28 13.16v23.95h-6.86V423.1q0-6.52-2.92-9.44t-7.4-2.92q-4.66 0-8.04 3.17-3.39 3.18-3.39 9.27v22.85zm64.82.85q-6.01 0-10.62-2.67t-7.19-7.4-2.58-10.92v-.85q0-5.92 2.37-10.53 2.37-4.62 6.68-7.33 4.32-2.7 9.99-2.7 5.84 0 9.99 2.87 4.14 2.88 6.13 8.09t1.14 12.31h-29.45q.26 3.55 1.99 6.47 1.74 2.92 4.74 4.66 3 1.73 7.07 1.73 3.21 0 5.71-.76t4.36-2.45l3.89 4.23q-2.37 2.54-6.05 3.89-3.68 1.36-8.17 1.36m-1.35-36.48q-5.08 0-8.25 3.22-3.18 3.21-3.85 8.54h22.85q-.09-5.58-3.05-8.67t-7.7-3.09m63.64 36.48q-6.01 0-10.62-2.67t-7.19-7.4-2.58-10.92v-.85q0-5.92 2.36-10.53 2.37-4.62 6.69-7.33t9.99-2.7q5.84 0 9.98 2.87t6.14 8.09q1.99 5.2 1.14 12.31h-29.45q.25 3.55 1.99 6.47 1.73 2.92 4.74 4.66 3 1.73 7.06 1.73 3.22 0 5.72-.76t4.36-2.45l3.89 4.23q-2.37 2.54-6.05 3.89-3.68 1.36-8.17 1.36m-1.35-36.48q-5.08 0-8.25 3.22-3.18 3.21-3.86 8.54h22.86q-.09-5.58-3.05-8.67t-7.7-3.09m26.66 35.63v-40.71h6.6v6.52q2.45-4.23 6.3-5.8t7.15-1.56q6.86 0 11.13 4.44t4.28 13.16v23.95h-6.86V423.1q0-6.52-2.92-9.44t-7.4-2.92q-4.66 0-8.04 3.17-3.39 3.18-3.39 9.27v22.85zm60.42 0q-2.79 0-5.37-1.06t-4.23-3.43-1.65-6.34v-23.95h-7.37v-5.93h7.37v-10.07h6.77v10.07h10.74v5.93h-10.74v24.37q0 1.95 1.31 3.26t3.26 1.31h6.17v5.84zm31.4.85q-6.01 0-10.62-2.67t-7.2-7.4-2.58-10.92v-.85q0-5.92 2.37-10.53 2.37-4.62 6.69-7.33t9.99-2.7q5.83 0 9.98 2.87t6.14 8.09q1.99 5.2 1.14 12.31h-29.45q.25 3.55 1.99 6.47 1.73 2.92 4.74 4.66 3 1.73 7.06 1.73 3.22 0 5.72-.76t4.35-2.45l3.9 4.23q-2.37 2.54-6.05 3.89-3.69 1.36-8.17 1.36m-1.35-36.48q-5.08 0-8.26 3.22-3.17 3.21-3.85 8.54h22.85q-.08-5.58-3.04-8.67-2.97-3.09-7.7-3.09m26.65 35.63v-40.71h6.61v6.52q1.52-3.89 4.52-5.29 3.01-1.4 6.73-1.4h3.47v6.77h-3.98q-4.99 0-7.74 2.46t-2.75 7.53v24.12zm28.95 16.93v-57.64h6.43v7.03q2.37-3.64 6.14-5.76t8.42-2.11q5.5 0 9.81 2.62t6.82 7.28q2.49 4.65 2.49 10.75v.76q0 6.26-2.45 11t-6.77 7.36-9.9 2.63q-4.49 0-8.13-1.99t-6.01-5.46v23.53zm19.97-22.18q3.81 0 6.81-1.82 3.01-1.82 4.74-5.2 1.74-3.39 1.74-7.87v-.76q0-6.6-3.77-10.58-3.76-3.98-9.52-3.98-3.89 0-6.94 1.86t-4.82 5.29-1.78 8 1.78 7.95q1.77 3.39 4.82 5.25t6.94 1.86m29.71 5.25v-40.71h6.6v6.52q1.52-3.89 4.52-5.29 3.01-1.4 6.73-1.4h3.47v6.77h-3.98q-4.99 0-7.74 2.46t-2.75 7.53v24.12zm32.16 0v-34.78h-7.96v-5.93h14.73v40.71zm-.43-49.68v-9.82h7.62v9.82zm30.81 50.44q-4.49 0-8.42-1.39-3.94-1.4-6.39-3.6l3.04-4.74q2.29 1.95 5.42 3.13 3.13 1.19 6.35 1.19 3.81 0 6.18-1.74 2.37-1.73 2.37-4.53 0-2.37-1.61-3.68t-4.06-2.03-5.25-1.44-5.29-1.9-4.06-3.39-1.57-6.01q0-5.33 4.02-8.76t10.79-3.42q3.81 0 7.24 1.14 3.42 1.14 5.96 3l-3.04 4.74q-2.2-1.61-4.79-2.54t-5.45-.93q-3.64 0-5.93 1.74-2.28 1.73-2.28 4.53 0 2.37 1.61 3.63 1.6 1.27 4.1 2.04 2.5.76 5.33 1.48t5.38 1.94q2.53 1.23 4.1 3.47t1.57 6.05q0 3.56-1.95 6.27t-5.42 4.23-7.95 1.52m42.23.09q-6.01 0-10.62-2.67-4.62-2.67-7.2-7.4t-2.58-10.92v-.85q0-5.92 2.37-10.53 2.37-4.62 6.69-7.33 4.31-2.7 9.98-2.7 5.84 0 9.99 2.87t6.14 8.09q1.98 5.2 1.14 12.31h-29.45q.25 3.55 1.99 6.47 1.73 2.92 4.74 4.66 3 1.73 7.06 1.73 3.22 0 5.71-.76 2.5-.76 4.36-2.45l3.9 4.23q-2.37 2.54-6.06 3.89-3.68 1.36-8.16 1.36m-1.36-36.48q-5.07 0-8.25 3.22-3.17 3.21-3.85 8.54h22.85q-.08-5.58-3.04-8.67-2.97-3.09-7.71-3.09M711.57 574.69v-33.4q0-2.6 1.72-4.35t4.37-1.74h17.44v3.44h-16.31q-1.46 0-2.48 1.01-1.01 1.02-1.01 2.49v12.18h18.61v3.44H715.3v16.93zm28.83 0v-26.97h3.5v4.4q1.02-2.59 3.02-3.52t4.54-.94h2.31v3.56h-2.59q-3.33 0-5.25 1.72t-1.92 5.39v16.36zm28.95.56q-3.84 0-6.83-1.77-2.99-1.78-4.68-4.91-1.7-3.13-1.7-7.25v-.51q0-4.01 1.7-7.08 1.69-3.08 4.68-4.82t6.83-1.75q3.78 0 6.77 1.75 2.99 1.74 4.68 4.79t1.69 7v.62q0 4.12-1.69 7.25t-4.68 4.91-6.77 1.77m0-3.21q2.82 0 4.96-1.38 2.14-1.39 3.36-3.78 1.21-2.4 1.21-5.56v-.62q0-3.05-1.21-5.36-1.22-2.32-3.36-3.64t-4.96-1.33q-2.83 0-5 1.36-2.17 1.35-3.41 3.69t-1.24 5.39v.51q0 3.16 1.24 5.56t3.41 3.78 5 1.38m20.19 2.65v-26.97h3.45v4.74q1.52-2.99 4-4.15 2.48-1.15 4.91-1.15 3.1 0 5.39 1.41t3.36 4.4q1.12-2.2 2.73-3.47t3.39-1.81 3.41-.53q4.4 0 7.14 2.85t2.73 8.83v15.85h-3.49v-15.46q0-4.63-1.98-6.68-1.97-2.06-5.19-2.06-3.27 0-5.53 2.22t-2.26 6.46v15.52h-3.55v-15.46q0-4.63-1.95-6.68-1.94-2.06-5.16-2.06-3.33 0-5.58 2.22t-2.26 6.46v15.52zm74.37.56q-4.01 0-7.11-1.74-3.11-1.75-4.85-4.83-1.75-3.07-1.75-7.14v-.73q0-4.01 1.77-7.08 1.78-3.08 4.86-4.82 3.07-1.75 7.08-1.75 2.93 0 5.3 1.04t4.06 2.91l-2.25 2.25q-2.77-2.87-7.17-2.87-2.93 0-5.22 1.29-2.28 1.3-3.58 3.64t-1.3 5.39v.73q0 3.11 1.33 5.45 1.32 2.34 3.61 3.64 2.28 1.3 5.22 1.3 4.4 0 7.22-2.88l2.2 2.25q-1.69 1.87-4.09 2.91t-5.33 1.04m22.51-.56q-3.11 0-5-1.81-1.89-1.8-1.89-4.79v-31.48h-5.19v-3.11h8.81v34.65q0 1.46.98 2.45.99.99 2.46.99h2.42v3.1zm18.67.56q-3.83 0-6.82-1.77-2.99-1.78-4.69-4.91-1.69-3.13-1.69-7.25v-.51q0-4.01 1.69-7.08 1.7-3.08 4.69-4.82t6.82-1.75q3.78 0 6.77 1.75 2.99 1.74 4.69 4.79 1.69 3.05 1.69 7v.62q0 4.12-1.69 7.25-1.7 3.13-4.69 4.91-2.99 1.77-6.77 1.77m0-3.21q2.82 0 4.97-1.38 2.14-1.39 3.36-3.78 1.21-2.4 1.21-5.56v-.62q0-3.05-1.21-5.36-1.22-2.32-3.36-3.64-2.15-1.33-4.97-1.33t-4.99 1.36-3.41 3.69-1.24 5.39v.51q0 3.16 1.24 5.56t3.41 3.78 4.99 1.38m30.24 3.21q-2.99 0-5.36-1.15-2.37-1.16-3.72-3.61t-1.35-6.46v-16.31h3.55v15.74q0 4.74 2.15 6.6 2.14 1.87 5.35 1.87 2.21 0 4.07-.99t3.02-2.94 1.15-4.93v-15.35h3.5v26.97h-3.27v-4.46q-1.64 2.82-4.23 3.92t-4.86 1.1m32.05 0q-3.72 0-6.57-1.74-2.85-1.75-4.46-4.91t-1.61-7.28v-.51q0-4.01 1.64-7.08t4.48-4.82 6.52-1.75q3.27 0 5.84 1.55t4.09 4.2V533.5h3.61v41.19h-3.27v-5.53q-1.58 2.82-4.23 4.46-2.65 1.63-6.04 1.63m.45-3.21q2.77 0 4.97-1.36 2.2-1.35 3.47-3.78t1.27-5.69q0-3.22-1.27-5.65-1.27-2.42-3.47-3.8-2.2-1.39-4.97-1.39t-4.91 1.33-3.35 3.67-1.22 5.44v.51q0 3.21 1.22 5.64 1.21 2.43 3.35 3.75 2.15 1.33 4.91 1.33m43.45 2.65q-1.81 0-3.39-.73-1.58-.74-2.59-2.23-1.02-1.5-1.02-3.87v-16.98h-5.02v-3.16h5.02v-6.71h3.55v6.71h7.51v3.16h-7.51v17.21q0 1.52 1.02 2.51t2.48.99h4.01v3.1zm20.76.56q-3.84 0-6.83-1.77-2.99-1.78-4.68-4.91t-1.69-7.25v-.51q0-4.01 1.69-7.08t4.68-4.82 6.83-1.75q3.78 0 6.77 1.75 2.99 1.74 4.68 4.79t1.69 7v.62q0 4.12-1.69 7.25t-4.68 4.91-6.77 1.77m0-3.21q2.82 0 4.96-1.38 2.15-1.39 3.36-3.78 1.21-2.4 1.21-5.56v-.62q0-3.05-1.21-5.36t-3.36-3.64-4.96-1.33-4.99 1.36q-2.18 1.35-3.42 3.69t-1.24 5.39v.51q0 3.16 1.24 5.56t3.42 3.78 4.99 1.38m45.25 3.21q-3.95 0-7-1.77-3.05-1.78-4.74-4.91t-1.69-7.25v-.57q0-3.95 1.58-6.99t4.37-4.83q2.79-1.77 6.52-1.77 3.78 0 6.49 1.86t3.97 5.25.77 7.89h-20.15q.12 2.77 1.39 5t3.47 3.5 5.13 1.27q4.46 0 7-2.2l2.03 2.31q-1.53 1.52-3.92 2.37-2.4.84-5.22.84m-.96-24.93q-3.73 0-6.07 2.42-2.34 2.43-2.79 6.43h16.7q.06-4.06-2.11-6.46-2.18-2.39-5.73-2.39m28.89 24.93q-3.73 0-6.58-1.74-2.85-1.75-4.45-4.91-1.61-3.16-1.61-7.28v-.51q0-4.01 1.63-7.08 1.64-3.08 4.49-4.82t6.52-1.75q3.27 0 5.84 1.55t4.09 4.2V533.5h3.61v41.19h-3.28v-5.53q-1.58 2.82-4.23 4.46-2.65 1.63-6.03 1.63m.45-3.21q2.76 0 4.96-1.36 2.2-1.35 3.47-3.78t1.27-5.69q0-3.22-1.27-5.65-1.27-2.42-3.47-3.8-2.2-1.39-4.96-1.39-2.77 0-4.91 1.33-2.15 1.32-3.36 3.67t-1.21 5.44v.51q0 3.21 1.21 5.64t3.36 3.75 4.91 1.33m19.01 13.93v-3.04h15.97q2.2 0 3.47-1.1t1.27-3.02q0-1.81-1.27-2.82-1.27-1.02-3.47-1.02h-8.58q-2.09 0-3.16-.99-1.07-.98-1.18-2.45-.12-1.47.62-2.88l1.86-3.72q-2.09-1.24-3.3-3.3t-1.21-4.6v-.51q0-2.76 1.44-4.88 1.43-2.11 4-3.3 2.57-1.18 5.9-1.18.84 0 1.58.05l2.87-5.86h3.61l-3.44 6.48q3.05 1.02 4.88 3.28 1.84 2.25 1.84 5.24v.68q0 2.82-1.44 4.99t-4.01 3.42-5.89 1.24q-2.09 0-3.95-.51l-1.47 2.82q-.28.62-.37 1.33-.08.7.37 1.21t1.58.51h7.9q3.44 0 5.56 1.75t2.11 5.02q0 3.21-2.14 5.19-2.15 1.97-5.7 1.97zm12.36-22.17q1.8 0 3.61-.65t3.02-2.17 1.21-4.29q0-2.93-2.2-4.74-2.2-1.8-5.64-1.8t-5.65 1.8-2.2 4.74q0 2.71 1.25 4.26 1.24 1.55 3.07 2.2t3.53.65m29.73 11.45q-3.95 0-7-1.77-3.04-1.78-4.74-4.91-1.69-3.13-1.69-7.25v-.57q0-3.95 1.58-6.99t4.37-4.83q2.8-1.77 6.52-1.77 3.78 0 6.49 1.86t3.98 5.25.76 7.89h-20.14q.11 2.77 1.38 5t3.47 3.5 5.13 1.27q4.46 0 7-2.2l2.03 2.31q-1.52 1.52-3.92 2.37-2.4.84-5.22.84m-.96-24.93q-3.72 0-6.06 2.42-2.35 2.43-2.8 6.43h16.7q.06-4.06-2.11-6.46-2.17-2.39-5.73-2.39m29.96 10.32v-3.38h50.78v3.38zm82.88 14.61q-3.83 0-6.83-1.77-2.99-1.78-4.68-4.91t-1.69-7.25v-.51q0-4.01 1.69-7.08t4.68-4.82 6.83-1.75q3.78 0 6.77 1.75 2.99 1.74 4.69 4.79 1.69 3.05 1.69 7v.62q0 4.12-1.69 7.25-1.7 3.13-4.69 4.91-2.99 1.77-6.77 1.77m0-3.21q2.82 0 4.97-1.38 2.14-1.39 3.35-3.78 1.22-2.4 1.22-5.56v-.62q0-3.05-1.22-5.36-1.21-2.32-3.35-3.64t-4.97-1.33q-2.82 0-4.99 1.36-2.17 1.35-3.41 3.69t-1.25 5.39v.51q0 3.16 1.25 5.56 1.24 2.39 3.41 3.78t4.99 1.38m20.2 2.65v-26.97h3.44v4.8q1.07-2.03 2.68-3.19t3.36-1.67 3.27-.5q4.57 0 7.45 2.9 2.88 2.91 2.88 8.89v15.74h-3.61V559.4q0-4.74-2.15-6.83t-5.42-2.08q-2.25 0-4.14 1.01-1.89 1.02-3.02 2.99t-1.13 4.97v15.23zm43.16.56q-3.95 0-6.99-1.77-3.05-1.78-4.74-4.91t-1.7-7.25v-.57q0-3.95 1.58-6.99t4.38-4.83q2.79-1.77 6.51-1.77 3.78 0 6.49 1.86t3.98 5.25.76 7.89h-20.14q.11 2.77 1.38 5t3.47 3.5 5.13 1.27q4.46 0 7-2.2l2.03 2.31q-1.52 1.52-3.92 2.37-2.4.84-5.22.84m-.96-24.93q-3.72 0-6.06 2.42-2.34 2.43-2.8 6.43h16.71q.05-4.06-2.12-6.46-2.17-2.39-5.73-2.39m31.6 35.65v-38.25h3.38v5.42q1.58-2.77 4.21-4.38t5.95-1.6q3.67 0 6.52 1.75 2.84 1.74 4.48 4.82 1.64 3.07 1.64 7.08v.51q0 4.12-1.61 7.28t-4.46 4.91-6.57 1.74q-3.22 0-5.81-1.52-2.6-1.52-4.12-4.17v16.41zm13.09-13.93q2.76 0 4.91-1.33 2.14-1.32 3.35-3.75 1.22-2.43 1.22-5.64v-.51q0-3.1-1.22-5.44-1.21-2.35-3.35-3.67-2.15-1.33-4.91-1.33t-4.97 1.39-3.47 3.8q-1.27 2.43-1.27 5.65 0 3.27 1.27 5.69t3.47 3.78 4.97 1.36m26.97 2.65q-3.11 0-5-1.81-1.89-1.8-1.89-4.79v-31.48h-5.19v-3.11h8.8v34.65q0 1.46.99 2.45t2.46.99h2.42v3.1zm16.02.56q-4.68 0-7.45-2.2-2.76-2.2-2.76-5.75 0-2.37 1.35-4.18 1.36-1.8 3.75-2.85 2.4-1.04 5.5-1.04 2.49 0 4.38.59 1.89.6 3.19 1.67v-4.18q0-3.66-1.87-5.27-1.86-1.61-5.02-1.61-2.25 0-4.6.82t-3.92 2.62l-1.75-2.54q1.81-2.09 4.63-3.13t5.81-1.04q4.63 0 7.45 2.48t2.82 7.5v8.58q0 4.51.17 8.97h-3.22l-.05-2.93q-2.43 3.49-8.41 3.49m.85-2.76q3.44 0 5.27-1.47 1.84-1.46 1.84-3.72 0-2.31-1.87-3.72-1.86-1.42-5.3-1.42-3.39 0-5.36 1.42-1.97 1.41-1.97 3.72 0 2.26 1.97 3.72t5.42 1.47m27.59 2.2q-1.81 0-3.39-.73-1.58-.74-2.59-2.23-1.02-1.5-1.02-3.87v-16.98h-5.02v-3.16h5.02v-6.71h3.55v6.71h7.51v3.16h-7.51v17.21q0 1.52 1.02 2.51t2.48.99h4.01v3.1zm12.18 0v-23.81h-5.13v-3.16h5.13v-7.39q0-3.1 1.98-4.96 1.97-1.87 5.07-1.87h4.46v3.11h-4.46q-1.52 0-2.51.98-.98.99-.98 2.46v7.67h7.95v3.16h-7.95v23.81zm26.86.56q-3.84 0-6.83-1.77-2.99-1.78-4.68-4.91t-1.69-7.25v-.51q0-4.01 1.69-7.08t4.68-4.82 6.83-1.75q3.78 0 6.77 1.75 2.99 1.74 4.68 4.79t1.69 7v.62q0 4.12-1.69 7.25t-4.68 4.91-6.77 1.77m0-3.21q2.82 0 4.96-1.38 2.15-1.39 3.36-3.78 1.21-2.4 1.21-5.56v-.62q0-3.05-1.21-5.36t-3.36-3.64-4.96-1.33-4.99 1.36q-2.18 1.35-3.42 3.69t-1.24 5.39v.51q0 3.16 1.24 5.56t3.42 3.78 4.99 1.38m20.2 2.65v-26.97h3.5v4.4q1.01-2.59 3.01-3.52 2.01-.94 4.55-.94h2.31v3.56h-2.6q-3.33 0-5.24 1.72t-1.92 5.39v16.36zm19.01 0v-26.97h3.44v4.74q1.53-2.99 4.01-4.15 2.48-1.15 4.91-1.15 3.1 0 5.38 1.41 2.29 1.41 3.36 4.4 1.13-2.2 2.74-3.47t3.38-1.81 3.42-.53q4.4 0 7.13 2.85 2.74 2.85 2.74 8.83v15.85h-3.5v-15.46q0-4.63-1.97-6.68-1.98-2.06-5.19-2.06-3.28 0-5.53 2.22t-2.26 6.46v15.52h-3.55v-15.46q0-4.63-1.95-6.68-1.95-2.06-5.16-2.06-3.33 0-5.59 2.22t-2.25 6.46v15.52zm48.18 0v-5.19h4.35v5.19zM773.72 690.33v-39.49h3.78v23.3l19.13-23.3h4.46l-13.88 16.92 15.12 22.57h-4.57l-13.03-19.52-7.23 8.86v10.66zm42.09.56q-2.99 0-5.36-1.15-2.37-1.16-3.72-3.61t-1.35-6.46v-16.31h3.55v15.74q0 4.74 2.14 6.6 2.15 1.87 5.36 1.87 2.2 0 4.07-.99 1.86-.99 3.02-2.94 1.15-1.94 1.15-4.93v-15.35h3.5v26.97h-3.27v-4.46q-1.64 2.82-4.23 3.92t-4.86 1.1m34.82 0q-3.33 0-6.01-1.6-2.68-1.61-4.21-4.49v5.53h-3.33v-41.19h3.62v19.41q1.52-2.65 4.09-4.2t5.84-1.55q3.66 0 6.51 1.75 2.85 1.74 4.49 4.82 1.63 3.07 1.63 7.08v.51q0 4.12-1.6 7.28-1.61 3.16-4.46 4.91-2.85 1.74-6.57 1.74m-.46-3.21q2.77 0 4.91-1.33 2.15-1.32 3.36-3.75t1.21-5.64v-.51q0-3.1-1.21-5.44t-3.36-3.67-4.91-1.33-4.96 1.39q-2.2 1.38-3.47 3.8-1.27 2.43-1.27 5.65 0 3.27 1.27 5.69t3.47 3.78 4.96 1.36m31.71 3.21q-3.95 0-6.99-1.77-3.05-1.78-4.74-4.91t-1.7-7.25v-.57q0-3.95 1.58-6.99t4.38-4.83q2.79-1.77 6.51-1.77 3.78 0 6.49 1.86t3.98 5.25.76 7.89h-20.14q.11 2.77 1.38 5t3.47 3.5 5.13 1.27q4.46 0 7-2.2l2.03 2.31q-1.52 1.52-3.92 2.37-2.4.84-5.22.84m-.96-24.93q-3.72 0-6.06 2.42-2.34 2.43-2.8 6.43h16.71q.05-4.06-2.12-6.46-2.17-2.39-5.73-2.39m18.11 24.37v-26.97h3.5v4.4q1.02-2.59 3.02-3.52t4.54-.94h2.32v3.56h-2.6q-3.33 0-5.25 1.72t-1.92 5.39v16.36zm19.02 0v-26.97h3.44v4.8q1.07-2.03 2.68-3.19t3.36-1.67 3.27-.5q4.57 0 7.45 2.9 2.87 2.91 2.87 8.89v15.74h-3.61v-15.29q0-4.74-2.14-6.83t-5.42-2.08q-2.25 0-4.14 1.01-1.89 1.02-3.02 2.99t-1.13 4.97v15.23zm43.16.56q-3.95 0-7-1.77-3.04-1.78-4.74-4.91-1.69-3.13-1.69-7.25v-.57q0-3.95 1.58-6.99t4.37-4.83q2.8-1.77 6.52-1.77 3.78 0 6.49 1.86t3.98 5.25.76 7.89h-20.14q.11 2.77 1.38 5t3.47 3.5 5.13 1.27q4.46 0 7-2.2l2.03 2.31q-1.52 1.52-3.92 2.37-2.4.84-5.22.84m-.96-24.93q-3.72 0-6.07 2.42-2.34 2.43-2.79 6.43h16.7q.06-4.06-2.11-6.46-2.18-2.39-5.73-2.39m26.52 24.37q-1.81 0-3.39-.73-1.58-.74-2.59-2.23-1.02-1.5-1.02-3.87v-16.98h-5.02v-3.16h5.02v-6.71h3.56v6.71h7.5v3.16h-7.5v17.21q0 1.52 1.01 2.51 1.02.99 2.48.99h4.01v3.1zm20.99.56q-3.95 0-7-1.77-3.05-1.78-4.74-4.91t-1.69-7.25v-.57q0-3.95 1.58-6.99t4.37-4.83q2.79-1.77 6.52-1.77 3.78 0 6.48 1.86t3.98 5.25.76 7.89h-20.14q.11 2.77 1.38 5t3.47 3.5 5.14 1.27q4.46 0 6.99-2.2l2.04 2.31q-1.53 1.52-3.93 2.37-2.39.84-5.21.84m-.96-24.93q-3.73 0-6.07 2.42-2.34 2.43-2.79 6.43h16.7q.06-4.06-2.12-6.46-2.17-2.39-5.72-2.39m25.27 24.88q-2.82 0-5.41-.9-2.6-.91-4.18-2.43l1.64-2.48q1.46 1.35 3.61 2.14t4.34.79q2.77 0 4.52-1.3 1.75-1.29 1.75-3.44 0-1.75-1.08-2.71-1.07-.96-2.79-1.46-1.72-.51-3.61-.99t-3.58-1.24-2.77-2.17-1.07-3.95q0-3.5 2.6-5.7 2.59-2.2 6.94-2.2 2.48 0 4.65.76t3.81 2l-1.64 2.54q-1.41-1.13-3.16-1.75t-3.72-.62q-2.71 0-4.37 1.3t-1.67 3.38q0 1.75 1.07 2.68 1.08.93 2.8 1.47t3.64 1.02 3.64 1.27 2.79 2.25q1.07 1.47 1.07 4.01 0 3.38-2.74 5.56-2.73 2.17-7.08 2.17m38.2.05q-4.68 0-7.45-2.2-2.76-2.2-2.76-5.75 0-2.37 1.35-4.18 1.36-1.8 3.75-2.85 2.4-1.04 5.5-1.04 2.49 0 4.38.59 1.89.6 3.18 1.67v-4.18q0-3.66-1.86-5.27t-5.02-1.61q-2.26 0-4.6.82t-3.92 2.62l-1.75-2.54q1.81-2.09 4.63-3.13t5.81-1.04q4.63 0 7.45 2.48t2.82 7.5v8.58q0 4.51.17 8.97h-3.22l-.05-2.93q-2.43 3.49-8.41 3.49m.85-2.76q3.44 0 5.27-1.47 1.83-1.46 1.83-3.72 0-2.31-1.86-3.72t-5.3-1.42q-3.39 0-5.36 1.42-1.98 1.41-1.98 3.72 0 2.26 1.98 3.72 1.97 1.47 5.42 1.47m27.59 2.2q-1.81 0-3.39-.73-1.58-.74-2.6-2.23-1.01-1.5-1.01-3.87v-16.98h-5.02v-3.16h5.02v-6.71h3.55v6.71h7.51v3.16h-7.51v17.21q0 1.52 1.02 2.51 1.01.99 2.48.99h4.01v3.1zm31.87.56q-4.68 0-7.44-2.2t-2.77-5.75q0-2.37 1.35-4.18 1.36-1.8 3.76-2.85 2.39-1.04 5.5-1.04 2.48 0 4.37.59 1.89.6 3.19 1.67v-4.18q0-3.66-1.86-5.27-1.87-1.61-5.03-1.61-2.25 0-4.59.82-2.35.82-3.92 2.62l-1.75-2.54q1.8-2.09 4.62-3.13t5.81-1.04q4.63 0 7.45 2.48t2.82 7.5v8.58q0 4.51.17 8.97h-3.21l-.06-2.93q-2.43 3.49-8.41 3.49m.85-2.76q3.44 0 5.27-1.47 1.84-1.46 1.84-3.72 0-2.31-1.86-3.72-1.87-1.42-5.31-1.42-3.38 0-5.36 1.42-1.97 1.41-1.97 3.72 0 2.26 1.97 3.72 1.98 1.47 5.42 1.47m19.29 2.2v-26.97h3.45v4.8q1.07-2.03 2.68-3.19 1.6-1.16 3.35-1.67 1.75-.5 3.28-.5 4.57 0 7.44 2.9 2.88 2.91 2.88 8.89v15.74h-3.61v-15.29q0-4.74-2.14-6.83t-5.42-2.08q-2.26 0-4.15 1.01-1.89 1.02-3.02 2.99-1.12 1.98-1.12 4.97v15.23zm27.76 11.28v-3.1h5.14q1.41 0 2.23-.99.81-.98 1.32-2.28l2.09-4.68-11.17-27.2h3.95l9.14 22.79 8.86-22.79h3.95l-13.15 31.99q-.62 1.52-1.5 2.96-.87 1.44-2.28 2.37t-3.61.93zm50.39-10.77q-2.82 0-5.42-.9-2.59-.91-4.17-2.43l1.63-2.48q1.47 1.35 3.61 2.14 2.15.79 4.35.79 2.76 0 4.51-1.3 1.75-1.29 1.75-3.44 0-1.75-1.07-2.71t-2.8-1.46-3.61-.99-3.58-1.24-2.76-2.17-1.08-3.95q0-3.5 2.6-5.7t6.94-2.2q2.48 0 4.65.76t3.81 2l-1.63 2.54q-1.41-1.13-3.16-1.75t-3.73-.62q-2.71 0-4.37 1.3t-1.66 3.38q0 1.75 1.07 2.68t2.79 1.47 3.64 1.02 3.64 1.27 2.79 2.25q1.07 1.47 1.07 4.01 0 3.38-2.73 5.56-2.74 2.17-7.08 2.17m28.43.05q-4 0-7.11-1.74-3.1-1.75-4.85-4.83-1.75-3.07-1.75-7.14v-.73q0-4.01 1.78-7.08t4.85-4.82 7.08-1.75q2.94 0 5.31 1.04t4.06 2.91l-2.26 2.25q-2.76-2.87-7.16-2.87-2.94 0-5.22 1.29-2.29 1.3-3.59 3.64t-1.29 5.39v.73q0 3.11 1.32 5.45 1.33 2.34 3.61 3.64 2.29 1.3 5.22 1.3 4.4 0 7.22-2.88l2.2 2.25q-1.69 1.87-4.09 2.91t-5.33 1.04m23.76 0q-4.69 0-7.45-2.2-2.77-2.2-2.77-5.75 0-2.37 1.36-4.18 1.35-1.8 3.75-2.85 2.4-1.04 5.5-1.04 2.48 0 4.37.59 1.89.6 3.19 1.67v-4.18q0-3.66-1.86-5.27t-5.02-1.61q-2.26 0-4.6.82t-3.92 2.62l-1.75-2.54q1.8-2.09 4.63-3.13 2.82-1.04 5.81-1.04 4.62 0 7.44 2.48t2.83 7.5v8.58q0 4.51.16 8.97h-3.21l-.06-2.93q-2.42 3.49-8.4 3.49m.84-2.76q3.44 0 5.28-1.47 1.83-1.46 1.83-3.72 0-2.31-1.86-3.72t-5.3-1.42q-3.39 0-5.36 1.42-1.98 1.41-1.98 3.72 0 2.26 1.98 3.72 1.97 1.47 5.41 1.47m26.12 2.2q-3.1 0-4.99-1.81-1.89-1.8-1.89-4.79v-31.48h-5.19v-3.11h8.8v34.65q0 1.46.99 2.45t2.45.99h2.43v3.1zm18.91.56q-3.95 0-7-1.77-3.05-1.78-4.74-4.91t-1.69-7.25v-.57q0-3.95 1.58-6.99t4.37-4.83q2.79-1.77 6.52-1.77 3.78 0 6.48 1.86t3.98 5.25.76 7.89h-20.14q.11 2.77 1.38 5t3.47 3.5 5.14 1.27q4.46 0 6.99-2.2l2.04 2.31q-1.53 1.52-3.93 2.37-2.39.84-5.21.84m-.96-24.93q-3.73 0-6.07 2.42-2.34 2.43-2.79 6.43h16.7q.05-4.06-2.12-6.46-2.17-2.39-5.72-2.39m-620.29 6.9v-2.93h37.58l-15.46-15.46h4.4l16.93 17.04-16.93 16.75h-4.23l15.52-15.4zm74.02 121.83q-2.65 0-4.37-1.75t-1.72-4.34v-33.4h3.73v32.44q0 1.46 1.01 2.45 1.02.99 2.48.99h15.69v3.61zm22.63 0v-23.81h-5.42v-3.16h8.97v26.97zm-.23-33.18v-6.09h4.01v6.09zm12.75 33.18v-26.97h3.45v4.8q1.07-2.03 2.68-3.19 1.6-1.16 3.35-1.67 1.75-.5 3.28-.5 4.57 0 7.44 2.9 2.88 2.91 2.88 8.89v15.74h-3.61V779.4q0-4.74-2.14-6.83t-5.42-2.08q-2.26 0-4.15 1.01-1.89 1.02-3.02 2.99-1.12 1.98-1.12 4.97v15.23zm41.64.56q-2.99 0-5.36-1.15-2.37-1.16-3.72-3.61t-1.35-6.46v-16.31h3.55v15.74q0 4.74 2.14 6.6 2.15 1.87 5.36 1.87 2.2 0 4.07-.99 1.86-.99 3.01-2.94 1.16-1.94 1.16-4.93v-15.35h3.5v26.97h-3.27v-4.46q-1.64 2.82-4.24 3.92-2.59 1.1-4.85 1.1m17.78-.56 9.76-13.43-9.48-13.54h4.23l7.62 11.29 7.67-11.29h4.12l-9.42 13.54 9.7 13.43h-4.34l-7.79-11.11-7.84 11.11zm38.81 11.28v-3.1h5.14q1.41 0 2.23-.99.81-.98 1.32-2.28l2.09-4.68-11.17-27.2h3.95l9.14 22.79 8.85-22.79h3.95l-13.14 31.99q-.62 1.52-1.5 2.96-.87 1.44-2.28 2.37t-3.61.93zm41.64-10.72q-3.84 0-6.83-1.77-2.99-1.78-4.68-4.91t-1.69-7.25v-.51q0-4.01 1.69-7.08t4.68-4.82 6.83-1.75q3.78 0 6.77 1.75 2.99 1.74 4.68 4.79 1.7 3.05 1.7 7v.62q0 4.12-1.7 7.25-1.69 3.13-4.68 4.91-2.99 1.77-6.77 1.77m0-3.21q2.82 0 4.97-1.38 2.14-1.39 3.35-3.78 1.22-2.4 1.22-5.56v-.62q0-3.05-1.22-5.36-1.21-2.32-3.35-3.64t-4.97-1.33q-2.82 0-4.99 1.36-2.17 1.35-3.42 3.69-1.24 2.34-1.24 5.39v.51q0 3.16 1.24 5.56 1.25 2.39 3.42 3.78t4.99 1.38m30.24 3.21q-2.99 0-5.36-1.15-2.37-1.16-3.72-3.61-1.36-2.46-1.36-6.46v-16.31h3.56v15.74q0 4.74 2.14 6.6 2.15 1.87 5.36 1.87 2.2 0 4.06-.99 1.87-.99 3.02-2.94 1.16-1.94 1.16-4.93v-15.35h3.5v26.97h-3.27v-4.46q-1.64 2.82-4.24 3.92-2.59 1.1-4.85 1.1m46.61 0q-4.01 0-7.11-1.74-3.11-1.75-4.86-4.83-1.75-3.07-1.75-7.14v-.73q0-4.01 1.78-7.08t4.85-4.82 7.09-1.75q2.93 0 5.3 1.04t4.06 2.91l-2.26 2.25q-2.76-2.87-7.16-2.87-2.94 0-5.22 1.29-2.29 1.3-3.58 3.64-1.3 2.34-1.3 5.39v.73q0 3.11 1.33 5.45 1.32 2.34 3.61 3.64 2.28 1.3 5.22 1.3 4.4 0 7.22-2.88l2.2 2.25q-1.7 1.87-4.09 2.91-2.4 1.04-5.33 1.04m23.75 0q-4.68 0-7.45-2.2-2.76-2.2-2.76-5.75 0-2.37 1.35-4.18t3.75-2.85 5.5-1.04q2.49 0 4.38.59 1.89.6 3.18 1.67v-4.18q0-3.66-1.86-5.27t-5.02-1.61q-2.26 0-4.6.82t-3.92 2.62l-1.75-2.54q1.81-2.09 4.63-3.13t5.81-1.04q4.63 0 7.45 2.48t2.82 7.5v8.58q0 4.51.17 8.97h-3.22l-.06-2.93q-2.42 3.49-8.4 3.49m.84-2.76q3.45 0 5.28-1.47 1.83-1.46 1.83-3.72 0-2.31-1.86-3.72t-5.3-1.42q-3.39 0-5.36 1.42-1.98 1.41-1.98 3.72 0 2.26 1.98 3.72 1.97 1.47 5.41 1.47m19.3 2.2v-26.97h3.44v4.8q1.07-2.03 2.68-3.19t3.36-1.67 3.27-.5q4.57 0 7.45 2.9 2.88 2.91 2.88 8.89v15.74h-3.61V779.4q0-4.74-2.15-6.83t-5.42-2.08q-2.25 0-4.14 1.01-1.89 1.02-3.02 2.99t-1.13 4.97v15.23zm53.04 0q-1.81 0-3.39-.73-1.58-.74-2.6-2.23-1.01-1.5-1.01-3.87v-16.98h-5.02v-3.16h5.02v-6.71h3.55v6.71h7.51v3.16h-7.51v17.21q0 1.52 1.02 2.51 1.01.99 2.48.99h4.01v3.1zm10.32 0v-26.97h3.5v4.4q1.01-2.59 3.02-3.52t4.54-.94h2.31v3.56h-2.59q-3.33 0-5.25 1.72t-1.92 5.39v16.36zm29.06.56q-2.99 0-5.36-1.15-2.37-1.16-3.73-3.61t-1.35-6.46v-16.31h3.55v15.74q0 4.74 2.15 6.6 2.14 1.87 5.36 1.87 2.2 0 4.06-.99t3.02-2.94 1.15-4.93v-15.35h3.5v26.97h-3.27v-4.46q-1.64 2.82-4.23 3.92t-4.85 1.1m28.43-.05q-2.82 0-5.41-.9-2.6-.91-4.18-2.43l1.64-2.48q1.46 1.35 3.61 2.14t4.34.79q2.77 0 4.52-1.3 1.74-1.29 1.74-3.44 0-1.75-1.07-2.71t-2.79-1.46-3.61-.99-3.58-1.24-2.77-2.17-1.07-3.95q0-3.5 2.6-5.7 2.59-2.2 6.94-2.2 2.48 0 4.65.76t3.81 2l-1.64 2.54q-1.41-1.13-3.16-1.75t-3.72-.62q-2.71 0-4.37 1.3t-1.67 3.38q0 1.75 1.07 2.68 1.08.93 2.8 1.47t3.64 1.02 3.63 1.27q1.73.79 2.8 2.25 1.07 1.47 1.07 4.01 0 3.38-2.74 5.56-2.73 2.17-7.08 2.17m25.28-.51q-1.81 0-3.39-.73-1.58-.74-2.59-2.23-1.02-1.5-1.02-3.87v-16.98h-5.02v-3.16h5.02v-6.71h3.56v6.71h7.5v3.16h-7.5v17.21q0 1.52 1.01 2.51 1.02.99 2.49.99h4v3.1zm-515.91-17.47v-2.93h37.58l-15.46-15.46h4.4l16.93 17.04-16.93 16.75h-4.23l15.52-15.4z"/><rect width="314.69" height="98.81" x="708.05" y="883.42" fill="none" stroke="#0c322c" stroke-width="3" rx="49.41" ry="49.41"/><path fill="#0c322c" d="M777.87 948.08q-4.37 0-7.68-1.94-3.32-1.95-5.22-5.37-1.91-3.43-1.91-7.92v-.73q0-4.49 1.93-7.93 1.92-3.45 5.32-5.39 3.41-1.95 7.86-1.95 2.61 0 4.92.83 2.31.84 4.19 2.42l-1.93 2.05q-1.49-1.32-3.36-1.94t-3.82-.62q-3.56 0-6.32 1.6-2.76 1.61-4.3 4.43t-1.54 6.5v.73q0 3.68 1.52 6.5 1.52 2.83 4.2 4.41 2.67 1.58 6.18 1.58 3.12 0 5.41-1.47 2.29-1.48 3.55-3.98t1.18-5.5h-8.26v-2.44h11.04q.34 3.42-.41 6.36-.75 2.93-2.46 5.13t-4.28 3.42-5.81 1.22m26.91-.21q-3 0-5.31-1.35t-3.59-3.72-1.29-5.5v-.43q0-2.99 1.2-5.3t3.32-3.66 4.94-1.35q2.87 0 4.92 1.41t3.02 3.98.57 5.99h-15.27q.09 2.1 1.05 3.79t2.63 2.65 3.89.96q3.38 0 5.31-1.67l1.54 1.76q-1.16 1.15-2.97 1.8-1.82.64-3.96.64m-.73-18.91q-2.82 0-4.6 1.84t-2.12 4.87H810q.04-3.08-1.61-4.89-1.64-1.82-4.34-1.82m20.32 18.48q-1.37 0-2.56-.56-1.2-.55-1.97-1.69-.77-1.13-.77-2.93v-12.88h-3.81v-2.39h3.81v-5.09h2.69v5.09h5.69v2.39h-5.69v13.05q0 1.16.77 1.91t1.89.75h3.03v2.35zm23.92.39q-2.14 0-4.11-.69-1.96-.68-3.16-1.84l1.24-1.88q1.11 1.03 2.74 1.62 1.62.6 3.29.6 2.1 0 3.42-.98 1.33-.99 1.33-2.61 0-1.33-.81-2.05-.82-.73-2.12-1.12-1.31-.38-2.74-.75-1.43-.36-2.72-.94-1.28-.57-2.09-1.64-.82-1.07-.82-3 0-2.65 1.97-4.32t5.27-1.67q1.88 0 3.52.58t2.89 1.52l-1.24 1.92q-1.07-.85-2.39-1.32-1.33-.47-2.83-.47-2.05 0-3.31.98t-1.27 2.57q0 1.32.82 2.03t2.12 1.11 2.75.77 2.76.96 2.12 1.72q.82 1.11.82 3.03 0 2.57-2.08 4.22-2.07 1.65-5.37 1.65m19.38-.39q-1.37 0-2.56-.56-1.2-.55-1.97-1.69-.77-1.13-.77-2.93v-12.88h-3.81v-2.39h3.81v-5.09h2.69v5.09h5.69v2.39h-5.69v13.05q0 1.16.77 1.91t1.89.75h3.03v2.35zm14.16.43q-3.55 0-5.64-1.67-2.1-1.67-2.1-4.36 0-1.8 1.03-3.17 1.02-1.37 2.84-2.16t4.17-.79q1.89 0 3.32.45t2.42 1.26v-3.17q0-2.78-1.41-4-1.42-1.22-3.81-1.22-1.71 0-3.49.62t-2.97 1.99l-1.33-1.92q1.37-1.59 3.51-2.38t4.41-.79q3.5 0 5.64 1.88 2.14 1.89 2.14 5.69v6.51q0 3.42.13 6.8h-2.44l-.04-2.22q-1.84 2.65-6.38 2.65m.65-2.1q2.61 0 4-1.11t1.39-2.82q0-1.76-1.41-2.83-1.42-1.07-4.03-1.07-2.56 0-4.06 1.07t-1.5 2.83q0 1.71 1.5 2.82t4.11 1.11m14.84 1.67v-20.45h2.66v3.34q.77-1.97 2.28-2.68 1.52-.7 3.45-.7h1.75v2.69h-1.97q-2.52 0-3.97 1.31-1.46 1.3-1.46 4.08v12.41zm21.18 0q-1.37 0-2.57-.56-1.19-.55-1.96-1.69-.77-1.13-.77-2.93v-12.88h-3.81v-2.39h3.81v-5.09h2.69v5.09h5.69v2.39h-5.69v13.05q0 1.16.77 1.91t1.88.75h3.04v2.35zm16.13.43q-2.99 0-5.3-1.35t-3.6-3.72-1.28-5.5v-.43q0-2.99 1.2-5.3 1.19-2.31 3.31-3.66t4.94-1.35q2.87 0 4.92 1.41 2.06 1.41 3.02 3.98t.58 5.99h-15.28q.09 2.1 1.05 3.79t2.63 2.65 3.9.96q3.38 0 5.3-1.67l1.54 1.76q-1.15 1.15-2.97 1.8-1.82.64-3.96.64m-.73-18.91q-2.82 0-4.6 1.84t-2.11 4.87h12.66q.04-3.08-1.6-4.89-1.65-1.82-4.35-1.82m22.12 18.91q-2.82 0-4.98-1.33-2.16-1.32-3.38-3.72t-1.22-5.52v-.39q0-3.03 1.24-5.36t3.4-3.66 4.94-1.33q2.49 0 4.43 1.18 1.95 1.17 3.1 3.18v-14.71h2.74v31.23h-2.48v-4.19q-1.2 2.14-3.21 3.38t-4.58 1.24m.35-2.44q2.09 0 3.76-1.03 1.67-1.02 2.63-2.86.97-1.84.97-4.33 0-2.43-.97-4.27-.96-1.84-2.63-2.89t-3.76-1.05-3.73 1q-1.62 1.01-2.54 2.79-.92 1.77-.92 4.12v.39q0 2.44.92 4.28t2.54 2.84 3.73 1.01"/><svg xmlns="http://www.w3.org/2000/svg" xmlns:c2pa="http://c2pa.org/manifest" width="497.58" height="108" x="1326.42" y="96" viewBox="0 0 210.6 38.09"><path fill="#0c322c" d="M208.46 27.03h-13.55a1.9 1.9 0 0 1-1.9-1.9v-6.85h13.09a2.04 2.04 0 1 0 0-4.07H193V7.47c0-1.04.85-1.9 1.9-1.9h13.55a2.14 2.14 0 1 0 0-4.27H194.9a6.2 6.2 0 0 0-6.17 6.17v17.66a6.2 6.2 0 0 0 6.17 6.17h13.55a2.14 2.14 0 1 0 0-4.27M168.6 14.27q-4.3-.78-5.97-1.84-1.68-1.06-1.68-2.87 0-1.94 1.72-3.19 1.72-1.24 4.85-1.24 3.16 0 5.06 1.22 1.03.66 1.87 1.75A2.32 2.32 0 1 0 178 5.14a12 12 0 0 0-3.5-2.73q-2.92-1.5-7.04-1.5-3.53 0-6.18 1.23-2.65 1.22-4.05 3.3a8 8 0 0 0-1.4 4.62q0 2.4 1.1 4.07 1.12 1.68 3.56 2.8 2.44 1.14 6.56 1.9 4.12.78 5.77 1.77 1.66 1 1.65 2.62 0 2.05-1.83 3.15-1.83 1.11-5.04 1.11-3.4 0-5.68-1.27a9 9 0 0 1-2.34-1.92 2.3 2.3 0 0 0-3.37-.09v.01a2.3 2.3 0 0 0-.12 3.16q3.87 4.32 11.55 4.32 3.53 0 6.22-1.07 2.7-1.06 4.19-3.05t1.5-4.62q0-2.44-1.1-4.09-1.08-1.65-3.46-2.76t-6.4-1.83m-66.83 0q-4.3-.77-5.97-1.83-1.68-1.06-1.68-2.87 0-1.95 1.72-3.2t4.84-1.24q3.17 0 5.07 1.23 1.03.66 1.87 1.75a2.32 2.32 0 1 0 3.56-2.96 12 12 0 0 0-3.5-2.73q-2.92-1.5-7.04-1.5-3.53 0-6.18 1.23-2.65 1.22-4.05 3.3a8 8 0 0 0-1.4 4.62q0 2.4 1.1 4.07 1.12 1.68 3.56 2.8 2.44 1.14 6.56 1.9 4.12.78 5.77 1.77 1.65 1 1.65 2.63 0 2.03-1.83 3.14t-5.05 1.11q-3.4 0-5.68-1.27a9 9 0 0 1-2.33-1.92 2.3 2.3 0 0 0-3.37-.09v.01a2.3 2.3 0 0 0-.12 3.16q3.87 4.32 11.55 4.32 3.53 0 6.22-1.07t4.19-3.05 1.5-4.62q0-2.44-1.1-4.1t-3.46-2.75-6.4-1.83m44.57-10.92v16.43q0 5.88-3.12 8.89t-9.1 3.01-9.1-3.01q-3.11-3.01-3.11-8.9V3.37a2.44 2.44 0 0 1 4.88 0V19.2q0 4.25 1.8 6.27t5.54 2.01 5.54-2.01 1.79-6.27V3.36a2.44 2.44 0 0 1 4.88 0"/><path fill="#30ba78" d="M71.4 13.46a1.2 1.2 0 0 1-1.35 0 1.23 1.23 0 0 1-.19-1.9 1.2 1.2 0 0 1 1.74 0c.54.54.47 1.46-.2 1.9m1.94-2.69a4.55 4.55 0 0 1-5.46 5.47 4.6 4.6 0 0 1-3.4-3.4 4.55 4.55 0 0 1 5.47-5.45 4.6 4.6 0 0 1 3.4 3.39M51.22 28.44q.59.8.86 1.58c.13.37.29.85.65 1.05l.06.03c.67.24 2.4.2 2.4.2h3.16c.27 0 2.66 0 2.6-.27-.3-1.27-1.76-1.5-2.88-2.17-1.04-.61-2.02-1.31-2.46-2.51-.23-.62-.1-2.05.3-2.57a2 2 0 0 1 1.18-.73c.52-.1 1.05-.01 1.56.04.63.06 1.25.18 1.88.25q1.81.23 3.65.2a20 20 0 0 0 5.95-1.04 14 14 0 0 0 3.79-1.9c1.29-.95.95-.86-.36-.73q-2.35.23-4.71.1a10 10 0 0 1-4.24-.95 10 10 0 0 1-2.77-1.91.6.6 0 0 1 .03-.73c.22-.23.68-.1.82.03 1.45 1.2 3.6 2.2 5.83 2.3q1.79.11 3.59.04c.6-.03 1.51-.03 2.12-.03.3-.01 1.16.08 1.32-.25q.06-.14.04-.32C75.42 13.33 75.06 7.9 70 5.58c-3.76-1.72-9.41-4.4-11.8-5.5a.85.85 0 0 0-1.2.77c0 1.61.08 3.93.08 6.04-1.14-1.17-3.07-1.9-4.53-2.58a43 43 0 0 0-5.14-1.96A55 55 0 0 0 36.6.23a42 42 0 0 0-12.5.63 38.6 38.6 0 0 0-18.4 9.38C2.6 13.15.19 17.3.02 21.5c-.23 5.94 1.43 9.13 4.5 12.42 4.87 5.24 15.38 5.98 19.63-.24 1.91-2.8 2.33-6.6.94-9.69a9.3 9.3 0 0 0-7.97-5.43c-2.62-.1-5.42 1.25-6.43 3.67a5.3 5.3 0 0 0 1.07 5.6c.54.55 1.28 1.01 2.09.83.47-.1.87-.46.94-.94.1-.71-.51-1.17-.9-1.72a2.64 2.64 0 0 1 .32-3.3c.73-.7 1.8-.92 2.82-.91.95 0 1.92.17 2.73.64a4.8 4.8 0 0 1 2.17 3.22c.8 3.9-2.38 7.07-6.68 7.32a9 9 0 0 1-6.16-1.83c-4.35-3.5-5.42-10.65-.45-14.47 4.72-3.62 10.68-2.69 14.2-.8 2.81 1.5 4.9 3.97 6.5 6.7a39 39 0 0 1 2.1 4.25c.6 1.4 1.17 2.81 2.39 3.84.8.68 1.8.65 2.84.65h6c.82 0 .63-.54.27-.9-.8-.82-1.94-1-3-1.3-2.42-.66-2.17-3.86-1.5-3.86 2.16 0 2.23.06 4.13.04 2.73-.04 3.56-.2 5.7.6a7 7 0 0 1 2.96 2.56"/></svg><path fill="rgba(255,255,255,0.85)" d="M1695.95 1050H1912v22h-216.05z"/><path fill="none" stroke="#c0392b" d="M1696.45 1050.5h215.05v21h-215.05z"/><text x="1704.95" y="1055" fill="#c0392b" dominant-baseline="text-before-edge" font-family="monospace" font-size="10" font-weight="700">EXPERIMENTAL — NOT BRAND APPROVED</text></svg>