<svg xmlns="http://www.w3.org/2000/svg" width="1920" height="1080" viewBox="0 0 1920 1080"><path fill="#0c322c" d="M0 0h1920v1080H0z"/><path fill="#30ba78" d="M0 0h687.36v1080H0z"/><path fill="#bff1ea" d="M112.01 407.48q-12.53 0-22.23-5.94-9.69-5.95-15.18-16.41t-5.49-24.17v-1.29q0-13.44 5.49-23.65T89.78 320t22.23-5.82 22.23 5.82q9.69 5.81 15.18 16.02t5.49 23.65v1.29q0 13.7-5.49 24.17-5.49 10.46-15.18 16.41t-22.23 5.94m0-6.07q10.73 0 18.93-5.11 8.21-5.1 12.92-14.21 4.72-9.11 4.72-21.13v-1.29q0-11.63-4.72-20.55t-12.92-13.89q-8.2-4.98-18.93-4.98t-18.93 4.98q-8.21 4.97-12.92 13.89-4.72 8.92-4.72 20.55v1.29q0 12.02 4.72 21.13t12.92 14.21q8.2 5.11 18.93 5.11m80.12 5.94q-6.85 0-12.15-2.58t-8.4-8.27-3.1-14.86v-36.96h5.95v36.18q0 7.75 2.45 12.34t6.66 6.59q4.2 2.01 9.49 2.01 5.43 0 10.08-2.46t7.5-7.3 2.84-12.21v-35.15h5.82v61.38h-5.56v-11.24q-3.62 6.85-9.82 9.69t-11.76 2.84m62.16-1.29-25.2-61.38h6.2l22.23 54.14 21.97-54.14h6.2l-25.07 61.38zm66.42 1.29q-9.05 0-15.9-4.07t-10.72-11.24-3.88-16.48v-1.29q0-9.05 3.56-15.96 3.55-6.91 9.88-10.92t14.73-4q8.27 0 14.28 4.2t8.92 11.63 1.87 17.25h-47.29q.12 7.36 3.29 13.05t8.66 8.98 12.73 3.3q4.91 0 9.24-1.36t7.3-3.94l3.49 4q-3.49 3.23-8.79 5.04t-11.37 1.81m-2.33-58.54q-9.43 0-15.38 6.27-5.94 6.27-6.72 16.35h41.49q.25-10.34-5.17-16.48t-14.22-6.14m38.51 57.25v-61.38h5.69v10.21q2.45-6.08 7.1-8.21 4.66-2.13 10.34-2.13h5.56v5.94h-5.82q-7.88 0-12.4 4.14t-4.52 13.31v38.12zm57.38 0q-6.08 0-10.47-3.75t-4.39-10.85v-41.35h-12.02v-5.43h12.02V329.3h5.81v15.38h17.96v5.43h-17.96v41.61q0 3.87 2.59 6.46t6.46 2.58h8.91v5.3zm18.73 0v-9.56h6.98v9.56zM64.07 532.69l35.66-90.46h7.11l35.67 90.46h-6.46l-10.6-27.14H81l-10.6 27.14zM83.19 500h40.06l-19.9-51.05zm91.62 33.98q-8.53 0-14.99-4t-10.08-11.18-3.61-16.61v-1.16q0-9.05 3.68-16.09t10.14-10.98 14.86-3.94q8.14 0 14.35 4.07t9.69 11.05v-46.78h5.94v94.33h-5.55v-14.34q-3.49 7.23-9.82 11.43t-14.61 4.2m.52-5.43q6.98 0 12.28-3.36t8.4-9.3 3.1-13.83q0-7.88-3.1-13.82t-8.4-9.31-12.28-3.36q-6.85 0-12.08 3.23t-8.21 8.98-2.97 13.25v1.16q0 7.76 2.97 13.7 2.97 5.95 8.21 9.3t12.08 3.36m66.03 5.43q-10.59 0-16.92-4.91t-6.34-13.05q0-7.75 6.53-12.79t17.25-5.04q6.33 0 10.99 1.68t7.36 4.52v-11.63q0-9.05-4.46-13.12t-12.34-4.07q-5.3 0-10.72 1.88t-9.18 6.26l-3.1-4.26q4.26-4.91 10.53-7.17t12.6-2.26q10.34 0 16.48 5.55t6.14 17.06v19.38q0 10.34.38 20.68h-5.42l-.13-7.37q-2.46 4.14-7.43 6.4-4.98 2.26-12.22 2.26m1.3-4.78q8.53 0 13.11-3.68t4.59-9.37q0-5.82-4.59-9.43-4.58-3.62-13.24-3.62-8.53 0-13.44 3.62-4.91 3.61-4.91 9.3t4.91 9.43q4.91 3.75 13.57 3.75m41.22 29.34v-87.23h5.69v14.21q3.48-7.1 9.82-11.3t14.47-4.2q8.4 0 14.8 3.94 6.39 3.94 10.08 10.98 3.68 7.04 3.68 16.09v1.16q0 9.44-3.62 16.61t-10.08 11.18-14.86 4q-8.14 0-14.41-4.07t-9.63-11.05v39.68zm29.2-29.99q6.85 0 12.15-3.36t8.27-9.3 2.97-13.7v-1.16q0-7.5-2.97-13.25t-8.27-8.98-12.15-3.23q-6.72 0-12.08 3.36t-8.4 9.31-3.03 13.82q0 7.89 3.03 13.83 3.04 5.95 8.4 9.3t12.08 3.36m60.61 4.14q-6.07 0-10.47-3.75-4.39-3.75-4.39-10.85v-41.35h-12.02v-5.43h12.02v-15.38h5.81v15.38h17.97v5.43h-17.97v41.61q0 3.87 2.59 6.46t6.46 2.58h8.92v5.3zm38.77 1.29q-10.6 0-16.93-4.91t-6.33-13.05q0-7.75 6.52-12.79 6.53-5.04 17.26-5.04 6.33 0 10.98 1.68t7.37 4.52v-11.63q0-9.05-4.46-13.12t-12.34-4.07q-5.3 0-10.73 1.88t-9.17 6.26l-3.11-4.26q4.27-4.91 10.54-7.17t12.6-2.26q10.33 0 16.47 5.55t6.14 17.06v19.38q0 10.34.39 20.68h-5.43l-.13-7.37q-2.45 4.14-7.43 6.4t-12.21 2.26m1.29-4.78q8.53 0 13.12-3.68t4.58-9.37q0-5.82-4.58-9.43-4.59-3.62-13.25-3.62-8.53 0-13.44 3.62-4.91 3.61-4.91 9.3t4.91 9.43q4.91 3.75 13.57 3.75m71.2 4.78q-8.27 0-14.66-4.2t-9.76-11.43v14.34h-5.56v-94.33h5.95v46.78q3.36-6.98 9.62-11.05t14.41-4.07q8.4 0 14.8 3.94t10.08 10.98 3.68 16.09v1.16q0 9.44-3.62 16.61-3.61 7.17-10.08 11.18-6.46 4-14.86 4m-.77-5.43q6.85 0 12.15-3.36 5.29-3.35 8.27-9.3 2.97-5.94 2.97-13.7v-1.16q0-7.5-2.97-13.25t-8.27-8.98-12.15-3.23q-6.72 0-12.08 3.36t-8.4 9.31-3.04 13.82q0 7.89 3.04 13.83 3.03 5.95 8.4 9.3 5.36 3.36 12.08 3.36m57.76 4.14q-6.59 0-10.66-4.01t-4.07-10.33v-74.7H514.8v-5.29h18.35v79.99q0 4 2.59 6.52t6.46 2.52h5.17v5.3zm39.29 1.29q-9.05 0-15.9-4.07t-10.72-11.24-3.88-16.48v-1.29q0-9.05 3.55-15.96 3.56-6.91 9.89-10.92t14.73-4q8.27 0 14.28 4.2t8.92 11.63 1.87 17.25h-47.3q.13 7.36 3.3 13.05t8.66 8.98 12.73 3.3q4.91 0 9.23-1.36t7.31-3.94l3.49 4q-3.49 3.23-8.79 5.04t-11.37 1.81m-2.33-58.54q-9.43 0-15.38 6.27-5.94 6.27-6.72 16.35h41.48q.26-10.34-5.17-16.48t-14.21-6.14m36.57 57.25v-9.56h6.98v9.56zM64.07 659.31l35.66-90.46h7.11l35.67 90.46h-6.46l-10.6-27.14H81l-10.6 27.14zm19.12-32.69h40.06l-19.9-51.05zm16.93-68.49-12.4-16.16h7.62l11.24 16.16zm90.98 101.18-25.2-61.38h6.2l22.23 54.14 21.96-54.14h6.21l-25.07 61.38zm65.38 1.29q-8.53 0-15.18-4.07t-10.47-11.24-3.81-16.48v-1.03q0-9.18 3.81-16.15 3.81-6.98 10.47-10.99t15.18-4q8.66 0 15.25 3.94t10.4 10.85 3.82 15.96v1.42q0 9.31-3.82 16.48t-10.4 11.24-15.25 4.07m0-5.55q6.98 0 12.28-3.3t8.27-9.24 2.97-13.7v-1.42q0-7.49-2.97-13.18t-8.27-8.85-12.28-3.17q-6.85 0-12.14 3.23t-8.34 9.05-3.04 13.31v1.03q0 7.76 3.04 13.7 3.04 5.95 8.34 9.24t12.14 3.3m66.04 5.55q-6.85 0-12.15-2.58t-8.4-8.27-3.1-14.86v-36.96h5.94v36.18q0 7.75 2.46 12.34t6.65 6.59 9.5 2.01q5.43 0 10.08-2.46t7.5-7.3q2.84-4.85 2.84-12.21v-35.15h5.81v61.38h-5.55v-11.24q-3.62 6.85-9.82 9.69t-11.76 2.84m61.12 0q-6.2 0-12.02-2.07t-9.3-5.55l2.97-4.4q3.23 3.23 8.21 5.11 4.97 1.87 10.14 1.87 6.98 0 11.31-3.36t4.33-8.66q0-4.52-2.52-6.84t-6.53-3.62-8.46-2.33-8.4-2.78-6.46-4.91-2.52-8.85q0-7.75 5.81-12.66 5.82-4.91 15.12-4.91 5.56 0 10.4 1.81 4.85 1.8 8.47 4.65l-2.97 4.26q-3.11-2.58-7.18-4.13t-8.72-1.55q-6.72 0-10.98 3.42t-4.27 8.72q0 4.27 2.59 6.59t6.52 3.62 8.47 2.39q4.52 1.1 8.53 2.91t6.52 5.04 2.52 8.92q0 7.62-6.01 12.47-6.01 4.84-15.57 4.84m33.08-1.29v-9.56h6.98v9.56z"/><svg xmlns="http://www.w3.org/2000/svg" xmlns:c2pa="http://c2pa.org/manifest" width="261.19" height="69" x="62" y="949" viewBox="0 0 210.18 37.67"><path fill="#fff" d="M194.7 30.87a5.96 5.96 0 0 1-5.96-5.96V7.26a5.97 5.97 0 0 1 5.96-5.96h13.55c1.07 0 1.93.86 1.93 1.92a1.93 1.93 0 0 1-1.93 1.92H194.7a2.1 2.1 0 0 0-2.1 2.11v6.95h13.29c1 0 1.82.82 1.82 1.83a1.83 1.83 0 0 1-1.82 1.82h-13.3v7.06a2.1 2.1 0 0 0 2.1 2.11h13.56c1.07 0 1.93.87 1.93 1.93a1.93 1.93 0 0 1-1.93 1.92zm-60.78.39c-3.91 0-6.92-1-8.95-2.95s-3.06-4.9-3.06-8.74V3.14c0-1.23 1-2.23 2.23-2.23a2.23 2.23 0 0 1 2.23 2.23v15.84q0 4.34 1.84 6.41 1.86 2.08 5.7 2.09 3.86 0 5.7-2.09c1.23-1.37 1.85-3.53 1.85-6.4V3.13A2.24 2.24 0 0 1 143.69.9a2.23 2.23 0 0 1 2.23 2.23v16.43c0 3.84-1.03 6.78-3.06 8.74s-5.04 2.95-8.94 2.95m33.52 0c-5.03 0-8.87-1.43-11.4-4.25a2.1 2.1 0 0 1 .11-2.86l.01-.01.01-.01a2 2 0 0 1 1.5-.62c.6 0 1.16.26 1.55.7a9 9 0 0 0 2.4 1.97q2.33 1.3 5.78 1.3 3.26 0 5.15-1.14A3.7 3.7 0 0 0 174.5 23q-.01-1.74-1.76-2.8c-1.13-.69-3.04-1.27-5.84-1.8q-4.08-.76-6.5-1.88a8 8 0 0 1-3.47-2.73 7 7 0 0 1-1.08-3.96 8 8 0 0 1 1.37-4.5 9.4 9.4 0 0 1 3.96-3.23q2.6-1.2 6.1-1.2 4.06 0 6.93 1.47a12 12 0 0 1 3.45 2.68c.77.86.7 2.2-.16 2.97a2.1 2.1 0 0 1-3.08-.28 8 8 0 0 0-1.92-1.8q-1.96-1.25-5.18-1.25-3.19 0-4.97 1.28a4 4 0 0 0-1.8 3.36q0 1.92 1.77 3.06c1.14.72 3.12 1.33 6.04 1.86q4 .72 6.35 1.81a8 8 0 0 1 3.38 2.69 7 7 0 0 1 1.05 3.98q0 2.55-1.45 4.49a9 9 0 0 1-4.1 2.98q-2.64 1.05-6.14 1.05m-66.83 0c-5.03 0-8.87-1.42-11.4-4.24a2.1 2.1 0 0 1 .11-2.87l.02-.01a2.1 2.1 0 0 1 3.05.08 9 9 0 0 0 2.4 1.97q2.33 1.3 5.78 1.3 3.27 0 5.15-1.15a3.7 3.7 0 0 0 1.94-3.32q-.01-1.75-1.76-2.8c-1.13-.69-3.04-1.28-5.84-1.8q-4.08-.76-6.51-1.88a8 8 0 0 1-3.46-2.73A7 7 0 0 1 89 9.85a8 8 0 0 1 1.37-4.5 9.4 9.4 0 0 1 3.96-3.23q2.61-1.2 6.09-1.2 4.07 0 6.94 1.47a12 12 0 0 1 3.45 2.68 2.1 2.1 0 0 1-1.57 3.51 2.1 2.1 0 0 1-1.67-.82 8 8 0 0 0-1.92-1.8q-1.96-1.25-5.18-1.26-3.2 0-4.97 1.29a4 4 0 0 0-1.8 3.36q0 1.92 1.76 3.05c1.15.73 3.13 1.34 6.06 1.87a27 27 0 0 1 6.35 1.81 8 8 0 0 1 3.37 2.69 7 7 0 0 1 1.05 3.98q0 2.55-1.45 4.48a9 9 0 0 1-4.1 3q-2.64 1.04-6.14 1.04M70.97 11.39a1.17 1.17 0 0 0-1.68 0 1.2 1.2 0 0 0 .19 1.83c.39.25.9.25 1.3 0a1.2 1.2 0 0 0 .19-1.83m-1.56-4.2a4.55 4.55 0 0 0-5.46 5.47 4.6 4.6 0 0 0 3.4 3.4 4.55 4.55 0 0 0 5.46-5.47 4.6 4.6 0 0 0-3.4-3.4M14.6 37.68c-3.9 0-7.78-1.58-10.14-4.12C1.54 30.44-.21 27.29.02 21.29c.15-3.78 2.25-7.93 5.61-11.1A38 38 0 0 1 23.93.85a41 41 0 0 1 8.25-.83q2.1 0 4.17.2c3.87.4 7.5 1.1 10.8 2.13a42 42 0 0 1 5.1 1.94l.71.32c1.33.59 2.83 1.25 3.77 2.21l.36.37v-.52q0-1.7-.04-3.4Q57.01 1.8 57 .64c0-.4.33-.64.64-.64q.14 0 .26.06l3.14 1.47c2.72 1.27 6.1 2.86 8.67 4.03a8.2 8.2 0 0 1 4.5 5.22c.72 2.18.86 4.63.96 7.17q0 .14-.02.21c-.02.03-.1.14-.68.14h-.98c-.54 0-1.15 0-1.6.02a31 31 0 0 1-3.57-.03c-2-.1-4.13-.94-5.7-2.26-.14-.12-.4-.2-.62-.2a.7.7 0 0 0-.5.2.8.8 0 0 0-.02 1.02 10.4 10.4 0 0 0 7.15 2.91 32 32 0 0 0 4.74-.1l.24-.01q.3-.04.52-.05l-.55.43a13 13 0 0 1-3.72 1.86 20 20 0 0 1-5.9 1.02h-.61q-1.5 0-3-.19l-.79-.1q-.54-.1-1.1-.15l-.27-.03a7 7 0 0 0-.79-.06q-.3 0-.56.05a2.2 2.2 0 0 0-1.3.8c-.46.6-.59 2.13-.34 2.78.48 1.31 1.57 2.04 2.55 2.63q.48.28.99.49c.81.36 1.52.68 1.75 1.41-.3.08-1.21.14-2.22.14H54.7c-.96 0-1.7-.07-2.04-.2h-.03c-.29-.16-.43-.58-.54-.93v-.01a7 7 0 0 0-.9-1.64 7 7 0 0 0-3.06-2.64 9 9 0 0 0-3.56-.65l-1.15.02-1.07.02h-.79l-1.28-.01c-.49-.01-1.05-.03-2.05-.03-.33 0-.57.35-.65.94-.14 1.07.3 2.85 2.1 3.35l.49.13c.87.22 1.78.45 2.41 1.1.2.21.27.4.24.46-.01.03-.1.09-.35.09h-6.22c-1.04 0-1.83-.05-2.5-.6-1.11-.95-1.66-2.21-2.23-3.55l-.1-.22a40 40 0 0 0-2.11-4.28c-1.83-3.13-4.04-5.42-6.58-6.78-2-1.07-4.5-1.68-6.84-1.68-2.82 0-5.45.87-7.59 2.51a8.5 8.5 0 0 0-3.38 6.77 10.4 10.4 0 0 0 3.82 8.04 9 9 0 0 0 5.7 1.9q.3 0 .6-.03a7.8 7.8 0 0 0 5.8-2.82 5.8 5.8 0 0 0 1.1-4.75 5 5 0 0 0-2.28-3.36 5.6 5.6 0 0 0-2.84-.68h-.02q-1.96 0-2.95.98c-.94.9-1.09 2.5-.34 3.57l.32.41c.33.38.6.72.54 1.16a1 1 0 0 1-.78.76l-.31.04c-.65 0-1.22-.44-1.58-.82a5.1 5.1 0 0 1-1.03-5.36c1.02-2.45 3.75-3.55 6-3.55h.23a9.1 9.1 0 0 1 7.79 5.32 10 10 0 0 1-.93 9.48c-1.88 2.75-5.22 4.33-9.16 4.33m57.07-26.05a3.3 3.3 0 1 1-6.6 0 3.3 3.3 0 1 1 6.6 0"/></svg><path fill="#bff1ea" d="M822.3 255.51q-13.55 0-21.63-7.23-8.09-7.23-8.09-21.12v-52.71h9.68v52.02q0 9.68 5.46 14.86t14.58 5.18q9.1 0 14.57-5.18 5.46-5.18 5.46-14.86v-52.02h9.68v52.71q0 13.89-8.08 21.12t-21.63 7.23m45.65-1.37v-54.76h8.88v8.77q3.3-5.7 8.48-7.8 5.18-2.11 9.62-2.11 9.22 0 14.97 5.98 5.75 5.97 5.75 17.7v32.22h-9.22v-30.85q0-8.77-3.93-12.7-3.92-3.93-9.96-3.93-6.26 0-10.81 4.27t-4.56 12.47v30.74zm104.06 0q-6.72 0-10.76-3.81t-4.04-10.19v-61.25h-10.02v-7.86h19.24v69.22q0 2.62 1.71 4.33 1.7 1.7 4.32 1.7h5.24v7.86zm37.91 1.14q-7.86 0-14-3.59-6.15-3.58-9.68-9.96t-3.53-14.69v-1.02q0-8.08 3.53-14.4t9.68-9.85 14-3.53 14 3.53 9.68 9.73 3.53 14.29v1.25q0 8.31-3.53 14.69t-9.68 9.96-14 3.59m0-8.2q5.35 0 9.39-2.56t6.32-7.06 2.28-10.42v-1.25q0-8.54-5.01-13.94t-12.98-5.41q-5.24 0-9.34 2.5t-6.43 6.95-2.33 10.13v1.02q0 5.92 2.33 10.42t6.43 7.06 9.34 2.56m34.61 29.83v-7.74h32.67q3.88 0 6.04-1.88t2.16-5.29q0-3.19-2.16-4.96-2.16-1.76-6.04-1.76h-17.98q-4.33 0-6.55-2.05t-2.5-5.12 1.3-6.15l3.65-7.4q-4.21-2.62-6.61-6.78-2.39-4.15-2.39-9.27v-1.03q0-5.69 3.02-10.02t8.31-6.77 12.13-2.45q1.25 0 2.5.11l5.58-11.49h9.22l-7.06 13.09q6.04 2.16 9.62 6.71 3.59 4.56 3.59 10.59v1.26q0 5.8-3.02 10.24-3.01 4.44-8.31 7-5.29 2.56-12.12 2.56-3.65 0-7.06-.79l-2.73 5.35q-.8 1.48-.52 3.24t3.13 1.77h16.06q6.94 0 11.27 3.58t4.32 10.65q0 6.49-4.38 10.64t-11.67 4.16zm25.05-45.77q3.3 0 6.6-1.19 3.3-1.2 5.58-4.1t2.28-7.91q0-5.47-4.05-8.83t-10.41-3.36q-6.38 0-10.42 3.36t-4.04 8.83q0 5.01 2.27 7.91t5.64 4.1q3.36 1.19 6.55 1.19m39.96 23v-46.79h-10.7v-7.97h19.81v54.76zm-.57-66.83V174.1h10.24v13.21zm50.66 67.97q-8.08 0-14.46-3.53-6.37-3.53-9.96-9.85t-3.59-14.51v-1.37q0-8.2 3.65-14.46t9.96-9.79 14.4-3.53q6.03 0 10.99 2.22t8.37 6.2l-5.7 5.7q-5.23-5.58-13.66-5.58-5.46 0-9.73 2.39t-6.72 6.72-2.45 10.13v1.37q0 5.8 2.51 10.18t6.77 6.78q4.27 2.39 9.73 2.39 8.32 0 13.78-5.46l5.58 5.57q-3.3 3.99-8.37 6.21t-11.1 2.22m35.07-1.14v-46.79h-10.71v-7.97h19.81v54.76zm-.57-66.83V174.1h10.24v13.21zm50.09 67.97q-8.08 0-14.29-3.59t-9.67-9.96q-3.48-6.38-3.48-14.69v-1.13q0-7.97 3.19-14.18t8.99-9.85 13.44-3.64q7.85 0 13.43 3.87t8.26 10.87 1.53 16.57H1226q.35 4.78 2.68 8.71t6.38 6.26 9.5 2.33q4.33 0 7.69-1.02 3.36-1.03 5.86-3.3l5.24 5.69q-3.19 3.42-8.14 5.24t-10.99 1.82m-1.82-49.07q-6.83 0-11.1 4.33t-5.18 11.49h30.74q-.12-7.51-4.1-11.66-3.99-4.16-10.36-4.16m50.55 47.93q-6.72 0-10.76-3.81t-4.04-10.19v-61.25h-10.02v-7.86h19.24v69.22q0 2.62 1.71 4.33 1.7 1.7 4.32 1.7h5.24v7.86zm-496.73 142.3v-46.79h-10.7v-7.97h19.81v54.76zm-.56-66.83V316.4h10.24v13.21zm26.29 66.83v-54.76h8.89v8.77q3.3-5.7 8.48-7.8 5.18-2.11 9.62-2.11 9.22 0 14.97 5.98 5.75 5.97 5.75 17.7v32.22h-9.22v-30.85q0-8.77-3.93-12.7t-9.96-3.93q-6.27 0-10.82 4.27t-4.55 12.47v30.74zm85.51 1.14q-7.52 0-13.32-3.53t-9.11-9.91q-3.3-6.37-3.3-14.8v-1.02q0-8.2 3.35-14.46t9.17-9.79 13.21-3.53q6.14 0 10.98 2.68 4.84 2.67 8.03 7.34v-37.23h9.22v83.11h-8.31v-9.9q-3.3 5.23-8.43 8.14-5.12 2.9-11.49 2.9m1.25-8.2q5.35 0 9.45-2.5t6.49-7.06 2.39-10.7-2.39-10.76-6.49-7.12-9.45-2.5q-7.63 0-12.7 5.35t-5.06 14.23v1.02q0 6.04 2.33 10.59t6.32 7 9.11 2.45m67.28 8.2q-8.08 0-14.29-3.59t-9.67-9.96q-3.48-6.38-3.48-14.69v-1.13q0-7.97 3.19-14.18t9-9.85 13.43-3.64q7.86 0 13.44 3.87t8.25 10.87 1.54 16.57h-39.62q.34 4.78 2.67 8.71t6.38 6.26 9.5 2.33q4.33 0 7.69-1.02 3.36-1.03 5.86-3.3l5.24 5.69q-3.19 3.42-8.14 5.24t-10.99 1.82m-1.82-49.07q-6.83 0-11.1 4.33t-5.18 11.49h30.74q-.11-7.51-4.1-11.66t-10.36-4.16m-4.78-16.28 9.79-16.96h11.16l-11.39 16.96zm40.64 86.98v-77.53h8.66v9.45q3.18-4.9 8.25-7.74 5.07-2.85 11.33-2.85 7.4 0 13.2 3.53 5.81 3.53 9.17 9.79t3.36 14.46v1.02q0 8.43-3.3 14.8-3.31 6.38-9.11 9.91-5.81 3.53-13.32 3.53-6.04 0-10.93-2.68-4.9-2.67-8.08-7.34v31.65zm26.87-29.83q5.12 0 9.17-2.45 4.04-2.44 6.37-7 2.34-4.55 2.34-10.59v-1.02q0-8.88-5.07-14.23t-12.81-5.35q-5.24 0-9.33 2.5t-6.49 7.12-2.39 10.76 2.39 10.7 6.49 7.06q4.09 2.5 9.33 2.5m63.76 8.2q-8.09 0-14.29-3.59-6.21-3.58-9.68-9.96t-3.47-14.69v-1.13q0-7.97 3.19-14.18t8.99-9.85 13.44-3.64q7.85 0 13.43 3.87t8.25 10.87 1.54 16.57h-39.62q.34 4.78 2.68 8.71 2.33 3.93 6.37 6.26t9.51 2.33q4.32 0 7.68-1.02 3.36-1.03 5.87-3.3l5.23 5.69q-3.18 3.42-8.14 5.24-4.95 1.82-10.98 1.82m-1.82-49.07q-6.84 0-11.1 4.33t-5.18 11.49h30.73q-.11-7.51-4.09-11.66-3.99-4.16-10.36-4.16m35.86 47.93v-54.76h8.88v8.77q3.3-5.7 8.48-7.8 5.18-2.11 9.62-2.11 9.22 0 14.97 5.98 5.75 5.97 5.75 17.7v32.22h-9.22v-30.85q0-8.77-3.93-12.7t-9.96-3.93q-6.26 0-10.82 4.27-4.55 4.27-4.55 12.47v30.74zm85.5 1.14q-7.52 0-13.32-3.53t-9.11-9.91q-3.3-6.37-3.3-14.8v-1.02q0-8.2 3.36-14.46t9.16-9.79 13.21-3.53q6.15 0 10.99 2.68 4.83 2.67 8.02 7.34v-37.23h9.22v83.11h-8.31v-9.9q-3.3 5.23-8.42 8.14-5.13 2.9-11.5 2.9m1.25-8.2q5.35 0 9.45-2.5t6.49-7.06 2.39-10.7-2.39-10.76-6.49-7.12-9.45-2.5q-7.63 0-12.69 5.35-5.07 5.35-5.07 14.23v1.02q0 6.04 2.33 10.59t6.32 7 9.11 2.45m59.89 8.2q-9.34 0-14.98-4.56-5.63-4.55-5.63-11.84 0-4.78 2.85-8.53 2.84-3.76 7.79-5.98t11.1-2.22q9 0 14.35 3.76v-6.84q0-6.71-3.47-9.62t-9.4-2.9q-4.44 0-9.05 1.65t-7.91 5.07l-4.33-6.49q3.65-4.21 9.57-6.38t12.18-2.16q9.68 0 15.6 5.12t5.92 15.26v17.53q0 9.11.34 17.99h-8.2l-.11-5.46q-5.13 6.6-16.62 6.6m2.39-6.95q6.26 0 9.73-2.61 3.47-2.62 3.47-6.84t-3.47-6.77-9.85-2.56q-6.26 0-9.9 2.56t-3.65 6.77q0 4.1 3.7 6.78 3.7 2.67 9.97 2.67m38.14 5.81v-54.76h8.88v8.77q3.3-5.7 8.48-7.8 5.18-2.11 9.62-2.11 9.22 0 14.97 5.98 5.75 5.97 5.75 17.7v32.22h-9.22v-30.85q0-8.77-3.93-12.7t-9.96-3.93q-6.26 0-10.82 4.27-4.55 4.27-4.55 12.47v30.74zm81.28 0q-3.75 0-7.23-1.42-3.47-1.43-5.69-4.61t-2.22-8.54v-32.22h-9.9v-7.97h9.9v-13.55h9.11v13.55h14.46v7.97h-14.46v32.79q0 2.62 1.76 4.38 1.77 1.76 4.39 1.76h8.31v7.86zm46.11 22.77v-77.53h8.66v9.45q3.18-4.9 8.25-7.74 5.07-2.85 11.33-2.85 7.4 0 13.2 3.53 5.81 3.53 9.17 9.79t3.36 14.46v1.02q0 8.43-3.3 14.8-3.31 6.38-9.11 9.91-5.81 3.53-13.32 3.53-6.04 0-10.93-2.68-4.9-2.67-8.09-7.34v31.65zm26.87-29.83q5.12 0 9.17-2.45 4.04-2.44 6.37-7 2.34-4.55 2.34-10.59v-1.02q0-8.88-5.07-14.23t-12.81-5.35q-5.24 0-9.33 2.5t-6.49 7.12-2.39 10.76 2.39 10.7 6.49 7.06q4.09 2.5 9.33 2.5m63.53 8.2q-7.86 0-14-3.59-6.15-3.58-9.68-9.96t-3.53-14.69v-1.02q0-8.08 3.53-14.4t9.68-9.85 14-3.53 14 3.53 9.68 9.73 3.53 14.29v1.25q0 8.31-3.53 14.69t-9.68 9.96-14 3.59m0-8.2q5.35 0 9.39-2.56t6.32-7.06 2.28-10.42v-1.25q0-8.54-5.01-13.94t-12.98-5.41q-5.24 0-9.34 2.5t-6.43 6.95-2.33 10.13v1.02q0 5.92 2.33 10.42t6.43 7.06 9.34 2.56m60.45 8.2q-9.11 0-15.14-5.41t-6.03-17.13v-33.36h9.22v31.76q0 8.77 3.93 12.24 3.92 3.47 9.84 3.47 6.15 0 10.65-4.09t4.5-12.41v-30.97h9.1v54.76h-8.19v-8.2q-3.42 5.35-8.48 7.35-5.07 1.99-9.4 1.99m42.58-1.14v-54.76h8.88v8.77q2.05-5.24 6.09-7.12t9.05-1.88h4.67v9.11h-5.35q-6.72 0-10.42 3.3t-3.7 10.13v32.45zm82.66 1.14q-9.11 0-15.15-5.41-6.03-5.41-6.03-17.13v-33.36h9.22v31.76q0 8.77 3.93 12.24t9.85 3.47q6.15 0 10.64-4.09t4.5-12.41v-30.97h9.11v54.76h-8.2v-8.2q-3.41 5.35-8.48 7.35-5.07 1.99-9.39 1.99m42.58-1.14v-54.76h8.88v8.77q3.3-5.7 8.48-7.8 5.18-2.11 9.62-2.11 9.22 0 14.97 5.98 5.75 5.97 5.75 17.7v32.22h-9.22v-30.85q0-8.77-3.93-12.7t-9.96-3.93q-6.26 0-10.82 4.27-4.55 4.27-4.55 12.47v30.74zM791.9 538.73v-54.76h8.77v8.65q3.18-5.58 8.02-7.68 4.84-2.11 9.39-2.11 5.92 0 10.42 2.62t6.78 8.08q2.39-4.1 5.63-6.43 3.25-2.33 6.72-3.3t6.54-.97q8.88 0 14.46 5.75t5.58 17.59v32.56h-8.99v-31.42q0-8.43-3.65-12.24t-9.56-3.82q-6.15 0-10.25 4.16t-4.09 11.9v31.42h-9.11v-31.42q0-8.43-3.59-12.24t-9.5-3.82q-6.15 0-10.31 4.16t-4.15 11.9v31.42zm121.59 1.14q-7.86 0-14-3.59-6.15-3.58-9.68-9.96t-3.53-14.69v-1.02q0-8.08 3.53-14.4t9.68-9.85 14-3.53 14 3.53 9.68 9.73 3.53 14.29v1.25q0 8.31-3.53 14.69t-9.68 9.96q-6.15 3.59-14 3.59m0-8.2q5.35 0 9.39-2.56t6.32-7.06 2.28-10.42v-1.25q0-8.54-5.01-13.94t-12.98-5.41q-5.24 0-9.34 2.5t-6.43 6.95-2.33 10.13v1.02q0 5.92 2.33 10.42t6.43 7.06 9.34 2.56m40.07 7.06v-54.76h8.88v8.77q3.31-5.7 8.49-7.8 5.18-2.11 9.62-2.11 9.22 0 14.97 5.98 5.75 5.97 5.75 17.7v32.22h-9.22v-30.85q0-8.77-3.93-12.7t-9.96-3.93q-6.27 0-10.82 4.27t-4.55 12.47v30.74zm85.5 1.14q-7.51 0-13.32-3.53-5.8-3.53-9.1-9.91-3.31-6.37-3.31-14.8v-1.02q0-8.2 3.36-14.46t9.17-9.79 13.2-3.53q6.15 0 10.99 2.68 4.84 2.67 8.03 7.34v-37.23h9.22v83.11h-8.31v-9.9q-3.3 5.23-8.43 8.14-5.12 2.9-11.5 2.9m1.26-8.2q5.35 0 9.45-2.5t6.49-7.06 2.39-10.7-2.39-10.76-6.49-7.12-9.45-2.5q-7.63 0-12.7 5.35t-5.06 14.23v1.02q0 6.04 2.33 10.59t6.32 7 9.11 2.45m67.28 8.2q-8.08 0-14.29-3.59t-9.67-9.96q-3.48-6.38-3.48-14.69v-1.13q0-7.97 3.19-14.18t9-9.85 13.43-3.64q7.86 0 13.43 3.87 5.58 3.87 8.26 10.87 2.67 7.01 1.54 16.57h-39.62q.34 4.78 2.67 8.71t6.38 6.26 9.5 2.33q4.33 0 7.69-1.02 3.36-1.03 5.86-3.3l5.24 5.69q-3.19 3.42-8.14 5.24t-10.99 1.82m-1.82-49.07q-6.83 0-11.1 4.33t-5.18 11.49h30.74q-.11-7.51-4.1-11.66t-10.36-4.16m83.91 49.07q-7.52 0-13.32-3.53t-9.11-9.91-3.3-14.8v-1.02q0-8.2 3.36-14.46t9.16-9.79 13.21-3.53q6.14 0 10.98 2.68 4.84 2.67 8.03 7.34v-37.23h9.22v83.11h-8.31v-9.9q-3.3 5.23-8.42 8.14-5.13 2.9-11.5 2.9m1.25-8.2q5.35 0 9.45-2.5t6.49-7.06 2.39-10.7-2.39-10.76-6.49-7.12-9.45-2.5q-7.63 0-12.69 5.35-5.07 5.35-5.07 14.23v1.02q0 6.04 2.33 10.59t6.32 7 9.11 2.45m67.28 8.2q-8.08 0-14.28-3.59-6.21-3.58-9.68-9.96t-3.47-14.69v-1.13q0-7.97 3.18-14.18t9-9.85q5.8-3.64 13.43-3.64 7.86 0 13.44 3.87t8.25 10.87q2.68 7.01 1.54 16.57h-39.62q.34 4.78 2.67 8.71t6.38 6.26 9.51 2.33q4.32 0 7.68-1.02 3.36-1.03 5.86-3.3l5.24 5.69q-3.19 3.42-8.14 5.24t-10.99 1.82m-1.82-49.07q-6.83 0-11.1 4.33t-5.18 11.49h30.74q-.11-7.51-4.1-11.66t-10.36-4.16m-4.78-16.28 9.79-16.96h11.16l-11.39 16.96zm40.65 86.98v-77.53h8.65v9.45q3.19-4.9 8.25-7.74 5.07-2.85 11.33-2.85 7.4 0 13.21 3.53 5.8 3.53 9.16 9.79t3.36 14.46v1.02q0 8.43-3.3 14.8t-9.11 9.91-13.32 3.53q-6.03 0-10.93-2.68-4.9-2.67-8.08-7.34v31.65zm26.86-29.83q5.13 0 9.17-2.45 4.04-2.44 6.37-7 2.34-4.55 2.34-10.59v-1.02q0-8.88-5.07-14.23-5.06-5.35-12.81-5.35-5.23 0-9.33 2.5t-6.49 7.12-2.39 10.76 2.39 10.7q2.39 4.55 6.49 7.06t9.33 2.5m63.76 8.2q-8.08 0-14.29-3.59t-9.68-9.96-3.47-14.69v-1.13q0-7.97 3.19-14.18t8.99-9.85 13.44-3.64q7.85 0 13.43 3.87t8.26 10.87 1.53 16.57h-39.62q.34 4.78 2.68 8.71 2.33 3.93 6.37 6.26t9.51 2.33q4.33 0 7.69-1.02 3.35-1.03 5.86-3.3l5.24 5.69q-3.19 3.42-8.14 5.24t-10.99 1.82m-1.82-49.07q-6.83 0-11.1 4.33t-5.18 11.49h30.74q-.12-7.51-4.1-11.66-3.99-4.16-10.36-4.16m35.86 47.93v-54.76h8.88v8.77q3.3-5.7 8.48-7.8 5.18-2.11 9.62-2.11 9.22 0 14.97 5.98 5.75 5.97 5.75 17.7v32.22h-9.22v-30.85q0-8.77-3.93-12.7-3.92-3.93-9.96-3.93-6.26 0-10.81 4.27t-4.56 12.47v30.74zm85.5 1.14q-7.51 0-13.32-3.53t-9.11-9.91-3.3-14.8v-1.02q0-8.2 3.36-14.46t9.16-9.79 13.21-3.53q6.15 0 10.99 2.68 4.84 2.67 8.02 7.34v-37.23h9.22v83.11h-8.31v-9.9q-3.3 5.23-8.42 8.14-5.12 2.9-11.5 2.9m1.25-8.2q5.35 0 9.45-2.5t6.49-7.06 2.39-10.7-2.39-10.76-6.49-7.12-9.45-2.5q-7.63 0-12.69 5.35-5.07 5.35-5.07 14.23v1.02q0 6.04 2.34 10.59t6.31 7q3.99 2.45 9.11 2.45m59.89 8.2q-9.34 0-14.97-4.56t-5.64-11.84q0-4.78 2.85-8.53 2.84-3.76 7.8-5.98t11.1-2.22q8.99 0 14.34 3.76v-6.84q0-6.71-3.47-9.62t-9.39-2.9q-4.44 0-9.06 1.65t-7.91 5.07l-4.32-6.49q3.64-4.21 9.56-6.38t12.18-2.16q9.68 0 15.6 5.12t5.92 15.26v17.53q0 9.11.34 17.99h-8.2l-.11-5.46q-5.12 6.6-16.62 6.6m2.39-6.95q6.26 0 9.73-2.61 3.47-2.62 3.47-6.84t-3.47-6.77-9.85-2.56q-6.26 0-9.9 2.56t-3.64 6.77q0 4.1 3.7 6.78 3.7 2.67 9.96 2.67m38.14 5.81v-54.76h8.88v8.77q3.3-5.7 8.48-7.8 5.18-2.11 9.62-2.11 9.22 0 14.97 5.98 5.75 5.97 5.75 17.7v32.22h-9.22v-30.85q0-8.77-3.93-12.7t-9.96-3.93q-6.26 0-10.82 4.27-4.55 4.27-4.55 12.47v30.74zm81.29 0q-3.76 0-7.23-1.42-3.48-1.43-5.7-4.61t-2.22-8.54v-32.22h-9.9v-7.97h9.9v-13.55h9.11v13.55h14.46v7.97h-14.46v32.79q0 2.62 1.77 4.38 1.76 1.76 4.38 1.76h8.31v7.86zM798.31 712.06q-3.57 0-5.88-2.35t-2.31-5.85v-44.93h5v43.64q0 1.98 1.37 3.3 1.37 1.33 3.34 1.33h21.1v4.86zm43.11.76q-5.31 0-9.41-2.39t-6.37-6.61-2.28-9.75v-.76q0-5.31 2.12-9.41t5.89-6.49q3.75-2.39 8.76-2.39 5.09 0 8.73 2.51t5.35 7.05q1.71 4.56 1.03 10.63h-27.1q.15 3.72 1.86 6.72t4.67 4.7 6.9 1.71q6 0 9.42-2.96l2.73 3.11q-2.05 2.05-5.28 3.19-3.22 1.14-7.02 1.14m-1.29-33.55q-5.01 0-8.16 3.27-3.15 3.26-3.75 8.65h22.46q.08-5.47-2.84-8.69-2.93-3.23-7.71-3.23m58.45 33.55q-5.39 0-9.57-2.35-4.17-2.36-6.53-6.49-2.35-4.14-2.35-9.6v-.99q0-5.39 2.39-9.53t6.53-6.49 9.53-2.35q3.94 0 7.13 1.41 3.19 1.4 5.46 3.9l-3.03 3.04q-3.72-3.87-9.64-3.87-3.95 0-7.02 1.74-3.08 1.75-4.82 4.9t-1.75 7.25v.99q0 4.17 1.79 7.32 1.78 3.15 4.85 4.9 3.08 1.74 7.03 1.74 5.92 0 9.71-3.87l2.96 3.04q-2.28 2.5-5.5 3.9-3.23 1.41-7.17 1.41m21.1-.76v-55.41h4.63v25.58q1.44-2.73 3.6-4.29 2.16-1.55 4.52-2.24 2.35-.68 4.4-.68 6.15 0 10.02 3.91t3.87 11.95v21.18h-4.86v-20.57q0-6.37-2.88-9.18-2.89-2.81-7.29-2.81-3.04 0-5.58 1.37-2.54 1.36-4.06 4.02t-1.52 6.68v20.49zm57.75.76q-5.16 0-9.18-2.39t-6.3-6.61-2.28-9.75v-.68q0-5.39 2.28-9.53t6.3-6.49 9.18-2.35q5.09 0 9.11 2.35 4.03 2.36 6.3 6.46 2.28 4.09 2.28 9.41v.83q0 5.54-2.28 9.75t-6.3 6.61-9.11 2.39m0-4.33q3.8 0 6.68-1.86 2.89-1.86 4.52-5.08 1.63-3.23 1.63-7.48v-.83q0-4.1-1.63-7.21t-4.52-4.9-6.68-1.78-6.71 1.82-4.59 4.97-1.67 7.25v.68q0 4.25 1.67 7.48 1.67 3.22 4.59 5.08t6.71 1.86m29.23 3.57v-32.03h-7.29v-4.25h12.07v36.28zm-.31-44.63v-8.2h5.39v8.2zm12.45 44.63 13.13-18.06-12.75-18.22h5.69l10.25 15.18 10.32-15.18h5.54L1038.31 694l13.05 18.06h-5.84l-10.48-14.95-10.55 14.95zm38.25 0v-6.98h6v12.75q0 2.81-1.67 3.98-1.67 1.18-3.64 1.18h-2.13v-3.04h2.13q.98 0 1.51-.6.54-.61.54-1.6v-5.69zm41.98.68q-3.8 0-7.29-1.21-3.49-1.22-5.62-3.26l2.2-3.34q1.98 1.82 4.86 2.88t5.85 1.06q3.71 0 6.07-1.74 2.35-1.75 2.35-4.63 0-2.36-1.44-3.65t-3.76-1.97-4.86-1.33-4.82-1.67-3.72-2.92-1.44-5.31q0-4.71 3.49-7.67t9.34-2.96q3.34 0 6.26 1.03 2.92 1.02 5.12 2.69l-2.2 3.42q-1.89-1.52-4.25-2.36-2.35-.83-5.01-.83-3.64 0-5.88 1.74-2.24 1.75-2.24 4.56 0 2.35 1.44 3.6 1.45 1.26 3.76 1.98 2.32.72 4.9 1.36t4.89 1.71q2.32 1.06 3.76 3.04 1.44 1.97 1.44 5.38 0 4.56-3.68 7.48t-9.52 2.92m33.24.08q-6.3 0-10.02-2.96t-3.72-7.74q0-3.19 1.82-5.62t5.05-3.83 7.4-1.41q3.34 0 5.88.8t4.29 2.24v-5.62q0-4.93-2.5-7.09t-6.76-2.17q-3.03 0-6.18 1.1t-5.28 3.53l-2.35-3.41q2.43-2.81 6.22-4.21 3.8-1.41 7.82-1.41 6.22 0 10.02 3.34t3.79 10.1v11.53q0 6.07.23 12.07h-4.33l-.07-3.95q-3.27 4.71-11.31 4.71m1.14-3.72q4.63 0 7.09-1.97 2.47-1.98 2.47-5.01 0-3.11-2.5-5.01t-7.14-1.9q-4.55 0-7.21 1.9t-2.66 5.01q0 3.03 2.66 5.01 2.66 1.97 7.29 1.97m25.96 2.96v-36.28h4.62v6.45q1.45-2.73 3.61-4.29 2.16-1.55 4.52-2.24 2.35-.68 4.4-.68 6.15 0 10.02 3.91t3.87 11.95v21.18h-4.86v-20.57q0-6.37-2.88-9.18-2.89-2.81-7.29-2.81-3.04 0-5.58 1.37-2.54 1.36-4.06 4.02t-1.52 6.68v20.49zm52.14.68q-3.8 0-7.29-1.21-3.49-1.22-5.61-3.26l2.2-3.34q1.97 1.82 4.85 2.88 2.89 1.06 5.85 1.06 3.72 0 6.07-1.74 2.35-1.75 2.35-4.63 0-2.36-1.44-3.65t-3.76-1.97-4.85-1.33q-2.55-.64-4.82-1.67t-3.72-2.92-1.44-5.31q0-4.71 3.49-7.67t9.33-2.96q3.34 0 6.26 1.03 2.93 1.02 5.13 2.69l-2.2 3.42q-1.9-1.52-4.25-2.36t-5.01-.83q-3.65 0-5.89 1.74-2.23 1.75-2.23 4.56 0 2.35 1.44 3.6 1.44 1.26 3.75 1.98t4.9 1.36 4.9 1.71q2.31 1.06 3.75 3.04 1.44 1.97 1.44 5.38 0 4.56-3.68 7.48t-9.52 2.92m48.88-.68-14.65-36.28h5.01l12.22 30.51 12.14-30.51h5.01l-14.57 36.28zm41.82.76q-5.32 0-9.41-2.39t-6.38-6.61-2.28-9.75v-.76q0-5.31 2.13-9.41t5.88-6.49 8.77-2.39q5.08 0 8.73 2.51 3.64 2.5 5.35 7.05t1.02 10.63h-27.09q.15 3.72 1.85 6.72t4.67 4.7q2.96 1.71 6.91 1.71 6 0 9.41-2.96l2.73 3.11q-2.05 2.05-5.27 3.19-3.23 1.14-7.02 1.14m-1.29-33.55q-5.01 0-8.16 3.27-3.15 3.26-3.76 8.65h22.47q.07-5.47-2.85-8.69-2.92-3.23-7.7-3.23m24.36 32.79v-36.28h4.71v5.92q1.36-3.49 4.06-4.74 2.69-1.26 6.11-1.26h3.11v4.79h-3.49q-4.48 0-7.06 2.31t-2.58 7.25v22.01zm25.58 0v-36.28h4.7v5.92q1.37-3.49 4.07-4.74 2.69-1.26 6.11-1.26h3.11v4.79h-3.49q-4.48 0-7.06 2.31t-2.58 7.25v22.01zm38.94.76q-5.17 0-9.19-2.39t-6.3-6.61-2.28-9.75v-.68q0-5.39 2.28-9.53t6.3-6.49 9.19-2.35q5.08 0 9.1 2.35 4.03 2.36 6.3 6.46 2.28 4.09 2.28 9.41v.83q0 5.54-2.28 9.75t-6.3 6.61-9.1 2.39m0-4.33q3.79 0 6.67-1.86 2.89-1.86 4.52-5.08 1.63-3.23 1.63-7.48v-.83q0-4.1-1.63-7.21t-4.52-4.9-6.67-1.78-6.72 1.82q-2.92 1.82-4.59 4.97t-1.67 7.25v.68q0 4.25 1.67 7.48 1.67 3.22 4.59 5.08t6.72 1.86m40.68 4.33q-4.03 0-7.21-1.56-3.19-1.55-5.01-4.85-1.82-3.31-1.82-8.69v-21.94h4.78v21.18q0 6.37 2.88 8.88 2.89 2.5 7.21 2.5 2.96 0 5.47-1.33t4.06-3.94 1.55-6.65v-20.64h4.71v36.28h-4.4v-6q-2.2 3.8-5.7 5.28t-6.52 1.48m31.34-.76v-32.03h-7.28v-4.25h12.07v36.28zm-.3-44.63v-8.2h5.39v8.2zm26.41 44.63q-4.17 0-6.71-2.43t-2.55-6.45v-42.35h-6.98v-4.18h11.84v46.61q0 1.97 1.33 3.3t3.3 1.33h3.26v4.17zm19.74 0q-4.18 0-6.72-2.43t-2.54-6.45v-42.35h-6.99v-4.18h11.84v46.61q0 1.97 1.33 3.3t3.3 1.33h3.27v4.17zm21.55.76q-6.3 0-10.02-2.96t-3.72-7.74q0-3.19 1.83-5.62 1.82-2.43 5.04-3.83 3.23-1.41 7.4-1.41 3.34 0 5.89.8t4.28 2.24v-5.62q0-4.93-2.5-7.09t-6.76-2.17q-3.03 0-6.18 1.1t-5.28 3.53l-2.35-3.41q2.43-2.81 6.22-4.21 3.8-1.41 7.82-1.41 6.23 0 10.02 3.34 3.8 3.34 3.8 10.1v11.53q0 6.07.22 12.07h-4.32l-.08-3.95q-3.26 4.71-11.31 4.71m1.14-3.72q4.63 0 7.1-1.97 2.46-1.98 2.46-5.01 0-3.11-2.5-5.01t-7.13-1.9q-4.56 0-7.22 1.9-2.65 1.9-2.65 5.01 0 3.03 2.65 5.01 2.66 1.97 7.29 1.97m21.94 18.14v-4.1h21.48q2.96 0 4.66-1.48t1.71-4.06q0-2.43-1.71-3.79-1.7-1.37-4.66-1.37h-11.54q-2.81 0-4.25-1.33t-1.6-3.3.84-3.87l2.5-5.01q-2.8-1.67-4.44-4.44-1.63-2.77-1.63-6.19v-.68q0-3.72 1.94-6.56 1.93-2.85 5.39-4.44t7.93-1.6q1.14 0 2.12.08l3.87-7.9h4.86l-4.63 8.73q4.1 1.37 6.57 4.4 2.46 3.04 2.46 7.06v.91q0 3.8-1.93 6.72-1.94 2.92-5.39 4.59t-7.93 1.67q-2.81 0-5.32-.68l-1.97 3.79q-.38.84-.49 1.79-.12.95.49 1.63t2.13.68h10.62q4.63 0 7.48 2.36 2.84 2.35 2.84 6.75 0 4.33-2.88 6.98t-7.67 2.66zm16.62-29.83q2.43 0 4.86-.87 2.42-.87 4.06-2.92t1.63-5.77q0-3.95-2.96-6.38t-7.59-2.43-7.59 2.43-2.96 6.38q0 3.64 1.67 5.73t4.13 2.96 4.75.87m40 15.41q-5.32 0-9.41-2.39t-6.38-6.61-2.28-9.75v-.76q0-5.31 2.13-9.41t5.88-6.49 8.77-2.39q5.08 0 8.72 2.51t5.36 7.05q1.7 4.56 1.02 10.63h-27.1q.16 3.72 1.86 6.72t4.67 4.7 6.91 1.71q5.99 0 9.41-2.96l2.73 3.11q-2.05 2.05-5.27 3.19-3.23 1.14-7.02 1.14m-1.29-33.55q-5.01 0-8.16 3.27-3.15 3.26-3.76 8.65h22.47q.07-5.47-2.85-8.69-2.92-3.23-7.7-3.23m23.22 32.79v-6.98h5.85v6.98z"/><rect width="456.53" height="131.91" x="784.86" y="803.45" fill="none" stroke="#bff1ea" stroke-width="3" rx="65.95" ry="65.95"/><path fill="#bff1ea" d="M866.76 888.63q-2.71 0-4.46-1.78-1.76-1.79-1.76-4.44v-34.07h3.8v33.1q0 1.49 1.04 2.5 1.03 1.01 2.53 1.01h16v3.68zm23.37 0v-24.29h-5.53v-3.22h9.15v27.51zm-.23-33.84v-6.22h4.08v6.22zm13.29 33.84v-27.51h3.57v4.49q1.04-2.65 3.08-3.6t4.63-.95h2.36v3.63h-2.64q-3.4 0-5.36 1.75-1.95 1.76-1.95 5.5v16.69zm30.05.58q-4.03 0-7.14-1.82-3.11-1.81-4.83-5-1.73-3.2-1.73-7.4v-.58q0-4.03 1.61-7.13 1.61-3.11 4.46-4.92 2.85-1.82 6.65-1.82 3.85 0 6.62 1.9 2.76 1.9 4.06 5.35 1.29 3.46.77 8.06h-20.55q.12 2.82 1.41 5.1 1.3 2.27 3.54 3.56 2.25 1.3 5.24 1.3 4.55 0 7.14-2.25l2.07 2.36q-1.55 1.56-4 2.42-2.45.87-5.32.87m-.98-25.44q-3.8 0-6.19 2.47t-2.85 6.56h17.04q.06-4.14-2.16-6.59-2.22-2.44-5.84-2.44m39.77 24.86q-3.17 0-5.09-1.84-1.93-1.84-1.93-4.89v-32.12h-5.3v-3.17h8.98v35.34q0 1.5 1.01 2.51t2.5 1h2.48v3.17zm6.1-27.28v-13.01h3.4v13.01zm12.03 27.28v-42.02h3.51v19.4q1.1-2.07 2.74-3.25t3.42-1.7 3.34-.52q4.66 0 7.6 2.97 2.93 2.96 2.93 9.06v16.06h-3.68v-15.6q0-4.83-2.19-6.96t-5.52-2.13q-2.31 0-4.24 1.03-1.92 1.04-3.07 3.05-1.16 2.02-1.16 5.07v15.54zm34.07 0v-24.29h-5.52v-3.22h9.15v27.51zm-.23-33.84v-6.22h4.09v6.22zm20.61 34.36q-2.88 0-5.53-.92-2.64-.92-4.26-2.48l1.67-2.53q1.5 1.38 3.69 2.19 2.18.8 4.43.8 2.82 0 4.6-1.32 1.79-1.33 1.79-3.51 0-1.79-1.1-2.76-1.09-.98-2.84-1.5-1.76-.52-3.69-1.01t-3.65-1.26-2.82-2.22-1.1-4.03q0-3.57 2.65-5.81 2.65-2.25 7.08-2.25 2.53 0 4.75.78 2.21.78 3.88 2.04l-1.67 2.59q-1.43-1.15-3.22-1.78-1.78-.63-3.8-.63-2.76 0-4.46 1.32t-1.7 3.45q0 1.79 1.1 2.74 1.09.95 2.85 1.49 1.75.55 3.71 1.04t3.71 1.29 2.85 2.31q1.09 1.49 1.09 4.08 0 3.46-2.79 5.67-2.79 2.22-7.22 2.22m26.07-.52q-1.84 0-3.45-.75t-2.65-2.27-1.03-3.94v-17.33h-5.13v-3.22h5.13v-6.85h3.62v6.85h7.66v3.22h-7.66v17.56q0 1.55 1.04 2.56 1.03 1 2.53 1h4.09v3.17zm21.47.58q-3.91 0-6.96-1.82-3.05-1.81-4.78-5-1.73-3.2-1.73-7.4v-.52q0-4.09 1.73-7.22 1.73-3.14 4.78-4.92 3.05-1.79 6.96-1.79 3.86 0 6.91 1.79 3.05 1.78 4.78 4.89 1.72 3.11 1.72 7.14v.63q0 4.2-1.72 7.4-1.73 3.19-4.78 5-3.05 1.82-6.91 1.82m0-3.29q2.88 0 5.07-1.41 2.18-1.41 3.42-3.85t1.24-5.67v-.63q0-3.11-1.24-5.47t-3.42-3.71-5.07-1.36-5.09 1.38q-2.22 1.39-3.48 3.77-1.27 2.39-1.27 5.5v.52q0 3.22 1.27 5.67 1.26 2.44 3.48 3.85t5.09 1.41m22.45 2.71v-24.29h-5.53v-3.22h9.15v27.51zm-.23-33.84v-6.22h4.09v6.22zm13.29 33.84v-27.51h3.57v4.49q1.04-2.65 3.08-3.6t4.64-.95h2.36v3.63h-2.65q-3.4 0-5.36 1.75-1.95 1.76-1.95 5.5v16.69zm30.05.58q-4.03 0-7.14-1.82-3.11-1.81-4.83-5-1.73-3.2-1.73-7.4v-.58q0-4.03 1.61-7.13 1.61-3.11 4.46-4.92 2.85-1.82 6.65-1.82 3.86 0 6.62 1.9t4.06 5.35.77 8.06h-20.54q.11 2.82 1.41 5.1t3.54 3.56q2.24 1.3 5.23 1.3 4.55 0 7.14-2.25l2.07 2.36q-1.55 1.56-4 2.42-2.44.87-5.32.87m-.98-25.44q-3.8 0-6.19 2.47t-2.85 6.56h17.04q.06-4.14-2.16-6.59-2.21-2.44-5.84-2.44"/><path fill="rgba(255,255,255,0.85)" d="M1695.95 1050H1912v22h-216.05z"/><path fill="none" stroke="#c0392b" d="M1696.45 1050.5h215.05v21h-215.05z"/><text x="1704.95" y="1055" fill="#c0392b" dominant-baseline="text-before-edge" font-family="monospace" font-size="10" font-weight="700">EXPERIMENTAL — NOT BRAND APPROVED</text></svg>