<svg xmlns="http://www.w3.org/2000/svg" width="1920" height="1080" viewBox="0 0 1920 1080"><path fill="#192072" d="M0 0h1920v1080H0z"/><path fill="#0e1345" d="M0 0h687.36v1080H0z"/><path fill="#bff1ea" d="m63.68 525.06 29-73.54h5.77l29 73.54h-5.25L113.58 503H77.44l-8.61 22.06zm15.55-26.58h32.57l-16.18-41.49zm50.95 26.58v-4.73h13.55v-64.08h-13.55v-4.73h32.36v4.73h-13.77v64.08h13.77v4.73zm35.3-27v-4.83h32.67v4.83zm44.44 27v-49.9h4.62v8.3q1.99-4.94 5.78-6.67 3.78-1.74 8.4-1.74h4.52v4.84h-4.73q-6.41 0-10.08 3.36-3.68 3.36-3.68 10.82v30.99zm50 1.05q-7.35 0-12.92-3.31t-8.72-9.14-3.15-13.39v-1.05q0-7.36 2.89-12.98t8.03-8.87 11.98-3.26q6.72 0 11.61 3.41t7.25 9.46 1.52 14.02h-38.45q.11 5.99 2.68 10.61 2.57 4.63 7.04 7.3 4.46 2.68 10.35 2.68 3.99 0 7.51-1.1t5.93-3.2l2.84 3.25q-2.84 2.63-7.14 4.1t-9.25 1.47m-1.89-47.59q-7.67 0-12.5 5.1t-5.46 13.29h33.72q.21-8.41-4.2-13.4t-11.56-4.99m46.01 47.59q-8.61 0-13.76-3.99t-5.15-10.61q0-6.31 5.31-10.4t14.02-4.1q5.15 0 8.93 1.37 3.79 1.36 5.99 3.67v-9.45q0-7.36-3.62-10.66-3.63-3.31-10.03-3.31-4.31 0-8.72 1.52t-7.46 5.09l-2.52-3.46q3.46-3.99 8.56-5.83 5.09-1.84 10.24-1.84 8.4 0 13.39 4.52t4.99 13.86v15.76q0 8.41.32 16.81h-4.41l-.11-5.99q-1.99 3.36-6.04 5.2t-9.93 1.84m1.05-3.89q6.94 0 10.67-2.99t3.73-7.62q0-4.72-3.73-7.67-3.73-2.94-10.77-2.94-6.93 0-10.93 2.94-3.99 2.95-3.99 7.57t3.99 7.67 11.03 3.04m53.16 3.89q-6.93 0-12.18-3.26t-8.2-9.08-2.94-13.5v-.95q0-7.35 2.99-13.08 3-5.72 8.25-8.93t12.08-3.2q6.62 0 11.66 3.31t7.88 8.98v-38.03h4.83v76.69h-4.51V513.4q-2.84 5.88-7.99 9.3-5.14 3.41-11.87 3.41m.42-4.41q5.68 0 9.98-2.73t6.83-7.57 2.52-11.24-2.52-11.24-6.83-7.56q-4.3-2.73-9.98-2.73-5.57 0-9.82 2.62t-6.67 7.3-2.42 10.77v.95q0 6.3 2.42 11.13t6.67 7.57 9.82 2.73m32.04 24.37v-4.31h8.83q3.04 0 4.78-2.1 1.73-2.1 2.99-5.04l4.1-9.35-20.8-50.11h5.25l18.07 44.12 17.75-44.12h5.26l-24.69 59.56q-1.16 2.84-2.73 5.42-1.58 2.57-3.99 4.25t-6.1 1.68zM74.29 628v-45.49h-10.4v-4.41h15.23V628zm-.31-61.88v-10.61h5.46v10.61zM94.15 628v-49.9h4.62v9.87q1.89-4.09 4.99-6.46 3.1-2.36 6.51-3.41 3.42-1.05 6.46-1.05 8.41 0 13.77 5.36 5.35 5.35 5.35 16.6V628h-4.83v-28.36q0-9.67-4.36-13.87t-10.87-4.2q-4.52 0-8.35 2.04t-6.15 6.05q-2.31 3.99-2.31 9.87V628zm57.99 0v-45.49h-9.77v-4.41h9.77v-14.92q0-5.25 3.46-8.56 3.47-3.31 8.83-3.31h8.09v4.31h-8.2q-3.15 0-5.2 2.05t-2.05 5.3v15.13h15.45v4.41h-15.45V628zm28.47 0v-49.9h4.62v8.3q1.99-4.94 5.78-6.67 3.78-1.74 8.4-1.74h4.52v4.84h-4.73q-6.41 0-10.08 3.36-3.68 3.36-3.68 10.82V628zm43.7 1.05q-8.62 0-13.76-3.99t-5.15-10.61q0-6.31 5.3-10.4t14.03-4.1q5.15 0 8.93 1.37 3.78 1.36 5.99 3.67v-9.45q0-7.36-3.63-10.66-3.62-3.31-10.03-3.31-4.31 0-8.72 1.52t-7.46 5.09l-2.52-3.46q3.47-3.99 8.56-5.83t10.24-1.84q8.41 0 13.4 4.52t4.99 13.86v15.76q0 8.41.31 16.81h-4.41l-.1-5.99q-2 3.36-6.04 5.2t-9.93 1.84m1.05-3.89q6.93 0 10.66-2.99t3.73-7.62q0-4.72-3.73-7.67-3.73-2.94-10.77-2.94-6.93 0-10.92 2.94-3.99 2.95-3.99 7.57t3.99 7.67 11.03 3.04m46.12 3.89q-5.04 0-9.77-1.68t-7.57-4.52l2.42-3.57q2.63 2.63 6.67 4.15t8.25 1.52q5.67 0 9.19-2.73t3.52-7.04q0-3.67-2.05-5.56-2.05-1.9-5.3-2.95t-6.89-1.89q-3.62-.84-6.82-2.26-3.21-1.41-5.26-3.99-2.05-2.57-2.05-7.19 0-6.31 4.73-10.3t12.29-3.99q4.52 0 8.46 1.47t6.88 3.78l-2.42 3.47q-2.52-2.1-5.83-3.36-3.3-1.26-7.09-1.26-5.46 0-8.93 2.78t-3.46 7.09q0 3.47 2.1 5.36t5.3 2.94 6.88 1.94 6.94 2.37 5.3 4.09 2.05 7.25q0 6.2-4.88 10.14t-12.66 3.94m43.38-1.05q-4.93 0-8.5-3.05t-3.58-8.82v-33.62h-9.77v-4.41h9.77v-12.5h4.73v12.5h14.6v4.41h-14.6v33.83q0 3.15 2.1 5.25t5.25 2.1h7.25V628zm16.81 0v-49.9h4.63v8.3q1.99-4.94 5.77-6.67 3.79-1.74 8.41-1.74H355v4.84h-4.73q-6.41 0-10.09 3.36t-3.67 10.82V628zm50.11 1.05q-5.56 0-9.87-2.1t-6.83-6.72-2.52-12.09V578.1h4.83v29.41q0 6.31 2 10.04 1.99 3.73 5.41 5.35 3.41 1.63 7.72 1.63 4.41 0 8.19-1.99 3.79-2 6.1-5.94t2.31-9.93V578.1h4.73V628h-4.52v-9.14q-2.94 5.57-7.99 7.88-5.04 2.31-9.56 2.31m58.52 0q-7.25 0-12.97-3.2t-8.93-8.93-3.21-13.19v-1.36q0-7.46 3.26-13.19t8.93-8.93 12.92-3.2q5.36 0 9.66 1.78 4.31 1.79 7.46 5.26l-3.04 3.15q-2.73-2.73-6.2-4.15t-7.88-1.42q-5.99 0-10.56 2.63t-7.14 7.25-2.58 10.82v1.36q0 6.1 2.63 10.77t7.2 7.3 10.45 2.63q8.61 0 14.08-5.46l3.04 3.04q-3.04 3.47-7.4 5.25-4.36 1.79-9.72 1.79m42.02-1.05q-4.94 0-8.51-3.05t-3.57-8.82v-33.62h-9.77v-4.41h9.77v-12.5h4.73v12.5h14.6v4.41h-14.6v33.83q0 3.15 2.1 5.25t5.25 2.1h7.25V628zm35.19 1.05q-5.56 0-9.87-2.1t-6.83-6.72-2.52-12.09V578.1h4.83v29.41q0 6.31 2 10.04 1.99 3.73 5.41 5.35 3.41 1.63 7.72 1.63 4.41 0 8.19-1.99 3.79-2 6.1-5.94t2.31-9.93V578.1h4.73V628h-4.52v-9.14q-2.94 5.57-7.99 7.88-5.04 2.31-9.56 2.31M554.6 628v-49.9h4.62v8.3q2-4.94 5.78-6.67 3.78-1.74 8.4-1.74h4.52v4.84h-4.73q-6.41 0-10.08 3.36-3.68 3.36-3.68 10.82V628zm50 1.05q-7.35 0-12.92-3.31t-8.72-9.14-3.15-13.39v-1.05q0-7.36 2.89-12.98t8.04-8.87 11.97-3.26q6.73 0 11.61 3.41 4.89 3.42 7.25 9.46t1.52 14.02h-38.45q.11 5.99 2.68 10.61 2.58 4.63 7.04 7.3 4.47 2.68 10.35 2.68 3.99 0 7.51-1.1t5.94-3.2l2.83 3.25q-2.83 2.63-7.14 4.1t-9.25 1.47m-1.89-47.59q-7.67 0-12.5 5.1t-5.46 13.29h33.72q.21-8.41-4.2-13.4t-11.56-4.99m191.33-194.32v-85.9h26.63q12.88 0 20.8 6.81t7.91 19.08q0 12.15-7.91 18.96t-20.8 6.81h-16.2v34.24zm27.12-76.82h-16.69v33.75h16.69q7.97 0 12.94-4.61 4.97-4.6 4.97-12.33t-4.97-12.27-12.94-4.54m39.39 76.82v-59.03h9.57v9.45q2.21-5.64 6.57-7.67 4.35-2.02 9.75-2.02h5.03v9.81h-5.76q-7.24 0-11.23 3.56t-3.99 10.93v34.97zm46.63 0V336.7h-11.53v-8.59H917v59.03zm-.61-72.04v-14.23h11.04v14.23zm43.93 72.04-23.44-59.03h10.31l18.41 47.37 18.28-47.37h10.31l-23.31 59.03zm60.62 1.23q-10.06 0-16.13-4.91-6.08-4.91-6.08-12.76 0-5.16 3.07-9.21t8.41-6.44 11.96-2.39q9.7 0 15.46 4.05v-7.37q0-7.24-3.74-10.37t-10.12-3.13q-4.79 0-9.76 1.78t-8.53 5.46l-4.66-6.99q3.93-4.54 10.31-6.87t13.13-2.33q10.43 0 16.81 5.52t6.38 16.44v18.9q0 9.82.37 19.39h-8.84l-.12-5.89q-5.52 7.12-17.92 7.12m2.58-7.49q6.75 0 10.49-2.82t3.75-7.36-3.75-7.31q-3.74-2.76-10.61-2.76-6.75 0-10.68 2.76-3.92 2.77-3.92 7.31 0 4.41 3.98 7.3 3.99 2.88 10.74 2.88m60.5 6.26q-4.05 0-7.79-1.53-3.74-1.54-6.14-4.97-2.39-3.44-2.39-9.21V336.7h-10.68v-8.59h10.68v-14.6h9.82v14.6h15.58v8.59h-15.58v35.35q0 2.82 1.9 4.72t4.72 1.9h8.96v8.47zm45.53 1.23q-8.71 0-15.4-3.87-6.69-3.86-10.43-10.74-3.75-6.87-3.75-15.83v-1.22q0-8.59 3.44-15.28t9.7-10.62 14.48-3.92q8.46 0 14.48 4.17t8.89 11.72q2.89 7.54 1.66 17.85h-42.7q.36 5.16 2.88 9.39 2.51 4.23 6.87 6.75t10.25 2.52q4.66 0 8.28-1.11 3.62-1.1 6.32-3.56l5.65 6.14q-3.44 3.68-8.78 5.64-5.34 1.97-11.84 1.97m-1.96-52.89q-7.37 0-11.97 4.66t-5.58 12.39h33.13q-.12-8.1-4.42-12.58-4.29-4.47-11.16-4.47m35.83 51.66v-13.5h12.52v22.09q0 5.28-3.01 7.3-3.01 2.03-6.56 2.03h-3.69v-6.02h3.69q1.59 0 2.39-.98t.8-2.45v-8.47zm46.51 24.54v-8.34h35.22q4.17 0 6.5-2.03t2.34-5.7q0-3.44-2.34-5.34t-6.5-1.9h-19.39q-4.66 0-7.06-2.21t-2.7-5.52 1.42-6.63l3.92-7.98q-4.54-2.82-7.11-7.3t-2.58-10v-1.11q0-6.13 3.25-10.79 3.25-4.67 8.96-7.31t13.07-2.63q1.35 0 2.7.12l6.01-12.4h9.94l-7.61 14.12q6.51 2.33 10.37 7.24 3.87 4.91 3.87 11.41v1.35q0 6.26-3.25 11.04-3.26 4.79-8.96 7.55t-13.07 2.76q-3.93 0-7.61-.86l-2.95 5.77q-.85 1.6-.55 3.5.31 1.9 3.38 1.9h17.3q7.49 0 12.15 3.87 4.66 3.86 4.66 11.47 0 7-4.72 11.47-4.73 4.48-12.58 4.48zm27-49.33q3.56 0 7.12-1.29 3.55-1.29 6.01-4.42t2.45-8.52q0-5.89-4.35-9.51-4.36-3.63-11.23-3.63t-11.23 3.63-4.36 9.51q0 5.4 2.46 8.52 2.45 3.13 6.07 4.42t7.06 1.29m64.18 26.02q-8.47 0-15.09-3.87-6.63-3.86-10.44-10.74-3.8-6.87-3.8-15.83v-1.1q0-8.71 3.8-15.53 3.81-6.81 10.44-10.61t15.09-3.8q8.47 0 15.09 3.8 6.63 3.8 10.44 10.49t3.8 15.4v1.35q0 8.96-3.8 15.83-3.81 6.88-10.44 10.74t-15.09 3.87m0-8.84q5.77 0 10.12-2.76 4.36-2.76 6.81-7.61 2.46-4.85 2.46-11.23v-1.35q0-9.2-5.4-15.03t-13.99-5.83q-5.65 0-10.06 2.7t-6.94 7.49q-2.51 4.78-2.51 10.92v1.1q0 6.38 2.51 11.23 2.52 4.85 6.94 7.61t10.06 2.76m57.68 7.61-23.44-59.03h10.31l18.4 47.37 18.29-47.37h10.31l-23.32 59.03zm68.47 1.23q-8.71 0-15.4-3.87-6.69-3.86-10.43-10.74-3.74-6.87-3.74-15.83v-1.22q0-8.59 3.43-15.28t9.7-10.62 14.48-3.92q8.47 0 14.48 4.17t8.9 11.72 1.65 17.85h-42.7q.37 5.16 2.88 9.39 2.52 4.23 6.88 6.75t10.24 2.52q4.67 0 8.29-1.11 3.62-1.1 6.32-3.56l5.64 6.14q-3.44 3.68-8.77 5.64-5.34 1.97-11.85 1.97m-1.96-52.89q-7.36 0-11.96 4.66t-5.59 12.39h33.14q-.13-8.1-4.42-12.58-4.3-4.47-11.17-4.47m38.66 51.66v-59.03h9.57v9.45q2.21-5.64 6.56-7.67 4.36-2.02 9.76-2.02h5.03v9.81h-5.77q-7.24 0-11.22 3.56t-3.99 10.93v34.97zm41.97 0v-59.03h9.57v9.45q3.56-6.13 9.14-8.4t10.37-2.27q9.94 0 16.14 6.44 6.19 6.44 6.19 19.08v34.73h-9.94v-33.26q0-9.45-4.23-13.68t-10.74-4.23q-6.75 0-11.65 4.6t-4.91 13.44v33.13zm94 1.23q-8.71 0-15.4-3.87-6.69-3.86-10.43-10.74-3.75-6.87-3.75-15.83v-1.22q0-8.59 3.44-15.28t9.69-10.62 14.48-3.92q8.47 0 14.49 4.17t8.89 11.72q2.89 7.54 1.66 17.85h-42.71q.37 5.16 2.89 9.39 2.51 4.23 6.87 6.75t10.25 2.52q4.66 0 8.28-1.11 3.62-1.1 6.32-3.56l5.64 6.14q-3.43 3.68-8.77 5.64-5.34 1.97-11.84 1.97m-1.97-52.89q-7.36 0-11.96 4.66t-5.58 12.39h33.13q-.12-8.1-4.42-12.58-4.29-4.47-11.17-4.47m62.47 52.89q-8.1 0-14.36-3.81-6.26-3.8-9.82-10.67t-3.56-15.96v-1.1q0-8.84 3.62-15.59t9.88-10.55 14.24-3.8q6.62 0 11.84 2.88t8.65 7.91v-40.12h9.94v89.58h-8.96v-10.68q-3.56 5.65-9.08 8.78t-12.39 3.13m1.35-8.84q5.77 0 10.18-2.7t7-7.61 2.58-11.53q0-6.63-2.58-11.6t-7-7.67-10.18-2.7q-8.22 0-13.69 5.77t-5.46 15.34v1.1q0 6.51 2.52 11.42t6.81 7.54 9.82 2.64m44.05 7.61v-13.5h12.52v22.09q0 5.28-3.01 7.3-3 2.03-6.56 2.03h-3.68v-6.02h3.68q1.59 0 2.39-.98t.8-2.45v-8.47zM792.56 565.07V481.5h9.33v10.19q3.44-5.28 8.9-8.35t12.21-3.06q7.97 0 14.23 3.8t9.88 10.55 3.62 15.59v1.1q0 9.08-3.56 15.96-3.56 6.87-9.81 10.67-6.26 3.81-14.36 3.81-6.51 0-11.78-2.89-5.28-2.88-8.72-7.91v34.11zm28.97-32.15q5.52 0 9.87-2.64 4.36-2.64 6.88-7.54t2.51-11.42v-1.1q0-9.57-5.46-15.34t-13.8-5.77q-5.65 0-10.07 2.7t-6.99 7.67-2.58 11.6q0 6.62 2.58 11.53 2.57 4.91 6.99 7.61t10.07 2.7m43.07 7.61V481.5h9.57v9.45q2.21-5.64 6.57-7.67 4.35-2.02 9.75-2.02h5.03v9.81h-5.76q-7.24 0-11.23 3.56t-3.99 10.93v34.97zm64.43 1.23q-8.47 0-15.1-3.87-6.62-3.86-10.43-10.74-3.8-6.87-3.8-15.83v-1.1q0-8.71 3.8-15.53 3.81-6.81 10.43-10.61 6.63-3.8 15.1-3.8t15.09 3.8 10.43 10.49 3.81 15.4v1.35q0 8.96-3.81 15.83-3.8 6.88-10.43 10.74t-15.09 3.87m0-8.84q5.76 0 10.12-2.76t6.81-7.61 2.46-11.23v-1.35q0-9.2-5.4-15.03t-13.99-5.83q-5.65 0-10.07 2.7t-6.93 7.49q-2.52 4.78-2.52 10.92v1.1q0 6.38 2.52 11.23t6.93 7.61 10.07 2.76m67 8.84q-8.1 0-14.36-3.81-6.26-3.8-9.82-10.67-3.55-6.88-3.55-15.96v-1.1q0-8.84 3.62-15.59t9.88-10.55 14.23-3.8q6.63 0 11.84 2.88t8.65 7.91v-40.12h9.94v89.58h-8.95v-10.68q-3.56 5.65-9.09 8.78t-12.39 3.13m1.35-8.84q5.77 0 10.19-2.7t6.99-7.61q2.58-4.91 2.58-11.53 0-6.63-2.58-11.6t-6.99-7.67-10.19-2.7q-8.22 0-13.68 5.77t-5.46 15.34v1.1q0 6.51 2.51 11.42 2.52 4.9 6.81 7.54 4.3 2.64 9.82 2.64m68.84 8.84q-9.81 0-16.32-5.83t-6.5-18.47V481.5h9.94v34.24q0 9.45 4.23 13.19t10.62 3.75q6.63 0 11.47-4.42t4.85-13.38V481.5h9.82v59.03h-8.84v-8.84q-3.68 5.77-9.14 7.92t-10.13 2.15m72.16 0q-8.71 0-15.58-3.81-6.87-3.8-10.74-10.61t-3.87-15.65v-1.47q0-8.84 3.93-15.59t10.74-10.55 15.52-3.8q6.51 0 11.85 2.39t9.02 6.69l-6.14 6.13q-5.65-6.01-14.73-6.01-5.89 0-10.49 2.58-4.6 2.57-7.24 7.24t-2.64 10.92v1.47q0 6.26 2.7 10.98t7.3 7.31q4.61 2.57 10.5 2.57 8.95 0 14.84-5.89l6.02 6.02q-3.56 4.29-9.02 6.68-5.46 2.4-11.97 2.4m53.26-1.23q-4.05 0-7.79-1.53-3.74-1.54-6.14-4.97-2.39-3.44-2.39-9.21v-34.73h-10.68v-8.59h10.68v-14.6h9.82v14.6h15.58v8.59h-15.58v35.35q0 2.82 1.9 4.72t4.73 1.9h8.95v8.47zm26.39 0v-50.44h-11.54v-8.59h21.35v59.03zm-.62-72.04v-14.23h11.05v14.23zm53.75 73.27q-8.46 0-15.09-3.87-6.63-3.86-10.43-10.74-3.81-6.87-3.81-15.83v-1.1q0-8.71 3.81-15.53 3.8-6.81 10.43-10.61t15.09-3.8 15.1 3.8 10.43 10.49 3.8 15.4v1.35q0 8.96-3.8 15.83-3.8 6.88-10.43 10.74t-15.1 3.87m0-8.84q5.77 0 10.13-2.76 4.35-2.76 6.81-7.61t2.45-11.23v-1.35q0-9.2-5.4-15.03t-13.99-5.83q-5.64 0-10.06 2.7t-6.93 7.49q-2.52 4.78-2.52 10.92v1.1q0 6.38 2.52 11.23 2.51 4.85 6.93 7.61t10.06 2.76m43.2 7.61V481.5h9.57v9.45q3.56-6.13 9.15-8.4t10.36-2.27q9.95 0 16.14 6.44t6.2 19.08v34.73h-9.94v-33.26q0-9.45-4.23-13.68t-10.74-4.23q-6.75 0-11.66 4.6t-4.91 13.44v33.13zm65.41-29.21v-9.94h37.67v9.94zm46.63 53.75v-8.34h35.22q4.17 0 6.51-2.03t2.33-5.7q0-3.44-2.33-5.34t-6.51-1.9h-19.39q-4.66 0-7.05-2.21-2.4-2.21-2.7-5.52-.31-3.32 1.41-6.63l3.93-7.98q-4.55-2.82-7.12-7.3t-2.58-10v-1.11q0-6.13 3.25-10.79 3.25-4.67 8.96-7.31t13.07-2.63q1.35 0 2.7.12l6.01-12.4h9.94l-7.61 14.12q6.51 2.33 10.37 7.24 3.87 4.91 3.87 11.41v1.35q0 6.26-3.25 11.04-3.25 4.79-8.96 7.55t-13.07 2.76q-3.93 0-7.61-.86l-2.94 5.77q-.86 1.6-.56 3.5.31 1.9 3.38 1.9h17.3q7.49 0 12.15 3.87 4.66 3.86 4.66 11.47 0 7-4.72 11.47t-12.58 4.48zm27-49.33q3.56 0 7.12-1.29t6.01-4.42 2.46-8.52q0-5.89-4.36-9.51t-11.23-3.63-11.23 3.63q-4.35 3.62-4.35 9.51 0 5.4 2.45 8.52 2.45 3.13 6.07 4.42t7.06 1.29m38.78 24.79V481.5h9.57v9.45q2.21-5.64 6.57-7.67 4.35-2.02 9.75-2.02h5.03v9.81h-5.76q-7.24 0-11.23 3.56t-3.99 10.93v34.97zm56.94 1.23q-10.06 0-16.14-4.91t-6.07-12.76q0-5.16 3.07-9.21t8.4-6.44 11.97-2.39q9.69 0 15.46 4.05v-7.37q0-7.24-3.74-10.37t-10.13-3.13q-4.78 0-9.75 1.78t-8.53 5.46l-4.67-6.99q3.93-4.54 10.31-6.87t13.13-2.33q10.43 0 16.82 5.52 6.38 5.52 6.38 16.44v18.9q0 9.82.37 19.39h-8.84l-.12-5.89q-5.53 7.12-17.92 7.12m2.58-7.49q6.75 0 10.49-2.82t3.74-7.36-3.74-7.31-10.62-2.76q-6.74 0-10.67 2.76-3.93 2.77-3.93 7.31 0 4.41 3.99 7.3t10.74 2.88m64.92 7.49q-8.1 0-14.36-3.81-6.26-3.8-9.82-10.67t-3.56-15.96v-1.1q0-8.84 3.62-15.59t9.88-10.55 14.24-3.8q6.62 0 11.84 2.88t8.65 7.91v-40.12h9.94v89.58h-8.96v-10.68q-3.56 5.65-9.08 8.78t-12.39 3.13m1.35-8.84q5.76 0 10.18-2.7t7-7.61 2.57-11.53-2.57-11.6q-2.58-4.97-7-7.67t-10.18-2.7q-8.23 0-13.69 5.77t-5.46 15.34v1.1q0 6.51 2.52 11.42 2.51 4.9 6.81 7.54t9.82 2.64m72.52 8.84q-8.71 0-15.4-3.87-6.69-3.86-10.43-10.74-3.74-6.87-3.74-15.83v-1.22q0-8.59 3.43-15.28t9.7-10.62 14.48-3.92q8.47 0 14.48 4.17t8.9 11.72 1.65 17.85h-42.7q.36 5.16 2.88 9.39t6.87 6.75 10.25 2.52q4.66 0 8.28-1.11 3.62-1.1 6.32-3.56l5.65 6.14q-3.44 3.68-8.78 5.64-5.33 1.97-11.84 1.97m-1.96-52.89q-7.37 0-11.97 4.66t-5.58 12.39h33.13q-.12-8.1-4.41-12.58-4.3-4.47-11.17-4.47M804.47 728.45q-5.81 0-10.27-2.09t-7.4-5.68l3.43-3.52q5.73 6.63 14.48 6.63 6.22 0 9.82-3.15t3.6-8.31q0-3.51-1.64-5.64-1.63-2.13-4.33-3.4t-5.89-2.17-6.42-1.88-5.94-2.53-4.33-4.22q-1.64-2.66-1.64-6.91 0-4.91 2.33-8.55t6.51-5.64 9.81-2.01q4.91 0 8.8 1.6 3.89 1.59 6.5 4.37l-3.51 3.6q-2.38-2.45-5.28-3.68t-6.51-1.23q-6.05 0-9.65 3.07t-3.6 7.98q0 3.35 1.64 5.32 1.63 1.96 4.37 3.15 2.74 1.18 5.98 2 3.23.82 6.46 1.8t5.93 2.62 4.38 4.42 1.68 7.2q0 5.23-2.46 9t-6.79 5.8q-4.34 2.05-10.06 2.05m29.04-.9v-59.72h4.99v27.57q1.56-2.95 3.89-4.62 2.33-1.68 4.87-2.42 2.53-.73 4.74-.73 6.63 0 10.8 4.21t4.17 12.88v22.83h-5.23v-22.17q0-6.87-3.11-9.9t-7.86-3.03q-3.27 0-6.01 1.48-2.74 1.47-4.38 4.33t-1.63 7.2v22.09zm48.02 0v-34.52h-7.85v-4.59h13.01v39.11zm-.32-48.11v-8.83h5.81v8.83zm18.49 64.47v-55.47h4.91v7.86q2.29-4.01 6.09-6.34t8.63-2.33q5.32 0 9.45 2.53 4.13 2.54 6.51 7t2.37 10.26v.74q0 5.97-2.33 10.55t-6.47 7.12-9.53 2.54q-4.66 0-8.42-2.21-3.77-2.21-5.98-6.05v23.8zm18.98-20.21q4.01 0 7.11-1.92t4.87-5.44 1.76-8.18v-.74q0-4.5-1.76-7.89-1.76-3.4-4.87-5.32-3.1-1.92-7.11-1.92t-7.2 2-5.03 5.53q-1.84 3.51-1.84 8.18 0 4.74 1.84 8.26t5.03 5.48 7.2 1.96m48.76 3.85v-39.11h4.99v6.88q2.21-4.34 5.81-6.02t7.11-1.67q4.5 0 7.82 2.04 3.31 2.05 4.86 6.38 1.64-3.19 3.97-5.03t4.91-2.62q2.58-.77 4.95-.77 6.38 0 10.35 4.13t3.97 12.8v22.99h-5.07v-22.42q0-6.71-2.87-9.69-2.86-2.99-7.52-2.99-4.75 0-8.02 3.23-3.27 3.24-3.27 9.37v22.5h-5.16v-22.42q0-6.71-2.82-9.69-2.82-2.99-7.49-2.99-4.82 0-8.1 3.23-3.27 3.24-3.27 9.37v22.5zm87.54.82q-5.57 0-9.9-2.58t-6.79-7.12-2.46-10.51v-.74q0-5.8 2.46-10.26t6.79-7 9.9-2.53q5.48 0 9.81 2.53 4.34 2.54 6.79 6.96t2.46 10.14v.9q0 5.97-2.46 10.51t-6.79 7.12-9.81 2.58m0-4.67q4.09 0 7.2-2 3.1-2 4.86-5.48t1.76-8.06v-.9q0-4.42-1.76-7.77-1.76-3.36-4.86-5.28t-7.2-1.92q-4.09 0-7.24 1.96-3.15 1.97-4.95 5.36t-1.8 7.81v.74q0 4.58 1.8 8.06t4.95 5.48 7.24 2m44.91 4.67q-5.4 0-9.53-2.54-4.13-2.53-6.46-7.12t-2.33-10.55v-.74q0-5.8 2.37-10.26t6.5-7 9.45-2.53q4.75 0 8.47 2.25t5.93 6.09v-28.14h5.24v59.72h-4.75v-8.02q-2.29 4.09-6.14 6.47t-8.75 2.37m.66-4.67q4 0 7.19-1.96t5.04-5.48 1.84-8.26q0-4.67-1.84-8.18-1.84-3.52-5.04-5.53-3.19-2-7.19-2t-7.12 1.92-4.87 5.32q-1.76 3.39-1.76 7.89v.74q0 4.66 1.76 8.18t4.87 5.44 7.12 1.92m48.67 4.67q-5.72 0-10.14-2.58t-6.87-7.12q-2.46-4.54-2.46-10.51v-.82q0-5.72 2.29-10.14t6.34-7 9.45-2.57q5.48 0 9.41 2.7t5.77 7.6 1.1 11.46h-29.2q.16 4.01 2 7.24t5.03 5.07 7.45 1.84q6.46 0 10.14-3.19l2.95 3.35q-2.21 2.21-5.69 3.44t-7.57 1.23m-1.39-36.16q-5.4 0-8.79 3.52-3.4 3.51-4.05 9.32h24.21q.09-5.89-3.06-9.37t-8.31-3.47m36.16 35.34q-4.5 0-7.24-2.62t-2.74-6.95v-45.65h-7.52v-4.5h12.76v50.23q0 2.13 1.43 3.56t3.56 1.43h3.52v4.5zm22.09.74q-4.09 0-7.85-1.31t-6.05-3.52l2.37-3.6q2.12 1.96 5.23 3.11 3.11 1.14 6.3 1.14 4.01 0 6.55-1.88 2.53-1.88 2.53-4.99 0-2.53-1.55-3.93-1.55-1.39-4.05-2.12t-5.24-1.43-5.19-1.8-4.01-3.15-1.55-5.73q0-5.07 3.76-8.26t10.06-3.19q3.6 0 6.75 1.1t5.52 2.9l-2.37 3.69q-2.04-1.64-4.58-2.54t-5.4-.9q-3.93 0-6.34 1.88t-2.41 4.91q0 2.54 1.55 3.89 1.56 1.35 4.05 2.12 2.5.78 5.28 1.48 2.78.69 5.27 1.84 2.5 1.14 4.05 3.27 1.56 2.13 1.56 5.81 0 4.91-3.97 8.06t-10.27 3.15m49.83-.74-11.62-39.11h5.24l9.57 33.79 9.9-33.79h5.48l9.9 33.63 9.65-33.63h5.16l-11.62 39.11h-5.89l-9.98-34.2-9.9 34.2zm54.65 0v-34.52h-7.86v-4.59h13.01v39.11zm-.33-48.11v-8.83h5.81v8.83zm31.01 48.11q-2.62 0-4.91-1.06-2.29-1.07-3.77-3.24-1.47-2.16-1.47-5.6v-24.62h-7.28v-4.59h7.28v-9.73h5.16v9.73h10.88v4.59h-10.88v24.95q0 2.21 1.47 3.64t3.6 1.43h5.81v4.5zm14.97 0v-59.72h4.99v27.57q1.55-2.95 3.88-4.62 2.34-1.68 4.87-2.42 2.54-.73 4.75-.73 6.62 0 10.8 4.21 4.17 4.21 4.17 12.88v22.83h-5.24v-22.17q0-6.87-3.11-9.9t-7.85-3.03q-3.27 0-6.01 1.48-2.74 1.47-4.38 4.33t-1.64 7.2v22.09zm82.55.82q-5.81 0-10.31-2.54-4.5-2.53-7.04-6.99-2.53-4.46-2.53-10.35v-1.07q0-5.8 2.57-10.26 2.58-4.46 7.04-7 4.46-2.53 10.27-2.53 4.25 0 7.69 1.51 3.43 1.51 5.89 4.21l-3.27 3.28q-4.01-4.18-10.4-4.18-4.25 0-7.56 1.88-3.32 1.89-5.2 5.28t-1.88 7.81v1.07q0 4.5 1.92 7.89 1.93 3.4 5.24 5.28t7.57 1.88q6.38 0 10.47-4.17l3.19 3.27q-2.46 2.7-5.93 4.21-3.48 1.52-7.73 1.52m38.04 0q-5.56 0-9.9-2.58t-6.79-7.12-2.45-10.51v-.74q0-5.8 2.45-10.26t6.79-7 9.9-2.53q5.48 0 9.82 2.53 4.33 2.54 6.79 6.96t2.45 10.14v.9q0 5.97-2.45 10.51t-6.79 7.12-9.82 2.58m0-4.67q4.09 0 7.2-2t4.87-5.48 1.76-8.06v-.9q0-4.42-1.76-7.77-1.76-3.36-4.87-5.28t-7.2-1.92-7.24 1.96-4.95 5.36-1.8 7.81v.74q0 4.58 1.8 8.06t4.95 5.48 7.24 2m29.29 3.85v-39.11h4.99v6.96q1.55-2.95 3.88-4.62 2.34-1.68 4.87-2.42 2.54-.73 4.75-.73 6.62 0 10.8 4.21 4.17 4.21 4.17 12.88v22.83h-5.24v-22.17q0-6.87-3.11-9.9t-7.85-3.03q-3.27 0-6.01 1.48-2.74 1.47-4.38 4.33t-1.64 7.2v22.09zm47.78 0v-34.52h-7.45v-4.59h7.45v-10.71q0-4.5 2.86-7.2t7.36-2.7h7.53v4.5h-7.53q-2.21 0-3.64 1.43t-1.43 3.56v11.12h25.12v39.11h-5.24v-34.52h-19.88v34.52zm24.87-48.11v-8.83h5.56v8.83zm33.95 48.93q-5.4 0-9.53-2.54-4.13-2.53-6.47-7.12t-2.33-10.55v-.74q0-5.8 2.38-10.26t6.5-7 9.45-2.53q4.74 0 8.47 2.25 3.72 2.25 5.93 6.09v-28.14h5.23v59.72h-4.74v-8.02q-2.29 4.09-6.14 6.47t-8.75 2.37m.65-4.67q4.01 0 7.2-1.96t5.03-5.48 1.85-8.26q0-4.67-1.85-8.18-1.84-3.52-5.03-5.53-3.19-2-7.2-2t-7.11 1.92-4.87 5.32q-1.76 3.39-1.76 7.89v.74q0 4.66 1.76 8.18t4.87 5.44 7.11 1.92m48.68 4.67q-5.72 0-10.14-2.58t-6.87-7.12-2.46-10.51v-.82q0-5.72 2.29-10.14t6.34-7 9.45-2.57q5.48 0 9.41 2.7t5.77 7.6 1.1 11.46h-29.21q.17 4.01 2.01 7.24t5.03 5.07 7.45 1.84q6.46 0 10.14-3.19l2.95 3.35q-2.21 2.21-5.69 3.44t-7.57 1.23m-1.39-36.16q-5.4 0-8.79 3.52-3.4 3.51-4.05 9.32H1672q.08-5.89-3.06-9.37t-8.31-3.47m26.26 35.34v-39.11h4.99v6.96q1.56-2.95 3.89-4.62 2.33-1.68 4.87-2.42 2.53-.73 4.74-.73 6.63 0 10.8 4.21t4.17 12.88v22.83h-5.23v-22.17q0-6.87-3.11-9.9t-7.85-3.03q-3.28 0-6.02 1.48-2.74 1.47-4.37 4.33-1.64 2.86-1.64 7.2v22.09zm63 .82q-5.81 0-10.31-2.54-4.5-2.53-7.04-6.99-2.53-4.46-2.53-10.35v-1.07q0-5.8 2.57-10.26 2.58-4.46 7.04-7 4.46-2.53 10.27-2.53 4.25 0 7.69 1.51 3.43 1.51 5.89 4.21l-3.27 3.28q-4.01-4.18-10.39-4.18-4.26 0-7.57 1.88-3.31 1.89-5.2 5.28-1.88 3.4-1.88 7.81v1.07q0 4.5 1.92 7.89 1.93 3.4 5.24 5.28t7.57 1.88q6.38 0 10.47-4.17l3.19 3.27q-2.45 2.7-5.93 4.21-3.48 1.52-7.73 1.52m38.37 0q-5.73 0-10.15-2.58t-6.87-7.12-2.45-10.51v-.82q0-5.72 2.29-10.14t6.34-7 9.45-2.57q5.48 0 9.41 2.7t5.76 7.6 1.11 11.46h-29.21q.16 4.01 2.01 7.24t5.03 5.07 7.44 1.84q6.46 0 10.15-3.19l2.94 3.35q-2.21 2.21-5.68 3.44-3.48 1.23-7.57 1.23m-1.39-36.16q-5.4 0-8.8 3.52-3.39 3.51-4.05 9.32h24.22q.08-5.89-3.07-9.37t-8.3-3.47m25.03 35.34v-7.53h6.3v7.53z"/><rect width="716.89" height="143.95" x="785.86" y="827.39" fill="none" stroke="#bff1ea" stroke-width="5" rx="71.98" ry="71.98"/><path fill="#bff1ea" d="M875.52 921.34q-3.1 0-5.09-1.99-1.98-1.98-1.98-5.08v-29.29q0-3.1 1.98-5.08 1.99-1.99 5.09-1.99h19.85v5.52h-17.74q-1.18 0-1.99.81-.8.81-.8 1.98v10.68h19.23v5.27h-19.23v10.86q0 1.18.8 1.98.81.81 1.99.81h17.74v5.52zm29.03 0 10.43-14.95-10.12-15.08H912l7.07 11.17 7.07-11.17h7.01l-10.11 15.02 10.36 15.01h-7.26l-7.26-11.04-7.25 11.04zm38.72 12.41v-42.44h5.7v5.59q1.56-3.29 4.25-4.75 2.7-1.46 5.93-1.46 5.89 0 9.27 4.19 3.39 4.19 3.39 11.26v.62q0 6.95-3.35 11.07t-9.25 4.13q-6.57 0-9.86-5.4v17.19zm14.2-16.44q3.91 0 6.05-2.79t2.14-7.76v-.62q0-5.09-2.14-7.94t-6.05-2.86q-3.97 0-6.23 2.89-2.27 2.88-2.27 8.1t2.27 8.09q2.26 2.89 6.23 2.89m39.59 4.03q-3.85 0-6.18-2.17t-2.32-5.83v-32.82h-9.87v-4.47h15.95v38.03q0 1.18.8 1.99.81.8 1.99.8h12.84v4.47zm34.55.62q-4.22 0-7.53-1.95-3.32-1.96-5.25-5.43-1.92-3.48-1.92-8.07v-.56q0-4.53 1.92-7.97 1.93-3.44 5.25-5.36 3.31-1.93 7.53-1.93t7.51 1.93 5.21 5.33 1.92 7.94v.62q0 4.59-1.92 8.07-1.92 3.47-5.21 5.43t-7.51 1.95m0-4.65q3.85 0 6.21-2.89 2.35-2.88 2.35-7.91v-.62q0-4.9-2.35-7.72-2.36-2.83-6.21-2.83-3.84 0-6.23 2.83-2.39 2.82-2.39 7.78v.56q0 5.03 2.39 7.91 2.39 2.89 6.23 2.89m24.32 4.03v-4.53h8.32v-20.97h-8.32v-4.53h14.4v7.26q.8-3.04 2.6-4.65t4.03-2.2 4.41-.59h3.72v6.01h-4.59q-4.96 0-7.57 2.33-2.6 2.33-2.6 7.85v9.49h11.91v4.53zm51.93.62q-4.47 0-7.78-1.92-3.32-1.93-5.12-5.4t-1.8-8.13v-.62q0-4.4 1.7-7.82 1.71-3.41 4.84-5.39 3.14-1.99 7.35-1.99 4.35 0 7.42 2.17t4.47 6.15.77 9.43h-20.53q.31 4.15 2.6 6.48t6.33 2.33q2.17 0 4.03-.72 1.86-.71 3.23-2.14l3.16 3.41q-1.67 1.99-4.5 3.07-2.82 1.09-6.17 1.09m-.81-26.8q-3.53 0-5.52 2.48t-2.29 6.58h14.7q.19-4.35-1.74-6.7-1.92-2.36-5.15-2.36m73.71 26.99q-4.72 0-8.22-1.74t-5.93-4.59l3.97-4.03q4.53 5.08 10.43 5.08 3.91 0 6.26-1.98 2.36-1.99 2.36-5.21 0-2.3-1.21-3.73-1.21-1.42-3.16-2.29t-4.31-1.52-4.72-1.46-4.31-2.08-3.17-3.32-1.21-5.27q0-3.97 1.83-6.86 1.83-2.88 5.15-4.46 3.32-1.59 7.79-1.59 4.09 0 7.32 1.4t5.34 3.75l-3.97 3.97q-1.8-1.86-3.94-2.85t-4.75-.99q-3.78 0-6.08 1.89t-2.3 4.99q0 2.3 1.21 3.6t3.2 2.11 4.37 1.43 4.75 1.36 4.34 2.02q1.99 1.27 3.2 3.41t1.21 5.49q0 4.1-1.96 7.14-1.95 3.04-5.43 4.68-3.47 1.65-8.06 1.65m38.46 0q-7.25 0-10.82-3.85t-3.57-11.79v-28.6h6.45v28.54q0 10.11 7.94 10.11t7.95-10.11v-28.54h6.45v28.6q0 7.94-3.6 11.79t-10.8 3.85m36.61 0q-4.72 0-8.22-1.74t-5.93-4.59l3.97-4.03q4.53 5.08 10.43 5.08 3.91 0 6.26-1.98 2.36-1.99 2.36-5.21 0-2.3-1.21-3.73-1.21-1.42-3.16-2.29t-4.32-1.52q-2.35-.65-4.71-1.46t-4.31-2.08q-1.96-1.27-3.17-3.32t-1.21-5.27q0-3.97 1.83-6.86 1.83-2.88 5.15-4.46 3.32-1.59 7.79-1.59 4.09 0 7.32 1.4t5.34 3.75l-3.97 3.97q-1.8-1.86-3.94-2.85t-4.75-.99q-3.79 0-6.08 1.89t-2.3 4.99q0 2.3 1.21 3.6t3.2 2.11 4.37 1.43 4.75 1.36 4.34 2.02q1.99 1.27 3.2 3.41t1.21 5.49q0 4.1-1.96 7.14-1.95 3.04-5.43 4.68-3.47 1.65-8.06 1.65m32.57-.81q-3.1 0-5.09-1.99-1.98-1.98-1.98-5.08v-29.29q0-3.1 1.98-5.08 1.99-1.99 5.09-1.99h19.85v5.52h-17.74q-1.18 0-1.99.81-.8.81-.8 1.98v10.68h19.23v5.27h-19.23v10.86q0 1.18.8 1.98.81.81 1.99.81h17.74v5.52zm63.96 0 13.09-43.43h7.88l13.03 43.43h-6.64l-2.91-10.55h-14.89l-2.98 10.55zm11.05-15.7h11.91l-5.96-21.03zm30.02 15.7v-5.15h10.18v-33.13h-10.18v-5.15h26.99v5.15h-10.3v33.13h10.3v5.15z"/><svg xmlns="http://www.w3.org/2000/svg" xmlns:c2pa="http://c2pa.org/manifest" width="468.39" height="108" x="1355.61" y="96" viewBox="0 0 210.39 38.09"><path fill="#fff" d="M208.46 27.03h-13.55a1.9 1.9 0 0 1-1.9-1.9v-6.85h13.09a2.04 2.04 0 1 0 0-4.07H193V7.47c0-1.04.85-1.9 1.9-1.9h13.55a2.14 2.14 0 1 0 0-4.27H194.9a6.2 6.2 0 0 0-6.17 6.17v17.66a6.2 6.2 0 0 0 6.17 6.17h13.55a2.14 2.14 0 1 0 0-4.27M168.6 14.27q-4.3-.78-5.97-1.84-1.68-1.06-1.68-2.87 0-1.94 1.72-3.19 1.72-1.24 4.85-1.24 3.16 0 5.06 1.22 1.03.66 1.87 1.75A2.32 2.32 0 1 0 178 5.14a12 12 0 0 0-3.5-2.73q-2.92-1.5-7.04-1.5-3.53 0-6.18 1.23-2.65 1.22-4.05 3.3a8 8 0 0 0-1.4 4.62q0 2.4 1.1 4.07 1.12 1.68 3.56 2.8 2.44 1.14 6.56 1.9 4.12.78 5.77 1.77 1.66 1 1.65 2.62 0 2.05-1.83 3.15-1.83 1.11-5.04 1.11-3.4 0-5.68-1.27a9 9 0 0 1-2.34-1.92 2.3 2.3 0 0 0-3.37-.09v.01a2.3 2.3 0 0 0-.12 3.16q3.87 4.32 11.55 4.32 3.53 0 6.22-1.07 2.7-1.06 4.19-3.05t1.5-4.62q0-2.44-1.1-4.09-1.08-1.65-3.46-2.76t-6.4-1.83m-66.83 0q-4.3-.77-5.97-1.83-1.68-1.06-1.68-2.87 0-1.95 1.72-3.2t4.84-1.24q3.17 0 5.07 1.23 1.03.66 1.87 1.75a2.32 2.32 0 1 0 3.56-2.96 12 12 0 0 0-3.5-2.73q-2.92-1.5-7.04-1.5-3.53 0-6.18 1.23-2.65 1.22-4.05 3.3a8 8 0 0 0-1.4 4.62q0 2.4 1.1 4.07 1.12 1.68 3.56 2.8 2.44 1.14 6.56 1.9 4.12.78 5.77 1.77 1.65 1 1.65 2.63 0 2.03-1.83 3.14t-5.05 1.11q-3.4 0-5.68-1.27a9 9 0 0 1-2.33-1.92 2.3 2.3 0 0 0-3.37-.09v.01a2.3 2.3 0 0 0-.12 3.16q3.87 4.32 11.55 4.32 3.53 0 6.22-1.07t4.19-3.05 1.5-4.62q0-2.44-1.1-4.1t-3.46-2.75-6.4-1.83m44.57-10.92v16.43q0 5.88-3.12 8.89t-9.1 3.01-9.1-3.01q-3.11-3.01-3.11-8.9V3.37a2.44 2.44 0 0 1 4.88 0V19.2q0 4.25 1.8 6.27t5.54 2.01 5.54-2.01 1.79-6.27V3.36a2.44 2.44 0 0 1 4.88 0"/><path fill="#30ba78" d="M71.54 11.56a1.2 1.2 0 0 0-1.74 0 1.23 1.23 0 0 0 .2 1.9c.4.27.94.27 1.35 0a1.24 1.24 0 0 0 .2-1.9m-1.6-4.18a4.55 4.55 0 0 0-5.46 5.47 4.6 4.6 0 0 0 3.4 3.39 4.54 4.54 0 0 0 5.45-5.47 4.6 4.6 0 0 0-3.39-3.38M48.27 25.87c-2.14-.79-2.97-.63-5.7-.6-1.9.03-1.97-.03-4.13-.03-.67 0-.92 3.2 1.5 3.87 1.06.29 2.2.47 3 1.29.36.36.55.9-.26.9h-6c-1.06 0-2.05.02-2.85-.66-1.22-1.02-1.78-2.43-2.39-3.83a40 40 0 0 0-2.1-4.26c-1.6-2.72-3.69-5.19-6.5-6.7-3.52-1.88-9.48-2.81-14.2.81-4.97 3.82-3.9 10.97.45 14.47a9 9 0 0 0 6.16 1.83c4.3-.24 7.47-3.42 6.68-7.32a4.8 4.8 0 0 0-2.17-3.22 5.4 5.4 0 0 0-2.73-.64c-1.01 0-2.1.2-2.83.9-.86.85-1 2.33-.3 3.31.37.55 1 1 .89 1.72-.07.48-.47.84-.94.94-.81.18-1.55-.28-2.1-.84a5.3 5.3 0 0 1-1.06-5.59c1-2.42 3.8-3.76 6.43-3.67 3.39.11 6.58 2.34 7.97 5.44s.97 6.88-.94 9.68c-4.25 6.22-14.76 5.48-19.64.24C1.45 30.62-.2 27.43.02 21.5c.17-4.2 2.59-8.34 5.68-11.25A38.6 38.6 0 0 1 24.1.86 42 42 0 0 1 36.6.23a55 55 0 0 1 10.83 2.13 43 43 0 0 1 5.14 1.95c1.47.68 3.39 1.41 4.53 2.58 0-2.11-.08-4.43-.08-6.04a.85.85 0 0 1 1.2-.77c2.39 1.1 8.04 3.78 11.8 5.5 5.05 2.3 5.41 7.75 5.59 12.58q.01.16-.04.31c-.16.33-1.01.24-1.32.25-.6 0-1.52 0-2.12.03a38 38 0 0 1-3.59-.03 10.2 10.2 0 0 1-5.83-2.31c-.14-.13-.6-.26-.83-.03a.6.6 0 0 0-.02.73 10 10 0 0 0 2.77 1.91c1.32.68 2.77.86 4.24.94q2.36.15 4.71-.09c1.31-.13 1.65-.22.36.74a14 14 0 0 1-3.78 1.9c-1.92.65-3.94.97-5.96 1.02a23 23 0 0 1-3.65-.19c-.63-.07-1.25-.19-1.88-.25-.52-.05-1.05-.15-1.55-.04-.47.1-.9.35-1.19.73-.4.52-.53 1.95-.3 2.57.44 1.2 1.42 1.9 2.46 2.52 1.12.66 2.59.89 2.88 2.16.06.27-2.33.28-2.6.27H55.2s-1.72.04-2.39-.2l-.06-.03c-.36-.2-.52-.68-.64-1.05a7 7 0 0 0-.87-1.58 7 7 0 0 0-2.96-2.57m24-14.06a3.36 3.36 0 1 1-6.72 0 3.36 3.36 0 0 1 6.72 0"/></svg><path fill="rgba(255,255,255,0.85)" d="M1695.95 1050H1912v22h-216.05z"/><path fill="none" stroke="#c0392b" d="M1696.45 1050.5h215.05v21h-215.05z"/><text x="1704.95" y="1055" fill="#c0392b" dominant-baseline="text-before-edge" font-family="monospace" font-size="10" font-weight="700">EXPERIMENTAL — NOT BRAND APPROVED</text></svg>