<svg xmlns="http://www.w3.org/2000/svg" width="600" height="300" viewBox="0 0 600 300"><path fill="#fff" d="M0 0h600v300H0z"/><path fill="gray" d="M1.5 0h3v146h-3zM22 17.25q-1.45 0-2.52-.53-1.07-.54-1.81-1.41l1.21-1.24q.74.78 1.52 1.14.78.37 1.67.37 1.24 0 1.94-.6t.7-1.55q0-.7-.37-1.14t-.97-.7q-.59-.27-1.32-.47-.72-.2-1.44-.45-.72-.24-1.32-.63t-.97-1.02-.37-1.62q0-1.21.56-2.09.56-.89 1.59-1.37 1.02-.49 2.39-.49 1.24 0 2.22.43t1.64 1.15L25.09 6.3q-.57-.59-1.19-.88-.63-.29-1.43-.29-1.16 0-1.86.57-.7.58-.7 1.52 0 .66.37 1.06t.98.65 1.34.42 1.45.42 1.33.64.98 1.05.37 1.68q0 1.26-.6 2.18t-1.66 1.42q-1.07.51-2.47.51m9.12-.06q-1.56 0-2.5-.77t-.94-1.98q0-.8.47-1.44.48-.64 1.3-1.01t1.91-.37q1.39 0 2.27.54v-1.01q0-1.01-.56-1.45-.55-.43-1.44-.43-.72 0-1.48.26-.76.27-1.31.82l-.86-1.29q.63-.69 1.65-1.07 1.01-.38 2.11-.38 1.66 0 2.69.88 1.04.87 1.04 2.56v2.97l.01 1.49q.01.75.04 1.49h-1.67v-.93q-.81 1.12-2.73 1.12m.51-1.39q.93 0 1.47-.39t.54-1.01-.54-1-1.49-.39q-.93 0-1.49.39t-.56 1 .56 1 1.51.4m6.06 1.2V7.8h1.79v1.3q.53-.86 1.3-1.17.77-.32 1.49-.32.95 0 1.67.41t1.12 1.23q.4-.65.94-1 .55-.35 1.12-.49t1.02-.15q1.5 0 2.44.96t.94 2.9V17h-1.84v-5.26q0-1.28-.54-1.85t-1.45-.57-1.53.62-.62 1.78V17h-1.86v-5.26q0-1.28-.55-1.85-.54-.57-1.43-.57-.93 0-1.55.62t-.62 1.78V17zm22.56 0L56.43 3.7h2.02l2.83 10.39L64.49 3.7h2.19l3.19 10.39L72.7 3.7h2.01L70.87 17h-2.01L65.57 6.15 62.31 17zm15.68 0V3.13h1.78v5.99q.57-.88 1.4-1.19.83-.32 1.51-.32 1.56 0 2.51 1.01t.95 2.95V17h-1.86v-5.15q0-1.35-.59-1.94t-1.5-.59q-.97 0-1.66.65t-.68 1.92V17zm10.94 0V9.4h-1.71V7.8h3.59V17zM86.8 5.89V3.51h2.07v2.38zM94.36 17q-.65 0-1.27-.24-.61-.23-1.01-.8-.4-.56-.4-1.54V9.4h-1.62V7.8h1.62V5.54h1.86V7.8h2.26v1.6h-2.26v5.17q0 .36.25.6t.59.23h1.42V17zm3.78 0V9.4h-1.65V7.8h1.65V5.7q0-1.18.74-1.88.74-.69 2-.69h1.65v1.56h-1.67q-.36 0-.61.25-.25.24-.25.6V7.8h5.97V17h-1.86V9.4H100V17zm5.89-11.11V3.51h2.03v2.38zm8.3 11.3q-1.38 0-2.43-.6-1.04-.6-1.62-1.66t-.58-2.47v-.19q0-1.33.54-2.39.54-1.05 1.52-1.66t2.29-.61q1.35 0 2.31.67.95.66 1.4 1.86t.26 2.83h-6.48q.11 1.1.86 1.84.75.73 2.01.73 1.37 0 2.16-.74l1.07 1.12q-.55.62-1.41.95t-1.9.32m-.28-8.04q-1.07 0-1.69.67-.63.66-.78 1.75h4.65q-.02-1.14-.62-1.78-.61-.64-1.56-.64m8.26 7.85q-1.18 0-1.89-.66-.71-.67-.71-1.79V4.73h-1.62v-1.6h3.48v11.46q0 .36.25.61.24.24.61.24h.91V17zm5.95.19q-1.25 0-2.23-.59t-1.54-1.65-.56-2.47v-.19q0-1.39.57-2.44.57-1.06 1.55-1.65.97-.59 2.23-.59.93 0 1.69.38t1.29 1.07V3.13h1.86V17h-1.69v-1.44q-.53.78-1.35 1.2-.81.43-1.82.43m.28-1.63q1.22 0 2.03-.86.81-.85.81-2.3t-.81-2.29-2.03-.84q-1.17 0-1.96.81t-.79 2.21v.19q0 1.4.79 2.24t1.96.84M20.26 36.84l-3.12-8.4h1.08l2.6 7.12 2.58-7.12h1.09l-3.13 8.4zm5.42 0v-8.4h2.6q1.26 0 2.03.67.78.66.78 1.86 0 1.19-.78 1.86-.77.66-2.03.66H26.7v3.35zm2.65-7.51H26.7v3.3h1.63q.78 0 1.26-.45.49-.45.49-1.21 0-.75-.49-1.2-.48-.44-1.26-.44m8.94 7.63q-.83 0-1.48-.38t-1.02-1.05-.37-1.55v-.1q0-.86.37-1.52.37-.67 1.02-1.04t1.48-.37 1.47.37 1.02 1.03.38 1.5v.13q0 .88-.38 1.55-.37.67-1.02 1.05-.64.38-1.47.38m0-.86q.56 0 .99-.27t.66-.75q.24-.47.24-1.1v-.13q0-.9-.52-1.47-.53-.57-1.37-.57-.55 0-.99.27-.43.26-.67.73t-.25 1.07v.1q0 .63.25 1.1.24.48.67.75t.99.27m4.59.74v-4.93h-1.05v-.84h1.05v-1.45q0-.71.45-1.13t1.17-.41h.96v.83h-.97q-.27 0-.45.18t-.18.45v1.53h1.6v.84h-1.6v4.93zm7.61 0q-.57 0-.95-.38t-.38-.95v-5.74q0-.57.38-.95t.95-.38h3.88v.94H49.8q-.28 0-.47.18-.18.19-.18.45v2.17h3.95v.9h-3.95v2.19q0 .26.18.45.19.18.47.18h3.55v.94zm5.29 0v-5.77h.94v.92q.35-.6.89-.82.55-.22 1.02-.22.97 0 1.58.63.6.63.6 1.86v3.4h-.97v-3.25q0-.93-.41-1.34-.42-.41-1.05-.41-.66 0-1.14.45t-.48 1.31v3.24zm6.17 2.4v-.82h3.45q.4 0 .63-.19.23-.2.23-.56 0-.34-.23-.52-.23-.19-.63-.19h-1.9q-.46 0-.69-.22-.23-.21-.26-.54-.03-.32.13-.64l.39-.78q-.45-.28-.7-.72t-.25-.98v-.1q0-.6.32-1.06t.87-.71q.56-.26 1.28-.26l.27.01.58-1.21h.98l-.75 1.38q.64.23 1.02.71.37.48.37 1.11v.13q0 .62-.31 1.08-.32.47-.88.74t-1.28.27q-.38 0-.74-.08l-.29.56q-.08.16-.05.34t.33.19h1.69q.73 0 1.19.38t.45 1.12q0 .68-.46 1.12t-1.23.44zm2.64-4.82q.35 0 .7-.13t.59-.43.24-.84q0-.57-.43-.93-.43-.35-1.1-.35t-1.1.35q-.42.36-.42.93 0 .53.24.84t.59.43q.36.13.69.13m4.27 2.42v-4.93h-1.12v-.84h2.08v5.77zm-.06-7.04v-1.4h1.08v1.4zm2.84 7.04v-5.77h.93v.92q.35-.6.9-.82.54-.22 1.01-.22.97 0 1.58.63.6.63.6 1.86v3.4h-.97v-3.25q0-.93-.41-1.34-.42-.41-1.05-.41-.66 0-1.14.45t-.48 1.31v3.24zm9.25.12q-.85 0-1.51-.38-.65-.38-1.02-1.05-.36-.67-.36-1.55v-.12q0-.84.33-1.49.34-.65.95-1.04.61-.38 1.42-.38.82 0 1.41.41t.87 1.14q.28.74.16 1.75h-4.17q.03.5.28.92.25.41.67.66.43.24 1 .24.46 0 .81-.11t.62-.34l.55.6q-.33.36-.85.55-.53.19-1.16.19m-.19-5.17q-.72 0-1.17.45-.45.46-.55 1.22h3.24q-.01-.8-.43-1.23-.42-.44-1.09-.44m6.34 5.17q-.85 0-1.5-.38-.66-.38-1.02-1.05-.37-.67-.37-1.55v-.12q0-.84.34-1.49.33-.65.95-1.04.61-.38 1.41-.38.83 0 1.42.41t.87 1.14q.28.74.16 1.75H84.1q.04.5.29.92.24.41.67.66.42.24 1 .24.46 0 .81-.11t.62-.34l.55.6q-.34.36-.86.55t-1.16.19m-.19-5.17q-.72 0-1.17.45-.45.46-.54 1.22h3.24q-.02-.8-.44-1.23-.42-.44-1.09-.44m3.84 5.05v-5.77h.94v.92q.21-.55.64-.75t.95-.2h.5V32h-.57q-.71 0-1.1.35t-.39 1.07v3.42zm4.62 0v-4.93h-1.13v-.84h2.09v5.77zm-.06-7.04v-1.4h1.08v1.4zm2.83 7.04v-5.77H98v.92q.35-.6.89-.82.55-.22 1.02-.22.97 0 1.58.63.6.63.6 1.86v3.4h-.97v-3.25q0-.93-.41-1.34-.42-.41-1.05-.41-.66 0-1.14.45t-.48 1.31v3.24zm6.17 2.4v-.82h3.45q.4 0 .63-.19.23-.2.23-.56 0-.34-.23-.52-.23-.19-.63-.19h-1.9q-.46 0-.69-.22-.23-.21-.26-.54-.03-.32.13-.64l.39-.78q-.45-.28-.7-.72t-.25-.98v-.1q0-.6.32-1.06t.87-.71 1.28-.26l.27.01.58-1.21h.98l-.75 1.38q.64.23 1.02.71.37.48.37 1.11v.13q0 .62-.31 1.08-.32.47-.88.74t-1.28.27q-.38 0-.74-.08l-.29.56q-.08.16-.05.34t.33.19h1.69q.73 0 1.19.38t.45 1.12q0 .68-.46 1.12t-1.23.44zm2.64-4.82q.35 0 .7-.13t.59-.43.24-.84q0-.57-.43-.93-.43-.35-1.1-.35t-1.1.35q-.42.36-.42.93 0 .53.24.84t.59.43q.36.13.69.13M19.5 64.55q-.64 0-1.2-.2t-.9-.51l.43-.67q.32.27.77.44.44.17.9.17.54 0 .87-.25.34-.24.34-.64 0-.33-.23-.52t-.58-.29l-.74-.2q-.4-.1-.75-.27t-.58-.48-.22-.85q0-.76.57-1.25.57-.48 1.53-.48.54 0 1.03.16.48.16.84.43l-.43.67q-.31-.23-.68-.36-.36-.13-.77-.13-.52 0-.84.24-.32.25-.32.64 0 .34.22.52.23.18.59.29.35.11.75.21t.76.27.59.5q.22.31.22.85 0 .51-.28.89-.27.39-.77.6-.49.22-1.12.22m5.28.01q-.99 0-1.58-.48t-.6-1.25q0-.5.3-.9.3-.39.83-.63.52-.23 1.17-.23.94 0 1.51.39v-.72q0-.7-.37-1.01-.36-.31-.99-.31-.47 0-.95.18-.49.17-.84.53l-.45-.68q.38-.45 1.01-.67.62-.23 1.28-.23 1.02 0 1.64.54.63.54.63 1.61v1.84q0 .96.03 1.9h-.86l-.01-.58q-.54.7-1.75.7m.25-.73q.66 0 1.02-.28.37-.27.37-.72t-.37-.71q-.36-.27-1.03-.27-.66 0-1.05.27-.38.27-.38.71t.39.72 1.05.28m4.08.61v-5.77h.92v.91q.34-.59.85-.81t.99-.22q.62 0 1.1.27.47.28.71.86.25-.44.59-.68.35-.25.71-.35.37-.1.69-.1.94 0 1.53.6.58.61.58 1.86v3.43h-.94v-3.31q0-.89-.39-1.29-.38-.4-1.01-.4-.64 0-1.08.43-.43.44-.43 1.26v3.31h-.96v-3.31q0-.89-.38-1.29-.37-.4-1-.4-.65 0-1.08.43-.44.44-.44 1.26v3.31zm10.21 0v-1.32h1.18v1.32zm3.24 0-1.66-5.77h.98l1.29 4.79 1.36-4.79h1.02l1.37 4.77 1.29-4.77h.96l-1.65 5.77h-1.11l-1.37-4.88-1.36 4.88zm7.79 0v-8.76h.93v3.91q.35-.6.9-.82.54-.22 1.01-.22.97 0 1.58.63t.61 1.86v3.4h-.98v-3.25q0-.93-.41-1.34t-1.05-.41q-.66 0-1.14.45t-.48 1.31v3.24zm7.1 0v-4.93h-1.13v-.84h2.09v5.77zm-.06-7.04V56h1.08v1.4zm4.8 7.04q-.39 0-.76-.15t-.6-.49-.23-.9v-3.39h-1.05v-.84h1.05v-1.43h.96v1.43h1.52v.84h-1.52v3.45q0 .28.18.47.19.18.46.18h.88v.83zm2.61 0v-4.93h-1.06v-.84h1.06v-1.45q0-.71.45-1.13t1.17-.41h1.08v.83h-1.1q-.27 0-.45.18t-.18.45v1.53h3.72v5.77h-.97v-4.93h-2.75v4.93zm3.68-7.04V56h1.06v1.4zm5.32 7.16q-.86 0-1.51-.38t-1.02-1.05-.37-1.55v-.12q0-.84.34-1.49t.95-1.04 1.41-.38q.83 0 1.42.41t.87 1.14.16 1.75h-4.17q.03.5.28.92.24.41.67.66.43.24 1 .24.46 0 .81-.11t.62-.34l.55.6q-.33.36-.86.55-.52.19-1.15.19m-.2-5.17q-.72 0-1.17.45-.45.46-.54 1.22h3.24q-.01-.8-.43-1.23-.42-.44-1.1-.44m5.39 5.05q-.71 0-1.13-.4-.43-.4-.43-1.08v-6.45h-1.05v-.83h2.02v7.3q0 .27.18.45t.46.18h.55v.83zm3.91.12q-.79 0-1.4-.37t-.96-1.05-.35-1.56v-.1q0-.87.36-1.53.35-.66.96-1.03t1.39-.37q.65 0 1.16.28t.85.77v-3.92h.97v8.76H85V63.4q-.34.55-.88.85-.54.31-1.22.31m.14-.86q.56 0 .99-.27.43-.26.69-.74t.25-1.13-.25-1.13q-.26-.49-.69-.75-.43-.27-.99-.27-.81 0-1.34.57-.54.56-.54 1.5v.1q0 .64.25 1.12t.67.74.96.26m9.19 2.64q-1.45 0-2.56-.62t-1.74-1.75q-.62-1.14-.62-2.69 0-1.14.36-2.06t1.02-1.59q.67-.67 1.58-1.03t2.01-.36q1.4 0 2.47.58t1.67 1.61.6 2.41q0 1.34-.57 2.1t-1.46.76q-.52 0-.91-.26-.4-.26-.57-.73-.24.47-.65.73-.4.26-.97.26-.6 0-1.07-.3-.46-.29-.73-.81-.27-.53-.27-1.22 0-.71.27-1.23t.73-.81 1.06-.29q.52 0 .9.2t.62.59v-.71h.77v2.81q0 .49.27.76.26.26.61.26.49 0 .84-.52t.35-1.51q0-1.17-.51-2.07-.5-.9-1.39-1.41t-2.06-.5q-1.23 0-2.17.54T88.63 59q-.53.98-.53 2.27 0 1.33.52 2.31.52.97 1.45 1.5.92.54 2.15.54.79 0 1.45-.25t1.23-.7l.34.63q-.62.5-1.37.77-.74.27-1.64.27M92 62.96q.62 0 1-.43t.38-1.16T93 60.2t-1-.43-1.01.44q-.38.44-.38 1.16t.38 1.16q.39.43 1.01.43m8.09 1.59q-.64 0-1.2-.2t-.9-.51l.43-.67q.32.27.77.44.44.17.9.17.54 0 .87-.25.34-.24.34-.64 0-.33-.23-.52t-.57-.29l-.75-.2q-.39-.1-.75-.27-.35-.17-.57-.48-.23-.31-.23-.85 0-.76.57-1.25.57-.48 1.53-.48.54 0 1.03.16t.85.43l-.44.67q-.31-.23-.67-.36t-.78-.13q-.51 0-.84.24-.32.25-.32.64 0 .34.23.52.22.18.58.29.35.11.75.21t.77.27.58.5q.22.31.22.85 0 .51-.28.89-.27.39-.76.6-.5.22-1.13.22m5.7.01q-.96 0-1.6-.57-.63-.57-.63-1.81v-3.51h.97v3.35q0 .92.41 1.29.42.36 1.04.36.65 0 1.12-.43t.48-1.31v-3.26h.96v5.77h-.87v-.86q-.36.56-.89.77-.54.21-.99.21m6.14-.01q-.63 0-1.19-.2t-.91-.51l.43-.67q.33.27.77.44.45.17.9.17.54 0 .88-.25.33-.24.33-.64 0-.33-.22-.52-.23-.19-.58-.29l-.74-.2q-.4-.1-.75-.27-.36-.17-.58-.48t-.22-.85q0-.76.57-1.25.57-.48 1.53-.48.54 0 1.02.16.49.16.85.43l-.43.67q-.31-.23-.68-.36t-.77-.13q-.52 0-.84.24-.33.25-.33.64 0 .34.23.52t.58.29q.36.11.76.21t.76.27.58.5q.22.31.22.85 0 .51-.27.89-.28.39-.77.6-.49.22-1.13.22m6.05.01q-.85 0-1.51-.38-.65-.38-1.02-1.05-.36-.67-.36-1.55v-.12q0-.84.33-1.49.34-.65.95-1.04.61-.38 1.42-.38.83 0 1.41.41.59.4.87 1.14t.17 1.75h-4.18q.04.5.28.92.25.41.67.66.43.24 1.01.24.45 0 .81-.11.35-.1.61-.34l.56.6q-.34.36-.86.55t-1.16.19m-.19-5.17q-.72 0-1.17.45-.45.46-.55 1.22h3.24q-.01-.8-.43-1.23-.42-.44-1.09-.44m3.66 5.05v-1.32h1.17v1.32zm5.21.12q-.86 0-1.53-.37t-1.05-1.04-.38-1.53v-.14q0-.87.39-1.53.38-.66 1.05-1.03.66-.37 1.52-.37.63 0 1.15.23.53.24.89.66l-.6.6q-.56-.59-1.44-.59-.58 0-1.03.25t-.71.71-.26 1.07v.14q0 .61.27 1.07.26.47.71.72t1.03.25q.87 0 1.45-.58l.59.59q-.35.42-.88.66-.54.23-1.17.23m5.61 0q-.83 0-1.47-.38-.65-.38-1.02-1.05-.38-.67-.38-1.55v-.1q0-.86.38-1.52.37-.67 1.02-1.04.64-.37 1.47-.37t1.48.37 1.02 1.03.37 1.5v.13q0 .88-.37 1.55t-1.02 1.05-1.48.38m0-.86q.57 0 .99-.27t.67-.75.24-1.1v-.13q0-.9-.53-1.47t-1.37-.57q-.55 0-.98.27-.43.26-.68.73t-.25 1.07v.1q0 .63.25 1.1t.68.75.98.27m4.29.74v-5.77h.92v.91q.34-.59.85-.81t.99-.22q.62 0 1.09.27.48.28.72.86.25-.44.59-.68t.71-.35.69-.1q.94 0 1.52.6.59.61.59 1.86v3.43h-.95v-3.31q0-.89-.38-1.29t-1.01-.4q-.65 0-1.08.43-.43.44-.43 1.26v3.31h-.96v-3.31q0-.89-.38-1.29t-1-.4q-.65 0-1.09.43-.43.44-.43 1.26v3.31zM19.69 83.63v-7.46h-2.53v-.94h6.12v.94h-2.56v7.46zm3.67-4.45v-1.32h1.2v1.32zm0 4.45v-1.32h1.2v1.32zm11.11-1.42v-2.38H32.1v-.81h2.37v-2.39h.83v2.39h2.38v.81H35.3v2.38zm5.07 1.42v-.94h2.2v-5.92q0-.27-.16-.44t-.42-.16h-1.6v-.94h1.85q.59 0 .96.38t.37.95v6.13h2.18v.94zm9.49-2.04v-.84l2.79-5.52h1.04l-2.73 5.45h2.77v-2.26h.99v2.26h1.32v.91h-1.32v2.04h-.99v-2.04zm7.7 2.04v-.94h2.21v-5.92q0-.27-.16-.44t-.43-.16h-1.59v-.94h1.84q.59 0 .96.38.38.38.38.95v6.13h2.18v.94zm9.51.12q-.88 0-1.55-.29-.66-.3-1.12-.74l.58-.69q.36.35.88.6.52.26 1.22.26.95 0 1.5-.52t.55-1.39q0-.77-.44-1.26-.45-.48-1.28-.48-.62 0-1.05.3t-.63.79h-.82l.13-3.9q.01-.53.38-.86.37-.34.91-.34h3.4v.91h-3.2q-.22 0-.38.13-.16.14-.18.35l-.09 2.43q.29-.32.72-.5.44-.19 1.02-.19.77 0 1.33.33.56.32.87.9t.31 1.34q0 .89-.39 1.52t-1.09.96-1.58.34m9.99 0q-.87 0-1.54-.29-.67-.3-1.12-.74l.57-.69q.36.35.89.6.52.26 1.21.26.95 0 1.5-.52.56-.52.56-1.39 0-.77-.45-1.26-.44-.48-1.27-.48-.62 0-1.06.3-.43.3-.62.79h-.83l.13-3.9q.02-.53.39-.86.37-.34.91-.34h3.4v.91h-3.21q-.21 0-.38.13-.16.14-.17.35l-.1 2.43q.29-.32.73-.5.44-.19 1.01-.19.77 0 1.34.33.56.32.87.9t.3 1.34q0 .89-.39 1.52t-1.08.96-1.59.34m7.2 0q-.87 0-1.54-.29-.67-.3-1.12-.74l.57-.69q.36.35.89.6.52.26 1.21.26.95 0 1.5-.52.56-.52.56-1.39 0-.77-.45-1.26-.44-.48-1.27-.48-.62 0-1.06.3-.43.3-.62.79h-.83l.13-3.9q.02-.53.39-.86.37-.34.91-.34h3.4v.91h-3.21q-.21 0-.38.13-.16.14-.17.35l-.1 2.43q.29-.32.73-.5.44-.19 1.01-.19.77 0 1.34.33.56.32.87.9t.3 1.34q0 .89-.39 1.52t-1.08.96q-.7.34-1.59.34m7.2 0q-.87 0-1.54-.29-.67-.3-1.12-.74l.57-.69q.36.35.89.6.52.26 1.21.26.95 0 1.5-.52.56-.52.56-1.39 0-.77-.45-1.26-.44-.48-1.27-.48-.62 0-1.06.3-.43.3-.62.79h-.83l.13-3.9q.02-.53.39-.86.37-.34.91-.34h3.4v.91h-3.21q-.21 0-.38.13-.16.14-.17.35l-.1 2.43q.29-.32.73-.5.44-.19 1.01-.19.77 0 1.34.33.56.32.87.9t.3 1.34q0 .89-.39 1.52t-1.08.96-1.59.34m10.24 0q-1.43 0-2.25-1.14-.81-1.14-.81-3.17 0-1.35.36-2.33.37-.97 1.05-1.48.69-.52 1.65-.52.95 0 1.64.52.69.51 1.05 1.48.37.98.37 2.33 0 2.03-.82 3.17t-2.24 1.14m0-.92q.96 0 1.5-.89.54-.88.54-2.5t-.54-2.52-1.5-.89-1.5.89-.54 2.52q0 1.62.54 2.5.54.89 1.5.89m4.65.8v-.94h2.21v-5.92q0-.27-.16-.44t-.43-.16h-1.59v-.94h1.85q.58 0 .96.38.37.38.37.95v6.13h2.18v.94zm6.7-2.04v-.84l2.8-5.52h1.03l-2.73 5.45h2.78v-2.26h.98v2.26h1.32v.91h-1.32v2.04h-.98v-2.04zm7.46 2.04v-.76l3.1-3.12q.65-.66.88-1.14.22-.49.22-.94 0-.75-.43-1.17-.44-.43-1.19-.43-.57 0-1.08.32-.5.32-.88.89l-.66-.63q.45-.71 1.15-1.13.69-.41 1.51-.41.79 0 1.38.31.59.3.91.86t.33 1.29q0 .61-.3 1.27-.29.66-1.13 1.5l-2.34 2.37h4.1v.92zM18.04 102.81v-8.4h1.37l2.43 5.03 2.41-5.03h1.37v8.4h-1v-7.08l-2.39 5.08h-.8l-2.38-5.08v7.08zm9.33-4.45v-1.32h1.2v1.32zm0 4.45v-1.32h1.2v1.32zm11.1-1.42v-2.38H36.1v-.81h2.37v-2.39h.83v2.39h2.38v.81H39.3v2.38zm5.07 1.42v-.94h2.2v-5.92q0-.27-.16-.44t-.42-.16h-1.6v-.94h1.85q.59 0 .96.38t.37.95v6.13h2.18v.94zm9.49-2.04v-.84l2.79-5.52h1.04l-2.73 5.45h2.77V97.6h.99v2.26h1.32v.91h-1.32v2.04h-.99v-2.04zm7.7 2.04v-.94h2.21v-5.92q0-.27-.16-.44t-.43-.16h-1.59v-.94h1.84q.59 0 .96.38.38.38.38.95v6.13h2.18v.94zm9.51.12q-.88 0-1.55-.29-.66-.3-1.12-.74l.58-.69q.36.35.88.6.52.26 1.22.26.95 0 1.5-.52t.55-1.39q0-.77-.44-1.26-.45-.48-1.28-.48-.62 0-1.05.3t-.63.79h-.82l.13-3.9q.01-.53.38-.86.37-.34.91-.34h3.4v.91h-3.2q-.22 0-.38.13-.16.14-.18.35l-.09 2.43q.29-.32.72-.5.44-.19 1.02-.19.77 0 1.33.33.56.32.87.9t.31 1.34q0 .89-.39 1.52t-1.09.96-1.58.34m9.99 0q-.87 0-1.54-.29-.67-.3-1.12-.74l.57-.69q.36.35.89.6.52.26 1.21.26.95 0 1.5-.52.56-.52.56-1.39 0-.77-.45-1.26-.44-.48-1.27-.48-.62 0-1.06.3-.43.3-.62.79h-.83l.13-3.9q.02-.53.39-.86.37-.34.91-.34h3.4v.91h-3.21q-.21 0-.38.13-.16.14-.17.35l-.1 2.43q.29-.32.73-.5.44-.19 1.01-.19.77 0 1.34.33.56.32.87.9t.3 1.34q0 .89-.39 1.52t-1.08.96-1.59.34m7.2 0q-.87 0-1.54-.29-.67-.3-1.12-.74l.57-.69q.36.35.89.6.52.26 1.21.26.95 0 1.5-.52.56-.52.56-1.39 0-.77-.45-1.26-.44-.48-1.27-.48-.62 0-1.06.3-.43.3-.62.79h-.83l.13-3.9q.02-.53.39-.86.37-.34.91-.34h3.4v.91h-3.21q-.21 0-.38.13-.16.14-.17.35l-.1 2.43q.29-.32.73-.5.44-.19 1.01-.19.77 0 1.34.33.56.32.87.9t.3 1.34q0 .89-.39 1.52t-1.08.96q-.7.34-1.59.34m7.2 0q-.87 0-1.54-.29-.67-.3-1.12-.74l.57-.69q.36.35.89.6.52.26 1.21.26.95 0 1.5-.52.56-.52.56-1.39 0-.77-.45-1.26-.44-.48-1.27-.48-.62 0-1.06.3-.43.3-.62.79h-.83l.13-3.9q.02-.53.39-.86.37-.34.91-.34h3.4v.91h-3.21q-.21 0-.38.13-.16.14-.17.35l-.1 2.43q.29-.32.73-.5.44-.19 1.01-.19.77 0 1.34.33.56.32.87.9t.3 1.34q0 .89-.39 1.52t-1.08.96-1.59.34m10.24 0q-1.43 0-2.25-1.14-.81-1.14-.81-3.17 0-1.35.36-2.33.37-.97 1.05-1.48.69-.52 1.65-.52.95 0 1.64.52.69.51 1.05 1.48.37.98.37 2.33 0 2.03-.82 3.17t-2.24 1.14m0-.92q.96 0 1.5-.89.54-.88.54-2.5t-.54-2.52-1.5-.89-1.5.89-.54 2.52q0 1.62.54 2.5.54.89 1.5.89m4.65.8v-.94h2.21v-5.92q0-.27-.16-.44t-.43-.16h-1.59v-.94h1.85q.58 0 .96.38.37.38.37.95v6.13h2.18v.94zm8.15 0 2.33-3.16q-.47.2-1.01.2-.8 0-1.42-.36-.62-.35-.97-.98-.34-.62-.34-1.42 0-.84.37-1.47t1.04-.98q.66-.35 1.53-.35.9 0 1.56.35t1.02.98.36 1.51q0 .57-.21 1.11t-.57 1.07l-2.45 3.5zm1.51-3.82q.87 0 1.4-.53.54-.53.54-1.39t-.53-1.37q-.52-.52-1.38-.52-.84 0-1.38.53-.54.52-.54 1.36t.53 1.38q.54.54 1.36.54m5.69 3.82 2.33-3.16q-.47.2-1.01.2-.8 0-1.42-.36-.62-.35-.97-.98-.34-.62-.34-1.42 0-.84.37-1.47t1.04-.98q.66-.35 1.53-.35.9 0 1.56.35t1.02.98.36 1.51q0 .57-.21 1.11t-.57 1.07l-2.45 3.5zm1.51-3.82q.87 0 1.4-.53.54-.53.54-1.39t-.53-1.37-1.38-.52-1.38.53q-.54.52-.54 1.36t.53 1.38q.54.54 1.36.54M17.97 125v-.86h2.02v-5.43q0-.24-.15-.4-.14-.15-.39-.15h-1.46v-.86h1.69q.54 0 .88.35.35.34.35.87v5.62h2v.86zm8.62 0v-.86h1.35v-5.98h-1.35v-.86h3.67v.86h-1.37v5.98h1.37v.86zm4.76 0v-5.29h.86v.85q.32-.55.82-.76t.93-.2q.89 0 1.45.58.55.57.55 1.71V125h-.89v-2.98q0-.85-.38-1.23t-.96-.38q-.6 0-1.04.42-.44.41-.44 1.2V125zm6.19 0v-5.29h.86v.85q.31-.55.81-.76.51-.2.93-.2.9 0 1.45.58.56.57.56 1.71V125h-.89v-2.98q0-.85-.38-1.23t-.97-.38q-.6 0-1.04.42-.44.41-.44 1.2V125zm8.46.11q-.76 0-1.36-.35-.59-.34-.93-.96t-.34-1.42v-.1q0-.78.34-1.39t.93-.95 1.36-.34 1.35.34.93.94.34 1.38v.12q0 .81-.34 1.42-.34.62-.93.96-.59.35-1.35.35m0-.79q.51 0 .9-.25t.61-.68.22-1.01v-.12q0-.82-.48-1.35-.48-.52-1.25-.52-.51 0-.91.24-.39.25-.62.67t-.22.98v.1q0 .57.22 1.01.23.43.62.68.4.25.91.25m5.22.68-2.1-5.29h.92l1.65 4.25 1.64-4.25h.93L52.17 125zm5.49.11q-.9 0-1.45-.44t-.54-1.14q0-.47.27-.83.28-.36.76-.58t1.07-.21q.87 0 1.39.36v-.66q0-.65-.34-.93t-.91-.28q-.43 0-.87.16-.45.16-.77.49l-.41-.63q.35-.4.92-.61t1.18-.21q.93 0 1.5.49.58.5.58 1.48v1.69q0 .88.03 1.74h-.79l-.01-.53q-.5.64-1.61.64m.23-.67q.61 0 .94-.25.34-.26.34-.66t-.34-.66q-.33-.25-.95-.25t-.96.25q-.35.25-.35.66 0 .39.36.65t.96.26m5.48.56q-.36 0-.7-.14-.33-.13-.55-.44-.21-.31-.21-.83v-3.11H60v-.77h.96v-1.31h.88v1.31h1.39v.77h-1.39v3.17q0 .25.17.42t.42.17h.8v.76zm2.42 0v-4.52h-1.03v-.77h1.91V125zm-.06-6.46v-1.27h.99v1.27zm4.88 6.57q-.76 0-1.36-.35-.59-.34-.93-.96t-.34-1.42v-.1q0-.78.34-1.39t.93-.95 1.36-.34 1.35.34.94.94q.34.6.34 1.38v.12q0 .81-.34 1.42-.35.62-.94.96-.59.35-1.35.35m0-.79q.51 0 .9-.25.4-.25.62-.68t.22-1.01v-.12q0-.82-.49-1.35-.48-.52-1.25-.52-.51 0-.9.24-.4.25-.63.67t-.22.98v.1q0 .57.22 1.01.23.43.63.68.39.25.9.25m3.92.68v-5.29h.86v.85q.32-.55.82-.76t.93-.2q.89 0 1.45.58.55.57.55 1.71V125h-.89v-2.98q0-.85-.38-1.23t-.96-.38q-.6 0-1.04.42-.45.41-.45 1.2V125zm10.23 0-2.26-7.7h.96l1.79 6.33 1.97-6.33h1.03l1.97 6.34 1.79-6.34h.95l-2.26 7.7h-.96l-2.01-6.52-2 6.52zm10.29.11q-.9 0-1.45-.44t-.54-1.14q0-.47.27-.83.28-.36.76-.58.47-.21 1.07-.21.87 0 1.39.36v-.66q0-.65-.34-.93t-.91-.28q-.43 0-.87.16-.45.16-.77.49l-.41-.63q.35-.4.92-.61t1.18-.21q.93 0 1.5.49.57.5.57 1.48v1.69q0 .88.04 1.74h-.79l-.01-.53q-.5.64-1.61.64m.23-.67q.61 0 .94-.25.34-.26.34-.66t-.34-.66q-.33-.25-.95-.25t-.96.25q-.35.25-.35.66 0 .39.36.65.35.26.96.26m3.08 2.76v-.76h1.06q.23 0 .36-.16.14-.16.23-.38l.39-.85-2.18-5.34h.98l1.67 4.26 1.59-4.26h.98l-2.53 6.23q-.12.3-.3.59t-.47.48-.77.19zm-79.45 14.3v-7.7h2.38q1.16 0 1.87.61t.71 1.71-.71 1.7-1.87.61h-1.45v3.07zm2.43-6.89h-1.5v3.03h1.5q.71 0 1.16-.41.44-.42.44-1.11t-.44-1.1-1.16-.41m3.58 6.89v-5.29h.86v.85q.2-.51.59-.69t.88-.18h.45v.88h-.52q-.65 0-1.01.32t-.36.98v3.13zm5.83.11q-.75 0-1.35-.35-.59-.34-.93-.96t-.35-1.42v-.1q0-.78.35-1.39t.93-.95q.6-.34 1.35-.34t1.36.34q.59.34.93.94t.34 1.38v.12q0 .81-.34 1.42-.34.62-.93.96-.6.35-1.36.35m0-.79q.52 0 .91-.25t.61-.68.22-1.01v-.12q0-.82-.48-1.35-.49-.52-1.26-.52-.5 0-.9.24-.39.25-.62.67t-.22.98v.1q0 .57.22 1.01.23.43.62.68.4.25.9.25m5.23.68-2.1-5.29h.92l1.65 4.25 1.64-4.25h.93l-2.1 5.29zm6.17.11q-.76 0-1.35-.35t-.94-.96-.34-1.42v-.1q0-.78.34-1.39t.94-.95 1.35-.34 1.35.34.94.94.34 1.38v.12q0 .81-.34 1.42-.34.62-.94.96-.59.35-1.35.35m0-.79q.52 0 .91-.25t.61-.68.22-1.01v-.12q0-.82-.49-1.35-.48-.52-1.25-.52-.51 0-.9.24-.4.25-.62.67-.23.43-.23.98v.1q0 .57.23 1.01.22.43.62.68.39.25.9.25m3.53.68v-1.21h1.12v1.98q0 .47-.27.65t-.59.19h-.32v-.54h.32q.15 0 .22-.09t.07-.22v-.76zm7.75.13q-1.31 0-2.09-.7-.79-.69-.79-2.04v-5.09h.94v5.03q0 .93.53 1.43t1.41.5 1.4-.5.53-1.43v-5.03h.94v5.09q0 1.35-.78 2.04-.79.7-2.09.7m6.23-.13v-6.84h-2.32v-.86H62v.86h-2.34v6.84zm8.94.11q-.83 0-1.46-.27-.62-.28-.98-.77-.35-.5-.35-1.17 0-.7.4-1.21t1.1-.73q-.57-.22-.89-.68t-.32-1.08q0-.6.31-1.05.3-.45.87-.71t1.32-.25q.76 0 1.33.25.57.26.88.71.3.45.3 1.05t-.32 1.08q-.31.46-.89.68.7.22 1.1.73t.4 1.21q0 .66-.35 1.16t-.98.78-1.47.27m0-4.48q.73 0 1.17-.35.43-.36.43-.96 0-.59-.43-.95-.44-.35-1.17-.35-.72 0-1.16.35-.43.36-.43.95 0 .6.43.96.44.35 1.16.35m0 3.67q.82 0 1.33-.42.51-.41.51-1.07t-.51-1.05-1.33-.39q-.8 0-1.32.39-.51.39-.51 1.05t.51 1.07q.51.42 1.32.42m3.81-1.17v-.77l2.56-5.06h.95l-2.5 4.99h2.54v-2.06h.91v2.06h1.21v.84h-1.21v1.87h-.91v-1.87zm9.46 1.98q-.82 0-1.43-.32-.6-.32-.93-.91-.33-.58-.33-1.38 0-.51.19-1.01.19-.49.52-.98l2.25-3.21h1.13l-2.14 2.89q.43-.17.93-.17.74 0 1.3.32.57.33.89.9t.32 1.31q0 .77-.35 1.34t-.95.9q-.61.32-1.4.32m-.01-.81q.77 0 1.27-.49.49-.48.49-1.25t-.49-1.27-1.25-.49q-.8 0-1.28.49-.49.49-.49 1.27t.48 1.26 1.27.48m6.55.81q-1.31 0-2.06-1.04-.75-1.05-.75-2.91 0-1.24.34-2.13.33-.89.96-1.37.63-.47 1.51-.47.86 0 1.5.47.63.48.96 1.37.34.89.34 2.13 0 1.86-.75 2.91-.75 1.04-2.05 1.04m0-.85q.87 0 1.37-.81.5-.8.5-2.29t-.5-2.31q-.5-.81-1.37-.81t-1.38.81-.5 2.31.5 2.29q.5.81 1.38.81m3.8-1.13v-.77l2.56-5.06h.95l-2.5 4.99h2.54v-2.06h.91v2.06h1.21v.84h-1.21v1.87h-.91v-1.87zM0 160.5h165.75v1H0zm111.98 29.52v-12.65h1.11v12.65zm11.64-1.92q-.59 0-1.1-.18t-.83-.47l.4-.62q.3.26.7.41.41.16.83.16.49 0 .8-.23t.31-.59q0-.31-.21-.48t-.53-.26l-.68-.19q-.36-.09-.69-.25-.32-.15-.53-.44-.2-.28-.2-.78 0-.69.52-1.14.53-.44 1.41-.44.49 0 .94.15t.77.39l-.39.61q-.29-.2-.63-.33-.33-.12-.71-.12-.47 0-.77.23-.29.22-.29.59 0 .31.21.47.21.17.53.26l.69.2q.37.09.7.25t.54.45.2.79q0 .46-.25.81-.26.35-.71.55t-1.03.2m5.22.01q-.88 0-1.46-.52t-.58-1.66v-3.22h.89v3.07q0 .85.38 1.18.38.34.95.34.59 0 1.03-.4.43-.4.43-1.2v-2.99h.88V188h-.79v-.79q-.33.52-.82.71t-.91.19m5.64-.01q-.59 0-1.1-.18t-.83-.47l.4-.62q.29.26.7.41.41.16.83.16.49 0 .8-.23t.31-.59q0-.31-.21-.48t-.53-.26l-.68-.19q-.37-.09-.69-.25-.32-.15-.53-.44-.2-.28-.2-.78 0-.69.52-1.14t1.4-.44q.5 0 .94.15.45.15.78.39l-.4.61q-.28-.2-.62-.33-.33-.12-.71-.12-.47 0-.77.23-.3.22-.3.59 0 .31.21.47.21.17.54.26l.69.2q.37.09.7.25t.53.45.21.79q0 .46-.26.81-.25.35-.7.55t-1.03.2m5.54.01q-.78 0-1.38-.35t-.94-.96-.33-1.42v-.11q0-.77.31-1.37.3-.6.87-.95.56-.35 1.29-.35.76 0 1.3.37.54.38.8 1.05.26.68.15 1.6h-3.83q.03.47.26.85.22.38.61.6.39.23.92.23.42 0 .74-.1.33-.1.57-.32l.51.55q-.31.33-.79.5-.48.18-1.06.18m-.18-4.74q-.66 0-1.07.42t-.5 1.11h2.97q-.01-.73-.4-1.13-.38-.4-1-.4m3.36 4.63v-1.21h1.08V188zm4.77.11q-.78 0-1.4-.34t-.96-.95-.34-1.4v-.14q0-.79.35-1.39.35-.61.96-.95t1.39-.34q.59 0 1.06.21.48.22.81.6l-.55.55q-.5-.54-1.32-.54-.53 0-.94.24t-.65.64q-.23.42-.23.98v.14q0 .56.24.98t.65.65.94.24q.81 0 1.33-.53l.54.54q-.32.38-.81.6-.48.21-1.07.21m5.15 0q-.76 0-1.35-.35t-.94-.96-.34-1.42v-.1q0-.78.34-1.39t.94-.95 1.35-.34 1.35.34.94.94.34 1.38v.12q0 .81-.34 1.42-.34.62-.94.96-.59.35-1.35.35m0-.79q.52 0 .91-.25t.61-.68.22-1.01v-.12q0-.82-.49-1.35-.48-.52-1.25-.52-.51 0-.9.24-.4.25-.62.67-.23.43-.23.98v.1q0 .57.23 1.01.22.43.62.68.39.25.9.25m3.93.68v-5.29h.84v.84q.31-.54.78-.75t.91-.2q.57 0 1 .25.44.26.66.78.23-.39.54-.62t.65-.32.63-.09q.86 0 1.4.55.54.56.54 1.7V188h-.87v-3.04q0-.81-.35-1.18t-.92-.37q-.6 0-1 .4-.39.41-.39 1.15V188h-.88v-3.04q0-.81-.35-1.18t-.92-.37q-.59 0-.99.4t-.4 1.15V188z"/><path fill="#0c322c" fill-opacity=".08" d="M0 204.5h600v1H0z"/><path fill="#999" d="M2.24 226.5v-6.22H.13v-.78h5.1v.78H3.1v6.22zm3.8 0v-7.3h.78v3.26q.29-.5.75-.69.45-.18.84-.18.81 0 1.32.53.5.52.5 1.55v2.83h-.81v-2.71q0-.77-.34-1.11t-.88-.35-.95.38q-.4.37-.4 1.09v2.7zm5.92 0v-4.11h-.94v-.7h1.74v4.81zm-.05-5.87v-1.16h.9v1.16zm3.69 5.96q-.53 0-.99-.16-.47-.17-.76-.43l.36-.56q.27.23.64.37t.75.14q.45 0 .73-.2t.28-.54q0-.28-.19-.43-.19-.16-.48-.24l-.62-.18q-.33-.08-.62-.22-.3-.14-.48-.4-.19-.26-.19-.71 0-.63.48-1.03.47-.41 1.27-.41.45 0 .86.13.4.14.7.36l-.36.56q-.26-.19-.56-.3t-.65-.11q-.43 0-.7.2t-.27.54q0 .28.19.43t.49.24l.63.18q.33.08.63.23.3.14.49.41.18.26.18.71 0 .42-.23.74t-.64.5-.94.18m7.38.01q-.71 0-1.25-.31-.55-.32-.85-.88-.31-.56-.31-1.29v-.1q0-.7.28-1.24.28-.55.79-.87t1.18-.32q.69 0 1.18.34t.73.96q.23.61.13 1.45h-3.48q.03.42.24.77.2.34.56.55.35.2.83.2.38 0 .68-.09.29-.09.51-.29l.46.5q-.28.3-.71.46-.44.16-.97.16m-.16-4.31q-.6 0-.97.38-.38.38-.46 1.01h2.7q-.01-.66-.36-1.02-.35-.37-.91-.37m3.2 4.21v-4.81h.77v.76q.28-.49.71-.68.42-.18.82-.18.52 0 .92.23.39.23.59.71.21-.36.5-.56.28-.21.59-.29.3-.09.57-.09.78 0 1.27.51.49.5.49 1.54v2.86h-.79v-2.76q0-.74-.32-1.07t-.84-.34q-.54 0-.9.37-.36.36-.36 1.04v2.76h-.8v-2.76q0-.74-.31-1.07-.32-.34-.84-.34-.54 0-.9.37-.37.36-.37 1.04v2.76zm10.1.1q-.82 0-1.31-.4t-.5-1.04q0-.42.25-.75t.68-.52.98-.2q.79 0 1.26.33v-.6q0-.59-.3-.84-.31-.26-.83-.26-.39 0-.79.15t-.7.44l-.38-.57q.32-.37.84-.56t1.07-.19q.85 0 1.37.45t.52 1.34v1.54q0 .8.03 1.58h-.72l-.01-.48q-.45.58-1.46.58m.21-.61q.55 0 .86-.23t.3-.6-.3-.59q-.31-.23-.87-.23-.55 0-.87.23-.32.22-.32.59 0 .36.33.6.32.23.87.23m3.71.51v-4.11h-.94v-.7h1.74v4.81zm-.05-5.87v-1.16h.9v1.16zm3.66 5.87q-.59 0-.94-.33-.36-.34-.36-.9v-5.38h-.88v-.69h1.69v6.08q0 .23.15.38t.38.15h.46v.69zm5.08.1q-.82 0-1.31-.4t-.5-1.04q0-.42.25-.75t.69-.52.97-.2q.79 0 1.26.33v-.6q0-.59-.3-.84-.31-.26-.83-.26-.39 0-.79.15t-.7.44l-.38-.57q.32-.37.84-.56t1.07-.19q.85 0 1.37.45t.52 1.34v1.54q0 .8.03 1.58h-.72l-.01-.48q-.45.58-1.46.58m.21-.61q.55 0 .86-.23t.3-.6-.3-.59q-.31-.23-.87-.23-.55 0-.87.23-.32.22-.32.59 0 .36.33.6.32.23.87.23m3.4.51v-4.81h.78v.77q.29-.5.75-.69.45-.18.84-.18.81 0 1.32.53.5.52.5 1.55v2.83h-.81v-2.71q0-.77-.34-1.11t-.88-.35-.95.38q-.4.37-.4 1.09v2.7zm7.56.1q-.66 0-1.17-.31t-.8-.87-.29-1.3v-.09q0-.72.3-1.27.29-.55.8-.86t1.16-.31q.54 0 .97.24t.7.64v-3.27h.81v7.3h-.73v-.87q-.29.46-.74.72t-1.01.25m.11-.72q.47 0 .83-.22t.57-.62.21-.94-.21-.94-.57-.63-.83-.22q-.67 0-1.11.47t-.45 1.25v.09q0 .53.21.93t.55.62.8.21m7.64.72q-.82 0-1.31-.4t-.5-1.04q0-.42.25-.75t.69-.52.97-.2q.79 0 1.26.33v-.6q0-.59-.3-.84-.31-.26-.83-.26-.39 0-.79.15t-.7.44l-.38-.57q.32-.37.84-.56t1.07-.19q.85 0 1.37.45t.52 1.34v1.54q0 .8.03 1.58h-.72l-.01-.48q-.45.58-1.46.58m.21-.61q.55 0 .86-.23t.3-.6q0-.37-.3-.59-.31-.23-.87-.23-.55 0-.87.23-.32.22-.32.59 0 .36.33.6.32.23.87.23m3.4.51v-4.81h.78v.77q.29-.5.75-.69.45-.18.84-.18.81 0 1.32.53.5.52.5 1.55v2.83h-.81v-2.71q0-.77-.34-1.11t-.88-.35q-.55 0-.95.38-.4.37-.4 1.09v2.7zm5.01 2v-.69h.96q.21 0 .34-.14.12-.15.2-.35l.35-.77-1.98-4.86h.89l1.52 3.87 1.45-3.87h.89l-2.3 5.66q-.11.28-.27.54t-.43.44q-.27.17-.7.17zm9.07-1.9q-.82 0-1.31-.4t-.5-1.04q0-.42.25-.75t.69-.52.97-.2q.79 0 1.26.33v-.6q0-.59-.3-.84-.31-.26-.83-.26-.39 0-.79.15t-.7.44l-.38-.57q.32-.37.84-.56t1.07-.19q.85 0 1.37.45t.52 1.34v1.54q0 .8.03 1.58h-.72l-.01-.48q-.45.58-1.46.58m.21-.61q.55 0 .86-.23t.3-.6q0-.37-.3-.59-.31-.23-.87-.23-.55 0-.87.23-.32.22-.32.59 0 .36.33.6.32.23.87.23m4.98.51q-.33 0-.63-.12-.31-.13-.5-.41-.2-.28-.2-.75v-2.83h-.87v-.7h.87v-1.19h.8v1.19h1.27v.7H90v2.88q0 .23.16.39.15.15.38.15h.73v.69zm3.46 0q-.33 0-.63-.12-.31-.13-.5-.41-.2-.28-.2-.75v-2.83h-.87v-.7h.87v-1.19h.8v1.19h1.27v.7h-1.27v2.88q0 .23.16.39.15.15.38.15h.73v.69zm3.26.1q-.82 0-1.31-.4t-.5-1.04q0-.42.25-.75t.69-.52.97-.2q.79 0 1.26.33v-.6q0-.59-.3-.84-.31-.26-.83-.26-.39 0-.79.15t-.7.44l-.38-.57q.32-.37.84-.56t1.07-.19q.85 0 1.37.45t.52 1.34v1.54q0 .8.03 1.58h-.72l-.01-.48q-.45.58-1.46.58m.21-.61q.55 0 .86-.23t.3-.6-.3-.59q-.31-.23-.87-.23-.55 0-.87.23-.32.22-.32.59 0 .36.33.6.32.23.87.23m5.54.61q-.71 0-1.27-.31t-.87-.86-.32-1.28v-.12q0-.72.32-1.27t.88-.86q.55-.31 1.26-.31.53 0 .97.2.43.19.73.54l-.5.5q-.46-.49-1.2-.49-.48 0-.85.21-.38.21-.59.59-.22.38-.22.89v.12q0 .51.22.9.22.38.6.59.37.21.85.21.73 0 1.21-.48l.49.49q-.29.35-.73.55-.45.19-.98.19m2.75-.1v-7.3h.78v3.26q.29-.5.75-.69.45-.18.84-.18.81 0 1.32.53.5.52.5 1.55v2.83h-.81v-2.71q0-.77-.34-1.11t-.88-.35q-.55 0-.95.38-.4.37-.4 1.09v2.7zm5.62 0v-4.81h.77v.76q.28-.49.71-.68.42-.18.82-.18.52 0 .92.23.39.23.59.71.21-.36.5-.56.28-.21.59-.29.3-.09.57-.09.78 0 1.27.51.49.5.49 1.54v2.86h-.79v-2.76q0-.74-.32-1.07t-.84-.34q-.54 0-.9.37-.36.36-.36 1.04v2.76h-.8v-2.76q0-.74-.31-1.07-.32-.34-.84-.34-.54 0-.9.37-.37.36-.37 1.04v2.76zm10.75.1q-.71 0-1.25-.31-.55-.32-.85-.88-.31-.56-.31-1.29v-.1q0-.7.28-1.24.28-.55.79-.87t1.18-.32q.69 0 1.18.34t.73.96.13 1.45h-3.48q.03.42.24.77.2.34.56.55.35.2.83.2.38 0 .68-.09.29-.09.51-.29l.46.5q-.28.3-.71.46-.44.16-.97.16m-.16-4.31q-.6 0-.97.38-.38.38-.46 1.01h2.7q-.01-.66-.36-1.02-.35-.37-.91-.37m3.2 4.21v-4.81h.78v.77q.29-.5.75-.69.45-.18.84-.18.81 0 1.32.53.5.52.5 1.55v2.83h-.81v-2.71q0-.77-.34-1.11t-.88-.35q-.55 0-.95.38-.4.37-.4 1.09v2.7zm7.19 0q-.33 0-.63-.12-.31-.13-.5-.41-.2-.28-.2-.75v-2.83h-.87v-.7h.87v-1.19h.8v1.19h1.27v.7h-1.27v2.88q0 .23.16.39.15.15.38.15h.73v.69zm3.15.09q-.53 0-.99-.16-.47-.17-.76-.43l.36-.56q.27.23.64.37t.75.14q.45 0 .73-.2t.28-.54q0-.28-.19-.43-.19-.16-.48-.24l-.62-.18q-.33-.08-.62-.22-.3-.14-.48-.4-.19-.26-.19-.71 0-.63.48-1.03.47-.41 1.27-.41.45 0 .86.13.4.14.7.36l-.36.56q-.26-.19-.56-.3t-.65-.11q-.43 0-.7.2t-.27.54q0 .28.19.43t.49.24l.63.18q.33.08.63.23.3.14.49.41.18.26.18.71 0 .42-.23.74t-.64.5-.94.18m5.29-.09v-4.81h.77v.76q.28-.49.71-.68.42-.18.82-.18.52 0 .92.23.39.23.59.71.21-.36.5-.56.28-.21.59-.29.3-.09.57-.09.78 0 1.27.51.49.5.49 1.54v2.86h-.79v-2.76q0-.74-.32-1.07t-.84-.34q-.54 0-.9.37-.36.36-.36 1.04v2.76h-.8v-2.76q0-.74-.31-1.07-.32-.34-.84-.34-.54 0-.9.37-.37.36-.37 1.04v2.76zm10.1.1q-.82 0-1.31-.4t-.5-1.04q0-.42.25-.75t.69-.52.97-.2q.79 0 1.26.33v-.6q0-.59-.3-.84-.31-.26-.83-.26-.39 0-.79.15t-.7.44l-.38-.57q.32-.37.84-.56t1.07-.19q.85 0 1.37.45t.52 1.34v1.54q0 .8.03 1.58h-.72l-.01-.48q-.45.58-1.46.58m.21-.61q.55 0 .86-.23t.3-.6-.3-.59q-.31-.23-.87-.23-.55 0-.87.23-.32.22-.32.59 0 .36.33.6.32.23.87.23m2.8 2.51v-.69h.96q.21 0 .34-.14.12-.15.2-.35l.35-.77-1.98-4.86h.89l1.52 3.87 1.45-3.87h.89l-2.3 5.66q-.11.28-.27.54t-.43.44q-.27.17-.7.17zm10.11-1.9q-.56 0-1.01-.25-.45-.26-.73-.71v.86h-.74v-7.3h.81v3.27q.28-.41.71-.64t.96-.24q.65 0 1.16.31t.81.86q.29.55.29 1.27v.09q0 .74-.29 1.3t-.8.87-1.17.31m-.12-.72q.45 0 .81-.21.35-.22.56-.62.2-.4.2-.93v-.09q0-.78-.44-1.25-.45-.47-1.13-.47-.46 0-.82.22t-.57.63-.21.94.21.94.57.62.82.22m5.65.72q-.71 0-1.25-.31-.55-.32-.85-.88-.31-.56-.31-1.29v-.1q0-.7.28-1.24.28-.55.79-.87t1.18-.32q.69 0 1.18.34t.73.96.13 1.45h-3.48q.03.42.24.77.2.34.56.55.35.2.83.2.38 0 .68-.09.29-.09.51-.29l.46.5q-.28.3-.71.46-.44.16-.97.16m-.16-4.31q-.6 0-.97.38-.38.38-.46 1.01h2.7q-.01-.66-.36-1.02-.35-.37-.91-.37m7.67 4.31q-.71 0-1.27-.31t-.87-.86-.32-1.28v-.12q0-.72.32-1.27t.88-.86 1.26-.31q.53 0 .97.2.43.19.73.54l-.5.5q-.46-.49-1.2-.49-.48 0-.85.21-.38.21-.59.59-.22.38-.22.89v.12q0 .51.22.9.22.38.6.59.37.21.85.21.73 0 1.21-.48l.49.49q-.29.35-.73.55-.45.19-.98.19m4.68 0q-.69 0-1.23-.31-.54-.32-.85-.88t-.31-1.29v-.09q0-.71.31-1.26.31-.56.85-.87t1.23-.31 1.23.31.85.86.31 1.25v.11q0 .73-.31 1.29t-.85.88-1.23.31m0-.72q.47 0 .83-.22.35-.23.55-.62.2-.4.2-.92v-.11q0-.75-.44-1.22-.44-.48-1.14-.48-.46 0-.82.22t-.56.61-.21.89v.09q0 .52.21.92.2.39.56.62t.82.22m3.57.62v-4.81h.78v.77q.29-.5.75-.69.45-.18.84-.18.81 0 1.32.53.5.52.5 1.55v2.83h-.81v-2.71q0-.77-.34-1.11t-.88-.35q-.55 0-.95.38-.4.37-.4 1.09v2.7zm5.88 0v-4.11h-.88v-.7h.88v-1.21q0-.59.38-.93.37-.35.97-.35h.9v.69h-.91q-.23 0-.38.15t-.15.38v1.27h3.1v4.81h-.81v-4.11h-2.29v4.11zm3.07-5.87v-1.16h.88v1.16zm4.28 5.97q-.66 0-1.17-.31t-.8-.87-.29-1.3v-.09q0-.72.3-1.27.29-.55.8-.86t1.16-.31q.54 0 .97.24t.7.64v-3.27h.81v7.3h-.73v-.87q-.29.46-.74.72t-1.01.25m.11-.72q.47 0 .83-.22t.57-.62.21-.94-.21-.94-.57-.63-.83-.22q-.67 0-1.11.47t-.45 1.25v.09q0 .53.21.93t.55.62.8.21m5.96.72q-.71 0-1.25-.31-.55-.32-.85-.88-.31-.56-.31-1.29v-.1q0-.7.28-1.24.28-.55.79-.87t1.18-.32q.69 0 1.18.34t.73.96.13 1.45H203q.03.42.24.77.2.34.56.55.35.2.83.2.38 0 .68-.09.29-.09.51-.29l.46.5q-.28.3-.71.46-.44.16-.97.16m-.16-4.31q-.6 0-.97.38-.38.38-.46 1.01h2.7q-.01-.66-.36-1.02-.35-.37-.91-.37m3.2 4.21v-4.81h.78v.77q.29-.5.75-.69.45-.18.84-.18.81 0 1.32.53.5.52.5 1.55v2.83h-.81v-2.71q0-.77-.34-1.11t-.88-.35q-.55 0-.95.38-.4.37-.4 1.09v2.7zm7.19 0q-.33 0-.63-.12-.31-.13-.5-.41-.2-.28-.2-.75v-2.83h-.87v-.7h.87v-1.19h.8v1.19h1.27v.7h-1.27v2.88q0 .23.16.39.15.15.38.15h.73v.69zm2.2 0v-4.11h-.94v-.7h1.74v4.81zm-.05-5.87v-1.16h.9v1.16zm3.8 5.97q-.82 0-1.31-.4t-.5-1.04q0-.42.25-.75t.69-.52.97-.2q.79 0 1.26.33v-.6q0-.59-.3-.84-.31-.26-.83-.26-.39 0-.79.15t-.7.44l-.38-.57q.32-.37.84-.56t1.07-.19q.85 0 1.37.45t.52 1.34v1.54q0 .8.03 1.58h-.72l-.01-.48q-.45.58-1.46.58m.21-.61q.55 0 .86-.23t.3-.6-.3-.59q-.31-.23-.87-.23-.55 0-.87.23-.32.22-.32.59 0 .36.33.6.32.23.87.23m4.69.51q-.59 0-.94-.33-.36-.34-.36-.9v-5.38h-.88v-.69h1.69v6.08q0 .23.15.38t.38.15h.46v.69zm5.08.1q-.82 0-1.31-.4t-.5-1.04q0-.42.25-.75t.69-.52.97-.2q.79 0 1.26.33v-.6q0-.59-.3-.84-.31-.26-.83-.26-.39 0-.79.15t-.7.44l-.38-.57q.32-.37.84-.56t1.07-.19q.85 0 1.37.45t.52 1.34v1.54q0 .8.03 1.58h-.72l-.01-.48q-.45.58-1.46.58m.21-.61q.55 0 .86-.23t.3-.6-.3-.59q-.31-.23-.87-.23-.55 0-.87.23-.32.22-.32.59 0 .36.33.6.32.23.87.23m3.4.51v-4.81h.78v.77q.29-.5.75-.69.45-.18.84-.18.81 0 1.32.53.5.52.5 1.55v2.83h-.81v-2.71q0-.77-.34-1.11t-.88-.35q-.55 0-.95.38-.4.37-.4 1.09v2.7zm7.56.1q-.66 0-1.17-.31t-.8-.87-.29-1.3v-.09q0-.72.3-1.27.29-.55.8-.86t1.16-.31q.54 0 .97.24t.7.64v-3.27h.81v7.3h-.73v-.87q-.29.46-.74.72t-1.01.25m.11-.72q.47 0 .83-.22t.57-.62.21-.94-.21-.94-.57-.63-.83-.22q-.67 0-1.11.47t-.45 1.25v.09q0 .53.21.93t.55.62.8.21m7.64.72q-.82 0-1.31-.4t-.5-1.04q0-.42.25-.75t.69-.52.97-.2q.79 0 1.26.33v-.6q0-.59-.3-.84-.31-.26-.83-.26-.39 0-.79.15t-.7.44l-.38-.57q.32-.37.84-.56t1.07-.19q.85 0 1.37.45t.52 1.34v1.54q0 .8.03 1.58h-.72l-.01-.48q-.45.58-1.46.58m.21-.61q.55 0 .86-.23t.3-.6-.3-.59q-.31-.23-.87-.23-.55 0-.87.23-.32.22-.32.59 0 .36.33.6.32.23.87.23m3.4.51v-4.81h.78v.77q.18-.46.54-.62.35-.17.79-.17h.41v.8h-.47q-.59 0-.91.29t-.33.89v2.85zm5.32.1q-.71 0-1.25-.31-.55-.32-.85-.88-.31-.56-.31-1.29v-.1q0-.7.28-1.24.28-.55.79-.87t1.18-.32q.69 0 1.18.34t.73.96.13 1.45h-3.48q.03.42.24.77.2.34.56.55.35.2.83.2.38 0 .68-.09.29-.09.51-.29l.46.5q-.28.3-.71.46-.44.16-.97.16m-.16-4.31q-.6 0-.97.38-.38.38-.46 1.01h2.7q-.01-.66-.36-1.02-.35-.37-.91-.37m5.82 4.21v-4.11h-.94v-.7h1.74v4.81zm-.05-5.87v-1.16h.9v1.16zm2.36 5.87v-4.81h.78v.77q.29-.5.75-.69.45-.18.84-.18.81 0 1.32.53.5.52.5 1.55v2.83h-.81v-2.71q0-.77-.34-1.11t-.88-.35-.95.38q-.4.37-.4 1.09v2.7zm7.19 0q-.33 0-.63-.12-.31-.13-.5-.41-.2-.28-.2-.75v-2.83h-.87v-.7h.87v-1.19h.8v1.19h1.27v.7h-1.27v2.88q0 .23.16.39.15.15.38.15h.73v.69zm3.76.1q-.71 0-1.25-.31-.55-.32-.85-.88-.31-.56-.31-1.29v-.1q0-.7.28-1.24.28-.55.79-.87t1.18-.32q.69 0 1.18.34t.73.96.13 1.45h-3.48q.03.42.24.77.2.34.56.55.35.2.83.2.38 0 .68-.09.29-.09.51-.29l.46.5q-.28.3-.71.46-.44.16-.97.16m-.16-4.31q-.6 0-.97.38-.38.38-.46 1.01h2.7q-.01-.66-.36-1.02-.35-.37-.91-.37m3.2 4.21v-4.81h.78v.77q.29-.5.75-.69.45-.18.84-.18.81 0 1.32.53.5.52.5 1.55v2.83h-.81v-2.71q0-.77-.34-1.11t-.88-.35-.95.38q-.4.37-.4 1.09v2.7zm7.56.1q-.66 0-1.17-.31t-.8-.87-.29-1.3v-.09q0-.72.3-1.27.29-.55.8-.86t1.16-.31q.54 0 .97.24t.7.64v-3.27h.81v7.3h-.73v-.87q-.29.46-.74.72t-1.01.25m.11-.72q.47 0 .83-.22t.57-.62.21-.94-.21-.94-.57-.63-.83-.22q-.67 0-1.11.47t-.45 1.25v.09q0 .53.21.93t.55.62.8.21m5.96.72q-.71 0-1.25-.31-.55-.32-.85-.88-.31-.56-.31-1.29v-.1q0-.7.28-1.24.28-.55.79-.87t1.18-.32q.69 0 1.18.34t.73.96.13 1.45h-3.48q.03.42.23.77.21.34.57.55.35.2.83.2.38 0 .68-.09.29-.09.51-.29l.46.5q-.28.3-.71.46-.44.16-.97.16m-.16-4.31q-.6 0-.97.38-.38.38-.46 1.01h2.7q-.01-.66-.36-1.02-.35-.37-.91-.37m5.14 4.31q-.66 0-1.17-.31t-.8-.87-.29-1.3v-.09q0-.72.3-1.27.29-.55.8-.86t1.16-.31q.54 0 .97.24t.7.64v-3.27h.81v7.3h-.73v-.87q-.29.46-.74.72t-1.01.25m.11-.72q.47 0 .83-.22t.57-.62.21-.94-.21-.94-.57-.63-.83-.22q-.67 0-1.11.47t-.45 1.25v.09q0 .53.21.93t.55.62.8.21m7.53.71q-.53 0-.99-.16-.47-.17-.76-.43l.36-.56q.27.23.64.37t.75.14q.45 0 .73-.2t.28-.54q0-.28-.19-.43-.19-.16-.48-.24l-.62-.18q-.33-.08-.62-.22-.3-.14-.48-.4-.19-.26-.19-.71 0-.63.48-1.03.47-.41 1.27-.41.45 0 .86.13.4.14.7.36l-.36.56q-.26-.19-.56-.3t-.65-.11q-.43 0-.7.2t-.27.54q0 .28.19.43t.49.24l.63.18q.33.08.63.23.3.14.49.41.18.26.18.71 0 .42-.23.74t-.64.5-.94.18m5.02.01q-.69 0-1.23-.31-.54-.32-.85-.88t-.31-1.29v-.09q0-.71.31-1.26.31-.56.85-.87t1.23-.31 1.23.31.85.86.31 1.25v.11q0 .73-.31 1.29t-.85.88-1.23.31m0-.72q.47 0 .83-.22.35-.23.55-.62.2-.4.2-.92v-.11q0-.75-.44-1.22-.44-.48-1.14-.48-.46 0-.82.22t-.56.61-.21.89v.09q0 .52.21.92.2.39.56.62t.82.22m4.86.62q-.59 0-.94-.33-.36-.34-.36-.9v-5.38h-.88v-.69h1.69v6.08q0 .23.15.38t.38.15h.46v.69zm3.4.1q-.71 0-1.25-.31-.55-.32-.85-.88-.31-.56-.31-1.29v-.1q0-.7.28-1.24.28-.55.79-.87t1.18-.32q.69 0 1.18.34t.73.96.13 1.45h-3.48q.03.42.24.77.2.34.56.55.35.2.83.2.38 0 .68-.09.29-.09.51-.29l.46.5q-.28.3-.71.46-.44.16-.97.16m-.16-4.31q-.6 0-.97.38-.38.38-.46 1.01h2.7q-.01-.66-.36-1.02-.35-.37-.91-.37m4.49 4.21q-.59 0-.94-.33-.36-.34-.36-.9v-5.38h-.88v-.69h1.69v6.08q0 .23.15.38t.38.15h.46v.69zm.65 2v-.69h.96q.21 0 .34-.14.12-.15.2-.35l.35-.77-1.98-4.86h.89l1.52 3.87 1.45-3.87h.89l-2.3 5.66q-.11.28-.27.54t-.43.44q-.27.17-.7.17zm7.89-2v-4.11h-.88v-.7h.88v-1.21q0-.59.38-.93.37-.35.97-.35h.8v.69h-.81q-.23 0-.38.15t-.15.38v1.27h1.34v.7h-1.34v4.11zm4.92.1q-.69 0-1.23-.31-.54-.32-.85-.88t-.31-1.29v-.09q0-.71.31-1.26.31-.56.85-.87t1.23-.31 1.23.31.85.86.31 1.25v.11q0 .73-.31 1.29t-.85.88-1.23.31m0-.72q.47 0 .83-.22.35-.23.55-.62.2-.4.2-.92v-.11q0-.75-.44-1.22-.44-.48-1.14-.48-.46 0-.82.22t-.56.61-.21.89v.09q0 .52.21.92.2.39.56.62t.82.22m3.57.62v-4.81h.78v.77q.18-.46.54-.62.35-.17.79-.17h.41v.8h-.47q-.59 0-.91.29t-.33.89v2.85zm7.11 0q-.33 0-.63-.12-.31-.13-.5-.41-.2-.28-.2-.75v-2.83h-.87v-.7h.87v-1.19h.8v1.19h1.27v.7h-1.27v2.88q0 .23.16.39.15.15.38.15h.73v.69zm1.82 0v-7.3h.78v3.26q.29-.5.75-.69.45-.18.84-.18.81 0 1.32.53.5.52.5 1.55v2.83h-.81v-2.71q0-.77-.34-1.11t-.88-.35-.95.38q-.4.37-.4 1.09v2.7zm7.71.1q-.71 0-1.25-.31-.55-.32-.85-.88-.31-.56-.31-1.29v-.1q0-.7.28-1.24.28-.55.79-.87t1.18-.32q.69 0 1.18.34t.73.96.13 1.45h-3.48q.03.42.24.77.2.34.56.55.35.2.83.2.38 0 .68-.09.29-.09.51-.29l.46.5q-.28.3-.71.46-.44.16-.97.16m-.16-4.31q-.6 0-.97.38-.38.38-.46 1.01h2.7q-.01-.66-.36-1.02-.35-.37-.91-.37m7.32 4.31q-.8 0-1.33-.47-.53-.48-.53-1.51v-2.93h.81v2.79q0 .77.35 1.08.34.3.86.3.54 0 .94-.36t.39-1.09v-2.72h.8v4.81h-.72v-.72q-.3.47-.74.65-.45.17-.83.17m5.12-.01q-.53 0-.99-.16-.47-.17-.76-.43l.36-.56q.27.23.64.37t.75.14q.45 0 .73-.2t.28-.54q0-.28-.19-.43-.19-.16-.48-.24l-.62-.18q-.33-.08-.62-.22-.3-.14-.48-.4-.19-.26-.19-.71 0-.63.48-1.03.47-.41 1.27-.41.45 0 .86.13.4.14.7.36l-.36.56q-.26-.19-.56-.3t-.65-.11q-.43 0-.7.2t-.27.54q0 .28.19.43t.49.24l.63.18q.33.08.63.23.3.14.49.41.18.26.18.71 0 .42-.23.74t-.64.5-.94.18m5.04.01q-.71 0-1.25-.31-.55-.32-.85-.88-.31-.56-.31-1.29v-.1q0-.7.28-1.24.28-.55.79-.87t1.18-.32q.69 0 1.18.34t.73.96.13 1.45h-3.48q.03.42.24.77.2.34.56.55.35.2.83.2.38 0 .68-.09.29-.09.51-.29l.46.5q-.28.3-.71.46-.44.16-.97.16m-.16-4.31q-.6 0-.97.38-.38.38-.46 1.01h2.7q-.01-.66-.36-1.02-.35-.37-.91-.37m7.6 4.31q-.69 0-1.23-.31-.54-.32-.85-.88t-.31-1.29v-.09q0-.71.31-1.26.31-.56.85-.87t1.23-.31 1.23.31.85.86.31 1.25v.11q0 .73-.31 1.29t-.85.88-1.23.31m0-.72q.47 0 .83-.22.35-.23.55-.62.2-.4.2-.92v-.11q0-.75-.44-1.22-.44-.48-1.14-.48-.46 0-.82.22t-.56.61-.21.89v.09q0 .52.21.92.2.39.56.62t.82.22m3.83.62v-4.11h-.88v-.7h.88v-1.21q0-.59.38-.93.37-.35.97-.35h.8v.69h-.81q-.23 0-.38.15t-.15.38v1.27h1.34v.7h-1.34v4.11zm6.71 0q-.33 0-.63-.12-.31-.13-.5-.41-.2-.28-.2-.75v-2.83h-.87v-.7h.87v-1.19h.8v1.19h1.27v.7h-1.27v2.88q0 .23.16.39.15.15.38.15h.73v.69zm1.82 0v-7.3h.78v3.26q.29-.5.75-.69.45-.18.84-.18.81 0 1.32.53.5.52.5 1.55v2.83h-.81v-2.71q0-.77-.34-1.11t-.88-.35-.95.38q-.4.37-.4 1.09v2.7zm7.71.1q-.71 0-1.25-.31-.55-.32-.85-.88-.31-.56-.31-1.29v-.1q0-.7.28-1.24.28-.55.79-.87t1.18-.32q.69 0 1.18.34t.73.96.13 1.45h-3.48q.03.42.24.77.2.34.56.55.35.2.83.2.38 0 .68-.09.29-.09.51-.29l.46.5q-.28.3-.71.46-.44.16-.97.16m-.16-4.31q-.6 0-.97.38-.38.38-.46 1.01h2.7q-.01-.66-.36-1.02-.35-.37-.91-.37m5.82 4.21v-4.11h-.94v-.7h1.74v4.81zm-.05-5.87v-1.16h.9v1.16zm2.36 5.87v-4.81h.78v.77q.29-.5.75-.69.45-.18.84-.18.81 0 1.32.53.5.52.5 1.55v2.83h-.81v-2.71q0-.77-.34-1.11t-.88-.35-.95.38q-.4.37-.4 1.09v2.7zm7.56.1q-.66 0-1.17-.31t-.8-.87-.29-1.3v-.09q0-.72.3-1.27.29-.55.8-.86t1.16-.31q.54 0 .97.24t.7.64v-3.27h.81v7.3h-.73v-.87q-.29.46-.74.72t-1.01.25m.11-.72q.47 0 .83-.22t.57-.62.21-.94-.21-.94-.57-.63-.83-.22q-.67 0-1.11.47t-.45 1.25v.09q0 .53.21.93t.55.62.8.21m4.25.62v-4.11h-.94v-.7h1.74v4.81zm-.05-5.87v-1.16h.9v1.16zm3.63 5.87-1.91-4.81h.84l1.5 3.86 1.49-3.86h.84l-1.9 4.81zm4.01 0v-4.11h-.94v-.7h1.74v4.81zm-.05-5.87v-1.16h.9v1.16zm4.3 5.97q-.66 0-1.17-.31t-.8-.87-.29-1.3v-.09q0-.72.3-1.27.29-.55.8-.86t1.16-.31q.54 0 .97.24t.7.64v-3.27h.81v7.3h-.73v-.87q-.29.46-.74.72t-1.01.25m.11-.72q.47 0 .83-.22t.57-.62.21-.94-.21-.94-.57-.63-.83-.22q-.67 0-1.11.47t-.45 1.25v.09q0 .53.21.93t.55.62.8.21m5.66.72q-.8 0-1.33-.47-.53-.48-.53-1.51v-2.93h.81v2.79q0 .77.35 1.08.34.3.86.3.54 0 .94-.36t.39-1.09v-2.72h.8v4.81H442v-.72q-.3.47-.74.65-.45.17-.83.17m5.23 0q-.82 0-1.31-.4t-.5-1.04q0-.42.25-.75t.69-.52.97-.2q.79 0 1.26.33v-.6q0-.59-.3-.84-.31-.26-.83-.26-.39 0-.79.15t-.7.44l-.38-.57q.32-.37.84-.56t1.07-.19q.85 0 1.37.45t.52 1.34v1.54q0 .8.03 1.58h-.72l-.01-.48q-.45.58-1.46.58m.21-.61q.55 0 .86-.23t.3-.6-.3-.59q-.31-.23-.87-.23-.55 0-.87.23-.32.22-.32.59 0 .36.33.6.32.23.87.23m4.69.51q-.59 0-.94-.33-.36-.34-.36-.9v-5.38h-.88v-.69h1.69v6.08q0 .23.15.38t.38.15h.46v.69zm5.18 0q-.33 0-.63-.12-.31-.13-.5-.41-.2-.28-.2-.75v-2.83h-.87v-.7h.87v-1.19h.8v1.19h1.27v.7h-1.27v2.88q0 .23.16.39.15.15.38.15h.73v.69zm3.74.1q-.69 0-1.23-.31-.54-.32-.85-.88t-.31-1.29v-.09q0-.71.31-1.26.31-.56.85-.87t1.23-.31 1.23.31.85.86.31 1.25v.11q0 .73-.31 1.29t-.85.88-1.23.31m0-.72q.47 0 .83-.22.35-.23.55-.62.2-.4.2-.92v-.11q0-.75-.44-1.22-.44-.48-1.14-.48-.46 0-.82.22t-.56.61-.21.89v.09q0 .52.21.92.2.39.56.62t.82.22m6.65.62-1.38-4.81h.81l1.08 3.99 1.13-3.99h.85l1.14 3.98 1.08-3.98h.8l-1.38 4.81h-.92l-1.14-4.07-1.14 4.07zm6.49 0v-7.3h.78v3.26q.29-.5.75-.69.45-.18.84-.18.81 0 1.32.53.5.52.5 1.55v2.83H476v-2.71q0-.77-.34-1.11t-.88-.35-.95.38q-.4.37-.4 1.09v2.7zm7.69.1q-.69 0-1.23-.31-.54-.32-.85-.88t-.31-1.29v-.09q0-.71.31-1.26.31-.56.85-.87t1.23-.31 1.23.31.85.86.31 1.25v.11q0 .73-.31 1.29t-.85.88-1.23.31m0-.72q.47 0 .83-.22.35-.23.55-.62.2-.4.2-.92v-.11q0-.75-.44-1.22-.44-.48-1.14-.48-.46 0-.82.22t-.56.61-.21.89v.09q0 .52.21.92.2.39.56.62t.82.22m3.57.62v-4.81h.77v.76q.28-.49.71-.68.42-.18.82-.18.52 0 .92.23.39.23.59.71.21-.36.5-.56.28-.21.59-.29.3-.09.57-.09.78 0 1.27.51.49.5.49 1.54v2.86h-.79v-2.76q0-.74-.32-1.07t-.84-.34q-.54 0-.9.37-.36.36-.36 1.04v2.76h-.8v-2.76q0-.74-.31-1.07-.32-.34-.84-.34-.54 0-.9.37-.37.36-.37 1.04v2.76zm11.28 0v-4.11h-.94v-.7h1.74v4.81zm-.05-5.87v-1.16h.9v1.16zm4 5.87q-.33 0-.63-.12-.31-.13-.5-.41-.2-.28-.2-.75v-2.83h-.87v-.7h.87v-1.19h.8v1.19h1.27v.7h-1.27v2.88q0 .23.16.39.15.15.38.15h.73v.69zm4.44 0v-4.11h-.94v-.7h1.74v4.81zm-.05-5.87v-1.16h.9v1.16zm3.69 5.96q-.53 0-.99-.16-.47-.17-.76-.43l.36-.56q.27.23.64.37t.75.14q.45 0 .73-.2t.28-.54q0-.28-.19-.43-.19-.16-.48-.24l-.62-.18q-.33-.08-.62-.22-.3-.14-.48-.4-.19-.26-.19-.71 0-.63.48-1.03.47-.41 1.27-.41.45 0 .86.13.4.14.7.36l-.36.56q-.26-.19-.56-.3t-.65-.11q-.43 0-.7.2t-.27.54q0 .28.19.43t.49.24l.63.18q.33.08.63.23.3.14.49.41.18.26.18.71 0 .42-.23.74t-.64.5-.94.18m6.73.01q-.82 0-1.31-.4t-.5-1.04q0-.42.25-.75t.68-.52q.44-.2.98-.2.79 0 1.26.33v-.6q0-.59-.3-.84-.31-.26-.83-.26-.39 0-.79.15t-.7.44l-.38-.57q.32-.37.84-.56t1.07-.19q.85 0 1.37.45t.52 1.34v1.54q0 .8.03 1.58h-.72l-.01-.48q-.45.58-1.46.58m.21-.61q.55 0 .86-.23t.3-.6q0-.37-.3-.59-.31-.23-.87-.23-.55 0-.87.23-.32.22-.32.59 0 .36.33.6.32.23.87.23m5.34.61q-.66 0-1.17-.31t-.8-.87-.29-1.3v-.09q0-.72.3-1.27.29-.55.8-.86t1.16-.31q.54 0 .97.24t.7.64v-3.27h.81v7.3h-.73v-.87q-.29.46-.74.72t-1.01.25m.11-.72q.47 0 .83-.22t.57-.62.21-.94-.21-.94-.57-.63-.83-.22q-.67 0-1.11.47t-.45 1.25v.09q0 .53.21.93t.55.62q.35.21.8.21m5.81.72q-.66 0-1.17-.31t-.8-.87-.29-1.3v-.09q0-.72.29-1.27.3-.55.81-.86t1.16-.31q.54 0 .97.24t.7.64v-3.27h.81v7.3h-.73v-.87q-.29.46-.74.72t-1.01.25m.11-.72q.47 0 .83-.22t.57-.62.21-.94-.21-.94-.57-.63-.83-.22q-.67 0-1.11.47t-.45 1.25v.09q0 .53.21.93t.55.62.8.21m3.87.62v-4.81h.78v.77q.18-.46.54-.62.35-.17.79-.17h.41v.8h-.47q-.59 0-.91.29t-.33.89v2.85zm5.32.1q-.71 0-1.25-.31-.55-.32-.85-.88-.31-.56-.31-1.29v-.1q0-.7.28-1.24.28-.55.79-.87t1.18-.32q.69 0 1.18.34t.73.96.13 1.45h-3.48q.03.42.24.77.2.34.56.55.35.2.83.2.38 0 .68-.09.29-.09.51-.29l.46.5q-.28.3-.71.46-.44.16-.97.16m-.16-4.31q-.6 0-.97.38-.38.38-.46 1.01h2.7q-.01-.66-.36-1.02-.35-.37-.91-.37m4.53 4.3q-.53 0-.99-.16-.47-.17-.76-.43l.36-.56q.27.23.64.37t.75.14q.45 0 .73-.2t.28-.54q0-.28-.19-.43-.19-.16-.48-.24l-.62-.18q-.33-.08-.62-.22-.3-.14-.49-.4-.18-.26-.18-.71 0-.63.48-1.03.47-.41 1.27-.41.45 0 .86.13.4.14.7.36l-.36.56q-.26-.19-.56-.3t-.65-.11q-.43 0-.7.2t-.27.54q0 .28.19.43t.49.24l.63.18q.33.08.63.23.3.14.49.41.18.26.18.71 0 .42-.23.74t-.64.5-.94.18m4.27 0q-.53 0-.99-.16-.47-.17-.76-.43l.36-.56q.27.23.64.37t.75.14q.45 0 .73-.2t.28-.54q0-.28-.19-.43-.19-.16-.48-.24l-.62-.18q-.33-.08-.63-.22-.29-.14-.47-.4-.19-.26-.19-.71 0-.63.48-1.03.47-.41 1.27-.41.45 0 .86.13.4.14.7.36l-.36.56q-.26-.19-.56-.3t-.65-.11q-.43 0-.7.2t-.27.54q0 .28.19.43t.49.24l.63.18q.33.08.63.23.3.14.49.41.18.26.18.71 0 .42-.23.74t-.64.5-.94.18m5.04.01q-.71 0-1.25-.31-.55-.32-.85-.88-.31-.56-.31-1.29v-.1q0-.7.28-1.24.28-.55.79-.87t1.18-.32q.69 0 1.18.34t.73.96q.23.61.13 1.45h-3.48q.03.42.24.77.2.34.56.55.35.2.83.2.38 0 .68-.09.29-.09.51-.29l.46.5q-.28.3-.71.46-.44.16-.97.16m-.16-4.31q-.6 0-.97.38-.38.38-.46 1.01h2.7q-.01-.66-.36-1.02-.35-.37-.91-.37m5.14 4.31q-.66 0-1.17-.31t-.8-.87-.29-1.3v-.09q0-.72.3-1.27.29-.55.8-.86t1.16-.31q.54 0 .97.24t.7.64v-3.27h.81v7.3h-.73v-.87q-.29.46-.74.72t-1.01.25m.11-.72q.47 0 .83-.22t.57-.62.21-.94-.21-.94-.57-.63-.83-.22q-.67 0-1.11.47t-.45 1.25v.09q0 .53.21.93t.55.62q.35.21.8.21m3.72.62v-1.1h.98v1.1zm4.03 0v-.78h1.23v-5.44h-1.23v-.78h3.33v.78h-1.24v5.44h1.24v.78zm4.6 0v-4.11h-.88v-.7h.88v-1.21q0-.59.38-.93.37-.35.97-.35h.8v.69h-.81q-.23 0-.38.15t-.15.38v1.27h1.34v.7h-1.34v4.11zm4.47 2v-.69h.96q.21 0 .34-.14.12-.15.2-.35l.35-.77-1.98-4.86h.89l1.52 3.87 1.45-3.87h.89l-2.3 5.66q-.11.28-.27.54t-.43.44q-.27.17-.7.17zm7.46-1.9q-.69 0-1.23-.31-.54-.32-.85-.88t-.31-1.29v-.09q0-.71.31-1.26.31-.56.85-.87t1.23-.31 1.23.31.85.86.31 1.25v.11q0 .73-.31 1.29t-.85.88-1.23.31m0-.72q.47 0 .83-.22.35-.23.55-.62.2-.4.2-.92v-.11q0-.75-.44-1.22-.44-.48-1.14-.48-.46 0-.82.22t-.56.61q-.21.39-.21.89v.09q0 .52.21.92.2.39.56.62t.82.22m5.36.72q-.8 0-1.33-.47-.53-.48-.53-1.51v-2.93h.81v2.79q0 .77.35 1.08.34.3.86.3.54 0 .94-.36t.39-1.09v-2.72h.8v4.81h-.72v-.72q-.3.47-.74.65-.45.17-.83.17M2.19 242.1q-.82 0-1.31-.4t-.5-1.04q0-.42.25-.75t.69-.52q.43-.2.97-.2.79 0 1.26.33v-.6q0-.59-.3-.84-.31-.26-.83-.26-.39 0-.79.15t-.7.44l-.38-.57q.32-.37.84-.56t1.07-.19q.85 0 1.37.45t.52 1.34v1.54q0 .8.03 1.58h-.72l-.01-.48q-.45.58-1.46.58m.21-.61q.55 0 .86-.23t.3-.6-.3-.59q-.31-.23-.87-.23-.55 0-.87.23-.32.22-.32.59 0 .36.33.6.32.23.87.23m3.4.51v-4.81h.78v.77q.18-.46.54-.62.35-.17.79-.17h.41v.8h-.47q-.59 0-.91.29t-.33.89V242zm5.32.1q-.71 0-1.25-.31-.55-.32-.85-.88-.31-.56-.31-1.29v-.1q0-.7.28-1.24.28-.55.79-.87t1.18-.32q.69 0 1.18.34t.73.96.13 1.45H9.52q.03.42.24.77.2.34.56.55.35.2.83.2.38 0 .68-.09.29-.09.51-.29l.46.5q-.28.3-.71.46-.44.16-.97.16m-.16-4.31q-.6 0-.97.38-.38.38-.46 1.01h2.7q-.01-.66-.36-1.02-.35-.37-.91-.37m5.53 4.21v-4.81h.78v.77q.29-.5.75-.69.45-.18.84-.18.81 0 1.32.53.5.52.5 1.55V242h-.81v-2.71q0-.77-.34-1.11t-.88-.35q-.55 0-.95.38-.4.37-.4 1.09v2.7zm7.69.1q-.69 0-1.23-.31-.54-.32-.85-.88t-.31-1.29v-.09q0-.71.31-1.26.31-.56.85-.87t1.23-.31 1.23.31.85.86.31 1.25v.11q0 .73-.31 1.29t-.85.88-1.23.31m0-.72q.47 0 .83-.22.35-.23.55-.62.2-.4.2-.92v-.11q0-.75-.44-1.22-.44-.48-1.14-.48-.46 0-.82.22t-.56.61q-.21.39-.21.89v.09q0 .52.21.92.2.39.56.62t.82.22m5.13.62q-.33 0-.63-.12-.31-.13-.5-.41-.2-.28-.2-.75v-2.83h-.87v-.7h.87V236h.8v1.19h1.27v.7h-1.27v2.88q0 .23.16.39.15.15.38.15h.73v.69zm5.69 0q-.33 0-.63-.12-.31-.13-.5-.41-.2-.28-.2-.75v-2.83h-.87v-.7h.87V236h.8v1.19h1.27v.7h-1.27v2.88q0 .23.16.39.15.15.38.15h.73v.69zm1.82 0v-7.3h.78v3.26q.29-.5.75-.69.45-.18.84-.18.81 0 1.32.53.5.52.5 1.55V242h-.81v-2.71q0-.77-.34-1.11t-.88-.35-.95.38q-.4.37-.4 1.09v2.7zm7.71.1q-.71 0-1.25-.31-.55-.32-.85-.88-.31-.56-.31-1.29v-.1q0-.7.28-1.24.28-.55.79-.87t1.18-.32q.69 0 1.18.34t.73.96.13 1.45h-3.48q.03.42.24.77.2.34.56.55.35.2.83.2.38 0 .68-.09.29-.09.51-.29l.46.5q-.28.3-.71.46-.44.16-.97.16m-.16-4.31q-.6 0-.97.38-.38.38-.46 1.01h2.7q-.01-.66-.36-1.02-.35-.37-.91-.37m5.82 4.21v-4.11h-.94v-.7h1.74V242zm-.05-5.87v-1.16h.9v1.16zM52.5 242v-4.81h.78v.77q.29-.5.75-.69.45-.18.84-.18.81 0 1.32.53.5.52.5 1.55V242h-.81v-2.71q0-.77-.34-1.11t-.88-.35-.95.38q-.4.37-.4 1.09v2.7zm7.19 0q-.33 0-.63-.12-.31-.13-.5-.41-.2-.28-.2-.75v-2.83h-.87v-.7h.87V236h.8v1.19h1.27v.7h-1.27v2.88q0 .23.16.39.15.15.38.15h.73v.69zm3.76.1q-.71 0-1.25-.31-.55-.32-.85-.88-.31-.56-.31-1.29v-.1q0-.7.28-1.24.28-.55.79-.87t1.18-.32q.69 0 1.18.34t.73.96.13 1.45h-3.48q.03.42.24.77.2.34.56.55.35.2.83.2.38 0 .68-.09.29-.09.51-.29l.46.5q-.28.3-.71.46-.44.16-.97.16m-.16-4.31q-.6 0-.97.38-.38.38-.46 1.01h2.7q-.01-.66-.36-1.02-.35-.37-.91-.37m3.2 4.21v-4.81h.78v.77q.29-.5.75-.69.45-.18.84-.18.81 0 1.32.53.5.52.5 1.55V242h-.81v-2.71q0-.77-.34-1.11t-.88-.35q-.55 0-.95.38-.4.37-.4 1.09v2.7zm7.56.1q-.66 0-1.17-.31t-.8-.87-.29-1.3v-.09q0-.72.3-1.27.29-.55.8-.86t1.16-.31q.54 0 .97.24t.7.64v-3.27h.81v7.3h-.73v-.87q-.29.46-.74.72t-1.01.25m.11-.72q.47 0 .83-.22t.57-.62.21-.94-.21-.94-.57-.63-.83-.22q-.67 0-1.11.47t-.45 1.25v.09q0 .53.21.93t.55.62.8.21m5.96.72q-.71 0-1.26-.31-.54-.32-.84-.88-.31-.56-.31-1.29v-.1q0-.7.28-1.24.28-.55.79-.87t1.18-.32q.69 0 1.18.34t.72.96q.24.61.14 1.45h-3.48q.03.42.24.77.2.34.56.55.35.2.83.2.38 0 .68-.09.29-.09.51-.29l.46.5q-.28.3-.71.46-.44.16-.97.16m-.16-4.31q-.6 0-.97.38-.38.38-.46 1.01h2.7q-.01-.66-.36-1.02-.35-.37-.91-.37m5.14 4.31q-.66 0-1.17-.31t-.8-.87-.29-1.3v-.09q0-.72.3-1.27.29-.55.8-.86t1.16-.31q.54 0 .97.24t.7.64v-3.27h.81v7.3h-.73v-.87q-.29.46-.74.72t-1.01.25m.11-.72q.47 0 .83-.22t.57-.62.21-.94-.21-.94-.57-.63-.83-.22q-.67 0-1.11.47t-.45 1.25v.09q0 .53.21.93t.55.62.8.21m6.2.62v-4.81h.78v.77q.18-.46.54-.62.35-.17.79-.17h.41v.8h-.47q-.59 0-.91.29t-.33.89V242zm5.32.1q-.71 0-1.25-.31-.55-.32-.85-.88-.31-.56-.31-1.29v-.1q0-.7.28-1.24.28-.55.79-.87t1.18-.32q.69 0 1.18.34t.73.96.13 1.45h-3.48q.03.42.24.77.2.34.56.55.35.2.83.2.38 0 .68-.09.29-.09.51-.29l.46.5q-.28.3-.71.46-.44.16-.97.16m-.16-4.31q-.6 0-.97.38-.38.38-.46 1.01h2.7q-.01-.66-.36-1.02-.35-.37-.91-.37m5.34 4.31q-.71 0-1.27-.31t-.87-.86-.32-1.28v-.12q0-.72.32-1.27t.88-.86q.55-.31 1.26-.31.53 0 .97.2.43.19.73.54l-.5.5q-.46-.49-1.2-.49-.48 0-.85.21-.38.21-.59.59-.22.38-.22.89v.12q0 .51.22.9.22.38.6.59.37.21.85.21.73 0 1.21-.48l.49.49q-.29.35-.73.55-.45.19-.98.19m3.13-.1v-4.11h-.94v-.7h1.74V242zm-.05-5.87v-1.16h.9v1.16zm2.36 7.87v-6.81h.76v.83q.28-.43.73-.68t.99-.25q.65 0 1.16.31t.81.86q.29.55.29 1.27v.09q0 .74-.29 1.3t-.8.87-1.17.31q-.53 0-.96-.23t-.71-.65V244zm2.36-2.62q.45 0 .81-.21.35-.22.56-.62.2-.4.2-.93v-.09q0-.78-.44-1.25-.45-.47-1.13-.47-.46 0-.82.22t-.57.63-.21.94.21.94.57.62.82.22m3.85.62v-4.11h-.94v-.7h1.74V242zm-.05-5.87v-1.16h.9v1.16zm4.45 5.97q-.71 0-1.25-.31-.55-.32-.85-.88-.31-.56-.31-1.29v-.1q0-.7.28-1.24.28-.55.79-.87t1.18-.32q.69 0 1.18.34t.73.96.13 1.45h-3.48q.03.42.24.77.2.34.56.55.35.2.83.2.38 0 .68-.09.29-.09.51-.29l.46.5q-.28.3-.71.46-.44.16-.97.16m-.16-4.31q-.6 0-.97.38-.38.38-.46 1.01h2.7q-.01-.66-.36-1.02-.35-.37-.91-.37M121 242v-4.81h.78v.77q.29-.5.75-.69.45-.18.84-.18.81 0 1.32.53.5.52.5 1.55V242h-.81v-2.71q0-.77-.34-1.11t-.88-.35q-.55 0-.95.38-.4.37-.4 1.09v2.7zm7.19 0q-.33 0-.63-.12-.31-.13-.5-.41-.2-.28-.2-.75v-2.83h-.87v-.7h.87V236h.8v1.19h1.27v.7h-1.27v2.88q0 .23.16.39.15.15.38.15h.73v.69zm1.59 0v-1.1h1.02v1.8q0 .43-.24.6-.25.16-.54.16h-.3v-.49h.3q.13 0 .2-.08.06-.08.06-.2V242zm4.37 2v-6.81h.76v.83q.28-.43.73-.68t.99-.25q.65 0 1.16.31t.81.86q.29.55.29 1.27v.09q0 .74-.29 1.3t-.8.87-1.17.31q-.53 0-.96-.23t-.71-.65V244zm2.36-2.62q.45 0 .81-.21.35-.22.56-.62.2-.4.2-.93v-.09q0-.78-.44-1.25-.45-.47-1.13-.47-.46 0-.82.22t-.57.63-.21.94.21.94.57.62.82.22m4.85.62q-.59 0-.94-.33-.36-.34-.36-.9v-5.38h-.88v-.69h1.69v6.08q0 .23.15.38t.38.15h.46v.69zm3.4.1q-.71 0-1.25-.31-.55-.32-.85-.88-.31-.56-.31-1.29v-.1q0-.7.28-1.24.28-.55.79-.87t1.18-.32q.69 0 1.18.34t.73.96.13 1.45h-3.48q.03.42.24.77.2.34.56.55.35.2.83.2.38 0 .68-.09.29-.09.51-.29l.46.5q-.28.3-.71.46-.44.16-.97.16m-.16-4.31q-.6 0-.97.38-.38.38-.46 1.01h2.7q-.01-.66-.36-1.02-.35-.37-.91-.37m4.63 4.31q-.82 0-1.31-.4t-.5-1.04q0-.42.25-.75t.68-.52.98-.2q.79 0 1.26.33v-.6q0-.59-.3-.84-.31-.26-.83-.26-.39 0-.79.15t-.7.44l-.38-.57q.32-.37.84-.56t1.07-.19q.85 0 1.37.45t.52 1.34v1.54q0 .8.03 1.58h-.72l-.01-.48q-.45.58-1.46.58m.21-.61q.55 0 .86-.23t.3-.6-.3-.59q-.31-.23-.87-.23-.55 0-.87.23-.32.22-.32.59 0 .36.33.6.32.23.87.23m4.73.6q-.53 0-.99-.16-.47-.17-.76-.43l.36-.56q.27.23.64.37t.75.14q.45 0 .73-.2t.28-.54q0-.28-.19-.43-.19-.16-.48-.24l-.62-.18q-.33-.08-.62-.22-.3-.14-.48-.4-.19-.26-.19-.71 0-.63.48-1.03.47-.41 1.27-.41.45 0 .86.13.4.14.7.36l-.36.56q-.26-.19-.56-.3t-.65-.11q-.43 0-.7.2t-.27.54q0 .28.19.43t.49.24l.63.18q.33.08.63.23.3.14.49.41.18.26.18.71 0 .42-.23.74t-.64.5-.94.18m5.04.01q-.71 0-1.25-.31-.55-.32-.86-.88t-.3-1.29v-.1q0-.7.28-1.24.28-.55.79-.87t1.18-.32q.69 0 1.18.34t.73.96.13 1.45h-3.48q.03.42.24.77.2.34.56.55.35.2.83.2.38 0 .68-.09.29-.09.51-.29l.46.5q-.28.3-.71.46-.44.16-.97.16m-.16-4.31q-.6 0-.97.38-.38.38-.46 1.01h2.7q-.01-.66-.36-1.02-.35-.37-.91-.37m5.53 4.21v-4.81h.78v.77q.29-.5.75-.69.45-.18.84-.18.81 0 1.32.53.5.52.5 1.55V242h-.81v-2.71q0-.77-.34-1.11t-.88-.35q-.55 0-.95.38-.4.37-.4 1.09v2.7zm7.69.1q-.69 0-1.23-.31-.54-.32-.85-.88t-.31-1.29v-.09q0-.71.31-1.26.31-.56.85-.87t1.23-.31 1.23.31.85.86.31 1.25v.11q0 .73-.31 1.29t-.85.88-1.23.31m0-.72q.47 0 .83-.22.35-.23.55-.62.2-.4.2-.92v-.11q0-.75-.44-1.22-.44-.48-1.14-.48-.46 0-.82.22t-.56.61-.21.89v.09q0 .52.21.92.2.39.56.62t.82.22m5.13.62q-.33 0-.63-.12-.31-.13-.5-.41-.2-.28-.2-.75v-2.83h-.87v-.7h.87V236h.8v1.19h1.27v.7h-1.27v2.88q0 .23.16.39.15.15.38.15h.73v.69zm2.2 0v-4.11h-.94v-.7h1.74V242zm-.05-5.87v-1.16h.9v1.16zm2.71 5.87v-4.11h-.88v-.7h.88v-1.21q0-.59.38-.93.37-.35.97-.35h.8v.69h-.81q-.23 0-.38.15t-.15.38v1.27h1.34v.7h-1.34V242zm2.55 2v-.69h.96q.21 0 .34-.14.12-.15.2-.35l.35-.77-1.98-4.86h.89l1.52 3.87 1.45-3.87h.89l-2.3 5.66q-.11.28-.27.54t-.43.44q-.27.17-.7.17zm9.17-2q-.33 0-.63-.12-.31-.13-.5-.41-.2-.28-.2-.75v-2.83h-.87v-.7h.87V236h.8v1.19h1.27v.7h-1.27v2.88q0 .23.16.39.15.15.38.15h.73v.69zm1.82 0v-7.3h.78v3.26q.29-.5.75-.69.45-.18.84-.18.81 0 1.32.53.5.52.5 1.55V242h-.81v-2.71q0-.77-.34-1.11t-.88-.35q-.55 0-.95.38-.4.37-.4 1.09v2.7zm7.71.1q-.71 0-1.25-.31-.55-.32-.85-.88-.31-.56-.31-1.29v-.1q0-.7.28-1.24.28-.55.79-.87t1.18-.32q.69 0 1.18.34t.73.96.13 1.45h-3.48q.03.42.24.77.2.34.56.55.35.2.83.2.38 0 .68-.09.29-.09.51-.29l.46.5q-.28.3-.71.46-.44.16-.97.16m-.16-4.31q-.6 0-.97.38-.38.38-.46 1.01h2.7q-.01-.66-.36-1.02-.35-.37-.91-.37m6.86 4.3q-.53 0-.99-.16-.47-.17-.76-.43l.36-.56q.27.23.64.37t.75.14q.45 0 .73-.2t.28-.54q0-.28-.19-.43-.19-.16-.48-.24l-.62-.18q-.33-.08-.62-.22-.3-.14-.48-.4-.19-.26-.19-.71 0-.63.48-1.03.47-.41 1.27-.41.45 0 .86.13.4.14.7.36l-.36.56q-.26-.19-.56-.3t-.65-.11q-.43 0-.7.2t-.27.54q0 .28.19.43t.49.24l.63.18q.33.08.63.23.3.14.49.41.18.26.18.71 0 .42-.23.74t-.64.5-.94.18m5.04.01q-.71 0-1.25-.31-.55-.32-.85-.88-.31-.56-.31-1.29v-.1q0-.7.28-1.24.28-.55.79-.87t1.18-.32q.69 0 1.18.34t.73.96.13 1.45h-3.48q.03.42.24.77.2.34.56.55.35.2.83.2.38 0 .68-.09.29-.09.51-.29l.46.5q-.28.3-.71.46-.44.16-.97.16m-.16-4.31q-.6 0-.97.38-.38.38-.46 1.01h2.7q-.01-.66-.36-1.02-.35-.37-.91-.37m3.2 4.21v-4.81h.78v.77q.29-.5.75-.69.45-.18.84-.18.81 0 1.32.53.5.52.5 1.55V242h-.81v-2.71q0-.77-.34-1.11t-.88-.35q-.55 0-.95.38-.4.37-.4 1.09v2.7zm7.56.1q-.66 0-1.17-.31t-.8-.87-.29-1.3v-.09q0-.72.3-1.27.29-.55.8-.86t1.16-.31q.54 0 .97.24t.7.64v-3.27h.81v7.3h-.73v-.87q-.29.46-.74.72t-1.01.25m.11-.72q.47 0 .83-.22t.57-.62.21-.94-.21-.94-.57-.63-.83-.22q-.67 0-1.11.47t-.45 1.25v.09q0 .53.21.93t.55.62.8.21m5.96.72q-.71 0-1.25-.31-.55-.32-.85-.88-.31-.56-.31-1.29v-.1q0-.7.28-1.24.28-.55.79-.87t1.18-.32q.69 0 1.18.34t.73.96.13 1.45h-3.48q.03.42.24.77.2.34.56.55.35.2.83.2.38 0 .68-.09.29-.09.51-.29l.46.5q-.28.3-.71.46-.44.16-.97.16m-.16-4.31q-.6 0-.97.38-.38.38-.46 1.01h2.7q-.01-.66-.36-1.02-.35-.37-.91-.37m3.2 4.21v-4.81h.78v.77q.18-.46.54-.62.35-.17.79-.17h.41v.8h-.47q-.59 0-.91.29t-.33.89V242zm5.86 0v-4.11h-.94v-.7h1.74V242zm-.05-5.87v-1.16h.9v1.16zm2.36 5.87v-4.81h.77v.76q.28-.49.71-.68.42-.18.82-.18.52 0 .92.23.39.23.59.71.21-.36.5-.56.28-.21.59-.29.3-.09.57-.09.78 0 1.27.51.49.5.49 1.54V242h-.79v-2.76q0-.74-.32-1.07t-.84-.34q-.54 0-.9.37-.36.36-.36 1.04V242h-.8v-2.76q0-.74-.31-1.07-.32-.34-.84-.34-.54 0-.9.37-.37.36-.37 1.04V242zm8.66 0v-4.81h.77v.76q.28-.49.71-.68.42-.18.82-.18.52 0 .92.23.39.23.59.71.21-.36.5-.56.28-.21.59-.29.3-.09.57-.09.78 0 1.27.51.49.5.49 1.54V242h-.79v-2.76q0-.74-.32-1.07t-.84-.34q-.54 0-.9.37-.36.36-.36 1.04V242h-.8v-2.76q0-.74-.31-1.07-.32-.34-.84-.34-.54 0-.9.37-.37.36-.37 1.04V242zm10.75.1q-.71 0-1.25-.31-.55-.32-.85-.88-.31-.56-.31-1.29v-.1q0-.7.28-1.24.28-.55.79-.87t1.18-.32q.69 0 1.18.34t.73.96.13 1.45h-3.48q.03.42.24.77.2.34.56.55.35.2.83.2.38 0 .68-.09.29-.09.51-.29l.46.5q-.28.3-.71.46-.44.16-.97.16m-.16-4.31q-.6 0-.97.38-.38.38-.46 1.01h2.7q-.01-.66-.36-1.02-.35-.37-.91-.37m5.14 4.31q-.66 0-1.17-.31t-.8-.87-.29-1.3v-.09q0-.72.3-1.27.29-.55.8-.86t1.16-.31q.54 0 .97.24t.7.64v-3.27h.81v7.3h-.73v-.87q-.29.46-.74.72t-1.01.25m.11-.72q.47 0 .83-.22t.57-.62.21-.94-.21-.94-.57-.63-.83-.22q-.67 0-1.11.47t-.45 1.25v.09q0 .53.2.93t.56.62.8.21m4.25.62v-4.11h-.94v-.7h1.74V242zm-.05-5.87v-1.16h.9v1.16zm3.8 5.97q-.82 0-1.31-.4t-.5-1.04q0-.42.25-.75t.69-.52.97-.2q.79 0 1.26.33v-.6q0-.59-.3-.84-.31-.26-.83-.26-.39 0-.79.15t-.7.44l-.38-.57q.32-.37.84-.56t1.07-.19q.85 0 1.37.45t.52 1.34v1.54q0 .8.03 1.58h-.72l-.01-.48q-.45.58-1.46.58m.21-.61q.55 0 .86-.23t.3-.6-.3-.59q-.31-.23-.87-.23-.55 0-.87.23-.32.22-.32.59 0 .36.33.6.32.23.87.23m4.98.51q-.33 0-.63-.12-.31-.13-.5-.41-.2-.28-.2-.75v-2.83h-.87v-.7h.87V236h.8v1.19h1.27v.7h-1.27v2.88q0 .23.16.39.15.15.38.15h.73v.69zm3.76.1q-.71 0-1.25-.31-.55-.32-.85-.88-.31-.56-.31-1.29v-.1q0-.7.28-1.24.28-.55.79-.87t1.18-.32q.69 0 1.18.34t.73.96.13 1.45h-3.48q.03.42.24.77.2.34.56.55.35.2.83.2.38 0 .68-.09.29-.09.51-.29l.46.5q-.28.3-.71.46-.44.16-.97.16m-.16-4.31q-.6 0-.97.38-.38.38-.46 1.01h2.7q-.01-.66-.36-1.02-.35-.37-.91-.37m4.49 4.21q-.59 0-.94-.33-.36-.34-.36-.9v-5.38h-.88v-.69h1.69v6.08q0 .23.15.38t.38.15h.46v.69zm.65 2v-.69h.96q.21 0 .34-.14.12-.15.2-.35l.35-.77-1.98-4.86h.89l1.52 3.87 1.45-3.87h.89l-2.3 5.66q-.11.28-.27.54t-.43.44q-.27.17-.7.17zm9.07-1.9q-.82 0-1.31-.4t-.5-1.04q0-.42.25-.75t.69-.52.97-.2q.79 0 1.26.33v-.6q0-.59-.3-.84-.31-.26-.83-.26-.39 0-.79.15t-.7.44l-.38-.57q.32-.37.84-.56t1.07-.19q.85 0 1.37.45t.52 1.34v1.54q0 .8.03 1.58h-.72l-.01-.48q-.45.58-1.46.58m.21-.61q.55 0 .86-.23t.3-.6-.3-.59q-.31-.23-.87-.23-.55 0-.87.23-.32.22-.32.59 0 .36.33.6.32.23.87.23m3.4.51v-4.81h.78v.77q.29-.5.75-.69.45-.18.84-.18.81 0 1.32.53.5.52.5 1.55V242h-.81v-2.71q0-.77-.34-1.11t-.88-.35-.95.38q-.4.37-.4 1.09v2.7zm7.56.1q-.66 0-1.17-.31t-.8-.87-.29-1.3v-.09q0-.72.29-1.27.3-.55.81-.86t1.16-.31q.54 0 .97.24t.7.64v-3.27h.81v7.3h-.73v-.87q-.29.46-.74.72t-1.01.25m.11-.72q.47 0 .83-.22t.57-.62.21-.94-.21-.94-.57-.63-.83-.22q-.67 0-1.11.47t-.45 1.25v.09q0 .53.21.93t.55.62.8.21m8.14.72q-.66 0-1.17-.31t-.8-.87-.29-1.3v-.09q0-.72.29-1.27.3-.55.81-.86t1.16-.31q.54 0 .97.24t.7.64v-3.27h.81v7.3h-.73v-.87q-.29.46-.74.72t-1.01.25m.11-.72q.47 0 .83-.22t.57-.62.21-.94-.21-.94-.57-.63-.83-.22q-.67 0-1.11.47t-.45 1.25v.09q0 .53.21.93t.55.62.8.21m5.96.72q-.71 0-1.25-.31-.55-.32-.85-.88-.31-.56-.31-1.29v-.1q0-.7.28-1.24.28-.55.79-.87t1.18-.32q.69 0 1.18.34t.73.96.13 1.45h-3.48q.03.42.24.77.2.34.56.55.35.2.83.2.38 0 .68-.09.29-.09.51-.29l.46.5q-.28.3-.72.46t-.96.16m-.16-4.31q-.6 0-.97.38-.38.38-.46 1.01h2.7q-.01-.66-.36-1.02-.35-.37-.91-.37m4.49 4.21q-.59 0-.94-.33-.36-.34-.36-.9v-5.38h-.88v-.69h1.69v6.08q0 .23.15.38t.38.15h.46v.69zm3.4.1q-.71 0-1.25-.31-.55-.32-.85-.88-.31-.56-.31-1.29v-.1q0-.7.28-1.24.28-.55.79-.87t1.18-.32q.69 0 1.18.34t.73.96.13 1.45h-3.48q.03.42.24.77.2.34.56.55.35.2.83.2.38 0 .68-.09.29-.09.51-.29l.46.5q-.28.3-.71.46-.44.16-.97.16m-.16-4.31q-.6 0-.97.38-.38.38-.46 1.01h2.7q-.01-.66-.36-1.02-.35-.37-.91-.37m4.8 4.21q-.33 0-.63-.12-.31-.13-.5-.41-.2-.28-.2-.75v-2.83h-.87v-.7h.87V236h.8v1.19h1.27v.7h-1.27v2.88q0 .23.16.39.15.15.38.15h.73v.69zm3.76.1q-.71 0-1.25-.31-.55-.32-.85-.88-.31-.56-.31-1.29v-.1q0-.7.28-1.24.28-.55.79-.87t1.18-.32q.69 0 1.18.34t.73.96.13 1.45h-3.48q.03.42.24.77.2.34.56.55.35.2.83.2.38 0 .68-.09.29-.09.51-.29l.46.5q-.28.3-.71.46-.44.16-.97.16m-.16-4.31q-.6 0-.97.38-.38.38-.46 1.01h2.7q-.01-.66-.36-1.02-.35-.37-.91-.37m7.07 4.21q-.33 0-.63-.12-.31-.13-.5-.41-.2-.28-.2-.75v-2.83h-.87v-.7h.87V236h.8v1.19h1.27v.7h-1.27v2.88q0 .23.16.39.15.15.38.15h.73v.69zm1.82 0v-7.3h.78v3.26q.29-.5.75-.69.45-.18.84-.18.81 0 1.32.53.5.52.5 1.55V242h-.81v-2.71q0-.77-.34-1.11t-.88-.35-.95.38q-.4.37-.4 1.09v2.7zm5.92 0v-4.11h-.94v-.7h1.74V242zm-.05-5.87v-1.16h.9v1.16zm3.69 5.96q-.53 0-.99-.16-.47-.17-.76-.43l.36-.56q.27.23.64.37t.75.14q.45 0 .73-.2t.28-.54q0-.28-.19-.43-.19-.16-.48-.24l-.62-.18q-.33-.08-.62-.22-.3-.14-.48-.4-.19-.26-.19-.71 0-.63.48-1.03.47-.41 1.27-.41.45 0 .86.13.4.14.7.36l-.36.56q-.26-.19-.56-.3t-.65-.11q-.43 0-.7.2t-.27.54q0 .28.19.43t.49.24l.63.18q.33.08.63.23.3.14.49.41.18.26.18.71 0 .42-.23.74t-.64.5-.94.18m5.29-.09v-4.81h.77v.76q.28-.49.71-.68.42-.18.82-.18.52 0 .92.23.39.23.59.71.21-.36.5-.56.28-.21.59-.29.3-.09.57-.09.78 0 1.27.51.49.5.49 1.54V242h-.79v-2.76q0-.74-.32-1.07t-.84-.34q-.54 0-.9.37-.36.36-.36 1.04V242h-.8v-2.76q0-.74-.31-1.07-.32-.34-.84-.34-.54 0-.9.37-.37.36-.37 1.04V242zm10.75.1q-.71 0-1.25-.31-.55-.32-.85-.88-.31-.56-.31-1.29v-.1q0-.7.28-1.24.28-.55.79-.87t1.18-.32q.69 0 1.18.34t.73.96.13 1.45h-3.48q.03.42.24.77.2.34.56.55.35.2.83.2.38 0 .68-.09.29-.09.51-.29l.46.5q-.28.3-.71.46-.44.16-.97.16m-.16-4.31q-.6 0-.97.38-.38.38-.46 1.01h2.7q-.01-.66-.36-1.02-.35-.37-.91-.37m4.53 4.3q-.53 0-.99-.16-.47-.17-.76-.43l.36-.56q.27.23.64.37t.75.14q.45 0 .73-.2t.28-.54q0-.28-.19-.43-.19-.16-.48-.24l-.62-.18q-.33-.08-.62-.22-.3-.14-.48-.4-.19-.26-.19-.71 0-.63.48-1.03.47-.41 1.27-.41.45 0 .86.13.4.14.7.36l-.36.56q-.26-.19-.56-.3t-.65-.11q-.43 0-.7.2t-.27.54q0 .28.19.43t.49.24l.63.18q.33.08.63.23.3.14.49.41.18.26.18.71 0 .42-.23.74t-.64.5-.94.18m4.27 0q-.53 0-.99-.16-.47-.17-.76-.43l.36-.56q.27.23.64.37t.75.14q.45 0 .73-.2t.28-.54q0-.28-.19-.43-.19-.16-.48-.24l-.62-.18q-.33-.08-.62-.22-.3-.14-.48-.4-.19-.26-.19-.71 0-.63.48-1.03.47-.41 1.27-.41.45 0 .86.13.4.14.7.36l-.36.56q-.26-.19-.56-.3t-.65-.11q-.43 0-.7.2t-.27.54q0 .28.19.43t.49.24l.63.18q.33.08.63.23.3.14.49.41.18.26.18.71 0 .42-.23.74t-.64.5-.94.18m4.4.01q-.82 0-1.31-.4t-.5-1.04q0-.42.25-.75t.69-.52.97-.2q.79 0 1.26.33v-.6q0-.59-.3-.84-.31-.26-.83-.26-.39 0-.79.15t-.7.44l-.38-.57q.32-.37.84-.56t1.07-.19q.85 0 1.37.45t.52 1.34v1.54q0 .8.03 1.58h-.72l-.01-.48q-.45.58-1.46.58m.21-.61q.55 0 .86-.23t.3-.6-.3-.59q-.31-.23-.87-.23-.55 0-.87.23-.32.22-.32.59 0 .36.33.6.32.23.87.23m2.92 2.51v-.68h2.87q.34 0 .53-.16.19-.17.19-.47 0-.28-.19-.43-.19-.16-.53-.16h-1.58q-.38 0-.57-.18-.2-.18-.22-.45-.03-.27.11-.54l.32-.65q-.37-.23-.58-.59-.21-.37-.21-.82v-.09q0-.5.27-.88.26-.38.73-.59.46-.22 1.06-.22l.22.01.49-1.01h.81l-.62 1.15q.53.19.85.59t.31.93v.11q0 .51-.26.9-.27.39-.73.62-.47.22-1.07.22-.32 0-.62-.07l-.24.47q-.07.13-.04.29.02.15.27.15h1.41q.61 0 .99.32.38.31.38.93 0 .57-.38.94-.39.36-1.03.36zm2.2-4.02q.29 0 .58-.1t.49-.36.2-.7q0-.48-.35-.77-.36-.3-.92-.3t-.91.3q-.36.29-.36.77 0 .44.2.7t.5.36.57.1m5.3 2.12q-.71 0-1.25-.31-.55-.32-.85-.88-.31-.56-.31-1.29v-.1q0-.7.28-1.24.28-.55.79-.87t1.18-.32q.69 0 1.18.34t.73.96.13 1.45h-3.48q.03.42.24.77.2.34.56.55.35.2.83.2.38 0 .68-.09.29-.09.51-.29l.46.5q-.28.3-.71.46-.44.16-.97.16m-.16-4.31q-.6 0-.97.38-.38.38-.46 1.01h2.7q-.01-.66-.36-1.02-.35-.37-.91-.37m3.05 4.21v-1.1h.98v1.1zm3.48 0 2.66-7h1.03l2.66 7h-.88l-.71-1.91h-3.17l-.72 1.91zm1.86-2.64h2.62l-1.3-3.51zm5.34 2.64v-4.81h.78v.77q.29-.5.75-.69.45-.18.84-.18.81 0 1.32.53.5.52.5 1.55V242h-.81v-2.71q0-.77-.34-1.11t-.88-.35-.95.38q-.4.37-.4 1.09v2.7zm5.01 2v-.69h.96q.21 0 .34-.14.12-.15.2-.35l.35-.77-1.98-4.86h.89l1.52 3.87 1.45-3.87h.89l-2.3 5.66q-.11.28-.27.54t-.43.44q-.27.17-.7.17zm9.42-1.9q-.8 0-1.33-.47-.53-.48-.53-1.51v-2.93h.81v2.79q0 .77.35 1.08.34.3.86.3.54 0 .94-.36t.39-1.09v-2.72h.8V242h-.72v-.72q-.3.47-.74.65-.45.17-.83.17m3.79-.1v-4.81h.78v.77q.29-.5.75-.69.45-.18.84-.18.81 0 1.32.53.5.52.5 1.55V242h-.81v-2.71q0-.77-.34-1.11t-.88-.35-.95.38q-.4.37-.4 1.09v2.7zm7.06.1q-.82 0-1.31-.4t-.5-1.04q0-.42.25-.75t.69-.52.97-.2q.79 0 1.26.33v-.6q0-.59-.3-.84-.31-.26-.83-.26-.39 0-.79.15t-.7.44l-.38-.57q.32-.37.84-.56t1.07-.19q.85 0 1.37.45t.52 1.34v1.54q0 .8.03 1.58h-.72l-.01-.48q-.45.58-1.46.58m.21-.61q.55 0 .86-.23t.3-.6-.3-.59q-.31-.23-.87-.23-.55 0-.87.23-.32.22-.32.59 0 .36.33.6.32.23.87.23m5.19.61q-.8 0-1.33-.47-.53-.48-.53-1.51v-2.93h.81v2.79q0 .77.35 1.08.34.3.86.3.54 0 .94-.36t.39-1.09v-2.72h.8V242h-.72v-.72q-.3.47-.74.65-.45.17-.83.17m5.43-.1q-.33 0-.63-.12-.31-.13-.5-.41-.2-.28-.2-.75v-2.83h-.87v-.7h.87V236h.8v1.19h1.27v.7h-1.27v2.88q0 .23.16.39.15.15.38.15h.73v.69zm1.82 0v-7.3h.78v3.26q.29-.5.75-.69.45-.18.84-.18.81 0 1.32.53.5.52.5 1.55V242h-.81v-2.71q0-.77-.34-1.11t-.88-.35-.95.38q-.4.37-.4 1.09v2.7zm7.69.1q-.69 0-1.23-.31-.54-.32-.85-.88t-.31-1.29v-.09q0-.71.31-1.26.31-.56.85-.87t1.23-.31 1.23.31.85.86.31 1.25v.11q0 .73-.31 1.29t-.85.88-1.23.31m0-.72q.47 0 .83-.22.35-.23.55-.62.2-.4.2-.92v-.11q0-.75-.44-1.22-.44-.48-1.14-.48-.46 0-.82.22t-.56.61-.21.89v.09q0 .52.21.92.2.39.56.62t.82.22m3.57.62v-4.81h.78v.77q.18-.46.54-.62.35-.17.79-.17h.41v.8h-.47q-.59 0-.91.29t-.33.89V242zm3.85 0v-4.11h-.94v-.7h1.74V242zm-.05-5.87v-1.16h.9v1.16zm3.69 5.96q-.53 0-.99-.16-.47-.17-.76-.43l.36-.56q.27.23.64.37t.75.14q.45 0 .73-.2t.28-.54q0-.28-.19-.43-.19-.16-.48-.24l-.62-.18q-.33-.08-.62-.22-.3-.14-.48-.4-.19-.26-.19-.71 0-.63.48-1.03.47-.41 1.27-.41.45 0 .86.13.4.14.7.36l-.36.56q-.26-.19-.56-.3t-.65-.11q-.43 0-.7.2t-.27.54q0 .28.19.43t.49.24l.63.18q.33.08.63.23.3.14.49.41.18.26.18.71 0 .42-.23.74t-.64.5-.94.18m5.04.01q-.71 0-1.25-.31-.55-.32-.85-.88-.31-.56-.31-1.29v-.1q0-.7.28-1.24.28-.55.79-.87t1.18-.32q.69 0 1.18.34t.73.96.13 1.45h-3.48q.03.42.24.77.2.34.56.55.35.2.83.2.38 0 .68-.09.29-.09.51-.29l.46.5q-.28.3-.71.46-.44.16-.97.16m-.16-4.31q-.6 0-.97.38-.38.38-.46 1.01h2.7q-.01-.66-.36-1.02-.35-.37-.91-.37m5.14 4.31q-.66 0-1.17-.31t-.8-.87-.29-1.3v-.09q0-.72.3-1.27.29-.55.8-.86t1.16-.31q.54 0 .97.24t.7.64v-3.27h.81v7.3h-.73v-.87q-.29.46-.74.72t-1.01.25m.11-.72q.47 0 .83-.22t.57-.62.21-.94-.21-.94-.57-.63-.83-.22q-.67 0-1.11.47t-.45 1.25v.09q0 .53.21.93t.55.62.8.21m7.99.72q-.8 0-1.33-.47-.53-.48-.53-1.51v-2.93h.81v2.79q0 .77.35 1.08.34.3.86.3.54 0 .94-.36t.39-1.09v-2.72h.8V242h-.72v-.72q-.3.47-.74.65-.45.17-.83.17m5.12-.01q-.53 0-.99-.16-.47-.17-.76-.43l.36-.56q.27.23.64.37t.75.14q.45 0 .73-.2t.28-.54q0-.28-.19-.43-.19-.16-.48-.24l-.62-.18q-.33-.08-.62-.22-.3-.14-.48-.4-.19-.26-.19-.71 0-.63.48-1.03.47-.41 1.27-.41.45 0 .86.13.4.14.7.36l-.36.56q-.26-.19-.56-.3t-.65-.11q-.43 0-.7.2t-.27.54q0 .28.19.43t.49.24l.63.18q.33.08.63.23.3.14.49.41.18.26.18.71 0 .42-.23.74t-.64.5-.94.18m5.04.01q-.71 0-1.25-.31-.55-.32-.85-.88-.31-.56-.31-1.29v-.1q0-.7.28-1.24.28-.55.79-.87t1.18-.32q.69 0 1.18.34t.73.96.13 1.45h-3.48q.03.42.24.77.2.34.56.55.35.2.83.2.38 0 .68-.09.29-.09.51-.29l.46.5q-.28.3-.71.46-.44.16-.97.16m-.16-4.31q-.6 0-.97.38-.38.38-.46 1.01h2.7q-.01-.66-.36-1.02-.35-.37-.91-.37m2.97 4.21v-1.1h1.02v1.8q0 .43-.24.6-.25.16-.54.16h-.3v-.49h.3q.13 0 .2-.08.06-.08.06-.2V242zm6.31.1q-.66 0-1.17-.31t-.8-.87-.29-1.3v-.09q0-.72.3-1.27.29-.55.8-.86t1.16-.31q.54 0 .97.24t.7.64v-3.27h.81v7.3h-.73v-.87q-.29.46-.74.72t-1.01.25m.11-.72q.47 0 .83-.22t.57-.62.21-.94-.21-.94-.57-.63-.83-.22q-.67 0-1.11.47t-.45 1.25v.09q0 .53.21.93t.55.62.8.21m4.25.62v-4.11h-.94v-.7h1.74V242zm-.05-5.87v-1.16h.9v1.16zm3.69 5.96q-.53 0-.99-.16-.47-.17-.76-.43l.36-.56q.27.23.64.37t.75.14q.45 0 .73-.2t.28-.54q0-.28-.19-.43-.19-.16-.48-.24l-.62-.18q-.33-.08-.62-.22-.3-.14-.48-.4-.19-.26-.19-.71 0-.63.48-1.03.47-.41 1.27-.41.45 0 .86.13.4.14.7.36l-.36.56q-.26-.19-.56-.3t-.65-.11q-.43 0-.7.2t-.27.54q0 .28.19.43t.49.24l.63.18q.33.08.63.23.3.14.49.41.18.26.18.71 0 .42-.23.74t-.64.5-.94.18m5.09.01q-.71 0-1.27-.31t-.87-.86-.32-1.28v-.12q0-.72.32-1.27t.88-.86 1.26-.31q.53 0 .97.2.43.19.73.54l-.5.5q-.46-.49-1.2-.49-.48 0-.85.21-.38.21-.6.59t-.21.89v.12q0 .51.22.9.22.38.6.59.37.21.85.21.73 0 1.21-.48l.49.49q-.29.35-.73.55-.45.19-.98.19m4.04-.1q-.59 0-.94-.33-.36-.34-.36-.9v-5.38h-.88v-.69h1.69v6.08q0 .23.15.38t.38.15h.46v.69zm3.38.1q-.69 0-1.23-.31-.54-.32-.85-.88t-.31-1.29v-.09q0-.71.31-1.26.31-.56.85-.87t1.23-.31 1.23.31.85.86.31 1.25v.11q0 .73-.31 1.29t-.85.88-1.23.31m0-.72q.47 0 .83-.22.35-.23.55-.62.2-.4.2-.92v-.11q0-.75-.44-1.22-.44-.48-1.14-.48-.46 0-.82.22t-.56.61-.21.89v.09q0 .52.21.92.2.39.56.62t.82.22m4.88.71q-.53 0-1-.16-.46-.17-.75-.43l.36-.56q.27.23.64.37t.75.14q.45 0 .73-.2t.28-.54q0-.28-.19-.43-.19-.16-.48-.24l-.62-.18q-.33-.08-.62-.22-.3-.14-.48-.4-.19-.26-.19-.71 0-.63.48-1.03.47-.41 1.27-.41.45 0 .86.13.4.14.7.36l-.36.56q-.26-.19-.56-.3t-.65-.11q-.43 0-.7.2t-.27.54q0 .28.19.43t.49.24l.62.18q.34.08.64.23.3.14.49.41.18.26.18.71 0 .42-.23.74t-.64.5-.94.18m4.75.01q-.8 0-1.33-.47-.53-.48-.53-1.51v-2.93h.81v2.79q0 .77.35 1.08.34.3.86.3.54 0 .94-.36t.39-1.09v-2.72h.8V242h-.72v-.72q-.3.47-.74.65-.45.17-.83.17m3.79-.1v-4.81h.78v.77q.18-.46.54-.62.35-.17.79-.17h.41v.8h-.47q-.59 0-.91.29t-.33.89V242zm5.32.1q-.71 0-1.25-.31-.55-.32-.86-.88t-.3-1.29v-.1q0-.7.28-1.24.28-.55.79-.87t1.18-.32q.69 0 1.18.34t.73.96q.23.61.13 1.45h-3.48q.03.42.24.77.2.34.56.55.35.2.83.2.38 0 .68-.09.29-.09.51-.29l.46.5q-.28.3-.71.46-.44.16-.97.16m-.16-4.31q-.6 0-.97.38-.38.38-.46 1.01h2.7q-.01-.66-.36-1.02-.35-.37-.91-.37m2.97 4.21v-1.1h1.02v1.8q0 .43-.24.6-.25.16-.54.16h-.3v-.49h.3q.13 0 .2-.08.06-.08.06-.2V242zm6.44.1q-.69 0-1.23-.31-.54-.32-.85-.88t-.31-1.29v-.09q0-.71.31-1.26.31-.56.85-.87t1.23-.31 1.23.31.85.86.31 1.25v.11q0 .73-.31 1.29t-.85.88-1.23.31m0-.72q.47 0 .83-.22.35-.23.55-.62.2-.4.2-.92v-.11q0-.75-.44-1.22-.44-.48-1.14-.48-.46 0-.82.22t-.56.61-.21.89v.09q0 .52.21.92.2.39.56.62t.82.22m3.57.62v-4.81h.78v.77q.18-.46.54-.62.35-.17.79-.17h.41v.8h-.47q-.59 0-.91.29t-.33.89V242zm7.71.1q-.71 0-1.27-.31t-.87-.86-.32-1.28v-.12q0-.72.32-1.27t.88-.86 1.26-.31q.53 0 .97.2.43.19.73.54l-.5.5q-.46-.49-1.2-.49-.48 0-.85.21-.38.21-.59.59-.22.38-.22.89v.12q0 .51.22.9.22.38.6.59.37.21.85.21.73 0 1.21-.48l.49.49q-.29.35-.73.55-.45.19-.98.19m4.68 0q-.69 0-1.23-.31-.54-.32-.85-.88t-.31-1.29v-.09q0-.71.31-1.26.31-.56.85-.87t1.23-.31 1.23.31.85.86.31 1.25v.11q0 .73-.31 1.29t-.85.88-1.23.31m0-.72q.47 0 .83-.22.35-.23.55-.62.2-.4.2-.92v-.11q0-.75-.44-1.22-.44-.48-1.14-.48-.46 0-.82.22t-.56.61q-.21.39-.21.89v.09q0 .52.21.92.2.39.56.62t.82.22m3.57 2.62v-6.81h.76v.83q.28-.43.73-.68t.99-.25q.65 0 1.16.31t.81.86.29 1.27v.09q0 .74-.29 1.3t-.8.87-1.17.31q-.53 0-.96-.23t-.71-.65V244zm2.36-2.62q.45 0 .81-.21.35-.22.56-.62.2-.4.2-.93v-.09q0-.78-.44-1.25-.45-.47-1.13-.47-.46 0-.82.22t-.57.63-.21.94.21.94.57.62.82.22m2.95 2.62v-.69h.96q.21 0 .34-.14.12-.15.2-.35l.35-.77-1.98-4.86h.89l1.52 3.87 1.45-3.87h.89l-2.3 5.66q-.11.28-.27.54t-.43.44q-.27.17-.7.17zm5.86-2v-4.11h-.94v-.7h1.74V242zm-.05-5.87v-1.16h.9v1.16zm2.36 5.87v-4.81h.78v.77q.29-.5.75-.69.45-.18.84-.18.81 0 1.32.53.5.52.5 1.55V242h-.81v-2.71q0-.77-.34-1.11t-.88-.35-.95.38q-.4.37-.4 1.09v2.7zm5.14 2v-.68h2.87q.34 0 .53-.16.19-.17.19-.47 0-.28-.19-.43-.19-.16-.53-.16h-1.58q-.38 0-.57-.18-.2-.18-.23-.45t.12-.54l.32-.65q-.37-.23-.58-.59-.21-.37-.21-.82v-.09q0-.5.27-.88.26-.38.73-.59.46-.22 1.06-.22l.22.01.49-1.01h.81l-.62 1.15q.53.19.85.59t.31.93v.11q0 .51-.27.9-.26.39-.72.62-.47.22-1.07.22-.32 0-.62-.07l-.24.47q-.07.13-.04.29.02.15.27.15h1.41q.61 0 .99.32.38.31.38.93 0 .57-.38.94-.39.36-1.03.36zm2.2-4.02q.29 0 .58-.1t.49-.36.2-.7q0-.48-.35-.77-.36-.3-.92-.3t-.91.3q-.36.29-.36.77 0 .44.2.7t.5.36.57.1M1.13 257.5v-4.11H.19v-.7h1.74v4.81zm-.05-5.87v-1.16h.9v1.16zm3.69 5.96q-.53 0-.99-.16-.47-.17-.76-.43l.36-.56q.27.23.64.37t.75.14q.45 0 .73-.2t.28-.54q0-.28-.19-.43-.19-.16-.48-.24l-.62-.18q-.33-.08-.62-.22-.3-.14-.48-.4-.19-.26-.19-.71 0-.63.48-1.03.47-.41 1.27-.41.45 0 .86.13.4.14.7.36l-.36.56q-.26-.19-.56-.3t-.65-.11q-.43 0-.7.2t-.27.54q0 .28.19.43t.49.24l.63.18q.33.08.63.23.3.14.49.41.18.26.18.71 0 .42-.23.74t-.64.5-.94.18m6.62 0q-.53 0-.99-.16-.47-.17-.76-.43l.36-.56q.27.23.64.37t.75.14q.45 0 .73-.2t.28-.54q0-.28-.19-.43-.19-.16-.48-.24l-.62-.18q-.33-.08-.62-.22-.3-.14-.48-.4-.19-.26-.19-.71 0-.63.48-1.03.47-.41 1.27-.41.45 0 .86.13.4.14.7.36l-.36.56q-.26-.19-.56-.3t-.65-.11q-.43 0-.7.2t-.27.54q0 .28.19.43t.49.24l.63.18q.33.08.63.23.3.14.49.41.18.26.18.71 0 .42-.23.74t-.64.5-.94.18m4.6-.09q-.33 0-.63-.12-.31-.13-.5-.41-.2-.28-.2-.75v-2.83h-.87v-.7h.87v-1.19h.8v1.19h1.27v.7h-1.27v2.88q0 .23.16.39.15.15.38.15h.73v.69zm1.82 0v-4.81h.78v.77q.18-.46.54-.62.35-.17.79-.17h.41v.8h-.47q-.59 0-.91.29t-.33.89v2.85zm3.85 0v-4.11h-.94v-.7h1.74v4.81zm-.05-5.87v-1.16h.9v1.16zm4.5 5.97q-.71 0-1.27-.31t-.87-.86-.32-1.28v-.12q0-.72.32-1.27t.88-.86 1.26-.31q.53 0 .97.2.43.19.73.54l-.5.5q-.46-.49-1.2-.49-.48 0-.85.21-.38.21-.59.59-.22.38-.22.89v.12q0 .51.22.9.22.38.6.59.37.21.85.21.73 0 1.21-.48l.49.49q-.29.35-.73.55-.45.19-.98.19m4.39-.1q-.33 0-.63-.12-.31-.13-.5-.41-.2-.28-.2-.75v-2.83h-.87v-.7h.87v-1.19h.8v1.19h1.27v.7h-1.27v2.88q0 .23.16.39.15.15.38.15h.73v.69zm3.11 0q-.59 0-.94-.33-.36-.34-.36-.9v-5.38h-.88v-.69h1.69v6.08q0 .23.15.38t.38.15h.46v.69zm.65 2v-.69h.96q.21 0 .34-.14.12-.15.2-.35l.35-.77-1.98-4.86h.89l1.52 3.87 1.45-3.87h.89l-2.3 5.66q-.11.28-.27.54t-.43.44-.7.17zm7.63 0v-6.81h.76v.83q.28-.43.73-.68t.99-.25q.65 0 1.16.31t.81.86.29 1.27v.09q0 .74-.29 1.3t-.8.87-1.17.31q-.53 0-.96-.23t-.71-.65v2.78zm2.36-2.62q.45 0 .81-.21.35-.22.56-.62.2-.4.2-.93v-.09q0-.78-.44-1.25-.45-.47-1.13-.47-.46 0-.82.22t-.57.63-.21.94.21.94q.21.4.57.62t.82.22m3.56.62v-4.81h.78v.77q.18-.46.54-.62.35-.17.79-.17h.41v.8h-.47q-.59 0-.91.29t-.33.89v2.85zm5.3.1q-.69 0-1.23-.31-.54-.32-.85-.88t-.31-1.29v-.09q0-.71.31-1.26.31-.56.85-.87t1.23-.31 1.23.31.85.86.31 1.25v.11q0 .73-.31 1.29t-.85.88-1.23.31m0-.72q.47 0 .83-.22.35-.23.55-.62.2-.4.2-.92v-.11q0-.75-.44-1.22-.44-.48-1.14-.48-.46 0-.82.22t-.56.61-.21.89v.09q0 .52.21.92.2.39.56.62t.82.22m3.57.62v-7.3h.78v3.26q.29-.5.75-.69.45-.18.84-.18.81 0 1.32.53.5.52.5 1.55v2.83h-.81v-2.71q0-.77-.34-1.11t-.88-.35-.95.38q-.4.37-.4 1.09v2.7zm5.92 0v-4.11h-.94v-.7h1.74v4.81zm-.05-5.87v-1.16h.9v1.16zm4.84 5.97q-.56 0-1.01-.25-.45-.26-.73-.71v.86h-.74v-7.3h.81v3.27q.28-.41.71-.64t.96-.24q.65 0 1.16.31t.81.86q.29.55.29 1.27v.09q0 .74-.29 1.3t-.8.87-1.17.31m-.12-.72q.45 0 .81-.21.35-.22.56-.62.2-.4.2-.93v-.09q0-.78-.44-1.25-.45-.47-1.13-.47-.46 0-.82.22t-.57.63-.21.94.21.94q.21.4.57.62t.82.22m3.85.62v-4.11h-.94v-.7h1.74v4.81zm-.05-5.87v-1.16h.9v1.16zm4 5.87q-.33 0-.63-.12-.31-.13-.5-.41-.2-.28-.2-.75v-2.83h-.87v-.7h.87v-1.19h.8v1.19h1.27v.7h-1.27v2.88q0 .23.16.39.15.15.38.15h.73v.69zm3.76.1q-.71 0-1.25-.31-.55-.32-.85-.88-.31-.56-.31-1.29v-.1q0-.7.28-1.24.28-.55.79-.87t1.18-.32q.69 0 1.18.34t.73.96.13 1.45h-3.48q.03.42.24.77.2.34.56.55.35.2.83.2.38 0 .68-.09.29-.09.51-.29l.46.5q-.28.3-.71.46-.44.16-.97.16m-.16-4.31q-.6 0-.97.38-.38.38-.46 1.01h2.7q-.01-.66-.36-1.02-.35-.37-.91-.37m5.14 4.31q-.66 0-1.17-.31t-.8-.87-.29-1.3v-.09q0-.72.3-1.27.29-.55.8-.86t1.16-.31q.54 0 .97.24t.7.64v-3.27h.81v7.3h-.73v-.87q-.29.46-.74.72t-1.01.25m.11-.72q.47 0 .83-.22t.57-.62.21-.94-.21-.94-.57-.63-.83-.22q-.67 0-1.11.47t-.45 1.25v.09q0 .53.21.93t.55.62.8.21m3.72.62v-1.1h.98v1.1z"/></svg>