<svg xmlns="http://www.w3.org/2000/svg" width="600" height="300" viewBox="0 0 600 300"><path fill="#fff" d="M0 0h600v300H0z"/><path fill="#30ba78" d="M1.5 0h3v108.31h-3z"/><path fill="#0c322c" d="M18.58 17V3.7h4.52q2.05 0 3.3 1.05 1.26 1.04 1.26 3.04 0 1.59-.77 2.56t-2.1 1.31L28.06 17h-2.28l-3.04-5.13h-2.19V17zM23 5.39h-2.45v4.81H23q1.18 0 1.9-.6.73-.6.73-1.8 0-1.14-.73-1.77-.72-.64-1.9-.64m9.24 11.8q-1.56 0-2.5-.77t-.94-1.98q0-.8.47-1.44.48-.64 1.31-1.01.82-.37 1.91-.37 1.38 0 2.26.54v-1.01q0-1.01-.55-1.45-.56-.43-1.45-.43-.72 0-1.48.26-.76.27-1.31.82l-.86-1.29q.63-.69 1.65-1.07 1.01-.38 2.12-.38 1.65 0 2.68.88 1.04.87 1.04 2.56v2.97l.01 1.49q.01.75.05 1.49h-1.68v-.93q-.81 1.12-2.73 1.12m.51-1.39q.93 0 1.47-.39.55-.39.55-1.01 0-.61-.55-1-.54-.39-1.49-.39-.93 0-1.49.39t-.56 1 .56 1 1.51.4m8.32 1.2-3.61-9.2h1.94l2.64 7.02 2.64-7.02h1.94L43.03 17zm7.43 0V9.4h-1.71V7.8h3.59V17zm-.07-11.11V3.51h2.07v2.38zM56.85 17V3.7h4.29q2.05 0 3.31 1.08 1.25 1.09 1.25 3.01t-1.25 2.99-3.31 1.07h-2.32V17zm4.39-11.61h-2.42v4.81h2.42q1.12 0 1.81-.67.69-.66.69-1.74 0-1.09-.69-1.74-.69-.66-1.81-.66m8.43 11.8q-1.56 0-2.5-.77t-.94-1.98q0-.8.48-1.44.47-.64 1.3-1.01t1.91-.37q1.39 0 2.26.54v-1.01q0-1.01-.55-1.45t-1.44-.43q-.73 0-1.49.26-.76.27-1.31.82l-.85-1.29q.62-.69 1.64-1.07t2.12-.38q1.65 0 2.69.88 1.03.87 1.03 2.56v2.97l.01 1.49q.01.75.05 1.49h-1.67v-.93q-.82 1.12-2.74 1.12m.52-1.39q.93 0 1.47-.39t.54-1.01-.54-1-1.49-.39q-.93 0-1.5.39t-.56 1 .56 1q.57.4 1.52.4m9.27 1.2q-.65 0-1.27-.24-.61-.23-1.01-.8-.4-.56-.4-1.54V9.4h-1.62V7.8h1.62V5.54h1.86V7.8h2.26v1.6h-2.26v5.17q0 .36.25.6.24.23.59.23h1.42V17zm6.84.19q-1.39 0-2.43-.6t-1.63-1.66-.58-2.47v-.19q0-1.33.54-2.39.54-1.05 1.52-1.66t2.29-.61q1.35 0 2.31.67.96.66 1.41 1.86t.25 2.83H83.5q.12 1.1.87 1.84.75.73 2 .73 1.37 0 2.17-.74l1.06 1.12q-.55.62-1.4.95-.86.32-1.9.32m-.29-8.04q-1.06 0-1.69.67-.63.66-.78 1.75h4.66q-.02-1.14-.63-1.78t-1.56-.64M94.28 17q-1.18 0-1.89-.66-.72-.67-.72-1.79V4.73h-1.61v-1.6h3.48v11.46q0 .36.24.61.25.24.61.24h.91V17z"/><path fill="#4b7a70" d="M18.04 36.84v-8.4h2.84q1.17 0 2.1.52.92.51 1.46 1.43t.54 2.11v.14q0 .92-.31 1.69t-.87 1.33-1.3.87q-.75.31-1.62.31zm2.76-7.44h-1.74v6.48h1.74q.9 0 1.61-.41.71-.42 1.12-1.15t.41-1.68v-.14q0-.93-.41-1.62t-1.11-1.09-1.62-.39m8.13 7.56q-.85 0-1.51-.38-.65-.38-1.02-1.05-.36-.67-.36-1.55v-.12q0-.84.33-1.49.34-.65.95-1.04.61-.38 1.42-.38.82 0 1.41.41t.87 1.14.16 1.75h-4.17q.03.5.28.92.25.41.67.66.43.24 1 .24.46 0 .81-.11t.62-.34l.55.6q-.33.36-.85.55-.53.19-1.16.19m-.19-5.17q-.72 0-1.17.45-.45.46-.55 1.22h3.24q-.01-.8-.43-1.23-.42-.44-1.09-.44m5.28 5.05-2.3-5.77h1.01l1.8 4.63 1.79-4.63h1.01l-2.28 5.77zm6.75.12q-.85 0-1.5-.38-.66-.38-1.02-1.05-.37-.67-.37-1.55v-.12q0-.84.34-1.49.33-.65.94-1.04.62-.38 1.42-.38.83 0 1.42.41.58.4.87 1.14.28.74.16 1.75h-4.18q.04.5.28.92.25.41.68.66.42.24 1 .24.45 0 .81-.11.35-.1.62-.34l.55.6q-.34.36-.86.55t-1.16.19m-.19-5.17q-.72 0-1.17.45-.45.46-.55 1.22h3.24q-.01-.8-.43-1.23-.42-.44-1.09-.44m5.39 5.05q-.71 0-1.14-.4t-.42-1.08v-6.45h-1.06v-.83h2.03v7.3q0 .27.18.45t.46.18h.55v.83zm4.05.12q-.82 0-1.47-.38t-1.02-1.05-.37-1.55v-.1q0-.86.37-1.52.37-.67 1.02-1.04t1.47-.37 1.48.37 1.02 1.03.37 1.5v.13q0 .88-.37 1.55t-1.02 1.05-1.48.38m0-.86q.57 0 .99-.27t.67-.75.24-1.1v-.13q0-.9-.53-1.47t-1.37-.57q-.55 0-.98.27-.43.26-.68.73-.24.47-.24 1.07v.1q0 .63.24 1.1.25.48.68.75t.98.27m4.29 3.14v-8.17h.91v.99q.34-.51.87-.81t1.19-.3q.78 0 1.4.37t.96 1.03q.36.66.36 1.53v.1q0 .89-.35 1.56-.35.68-.96 1.05t-1.41.37q-.63 0-1.15-.28t-.85-.78v3.34zm2.83-3.14q.54 0 .97-.26t.67-.74.24-1.12v-.1q0-.94-.53-1.5t-1.35-.57q-.55 0-.98.27-.44.26-.69.75-.25.48-.25 1.13t.25 1.13.69.74.98.27m6.78.86q-.85 0-1.51-.38-.65-.38-1.02-1.05-.36-.67-.36-1.55v-.12q0-.84.33-1.49.34-.65.95-1.04.61-.38 1.42-.38.83 0 1.41.41.59.4.87 1.14t.17 1.75H62q.04.5.28.92.25.41.67.66.43.24 1.01.24.45 0 .81-.11.35-.1.61-.34l.56.6q-.34.36-.86.55t-1.16.19m-.19-5.17q-.72 0-1.17.45-.45.46-.55 1.22h3.24q-.01-.8-.43-1.23-.42-.44-1.09-.44m3.84 5.05v-5.77h.93v.92q.22-.55.65-.75.42-.2.95-.2h.49V32h-.56q-.71 0-1.1.35t-.39 1.07v3.42zm5.59 0 3.19-8.4h1.24l3.19 8.4h-1.06l-.85-2.29h-3.8l-.87 2.29zm2.23-3.17h3.15l-1.56-4.21zm8.58 3.29q-.79 0-1.4-.37t-.96-1.05-.35-1.56v-.1q0-.87.35-1.53.36-.66.97-1.03t1.39-.37q.65 0 1.16.28t.85.77v-3.92h.97v8.76h-.88V35.8q-.35.55-.89.85-.54.31-1.21.31m.13-.86q.57 0 1-.27.43-.26.68-.74t.26-1.13q0-.65-.26-1.13-.25-.49-.68-.75-.43-.27-1-.27-.8 0-1.33.57-.54.56-.54 1.5v.1q0 .64.25 1.12.24.48.66.74t.96.26m6.17.74-2.29-5.77h1.01l1.8 4.63 1.79-4.63h1l-2.28 5.77zm6.73.12q-.82 0-1.47-.38t-1.02-1.05-.37-1.55v-.1q0-.86.37-1.52.37-.67 1.02-1.04t1.47-.37 1.48.37 1.02 1.03q.37.65.37 1.5v.13q0 .88-.37 1.55t-1.02 1.05-1.48.38m0-.86q.57 0 .99-.27t.67-.75q.24-.47.24-1.1v-.13q0-.9-.53-1.47T97 31.81q-.55 0-.98.27-.43.26-.68.73-.24.47-.24 1.07v.1q0 .63.24 1.1.25.48.68.75t.98.27m6.86.86q-.86 0-1.53-.37t-1.05-1.04-.38-1.53v-.14q0-.87.39-1.53.38-.66 1.05-1.03.66-.37 1.52-.37.63 0 1.15.23.53.24.89.66l-.6.6q-.56-.59-1.44-.59-.58 0-1.03.25t-.71.71-.26 1.07v.14q0 .61.27 1.07.26.47.71.72t1.03.25q.87 0 1.45-.58l.59.59q-.35.42-.88.66-.54.23-1.17.23m5.02 0q-.98 0-1.57-.48t-.6-1.25q0-.5.3-.9.3-.39.82-.63.53-.23 1.17-.23.95 0 1.52.39v-.72q0-.7-.37-1.01t-.99-.31q-.47 0-.95.18-.49.17-.84.53l-.45-.68q.38-.45 1-.67.63-.23 1.29-.23 1.02 0 1.64.54.63.54.63 1.61v1.84q0 .96.03 1.9h-.86l-.01-.58q-.54.7-1.76.7m.26-.73q.66 0 1.02-.28.37-.27.37-.72t-.37-.71q-.36-.27-1.04-.27-.66 0-1.04.27t-.38.71.39.72 1.05.28m5.97.61q-.39 0-.76-.15t-.6-.49q-.23-.33-.23-.9v-3.39h-1.05v-.84h1.05v-1.43h.96v1.43H116v.84h-1.52v3.45q0 .28.18.47.19.18.46.18h.88v.83zm4.51.12q-.85 0-1.5-.38-.66-.38-1.02-1.05-.37-.67-.37-1.55v-.12q0-.84.34-1.49.33-.65.95-1.04.61-.38 1.41-.38.83 0 1.42.41t.87 1.14q.28.74.16 1.75h-4.18q.04.5.29.92.24.41.67.66.42.24 1 .24.46 0 .81-.11t.62-.34l.55.6q-.34.36-.86.55t-1.16.19m-.19-5.17q-.72 0-1.17.45-.45.46-.54 1.22h3.24q-.02-.8-.44-1.23-.42-.44-1.09-.44m3.57 5.05v-1.32h1.22v2.16q0 .52-.29.71-.3.2-.65.2h-.36V38h.36q.16 0 .24-.09.08-.1.08-.24v-.83zm5.38 0v-8.4h1.02v4.68l3.81-4.68h1.2l-2.87 3.55 3.11 4.85h-1.24l-2.55-4.01-1.46 1.79v2.22zm9.08.12q-.96 0-1.6-.57t-.64-1.81v-3.51h.98v3.35q0 .92.41 1.29.41.36 1.04.36.65 0 1.12-.43t.47-1.31v-3.26h.96v5.77h-.86v-.86q-.36.56-.89.77-.54.21-.99.21m7.52 0q-.67 0-1.21-.31-.54-.3-.88-.84v1.03H142v-8.76h.98V32q.33-.49.85-.77.51-.28 1.15-.28.78 0 1.39.37t.97 1.03q.35.66.35 1.53v.1q0 .89-.35 1.56-.34.68-.96 1.05t-1.4.37m-.14-.86q.54 0 .96-.26.43-.26.67-.74t.25-1.12v-.1q0-.94-.53-1.5-.54-.57-1.35-.57-.56 0-.99.27-.43.26-.68.75-.25.48-.25 1.13t.25 1.13.68.74.99.27m6.78.86q-.86 0-1.51-.38t-1.02-1.05-.37-1.55v-.12q0-.84.34-1.49t.95-1.04q.61-.38 1.41-.38.83 0 1.42.41t.87 1.14q.28.74.16 1.75h-4.17q.03.5.28.92.24.41.67.66.43.24 1 .24.46 0 .81-.11t.62-.34l.55.6q-.33.36-.86.55-.52.19-1.15.19m-.2-5.17q-.72 0-1.17.45-.45.46-.54 1.22h3.24q-.01-.8-.43-1.23-.42-.44-1.1-.44m3.84 5.05v-5.77h.94v.92q.22-.55.64-.75t.96-.2h.49V32h-.57q-.7 0-1.09.35t-.39 1.07v3.42zm4.17 0v-5.77h.93v.92q.35-.6.9-.82.54-.22 1.01-.22.97 0 1.58.63t.61 1.86v3.4h-.98v-3.25q0-.93-.41-1.34t-1.05-.41q-.66 0-1.14.45t-.48 1.31v3.24zm9.25.12q-.85 0-1.51-.38-.65-.38-1.02-1.05-.36-.67-.36-1.55v-.12q0-.84.33-1.49.34-.65.95-1.04.61-.38 1.42-.38.83 0 1.41.41.59.4.87 1.14t.17 1.75h-4.18q.04.5.28.92.25.41.67.66.43.24 1.01.24.45 0 .81-.11.35-.1.61-.34l.56.6q-.34.36-.86.55t-1.16.19m-.19-5.17q-.72 0-1.17.45-.45.46-.55 1.22h3.24q-.01-.8-.43-1.23-.42-.44-1.09-.44m5.76 5.05q-.4 0-.76-.15-.37-.15-.6-.49-.24-.33-.24-.9v-3.39h-1.04v-.84h1.04v-1.43h.96v1.43h1.53v.84h-1.53v3.45q0 .28.19.47.18.18.46.18h.88v.83zm4.51.12q-.85 0-1.51-.38-.65-.38-1.02-1.05-.36-.67-.36-1.55v-.12q0-.84.33-1.49.34-.65.95-1.04.61-.38 1.42-.38.83 0 1.41.41.59.4.87 1.14t.17 1.75h-4.18q.04.5.28.92.25.41.67.66.43.24 1.01.24.45 0 .81-.11.35-.1.61-.34l.56.6q-.34.36-.86.55t-1.16.19m-.19-5.17q-.72 0-1.17.45-.45.46-.55 1.22h3.24q-.01-.8-.43-1.23-.42-.44-1.09-.44m5.43 5.16q-.63 0-1.19-.2t-.91-.51l.44-.67q.32.27.76.44.45.17.9.17.54 0 .88-.25.34-.24.34-.64 0-.33-.23-.52t-.58-.29l-.74-.2q-.4-.1-.75-.27-.36-.17-.58-.48t-.22-.85q0-.76.57-1.25.57-.48 1.53-.48.54 0 1.03.16.48.16.84.43l-.43.67q-.31-.23-.68-.36-.36-.13-.77-.13-.52 0-.84.24-.33.25-.33.64 0 .34.23.52t.58.29.76.21.76.27.58.5q.23.31.23.85 0 .51-.28.89-.28.39-.77.6-.49.22-1.13.22"/><path fill="#30ba78" d="M17.9 64.44v-5.77h.94v.92q.21-.55.64-.75.42-.2.95-.2h.49v.96h-.56q-.71 0-1.1.35t-.39 1.07v3.42zm5.63.12q-.99 0-1.58-.48t-.59-1.25q0-.5.3-.9.3-.39.82-.63t1.17-.23q.95 0 1.51.39v-.72q0-.7-.37-1.01-.36-.31-.99-.31-.46 0-.95.18t-.83.53l-.46-.68q.38-.45 1.01-.67.62-.23 1.28-.23 1.02 0 1.65.54t.62 1.61v1.84q0 .96.04 1.9h-.87l-.01-.58q-.54.7-1.75.7m.25-.73q.66 0 1.03-.28.36-.27.36-.72t-.36-.71-1.04-.27q-.66 0-1.05.27-.38.27-.38.71t.39.72 1.05.28m5.51.61L27 58.67h1l1.8 4.63 1.79-4.63h1.01l-2.28 5.77zm4.81 0v-4.93h-1.13v-.84h2.09v5.77zm-.06-7.04V56h1.08v1.4zm2.65 7.04v-1.32h1.18v1.32zm2.8 2.4v-8.17h.91v.99q.34-.51.87-.81t1.19-.3q.78 0 1.4.37t.96 1.03q.36.66.36 1.53v.1q0 .89-.35 1.56-.35.68-.96 1.05t-1.41.37q-.63 0-1.15-.28t-.85-.78v3.34zm2.83-3.14q.54 0 .97-.26t.67-.74.24-1.12v-.1q0-.94-.53-1.5t-1.35-.57q-.55 0-.98.27-.44.26-.69.75-.25.48-.25 1.13t.25 1.13.69.74.98.27m6 .86q-.98 0-1.58-.48-.59-.48-.59-1.25 0-.5.3-.9.3-.39.82-.63t1.17-.23q.95 0 1.51.39v-.72q0-.7-.36-1.01-.37-.31-.99-.31-.47 0-.96.18-.48.17-.83.53l-.46-.68q.39-.45 1.01-.67t1.28-.23q1.02 0 1.65.54t.62 1.61v1.84q0 .96.04 1.9h-.87l-.01-.58q-.54.7-1.75.7m.25-.73q.66 0 1.03-.28.36-.27.36-.72t-.36-.71-1.04-.27q-.66 0-1.04.27-.39.27-.39.71t.39.72 1.05.28m5.98.61q-.4 0-.76-.15-.37-.15-.6-.49-.24-.33-.24-.9v-3.39h-1.04v-.84h1.04v-1.43h.96v1.43h1.53v.84h-1.53v3.45q0 .28.19.47.18.18.46.18h.88v.83zm4.51.12q-.85 0-1.51-.38-.65-.38-1.02-1.05-.36-.67-.36-1.55v-.12q0-.84.33-1.49.34-.65.95-1.04.61-.38 1.42-.38.83 0 1.41.41.59.4.87 1.14t.17 1.75h-4.18q.04.5.28.92.25.41.67.66.43.24 1.01.24.45 0 .81-.11.35-.1.61-.34l.56.6q-.34.36-.86.55t-1.16.19m-.19-5.17q-.72 0-1.17.45-.45.46-.55 1.22h3.24q-.01-.8-.43-1.23-.42-.44-1.09-.44m5.39 5.05q-.71 0-1.14-.4t-.42-1.08v-6.45h-1.06v-.83h2.03v7.3q0 .27.18.45t.45.18h.56v.83zm6.27 1.9q-1.45 0-2.56-.62t-1.73-1.75q-.63-1.14-.63-2.69 0-1.14.36-2.06T67 57.63q.66-.67 1.58-1.03.91-.36 2-.36 1.4 0 2.47.58t1.67 1.61.6 2.41q0 1.34-.57 2.1t-1.46.76q-.51 0-.91-.26t-.56-.73q-.24.47-.65.73t-.97.26q-.6 0-1.07-.3-.47-.29-.74-.81-.27-.53-.27-1.22 0-.71.27-1.23t.74-.81 1.05-.29q.52 0 .9.2.39.21.63.59v-.71h.77v2.81q0 .49.26.76.26.26.61.26.49 0 .84-.52t.35-1.51q0-1.17-.5-2.07-.51-.9-1.4-1.41t-2.06-.5q-1.22 0-2.17.54-.94.54-1.47 1.52-.54.98-.54 2.27 0 1.33.53 2.31.52.97 1.44 1.5.93.54 2.15.54.79 0 1.45-.25t1.24-.7l.33.63q-.62.5-1.36.77t-1.65.27m-.23-3.38q.63 0 1.01-.43.37-.43.37-1.16t-.37-1.17-1.01-.43q-.62 0-1 .44-.39.44-.39 1.16t.39 1.16q.38.43 1 .43m8.09 1.59q-.63 0-1.19-.2t-.91-.51l.43-.67q.33.27.77.44.45.17.9.17.54 0 .88-.25.33-.24.33-.64 0-.33-.22-.52-.23-.19-.58-.29l-.74-.2q-.4-.1-.75-.27-.36-.17-.58-.48t-.22-.85q0-.76.57-1.25.57-.48 1.53-.48.54 0 1.02.16.49.16.85.43l-.43.67q-.31-.23-.68-.36t-.77-.13q-.52 0-.84.24-.33.25-.33.64 0 .34.23.52t.58.29.76.21.76.27q.36.18.58.5.22.31.22.85 0 .51-.27.89-.28.39-.77.6-.49.22-1.13.22m5.7.01q-.96 0-1.59-.57t-.64-1.81v-3.51h.97v3.35q0 .92.42 1.29.41.36 1.03.36.65 0 1.13-.43t.47-1.31v-3.26h.96v5.77h-.86v-.86q-.36.56-.9.77-.53.21-.99.21m6.15-.01q-.64 0-1.2-.2t-.9-.51l.43-.67q.32.27.77.44.44.17.9.17.54 0 .87-.25.34-.24.34-.64 0-.33-.23-.52t-.58-.29l-.74-.2q-.4-.1-.75-.27t-.58-.48q-.22-.31-.22-.85 0-.76.57-1.25.57-.48 1.53-.48.54 0 1.03.16.48.16.84.43l-.43.67q-.31-.23-.68-.36-.36-.13-.77-.13-.52 0-.84.24-.32.25-.32.64 0 .34.22.52.23.18.59.29.35.11.75.21t.76.27.59.5q.22.31.22.85 0 .51-.28.89-.27.39-.77.6-.49.22-1.12.22m6.04.01q-.85 0-1.5-.38-.66-.38-1.02-1.05-.37-.67-.37-1.55v-.12q0-.84.34-1.49.33-.65.95-1.04.61-.38 1.41-.38.83 0 1.42.41t.87 1.14.16 1.75h-4.18q.04.5.29.92.24.41.67.66.42.24 1 .24.46 0 .81-.11t.62-.34l.55.6q-.34.36-.86.55t-1.16.19m-.19-5.17q-.72 0-1.17.45-.45.46-.54 1.22h3.24q-.02-.8-.44-1.23-.42-.44-1.09-.44m3.66 5.05v-1.32h1.18v1.32zm5.21.12q-.85 0-1.52-.37-.68-.37-1.05-1.04-.38-.67-.38-1.53v-.14q0-.87.38-1.53.39-.66 1.05-1.03.67-.37 1.52-.37.64 0 1.16.23t.88.66l-.6.6q-.55-.59-1.44-.59-.58 0-1.03.25t-.7.71-.26 1.07v.14q0 .61.26 1.07.27.47.72.72t1.02.25q.88 0 1.45-.58l.59.59q-.35.42-.88.66-.53.23-1.17.23m5.62 0q-.83 0-1.48-.38t-1.02-1.05-.37-1.55v-.1q0-.86.37-1.52.37-.67 1.02-1.04t1.48-.37q.82 0 1.47.37t1.02 1.03.37 1.5v.13q0 .88-.37 1.55t-1.02 1.05-1.47.38m0-.86q.56 0 .99-.27t.66-.75.24-1.1v-.13q0-.9-.53-1.47-.52-.57-1.36-.57-.56 0-.99.27-.43.26-.68.73-.24.47-.24 1.07v.1q0 .63.24 1.1.25.48.68.75t.99.27m4.28.74v-5.77h.92v.91q.34-.59.85-.81t.99-.22q.62 0 1.1.27.47.28.71.86.25-.44.6-.68t.7-.35q.37-.1.69-.1.94 0 1.53.6.59.61.59 1.86v3.43h-.95v-3.31q0-.89-.39-1.29-.38-.4-1-.4-.65 0-1.08.43-.44.44-.44 1.26v3.31h-.96v-3.31q0-.89-.37-1.29-.38-.4-1.01-.4-.64 0-1.08.43-.44.44-.44 1.26v3.31z"/><path fill="#0c322c" d="M18.04 83.63v-8.4h1.37l2.43 5.03 2.41-5.03h1.37v8.4h-1v-7.08l-2.39 5.08h-.8l-2.38-5.08v7.08zm9.33-4.45v-1.32h1.2v1.32zm0 4.45v-1.32h1.2v1.32zm11.1-1.42v-2.38H36.1v-.81h2.37v-2.39h.83v2.39h2.38v.81H39.3v2.38zm6.01 1.42 2.33-3.16q-.47.2-1.01.2-.8 0-1.42-.36-.62-.35-.96-.98-.35-.62-.35-1.42 0-.84.37-1.47t1.04-.98q.66-.35 1.53-.35.9 0 1.56.35t1.02.98.36 1.51q0 .57-.21 1.11t-.57 1.07l-2.45 3.5zM46 79.81q.86 0 1.39-.53.54-.53.54-1.39t-.52-1.37-1.39-.52q-.84 0-1.38.53-.54.52-.54 1.36t.53 1.38 1.37.54m4.74 3.82v-.94h2.2v-5.92q0-.27-.16-.44t-.42-.16h-1.6v-.94h1.85q.59 0 .96.38t.37.95v6.13h2.18v.94zm10.94 0 2.33-3.16q-.47.2-1.01.2-.8 0-1.42-.36-.62-.35-.97-.98-.35-.62-.35-1.42 0-.84.38-1.47.37-.63 1.03-.98.67-.35 1.53-.35.9 0 1.56.35t1.02.98.36 1.51q0 .57-.21 1.11t-.57 1.07l-2.44 3.5zm1.51-3.82q.87 0 1.4-.53t.53-1.39q0-.85-.52-1.37T63.22 76q-.84 0-1.38.53-.54.52-.54 1.36t.53 1.38 1.36.54m7.29 3.94q-.92 0-1.6-.3t-1.07-.84-.38-1.27q0-.77.44-1.32.43-.55 1.19-.79-.62-.24-.97-.75-.35-.5-.35-1.17t.34-1.16.95-.76q.62-.28 1.45-.28.82 0 1.44.28.62.27.96.76.33.5.33 1.16t-.35 1.17-.97.75q.76.24 1.2.79t.43 1.32q0 .72-.38 1.26-.38.55-1.07.85-.68.3-1.59.3m0-4.88q.79 0 1.26-.39.48-.39.48-1.04t-.48-1.04-1.26-.39q-.8 0-1.27.39t-.47 1.04.47 1.04 1.27.39m0 3.99q.88 0 1.44-.45t.56-1.17-.56-1.14q-.56-.43-1.44-.43t-1.44.43-.57 1.14.56 1.17 1.45.45m5.11.77 3.84-7.49H74.8v-.91h5.77v.71l-3.85 7.69zm9.36.12q-.9 0-1.56-.35t-1.02-.99-.36-1.5q0-.57.21-1.11t.57-1.07l2.45-3.5h1.23l-2.33 3.16q.47-.2 1.01-.2.81 0 1.42.36.62.35.97.98.35.62.35 1.42 0 .84-.37 1.47-.38.63-1.04.98-.67.35-1.53.35m-.01-.89q.84 0 1.38-.53.54-.52.54-1.36t-.54-1.38q-.53-.54-1.36-.54-.88 0-1.4.53-.53.53-.53 1.39t.52 1.37 1.39.52m6.9.89q-.88 0-1.55-.29-.66-.3-1.12-.74l.58-.69q.36.35.88.6.52.26 1.22.26.95 0 1.5-.52t.55-1.39q0-.77-.44-1.26-.45-.48-1.28-.48-.62 0-1.05.3t-.63.79h-.82l.13-3.9q.01-.53.38-.86.37-.34.91-.34h3.4v.91h-3.2q-.22 0-.38.13-.16.14-.18.35l-.09 2.43q.29-.32.72-.5.44-.19 1.02-.19.77 0 1.33.33.56.32.87.9t.31 1.34q0 .89-.39 1.52t-1.09.96-1.58.34m7.18-2.16v-.84l2.8-5.52h1.03l-2.72 5.45h2.77v-2.26h.98v2.26h1.32v.91h-1.32v2.04h-.98v-2.04zm9.98 2.16q-.92 0-1.58-.29t-1.14-.74l.59-.69q.37.36.89.61t1.25.25q.89 0 1.43-.44.54-.43.54-1.12 0-.66-.53-1.07-.52-.41-1.41-.41h-1.2v-.89h1.13q.84 0 1.32-.44.47-.43.47-1.07 0-.67-.48-1.06t-1.27-.39q-.67 0-1.15.23t-.78.55l-.58-.71q.41-.4 1.06-.68.64-.28 1.47-.28.81 0 1.42.27.62.27.96.77.35.51.35 1.18 0 .65-.33 1.18-.33.54-.96.82.76.28 1.13.82t.37 1.22q0 .71-.38 1.25-.39.53-1.06.83t-1.53.3m4.69-.12v-.76l3.09-3.12q.65-.66.88-1.14.23-.49.23-.94 0-.75-.44-1.17-.44-.43-1.18-.43-.58 0-1.08.32t-.89.89l-.66-.63q.46-.71 1.15-1.13.7-.41 1.51-.41.8 0 1.38.31.59.3.92.86.32.56.32 1.29 0 .61-.29 1.27-.3.66-1.14 1.5l-2.34 2.37h4.11v.92zm7.44 0v-.94h2.21v-5.92q0-.27-.17-.44-.16-.16-.42-.16h-1.6v-.94H123q.59 0 .96.38t.37.95v6.13h2.19v.94zm9.74.12q-1.43 0-2.24-1.14t-.82-3.17q0-1.35.37-2.33.36-.97 1.05-1.48.68-.52 1.64-.52t1.64.52 1.06 1.48q.36.98.36 2.33 0 2.03-.81 3.17t-2.25 1.14m0-.92q.96 0 1.5-.89.54-.88.54-2.5t-.54-2.52-1.5-.89-1.5.89-.54 2.52q0 1.62.54 2.5.54.89 1.5.89"/><path fill="#4b7a70" d="M21.99 105.55q-1.33 0-2.34-.57-1.02-.56-1.59-1.6t-.58-2.46q0-1.05.33-1.89.33-.85.94-1.46t1.45-.94 1.84-.33q1.28 0 2.26.53.98.52 1.53 1.47.55.96.55 2.21 0 1.23-.52 1.93-.52.69-1.34.69-.47 0-.83-.24-.37-.23-.52-.66-.22.43-.59.66-.38.24-.89.24-.55 0-.98-.27t-.68-.75-.25-1.12.25-1.12.68-.75.97-.26q.47 0 .82.19.35.18.57.54v-.65h.71v2.57q0 .45.24.69.24.25.56.25.45 0 .77-.48t.32-1.38q0-1.08-.46-1.91t-1.28-1.28q-.81-.46-1.89-.46-1.12 0-1.99.49-.86.5-1.35 1.39-.49.9-.49 2.09 0 1.22.48 2.11t1.32 1.38q.85.49 1.97.49.73 0 1.33-.23.61-.22 1.14-.64l.31.58q-.58.45-1.26.7t-1.51.25m-.2-3.09q.57 0 .91-.4.35-.39.35-1.07 0-.67-.35-1.06-.34-.4-.91-.4t-.93.4-.35 1.06.35 1.07.93.4m5.95 1.35v-5.29h.85v.85q.2-.51.59-.69t.88-.18h.45v.88h-.52q-.65 0-1.01.32-.35.32-.35.98v3.13zm5.16.11q-.91 0-1.45-.44-.55-.44-.55-1.14 0-.47.28-.83.27-.36.75-.58t1.08-.21q.86 0 1.38.36v-.66q0-.65-.33-.93-.34-.28-.91-.28-.43 0-.88.16-.44.16-.76.49l-.42-.63q.35-.4.92-.61t1.18-.21q.94 0 1.51.49.57.5.57 1.48v1.69q0 .88.03 1.74h-.79l-.01-.53q-.49.64-1.6.64m.23-.67q.6 0 .94-.25.33-.26.33-.66t-.33-.66q-.34-.25-.96-.25-.6 0-.95.25t-.35.66q0 .39.35.65.36.26.97.26m5.04.56-2.1-5.29H37l1.65 4.25 1.64-4.25h.92l-2.09 5.29zm4.42 0v-4.52h-1.04v-.77h1.92v5.29zm-.06-6.46v-1.27h.99v1.27zm7.44 6.57q-.76 0-1.36-.35-.59-.34-.93-.96t-.34-1.42v-.1q0-.78.34-1.39t.93-.95 1.36-.34 1.35.34.93.94.35 1.38v.12q0 .81-.35 1.42-.34.62-.93.96-.59.35-1.35.35m0-.79q.51 0 .9-.25.4-.25.62-.68t.22-1.01v-.12q0-.82-.49-1.35-.48-.52-1.25-.52-.51 0-.9.24-.4.25-.63.67t-.22.98v.1q0 .57.22 1.01.23.43.63.68.39.25.9.25m3.92.68v-5.29h.86v.85q.32-.55.82-.76t.93-.2q.89 0 1.45.58.55.57.55 1.71v3.11h-.89v-2.98q0-.85-.38-1.23t-.96-.38q-.6 0-1.05.42-.44.41-.44 1.2v2.97zm10.79.13q-.81 0-1.42-.29t-1.03-.8l.6-.59q.79.88 1.89.88.77 0 1.21-.39.45-.38.45-1 0-.44-.22-.71-.21-.27-.56-.43t-.78-.28l-.86-.25q-.42-.14-.78-.36-.35-.22-.57-.58t-.21-.93q0-.68.32-1.18t.89-.78q.58-.27 1.35-.27.69 0 1.24.23t.92.63l-.61.6q-.32-.33-.7-.49-.38-.17-.85-.17-.74 0-1.18.37-.45.37-.45.97 0 .42.22.67.21.25.57.39t.78.26q.43.11.86.25t.79.36.58.6.22.97q0 .72-.34 1.23-.33.52-.94.81-.6.28-1.39.28m5.35-.13q-.65 0-1.04-.37t-.39-.98v-5.92h-.97v-.76h1.86v6.69q0 .25.17.42.16.16.42.16h.5v.76zm3.15.11q-.9 0-1.45-.44t-.54-1.14q0-.47.27-.83.28-.36.75-.58.48-.21 1.08-.21.87 0 1.38.36v-.66q0-.65-.33-.93-.34-.28-.91-.28-.43 0-.87.16-.45.16-.77.49l-.42-.63q.35-.4.93-.61.57-.21 1.17-.21.94 0 1.51.49.57.5.57 1.48v1.69q0 .88.04 1.74h-.8l-.01-.53q-.49.64-1.6.64m.23-.67q.6 0 .94-.25.33-.26.33-.66t-.33-.66q-.34-.25-.95-.25t-.96.25-.35.66q0 .39.36.65.35.26.96.26m6.09.67q-.78 0-1.39-.34-.62-.34-.97-.95t-.34-1.4v-.14q0-.79.35-1.39.35-.61.96-.95t1.39-.34q.58 0 1.06.21.48.22.81.6l-.55.55q-.5-.54-1.32-.54-.53 0-.94.24t-.65.64q-.23.42-.23.98v.14q0 .56.24.98t.65.65.94.24q.81 0 1.33-.53l.54.54q-.32.38-.81.6t-1.07.21m3.03-.11v-8.03h.89v5.26l2.44-2.52h1.1l-2.01 2.1 2.18 3.19h-1.11l-1.71-2.54-.89.93v1.61z"/><path fill="#0c322c" fill-opacity=".1" d="M0 122.81h165.75v1H0z"/><path fill="#0c322c" fill-opacity=".2" d="M111.98 152.33v-12.65h1.11v12.65z"/><path fill="#4b7a70" d="M123.62 150.41q-.59 0-1.1-.18t-.83-.47l.4-.62q.3.26.7.41.41.16.83.16.49 0 .8-.23t.31-.59q0-.31-.21-.48t-.53-.26l-.68-.19q-.36-.09-.69-.25-.32-.15-.53-.44-.2-.28-.2-.78 0-.69.52-1.14.53-.44 1.41-.44.49 0 .94.15t.77.39l-.39.61q-.29-.2-.63-.33-.33-.12-.71-.12-.47 0-.77.23-.29.22-.29.59 0 .31.21.47.21.17.53.26l.69.2q.37.09.7.25t.54.45.2.79q0 .46-.25.81-.26.35-.71.55t-1.03.2m5.22.01q-.88 0-1.46-.52t-.58-1.66v-3.22h.89v3.07q0 .85.38 1.18.38.34.95.34.59 0 1.03-.4.43-.4.43-1.2v-2.99h.88v5.29h-.79v-.79q-.33.52-.82.71t-.91.19m5.64-.01q-.59 0-1.1-.18t-.83-.47l.4-.62q.29.26.7.41.41.16.83.16.49 0 .8-.23t.31-.59q0-.31-.21-.48t-.53-.26l-.68-.19q-.37-.09-.69-.25-.32-.15-.53-.44-.2-.28-.2-.78 0-.69.52-1.14t1.4-.44q.5 0 .94.15.45.15.78.39l-.4.61q-.28-.2-.62-.33-.33-.12-.71-.12-.47 0-.77.23-.3.22-.3.59 0 .31.21.47.21.17.54.26l.69.2q.37.09.7.25t.53.45.21.79q0 .46-.26.81-.25.35-.7.55t-1.03.2m5.54.01q-.78 0-1.38-.35t-.94-.96-.33-1.42v-.11q0-.77.31-1.37.3-.6.87-.95.56-.35 1.29-.35.76 0 1.3.37.54.38.8 1.05.26.68.15 1.6h-3.83q.03.47.26.85.22.38.61.6.39.23.92.23.42 0 .74-.1.33-.1.57-.32l.51.55q-.31.33-.79.5-.48.18-1.06.18m-.18-4.74q-.66 0-1.07.42t-.5 1.11h2.97q-.01-.73-.4-1.13-.38-.4-1-.4m3.36 4.63v-1.21h1.08v1.21zm4.77.11q-.78 0-1.4-.34t-.96-.95-.34-1.4v-.14q0-.79.35-1.39.35-.61.96-.95t1.39-.34q.59 0 1.06.21.48.22.81.6l-.55.55q-.5-.54-1.32-.54-.53 0-.94.24t-.65.64q-.23.42-.23.98v.14q0 .56.24.98t.65.65.94.24q.81 0 1.33-.53l.54.54q-.32.38-.81.6-.48.21-1.07.21m5.15 0q-.76 0-1.35-.35t-.94-.96-.34-1.42v-.1q0-.78.34-1.39t.94-.95 1.35-.34 1.35.34.94.94.34 1.38v.12q0 .81-.34 1.42-.34.62-.94.96-.59.35-1.35.35m0-.79q.52 0 .91-.25t.61-.68.22-1.01v-.12q0-.82-.49-1.35-.48-.52-1.25-.52-.51 0-.9.24-.4.25-.62.67-.23.43-.23.98v.1q0 .57.23 1.01.22.43.62.68.39.25.9.25m3.93.68v-5.29h.84v.84q.31-.54.78-.75t.91-.2q.57 0 1 .25.44.26.66.78.23-.39.54-.62t.65-.32.63-.09q.86 0 1.4.55.54.56.54 1.7v3.15h-.87v-3.04q0-.81-.35-1.18t-.92-.37q-.6 0-1 .4-.39.41-.39 1.15v3.04h-.88v-3.04q0-.81-.35-1.18t-.92-.37q-.59 0-.99.4t-.4 1.15v3.04z"/></svg>