<svg xmlns="http://www.w3.org/2000/svg" width="600" height="300" viewBox="0 0 600 300"><path fill="#fff" d="M0 0h600v300H0z"/><path fill="#30ba78" d="M1.5 0h3v127.5h-3z"/><path fill="#0c322c" d="m17.15 17 4.96-13.3h2.41L29.48 17h-2.03l-1.25-3.44h-5.76L19.19 17zm3.9-5.13h4.54l-2.26-6.23zM30.62 17V7.8h1.79v1.3q.53-.86 1.3-1.17.77-.32 1.49-.32.95 0 1.67.41.73.41 1.13 1.23.39-.65.94-1t1.11-.49 1.02-.15q1.5 0 2.44.96.95.96.95 2.9V17h-1.85v-5.26q0-1.28-.54-1.85t-1.45-.57-1.53.62-.62 1.78V17h-1.86v-5.26q0-1.28-.54-1.85-.55-.57-1.44-.57-.93 0-1.55.62-.61.62-.61 1.78V17zm16.63 0V9.4h-1.71V7.8h3.59V17zm-.08-11.11V3.51h2.07v2.38zM51.43 17V7.8h1.78v1.32q.57-.88 1.4-1.19.83-.32 1.51-.32 1.56 0 2.51 1.01t.95 2.95V17h-1.86v-5.15q0-1.35-.59-1.94t-1.5-.59q-.97 0-1.66.65t-.68 1.92V17zm13.11.19q-1.56 0-2.5-.77t-.94-1.98q0-.8.47-1.44.48-.64 1.31-1.01.82-.37 1.91-.37 1.38 0 2.26.54v-1.01q0-1.01-.55-1.45-.56-.43-1.45-.43-.72 0-1.48.26-.76.27-1.31.82l-.86-1.29q.63-.69 1.65-1.07 1.01-.38 2.12-.38 1.65 0 2.68.88 1.04.87 1.04 2.56v2.97l.01 1.49q.01.75.05 1.49h-1.68v-.93q-.81 1.12-2.73 1.12m.51-1.39q.93 0 1.47-.39.55-.39.55-1.01 0-.61-.55-1-.54-.39-1.49-.39-.93 0-1.49.39t-.56 1 .56 1 1.51.4m15.99 1.45q-1.86 0-3.33-.87-1.47-.86-2.32-2.41t-.84-3.58v-.15q0-2.02.84-3.55.85-1.53 2.32-2.38 1.47-.86 3.33-.86 1.88 0 3.35.86 1.46.85 2.3 2.38t.83 3.55v.15q0 2.03-.83 3.58-.84 1.55-2.3 2.41-1.47.87-3.35.87m0-1.94q1.3 0 2.3-.6 1.01-.6 1.58-1.71t.57-2.61v-.15q0-1.49-.57-2.57t-1.58-1.68q-1-.6-2.3-.6-1.31 0-2.31.6-1.01.6-1.58 1.68t-.57 2.57v.15q0 1.5.57 2.61t1.58 1.71q1 .6 2.31.6M89.21 17V3.13h1.86v8.74l3.86-4.07h2.3l-3.42 3.63L97.46 17h-2.3l-2.68-4.16-1.41 1.5V17zm11.88.19q-1.56 0-2.5-.77t-.94-1.98q0-.8.47-1.44.48-.64 1.31-1.01.82-.37 1.91-.37 1.38 0 2.26.54v-1.01q0-1.01-.55-1.45-.56-.43-1.45-.43-.72 0-1.48.26-.76.27-1.31.82l-.86-1.29q.63-.69 1.65-1.07 1.01-.38 2.12-.38 1.65 0 2.68.88 1.04.87 1.04 2.56v2.97l.01 1.49q.01.75.05 1.49h-1.68v-.93q-.81 1.12-2.73 1.12m.51-1.39q.93 0 1.47-.39.55-.39.55-1.01 0-.61-.55-1-.54-.39-1.49-.39-.93 0-1.49.39t-.56 1 .56 1 1.51.4m6.65 1.2V9.4h-1.65V7.8h1.65V5.7q0-1.18.74-1.88.74-.69 2-.69h1.54v1.56h-1.56q-.36 0-.61.25-.25.24-.25.6V7.8h2.42v1.6h-2.42V17zm9.24.19q-1.33 0-2.39-.61-1.05-.61-1.67-1.67t-.62-2.45v-.17q0-1.37.62-2.42.62-1.06 1.67-1.66 1.06-.6 2.39-.6t2.37.6 1.65 1.65.61 2.41v.19q0 1.39-.61 2.45-.6 1.06-1.65 1.67t-2.37.61m0-1.65q1.23 0 2-.86.77-.85.77-2.22v-.19q0-1.33-.77-2.17t-2-.83-2.02.84q-.78.85-.78 2.18v.17q0 1.37.78 2.22t2.02.86m6.34 1.46V7.8h1.81v1.41q.32-.84.99-1.15.68-.31 1.51-.31h.76v1.84h-.91q-1.1 0-1.7.52-.6.53-.6 1.57V17z"/><path fill="#4b7a70" d="M18.04 36.84v-8.4h2.61q1.26 0 2.03.67.78.66.78 1.86 0 1.19-.78 1.86-.77.66-2.03.66h-1.59v3.35zm2.66-7.51h-1.64v3.3h1.64q.78 0 1.26-.45.49-.45.49-1.21 0-.75-.49-1.2-.48-.44-1.26-.44m3.91 7.51v-5.77h.93v.92q.22-.55.65-.75.42-.2.95-.2h.49V32h-.56q-.71 0-1.1.35t-.39 1.07v3.42zm4.62 0v-4.93H28.1v-.84h2.09v5.77zm-.06-7.04v-1.4h1.08v1.4zM32 36.84v-5.77h.94v.92q.34-.6.89-.82t1.01-.22q.98 0 1.58.63t.61 1.86v3.4h-.97v-3.25q0-.93-.42-1.34-.41-.41-1.05-.41-.66 0-1.14.45t-.48 1.31v3.24zm9.31.12q-.85 0-1.52-.37t-1.05-1.04-.38-1.53v-.14q0-.87.38-1.53.39-.66 1.05-1.03.67-.37 1.52-.37.64 0 1.16.23t.88.66l-.6.6q-.55-.59-1.44-.59-.57 0-1.02.25t-.71.71-.26 1.07v.14q0 .61.26 1.07.27.47.72.72t1.02.25q.88 0 1.46-.58l.58.59q-.34.42-.88.66-.53.23-1.17.23m3.76-.12v-4.93h-1.13v-.84h2.09v5.77zm-.06-7.04v-1.4h1.08v1.4zm2.83 9.44v-8.17h.91v.99q.34-.51.87-.81.54-.3 1.2-.3.78 0 1.39.37t.96 1.03.36 1.53v.1q0 .89-.35 1.56-.35.68-.96 1.05t-1.4.37q-.64 0-1.16-.28t-.85-.78v3.34zm2.83-3.14q.54 0 .97-.26t.67-.74.25-1.12v-.1q0-.94-.54-1.5-.53-.57-1.35-.57-.55 0-.98.27-.43.26-.69.75-.25.48-.25 1.13t.25 1.13.69.74.98.27m6 .86q-.98 0-1.58-.48-.59-.48-.59-1.25 0-.5.3-.9.3-.39.82-.63t1.17-.23q.95 0 1.51.39v-.72q0-.7-.36-1.01-.37-.31-.99-.31-.47 0-.96.18-.48.17-.83.53l-.46-.68q.39-.45 1.01-.67.63-.23 1.29-.23 1.02 0 1.64.54t.62 1.61v1.84q0 .96.04 1.9h-.86l-.02-.58q-.54.7-1.75.7m.25-.73q.66 0 1.03-.28.37-.27.37-.72t-.37-.71-1.04-.27q-.66 0-1.04.27-.39.27-.39.71t.39.72 1.05.28m5.63.61q-.71 0-1.13-.4-.43-.4-.43-1.08v-6.45h-1.05v-.83h2.02v7.3q0 .27.18.45t.46.18h.55v.83zm5.77 0q-.57 0-.95-.38t-.38-.95v-5.74q0-.57.38-.95t.95-.38h3.88v.94h-3.55q-.28 0-.46.18-.19.19-.19.45v2.17h3.95v.9H68v2.19q0 .26.19.45.18.18.46.18h3.55v.94zm5.3 0v-5.77h.93v.92q.35-.6.9-.82.54-.22 1.01-.22.97 0 1.58.63.6.63.6 1.86v3.4h-.97v-3.25q0-.93-.41-1.34-.42-.41-1.05-.41-.66 0-1.14.45t-.48 1.31v3.24zm6.16 2.4v-.82h3.45q.41 0 .63-.19.23-.2.23-.56 0-.34-.23-.52-.22-.19-.63-.19h-1.9q-.45 0-.69-.22-.23-.21-.26-.54-.03-.32.14-.64l.38-.78q-.44-.28-.7-.72t-.25-.98v-.1q0-.6.32-1.06t.88-.71q.55-.26 1.27-.26l.27.01.59-1.21h.97l-.75 1.38q.64.23 1.02.71t.38 1.11v.13q0 .62-.32 1.08t-.88.74-1.28.27q-.38 0-.74-.08l-.29.56q-.08.16-.05.34t.33.19h1.69q.73 0 1.19.38t.45 1.12q0 .68-.46 1.12t-1.23.44zm2.64-4.82q.35 0 .7-.13t.59-.43.24-.84q0-.57-.43-.93-.42-.35-1.1-.35-.67 0-1.09.35-.43.36-.43.93 0 .53.24.84t.59.43q.36.13.69.13m4.28 2.42v-4.93h-1.13v-.84h2.09v5.77zm-.06-7.04v-1.4h1.08v1.4zm2.83 7.04v-5.77h.93v.92q.35-.6.9-.82.54-.22 1.01-.22.97 0 1.58.63t.61 1.86v3.4h-.98v-3.25q0-.93-.41-1.34t-1.05-.41q-.66 0-1.14.45t-.48 1.31v3.24zm9.25.12q-.85 0-1.51-.38-.65-.38-1.02-1.05-.36-.67-.36-1.55v-.12q0-.84.33-1.49.34-.65.95-1.04.61-.38 1.42-.38.83 0 1.41.41.59.4.87 1.14t.17 1.75H96.8q.04.5.28.92.25.41.67.66.43.24 1.01.24.45 0 .81-.11.35-.1.61-.34l.56.6q-.34.36-.86.55t-1.16.19m-.19-5.17q-.72 0-1.17.45-.45.46-.55 1.22h3.24q-.01-.8-.43-1.23-.42-.44-1.09-.44m6.35 5.17q-.86 0-1.51-.38t-1.02-1.05-.37-1.55v-.12q0-.84.34-1.49t.95-1.04q.61-.38 1.41-.38.83 0 1.42.41t.87 1.14q.28.74.16 1.75h-4.17q.03.5.28.92.24.41.67.66.43.24 1 .24.46 0 .81-.11t.62-.34l.55.6q-.33.36-.86.55-.52.19-1.15.19m-.2-5.17q-.72 0-1.17.45-.45.46-.54 1.22h3.24q-.01-.8-.43-1.23-.42-.44-1.1-.44m3.84 5.05v-5.77h.94v.92q.22-.55.64-.75t.96-.2h.49V32h-.57q-.7 0-1.09.35t-.39 1.07v3.42zm3.04 0v-1.32h1.22v2.16q0 .52-.29.71-.29.2-.64.2h-.36V38h.36q.15 0 .23-.09.08-.1.08-.24v-.83zm5.39 0v-8.4h2.7q1.27 0 2.04.64.78.64.78 1.87 0 1.05-.52 1.65-.53.6-1.43.78l2.2 3.46h-1.19l-2.1-3.37h-1.46v3.37zm2.66-7.52h-1.64v3.27h1.64q.82 0 1.32-.39.49-.4.49-1.23 0-.79-.49-1.22-.5-.43-1.32-.43m6.07 7.64q-.98 0-1.57-.48t-.6-1.25q0-.5.3-.9.3-.39.82-.63.53-.23 1.17-.23.95 0 1.52.39v-.72q0-.7-.37-1.01t-.99-.31q-.47 0-.95.18-.49.17-.84.53l-.45-.68q.38-.45 1-.67.63-.23 1.29-.23 1.02 0 1.64.54.63.54.63 1.61v1.84q0 .96.03 1.9h-.86l-.01-.58q-.54.7-1.76.7m.26-.73q.66 0 1.02-.28.37-.27.37-.72t-.37-.71q-.36-.27-1.04-.27-.66 0-1.04.27t-.38.71.39.72 1.05.28m4.08.61v-5.77h.93v.92q.35-.6.9-.82.54-.22 1.01-.22.97 0 1.58.63.6.63.6 1.86v3.4h-.97v-3.25q0-.93-.41-1.34-.42-.41-1.05-.41-.66 0-1.14.45t-.48 1.31v3.24zm9.31.12q-.85 0-1.53-.37-.67-.37-1.05-1.04-.37-.67-.37-1.53v-.14q0-.87.38-1.53t1.05-1.03 1.52-.37q.63 0 1.16.23t.88.66l-.6.6q-.55-.59-1.44-.59-.58 0-1.03.25t-.71.71q-.25.45-.25 1.07v.14q0 .61.26 1.07t.71.72 1.03.25q.88 0 1.45-.58l.59.59q-.35.42-.88.66-.54.23-1.17.23m3.3-.12v-8.76h.93v3.91q.35-.6.9-.82.54-.22 1.01-.22.97 0 1.58.63t.61 1.86v3.4h-.98v-3.25q0-.93-.41-1.34t-1.05-.41q-.66 0-1.14.45t-.48 1.31v3.24zm9.25.12q-.85 0-1.51-.38-.65-.38-1.02-1.05-.36-.67-.36-1.55v-.12q0-.84.33-1.49.34-.65.95-1.04.61-.38 1.42-.38.83 0 1.41.41.59.4.87 1.14t.17 1.75h-4.18q.04.5.28.92.25.41.67.66.43.24 1.01.24.45 0 .81-.11.35-.1.61-.34l.56.6q-.34.36-.86.55t-1.16.19m-.19-5.17q-.72 0-1.17.45-.45.46-.55 1.22h3.24q-.01-.8-.43-1.23-.42-.44-1.09-.44m3.84 5.05v-5.77h.93v.92q.22-.55.65-.75.42-.2.95-.2h.49V32h-.56q-.71 0-1.1.35t-.39 1.07v3.42z"/><path fill="#30ba78" d="M19.63 64.56q-.99 0-1.58-.48t-.59-1.25q0-.5.3-.9.3-.39.82-.63t1.17-.23q.95 0 1.51.39v-.72q0-.7-.37-1.01-.36-.31-.99-.31-.46 0-.95.18t-.83.53l-.46-.68q.38-.45 1.01-.67.62-.23 1.28-.23 1.02 0 1.65.54t.62 1.61v1.84q0 .96.04 1.9h-.87l-.01-.58q-.54.7-1.75.7m.25-.73q.66 0 1.03-.28.36-.27.36-.72t-.36-.71q-.37-.27-1.04-.27-.66 0-1.05.27-.38.27-.38.71t.39.72 1.05.28m4.08.61v-5.77h.92v.91q.34-.59.85-.81t.99-.22q.62 0 1.1.27.47.28.71.86.25-.44.6-.68t.7-.35q.37-.1.69-.1.94 0 1.53.6.59.61.59 1.86v3.43h-.95v-3.31q0-.89-.39-1.29-.38-.4-1-.4-.65 0-1.08.43-.44.44-.44 1.26v3.31h-.96v-3.31q0-.89-.37-1.29-.38-.4-1.01-.4-.64 0-1.08.43-.44.44-.44 1.26v3.31zm10.75 0v-4.93h-1.13v-.84h2.09v5.77zm-.06-7.04V56h1.08v1.4zm2.83 7.04v-5.77h.94v.92q.35-.6.89-.82.55-.22 1.02-.22.97 0 1.58.63.6.63.6 1.86v3.4h-.97v-3.25q0-.93-.41-1.34-.42-.41-1.05-.41-.66 0-1.14.45t-.48 1.31v3.24zm8.48.12q-.99 0-1.58-.48t-.6-1.25q0-.5.3-.9.3-.39.83-.63.52-.23 1.17-.23.94 0 1.51.39v-.72q0-.7-.37-1.01-.36-.31-.99-.31-.47 0-.95.18-.49.17-.84.53l-.45-.68q.38-.45 1.01-.67.62-.23 1.28-.23 1.02 0 1.64.54.63.54.63 1.61v1.84q0 .96.03 1.9h-.86l-.01-.58q-.54.7-1.75.7m.25-.73q.66 0 1.02-.28.37-.27.37-.72t-.37-.71-1.03-.27-1.05.27-.38.71.39.72 1.05.28m3.9.61v-1.32h1.17v1.32zm5.12.12q-.83 0-1.47-.38-.65-.38-1.02-1.05-.38-.67-.38-1.55v-.1q0-.86.38-1.52.37-.67 1.02-1.04.64-.37 1.47-.37t1.48.37 1.02 1.03.37 1.5v.13q0 .88-.37 1.55t-1.02 1.05-1.48.38m0-.86q.57 0 .99-.27t.67-.75.24-1.1v-.13q0-.9-.53-1.47t-1.37-.57q-.55 0-.98.27-.43.26-.68.73t-.25 1.07v.1q0 .63.25 1.1t.68.75.98.27m4.29.74v-8.76h.97v5.74l2.66-2.75h1.2l-2.19 2.29 2.37 3.48h-1.2l-1.87-2.77-.97 1.02v1.75zm7.58.12q-.98 0-1.58-.48-.59-.48-.59-1.25 0-.5.3-.9.3-.39.82-.63t1.17-.23q.95 0 1.51.39v-.72q0-.7-.36-1.01-.37-.31-.99-.31-.47 0-.96.18-.48.17-.83.53l-.46-.68q.39-.45 1.01-.67t1.28-.23q1.02 0 1.65.54t.62 1.61v1.84q0 .96.04 1.9h-.87l-.01-.58q-.54.7-1.75.7m.25-.73q.66 0 1.03-.28.36-.27.36-.72t-.36-.71-1.04-.27q-.66 0-1.04.27-.39.27-.39.71t.39.72 1.05.28m4.42.61v-4.93h-1.06v-.84h1.06v-1.45q0-.71.45-1.13t1.17-.41h.96v.83h-.97q-.28 0-.46.18t-.18.45v1.53h1.61v.84h-1.61v4.93zm5.9.12q-.83 0-1.47-.38-.65-.38-1.02-1.05-.38-.67-.38-1.55v-.1q0-.86.38-1.52.37-.67 1.02-1.04.64-.37 1.47-.37t1.48.37 1.02 1.03.37 1.5v.13q0 .88-.37 1.55t-1.02 1.05-1.48.38m0-.86q.57 0 .99-.27t.67-.75q.24-.47.24-1.1v-.13q0-.9-.53-1.47t-1.37-.57q-.55 0-.98.27-.43.26-.68.73t-.25 1.07v.1q0 .63.25 1.1t.68.75.98.27m4.29.74v-5.77h.93v.92q.22-.55.64-.75t.96-.2h.49v.96h-.56q-.71 0-1.1.35t-.39 1.07v3.42zm8.71 1.9q-1.45 0-2.56-.62t-1.74-1.75q-.62-1.14-.62-2.69 0-1.14.36-2.06t1.02-1.59q.67-.67 1.58-1.03t2.01-.36q1.4 0 2.47.58t1.67 1.61.6 2.41q0 1.34-.57 2.1t-1.46.76q-.52 0-.91-.26-.4-.26-.57-.73-.24.47-.65.73-.4.26-.97.26-.6 0-1.07-.3-.46-.29-.73-.81-.27-.53-.27-1.22 0-.71.27-1.23t.73-.81 1.06-.29q.52 0 .9.2t.62.59v-.71h.77v2.81q0 .49.27.76.26.26.61.26.49 0 .84-.52t.35-1.51q0-1.17-.51-2.07-.5-.9-1.39-1.41t-2.06-.5q-1.23 0-2.17.54T87.07 59q-.53.98-.53 2.27 0 1.33.52 2.31.52.97 1.45 1.5.92.54 2.15.54.79 0 1.45-.25t1.23-.7l.34.63q-.62.5-1.37.77-.74.27-1.64.27m-.23-3.38q.62 0 1-.43t.38-1.16-.38-1.17-1-.43-1.01.44-.38 1.16q0 .72.38 1.16.39.43 1.01.43m8.09 1.59q-.64 0-1.2-.2t-.9-.51l.43-.67q.32.27.77.44.44.17.9.17.54 0 .87-.25.34-.24.34-.64 0-.33-.23-.52t-.57-.29l-.75-.2q-.39-.1-.75-.27-.35-.17-.57-.48-.23-.31-.23-.85 0-.76.57-1.25.57-.48 1.53-.48.54 0 1.03.16t.85.43l-.44.67q-.31-.23-.67-.36t-.78-.13q-.51 0-.84.24-.32.25-.32.64 0 .34.23.52.22.18.58.29.35.11.75.21t.77.27.58.5q.22.31.22.85 0 .51-.28.89-.27.39-.76.6-.5.22-1.13.22m5.7.01q-.96 0-1.6-.57-.63-.57-.63-1.81v-3.51h.97v3.35q0 .92.41 1.29.42.36 1.04.36.65 0 1.12-.43t.48-1.31v-3.26h.96v5.77h-.87v-.86q-.36.56-.89.77-.54.21-.99.21m6.14-.01q-.63 0-1.19-.2t-.91-.51l.43-.67q.33.27.77.44.45.17.9.17.54 0 .88-.25.33-.24.33-.64 0-.33-.22-.52-.23-.19-.58-.29l-.74-.2q-.4-.1-.75-.27-.36-.17-.58-.48t-.22-.85q0-.76.57-1.25.57-.48 1.53-.48.54 0 1.02.16.49.16.85.43l-.43.67q-.31-.23-.68-.36t-.77-.13q-.52 0-.84.24-.33.25-.33.64 0 .34.23.52t.58.29q.36.11.76.21t.76.27.58.5q.22.31.22.85 0 .51-.27.89-.28.39-.77.6-.49.22-1.13.22m6.05.01q-.85 0-1.51-.38-.65-.38-1.02-1.05-.36-.67-.36-1.55v-.12q0-.84.33-1.49.34-.65.95-1.04.61-.38 1.42-.38.83 0 1.41.41.59.4.87 1.14t.17 1.75h-4.18q.04.5.28.92.25.41.67.66.43.24 1.01.24.45 0 .81-.11.35-.1.61-.34l.56.6q-.34.36-.86.55t-1.16.19m-.19-5.17q-.72 0-1.17.45-.45.46-.55 1.22h3.24q-.01-.8-.43-1.23-.42-.44-1.09-.44m3.66 5.05v-1.32h1.17v1.32zm5.21.12q-.86 0-1.53-.37t-1.05-1.04-.38-1.53v-.14q0-.87.39-1.53.38-.66 1.05-1.03.66-.37 1.52-.37.63 0 1.15.23.53.24.89.66l-.6.6q-.56-.59-1.44-.59-.58 0-1.03.25t-.71.71-.26 1.07v.14q0 .61.27 1.07.26.47.71.72t1.03.25q.87 0 1.45-.58l.59.59q-.35.42-.88.66-.54.23-1.17.23m5.61 0q-.83 0-1.47-.38-.65-.38-1.02-1.05-.38-.67-.38-1.55v-.1q0-.86.38-1.52.37-.67 1.02-1.04.64-.37 1.47-.37t1.48.37 1.02 1.03.37 1.5v.13q0 .88-.37 1.55t-1.02 1.05-1.48.38m0-.86q.57 0 .99-.27t.67-.75.24-1.1v-.13q0-.9-.53-1.47t-1.37-.57q-.55 0-.98.27-.43.26-.68.73t-.25 1.07v.1q0 .63.25 1.1t.68.75.98.27m4.29.74v-5.77h.92v.91q.34-.59.85-.81t.99-.22q.62 0 1.09.27.48.28.72.86.25-.44.59-.68t.71-.35.69-.1q.94 0 1.52.6.59.61.59 1.86v3.43h-.95v-3.31q0-.89-.38-1.29t-1.01-.4q-.65 0-1.08.43-.43.44-.43 1.26v3.31h-.96v-3.31q0-.89-.38-1.29t-1-.4q-.65 0-1.09.43-.43.44-.43 1.26v3.31z"/><path fill="#0c322c" d="M19.69 83.63v-7.46h-2.53v-.94h6.12v.94h-2.56v7.46zm3.67-4.45v-1.32h1.2v1.32zm0 4.45v-1.32h1.2v1.32zm11.11-1.42v-2.38H32.1v-.81h2.37v-2.39h.83v2.39h2.38v.81H35.3v2.38zm4.56-.62v-.84l2.8-5.52h1.03l-2.72 5.45h2.77v-2.26h.98v2.26h1.32v.91h-1.32v2.04h-.98v-2.04zm8.65 2.04 2.33-3.16q-.47.2-1.01.2-.8 0-1.42-.36-.62-.35-.96-.98-.35-.62-.35-1.42 0-.84.37-1.47t1.04-.98q.66-.35 1.53-.35.9 0 1.56.35t1.02.98.36 1.51q0 .57-.21 1.11t-.57 1.07l-2.45 3.5zm1.52-3.82q.86 0 1.39-.53.54-.53.54-1.39t-.52-1.37-1.39-.52q-.84 0-1.38.53-.54.52-.54 1.36t.53 1.38 1.37.54m8.48 3.82 2.33-3.16q-.47.2-1.01.2-.8 0-1.42-.36-.62-.35-.97-.98-.35-.62-.35-1.42 0-.84.38-1.47.37-.63 1.03-.98.67-.35 1.53-.35.9 0 1.56.35t1.02.98.36 1.51q0 .57-.21 1.11t-.57 1.07l-2.44 3.5zm1.51-3.82q.87 0 1.4-.53t.53-1.39q0-.85-.52-1.37T59.22 76q-.84 0-1.38.53-.54.52-.54 1.36t.53 1.38 1.36.54m4.74 3.82v-.94h2.21v-5.92q0-.27-.16-.44t-.43-.16h-1.59v-.94h1.84q.59 0 .96.38.38.38.38.95v6.13h2.18v.94zm7.2 0v-.94h2.21v-5.92q0-.27-.16-.44t-.43-.16h-1.59v-.94H73q.59 0 .96.38.38.38.38.95v6.13h2.18v.94zm10.45 0 3.84-7.49h-4.63v-.91h5.77v.71l-3.85 7.69zm6.24-2.04v-.84l2.8-5.52h1.03l-2.72 5.45h2.77v-2.26h.98v2.26H94v.91h-1.32v2.04h-.98v-2.04zm10.25 2.16q-1.43 0-2.24-1.14t-.82-3.17q0-1.35.37-2.33.36-.97 1.05-1.48.68-.52 1.64-.52t1.64.52 1.06 1.48q.36.98.36 2.33 0 2.03-.81 3.17t-2.25 1.14m0-.92q.96 0 1.5-.89.54-.88.54-2.5t-.54-2.52-1.5-.89-1.5.89-.54 2.52q0 1.62.54 2.5.54.89 1.5.89m6.96.92q-.87 0-1.54-.29-.67-.3-1.12-.74l.57-.69q.36.35.89.6.52.26 1.21.26.95 0 1.5-.52.56-.52.56-1.39 0-.77-.45-1.26-.44-.48-1.27-.48-.62 0-1.06.3-.43.3-.62.79h-.83l.13-3.9q.02-.53.39-.86.37-.34.91-.34h3.4v.91h-3.21q-.21 0-.38.13-.16.14-.17.35l-.1 2.43q.29-.32.73-.5.44-.19 1.01-.19.77 0 1.34.33.56.32.87.9t.3 1.34q0 .89-.39 1.52t-1.08.96q-.7.34-1.59.34m7.17 0q-.92 0-1.58-.29t-1.14-.74l.59-.69q.37.36.89.61t1.25.25q.89 0 1.43-.44.54-.43.54-1.12 0-.66-.53-1.07-.52-.41-1.41-.41h-1.2v-.89h1.13q.84 0 1.32-.44.47-.43.47-1.07 0-.67-.48-1.06t-1.27-.39q-.67 0-1.15.23t-.78.55l-.58-.71q.41-.4 1.06-.68.64-.28 1.47-.28.81 0 1.42.27.62.27.96.77.35.51.35 1.18 0 .65-.33 1.18-.33.54-.96.82.76.28 1.13.82t.37 1.22q0 .71-.38 1.25-.39.53-1.06.83t-1.53.3m7.47 0q-1.43 0-2.24-1.14t-.82-3.17q0-1.35.37-2.33.36-.97 1.05-1.48.68-.52 1.64-.52t1.64.52 1.06 1.48q.36.98.36 2.33 0 2.03-.81 3.17t-2.25 1.14m0-.92q.96 0 1.5-.89.54-.88.54-2.5t-.54-2.52-1.5-.89-1.5.89-.54 2.52q0 1.62.54 2.5.54.89 1.5.89M18.04 102.81v-8.4h1.37l2.43 5.03 2.41-5.03h1.37v8.4h-1v-7.08l-2.39 5.08h-.8l-2.38-5.08v7.08zm9.33-4.45v-1.32h1.2v1.32zm0 4.45v-1.32h1.2v1.32zm11.1-1.42v-2.38H36.1v-.81h2.37v-2.39h.83v2.39h2.38v.81H39.3v2.38zm4.56-.62v-.84l2.8-5.52h1.03l-2.72 5.45h2.77V97.6h.98v2.26h1.32v.91h-1.32v2.04h-.98v-2.04zm8.65 2.04 2.33-3.16q-.47.2-1.01.2-.8 0-1.42-.36-.62-.35-.96-.98-.35-.62-.35-1.42 0-.84.37-1.47t1.04-.98q.66-.35 1.53-.35.9 0 1.56.35t1.02.98.36 1.51q0 .57-.21 1.11t-.57 1.07l-2.45 3.5zm1.52-3.82q.86 0 1.39-.53.54-.53.54-1.39t-.52-1.37-1.39-.52q-.84 0-1.38.53-.54.52-.54 1.36t.53 1.38 1.37.54m7.53 3.82v-.94h2.21v-5.92q0-.27-.16-.44t-.43-.16h-1.59v-.94h1.84q.59 0 .96.38.38.38.38.95v6.13h2.18v.94zm7.66 0 3.84-7.49H67.6v-.91h5.77v.71l-3.85 7.69zm9.29.12q-1.43 0-2.25-1.14-.81-1.14-.81-3.17 0-1.35.36-2.33.37-.97 1.05-1.48.69-.52 1.65-.52.94 0 1.63.52.69.51 1.06 1.48.37.98.37 2.33 0 2.03-.82 3.17t-2.24 1.14m0-.92q.96 0 1.5-.89.54-.88.54-2.5t-.54-2.52-1.5-.89-1.5.89-.54 2.52q0 1.62.54 2.5.54.89 1.5.89m7.45.8v-.94h2.21v-5.92q0-.27-.17-.44-.16-.16-.42-.16h-1.6v-.94H87q.59 0 .96.38t.37.95v6.13h2.19v.94zm6.96 0v-.76l3.09-3.12q.65-.66.88-1.14.23-.49.23-.94 0-.75-.44-1.17-.44-.43-1.18-.43-.58 0-1.08.32t-.89.89l-.66-.63q.46-.71 1.15-1.13.7-.41 1.51-.41.8 0 1.38.31.59.3.92.86.32.56.32 1.29 0 .61-.29 1.27-.3.66-1.14 1.5l-2.34 2.37h4.11v.92zm9.71.12q-.92 0-1.58-.29t-1.14-.74l.59-.69q.37.36.89.61t1.25.25q.89 0 1.43-.44.54-.43.54-1.12 0-.66-.53-1.07-.52-.41-1.41-.41h-1.2v-.89h1.13q.84 0 1.32-.44.47-.43.47-1.07 0-.67-.48-1.06t-1.27-.39q-.67 0-1.15.23t-.78.55l-.58-.71q.41-.4 1.06-.68.64-.28 1.47-.28.81 0 1.42.27.62.27.96.77.35.51.35 1.18 0 .65-.33 1.18-.33.54-.96.82.76.28 1.13.82t.37 1.22q0 .71-.38 1.25-.39.53-1.06.83t-1.53.3m4.42-2.16v-.84l2.8-5.52h1.03l-2.72 5.45h2.77V97.6h.98v2.26h1.32v.91h-1.32v2.04h-.98v-2.04zm10.01 2.16q-.87 0-1.54-.29-.67-.3-1.12-.74l.57-.69q.36.35.89.6.52.26 1.21.26.95 0 1.5-.52.56-.52.56-1.39 0-.77-.45-1.26-.44-.48-1.27-.48-.62 0-1.06.3-.43.3-.62.79h-.83l.13-3.9q.02-.53.39-.86.37-.34.91-.34h3.4v.91h-3.21q-.21 0-.38.13-.16.14-.17.35l-.1 2.43q.29-.32.73-.5.44-.19 1.01-.19.77 0 1.34.33.56.32.87.9t.3 1.34q0 .89-.39 1.52t-1.08.96q-.7.34-1.59.34m7.51 0q-.9 0-1.56-.35t-1.02-.99-.36-1.5q0-.57.21-1.11t.57-1.07l2.45-3.5h1.24l-2.33 3.16q.47-.2 1.01-.2.8 0 1.42.36.62.35.97.98.34.62.34 1.42 0 .84-.37 1.47t-1.04.98q-.66.35-1.53.35m-.01-.89q.84 0 1.38-.53.54-.52.54-1.36t-.53-1.38q-.54-.54-1.36-.54-.88 0-1.41.53t-.53 1.39q0 .85.53 1.37.52.52 1.38.52m5.05.77 3.84-7.49h-4.63v-.91h5.77v.71l-3.85 7.69z"/><path fill="#4b7a70" d="M21.99 124.74q-1.33 0-2.34-.57-1.02-.56-1.59-1.6t-.58-2.46q0-1.05.33-1.89.33-.85.94-1.46t1.45-.94 1.84-.33q1.28 0 2.26.53.98.52 1.53 1.47.55.96.55 2.21 0 1.23-.52 1.93-.52.69-1.34.69-.47 0-.83-.24-.37-.23-.52-.66-.22.43-.59.66-.38.24-.89.24-.55 0-.98-.27t-.68-.75-.25-1.12.25-1.12.68-.75.97-.26q.47 0 .82.19.35.18.57.54v-.65h.71v2.57q0 .45.24.69.24.25.56.25.45 0 .77-.48t.32-1.38q0-1.08-.46-1.91t-1.28-1.28q-.81-.46-1.89-.46-1.12 0-1.99.49-.86.5-1.35 1.39-.49.9-.49 2.09 0 1.22.48 2.11t1.32 1.38q.85.49 1.97.49.73 0 1.33-.23.61-.22 1.14-.64l.31.58q-.58.45-1.26.7t-1.51.25m-.2-3.09q.57 0 .91-.4.35-.39.35-1.07 0-.67-.35-1.06-.34-.4-.91-.4t-.93.4-.35 1.06.35 1.07.93.4m7.53 1.46q-.9 0-1.45-.44t-.54-1.14q0-.47.27-.83.28-.36.76-.58t1.07-.21q.87 0 1.39.36v-.66q0-.65-.34-.93-.33-.28-.91-.28-.43 0-.87.16-.45.16-.77.49l-.41-.63q.35-.4.92-.61t1.18-.21q.93 0 1.5.49.58.5.58 1.48v1.69q0 .88.03 1.74h-.79l-.01-.53q-.5.64-1.61.64m.23-.67q.61 0 .94-.25.34-.26.34-.66t-.34-.66q-.33-.25-.95-.25t-.96.25q-.35.25-.35.66 0 .39.36.65t.96.26m3.74.56v-5.29h.85v.84q.31-.54.77-.75t.91-.2q.57 0 1.01.25.43.26.65.78.23-.39.55-.62.31-.22.65-.32.33-.09.63-.09.86 0 1.4.55.53.56.53 1.7V123h-.86v-3.04q0-.81-.36-1.18-.35-.37-.92-.37-.59 0-.99.4t-.4 1.15V123h-.88v-3.04q0-.81-.34-1.18t-.92-.37q-.6 0-1 .4t-.4 1.15V123zm9.86 0v-4.52h-1.04v-.77h1.92V123zm-.06-6.46v-1.27h.99v1.27zm2.6 6.46v-5.29h.86v.85q.32-.55.82-.76t.93-.2q.89 0 1.44.58.56.57.56 1.71V123h-.89v-2.98q0-.85-.38-1.23t-.97-.38-1.04.42q-.44.41-.44 1.2V123zm7.76.11q-.9 0-1.44-.44-.55-.44-.55-1.14 0-.47.28-.83.27-.36.75-.58t1.07-.21q.87 0 1.39.36v-.66q0-.65-.34-.93-.33-.28-.9-.28-.43 0-.88.16-.44.16-.76.49l-.42-.63q.35-.4.92-.61t1.18-.21q.94 0 1.51.49.57.5.57 1.48v1.69q0 .88.03 1.74h-.79l-.01-.53q-.49.64-1.61.64m.23-.67q.61 0 .95-.25.33-.26.33-.66t-.33-.66q-.34-.25-.96-.25-.6 0-.95.25-.36.25-.36.66 0 .39.36.65t.96.26m8.59.67q-.76 0-1.36-.35-.59-.34-.93-.96t-.34-1.42v-.1q0-.78.34-1.39t.93-.95 1.36-.34q.75 0 1.35.34.59.34.93.94t.34 1.38v.12q0 .81-.34 1.42-.34.62-.93.96-.6.35-1.35.35m0-.79q.51 0 .9-.25t.61-.68.22-1.01v-.12q0-.82-.48-1.35-.48-.52-1.25-.52-.51 0-.91.24-.39.25-.62.67t-.22.98v.1q0 .57.22 1.01.23.43.62.68.4.25.91.25m3.92.68v-5.29h.86v.85q.32-.55.82-.76t.93-.2q.89 0 1.45.58.55.57.55 1.71V123h-.89v-2.98q0-.85-.38-1.23t-.96-.38q-.61 0-1.05.42-.44.41-.44 1.2V123zm10.79.13q-.81 0-1.42-.29t-1.03-.8l.59-.59q.8.88 1.9.88.77 0 1.21-.39.45-.38.45-1 0-.44-.22-.71-.21-.27-.56-.43t-.79-.28l-.85-.25q-.42-.14-.78-.36t-.57-.58q-.22-.36-.22-.93 0-.68.32-1.18t.9-.78q.58-.27 1.35-.27.69 0 1.24.23t.91.63l-.6.6q-.32-.33-.7-.49-.38-.17-.85-.17-.74 0-1.18.37-.45.37-.45.97 0 .42.21.67.22.25.58.39.35.15.78.26t.86.25.79.36.58.6.22.97q0 .72-.34 1.23-.34.52-.94.81-.61.28-1.39.28m5.35-.13q-.65 0-1.04-.37t-.39-.98v-5.92h-.97v-.76h1.86v6.69q0 .25.17.42.16.16.41.16h.51v.76zm3.14.11q-.9 0-1.44-.44-.55-.44-.55-1.14 0-.47.28-.83.27-.36.75-.58t1.07-.21q.87 0 1.39.36v-.66q0-.65-.33-.93-.34-.28-.91-.28-.43 0-.88.16-.44.16-.76.49l-.42-.63q.35-.4.93-.61.57-.21 1.17-.21.94 0 1.51.49.57.5.57 1.48v1.69q0 .88.03 1.74h-.79l-.01-.53q-.49.64-1.61.64m.24-.67q.6 0 .94-.25.33-.26.33-.66t-.33-.66q-.34-.25-.96-.25-.6 0-.95.25t-.35.66q0 .39.35.65.36.26.97.26m6.09.67q-.78 0-1.4-.34t-.96-.95-.35-1.4v-.14q0-.79.36-1.39.35-.61.96-.95t1.39-.34q.58 0 1.06.21.48.22.81.6l-.55.55q-.51-.54-1.32-.54-.53 0-.94.24t-.65.64q-.24.42-.24.98v.14q0 .56.25.98.24.42.65.65t.94.24q.8 0 1.33-.53l.54.54q-.32.38-.81.6t-1.07.21m3.02-.11v-8.03h.9v5.26l2.44-2.52h1.1l-2.02 2.1 2.18 3.19h-1.1l-1.71-2.54-.89.93V123z"/><path fill="#0c322c" fill-opacity=".1" d="M0 142h165.75v1H0z"/><path fill="#0c322c" fill-opacity=".2" d="M111.98 171.52v-12.65h1.11v12.65z"/><path fill="#4b7a70" d="M123.62 169.6q-.59 0-1.1-.18t-.83-.47l.4-.62q.3.26.7.41.41.16.83.16.49 0 .8-.23t.31-.59q0-.31-.21-.48t-.53-.26l-.68-.19q-.36-.09-.69-.25-.32-.15-.53-.44-.2-.28-.2-.78 0-.69.52-1.14.53-.44 1.41-.44.49 0 .94.15t.77.39l-.39.61q-.29-.2-.63-.33-.33-.12-.71-.12-.47 0-.77.23-.29.22-.29.59 0 .31.21.47.21.17.53.26l.69.2q.37.09.7.25t.54.45.2.79q0 .46-.25.81-.26.35-.71.55t-1.03.2m5.22.01q-.88 0-1.46-.52t-.58-1.66v-3.22h.89v3.07q0 .85.38 1.18.38.34.95.34.59 0 1.03-.4.43-.4.43-1.2v-2.99h.88v5.29h-.79v-.79q-.33.52-.82.71t-.91.19m5.64-.01q-.59 0-1.1-.18t-.83-.47l.4-.62q.29.26.7.41.41.16.83.16.49 0 .8-.23t.31-.59q0-.31-.21-.48t-.53-.26l-.68-.19q-.37-.09-.69-.25-.32-.15-.53-.44-.2-.28-.2-.78 0-.69.52-1.14t1.4-.44q.5 0 .94.15.45.15.78.39l-.4.61q-.28-.2-.62-.33-.33-.12-.71-.12-.47 0-.77.23-.3.22-.3.59 0 .31.21.47.21.17.54.26l.69.2q.37.09.7.25t.53.45.21.79q0 .46-.26.81-.25.35-.7.55t-1.03.2m5.54.01q-.78 0-1.38-.35t-.94-.96-.33-1.42v-.11q0-.77.31-1.37.3-.6.87-.95.56-.35 1.29-.35.76 0 1.3.37.54.38.8 1.05.26.68.15 1.6h-3.83q.03.47.26.85.22.38.61.6.39.23.92.23.42 0 .74-.1.33-.1.57-.32l.51.55q-.31.33-.79.5-.48.18-1.06.18m-.18-4.74q-.66 0-1.07.42t-.5 1.11h2.97q-.01-.73-.4-1.13-.38-.4-1-.4m3.36 4.63v-1.21h1.08v1.21zm4.77.11q-.78 0-1.4-.34t-.96-.95-.34-1.4v-.14q0-.79.35-1.39.35-.61.96-.95t1.39-.34q.59 0 1.06.21.48.22.81.6l-.55.55q-.5-.54-1.32-.54-.53 0-.94.24t-.65.64q-.23.42-.23.98v.14q0 .56.24.98t.65.65.94.24q.81 0 1.33-.53l.54.54q-.32.38-.81.6-.48.21-1.07.21m5.15 0q-.76 0-1.35-.35t-.94-.96-.34-1.42v-.1q0-.78.34-1.39t.94-.95 1.35-.34 1.35.34.94.94.34 1.38v.12q0 .81-.34 1.42-.34.62-.94.96-.59.35-1.35.35m0-.79q.52 0 .91-.25t.61-.68.22-1.01v-.12q0-.82-.49-1.35-.48-.52-1.25-.52-.51 0-.9.24-.4.25-.62.67-.23.43-.23.98v.1q0 .57.23 1.01.22.43.62.68.39.25.9.25m3.93.68v-5.29h.84v.84q.31-.54.78-.75t.91-.2q.57 0 1 .25.44.26.66.78.23-.39.54-.62t.65-.32.63-.09q.86 0 1.4.55.54.56.54 1.7v3.15h-.87v-3.04q0-.81-.35-1.18t-.92-.37q-.6 0-1 .4-.39.41-.39 1.15v3.04h-.88v-3.04q0-.81-.35-1.18t-.92-.37q-.59 0-.99.4t-.4 1.15v3.04z"/><path fill="#0c322c" fill-opacity=".08" d="M0 186h600v1H0z"/><path fill="#999" d="M2.61 208.12q-.74 0-1.29-.26-.56-.27-.94-.73l.54-.54q.72.8 1.72.8.7 0 1.11-.35.4-.35.4-.91 0-.4-.19-.64-.2-.25-.52-.39t-.71-.26l-.77-.23q-.39-.13-.71-.33-.33-.2-.52-.52-.2-.33-.2-.85 0-.62.29-1.07t.82-.71q.52-.25 1.22-.25.63 0 1.13.21t.83.57l-.55.55q-.29-.3-.63-.45t-.78-.15q-.67 0-1.07.34-.41.33-.41.88 0 .38.2.6.19.23.52.37.32.13.71.23t.78.23.72.32.52.55q.2.34.2.88 0 .65-.3 1.12-.31.47-.86.73t-1.26.26m6.24 0q-1.19 0-1.9-.63-.71-.64-.71-1.86V201h.85v4.57q0 .85.48 1.31.48.45 1.28.45t1.28-.45.48-1.31V201h.85v4.63q0 1.22-.71 1.86-.71.63-1.9.63m6.04 0q-.74 0-1.29-.26-.56-.27-.94-.73l.54-.54q.72.8 1.72.8.7 0 1.1-.35t.41-.91q0-.4-.19-.64-.2-.25-.52-.39t-.71-.26l-.77-.23q-.39-.13-.71-.33-.33-.2-.52-.52-.2-.33-.2-.85 0-.62.29-1.07t.82-.71q.52-.25 1.22-.25.63 0 1.13.21t.83.57l-.55.55q-.29-.3-.63-.45t-.78-.15q-.67 0-1.07.34-.41.33-.41.88 0 .38.2.6.19.23.52.37.32.13.71.23t.78.23.72.32q.32.2.52.55.2.34.2.88 0 .65-.3 1.12-.31.47-.86.73t-1.26.26m4.74-.12q-.48 0-.79-.31-.32-.32-.32-.8v-4.78q0-.48.32-.79.31-.32.79-.32h3.23v.78H19.9q-.23 0-.38.16-.16.15-.16.37v1.81h3.29v.75h-3.29v1.82q0 .22.16.38.15.15.38.15h2.96v.78zm8.7.12q-.74 0-1.29-.26-.56-.27-.94-.73l.54-.54q.72.8 1.72.8.7 0 1.11-.35.4-.35.4-.91 0-.4-.19-.64-.2-.25-.52-.39t-.71-.26l-.77-.23q-.39-.13-.71-.33-.33-.2-.52-.52-.2-.33-.2-.85 0-.62.29-1.07t.82-.71q.52-.25 1.22-.25.63 0 1.13.21t.83.57l-.55.55q-.29-.3-.63-.45t-.78-.15q-.67 0-1.07.34-.41.33-.41.88 0 .38.2.6.19.23.52.37.32.13.71.23t.78.23.72.32.52.55q.2.34.2.88 0 .65-.3 1.12-.31.47-.86.73t-1.26.26m5.64-.02q-.69 0-1.23-.31-.54-.32-.85-.88t-.31-1.29v-.09q0-.71.31-1.26.31-.56.85-.87t1.23-.31 1.23.31.85.86.31 1.25v.11q0 .73-.31 1.29t-.85.88-1.23.31m0-.72q.47 0 .83-.22.35-.23.55-.62.2-.4.2-.92v-.11q0-.75-.44-1.22-.44-.48-1.14-.48-.46 0-.82.22t-.56.61-.21.89v.09q0 .52.21.92.2.39.56.62t.82.22m3.83.62v-4.11h-.88v-.7h.88v-1.21q0-.59.38-.93.37-.35.97-.35h.8v.69h-.81q-.23 0-.38.15t-.15.38v1.27h1.34v.7h-1.34V208zm4.71 0q-.33 0-.63-.12-.31-.13-.5-.41-.2-.28-.2-.75v-2.83h-.87v-.7h.87V202h.8v1.19h1.27v.7h-1.27v2.88q0 .23.16.39.15.15.38.15h.73v.69zm2.67 0-1.38-4.81h.81l1.08 3.99 1.13-3.99h.85l1.14 3.98 1.08-3.98h.8L49.31 208h-.92l-1.14-4.07-1.14 4.07zm7.89.1q-.82 0-1.31-.4t-.5-1.04q0-.42.25-.75t.69-.52.97-.2q.79 0 1.26.33v-.6q0-.59-.3-.84-.31-.26-.83-.26-.39 0-.79.15t-.7.44l-.38-.57q.32-.37.84-.56t1.07-.19q.85 0 1.37.45t.52 1.34v1.54q0 .8.03 1.58h-.72l-.01-.48q-.45.58-1.46.58m.21-.61q.55 0 .86-.23t.3-.6q0-.37-.3-.59-.31-.23-.87-.23-.55 0-.87.23-.32.22-.32.59 0 .36.33.6.32.23.87.23m3.4.51v-4.81h.78v.77q.18-.46.54-.62.35-.17.79-.17h.41v.8h-.47q-.59 0-.91.29t-.33.89V208zm5.32.1q-.71 0-1.25-.31-.55-.32-.85-.88-.31-.56-.31-1.29v-.1q0-.7.28-1.24.28-.55.79-.87t1.18-.32q.69 0 1.18.34t.73.96.13 1.45H60.4q.03.42.24.77.2.34.56.55.35.2.83.2.38 0 .68-.09.29-.09.51-.29l.46.5q-.28.3-.71.46-.44.16-.97.16m-.16-4.31q-.6 0-.97.38-.38.38-.46 1.01h2.7q-.01-.66-.36-1.02-.35-.37-.91-.37m7.39 4.33q-.74 0-1.29-.26-.56-.27-.94-.73l.54-.54q.72.8 1.72.8.7 0 1.1-.35t.41-.91q0-.4-.19-.64-.2-.25-.52-.39t-.71-.26l-.77-.23q-.39-.13-.72-.33t-.51-.52q-.2-.33-.2-.85 0-.62.29-1.07t.82-.71q.52-.25 1.22-.25.63 0 1.13.21t.83.57l-.55.55q-.29-.3-.63-.45t-.78-.15q-.67 0-1.07.34-.41.33-.41.88 0 .38.2.6.19.23.52.37.32.13.71.23t.78.23.72.32q.32.2.52.55.2.34.2.88 0 .65-.3 1.12-.31.47-.86.73t-1.26.26m5.64-.02q-.69 0-1.23-.31-.54-.32-.85-.88t-.31-1.29v-.09q0-.71.31-1.26.31-.56.85-.87t1.23-.31 1.23.31.85.86.31 1.25v.11q0 .73-.31 1.29t-.85.88-1.23.31m0-.72q.47 0 .83-.22.35-.23.55-.62.2-.4.2-.92v-.11q0-.75-.44-1.22-.44-.48-1.14-.48-.46 0-.82.22t-.56.61-.21.89v.09q0 .52.21.92.2.39.56.62t.82.22m4.86.62q-.59 0-.94-.33-.36-.34-.36-.9v-5.38h-.88v-.69h1.69v6.08q0 .23.15.38t.38.15h.46v.69zm3.13.1q-.8 0-1.33-.47-.53-.48-.53-1.51v-2.93h.81v2.79q0 .77.35 1.08.34.3.86.3.54 0 .94-.36t.39-1.09v-2.72h.8V208h-.72v-.72q-.3.47-.74.65-.45.17-.83.17m5.43-.1q-.33 0-.63-.12-.31-.13-.5-.41-.2-.28-.2-.75v-2.83h-.87v-.7h.87V202h.8v1.19h1.27v.7h-1.27v2.88q0 .23.16.39.15.15.38.15h.73v.69zm2.2 0v-4.11h-.94v-.7h1.74V208zm-.05-5.87v-1.16h.9v1.16zm4.43 5.97q-.69 0-1.23-.31-.54-.32-.85-.88t-.31-1.29v-.09q0-.71.31-1.26.31-.56.85-.87t1.23-.31 1.23.31.85.86.31 1.25v.11q0 .73-.31 1.29t-.85.88-1.23.31m0-.72q.47 0 .83-.22.35-.23.55-.62.2-.4.2-.92v-.11q0-.75-.44-1.22-.44-.48-1.14-.48-.46 0-.82.22t-.56.61-.21.89v.09q0 .52.21.92.2.39.56.62t.82.22m3.57.62v-4.81h.78v.77q.29-.5.75-.69.45-.18.84-.18.81 0 1.32.53.5.52.5 1.55V208h-.81v-2.71q0-.77-.34-1.11t-.88-.35q-.55 0-.95.38-.4.37-.4 1.09v2.7zm6.95.09q-.53 0-.99-.16-.47-.17-.76-.43l.36-.56q.27.23.64.37t.75.14q.45 0 .73-.2t.28-.54q0-.28-.19-.43-.19-.16-.48-.24l-.62-.18q-.33-.08-.62-.22-.3-.14-.48-.4-.19-.26-.19-.71 0-.63.48-1.03.47-.41 1.27-.41.45 0 .86.13.4.14.7.36l-.36.56q-.26-.19-.56-.3t-.65-.11q-.43 0-.7.2t-.27.54q0 .28.19.43t.49.24l.63.18q.33.08.63.23.3.14.49.41.18.26.18.71 0 .42-.23.74t-.64.5-.94.18m8.51.06q-1.03 0-1.81-.45-.79-.46-1.23-1.26-.45-.81-.45-1.86v-.15q0-1.05.46-1.86.45-.81 1.25-1.26.8-.46 1.84-.46.66 0 1.23.22.56.21 1.01.61l-.58.61q-.35-.32-.77-.47t-.88-.15q-.79 0-1.39.35-.61.35-.95.98-.34.62-.34 1.43v.15q0 .81.34 1.44.33.62.92.97t1.36.35q.68 0 1.19-.31t.78-.83.26-1.17h-1.85v-.72h2.68q.11 1.1-.23 1.97t-1.08 1.37-1.76.5m6.26-.05q-.71 0-1.25-.31-.55-.32-.85-.88-.31-.56-.31-1.29v-.1q0-.7.28-1.24.28-.55.79-.87t1.18-.32q.69 0 1.18.34t.73.96.13 1.45h-3.48q.03.42.24.77.2.34.56.55.35.2.83.2.38 0 .68-.09.29-.09.51-.29l.46.5q-.28.3-.71.46-.44.16-.97.16m-.16-4.31q-.6 0-.97.38-.38.38-.46 1.01h2.7q-.01-.66-.36-1.02-.35-.37-.91-.37m3.2 4.21v-4.81h.78v.77q.18-.46.54-.62.35-.17.79-.17h.41v.8h-.47q-.59 0-.91.29t-.33.89V208zm3.47 0v-4.81h.77v.76q.28-.49.71-.68.42-.18.82-.18.52 0 .92.23.39.23.59.71.21-.36.5-.56.28-.21.59-.29.3-.09.57-.09.78 0 1.27.51.49.5.49 1.54V208h-.79v-2.76q0-.74-.32-1.07t-.84-.34q-.54 0-.9.37-.36.36-.36 1.04V208h-.8v-2.76q0-.74-.32-1.07-.31-.34-.83-.34-.54 0-.9.37-.37.36-.37 1.04V208zm10.1.1q-.82 0-1.31-.4t-.5-1.04q0-.42.25-.75t.69-.52.97-.2q.79 0 1.26.33v-.6q0-.59-.3-.84-.31-.26-.83-.26-.39 0-.79.15t-.7.44l-.38-.57q.32-.37.84-.56t1.07-.19q.85 0 1.37.45t.52 1.34v1.54q0 .8.03 1.58h-.72l-.01-.48q-.45.58-1.46.58m.21-.61q.55 0 .86-.23t.3-.6-.3-.59q-.31-.23-.87-.23-.55 0-.87.23-.32.22-.32.59 0 .36.32.6.33.23.88.23m3.4.51v-4.81h.78v.77q.29-.5.75-.69.45-.18.84-.18.81 0 1.32.53.5.52.5 1.55V208h-.81v-2.71q0-.77-.34-1.11t-.88-.35q-.55 0-.95.38-.4.37-.4 1.09v2.7zm5.01 2v-.69h.96q.21 0 .34-.14.12-.15.2-.35l.35-.77-1.98-4.86h.89l1.52 3.87 1.45-3.87h.89l-2.3 5.66q-.11.28-.27.54t-.43.44q-.27.17-.7.17zm10.85-1.85q-1.03 0-1.81-.45-.79-.46-1.23-1.26-.45-.81-.45-1.86v-.15q0-1.05.46-1.86.45-.81 1.25-1.26.8-.46 1.84-.46.66 0 1.23.22.56.21 1.01.61l-.58.61q-.35-.32-.77-.47t-.88-.15q-.79 0-1.39.35-.61.35-.95.98-.34.62-.34 1.43v.15q0 .81.34 1.44.33.62.92.97t1.36.35q.68 0 1.19-.31t.78-.83.26-1.17h-1.85v-.72h2.68q.11 1.1-.23 1.97t-1.08 1.37q-.73.5-1.76.5m4.15-.15v-4.81h.77v.76q.28-.49.71-.68.42-.18.82-.18.52 0 .91.23.4.23.6.71.21-.36.5-.56.28-.21.59-.29.3-.09.57-.09.78 0 1.27.51.49.5.49 1.54V208h-.79v-2.76q0-.74-.32-1.07t-.84-.34q-.54 0-.9.37-.36.36-.36 1.04V208h-.8v-2.76q0-.74-.31-1.07-.32-.34-.84-.34-.54 0-.9.37-.37.36-.37 1.04V208zm11.14.1q-.56 0-1.01-.25-.45-.26-.73-.71v.86h-.74v-7.3h.81v3.27q.28-.41.71-.64t.96-.24q.65 0 1.16.31t.81.86q.29.55.29 1.27v.09q0 .74-.29 1.3t-.8.87-1.17.31m-.12-.72q.45 0 .81-.21.35-.22.56-.62.2-.4.2-.93v-.09q0-.78-.44-1.25-.45-.47-1.13-.47-.46 0-.82.22t-.57.63-.21.94.21.94.57.62.82.22m3.57.62v-7h.86v3h3.81v-3h.85v7h-.85v-3.22h-3.81V208zm10.53-1.95q-.42 0-.71-.29-.3-.3-.3-.73t.3-.72q.29-.3.71-.3.44 0 .74.3.3.29.3.72t-.3.73-.74.29m5.03 1.95v-7h1.14l2.02 4.19 2.01-4.19h1.14v7h-.83v-5.9l-1.99 4.23h-.67l-1.98-4.23v5.9zm9.3.1q-.82 0-1.31-.4t-.5-1.04q0-.42.25-.75t.69-.52.97-.2q.79 0 1.26.33v-.6q0-.59-.3-.84-.31-.26-.83-.26-.39 0-.79.15t-.7.44l-.38-.57q.32-.37.84-.56t1.07-.19q.85 0 1.37.45t.52 1.34v1.54q0 .8.03 1.58h-.72l-.01-.48q-.45.58-1.46.58m.21-.61q.55 0 .86-.23t.3-.6-.3-.59q-.31-.23-.87-.23-.55 0-.87.23-.32.22-.32.59 0 .36.33.6.32.23.87.23m2.79.51 1.71-2.4-1.66-2.41h.95l1.25 1.9 1.25-1.9h.93l-1.65 2.41 1.69 2.4h-.97l-1.27-1.87-1.28 1.87zm5.73 0v-4.11h-.88v-.7h.88v-1.21q0-.59.38-.93.37-.35.97-.35h.8v.69h-.81q-.23 0-.38.15t-.15.38v1.27h1.34v.7h-1.34V208zm4.94.1q-.71 0-1.25-.31-.55-.32-.85-.88-.31-.56-.31-1.29v-.1q0-.7.28-1.24.28-.55.79-.87t1.18-.32q.69 0 1.18.34t.73.96.13 1.45h-3.48q.03.42.24.77.2.34.56.55.35.2.83.2.38 0 .68-.09.29-.09.51-.29l.46.5q-.28.3-.71.46-.44.16-.97.16m-.16-4.31q-.6 0-.97.38-.38.38-.46 1.01h2.7q-.01-.66-.36-1.02-.35-.37-.91-.37m4.49 4.21q-.59 0-.94-.33-.36-.34-.36-.9v-5.38h-.88v-.69h1.69v6.08q0 .23.15.38t.38.15h.46v.69zm3.26.1q-.66 0-1.17-.31t-.8-.87-.29-1.3v-.09q0-.72.3-1.27.29-.55.8-.86t1.16-.31q.54 0 .97.24t.7.64v-3.27h.81v7.3h-.73v-.87q-.29.46-.74.72t-1.01.25m.11-.72q.47 0 .83-.22t.57-.62.21-.94-.21-.94-.57-.63-.83-.22q-.67 0-1.11.47t-.45 1.25v.09q0 .53.21.93t.55.62.8.21m5.2.71q-.53 0-.99-.16-.47-.17-.76-.43l.36-.56q.27.23.64.37t.75.14q.45 0 .73-.2t.28-.54q0-.28-.19-.43-.19-.16-.48-.24l-.62-.18q-.33-.08-.62-.22-.3-.14-.48-.4-.19-.26-.19-.71 0-.63.48-1.03.47-.41 1.27-.41.45 0 .86.13.4.14.7.36l-.36.56q-.26-.19-.56-.3t-.65-.11q-.43 0-.7.2t-.27.54q0 .28.19.43t.49.24l.63.18q.33.08.63.23.3.14.49.41.18.26.18.71 0 .42-.23.74t-.64.5-.94.18m4.6-.09q-.33 0-.63-.12-.31-.13-.5-.41-.2-.28-.2-.75v-2.83h-.87v-.7h.87V202h.8v1.19h1.27v.7h-1.27v2.88q0 .23.16.39.15.15.38.15h.73v.69zm1.82 0v-4.81h.78v.77q.18-.46.54-.62.35-.17.79-.17h.41v.8h-.47q-.59 0-.91.29t-.33.89V208zm2.61 0v-1.1h.98v1.1zm6.44.1q-.73 0-1.28-.24-.56-.25-.94-.62l.48-.57q.3.29.74.5.43.21 1.01.21.79 0 1.25-.43t.46-1.16q0-.64-.37-1.04t-1.06-.41q-.52 0-.88.25t-.52.66h-.69l.11-3.25q.01-.44.32-.72t.76-.28h2.83v.76h-2.67q-.18 0-.31.11-.14.11-.15.29l-.08 2.02q.24-.26.61-.42.36-.15.84-.15.64 0 1.11.27t.73.76.25 1.11q0 .74-.32 1.27-.33.52-.91.8t-1.32.28m7.33-2.05q-.42 0-.71-.29-.3-.3-.3-.73t.3-.72q.29-.3.71-.3.44 0 .74.3.3.29.3.72t-.3.73-.74.29m5.83 1.95 1.94-2.63q-.39.16-.84.16-.67 0-1.18-.29-.52-.3-.81-.82t-.29-1.19q0-.7.31-1.22.31-.53.87-.82.55-.29 1.27-.29.75 0 1.3.29t.85.82.3 1.26q0 .47-.18.92t-.47.89l-2.04 2.92zm1.26-3.18q.72 0 1.17-.44.44-.45.44-1.16t-.43-1.14q-.44-.44-1.16-.44-.7 0-1.15.44t-.45 1.14.45 1.15 1.13.45m6.07 3.28q-1.19 0-1.87-.95t-.68-2.64q0-1.13.31-1.94.3-.81.87-1.24t1.37-.43 1.37.43.88 1.24.3 1.94q0 1.69-.68 2.64t-1.87.95m0-.77q.8 0 1.25-.73.45-.74.45-2.09 0-1.36-.45-2.1t-1.25-.74-1.25.74-.45 2.1.45 2.09 1.25.73m3.46-1.03v-.7l2.33-4.6h.86l-2.27 4.54h2.31v-1.88h.82v1.88h1.1v.76h-1.1v1.7h-.82v-1.7zm8.54 1.8q-1.19 0-1.87-.95t-.68-2.64q0-1.13.31-1.94.3-.81.87-1.24t1.37-.43 1.37.43.88 1.24.3 1.94q0 1.69-.68 2.64t-1.87.95m0-.77q.8 0 1.25-.73.45-.74.45-2.09 0-1.36-.45-2.1t-1.25-.74-1.25.74-.45 2.1.45 2.09 1.25.73m4.67.67 1.94-2.63q-.39.16-.84.16-.67 0-1.18-.29-.52-.3-.81-.82t-.29-1.19q0-.7.31-1.22.31-.53.87-.82.55-.29 1.27-.29.75 0 1.3.29t.85.82.3 1.26q0 .47-.18.92t-.47.89l-2.04 2.92zm1.26-3.18q.72 0 1.17-.44.44-.45.44-1.16t-.43-1.14q-.44-.44-1.16-.44-.7 0-1.15.44t-.45 1.14.45 1.15 1.13.45m6.27 3.18v-7h.8l3.6 5.51V201h.85v7h-.79l-3.61-5.51V208zm8.56.1q-.8 0-1.33-.47-.53-.48-.53-1.51v-2.93h.81v2.79q0 .77.35 1.08.34.3.86.3.54 0 .94-.36t.39-1.09v-2.72h.8V208h-.72v-.72q-.3.47-.74.65-.45.17-.83.17m.82-5.97v-1.15h.82v1.15zm-2.01 0v-1.15h.82v1.15zm4.98 5.87v-4.81h.78v.77q.18-.46.54-.62.35-.17.79-.17h.41v.8h-.47q-.59 0-.91.29t-.33.89V208zm3.47 0v-4.81h.78v.77q.29-.5.75-.69.45-.18.84-.18.81 0 1.32.53.5.52.5 1.55V208h-.81v-2.71q0-.77-.34-1.11t-.88-.35-.95.38q-.4.37-.4 1.09v2.7zm8.1.1q-.56 0-1.01-.25-.45-.26-.73-.71v.86h-.74v-7.3h.81v3.27q.28-.41.71-.64t.96-.24q.65 0 1.16.31t.81.86.29 1.27v.09q0 .74-.29 1.3t-.8.87-1.17.31m-.12-.72q.45 0 .81-.21.35-.22.56-.62.2-.4.2-.93v-.09q0-.78-.44-1.25-.45-.47-1.13-.47-.46 0-.82.22t-.57.63-.21.94.21.94.57.62.82.22m5.65.72q-.71 0-1.25-.31-.55-.32-.85-.88-.31-.56-.31-1.29v-.1q0-.7.28-1.24.28-.55.79-.87t1.18-.32q.69 0 1.18.34t.73.96.13 1.45h-3.48q.03.42.24.77.2.34.56.55.35.2.83.2.38 0 .68-.09.29-.09.51-.29l.46.5q-.28.3-.71.46-.44.16-.97.16m-.16-4.31q-.6 0-.97.38-.38.38-.46 1.01h2.7q-.01-.66-.36-1.02-.35-.37-.91-.37m3.2 4.21v-4.81h.78v.77q.18-.46.54-.62.35-.17.79-.17h.41v.8h-.47q-.59 0-.91.29t-.33.89V208zm2.84 2v-.68h2.87q.34 0 .53-.16.19-.17.19-.47 0-.28-.19-.43-.19-.16-.53-.16h-1.58q-.38 0-.57-.18-.2-.18-.22-.45-.03-.27.11-.54l.32-.65q-.37-.23-.58-.59-.21-.37-.21-.82v-.09q0-.5.27-.88.26-.38.73-.59.46-.22 1.06-.22l.22.01.49-1.01h.81l-.62 1.15q.53.19.85.59t.31.93v.11q0 .51-.26.9-.27.39-.73.62-.47.22-1.07.22-.32 0-.62-.07l-.24.47q-.07.13-.04.29.02.15.27.15h1.41q.61 0 .99.32.38.31.38.93 0 .57-.38.94-.39.36-1.03.36zm2.2-4.02q.29 0 .58-.1t.49-.36.2-.7q0-.48-.35-.77-.36-.3-.92-.3t-.91.3q-.36.29-.36.77 0 .44.2.7t.5.36.57.1m6.59.07q-.42 0-.71-.29-.3-.3-.3-.73t.3-.72.71-.3q.44 0 .74.3.3.29.3.72t-.3.73-.74.29m8.13 2.1q-1.03 0-1.81-.45-.79-.46-1.23-1.26-.45-.81-.45-1.86v-.15q0-1.05.46-1.86.45-.81 1.25-1.26.8-.46 1.84-.46.66 0 1.23.22.56.21 1.01.61l-.58.61q-.35-.32-.77-.47t-.88-.15q-.79 0-1.39.35-.61.35-.95.98-.34.62-.34 1.43v.15q0 .81.34 1.44.33.62.92.97t1.36.35q.68 0 1.19-.31t.78-.83.26-1.17h-1.85v-.72h2.68q.11 1.1-.23 1.97t-1.08 1.37-1.76.5m6.26-.05q-.71 0-1.25-.31-.55-.32-.85-.88-.31-.56-.31-1.29v-.1q0-.7.28-1.24.28-.55.79-.87t1.18-.32q.69 0 1.18.34t.73.96.13 1.45h-3.48q.03.42.24.77.2.34.56.55.35.2.83.2.38 0 .68-.09.29-.09.51-.29l.46.5q-.28.3-.71.46-.44.16-.97.16m-.16-4.31q-.6 0-.97.38-.38.38-.46 1.01h2.7q-.01-.66-.36-1.02-.35-.37-.91-.37m3.2 4.21v-4.81h.78v.77q.18-.46.54-.62.35-.17.79-.17h.41v.8h-.47q-.59 0-.91.29t-.33.89V208zm3.47 0v-4.81h.77v.76q.28-.49.71-.68.42-.18.82-.18.52 0 .92.23.39.23.59.71.21-.36.5-.56.28-.21.59-.29.3-.09.57-.09.78 0 1.27.51.49.5.49 1.54V208h-.79v-2.76q0-.74-.32-1.07t-.84-.34q-.54 0-.9.37-.36.36-.36 1.04V208h-.8v-2.76q0-.74-.31-1.07-.32-.34-.84-.34-.54 0-.9.37-.37.36-.37 1.04V208zm10.1.1q-.82 0-1.31-.4t-.5-1.04q0-.42.25-.75t.69-.52.97-.2q.79 0 1.26.33v-.6q0-.59-.3-.84-.31-.26-.83-.26-.39 0-.79.15t-.7.44l-.38-.57q.32-.37.84-.56t1.07-.19q.85 0 1.37.45t.52 1.34v1.54q0 .8.03 1.58h-.72l-.01-.48q-.45.58-1.46.58m.21-.61q.55 0 .86-.23t.3-.6-.3-.59q-.31-.23-.87-.23-.55 0-.87.23-.32.22-.32.59 0 .36.33.6.32.23.87.23m3.4.51v-4.81h.78v.77q.29-.5.75-.69.45-.18.84-.18.81 0 1.32.53.5.52.5 1.55V208h-.81v-2.71q0-.77-.34-1.11t-.88-.35-.95.38q-.4.37-.4 1.09v2.7zm5.01 2v-.69h.96q.21 0 .34-.14.12-.15.2-.35l.35-.77-1.98-4.86h.89l1.52 3.87 1.45-3.87h.89l-2.3 5.66q-.11.28-.27.54t-.43.44q-.27.17-.7.17zM.87 226.5v-7h2.25q1.06 0 1.71.54.64.53.64 1.55 0 .88-.43 1.38-.44.5-1.19.65l1.83 2.88h-.99l-1.75-2.81H1.72v2.81zm2.22-6.27H1.72v2.73h1.37q.68 0 1.1-.33.41-.33.41-1.02 0-.66-.41-1.02-.42-.36-1.1-.36m5.56 6.37q-.71 0-1.25-.31-.55-.32-.85-.88-.31-.56-.31-1.29v-.1q0-.7.28-1.24.28-.55.79-.87t1.18-.32q.69 0 1.18.34t.73.96.13 1.45H7.05q.03.42.24.77.2.34.56.55.35.2.83.2.38 0 .68-.09.29-.09.51-.29l.46.5q-.28.3-.71.46-.44.16-.97.16m-.16-4.31q-.6 0-.97.38-.38.38-.46 1.01h2.7q-.01-.66-.36-1.02-.35-.37-.91-.37m2.72 6.21v-.68h2.87q.34 0 .53-.16.19-.17.19-.47 0-.28-.19-.43-.19-.16-.53-.16H12.5q-.38 0-.57-.18-.2-.18-.22-.45-.03-.27.11-.54l.32-.65q-.37-.23-.58-.59-.21-.37-.21-.82v-.09q0-.5.27-.88.26-.38.73-.59.46-.22 1.06-.22l.22.01.49-1.01h.81l-.62 1.15q.53.19.85.59t.31.93v.11q0 .51-.26.9-.27.39-.73.62-.47.22-1.07.22-.32 0-.62-.07l-.24.47q-.07.13-.04.29.02.15.27.15h1.41q.61 0 .99.32.38.31.38.93 0 .57-.38.94-.39.36-1.03.36zm2.2-4.02q.29 0 .58-.1t.49-.36.2-.7q0-.48-.35-.77-.36-.3-.92-.3t-.91.3q-.36.29-.36.77 0 .44.2.7t.5.36q.29.1.57.1m3.56 2.02v-4.11h-.94v-.7h1.74v4.81zm-.05-5.87v-1.16h.9v1.16zm3.69 5.96q-.53 0-.99-.16-.47-.17-.76-.43l.36-.56q.27.23.64.37t.75.14q.45 0 .73-.2t.28-.54q0-.28-.19-.43-.19-.16-.48-.24l-.62-.18q-.33-.08-.62-.22-.3-.14-.48-.4-.19-.26-.19-.71 0-.63.48-1.03.47-.41 1.27-.41.45 0 .86.13.4.14.7.36l-.36.56q-.26-.19-.56-.3t-.65-.11q-.43 0-.7.2t-.27.54q0 .28.19.43t.49.24l.63.18q.33.08.63.23.3.14.49.41.18.26.18.71 0 .42-.23.74t-.64.5-.94.18m4.6-.09q-.33 0-.63-.12-.31-.13-.5-.41-.2-.28-.2-.75v-2.83h-.87v-.7h.87v-1.19h.8v1.19h1.27v.7h-1.27v2.88q0 .23.16.39.15.15.38.15h.73v.69zm3.76.1q-.71 0-1.25-.31-.55-.32-.85-.88-.31-.56-.31-1.29v-.1q0-.7.28-1.24.28-.55.79-.87t1.18-.32q.69 0 1.18.34t.73.96q.23.61.13 1.45h-3.48q.03.42.24.77.2.34.56.55.35.2.83.2.38 0 .68-.09.29-.09.51-.29l.46.5q-.28.3-.71.46-.44.16-.97.16m-.16-4.31q-.6 0-.97.38-.38.38-.46 1.01h2.7q-.01-.66-.36-1.02-.35-.37-.91-.37m3.2 4.21v-4.81h.78v.77q.18-.46.54-.62.35-.17.79-.17h.41v.8h-.47q-.59 0-.91.29t-.33.89v2.85zm2.84 2v-.68h2.87q.34 0 .53-.16.19-.17.19-.47 0-.28-.19-.43-.19-.16-.53-.16h-1.58q-.38 0-.57-.18-.2-.18-.22-.45-.03-.27.11-.54l.32-.65q-.37-.23-.58-.59-.21-.37-.21-.82v-.09q0-.5.27-.88.26-.38.73-.59.46-.22 1.06-.22l.22.01.49-1.01h.81l-.62 1.15q.53.19.85.59t.31.93v.11q0 .51-.26.9-.27.39-.73.62-.47.22-1.07.22-.32 0-.62-.07l-.24.47q-.07.13-.04.29.02.15.27.15h1.41q.61 0 .99.32.38.31.38.93 0 .57-.38.94-.39.36-1.03.36zm2.2-4.02q.29 0 .58-.1t.49-.36.2-.7q0-.48-.35-.77-.36-.3-.92-.3t-.91.3q-.36.29-.36.77 0 .44.2.7t.5.36.57.1m5.3 2.12q-.71 0-1.25-.31-.55-.32-.86-.88t-.3-1.29v-.1q0-.7.28-1.24.28-.55.79-.87t1.18-.32q.69 0 1.18.34t.73.96.13 1.45h-3.48q.03.42.24.77.2.34.56.55.35.2.83.2.38 0 .68-.09.29-.09.51-.29l.46.5q-.28.3-.71.46-.44.16-.97.16m-.16-4.31q-.6 0-.97.38-.38.38-.46 1.01h2.7q-.01-.66-.36-1.02-.35-.37-.91-.37m3.2 4.21v-4.81h.78v.77q.18-.46.54-.62.35-.17.79-.17h.41v.8h-.47q-.59 0-.91.29t-.33.89v2.85zm3.85 0v-4.11h-.94v-.7h1.74v4.81zm-.05-5.87v-1.16h.9v1.16zm4.5 5.97q-.71 0-1.27-.31t-.87-.86q-.32-.56-.32-1.28v-.12q0-.72.32-1.27t.88-.86q.55-.31 1.26-.31.53 0 .97.2.43.19.73.54l-.5.5q-.46-.49-1.2-.49-.48 0-.85.21-.38.21-.59.59-.22.38-.22.89v.12q0 .51.22.9.22.38.6.59.37.21.85.21.73 0 1.21-.48l.49.49q-.29.35-.73.55-.45.19-.98.19m2.75-.1v-7.3h.78v3.26q.29-.5.75-.69.45-.18.84-.18.81 0 1.32.53.5.52.5 1.55v2.83h-.81v-2.71q0-.77-.34-1.11t-.88-.35-.95.38q-.4.37-.4 1.09v2.7zm7.19 0q-.33 0-.63-.12-.31-.13-.5-.41-.2-.28-.2-.75v-2.83h-.87v-.7h.87v-1.19h.8v1.19h1.27v.7H63.1v2.88q0 .23.16.39.15.15.38.15h.73v.69zm1.65-3.71v-1.1h1v1.1zm0 3.71v-1.1h1v1.1zm3.76 0 2.66-7h1.03l2.66 7h-.88l-.71-1.91h-3.17l-.72 1.91zm1.86-2.64h2.62l-1.3-3.51zm5.34 2.64v-4.81h.77v.76q.28-.49.71-.68.42-.18.82-.18.52 0 .92.23.39.23.59.71.21-.36.5-.56.28-.21.59-.29.3-.09.57-.09.78 0 1.27.51.49.5.49 1.54v2.86h-.79v-2.76q0-.74-.32-1.07t-.84-.34q-.54 0-.9.37-.36.36-.36 1.04v2.76h-.8v-2.76q0-.74-.31-1.07-.32-.34-.84-.34-.54 0-.9.37-.37.36-.37 1.04v2.76zm10.23 0q-.33 0-.63-.12-.31-.13-.5-.41-.2-.28-.2-.75v-2.83h-.87v-.7h.87v-1.19h.8v1.19h1.27v.7h-1.27v2.88q0 .23.16.39.15.15.38.15h.73v.69zm3.15.09q-.53 0-.99-.16-.47-.17-.76-.43l.36-.56q.27.23.64.37t.75.14q.45 0 .73-.2t.28-.54q0-.28-.19-.43-.19-.16-.48-.24l-.62-.18q-.33-.08-.62-.22-.3-.14-.48-.4-.19-.26-.19-.71 0-.63.48-1.03.47-.41 1.27-.41.45 0 .86.13.4.14.7.36l-.36.56q-.26-.19-.56-.3t-.65-.11q-.43 0-.7.2t-.27.54q0 .28.19.43t.49.24l.63.18q.33.08.63.23.3.14.49.41.18.26.18.71 0 .42-.23.74t-.64.5-.94.18m2.46 1.91v-.68h2.87q.34 0 .53-.16.19-.17.19-.47 0-.28-.19-.43-.19-.16-.53-.16h-1.58q-.38 0-.57-.18-.2-.18-.22-.45-.03-.27.11-.54l.32-.65q-.37-.23-.58-.59-.21-.37-.21-.82v-.09q0-.5.27-.88.26-.38.73-.59.46-.22 1.06-.22l.22.01.49-1.01h.81l-.62 1.15q.53.19.85.59t.31.93v.11q0 .51-.26.9-.27.39-.73.62-.47.22-1.07.22-.32 0-.62-.07l-.24.47q-.07.13-.04.29.02.15.27.15h1.41q.61 0 .99.32.38.31.38.93 0 .57-.38.94-.39.36-1.03.36zm2.2-4.02q.29 0 .58-.1t.49-.36.2-.7q0-.48-.35-.77-.36-.3-.92-.3t-.91.3q-.36.29-.36.77 0 .44.2.7t.5.36.57.1m5.3 2.12q-.71 0-1.25-.31-.55-.32-.85-.88-.31-.56-.31-1.29v-.1q0-.7.28-1.24.28-.55.79-.87t1.18-.32q.69 0 1.18.34t.73.96.13 1.45h-3.48q.03.42.24.77.2.34.56.55.35.2.83.2.38 0 .68-.09.29-.09.51-.29l.46.5q-.28.3-.71.46-.44.16-.97.16m-.16-4.31q-.6 0-.97.38-.38.38-.46 1.01h2.7q-.01-.66-.36-1.02-.35-.37-.91-.37m3.2 4.21v-4.81h.78v.77q.18-.46.54-.62.35-.17.79-.17h.41v.8h-.47q-.59 0-.91.29t-.33.89v2.85zm3.85 0v-4.11h-.94v-.7h1.74v4.81zm-.05-5.87v-1.16h.9v1.16zm4.5 5.97q-.71 0-1.27-.31t-.87-.86-.32-1.28v-.12q0-.72.32-1.27t.88-.86 1.26-.31q.53 0 .97.2.43.19.73.54l-.5.5q-.46-.49-1.2-.49-.48 0-.85.21-.38.21-.59.59-.22.38-.22.89v.12q0 .51.22.9.22.38.6.59.37.21.85.21.73 0 1.21-.48l.49.49q-.29.35-.73.55-.45.19-.98.19m2.75-.1v-7.3h.78v3.26q.29-.5.75-.69.45-.18.84-.18.81 0 1.32.53.5.52.5 1.55v2.83h-.81v-2.71q0-.77-.34-1.11t-.88-.35q-.55 0-.95.38-.4.37-.4 1.09v2.7zm7.19 0q-.33 0-.63-.12-.31-.13-.5-.41-.2-.28-.2-.75v-2.83h-.87v-.7h.87v-1.19h.8v1.19h1.27v.7h-1.27v2.88q0 .23.16.39.15.15.38.15h.73v.69zm4.27 0v-7h.8l3.6 5.51v-5.51h.85v7h-.79l-3.61-5.51v5.51zm8.56.1q-.8 0-1.33-.47-.53-.48-.53-1.51v-2.93h.81v2.79q0 .77.35 1.08.34.3.86.3.54 0 .94-.36t.39-1.09v-2.72h.8v4.81h-.72v-.72q-.3.47-.74.65-.45.17-.83.17m.82-5.97v-1.15h.82v1.15zm-2.01 0v-1.15h.82v1.15zm4.98 5.87v-4.81h.78v.77q.18-.46.54-.62.35-.17.79-.17h.41v.8h-.47q-.59 0-.91.29t-.33.89v2.85zm3.47 0v-4.81h.78v.77q.29-.5.75-.69.45-.18.84-.18.81 0 1.32.53.5.52.5 1.55v2.83h-.81v-2.71q0-.77-.34-1.11t-.88-.35q-.55 0-.95.38-.4.37-.4 1.09v2.7zm8.1.1q-.56 0-1.01-.25-.45-.26-.73-.71v.86h-.74v-7.3h.81v3.27q.28-.41.71-.64t.96-.24q.65 0 1.16.31t.81.86q.29.55.29 1.27v.09q0 .74-.29 1.3t-.8.87-1.17.31m-.12-.72q.45 0 .81-.21.35-.22.56-.62.2-.4.2-.93v-.09q0-.78-.44-1.25-.45-.47-1.13-.47-.46 0-.82.22t-.57.63-.21.94.21.94.57.62.82.22m5.65.72q-.71 0-1.25-.31-.55-.32-.85-.88-.31-.56-.31-1.29v-.1q0-.7.28-1.24.28-.55.79-.87t1.18-.32q.69 0 1.18.34t.73.96.13 1.45h-3.48q.03.42.24.77.2.34.56.55.35.2.83.2.38 0 .68-.09.29-.09.51-.29l.46.5q-.28.3-.71.46-.44.16-.97.16m-.16-4.31q-.6 0-.97.38-.38.38-.46 1.01h2.7q-.01-.66-.36-1.02-.35-.37-.91-.37m3.2 4.21v-4.81h.78v.77q.18-.46.54-.62.35-.17.79-.17h.41v.8h-.47q-.59 0-.91.29t-.33.89v2.85zm2.84 2v-.68h2.87q.34 0 .53-.16.19-.17.19-.47 0-.28-.19-.43-.19-.16-.53-.16h-1.58q-.38 0-.57-.18-.2-.18-.22-.45-.03-.27.11-.54l.32-.65q-.37-.23-.58-.59-.21-.37-.21-.82v-.09q0-.5.27-.88.26-.38.73-.59.46-.22 1.06-.22l.22.01.49-1.01h.81l-.62 1.15q.53.19.85.59t.31.93v.11q0 .51-.26.9-.27.39-.73.62-.47.22-1.07.22-.32 0-.62-.07l-.24.47q-.07.13-.04.29.02.15.27.15h1.41q.61 0 .99.32.38.31.38.93 0 .57-.38.94-.39.36-1.03.36zm2.2-4.02q.29 0 .58-.1t.49-.36.2-.7q0-.48-.35-.77-.36-.3-.92-.3t-.91.3q-.36.29-.36.77 0 .44.2.7t.5.36.57.1m6.59.07q-.42 0-.71-.29-.3-.3-.3-.73t.3-.72.71-.3q.44 0 .74.3.3.29.3.72t-.3.73-.74.29m5.03 1.95v-7h.86v3h3.81v-3h.85v7h-.85v-3.22h-3.81v3.22zm7.27 0v-7h2.25q1.06 0 1.71.54.64.53.64 1.55 0 .88-.43 1.38-.44.5-1.19.65l1.83 2.88h-.99l-1.75-2.81h-1.22v2.81zm2.22-6.27h-1.37v2.73h1.37q.68 0 1.1-.33.41-.33.41-1.02 0-.66-.41-1.02-.42-.36-1.1-.36m3.82 6.27v-7h2.39q1.01 0 1.59.48t.58 1.28q0 .54-.27 1-.28.46-.85.63.65.17 1.01.63t.36 1.05q0 .88-.6 1.41t-1.73.52zm2.3-6.28h-1.46v2.34h1.52q.64 0 .99-.34.35-.33.35-.86 0-.52-.37-.83-.38-.31-1.03-.31m.17 3.03h-1.63v2.53h1.51q.78 0 1.18-.35t.39-.93q0-.53-.39-.89t-1.06-.36m7.92 3.35q-.76 0-1.31-.24t-.95-.62l.49-.57q.31.3.74.51.43.2 1.04.2.74 0 1.19-.36t.45-.94q0-.55-.43-.89-.44-.34-1.18-.34h-1v-.74h.94q.7 0 1.1-.36.39-.37.39-.9 0-.56-.4-.88-.4-.33-1.06-.33-.56 0-.96.2-.4.19-.65.45l-.48-.59q.34-.33.88-.56t1.23-.24q.67 0 1.19.23.51.22.8.64.28.42.28.98 0 .54-.27.99-.28.44-.8.68.63.23.94.68t.31 1.02q0 .59-.32 1.04-.32.44-.88.69t-1.28.25m6.29 0q-.75 0-1.3-.29t-.85-.83q-.3-.53-.3-1.25 0-.47.18-.92t.47-.89l2.04-2.92h1.03l-1.94 2.63q.39-.16.84-.16.67 0 1.19.29.51.3.8.82t.29 1.19q0 .7-.31 1.22-.31.53-.86.82-.56.29-1.28.29m-.01-.74q.7 0 1.15-.44t.45-1.14-.44-1.15-1.14-.45q-.73 0-1.17.45-.44.44-.44 1.15t.44 1.15 1.15.43m4.62.64 1.94-2.63q-.39.16-.84.16-.67 0-1.18-.29-.52-.3-.81-.82t-.29-1.19q0-.7.31-1.22.31-.53.87-.82.55-.29 1.27-.29.75 0 1.3.29t.85.82.3 1.26q0 .47-.17.92t-.48.89l-2.04 2.92zm1.26-3.18q.72 0 1.17-.44.44-.45.44-1.16t-.43-1.14q-.44-.44-1.16-.44-.7 0-1.15.44t-.45 1.14.45 1.15 1.13.45m4.74 3.18 1.94-2.63q-.39.16-.84.16-.67 0-1.18-.29-.52-.3-.81-.82t-.29-1.19q0-.7.31-1.22.31-.53.87-.82.55-.29 1.27-.29.75 0 1.3.29t.85.82.3 1.26q0 .47-.17.92t-.48.89l-2.04 2.92zm1.26-3.18q.72 0 1.17-.44.44-.45.44-1.16t-.43-1.14q-.44-.44-1.16-.44-.7 0-1.15.44t-.45 1.14.45 1.15 1.13.45m3.53 1.48v-.7l2.33-4.6h.86l-2.27 4.54h2.31v-1.88h.82v1.88h1.1v.76h-1.1v1.7h-.82v-1.7zm9.67-.25q-.42 0-.71-.29-.3-.3-.3-.73t.3-.72.71-.3q.44 0 .74.3.3.29.3.72t-.3.73-.74.29m8.13 2.1q-1.03 0-1.81-.45-.79-.46-1.23-1.26-.45-.81-.45-1.86v-.15q0-1.05.46-1.86.45-.81 1.25-1.26.8-.46 1.84-.46.66 0 1.23.22.56.21 1.01.61l-.58.61q-.35-.32-.77-.47t-.88-.15q-.79 0-1.39.35-.61.35-.95.98-.34.62-.34 1.43v.15q0 .81.34 1.44.33.62.92.97t1.36.35q.68 0 1.19-.31t.78-.83.26-1.17h-1.85v-.72h2.68q.11 1.1-.23 1.97t-1.08 1.37q-.73.5-1.76.5m6.26-.05q-.71 0-1.25-.31-.55-.32-.85-.88-.31-.56-.31-1.29v-.1q0-.7.28-1.24.28-.55.79-.87t1.18-.32q.69 0 1.18.34t.73.96.13 1.45h-3.48q.03.42.24.77.2.34.56.55.35.2.83.2.38 0 .68-.09.29-.09.51-.29l.46.5q-.28.3-.71.46-.44.16-.97.16m-.16-4.31q-.6 0-.97.38-.38.38-.46 1.01h2.7q-.01-.66-.36-1.02-.35-.37-.91-.37m4.53 4.3q-.53 0-.99-.16-.47-.17-.76-.43l.36-.56q.27.23.64.37t.75.14q.45 0 .73-.2t.28-.54q0-.28-.19-.43-.19-.16-.48-.24l-.62-.18q-.33-.08-.62-.22-.3-.14-.48-.4-.19-.26-.19-.71 0-.63.48-1.03.47-.41 1.27-.41.45 0 .86.13.4.14.7.36l-.36.56q-.26-.19-.56-.3t-.65-.11q-.43 0-.7.2t-.27.54q0 .28.19.43t.49.24l.63.18q.33.08.63.23.3.14.49.41.18.26.18.71 0 .42-.23.74t-.64.5-.94.18m5.09.01q-.71 0-1.27-.31t-.87-.86-.32-1.28v-.12q0-.72.32-1.27t.88-.86 1.26-.31q.53 0 .97.2.43.19.73.54l-.5.5q-.46-.49-1.2-.49-.48 0-.85.21-.38.21-.59.59-.22.38-.22.89v.12q0 .51.22.9.22.38.6.59.37.21.85.21.73 0 1.21-.48l.49.49q-.29.35-.73.55-.45.19-.98.19m2.75-.1v-7.3h.78v3.26q.29-.5.75-.69.45-.18.84-.18.81 0 1.32.53.5.52.5 1.55v2.83h-.81v-2.71q0-.77-.34-1.11t-.88-.35-.95.38q-.4.37-.4 1.09v2.7zm7.06.1q-.82 0-1.31-.4t-.5-1.04q0-.42.25-.75t.69-.52.97-.2q.79 0 1.26.33v-.6q0-.59-.3-.84-.31-.26-.83-.26-.39 0-.79.15t-.7.44l-.38-.57q.32-.37.84-.56t1.07-.19q.85 0 1.37.45t.52 1.34v1.54q0 .8.03 1.58h-.72l-.01-.48q-.45.58-1.46.58m.21-.61q.55 0 .86-.23t.3-.6-.3-.59q-.31-.23-.87-.23-.55 0-.87.23-.32.22-.32.59 0 .36.32.6.33.23.88.23m.65-5.36v-1.15h.82v1.15zm-2.01 0v-1.15h.82v1.15zm5.04 5.87v-4.11h-.88v-.7h.88v-1.21q0-.59.38-.93.37-.35.97-.35h.8v.69h-.81q-.23 0-.38.15t-.15.38v1.27h1.34v.7h-1.34v4.11zm4.71 0q-.33 0-.63-.12-.31-.13-.5-.41-.2-.28-.2-.75v-2.83h-.87v-.7h.87v-1.19h.8v1.19h1.27v.7h-1.27v2.88q0 .23.16.39.15.15.38.15h.73v.69zm3.15.09q-.53 0-.99-.16-.47-.17-.76-.43l.36-.56q.27.23.64.37t.75.14q.45 0 .73-.2t.28-.54q0-.28-.19-.43-.19-.16-.48-.24l-.62-.18q-.33-.08-.62-.22-.3-.14-.48-.4-.19-.26-.19-.71 0-.63.48-1.03.47-.41 1.27-.41.45 0 .86.13.4.14.7.36l-.36.56q-.26-.19-.56-.3t-.65-.11q-.43 0-.7.2t-.27.54q0 .28.19.43t.49.24l.63.18q.33.08.63.23.3.14.49.41.18.26.18.71 0 .42-.23.74t-.64.5-.94.18m3.29-.09v-4.11h-.88v-.7h.88v-1.21q0-.59.38-.93.37-.35.97-.35h.8v.69h-.81q-.23 0-.38.15t-.15.38v1.27h1.34v.7h-1.34v4.11zm4.86.1q-.8 0-1.33-.47-.53-.48-.53-1.51v-2.93h.81v2.79q0 .77.35 1.08.34.3.86.3.54 0 .94-.36t.39-1.09v-2.72h.8v4.81h-.72v-.72q-.3.47-.74.65-.45.17-.83.17m.82-5.97v-1.15h.82v1.15zm-2.01 0v-1.15h.82v1.15zm4.98 5.87v-7.3h.78v3.26q.29-.5.75-.69.45-.18.84-.18.81 0 1.32.53.5.52.5 1.55v2.83h-.81v-2.71q0-.77-.34-1.11t-.88-.35-.95.38q-.4.37-.4 1.09v2.7zm5.62 0v-4.81h.78v.77q.18-.46.54-.62.35-.17.79-.17h.41v.8h-.47q-.59 0-.91.29t-.33.89v2.85zm5.32.1q-.71 0-1.25-.31-.55-.32-.85-.88-.31-.56-.31-1.29v-.1q0-.7.28-1.24.28-.55.79-.87t1.18-.32q.69 0 1.18.34t.73.96.13 1.45h-3.48q.03.42.24.77.2.34.56.55.35.2.83.2.38 0 .67-.09t.52-.29l.46.5q-.28.3-.71.46-.44.16-.97.16m-.16-4.31q-.6 0-.97.38-.38.38-.46 1.01h2.7q-.01-.66-.36-1.02-.35-.37-.91-.37m3.2 4.21v-4.81h.78v.77q.18-.46.54-.62.35-.17.79-.17h.41v.8h-.47q-.59 0-.91.29t-.33.89v2.85zm3.3-3.71v-1.1h1v1.1zm0 3.71v-1.1h1v1.1zm3.76 0 2.66-7h1.03l2.66 7h-.88l-.71-1.91h-3.17l-.72 1.91zm1.86-2.64h2.62l-1.3-3.51zm5.34 2.64v-4.81h.78v.77q.29-.5.75-.69.45-.18.84-.18.81 0 1.32.53.5.52.5 1.55v2.83h-.81v-2.71q0-.77-.34-1.11t-.88-.35-.95.38q-.4.37-.4 1.09v2.7zm7.56.1q-.66 0-1.17-.31t-.8-.87-.29-1.3v-.09q0-.72.3-1.27.29-.55.8-.86t1.16-.31q.54 0 .97.24t.7.64v-3.27h.81v7.3h-.73v-.87q-.29.46-.74.72t-1.01.25m.11-.72q.47 0 .83-.22t.57-.62.21-.94-.21-.94-.57-.63-.83-.22q-.67 0-1.11.47t-.45 1.25v.09q0 .53.21.93t.55.62.8.21m3.35 2.62v-.69h.96q.21 0 .34-.14.12-.15.2-.35l.35-.77-1.98-4.86h.89l1.52 3.87 1.45-3.87h.89l-2.3 5.66q-.11.28-.27.54t-.43.44q-.27.17-.7.17zm7.75-2v-7h1.14l2.02 4.19 2.01-4.19h1.14v7h-.83v-5.9l-1.99 4.23h-.67l-1.98-4.23v5.9zm9.3.1q-.82 0-1.31-.4t-.5-1.04q0-.42.25-.75t.69-.52.97-.2q.79 0 1.26.33v-.6q0-.59-.3-.84-.31-.26-.83-.26-.39 0-.79.15t-.7.44l-.38-.57q.32-.37.84-.56t1.07-.19q.85 0 1.37.45t.52 1.34v1.54q0 .8.03 1.58h-.72l-.01-.48q-.45.58-1.46.58m.21-.61q.55 0 .86-.23t.3-.6-.3-.59q-.31-.23-.87-.23-.55 0-.87.23-.32.22-.32.59 0 .36.33.6.32.23.87.23m5.54.61q-.71 0-1.27-.31t-.87-.86-.32-1.28v-.12q0-.72.32-1.27t.88-.86 1.26-.31q.53 0 .97.2.43.19.73.54l-.5.5q-.46-.49-1.2-.49-.48 0-.85.21-.38.21-.59.59-.22.38-.22.89v.12q0 .51.22.9.22.38.6.59.37.21.85.21.73 0 1.21-.48l.49.49q-.29.35-.73.55-.45.19-.98.19m4.55 0q-.66 0-1.17-.31t-.8-.87-.29-1.3v-.09q0-.72.3-1.27.29-.55.8-.86t1.16-.31q.54 0 .97.24t.7.64v-3.27h.81v7.3h-.73v-.87q-.29.46-.74.72t-1.01.25m.11-.72q.47 0 .83-.22t.57-.62.21-.94-.21-.94-.57-.63-.83-.22q-.67 0-1.11.47t-.45 1.25v.09q0 .53.21.93t.55.62.8.21m5.94.72q-.69 0-1.23-.31-.54-.32-.85-.88t-.31-1.29v-.09q0-.71.31-1.26.31-.56.85-.87t1.23-.31 1.23.31.85.86.31 1.25v.11q0 .73-.31 1.29t-.85.88-1.23.31m0-.72q.47 0 .83-.22.35-.23.55-.62.2-.4.2-.92v-.11q0-.75-.44-1.22-.44-.48-1.14-.48-.46 0-.82.22t-.56.61-.21.89v.09q0 .52.21.92.2.39.56.62t.82.22m3.57.62v-4.81h.78v.77q.29-.5.75-.69.45-.18.84-.18.81 0 1.32.53.5.52.5 1.55v2.83h-.81v-2.71q0-.77-.34-1.11t-.88-.35-.95.38q-.4.37-.4 1.09v2.7zm7.06.1q-.82 0-1.31-.4t-.5-1.04q0-.42.25-.75t.69-.52.97-.2q.79 0 1.26.33v-.6q0-.59-.3-.84-.31-.26-.83-.26-.39 0-.79.15t-.7.44l-.38-.57q.32-.37.84-.56t1.07-.19q.85 0 1.37.45t.52 1.34v1.54q0 .8.03 1.58h-.72l-.01-.48q-.45.58-1.46.58m.21-.61q.55 0 .86-.23t.3-.6-.3-.59q-.31-.23-.87-.23-.55 0-.87.23-.32.22-.32.59 0 .36.33.6.32.23.87.23m4.69.51q-.59 0-.94-.33-.36-.34-.36-.9v-5.38h-.88v-.69h1.69v6.08q0 .23.15.38t.38.15h.46v.69zm3.26.1q-.66 0-1.17-.31t-.8-.87-.29-1.3v-.09q0-.72.3-1.27.29-.55.8-.86t1.16-.31q.54 0 .97.24t.7.64v-3.27h.81v7.3h-.73v-.87q-.29.46-.74.72t-1.01.25m.11-.72q.47 0 .83-.22t.57-.62.21-.94-.21-.94-.57-.63-.83-.22q-.67 0-1.11.47t-.45 1.25v.09q0 .53.21.93t.55.62.8.21"/></svg>