<svg xmlns="http://www.w3.org/2000/svg" width="600" height="300" viewBox="0 0 600 300"><path fill="#fff" d="M0 0h600v300H0z"/><path fill="#30ba78" d="M1.5 0h3v88.81h-3z"/><path fill="#0c322c" d="M22 17.25q-1.45 0-2.52-.53-1.07-.54-1.81-1.41l1.21-1.24q.74.78 1.52 1.14.78.37 1.67.37 1.24 0 1.94-.6t.7-1.55q0-.7-.37-1.14t-.97-.7q-.59-.27-1.32-.47-.72-.2-1.44-.45-.72-.24-1.32-.63t-.97-1.02-.37-1.62q0-1.21.56-2.09.56-.89 1.59-1.37 1.02-.49 2.39-.49 1.24 0 2.22.43t1.64 1.15L25.09 6.3q-.57-.59-1.19-.88-.63-.29-1.43-.29-1.16 0-1.86.57-.7.58-.7 1.52 0 .66.37 1.06t.98.65 1.34.42 1.45.42 1.33.64.98 1.05.37 1.68q0 1.26-.6 2.18t-1.66 1.42q-1.07.51-2.47.51m10.49-.06q-1.33 0-2.39-.61-1.05-.61-1.67-1.67t-.62-2.45v-.17q0-1.37.62-2.42.62-1.06 1.67-1.66 1.06-.6 2.39-.6t2.37.6q1.05.6 1.65 1.65.61 1.04.61 2.41v.19q0 1.39-.61 2.45-.6 1.06-1.65 1.67t-2.37.61m0-1.65q1.23 0 2-.86.77-.85.77-2.22v-.19q0-1.33-.77-2.17t-2-.83q-1.24 0-2.02.84-.78.85-.78 2.18v.17q0 1.37.78 2.22t2.02.86M39.36 17V9.4h-1.65V7.8h1.65V5.7q0-1.18.74-1.88.75-.69 2-.69h1.65v1.56h-1.67q-.36 0-.61.25-.24.24-.24.6V7.8h5.96V17h-1.86V9.4h-4.1V17zm5.89-11.11V3.51h2.04v2.38zm7.01 11.3q-1.55 0-2.49-.77t-.94-1.98q0-.8.47-1.44.48-.64 1.3-1.01t1.91-.37q1.39 0 2.26.54v-1.01q0-1.01-.55-1.45t-1.44-.43q-.72 0-1.48.26-.77.27-1.32.82l-.85-1.29q.63-.69 1.64-1.07 1.02-.38 2.12-.38 1.65 0 2.69.88 1.04.87 1.04 2.56v4.46q.01.75.05 1.49H55v-.93q-.82 1.12-2.74 1.12m.52-1.39q.93 0 1.47-.39t.54-1.01-.54-1-1.49-.39q-.93 0-1.49.39t-.56 1 .56 1 1.51.4M63.36 17V3.7h4.52q2.05 0 3.3 1.05 1.26 1.04 1.26 3.04 0 1.59-.77 2.56t-2.1 1.31L72.84 17h-2.28l-3.04-5.13h-2.19V17zm4.42-11.61h-2.45v4.81h2.45q1.18 0 1.9-.6.73-.6.73-1.8 0-1.14-.73-1.77-.72-.64-1.9-.64m10.28 11.8q-1.33 0-2.38-.61-1.06-.61-1.67-1.67-.62-1.06-.62-2.45v-.17q0-1.37.62-2.42.61-1.06 1.67-1.66 1.05-.6 2.38-.6t2.38.6 1.65 1.65.61 2.41v.19q0 1.39-.61 2.45t-1.65 1.67-2.38.61m0-1.65q1.24 0 2.01-.86.77-.85.77-2.22v-.19q0-1.33-.77-2.17t-2.01-.83-2.01.84q-.78.85-.78 2.18v.17q0 1.37.78 2.22t2.01.86m8.95 1.63q-1.06 0-1.96-.32-.91-.32-1.5-.8l.82-1.27q.55.42 1.24.67t1.4.26q.76 0 1.23-.34t.46-.88q0-.49-.34-.75-.34-.25-.88-.41l-1.16-.31q-.62-.16-1.16-.44-.54-.27-.89-.78-.35-.5-.35-1.35 0-1.26.94-2.05t2.51-.79q.9 0 1.68.26.79.26 1.4.68l-.83 1.25q-.5-.34-1.08-.54t-1.19-.2q-.74 0-1.19.34-.46.34-.46.87 0 .5.35.75.35.26.91.41l1.18.33q.62.17 1.18.45t.91.8.35 1.37q0 .82-.46 1.44-.47.63-1.26.99-.8.36-1.85.36m7.87 0q-1.07 0-1.97-.32t-1.49-.8l.82-1.27q.55.42 1.23.67.69.26 1.41.26.76 0 1.22-.34.47-.35.47-.88 0-.49-.34-.75-.35-.25-.89-.41l-1.16-.31q-.61-.16-1.15-.44-.55-.27-.9-.78-.35-.5-.35-1.35 0-1.26.94-2.05t2.52-.79q.89 0 1.68.26t1.4.68l-.84 1.25q-.49-.34-1.07-.54t-1.19-.2q-.74 0-1.2.34t-.45.87q0 .5.35.75.35.26.91.41l1.18.33q.62.17 1.18.45t.91.8.35 1.37q0 .82-.47 1.44-.46.63-1.26.99t-1.84.36m5.98-.17V9.4h-1.71V7.8h3.59V17zm-.07-11.11V3.51h2.07v2.38z"/><path fill="#4b7a70" d="M18.04 36.84v-8.4h1.37l2.43 5.03 2.41-5.03h1.37v8.4h-1v-7.08l-2.39 5.08h-.8l-2.38-5.08v7.08zm11.16.12q-.98 0-1.57-.48t-.6-1.25q0-.5.3-.9.3-.39.82-.63.53-.23 1.17-.23.95 0 1.52.39v-.72q0-.7-.37-1.01t-.99-.31q-.47 0-.95.18-.49.17-.84.53l-.45-.68q.38-.45 1-.67.63-.23 1.29-.23 1.02 0 1.64.54.63.54.63 1.61v1.84q0 .96.03 1.9h-.86l-.01-.58q-.54.7-1.76.7m.26-.73q.66 0 1.02-.28.37-.27.37-.72t-.37-.71q-.36-.27-1.04-.27-.66 0-1.04.27t-.38.71.39.72 1.05.28m4.08.61v-5.77h.93v.92q.22-.55.64-.75t.96-.2h.49V32H36q-.71 0-1.1.35t-.39 1.07v3.42zm4.16 0v-8.76h.97v5.74l2.67-2.75h1.2l-2.2 2.29 2.38 3.48h-1.2l-1.88-2.77-.97 1.02v1.75zm8.22.12q-.85 0-1.51-.38-.65-.38-1.02-1.05-.36-.67-.36-1.55v-.12q0-.84.33-1.49.34-.65.95-1.04.61-.38 1.42-.38.83 0 1.41.41.59.4.87 1.14t.17 1.75H44q.04.5.28.92.25.41.67.66.43.24 1.01.24.45 0 .81-.11.35-.1.61-.34l.56.6q-.34.36-.86.55t-1.16.19m-.19-5.17q-.72 0-1.17.45-.45.46-.55 1.22h3.24q-.01-.8-.43-1.23-.42-.44-1.09-.44m5.76 5.05q-.4 0-.76-.15-.37-.15-.6-.49-.24-.33-.24-.9v-3.39h-1.04v-.84h1.04v-1.43h.96v1.43h1.53v.84h-1.53v3.45q0 .28.19.47.18.18.46.18h.88v.83zm2.64 0v-4.93H53v-.84h2.09v5.77zm-.06-7.04v-1.4h1.08v1.4zm2.83 7.04v-5.77h.94v.92q.34-.6.89-.82t1.01-.22q.98 0 1.58.63t.61 1.86v3.4h-.97v-3.25q0-.93-.42-1.34-.41-.41-1.05-.41-.66 0-1.14.45t-.48 1.31v3.24zm6.17 2.4v-.82h3.44q.41 0 .64-.19.23-.2.23-.56 0-.34-.23-.52-.23-.19-.64-.19h-1.89q-.46 0-.69-.22-.24-.21-.27-.54-.03-.32.14-.64l.38-.78q-.44-.28-.69-.72t-.25-.98v-.1q0-.6.31-1.06.32-.46.88-.71.56-.26 1.28-.26l.26.01.59-1.21h.97l-.74 1.38q.63.23 1.01.71t.38 1.11v.13q0 .62-.32 1.08t-.87.74-1.28.27q-.39 0-.75-.08l-.28.56q-.09.16-.06.34t.33.19h1.69q.74 0 1.19.38.46.38.46 1.12 0 .68-.46 1.12t-1.23.44zm2.64-4.82q.35 0 .69-.13.35-.13.59-.43.24-.31.24-.84 0-.57-.42-.93-.43-.35-1.1-.35t-1.1.35-.43.93q0 .53.24.84t.6.43q.35.13.69.13m6.79 2.42v-8.4h1.37l2.42 5.03 2.41-5.03h1.37v8.4h-.99v-7.08l-2.39 5.08h-.81l-2.37-5.08v7.08zm11.16.12q-.98 0-1.58-.48-.59-.48-.59-1.25 0-.5.3-.9.3-.39.82-.63t1.17-.23q.95 0 1.51.39v-.72q0-.7-.36-1.01-.37-.31-.99-.31-.47 0-.96.18-.48.17-.83.53l-.46-.68q.39-.45 1.01-.67t1.28-.23q1.02 0 1.65.54t.62 1.61v1.84q0 .96.04 1.9h-.87l-.01-.58q-.54.7-1.75.7m.25-.73q.66 0 1.03-.28.36-.27.36-.72t-.36-.71q-.37-.27-1.04-.27-.66 0-1.04.27-.39.27-.39.71t.39.72 1.05.28m4.08.61v-5.77h.94v.92q.35-.6.89-.82.55-.22 1.02-.22.97 0 1.57.63t.61 1.86v3.4h-.97v-3.25q0-.93-.42-1.34-.41-.41-1.05-.41-.66 0-1.14.45t-.48 1.31v3.24zm8.47.12q-.98 0-1.57-.48t-.6-1.25q0-.5.3-.9.3-.39.82-.63.53-.23 1.17-.23.95 0 1.52.39v-.72q0-.7-.37-1.01t-.99-.31q-.47 0-.95.18-.49.17-.84.53l-.45-.68q.38-.45 1-.67.63-.23 1.29-.23 1.02 0 1.64.54.63.54.63 1.61v1.84q0 .96.03 1.9h-.86l-.01-.58q-.54.7-1.76.7m.26-.73q.66 0 1.02-.28.37-.27.37-.72t-.37-.71q-.36-.27-1.04-.27-.66 0-1.04.27t-.38.71.39.72 1.05.28m3.5 3.01v-.82h3.44q.41 0 .64-.19.23-.2.23-.56 0-.34-.23-.52-.23-.19-.64-.19h-1.89q-.46 0-.69-.22-.24-.21-.27-.54-.03-.32.14-.64l.39-.78q-.45-.28-.7-.72t-.25-.98v-.1q0-.6.32-1.06.31-.46.87-.71.56-.26 1.28-.26l.26.01.59-1.21h.97l-.74 1.38q.64.23 1.01.71.38.48.38 1.11v.13q0 .62-.32 1.08-.31.47-.87.74t-1.28.27q-.38 0-.74-.08l-.29.56q-.09.16-.06.34t.33.19h1.7q.73 0 1.18.38.46.38.46 1.12 0 .68-.46 1.12t-1.23.44zm2.64-4.82q.35 0 .7-.13t.58-.43q.24-.31.24-.84 0-.57-.42-.93-.43-.35-1.1-.35t-1.1.35q-.42.36-.42.93 0 .53.24.84t.59.43q.35.13.69.13m6.36 2.54q-.85 0-1.51-.38-.65-.38-1.02-1.05-.36-.67-.36-1.55v-.12q0-.84.33-1.49.34-.65.95-1.04.61-.38 1.42-.38.83 0 1.41.41.59.4.87 1.14t.17 1.75h-4.18q.04.5.28.92.25.41.67.66.43.24 1.01.24.45 0 .81-.11.35-.1.61-.34l.56.6q-.34.36-.86.55t-1.16.19m-.19-5.17q-.72 0-1.17.45-.45.46-.55 1.22h3.24q-.01-.8-.43-1.23-.42-.44-1.09-.44m3.84 5.05v-5.77h.93v.92q.22-.55.65-.75.42-.2.95-.2h.49V32h-.56q-.71 0-1.1.35t-.39 1.07v3.42zm3.03 0v-1.32h1.23v2.16q0 .52-.3.71-.29.2-.64.2h-.36V38h.36q.16 0 .24-.09.07-.1.07-.24v-.83zm9.21.14q-.9 0-1.68-.3-.77-.31-1.36-.87t-.92-1.35-.33-1.72v-.2q0-.94.33-1.72t.92-1.35q.59-.56 1.36-.87t1.68-.3q.78 0 1.44.23.67.23 1.19.67l-.65.76q-.82-.67-1.98-.67-.93 0-1.66.42-.73.41-1.15 1.14-.42.72-.42 1.69v.2q0 .97.42 1.69.42.73 1.15 1.14.73.42 1.66.42 1.19 0 2.01-.71l.65.78q-.53.44-1.21.68t-1.45.24m5.52-.14q-.71 0-1.14-.4t-.42-1.08v-6.45h-1.06v-.83h2.03v7.3q0 .27.18.45t.46.18h.55v.83zm4.05.12q-.82 0-1.47-.38t-1.02-1.05-.37-1.55v-.1q0-.86.37-1.52.37-.67 1.02-1.04t1.47-.37 1.48.37 1.02 1.03.37 1.5v.13q0 .88-.37 1.55t-1.02 1.05-1.48.38m0-.86q.57 0 .99-.27t.67-.75.24-1.1v-.13q0-.9-.53-1.47t-1.37-.57q-.55 0-.98.27-.43.26-.68.73-.24.47-.24 1.07v.1q0 .63.24 1.1.25.48.68.75t.98.27m6.44.86q-.96 0-1.6-.57t-.64-1.81v-3.51h.98v3.35q0 .92.41 1.29.41.36 1.04.36.65 0 1.12-.43t.47-1.31v-3.26h.96v5.77H143v-.86q-.36.56-.89.77-.54.21-.99.21m6.87 0q-.79 0-1.4-.37t-.96-1.05-.35-1.56v-.1q0-.87.35-1.53.36-.66.97-1.03t1.39-.37q.65 0 1.16.28t.85.77v-3.92h.97v8.76h-.88V35.8q-.35.55-.89.85-.54.31-1.21.31m.13-.86q.57 0 1-.27.43-.26.68-.74t.26-1.13-.26-1.13q-.25-.49-.68-.75-.43-.27-1-.27-.8 0-1.33.57-.54.56-.54 1.5v.1q0 .64.25 1.12.24.48.66.74t.96.26m7.59.74v-8.4h.96l4.32 6.61v-6.61h1.02v8.4h-.95l-4.33-6.61v6.61zm9.87.12q-.98 0-1.57-.48t-.6-1.25q0-.5.3-.9.3-.39.82-.63.53-.23 1.17-.23.95 0 1.52.39v-.72q0-.7-.37-1.01t-.99-.31q-.47 0-.95.18-.49.17-.84.53l-.45-.68q.38-.45 1-.67.63-.23 1.29-.23 1.02 0 1.64.54.63.54.63 1.61v1.84q0 .96.03 1.9h-.86l-.01-.58q-.54.7-1.76.7m.26-.73q.66 0 1.02-.28.37-.27.37-.72t-.37-.71-1.04-.27-1.04.27-.38.71.39.72 1.05.28m5.97.61q-.39 0-.76-.15t-.6-.49q-.23-.33-.23-.9v-3.39h-1.05v-.84h1.05v-1.43h.96v1.43h1.52v.84h-1.52v3.45q0 .28.18.47.19.18.46.18h.88v.83zm2.64 0v-4.93h-1.13v-.84h2.09v5.77zm-.06-7.04v-1.4h1.08v1.4zm4.36 7.04-2.29-5.77h1l1.8 4.63 1.79-4.63h1.01l-2.28 5.77zm6.75.12q-.85 0-1.5-.38-.66-.38-1.02-1.05-.37-.67-.37-1.55v-.12q0-.84.34-1.49.33-.65.95-1.04.61-.38 1.41-.38.83 0 1.42.41t.87 1.14q.28.74.16 1.75h-4.18q.04.5.29.92.24.41.67.66.42.24 1 .24.46 0 .81-.11t.62-.34l.55.6q-.34.36-.86.55t-1.16.19m-.19-5.17q-.72 0-1.17.45-.45.46-.54 1.22h3.24q-.02-.8-.44-1.23-.42-.44-1.09-.44"/><path fill="#30ba78" d="M19.5 64.55q-.64 0-1.2-.2t-.9-.51l.43-.67q.32.27.77.44.44.17.9.17.54 0 .87-.25.34-.24.34-.64 0-.33-.23-.52t-.58-.29l-.74-.2q-.4-.1-.75-.27t-.58-.48-.22-.85q0-.76.57-1.25.57-.48 1.53-.48.54 0 1.03.16.48.16.84.43l-.43.67q-.31-.23-.68-.36-.36-.13-.77-.13-.52 0-.84.24-.32.25-.32.64 0 .34.22.52.23.18.59.29.35.11.75.21t.76.27.59.5q.22.31.22.85 0 .51-.28.89-.27.39-.77.6-.49.22-1.12.22m6.02.01q-.83 0-1.48-.38-.64-.38-1.02-1.05-.37-.67-.37-1.55v-.1q0-.86.37-1.52.38-.67 1.02-1.04.65-.37 1.48-.37t1.48.37 1.02 1.03.37 1.5v.13q0 .88-.37 1.55-.38.67-1.02 1.05-.65.38-1.48.38m0-.86q.56 0 .99-.27t.67-.75.24-1.1v-.13q0-.9-.53-1.47t-1.37-.57q-.55 0-.98.27-.44.26-.68.73t-.25 1.07v.1q0 .63.25 1.1.24.48.68.75.43.27.98.27m4.6.74v-4.93h-1.06v-.84h1.06v-1.45q0-.71.45-1.13t1.17-.41h1.08v.83h-1.1q-.27 0-.45.18t-.18.45v1.53h3.72v5.77h-.97v-4.93h-2.75v4.93zm3.68-7.04V56h1.06v1.4zm4.54 7.16q-.99 0-1.58-.48t-.6-1.25q0-.5.3-.9.3-.39.83-.63.52-.23 1.17-.23.94 0 1.51.39v-.72q0-.7-.37-1.01-.36-.31-.99-.31-.47 0-.95.18-.49.17-.84.53l-.45-.68q.38-.45 1.01-.67.62-.23 1.28-.23 1.02 0 1.64.54.63.54.63 1.61v1.84q0 .96.03 1.9h-.86l-.01-.58q-.54.7-1.75.7m.25-.73q.66 0 1.02-.28.37-.27.37-.72t-.37-.71-1.03-.27-1.05.27-.38.71.39.72 1.05.28m3.9.61v-1.32h1.17v1.32zm2.79 0v-5.77h.94v.92q.22-.55.64-.75t.96-.2h.49v.96h-.57q-.7 0-1.09.35t-.39 1.07v3.42zm6.36.12q-.82 0-1.47-.38t-1.02-1.05-.37-1.55v-.1q0-.86.37-1.52.37-.67 1.02-1.04t1.47-.37q.83 0 1.48.37t1.02 1.03.37 1.5v.13q0 .88-.37 1.55t-1.02 1.05-1.48.38m0-.86q.57 0 .99-.27t.67-.75.24-1.1v-.13q0-.9-.53-1.47t-1.37-.57q-.55 0-.98.27-.43.26-.68.73-.24.47-.24 1.07v.1q0 .63.24 1.1.25.48.68.75t.98.27m5.86.85q-.64 0-1.19-.2-.56-.2-.91-.51l.43-.67q.33.27.77.44t.9.17q.54 0 .88-.25.33-.24.33-.64 0-.33-.23-.52-.22-.19-.57-.29l-.75-.2q-.39-.1-.75-.27-.35-.17-.57-.48t-.22-.85q0-.76.57-1.25.57-.48 1.53-.48.54 0 1.02.16.49.16.85.43l-.43.67q-.32-.23-.68-.36t-.78-.13q-.51 0-.84.24-.32.25-.32.64 0 .34.23.52t.58.29.76.21.76.27.58.5q.22.31.22.85 0 .51-.27.89-.28.39-.77.6-.49.22-1.13.22m5.12 0q-.63 0-1.19-.2t-.91-.51l.44-.67q.32.27.76.44.45.17.9.17.54 0 .88-.25.34-.24.34-.64 0-.33-.23-.52t-.58-.29l-.74-.2q-.4-.1-.75-.27-.36-.17-.58-.48t-.22-.85q0-.76.57-1.25.57-.48 1.53-.48.54 0 1.03.16.48.16.84.43l-.43.67q-.31-.23-.68-.36-.36-.13-.77-.13-.52 0-.84.24-.33.25-.33.64 0 .34.23.52t.58.29.76.21.76.27q.36.18.58.5.23.31.23.85 0 .51-.28.89-.28.39-.77.6-.49.22-1.13.22m4.01-.11v-4.93H65.5v-.84h2.09v5.77zm-.06-7.04V56h1.08v1.4zm7.38 8.94q-1.45 0-2.56-.62t-1.73-1.75q-.63-1.14-.63-2.69 0-1.14.36-2.06t1.03-1.59q.66-.67 1.58-1.03.91-.36 2-.36 1.4 0 2.47.58t1.67 1.61.6 2.41q0 1.34-.57 2.1t-1.46.76q-.51 0-.91-.26t-.56-.73q-.24.47-.65.73t-.97.26q-.6 0-1.07-.3-.47-.29-.74-.81-.27-.53-.27-1.22 0-.71.27-1.23t.74-.81 1.05-.29q.52 0 .9.2.39.21.63.59v-.71h.77v2.81q0 .49.26.76.26.26.61.26.49 0 .84-.52t.35-1.51q0-1.17-.5-2.07-.51-.9-1.4-1.41t-2.06-.5q-1.22 0-2.17.54-.94.54-1.47 1.52-.54.98-.54 2.27 0 1.33.53 2.31.52.97 1.44 1.5.93.54 2.15.54.79 0 1.45-.25t1.24-.7l.33.63q-.62.5-1.36.77t-1.65.27m-.23-3.38q.63 0 1.01-.43.37-.43.37-1.16t-.37-1.17-1.01-.43q-.62 0-1 .44-.39.44-.39 1.16t.39 1.16q.38.43 1 .43m8.09 1.59q-.63 0-1.19-.2t-.91-.51l.43-.67q.33.27.77.44.45.17.9.17.54 0 .88-.25.33-.24.33-.64 0-.33-.22-.52-.23-.19-.58-.29l-.74-.2q-.4-.1-.75-.27-.36-.17-.58-.48t-.22-.85q0-.76.57-1.25.57-.48 1.53-.48.54 0 1.02.16.49.16.85.43l-.43.67q-.31-.23-.68-.36t-.77-.13q-.52 0-.84.24-.33.25-.33.64 0 .34.23.52t.58.29q.36.11.76.21t.76.27.58.5q.22.31.22.85 0 .51-.27.89-.28.39-.77.6-.49.22-1.13.22m5.7.01q-.96 0-1.59-.57t-.64-1.81v-3.51h.97v3.35q0 .92.42 1.29.41.36 1.03.36.65 0 1.13-.43t.47-1.31v-3.26h.96v5.77h-.86v-.86q-.36.56-.9.77-.53.21-.99.21m6.15-.01q-.64 0-1.2-.2t-.9-.51l.43-.67q.32.27.77.44.44.17.9.17.54 0 .87-.25.34-.24.34-.64 0-.33-.23-.52t-.58-.29l-.74-.2q-.4-.1-.75-.27t-.58-.48q-.22-.31-.22-.85 0-.76.57-1.25.57-.48 1.53-.48.54 0 1.03.16.48.16.84.43l-.43.67q-.31-.23-.68-.36-.36-.13-.77-.13-.52 0-.84.24-.32.25-.32.64 0 .34.22.52.23.18.59.29.35.11.75.21t.76.27.59.5q.22.31.22.85 0 .51-.28.89-.27.39-.77.6-.49.22-1.12.22m6.04.01q-.85 0-1.5-.38-.66-.38-1.02-1.05-.37-.67-.37-1.55v-.12q0-.84.34-1.49.33-.65.95-1.04.61-.38 1.41-.38.83 0 1.42.41t.87 1.14.16 1.75h-4.18q.04.5.29.92.24.41.67.66.42.24 1 .24.46 0 .81-.11t.62-.34l.55.6q-.34.36-.86.55t-1.16.19m-.19-5.17q-.72 0-1.17.45-.45.46-.54 1.22h3.24q-.02-.8-.44-1.23-.42-.44-1.09-.44m3.66 5.05v-1.32h1.18v1.32zm5.21.12q-.85 0-1.52-.37-.68-.37-1.05-1.04-.38-.67-.38-1.53v-.14q0-.87.38-1.53.39-.66 1.05-1.03.67-.37 1.52-.37.64 0 1.16.23t.88.66l-.6.6q-.55-.59-1.44-.59-.58 0-1.03.25t-.7.71q-.26.45-.26 1.07v.14q0 .61.26 1.07.27.47.72.72t1.02.25q.88 0 1.45-.58l.59.59q-.35.42-.88.66-.53.23-1.17.23m5.62 0q-.83 0-1.48-.38t-1.02-1.05-.37-1.55v-.1q0-.86.37-1.52.37-.67 1.02-1.04t1.48-.37q.82 0 1.47.37t1.02 1.03.37 1.5v.13q0 .88-.37 1.55t-1.02 1.05-1.47.38m0-.86q.56 0 .99-.27t.66-.75.24-1.1v-.13q0-.9-.53-1.47-.52-.57-1.36-.57-.56 0-.99.27-.43.26-.68.73-.24.47-.24 1.07v.1q0 .63.24 1.1.25.48.68.75t.99.27m4.28.74v-5.77h.92v.91q.34-.59.85-.81t.99-.22q.62 0 1.1.27.47.28.71.86.25-.44.6-.68t.7-.35q.37-.1.69-.1.94 0 1.53.6.59.61.59 1.86v3.43h-.95v-3.31q0-.89-.39-1.29-.38-.4-1-.4-.65 0-1.08.43-.44.44-.44 1.26v3.31h-.96v-3.31q0-.89-.37-1.29-.38-.4-1.01-.4-.64 0-1.08.43-.44.44-.44 1.26v3.31z"/><path fill="#0c322c" d="M18.04 83.63v-8.4h1.37l2.43 5.03 2.41-5.03h1.37v8.4h-1v-7.08l-2.39 5.08h-.8l-2.38-5.08v7.08zm9.33-4.45v-1.32h1.2v1.32zm0 4.45v-1.32h1.2v1.32zm11.1-1.42v-2.38H36.1v-.81h2.37v-2.39h.83v2.39h2.38v.81H39.3v2.38zm7.33 1.54q-.91 0-1.57-.29t-1.14-.74l.59-.69q.37.36.89.61.51.25 1.25.25.88 0 1.42-.44.54-.43.54-1.12 0-.66-.52-1.07t-1.41-.41h-1.2v-.89h1.13q.84 0 1.31-.44.48-.43.48-1.07 0-.67-.48-1.06T45.82 76q-.68 0-1.16.23t-.78.55l-.57-.71q.41-.4 1.05-.68t1.48-.28q.8 0 1.42.27t.96.77q.34.51.34 1.18 0 .65-.33 1.18-.33.54-.95.82.76.28 1.13.82t.37 1.22q0 .71-.38 1.25-.39.53-1.06.83t-1.54.3m5.88-.12 2.33-3.16q-.47.2-1.01.2-.8 0-1.42-.36-.62-.35-.96-.98-.35-.62-.35-1.42 0-.84.37-1.47t1.04-.98q.66-.35 1.53-.35.9 0 1.56.35t1.02.98.36 1.51q0 .57-.21 1.11t-.57 1.07l-2.45 3.5zm1.52-3.82q.86 0 1.39-.53.54-.53.54-1.39t-.52-1.37-1.39-.52q-.84 0-1.38.53-.54.52-.54 1.36t.53 1.38 1.37.54m9.8 3.94q-.91 0-1.57-.29t-1.14-.74l.59-.69q.37.36.88.61.52.25 1.25.25.89 0 1.43-.44.54-.43.54-1.12 0-.66-.52-1.07t-1.41-.41h-1.2v-.89h1.13q.84 0 1.31-.44.47-.43.47-1.07 0-.67-.48-1.06T63.01 76q-.67 0-1.15.23t-.78.55l-.58-.71q.41-.4 1.06-.68t1.48-.28q.8 0 1.42.27t.96.77q.34.51.34 1.18 0 .65-.33 1.18-.33.54-.95.82.75.28 1.12.82t.38 1.22q0 .71-.39 1.25-.38.53-1.05.83-.68.3-1.54.3m4.43-2.16v-.84l2.79-5.52h1.04l-2.73 5.45h2.77v-2.26h.99v2.26h1.32v.91h-1.32v2.04h-.99v-2.04zm10.25 2.16q-1.43 0-2.25-1.14-.81-1.14-.81-3.17 0-1.35.36-2.33.37-.97 1.05-1.48.69-.52 1.65-.52.94 0 1.63.52.69.51 1.06 1.48.37.98.37 2.33 0 2.03-.82 3.17t-2.24 1.14m0-.92q.96 0 1.5-.89.54-.88.54-2.5t-.54-2.52-1.5-.89-1.5.89-.54 2.52q0 1.62.54 2.5.54.89 1.5.89m7.45.8v-.94h2.21v-5.92q0-.27-.17-.44-.16-.16-.42-.16h-1.6v-.94H87q.59 0 .96.38t.37.95v6.13h2.19v.94zm6.96 0v-.76l3.09-3.12q.65-.66.88-1.14.23-.49.23-.94 0-.75-.44-1.17-.44-.43-1.18-.43-.58 0-1.08.32t-.89.89l-.66-.63q.46-.71 1.15-1.13.7-.41 1.51-.41.8 0 1.38.31.59.3.92.86.32.56.32 1.29 0 .61-.29 1.27-.3.66-1.14 1.5l-2.34 2.37h4.11v.92zm9.71.12q-.92 0-1.58-.29t-1.14-.74l.59-.69q.37.36.89.61t1.25.25q.89 0 1.43-.44.54-.43.54-1.12 0-.66-.53-1.07-.52-.41-1.41-.41h-1.2v-.89h1.13q.84 0 1.32-.44.47-.43.47-1.07 0-.67-.48-1.06t-1.27-.39q-.67 0-1.15.23t-.78.55l-.58-.71q.41-.4 1.06-.68.64-.28 1.47-.28.81 0 1.42.27.62.27.96.77.35.51.35 1.18 0 .65-.33 1.18-.33.54-.96.82.76.28 1.13.82t.37 1.22q0 .71-.38 1.25-.39.53-1.06.83t-1.53.3m7.22-2.16v-.84l2.8-5.52h1.03l-2.73 5.45h2.78v-2.26h.98v2.26h1.32v.91h-1.32v2.04h-.98v-2.04zm10.01 2.16q-.88 0-1.54-.29-.67-.3-1.13-.74l.58-.69q.36.35.88.6.52.26 1.22.26.95 0 1.5-.52t.55-1.39q0-.77-.44-1.26-.45-.48-1.27-.48-.63 0-1.06.3t-.62.79h-.83l.13-3.9q.01-.53.38-.86.38-.34.92-.34h3.39v.91h-3.2q-.22 0-.38.13-.16.14-.17.35l-.1 2.43q.29-.32.73-.5.43-.19 1.01-.19.77 0 1.33.33.57.32.87.9t.31 1.34q0 .89-.39 1.52t-1.09.96q-.69.34-1.58.34m7.51 0q-.9 0-1.56-.35t-1.02-.99-.36-1.5q0-.57.21-1.11t.57-1.07l2.45-3.5h1.23l-2.32 3.16q.46-.2 1-.2.81 0 1.43.36.61.35.96.98.35.62.35 1.42 0 .84-.37 1.47t-1.04.98-1.53.35m-.01-.89q.84 0 1.38-.53.54-.52.54-1.36t-.54-1.38-1.36-.54q-.87 0-1.4.53t-.53 1.39q0 .85.52 1.37t1.39.52m5.05.77 3.84-7.49h-4.63v-.91h5.77v.71l-3.85 7.69z"/><path fill="#0c322c" fill-opacity=".1" d="M0 103.31h165.75v1H0z"/><path fill="#0c322c" fill-opacity=".2" d="M111.98 132.83v-12.65h1.11v12.65z"/><path fill="#4b7a70" d="M123.62 130.91q-.59 0-1.1-.18t-.83-.47l.4-.62q.3.26.7.41.41.16.83.16.49 0 .8-.23t.31-.59q0-.31-.21-.48t-.53-.26l-.68-.19q-.36-.09-.69-.25-.32-.15-.53-.44-.2-.28-.2-.78 0-.69.52-1.14.53-.44 1.41-.44.49 0 .94.15t.77.39l-.39.61q-.29-.2-.63-.33-.33-.12-.71-.12-.47 0-.77.23-.29.22-.29.59 0 .31.21.47.21.17.53.26l.69.2q.37.09.7.25t.54.45.2.79q0 .46-.25.81-.26.35-.71.55t-1.03.2m5.22.01q-.88 0-1.46-.52t-.58-1.66v-3.22h.89v3.07q0 .85.38 1.18.38.34.95.34.59 0 1.03-.4.43-.4.43-1.2v-2.99h.88v5.29h-.79v-.79q-.33.52-.82.71t-.91.19m5.64-.01q-.59 0-1.1-.18t-.83-.47l.4-.62q.29.26.7.41.41.16.83.16.49 0 .8-.23t.31-.59q0-.31-.21-.48t-.53-.26l-.68-.19q-.37-.09-.69-.25-.32-.15-.53-.44-.2-.28-.2-.78 0-.69.52-1.14t1.4-.44q.5 0 .94.15.45.15.78.39l-.4.61q-.28-.2-.62-.33-.33-.12-.71-.12-.47 0-.77.23-.3.22-.3.59 0 .31.21.47.21.17.54.26l.69.2q.37.09.7.25t.53.45.21.79q0 .46-.26.81-.25.35-.7.55t-1.03.2m5.54.01q-.78 0-1.38-.35t-.94-.96-.33-1.42v-.11q0-.77.31-1.37.3-.6.87-.95.56-.35 1.29-.35.76 0 1.3.37.54.38.8 1.05.26.68.15 1.6h-3.83q.03.47.26.85.22.38.61.6.39.23.92.23.42 0 .74-.1.33-.1.57-.32l.51.55q-.31.33-.79.5-.48.18-1.06.18m-.18-4.74q-.66 0-1.07.42t-.5 1.11h2.97q-.01-.73-.4-1.13-.38-.4-1-.4m3.36 4.63v-1.21h1.08v1.21zm4.77.11q-.78 0-1.4-.34t-.96-.95-.34-1.4v-.14q0-.79.35-1.39.35-.61.96-.95t1.39-.34q.59 0 1.06.21.48.22.81.6l-.55.55q-.5-.54-1.32-.54-.53 0-.94.24t-.65.64q-.23.42-.23.98v.14q0 .56.24.98t.65.65.94.24q.81 0 1.33-.53l.54.54q-.32.38-.81.6-.48.21-1.07.21m5.15 0q-.76 0-1.35-.35t-.94-.96-.34-1.42v-.1q0-.78.34-1.39t.94-.95 1.35-.34 1.35.34.94.94.34 1.38v.12q0 .81-.34 1.42-.34.62-.94.96-.59.35-1.35.35m0-.79q.52 0 .91-.25t.61-.68.22-1.01v-.12q0-.82-.49-1.35-.48-.52-1.25-.52-.51 0-.9.24-.4.25-.62.67-.23.43-.23.98v.1q0 .57.23 1.01.22.43.62.68.39.25.9.25m3.93.68v-5.29h.84v.84q.31-.54.78-.75t.91-.2q.57 0 1 .25.44.26.66.78.23-.39.54-.62t.65-.32.63-.09q.86 0 1.4.55.54.56.54 1.7v3.15h-.87v-3.04q0-.81-.35-1.18t-.92-.37q-.6 0-1 .4-.39.41-.39 1.15v3.04h-.88v-3.04q0-.81-.35-1.18t-.92-.37q-.59 0-.99.4t-.4 1.15v3.04z"/><path fill="#0c322c" fill-opacity=".08" d="M0 147.31h600v1H0z"/><path fill="#999" d="M.39 169.31v-.78h1.23v-5.44H.39v-.78h3.33v.78H2.48v5.44h1.24v.78zm8.24.1q-.82 0-1.31-.4t-.5-1.04q0-.42.25-.75t.69-.52.97-.2q.79 0 1.26.33v-.6q0-.59-.3-.84-.31-.26-.83-.26-.39 0-.79.15t-.7.44l-.38-.57q.32-.37.84-.56t1.07-.19q.85 0 1.37.45t.52 1.34v1.54q0 .8.03 1.58h-.72l-.01-.48q-.45.58-1.46.58m.21-.61q.55 0 .86-.23t.3-.6-.3-.59q-.31-.23-.87-.23-.55 0-.87.23-.32.22-.32.59 0 .36.33.6.32.23.87.23m3.4.51v-4.81h.77v.76q.28-.49.71-.68.42-.18.82-.18.52 0 .92.23.39.23.59.71.21-.36.5-.56.28-.21.59-.29.3-.09.57-.09.78 0 1.27.51.49.5.49 1.54v2.86h-.79v-2.76q0-.74-.32-1.07t-.84-.34q-.54 0-.9.37-.36.36-.36 1.04v2.76h-.8v-2.76q0-.74-.31-1.07-.32-.34-.84-.34-.54 0-.9.37-.37.36-.37 1.04v2.76zm12.43.1q-.82 0-1.31-.4t-.5-1.04q0-.42.25-.75t.69-.52q.43-.2.97-.2.79 0 1.26.33v-.6q0-.59-.3-.84-.31-.26-.83-.26-.39 0-.79.15t-.7.44l-.38-.57q.32-.37.84-.56t1.07-.19q.85 0 1.37.45t.52 1.34v1.54q0 .8.03 1.58h-.72l-.01-.48q-.45.58-1.46.58m.21-.61q.55 0 .86-.23t.3-.6-.3-.59q-.31-.23-.87-.23-.55 0-.87.23-.32.22-.32.59 0 .36.33.6.32.23.87.23m3.4.51v-4.81h.78v.77q.29-.5.75-.69.45-.18.84-.18.81 0 1.32.53.5.52.5 1.55v2.83h-.81v-2.71q0-.77-.34-1.11t-.88-.35q-.55 0-.95.38-.4.37-.4 1.09v2.7zm9.39.1q-.82 0-1.31-.4t-.5-1.04q0-.42.25-.75t.69-.52.97-.2q.79 0 1.26.33v-.6q0-.59-.3-.84-.31-.26-.83-.26-.39 0-.79.15t-.7.44l-.38-.57q.32-.37.84-.56t1.07-.19q.85 0 1.37.45t.52 1.34v1.54q0 .8.03 1.58h-.72l-.01-.48q-.45.58-1.46.58m.21-.61q.55 0 .86-.23t.3-.6q0-.37-.3-.59-.31-.23-.87-.23-.55 0-.87.23-.32.22-.32.59 0 .36.33.6.32.23.87.23m5.34.61q-.66 0-1.17-.31t-.8-.87-.29-1.3v-.09q0-.72.3-1.27.29-.55.8-.86t1.16-.31q.54 0 .97.24t.7.64v-3.27h.81v7.3h-.73v-.87q-.29.46-.74.72t-1.01.25m.11-.72q.47 0 .83-.22t.57-.62.21-.94-.21-.94-.57-.63-.83-.22q-.67 0-1.11.47t-.45 1.25v.09q0 .53.21.93t.55.62.8.21m5.14.62-1.91-4.81h.84l1.5 3.86 1.49-3.86h.84l-1.9 4.81zm5.61.1q-.69 0-1.23-.31-.54-.32-.85-.88t-.31-1.29v-.09q0-.71.31-1.26.31-.56.85-.87t1.23-.31 1.23.31.85.86.31 1.25v.11q0 .73-.31 1.29t-.85.88-1.23.31m0-.72q.47 0 .83-.22.35-.23.55-.62.2-.4.2-.92v-.11q0-.75-.44-1.22-.44-.48-1.14-.48-.46 0-.82.22t-.56.61-.21.89v.09q0 .52.21.92.2.39.56.62t.82.22m5.71.72q-.71 0-1.27-.31t-.87-.86q-.32-.56-.32-1.28v-.12q0-.72.32-1.27t.88-.86q.55-.31 1.26-.31.53 0 .97.2.43.19.73.54l-.5.5q-.46-.49-1.2-.49-.48 0-.85.21-.38.21-.59.59-.22.38-.22.89v.12q0 .51.22.9.22.38.6.59.37.21.85.21.73 0 1.21-.48l.49.49q-.29.35-.73.55-.45.19-.98.19m4.19 0q-.82 0-1.31-.4t-.5-1.04q0-.42.25-.75t.69-.52.97-.2q.79 0 1.26.33v-.6q0-.59-.3-.84-.31-.26-.83-.26-.39 0-.79.15t-.7.44l-.38-.57q.32-.37.84-.56t1.07-.19q.85 0 1.37.45t.52 1.34v1.54q0 .8.03 1.58h-.72l-.01-.48q-.45.58-1.46.58m.21-.61q.55 0 .86-.23t.3-.6q0-.37-.3-.59-.31-.23-.87-.23-.55 0-.87.23-.32.22-.32.59 0 .36.33.6.32.23.87.23m4.98.51q-.33 0-.63-.12-.31-.13-.5-.41-.2-.28-.2-.75v-2.83h-.87v-.7h.87v-1.19h.8v1.19h1.27v.7h-1.27v2.88q0 .23.16.39.15.15.38.15h.73v.69zm3.76.1q-.71 0-1.25-.31-.55-.32-.85-.88-.31-.56-.31-1.29v-.1q0-.7.28-1.24.28-.55.79-.87t1.18-.32q.69 0 1.18.34t.73.96.13 1.45h-3.48q.03.42.24.77.2.34.56.55.35.2.83.2.38 0 .68-.09.29-.09.51-.29l.46.5q-.28.3-.71.46-.44.16-.97.16m-.16-4.31q-.6 0-.97.38-.38.38-.46 1.01h2.7q-.01-.66-.36-1.02-.35-.37-.91-.37m5.79 4.21v-4.11h-.88v-.7h.88v-1.21q0-.59.38-.93.37-.35.97-.35h.8v.69h-.81q-.23 0-.38.15t-.15.38v1.27h1.34v.7h-1.34v4.11zm4.92.1q-.69 0-1.23-.31-.54-.32-.85-.88t-.31-1.29v-.09q0-.71.31-1.26.31-.56.85-.87t1.23-.31 1.23.31.85.86.31 1.25v.11q0 .73-.31 1.29t-.85.88-1.23.31m0-.72q.47 0 .83-.22.35-.23.55-.62.2-.4.2-.92v-.11q0-.75-.44-1.22-.44-.48-1.14-.48-.46 0-.82.22t-.56.61-.21.89v.09q0 .52.21.92.2.39.56.62t.82.22m3.57.62v-4.81h.78v.77q.18-.46.54-.62.35-.17.79-.17h.41v.8h-.47q-.59 0-.91.29t-.33.89v2.85zm6.32 0-1.38-4.81h.81l1.08 3.99 1.13-3.99h.85l1.14 3.98 1.08-3.98h.8l-1.38 4.81h-.92l-1.14-4.07-1.14 4.07zm8.53.1q-.71 0-1.25-.31-.55-.32-.85-.88-.31-.56-.31-1.29v-.1q0-.7.28-1.24.28-.55.79-.87t1.18-.32q.69 0 1.18.34t.73.96.13 1.45h-3.48q.03.42.24.77.2.34.56.55.35.2.83.2.38 0 .68-.09.29-.09.51-.29l.46.5q-.28.3-.71.46-.44.16-.97.16m-.16-4.31q-.6 0-.97.38-.38.38-.46 1.01h2.7q-.01-.66-.36-1.02-.35-.37-.91-.37m4.49 4.21q-.59 0-.94-.33-.36-.34-.36-.9v-5.38h-.88v-.69h1.69v6.08q0 .23.15.38t.38.15h.46v.69zm2.69 0q-.59 0-.94-.33-.36-.34-.36-.9v-5.38h-.88v-.69h1.69v6.08q0 .23.15.38t.38.15h.46v.69zm3.92.1q-.56 0-1.01-.25-.45-.26-.73-.71v.86h-.74v-7.3h.81v3.27q.28-.41.71-.64t.96-.24q.65 0 1.16.31t.81.86q.29.55.29 1.27v.09q0 .74-.29 1.3t-.8.87-1.17.31m-.12-.72q.45 0 .81-.21.35-.22.56-.62.2-.4.2-.93v-.09q0-.78-.44-1.25-.45-.47-1.13-.47-.46 0-.82.22t-.57.63-.21.94.21.94.57.62.82.22m5.65.72q-.71 0-1.25-.31-.55-.32-.85-.88-.31-.56-.31-1.29v-.1q0-.7.28-1.24.28-.55.79-.87t1.18-.32q.69 0 1.18.34t.73.96.13 1.45h-3.48q.03.42.24.77.2.34.56.55.35.2.83.2.38 0 .68-.09.29-.09.51-.29l.46.5q-.28.3-.71.46-.44.16-.97.16m-.16-4.31q-.6 0-.97.38-.38.38-.46 1.01h2.7q-.01-.66-.36-1.02-.35-.37-.91-.37m3.54 4.21v-4.11h-.94v-.7h1.74v4.81zm-.05-5.87v-1.16h.9v1.16zm2.36 5.87v-4.81h.78v.77q.29-.5.75-.69.45-.18.84-.18.81 0 1.32.53.5.52.5 1.55v2.83h-.81v-2.71q0-.77-.34-1.11t-.88-.35q-.55 0-.95.38-.4.37-.4 1.09v2.7zm5.14 2v-.68h2.87q.34 0 .53-.16.19-.17.19-.47 0-.28-.19-.43-.19-.16-.53-.16h-1.58q-.38 0-.57-.18-.2-.18-.22-.45-.03-.27.11-.54l.32-.65q-.37-.23-.58-.59-.21-.37-.21-.82v-.09q0-.5.26-.88.27-.38.74-.59.46-.22 1.06-.22l.22.01.49-1.01h.81l-.62 1.15q.53.19.85.59t.31.93v.11q0 .51-.26.9-.27.39-.73.62-.47.22-1.07.22-.32 0-.62-.07l-.24.47q-.07.13-.04.29.02.15.27.15h1.41q.61 0 .99.32.38.31.38.93 0 .57-.38.94-.39.36-1.03.36zm2.2-4.02q.29 0 .58-.1t.49-.36.2-.7q0-.48-.35-.77-.36-.3-.92-.3t-.91.3q-.36.29-.36.77 0 .44.2.7t.49.36.58.1m3.06 2.02v-1.1h.98v1.1zm4.03 0v-.78h1.23v-5.44h-1.23v-.78h3.33v.78h-1.24v5.44h1.24v.78zm6.8 0v-4.81h.77v.76q.28-.49.71-.68.42-.18.82-.18.52 0 .92.23.39.23.59.71.21-.36.5-.56.28-.21.59-.29.3-.09.57-.09.78 0 1.27.51.49.5.49 1.54v2.86h-.79v-2.76q0-.74-.32-1.07t-.84-.34q-.54 0-.9.37-.36.36-.36 1.04v2.76h-.8v-2.76q0-.74-.31-1.07-.32-.34-.84-.34-.54 0-.9.37-.37.36-.37 1.04v2.76zm10.1.1q-.82 0-1.31-.4t-.5-1.04q0-.42.25-.75t.69-.52.97-.2q.79 0 1.26.33v-.6q0-.59-.3-.84-.31-.26-.83-.26-.39 0-.79.15t-.7.44l-.38-.57q.32-.37.84-.56t1.07-.19q.85 0 1.37.45t.52 1.34v1.54q0 .8.03 1.58h-.72l-.01-.48q-.45.58-1.46.58m.21-.61q.55 0 .86-.23t.3-.6-.3-.59q-.31-.23-.87-.23-.55 0-.87.23-.32.22-.32.59 0 .36.33.6.32.23.87.23m3.4.51v-4.81h.78v.77q.29-.5.75-.69.45-.18.84-.18.81 0 1.32.53.5.52.5 1.55v2.83h-.81v-2.71q0-.77-.34-1.11t-.88-.35q-.55 0-.95.38-.4.37-.4 1.09v2.7zm7.06.1q-.82 0-1.31-.4t-.5-1.04q0-.42.25-.75t.69-.52.97-.2q.79 0 1.26.33v-.6q0-.59-.3-.84-.31-.26-.83-.26-.39 0-.79.15t-.7.44l-.38-.57q.32-.37.84-.56t1.07-.19q.85 0 1.37.45t.52 1.34v1.54q0 .8.03 1.58h-.72l-.01-.48q-.45.58-1.46.58m.21-.61q.55 0 .86-.23t.3-.6-.3-.59q-.31-.23-.87-.23-.55 0-.87.23-.32.22-.32.59 0 .36.33.6.32.23.87.23m2.92 2.51v-.68h2.87q.34 0 .53-.16.19-.17.19-.47 0-.28-.19-.43-.19-.16-.53-.16h-1.58q-.38 0-.57-.18-.2-.18-.22-.45-.03-.27.11-.54l.32-.65q-.37-.23-.58-.59-.21-.37-.21-.82v-.09q0-.5.27-.88.26-.38.73-.59.46-.22 1.06-.22l.22.01.49-1.01h.81l-.62 1.15q.53.19.85.59t.31.93v.11q0 .51-.26.9-.27.39-.73.62-.47.22-1.07.22-.32 0-.62-.07l-.24.47q-.07.13-.04.29.02.15.27.15h1.41q.61 0 .99.32.38.31.38.93 0 .57-.38.94-.39.36-1.03.36zm2.2-4.02q.29 0 .58-.1t.49-.36.2-.7q0-.48-.35-.77-.36-.3-.92-.3t-.91.3q-.36.29-.36.77 0 .44.2.7t.5.36q.29.1.57.1m5.3 2.12q-.71 0-1.25-.31-.55-.32-.85-.88-.31-.56-.31-1.29v-.1q0-.7.28-1.24.28-.55.79-.87t1.18-.32q.69 0 1.18.34t.73.96.13 1.45h-3.48q.03.42.24.77.2.34.56.55.35.2.83.2.38 0 .68-.09.29-.09.51-.29l.46.5q-.28.3-.71.46-.44.16-.97.16m-.16-4.31q-.6 0-.97.38-.38.38-.46 1.01h2.7q-.01-.66-.36-1.02-.35-.37-.91-.37m5.53 4.21v-4.81h.77v.76q.28-.49.71-.68.42-.18.82-.18.52 0 .92.23.39.23.59.71.21-.36.5-.56.28-.21.59-.29.3-.09.57-.09.78 0 1.27.51.49.5.49 1.54v2.86h-.79v-2.76q0-.74-.32-1.07t-.84-.34q-.54 0-.9.37-.36.36-.36 1.04v2.76h-.8v-2.76q0-.74-.31-1.07-.32-.34-.84-.34-.54 0-.9.37-.37.36-.37 1.04v2.76zm8.05 2v-.69h.96q.21 0 .34-.14.12-.15.2-.35l.35-.77-1.98-4.86h.89l1.52 3.87 1.45-3.87h.89l-2.3 5.66q-.11.28-.27.54t-.43.44q-.27.17-.7.17zm8.38-2-1.38-4.81h.81l1.08 3.99 1.13-3.99h.85l1.14 3.98 1.08-3.98h.8l-1.38 4.81h-.92l-1.14-4.07-1.14 4.07zm8.51.1q-.69 0-1.23-.31-.54-.32-.85-.88t-.31-1.29v-.09q0-.71.31-1.26.31-.56.85-.87t1.23-.31 1.23.31.85.86.31 1.25v.11q0 .73-.31 1.29t-.85.88-1.23.31m0-.72q.47 0 .83-.22.35-.23.55-.62.2-.4.2-.92v-.11q0-.75-.44-1.22-.44-.48-1.14-.48-.46 0-.82.22t-.56.61-.21.89v.09q0 .52.21.92.2.39.56.62t.82.22m3.57.62v-4.81h.78v.77q.18-.46.54-.62.35-.17.79-.17h.41v.8h-.47q-.59 0-.91.29t-.33.89v2.85zm3.47 0v-7.3h.81v4.78l2.22-2.29h1l-1.83 1.91 1.98 2.9h-1l-1.56-2.31-.81.85v1.46zm5.36 0v-4.11h-.94v-.7h1.74v4.81zm-.05-5.87v-1.16h.9v1.16zm2.36 5.87v-4.81h.78v.77q.29-.5.75-.69.45-.18.84-.18.81 0 1.32.53.5.52.5 1.55v2.83h-.81v-2.71q0-.77-.34-1.11t-.88-.35q-.55 0-.95.38-.4.37-.4 1.09v2.7zm5.14 2v-.68h2.87q.34 0 .53-.16.19-.17.19-.47 0-.28-.19-.43-.19-.16-.53-.16h-1.58q-.38 0-.57-.18-.2-.18-.22-.45-.03-.27.11-.54l.32-.65q-.37-.23-.58-.59-.21-.37-.21-.82v-.09q0-.5.27-.88.26-.38.73-.59.46-.22 1.06-.22l.22.01.49-1.01h.81l-.62 1.15q.53.19.85.59t.31.93v.11q0 .51-.26.9-.27.39-.73.62-.47.22-1.07.22-.32 0-.62-.07l-.24.47q-.07.13-.04.29.02.15.27.15h1.41q.61 0 .99.32.38.31.38.93 0 .57-.38.94-.39.36-1.03.36zm2.2-4.02q.29 0 .58-.1t.49-.36.2-.7q0-.48-.35-.77-.36-.3-.92-.3t-.91.3q-.36.29-.36.77 0 .44.2.7t.5.36q.29.1.57.1m5.54 2.02v-7.3h.78v3.26q.29-.5.75-.69.45-.18.84-.18.81 0 1.32.53.5.52.5 1.55v2.83h-.81v-2.71q0-.77-.34-1.11t-.88-.35q-.55 0-.95.38-.4.37-.4 1.09v2.7zm7.69.1q-.69 0-1.23-.31-.54-.32-.85-.88t-.31-1.29v-.09q0-.71.31-1.26.31-.56.85-.87t1.23-.31 1.23.31.85.86.31 1.25v.11q0 .73-.31 1.29t-.85.88-1.23.31m0-.72q.47 0 .83-.22.35-.23.55-.62.2-.4.2-.92v-.11q0-.75-.44-1.22-.44-.48-1.14-.48-.46 0-.82.22t-.56.61-.21.89v.09q0 .52.21.92.2.39.56.62t.82.22m5.36.72q-.8 0-1.33-.47-.53-.48-.53-1.51v-2.93h.81v2.79q0 .77.35 1.08.34.3.86.3.54 0 .94-.36t.39-1.09v-2.72h.8v4.81h-.72v-.72q-.3.47-.74.65-.45.17-.83.17m3.79-.1v-4.81h.78v.77q.18-.46.54-.62.35-.17.79-.17h.41v.8h-.47q-.59 0-.91.29t-.33.89v2.85zm4.66.09q-.53 0-.99-.16-.47-.17-.76-.43l.36-.56q.27.23.64.37t.75.14q.45 0 .73-.2t.28-.54q0-.28-.19-.43-.19-.16-.48-.24l-.62-.18q-.33-.08-.62-.22-.3-.14-.48-.4-.19-.26-.19-.71 0-.63.48-1.03.47-.41 1.27-.41.45 0 .86.13.4.14.7.36l-.36.56q-.26-.19-.56-.3t-.65-.11q-.43 0-.7.2t-.27.54q0 .28.19.43t.49.24l.63.18q.33.08.63.23.3.14.49.41.18.26.18.71 0 .42-.23.74t-.64.5-.94.18m5.58-.09v-4.11h-.94v-.7h1.74v4.81zm-.05-5.87v-1.16h.9v1.16zm2.36 5.87v-4.81h.78v.77q.29-.5.75-.69.45-.18.84-.18.81 0 1.32.53.5.52.5 1.55v2.83h-.81v-2.71q0-.77-.34-1.11t-.88-.35-.95.38q-.4.37-.4 1.09v2.7zm9.39.1q-.82 0-1.31-.4t-.5-1.04q0-.42.25-.75t.69-.52.97-.2q.79 0 1.26.33v-.6q0-.59-.3-.84-.31-.26-.83-.26-.39 0-.79.15t-.7.44l-.38-.57q.32-.37.84-.56t1.07-.19q.85 0 1.37.45t.52 1.34v1.54q0 .8.03 1.58h-.72l-.01-.48q-.45.58-1.46.58m.21-.61q.55 0 .86-.23t.3-.6-.3-.59q-.31-.23-.87-.23-.55 0-.87.23-.32.22-.32.59 0 .36.33.6.32.23.87.23m6.48.51-1.38-4.81h.81l1.08 3.99 1.13-3.99h.85l1.14 3.98 1.08-3.98h.8l-1.38 4.81h-.92l-1.14-4.07-1.14 4.07zm7.89.1q-.82 0-1.31-.4t-.5-1.04q0-.42.25-.75t.69-.52.97-.2q.79 0 1.26.33v-.6q0-.59-.3-.84-.31-.26-.83-.26-.39 0-.79.15t-.7.44l-.38-.57q.32-.37.84-.56t1.07-.19q.85 0 1.37.45t.52 1.34v1.54q0 .8.03 1.58h-.72l-.01-.48q-.45.58-1.46.58m.21-.61q.55 0 .86-.23t.3-.6-.3-.59q-.31-.23-.87-.23-.55 0-.87.23-.32.22-.32.59 0 .36.33.6.32.23.87.23m2.8 2.51v-.69h.96q.21 0 .34-.14.12-.15.2-.35l.35-.77-1.98-4.86h.89l1.52 3.87 1.45-3.87h.89l-2.3 5.66q-.11.28-.27.54t-.43.44q-.27.17-.7.17zm9.17-2q-.33 0-.63-.12-.31-.13-.5-.41-.2-.28-.2-.75v-2.83h-.87v-.7h.87v-1.19h.8v1.19h1.27v.7h-1.27v2.88q0 .23.16.39.15.15.38.15h.73v.69zm1.82 0v-7.3h.78v3.26q.29-.5.75-.69.45-.18.84-.18.81 0 1.32.53.5.52.5 1.55v2.83h-.81v-2.71q0-.77-.34-1.11t-.88-.35-.95.38q-.4.37-.4 1.09v2.7zm7.06.1q-.82 0-1.31-.4t-.5-1.04q0-.42.25-.75t.69-.52.97-.2q.79 0 1.26.33v-.6q0-.59-.3-.84-.31-.26-.83-.26-.39 0-.79.15t-.7.44l-.38-.57q.32-.37.84-.56t1.07-.19q.85 0 1.37.45t.52 1.34v1.54q0 .8.03 1.58h-.72l-.01-.48q-.45.58-1.46.58m.21-.61q.55 0 .86-.23t.3-.6-.3-.59q-.31-.23-.87-.23-.55 0-.87.23-.32.22-.32.59 0 .36.33.6.32.23.87.23m4.98.51q-.33 0-.63-.12-.31-.13-.5-.41-.2-.28-.2-.75v-2.83H312v-.7h.87v-1.19h.8v1.19h1.27v.7h-1.27v2.88q0 .23.16.39.15.15.38.15h.73v.69zm4.15 0v-7.3h.78v3.26q.29-.5.75-.69.45-.18.84-.18.81 0 1.32.53.5.52.5 1.55v2.83h-.81v-2.71q0-.77-.34-1.11t-.88-.35-.95.38q-.4.37-.4 1.09v2.7zm7.71.1q-.71 0-1.25-.31-.55-.32-.85-.88-.31-.56-.31-1.29v-.1q0-.7.28-1.24.28-.55.79-.87t1.18-.32q.69 0 1.18.34t.73.96.13 1.45h-3.48q.03.42.24.77.2.34.56.55.35.2.83.2.38 0 .68-.09.29-.09.51-.29l.46.5q-.28.3-.71.46-.44.16-.97.16m-.16-4.31q-.6 0-.97.38-.38.38-.46 1.01h2.7q-.01-.66-.36-1.02-.35-.37-.91-.37m4.49 4.21q-.59 0-.94-.33-.36-.34-.36-.9v-5.38h-.88v-.69h1.69v6.08q0 .23.15.38t.38.15h.46v.69zm1.44 2v-6.81h.76v.83q.28-.43.73-.68t.99-.25q.65 0 1.16.31t.81.86.29 1.27v.09q0 .74-.29 1.3t-.8.87-1.17.31q-.53 0-.96-.23t-.71-.65v2.78zm2.36-2.62q.45 0 .81-.21.35-.22.56-.62.2-.4.2-.93v-.09q0-.78-.44-1.25-.45-.47-1.13-.47-.46 0-.82.22t-.57.63-.21.94.21.94.57.62.82.22m4.87.71q-.53 0-.99-.16-.47-.17-.76-.43l.36-.56q.27.23.64.37t.75.14q.45 0 .73-.2t.28-.54q0-.28-.19-.43-.19-.16-.48-.24l-.62-.18q-.33-.08-.62-.22-.3-.14-.48-.4-.19-.26-.19-.71 0-.63.48-1.03.47-.41 1.27-.41.45 0 .86.13.4.14.7.36l-.36.56q-.26-.19-.56-.3t-.65-.11q-.43 0-.7.2t-.27.54q0 .28.19.43t.49.24l.63.18q.33.08.63.23.3.14.49.41.18.26.18.71 0 .42-.23.74t-.64.5-.94.18m5.29-.09v-4.81h.77v.76q.28-.49.71-.68.42-.18.82-.18.52 0 .92.23.39.23.59.71.21-.36.5-.56.28-.21.59-.29.3-.09.57-.09.78 0 1.27.51.49.5.49 1.54v2.86h-.79v-2.76q0-.74-.32-1.07t-.84-.34q-.54 0-.9.37-.36.36-.36 1.04v2.76h-.8v-2.76q0-.74-.31-1.07-.32-.34-.84-.34-.54 0-.9.37-.37.36-.37 1.04v2.76zm10.75.1q-.71 0-1.25-.31-.55-.32-.85-.88-.31-.56-.31-1.29v-.1q0-.7.28-1.24.28-.55.79-.87t1.18-.32q.69 0 1.18.34t.73.96.13 1.45h-3.48q.03.42.24.77.2.34.56.55.35.2.83.2.38 0 .68-.09.29-.09.51-.29l.46.5q-.28.3-.71.46-.44.16-.97.16m-.16-4.31q-.6 0-.97.38-.38.38-.46 1.01h2.7q-.01-.66-.36-1.02-.35-.37-.91-.37m6.86 4.3q-.53 0-.99-.16-.47-.17-.76-.43l.36-.56q.27.23.64.37t.75.14q.45 0 .73-.2t.28-.54q0-.28-.19-.43-.19-.16-.48-.24l-.62-.18q-.33-.08-.62-.22-.3-.14-.48-.4-.19-.26-.19-.71 0-.63.48-1.03.47-.41 1.27-.41.45 0 .86.13.4.14.7.36l-.36.56q-.26-.19-.56-.3t-.65-.11q-.43 0-.7.2t-.27.54q0 .28.19.43t.49.24l.63.18q.33.08.63.23.3.14.49.41.18.26.18.71 0 .42-.23.74t-.64.5-.94.18m4.75.01q-.8 0-1.33-.47-.53-.48-.53-1.51v-2.93h.81v2.79q0 .77.35 1.08.34.3.86.3.54 0 .94-.36t.39-1.09v-2.72h.8v4.81h-.72v-.72q-.3.47-.74.65-.45.17-.83.17m3.79 1.9v-6.81h.76v.83q.28-.43.73-.68t.99-.25q.65 0 1.16.31t.81.86.29 1.27v.09q0 .74-.29 1.3t-.8.87-1.17.31q-.53 0-.96-.23t-.71-.65v2.78zm2.36-2.62q.45 0 .81-.21.35-.22.56-.62.2-.4.2-.93v-.09q0-.78-.44-1.25-.45-.47-1.13-.47-.46 0-.82.22t-.57.63-.21.94.21.94.57.62.82.22m3.56 2.62v-6.81h.76v.83q.28-.43.73-.68t.99-.25q.65 0 1.16.31t.81.86.29 1.27v.09q0 .74-.29 1.3t-.8.87-1.17.31q-.53 0-.96-.23t-.71-.65v2.78zm2.36-2.62q.45 0 .81-.21.35-.22.56-.62.2-.4.2-.93v-.09q0-.78-.44-1.25-.45-.47-1.13-.47-.46 0-.82.22t-.57.63-.21.94.21.94.57.62.82.22m5.63.72q-.69 0-1.23-.31-.54-.32-.85-.88t-.31-1.29v-.09q0-.71.31-1.26.31-.56.85-.87t1.23-.31 1.23.31.85.86.31 1.25v.11q0 .73-.31 1.29t-.85.88-1.23.31m0-.72q.47 0 .83-.22.35-.23.55-.62.2-.4.2-.92v-.11q0-.75-.44-1.22-.44-.48-1.14-.48-.46 0-.82.22t-.56.61-.21.89v.09q0 .52.21.92.2.39.56.62t.82.22m3.57.62v-4.81h.78v.77q.18-.46.54-.62.35-.17.79-.17h.41v.8h-.47q-.59 0-.91.29t-.33.89v2.85zm5.11 0q-.33 0-.63-.12-.31-.13-.5-.41-.2-.28-.2-.75v-2.83h-.87v-.7h.87v-1.19h.8v1.19h1.27v.7h-1.27v2.88q0 .23.16.39.15.15.38.15h.73v.69zm3.67 2v-.68h2.87q.34 0 .53-.16.19-.17.19-.47 0-.28-.19-.43-.19-.16-.53-.16h-1.58q-.38 0-.57-.18-.2-.18-.22-.45-.03-.27.11-.54l.32-.65q-.37-.23-.58-.59-.21-.37-.21-.82v-.09q0-.5.27-.88.26-.38.73-.59.46-.22 1.06-.22l.22.01.49-1.01h.81l-.62 1.15q.53.19.85.59t.31.93v.11q0 .51-.26.9-.27.39-.73.62-.47.22-1.07.22-.32 0-.62-.07l-.24.47q-.07.13-.04.29.02.15.27.15h1.41q.61 0 .99.32.38.31.38.93 0 .57-.38.94-.39.36-1.03.36zm2.2-4.02q.29 0 .58-.1t.49-.36.2-.7q0-.48-.35-.77-.36-.3-.92-.3t-.91.3q-.36.29-.36.77 0 .44.2.7t.5.36.57.1m4.5 2.02q-.59 0-.94-.33-.36-.34-.36-.9v-5.38h-.88v-.69h1.69v6.08q0 .23.15.38t.38.15h.46v.69zm3.38.1q-.69 0-1.23-.31-.54-.32-.85-.88t-.31-1.29v-.09q0-.71.31-1.26.31-.56.85-.87t1.23-.31 1.23.31.85.86.31 1.25v.11q0 .73-.31 1.29t-.85.88-1.23.31m0-.72q.47 0 .83-.22.35-.23.55-.62.2-.4.2-.92v-.11q0-.75-.44-1.22-.44-.48-1.14-.48-.46 0-.82.22t-.56.61-.21.89v.09q0 .52.21.92.2.39.56.62t.82.22m6.05.72q-.56 0-1.01-.25-.45-.26-.73-.71v.86h-.74v-7.3h.81v3.27q.28-.41.71-.64t.96-.24q.65 0 1.16.31t.81.86.29 1.27v.09q0 .74-.29 1.3t-.8.87-1.17.31m-.12-.72q.45 0 .81-.21.35-.22.56-.62.2-.4.2-.93v-.09q0-.78-.44-1.25-.45-.47-1.13-.47-.46 0-.82.22t-.57.63-.21.94.21.94.57.62.82.22m5 .72q-.82 0-1.31-.4t-.5-1.04q0-.42.25-.75t.69-.52.97-.2q.79 0 1.26.33v-.6q0-.59-.3-.84-.31-.26-.83-.26-.39 0-.79.15t-.7.44l-.38-.57q.32-.37.84-.56t1.07-.19q.85 0 1.37.45t.52 1.34v1.54q0 .8.03 1.58h-.72l-.01-.48q-.45.58-1.46.58m.21-.61q.55 0 .86-.23t.3-.6-.3-.59q-.31-.23-.87-.23-.55 0-.87.23-.32.22-.32.59 0 .36.33.6.32.23.87.23m4.69.51q-.59 0-.94-.33-.36-.34-.36-.9v-5.38h-.88v-.69h1.69v6.08q0 .23.15.38t.38.15h.46v.69zm5.18 0q-.33 0-.63-.12-.31-.13-.5-.41-.2-.28-.2-.75v-2.83h-.87v-.7h.87v-1.19h.8v1.19h1.27v.7h-1.27v2.88q0 .23.16.39.15.15.38.15h.73v.69zm3.76.1q-.71 0-1.25-.31-.55-.32-.85-.88-.31-.56-.31-1.29v-.1q0-.7.28-1.24.28-.55.79-.87t1.18-.32q.69 0 1.18.34t.73.96.13 1.45h-3.48q.03.42.24.77.2.34.56.55.35.2.83.2.38 0 .68-.09.29-.09.51-.29l.46.5q-.28.3-.71.46-.44.16-.97.16m-.16-4.31q-.6 0-.97.38-.38.38-.46 1.01h2.7q-.01-.66-.36-1.02-.35-.37-.91-.37m4.63 4.31q-.82 0-1.31-.4t-.5-1.04q0-.42.25-.75t.69-.52.97-.2q.79 0 1.26.33v-.6q0-.59-.3-.84-.31-.26-.83-.26-.39 0-.79.15t-.7.44l-.38-.57q.32-.37.84-.56t1.07-.19q.85 0 1.37.45t.52 1.34v1.54q0 .8.03 1.58h-.72l-.01-.48q-.45.58-1.46.58m.21-.61q.55 0 .86-.23t.3-.6-.3-.59q-.31-.23-.87-.23-.55 0-.87.23-.32.22-.32.59 0 .36.33.6.32.23.87.23m3.4.51v-4.81h.77v.76q.28-.49.71-.68.42-.18.82-.18.52 0 .92.23.39.23.59.71.21-.36.5-.56.28-.21.59-.29.3-.09.57-.09.78 0 1.27.51.49.5.49 1.54v2.86h-.79v-2.76q0-.74-.32-1.07t-.84-.34q-.54 0-.9.37-.36.36-.36 1.04v2.76h-.8v-2.76q0-.74-.31-1.07-.32-.34-.84-.34-.54 0-.9.37-.37.36-.37 1.04v2.76zm9.99.09q-.53 0-.99-.16-.47-.17-.76-.43l.36-.56q.27.23.64.37t.75.14q.45 0 .73-.2t.28-.54q0-.28-.19-.43-.19-.16-.48-.24l-.62-.18q-.33-.08-.62-.22-.3-.14-.48-.4-.19-.26-.19-.71 0-.63.48-1.03.47-.41 1.27-.41.45 0 .86.13.4.14.7.36l-.36.56q-.26-.19-.56-.3t-.65-.11q-.43 0-.7.2t-.27.54q0 .28.19.43t.49.24l.63.18q.33.08.63.23.3.14.49.41.18.26.18.71 0 .42-.23.74t-.64.5-.94.18m2.73-.09v-1.1h1.02v1.8q0 .43-.24.6-.25.16-.54.16h-.3v-.49h.3q.13 0 .2-.08.06-.08.06-.2v-.69zm5.91 0q-.33 0-.63-.12-.31-.13-.5-.41-.2-.28-.2-.75v-2.83h-.87v-.7h.87v-1.19h.8v1.19h1.27v.7h-1.27v2.88q0 .23.16.39.15.15.38.15h.73v.69zm1.82 0v-7.3h.78v3.26q.29-.5.75-.69.45-.18.84-.18.81 0 1.32.53.5.52.5 1.55v2.83h-.81v-2.71q0-.77-.34-1.11t-.88-.35-.95.38q-.4.37-.4 1.09v2.7zm7.06.1q-.82 0-1.31-.4t-.5-1.04q0-.42.25-.75t.69-.52.97-.2q.79 0 1.26.33v-.6q0-.59-.3-.84-.31-.26-.83-.26-.39 0-.79.15t-.7.44l-.38-.57q.32-.37.84-.56t1.07-.19q.85 0 1.37.45t.52 1.34v1.54q0 .8.03 1.58h-.72l-.01-.48q-.45.58-1.46.58m.21-.61q.55 0 .86-.23t.3-.6-.3-.59q-.31-.23-.87-.23-.55 0-.87.23-.32.22-.32.59 0 .36.33.6.32.23.87.23m4.98.51q-.33 0-.63-.12-.31-.13-.5-.41-.2-.28-.2-.75v-2.83h-.87v-.7h.87v-1.19h.8v1.19h1.27v.7h-1.27v2.88q0 .23.16.39.15.15.38.15h.73v.69zm4.9 0-1.38-4.81h.81l1.08 3.99 1.13-3.99h.85l1.14 3.98 1.08-3.98h.8l-1.38 4.81h-.92l-1.14-4.07-1.14 4.07zm8.51.1q-.69 0-1.23-.31-.54-.32-.85-.88t-.31-1.29v-.09q0-.71.31-1.26.31-.56.85-.87t1.23-.31 1.23.31.85.86.31 1.25v.11q0 .73-.31 1.29t-.85.88-1.23.31m0-.72q.47 0 .83-.22.35-.23.55-.62.2-.4.2-.92v-.11q0-.75-.44-1.22-.44-.48-1.14-.48-.46 0-.82.22t-.56.61-.21.89v.09q0 .52.21.92.2.39.56.62t.82.22m3.57.62v-4.81h.78v.77q.18-.46.54-.62.35-.17.79-.17h.41v.8h-.47q-.59 0-.91.29t-.33.89v2.85zm3.47 0v-7.3h.81v4.78l2.22-2.29h1l-1.83 1.91 1.98 2.9h-1L494.3 167l-.81.85v1.46zm6.23.09q-.53 0-.99-.16-.47-.17-.76-.43l.36-.56q.27.23.64.37t.75.14q.45 0 .73-.2t.28-.54q0-.28-.19-.43-.19-.16-.48-.24l-.62-.18q-.33-.08-.62-.22-.3-.14-.48-.4-.19-.26-.19-.71 0-.63.48-1.03.47-.41 1.27-.41.45 0 .86.13.4.14.7.36l-.36.56q-.26-.19-.56-.3t-.65-.11q-.43 0-.7.2t-.27.54q0 .28.19.43t.49.24l.63.18q.33.08.63.23.3.14.49.41.18.26.18.71 0 .42-.23.74t-.64.5-.94.18m5.55-.09v-4.11h-.88v-.7h.88v-1.21q0-.59.38-.93.37-.35.97-.35h.8v.69h-.81q-.23 0-.38.15t-.15.38v1.27h1.34v.7h-1.34v4.11zm4.92.1q-.69 0-1.23-.31-.54-.32-.85-.88t-.31-1.29v-.09q0-.71.31-1.26.31-.56.85-.87t1.23-.31 1.23.31.85.86.31 1.25v.11q0 .73-.31 1.29t-.85.88-1.23.31m0-.72q.47 0 .83-.22.35-.23.55-.62.2-.4.2-.92v-.11q0-.75-.44-1.22-.44-.48-1.14-.48-.46 0-.82.22t-.56.61-.21.89v.09q0 .52.21.92.2.39.56.62t.82.22m3.57.62v-4.81h.78v.77q.18-.46.54-.62.35-.17.79-.17h.41v.8H515q-.59 0-.91.29t-.33.89v2.85zm5.57 0v-4.81h.77v.76q.28-.49.71-.68.42-.18.82-.18.52 0 .92.23.39.23.59.71.21-.36.5-.56.28-.21.59-.29.3-.09.57-.09.78 0 1.27.51.49.5.49 1.54v2.86h-.79v-2.76q0-.74-.32-1.07t-.84-.34q-.54 0-.9.37-.36.36-.36 1.04v2.76h-.8v-2.76q0-.74-.32-1.07-.31-.34-.83-.34-.54 0-.9.37-.37.36-.37 1.04v2.76zm8.05 2v-.69h.96q.21 0 .34-.14.12-.15.2-.35l.35-.77-1.98-4.86h.89l1.52 3.87 1.45-3.87h.89l-2.3 5.66q-.11.28-.27.54t-.43.44q-.27.17-.7.17zm7.89-2v-4.11h-.88v-.7h.88v-1.21q0-.59.38-.93.37-.35.97-.35h.8v.69h-.81q-.23 0-.38.15t-.15.38v1.27h1.34v.7h-1.34v4.11zm4.35.1q-.82 0-1.31-.4t-.5-1.04q0-.42.25-.75t.69-.52q.43-.2.97-.2.79 0 1.26.33v-.6q0-.59-.3-.84-.31-.26-.83-.26-.39 0-.79.15t-.7.44l-.38-.57q.32-.37.84-.56t1.07-.19q.85 0 1.37.45t.52 1.34v1.54q0 .8.03 1.58h-.72l-.01-.48q-.45.58-1.46.58m.21-.61q.55 0 .86-.23t.3-.6q0-.37-.3-.59-.31-.23-.87-.23-.55 0-.87.23-.32.22-.32.59 0 .36.33.6.32.23.87.23m3.4.51v-4.81h.77v.76q.28-.49.71-.68.42-.18.82-.18.52 0 .92.23.39.23.59.71.21-.36.5-.56.28-.21.59-.29.3-.09.57-.09.78 0 1.27.51.49.5.49 1.54v2.86h-.79v-2.76q0-.74-.32-1.07t-.84-.34q-.54 0-.9.37-.36.36-.36 1.04v2.76h-.8v-2.76q0-.74-.31-1.07-.32-.34-.84-.34-.54 0-.9.37-.37.36-.37 1.04v2.76zm8.96 0v-4.11h-.94v-.7h1.74v4.81zm-.05-5.87v-1.16h.9v1.16zm3.66 5.87q-.59 0-.95-.33-.35-.34-.35-.9v-5.38h-.88v-.69h1.69v6.08q0 .23.15.38t.38.15h.46v.69zm.65 2v-.69h.96q.21 0 .34-.14.12-.15.2-.35l.35-.77-1.98-4.86h.89l1.52 3.87 1.45-3.87h.89l-2.3 5.66q-.11.28-.27.54t-.43.44q-.27.17-.7.17zm9.07-1.9q-.82 0-1.31-.4t-.5-1.04q0-.42.25-.75t.69-.52q.43-.2.97-.2.79 0 1.26.33v-.6q0-.59-.3-.84-.31-.26-.83-.26-.39 0-.79.15t-.7.44l-.38-.57q.32-.37.84-.56t1.07-.19q.85 0 1.37.45t.52 1.34v1.54q0 .8.03 1.58h-.72l-.01-.48q-.45.58-1.46.58m.21-.61q.55 0 .86-.23t.3-.6-.3-.59q-.31-.23-.87-.23-.55 0-.87.23-.32.22-.32.59 0 .36.32.6.33.23.88.23m3.4.51v-4.81h.78v.77q.29-.5.75-.69.45-.18.84-.18.81 0 1.32.53.5.52.5 1.55v2.83h-.81v-2.71q0-.77-.34-1.11t-.88-.35-.95.38q-.4.37-.4 1.09v2.7zm7.56.1q-.66 0-1.17-.31t-.8-.87-.29-1.3v-.09q0-.72.3-1.27.29-.55.8-.86t1.16-.31q.54 0 .97.24t.7.64v-3.27h.81v7.3h-.73v-.87q-.29.46-.74.72t-1.01.25m.11-.72q.47 0 .83-.22t.57-.62.21-.94-.21-.94-.57-.63-.83-.22q-.67 0-1.11.47t-.45 1.25v.09q0 .53.21.93t.55.62.8.21m6.2.62v-4.81h.77v.76q.28-.49.71-.68.42-.18.82-.18.52 0 .92.23.39.23.59.71.21-.36.5-.56.28-.21.59-.29.3-.09.57-.09.78 0 1.27.51.49.5.49 1.54v2.86h-.79v-2.76q0-.74-.32-1.07t-.84-.34q-.54 0-.9.37-.36.36-.36 1.04v2.76h-.8v-2.76q0-.74-.31-1.07-.32-.34-.84-.34-.54 0-.9.37-.37.36-.37 1.04v2.76zm8.05 2v-.69h.96q.21 0 .34-.14.12-.15.2-.35l.35-.77-1.98-4.86h.89l1.52 3.87 1.45-3.87h.89l-2.3 5.66q-.11.28-.27.54t-.43.44q-.27.17-.7.17zM2.82 184.91q-.69 0-1.23-.31-.54-.32-.85-.88t-.31-1.29v-.09q0-.71.31-1.26.31-.56.85-.87t1.23-.31 1.23.31.85.86.31 1.25v.11q0 .73-.31 1.29t-.85.88-1.23.31m0-.72q.47 0 .83-.22.35-.23.55-.62.2-.4.2-.92v-.11q0-.75-.44-1.22-.44-.48-1.14-.48-.46 0-.82.22t-.56.61-.21.89v.09q0 .52.21.92.2.39.56.62t.82.22m4.37.62L5.81 180h.81l1.08 3.99L8.83 180h.85l1.14 3.98L11.9 180h.8l-1.38 4.81h-.92l-1.14-4.07-1.14 4.07zm6.49 0V180h.78v.77q.29-.5.75-.69.45-.18.84-.18.81 0 1.32.53.5.52.5 1.55v2.83h-.81v-2.71q0-.77-.34-1.11t-.88-.35-.95.38q-.4.37-.4 1.09v2.7zm8.7 0L21 180h.81l1.08 3.99 1.13-3.99h.85l1.14 3.98 1.08-3.98h.8l-1.38 4.81h-.92l-1.14-4.07-1.14 4.07zm8.53.1q-.71 0-1.25-.31-.55-.32-.85-.88-.31-.56-.31-1.29v-.1q0-.7.28-1.24.28-.55.79-.87t1.18-.32q.69 0 1.18.34t.73.96.13 1.45h-3.48q.03.42.24.77.2.34.56.55.35.2.83.2.38 0 .68-.09.29-.09.51-.29l.46.5q-.28.3-.71.46-.44.16-.97.16m-.16-4.31q-.6 0-.97.38-.38.38-.46 1.01h2.7q-.01-.66-.36-1.02-.35-.37-.91-.37m4.49 4.21q-.59 0-.94-.33-.36-.34-.36-.9v-5.38h-.88v-.69h1.69v6.08q0 .23.15.38t.38.15h.46v.69zm2.69 0q-.59 0-.94-.33-.36-.34-.36-.9v-5.38h-.88v-.69h1.69v6.08q0 .23.15.38t.38.15h.46v.69zm3.92.1q-.56 0-1.01-.25-.45-.26-.73-.71v.86h-.74v-7.3h.81v3.27q.28-.41.71-.64t.96-.24q.65 0 1.16.31t.81.86q.29.55.29 1.27v.09q0 .74-.29 1.3t-.8.87-1.17.31m-.12-.72q.45 0 .81-.21.35-.22.56-.62.2-.4.2-.93v-.09q0-.78-.44-1.25-.45-.47-1.13-.47-.46 0-.82.22t-.57.63-.21.94.21.94.57.62.82.22m5.65.72q-.71 0-1.25-.31-.55-.32-.85-.88-.31-.56-.31-1.29v-.1q0-.7.28-1.24.28-.55.79-.87t1.18-.32q.69 0 1.18.34t.73.96.13 1.45h-3.48q.03.42.24.77.2.34.56.55.35.2.83.2.38 0 .68-.09.29-.09.51-.29l.46.5q-.28.3-.71.46-.44.16-.97.16m-.16-4.31q-.6 0-.97.38-.38.38-.46 1.01h2.7q-.01-.66-.36-1.02-.35-.37-.91-.37m3.54 4.21v-4.11h-.94v-.7h1.74v4.81zm-.05-5.87v-1.16h.9v1.16zm2.36 5.87V180h.78v.77q.29-.5.75-.69.45-.18.84-.18.81 0 1.32.53.5.52.5 1.55v2.83h-.81v-2.71q0-.77-.34-1.11t-.88-.35-.95.38q-.4.37-.4 1.09v2.7zm5.14 2v-.68h2.87q.34 0 .53-.16.19-.17.19-.47 0-.28-.19-.43-.19-.16-.53-.16H59.5q-.38 0-.57-.18-.2-.18-.22-.45-.03-.27.11-.54l.32-.65q-.37-.23-.58-.59-.21-.37-.21-.82v-.09q0-.5.27-.88.26-.38.73-.59.46-.22 1.06-.22l.22.01.49-1.01h.81l-.62 1.15q.53.19.85.59t.31.93v.11q0 .51-.26.9-.27.39-.73.62-.47.22-1.07.22-.32 0-.62-.07l-.24.47q-.07.13-.04.29.02.15.27.15h1.41q.61 0 .99.32.38.31.38.93 0 .57-.38.94-.39.36-1.03.36zm2.2-4.02q.29 0 .58-.1t.49-.36.2-.7q0-.48-.35-.77-.36-.3-.92-.3t-.91.3q-.36.29-.36.77 0 .44.2.7t.5.36.57.1m3.06 2.02v-1.1h.98v1.1zm5.56 0v-6.22h-2.11v-.78h5.1v.78h-2.13v6.22zm3.8 0v-7.3h.78v3.26q.29-.5.75-.69.45-.18.84-.18.81 0 1.32.53.5.52.5 1.55v2.83h-.81v-2.71q0-.77-.35-1.11t-.87-.35q-.55 0-.95.38-.4.37-.4 1.09v2.7zm5.92 0v-4.11h-.94v-.7h1.74v4.81zm-.05-5.87v-1.16h.9v1.16zm3.69 5.96q-.53 0-.99-.16-.47-.17-.76-.43l.36-.56q.27.23.64.37t.75.14q.45 0 .73-.2t.28-.54q0-.28-.19-.43-.19-.16-.48-.24l-.62-.18q-.33-.08-.62-.22-.3-.14-.48-.4-.19-.26-.19-.71 0-.63.48-1.03.47-.41 1.27-.41.45 0 .86.13.4.14.7.36l-.36.56q-.26-.19-.56-.3t-.65-.11q-.43 0-.7.2t-.27.54q0 .28.19.43t.49.24l.63.18q.33.08.63.23.3.14.49.41.18.26.18.71 0 .42-.23.74t-.64.5-.94.18m5.29-.09V180h.77v.76q.28-.49.71-.68.42-.18.82-.18.52 0 .92.23.39.23.59.71.21-.36.5-.56.28-.21.59-.29.3-.09.57-.09.78 0 1.27.51.49.5.49 1.54v2.86h-.79v-2.76q0-.74-.32-1.07t-.84-.34q-.54 0-.9.37-.36.36-.36 1.04v2.76h-.8v-2.76q0-.74-.31-1.07-.32-.34-.84-.34-.54 0-.9.37-.37.36-.37 1.04v2.76zm10.75.1q-.71 0-1.25-.31-.55-.32-.85-.88-.31-.56-.31-1.29v-.1q0-.7.28-1.24.28-.55.79-.87t1.18-.32q.69 0 1.18.34t.73.96.13 1.45h-3.48q.03.42.24.77.2.34.56.55.35.2.83.2.38 0 .68-.09.29-.09.51-.29l.46.5q-.28.3-.71.46-.44.16-.97.16m-.16-4.31q-.6 0-.97.38-.38.38-.46 1.01h2.7q-.01-.66-.36-1.02-.35-.37-.91-.37m4.63 4.31q-.82 0-1.31-.4t-.5-1.04q0-.42.25-.75t.69-.52.97-.2q.79 0 1.26.33v-.6q0-.59-.3-.84-.31-.26-.83-.26-.39 0-.79.15t-.7.44l-.38-.57q.32-.37.84-.56t1.07-.19q.85 0 1.37.45t.52 1.34v1.54q0 .8.03 1.58h-.72l-.01-.48q-.45.58-1.46.58m.21-.61q.55 0 .86-.23t.3-.6q0-.37-.3-.59-.31-.23-.87-.23-.55 0-.87.23-.32.22-.32.59 0 .36.33.6.32.23.87.23m3.4.51V180h.78v.77q.29-.5.75-.69.45-.18.84-.18.81 0 1.32.53.5.52.5 1.55v2.83h-.81v-2.71q0-.77-.34-1.11t-.88-.35q-.55 0-.95.38-.4.37-.4 1.09v2.7zm6.95.09q-.53 0-.99-.16-.47-.17-.76-.43l.36-.56q.27.23.64.37t.75.14q.45 0 .73-.2t.28-.54q0-.28-.19-.43-.19-.16-.48-.24l-.62-.18q-.33-.08-.62-.22-.3-.14-.48-.4-.19-.26-.19-.71 0-.63.48-1.03.47-.41 1.27-.41.45 0 .86.13.4.14.7.36l-.36.56q-.26-.19-.56-.3t-.65-.11q-.43 0-.7.2t-.27.54q0 .28.19.43t.49.24l.63.18q.33.08.63.23.3.14.49.41.18.26.18.71 0 .42-.23.74t-.64.5-.94.18m4.93-.09v-.78h1.23v-5.44h-1.23v-.78h3.33v.78h-1.24v5.44h1.24v.78zm8.13.09q-.53 0-.99-.16-.47-.17-.76-.43l.36-.56q.27.23.64.37t.75.14q.45 0 .73-.2t.28-.54q0-.28-.19-.43-.19-.16-.48-.24l-.62-.18q-.33-.08-.62-.22-.3-.14-.48-.4-.19-.26-.19-.71 0-.63.48-1.03.47-.41 1.27-.41.45 0 .86.13.4.14.7.36l-.36.56q-.26-.19-.56-.3t-.65-.11q-.43 0-.7.2t-.27.54q0 .28.19.43t.49.24l.63.18q.33.08.63.23.3.14.49.41.18.26.18.71 0 .42-.23.74t-.64.5-.94.18m5.02.01q-.69 0-1.23-.31-.54-.32-.85-.88t-.31-1.29v-.09q0-.71.31-1.26.31-.56.85-.87t1.23-.31 1.23.31.85.86.31 1.25v.11q0 .73-.31 1.29t-.85.88-1.23.31m0-.72q.47 0 .83-.22.35-.23.55-.62.2-.4.2-.92v-.11q0-.75-.44-1.22-.44-.48-1.14-.48-.46 0-.82.22t-.56.61-.21.89v.09q0 .52.21.92.2.39.56.62t.82.22m3.57.62V180h.77v.76q.28-.49.71-.68.42-.18.82-.18.52 0 .92.23.39.23.59.71.21-.36.5-.56.28-.21.59-.29.3-.09.57-.09.78 0 1.27.51.49.5.49 1.54v2.86h-.79v-2.76q0-.74-.32-1.07t-.84-.34q-.54 0-.9.37-.36.36-.36 1.04v2.76h-.8v-2.76q0-.74-.31-1.07-.32-.34-.84-.34-.54 0-.9.37-.37.36-.37 1.04v2.76zm10.75.1q-.71 0-1.26-.31-.54-.32-.84-.88-.31-.56-.31-1.29v-.1q0-.7.28-1.24.28-.55.79-.87t1.18-.32q.69 0 1.18.34t.72.96q.24.61.14 1.45h-3.48q.03.42.24.77.2.34.56.55.35.2.83.2.38 0 .68-.09.29-.09.51-.29l.46.5q-.28.3-.71.46-.44.16-.97.16m-.16-4.31q-.6 0-.97.38-.38.38-.46 1.01h2.7q-.01-.66-.36-1.02-.35-.37-.91-.37m4.8 4.21q-.33 0-.63-.12-.31-.13-.5-.41-.2-.28-.2-.75v-2.83h-.87v-.7h.87v-1.19h.8V180h1.27v.7h-1.27v2.88q0 .23.16.39.15.15.38.15h.73v.69zm2.2 0v-4.11h-.94v-.7h1.74v4.81zm-.05-5.87v-1.16h.9v1.16zm2.36 5.87V180h.77v.76q.28-.49.71-.68.42-.18.82-.18.52 0 .92.23.39.23.59.71.21-.36.5-.56.28-.21.59-.29.3-.09.57-.09.78 0 1.27.51.49.5.49 1.54v2.86h-.79v-2.76q0-.74-.32-1.07t-.84-.34q-.54 0-.9.37-.36.36-.36 1.04v2.76h-.8v-2.76q0-.74-.31-1.07-.32-.34-.84-.34-.54 0-.9.37-.37.36-.37 1.04v2.76zm10.75.1q-.71 0-1.25-.31-.55-.32-.85-.88-.31-.56-.31-1.29v-.1q0-.7.28-1.24.28-.55.79-.87t1.18-.32q.69 0 1.18.34t.73.96.13 1.45h-3.48q.03.42.24.77.2.34.56.55.35.2.83.2.38 0 .68-.09.29-.09.51-.29l.46.5q-.28.3-.71.46-.44.16-.97.16m-.16-4.31q-.6 0-.97.38-.38.38-.46 1.01h2.7q-.01-.66-.36-1.02-.35-.37-.91-.37m4.53 4.3q-.53 0-.99-.16-.47-.17-.76-.43l.36-.56q.27.23.64.37t.75.14q.45 0 .73-.2t.28-.54q0-.28-.19-.43-.19-.16-.48-.24l-.62-.18q-.33-.08-.62-.22-.3-.14-.48-.4-.19-.26-.19-.71 0-.63.48-1.03.47-.41 1.27-.41.45 0 .86.13.4.14.7.36l-.36.56q-.26-.19-.56-.3t-.65-.11q-.43 0-.7.2t-.27.54q0 .28.19.43t.49.24l.63.18q.33.08.63.23.3.14.49.41.18.26.18.71 0 .42-.23.74t-.64.5-.94.18m7.43.01q-.71 0-1.27-.31t-.87-.86-.32-1.28v-.12q0-.72.32-1.27t.88-.86 1.26-.31q.53 0 .97.2.43.19.73.54l-.5.5q-.46-.49-1.2-.49-.48 0-.85.21-.38.21-.59.59-.22.38-.22.89v.12q0 .51.22.9.22.38.6.59.37.21.85.21.73 0 1.21-.48l.49.49q-.29.35-.73.55-.45.19-.98.19m2.75-.1v-7.3h.78v3.26q.29-.5.75-.69.45-.18.84-.18.81 0 1.32.53.5.52.5 1.55v2.83h-.81v-2.71q0-.77-.34-1.11t-.88-.35q-.55 0-.95.38-.4.37-.4 1.09v2.7zm7.69.1q-.69 0-1.23-.31-.54-.32-.85-.88t-.31-1.29v-.09q0-.71.31-1.26.31-.56.85-.87t1.23-.31 1.23.31.85.86.31 1.25v.11q0 .73-.31 1.29t-.85.88-1.23.31m0-.72q.47 0 .83-.22.35-.23.55-.62.2-.4.2-.92v-.11q0-.75-.44-1.22-.44-.48-1.14-.48-.46 0-.82.22t-.56.61-.21.89v.09q0 .52.21.92.2.39.56.62t.82.22m5.64.72q-.69 0-1.23-.31-.54-.32-.85-.88t-.31-1.29v-.09q0-.71.31-1.26.31-.56.85-.87t1.23-.31 1.23.31.85.86.31 1.25v.11q0 .73-.31 1.29t-.85.88-1.23.31m0-.72q.47 0 .83-.22.35-.23.55-.62.2-.4.2-.92v-.11q0-.75-.44-1.22-.44-.48-1.14-.48-.46 0-.82.22t-.56.61-.21.89v.09q0 .52.21.92.2.39.56.62t.82.22m4.88.71q-.53 0-.99-.16-.47-.17-.76-.43l.36-.56q.27.23.64.37t.75.14q.45 0 .73-.2t.28-.54q0-.28-.19-.43-.19-.16-.48-.24l-.62-.18q-.33-.08-.62-.22-.3-.14-.48-.4-.19-.26-.19-.71 0-.63.48-1.03.47-.41 1.27-.41.45 0 .86.13.4.14.7.36l-.36.56q-.26-.19-.56-.3t-.65-.11q-.43 0-.7.2t-.27.54q0 .28.19.43t.49.24l.63.18q.33.08.63.23.3.14.49.41.18.26.18.71 0 .42-.23.74t-.64.5-.94.18m5.04.01q-.71 0-1.25-.31-.55-.32-.85-.88-.31-.56-.31-1.29v-.1q0-.7.28-1.24.28-.55.79-.87t1.18-.32q.69 0 1.18.34t.73.96.13 1.45h-3.48q.03.42.24.77.2.34.56.55.35.2.83.2.38 0 .68-.09.29-.09.51-.29l.46.5q-.28.3-.71.46-.44.16-.97.16m-.16-4.31q-.6 0-.97.38-.38.38-.46 1.01h2.7q-.01-.66-.36-1.02-.35-.37-.91-.37m7.07 4.21q-.33 0-.63-.12-.31-.13-.5-.41-.2-.28-.2-.75v-2.83h-.87v-.7h.87v-1.19h.8V180h1.27v.7h-1.27v2.88q0 .23.16.39.15.15.38.15h.73v.69zm3.74.1q-.69 0-1.23-.31-.54-.32-.85-.88t-.31-1.29v-.09q0-.71.31-1.26.31-.56.85-.87t1.23-.31 1.23.31.85.86.31 1.25v.11q0 .73-.31 1.29t-.85.88-1.23.31m0-.72q.47 0 .83-.22.35-.23.55-.62.2-.4.2-.92v-.11q0-.75-.44-1.22-.44-.48-1.14-.48-.46 0-.82.22t-.56.61-.21.89v.09q0 .52.21.92.2.39.56.62t.82.22m6.65.62-1.38-4.81h.81l1.08 3.99 1.13-3.99h.85l1.14 3.98 1.08-3.98h.8l-1.38 4.81h-.92l-1.14-4.07-1.14 4.07zm8.51.1q-.69 0-1.23-.31-.54-.32-.85-.88t-.31-1.29v-.09q0-.71.31-1.26.31-.56.85-.87t1.23-.31 1.23.31.85.86.31 1.25v.11q0 .73-.31 1.29t-.85.88-1.23.31m0-.72q.47 0 .83-.22.35-.23.55-.62.2-.4.2-.92v-.11q0-.75-.44-1.22-.44-.48-1.14-.48-.46 0-.82.22t-.56.61-.21.89v.09q0 .52.21.92.2.39.56.62t.82.22m3.57.62V180h.78v.77q.18-.46.54-.62.35-.17.79-.17h.41v.8h-.47q-.59 0-.91.29t-.33.89v2.85zm3.47 0v-7.3h.81v4.78l2.22-2.29h1l-1.83 1.91 1.98 2.9h-1l-1.56-2.31-.81.85v1.46zm8.66.1q-.82 0-1.31-.4t-.5-1.04q0-.42.25-.75t.69-.52.97-.2q.79 0 1.26.33v-.6q0-.59-.3-.84-.31-.26-.83-.26-.39 0-.79.15t-.7.44l-.38-.57q.32-.37.84-.56t1.07-.19q.85 0 1.37.45t.52 1.34v1.54q0 .8.03 1.58h-.72l-.01-.48q-.45.58-1.46.58m.21-.61q.55 0 .86-.23t.3-.6-.3-.59q-.31-.23-.87-.23-.55 0-.87.23-.32.22-.32.59 0 .36.33.6.32.23.87.23m4.98.51q-.33 0-.63-.12-.31-.13-.5-.41-.2-.28-.2-.75v-2.83h-.87v-.7h.87v-1.19h.8V180H251v.7h-1.27v2.88q0 .23.16.39.15.15.38.15h.73v.69zm6.24.1q-.71 0-1.25-.31-.55-.32-.85-.88-.31-.56-.31-1.29v-.1q0-.7.28-1.24.28-.55.79-.87t1.18-.32q.69 0 1.18.34t.73.96.13 1.45h-3.48q.03.42.24.77.2.34.56.55.35.2.83.2.38 0 .68-.09.29-.09.51-.29l.46.5q-.28.3-.71.46-.44.16-.97.16m-.16-4.31q-.6 0-.97.38-.38.38-.46 1.01h2.7q-.01-.66-.36-1.02-.35-.37-.91-.37m4.63 4.31q-.82 0-1.31-.4t-.5-1.04q0-.42.25-.75t.69-.52.97-.2q.79 0 1.26.33v-.6q0-.59-.31-.84-.3-.26-.82-.26-.39 0-.79.15t-.7.44l-.38-.57q.32-.37.84-.56t1.07-.19q.85 0 1.37.45t.52 1.34v1.54q0 .8.03 1.58h-.72l-.01-.48q-.45.58-1.46.58m.21-.61q.55 0 .86-.23t.3-.6-.3-.59q-.31-.23-.87-.23-.55 0-.87.23-.32.22-.32.59 0 .36.33.6.32.23.87.23m3.4.51V180h.78v.77q.18-.46.54-.62.35-.17.79-.17h.41v.8h-.47q-.59 0-.91.29t-.33.89v2.85zm4.76 0q-.59 0-.94-.33-.36-.34-.36-.9v-5.38h-.88v-.69h1.69v6.08q0 .23.15.38t.38.15h.46v.69zm.65 2v-.69h.96q.21 0 .34-.14.12-.15.2-.35l.35-.77-1.98-4.86h.89l1.52 3.87 1.45-3.87h.89l-2.3 5.66q-.11.28-.27.54t-.43.44q-.27.17-.7.17zm4.15-.56 3.71-9.03h.83l-3.72 9.03zm6.94-1.44q-.59 0-.94-.33-.36-.34-.36-.9v-5.38h-.88v-.69h1.69v6.08q0 .23.15.38t.38.15h.46v.69zm2.86.1q-.82 0-1.31-.4t-.5-1.04q0-.42.25-.75t.69-.52.97-.2q.79 0 1.26.33v-.6q0-.59-.3-.84-.31-.26-.83-.26-.39 0-.79.15t-.7.44l-.38-.57q.32-.37.84-.56t1.07-.19q.85 0 1.37.45t.52 1.34v1.54q0 .8.03 1.58h-.72l-.01-.48q-.45.58-1.46.58m.21-.61q.55 0 .86-.23t.3-.6-.3-.59q-.31-.23-.87-.23-.55 0-.87.23-.32.22-.32.59 0 .36.33.6.32.23.87.23m4.98.51q-.33 0-.63-.12-.31-.13-.5-.41-.2-.28-.2-.75v-2.83h-.87v-.7h.87v-1.19h.8V180h1.27v.7h-1.27v2.88q0 .23.16.39.15.15.38.15h.73v.69zm3.76.1q-.71 0-1.25-.31-.55-.32-.85-.88-.31-.56-.31-1.29v-.1q0-.7.28-1.24.28-.55.79-.87t1.18-.32q.69 0 1.18.34t.73.96.13 1.45h-3.48q.03.42.24.77.2.34.55.55.36.2.84.2.38 0 .68-.09.29-.09.51-.29l.46.5q-.28.3-.71.46-.44.16-.97.16m-.16-4.31q-.6 0-.97.38-.38.38-.46 1.01h2.7q-.01-.66-.36-1.02-.35-.37-.91-.37m5.53 4.21v-7.3h.78v3.26q.29-.5.75-.69.45-.18.84-.18.81 0 1.32.53.5.52.5 1.55v2.83h-.81v-2.71q0-.77-.34-1.11t-.88-.35-.95.38q-.4.37-.4 1.09v2.7zm7.69.1q-.69 0-1.23-.31-.54-.32-.85-.88t-.31-1.29v-.09q0-.71.31-1.26.31-.56.85-.87t1.23-.31 1.23.31.85.86.31 1.25v.11q0 .73-.31 1.29t-.85.88-1.23.31m0-.72q.47 0 .83-.22.35-.23.55-.62.2-.4.2-.92v-.11q0-.75-.44-1.22-.44-.48-1.14-.48-.46 0-.82.22t-.56.61-.21.89v.09q0 .52.21.92.2.39.56.62t.82.22m5.36.72q-.8 0-1.33-.47-.53-.48-.53-1.51V180h.81v2.79q0 .77.35 1.08.34.3.86.3.54 0 .94-.36t.39-1.09V180h.8v4.81h-.72v-.72q-.3.47-.74.65-.45.17-.83.17m3.79-.1V180h.78v.77q.18-.46.54-.62.35-.17.79-.17h.41v.8h-.47q-.59 0-.91.29t-.33.89v2.85zm4.66.09q-.53 0-.99-.16-.47-.17-.76-.43l.36-.56q.27.23.64.37t.75.14q.45 0 .73-.2t.28-.54q0-.28-.19-.43-.19-.16-.48-.24l-.62-.18q-.33-.08-.62-.22-.3-.14-.48-.4-.19-.26-.19-.71 0-.63.48-1.03.47-.41 1.27-.41.45 0 .86.13.4.14.7.36l-.36.56q-.26-.19-.56-.3t-.65-.11q-.43 0-.7.2t-.27.54q0 .28.19.43t.49.24l.63.18q.33.08.63.23.3.14.49.41.18.26.18.71 0 .42-.23.74t-.64.5-.94.18m2.81-.09v-1.1h.98v1.1zm6.36 0v-.78h1.23v-5.44h-1.23v-.78h3.33v.78h-1.24v5.44h1.24v.78zm4.6 0v-4.11h-.88v-.7h.88v-1.21q0-.59.38-.93.37-.35.97-.35h.8v.69h-.81q-.23 0-.38.15t-.15.38V180h1.34v.7h-1.34v4.11zm4.47 2v-.69h.96q.21 0 .34-.14.12-.15.2-.35l.35-.77-1.98-4.86h.89l1.52 3.87 1.45-3.87h.89l-2.3 5.66q-.11.28-.27.54t-.43.44q-.27.17-.7.17zm7.46-1.9q-.69 0-1.23-.31-.54-.32-.85-.88t-.31-1.29v-.09q0-.71.31-1.26.31-.56.85-.87t1.23-.31 1.23.31.85.86.31 1.25v.11q0 .73-.31 1.29t-.85.88-1.23.31m0-.72q.47 0 .83-.22.35-.23.55-.62.2-.4.2-.92v-.11q0-.75-.44-1.22-.44-.48-1.14-.48-.46 0-.82.22t-.56.61-.21.89v.09q0 .52.21.92.2.39.56.62t.82.22m5.36.72q-.8 0-1.33-.47-.53-.48-.53-1.51V180h.81v2.79q0 .77.35 1.08.34.3.86.3.54 0 .94-.36t.39-1.09V180h.8v4.81h-.72v-.72q-.3.47-.74.65-.45.17-.83.17m7.56 0q-.82 0-1.31-.4t-.5-1.04q0-.42.25-.75t.69-.52.97-.2q.79 0 1.26.33v-.6q0-.59-.3-.84-.31-.26-.83-.26-.39 0-.79.15t-.7.44l-.38-.57q.32-.37.84-.56t1.07-.19q.85 0 1.37.45t.52 1.34v1.54q0 .8.03 1.58h-.72l-.01-.48q-.45.58-1.46.58m.21-.61q.55 0 .86-.23t.3-.6-.3-.59q-.31-.23-.87-.23-.55 0-.87.23-.32.22-.32.59 0 .36.33.6.32.23.87.23m3.4.51V180h.78v.77q.18-.46.54-.62.35-.17.79-.17h.41v.8h-.47q-.59 0-.91.29t-.33.89v2.85zm5.32.1q-.71 0-1.25-.31-.55-.32-.85-.88-.31-.56-.31-1.29v-.1q0-.7.28-1.24.28-.55.79-.87t1.18-.32q.69 0 1.18.34t.73.96.13 1.45h-3.48q.03.42.24.77.2.34.56.55.35.2.83.2.38 0 .68-.09.29-.09.51-.29l.46.5q-.28.3-.71.46-.44.16-.97.16m-.16-4.31q-.6 0-.97.38-.38.38-.46 1.01h2.7q-.01-.66-.36-1.02-.35-.37-.91-.37m5.53 4.21V180h.78v.77q.18-.46.54-.62.35-.17.79-.17h.41v.8h-.47q-.59 0-.91.29t-.33.89v2.85zm5.32.1q-.71 0-1.25-.31-.55-.32-.85-.88-.31-.56-.31-1.29v-.1q0-.7.28-1.24.28-.55.79-.87t1.18-.32q.69 0 1.18.34t.73.96.13 1.45h-3.48q.03.42.24.77.2.34.56.55.35.2.83.2.38 0 .68-.09.29-.09.51-.29l.46.5q-.28.3-.71.46-.44.16-.97.16m-.16-4.31q-.6 0-.97.38-.38.38-.46 1.01h2.7q-.01-.66-.36-1.02-.35-.37-.91-.37m5.34 4.31q-.71 0-1.27-.31t-.87-.86-.32-1.28v-.12q0-.72.32-1.27t.88-.86 1.26-.31q.53 0 .97.2.43.19.73.54l-.5.5q-.46-.49-1.2-.49-.48 0-.85.21-.38.21-.59.59-.22.38-.22.89v.12q0 .51.22.9.22.38.6.59.37.21.85.21.73 0 1.21-.48l.49.49q-.29.35-.73.55-.45.19-.98.19m4.7 0q-.71 0-1.25-.31-.55-.32-.85-.88-.31-.56-.31-1.29v-.1q0-.7.28-1.24.28-.55.79-.87t1.18-.32q.69 0 1.18.34t.73.96.13 1.45h-3.48q.03.42.24.77.2.34.56.55.35.2.83.2.38 0 .68-.09.29-.09.51-.29l.46.5q-.28.3-.71.46-.44.16-.97.16m-.16-4.31q-.6 0-.97.38-.38.38-.46 1.01h2.7q-.01-.66-.36-1.02-.35-.37-.91-.37m3.54 4.21v-4.11h-.94v-.7h1.74v4.81zm-.05-5.87v-1.16h.9v1.16zm3.63 5.87-1.91-4.81h.84l1.5 3.86 1.49-3.86h.84l-1.9 4.81zm4.01 0v-4.11h-.94v-.7h1.74v4.81zm-.05-5.87v-1.16h.9v1.16zm2.36 5.87V180h.78v.77q.29-.5.75-.69.45-.18.84-.18.81 0 1.32.53.5.52.5 1.55v2.83h-.81v-2.71q0-.77-.34-1.11t-.88-.35-.95.38q-.4.37-.4 1.09v2.7zm5.14 2v-.68h2.87q.34 0 .53-.16.19-.17.19-.47 0-.28-.19-.43-.19-.16-.53-.16h-1.58q-.38 0-.57-.18-.2-.18-.22-.45-.03-.27.11-.54l.32-.65q-.37-.23-.58-.59-.21-.37-.21-.82v-.09q0-.5.27-.88.26-.38.73-.59.46-.22 1.06-.22l.22.01.49-1.01h.81l-.62 1.15q.53.19.85.59t.31.93v.11q0 .51-.26.9-.27.39-.73.62-.47.22-1.07.22-.32 0-.62-.07l-.24.47q-.07.13-.04.29.02.15.27.15h1.41q.61 0 .99.32.38.31.38.93 0 .57-.38.94-.39.36-1.03.36zm2.2-4.02q.29 0 .58-.1t.49-.36.2-.7q0-.48-.35-.77-.36-.3-.92-.3t-.91.3q-.36.29-.36.77 0 .44.2.7t.5.36.57.1m7.08 2.02q-.33 0-.63-.12-.31-.13-.5-.41-.2-.28-.2-.75v-2.83h-.87v-.7h.87v-1.19h.8V180h1.27v.7h-1.27v2.88q0 .23.16.39.15.15.38.15h.73v.69zm1.82 0v-7.3h.78v3.26q.29-.5.75-.69.45-.18.84-.18.81 0 1.32.53.5.52.5 1.55v2.83h-.81v-2.71q0-.77-.34-1.11t-.88-.35-.95.38q-.4.37-.4 1.09v2.7zm5.92 0v-4.11h-.94v-.7h1.74v4.81zm-.05-5.87v-1.16h.9v1.16zm3.69 5.96q-.53 0-.99-.16-.47-.17-.76-.43l.36-.56q.27.23.64.37t.75.14q.45 0 .73-.2t.28-.54q0-.28-.19-.43-.19-.16-.48-.24l-.62-.18q-.33-.08-.62-.22-.3-.14-.48-.4-.19-.26-.19-.71 0-.63.48-1.03.47-.41 1.27-.41.45 0 .86.13.4.14.7.36l-.36.56q-.26-.19-.56-.3t-.65-.11q-.43 0-.7.2t-.27.54q0 .28.19.43t.49.24l.63.18q.33.08.63.23.3.14.49.41.18.26.18.71 0 .42-.23.74t-.64.5-.94.18m7.38.01q-.71 0-1.25-.31-.55-.32-.85-.88-.31-.56-.31-1.29v-.1q0-.7.28-1.24.28-.55.79-.87t1.18-.32q.69 0 1.18.34t.73.96.13 1.45h-3.48q.03.42.24.77.2.34.56.55.35.2.83.2.38 0 .68-.09.29-.09.51-.29l.46.5q-.28.3-.71.46-.44.16-.97.16m-.16-4.31q-.6 0-.97.38-.38.38-.46 1.01h2.7q-.01-.66-.36-1.02-.35-.37-.91-.37m3.2 4.21V180h.77v.76q.28-.49.71-.68.42-.18.82-.18.52 0 .92.23.39.23.59.71.21-.36.5-.56.28-.21.59-.29.3-.09.57-.09.78 0 1.27.51.49.5.49 1.54v2.86h-.79v-2.76q0-.74-.32-1.07t-.84-.34q-.54 0-.9.37-.36.36-.36 1.04v2.76h-.8v-2.76q0-.74-.31-1.07-.32-.34-.84-.34-.54 0-.9.37-.37.36-.37 1.04v2.76zm10.1.1q-.82 0-1.31-.4t-.5-1.04q0-.42.25-.75t.69-.52.97-.2q.79 0 1.26.33v-.6q0-.59-.3-.84-.31-.26-.83-.26-.39 0-.79.15t-.7.44l-.38-.57q.32-.37.84-.56t1.07-.19q.85 0 1.37.45t.52 1.34v1.54q0 .8.03 1.58h-.72l-.01-.48q-.45.58-1.46.58m.21-.61q.55 0 .86-.23t.3-.6-.3-.59q-.31-.23-.87-.23-.55 0-.87.23-.32.22-.32.59 0 .36.33.6.32.23.87.23m3.71.51v-4.11h-.94v-.7h1.74v4.81zm-.05-5.87v-1.16h.9v1.16zm3.66 5.87q-.59 0-.94-.33-.36-.34-.36-.9v-5.38h-.88v-.69h1.69v6.08q0 .23.15.38t.38.15h.46v.69zm5.08.1q-.82 0-1.31-.4t-.5-1.04q0-.42.25-.75t.69-.52.97-.2q.79 0 1.26.33v-.6q0-.59-.3-.84-.31-.26-.83-.26-.39 0-.79.15t-.7.44l-.38-.57q.32-.37.84-.56t1.07-.19q.85 0 1.37.45t.52 1.34v1.54q0 .8.03 1.58h-.72l-.01-.48q-.45.58-1.46.58m.21-.61q.55 0 .86-.23t.3-.6-.3-.59q-.31-.23-.87-.23-.55 0-.87.23-.32.22-.32.59 0 .36.33.6.32.23.87.23m4.98.51q-.33 0-.63-.12-.31-.13-.5-.41-.2-.28-.2-.75v-2.83h-.87v-.7h.87v-1.19h.8V180h1.27v.7h-1.27v2.88q0 .23.16.39.15.15.38.15h.73v.69zm5.59.1q-.82 0-1.31-.4t-.5-1.04q0-.42.25-.75t.69-.52.97-.2q.79 0 1.26.33v-.6q0-.59-.3-.84-.31-.26-.83-.26-.39 0-.79.15t-.7.44l-.38-.57q.32-.37.84-.56t1.07-.19q.85 0 1.37.45t.52 1.34v1.54q0 .8.03 1.58h-.72l-.01-.48q-.45.58-1.46.58m.21-.61q.55 0 .86-.23t.3-.6-.3-.59q-.31-.23-.87-.23-.55 0-.87.23-.32.22-.32.59 0 .36.33.6.32.23.87.23m3.4.51V180h.78v.77q.29-.5.75-.69.45-.18.84-.18.81 0 1.32.53.5.52.5 1.55v2.83h-.81v-2.71q0-.77-.34-1.11t-.88-.35-.95.38q-.4.37-.4 1.09v2.7zm9.74.1q-.8 0-1.33-.47-.53-.48-.53-1.51V180h.81v2.79q0 .77.35 1.08.34.3.86.3.54 0 .94-.36t.39-1.09V180h.8v4.81h-.72v-.72q-.3.47-.74.65-.45.17-.83.17m3.79-.1V180h.78v.77q.29-.5.75-.69.45-.18.84-.18.81 0 1.32.53.5.52.5 1.55v2.83h-.81v-2.71q0-.77-.34-1.11t-.88-.35-.95.38q-.4.37-.4 1.09v2.7zm6.95.09q-.53 0-.99-.16-.47-.17-.76-.43l.36-.56q.27.23.64.37t.75.14q.45 0 .73-.2t.28-.54q0-.28-.19-.43-.19-.16-.48-.24l-.62-.18q-.33-.08-.62-.22-.3-.14-.48-.4-.19-.26-.19-.71 0-.63.48-1.03.47-.41 1.27-.41.45 0 .86.13.4.14.7.36l-.36.56q-.26-.19-.56-.3t-.65-.11q-.43 0-.7.2t-.27.54q0 .28.19.43t.49.24l.63.18q.33.08.63.23.3.14.49.41.18.26.18.71 0 .42-.23.74t-.64.5-.94.18m5.02.01q-.69 0-1.23-.31-.54-.32-.85-.88t-.31-1.29v-.09q0-.71.31-1.26.31-.56.85-.87t1.23-.31 1.23.31.85.86.31 1.25v.11q0 .73-.31 1.29t-.85.88-1.23.31m0-.72q.47 0 .83-.22.35-.23.55-.62.2-.4.2-.92v-.11q0-.75-.44-1.22-.44-.48-1.14-.48-.46 0-.82.22t-.56.61-.21.89v.09q0 .52.21.92.2.39.56.62t.82.22m5.71.72q-.71 0-1.27-.31t-.87-.86-.32-1.28v-.12q0-.72.32-1.27t.88-.86 1.26-.31q.53 0 .97.2.43.19.73.54l-.5.5q-.46-.49-1.2-.49-.48 0-.85.21-.38.21-.59.59-.22.38-.22.89v.12q0 .51.22.9.22.38.6.59.37.21.85.21.73 0 1.21-.48l.49.49q-.29.35-.73.55-.45.19-.98.19m3.13-.1v-4.11h-.94v-.7h1.74v4.81zm-.05-5.87v-1.16h.9v1.16zm3.8 5.97q-.82 0-1.31-.4t-.5-1.04q0-.42.25-.75t.69-.52.97-.2q.79 0 1.26.33v-.6q0-.59-.3-.84-.31-.26-.83-.26-.39 0-.79.15t-.7.44l-.38-.57q.32-.37.84-.56t1.07-.19q.85 0 1.37.45t.52 1.34v1.54q0 .8.03 1.58h-.72l-.01-.48q-.45.58-1.46.58m.21-.61q.55 0 .86-.23t.3-.6-.3-.59q-.31-.23-.87-.23-.55 0-.87.23-.32.22-.32.59 0 .36.33.6.32.23.87.23m5.88.61q-.56 0-1.01-.25-.45-.26-.73-.71v.86h-.74v-7.3h.81v3.27q.28-.41.71-.64t.96-.24q.65 0 1.16.31t.81.86.29 1.27v.09q0 .74-.29 1.3t-.8.87-1.17.31m-.12-.72q.45 0 .81-.21.35-.22.56-.62.2-.4.2-.93v-.09q0-.78-.44-1.25-.45-.47-1.13-.47-.46 0-.82.22t-.57.63-.21.94.21.94.57.62.82.22m4.85.62q-.59 0-.94-.33-.36-.34-.36-.9v-5.38h-.88v-.69h1.69v6.08q0 .23.15.38t.38.15h.46v.69zm3.4.1q-.71 0-1.25-.31-.55-.32-.85-.88-.31-.56-.31-1.29v-.1q0-.7.28-1.24.28-.55.79-.87t1.18-.32q.69 0 1.18.34t.73.96q.23.61.13 1.45h-3.48q.03.42.23.77.21.34.57.55.35.2.83.2.38 0 .68-.09.29-.09.51-.29l.46.5q-.28.3-.71.46-.44.16-.97.16m-.16-4.31q-.6 0-.97.38-.38.38-.46 1.01h2.7q-.01-.66-.36-1.02-.35-.37-.91-.37m5.53 4.21v-7.3h.78v3.26q.29-.5.75-.69.45-.18.84-.18.81 0 1.32.53.5.52.5 1.55v2.83h-.81v-2.71q0-.77-.34-1.11t-.88-.35-.95.38q-.4.37-.4 1.09v2.7zm7.69.1q-.69 0-1.23-.31-.54-.32-.85-.88t-.31-1.29v-.09q0-.71.31-1.26.31-.56.85-.87t1.23-.31 1.23.31.85.86.31 1.25v.11q0 .73-.31 1.29t-.85.88-1.23.31m0-.72q.47 0 .82-.22.36-.23.56-.62.2-.4.2-.92v-.11q0-.75-.44-1.22-.44-.48-1.14-.48-.46 0-.82.22t-.56.61q-.21.39-.21.89v.09q0 .52.21.92.2.39.56.62t.82.22m5.36.72q-.8 0-1.33-.47-.53-.48-.53-1.51V180h.81v2.79q0 .77.35 1.08.34.3.86.3.54 0 .94-.36t.39-1.09V180h.8v4.81h-.72v-.72q-.3.47-.74.65-.45.17-.83.17m3.79-.1V180h.78v.77q.18-.46.54-.62.35-.17.79-.17h.41v.8h-.47q-.59 0-.91.29t-.33.89v2.85zm2.53 0v-1.1h1.02v1.8q0 .43-.24.6-.25.16-.54.16h-.3v-.49h.3q.13 0 .2-.08.06-.08.06-.2v-.69zm4.37 2V180h.76v.83q.28-.43.73-.68t.99-.25q.65 0 1.16.31t.81.86.29 1.27v.09q0 .74-.29 1.3t-.8.87-1.17.31q-.53 0-.96-.23t-.71-.65v2.78zm2.36-2.62q.45 0 .81-.21.35-.22.56-.62.2-.4.2-.93v-.09q0-.78-.44-1.25-.45-.47-1.13-.47-.46 0-.82.22t-.57.63-.21.94.21.94.57.62.82.22m4.85.62q-.59 0-.94-.33-.36-.34-.36-.9v-5.38h-.88v-.69h1.69v6.08q0 .23.15.38t.38.15h.46v.69zm3.4.1q-.71 0-1.25-.31-.55-.32-.85-.88-.31-.56-.31-1.29v-.1q0-.7.28-1.24.28-.55.79-.87t1.18-.32q.69 0 1.18.34t.73.96q.23.61.13 1.45h-3.48q.03.42.24.77.2.34.56.55.35.2.83.2.38 0 .68-.09.29-.09.51-.29l.46.5q-.28.3-.71.46-.44.16-.97.16m-.16-4.31q-.6 0-.97.38-.38.38-.46 1.01h2.7q-.01-.66-.36-1.02-.35-.37-.91-.37m4.63 4.31q-.82 0-1.31-.4t-.5-1.04q0-.42.25-.75t.69-.52q.43-.2.97-.2.79 0 1.26.33v-.6q0-.59-.3-.84-.31-.26-.83-.26-.39 0-.79.15t-.7.44l-.38-.57q.32-.37.84-.56t1.07-.19q.85 0 1.37.45t.52 1.34v1.54q0 .8.03 1.58h-.72l-.01-.48q-.45.58-1.46.58m.21-.61q.55 0 .85-.23.31-.23.31-.6t-.31-.59-.86-.23-.87.23q-.32.22-.32.59 0 .36.33.6.32.23.87.23m4.73.6q-.53 0-.99-.16-.47-.17-.76-.43l.36-.56q.27.23.64.37t.75.14q.45 0 .73-.2t.28-.54q0-.28-.19-.43-.19-.16-.48-.24l-.62-.18q-.33-.08-.62-.22-.3-.14-.48-.4-.19-.26-.19-.71 0-.63.48-1.03.47-.41 1.27-.41.45 0 .86.13.4.14.7.36l-.36.56q-.26-.19-.56-.3t-.65-.11q-.43 0-.7.2t-.27.54q0 .28.19.43t.48.24l.64.18q.33.08.63.23.3.14.48.41.19.26.19.71 0 .42-.23.74t-.64.5-.94.18m5.04.01q-.71 0-1.25-.31-.55-.32-.85-.88-.31-.56-.31-1.29v-.1q0-.7.28-1.24.28-.55.79-.87t1.18-.32q.69 0 1.18.34t.73.96.13 1.45h-3.48q.03.42.24.77.2.34.56.55.35.2.83.2.38 0 .68-.09.29-.09.51-.29l.46.5q-.28.3-.71.46-.44.16-.97.16m-.16-4.31q-.6 0-.97.38-.38.38-.46 1.01h2.7q-.01-.66-.36-1.02-.35-.37-.91-.37M2.82 200.41q-.69 0-1.23-.31-.54-.32-.85-.88t-.31-1.29v-.09q0-.71.31-1.26.31-.56.85-.87t1.23-.31 1.23.31.85.86.31 1.25v.11q0 .73-.31 1.29t-.85.88-1.23.31m0-.72q.47 0 .83-.22.35-.23.55-.62.2-.4.2-.92v-.11q0-.75-.44-1.22-.44-.48-1.14-.48-.46 0-.82.22t-.56.61-.21.89v.09q0 .52.21.92.2.39.56.62t.82.22m3.57.62v-4.81h.78v.77q.29-.5.75-.69.45-.18.84-.18.81 0 1.32.53.5.52.5 1.55v2.83h-.81v-2.71q0-.77-.34-1.11t-.88-.35-.95.38q-.4.37-.4 1.09v2.7zm6.91 0q-.59 0-.94-.33-.36-.34-.36-.9v-5.38h-.88v-.69h1.69v6.08q0 .23.15.38t.38.15h.46v.69zm.65 2v-.69h.96q.21 0 .34-.14.12-.15.2-.35l.35-.77-1.98-4.86h.89l1.52 3.87 1.45-3.87h.89l-2.3 5.66q-.11.28-.27.54t-.43.44q-.27.17-.7.17zm7.63-2v-4.81h.78v.77q.18-.46.54-.62.35-.17.79-.17h.41v.8h-.47q-.59 0-.91.29t-.33.89v2.85zm5.32.1q-.71 0-1.25-.31-.55-.32-.85-.88-.31-.56-.31-1.29v-.1q0-.7.28-1.24.28-.55.79-.87t1.18-.32q.69 0 1.18.34t.73.96.13 1.45H25.3q.03.42.24.77.2.34.56.55.35.2.83.2.38 0 .68-.09.29-.09.51-.29l.46.5q-.28.3-.71.46-.44.16-.97.16m-.16-4.31q-.6 0-.97.38-.38.38-.46 1.01h2.7q-.01-.66-.36-1.02-.35-.37-.91-.37m3.2 6.21v-6.81h.76v.83q.28-.43.73-.68t.99-.25q.65 0 1.16.31t.81.86q.29.55.29 1.27v.09q0 .74-.29 1.3t-.8.87-1.17.31q-.53 0-.96-.23t-.71-.65v2.78zm2.36-2.62q.45 0 .81-.21.35-.22.56-.62.2-.4.2-.93v-.09q0-.78-.45-1.25-.44-.47-1.12-.47-.46 0-.82.22t-.57.63-.21.94.21.94.57.62.82.22m4.85.62q-.59 0-.94-.33-.36-.34-.36-.9v-5.38h-.88v-.69h1.69v6.08q0 .23.15.38t.38.15h.46v.69zm.65 2v-.69h.96q.21 0 .34-.14.12-.15.2-.35l.35-.77-1.98-4.86h.89l1.52 3.87 1.45-3.87h.89l-2.3 5.66q-.11.28-.27.54t-.43.44q-.27.17-.7.17zm9.07-1.9q-.82 0-1.31-.4t-.5-1.04q0-.42.25-.75t.69-.52.97-.2q.79 0 1.26.33v-.6q0-.59-.3-.84-.31-.26-.83-.26-.39 0-.79.15t-.7.44l-.38-.57q.32-.37.84-.56t1.07-.19q.85 0 1.37.45t.52 1.34v1.54q0 .8.03 1.58h-.72l-.01-.48q-.45.58-1.46.58m.21-.61q.55 0 .86-.23t.3-.6-.3-.59q-.31-.23-.87-.23-.55 0-.87.23-.32.22-.32.59 0 .36.33.6.32.23.87.23m4.98.51q-.33 0-.63-.12-.31-.13-.5-.41-.2-.28-.2-.75v-2.83h-.87v-.7h.87v-1.19h.8v1.19h1.27v.7h-1.27v2.88q0 .23.16.39.15.15.38.15h.73v.69zm5.59.1q-.82 0-1.31-.4t-.5-1.04q0-.42.25-.75t.69-.52.97-.2q.79 0 1.26.33v-.6q0-.59-.3-.84-.31-.26-.83-.26-.39 0-.79.15t-.7.44l-.38-.57q.32-.37.84-.56t1.07-.19q.85 0 1.37.45t.52 1.34v1.54q0 .8.03 1.58h-.72l-.01-.48q-.45.58-1.46.58m.21-.61q.55 0 .86-.23t.3-.6-.3-.59q-.31-.23-.87-.23-.55 0-.87.23-.32.22-.32.59 0 .36.33.6.32.23.87.23m7.27.51q-.33 0-.63-.12-.31-.13-.5-.41-.2-.28-.2-.75v-2.83h-.87v-.7h.87v-1.19h.8v1.19h1.27v.7H64.6v2.88q0 .23.16.39.15.15.38.15h.73v.69zm2.2 0v-4.11h-.94v-.7h1.74v4.81zm-.05-5.87v-1.16h.9v1.16zm2.36 5.87v-4.81h.77v.76q.28-.49.7-.68.43-.18.83-.18.52 0 .92.23.39.23.59.71.21-.36.5-.56.28-.21.59-.29.3-.09.57-.09.78 0 1.27.51.49.5.49 1.54v2.86h-.79v-2.76q0-.74-.32-1.07t-.84-.34q-.54 0-.9.37-.36.36-.36 1.04v2.76h-.8v-2.76q0-.74-.31-1.07-.32-.34-.84-.34-.54 0-.9.37-.37.36-.37 1.04v2.76zm10.75.1q-.71 0-1.25-.31-.55-.32-.85-.88-.31-.56-.31-1.29v-.1q0-.7.28-1.24.28-.55.79-.87t1.18-.32q.69 0 1.18.34t.73.96.13 1.45h-3.48q.03.42.24.77.2.34.56.55.35.2.83.2.38 0 .68-.09.29-.09.51-.29l.46.5q-.28.3-.71.46-.44.16-.97.16m-.16-4.31q-.6 0-.97.38-.38.38-.46 1.01h2.7q-.01-.66-.36-1.02-.35-.37-.91-.37m7.07 4.21q-.33 0-.63-.12-.31-.13-.5-.41-.2-.28-.2-.75v-2.83h-.87v-.7h.87v-1.19h.8v1.19h1.27v.7h-1.27v2.88q0 .23.16.39.15.15.38.15h.73v.69zm1.82 0v-7.3h.78v3.26q.29-.5.75-.69.45-.18.84-.18.81 0 1.32.53.5.52.5 1.55v2.83h-.81v-2.71q0-.77-.34-1.11t-.88-.35q-.55 0-.95.38-.4.37-.4 1.09v2.7zm7.06.1q-.82 0-1.31-.4t-.5-1.04q0-.42.25-.75t.69-.52.97-.2q.79 0 1.26.33v-.6q0-.59-.3-.84-.31-.26-.83-.26-.39 0-.79.15t-.7.44l-.38-.57q.32-.37.84-.56t1.07-.19q.85 0 1.37.45t.52 1.34v1.54q0 .8.03 1.58h-.72l-.01-.48q-.45.58-1.46.58m.21-.61q.55 0 .86-.23t.3-.6q0-.37-.3-.59-.31-.23-.87-.23-.55 0-.87.23-.32.22-.32.59 0 .36.33.6.32.23.87.23m4.98.51q-.33 0-.63-.12-.31-.13-.5-.41-.2-.28-.2-.75v-2.83h-.87v-.7h.87v-1.19h.8v1.19h1.27v.7h-1.27v2.88q0 .23.16.39.15.15.38.15h.73v.69zm4.9 0-1.38-4.81h.81l1.08 3.99 1.13-3.99h.85l1.14 3.98 1.08-3.98h.8l-1.38 4.81h-.92l-1.14-4.07-1.14 4.07zm8.51.1q-.69 0-1.23-.31-.54-.32-.85-.88t-.31-1.29v-.09q0-.71.31-1.26.31-.56.85-.87t1.23-.31 1.23.31.85.86.31 1.25v.11q0 .73-.31 1.29t-.85.88-1.23.31m0-.72q.47 0 .83-.22.35-.23.55-.62.2-.4.2-.92v-.11q0-.75-.44-1.22-.44-.48-1.14-.48-.46 0-.82.22t-.56.61-.21.89v.09q0 .52.21.92.2.39.56.62t.82.22m3.57.62v-4.81h.78v.77q.18-.46.54-.62.35-.17.79-.17h.41v.8h-.47q-.59 0-.91.29t-.33.89v2.85zm3.47 0v-7.3h.81v4.78l2.22-2.29h1l-1.83 1.91 1.98 2.9h-1l-1.56-2.31-.81.85v1.46zm6.23.09q-.53 0-.99-.16-.47-.17-.76-.43l.36-.56q.27.23.64.37t.75.14q.45 0 .73-.2t.28-.54q0-.28-.19-.43-.19-.16-.48-.24l-.62-.18q-.33-.08-.62-.22-.3-.14-.48-.4-.19-.26-.19-.71 0-.63.48-1.03.47-.41 1.27-.41.45 0 .86.13.4.14.7.36l-.36.56q-.26-.19-.56-.3t-.65-.11q-.43 0-.7.2t-.27.54q0 .28.19.43t.49.24l.63.18q.33.08.63.23.3.14.49.41.18.26.18.71 0 .42-.23.74t-.64.5-.94.18m5.55-.09v-4.11h-.88v-.7h.88v-1.21q0-.59.38-.93.37-.35.97-.35h.8v.69h-.81q-.23 0-.38.15t-.15.38v1.27h1.34v.7h-1.34v4.11zm4.92.1q-.69 0-1.23-.31-.54-.32-.85-.88t-.31-1.29v-.09q0-.71.31-1.26.31-.56.85-.87t1.23-.31 1.23.31.85.86.31 1.25v.11q0 .73-.31 1.29t-.85.88-1.23.31m0-.72q.47 0 .83-.22.35-.23.55-.62.2-.4.2-.92v-.11q0-.75-.44-1.22-.44-.48-1.14-.48-.46 0-.82.22t-.56.61-.21.89v.09q0 .52.21.92.2.39.56.62t.82.22m3.57.62v-4.81h.78v.77q.18-.46.54-.62.35-.17.79-.17h.41v.8h-.47q-.59 0-.91.29t-.33.89v2.85zm4.87 2v-.69h.96q.21 0 .34-.14.12-.15.2-.35l.35-.77-1.98-4.86h.89l1.52 3.87 1.45-3.87h.89l-2.3 5.66q-.11.28-.27.54t-.43.44q-.27.17-.7.17zm7.46-1.9q-.69 0-1.23-.31-.54-.32-.85-.88t-.31-1.29v-.09q0-.71.31-1.26.31-.56.85-.87t1.23-.31 1.23.31.85.86.31 1.25v.11q0 .73-.31 1.29t-.85.88-1.23.31m0-.72q.47 0 .83-.22.35-.23.55-.62.2-.4.2-.92v-.11q0-.75-.44-1.22-.44-.48-1.14-.48-.46 0-.82.22t-.56.61-.21.89v.09q0 .52.21.92.2.39.56.62t.82.22m5.36.72q-.8 0-1.33-.47-.53-.48-.53-1.51v-2.93h.81v2.79q0 .77.35 1.08.34.3.86.3.54 0 .94-.36t.39-1.09v-2.72h.8v4.81h-.72v-.72q-.3.47-.75.65-.44.17-.82.17m3.64-.1v-1.1h.98v1.1z"/></svg>