<svg xmlns="http://www.w3.org/2000/svg" width="600" height="300" viewBox="0 0 600 300"><path fill="#fff" d="M0 0h600v300H0z"/><path fill="#30ba78" d="M1.5 0h3v108.31h-3z"/><path fill="#0c322c" d="M18.58 17V3.7h2.64l3.55 7.62 3.54-7.62h2.66V17h-1.94V6.27L25.53 14h-1.52L20.5 6.27V17zm18.75.19q-1.39 0-2.43-.6t-1.63-1.66q-.58-1.06-.58-2.47v-.19q0-1.33.55-2.39.54-1.05 1.52-1.66.97-.61 2.28-.61 1.35 0 2.31.67.96.66 1.41 1.86t.26 2.83h-6.48q.11 1.1.86 1.84.75.73 2.01.73 1.36 0 2.16-.74l1.07 1.12q-.55.62-1.41.95t-1.9.32m-.29-8.04q-1.06 0-1.69.67-.62.66-.77 1.75h4.65q-.02-1.14-.63-1.78-.6-.64-1.56-.64M43.37 17V9.4h-1.71V7.8h3.59V17zM43.3 5.89V3.51h2.07v2.38zm14.52 11.36q-1.41 0-2.65-.5-1.25-.49-2.18-1.39-.93-.91-1.45-2.14-.52-1.24-.52-2.72v-.3q0-1.48.52-2.72.52-1.23 1.45-2.14.93-.9 2.18-1.39 1.24-.5 2.65-.5 1.29 0 2.36.39 1.08.39 1.93 1.11l-1.25 1.51q-1.26-1.07-3.04-1.07-1.37 0-2.45.61-1.09.61-1.71 1.69-.63 1.08-.63 2.51v.3q0 1.43.63 2.51.62 1.08 1.71 1.69t2.45.61q1.82 0 3.08-1.12l1.27 1.48q-.86.76-1.97 1.17t-2.38.41m5.77-.25V3.13h1.79v5.99q.57-.88 1.4-1.19.82-.32 1.51-.32 1.55 0 2.5 1.01t.95 2.95V17h-1.86v-5.15q0-1.35-.59-1.94t-1.5-.59q-.97 0-1.65.65t-.68 1.92V17zm14.41.19q-1.39 0-2.44-.6-1.04-.6-1.62-1.66t-.58-2.47v-.19q0-1.33.54-2.39.54-1.05 1.52-1.66t2.29-.61q1.35 0 2.31.67.96.66 1.4 1.86.45 1.2.26 2.83H75.2q.12 1.1.87 1.84.75.73 2 .73 1.37 0 2.17-.74l1.06 1.12q-.55.62-1.4.95-.86.32-1.9.32m-.29-8.04q-1.06 0-1.69.67-.63.66-.78 1.75h4.66q-.02-1.14-.63-1.78t-1.56-.64M83.39 17V7.8h1.79v1.32q.57-.88 1.39-1.19.83-.32 1.51-.32 1.56 0 2.51 1.01t.95 2.95V17h-1.86v-5.15q0-1.35-.59-1.94t-1.5-.59q-.97 0-1.65.65-.69.65-.69 1.92V17z"/><path fill="#4b7a70" d="M19.69 36.84v-7.46h-2.53v-.94h6.12v.94h-2.56v7.46zm6.03.12q-.85 0-1.5-.38-.66-.38-1.02-1.05-.37-.67-.37-1.55v-.12q0-.84.34-1.49.33-.65.95-1.04.61-.38 1.41-.38.83 0 1.42.41t.87 1.14q.28.74.16 1.75H23.8q.04.5.29.92.24.41.67.66.42.24 1 .24.46 0 .81-.11t.62-.34l.55.6q-.34.36-.86.55t-1.16.19m-.19-5.17q-.72 0-1.17.45-.45.46-.54 1.22h3.24q-.02-.8-.44-1.23-.42-.44-1.09-.44m6.41 5.17q-.85 0-1.52-.37-.68-.37-1.05-1.04-.38-.67-.38-1.53v-.14q0-.87.38-1.53.39-.66 1.05-1.03.67-.37 1.52-.37.64 0 1.16.23t.88.66l-.6.6q-.55-.59-1.44-.59-.58 0-1.03.25t-.7.71q-.26.45-.26 1.07v.14q0 .61.26 1.07.27.47.72.72t1.02.25q.88 0 1.45-.58l.59.59q-.35.42-.88.66-.53.23-1.17.23m3.3-.12v-8.76h.94v3.91q.34-.6.89-.82t1.01-.22q.98 0 1.58.63t.61 1.86v3.4h-.97v-3.25q0-.93-.42-1.34-.41-.41-1.05-.41-.66 0-1.14.45t-.48 1.31v3.24zm6.74 0v-5.77h.94v.92q.35-.6.89-.82.55-.22 1.02-.22.97 0 1.58.63.6.63.6 1.86v3.4h-.97v-3.25q0-.93-.41-1.34-.42-.41-1.05-.41-.66 0-1.14.45t-.48 1.31v3.24zm7.11 0v-4.93h-1.13v-.84h2.09v5.77zm-.06-7.04v-1.4h1.08v1.4zm5.4 7.16q-.85 0-1.53-.37-.67-.37-1.05-1.04-.37-.67-.37-1.53v-.14q0-.87.38-1.53t1.05-1.03 1.52-.37q.63 0 1.16.23t.88.66l-.6.6q-.55-.59-1.44-.59-.58 0-1.03.25t-.71.71-.25 1.07v.14q0 .61.26 1.07t.71.72 1.03.25q.88 0 1.45-.58l.59.59q-.35.42-.88.66-.54.23-1.17.23m5.03 0q-.99 0-1.58-.48t-.6-1.25q0-.5.3-.9.3-.39.83-.63.52-.23 1.17-.23.94 0 1.51.39v-.72q0-.7-.37-1.01-.36-.31-.99-.31-.47 0-.95.18-.49.17-.84.53l-.45-.68q.38-.45 1.01-.67.62-.23 1.28-.23 1.02 0 1.64.54.63.54.63 1.61v1.84q0 .96.03 1.9h-.86l-.01-.58q-.54.7-1.75.7m.25-.73q.66 0 1.02-.28.37-.27.37-.72t-.37-.71-1.03-.27-1.05.27-.38.71.39.72 1.05.28m5.63.61q-.71 0-1.14-.4t-.42-1.08v-6.45h-1.06v-.83h2.03v7.3q0 .27.18.45t.45.18h.56v.83zm6.6.14q-.89 0-1.56-.31-.66-.32-1.12-.87l.65-.65q.86.96 2.06.96.84 0 1.33-.42.48-.42.48-1.09 0-.48-.23-.78-.23-.29-.62-.47-.38-.17-.85-.3t-.93-.28-.85-.39-.63-.63-.23-1.02q0-.74.35-1.29.35-.54.98-.84t1.47-.3q.75 0 1.35.25t1 .68l-.66.66q-.35-.36-.76-.54t-.93-.18q-.81 0-1.29.4-.49.41-.49 1.07 0 .45.23.72t.63.43q.39.17.86.29t.93.27.86.39.63.65.24 1.06q0 .78-.37 1.35-.36.56-1.02.87t-1.51.31m6.39-.02q-.96 0-1.59-.57t-.64-1.81v-3.51h.97v3.35q0 .92.42 1.29.41.36 1.03.36.65 0 1.13-.43t.47-1.31v-3.26h.96v5.77h-.86v-.86q-.36.56-.9.77-.53.21-.99.21m4.55 2.28v-8.17h.91v.99q.34-.51.87-.81.54-.3 1.2-.3.78 0 1.39.37t.96 1.03q.36.66.36 1.53v.1q0 .89-.35 1.56-.35.68-.96 1.05t-1.4.37q-.64 0-1.16-.28t-.85-.78v3.34zm2.83-3.14q.54 0 .97-.26t.67-.74.25-1.12v-.1q0-.94-.54-1.5-.53-.57-1.35-.57-.55 0-.98.27-.43.26-.69.75-.25.48-.25 1.13t.25 1.13q.26.48.69.74.43.27.98.27m4.27 3.14v-8.17h.92v.99q.33-.51.87-.81.53-.3 1.19-.3.78 0 1.39.37t.97 1.03q.35.66.35 1.53v.1q0 .89-.35 1.56-.34.68-.96 1.05t-1.4.37q-.64 0-1.15-.28-.52-.28-.85-.78v3.34zm2.84-3.14q.54 0 .96-.26.43-.26.67-.74t.25-1.12v-.1q0-.94-.53-1.5-.54-.57-1.35-.57-.56 0-.99.27-.43.26-.68.75-.25.48-.25 1.13t.25 1.13.68.74.99.27m6.75.86q-.83 0-1.47-.38-.65-.38-1.02-1.05-.38-.67-.38-1.55v-.1q0-.86.38-1.52.37-.67 1.02-1.04.64-.37 1.47-.37t1.48.37 1.02 1.03.37 1.5v.13q0 .88-.37 1.55t-1.02 1.05-1.48.38m0-.86q.57 0 .99-.27t.67-.75q.24-.47.24-1.1v-.13q0-.9-.53-1.47t-1.37-.57q-.55 0-.98.27-.43.26-.68.73t-.25 1.07v.1q0 .63.25 1.1t.68.75.98.27m4.29.74v-5.77h.93v.92q.22-.55.64-.75t.96-.2h.49V32h-.56q-.71 0-1.1.35t-.39 1.07v3.42zm6.13 0q-.4 0-.76-.15-.37-.15-.6-.49-.24-.33-.24-.9v-3.39h-1.04v-.84h1.04v-1.43h.96v1.43h1.53v.84h-1.53v3.45q0 .28.19.47.18.18.46.18h.88v.83zm6.38 0q-.57 0-.95-.38t-.38-.95v-5.74q0-.57.38-.95t.95-.38h3.88v.94h-3.55q-.28 0-.47.18-.18.19-.18.45v2.17H120v.9h-3.95v2.19q0 .26.18.45.19.18.47.18h3.55v.94zm5.29 0v-5.77h.94v.92q.35-.6.89-.82.55-.22 1.02-.22.97 0 1.58.63.6.63.6 1.86v3.4h-.97v-3.25q0-.93-.41-1.34-.42-.41-1.05-.41-.66 0-1.14.45t-.48 1.31v3.24zm6.17 2.4v-.82h3.45q.4 0 .63-.19.23-.2.23-.56 0-.34-.23-.52-.23-.19-.63-.19h-1.9q-.46 0-.69-.22-.23-.21-.26-.54-.03-.32.13-.64l.39-.78q-.45-.28-.7-.72t-.25-.98v-.1q0-.6.32-1.06t.87-.71 1.28-.26l.27.01.58-1.21h.98l-.75 1.38q.64.23 1.02.71.37.48.37 1.11v.13q0 .62-.31 1.08-.32.47-.88.74t-1.28.27q-.38 0-.74-.08l-.29.56q-.08.16-.05.34t.33.19h1.69q.73 0 1.19.38t.45 1.12q0 .68-.46 1.12t-1.23.44zm2.64-4.82q.35 0 .7-.13t.59-.43.24-.84q0-.57-.43-.93-.43-.35-1.1-.35t-1.1.35q-.42.36-.42.93 0 .53.24.84t.59.43q.36.13.69.13m4.27 2.42v-4.93h-1.12v-.84h2.08v5.77zm-.06-7.04v-1.4h1.08v1.4zm2.84 7.04v-5.77h.93v.92q.35-.6.9-.82.54-.22 1.01-.22.97 0 1.58.63.6.63.6 1.86v3.4h-.97v-3.25q0-.93-.41-1.34-.42-.41-1.05-.41-.66 0-1.14.45t-.48 1.31v3.24zm9.25.12q-.85 0-1.51-.38-.65-.38-1.02-1.05-.36-.67-.36-1.55v-.12q0-.84.33-1.49.34-.65.95-1.04.61-.38 1.42-.38.82 0 1.41.41t.87 1.14.16 1.75h-4.17q.03.5.28.92.25.41.67.66.43.24 1 .24.46 0 .81-.11t.62-.34l.55.6q-.33.36-.85.55-.53.19-1.16.19m-.19-5.17q-.72 0-1.17.45-.45.46-.55 1.22h3.24q-.01-.8-.43-1.23-.42-.44-1.09-.44m6.34 5.17q-.85 0-1.5-.38-.66-.38-1.02-1.05-.37-.67-.37-1.55v-.12q0-.84.34-1.49.33-.65.95-1.04.61-.38 1.41-.38.83 0 1.42.41t.87 1.14.16 1.75H151q.04.5.29.92.24.41.67.66.42.24 1 .24.46 0 .81-.11t.62-.34l.55.6q-.34.36-.86.55t-1.16.19m-.19-5.17q-.72 0-1.17.45-.45.46-.54 1.22h3.24q-.02-.8-.44-1.23-.42-.44-1.09-.44m3.84 5.05v-5.77h.94v.92q.21-.55.64-.75t.95-.2h.5V32h-.57q-.71 0-1.1.35t-.39 1.07v3.42zm11.67.14q-.82 0-1.5-.33-.67-.33-1.07-.91l.73-.59q.34.49.86.74.52.24 1.05.24.8 0 1.3-.43.49-.43.49-1.14 0-.47-.23-.76t-.58-.51-.76-.4-.75-.46q-.36-.26-.58-.65t-.22-.98q0-.74.35-1.3t.97-.89q.62-.31 1.45-.31.73 0 1.33.27.59.28.93.73l-.72.59q-.62-.74-1.6-.74-.78 0-1.26.41-.48.42-.48 1.1 0 .46.22.74t.58.48.77.4.76.45.59.65q.22.4.22 1.02 0 .77-.36 1.35t-1 .91-1.49.32m7.59.04q-.93 0-1.68-.39t-1.2-1.18-.44-1.98q0-1.09.35-2.04t.98-1.66 1.52-1.11q.88-.4 1.96-.4.83 0 1.47.26.63.27 1.05.72l-.75.71q-.35-.37-.83-.54-.47-.18-1.05-.18-.78 0-1.45.31-.67.3-1.18.86-.51.55-.79 1.3t-.28 1.65q0 .95.33 1.55t.88.87 1.21.28q1.03 0 1.94-.69l.51.82q-.54.42-1.19.63t-1.36.21m2.72-.18 5.13-8.4h1.19l1.02 8.4h-.98l-.27-2.32h-3.6l-1.39 2.32zm3-3.16h3l-.48-4.18zm5.13 3.16.31-1.27h1.17l-.52 2.12q-.12.51-.45.7-.34.2-.68.2h-.36l.15-.57h.31q.35 0 .46-.39l.18-.79zm5.33 0 2.06-8.4h1.91q1.27 0 1.97.63t.7 1.6q0 1.19-.7 1.88t-1.85.85l1.37 3.44h-1.08l-1.27-3.4h-1.3l-.84 3.4zm3.97-7.56h-1.14l-.81 3.32h1.38q.63 0 1.14-.19.5-.2.79-.6t.3-1.02q0-.65-.44-1.08t-1.22-.43m2.94 7.56 2.08-8.4h.98l-.9 3.62h4.39l.9-3.62h.98l-2.08 8.4h-.98l.96-3.88h-4.38l-.96 3.88zm12.33.18q-.94 0-1.69-.39t-1.19-1.18-.45-1.98q0-1.09.35-2.04t.98-1.66 1.52-1.11q.88-.4 1.96-.4.83 0 1.47.26.63.27 1.05.72l-.75.71q-.35-.37-.82-.54-.48-.18-1.05-.18-.78 0-1.46.31-.67.3-1.18.86-.51.55-.79 1.3t-.28 1.65q0 .95.33 1.55t.88.87 1.21.28q1.03 0 1.95-.69l.5.82q-.54.42-1.19.63t-1.35.21m5.04-.18q-.68 0-.99-.4t-.14-1.08l1.37-5.59q.14-.6.59-.96.45-.37 1.06-.37h3.59l-.23.9h-3.26q-.3 0-.54.19t-.31.49l-.53 2.18h3.69l-.2.86h-3.71l-.54 2.22q-.07.29.07.47.14.19.42.19h3.3l-.22.9zm4.71 0 .31-1.27h1.17l-.52 2.12q-.12.51-.45.7-.34.2-.68.2h-.36l.15-.57h.31q.35 0 .46-.39l.18-.79zm9.18.18q-.93 0-1.68-.39t-1.2-1.18-.44-1.98q0-1.09.35-2.04t.98-1.66 1.52-1.11q.88-.4 1.96-.4.83 0 1.46.26.64.27 1.06.72l-.76.71q-.34-.37-.82-.54t-1.05-.18q-.78 0-1.45.31-.67.3-1.18.86-.51.55-.79 1.3t-.29 1.65q0 .95.33 1.55t.89.87 1.21.28q1.03 0 1.94-.69l.51.82q-.54.42-1.19.63t-1.36.21m3.64-.18 2.06-8.4h.97l-1.05 4.32 4.58-4.32h1.24l-3.79 3.58 1.94 4.82h-1.08l-1.63-4.09-1.65 1.55-.62 2.54zm6.13 0 5.14-8.4h1.18l1.02 8.4h-.98l-.26-2.32h-3.6l-1.4 2.32zm3-3.16h3l-.48-4.18z"/><path fill="#30ba78" d="M17.9 64.44v-5.77h.92v.91q.34-.59.85-.81t.99-.22q.62 0 1.1.27.47.28.71.86.25-.44.6-.68t.7-.35q.37-.1.69-.1.94 0 1.53.6.59.61.59 1.86v3.43h-.95v-3.31q0-.89-.39-1.29-.38-.4-1-.4-.65 0-1.08.43-.44.44-.44 1.26v3.31h-.96v-3.31q0-.89-.37-1.29-.38-.4-1.01-.4-.64 0-1.08.43-.44.44-.44 1.26v3.31zm12.9.12q-.85 0-1.51-.38-.65-.38-1.02-1.05-.36-.67-.36-1.55v-.12q0-.84.33-1.49.34-.65.95-1.04.61-.38 1.42-.38.83 0 1.41.41.59.4.87 1.14t.17 1.75h-4.18q.04.5.28.92.25.41.67.66.43.24 1.01.24.45 0 .81-.11.35-.1.61-.34l.56.6q-.34.36-.86.55t-1.16.19m-.19-5.17q-.72 0-1.17.45-.45.46-.55 1.22h3.24q-.01-.8-.43-1.23-.42-.44-1.09-.44m4.25 5.05v-4.93h-1.13v-.84h2.09v5.77zm-.06-7.04V56h1.08v1.4zm2.65 7.04v-1.32h1.17v1.32zm5.21.12q-.86 0-1.53-.37t-1.05-1.04-.38-1.53v-.14q0-.87.39-1.53.38-.66 1.05-1.03.66-.37 1.52-.37.63 0 1.15.23.53.24.89.66l-.6.6q-.56-.59-1.44-.59-.58 0-1.03.25t-.71.71-.26 1.07v.14q0 .61.27 1.07.26.47.71.72t1.03.25q.87 0 1.45-.58l.59.59q-.35.42-.88.66-.54.23-1.17.23m3.3-.12v-8.76h.93v3.91q.35-.6.9-.82.54-.22 1.01-.22.97 0 1.58.63.6.63.6 1.86v3.4h-.97v-3.25q0-.93-.41-1.34-.42-.41-1.05-.41-.66 0-1.14.45t-.48 1.31v3.24zm9.25.12q-.85 0-1.51-.38-.65-.38-1.02-1.05-.36-.67-.36-1.55v-.12q0-.84.33-1.49.34-.65.95-1.04.61-.38 1.42-.38.82 0 1.41.41t.87 1.14.16 1.75h-4.17q.03.5.28.92.25.41.67.66.43.24 1 .24.46 0 .81-.11t.62-.34l.55.6q-.33.36-.85.55-.53.19-1.16.19m-.19-5.17q-.72 0-1.17.45-.45.46-.55 1.22h3.24q-.01-.8-.43-1.23-.42-.44-1.09-.44m3.84 5.05v-5.77h.93v.92q.35-.6.9-.82.54-.22 1.01-.22.97 0 1.58.63.6.63.6 1.86v3.4h-.97v-3.25q0-.93-.41-1.34-.42-.41-1.05-.41-.66 0-1.14.45t-.48 1.31v3.24zm11.29 1.9q-1.45 0-2.56-.62t-1.74-1.75q-.62-1.14-.62-2.69 0-1.14.36-2.06t1.02-1.59q.67-.67 1.58-1.03t2.01-.36q1.4 0 2.47.58t1.67 1.61.6 2.41q0 1.34-.57 2.1t-1.46.76q-.52 0-.91-.26-.4-.26-.57-.73-.24.47-.65.73-.4.26-.97.26-.6 0-1.07-.3-.46-.29-.73-.81-.27-.53-.27-1.22 0-.71.27-1.23t.73-.81 1.06-.29q.52 0 .9.2t.62.59v-.71h.77v2.81q0 .49.27.76.26.26.61.26.49 0 .84-.52t.35-1.51q0-1.17-.51-2.07-.5-.9-1.39-1.41t-2.06-.5q-1.23 0-2.17.54T66.55 59t-.53 2.27q0 1.33.52 2.31.52.97 1.45 1.5.92.54 2.15.54.79 0 1.45-.25t1.23-.7l.34.63q-.62.5-1.37.77-.74.27-1.64.27m-.23-3.38q.62 0 1-.43t.38-1.16-.38-1.17-1-.43-1.01.44q-.38.44-.38 1.16t.38 1.16q.39.43 1.01.43m8.09 1.59q-.64 0-1.2-.2t-.9-.51l.43-.67q.32.27.77.44.44.17.9.17.54 0 .87-.25.34-.24.34-.64 0-.33-.23-.52t-.57-.29l-.75-.2q-.39-.1-.75-.27-.35-.17-.57-.48-.23-.31-.23-.85 0-.76.57-1.25.57-.48 1.53-.48.54 0 1.03.16t.85.43l-.44.67q-.31-.23-.67-.36t-.78-.13q-.51 0-.84.24-.32.25-.32.64 0 .34.23.52.22.18.58.29.35.11.75.21t.77.27.58.5q.22.31.22.85 0 .51-.28.89-.27.39-.76.6-.5.22-1.13.22m5.7.01q-.96 0-1.6-.57-.63-.57-.63-1.81v-3.51h.97v3.35q0 .92.41 1.29.42.36 1.04.36.65 0 1.12-.43t.48-1.31v-3.26h.96v5.77h-.87v-.86q-.36.56-.89.77-.54.21-.99.21m6.14-.01q-.63 0-1.19-.2t-.91-.51l.43-.67q.33.27.77.44.45.17.9.17.54 0 .88-.25.33-.24.33-.64 0-.33-.22-.52-.23-.19-.58-.29l-.74-.2q-.4-.1-.75-.27-.36-.17-.58-.48t-.22-.85q0-.76.57-1.25.57-.48 1.53-.48.54 0 1.02.16.49.16.85.43l-.43.67q-.31-.23-.68-.36t-.77-.13q-.52 0-.84.24-.33.25-.33.64 0 .34.23.52t.58.29q.36.11.76.21t.76.27.58.5q.22.31.22.85 0 .51-.27.89-.28.39-.77.6-.49.22-1.13.22m6.05.01q-.85 0-1.51-.38-.65-.38-1.02-1.05-.36-.67-.36-1.55v-.12q0-.84.33-1.49.34-.65.95-1.04.61-.38 1.42-.38.83 0 1.41.41.59.4.87 1.14t.17 1.75h-4.18q.04.5.28.92.25.41.67.66.43.24 1.01.24.45 0 .81-.11.35-.1.61-.34l.56.6q-.34.36-.86.55t-1.16.19m-.19-5.17q-.72 0-1.17.45-.45.46-.55 1.22h3.24q-.01-.8-.43-1.23-.42-.44-1.09-.44m3.66 5.05v-1.32h1.17v1.32zm5.21.12q-.86 0-1.53-.37T102 63.15t-.38-1.53v-.14q0-.87.39-1.53.38-.66 1.05-1.03.66-.37 1.52-.37.63 0 1.15.23.53.24.89.66l-.6.6q-.56-.59-1.44-.59-.58 0-1.03.25t-.71.71-.26 1.07v.14q0 .61.27 1.07.26.47.71.72t1.03.25q.87 0 1.45-.58l.59.59q-.35.42-.88.66-.54.23-1.17.23m5.61 0q-.83 0-1.47-.38-.65-.38-1.02-1.05-.38-.67-.38-1.55v-.1q0-.86.38-1.52.37-.67 1.02-1.04.64-.37 1.47-.37t1.48.37 1.02 1.03.37 1.5v.13q0 .88-.37 1.55t-1.02 1.05-1.48.38m0-.86q.57 0 .99-.27t.67-.75q.24-.47.24-1.1v-.13q0-.9-.53-1.47t-1.37-.57q-.55 0-.98.27-.43.26-.68.73t-.25 1.07v.1q0 .63.25 1.1t.68.75.98.27m4.29.74v-5.77h.92v.91q.34-.59.85-.81t.99-.22q.62 0 1.09.27.48.28.72.86.25-.44.59-.68t.71-.35.69-.1q.94 0 1.52.6.59.61.59 1.86v3.43h-.95v-3.31q0-.89-.38-1.29t-1.01-.4q-.65 0-1.08.43-.43.44-.43 1.26v3.31h-.96v-3.31q0-.89-.38-1.29t-1-.4q-.65 0-1.09.43-.43.44-.43 1.26v3.31z"/><path fill="#0c322c" d="M19.69 83.63v-7.46h-2.53v-.94h6.12v.94h-2.56v7.46zm3.67-4.45v-1.32h1.2v1.32zm0 4.45v-1.32h1.2v1.32zm11.11-1.42v-2.38H32.1v-.81h2.37v-2.39h.83v2.39h2.38v.81H35.3v2.38zm7.68 1.54q-.9 0-1.56-.35t-1.02-.99-.36-1.5q0-.57.21-1.11t.57-1.07l2.45-3.5h1.24l-2.33 3.16q.47-.2 1.01-.2.8 0 1.42.36.62.35.96.98.35.62.35 1.42 0 .84-.37 1.47t-1.04.98-1.53.35m-.01-.89q.84 0 1.38-.53.54-.52.54-1.36t-.53-1.38-1.37-.54q-.87 0-1.4.53t-.53 1.39q0 .85.52 1.37.53.52 1.39.52m6.9.89q-.88 0-1.54-.29-.67-.3-1.12-.74l.57-.69q.36.35.88.6.53.26 1.22.26.95 0 1.5-.52t.55-1.39q0-.77-.44-1.26-.44-.48-1.27-.48-.63 0-1.06.3t-.62.79h-.83l.13-3.9q.01-.53.39-.86.37-.34.91-.34h3.39v.91h-3.2q-.22 0-.38.13-.16.14-.17.35l-.1 2.43q.29-.32.73-.5.44-.19 1.01-.19.77 0 1.33.33.57.32.87.9t.31 1.34q0 .89-.39 1.52t-1.09.96-1.58.34m10.31 0q-.9 0-1.56-.35t-1.02-.99-.36-1.5q0-.57.21-1.11t.57-1.07l2.45-3.5h1.23l-2.33 3.16q.47-.2 1.01-.2.81 0 1.42.36.62.35.97.98.35.62.35 1.42 0 .84-.37 1.47-.38.63-1.04.98-.67.35-1.53.35m-.01-.89q.84 0 1.38-.53.54-.52.54-1.36t-.54-1.38-1.36-.54q-.88 0-1.4.53-.53.53-.53 1.39t.52 1.37 1.39.52m7.14.89q-.92 0-1.6-.3t-1.07-.84-.38-1.27q0-.77.44-1.32.43-.55 1.19-.79-.62-.24-.97-.75-.35-.5-.35-1.17t.34-1.16.95-.76 1.45-.28q.82 0 1.44.28.62.27.96.76.33.5.33 1.16t-.35 1.17-.97.75q.76.24 1.2.79t.43 1.32q0 .72-.38 1.26-.38.55-1.07.85-.68.3-1.59.3m0-4.88q.79 0 1.26-.39.48-.39.48-1.04t-.48-1.04-1.26-.39q-.8 0-1.27.39t-.47 1.04.47 1.04 1.27.39m0 3.99q.88 0 1.44-.45t.56-1.17-.56-1.14q-.56-.43-1.44-.43t-1.44.43-.57 1.14.56 1.17 1.45.45m7.2.89q-1.43 0-2.25-1.14-.81-1.14-.81-3.17 0-1.35.36-2.33.37-.97 1.05-1.48.69-.52 1.65-.52.94 0 1.63.52.69.51 1.06 1.48.37.98.37 2.33 0 2.03-.82 3.17t-2.24 1.14m0-.92q.96 0 1.5-.89.54-.88.54-2.5t-.54-2.52-1.5-.89-1.5.89-.54 2.52q0 1.62.54 2.5.54.89 1.5.89m7.2.92q-1.43 0-2.25-1.14-.81-1.14-.81-3.17 0-1.35.36-2.33.37-.97 1.05-1.48.69-.52 1.65-.52.94 0 1.63.52.69.51 1.06 1.48.37.98.37 2.33 0 2.03-.82 3.17t-2.24 1.14m0-.92q.96 0 1.5-.89.54-.88.54-2.5t-.54-2.52-1.5-.89-1.5.89-.54 2.52q0 1.62.54 2.5.54.89 1.5.89m7.45.8v-.94h2.21v-5.92q0-.27-.17-.44-.16-.16-.42-.16h-1.6v-.94h1.85q.59 0 .96.38t.37.95v6.13h2.19v.94zm6.96 0v-.76l3.09-3.12q.65-.66.88-1.14.23-.49.23-.94 0-.75-.44-1.17-.44-.43-1.18-.43-.58 0-1.08.32t-.89.89l-.66-.63q.46-.71 1.15-1.13.7-.41 1.51-.41.8 0 1.38.31.59.3.92.86.32.56.32 1.29 0 .61-.29 1.27-.3.66-1.14 1.5l-2.34 2.37h4.11v.92zm9.71.12q-.92 0-1.58-.29t-1.14-.74l.59-.69q.37.36.89.61t1.25.25q.89 0 1.43-.44.54-.43.54-1.12 0-.66-.53-1.07-.52-.41-1.41-.41h-1.2v-.89h1.13q.84 0 1.32-.44.47-.43.47-1.07 0-.67-.48-1.06t-1.27-.39q-.67 0-1.15.23t-.78.55l-.58-.71q.41-.4 1.06-.68.64-.28 1.47-.28.81 0 1.42.27.62.27.96.77.35.51.35 1.18 0 .65-.33 1.18-.33.54-.96.82.76.28 1.13.82t.37 1.22q0 .71-.38 1.25-.39.53-1.06.83t-1.53.3m4.42-2.16v-.84l2.8-5.52h1.03l-2.72 5.45h2.77v-2.26h.98v2.26h1.32v.91h-1.32v2.04h-.98v-2.04z"/><path fill="#4b7a70" d="M21.99 105.55q-1.33 0-2.34-.57-1.02-.56-1.59-1.6t-.58-2.46q0-1.05.33-1.89.33-.85.94-1.46t1.45-.94 1.84-.33q1.28 0 2.26.53.98.52 1.53 1.47.55.96.55 2.21 0 1.23-.52 1.93-.52.69-1.34.69-.47 0-.83-.24-.37-.23-.52-.66-.22.43-.59.66-.38.24-.89.24-.55 0-.98-.27t-.68-.75-.25-1.12.25-1.12.68-.75.97-.26q.47 0 .82.19.35.18.57.54v-.65h.71v2.57q0 .45.24.69.24.25.56.25.45 0 .77-.48t.32-1.38q0-1.08-.46-1.91t-1.28-1.28q-.81-.46-1.89-.46-1.12 0-1.99.49-.86.5-1.35 1.39-.49.9-.49 2.09 0 1.22.48 2.11t1.32 1.38q.85.49 1.97.49.73 0 1.33-.23.61-.22 1.14-.64l.31.58q-.58.45-1.26.7t-1.51.25m-.2-3.09q.57 0 .91-.4.35-.39.35-1.07 0-.67-.35-1.06-.34-.4-.91-.4t-.93.4-.35 1.06.35 1.07.93.4m5.95 1.35v-5.29h.84v.84q.31-.54.78-.75t.91-.2q.57 0 1 .25.44.26.66.78.23-.39.54-.62t.65-.32.63-.09q.86 0 1.4.55.54.56.54 1.7v3.15h-.87v-3.04q0-.81-.35-1.18t-.93-.37q-.59 0-.99.4-.39.41-.39 1.15v3.04h-.88v-3.04q0-.81-.35-1.18t-.92-.37q-.59 0-.99.4t-.4 1.15v3.04zm11.82.11q-.78 0-1.38-.35t-.93-.96q-.34-.61-.34-1.42v-.11q0-.77.31-1.37t.87-.95 1.3-.35 1.29.37.8 1.05.15 1.6H37.8q.03.47.26.85t.62.6q.39.23.91.23.42 0 .75-.1.32-.1.56-.32l.51.55q-.31.33-.79.5-.48.18-1.06.18m-.17-4.74q-.66 0-1.08.42-.41.42-.5 1.11h2.97q-.01-.73-.39-1.13-.39-.4-1-.4m3.89 4.63v-4.52h-1.04v-.77h1.92v5.29zm-.06-6.46v-1.27h.99v1.27z"/><path fill="#0c322c" fill-opacity=".1" d="M0 122.81h165.75v1H0z"/><path fill="#0c322c" fill-opacity=".2" d="M111.98 152.33v-12.65h1.11v12.65z"/><path fill="#4b7a70" d="M123.62 150.41q-.59 0-1.1-.18t-.83-.47l.4-.62q.3.26.7.41.41.16.83.16.49 0 .8-.23t.31-.59q0-.31-.21-.48t-.53-.26l-.68-.19q-.36-.09-.69-.25-.32-.15-.53-.44-.2-.28-.2-.78 0-.69.52-1.14.53-.44 1.41-.44.49 0 .94.15t.77.39l-.39.61q-.29-.2-.63-.33-.33-.12-.71-.12-.47 0-.77.23-.29.22-.29.59 0 .31.21.47.21.17.53.26l.69.2q.37.09.7.25t.54.45.2.79q0 .46-.25.81-.26.35-.71.55t-1.03.2m5.22.01q-.88 0-1.46-.52t-.58-1.66v-3.22h.89v3.07q0 .85.38 1.18.38.34.95.34.59 0 1.03-.4.43-.4.43-1.2v-2.99h.88v5.29h-.79v-.79q-.33.52-.82.71t-.91.19m5.64-.01q-.59 0-1.1-.18t-.83-.47l.4-.62q.29.26.7.41.41.16.83.16.49 0 .8-.23t.31-.59q0-.31-.21-.48t-.53-.26l-.68-.19q-.37-.09-.69-.25-.32-.15-.53-.44-.2-.28-.2-.78 0-.69.52-1.14t1.4-.44q.5 0 .94.15.45.15.78.39l-.4.61q-.28-.2-.62-.33-.33-.12-.71-.12-.47 0-.77.23-.3.22-.3.59 0 .31.21.47.21.17.54.26l.69.2q.37.09.7.25t.53.45.21.79q0 .46-.26.81-.25.35-.7.55t-1.03.2m5.54.01q-.78 0-1.38-.35t-.94-.96-.33-1.42v-.11q0-.77.31-1.37.3-.6.87-.95.56-.35 1.29-.35.76 0 1.3.37.54.38.8 1.05.26.68.15 1.6h-3.83q.03.47.26.85.22.38.61.6.39.23.92.23.42 0 .74-.1.33-.1.57-.32l.51.55q-.31.33-.79.5-.48.18-1.06.18m-.18-4.74q-.66 0-1.07.42t-.5 1.11h2.97q-.01-.73-.4-1.13-.38-.4-1-.4m3.36 4.63v-1.21h1.08v1.21zm4.77.11q-.78 0-1.4-.34t-.96-.95-.34-1.4v-.14q0-.79.35-1.39.35-.61.96-.95t1.39-.34q.59 0 1.06.21.48.22.81.6l-.55.55q-.5-.54-1.32-.54-.53 0-.94.24t-.65.64q-.23.42-.23.98v.14q0 .56.24.98t.65.65.94.24q.81 0 1.33-.53l.54.54q-.32.38-.81.6-.48.21-1.07.21m5.15 0q-.76 0-1.35-.35t-.94-.96-.34-1.42v-.1q0-.78.34-1.39t.94-.95 1.35-.34 1.35.34.94.94.34 1.38v.12q0 .81-.34 1.42-.34.62-.94.96-.59.35-1.35.35m0-.79q.52 0 .91-.25t.61-.68.22-1.01v-.12q0-.82-.49-1.35-.48-.52-1.25-.52-.51 0-.9.24-.4.25-.62.67-.23.43-.23.98v.1q0 .57.23 1.01.22.43.62.68.39.25.9.25m3.93.68v-5.29h.84v.84q.31-.54.78-.75t.91-.2q.57 0 1 .25.44.26.66.78.23-.39.54-.62t.65-.32.63-.09q.86 0 1.4.55.54.56.54 1.7v3.15h-.87v-3.04q0-.81-.35-1.18t-.92-.37q-.6 0-1 .4-.39.41-.39 1.15v3.04h-.88v-3.04q0-.81-.35-1.18t-.92-.37q-.59 0-.99.4t-.4 1.15v3.04z"/></svg>