<svg xmlns="http://www.w3.org/2000/svg" width="600" height="300" viewBox="0 0 600 300"><path fill="#fff" d="M0 0h600v300H0z"/><path fill="#30ba78" d="M1.5 0h3v10h-3z"/><path fill="#0c322c" fill-opacity=".1" d="M0 24.5h165.75v1H0z"/><path fill="#0c322c" fill-opacity=".2" d="M111.98 54.02V41.37h1.11v12.65z"/><path fill="#4b7a70" d="M123.62 52.1q-.59 0-1.1-.18t-.83-.47l.4-.62q.3.26.7.41.41.16.83.16.49 0 .8-.23t.31-.59q0-.31-.21-.48t-.53-.26l-.68-.19q-.36-.09-.69-.25-.32-.15-.53-.44-.2-.28-.2-.78 0-.69.52-1.14.53-.44 1.41-.44.49 0 .94.15t.77.39l-.39.61q-.29-.2-.63-.33-.33-.12-.71-.12-.47 0-.77.23-.29.22-.29.59 0 .31.21.47.21.17.53.26l.69.2q.37.09.7.25t.54.45.2.79q0 .46-.25.81-.26.35-.71.55t-1.03.2m5.22.01q-.88 0-1.46-.52t-.58-1.66v-3.22h.89v3.07q0 .85.38 1.18.38.34.95.34.59 0 1.03-.4.43-.4.43-1.2v-2.99h.88V52h-.79v-.79q-.33.52-.82.71t-.91.19m5.64-.01q-.59 0-1.1-.18t-.83-.47l.4-.62q.29.26.7.41.41.16.83.16.49 0 .8-.23t.31-.59q0-.31-.21-.48t-.53-.26l-.68-.19q-.37-.09-.69-.25-.32-.15-.53-.44-.2-.28-.2-.78 0-.69.52-1.14t1.4-.44q.5 0 .94.15.45.15.78.39l-.4.61q-.28-.2-.62-.33-.33-.12-.71-.12-.47 0-.77.23-.3.22-.3.59 0 .31.21.47.21.17.54.26l.69.2q.37.09.7.25t.53.45.21.79q0 .46-.26.81-.25.35-.7.55t-1.03.2m5.54.01q-.78 0-1.38-.35t-.94-.96-.33-1.42v-.11q0-.77.31-1.37.3-.6.87-.95.56-.35 1.29-.35.76 0 1.3.37.54.38.8 1.05.26.68.15 1.6h-3.83q.03.47.26.85.22.38.61.6.39.23.92.23.42 0 .74-.1.33-.1.57-.32l.51.55q-.31.33-.79.5-.48.18-1.06.18m-.18-4.74q-.66 0-1.07.42t-.5 1.11h2.97q-.01-.73-.4-1.13-.38-.4-1-.4M143.2 52v-1.21h1.08V52zm4.77.11q-.78 0-1.4-.34t-.96-.95-.34-1.4v-.14q0-.79.35-1.39.35-.61.96-.95t1.39-.34q.59 0 1.06.21.48.22.81.6l-.55.55q-.5-.54-1.32-.54-.53 0-.94.24t-.65.64q-.23.42-.23.98v.14q0 .56.24.98t.65.65.94.24q.81 0 1.33-.53l.54.54q-.32.38-.81.6-.48.21-1.07.21m5.15 0q-.76 0-1.35-.35t-.94-.96-.34-1.42v-.1q0-.78.34-1.39t.94-.95 1.35-.34 1.35.34.94.94.34 1.38v.12q0 .81-.34 1.42-.34.62-.94.96-.59.35-1.35.35m0-.79q.52 0 .91-.25t.61-.68.22-1.01v-.12q0-.82-.49-1.35-.48-.52-1.25-.52-.51 0-.9.24-.4.25-.62.67-.23.43-.23.98v.1q0 .57.23 1.01.22.43.62.68.39.25.9.25m3.93.68v-5.29h.84v.84q.31-.54.78-.75t.91-.2q.57 0 1 .25.44.26.66.78.23-.39.54-.62t.65-.32.63-.09q.86 0 1.4.55.54.56.54 1.7V52h-.87v-3.04q0-.81-.35-1.18t-.92-.37q-.6 0-1 .4-.39.41-.39 1.15V52h-.88v-3.04q0-.81-.35-1.18t-.92-.37q-.59 0-.99.4t-.4 1.15V52z"/></svg>