<svg xmlns="http://www.w3.org/2000/svg" width="1080" height="1080" style="width:100%;height:auto;display:block" viewBox="0 0 1080 1080"><rect height="100%" fill="#4eb37b"/><path fill="#103d32" fill-rule="evenodd" d="M3.46 0 0 1079.52h1079.52s16.71-258.91 0-314.86-65.74-16.16-100.34-20.76-107.26-6.92-107.26-6.92l6.92-27.68 200.68 20.76V0zm346 238.74c28.27-11.52 11.52-10.97 13.84 3.46s0 83.04 0 83.04 23.08-14.43 44.98-17.3 55.36-3.46 86.5 0 65.74 9.24 100.34 20.76 78.44 32.28 107.26 48.44 48.44 33.46 65.74 48.44 28.82 30.55 38.06 41.52 16.16 13.25 17.3 24.22-10.38 41.52-10.38 41.52l-62.28-51.9v72.66s-12.7-10.38-31.14-10.38-51.9-2.87-79.58 10.38-86.5 69.2-86.5 69.2 40.93 20.17 51.9 24.22 8.06 4.05 13.84 0 10.38-17.89 20.76-24.22 27.68-12.11 41.52-13.84 32.28.59 41.52 3.46 9.8 11.52 13.84 13.84c4.05 2.32 10.38 0 10.38 0l3.46 31.14s-4.6-12.11-10.38-17.3-13.25-11.52-24.22-13.84-32.28-1.14-41.52 0-9.24.59-13.84 6.92-13.84 31.14-13.84 31.14-3.46-8.65 10.38-6.92 58.82 13.84 72.66 17.3 8.65 1.14 10.38 3.46 3.46 6.33 0 10.38-14.43 11.52-20.76 13.84-4.6 2.87-17.3 0-58.82-17.3-58.82-17.3-4.6 19.62-3.46 27.68 3.46 12.7 10.38 20.76 22.49 21.35 31.14 27.68 8.65 8.65 20.76 10.38 51.9 0 51.9 0v27.68s-28.82 6.92-44.98 3.46-38.06-14.98-51.9-24.22-23.08-20.76-31.14-31.14-13.84-17.3-17.3-31.14-3.46-51.9-3.46-51.9 2.87 6.92-3.46 6.92-23.08-3.46-34.6-6.92-34.6-13.84-34.6-13.84l3.46-10.38-38.06 10.38 10.38-31.14-89.96-3.46s-1.14-17.89 6.92-20.76 27.68 4.6 41.52 3.46 32.87-.59 41.52-10.38 17.89-35.74 10.38-48.44-42.66-25.95-55.36-27.68-16.16 9.8-20.76 17.3-6.92 27.68-6.92 27.68l-44.98-3.46-10.38-145.32s13.84 8.65-6.92 10.38-94-2.32-117.64 0c-23.63 2.32-14.43 12.11-24.22 13.84-9.8 1.73-27.68-1.14-34.6-3.46s.59-8.65-6.92-10.38-38.06 0-38.06 0 0-40.93 6.92-58.82 2.87-28.27 34.6-48.44 127.43-61.14 155.7-72.66M245.66 467.1c9.24-1.14 17.3 0 17.3 0s-4.6 9.24-13.84 10.38-41.52-3.46-41.52-3.46 28.82-5.78 38.06-6.92M190.3 574.36c25.36-2.32 48.44 0 48.44 0s19.62 4.05-13.84 10.38-186.84 27.68-186.84 27.68l10.38 3.46s0 6.33-3.46 6.92-13.25-.59-17.3-3.46-6.92-13.84-6.92-13.84 37.47-12.11 65.74-17.3 78.44-11.52 103.8-13.84m141.86 6.92c10.97-.59 45.57 1.73 55.36 3.46 9.8 1.73 3.46 6.92 3.46 6.92s-21.9 12.11-34.6 13.84-31.73-2.32-41.52-3.46-13.84-.59-17.3-3.46-3.46-13.84-3.46-13.84 21.35 4.05 27.68 3.46-.59-6.33 10.38-6.92m612.42 6.92s6.33 0 6.92 10.38-3.46 51.9-3.46 51.9-6.33-3.46-6.92-13.84 3.46-48.44 3.46-48.44M314.86 688.54l20.76 3.46-20.76 10.38zm435.96 0s6.92 21.35 3.46 27.68-17.3 9.24-24.22 10.38-13.84-.59-17.3-3.46-3.46-13.84-3.46-13.84 2.87 6.33 6.92 6.92 12.11-1.14 17.3-3.46 10.97-6.33 13.84-10.38 3.46-13.84 3.46-13.84m20.76 0 10.38 10.38h-13.84z"/></svg>