<svg xmlns="http://www.w3.org/2000/svg" width="1080" height="1080" style="width:100%;height:auto;display:block" viewBox="0 0 1080 1080"><rect height="100%" fill="#4eb37b"/><path fill="#103d32" fill-rule="evenodd" d="M3.46 0 0 1079.52h1079.52s17.3-258.91 0-314.86-69.2-16.16-103.8-20.76-103.8-6.92-103.8-6.92l6.92-27.68 200.68 20.76V0zm349.46 238.74c28.27-11.52 8.65-10.97 10.38 3.46s0 83.04 0 83.04 27.1-14.43 48.44-17.3c21.35-2.87 49.03-3.46 79.58 0s68.61 9.24 103.8 20.76 77.85 31.73 107.26 48.44 51.9 36.92 69.2 51.9 25.95 27.1 34.6 38.06 16.16 16.71 17.3 27.68-10.38 38.06-10.38 38.06l-62.28-51.9v72.66s-16.16-10.38-34.6-10.38-49.03-2.87-76.12 10.38-72.07 56.5-86.5 69.2-8.65 2.87 0 6.92 40.93 14.43 51.9 17.3 8.06 4.05 13.84 0 10.38-17.89 20.76-24.22 27.68-12.11 41.52-13.84 32.28.59 41.52 3.46 9.8 11.52 13.84 13.84c4.05 2.32 10.38 0 10.38 0l3.46 31.14s-4.05-12.11-10.38-17.3-14.43-12.7-27.68-13.84-40.93.59-51.9 6.92-13.84 31.14-13.84 31.14-5.19-9.24 10.38-6.92 69.2 15.57 83.04 20.76 3.46 6.33 0 10.38-14.43 11.52-20.76 13.84-4.6 2.87-17.3 0-58.82-17.3-58.82-17.3-8.65 15.57-3.46 27.68 24.22 35.19 34.6 44.98c10.38 9.8 14.43 11.52 27.68 13.84s51.9 0 51.9 0v27.68s-28.82 6.92-44.98 3.46-38.06-14.98-51.9-24.22-23.08-20.76-31.14-31.14-13.84-17.3-17.3-31.14-3.46-51.9-3.46-51.9-2.32 8.65-13.84 6.92-46.12-12.11-55.36-17.3 0-13.84 0-13.84l-38.06 10.38 10.38-31.14-89.96-3.46s-1.73-17.89 6.92-20.76 31.14 4.6 44.98 3.46 30-.59 38.06-10.38 17.89-35.74 10.38-48.44-42.66-25.95-55.36-27.68-16.16 10.38-20.76 17.3 1.73 20.17-6.92 24.22-44.98 0-44.98 0L380.6 408.28s13.84 8.65-6.92 10.38-96.88-1.73-117.64 0-2.87 8.06-6.92 10.38-8.65 3.46-17.3 3.46-27.1-1.14-34.6-3.46-2.87-8.65-10.38-10.38c-7.5-1.73-34.6 0-34.6 0s0-40.93 6.92-58.82 2.32-28.27 34.6-48.44 130.9-61.14 159.16-72.66M249.12 467.1c7.5-.59 13.84 0 13.84 0s-5.78 8.65-13.84 10.38-34.6 0-34.6 0-2.32-5.19 3.46-6.92 23.63-2.87 31.14-3.46M190.3 574.36c36.33-5.19 48.44 0 48.44 0s19.03 4.05-13.84 10.38-183.38 27.68-183.38 27.68l6.92 10.38s-12.7 2.87-17.3 0-10.38-17.3-10.38-17.3 133.21-25.95 169.54-31.14m141.86 6.92c10.38-.59 45.57 1.73 55.36 3.46 9.8 1.73 3.46 6.92 3.46 6.92s-21.35 12.11-34.6 13.84-34.6-2.32-44.98-3.46-14.43-.59-17.3-3.46 0-13.84 0-13.84 24.8 4.05 31.14 3.46-3.46-6.33 6.92-6.92m612.42 10.38s6.33-3.46 6.92 6.92-3.46 55.36-3.46 55.36-6.33-6.92-6.92-17.3 3.46-44.98 3.46-44.98M311.4 688.54l24.22 3.46-24.22 10.38zm439.42 0s6.92 21.35 3.46 27.68-17.3 9.24-24.22 10.38-14.43-1.14-17.3-3.46 0-10.38 0-10.38 21.35.59 27.68-3.46 10.38-20.76 10.38-20.76m20.76 0 10.38 10.38h-13.84z"/></svg>