<svg xmlns="http://www.w3.org/2000/svg" width="1080" height="1080" style="width:100%;height:auto;display:block" viewBox="0 0 1080 1080"><rect height="100%" fill="#1acd40"/><g fill-rule="evenodd"><path fill="#000200" d="M3.46 0 0 1079.52h1079.52v-294.1s-181.65-30.55-221.44-31.14-5.19 17.3-17.3 27.68-41.52 27.68-55.36 34.6-11.52 6.33-27.68 6.92-49.58 1.14-69.2-3.46-35.74-15.57-48.44-24.22-20.17-16.71-27.68-27.68-14.43-23.63-17.3-38.06 32.28-32.87 0-48.44-156.29-42.66-193.76-44.98-24.8 20.76-31.14 31.14-9.8 17.89-6.92 31.14c2.87 13.25 20.17 32.87 24.22 48.44s2.32 32.28 0 44.98-6.33 20.17-13.84 31.14-24.8 28.82-31.14 34.6-4.6 3.46-6.92 0-6.92-20.76-6.92-20.76l-44.98 24.22s6.92-62.87 17.3-86.5 35.19-39.2 44.98-55.36c9.8-16.16 13.84-41.52 13.84-41.52s-9.24 1.14-17.3 13.84-19.03 46.71-31.14 62.28-25.36 24.8-41.52 31.14-37.47 9.24-55.36 6.92-43.25-16.16-51.9-20.76-8.06 2.32 0-6.92 34.01-36.92 48.44-48.44 15.57-14.98 38.06-20.76 74.98-6.33 96.88-13.84 28.27-23.08 34.6-31.14 3.46-17.3 3.46-17.3-62.28-19.62-121.1-20.76-190.89 14.43-231.82 13.84-11.52-12.7-13.84-17.3-16.16-5.78 0-10.38 54.77-12.7 96.88-17.3 119.37 0 155.7-10.38 51.9-42.1 62.28-51.9 0-6.92 0-6.92-72.66 1.73-100.34-3.46-53.04-20.76-65.74-27.68-10.38-13.84-10.38-13.84 83.04.59 107.26-3.46 30.55-14.98 38.06-20.76c7.5-5.78 6.92-13.84 6.92-13.84s-40.38 23.08-65.74 27.68-70.34.59-86.5 0-9.24 8.65-10.38-3.46.59-50.76 3.46-69.2 6.33-28.82 13.84-41.52 0-16.71 31.14-34.6 127.43-60.55 155.7-72.66 13.84 0 13.84 0l3.46 83.04s19.03-12.7 48.44-13.84 84.18-2.32 128.02 6.92 99.2 31.73 134.94 48.44 55.95 32.28 79.58 51.9 45.57 44.4 62.28 65.74c16.71 21.35 26.54 36.92 38.06 62.28s25.95 65.15 31.14 89.96 1.14 46.71 0 58.82-6.92 10.38-6.92 13.84-13.25 4.05 6.92 6.92 91.1 9.8 114.18 10.38 24.22-6.92 24.22-6.92-47.3-16.16-62.28-27.68-23.08-24.22-27.68-41.52 0-62.28 0-62.28 32.28-1.14 41.52 0 13.84 6.92 13.84 6.92l17.3-65.74s32.28 28.27 41.52 41.52 12.11 22.49 13.84 38.06 2.87 35.19-3.46 55.36-34.6 65.74-34.6 65.74l51.9 3.46V0zM449.8 532.84s-6.92 4.05-10.38 13.84c-3.46 9.8-10.38 44.98-10.38 44.98s55.36 2.32 69.2 0 12.11-9.24 13.84-13.84 6.92-6.33-3.46-13.84-58.82-31.14-58.82-31.14m-69.2 6.92c-4.6 1.73-13.25 3.46-20.76 10.38-7.5 6.92-24.22 31.14-24.22 31.14s13.84 2.32 20.76 0 15.57-9.24 20.76-13.84q7.78-6.92 10.38-13.84c1.73-4.6 0-13.84 0-13.84s-2.32-1.73-6.92 0m307.94 24.22c-19.03 0-30 0-51.9 10.38s-79.58 51.9-79.58 51.9 46.71 17.3 58.82 17.3 6.33-11.52 13.84-17.3 17.3-13.84 31.14-17.3 35.74-6.92 51.9-3.46 35.19 16.71 44.98 24.22c9.8 7.5 10.97 11.52 13.84 20.76s-5.19 27.1 3.46 34.6 48.44 10.38 48.44 10.38 5.78-28.82 0-44.98-22.49-39.2-34.6-51.9-21.35-18.44-38.06-24.22-43.25-10.38-62.28-10.38m-3.46 76.12c-10.38.59-20.17 7.5-24.22 10.38-4.05 2.87-13.25 2.87 0 6.92s79.58 17.3 79.58 17.3-8.06-21.9-17.3-27.68-27.68-7.5-38.06-6.92m-38.06 55.36s-5.19 3.46-3.46 10.38 2.87 20.76 13.84 31.14 36.33 25.95 51.9 31.14 26.54 4.6 41.52 0 48.44-27.68 48.44-27.68-31.14-15.57-44.98-17.3-29.41 9.24-38.06 6.92-2.32-14.98-13.84-20.76-55.36-13.84-55.36-13.84"/><path d="M3.46 0 0 1079.52h1079.52v-294.1s-181.65-30.55-221.44-31.14-5.19 17.3-17.3 27.68-41.52 27.68-55.36 34.6-11.52 6.33-27.68 6.92-49.58 1.14-69.2-3.46-35.74-15.57-48.44-24.22-20.17-16.71-27.68-27.68-14.43-23.63-17.3-38.06 32.28-32.87 0-48.44-156.29-42.66-193.76-44.98-24.8 20.76-31.14 31.14-10.38 14.43-6.92 31.14 25.95 48.44 27.68 69.2-9.24 40.38-17.3 55.36-24.8 28.82-31.14 34.6-4.6 3.46-6.92 0-6.92-20.76-6.92-20.76l-44.98 24.22s6.92-62.87 17.3-86.5 35.19-39.2 44.98-55.36c9.8-16.16 13.84-41.52 13.84-41.52s-9.24 1.14-17.3 13.84-19.03 46.71-31.14 62.28-25.36 24.8-41.52 31.14-37.47 9.24-55.36 6.92-43.25-16.16-51.9-20.76-8.06 2.32 0-6.92 34.01-36.92 48.44-48.44 15.57-14.98 38.06-20.76 74.98-6.33 96.88-13.84 28.27-23.08 34.6-31.14 3.46-17.3 3.46-17.3-62.28-19.62-121.1-20.76-190.89 14.43-231.82 13.84-11.52-12.7-13.84-17.3-16.16-5.78 0-10.38 54.77-12.7 96.88-17.3 119.37 0 155.7-10.38 51.9-42.1 62.28-51.9 0-6.92 0-6.92-72.66 1.73-100.34-3.46-53.04-20.76-65.74-27.68-10.38-13.84-10.38-13.84 72.66 1.73 93.42 0 21.35-4.05 31.14-10.38c9.8-6.33 27.68-27.68 27.68-27.68s-39.79 23.08-65.74 27.68-73.8.59-89.96 0-6.33 8.65-6.92-3.46.59-50.76 3.46-69.2 6.33-28.82 13.84-41.52 0-16.71 31.14-34.6 127.43-60.55 155.7-72.66 13.84 0 13.84 0l3.46 83.04s19.03-12.7 48.44-13.84 84.18-2.32 128.02 6.92 99.2 31.73 134.94 48.44 55.95 32.28 79.58 51.9 45.57 44.4 62.28 65.74c16.71 21.35 26.54 36.92 38.06 62.28s25.95 65.15 31.14 89.96 1.14 46.71 0 58.82-6.92 10.38-6.92 13.84-13.25 4.05 6.92 6.92 91.1 9.8 114.18 10.38 24.22-6.92 24.22-6.92-47.3-16.16-62.28-27.68-23.08-24.22-27.68-41.52 0-62.28 0-62.28 32.28-1.14 41.52 0 13.84 6.92 13.84 6.92l17.3-65.74s32.28 28.27 41.52 41.52 12.11 22.49 13.84 38.06 2.87 35.19-3.46 55.36-34.6 65.74-34.6 65.74l51.9 3.46V0zM449.8 532.84s-6.92 4.05-10.38 13.84c-3.46 9.8-10.38 44.98-10.38 44.98s55.36 2.32 69.2 0 12.11-9.24 13.84-13.84 6.92-6.33-3.46-13.84-58.82-31.14-58.82-31.14m-69.2 6.92c-4.6 1.73-13.84 3.46-20.76 10.38s-20.76 31.14-20.76 31.14 10.97 2.32 17.3 0 15.57-9.24 20.76-13.84q7.78-6.92 10.38-13.84c1.73-4.6 0-13.84 0-13.84s-2.32-1.73-6.92 0m307.94 24.22c-18.44 0-30 0-51.9 10.38s-79.58 51.9-79.58 51.9 46.71 17.3 58.82 17.3 6.33-11.52 13.84-17.3 17.3-13.84 31.14-17.3 35.74-6.92 51.9-3.46 35.19 16.71 44.98 24.22c9.8 7.5 10.97 11.52 13.84 20.76s-5.19 27.1 3.46 34.6 48.44 10.38 48.44 10.38 5.78-28.82 0-44.98-21.9-39.2-34.6-51.9-24.8-18.44-41.52-24.22c-16.71-5.78-40.38-10.38-58.82-10.38m-3.46 76.12c-10.38.59-20.17 7.5-24.22 10.38-4.05 2.87-13.25 2.87 0 6.92s79.58 17.3 79.58 17.3-8.06-21.9-17.3-27.68-27.68-7.5-38.06-6.92m-38.06 55.36s-2.32 16.71 0 24.22 3.46 12.7 13.84 20.76 33.46 23.08 48.44 27.68 26.54 4.6 41.52 0 48.44-27.68 48.44-27.68-31.14-15.57-44.98-17.3-29.41 9.24-38.06 6.92-2.32-14.98-13.84-20.76-55.36-13.84-55.36-13.84"/></g></svg>