<svg xmlns="http://www.w3.org/2000/svg" width="1000" height="1000" viewBox="0 0 1000 1000"><path d="M0 0h23.81v23.81H0zm23.81 0h23.81v23.81H23.81zm23.81 0h23.81v23.81H47.62zm23.81 0h23.81v23.81H71.43zm23.81 0h23.81v23.81H95.24zm23.81 0h23.81v23.81h-23.81zm23.81 0h23.81v23.81h-23.81zm23.81 0h23.81v23.81h-23.81zm23.81 0h23.81v23.81h-23.81zm23.81 0h23.81v23.81h-23.81zm23.81 0h23.81v23.81H238.1zm23.8 0h23.81v23.81H261.9zm23.81 0h23.81v23.81h-23.81zm23.81 0h23.81v23.81h-23.81zm23.81 0h23.81v23.81h-23.81zm23.81 0h23.81v23.81h-23.81zm23.81 0h23.81v23.81h-23.81zm23.81 0h23.81v23.81h-23.81zm23.81 0h23.81v23.81h-23.81zm23.81 0h23.81v23.81h-23.81zm23.81 0H500v23.81h-23.81zM500 0h23.81v23.81H500zm23.81 0h23.81v23.81h-23.81zm23.81 0h23.81v23.81h-23.81zm23.81 0h23.81v23.81h-23.81zm23.81 0h23.81v23.81h-23.81zm23.81 0h23.81v23.81h-23.81zm23.81 0h23.81v23.81h-23.81zm23.81 0h23.81v23.81h-23.81zm23.81 0h23.81v23.81h-23.81zm23.81 0h23.81v23.81h-23.81zm23.81 0h23.81v23.81H738.1zm23.8 0h23.81v23.81H761.9zm23.81 0h23.81v23.81h-23.81zm23.81 0h23.81v23.81h-23.81zm23.81 0h23.81v23.81h-23.81zm23.81 0h23.81v23.81h-23.81zm23.81 0h23.81v23.81h-23.81zm23.81 0h23.81v23.81h-23.81zm23.81 0h23.81v23.81h-23.81zm23.81 0h23.81v23.81h-23.81zm23.81 0H1000v23.81h-23.81zM0 23.81h23.81v23.81H0zm23.81 0h23.81v23.81H23.81zm23.81 0h23.81v23.81H47.62zm23.81 0h23.81v23.81H71.43zm23.81 0h23.81v23.81H95.24zm23.81 0h23.81v23.81h-23.81zm23.81 0h23.81v23.81h-23.81zm23.81 0h23.81v23.81h-23.81zm23.81 0h23.81v23.81h-23.81zm23.81 0h23.81v23.81h-23.81zm23.81 0h23.81v23.81H238.1zm23.8 0h23.81v23.81H261.9zm23.81 0h23.81v23.81h-23.81zm23.81 0h23.81v23.81h-23.81zm23.81 0h23.81v23.81h-23.81zm23.81 0h23.81v23.81h-23.81zm23.81 0h23.81v23.81h-23.81zm23.81 0h23.81v23.81h-23.81zm23.81 0h23.81v23.81h-23.81zm23.81 0h23.81v23.81h-23.81zm23.81 0H500v23.81h-23.81zm23.81 0h23.81v23.81H500zm23.81 0h23.81v23.81h-23.81zm23.81 0h23.81v23.81h-23.81zm23.81 0h23.81v23.81h-23.81zm23.81 0h23.81v23.81h-23.81zm23.81 0h23.81v23.81h-23.81zm23.81 0h23.81v23.81h-23.81zm23.81 0h23.81v23.81h-23.81zm23.81 0h23.81v23.81h-23.81zm23.81 0h23.81v23.81h-23.81zm23.81 0h23.81v23.81H738.1zm23.8 0h23.81v23.81H761.9zm23.81 0h23.81v23.81h-23.81zm23.81 0h23.81v23.81h-23.81zm23.81 0h23.81v23.81h-23.81zm23.81 0h23.81v23.81h-23.81zm23.81 0h23.81v23.81h-23.81zm23.81 0h23.81v23.81h-23.81zm23.81 0h23.81v23.81h-23.81zm23.81 0h23.81v23.81h-23.81zm23.81 0H1000v23.81h-23.81zM0 47.62h23.81v23.81H0zm23.81 0h23.81v23.81H23.81zm23.81 0h23.81v23.81H47.62zm23.81 0h23.81v23.81H71.43zm23.81 0h23.81v23.81H95.24zm23.81 0h23.81v23.81h-23.81zm23.81 0h23.81v23.81h-23.81zm23.81 0h23.81v23.81h-23.81zm23.81 0h23.81v23.81h-23.81zm23.81 0h23.81v23.81h-23.81zm23.81 0h23.81v23.81H238.1zm23.8 0h23.81v23.81H261.9zm23.81 0h23.81v23.81h-23.81zm23.81 0h23.81v23.81h-23.81zm23.81 0h23.81v23.81h-23.81zm23.81 0h23.81v23.81h-23.81zm23.81 0h23.81v23.81h-23.81zm23.81 0h23.81v23.81h-23.81zm23.81 0h23.81v23.81h-23.81zm23.81 0h23.81v23.81h-23.81zm23.81 0H500v23.81h-23.81zm23.81 0h23.81v23.81H500zm23.81 0h23.81v23.81h-23.81zm23.81 0h23.81v23.81h-23.81zm23.81 0h23.81v23.81h-23.81zm23.81 0h23.81v23.81h-23.81zm23.81 0h23.81v23.81h-23.81zm23.81 0h23.81v23.81h-23.81zm23.81 0h23.81v23.81h-23.81zm23.81 0h23.81v23.81h-23.81zm23.81 0h23.81v23.81h-23.81zm23.81 0h23.81v23.81H738.1zm23.8 0h23.81v23.81H761.9zm23.81 0h23.81v23.81h-23.81zm23.81 0h23.81v23.81h-23.81zm23.81 0h23.81v23.81h-23.81zm23.81 0h23.81v23.81h-23.81zm23.81 0h23.81v23.81h-23.81zm23.81 0h23.81v23.81h-23.81zm23.81 0h23.81v23.81h-23.81zm23.81 0h23.81v23.81h-23.81zm23.81 0H1000v23.81h-23.81zM0 71.43h23.81v23.81H0zm23.81 0h23.81v23.81H23.81zm23.81 0h23.81v23.81H47.62zm23.81 0h23.81v23.81H71.43zm23.81 0h23.81v23.81H95.24zm23.81 0h23.81v23.81h-23.81zm23.81 0h23.81v23.81h-23.81zm23.81 0h23.81v23.81h-23.81zm23.81 0h23.81v23.81h-23.81zm23.81 0h23.81v23.81h-23.81zm23.81 0h23.81v23.81H238.1zm23.8 0h23.81v23.81H261.9zm23.81 0h23.81v23.81h-23.81zm23.81 0h23.81v23.81h-23.81zm23.81 0h23.81v23.81h-23.81zm23.81 0h23.81v23.81h-23.81zm23.81 0h23.81v23.81h-23.81zm23.81 0h23.81v23.81h-23.81zm23.81 0h23.81v23.81h-23.81zm23.81 0h23.81v23.81h-23.81zm23.81 0H500v23.81h-23.81zm23.81 0h23.81v23.81H500zm23.81 0h23.81v23.81h-23.81zm23.81 0h23.81v23.81h-23.81zm23.81 0h23.81v23.81h-23.81zm23.81 0h23.81v23.81h-23.81zm23.81 0h23.81v23.81h-23.81zm23.81 0h23.81v23.81h-23.81zm23.81 0h23.81v23.81h-23.81zm23.81 0h23.81v23.81h-23.81zm23.81 0h23.81v23.81h-23.81zm23.81 0h23.81v23.81H738.1zm23.8 0h23.81v23.81H761.9zm23.81 0h23.81v23.81h-23.81zm23.81 0h23.81v23.81h-23.81zm23.81 0h23.81v23.81h-23.81zm23.81 0h23.81v23.81h-23.81zm23.81 0h23.81v23.81h-23.81zm23.81 0h23.81v23.81h-23.81zm23.81 0h23.81v23.81h-23.81zm23.81 0h23.81v23.81h-23.81zm23.81 0H1000v23.81h-23.81zM0 95.24h23.81v23.81H0zm23.81 0h23.81v23.81H23.81zm23.81 0h23.81v23.81H47.62zm23.81 0h23.81v23.81H71.43zm23.81 0h23.81v23.81H95.24zm23.81 0h23.81v23.81h-23.81zm23.81 0h23.81v23.81h-23.81zm23.81 0h23.81v23.81h-23.81zm23.81 0h23.81v23.81h-23.81zm23.81 0h23.81v23.81h-23.81zm23.81 0h23.81v23.81H238.1zm23.8 0h23.81v23.81H261.9zm23.81 0h23.81v23.81h-23.81zm23.81 0h23.81v23.81h-23.81zm23.81 0h23.81v23.81h-23.81zm23.81 0h23.81v23.81h-23.81zm23.81 0h23.81v23.81h-23.81zm23.81 0h23.81v23.81h-23.81zm23.81 0h23.81v23.81h-23.81zm23.81 0h23.81v23.81h-23.81zm23.81 0H500v23.81h-23.81zm23.81 0h23.81v23.81H500zm23.81 0h23.81v23.81h-23.81zm23.81 0h23.81v23.81h-23.81zm23.81 0h23.81v23.81h-23.81zm23.81 0h23.81v23.81h-23.81zm23.81 0h23.81v23.81h-23.81zm23.81 0h23.81v23.81h-23.81zm23.81 0h23.81v23.81h-23.81zm23.81 0h23.81v23.81h-23.81zm23.81 0h23.81v23.81h-23.81zm23.81 0h23.81v23.81H738.1zm23.8 0h23.81v23.81H761.9zm23.81 0h23.81v23.81h-23.81zm23.81 0h23.81v23.81h-23.81zm23.81 0h23.81v23.81h-23.81zm23.81 0h23.81v23.81h-23.81zm23.81 0h23.81v23.81h-23.81zm23.81 0h23.81v23.81h-23.81zm23.81 0h23.81v23.81h-23.81zm23.81 0h23.81v23.81h-23.81zm23.81 0H1000v23.81h-23.81zM0 119.05h23.81v23.81H0zm23.81 0h23.81v23.81H23.81zm23.81 0h23.81v23.81H47.62zm23.81 0h23.81v23.81H71.43zm23.81 0h23.81v23.81H95.24zm23.81 0h23.81v23.81h-23.81zm23.81 0h23.81v23.81h-23.81zm23.81 0h23.81v23.81h-23.81zm23.81 0h23.81v23.81h-23.81zm23.81 0h23.81v23.81h-23.81zm23.81 0h23.81v23.81H238.1zm23.8 0h23.81v23.81H261.9zm23.81 0h23.81v23.81h-23.81zm23.81 0h23.81v23.81h-23.81zm23.81 0h23.81v23.81h-23.81zm23.81 0h23.81v23.81h-23.81zm23.81 0h23.81v23.81h-23.81zm23.81 0h23.81v23.81h-23.81zm23.81 0h23.81v23.81h-23.81zm23.81 0h23.81v23.81h-23.81zm23.81 0H500v23.81h-23.81zm23.81 0h23.81v23.81H500zm23.81 0h23.81v23.81h-23.81zm23.81 0h23.81v23.81h-23.81zm23.81 0h23.81v23.81h-23.81zm23.81 0h23.81v23.81h-23.81zm23.81 0h23.81v23.81h-23.81zm23.81 0h23.81v23.81h-23.81zm23.81 0h23.81v23.81h-23.81zm23.81 0h23.81v23.81h-23.81zm23.81 0h23.81v23.81h-23.81zm23.81 0h23.81v23.81H738.1zm23.8 0h23.81v23.81H761.9zm23.81 0h23.81v23.81h-23.81zm23.81 0h23.81v23.81h-23.81zm23.81 0h23.81v23.81h-23.81zm23.81 0h23.81v23.81h-23.81zm23.81 0h23.81v23.81h-23.81zm23.81 0h23.81v23.81h-23.81zm23.81 0h23.81v23.81h-23.81zm23.81 0h23.81v23.81h-23.81zm23.81 0H1000v23.81h-23.81zM0 142.86h23.81v23.81H0zm23.81 0h23.81v23.81H23.81zm23.81 0h23.81v23.81H47.62zm23.81 0h23.81v23.81H71.43zm23.81 0h23.81v23.81H95.24zm23.81 0h23.81v23.81h-23.81zm23.81 0h23.81v23.81h-23.81zm23.81 0h23.81v23.81h-23.81zm23.81 0h23.81v23.81h-23.81zm23.81 0h23.81v23.81h-23.81zm23.81 0h23.81v23.81H238.1zm23.8 0h23.81v23.81H261.9zm23.81 0h23.81v23.81h-23.81zm23.81 0h23.81v23.81h-23.81zm23.81 0h23.81v23.81h-23.81zm23.81 0h23.81v23.81h-23.81zm23.81 0h23.81v23.81h-23.81zm23.81 0h23.81v23.81h-23.81zm23.81 0h23.81v23.81h-23.81zm23.81 0h23.81v23.81h-23.81zm23.81 0H500v23.81h-23.81zm23.81 0h23.81v23.81H500zm23.81 0h23.81v23.81h-23.81zm23.81 0h23.81v23.81h-23.81zm23.81 0h23.81v23.81h-23.81zm23.81 0h23.81v23.81h-23.81zm23.81 0h23.81v23.81h-23.81zm23.81 0h23.81v23.81h-23.81zm23.81 0h23.81v23.81h-23.81zm23.81 0h23.81v23.81h-23.81zm23.81 0h23.81v23.81h-23.81zm23.81 0h23.81v23.81H738.1zm23.8 0h23.81v23.81H761.9zm23.81 0h23.81v23.81h-23.81zm23.81 0h23.81v23.81h-23.81zm23.81 0h23.81v23.81h-23.81zm23.81 0h23.81v23.81h-23.81zm23.81 0h23.81v23.81h-23.81zm23.81 0h23.81v23.81h-23.81zm23.81 0h23.81v23.81h-23.81zm23.81 0h23.81v23.81h-23.81zm23.81 0H1000v23.81h-23.81zM0 166.67h23.81v23.81H0zm23.81 0h23.81v23.81H23.81zm23.81 0h23.81v23.81H47.62zm23.81 0h23.81v23.81H71.43zm23.81 0h23.81v23.81H95.24zm23.81 0h23.81v23.81h-23.81zm23.81 0h23.81v23.81h-23.81zm23.81 0h23.81v23.81h-23.81zm23.81 0h23.81v23.81h-23.81zm23.81 0h23.81v23.81h-23.81zm23.81 0h23.81v23.81H238.1zm23.8 0h23.81v23.81H261.9zm23.81 0h23.81v23.81h-23.81zm23.81 0h23.81v23.81h-23.81zm23.81 0h23.81v23.81h-23.81zm23.81 0h23.81v23.81h-23.81zm23.81 0h23.81v23.81h-23.81zm23.81 0h23.81v23.81h-23.81zm23.81 0h23.81v23.81h-23.81zm23.81 0h23.81v23.81h-23.81zm23.81 0H500v23.81h-23.81zm23.81 0h23.81v23.81H500zm23.81 0h23.81v23.81h-23.81zm23.81 0h23.81v23.81h-23.81zm23.81 0h23.81v23.81h-23.81zm23.81 0h23.81v23.81h-23.81zm23.81 0h23.81v23.81h-23.81zm23.81 0h23.81v23.81h-23.81zm23.81 0h23.81v23.81h-23.81zm23.81 0h23.81v23.81h-23.81zm23.81 0h23.81v23.81h-23.81zm23.81 0h23.81v23.81H738.1zm23.8 0h23.81v23.81H761.9zm23.81 0h23.81v23.81h-23.81zm23.81 0h23.81v23.81h-23.81zm23.81 0h23.81v23.81h-23.81zm23.81 0h23.81v23.81h-23.81zm23.81 0h23.81v23.81h-23.81zm23.81 0h23.81v23.81h-23.81zm23.81 0h23.81v23.81h-23.81zm23.81 0h23.81v23.81h-23.81zm23.81 0H1000v23.81h-23.81zM0 190.48h23.81v23.81H0zm23.81 0h23.81v23.81H23.81zm23.81 0h23.81v23.81H47.62zm23.81 0h23.81v23.81H71.43zm23.81 0h23.81v23.81H95.24zm23.81 0h23.81v23.81h-23.81zm23.81 0h23.81v23.81h-23.81zm23.81 0h23.81v23.81h-23.81zm23.81 0h23.81v23.81h-23.81zm23.81 0h23.81v23.81h-23.81zm23.81 0h23.81v23.81H238.1zm23.8 0h23.81v23.81H261.9zm23.81 0h23.81v23.81h-23.81zm23.81 0h23.81v23.81h-23.81zm23.81 0h23.81v23.81h-23.81zm23.81 0h23.81v23.81h-23.81zm23.81 0h23.81v23.81h-23.81zm23.81 0h23.81v23.81h-23.81zm23.81 0h23.81v23.81h-23.81zm23.81 0h23.81v23.81h-23.81zm23.81 0H500v23.81h-23.81zm23.81 0h23.81v23.81H500zm23.81 0h23.81v23.81h-23.81zm23.81 0h23.81v23.81h-23.81zm23.81 0h23.81v23.81h-23.81zm23.81 0h23.81v23.81h-23.81zm23.81 0h23.81v23.81h-23.81zm23.81 0h23.81v23.81h-23.81zm23.81 0h23.81v23.81h-23.81zm23.81 0h23.81v23.81h-23.81zm23.81 0h23.81v23.81h-23.81zm23.81 0h23.81v23.81H738.1zm23.8 0h23.81v23.81H761.9zm23.81 0h23.81v23.81h-23.81zm23.81 0h23.81v23.81h-23.81zm23.81 0h23.81v23.81h-23.81zm23.81 0h23.81v23.81h-23.81zm23.81 0h23.81v23.81h-23.81zm23.81 0h23.81v23.81h-23.81zm23.81 0h23.81v23.81h-23.81zm23.81 0h23.81v23.81h-23.81zm23.81 0H1000v23.81h-23.81zM0 214.29h23.81v23.81H0zm23.81 0h23.81v23.81H23.81zm23.81 0h23.81v23.81H47.62zm23.81 0h23.81v23.81H71.43zm23.81 0h23.81v23.81H95.24zm23.81 0h23.81v23.81h-23.81zm23.81 0h23.81v23.81h-23.81zm23.81 0h23.81v23.81h-23.81zm23.81 0h23.81v23.81h-23.81zm23.81 0h23.81v23.81h-23.81zm23.81 0h23.81v23.81H238.1zm23.8 0h23.81v23.81H261.9zm71.43 0h23.81v23.81h-23.81zm23.81 0h23.81v23.81h-23.81zm23.81 0h23.81v23.81h-23.81zm23.81 0h23.81v23.81h-23.81zm23.81 0h23.81v23.81h-23.81zm23.81 0h23.81v23.81h-23.81zm23.81 0H500v23.81h-23.81zm23.81 0h23.81v23.81H500zm23.81 0h23.81v23.81h-23.81zm23.81 0h23.81v23.81h-23.81zm23.81 0h23.81v23.81h-23.81zm23.81 0h23.81v23.81h-23.81zm23.81 0h23.81v23.81h-23.81zm23.81 0h23.81v23.81h-23.81zm23.81 0h23.81v23.81h-23.81zm23.81 0h23.81v23.81h-23.81zm23.81 0h23.81v23.81h-23.81zm23.81 0h23.81v23.81H738.1zm23.8 0h23.81v23.81H761.9zm23.81 0h23.81v23.81h-23.81zm23.81 0h23.81v23.81h-23.81zm23.81 0h23.81v23.81h-23.81zm23.81 0h23.81v23.81h-23.81zm23.81 0h23.81v23.81h-23.81zm23.81 0h23.81v23.81h-23.81zm23.81 0h23.81v23.81h-23.81zm23.81 0h23.81v23.81h-23.81zm23.81 0H1000v23.81h-23.81zM0 238.1h23.81v23.81H0zm23.81 0h23.81v23.81H23.81zm23.81 0h23.81v23.81H47.62zm23.81 0h23.81v23.81H71.43zm23.81 0h23.81v23.81H95.24zm23.81 0h23.81v23.81h-23.81zm23.81 0h23.81v23.81h-23.81zm23.81 0h23.81v23.81h-23.81zm23.81 0h23.81v23.81h-23.81zm23.81 0h23.81v23.81h-23.81zm142.85 0h23.81v23.81h-23.81zm23.81 0h23.81v23.81h-23.81zm23.81 0h23.81v23.81h-23.81zm23.81 0h23.81v23.81h-23.81zm23.81 0h23.81v23.81h-23.81zm23.81 0H500v23.81h-23.81zm23.81 0h23.81v23.81H500zm23.81 0h23.81v23.81h-23.81zm23.81 0h23.81v23.81h-23.81zm23.81 0h23.81v23.81h-23.81zm23.81 0h23.81v23.81h-23.81zm23.81 0h23.81v23.81h-23.81zm23.81 0h23.81v23.81h-23.81zm23.81 0h23.81v23.81h-23.81zm23.81 0h23.81v23.81h-23.81zm23.81 0h23.81v23.81h-23.81zm23.81 0h23.81v23.81H738.1zm23.8 0h23.81v23.81H761.9zm23.81 0h23.81v23.81h-23.81zm23.81 0h23.81v23.81h-23.81zm23.81 0h23.81v23.81h-23.81zm23.81 0h23.81v23.81h-23.81zm23.81 0h23.81v23.81h-23.81zm23.81 0h23.81v23.81h-23.81zm23.81 0h23.81v23.81h-23.81zm23.81 0h23.81v23.81h-23.81zm23.81 0H1000v23.81h-23.81zM0 261.9h23.81v23.81H0zm23.81 0h23.81v23.81H23.81zm23.81 0h23.81v23.81H47.62zm23.81 0h23.81v23.81H71.43zm23.81 0h23.81v23.81H95.24zm23.81 0h23.81v23.81h-23.81zm23.81 0h23.81v23.81h-23.81zm23.81 0h23.81v23.81h-23.81zm190.47 0h23.81v23.81h-23.81zm23.81 0h23.81v23.81h-23.81zm23.81 0h23.81v23.81h-23.81zm23.81 0h23.81v23.81h-23.81zm23.81 0h23.81v23.81h-23.81zm23.81 0H500v23.81h-23.81zm23.81 0h23.81v23.81H500zm23.81 0h23.81v23.81h-23.81zm23.81 0h23.81v23.81h-23.81zm23.81 0h23.81v23.81h-23.81zm23.81 0h23.81v23.81h-23.81zm23.81 0h23.81v23.81h-23.81zm23.81 0h23.81v23.81h-23.81zm23.81 0h23.81v23.81h-23.81zm23.81 0h23.81v23.81h-23.81zm23.81 0h23.81v23.81h-23.81zm23.81 0h23.81v23.81H738.1zm23.8 0h23.81v23.81H761.9zm23.81 0h23.81v23.81h-23.81zm23.81 0h23.81v23.81h-23.81zm23.81 0h23.81v23.81h-23.81zm23.81 0h23.81v23.81h-23.81zm23.81 0h23.81v23.81h-23.81zm23.81 0h23.81v23.81h-23.81zm23.81 0h23.81v23.81h-23.81zm23.81 0h23.81v23.81h-23.81zm23.81 0H1000v23.81h-23.81zM0 285.71h23.81v23.81H0zm23.81 0h23.81v23.81H23.81zm23.81 0h23.81v23.81H47.62zm23.81 0h23.81v23.81H71.43zm23.81 0h23.81v23.81H95.24zm23.81 0h23.81v23.81h-23.81zm23.81 0h23.81v23.81h-23.81zm428.57 0h23.81v23.81h-23.81zm23.81 0h23.81v23.81h-23.81zm23.81 0h23.81v23.81h-23.81zm23.81 0h23.81v23.81h-23.81zm23.81 0h23.81v23.81h-23.81zm23.81 0h23.81v23.81h-23.81zm23.81 0h23.81v23.81h-23.81zm23.81 0h23.81v23.81H738.1zm23.8 0h23.81v23.81H761.9zm23.81 0h23.81v23.81h-23.81zm23.81 0h23.81v23.81h-23.81zm23.81 0h23.81v23.81h-23.81zm23.81 0h23.81v23.81h-23.81zm23.81 0h23.81v23.81h-23.81zm23.81 0h23.81v23.81h-23.81zm23.81 0h23.81v23.81h-23.81zm23.81 0h23.81v23.81h-23.81zm23.81 0H1000v23.81h-23.81zM0 309.52h23.81v23.81H0zm23.81 0h23.81v23.81H23.81zm23.81 0h23.81v23.81H47.62zm23.81 0h23.81v23.81H71.43zm23.81 0h23.81v23.81H95.24zm23.81 0h23.81v23.81h-23.81zm500 0h23.81v23.81h-23.81zm23.81 0h23.81v23.81h-23.81zm23.81 0h23.81v23.81h-23.81zm23.81 0h23.81v23.81h-23.81zm23.81 0h23.81v23.81h-23.81zm23.81 0h23.81v23.81H738.1zm23.8 0h23.81v23.81H761.9zm23.81 0h23.81v23.81h-23.81zm23.81 0h23.81v23.81h-23.81zm23.81 0h23.81v23.81h-23.81zm23.81 0h23.81v23.81h-23.81zm23.81 0h23.81v23.81h-23.81zm23.81 0h23.81v23.81h-23.81zm23.81 0h23.81v23.81h-23.81zm23.81 0h23.81v23.81h-23.81zm23.81 0H1000v23.81h-23.81zM0 333.33h23.81v23.81H0zm23.81 0h23.81v23.81H23.81zm23.81 0h23.81v23.81H47.62zm23.81 0h23.81v23.81H71.43zm23.81 0h23.81v23.81H95.24zm23.81 0h23.81v23.81h-23.81zm547.62 0h23.81v23.81h-23.81zm23.81 0h23.81v23.81h-23.81zm23.81 0h23.81v23.81h-23.81zm23.81 0h23.81v23.81H738.1zm23.8 0h23.81v23.81H761.9zm23.81 0h23.81v23.81h-23.81zm23.81 0h23.81v23.81h-23.81zm23.81 0h23.81v23.81h-23.81zm23.81 0h23.81v23.81h-23.81zm23.81 0h23.81v23.81h-23.81zm23.81 0h23.81v23.81h-23.81zm23.81 0h23.81v23.81h-23.81zm23.81 0h23.81v23.81h-23.81zm23.81 0H1000v23.81h-23.81zM0 357.14h23.81v23.81H0zm23.81 0h23.81v23.81H23.81zm23.81 0h23.81v23.81H47.62zm23.81 0h23.81v23.81H71.43zm23.81 0h23.81v23.81H95.24zm23.81 0h23.81v23.81h-23.81zm571.43 0h23.81v23.81h-23.81zm23.81 0h23.81v23.81h-23.81zm23.81 0h23.81v23.81H738.1zm23.8 0h23.81v23.81H761.9zm23.81 0h23.81v23.81h-23.81zm23.81 0h23.81v23.81h-23.81zm23.81 0h23.81v23.81h-23.81zm23.81 0h23.81v23.81h-23.81zm23.81 0h23.81v23.81h-23.81zm23.81 0h23.81v23.81h-23.81zm23.81 0h23.81v23.81h-23.81zm23.81 0h23.81v23.81h-23.81zm23.81 0H1000v23.81h-23.81zM0 380.95h23.81v23.81H0zm23.81 0h23.81v23.81H23.81zm23.81 0h23.81v23.81H47.62zm23.81 0h23.81v23.81H71.43zm23.81 0h23.81v23.81H95.24zm23.81 0h23.81v23.81h-23.81zm595.24 0h23.81v23.81h-23.81zm23.81 0h23.81v23.81H738.1zm23.8 0h23.81v23.81H761.9zm23.81 0h23.81v23.81h-23.81zm23.81 0h23.81v23.81h-23.81zm23.81 0h23.81v23.81h-23.81zm23.81 0h23.81v23.81h-23.81zm23.81 0h23.81v23.81h-23.81zm23.81 0h23.81v23.81h-23.81zm23.81 0h23.81v23.81h-23.81zm23.81 0h23.81v23.81h-23.81zm23.81 0H1000v23.81h-23.81zM0 404.76h23.81v23.81H0zm23.81 0h23.81v23.81H23.81zm23.81 0h23.81v23.81H47.62zm23.81 0h23.81v23.81H71.43zm23.81 0h23.81v23.81H95.24zm23.81 0h23.81v23.81h-23.81zm619.05 0h23.81v23.81H738.1zm23.8 0h23.81v23.81H761.9zm23.81 0h23.81v23.81h-23.81zm23.81 0h23.81v23.81h-23.81zm23.81 0h23.81v23.81h-23.81zm23.81 0h23.81v23.81h-23.81zm23.81 0h23.81v23.81h-23.81zm23.81 0h23.81v23.81h-23.81zm23.81 0h23.81v23.81h-23.81zm23.81 0h23.81v23.81h-23.81zm23.81 0H1000v23.81h-23.81zM0 428.57h23.81v23.81H0zm23.81 0h23.81v23.81H23.81zm23.81 0h23.81v23.81H47.62zm23.81 0h23.81v23.81H71.43zm23.81 0h23.81v23.81H95.24zm23.81 0h23.81v23.81h-23.81zm23.81 0h23.81v23.81h-23.81zm619.04 0h23.81v23.81H761.9zm23.81 0h23.81v23.81h-23.81zm23.81 0h23.81v23.81h-23.81zm23.81 0h23.81v23.81h-23.81zm23.81 0h23.81v23.81h-23.81zm23.81 0h23.81v23.81h-23.81zm23.81 0h23.81v23.81h-23.81zm23.81 0h23.81v23.81h-23.81zm23.81 0h23.81v23.81h-23.81zm23.81 0H1000v23.81h-23.81zM0 452.38h23.81v23.81H0zm23.81 0h23.81v23.81H23.81zm23.81 0h23.81v23.81H47.62zm23.81 0h23.81v23.81H71.43zm23.81 0h23.81v23.81H95.24zm23.81 0h23.81v23.81h-23.81zm23.81 0h23.81v23.81h-23.81zm23.81 0h23.81v23.81h-23.81zm619.04 0h23.81v23.81h-23.81zm23.81 0h23.81v23.81h-23.81zm23.81 0h23.81v23.81h-23.81zm23.81 0h23.81v23.81h-23.81zm23.81 0h23.81v23.81h-23.81zm23.81 0h23.81v23.81h-23.81zm23.81 0h23.81v23.81h-23.81zm23.81 0h23.81v23.81h-23.81zm23.81 0H1000v23.81h-23.81zM0 476.19h23.81V500H0zm23.81 0h23.81V500H23.81zm23.81 0h23.81V500H47.62zm23.81 0h23.81V500H71.43zm23.81 0h23.81V500H95.24zm23.81 0h23.81V500h-23.81zm23.81 0h23.81V500h-23.81zm23.81 0h23.81V500h-23.81zm23.81 0h23.81V500h-23.81zm23.81 0h23.81V500h-23.81zm23.81 0h23.81V500H238.1zm23.8 0h23.81V500H261.9zm523.81 0h23.81V500h-23.81zm23.81 0h23.81V500h-23.81zm23.81 0h23.81V500h-23.81zm23.81 0h23.81V500h-23.81zm23.81 0h23.81V500h-23.81zm23.81 0h23.81V500h-23.81zm23.81 0h23.81V500h-23.81zm23.81 0h23.81V500h-23.81zm23.81 0H1000V500h-23.81zM0 500h23.81v23.81H0zm23.81 0h23.81v23.81H23.81zm23.81 0h23.81v23.81H47.62zm23.81 0h23.81v23.81H71.43zm23.81 0h23.81v23.81H95.24zm23.81 0h23.81v23.81h-23.81zm23.81 0h23.81v23.81h-23.81zm23.81 0h23.81v23.81h-23.81zm23.81 0h23.81v23.81h-23.81zm23.81 0h23.81v23.81h-23.81zm23.81 0h23.81v23.81H238.1zm95.23 0h23.81v23.81h-23.81zm95.24 0h23.81v23.81h-23.81zm380.95 0h23.81v23.81h-23.81zm23.81 0h23.81v23.81h-23.81zm23.81 0h23.81v23.81h-23.81zm23.81 0h23.81v23.81h-23.81zm23.81 0h23.81v23.81h-23.81zm47.62 0h23.81v23.81h-23.81zm23.81 0H1000v23.81h-23.81zM0 523.81h23.81v23.81H0zm23.81 0h23.81v23.81H23.81zm23.81 0h23.81v23.81H47.62zm23.81 0h23.81v23.81H71.43zm333.33 0h23.81v23.81h-23.81zm23.81 0h23.81v23.81h-23.81zm166.67 0h23.81v23.81h-23.81zm23.81 0h23.81v23.81h-23.81zm23.81 0h23.81v23.81h-23.81zm23.81 0h23.81v23.81h-23.81zm142.85 0h23.81v23.81h-23.81zm23.81 0h23.81v23.81h-23.81zm23.81 0h23.81v23.81h-23.81zm23.81 0h23.81v23.81h-23.81zm23.81 0h23.81v23.81h-23.81zm71.43 0H1000v23.81h-23.81zM0 547.62h23.81v23.81H0zm547.62 0h23.81v23.81h-23.81zm23.81 0h23.81v23.81h-23.81zm95.24 0h23.81v23.81h-23.81zm23.81 0h23.81v23.81h-23.81zm23.81 0h23.81v23.81h-23.81zm119.04 0h23.81v23.81h-23.81zm142.86 0H1000v23.81h-23.81zM0 571.43h23.81v23.81H0zm142.86 0h23.81v23.81h-23.81zm23.81 0h23.81v23.81h-23.81zm23.81 0h23.81v23.81h-23.81zm23.81 0h23.81v23.81h-23.81zm23.81 0h23.81v23.81H238.1zm23.8 0h23.81v23.81H261.9zm452.39 0h23.81v23.81h-23.81zm23.81 0h23.81v23.81H738.1zm95.23 0h23.81v23.81h-23.81zm142.86 0H1000v23.81h-23.81zM0 595.24h23.81v23.81H0zm23.81 0h23.81v23.81H23.81zm23.81 0h23.81v23.81H47.62zm23.81 0h23.81v23.81H71.43zm23.81 0h23.81v23.81H95.24zm23.81 0h23.81v23.81h-23.81zm23.81 0h23.81v23.81h-23.81zm23.81 0h23.81v23.81h-23.81zm23.81 0h23.81v23.81h-23.81zm23.81 0h23.81v23.81h-23.81zm23.81 0h23.81v23.81H238.1zm23.8 0h23.81v23.81H261.9zm23.81 0h23.81v23.81h-23.81zm23.81 0h23.81v23.81h-23.81zm47.62 0h23.81v23.81h-23.81zm23.81 0h23.81v23.81h-23.81zm23.81 0h23.81v23.81h-23.81zm238.1 0h23.81v23.81h-23.81zm71.43 0h23.81v23.81h-23.81zm23.81 0h23.81v23.81H738.1zm95.23 0h23.81v23.81h-23.81zm23.81 0h23.81v23.81h-23.81zm119.05 0H1000v23.81h-23.81zM0 619.05h23.81v23.81H0zm23.81 0h23.81v23.81H23.81zm23.81 0h23.81v23.81H47.62zm23.81 0h23.81v23.81H71.43zm23.81 0h23.81v23.81H95.24zm23.81 0h23.81v23.81h-23.81zm23.81 0h23.81v23.81h-23.81zm23.81 0h23.81v23.81h-23.81zm23.81 0h23.81v23.81h-23.81zm23.81 0h23.81v23.81h-23.81zm23.81 0h23.81v23.81H238.1zm23.8 0h23.81v23.81H261.9zm23.81 0h23.81v23.81h-23.81zm23.81 0h23.81v23.81h-23.81zm23.81 0h23.81v23.81h-23.81zm23.81 0h23.81v23.81h-23.81zm23.81 0h23.81v23.81h-23.81zm23.81 0h23.81v23.81h-23.81zm23.81 0h23.81v23.81h-23.81zm23.81 0h23.81v23.81h-23.81zm23.81 0H500v23.81h-23.81zm23.81 0h23.81v23.81H500zm238.1 0h23.81v23.81H738.1zm95.23 0h23.81v23.81h-23.81zm23.81 0h23.81v23.81h-23.81zm119.05 0H1000v23.81h-23.81zM0 642.86h23.81v23.81H0zm23.81 0h23.81v23.81H23.81zm23.81 0h23.81v23.81H47.62zm23.81 0h23.81v23.81H71.43zm23.81 0h23.81v23.81H95.24zm23.81 0h23.81v23.81h-23.81zm23.81 0h23.81v23.81h-23.81zm23.81 0h23.81v23.81h-23.81zm23.81 0h23.81v23.81h-23.81zm142.85 0h23.81v23.81h-23.81zm23.81 0h23.81v23.81h-23.81zm23.81 0h23.81v23.81h-23.81zm23.81 0h23.81v23.81h-23.81zm23.81 0h23.81v23.81h-23.81zm23.81 0h23.81v23.81h-23.81zm23.81 0H500v23.81h-23.81zm23.81 0h23.81v23.81H500zm23.81 0h23.81v23.81h-23.81zm452.38 0H1000v23.81h-23.81zM0 666.67h23.81v23.81H0zm23.81 0h23.81v23.81H23.81zm23.81 0h23.81v23.81H47.62zm23.81 0h23.81v23.81H71.43zm23.81 0h23.81v23.81H95.24zm23.81 0h23.81v23.81h-23.81zm23.81 0h23.81v23.81h-23.81zm214.28 0h23.81v23.81h-23.81zm23.81 0h23.81v23.81h-23.81zm23.81 0h23.81v23.81h-23.81zm23.81 0h23.81v23.81h-23.81zm23.81 0h23.81v23.81h-23.81zm23.81 0H500v23.81h-23.81zm23.81 0h23.81v23.81H500zm23.81 0h23.81v23.81h-23.81zm95.24 0h23.81v23.81h-23.81zm23.81 0h23.81v23.81h-23.81zM0 690.48h23.81v23.81H0zm23.81 0h23.81v23.81H23.81zm23.81 0h23.81v23.81H47.62zm23.81 0h23.81v23.81H71.43zm23.81 0h23.81v23.81H95.24zm23.81 0h23.81v23.81h-23.81zm23.81 0h23.81v23.81h-23.81zm214.28 0h23.81v23.81h-23.81zm23.81 0h23.81v23.81h-23.81zm23.81 0h23.81v23.81h-23.81zm23.81 0h23.81v23.81h-23.81zm23.81 0h23.81v23.81h-23.81zm23.81 0H500v23.81h-23.81zm23.81 0h23.81v23.81H500zm23.81 0h23.81v23.81h-23.81zm142.86 0h23.81v23.81h-23.81zM0 714.29h23.81v23.81H0zm23.81 0h23.81v23.81H23.81zm23.81 0h23.81v23.81H47.62zm23.81 0h23.81v23.81H71.43zm23.81 0h23.81v23.81H95.24zm23.81 0h23.81v23.81h-23.81zm23.81 0h23.81v23.81h-23.81zm23.81 0h23.81v23.81h-23.81zm95.23 0h23.81v23.81H261.9zm95.24 0h23.81v23.81h-23.81zm23.81 0h23.81v23.81h-23.81zm23.81 0h23.81v23.81h-23.81zm23.81 0h23.81v23.81h-23.81zm23.81 0h23.81v23.81h-23.81zm23.81 0H500v23.81h-23.81zm23.81 0h23.81v23.81H500zm23.81 0h23.81v23.81h-23.81zm23.81 0h23.81v23.81h-23.81zm238.09 0h23.81v23.81h-23.81zm23.81 0h23.81v23.81h-23.81zm23.81 0h23.81v23.81h-23.81zm23.81 0h23.81v23.81h-23.81zm23.81 0h23.81v23.81h-23.81zm23.81 0h23.81v23.81h-23.81zm23.81 0h23.81v23.81h-23.81zM0 738.1h23.81v23.81H0zm23.81 0h23.81v23.81H23.81zm23.81 0h23.81v23.81H47.62zm23.81 0h23.81v23.81H71.43zm23.81 0h23.81v23.81H95.24zm23.81 0h23.81v23.81h-23.81zm23.81 0h23.81v23.81h-23.81zm23.81 0h23.81v23.81h-23.81zm23.81 0h23.81v23.81h-23.81zm23.81 0h23.81v23.81h-23.81zm23.81 0h23.81v23.81H238.1zm119.04 0h23.81v23.81h-23.81zm23.81 0h23.81v23.81h-23.81zm23.81 0h23.81v23.81h-23.81zm23.81 0h23.81v23.81h-23.81zm23.81 0h23.81v23.81h-23.81zm23.81 0H500v23.81h-23.81zm23.81 0h23.81v23.81H500zm23.81 0h23.81v23.81h-23.81zm23.81 0h23.81v23.81h-23.81zm23.81 0h23.81v23.81h-23.81zm23.81 0h23.81v23.81h-23.81zm142.86 0h23.81v23.81H738.1zm23.8 0h23.81v23.81H761.9zm23.81 0h23.81v23.81h-23.81zm23.81 0h23.81v23.81h-23.81zm23.81 0h23.81v23.81h-23.81zm23.81 0h23.81v23.81h-23.81zm23.81 0h23.81v23.81h-23.81zm23.81 0h23.81v23.81h-23.81zm23.81 0h23.81v23.81h-23.81zm23.81 0h23.81v23.81h-23.81zm23.81 0H1000v23.81h-23.81zM0 761.9h23.81v23.81H0zm23.81 0h23.81v23.81H23.81zm23.81 0h23.81v23.81H47.62zm23.81 0h23.81v23.81H71.43zm23.81 0h23.81v23.81H95.24zm23.81 0h23.81v23.81h-23.81zm23.81 0h23.81v23.81h-23.81zm23.81 0h23.81v23.81h-23.81zm23.81 0h23.81v23.81h-23.81zm23.81 0h23.81v23.81h-23.81zm23.81 0h23.81v23.81H238.1zm95.23 0h23.81v23.81h-23.81zm23.81 0h23.81v23.81h-23.81zm23.81 0h23.81v23.81h-23.81zm23.81 0h23.81v23.81h-23.81zm23.81 0h23.81v23.81h-23.81zm23.81 0h23.81v23.81h-23.81zm23.81 0H500v23.81h-23.81zm23.81 0h23.81v23.81H500zm23.81 0h23.81v23.81h-23.81zm23.81 0h23.81v23.81h-23.81zm23.81 0h23.81v23.81h-23.81zm23.81 0h23.81v23.81h-23.81zm23.81 0h23.81v23.81h-23.81zm23.81 0h23.81v23.81h-23.81zm23.81 0h23.81v23.81h-23.81zm23.81 0h23.81v23.81h-23.81zm23.81 0h23.81v23.81h-23.81zm23.81 0h23.81v23.81H738.1zm23.8 0h23.81v23.81H761.9zm23.81 0h23.81v23.81h-23.81zm23.81 0h23.81v23.81h-23.81zm23.81 0h23.81v23.81h-23.81zm23.81 0h23.81v23.81h-23.81zm23.81 0h23.81v23.81h-23.81zm23.81 0h23.81v23.81h-23.81zm23.81 0h23.81v23.81h-23.81zm23.81 0h23.81v23.81h-23.81zm23.81 0H1000v23.81h-23.81zM0 785.71h23.81v23.81H0zm23.81 0h23.81v23.81H23.81zm23.81 0h23.81v23.81H47.62zm23.81 0h23.81v23.81H71.43zm23.81 0h23.81v23.81H95.24zm23.81 0h23.81v23.81h-23.81zm23.81 0h23.81v23.81h-23.81zm23.81 0h23.81v23.81h-23.81zm23.81 0h23.81v23.81h-23.81zm23.81 0h23.81v23.81h-23.81zm23.81 0h23.81v23.81H238.1zm23.8 0h23.81v23.81H261.9zm23.81 0h23.81v23.81h-23.81zm23.81 0h23.81v23.81h-23.81zm23.81 0h23.81v23.81h-23.81zm23.81 0h23.81v23.81h-23.81zm23.81 0h23.81v23.81h-23.81zm23.81 0h23.81v23.81h-23.81zm23.81 0h23.81v23.81h-23.81zm23.81 0h23.81v23.81h-23.81zm23.81 0H500v23.81h-23.81zm23.81 0h23.81v23.81H500zm23.81 0h23.81v23.81h-23.81zm23.81 0h23.81v23.81h-23.81zm23.81 0h23.81v23.81h-23.81zm23.81 0h23.81v23.81h-23.81zm23.81 0h23.81v23.81h-23.81zm23.81 0h23.81v23.81h-23.81zm23.81 0h23.81v23.81h-23.81zm23.81 0h23.81v23.81h-23.81zm23.81 0h23.81v23.81h-23.81zm23.81 0h23.81v23.81H738.1zm23.8 0h23.81v23.81H761.9zm23.81 0h23.81v23.81h-23.81zm23.81 0h23.81v23.81h-23.81zm23.81 0h23.81v23.81h-23.81zm23.81 0h23.81v23.81h-23.81zm23.81 0h23.81v23.81h-23.81zm23.81 0h23.81v23.81h-23.81zm23.81 0h23.81v23.81h-23.81zm23.81 0h23.81v23.81h-23.81zm23.81 0H1000v23.81h-23.81zM0 809.52h23.81v23.81H0zm23.81 0h23.81v23.81H23.81zm23.81 0h23.81v23.81H47.62zm23.81 0h23.81v23.81H71.43zm23.81 0h23.81v23.81H95.24zm23.81 0h23.81v23.81h-23.81zm23.81 0h23.81v23.81h-23.81zm23.81 0h23.81v23.81h-23.81zm23.81 0h23.81v23.81h-23.81zm23.81 0h23.81v23.81h-23.81zm23.81 0h23.81v23.81H238.1zm23.8 0h23.81v23.81H261.9zm23.81 0h23.81v23.81h-23.81zm23.81 0h23.81v23.81h-23.81zm23.81 0h23.81v23.81h-23.81zm23.81 0h23.81v23.81h-23.81zm23.81 0h23.81v23.81h-23.81zm23.81 0h23.81v23.81h-23.81zm23.81 0h23.81v23.81h-23.81zm23.81 0h23.81v23.81h-23.81zm23.81 0H500v23.81h-23.81zm23.81 0h23.81v23.81H500zm23.81 0h23.81v23.81h-23.81zm23.81 0h23.81v23.81h-23.81zm23.81 0h23.81v23.81h-23.81zm23.81 0h23.81v23.81h-23.81zm23.81 0h23.81v23.81h-23.81zm23.81 0h23.81v23.81h-23.81zm23.81 0h23.81v23.81h-23.81zm23.81 0h23.81v23.81h-23.81zm23.81 0h23.81v23.81h-23.81zm23.81 0h23.81v23.81H738.1zm23.8 0h23.81v23.81H761.9zm23.81 0h23.81v23.81h-23.81zm23.81 0h23.81v23.81h-23.81zm23.81 0h23.81v23.81h-23.81zm23.81 0h23.81v23.81h-23.81zm23.81 0h23.81v23.81h-23.81zm23.81 0h23.81v23.81h-23.81zm23.81 0h23.81v23.81h-23.81zm23.81 0h23.81v23.81h-23.81zm23.81 0H1000v23.81h-23.81zM0 833.33h23.81v23.81H0zm23.81 0h23.81v23.81H23.81zm23.81 0h23.81v23.81H47.62zm23.81 0h23.81v23.81H71.43zm23.81 0h23.81v23.81H95.24zm23.81 0h23.81v23.81h-23.81zm23.81 0h23.81v23.81h-23.81zm23.81 0h23.81v23.81h-23.81zm23.81 0h23.81v23.81h-23.81zm23.81 0h23.81v23.81h-23.81zm23.81 0h23.81v23.81H238.1zm23.8 0h23.81v23.81H261.9zm23.81 0h23.81v23.81h-23.81zm23.81 0h23.81v23.81h-23.81zm23.81 0h23.81v23.81h-23.81zm23.81 0h23.81v23.81h-23.81zm23.81 0h23.81v23.81h-23.81zm23.81 0h23.81v23.81h-23.81zm23.81 0h23.81v23.81h-23.81zm23.81 0h23.81v23.81h-23.81zm23.81 0H500v23.81h-23.81zm23.81 0h23.81v23.81H500zm23.81 0h23.81v23.81h-23.81zm23.81 0h23.81v23.81h-23.81zm23.81 0h23.81v23.81h-23.81zm23.81 0h23.81v23.81h-23.81zm23.81 0h23.81v23.81h-23.81zm23.81 0h23.81v23.81h-23.81zm23.81 0h23.81v23.81h-23.81zm23.81 0h23.81v23.81h-23.81zm23.81 0h23.81v23.81h-23.81zm23.81 0h23.81v23.81H738.1zm23.8 0h23.81v23.81H761.9zm23.81 0h23.81v23.81h-23.81zm23.81 0h23.81v23.81h-23.81zm23.81 0h23.81v23.81h-23.81zm23.81 0h23.81v23.81h-23.81zm23.81 0h23.81v23.81h-23.81zm23.81 0h23.81v23.81h-23.81zm23.81 0h23.81v23.81h-23.81zm23.81 0h23.81v23.81h-23.81zm23.81 0H1000v23.81h-23.81zM0 857.14h23.81v23.81H0zm23.81 0h23.81v23.81H23.81zm23.81 0h23.81v23.81H47.62zm23.81 0h23.81v23.81H71.43zm23.81 0h23.81v23.81H95.24zm23.81 0h23.81v23.81h-23.81zm23.81 0h23.81v23.81h-23.81zm23.81 0h23.81v23.81h-23.81zm23.81 0h23.81v23.81h-23.81zm23.81 0h23.81v23.81h-23.81zm23.81 0h23.81v23.81H238.1zm23.8 0h23.81v23.81H261.9zm23.81 0h23.81v23.81h-23.81zm23.81 0h23.81v23.81h-23.81zm23.81 0h23.81v23.81h-23.81zm23.81 0h23.81v23.81h-23.81zm23.81 0h23.81v23.81h-23.81zm23.81 0h23.81v23.81h-23.81zm23.81 0h23.81v23.81h-23.81zm23.81 0h23.81v23.81h-23.81zm23.81 0H500v23.81h-23.81zm23.81 0h23.81v23.81H500zm23.81 0h23.81v23.81h-23.81zm23.81 0h23.81v23.81h-23.81zm23.81 0h23.81v23.81h-23.81zm23.81 0h23.81v23.81h-23.81zm23.81 0h23.81v23.81h-23.81zm23.81 0h23.81v23.81h-23.81zm23.81 0h23.81v23.81h-23.81zm23.81 0h23.81v23.81h-23.81zm23.81 0h23.81v23.81h-23.81zm23.81 0h23.81v23.81H738.1zm23.8 0h23.81v23.81H761.9zm23.81 0h23.81v23.81h-23.81zm23.81 0h23.81v23.81h-23.81zm23.81 0h23.81v23.81h-23.81zm23.81 0h23.81v23.81h-23.81zm23.81 0h23.81v23.81h-23.81zm23.81 0h23.81v23.81h-23.81zm23.81 0h23.81v23.81h-23.81zm23.81 0h23.81v23.81h-23.81zm23.81 0H1000v23.81h-23.81zM0 880.95h23.81v23.81H0zm23.81 0h23.81v23.81H23.81zm23.81 0h23.81v23.81H47.62zm23.81 0h23.81v23.81H71.43zm23.81 0h23.81v23.81H95.24zm23.81 0h23.81v23.81h-23.81zm23.81 0h23.81v23.81h-23.81zm23.81 0h23.81v23.81h-23.81zm23.81 0h23.81v23.81h-23.81zm23.81 0h23.81v23.81h-23.81zm23.81 0h23.81v23.81H238.1zm23.8 0h23.81v23.81H261.9zm23.81 0h23.81v23.81h-23.81zm23.81 0h23.81v23.81h-23.81zm23.81 0h23.81v23.81h-23.81zm23.81 0h23.81v23.81h-23.81zm23.81 0h23.81v23.81h-23.81zm23.81 0h23.81v23.81h-23.81zm23.81 0h23.81v23.81h-23.81zm23.81 0h23.81v23.81h-23.81zm23.81 0H500v23.81h-23.81zm23.81 0h23.81v23.81H500zm23.81 0h23.81v23.81h-23.81zm23.81 0h23.81v23.81h-23.81zm23.81 0h23.81v23.81h-23.81zm23.81 0h23.81v23.81h-23.81zm23.81 0h23.81v23.81h-23.81zm23.81 0h23.81v23.81h-23.81zm23.81 0h23.81v23.81h-23.81zm23.81 0h23.81v23.81h-23.81zm23.81 0h23.81v23.81h-23.81zm23.81 0h23.81v23.81H738.1zm23.8 0h23.81v23.81H761.9zm23.81 0h23.81v23.81h-23.81zm23.81 0h23.81v23.81h-23.81zm23.81 0h23.81v23.81h-23.81zm23.81 0h23.81v23.81h-23.81zm23.81 0h23.81v23.81h-23.81zm23.81 0h23.81v23.81h-23.81zm23.81 0h23.81v23.81h-23.81zm23.81 0h23.81v23.81h-23.81zm23.81 0H1000v23.81h-23.81zM0 904.76h23.81v23.81H0zm23.81 0h23.81v23.81H23.81zm23.81 0h23.81v23.81H47.62zm23.81 0h23.81v23.81H71.43zm23.81 0h23.81v23.81H95.24zm23.81 0h23.81v23.81h-23.81zm23.81 0h23.81v23.81h-23.81zm23.81 0h23.81v23.81h-23.81zm23.81 0h23.81v23.81h-23.81zm23.81 0h23.81v23.81h-23.81zm23.81 0h23.81v23.81H238.1zm23.8 0h23.81v23.81H261.9zm23.81 0h23.81v23.81h-23.81zm23.81 0h23.81v23.81h-23.81zm23.81 0h23.81v23.81h-23.81zm23.81 0h23.81v23.81h-23.81zm23.81 0h23.81v23.81h-23.81zm23.81 0h23.81v23.81h-23.81zm23.81 0h23.81v23.81h-23.81zm23.81 0h23.81v23.81h-23.81zm23.81 0H500v23.81h-23.81zm23.81 0h23.81v23.81H500zm23.81 0h23.81v23.81h-23.81zm23.81 0h23.81v23.81h-23.81zm23.81 0h23.81v23.81h-23.81zm23.81 0h23.81v23.81h-23.81zm23.81 0h23.81v23.81h-23.81zm23.81 0h23.81v23.81h-23.81zm23.81 0h23.81v23.81h-23.81zm23.81 0h23.81v23.81h-23.81zm23.81 0h23.81v23.81h-23.81zm23.81 0h23.81v23.81H738.1zm23.8 0h23.81v23.81H761.9zm23.81 0h23.81v23.81h-23.81zm23.81 0h23.81v23.81h-23.81zm23.81 0h23.81v23.81h-23.81zm23.81 0h23.81v23.81h-23.81zm23.81 0h23.81v23.81h-23.81zm23.81 0h23.81v23.81h-23.81zm23.81 0h23.81v23.81h-23.81zm23.81 0h23.81v23.81h-23.81zm23.81 0H1000v23.81h-23.81zM0 928.57h23.81v23.81H0zm23.81 0h23.81v23.81H23.81zm23.81 0h23.81v23.81H47.62zm23.81 0h23.81v23.81H71.43zm23.81 0h23.81v23.81H95.24zm23.81 0h23.81v23.81h-23.81zm23.81 0h23.81v23.81h-23.81zm23.81 0h23.81v23.81h-23.81zm23.81 0h23.81v23.81h-23.81zm23.81 0h23.81v23.81h-23.81zm23.81 0h23.81v23.81H238.1zm23.8 0h23.81v23.81H261.9zm23.81 0h23.81v23.81h-23.81zm23.81 0h23.81v23.81h-23.81zm23.81 0h23.81v23.81h-23.81zm23.81 0h23.81v23.81h-23.81zm23.81 0h23.81v23.81h-23.81zm23.81 0h23.81v23.81h-23.81zm23.81 0h23.81v23.81h-23.81zm23.81 0h23.81v23.81h-23.81zm23.81 0H500v23.81h-23.81zm23.81 0h23.81v23.81H500zm23.81 0h23.81v23.81h-23.81zm23.81 0h23.81v23.81h-23.81zm23.81 0h23.81v23.81h-23.81zm23.81 0h23.81v23.81h-23.81zm23.81 0h23.81v23.81h-23.81zm23.81 0h23.81v23.81h-23.81zm23.81 0h23.81v23.81h-23.81zm23.81 0h23.81v23.81h-23.81zm23.81 0h23.81v23.81h-23.81zm23.81 0h23.81v23.81H738.1zm23.8 0h23.81v23.81H761.9zm23.81 0h23.81v23.81h-23.81zm23.81 0h23.81v23.81h-23.81zm23.81 0h23.81v23.81h-23.81zm23.81 0h23.81v23.81h-23.81zm23.81 0h23.81v23.81h-23.81zm23.81 0h23.81v23.81h-23.81zm23.81 0h23.81v23.81h-23.81zm23.81 0h23.81v23.81h-23.81zm23.81 0H1000v23.81h-23.81zM0 952.38h23.81v23.81H0zm23.81 0h23.81v23.81H23.81zm23.81 0h23.81v23.81H47.62zm23.81 0h23.81v23.81H71.43zm23.81 0h23.81v23.81H95.24zm23.81 0h23.81v23.81h-23.81zm23.81 0h23.81v23.81h-23.81zm23.81 0h23.81v23.81h-23.81zm23.81 0h23.81v23.81h-23.81zm23.81 0h23.81v23.81h-23.81zm23.81 0h23.81v23.81H238.1zm23.8 0h23.81v23.81H261.9zm23.81 0h23.81v23.81h-23.81zm23.81 0h23.81v23.81h-23.81zm23.81 0h23.81v23.81h-23.81zm23.81 0h23.81v23.81h-23.81zm23.81 0h23.81v23.81h-23.81zm23.81 0h23.81v23.81h-23.81zm23.81 0h23.81v23.81h-23.81zm23.81 0h23.81v23.81h-23.81zm23.81 0H500v23.81h-23.81zm23.81 0h23.81v23.81H500zm23.81 0h23.81v23.81h-23.81zm23.81 0h23.81v23.81h-23.81zm23.81 0h23.81v23.81h-23.81zm23.81 0h23.81v23.81h-23.81zm23.81 0h23.81v23.81h-23.81zm23.81 0h23.81v23.81h-23.81zm23.81 0h23.81v23.81h-23.81zm23.81 0h23.81v23.81h-23.81zm23.81 0h23.81v23.81h-23.81zm23.81 0h23.81v23.81H738.1zm23.8 0h23.81v23.81H761.9zm23.81 0h23.81v23.81h-23.81zm23.81 0h23.81v23.81h-23.81zm23.81 0h23.81v23.81h-23.81zm23.81 0h23.81v23.81h-23.81zm23.81 0h23.81v23.81h-23.81zm23.81 0h23.81v23.81h-23.81zm23.81 0h23.81v23.81h-23.81zm23.81 0h23.81v23.81h-23.81zm23.81 0H1000v23.81h-23.81zM0 976.19h23.81V1000H0zm23.81 0h23.81V1000H23.81zm23.81 0h23.81V1000H47.62zm23.81 0h23.81V1000H71.43zm23.81 0h23.81V1000H95.24zm23.81 0h23.81V1000h-23.81zm23.81 0h23.81V1000h-23.81zm23.81 0h23.81V1000h-23.81zm23.81 0h23.81V1000h-23.81zm23.81 0h23.81V1000h-23.81zm23.81 0h23.81V1000H238.1zm23.8 0h23.81V1000H261.9zm23.81 0h23.81V1000h-23.81zm23.81 0h23.81V1000h-23.81zm23.81 0h23.81V1000h-23.81zm23.81 0h23.81V1000h-23.81zm23.81 0h23.81V1000h-23.81zm23.81 0h23.81V1000h-23.81zm23.81 0h23.81V1000h-23.81zm23.81 0h23.81V1000h-23.81zm23.81 0H500V1000h-23.81zm23.81 0h23.81V1000H500zm23.81 0h23.81V1000h-23.81zm23.81 0h23.81V1000h-23.81zm23.81 0h23.81V1000h-23.81zm23.81 0h23.81V1000h-23.81zm23.81 0h23.81V1000h-23.81zm23.81 0h23.81V1000h-23.81zm23.81 0h23.81V1000h-23.81zm23.81 0h23.81V1000h-23.81zm23.81 0h23.81V1000h-23.81zm23.81 0h23.81V1000H738.1zm23.8 0h23.81V1000H761.9zm23.81 0h23.81V1000h-23.81zm23.81 0h23.81V1000h-23.81zm23.81 0h23.81V1000h-23.81zm23.81 0h23.81V1000h-23.81zm23.81 0h23.81V1000h-23.81zm23.81 0h23.81V1000h-23.81zm23.81 0h23.81V1000h-23.81zm23.81 0h23.81V1000h-23.81zm23.81 0H1000V1000h-23.81z"/><path fill="#0c322c" d="M285.71 214.29h23.81v23.81h-23.81zm23.81 0h23.81v23.81h-23.81zM238.1 238.1h23.81v23.81H238.1zm95.23 0h23.81v23.81h-23.81zm-142.85 23.8h23.81v23.81h-23.81zm142.85 0h23.81v23.81h-23.81zM500 285.71h23.81v23.81H500zm23.81 0h23.81v23.81h-23.81zm23.81 0h23.81v23.81h-23.81zm-404.76 23.81h23.81v23.81h-23.81zm452.38 0h23.81v23.81h-23.81zm47.62 23.81h23.81v23.81h-23.81zm23.81 23.81h23.81v23.81h-23.81zm-523.81 47.62h23.81v23.81h-23.81zm23.81 0h23.81v23.81h-23.81zm23.81 0h23.81v23.81h-23.81zm23.81 0h23.81v23.81h-23.81zm23.81 0h23.81v23.81H238.1zm23.8 0h23.81v23.81H261.9zm-95.23 23.81h23.81v23.81h-23.81zm23.81 0h23.81v23.81h-23.81zm23.81 0h23.81v23.81h-23.81zm23.81 0h23.81v23.81H238.1zm500 0h23.81v23.81H738.1zm-547.62 23.81h23.81v23.81h-23.81zm23.81 0h23.81v23.81h-23.81zm23.81 0h23.81v23.81H238.1zm23.8 0h23.81v23.81H261.9zm23.81 0h23.81v23.81h-23.81zm23.81 0h23.81v23.81h-23.81zm23.81 0h23.81v23.81h-23.81zm428.57 0h23.81v23.81H761.9zm-476.19 23.81h23.81V500h-23.81zm23.81 0h23.81V500h-23.81zm23.81 0h23.81V500h-23.81zM261.9 500h23.81v23.81H261.9zm23.81 0h23.81v23.81h-23.81zm23.81 0h23.81v23.81h-23.81zm95.24 0h23.81v23.81h-23.81zm47.62 0h23.81v23.81h-23.81zm166.67 0h23.81v23.81h-23.81zm23.81 0h23.81v23.81h-23.81zm23.81 0h23.81v23.81h-23.81zm119.04 0h23.81v23.81h-23.81zm142.86 0h23.81v23.81h-23.81zM95.24 523.81h23.81v23.81H95.24zm23.81 0h23.81v23.81h-23.81zm23.81 0h23.81v23.81h-23.81zm23.81 0h23.81v23.81h-23.81zm23.81 0h23.81v23.81h-23.81zm23.81 0h23.81v23.81h-23.81zm23.81 0h23.81v23.81H238.1zm23.8 0h23.81v23.81H261.9zm23.81 0h23.81v23.81h-23.81zm23.81 0h23.81v23.81h-23.81zm23.81 0h23.81v23.81h-23.81zm119.05 0h23.81v23.81h-23.81zm119.05 0h23.81v23.81h-23.81zm119.05 0h23.81v23.81h-23.81zm23.81 0h23.81v23.81h-23.81zm71.42 0h23.81v23.81h-23.81zm142.86 0h23.81v23.81h-23.81zm23.81 0h23.81v23.81h-23.81zM23.81 547.62h23.81v23.81H23.81zm23.81 0h23.81v23.81H47.62zm119.05 0h23.81v23.81h-23.81zm23.81 0h23.81v23.81h-23.81zm23.81 0h23.81v23.81h-23.81zm23.81 0h23.81v23.81H238.1zm23.8 0h23.81v23.81H261.9zm142.86 0h23.81v23.81h-23.81zm119.05 0h23.81v23.81h-23.81zm71.43 0h23.81v23.81h-23.81zm23.81 0h23.81v23.81h-23.81zm23.81 0h23.81v23.81h-23.81zm95.24 0h23.81v23.81H738.1zm71.42 0h23.81v23.81h-23.81zm47.62 0h23.81v23.81h-23.81zm23.81 0h23.81v23.81h-23.81zm23.81 0h23.81v23.81h-23.81zm23.81 0h23.81v23.81h-23.81zm23.81 0h23.81v23.81h-23.81zM23.81 571.43h23.81v23.81H23.81zm23.81 0h23.81v23.81H47.62zm23.81 0h23.81v23.81H71.43zm23.81 0h23.81v23.81H95.24zm23.81 0h23.81v23.81h-23.81zm166.66 0h23.81v23.81h-23.81zm23.81 0h23.81v23.81h-23.81zm23.81 0h23.81v23.81h-23.81zm23.81 0h23.81v23.81h-23.81zm23.81 0h23.81v23.81h-23.81zm142.86 0h23.81v23.81h-23.81zm23.81 0h23.81v23.81h-23.81zm23.81 0h23.81v23.81h-23.81zm47.62 0h23.81v23.81h-23.81zm23.81 0h23.81v23.81h-23.81zm23.81 0h23.81v23.81h-23.81zm23.81 0h23.81v23.81h-23.81zm71.42 0h23.81v23.81H761.9zm47.62 0h23.81v23.81h-23.81zm47.62 0h23.81v23.81h-23.81zm47.62 0h23.81v23.81h-23.81zm23.81 0h23.81v23.81h-23.81zm23.81 0h23.81v23.81h-23.81zm-619.05 23.81h23.81v23.81h-23.81zm95.24 0h23.81v23.81h-23.81zm23.81 0h23.81v23.81h-23.81zm166.67 0h23.81v23.81h-23.81zm47.62 0h23.81v23.81h-23.81zm23.81 0h23.81v23.81h-23.81zm71.42 0h23.81v23.81H761.9zm47.62 0h23.81v23.81h-23.81zm95.24 0h23.81v23.81h-23.81zm23.81 0h23.81v23.81h-23.81zm23.81 0h23.81v23.81h-23.81zm-428.57 23.81h23.81v23.81h-23.81zm190.48 0h23.81v23.81h-23.81zm47.61 0h23.81v23.81H761.9zm47.62 0h23.81v23.81h-23.81zm71.43 0h23.81v23.81h-23.81zm23.81 0h23.81v23.81h-23.81zm23.81 0h23.81v23.81h-23.81zm23.81 0h23.81v23.81h-23.81zm-738.09 23.81h23.81v23.81h-23.81zm71.42 0h23.81v23.81h-23.81zm23.81 0h23.81v23.81h-23.81zm238.1 0h23.81v23.81h-23.81zm47.62 0h23.81v23.81h-23.81zm23.81 0h23.81v23.81h-23.81zm119.05 0h23.81v23.81H738.1zm71.42 0h23.81v23.81h-23.81zm23.81 0h23.81v23.81h-23.81zm23.81 0h23.81v23.81h-23.81zm23.81 0h23.81v23.81h-23.81zm23.81 0h23.81v23.81h-23.81zm23.81 0h23.81v23.81h-23.81zm23.81 0h23.81v23.81h-23.81zm-785.71 23.81h23.81v23.81h-23.81zm23.81 0h23.81v23.81h-23.81zm23.81 0h23.81v23.81h-23.81zm23.81 0h23.81v23.81H238.1zm23.8 0h23.81v23.81H261.9zm23.81 0h23.81v23.81h-23.81zm23.81 0h23.81v23.81h-23.81zm23.81 0h23.81v23.81h-23.81zm214.29 0h23.81v23.81h-23.81zm47.62 0h23.81v23.81h-23.81zm71.43 0h23.81v23.81h-23.81zm23.81 0h23.81v23.81h-23.81zm23.81 0h23.81v23.81h-23.81zm261.9 0H1000v23.81h-23.81zm-809.52 23.81h23.81v23.81h-23.81zm23.81 0h23.81v23.81h-23.81zm23.81 0h23.81v23.81h-23.81zm23.81 0h23.81v23.81H238.1zm23.8 0h23.81v23.81H261.9zm23.81 0h23.81v23.81h-23.81zm23.81 0h23.81v23.81h-23.81zm23.81 0h23.81v23.81h-23.81zm214.29 0h23.81v23.81h-23.81zm71.43 0h23.81v23.81h-23.81zm23.81 0h23.81v23.81h-23.81zm47.62 0h23.81v23.81h-23.81zm23.81 0h23.81v23.81h-23.81zm71.42 0h23.81v23.81h-23.81zm23.81 0h23.81v23.81h-23.81zm23.81 0h23.81v23.81h-23.81zm23.81 0h23.81v23.81h-23.81zm23.81 0h23.81v23.81h-23.81zm-690.47 23.81h23.81v23.81h-23.81zm23.81 0h23.81v23.81h-23.81zm23.81 0h23.81v23.81H238.1zm47.61 0h23.81v23.81h-23.81zm47.62 0h23.81v23.81h-23.81zm238.1 0h23.81v23.81h-23.81zm190.47 0h23.81v23.81H761.9zm190.48 0h23.81v23.81h-23.81zm23.81 0H1000v23.81h-23.81zM261.9 738.1h23.81v23.81H261.9zm23.81 0h23.81v23.81h-23.81zm47.62 0h23.81v23.81h-23.81zm285.72 0h23.81v23.81h-23.81zm95.24 0h23.81v23.81h-23.81zM261.9 761.9h23.81v23.81H261.9zm23.81 0h23.81v23.81h-23.81zm23.81 0h23.81v23.81h-23.81z"/><path fill="#30ba78" d="M261.9 238.1h23.81v23.81H261.9zm23.81 0h23.81v23.81h-23.81zm23.81 0h23.81v23.81h-23.81zm-95.23 23.8h23.81v23.81h-23.81zm23.81 0h23.81v23.81H238.1zm23.8 0h23.81v23.81H261.9zm23.81 0h23.81v23.81h-23.81zm23.81 0h23.81v23.81h-23.81zm-142.85 23.81h23.81v23.81h-23.81zm71.43 0h23.81v23.81H238.1zm23.8 0h23.81v23.81H261.9zm23.81 0h23.81v23.81h-23.81zm23.81 0h23.81v23.81h-23.81zm23.81 0h23.81v23.81h-23.81zm23.81 0h23.81v23.81h-23.81zm23.81 0h23.81v23.81h-23.81zm23.81 0h23.81v23.81h-23.81zm23.81 0h23.81v23.81h-23.81zm23.81 0h23.81v23.81h-23.81zm23.81 0H500v23.81h-23.81zM261.9 309.52h23.81v23.81H261.9zm23.81 0h23.81v23.81h-23.81zm23.81 0h23.81v23.81h-23.81zm23.81 0h23.81v23.81h-23.81zm23.81 0h23.81v23.81h-23.81zm23.81 0h23.81v23.81h-23.81zm23.81 0h23.81v23.81h-23.81zm23.81 0h23.81v23.81h-23.81zm23.81 0h23.81v23.81h-23.81zm23.81 0H500v23.81h-23.81zm23.81 0h23.81v23.81H500zm23.81 0h23.81v23.81h-23.81zm23.81 0h23.81v23.81h-23.81zm23.81 0h23.81v23.81h-23.81zm-428.57 23.81h23.81v23.81h-23.81zm119.04 0h23.81v23.81H261.9zm23.81 0h23.81v23.81h-23.81zm23.81 0h23.81v23.81h-23.81zm23.81 0h23.81v23.81h-23.81zm23.81 0h23.81v23.81h-23.81zm23.81 0h23.81v23.81h-23.81zm23.81 0h23.81v23.81h-23.81zm23.81 0h23.81v23.81h-23.81zm23.81 0h23.81v23.81h-23.81zm23.81 0H500v23.81h-23.81zm23.81 0h23.81v23.81H500zm23.81 0h23.81v23.81h-23.81zm23.81 0h23.81v23.81h-23.81zm23.81 0h23.81v23.81h-23.81zm23.81 0h23.81v23.81h-23.81zm23.81 0h23.81v23.81h-23.81zm-476.19 23.81h23.81v23.81h-23.81zm119.04 0h23.81v23.81H261.9zm23.81 0h23.81v23.81h-23.81zm23.81 0h23.81v23.81h-23.81zm23.81 0h23.81v23.81h-23.81zm23.81 0h23.81v23.81h-23.81zm23.81 0h23.81v23.81h-23.81zm23.81 0h23.81v23.81h-23.81zm23.81 0h23.81v23.81h-23.81zm23.81 0h23.81v23.81h-23.81zm23.81 0H500v23.81h-23.81zm23.81 0h23.81v23.81H500zm23.81 0h23.81v23.81h-23.81zm23.81 0h23.81v23.81h-23.81zm23.81 0h23.81v23.81h-23.81zm23.81 0h23.81v23.81h-23.81zm23.81 0h23.81v23.81h-23.81zm23.81 0h23.81v23.81h-23.81zm-500 23.81h23.81v23.81h-23.81zm95.24 0h23.81v23.81H238.1zm23.8 0h23.81v23.81H261.9zm23.81 0h23.81v23.81h-23.81zm23.81 0h23.81v23.81h-23.81zm23.81 0h23.81v23.81h-23.81zm23.81 0h23.81v23.81h-23.81zm23.81 0h23.81v23.81h-23.81zm23.81 0h23.81v23.81h-23.81zm23.81 0h23.81v23.81h-23.81zm23.81 0h23.81v23.81h-23.81zm23.81 0H500v23.81h-23.81zm23.81 0h23.81v23.81H500zm23.81 0h23.81v23.81h-23.81zm23.81 0h23.81v23.81h-23.81zm23.81 0h23.81v23.81h-23.81zm23.81 0h23.81v23.81h-23.81zm23.81 0h23.81v23.81h-23.81zm23.81 0h23.81v23.81h-23.81zm23.81 0h23.81v23.81h-23.81zm23.81 0h23.81v23.81h-23.81zm-404.77 23.81h23.81v23.81h-23.81zm23.81 0h23.81v23.81h-23.81zm23.81 0h23.81v23.81h-23.81zm23.81 0h23.81v23.81h-23.81zm23.81 0h23.81v23.81h-23.81zm23.81 0h23.81v23.81h-23.81zm23.81 0h23.81v23.81h-23.81zm23.81 0h23.81v23.81h-23.81zm23.81 0H500v23.81h-23.81zm23.81 0h23.81v23.81H500zm23.81 0h23.81v23.81h-23.81zm23.81 0h23.81v23.81h-23.81zm23.81 0h23.81v23.81h-23.81zm23.81 0h23.81v23.81h-23.81zm23.81 0h23.81v23.81h-23.81zm23.81 0h23.81v23.81h-23.81zm23.81 0h23.81v23.81h-23.81zm23.81 0h23.81v23.81h-23.81zm23.81 0h23.81v23.81h-23.81zM261.9 428.57h23.81v23.81H261.9zm23.81 0h23.81v23.81h-23.81zm23.81 0h23.81v23.81h-23.81zm23.81 0h23.81v23.81h-23.81zm23.81 0h23.81v23.81h-23.81zm23.81 0h23.81v23.81h-23.81zm23.81 0h23.81v23.81h-23.81zm23.81 0h23.81v23.81h-23.81zm23.81 0h23.81v23.81h-23.81zm23.81 0H500v23.81h-23.81zm23.81 0h23.81v23.81H500zm23.81 0h23.81v23.81h-23.81zm23.81 0h23.81v23.81h-23.81zm23.81 0h23.81v23.81h-23.81zm23.81 0h23.81v23.81h-23.81zm23.81 0h23.81v23.81h-23.81zm23.81 0h23.81v23.81h-23.81zm23.81 0h23.81v23.81h-23.81zm23.81 0h23.81v23.81h-23.81zm23.81 0h23.81v23.81h-23.81zm-357.15 23.81h23.81v23.81h-23.81zm23.81 0h23.81v23.81h-23.81zm23.81 0h23.81v23.81h-23.81zm23.81 0h23.81v23.81h-23.81zm23.81 0h23.81v23.81h-23.81zm23.81 0H500v23.81h-23.81zm23.81 0h23.81v23.81H500zm23.81 0h23.81v23.81h-23.81zm23.81 0h23.81v23.81h-23.81zm23.81 0h23.81v23.81h-23.81zm23.81 0h23.81v23.81h-23.81zm23.81 0h23.81v23.81h-23.81zm23.81 0h23.81v23.81h-23.81zm23.81 0h23.81v23.81h-23.81zm23.81 0h23.81v23.81h-23.81zm23.81 0h23.81v23.81h-23.81zm23.81 0h23.81v23.81H738.1zm-380.96 23.81h23.81V500h-23.81zm23.81 0h23.81V500h-23.81zm23.81 0h23.81V500h-23.81zm23.81 0h23.81V500h-23.81zm23.81 0h23.81V500h-23.81zm23.81 0H500V500h-23.81zm23.81 0h23.81V500H500zm23.81 0h23.81V500h-23.81zm23.81 0h23.81V500h-23.81zm23.81 0h23.81V500h-23.81zm23.81 0h23.81V500h-23.81zm23.81 0h23.81V500h-23.81zm23.81 0h23.81V500h-23.81zm23.81 0h23.81V500h-23.81zm23.81 0h23.81V500h-23.81zm23.81 0h23.81V500h-23.81zm23.81 0h23.81V500H738.1zm23.8 0h23.81V500H761.9zM357.14 500h23.81v23.81h-23.81zm23.81 0h23.81v23.81h-23.81zm95.24 0H500v23.81h-23.81zm23.81 0h23.81v23.81H500zm23.81 0h23.81v23.81h-23.81zm23.81 0h23.81v23.81h-23.81zm23.81 0h23.81v23.81h-23.81zm23.81 0h23.81v23.81h-23.81zm95.24 0h23.81v23.81h-23.81zm23.81 0h23.81v23.81h-23.81zm23.81 0h23.81v23.81H738.1zm23.8 0h23.81v23.81H761.9zm-404.76 23.81h23.81v23.81h-23.81zm23.81 0h23.81v23.81h-23.81zm95.24 0H500v23.81h-23.81zm23.81 0h23.81v23.81H500zm23.81 0h23.81v23.81h-23.81zm23.81 0h23.81v23.81h-23.81zm190.48 0h23.81v23.81H738.1zm23.8 0h23.81v23.81H761.9zM71.43 547.62h23.81v23.81H71.43zm23.81 0h23.81v23.81H95.24zm23.81 0h23.81v23.81h-23.81zm23.81 0h23.81v23.81h-23.81zm142.85 0h23.81v23.81h-23.81zm23.81 0h23.81v23.81h-23.81zm23.81 0h23.81v23.81h-23.81zm23.81 0h23.81v23.81h-23.81zm23.81 0h23.81v23.81h-23.81zm47.62 0h23.81v23.81h-23.81zm23.81 0h23.81v23.81h-23.81zm23.81 0H500v23.81h-23.81zm23.81 0h23.81v23.81H500zm261.9 0h23.81v23.81H761.9zm23.81 0h23.81v23.81h-23.81zm-380.95 23.81h23.81v23.81h-23.81zm23.81 0h23.81v23.81h-23.81zm23.81 0h23.81v23.81h-23.81zm23.81 0H500v23.81h-23.81zm23.81 0h23.81v23.81H500zm95.24 0h23.81v23.81h-23.81zm190.47 0h23.81v23.81h-23.81zm95.24 0h23.81v23.81h-23.81zm-404.76 23.81H500v23.81h-23.81zm23.81 0h23.81v23.81H500zm23.81 0h23.81v23.81h-23.81zm23.81 0h23.81v23.81h-23.81zm23.81 0h23.81v23.81h-23.81zm23.81 0h23.81v23.81h-23.81zm190.47 0h23.81v23.81h-23.81zm95.24 0h23.81v23.81h-23.81zm-333.33 23.81h23.81v23.81h-23.81zm23.81 0h23.81v23.81h-23.81zm23.81 0h23.81v23.81h-23.81zm23.81 0h23.81v23.81h-23.81zm23.81 0h23.81v23.81h-23.81zm23.81 0h23.81v23.81h-23.81zm23.81 0h23.81v23.81h-23.81zm95.23 0h23.81v23.81h-23.81zM238.1 642.86h23.81v23.81H238.1zm23.8 0h23.81v23.81H261.9zm309.53 0h23.81v23.81h-23.81zm71.43 0h23.81v23.81h-23.81zm23.81 0h23.81v23.81h-23.81zm23.81 0h23.81v23.81h-23.81zm23.81 0h23.81v23.81h-23.81zm47.61 0h23.81v23.81H761.9zm23.81 0h23.81v23.81h-23.81zm-214.28 23.81h23.81v23.81h-23.81zm166.67 0h23.81v23.81H738.1zm23.8 0h23.81v23.81H761.9zm23.81 0h23.81v23.81h-23.81zm23.81 0h23.81v23.81h-23.81zm23.81 0h23.81v23.81h-23.81zm23.81 0h23.81v23.81h-23.81zm23.81 0h23.81v23.81h-23.81zm23.81 0h23.81v23.81h-23.81zm23.81 0h23.81v23.81h-23.81zm23.81 0h23.81v23.81h-23.81zm-380.95 23.81h23.81v23.81h-23.81zm23.81 0h23.81v23.81h-23.81zm142.86 0h23.81v23.81H738.1zm23.8 0h23.81v23.81H761.9zm142.86 0h23.81v23.81h-23.81zm23.81 0h23.81v23.81h-23.81zm23.81 0h23.81v23.81h-23.81zm23.81 0H1000v23.81h-23.81zm-666.67 23.81h23.81v23.81h-23.81zm285.72 0h23.81v23.81h-23.81zm23.81 0h23.81v23.81h-23.81zm23.81 0h23.81v23.81h-23.81zm23.81 0h23.81v23.81h-23.81zm23.81 0h23.81v23.81h-23.81zm23.81 0h23.81v23.81h-23.81zm23.81 0h23.81v23.81H738.1zM309.52 738.1h23.81v23.81h-23.81zm333.34 0h23.81v23.81h-23.81zm23.81 0h23.81v23.81h-23.81zm23.81 0h23.81v23.81h-23.81z"/><path fill="#bff1ea" d="M190.48 285.71h23.81v23.81h-23.81zm23.81 0h23.81v23.81h-23.81zm-47.62 23.81h23.81v23.81h-23.81zm71.43 0h23.81v23.81H238.1zm0 47.62h23.81v23.81H238.1zm-71.43 23.81h23.81v23.81h-23.81zm47.62 0h23.81v23.81h-23.81z"/><path fill="#fff" d="M190.48 309.52h23.81v23.81h-23.81zm23.81 0h23.81v23.81h-23.81zm-47.62 23.81h23.81v23.81h-23.81zm23.81 0h23.81v23.81h-23.81zm23.81 0h23.81v23.81h-23.81zm23.81 0h23.81v23.81H238.1zm-71.43 23.81h23.81v23.81h-23.81zm23.81 0h23.81v23.81h-23.81zm23.81 0h23.81v23.81h-23.81zm-23.81 23.81h23.81v23.81h-23.81z"/></svg>