<svg xmlns="http://www.w3.org/2000/svg" width="1080" height="1080" style="width:100%;height:auto;display:block" viewBox="0 0 1080 1080"><rect height="100%" fill="#38c376"/><g fill-rule="evenodd"><path fill="#1c8646" d="M3.46 0 0 1079.52h1079.52s16.71-258.91 0-314.86-65.74-16.16-100.34-20.76-107.26-6.92-107.26-6.92l6.92-27.68 200.68 20.76V0zm346 238.74c28.27-10.97 17.3 3.46 17.3 3.46l-3.46 79.58s16.16-10.97 34.6-13.84 42.66-6.92 76.12-3.46 82.45 9.8 124.56 24.22c42.1 14.43 92.83 38.65 128.02 62.28s66.88 62.87 83.04 79.58 12.7 10.38 13.84 20.76-6.92 41.52-6.92 41.52l-51.9-41.52v62.28s-20.76-9.24-38.06-10.38-47.85 0-65.74 3.46-23.63 4.6-41.52 17.3-65.74 58.82-65.74 58.82 44.4 20.17 55.36 24.22 5.19 4.05 10.38 0 10.97-17.89 20.76-24.22 23.63-12.11 38.06-13.84 36.92.59 48.44 3.46 13.84 6.92 20.76 13.84 17.3 16.71 20.76 27.68 0 38.06 0 38.06l6.92-6.92 6.92 13.84s-12.7-6.33-17.3-3.46-4.6 15.57-10.38 20.76-17.89 9.24-24.22 10.38a16.7 16.7 0 0 1-13.84-3.46c-2.87-2.32-3.46-10.38-3.46-10.38s10.97 2.87 17.3 0 16.71-9.24 20.76-17.3 4.05-23.08 3.46-31.14-2.32-11.52-6.92-17.3-11.52-13.25-20.76-17.3-24.22-6.92-34.6-6.92-20.17 0-27.68 6.92-17.3 34.6-17.3 34.6 0-8.65 13.84-6.92 55.95 13.84 69.2 17.3 8.65 1.14 10.38 3.46 3.46 6.33 0 10.38-14.98 11.52-20.76 13.84-1.14 2.87-13.84 0-62.28-17.3-62.28-17.3-5.19 15.57-3.46 24.22 6.92 19.03 13.84 27.68 19.03 18.44 27.68 24.22 11.52 8.65 24.22 10.38 41.52 1.14 51.9 0 10.38-6.92 10.38-6.92v34.6s-53.63 4.05-72.66 0-27.68-11.52-41.52-24.22-33.46-33.46-41.52-51.9-6.92-58.82-6.92-58.82.59 8.65-10.38 6.92-44.98-13.84-55.36-17.3-6.92-3.46-6.92-3.46l3.46-10.38-38.06 10.38 10.38-31.14-89.96-3.46s2.32-21.35 10.38-24.22 31.14 6.92 38.06 6.92-1.14-6.33 3.46-6.92 17.89 4.05 24.22 3.46 9.8 2.32 13.84-6.92c4.05-9.24 17.89-35.74 10.38-48.44s-42.66-25.95-55.36-27.68-15.57 9.24-20.76 17.3-1.73 25.95-10.38 31.14-41.52 0-41.52 0l-10.38-155.7-3.46 17.3s-99.2-4.6-121.1-3.46-1.14 8.65-10.38 10.38-35.74 1.73-44.98 0-2.32-8.65-10.38-10.38-38.06 0-38.06 0 3.46-44.4 6.92-58.82 7.5-19.03 13.84-27.68-5.19-8.65 24.22-24.22 123.97-58.23 152.24-69.2m-86.5 224.9s1.73 8.65-6.92 10.38-44.98 0-44.98 0zM235.28 570.9c27.1-2.32 6.92 3.46 6.92 3.46s-2.32 4.05-10.38 6.92-8.06 5.78-38.06 10.38-116.5 13.84-141.86 17.3-10.38 3.46-10.38 3.46l10.38 6.92-27.68-6.92s-5.78-9.8 3.46-13.84c9.24-4.05 17.3-5.78 51.9-10.38s128.6-14.98 155.7-17.3m62.28 10.38c13.25-2.32 60.55-.59 76.12 0s14.43 1.73 17.3 3.46 7.5 3.46 0 6.92-28.82 13.25-44.98 13.84-51.9-10.38-51.9-10.38-9.8-11.52 3.46-13.84m647.02 3.46s5.78-1.14 6.92 10.38 0 58.82 0 58.82-5.78 8.06-6.92-3.46 0-65.74 0-65.74M332.16 685.08c4.05 0 6.92 3.46 6.92 3.46l-24.22 10.38s-2.87-8.06 0-10.38 13.25-3.46 17.3-3.46m-6.92 76.12 3.46 48.44s-6.33-12.7-6.92-20.76 3.46-27.68 3.46-27.68"/><path fill="#001b10" d="M3.46 0 0 1079.52h1079.52l-3.46-294.1s-30.55-1.14-41.52-3.46-10.38-8.65-24.22-10.38-33.46 2.32-58.82 0-73.25-17.3-93.42-13.84-15.57 24.8-27.68 34.6-32.87 19.03-44.98 24.22-11.52 6.33-27.68 6.92-49.58 1.14-69.2-3.46-35.74-15.57-48.44-24.22-20.17-16.71-27.68-27.68-14.43-23.63-17.3-38.06 32.28-32.87 0-48.44-155.7-44.4-193.76-44.98c-38.06-.59-28.82 28.82-34.6 41.52s-4.05 20.76 0 34.6 22.49 31.14 24.22 48.44-5.19 39.2-13.84 55.36-38.06 41.52-38.06 41.52l-10.38-20.76-44.98 20.76s1.14-39.79 6.92-58.82 27.68-55.36 27.68-55.36-16.71 20.17-27.68 27.68-23.08 14.98-38.06 17.3-36.92-.59-51.9-3.46-31.73-9.8-38.06-13.84c-6.33-4.05-5.19-2.87 0-10.38 5.19-7.5 16.71-23.08 31.14-34.6s30.55-27.1 55.36-34.6 73.25-5.19 93.42-10.38 20.76-12.7 27.68-20.76 13.84-27.68 13.84-27.68-49.03-19.62-107.26-20.76-198.95 14.43-242.2 13.84-14.43-12.11-17.3-17.3-2.87-10.97 0-13.84-14.43 1.14 17.3-3.46 133.8-20.17 173-24.22 41.52 8.06 62.28 0 51.9-39.2 62.28-48.44 0-6.92 0-6.92-65.15 2.32-93.42-3.46-62.28-23.63-76.12-31.14c-13.84-7.5-6.92-13.84-6.92-13.84s79 1.73 100.34 0 19.03-4.6 27.68-10.38 24.22-24.22 24.22-24.22-25.36 20.17-51.9 24.22-107.26 0-107.26 0-2.87-49.58 0-69.2 10.38-35.74 17.3-48.44-5.78-10.97 24.22-27.68 126.29-60.55 155.7-72.66 20.76 0 20.76 0v83.04s-1.14-7.5 13.84-10.38c14.98-2.87 47.85-7.5 76.12-6.92s57.09 1.14 93.42 10.38 88.23 27.1 124.56 44.98c36.33 17.89 68.06 40.93 93.42 62.28s41.52 40.93 58.82 65.74 34.6 59.4 44.98 83.04c10.38 23.63 13.84 42.1 17.3 58.82s4.05 28.27 3.46 41.52-6.92 31.14-6.92 38.06-13.84 1.14 6.92 3.46 95.15 9.8 117.64 10.38 17.3-6.92 17.3-6.92-49.03-20.17-62.28-27.68-12.7-9.8-17.3-17.3-9.24-12.7-10.38-27.68 3.46-62.28 3.46-62.28 22.49-1.73 31.14 0 20.76 10.38 20.76 10.38l17.3-69.2s32.28 29.41 41.52 41.52 11.52 16.16 13.84 31.14 5.78 36.92 0 58.82-34.6 72.66-34.6 72.66l48.44 3.46V0zM449.8 532.84s-8.06 9.24-10.38 17.3-1.73 25.36-3.46 31.14-6.92 3.46-6.92 3.46-2.87 5.19 3.46 6.92 28.27 4.05 34.6 3.46-.59-6.33 3.46-6.92 14.43 4.6 20.76 3.46 13.84-5.78 17.3-10.38 13.25-9.24 3.46-17.3c-9.8-8.06-62.28-31.14-62.28-31.14m-69.2 6.92c-4.6 1.73-13.84 4.05-20.76 10.38s-20.76 27.68-20.76 27.68 30-5.78 38.06-10.38 8.65-12.7 10.38-17.3 0-10.38 0-10.38-2.32-1.73-6.92 0m304.48 24.22c-19.03 0-27.1 0-48.44 10.38-21.35 10.38-79.58 51.9-79.58 51.9s42.1 20.17 58.82 17.3 30-27.68 41.52-34.6 17.3-6.33 27.68-6.92 24.8 1.14 34.6 3.46 16.16 4.6 24.22 10.38 19.03 12.7 24.22 24.22-2.32 36.33 6.92 44.98 48.44 6.92 48.44 6.92 5.78-25.95 0-41.52-22.49-39.2-34.6-51.9-20.76-18.44-38.06-24.22-46.71-10.38-65.74-10.38m0 76.12c-10.38.59-20.17 7.5-24.22 10.38-4.05 2.87-12.7 2.87 0 6.92s76.12 17.3 76.12 17.3 2.32-9.24 0-13.84-5.19-10.38-13.84-13.84-27.68-7.5-38.06-6.92m-325.24 34.6s-10.38 2.32-17.3 13.84-24.22 55.36-24.22 55.36 20.76-16.16 27.68-27.68 13.84-41.52 13.84-41.52m290.64 24.22s-4.6 8.06-3.46 13.84 1.14 12.11 10.38 20.76 30.55 25.36 44.98 31.14 25.36 7.5 41.52 3.46 55.36-27.68 55.36-27.68-31.73-15.57-44.98-17.3-25.95 9.24-34.6 6.92-5.78-15.57-17.3-20.76-51.9-10.38-51.9-10.38"/><path fill="#001a0f" d="M3.46 0 0 1079.52h1079.52l-3.46-294.1s-30.55-1.14-41.52-3.46-10.38-8.65-24.22-10.38-33.46 2.32-58.82 0-73.25-17.3-93.42-13.84-15.57 24.8-27.68 34.6-33.46 19.03-44.98 24.22-8.06 6.33-24.22 6.92-52.49 1.14-72.66-3.46-35.74-15.57-48.44-24.22-20.17-16.71-27.68-27.68-14.43-23.63-17.3-38.06 32.28-32.87 0-48.44-155.7-44.4-193.76-44.98c-38.06-.59-28.82 28.82-34.6 41.52s-4.05 20.76 0 34.6 22.49 31.14 24.22 48.44-5.19 39.2-13.84 55.36-38.06 41.52-38.06 41.52l-10.38-20.76-44.98 20.76s1.14-39.79 6.92-58.82 27.68-55.36 27.68-55.36-16.71 20.17-27.68 27.68-22.49 14.98-38.06 17.3-42.66-.59-55.36-3.46-14.98-11.52-20.76-13.84-13.84 0-13.84 0-5.19-2.87 0-10.38c5.19-7.5 16.71-23.08 31.14-34.6s30.55-27.1 55.36-34.6 71.52-2.87 93.42-10.38c21.9-7.5 32.28-25.95 38.06-34.6s13.84-11.52-3.46-17.3-43.25-16.71-100.34-17.3-198.95 14.43-242.2 13.84-14.43-12.11-17.3-17.3-13.25-9.24 0-13.84 37.47-9.24 79.58-13.84 134.35-4.05 173-13.84c38.65-9.8 48.44-35.74 58.82-44.98s3.46-10.38 3.46-10.38-65.15 2.32-93.42-3.46-62.28-23.63-76.12-31.14c-13.84-7.5-6.92-13.84-6.92-13.84s79 1.73 100.34 0 19.03-4.6 27.68-10.38 24.22-24.22 24.22-24.22-25.36 20.17-51.9 24.22-107.26 0-107.26 0-2.87-49.58 0-69.2 10.38-35.74 17.3-48.44-5.78-10.97 24.22-27.68 126.29-60.55 155.7-72.66 20.76 0 20.76 0v83.04s.59-7.5 13.84-10.38c13.25-2.87 39.79-6.92 65.74-6.92s65.74 3.46 89.96 6.92 32.28 5.78 55.36 13.84 53.63 18.44 83.04 34.6 68.06 40.93 93.42 62.28 42.1 42.66 58.82 65.74a405 405 0 0 1 41.52 72.66c10.38 23.63 16.71 50.76 20.76 69.2s4.05 28.27 3.46 41.52-6.92 31.14-6.92 38.06-10.97 2.32 6.92 3.46 80.72 1.73 100.34 3.46 11.52 6.92 17.3 6.92 17.3-6.92 17.3-6.92-49.03-20.17-62.28-27.68-12.7-9.8-17.3-17.3-9.24-12.7-10.38-27.68 3.46-62.28 3.46-62.28 22.49-1.73 31.14 0 20.76 10.38 20.76 10.38l17.3-69.2s32.28 29.41 41.52 41.52 11.52 16.16 13.84 31.14 5.78 36.92 0 58.82-34.6 72.66-34.6 72.66l48.44 3.46V0zm449.8 532.84c-11.52-4.05-8.06.59-10.38 6.92s-1.14 23.08-3.46 31.14-10.38 17.3-10.38 17.3 15.57 6.92 27.68 6.92 35.74-1.73 44.98-6.92 10.38-24.22 10.38-24.22-47.3-27.1-58.82-31.14m-72.66 6.92c-4.6 1.73-13.84 4.05-20.76 10.38s-20.76 27.68-20.76 27.68 30-5.78 38.06-10.38 8.65-12.7 10.38-17.3 0-10.38 0-10.38-2.32-1.73-6.92 0m304.48 24.22c-19.03 0-27.68 0-48.44 10.38s-76.12 51.9-76.12 51.9 39.2 20.17 55.36 17.3 30-27.68 41.52-34.6 17.3-6.33 27.68-6.92 24.8 1.14 34.6 3.46 16.16 4.6 24.22 10.38 19.03 12.7 24.22 24.22-2.32 36.33 6.92 44.98 48.44 6.92 48.44 6.92 5.78-25.95 0-41.52-22.49-39.2-34.6-51.9-20.76-18.44-38.06-24.22-46.71-10.38-65.74-10.38m0 76.12c-10.97 0-24.22 10.38-24.22 10.38s-9.24 2.87 3.46 6.92 72.66 17.3 72.66 17.3 1.73-9.8 0-13.84c-1.73-4.05-1.73-6.92-10.38-10.38s-30.55-10.38-41.52-10.38m-325.24 34.6s-6.92-1.14-13.84 10.38-27.68 58.82-27.68 58.82 20.76-16.16 27.68-27.68 13.84-41.52 13.84-41.52m290.64 24.22s-4.6 8.06-3.46 13.84 1.14 12.11 10.38 20.76 30.55 25.36 44.98 31.14 25.36 7.5 41.52 3.46 55.36-27.68 55.36-27.68-31.14-15.57-44.98-17.3-29.41 9.24-38.06 6.92-2.87-15.57-13.84-20.76-51.9-10.38-51.9-10.38"/><path fill="#00180d" d="M3.46 0 0 1079.52h1079.52l-3.46-294.1s-30.55-1.14-41.52-3.46-9.8-8.65-24.22-10.38c-14.43-1.73-36.92 2.32-62.28 0s-70.34-17.3-89.96-13.84-18.44 25.95-27.68 34.6-16.16 12.11-27.68 17.3-24.8 11.52-41.52 13.84c-16.71 2.32-42.1 2.32-58.82 0s-26.54-4.6-41.52-13.84-37.47-28.27-48.44-41.52-14.43-23.63-17.3-38.06 32.28-32.87 0-48.44-155.7-44.4-193.76-44.98c-38.06-.59-28.82 28.82-34.6 41.52s-4.05 20.76 0 34.6 22.49 31.14 24.22 48.44-5.19 39.2-13.84 55.36-38.06 41.52-38.06 41.52l-10.38-20.76-44.98 20.76s1.14-39.79 6.92-58.82 27.68-55.36 27.68-55.36-30.55 30.55-41.52 38.06c-10.97 7.5-10.97 6.33-24.22 6.92s-42.66-.59-55.36-3.46-14.98-11.52-20.76-13.84-13.84 0-13.84 0-5.78-5.78 0-13.84 20.17-23.63 34.6-34.6 27.68-24.22 51.9-31.14 71.52-2.87 93.42-10.38c21.9-7.5 32.28-25.95 38.06-34.6s13.84-11.52-3.46-17.3-42.66-16.71-100.34-17.3-202.41 14.43-245.66 13.84-11.52-12.11-13.84-17.3-13.25-9.24 0-13.84 37.47-9.24 79.58-13.84 134.35-4.05 173-13.84c38.65-9.8 48.44-35.74 58.82-44.98s3.46-10.38 3.46-10.38-65.15 2.32-93.42-3.46-62.28-23.63-76.12-31.14c-13.84-7.5-6.92-13.84-6.92-13.84s79 1.73 100.34 0 19.03-4.6 27.68-10.38 24.22-24.22 24.22-24.22-21.9 20.17-48.44 24.22-110.72 0-110.72 0-2.87-49.58 0-69.2 10.38-35.74 17.3-48.44-5.78-10.97 24.22-27.68 126.29-60.55 155.7-72.66 20.76 0 20.76 0v83.04s1.14-7.5 13.84-10.38a297 297 0 0 1 62.28-6.92c25.95 0 68.61 3.46 93.42 6.92 24.8 3.46 32.28 5.78 55.36 13.84s53.63 18.44 83.04 34.6 68.06 40.93 93.42 62.28 42.1 42.66 58.82 65.74a405 405 0 0 1 41.52 72.66c10.38 23.63 16.71 50.76 20.76 69.2s4.05 28.27 3.46 41.52-6.92 31.14-6.92 38.06-10.97 2.32 6.92 3.46 80.72 1.73 100.34 3.46 11.52 6.92 17.3 6.92 17.3-6.92 17.3-6.92-47.3-16.16-62.28-27.68-23.63-23.63-27.68-41.52 3.46-65.74 3.46-65.74 22.49-1.73 31.14 0 20.76 10.38 20.76 10.38l17.3-69.2s32.28 29.41 41.52 41.52 11.52 15.57 13.84 31.14 5.78 40.38 0 62.28-34.6 69.2-34.6 69.2l48.44 3.46V0zm449.8 532.84c-11.52-4.05-8.06.59-10.38 6.92s-1.14 23.08-3.46 31.14-10.38 17.3-10.38 17.3 15.57 6.92 27.68 6.92 35.74-1.73 44.98-6.92 10.38-24.22 10.38-24.22-47.3-27.1-58.82-31.14m-72.66 6.92c-4.6 1.73-13.84 4.05-20.76 10.38s-20.76 27.68-20.76 27.68 30-5.78 38.06-10.38 8.65-12.7 10.38-17.3 0-10.38 0-10.38-2.32-1.73-6.92 0m304.48 24.22c-19.62.59-34.6 3.46-55.36 13.84s-69.2 48.44-69.2 48.44 39.2 20.17 55.36 17.3 30.55-27.68 41.52-34.6 13.84-6.33 24.22-6.92 27.68 1.14 38.06 3.46 16.16 4.6 24.22 10.38 19.03 12.7 24.22 24.22-2.32 36.33 6.92 44.98 48.44 6.92 48.44 6.92 5.19-26.54 0-41.52-18.44-35.74-31.14-48.44-27.1-21.35-44.98-27.68c-17.89-6.33-42.66-10.97-62.28-10.38m0 76.12c-10.97 0-24.22 10.38-24.22 10.38s-9.24 2.87 3.46 6.92 72.66 17.3 72.66 17.3 1.73-9.8 0-13.84c-1.73-4.05-1.73-6.92-10.38-10.38s-30.55-10.38-41.52-10.38m-325.24 34.6s-6.92-1.14-13.84 10.38-27.68 58.82-27.68 58.82 20.76-16.16 27.68-27.68 13.84-41.52 13.84-41.52m290.64 24.22s-4.6 8.06-3.46 13.84 4.05 13.25 10.38 20.76c6.33 7.5 17.89 18.44 27.68 24.22 9.8 5.78 17.3 9.8 31.14 10.38s38.06-2.32 51.9-6.92 31.14-20.76 31.14-20.76-31.14-15.57-44.98-17.3-29.41 9.24-38.06 6.92-2.87-15.57-13.84-20.76-51.9-10.38-51.9-10.38"/><path fill="#00160c" d="M3.46 0 0 1079.52h1079.52l-3.46-294.1s-16.71 2.32-27.68 0-21.35-11.52-38.06-13.84-36.92 2.32-62.28 0-70.34-17.3-89.96-13.84-18.44 25.95-27.68 34.6-16.71 12.11-27.68 17.3-21.35 11.52-38.06 13.84-44.98 2.32-62.28 0-26.54-4.6-41.52-13.84-37.47-28.82-48.44-41.52-14.43-20.17-17.3-34.6 32.28-35.74 0-51.9-155.7-44.4-193.76-44.98c-38.06-.59-28.82 28.82-34.6 41.52s-2.32 26.54 0 34.6 9.8 6.33 13.84 13.84c4.05 7.5 10.97 16.16 10.38 31.14s-5.19 42.1-13.84 58.82-30.55 35.19-38.06 41.52c-7.5 6.33-5.78-.59-6.92-3.46s0-13.84 0-13.84l-48.44 17.3s2.32-40.93 6.92-58.82 20.76-48.44 20.76-48.44-24.8 24.8-34.6 31.14-9.24 6.92-24.22 6.92-50.76-4.05-65.74-6.92-20.17-6.33-24.22-10.38-10.38-2.32 0-13.84 46.12-43.84 62.28-55.36 14.43-9.8 34.6-13.84c20.17-4.05 66.33-3.46 86.5-10.38s29.41-23.08 34.6-31.14 13.84-11.52-3.46-17.3-42.66-16.71-100.34-17.3-201.82 15.57-245.66 13.84-14.98-19.03-17.3-24.22-13.84-2.87 3.46-6.92 58.23-12.7 100.34-17.3c42.1-4.6 117.64-1.73 152.24-10.38s44.98-32.28 55.36-41.52 6.92-13.84 6.92-13.84-71.52-1.14-93.42-3.46-24.22-4.05-38.06-10.38-37.47-21.9-44.98-27.68 0-6.92 0-6.92 74.98 2.32 96.88 0 25.36-8.06 34.6-13.84 20.76-20.76 20.76-20.76-21.35 20.17-48.44 24.22c-27.1 4.05-114.18 0-114.18 0s0-49.58 3.46-69.2 10.38-35.74 17.3-48.44-4.05-11.52 24.22-27.68 115.91-57.09 145.32-69.2 31.14-3.46 31.14-3.46v83.04s1.14-7.5 13.84-10.38a297 297 0 0 1 62.28-6.92c25.95 0 57.09-1.14 93.42 6.92s85.91 23.08 124.56 41.52 80.72 48.44 107.26 69.2 35.19 32.28 51.9 55.36 36.33 54.22 48.44 83.04 21.35 65.15 24.22 89.96-6.92 58.82-6.92 58.82 100.93 12.7 124.56 13.84 17.3-6.92 17.3-6.92-45.57-16.71-58.82-24.22-15.57-13.25-20.76-20.76c-5.19-7.5-9.24-9.24-10.38-24.22s3.46-65.74 3.46-65.74 25.95-1.73 34.6 0 17.3 10.38 17.3 10.38l17.3-69.2s32.28 29.41 41.52 41.52 11.52 15.57 13.84 31.14 5.78 40.38 0 62.28-34.6 69.2-34.6 69.2l48.44 3.46V0zm449.8 532.84c-11.52-4.05-8.06.59-10.38 6.92s-1.14 23.08-3.46 31.14-10.38 17.3-10.38 17.3 21.9 7.5 34.6 6.92 33.46-5.19 41.52-10.38 6.92-20.76 6.92-20.76-47.3-27.1-58.82-31.14m-72.66 6.92c-4.6 1.73-13.84 4.05-20.76 10.38s-20.76 27.68-20.76 27.68 10.38 2.32 17.3 0 19.03-9.24 24.22-13.84 5.78-9.8 6.92-13.84c1.14-4.05 0-10.38 0-10.38s-2.32-1.73-6.92 0m304.48 24.22c-16.16 1.73-34.6 3.46-55.36 13.84s-69.2 48.44-69.2 48.44 42.66 16.71 58.82 13.84 27.68-24.8 38.06-31.14 13.84-6.33 24.22-6.92 27.68 1.14 38.06 3.46 16.16 4.6 24.22 10.38 19.03 12.7 24.22 24.22-2.32 36.33 6.92 44.98 48.44 6.92 48.44 6.92 2.32-30 0-41.52-5.78-17.3-13.84-27.68-20.76-25.36-34.6-34.6-33.46-16.71-48.44-20.76-25.36-5.19-41.52-3.46m0 76.12c-10.97 0-24.22 10.38-24.22 10.38s-9.24 2.87 3.46 6.92 72.66 17.3 72.66 17.3 1.73-9.8 0-13.84c-1.73-4.05-1.73-6.92-10.38-10.38s-30.55-10.38-41.52-10.38m-325.24 38.06s-5.78-5.19-13.84 6.92-34.6 65.74-34.6 65.74 26.54-22.49 34.6-34.6 13.84-38.06 13.84-38.06m290.64 20.76s-6.92 13.84 0 24.22 25.95 30.55 41.52 38.06c15.57 7.5 34.01 10.38 51.9 6.92s55.36-27.68 55.36-27.68-31.14-15.57-44.98-17.3-28.82 9.24-38.06 6.92-6.33-15.57-17.3-20.76-48.44-10.38-48.44-10.38"/><path fill="#00140c" d="M3.46 0 0 1079.52h1079.52l-3.46-294.1s-176.46-29.41-217.98-27.68-17.89 27.68-31.14 38.06-27.1 19.62-48.44 24.22c-21.35 4.6-58.82 5.78-79.58 3.46s-32.28-10.38-44.98-17.3-21.35-12.11-31.14-24.22c-9.8-12.11-22.49-31.73-27.68-48.44s28.82-35.74-3.46-51.9-153.38-42.66-190.3-44.98-25.36 23.63-31.14 31.14c-5.78 7.5-2.87 6.33-3.46 13.84s-1.73 24.8 0 31.14 6.33-.59 10.38 6.92 12.11 25.95 13.84 38.06-.59 23.63-3.46 34.6-8.65 22.49-13.84 31.14-12.11 16.71-17.3 20.76-11.52 1.14-13.84 3.46 0 10.38 0 10.38h-10.38v-17.3l-51.9 17.3s2.32-31.73 6.92-48.44 20.76-51.9 20.76-51.9-35.74 25.95-51.9 31.14-28.82 4.05-44.98 0-51.9-24.22-51.9-24.22 5.19-13.25 17.3-24.22 42.1-32.87 55.36-41.52 5.19-6.92 24.22-10.38 69.2-3.46 89.96-10.38 28.82-23.63 34.6-31.14c5.78-7.5 17.89-8.06 0-13.84s-48.44-19.62-107.26-20.76-202.41 15.57-245.66 13.84-13.84-24.22-13.84-24.22.59-6.33 17.3-10.38 43.25-9.8 83.04-13.84c39.79-4.05 121.1-2.32 155.7-10.38s41.52-28.82 51.9-38.06 10.38-17.3 10.38-17.3-55.36 1.73-76.12 0-31.73-3.46-48.44-10.38-43.25-24.8-51.9-31.14 0-6.92 0-6.92 73.25 3.46 96.88 0 35.74-14.98 44.98-20.76 10.38-13.84 10.38-13.84-21.35 20.17-48.44 24.22c-27.1 4.05-114.18 0-114.18 0s0-53.04 3.46-72.66 10.38-32.87 17.3-44.98-5.19-10.97 24.22-27.68 122.83-60.55 152.24-72.66 24.22 0 24.22 0v83.04s1.14-7.5 13.84-10.38c12.7-2.87 33.46-7.5 62.28-6.92s76.7 3.46 110.72 10.38 59.4 14.98 93.42 31.14c34.01 16.16 81.9 43.84 110.72 65.74s43.25 39.79 62.28 65.74 39.79 61.14 51.9 89.96 18.44 59.4 20.76 83.04c2.32 23.63-6.92 58.82-6.92 58.82s89.96 4.6 110.72 6.92 8.65 6.92 13.84 6.92 17.3-6.92 17.3-6.92-54.22-19.62-69.2-31.14-17.89-20.76-20.76-38.06 3.46-65.74 3.46-65.74 25.95-1.73 34.6 0 17.3 10.38 17.3 10.38 10.38-57.68 13.84-69.2-.59-6.92 6.92 0 29.41 30 38.06 41.52 11.52 12.11 13.84 27.68 5.78 43.25 0 65.74-34.6 69.2-34.6 69.2l48.44 3.46V0zm449.8 532.84c-11.52-4.6-6.92-2.32-10.38 6.92S432.5 588.2 432.5 588.2s25.36 6.92 31.14 6.92-3.46-5.19 3.46-6.92 30.55 0 38.06-3.46c7.5-3.46 6.92-17.3 6.92-17.3s-47.3-30-58.82-34.6m-72.66 6.92c-5.19 2.32-17.3 7.5-24.22 13.84s-17.3 24.22-17.3 24.22 13.25 1.73 17.3 0 2.87-8.06 6.92-10.38 13.25-.59 17.3-3.46 5.78-9.8 6.92-13.84c1.14-4.05 0-10.38 0-10.38s-1.73-2.32-6.92 0m304.48 24.22c-15.57 1.73-31.14 3.46-51.9 13.84s-72.66 48.44-72.66 48.44 44.4 16.16 58.82 13.84 13.25-21.35 27.68-27.68 43.25-10.38 58.82-10.38 25.36 5.78 34.6 10.38 14.98 9.8 20.76 17.3 11.52 18.44 13.84 27.68 0 27.68 0 27.68l48.44 6.92s1.14-38.06-6.92-55.36-26.54-36.92-41.52-48.44-33.46-16.71-48.44-20.76-25.95-5.19-41.52-3.46m0 76.12c-10.97 0-24.22 10.38-24.22 10.38s-9.24 2.87 3.46 6.92 72.66 17.3 72.66 17.3 1.73-9.8 0-13.84c-1.73-4.05-1.73-6.92-10.38-10.38s-30.55-10.38-41.52-10.38m-328.7 41.52s-9.8 3.46-13.84 10.38c-4.05 6.92-4.6 20.17-10.38 31.14s-24.22 34.6-24.22 34.6 30-28.82 38.06-41.52 10.38-34.6 10.38-34.6m294.1 17.3s-6.92 13.84 0 24.22 26.54 30.55 41.52 38.06c14.98 7.5 35.74 6.92 48.44 6.92s18.44-2.32 27.68-6.92 27.68-20.76 27.68-20.76-31.73-15.57-44.98-17.3-27.1 8.65-34.6 6.92.59-12.11-10.38-17.3-55.36-13.84-55.36-13.84"/></g></svg>