<svg xmlns="http://www.w3.org/2000/svg" width="1080" height="1080" style="width:100%;height:auto;display:block" viewBox="0 0 1080 1080"><rect height="100%" fill="#21ad59"/><g fill-rule="evenodd"><path fill="#000500" d="M3.46 0 0 1079.52h1079.52l-3.46-294.1s-176.46-29.41-217.98-27.68-17.89 27.68-31.14 38.06-27.1 19.62-48.44 24.22c-21.35 4.6-58.82 5.78-79.58 3.46s-31.73-9.8-44.98-17.3-24.8-15.57-34.6-27.68-19.62-28.82-24.22-44.98 28.82-35.74-3.46-51.9-152.83-44.4-190.3-44.98c-37.47-.59-28.82 28.82-34.6 41.52s-4.05 21.35 0 34.6 20.17 33.46 24.22 44.98 2.32 13.84 0 24.22-5.78 25.36-13.84 38.06-34.6 38.06-34.6 38.06-7.5-17.89-17.3-17.3-41.52 20.76-41.52 20.76 2.32-37.47 6.92-55.36 20.76-51.9 20.76-51.9-21.35 21.35-31.14 27.68c-9.8 6.33-16.16 8.65-27.68 10.38s-27.1 2.87-41.52 0-36.92-12.7-44.98-17.3-8.65-2.32-3.46-10.38 21.9-27.1 34.6-38.06 30-21.35 41.52-27.68 10.97-8.06 27.68-10.38 53.63 2.87 72.66-3.46 34.6-25.95 41.52-34.6 0-17.3 0-17.3-80.72-19.62-124.56-20.76-100.34 11.52-138.4 13.84-72.66 3.46-89.96 0-13.84-20.76-13.84-20.76-5.78-5.78 13.84-10.38 64.01-13.25 103.8-17.3 101.48 2.87 134.94-6.92c33.46-9.8 54.77-42.1 65.74-51.9s0-6.92 0-6.92-65.15 1.73-86.5 0-27.1-4.6-41.52-10.38-36.92-18.44-44.98-24.22-3.46-10.38-3.46-10.38 72.07 2.32 93.42 0 24.8-7.5 34.6-13.84 24.22-24.22 24.22-24.22-19.03 19.62-44.98 24.22-91.1 3.46-110.72 3.46-6.33 9.24-6.92-3.46 0-53.04 3.46-72.66 10.97-33.46 17.3-44.98-9.24-7.5 20.76-24.22S316.59 247.98 346 235.28s17.3 0 17.3 0l3.46 83.04s24.8-11.52 44.98-13.84 46.71-2.87 76.12 0 65.15 6.33 100.34 17.3 78.44 30 110.72 48.44 62.28 43.84 83.04 62.28 26.54 25.95 41.52 48.44 37.47 61.7 48.44 86.5 14.98 39.2 17.3 62.28-4.05 62.87-3.46 76.12-10.38 2.32 6.92 3.46 77.85 1.73 96.88 3.46 10.97 6.92 17.3 6.92 20.76-6.92 20.76-6.92-55.36-23.08-69.2-31.14-9.8-8.06-13.84-17.3c-4.05-9.24-9.8-23.63-10.38-38.06s6.92-48.44 6.92-48.44l51.9 6.92s7.5-51.31 10.38-62.28c2.87-10.97-1.14-10.38 6.92-3.46s32.28 32.28 41.52 44.98 11.52 17.3 13.84 31.14 5.78 30.55 0 51.9-34.6 76.12-34.6 76.12l48.44 3.46V0zm449.8 532.84c-11.52-4.6-6.33-2.87-10.38 6.92-4.05 9.8-13.84 51.9-13.84 51.9s31.14 4.05 38.06 3.46-2.32-5.78 3.46-6.92 24.22 3.46 31.14 0 10.38-20.76 10.38-20.76-47.3-30-58.82-34.6m-69.2 6.92s-9.8.59-17.3 6.92-27.68 31.14-27.68 31.14l17.3 3.46s-3.46-4.6 0-6.92 15.57-2.87 20.76-6.92 9.24-12.7 10.38-17.3-3.46-10.38-3.46-10.38M692 563.98c-17.89 0-34.6 4.05-51.9 10.38s-38.65 19.03-51.9 27.68-27.68 24.22-27.68 24.22 40.38 19.62 55.36 17.3 17.89-24.8 34.6-31.14 49.58-8.06 65.74-6.92 21.9 6.92 31.14 13.84 19.62 16.71 24.22 27.68-5.19 30 3.46 38.06 48.44 10.38 48.44 10.38 3.46-28.27 0-41.52-12.7-27.1-20.76-38.06-18.44-20.76-27.68-27.68-13.84-9.8-27.68-13.84c-13.84-4.05-37.47-10.38-55.36-10.38m-3.46 76.12c-10.97 0-23.08 7.5-27.68 10.38-4.6 2.87-12.7 2.87 0 6.92s76.12 17.3 76.12 17.3 1.73-9.8 0-13.84c-1.73-4.05-2.32-6.92-10.38-10.38s-27.1-10.38-38.06-10.38m-328.7 38.06s-9.24 1.14-17.3 13.84-31.14 62.28-31.14 62.28 26.54-21.9 34.6-34.6 13.84-41.52 13.84-41.52m287.18 20.76s-1.14 19.03 3.46 27.68 13.84 17.3 24.22 24.22 21.9 15.57 38.06 17.3 44.4-2.32 58.82-6.92 27.68-20.76 27.68-20.76-34.6-15.57-48.44-17.3-25.95 9.24-34.6 6.92-5.78-15.57-17.3-20.76-51.9-10.38-51.9-10.38"/><path fill="#000200" d="M3.46 0 0 1079.52h1079.52l-3.46-294.1s-176.46-29.41-217.98-27.68-17.89 27.68-31.14 38.06-27.1 19.62-48.44 24.22c-21.35 4.6-58.82 5.78-79.58 3.46s-31.14-9.24-44.98-17.3-28.27-19.03-38.06-31.14a109 109 0 0 1-20.76-41.52c-4.05-15.57 28.82-35.74-3.46-51.9s-153.38-42.66-190.3-44.98-25.36 23.63-31.14 31.14c-5.78 7.5-2.87 6.33-3.46 13.84s-4.05 18.44 0 31.14 20.17 33.46 24.22 44.98 2.32 13.84 0 24.22-5.78 25.36-13.84 38.06-34.6 38.06-34.6 38.06-7.5-17.89-17.3-17.3-41.52 20.76-41.52 20.76 5.78-51.31 10.38-69.2 17.3-38.06 17.3-38.06-21.35 21.35-31.14 27.68c-9.8 6.33-16.16 8.65-27.68 10.38s-27.1 2.87-41.52 0-36.92-12.7-44.98-17.3-8.65-2.32-3.46-10.38 21.9-27.1 34.6-38.06 30-21.35 41.52-27.68 10.97-8.06 27.68-10.38 55.36 1.14 72.66-3.46 24.22-15.57 31.14-24.22 10.38-27.68 10.38-27.68-81.31-19.62-124.56-20.76-96.88 11.52-134.94 13.84-75.53 3.46-93.42 0-13.84-20.76-13.84-20.76-5.78-5.78 13.84-10.38 69.79-12.7 103.8-17.3 77.85-9.24 100.34-10.38 18.44 10.97 34.6 3.46c16.16-7.5 51.31-38.65 62.28-48.44 10.97-9.8 3.46-10.38 3.46-10.38s-40.93 5.19-62.28 3.46-47.3-7.5-65.74-13.84-36.92-18.44-44.98-24.22-3.46-10.38-3.46-10.38 72.07 2.32 93.42 0 24.8-7.5 34.6-13.84 24.22-24.22 24.22-24.22-18.44 19.62-44.98 24.22-114.18 3.46-114.18 3.46-2.87-55.95 0-76.12 10.97-33.46 17.3-44.98-9.24-7.5 20.76-24.22S316 247.98 346 235.28s20.76 0 20.76 0v83.04s24.8-11.52 44.98-13.84 46.71-2.87 76.12 0 65.15 6.33 100.34 17.3 80.17 31.73 110.72 48.44 50.17 31.14 72.66 51.9 45.57 48.44 62.28 72.66 28.82 50.76 38.06 72.66 14.98 35.74 17.3 58.82-4.05 65.74-3.46 79.58-10.38 2.32 6.92 3.46 77.85 1.73 96.88 3.46 10.97 6.92 17.3 6.92 20.76-6.92 20.76-6.92-51.9-19.62-65.74-27.68-12.7-11.52-17.3-20.76-9.24-20.17-10.38-34.6 3.46-51.9 3.46-51.9 25.95-1.73 34.6 0 17.3 10.38 17.3 10.38 10.38-54.22 13.84-65.74-1.73-10.97 6.92-3.46c8.65 7.5 35.74 35.74 44.98 48.44s9.24 12.11 10.38 27.68 2.32 44.4-3.46 65.74c-5.78 21.35-31.14 62.28-31.14 62.28l48.44 3.46V0zm449.8 532.84c-11.52-4.6-6.33-2.87-10.38 6.92-4.05 9.8-13.84 51.9-13.84 51.9s31.14 4.05 38.06 3.46-2.32-5.78 3.46-6.92 24.22 3.46 31.14 0 10.38-20.76 10.38-20.76-47.3-30-58.82-34.6m-69.2 6.92s-9.8.59-17.3 6.92-27.68 31.14-27.68 31.14l17.3 3.46s-3.46-4.6 0-6.92 15.57-2.87 20.76-6.92 9.24-12.7 10.38-17.3-3.46-10.38-3.46-10.38M692 563.98c-19.03.59-36.92 3.46-58.82 13.84s-72.66 48.44-72.66 48.44 43.25 17.89 55.36 17.3 8.65-14.43 17.3-20.76 20.76-14.43 34.6-17.3 35.74-1.73 48.44 0 18.44 3.46 27.68 10.38 22.49 19.62 27.68 31.14-5.19 30 3.46 38.06 48.44 10.38 48.44 10.38 3.46-28.27 0-41.52-12.7-27.1-20.76-38.06-18.44-20.76-27.68-27.68-13.84-9.8-27.68-13.84c-13.84-4.05-36.33-10.97-55.36-10.38m-3.46 76.12c-9.8-.59-16.16 4.05-20.76 6.92s-6.92 10.38-6.92 10.38l76.12 17.3s1.73-9.8 0-13.84c-1.73-4.05-2.32-6.92-10.38-10.38s-28.27-9.8-38.06-10.38m-328.7 38.06s-9.24 1.14-17.3 13.84-31.14 62.28-31.14 62.28 23.08-18.44 31.14-31.14 17.3-44.98 17.3-44.98m287.18 20.76s-1.14 19.03 3.46 27.68 13.84 17.3 24.22 24.22 25.95 14.43 38.06 17.3 20.17 4.6 34.6 0 51.9-27.68 51.9-27.68-34.6-15.57-48.44-17.3-27.1 8.65-34.6 6.92 1.14-12.11-10.38-17.3-58.82-13.84-58.82-13.84"/><path d="M3.46 0 0 1079.52h1079.52l-3.46-294.1s-173-31.73-217.98-27.68-36.92 40.93-51.9 51.9-19.62 11.52-38.06 13.84-54.22 2.32-72.66 0-24.22-5.19-38.06-13.84-34.6-25.95-44.98-38.06-14.43-20.17-17.3-34.6 32.28-35.74 0-51.9-156.29-42.1-193.76-44.98-25.36 20.76-31.14 27.68-2.87 6.33-3.46 13.84-4.05 19.03 0 31.14 21.9 24.22 24.22 41.52-2.32 44.98-10.38 62.28-30 35.19-38.06 41.52-8.06-.59-10.38-3.46-3.46-13.84-3.46-13.84l-44.98 20.76s5.78-54.77 10.38-72.66 17.3-34.6 17.3-34.6-14.98 17.89-24.22 24.22-18.44 11.52-31.14 13.84-28.82 4.05-44.98 0-51.9-24.22-51.9-24.22 27.1-32.87 41.52-44.98 21.9-21.35 44.98-27.68 73.25-5.19 93.42-10.38 20.76-14.43 27.68-20.76q10.37-9.5 13.84-17.3c2.32-5.19 0-13.84 0-13.84s-72.66-20.17-128.02-20.76S86.5 627.4 48.44 629.72s-18.44.59-24.22-3.46-8.65-16.16-10.38-20.76-4.6-4.6 0-6.92 8.65-3.46 27.68-6.92 55.36-9.8 86.5-13.84c31.14-4.05 77.26-9.24 100.34-10.38s21.9 10.38 38.06 3.46 47.85-35.19 58.82-44.98c10.97-9.8 6.92-13.84 6.92-13.84s-68.06 1.73-89.96 0-27.68-4.6-41.52-10.38-34.01-18.44-41.52-24.22c-7.5-5.78-3.46-10.38-3.46-10.38s72.07 2.32 93.42 0 24.8-7.5 34.6-13.84 24.22-24.22 24.22-24.22-35.74 23.08-62.28 27.68-96.88 0-96.88 0-2.87-55.95 0-76.12 10.38-32.87 17.3-44.98-5.78-10.97 24.22-27.68 126.29-60.55 155.7-72.66 20.76 0 20.76 0v83.04s24.8-11.52 44.98-13.84 48.44-2.32 76.12 0 58.82 5.19 89.96 13.84 65.15 21.35 96.88 38.06 66.88 39.2 93.42 62.28 48.44 51.31 65.74 76.12c17.3 24.8 28.82 50.76 38.06 72.66s14.98 35.74 17.3 58.82-4.05 65.74-3.46 79.58-10.97 2.32 6.92 3.46 80.72 1.73 100.34 3.46 11.52 6.92 17.3 6.92 17.3-6.92 17.3-6.92-52.49-20.76-65.74-27.68-9.24-4.6-13.84-13.84-12.11-25.95-13.84-41.52 3.46-51.9 3.46-51.9 25.95-1.73 34.6 0 17.3 10.38 17.3 10.38 10.38-57.68 13.84-69.2-.59-6.33 6.92 0 28.82 25.36 38.06 38.06 14.43 22.49 17.3 38.06 5.78 34.01 0 55.36-34.6 72.66-34.6 72.66l48.44 3.46V0zm449.8 532.84c-11.52-4.6-6.92-2.32-10.38 6.92S432.5 588.2 432.5 588.2s9.24 6.92 20.76 6.92 38.65-2.32 48.44-6.92c9.8-4.6 10.38-20.76 10.38-20.76s-47.3-30-58.82-34.6m-69.2 6.92s-13.84 4.05-20.76 10.38-20.76 27.68-20.76 27.68 31.14-7.5 38.06-13.84 3.46-24.22 3.46-24.22m311.4 24.22c-18.44.59-39.79 3.46-62.28 13.84s-72.66 48.44-72.66 48.44 44.4 17.3 55.36 17.3 1.73-10.97 10.38-17.3 26.54-17.3 41.52-20.76 35.74-1.73 48.44 0 19.03 4.6 27.68 10.38 19.03 12.7 24.22 24.22-2.32 36.33 6.92 44.98 48.44 6.92 48.44 6.92 4.05-24.8 0-38.06c-4.05-13.25-10.97-28.27-24.22-41.52s-38.06-30-55.36-38.06-30-10.97-48.44-10.38m-6.92 76.12c-10.38 1.14-27.68 17.3-27.68 17.3l76.12 17.3s2.32-9.8 0-13.84c-2.32-4.05-5.78-6.92-13.84-10.38s-24.22-11.52-34.6-10.38m-328.7 38.06s-9.24 1.14-17.3 13.84-31.14 62.28-31.14 62.28 23.08-18.44 31.14-31.14 17.3-44.98 17.3-44.98m287.18 20.76s4.05 24.8 10.38 34.6 18.44 18.44 27.68 24.22 17.3 8.65 27.68 10.38 20.17 4.6 34.6 0 51.9-27.68 51.9-27.68-36.92-16.16-48.44-17.3-14.43 9.24-20.76 10.38-13.25 0-17.3-3.46 4.05-12.11-6.92-17.3-58.82-13.84-58.82-13.84"/></g></svg>