<svg xmlns="http://www.w3.org/2000/svg" width="1080" height="1080" style="width:100%;height:auto;display:block" viewBox="0 0 1080 1080"><rect height="100%" fill="#38c376"/><g fill-rule="evenodd"><path fill="#1c8646" d="M3.46 0 0 1079.52h1079.52s17.3-258.91 0-314.86-69.2-16.16-103.8-20.76-103.8-6.92-103.8-6.92l6.92-27.68 200.68 20.76V0zm349.46 238.74c28.27-11.52 8.65-10.97 10.38 3.46s0 83.04 0 83.04 27.1-14.43 48.44-17.3c21.35-2.87 49.03-3.46 79.58 0s68.61 9.24 103.8 20.76 78.44 32.28 107.26 48.44 48.44 33.46 65.74 48.44 28.82 30.55 38.06 41.52 14.43 16.16 17.3 24.22 1.73 16.71 0 24.22-10.38 20.76-10.38 20.76l-48.44-44.98v65.74s-27.68-13.25-48.44-13.84-49.03-2.87-76.12 10.38-72.07 56.5-86.5 69.2-8.65 2.87 0 6.92 40.93 14.43 51.9 17.3 6.92 4.6 13.84 0 17.3-21.35 27.68-27.68 21.9-9.24 34.6-10.38 32.28.59 41.52 3.46 9.8 11.52 13.84 13.84c4.05 2.32 5.78-4.05 10.38 0s13.84 13.25 17.3 24.22 3.46 41.52 3.46 41.52l10.38-3.46 3.46 10.38-17.3-3.46s0 9.24-3.46 13.84-9.24 11.52-17.3 13.84-25.36 2.32-31.14 0-3.46-13.84-3.46-13.84 7.5 8.06 13.84 6.92 19.03-9.24 24.22-13.84 6.33-6.33 6.92-13.84 1.73-21.35-3.46-31.14c-5.19-9.8-14.98-22.49-27.68-27.68s-37.47-5.19-48.44-3.46-12.7 7.5-17.3 13.84-10.38 24.22-10.38 24.22-5.19-9.24 10.38-6.92 69.2 15.57 83.04 20.76 3.46 6.33 0 10.38-14.43 11.52-20.76 13.84-4.6 2.87-17.3 0-58.82-17.3-58.82-17.3-8.65 15.57-3.46 27.68 24.22 35.19 34.6 44.98c10.38 9.8 12.11 12.11 27.68 13.84s65.74-3.46 65.74-3.46v31.14s-40.93 6.33-58.82 3.46-34.6-11.52-48.44-20.76-25.95-23.63-34.6-34.6-13.84-17.3-17.3-31.14-3.46-51.9-3.46-51.9-2.32 8.65-13.84 6.92-46.12-12.11-55.36-17.3 0-13.84 0-13.84l-38.06 10.38 10.38-31.14-89.96-3.46s-1.73-17.89 6.92-20.76 31.14 4.6 44.98 3.46 30-.59 38.06-10.38 17.89-35.74 10.38-48.44-42.66-25.95-55.36-27.68-15.57 9.24-20.76 17.3-1.73 25.95-10.38 31.14-41.52 0-41.52 0L380.6 408.28s14.43 11.52-6.92 13.84-97.47-1.73-121.1 0-11.52 9.24-20.76 10.38-28.27-1.73-34.6-3.46 4.6-5.78-3.46-6.92-44.98 0-44.98 0 2.87-43.84 10.38-62.28c7.5-18.44 2.32-28.27 34.6-48.44s130.9-61.14 159.16-72.66M249.12 467.1c7.5-.59 13.84 0 13.84 0s-5.78 8.65-13.84 10.38-34.6 0-34.6 0-2.32-5.19 3.46-6.92 23.63-2.87 31.14-3.46M190.3 574.36c36.33-5.19 48.44 0 48.44 0s19.03 4.05-13.84 10.38-183.38 27.68-183.38 27.68l6.92 10.38s-12.7 2.87-17.3 0-10.38-17.3-10.38-17.3 133.21-25.95 169.54-31.14m141.86 6.92c10.38-.59 45.57 1.14 55.36 3.46 9.8 2.32 3.46 10.38 3.46 10.38s-18.44 9.8-34.6 10.38-62.28-6.92-62.28-6.92v-13.84s24.8 4.05 31.14 3.46-3.46-6.33 6.92-6.92m612.42 10.38s6.33-3.46 6.92 6.92-3.46 55.36-3.46 55.36-6.33-6.92-6.92-17.3 3.46-44.98 3.46-44.98M311.4 688.54l24.22 3.46-24.22 10.38z"/><path fill="#001b0f" d="M3.46 0 0 1079.52h1079.52l-3.46-294.1s-30.55-1.14-41.52-3.46-9.8-8.65-24.22-10.38c-14.43-1.73-36.92 2.32-62.28 0s-70.34-17.3-89.96-13.84-14.43 24.22-27.68 34.6-27.68 23.08-51.9 27.68-68.61 5.19-93.42 0c-24.8-5.19-42.66-21.9-55.36-31.14s-14.98-14.98-20.76-24.22-10.97-17.3-13.84-31.14 28.82-35.74-3.46-51.9-152.83-44.4-190.3-44.98c-37.47-.59-28.82 28.82-34.6 41.52s-4.05 21.35 0 34.6 20.17 33.46 24.22 44.98 2.32 13.84 0 24.22-5.78 25.36-13.84 38.06-34.6 38.06-34.6 38.06-7.5-17.89-17.3-17.3-41.52 20.76-41.52 20.76 1.73-36.92 6.92-55.36 24.22-55.36 24.22-55.36-13.84 17.3-24.22 24.22-23.08 14.98-38.06 17.3-36.92 0-51.9-3.46-31.73-13.25-38.06-17.3-5.78.59 0-6.92 23.08-27.68 34.6-38.06a163 163 0 0 1 34.6-24.22c12.11-6.33 19.03-10.38 38.06-13.84s57.68-.59 76.12-6.92 28.82-23.08 34.6-31.14 0-17.3 0-17.3-79.58-19.62-124.56-20.76-107.26 11.52-145.32 13.84-67.47 2.32-83.04 0-8.65-9.24-10.38-13.84-4.6-10.38 0-13.84-2.32-2.32 27.68-6.92 115.32-17.3 152.24-20.76 46.71 8.65 69.2 0 54.77-42.1 65.74-51.9 0-6.92 0-6.92-27.1 5.19-48.44 3.46c-21.35-1.73-58.23-6.92-79.58-13.84s-40.38-21.9-48.44-27.68 0-6.92 0-6.92 72.07 2.32 93.42 0 24.8-7.5 34.6-13.84 24.22-24.22 24.22-24.22-19.03 19.62-44.98 24.22-91.1 3.46-110.72 3.46-6.33 9.24-6.92-3.46 0-53.04 3.46-72.66 10.97-33.46 17.3-44.98-9.24-7.5 20.76-24.22S316.59 247.98 346 235.28s17.3 0 17.3 0l3.46 83.04s24.8-11.52 44.98-13.84 47.3-2.87 76.12 0 61.7 6.33 96.88 17.3c35.19 10.97 81.31 30 114.18 48.44s61.14 42.1 83.04 62.28 34.01 37.47 48.44 58.82 28.27 46.12 38.06 69.2 17.3 47.3 20.76 69.2 1.14 50.17 0 62.28-6.92 7.5-6.92 10.38c0 2.87-13.84 4.05 6.92 6.92s94.56 9.8 117.64 10.38 20.76-6.92 20.76-6.92-54.22-20.17-69.2-31.14-17.3-17.89-20.76-34.6 0-65.74 0-65.74 22.49-4.6 31.14-3.46 20.76 10.38 20.76 10.38 10.38-54.22 13.84-65.74-1.14-10.38 6.92-3.46 32.28 31.73 41.52 44.98 11.52 20.76 13.84 34.6 5.78 27.68 0 48.44-34.6 76.12-34.6 76.12l48.44 3.46V0zm449.8 532.84c-11.52-4.6-6.33-2.87-10.38 6.92-4.05 9.8-13.84 51.9-13.84 51.9s30.55 4.05 38.06 3.46c7.5-.59 1.14-5.78 6.92-6.92s21.35 3.46 27.68 0 10.38-20.76 10.38-20.76-47.3-30-58.82-34.6m-72.66 6.92c-8.06 6.33-41.52 38.06-41.52 38.06l17.3 3.46s-3.46-4.6 0-6.92 15.57-2.87 20.76-6.92 8.65-12.7 10.38-17.3 0-10.38 0-10.38 1.14-6.33-6.92 0M692 563.98c-23.08 2.32-61.14 13.84-83.04 24.22s-48.44 38.06-48.44 38.06 40.38 19.62 55.36 17.3 17.89-24.8 34.6-31.14 47.3-10.38 65.74-6.92 35.19 18.44 44.98 27.68c9.8 9.24 11.52 19.03 13.84 27.68s-8.06 18.44 0 24.22 48.44 10.38 48.44 10.38 2.32-32.87 0-44.98-5.78-17.3-13.84-27.68-24.22-26.54-34.6-34.6-13.84-9.8-27.68-13.84c-13.84-4.05-32.28-12.7-55.36-10.38m-6.92 76.12c-10.97 0-20.17 7.5-24.22 10.38-4.05 2.87-12.7 2.87 0 6.92s76.12 17.3 76.12 17.3 1.73-9.8 0-13.84c-1.73-4.05-1.73-6.92-10.38-10.38s-30.55-10.38-41.52-10.38m-325.24 38.06s-9.8 1.73-17.3 13.84-27.68 58.82-27.68 58.82 23.63-19.03 31.14-31.14c7.5-12.11 13.84-41.52 13.84-41.52m287.18 20.76s-2.32 10.38 0 17.3 6.92 16.71 13.84 24.22 19.03 16.16 27.68 20.76 10.38 6.92 24.22 6.92 44.4-2.32 58.82-6.92 27.68-20.76 27.68-20.76-34.6-15.57-48.44-17.3-25.95 9.24-34.6 6.92-5.78-15.57-17.3-20.76-51.9-10.38-51.9-10.38"/><path fill="#001a0e" d="M3.46 0 0 1079.52h1079.52l-3.46-294.1s-176.46-29.41-217.98-27.68-17.89 27.68-31.14 38.06-27.1 19.62-48.44 24.22c-21.35 4.6-58.82 5.78-79.58 3.46s-31.73-9.8-44.98-17.3-24.8-15.57-34.6-27.68-19.62-28.82-24.22-44.98 28.82-35.74-3.46-51.9-152.83-44.4-190.3-44.98c-37.47-.59-28.82 28.82-34.6 41.52s-4.05 21.35 0 34.6 20.17 33.46 24.22 44.98 2.32 13.84 0 24.22-5.78 25.36-13.84 38.06-34.6 38.06-34.6 38.06-7.5-17.89-17.3-17.3-41.52 20.76-41.52 20.76 2.32-37.47 6.92-55.36 20.76-51.9 20.76-51.9-21.35 21.35-31.14 27.68c-9.8 6.33-16.16 8.65-27.68 10.38s-27.1 2.87-41.52 0-36.92-12.7-44.98-17.3-8.65-2.32-3.46-10.38 23.08-27.68 34.6-38.06 23.08-17.89 34.6-24.22 16.71-10.97 34.6-13.84 53.63 2.87 72.66-3.46 34.6-25.95 41.52-34.6 0-17.3 0-17.3-80.17-19.62-124.56-20.76-103.8 11.52-141.86 13.84-69.79 3.46-86.5 0-13.84-20.76-13.84-20.76-6.33-5.78 13.84-10.38 67.47-13.25 107.26-17.3 98.61 2.87 131.48-6.92c32.87-9.8 54.77-42.1 65.74-51.9s0-6.92 0-6.92-34.01 5.19-55.36 3.46-52.49-6.92-72.66-13.84-40.38-21.9-48.44-27.68 0-6.92 0-6.92 72.07 2.32 93.42 0 24.8-7.5 34.6-13.84 24.22-24.22 24.22-24.22-19.03 19.62-44.98 24.22-91.1 3.46-110.72 3.46-6.33 9.24-6.92-3.46 0-53.04 3.46-72.66 10.97-33.46 17.3-44.98-9.24-7.5 20.76-24.22S316.59 247.98 346 235.28s17.3 0 17.3 0l3.46 83.04s24.8-11.52 44.98-13.84 46.71-2.87 76.12 0 65.15 6.33 100.34 17.3 78.44 30 110.72 48.44 61.14 42.1 83.04 62.28 34.01 37.47 48.44 58.82 28.27 46.12 38.06 69.2 17.89 44.98 20.76 69.2-4.05 62.87-3.46 76.12-10.38 2.32 6.92 3.46 77.85 1.73 96.88 3.46 10.97 6.92 17.3 6.92 20.76-6.92 20.76-6.92-54.22-20.17-69.2-31.14-17.3-17.89-20.76-34.6 0-65.74 0-65.74 22.49-4.6 31.14-3.46 20.76 10.38 20.76 10.38 10.38-54.22 13.84-65.74-1.14-10.38 6.92-3.46 32.28 31.73 41.52 44.98 11.52 20.76 13.84 34.6 5.78 27.68 0 48.44-34.6 76.12-34.6 76.12l48.44 3.46V0zm449.8 532.84c-11.52-4.6-6.33-2.87-10.38 6.92-4.05 9.8-13.84 51.9-13.84 51.9s31.14 4.05 38.06 3.46-2.32-5.78 3.46-6.92 24.22 3.46 31.14 0 10.38-20.76 10.38-20.76-47.3-30-58.82-34.6m-69.2 6.92s-9.8.59-17.3 6.92-27.68 31.14-27.68 31.14l17.3 3.46s-3.46-4.6 0-6.92 15.57-2.87 20.76-6.92 9.24-12.7 10.38-17.3-3.46-10.38-3.46-10.38M692 563.98c-23.08 2.32-61.14 13.84-83.04 24.22s-48.44 38.06-48.44 38.06 40.38 19.62 55.36 17.3 17.89-24.8 34.6-31.14 49.58-8.06 65.74-6.92 21.9 6.92 31.14 13.84 19.62 16.71 24.22 27.68-5.19 30 3.46 38.06 48.44 10.38 48.44 10.38 2.87-28.82 0-41.52-9.24-23.63-17.3-34.6-21.35-23.63-31.14-31.14c-9.8-7.5-13.84-9.8-27.68-13.84-13.84-4.05-32.28-12.7-55.36-10.38m-6.92 76.12c-10.97 0-20.17 7.5-24.22 10.38-4.05 2.87-12.7 2.87 0 6.92s76.12 17.3 76.12 17.3 1.73-9.8 0-13.84c-1.73-4.05-1.73-6.92-10.38-10.38s-30.55-10.38-41.52-10.38m-325.24 38.06s-9.24 1.14-17.3 13.84-31.14 62.28-31.14 62.28 26.54-21.9 34.6-34.6 13.84-41.52 13.84-41.52m287.18 20.76s-2.32 10.38 0 17.3 2.87 15.57 13.84 24.22 33.46 24.22 51.9 27.68 44.4-2.32 58.82-6.92 27.68-20.76 27.68-20.76-34.6-15.57-48.44-17.3-25.95 9.24-34.6 6.92-5.78-15.57-17.3-20.76-51.9-10.38-51.9-10.38"/><path fill="#00180d" d="M3.46 0 0 1079.52h1079.52l-3.46-294.1s-176.46-29.41-217.98-27.68-17.89 27.68-31.14 38.06-27.1 19.62-48.44 24.22c-21.35 4.6-58.82 5.78-79.58 3.46s-31.73-9.8-44.98-17.3-24.8-15.57-34.6-27.68-19.62-28.82-24.22-44.98 28.82-35.74-3.46-51.9-152.83-44.4-190.3-44.98c-37.47-.59-28.82 28.82-34.6 41.52s-4.05 21.35 0 34.6 20.17 33.46 24.22 44.98 2.32 13.84 0 24.22-5.78 25.36-13.84 38.06-34.6 38.06-34.6 38.06-7.5-17.89-17.3-17.3-41.52 20.76-41.52 20.76 2.32-37.47 6.92-55.36 20.76-51.9 20.76-51.9-21.35 21.35-31.14 27.68c-9.8 6.33-16.16 8.65-27.68 10.38s-27.1 2.87-41.52 0-36.92-12.7-44.98-17.3-8.65-2.32-3.46-10.38 21.9-27.1 34.6-38.06 30-21.35 41.52-27.68 10.97-8.06 27.68-10.38 53.63 2.87 72.66-3.46 34.6-25.95 41.52-34.6 0-17.3 0-17.3-80.72-19.62-124.56-20.76-100.34 11.52-138.4 13.84-72.66 3.46-89.96 0-13.84-20.76-13.84-20.76-5.78-5.78 13.84-10.38 64.01-13.25 103.8-17.3 101.48 2.87 134.94-6.92c33.46-9.8 54.77-42.1 65.74-51.9s0-6.92 0-6.92-65.15 1.73-86.5 0-27.1-4.6-41.52-10.38-36.92-18.44-44.98-24.22-3.46-10.38-3.46-10.38 72.07 2.32 93.42 0 24.8-7.5 34.6-13.84 24.22-24.22 24.22-24.22-19.03 19.62-44.98 24.22-91.1 3.46-110.72 3.46-6.33 9.24-6.92-3.46 0-53.04 3.46-72.66 10.97-33.46 17.3-44.98-9.24-7.5 20.76-24.22S316.59 247.98 346 235.28s17.3 0 17.3 0l3.46 83.04s24.8-11.52 44.98-13.84 46.71-2.87 76.12 0 65.15 6.33 100.34 17.3 78.44 30 110.72 48.44 61.14 42.1 83.04 62.28 33.46 36.33 48.44 58.82 31.73 53.04 41.52 76.12 14.98 39.2 17.3 62.28-4.05 62.87-3.46 76.12-10.38 2.32 6.92 3.46 77.85 1.73 96.88 3.46 10.97 6.92 17.3 6.92 20.76-6.92 20.76-6.92-55.36-23.08-69.2-31.14-9.8-8.06-13.84-17.3c-4.05-9.24-9.24-23.63-10.38-38.06s3.46-48.44 3.46-48.44 25.95-1.73 34.6 0 17.3 10.38 17.3 10.38 10.38-54.22 13.84-65.74-1.14-10.38 6.92-3.46 32.28 32.28 41.52 44.98 11.52 17.3 13.84 31.14 5.78 30.55 0 51.9-34.6 76.12-34.6 76.12l48.44 3.46V0zm449.8 532.84c-11.52-4.6-6.33-2.87-10.38 6.92-4.05 9.8-13.84 51.9-13.84 51.9s31.14 4.05 38.06 3.46-2.32-5.78 3.46-6.92 24.22 3.46 31.14 0 10.38-20.76 10.38-20.76-47.3-30-58.82-34.6m-69.2 6.92s-9.8.59-17.3 6.92-27.68 31.14-27.68 31.14l17.3 3.46s-3.46-4.6 0-6.92 15.57-2.87 20.76-6.92 9.24-12.7 10.38-17.3-3.46-10.38-3.46-10.38M692 563.98c-17.89 0-34.6 4.05-51.9 10.38s-38.65 19.03-51.9 27.68-27.68 24.22-27.68 24.22 40.38 19.62 55.36 17.3 17.89-24.8 34.6-31.14 49.58-8.06 65.74-6.92 21.9 6.92 31.14 13.84 19.62 16.71 24.22 27.68-5.19 30 3.46 38.06 48.44 10.38 48.44 10.38 3.46-28.27 0-41.52-12.7-27.1-20.76-38.06-18.44-20.76-27.68-27.68-13.84-9.8-27.68-13.84c-13.84-4.05-37.47-10.38-55.36-10.38m-3.46 76.12c-10.97 0-23.08 7.5-27.68 10.38-4.6 2.87-12.7 2.87 0 6.92s76.12 17.3 76.12 17.3 1.73-9.8 0-13.84c-1.73-4.05-2.32-6.92-10.38-10.38s-27.1-10.38-38.06-10.38m-328.7 38.06s-9.24 1.14-17.3 13.84-31.14 62.28-31.14 62.28 26.54-21.9 34.6-34.6 13.84-41.52 13.84-41.52m287.18 20.76s-1.14 19.03 3.46 27.68 13.84 17.3 24.22 24.22 21.9 15.57 38.06 17.3 44.4-2.32 58.82-6.92 27.68-20.76 27.68-20.76-34.6-15.57-48.44-17.3-25.95 9.24-34.6 6.92-5.78-15.57-17.3-20.76-51.9-10.38-51.9-10.38"/><path fill="#00160c" d="M3.46 0 0 1079.52h1079.52l-3.46-294.1s-176.46-29.41-217.98-27.68-17.89 27.68-31.14 38.06-27.1 19.62-48.44 24.22c-21.35 4.6-58.82 5.78-79.58 3.46s-31.14-9.24-44.98-17.3-28.27-19.03-38.06-31.14a109 109 0 0 1-20.76-41.52c-4.05-15.57 28.82-35.74-3.46-51.9s-153.38-42.66-190.3-44.98-25.36 23.63-31.14 31.14c-5.78 7.5-2.87 6.33-3.46 13.84s-4.05 18.44 0 31.14 20.17 32.87 24.22 44.98 2.32 17.3 0 27.68-5.78 22.49-13.84 34.6-34.6 38.06-34.6 38.06-7.5-17.89-17.3-17.3-41.52 20.76-41.52 20.76 5.78-51.31 10.38-69.2 17.3-38.06 17.3-38.06-21.35 21.35-31.14 27.68c-9.8 6.33-16.16 8.65-27.68 10.38s-27.1 2.87-41.52 0-36.92-12.7-44.98-17.3-8.65-2.32-3.46-10.38 21.9-27.1 34.6-38.06 30-21.35 41.52-27.68 10.97-8.06 27.68-10.38 55.36 1.14 72.66-3.46 24.22-15.57 31.14-24.22 10.38-27.68 10.38-27.68-81.31-19.62-124.56-20.76-96.88 11.52-134.94 13.84-75.53 3.46-93.42 0-13.84-20.76-13.84-20.76-5.78-5.78 13.84-10.38 69.79-12.7 103.8-17.3 77.85-9.24 100.34-10.38 18.44 10.97 34.6 3.46c16.16-7.5 51.31-38.65 62.28-48.44 10.97-9.8 3.46-10.38 3.46-10.38s-40.93 5.19-62.28 3.46-47.3-7.5-65.74-13.84-36.92-18.44-44.98-24.22-3.46-10.38-3.46-10.38 72.07 2.32 93.42 0 24.8-7.5 34.6-13.84 24.22-24.22 24.22-24.22-18.44 19.62-44.98 24.22-114.18 3.46-114.18 3.46-2.87-55.95 0-76.12 10.97-33.46 17.3-44.98-9.24-7.5 20.76-24.22S316 247.98 346 235.28s20.76 0 20.76 0v83.04s24.8-11.52 44.98-13.84 46.71-2.87 76.12 0 65.15 6.33 100.34 17.3 80.17 31.73 110.72 48.44 50.17 31.14 72.66 51.9 45.57 48.44 62.28 72.66 28.82 50.76 38.06 72.66 14.98 35.74 17.3 58.82-4.05 65.74-3.46 79.58-10.38 2.32 6.92 3.46 77.85 1.73 96.88 3.46 10.97 6.92 17.3 6.92 20.76-6.92 20.76-6.92-51.9-19.62-65.74-27.68-12.7-11.52-17.3-20.76-9.24-20.17-10.38-34.6 3.46-51.9 3.46-51.9 25.95-1.73 34.6 0 17.3 10.38 17.3 10.38 10.38-54.22 13.84-65.74-1.73-10.97 6.92-3.46c8.65 7.5 35.74 35.74 44.98 48.44s9.24 12.11 10.38 27.68 2.32 44.4-3.46 65.74c-5.78 21.35-31.14 62.28-31.14 62.28l48.44 3.46V0zm449.8 532.84c-11.52-4.6-6.33-2.87-10.38 6.92-4.05 9.8-13.84 51.9-13.84 51.9s31.14 4.05 38.06 3.46-2.32-5.78 3.46-6.92 24.22 3.46 31.14 0 10.38-20.76 10.38-20.76-47.3-30-58.82-34.6m-69.2 6.92s-9.8.59-17.3 6.92-27.68 31.14-27.68 31.14l17.3 3.46s-3.46-4.6 0-6.92 15.57-2.87 20.76-6.92 9.24-12.7 10.38-17.3-3.46-10.38-3.46-10.38M692 563.98c-19.03.59-36.92 3.46-58.82 13.84s-72.66 48.44-72.66 48.44 43.25 17.89 55.36 17.3 8.65-14.43 17.3-20.76 20.76-14.43 34.6-17.3 35.74-1.73 48.44 0 18.44 3.46 27.68 10.38 22.49 19.62 27.68 31.14-5.19 30 3.46 38.06 48.44 10.38 48.44 10.38 3.46-28.27 0-41.52-12.7-27.1-20.76-38.06-18.44-20.76-27.68-27.68-13.84-9.8-27.68-13.84c-13.84-4.05-36.33-10.97-55.36-10.38m-3.46 76.12c-9.8-.59-16.16 4.05-20.76 6.92s-6.92 10.38-6.92 10.38l76.12 17.3s1.73-9.8 0-13.84c-1.73-4.05-2.32-6.92-10.38-10.38s-28.27-9.8-38.06-10.38m-328.7 38.06s-9.24 1.14-17.3 13.84-31.14 62.28-31.14 62.28 23.08-18.44 31.14-31.14 17.3-44.98 17.3-44.98m287.18 20.76s-1.14 19.03 3.46 27.68 13.84 17.3 24.22 24.22 25.95 14.43 38.06 17.3 20.17 4.6 34.6 0 51.9-27.68 51.9-27.68-34.6-15.57-48.44-17.3-27.1 8.65-34.6 6.92 1.14-12.11-10.38-17.3-58.82-13.84-58.82-13.84"/><path fill="#00140c" d="M3.46 0 0 1079.52h1079.52l-3.46-294.1s-173-31.73-217.98-27.68-36.92 40.93-51.9 51.9-19.62 11.52-38.06 13.84-54.22 2.32-72.66 0-24.22-5.19-38.06-13.84-34.6-25.95-44.98-38.06-14.43-20.17-17.3-34.6 32.28-35.74 0-51.9-156.29-42.1-193.76-44.98-25.36 20.76-31.14 27.68-2.87 6.33-3.46 13.84-4.05 19.03 0 31.14 21.9 24.22 24.22 41.52-2.32 44.98-10.38 62.28-30 35.19-38.06 41.52-8.06-.59-10.38-3.46-3.46-13.84-3.46-13.84l-44.98 20.76s5.78-54.77 10.38-72.66 17.3-34.6 17.3-34.6-14.98 17.89-24.22 24.22-18.44 11.52-31.14 13.84-28.82 4.05-44.98 0-51.9-24.22-51.9-24.22 27.1-32.87 41.52-44.98 21.9-21.35 44.98-27.68 73.25-5.19 93.42-10.38 20.76-14.43 27.68-20.76q10.37-9.5 13.84-17.3c2.32-5.19 0-13.84 0-13.84s-72.66-20.17-128.02-20.76S86.5 627.4 48.44 629.72s-18.44.59-24.22-3.46-8.65-16.16-10.38-20.76-4.6-4.6 0-6.92 8.65-3.46 27.68-6.92 55.36-9.8 86.5-13.84c31.14-4.05 77.26-9.24 100.34-10.38s21.9 10.38 38.06 3.46 47.85-35.19 58.82-44.98c10.97-9.8 6.92-13.84 6.92-13.84s-68.06 1.73-89.96 0-27.68-4.6-41.52-10.38-34.01-18.44-41.52-24.22c-7.5-5.78-3.46-10.38-3.46-10.38s72.07 2.32 93.42 0 24.8-7.5 34.6-13.84 24.22-24.22 24.22-24.22-35.74 23.08-62.28 27.68-96.88 0-96.88 0-2.87-55.95 0-76.12 10.38-32.87 17.3-44.98-5.78-10.97 24.22-27.68 126.29-60.55 155.7-72.66 20.76 0 20.76 0v83.04s24.8-11.52 44.98-13.84 48.44-2.32 76.12 0 58.82 5.19 89.96 13.84 65.15 21.35 96.88 38.06 66.88 39.2 93.42 62.28 48.44 51.31 65.74 76.12c17.3 24.8 28.82 50.76 38.06 72.66s14.98 35.74 17.3 58.82-4.05 65.74-3.46 79.58-10.97 2.32 6.92 3.46 80.72 1.73 100.34 3.46 11.52 6.92 17.3 6.92 17.3-6.92 17.3-6.92-52.49-20.76-65.74-27.68-9.24-4.6-13.84-13.84-12.11-25.95-13.84-41.52 3.46-51.9 3.46-51.9 25.95-1.73 34.6 0 17.3 10.38 17.3 10.38 10.38-57.68 13.84-69.2-.59-6.33 6.92 0 28.82 25.36 38.06 38.06 14.43 22.49 17.3 38.06 5.78 34.01 0 55.36-34.6 72.66-34.6 72.66l48.44 3.46V0zm449.8 532.84c-11.52-4.6-6.92-2.32-10.38 6.92S432.5 588.2 432.5 588.2s9.24 6.92 20.76 6.92 38.65-2.32 48.44-6.92c9.8-4.6 10.38-20.76 10.38-20.76s-47.3-30-58.82-34.6m-69.2 6.92s-13.84 4.05-20.76 10.38-20.76 27.68-20.76 27.68 27.1-5.78 34.6-10.38 9.24-12.7 10.38-17.3-3.46-10.38-3.46-10.38m311.4 24.22c-18.44.59-39.79 3.46-62.28 13.84s-72.66 48.44-72.66 48.44 44.4 17.3 55.36 17.3 1.73-10.97 10.38-17.3 26.54-17.3 41.52-20.76 35.74-1.73 48.44 0 19.03 4.6 27.68 10.38 19.03 12.7 24.22 24.22-2.32 35.74 6.92 44.98 48.44 10.38 48.44 10.38 4.05-27.68 0-41.52-10.97-28.27-24.22-41.52-38.06-30-55.36-38.06-30-10.97-48.44-10.38m-6.92 76.12c-10.38 1.14-27.68 17.3-27.68 17.3l76.12 17.3s2.32-9.8 0-13.84c-2.32-4.05-5.78-6.92-13.84-10.38s-24.22-11.52-34.6-10.38m-328.7 38.06s-9.24 1.14-17.3 13.84-31.14 62.28-31.14 62.28 23.08-18.44 31.14-31.14 17.3-44.98 17.3-44.98m287.18 20.76s4.05 24.8 10.38 34.6 18.44 18.44 27.68 24.22 17.3 8.65 27.68 10.38 20.17 4.6 34.6 0 51.9-27.68 51.9-27.68-36.92-16.16-48.44-17.3-14.43 9.24-20.76 10.38-13.25 0-17.3-3.46 4.05-12.11-6.92-17.3-58.82-13.84-58.82-13.84"/></g></svg>