<svg xmlns="http://www.w3.org/2000/svg" width="1000" height="1000" viewBox="0 0 1000 1000"><path d="M0 0h35.71v22.96H0zm35.71 0h35.71v22.96H35.71zm35.72 0h35.71v22.96H71.43zm35.71 0h35.71v22.96h-35.71zm35.72 0h35.71v22.96h-35.71zm35.71 0h35.71v22.96h-35.71zm35.72 0H250v22.96h-35.71zM250 0h35.71v22.96H250zm35.71 0h35.71v22.96h-35.71zm35.72 0h35.71v22.96h-35.71zm35.71 0h35.71v22.96h-35.71zm35.72 0h35.71v22.96h-35.71zm35.71 0h35.71v22.96h-35.71zm35.72 0H500v22.96h-35.71zM500 0h35.71v22.96H500zm35.71 0h35.71v22.96h-35.71zm35.72 0h35.71v22.96h-35.71zm35.71 0h35.71v22.96h-35.71zm35.72 0h35.71v22.96h-35.71zm35.71 0h35.71v22.96h-35.71zm35.72 0H750v22.96h-35.71zM750 0h35.71v22.96H750zm35.71 0h35.71v22.96h-35.71zm35.72 0h35.71v22.96h-35.71zm35.71 0h35.71v22.96h-35.71zm35.72 0h35.71v22.96h-35.71zm35.71 0h35.71v22.96h-35.71zm35.72 0H1000v22.96h-35.71zM0 35.71h35.71v22.96H0zm35.71 0h35.71v22.96H35.71zm35.72 0h35.71v22.96H71.43zm35.71 0h35.71v22.96h-35.71zm35.72 0h35.71v22.96h-35.71zm35.71 0h35.71v22.96h-35.71zm35.72 0H250v22.96h-35.71zm35.71 0h35.71v22.96H250zm35.71 0h35.71v22.96h-35.71zm35.72 0h35.71v22.96h-35.71zm35.71 0h35.71v22.96h-35.71zm35.72 0h35.71v22.96h-35.71zm35.71 0h35.71v22.96h-35.71zm35.72 0H500v22.96h-35.71zm35.71 0h35.71v22.96H500zm35.71 0h35.71v22.96h-35.71zm35.72 0h35.71v22.96h-35.71zm35.71 0h35.71v22.96h-35.71zm35.72 0h35.71v22.96h-35.71zm35.71 0h35.71v22.96h-35.71zm35.72 0H750v22.96h-35.71zm35.71 0h35.71v22.96H750zm35.71 0h35.71v22.96h-35.71zm35.72 0h35.71v22.96h-35.71zm35.71 0h35.71v22.96h-35.71zm35.72 0h35.71v22.96h-35.71zm35.71 0h35.71v22.96h-35.71zm35.72 0H1000v22.96h-35.71zM0 71.43h35.71v22.96H0zm35.71 0h35.71v22.96H35.71zm35.72 0h35.71v22.96H71.43zm35.71 0h35.71v22.96h-35.71zm35.72 0h35.71v22.96h-35.71zm35.71 0h35.71v22.96h-35.71zm35.72 0H250v22.96h-35.71zm35.71 0h35.71v22.96H250zm35.71 0h35.71v22.96h-35.71zm35.72 0h35.71v22.96h-35.71zm35.71 0h35.71v22.96h-35.71zm35.72 0h35.71v22.96h-35.71zm35.71 0h35.71v22.96h-35.71zm35.72 0H500v22.96h-35.71zm35.71 0h35.71v22.96H500zm35.71 0h35.71v22.96h-35.71zm35.72 0h35.71v22.96h-35.71zm35.71 0h35.71v22.96h-35.71zm35.72 0h35.71v22.96h-35.71zm35.71 0h35.71v22.96h-35.71zm35.72 0H750v22.96h-35.71zm35.71 0h35.71v22.96H750zm35.71 0h35.71v22.96h-35.71zm35.72 0h35.71v22.96h-35.71zm35.71 0h35.71v22.96h-35.71zm35.72 0h35.71v22.96h-35.71zm35.71 0h35.71v22.96h-35.71zm35.72 0H1000v22.96h-35.71zM0 107.14h35.71v22.96H0zm35.71 0h35.71v22.96H35.71zm35.72 0h35.71v22.96H71.43zm35.71 0h35.71v22.96h-35.71zm35.72 0h35.71v22.96h-35.71zm35.71 0h35.71v22.96h-35.71zm35.72 0H250v22.96h-35.71zm35.71 0h35.71v22.96H250zm35.71 0h35.71v22.96h-35.71zm35.72 0h35.71v22.96h-35.71zm35.71 0h35.71v22.96h-35.71zm35.72 0h35.71v22.96h-35.71zm35.71 0h35.71v22.96h-35.71zm35.72 0H500v22.96h-35.71zm35.71 0h35.71v22.96H500zm35.71 0h35.71v22.96h-35.71zm35.72 0h35.71v22.96h-35.71zm35.71 0h35.71v22.96h-35.71zm35.72 0h35.71v22.96h-35.71zm35.71 0h35.71v22.96h-35.71zm35.72 0H750v22.96h-35.71zm35.71 0h35.71v22.96H750zm35.71 0h35.71v22.96h-35.71zm35.72 0h35.71v22.96h-35.71zm35.71 0h35.71v22.96h-35.71zm35.72 0h35.71v22.96h-35.71zm35.71 0h35.71v22.96h-35.71zm35.72 0H1000v22.96h-35.71zM0 142.86h35.71v22.96H0zm35.71 0h35.71v22.96H35.71zm35.72 0h35.71v22.96H71.43zm35.71 0h35.71v22.96h-35.71zm35.72 0h35.71v22.96h-35.71zm35.71 0h35.71v22.96h-35.71zm35.72 0H250v22.96h-35.71zm35.71 0h35.71v22.96H250zm35.71 0h35.71v22.96h-35.71zm35.72 0h35.71v22.96h-35.71zm35.71 0h35.71v22.96h-35.71zm35.72 0h35.71v22.96h-35.71zm35.71 0h35.71v22.96h-35.71zm35.72 0H500v22.96h-35.71zm35.71 0h35.71v22.96H500zm35.71 0h35.71v22.96h-35.71zm35.72 0h35.71v22.96h-35.71zm35.71 0h35.71v22.96h-35.71zm35.72 0h35.71v22.96h-35.71zm35.71 0h35.71v22.96h-35.71zm35.72 0H750v22.96h-35.71zm35.71 0h35.71v22.96H750zm35.71 0h35.71v22.96h-35.71zm35.72 0h35.71v22.96h-35.71zm35.71 0h35.71v22.96h-35.71zm35.72 0h35.71v22.96h-35.71zm35.71 0h35.71v22.96h-35.71zm35.72 0H1000v22.96h-35.71zM0 178.57h35.71v22.96H0zm35.71 0h35.71v22.96H35.71zm35.72 0h35.71v22.96H71.43zm35.71 0h35.71v22.96h-35.71zm35.72 0h35.71v22.96h-35.71zm35.71 0h35.71v22.96h-35.71zm35.72 0H250v22.96h-35.71zm35.71 0h35.71v22.96H250zm35.71 0h35.71v22.96h-35.71zm35.72 0h35.71v22.96h-35.71zm35.71 0h35.71v22.96h-35.71zm35.72 0h35.71v22.96h-35.71zm35.71 0h35.71v22.96h-35.71zm35.72 0H500v22.96h-35.71zm35.71 0h35.71v22.96H500zm35.71 0h35.71v22.96h-35.71zm35.72 0h35.71v22.96h-35.71zm35.71 0h35.71v22.96h-35.71zm35.72 0h35.71v22.96h-35.71zm35.71 0h35.71v22.96h-35.71zm35.72 0H750v22.96h-35.71zm35.71 0h35.71v22.96H750zm35.71 0h35.71v22.96h-35.71zm35.72 0h35.71v22.96h-35.71zm35.71 0h35.71v22.96h-35.71zm35.72 0h35.71v22.96h-35.71zm35.71 0h35.71v22.96h-35.71zm35.72 0H1000v22.96h-35.71zM0 214.29h35.71v22.96H0zm35.71 0h35.71v22.96H35.71zm35.72 0h35.71v22.96H71.43zm35.71 0h35.71v22.96h-35.71zm35.72 0h35.71v22.96h-35.71zm35.71 0h35.71v22.96h-35.71zm35.72 0H250v22.96h-35.71zm35.71 0h35.71v22.96H250zm107.14 0h35.71v22.96h-35.71zm35.72 0h35.71v22.96h-35.71zm35.71 0h35.71v22.96h-35.71zm35.72 0H500v22.96h-35.71zm35.71 0h35.71v22.96H500zm35.71 0h35.71v22.96h-35.71zm35.72 0h35.71v22.96h-35.71zm35.71 0h35.71v22.96h-35.71zm35.72 0h35.71v22.96h-35.71zm35.71 0h35.71v22.96h-35.71zm35.72 0H750v22.96h-35.71zm35.71 0h35.71v22.96H750zm35.71 0h35.71v22.96h-35.71zm35.72 0h35.71v22.96h-35.71zm35.71 0h35.71v22.96h-35.71zm35.72 0h35.71v22.96h-35.71zm35.71 0h35.71v22.96h-35.71zm35.72 0H1000v22.96h-35.71zM0 250h35.71v22.96H0zm35.71 0h35.71v22.96H35.71zm35.72 0h35.71v22.96H71.43zm35.71 0h35.71v22.96h-35.71zm35.72 0h35.71v22.96h-35.71zm35.71 0h35.71v22.96h-35.71zm178.57 0h35.71v22.96h-35.71zm35.72 0h35.71v22.96h-35.71zm35.71 0h35.71v22.96h-35.71zm35.72 0H500v22.96h-35.71zm35.71 0h35.71v22.96H500zm35.71 0h35.71v22.96h-35.71zm35.72 0h35.71v22.96h-35.71zm35.71 0h35.71v22.96h-35.71zm35.72 0h35.71v22.96h-35.71zm35.71 0h35.71v22.96h-35.71zm35.72 0H750v22.96h-35.71zm35.71 0h35.71v22.96H750zm35.71 0h35.71v22.96h-35.71zm35.72 0h35.71v22.96h-35.71zm35.71 0h35.71v22.96h-35.71zm35.72 0h35.71v22.96h-35.71zm35.71 0h35.71v22.96h-35.71zm35.72 0H1000v22.96h-35.71zM0 285.71h35.71v22.96H0zm35.71 0h35.71v22.96H35.71zm35.72 0h35.71v22.96H71.43zm35.71 0h35.71v22.96h-35.71zm464.29 0h35.71v22.96h-35.71zm35.71 0h35.71v22.96h-35.71zm35.72 0h35.71v22.96h-35.71zm35.71 0h35.71v22.96h-35.71zm35.72 0H750v22.96h-35.71zm35.71 0h35.71v22.96H750zm35.71 0h35.71v22.96h-35.71zm35.72 0h35.71v22.96h-35.71zm35.71 0h35.71v22.96h-35.71zm35.72 0h35.71v22.96h-35.71zm35.71 0h35.71v22.96h-35.71zm35.72 0H1000v22.96h-35.71zM0 321.43h35.71v22.96H0zm35.71 0h35.71v22.96H35.71zm35.72 0h35.71v22.96H71.43zm35.71 0h35.71v22.96h-35.71zm535.72 0h35.71v22.96h-35.71zm35.71 0h35.71v22.96h-35.71zm35.72 0H750v22.96h-35.71zm35.71 0h35.71v22.96H750zm35.71 0h35.71v22.96h-35.71zm35.72 0h35.71v22.96h-35.71zm35.71 0h35.71v22.96h-35.71zm35.72 0h35.71v22.96h-35.71zm35.71 0h35.71v22.96h-35.71zm35.72 0H1000v22.96h-35.71zM0 357.14h35.71v22.96H0zm35.71 0h35.71v22.96H35.71zm35.72 0h35.71v22.96H71.43zm35.71 0h35.71v22.96h-35.71zm607.15 0H750v22.96h-35.71zm35.71 0h35.71v22.96H750zm35.71 0h35.71v22.96h-35.71zm35.72 0h35.71v22.96h-35.71zm35.71 0h35.71v22.96h-35.71zm35.72 0h35.71v22.96h-35.71zm35.71 0h35.71v22.96h-35.71zm35.72 0H1000v22.96h-35.71zM0 392.86h35.71v22.96H0zm35.71 0h35.71v22.96H35.71zm35.72 0h35.71v22.96H71.43zm35.71 0h35.71v22.96h-35.71zm642.86 0h35.71v22.96H750zm35.71 0h35.71v22.96h-35.71zm35.72 0h35.71v22.96h-35.71zm35.71 0h35.71v22.96h-35.71zm35.72 0h35.71v22.96h-35.71zm35.71 0h35.71v22.96h-35.71zm35.72 0H1000v22.96h-35.71zM0 428.57h35.71v22.96H0zm35.71 0h35.71v22.96H35.71zm35.72 0h35.71v22.96H71.43zm35.71 0h35.71v22.96h-35.71zm642.86 0h35.71v22.96H750zm35.71 0h35.71v22.96h-35.71zm35.72 0h35.71v22.96h-35.71zm35.71 0h35.71v22.96h-35.71zm35.72 0h35.71v22.96h-35.71zm35.71 0h35.71v22.96h-35.71zm35.72 0H1000v22.96h-35.71zM0 464.29h35.71v22.96H0zm35.71 0h35.71v22.96H35.71zm35.72 0h35.71v22.96H71.43zm35.71 0h35.71v22.96h-35.71zm35.72 0h35.71v22.96h-35.71zm35.71 0h35.71v22.96h-35.71zm35.72 0H250v22.96h-35.71zm35.71 0h35.71v22.96H250zm535.71 0h35.71v22.96h-35.71zm35.72 0h35.71v22.96h-35.71zm35.71 0h35.71v22.96h-35.71zm35.72 0h35.71v22.96h-35.71zm35.71 0h35.71v22.96h-35.71zm35.72 0H1000v22.96h-35.71zM0 500h35.71v22.96H0zm35.71 0h35.71v22.96H35.71zm35.72 0h35.71v22.96H71.43zm35.71 0h35.71v22.96h-35.71zm35.72 0h35.71v22.96h-35.71zm35.71 0h35.71v22.96h-35.71zm35.72 0H250v22.96h-35.71zm214.28 0h35.71v22.96h-35.71zm392.86 0h35.71v22.96h-35.71zm35.71 0h35.71v22.96h-35.71zm35.72 0h35.71v22.96h-35.71zm71.43 0H1000v22.96h-35.71zM0 535.71h35.71v22.96H0zm571.43 0h35.71v22.96h-35.71zm35.71 0h35.71v22.96h-35.71zm35.72 0h35.71v22.96h-35.71zm35.71 0h35.71v22.96h-35.71zm142.86 0h35.71v22.96h-35.71zM0 571.43h35.71v22.96H0zm35.71 0h35.71v22.96H35.71zm35.72 0h35.71v22.96H71.43zm35.71 0h35.71v22.96h-35.71zm35.72 0h35.71v22.96h-35.71zm35.71 0h35.71v22.96h-35.71zm35.72 0H250v22.96h-35.71zm35.71 0h35.71v22.96H250zm35.71 0h35.71v22.96h-35.71zm35.72 0h35.71v22.96h-35.71zm392.86 0H750v22.96h-35.71zm107.14 0h35.71v22.96h-35.71zM0 607.14h35.71v22.96H0zm35.71 0h35.71v22.96H35.71zm35.72 0h35.71v22.96H71.43zm35.71 0h35.71v22.96h-35.71zm35.72 0h35.71v22.96h-35.71zm35.71 0h35.71v22.96h-35.71zm35.72 0H250v22.96h-35.71zm35.71 0h35.71v22.96H250zm35.71 0h35.71v22.96h-35.71zm35.72 0h35.71v22.96h-35.71zm35.71 0h35.71v22.96h-35.71zm35.72 0h35.71v22.96h-35.71zm35.71 0h35.71v22.96h-35.71zm35.72 0H500v22.96h-35.71zm250 0H750v22.96h-35.71zm107.14 0h35.71v22.96h-35.71zm35.71 0h35.71v22.96h-35.71zm107.15 0H1000v22.96h-35.71zM0 642.86h35.71v22.96H0zm35.71 0h35.71v22.96H35.71zm35.72 0h35.71v22.96H71.43zm35.71 0h35.71v22.96h-35.71zm35.72 0h35.71v22.96h-35.71zm214.28 0h35.71v22.96h-35.71zm35.72 0h35.71v22.96h-35.71zm35.71 0h35.71v22.96h-35.71zm35.72 0H500v22.96h-35.71zm35.71 0h35.71v22.96H500zm464.29 0H1000v22.96h-35.71zM0 678.57h35.71v22.96H0zm35.71 0h35.71v22.96H35.71zm35.72 0h35.71v22.96H71.43zm35.71 0h35.71v22.96h-35.71zm35.72 0h35.71v22.96h-35.71zm214.28 0h35.71v22.96h-35.71zm35.72 0h35.71v22.96h-35.71zm35.71 0h35.71v22.96h-35.71zm35.72 0H500v22.96h-35.71zm35.71 0h35.71v22.96H500zm35.71 0h35.71v22.96h-35.71zm107.15 0h35.71v22.96h-35.71zm35.71 0h35.71v22.96h-35.71zM0 714.29h35.71v22.96H0zm35.71 0h35.71v22.96H35.71zm35.72 0h35.71v22.96H71.43zm35.71 0h35.71v22.96h-35.71zm35.72 0h35.71v22.96h-35.71zm107.14 0h35.71v22.96H250zm107.14 0h35.71v22.96h-35.71zm35.72 0h35.71v22.96h-35.71zm35.71 0h35.71v22.96h-35.71zm35.72 0H500v22.96h-35.71zm35.71 0h35.71v22.96H500zm35.71 0h35.71v22.96h-35.71zm250 0h35.71v22.96h-35.71zm35.72 0h35.71v22.96h-35.71zm35.71 0h35.71v22.96h-35.71zm35.72 0h35.71v22.96h-35.71zm35.71 0h35.71v22.96h-35.71zm35.72 0H1000v22.96h-35.71zM0 750h35.71v22.96H0zm35.71 0h35.71v22.96H35.71zm35.72 0h35.71v22.96H71.43zm35.71 0h35.71v22.96h-35.71zm35.72 0h35.71v22.96h-35.71zm35.71 0h35.71v22.96h-35.71zm35.72 0H250v22.96h-35.71zm142.85 0h35.71v22.96h-35.71zm35.72 0h35.71v22.96h-35.71zm35.71 0h35.71v22.96h-35.71zm35.72 0H500v22.96h-35.71zm35.71 0h35.71v22.96H500zm35.71 0h35.71v22.96h-35.71zm35.72 0h35.71v22.96h-35.71zm35.71 0h35.71v22.96h-35.71zm35.72 0h35.71v22.96h-35.71zm35.71 0h35.71v22.96h-35.71zm35.72 0H750v22.96h-35.71zm35.71 0h35.71v22.96H750zm35.71 0h35.71v22.96h-35.71zm35.72 0h35.71v22.96h-35.71zm35.71 0h35.71v22.96h-35.71zm35.72 0h35.71v22.96h-35.71zm35.71 0h35.71v22.96h-35.71zm35.72 0H1000v22.96h-35.71zM0 785.71h35.71v22.96H0zm35.71 0h35.71v22.96H35.71zm35.72 0h35.71v22.96H71.43zm35.71 0h35.71v22.96h-35.71zm35.72 0h35.71v22.96h-35.71zm35.71 0h35.71v22.96h-35.71zm35.72 0H250v22.96h-35.71zm35.71 0h35.71v22.96H250zm35.71 0h35.71v22.96h-35.71zm35.72 0h35.71v22.96h-35.71zm35.71 0h35.71v22.96h-35.71zm35.72 0h35.71v22.96h-35.71zm35.71 0h35.71v22.96h-35.71zm35.72 0H500v22.96h-35.71zm35.71 0h35.71v22.96H500zm35.71 0h35.71v22.96h-35.71zm35.72 0h35.71v22.96h-35.71zm35.71 0h35.71v22.96h-35.71zm35.72 0h35.71v22.96h-35.71zm35.71 0h35.71v22.96h-35.71zm35.72 0H750v22.96h-35.71zm35.71 0h35.71v22.96H750zm35.71 0h35.71v22.96h-35.71zm35.72 0h35.71v22.96h-35.71zm35.71 0h35.71v22.96h-35.71zm35.72 0h35.71v22.96h-35.71zm35.71 0h35.71v22.96h-35.71zm35.72 0H1000v22.96h-35.71zM0 821.43h35.71v22.96H0zm35.71 0h35.71v22.96H35.71zm35.72 0h35.71v22.96H71.43zm35.71 0h35.71v22.96h-35.71zm35.72 0h35.71v22.96h-35.71zm35.71 0h35.71v22.96h-35.71zm35.72 0H250v22.96h-35.71zm35.71 0h35.71v22.96H250zm35.71 0h35.71v22.96h-35.71zm35.72 0h35.71v22.96h-35.71zm35.71 0h35.71v22.96h-35.71zm35.72 0h35.71v22.96h-35.71zm35.71 0h35.71v22.96h-35.71zm35.72 0H500v22.96h-35.71zm35.71 0h35.71v22.96H500zm35.71 0h35.71v22.96h-35.71zm35.72 0h35.71v22.96h-35.71zm35.71 0h35.71v22.96h-35.71zm35.72 0h35.71v22.96h-35.71zm35.71 0h35.71v22.96h-35.71zm35.72 0H750v22.96h-35.71zm35.71 0h35.71v22.96H750zm35.71 0h35.71v22.96h-35.71zm35.72 0h35.71v22.96h-35.71zm35.71 0h35.71v22.96h-35.71zm35.72 0h35.71v22.96h-35.71zm35.71 0h35.71v22.96h-35.71zm35.72 0H1000v22.96h-35.71zM0 857.14h35.71v22.96H0zm35.71 0h35.71v22.96H35.71zm35.72 0h35.71v22.96H71.43zm35.71 0h35.71v22.96h-35.71zm35.72 0h35.71v22.96h-35.71zm35.71 0h35.71v22.96h-35.71zm35.72 0H250v22.96h-35.71zm35.71 0h35.71v22.96H250zm35.71 0h35.71v22.96h-35.71zm35.72 0h35.71v22.96h-35.71zm35.71 0h35.71v22.96h-35.71zm35.72 0h35.71v22.96h-35.71zm35.71 0h35.71v22.96h-35.71zm35.72 0H500v22.96h-35.71zm35.71 0h35.71v22.96H500zm35.71 0h35.71v22.96h-35.71zm35.72 0h35.71v22.96h-35.71zm35.71 0h35.71v22.96h-35.71zm35.72 0h35.71v22.96h-35.71zm35.71 0h35.71v22.96h-35.71zm35.72 0H750v22.96h-35.71zm35.71 0h35.71v22.96H750zm35.71 0h35.71v22.96h-35.71zm35.72 0h35.71v22.96h-35.71zm35.71 0h35.71v22.96h-35.71zm35.72 0h35.71v22.96h-35.71zm35.71 0h35.71v22.96h-35.71zm35.72 0H1000v22.96h-35.71zM0 892.86h35.71v22.96H0zm35.71 0h35.71v22.96H35.71zm35.72 0h35.71v22.96H71.43zm35.71 0h35.71v22.96h-35.71zm35.72 0h35.71v22.96h-35.71zm35.71 0h35.71v22.96h-35.71zm35.72 0H250v22.96h-35.71zm35.71 0h35.71v22.96H250zm35.71 0h35.71v22.96h-35.71zm35.72 0h35.71v22.96h-35.71zm35.71 0h35.71v22.96h-35.71zm35.72 0h35.71v22.96h-35.71zm35.71 0h35.71v22.96h-35.71zm35.72 0H500v22.96h-35.71zm35.71 0h35.71v22.96H500zm35.71 0h35.71v22.96h-35.71zm35.72 0h35.71v22.96h-35.71zm35.71 0h35.71v22.96h-35.71zm35.72 0h35.71v22.96h-35.71zm35.71 0h35.71v22.96h-35.71zm35.72 0H750v22.96h-35.71zm35.71 0h35.71v22.96H750zm35.71 0h35.71v22.96h-35.71zm35.72 0h35.71v22.96h-35.71zm35.71 0h35.71v22.96h-35.71zm35.72 0h35.71v22.96h-35.71zm35.71 0h35.71v22.96h-35.71zm35.72 0H1000v22.96h-35.71zM0 928.57h35.71v22.96H0zm35.71 0h35.71v22.96H35.71zm35.72 0h35.71v22.96H71.43zm35.71 0h35.71v22.96h-35.71zm35.72 0h35.71v22.96h-35.71zm35.71 0h35.71v22.96h-35.71zm35.72 0H250v22.96h-35.71zm35.71 0h35.71v22.96H250zm35.71 0h35.71v22.96h-35.71zm35.72 0h35.71v22.96h-35.71zm35.71 0h35.71v22.96h-35.71zm35.72 0h35.71v22.96h-35.71zm35.71 0h35.71v22.96h-35.71zm35.72 0H500v22.96h-35.71zm35.71 0h35.71v22.96H500zm35.71 0h35.71v22.96h-35.71zm35.72 0h35.71v22.96h-35.71zm35.71 0h35.71v22.96h-35.71zm35.72 0h35.71v22.96h-35.71zm35.71 0h35.71v22.96h-35.71zm35.72 0H750v22.96h-35.71zm35.71 0h35.71v22.96H750zm35.71 0h35.71v22.96h-35.71zm35.72 0h35.71v22.96h-35.71zm35.71 0h35.71v22.96h-35.71zm35.72 0h35.71v22.96h-35.71zm35.71 0h35.71v22.96h-35.71zm35.72 0H1000v22.96h-35.71zM0 964.29h35.71v22.96H0zm35.71 0h35.71v22.96H35.71zm35.72 0h35.71v22.96H71.43zm35.71 0h35.71v22.96h-35.71zm35.72 0h35.71v22.96h-35.71zm35.71 0h35.71v22.96h-35.71zm35.72 0H250v22.96h-35.71zm35.71 0h35.71v22.96H250zm35.71 0h35.71v22.96h-35.71zm35.72 0h35.71v22.96h-35.71zm35.71 0h35.71v22.96h-35.71zm35.72 0h35.71v22.96h-35.71zm35.71 0h35.71v22.96h-35.71zm35.72 0H500v22.96h-35.71zm35.71 0h35.71v22.96H500zm35.71 0h35.71v22.96h-35.71zm35.72 0h35.71v22.96h-35.71zm35.71 0h35.71v22.96h-35.71zm35.72 0h35.71v22.96h-35.71zm35.71 0h35.71v22.96h-35.71zm35.72 0H750v22.96h-35.71zm35.71 0h35.71v22.96H750zm35.71 0h35.71v22.96h-35.71zm35.72 0h35.71v22.96h-35.71zm35.71 0h35.71v22.96h-35.71zm35.72 0h35.71v22.96h-35.71zm35.71 0h35.71v22.96h-35.71zm35.72 0H1000v22.96h-35.71z"/><path fill="#192072" d="M285.71 214.29h35.71v22.96h-35.71zm35.72 0h35.71v22.96h-35.71zm0 35.71h35.71v22.96h-35.71zm-178.57 35.71h35.71v22.96h-35.71zm392.85 0h35.71v22.96h-35.71zm71.43 35.72h35.71v22.96h-35.71zm71.43 35.71h35.71v22.96h-35.71zM250 392.86h35.71v22.96H250zm464.29 0H750v22.96h-35.71zm-571.43 35.71h35.71v22.96h-35.71zm35.71 0h35.71v22.96h-35.71zm35.72 0H250v22.96h-35.71zm71.42 35.72h35.71v22.96h-35.71zm35.72 0h35.71v22.96h-35.71zM250 500h35.71v22.96H250zm35.71 0h35.71v22.96h-35.71zm35.72 0h35.71v22.96h-35.71zm71.43 0h35.71v22.96h-35.71zm214.28 0h35.71v22.96h-35.71zm35.72 0h35.71v22.96h-35.71zm35.71 0h35.71v22.96h-35.71zm107.14 0h35.71v22.96h-35.71zm142.86 0h35.71v22.96h-35.71zM35.71 535.71h35.71v22.96H35.71zm178.58 0H250v22.96h-35.71zm178.57 0h35.71v22.96h-35.71zm35.71 0h35.71v22.96h-35.71zm107.14 0h35.71v22.96h-35.71zm178.58 0H750v22.96h-35.71zm71.42 0h35.71v22.96h-35.71zm71.43 0h35.71v22.96h-35.71zm35.72 0h35.71v22.96h-35.71zm35.71 0h35.71v22.96h-35.71zm35.72 0H1000v22.96h-35.71zm-607.15 35.72h35.71v22.96h-35.71zm178.57 0h35.71v22.96h-35.71zm71.43 0h35.71v22.96h-35.71zm35.72 0h35.71v22.96h-35.71zm35.71 0h35.71v22.96h-35.71zm71.43 0h35.71v22.96H750zm107.14 0h35.71v22.96h-35.71zm35.72 0h35.71v22.96h-35.71zm35.71 0h35.71v22.96h-35.71zm35.72 0H1000v22.96h-35.71zM500 607.14h35.71v22.96H500zm250 0h35.71v22.96H750zm142.86 0h35.71v22.96h-35.71zm35.71 0h35.71v22.96h-35.71zm-750 35.72h35.71v22.96h-35.71zm35.72 0H250v22.96h-35.71zm71.42 0h35.71v22.96h-35.71zm35.72 0h35.71v22.96h-35.71zm214.28 0h35.71v22.96h-35.71zm71.43 0h35.71v22.96h-35.71zm35.72 0h35.71v22.96h-35.71zm178.57 0h35.71v22.96h-35.71zm35.71 0h35.71v22.96h-35.71zm35.72 0h35.71v22.96h-35.71zm35.71 0h35.71v22.96h-35.71zm-750 35.71h35.71v22.96h-35.71zm35.72 0H250v22.96h-35.71zm35.71 0h35.71v22.96H250zm35.71 0h35.71v22.96h-35.71zm35.72 0h35.71v22.96h-35.71zm285.71 0h35.71v22.96h-35.71zm107.15 0H750v22.96h-35.71zm71.42 0h35.71v22.96h-35.71zm-607.14 35.72h35.71v22.96h-35.71zm35.72 0H250v22.96h-35.71zm107.14 0h35.71v22.96h-35.71zm250 0h35.71v22.96h-35.71zm178.57 0h35.71v22.96H750zM250 750h35.71v22.96H250zm35.71 0h35.71v22.96h-35.71zm35.72 0h35.71v22.96h-35.71z"/><path fill="#2453ff" d="M214.29 250H250v22.96h-35.71zm35.71 0h35.71v22.96H250zm35.71 0h35.71v22.96h-35.71zM250 285.71h35.71v22.96H250zm35.71 0h35.71v22.96h-35.71zm35.72 0h35.71v22.96h-35.71zm35.71 0h35.71v22.96h-35.71zm35.72 0h35.71v22.96h-35.71zm35.71 0h35.71v22.96h-35.71zm35.72 0H500v22.96h-35.71zm35.71 0h35.71v22.96H500zm-250 35.72h35.71v22.96H250zm35.71 0h35.71v22.96h-35.71zm35.72 0h35.71v22.96h-35.71zm35.71 0h35.71v22.96h-35.71zm35.72 0h35.71v22.96h-35.71zm35.71 0h35.71v22.96h-35.71zm35.72 0H500v22.96h-35.71zm35.71 0h35.71v22.96H500zm35.71 0h35.71v22.96h-35.71zm35.72 0h35.71v22.96h-35.71zM250 357.14h35.71v22.96H250zm35.71 0h35.71v22.96h-35.71zm35.72 0h35.71v22.96h-35.71zm35.71 0h35.71v22.96h-35.71zm35.72 0h35.71v22.96h-35.71zm35.71 0h35.71v22.96h-35.71zm35.72 0H500v22.96h-35.71zm35.71 0h35.71v22.96H500zm35.71 0h35.71v22.96h-35.71zm35.72 0h35.71v22.96h-35.71zm35.71 0h35.71v22.96h-35.71zm35.72 0h35.71v22.96h-35.71zm-500 35.72h35.71v22.96h-35.71zm35.71 0h35.71v22.96h-35.71zm35.72 0H250v22.96h-35.71zm71.42 0h35.71v22.96h-35.71zm35.72 0h35.71v22.96h-35.71zm35.71 0h35.71v22.96h-35.71zm35.72 0h35.71v22.96h-35.71zm35.71 0h35.71v22.96h-35.71zm35.72 0H500v22.96h-35.71zm35.71 0h35.71v22.96H500zm35.71 0h35.71v22.96h-35.71zm35.72 0h35.71v22.96h-35.71zm35.71 0h35.71v22.96h-35.71zm35.72 0h35.71v22.96h-35.71zm35.71 0h35.71v22.96h-35.71zM250 428.57h35.71v22.96H250zm35.71 0h35.71v22.96h-35.71zm35.72 0h35.71v22.96h-35.71zm35.71 0h35.71v22.96h-35.71zm35.72 0h35.71v22.96h-35.71zm35.71 0h35.71v22.96h-35.71zm35.72 0H500v22.96h-35.71zm35.71 0h35.71v22.96H500zm35.71 0h35.71v22.96h-35.71zm35.72 0h35.71v22.96h-35.71zm35.71 0h35.71v22.96h-35.71zm35.72 0h35.71v22.96h-35.71zm35.71 0h35.71v22.96h-35.71zm35.72 0H750v22.96h-35.71zm-357.15 35.72h35.71v22.96h-35.71zm35.72 0h35.71v22.96h-35.71zm35.71 0h35.71v22.96h-35.71zm35.72 0H500v22.96h-35.71zm35.71 0h35.71v22.96H500zm35.71 0h35.71v22.96h-35.71zm35.72 0h35.71v22.96h-35.71zm35.71 0h35.71v22.96h-35.71zm35.72 0h35.71v22.96h-35.71zm35.71 0h35.71v22.96h-35.71zm35.72 0H750v22.96h-35.71zm35.71 0h35.71v22.96H750zM357.14 500h35.71v22.96h-35.71zm107.15 0H500v22.96h-35.71zm35.71 0h35.71v22.96H500zm35.71 0h35.71v22.96h-35.71zm35.72 0h35.71v22.96h-35.71zm142.86 0H750v22.96h-35.71zm35.71 0h35.71v22.96H750zM71.43 535.71h35.71v22.96H71.43zm35.71 0h35.71v22.96h-35.71zm35.72 0h35.71v22.96h-35.71zm35.71 0h35.71v22.96h-35.71zm71.43 0h35.71v22.96H250zm35.71 0h35.71v22.96h-35.71zm35.72 0h35.71v22.96h-35.71zm35.71 0h35.71v22.96h-35.71zm107.15 0H500v22.96h-35.71zm35.71 0h35.71v22.96H500zm250 0h35.71v22.96H750zm-357.14 35.72h35.71v22.96h-35.71zm35.71 0h35.71v22.96h-35.71zm35.72 0H500v22.96h-35.71zm35.71 0h35.71v22.96H500zm71.43 0h35.71v22.96h-35.71zm214.28 0h35.71v22.96h-35.71zm-250 35.71h35.71v22.96h-35.71zm35.72 0h35.71v22.96h-35.71zm35.71 0h35.71v22.96h-35.71zm35.72 0h35.71v22.96h-35.71zm35.71 0h35.71v22.96h-35.71zm107.14 0h35.71v22.96h-35.71zM250 642.86h35.71v22.96H250zm321.43 0h35.71v22.96h-35.71zm107.14 0h35.71v22.96h-35.71zm35.72 0H750v22.96h-35.71zm35.71 0h35.71v22.96H750zm35.71 0h35.71v22.96h-35.71zm-214.28 35.71h35.71v22.96h-35.71zm178.57 0h35.71v22.96H750zm71.43 0h35.71v22.96h-35.71zm35.71 0h35.71v22.96h-35.71zm35.72 0h35.71v22.96h-35.71zm35.71 0h35.71v22.96h-35.71zm35.72 0H1000v22.96h-35.71zm-678.58 35.72h35.71v22.96h-35.71zm321.43 0h35.71v22.96h-35.71zm35.72 0h35.71v22.96h-35.71zm35.71 0h35.71v22.96h-35.71zm35.72 0H750v22.96h-35.71z"/><path fill="#bff1ea" d="M178.57 285.71h35.71v22.96h-35.71zm35.72 0H250v22.96h-35.71zm-71.43 35.72h35.71v22.96h-35.71zm35.71 0h35.71v22.96h-35.71zm-35.71 35.71h35.71v22.96h-35.71z"/><path fill="#fff" d="M214.29 321.43H250v22.96h-35.71zm-35.72 35.71h35.71v22.96h-35.71zm35.72 0H250v22.96h-35.71z"/></svg>