<svg xmlns="http://www.w3.org/2000/svg" width="1000" height="1000" viewBox="0 0 1000 1000"><path d="M0 0h32.26v20.65H0zm32.26 0h32.26v20.65H32.26zm32.26 0h32.26v20.65H64.52zm32.25 0h32.26v20.65H96.77zm32.26 0h32.26v20.65h-32.26zm32.26 0h32.26v20.65h-32.26zm32.26 0h32.26v20.65h-32.26zm32.26 0h32.26v20.65h-32.26zm32.25 0h32.26v20.65h-32.26zm32.26 0h32.26v20.65h-32.26zm32.26 0h32.26v20.65h-32.26zm32.26 0h32.26v20.65h-32.26zm32.26 0h32.26v20.65H387.1zm32.25 0h32.26v20.65h-32.26zm32.26 0h32.26v20.65h-32.26zm32.26 0h32.26v20.65h-32.26zm32.26 0h32.26v20.65h-32.26zm32.26 0h32.26v20.65h-32.26zm32.26 0h32.26v20.65h-32.26zm32.25 0h32.26v20.65H612.9zm32.26 0h32.26v20.65h-32.26zm32.26 0h32.26v20.65h-32.26zm32.26 0h32.26v20.65h-32.26zm32.26 0h32.26v20.65h-32.26zm32.25 0h32.26v20.65h-32.26zm32.26 0h32.26v20.65h-32.26zm32.26 0h32.26v20.65h-32.26zm32.26 0h32.26v20.65h-32.26zm32.26 0h32.26v20.65h-32.26zm32.25 0h32.26v20.65h-32.26zm32.26 0H1000v20.65h-32.26zM0 32.26h32.26v20.65H0zm32.26 0h32.26v20.65H32.26zm32.26 0h32.26v20.65H64.52zm32.25 0h32.26v20.65H96.77zm32.26 0h32.26v20.65h-32.26zm32.26 0h32.26v20.65h-32.26zm32.26 0h32.26v20.65h-32.26zm32.26 0h32.26v20.65h-32.26zm32.25 0h32.26v20.65h-32.26zm32.26 0h32.26v20.65h-32.26zm32.26 0h32.26v20.65h-32.26zm32.26 0h32.26v20.65h-32.26zm32.26 0h32.26v20.65H387.1zm32.25 0h32.26v20.65h-32.26zm32.26 0h32.26v20.65h-32.26zm32.26 0h32.26v20.65h-32.26zm32.26 0h32.26v20.65h-32.26zm32.26 0h32.26v20.65h-32.26zm32.26 0h32.26v20.65h-32.26zm32.25 0h32.26v20.65H612.9zm32.26 0h32.26v20.65h-32.26zm32.26 0h32.26v20.65h-32.26zm32.26 0h32.26v20.65h-32.26zm32.26 0h32.26v20.65h-32.26zm32.25 0h32.26v20.65h-32.26zm32.26 0h32.26v20.65h-32.26zm32.26 0h32.26v20.65h-32.26zm32.26 0h32.26v20.65h-32.26zm32.26 0h32.26v20.65h-32.26zm32.25 0h32.26v20.65h-32.26zm32.26 0H1000v20.65h-32.26zM0 64.52h32.26v20.65H0zm32.26 0h32.26v20.65H32.26zm32.26 0h32.26v20.65H64.52zm32.25 0h32.26v20.65H96.77zm32.26 0h32.26v20.65h-32.26zm32.26 0h32.26v20.65h-32.26zm32.26 0h32.26v20.65h-32.26zm32.26 0h32.26v20.65h-32.26zm32.25 0h32.26v20.65h-32.26zm32.26 0h32.26v20.65h-32.26zm32.26 0h32.26v20.65h-32.26zm32.26 0h32.26v20.65h-32.26zm32.26 0h32.26v20.65H387.1zm32.25 0h32.26v20.65h-32.26zm32.26 0h32.26v20.65h-32.26zm32.26 0h32.26v20.65h-32.26zm32.26 0h32.26v20.65h-32.26zm32.26 0h32.26v20.65h-32.26zm32.26 0h32.26v20.65h-32.26zm32.25 0h32.26v20.65H612.9zm32.26 0h32.26v20.65h-32.26zm32.26 0h32.26v20.65h-32.26zm32.26 0h32.26v20.65h-32.26zm32.26 0h32.26v20.65h-32.26zm32.25 0h32.26v20.65h-32.26zm32.26 0h32.26v20.65h-32.26zm32.26 0h32.26v20.65h-32.26zm32.26 0h32.26v20.65h-32.26zm32.26 0h32.26v20.65h-32.26zm32.25 0h32.26v20.65h-32.26zm32.26 0H1000v20.65h-32.26zM0 96.77h32.26v20.65H0zm32.26 0h32.26v20.65H32.26zm32.26 0h32.26v20.65H64.52zm32.25 0h32.26v20.65H96.77zm32.26 0h32.26v20.65h-32.26zm32.26 0h32.26v20.65h-32.26zm32.26 0h32.26v20.65h-32.26zm32.26 0h32.26v20.65h-32.26zm32.25 0h32.26v20.65h-32.26zm32.26 0h32.26v20.65h-32.26zm32.26 0h32.26v20.65h-32.26zm32.26 0h32.26v20.65h-32.26zm32.26 0h32.26v20.65H387.1zm32.25 0h32.26v20.65h-32.26zm32.26 0h32.26v20.65h-32.26zm32.26 0h32.26v20.65h-32.26zm32.26 0h32.26v20.65h-32.26zm32.26 0h32.26v20.65h-32.26zm32.26 0h32.26v20.65h-32.26zm32.25 0h32.26v20.65H612.9zm32.26 0h32.26v20.65h-32.26zm32.26 0h32.26v20.65h-32.26zm32.26 0h32.26v20.65h-32.26zm32.26 0h32.26v20.65h-32.26zm32.25 0h32.26v20.65h-32.26zm32.26 0h32.26v20.65h-32.26zm32.26 0h32.26v20.65h-32.26zm32.26 0h32.26v20.65h-32.26zm32.26 0h32.26v20.65h-32.26zm32.25 0h32.26v20.65h-32.26zm32.26 0H1000v20.65h-32.26zM0 129.03h32.26v20.65H0zm32.26 0h32.26v20.65H32.26zm32.26 0h32.26v20.65H64.52zm32.25 0h32.26v20.65H96.77zm32.26 0h32.26v20.65h-32.26zm32.26 0h32.26v20.65h-32.26zm32.26 0h32.26v20.65h-32.26zm32.26 0h32.26v20.65h-32.26zm32.25 0h32.26v20.65h-32.26zm32.26 0h32.26v20.65h-32.26zm32.26 0h32.26v20.65h-32.26zm32.26 0h32.26v20.65h-32.26zm32.26 0h32.26v20.65H387.1zm32.25 0h32.26v20.65h-32.26zm32.26 0h32.26v20.65h-32.26zm32.26 0h32.26v20.65h-32.26zm32.26 0h32.26v20.65h-32.26zm32.26 0h32.26v20.65h-32.26zm32.26 0h32.26v20.65h-32.26zm32.25 0h32.26v20.65H612.9zm32.26 0h32.26v20.65h-32.26zm32.26 0h32.26v20.65h-32.26zm32.26 0h32.26v20.65h-32.26zm32.26 0h32.26v20.65h-32.26zm32.25 0h32.26v20.65h-32.26zm32.26 0h32.26v20.65h-32.26zm32.26 0h32.26v20.65h-32.26zm32.26 0h32.26v20.65h-32.26zm32.26 0h32.26v20.65h-32.26zm32.25 0h32.26v20.65h-32.26zm32.26 0H1000v20.65h-32.26zM0 161.29h32.26v20.65H0zm32.26 0h32.26v20.65H32.26zm32.26 0h32.26v20.65H64.52zm32.25 0h32.26v20.65H96.77zm32.26 0h32.26v20.65h-32.26zm32.26 0h32.26v20.65h-32.26zm32.26 0h32.26v20.65h-32.26zm32.26 0h32.26v20.65h-32.26zm32.25 0h32.26v20.65h-32.26zm32.26 0h32.26v20.65h-32.26zm32.26 0h32.26v20.65h-32.26zm32.26 0h32.26v20.65h-32.26zm32.26 0h32.26v20.65H387.1zm32.25 0h32.26v20.65h-32.26zm32.26 0h32.26v20.65h-32.26zm32.26 0h32.26v20.65h-32.26zm32.26 0h32.26v20.65h-32.26zm32.26 0h32.26v20.65h-32.26zm32.26 0h32.26v20.65h-32.26zm32.25 0h32.26v20.65H612.9zm32.26 0h32.26v20.65h-32.26zm32.26 0h32.26v20.65h-32.26zm32.26 0h32.26v20.65h-32.26zm32.26 0h32.26v20.65h-32.26zm32.25 0h32.26v20.65h-32.26zm32.26 0h32.26v20.65h-32.26zm32.26 0h32.26v20.65h-32.26zm32.26 0h32.26v20.65h-32.26zm32.26 0h32.26v20.65h-32.26zm32.25 0h32.26v20.65h-32.26zm32.26 0H1000v20.65h-32.26zM0 193.55h32.26v20.65H0zm32.26 0h32.26v20.65H32.26zm32.26 0h32.26v20.65H64.52zm32.25 0h32.26v20.65H96.77zm32.26 0h32.26v20.65h-32.26zm32.26 0h32.26v20.65h-32.26zm32.26 0h32.26v20.65h-32.26zm32.26 0h32.26v20.65h-32.26zm32.25 0h32.26v20.65h-32.26zm32.26 0h32.26v20.65h-32.26zm32.26 0h32.26v20.65h-32.26zm32.26 0h32.26v20.65h-32.26zm32.26 0h32.26v20.65H387.1zm32.25 0h32.26v20.65h-32.26zm32.26 0h32.26v20.65h-32.26zm32.26 0h32.26v20.65h-32.26zm32.26 0h32.26v20.65h-32.26zm32.26 0h32.26v20.65h-32.26zm32.26 0h32.26v20.65h-32.26zm32.25 0h32.26v20.65H612.9zm32.26 0h32.26v20.65h-32.26zm32.26 0h32.26v20.65h-32.26zm32.26 0h32.26v20.65h-32.26zm32.26 0h32.26v20.65h-32.26zm32.25 0h32.26v20.65h-32.26zm32.26 0h32.26v20.65h-32.26zm32.26 0h32.26v20.65h-32.26zm32.26 0h32.26v20.65h-32.26zm32.26 0h32.26v20.65h-32.26zm32.25 0h32.26v20.65h-32.26zm32.26 0H1000v20.65h-32.26zM0 225.81h32.26v20.65H0zm32.26 0h32.26v20.65H32.26zm32.26 0h32.26v20.65H64.52zm32.25 0h32.26v20.65H96.77zm32.26 0h32.26v20.65h-32.26zm32.26 0h32.26v20.65h-32.26zm32.26 0h32.26v20.65h-32.26zm32.26 0h32.26v20.65h-32.26zm129.03 0h32.26v20.65h-32.26zm32.26 0h32.26v20.65H387.1zm32.25 0h32.26v20.65h-32.26zm32.26 0h32.26v20.65h-32.26zm32.26 0h32.26v20.65h-32.26zm32.26 0h32.26v20.65h-32.26zm32.26 0h32.26v20.65h-32.26zm32.26 0h32.26v20.65h-32.26zm32.25 0h32.26v20.65H612.9zm32.26 0h32.26v20.65h-32.26zm32.26 0h32.26v20.65h-32.26zm32.26 0h32.26v20.65h-32.26zm32.26 0h32.26v20.65h-32.26zm32.25 0h32.26v20.65h-32.26zm32.26 0h32.26v20.65h-32.26zm32.26 0h32.26v20.65h-32.26zm32.26 0h32.26v20.65h-32.26zm32.26 0h32.26v20.65h-32.26zm32.25 0h32.26v20.65h-32.26zm32.26 0H1000v20.65h-32.26zM0 258.06h32.26v20.65H0zm32.26 0h32.26v20.65H32.26zm32.26 0h32.26v20.65H64.52zm32.25 0h32.26v20.65H96.77zm32.26 0h32.26v20.65h-32.26zm32.26 0h32.26v20.65h-32.26zm193.55 0h32.26v20.65h-32.26zm32.26 0h32.26v20.65H387.1zm32.25 0h32.26v20.65h-32.26zm32.26 0h32.26v20.65h-32.26zm32.26 0h32.26v20.65h-32.26zm32.26 0h32.26v20.65h-32.26zm32.26 0h32.26v20.65h-32.26zm32.26 0h32.26v20.65h-32.26zm32.25 0h32.26v20.65H612.9zm32.26 0h32.26v20.65h-32.26zm32.26 0h32.26v20.65h-32.26zm32.26 0h32.26v20.65h-32.26zm32.26 0h32.26v20.65h-32.26zm32.25 0h32.26v20.65h-32.26zm32.26 0h32.26v20.65h-32.26zm32.26 0h32.26v20.65h-32.26zm32.26 0h32.26v20.65h-32.26zm32.26 0h32.26v20.65h-32.26zm32.25 0h32.26v20.65h-32.26zm32.26 0H1000v20.65h-32.26zM0 290.32h32.26v20.65H0zm32.26 0h32.26v20.65H32.26zm32.26 0h32.26v20.65H64.52zm32.25 0h32.26v20.65H96.77zm32.26 0h32.26v20.65h-32.26zm451.62 0h32.26v20.65h-32.26zm32.25 0h32.26v20.65H612.9zm32.26 0h32.26v20.65h-32.26zm32.26 0h32.26v20.65h-32.26zm32.26 0h32.26v20.65h-32.26zm32.26 0h32.26v20.65h-32.26zm32.25 0h32.26v20.65h-32.26zm32.26 0h32.26v20.65h-32.26zm32.26 0h32.26v20.65h-32.26zm32.26 0h32.26v20.65h-32.26zm32.26 0h32.26v20.65h-32.26zm32.25 0h32.26v20.65h-32.26zm32.26 0H1000v20.65h-32.26zM0 322.58h32.26v20.65H0zm32.26 0h32.26v20.65H32.26zm32.26 0h32.26v20.65H64.52zm32.25 0h32.26v20.65H96.77zm548.39 0h32.26v20.65h-32.26zm32.26 0h32.26v20.65h-32.26zm32.26 0h32.26v20.65h-32.26zm32.26 0h32.26v20.65h-32.26zm32.25 0h32.26v20.65h-32.26zm32.26 0h32.26v20.65h-32.26zm32.26 0h32.26v20.65h-32.26zm32.26 0h32.26v20.65h-32.26zm32.26 0h32.26v20.65h-32.26zm32.25 0h32.26v20.65h-32.26zm32.26 0H1000v20.65h-32.26zM0 354.84h32.26v20.65H0zm32.26 0h32.26v20.65H32.26zm32.26 0h32.26v20.65H64.52zm32.25 0h32.26v20.65H96.77zm580.65 0h32.26v20.65h-32.26zm32.26 0h32.26v20.65h-32.26zm32.26 0h32.26v20.65h-32.26zm32.25 0h32.26v20.65h-32.26zm32.26 0h32.26v20.65h-32.26zm32.26 0h32.26v20.65h-32.26zm32.26 0h32.26v20.65h-32.26zm32.26 0h32.26v20.65h-32.26zm32.25 0h32.26v20.65h-32.26zm32.26 0H1000v20.65h-32.26zM0 387.1h32.26v20.65H0zm32.26 0h32.26v20.65H32.26zm32.26 0h32.26v20.65H64.52zm32.25 0h32.26v20.65H96.77zm645.17 0h32.26v20.65h-32.26zm32.25 0h32.26v20.65h-32.26zm32.26 0h32.26v20.65h-32.26zm32.26 0h32.26v20.65h-32.26zm32.26 0h32.26v20.65h-32.26zm32.26 0h32.26v20.65h-32.26zm32.25 0h32.26v20.65h-32.26zm32.26 0H1000v20.65h-32.26zM0 419.35h32.26V440H0zm32.26 0h32.26V440H32.26zm32.26 0h32.26V440H64.52zm32.25 0h32.26V440H96.77zm32.26 0h32.26V440h-32.26zm645.16 0h32.26V440h-32.26zm32.26 0h32.26V440h-32.26zm32.26 0h32.26V440h-32.26zm32.26 0h32.26V440h-32.26zm32.26 0h32.26V440h-32.26zm32.25 0h32.26V440h-32.26zm32.26 0H1000V440h-32.26zM0 451.61h32.26v20.65H0zm32.26 0h32.26v20.65H32.26zm32.26 0h32.26v20.65H64.52zm32.25 0h32.26v20.65H96.77zm32.26 0h32.26v20.65h-32.26zm32.26 0h32.26v20.65h-32.26zm612.9 0h32.26v20.65h-32.26zm32.26 0h32.26v20.65h-32.26zm32.26 0h32.26v20.65h-32.26zm32.26 0h32.26v20.65h-32.26zm32.26 0h32.26v20.65h-32.26zm32.25 0h32.26v20.65h-32.26zm32.26 0H1000v20.65h-32.26zM0 483.87h32.26v20.65H0zm32.26 0h32.26v20.65H32.26zm32.26 0h32.26v20.65H64.52zm32.25 0h32.26v20.65H96.77zm32.26 0h32.26v20.65h-32.26zm32.26 0h32.26v20.65h-32.26zm32.26 0h32.26v20.65h-32.26zm32.26 0h32.26v20.65h-32.26zm32.25 0h32.26v20.65h-32.26zm548.39 0h32.26v20.65h-32.26zm32.26 0h32.26v20.65h-32.26zm32.26 0h32.26v20.65h-32.26zm32.26 0h32.26v20.65h-32.26zm64.51 0H1000v20.65h-32.26zM0 516.13h32.26v20.65H0zm32.26 0h32.26v20.65H32.26zm32.26 0h32.26v20.65H64.52zm32.25 0h32.26v20.65H96.77zm322.58 0h32.26v20.65h-32.26zm193.55 0h32.26v20.65H612.9zm32.26 0h32.26v20.65h-32.26zm161.29 0h32.26v20.65h-32.26zm32.26 0h32.26v20.65h-32.26zm32.26 0h32.26v20.65h-32.26zm32.26 0h32.26v20.65h-32.26zm64.51 0H1000v20.65h-32.26zM0 548.39h32.26v20.65H0zm548.39 0h32.26v20.65h-32.26zm32.26 0h32.26v20.65h-32.26zm96.77 0h32.26v20.65h-32.26zm32.26 0h32.26v20.65h-32.26zm129.03 0h32.26v20.65h-32.26zM0 580.65h32.26v20.65H0zm32.26 0h32.26v20.65H32.26zm32.26 0h32.26v20.65H64.52zm32.25 0h32.26v20.65H96.77zm32.26 0h32.26v20.65h-32.26zm32.26 0h32.26v20.65h-32.26zm32.26 0h32.26v20.65h-32.26zm32.26 0h32.26v20.65h-32.26zm32.25 0h32.26v20.65h-32.26zm32.26 0h32.26v20.65h-32.26zm32.26 0h32.26v20.65h-32.26zm387.1 0h32.26v20.65h-32.26zm129.03 0h32.26v20.65h-32.26zM0 612.9h32.26v20.65H0zm32.26 0h32.26v20.65H32.26zm32.26 0h32.26v20.65H64.52zm32.25 0h32.26v20.65H96.77zm32.26 0h32.26v20.65h-32.26zm32.26 0h32.26v20.65h-32.26zm32.26 0h32.26v20.65h-32.26zm32.26 0h32.26v20.65h-32.26zm32.25 0h32.26v20.65h-32.26zm32.26 0h32.26v20.65h-32.26zm32.26 0h32.26v20.65h-32.26zm32.26 0h32.26v20.65h-32.26zm32.26 0h32.26v20.65H387.1zm32.25 0h32.26v20.65h-32.26zm32.26 0h32.26v20.65h-32.26zm32.26 0h32.26v20.65h-32.26zm258.07 0h32.26v20.65h-32.26zm96.77 0h32.26v20.65h-32.26zm129.03 0H1000v20.65h-32.26zM0 645.16h32.26v20.65H0zm32.26 0h32.26v20.65H32.26zm32.26 0h32.26v20.65H64.52zm32.25 0h32.26v20.65H96.77zm32.26 0h32.26v20.65h-32.26zm32.26 0h32.26v20.65h-32.26zm193.55 0h32.26v20.65h-32.26zm32.26 0h32.26v20.65H387.1zm32.25 0h32.26v20.65h-32.26zm32.26 0h32.26v20.65h-32.26zm32.26 0h32.26v20.65h-32.26zm32.26 0h32.26v20.65h-32.26zM0 677.42h32.26v20.65H0zm32.26 0h32.26v20.65H32.26zm32.26 0h32.26v20.65H64.52zm32.25 0h32.26v20.65H96.77zm32.26 0h32.26v20.65h-32.26zm225.81 0h32.26v20.65h-32.26zm32.26 0h32.26v20.65H387.1zm32.25 0h32.26v20.65h-32.26zm32.26 0h32.26v20.65h-32.26zm32.26 0h32.26v20.65h-32.26zm32.26 0h32.26v20.65h-32.26zm129.03 0h32.26v20.65h-32.26zm32.26 0h32.26v20.65h-32.26zM0 709.68h32.26v20.65H0zm32.26 0h32.26v20.65H32.26zm32.26 0h32.26v20.65H64.52zm32.25 0h32.26v20.65H96.77zm32.26 0h32.26v20.65h-32.26zm32.26 0h32.26v20.65h-32.26zm96.77 0h32.26v20.65h-32.26zm96.78 0h32.26v20.65h-32.26zm32.26 0h32.26v20.65H387.1zm32.25 0h32.26v20.65h-32.26zm32.26 0h32.26v20.65h-32.26zm32.26 0h32.26v20.65h-32.26zm32.26 0h32.26v20.65h-32.26zm32.26 0h32.26v20.65h-32.26zm225.8 0h32.26v20.65h-32.26zm32.26 0h32.26v20.65h-32.26zm32.26 0h32.26v20.65h-32.26zm32.26 0h32.26v20.65h-32.26zm32.26 0h32.26v20.65h-32.26zM0 741.94h32.26v20.65H0zm32.26 0h32.26v20.65H32.26zm32.26 0h32.26v20.65H64.52zm32.25 0h32.26v20.65H96.77zm32.26 0h32.26v20.65h-32.26zm32.26 0h32.26v20.65h-32.26zm32.26 0h32.26v20.65h-32.26zm32.26 0h32.26v20.65h-32.26zm129.03 0h32.26v20.65h-32.26zm32.26 0h32.26v20.65H387.1zm32.25 0h32.26v20.65h-32.26zm32.26 0h32.26v20.65h-32.26zm32.26 0h32.26v20.65h-32.26zm32.26 0h32.26v20.65h-32.26zm32.26 0h32.26v20.65h-32.26zm32.26 0h32.26v20.65h-32.26zm161.29 0h32.26v20.65h-32.26zm32.25 0h32.26v20.65h-32.26zm32.26 0h32.26v20.65h-32.26zm32.26 0h32.26v20.65h-32.26zm32.26 0h32.26v20.65h-32.26zm32.26 0h32.26v20.65h-32.26zm32.25 0h32.26v20.65h-32.26zm32.26 0H1000v20.65h-32.26zM0 774.19h32.26v20.65H0zm32.26 0h32.26v20.65H32.26zm32.26 0h32.26v20.65H64.52zm32.25 0h32.26v20.65H96.77zm32.26 0h32.26v20.65h-32.26zm32.26 0h32.26v20.65h-32.26zm32.26 0h32.26v20.65h-32.26zm32.26 0h32.26v20.65h-32.26zm32.25 0h32.26v20.65h-32.26zm32.26 0h32.26v20.65h-32.26zm32.26 0h32.26v20.65h-32.26zm32.26 0h32.26v20.65h-32.26zm32.26 0h32.26v20.65H387.1zm32.25 0h32.26v20.65h-32.26zm32.26 0h32.26v20.65h-32.26zm32.26 0h32.26v20.65h-32.26zm32.26 0h32.26v20.65h-32.26zm32.26 0h32.26v20.65h-32.26zm32.26 0h32.26v20.65h-32.26zm32.25 0h32.26v20.65H612.9zm32.26 0h32.26v20.65h-32.26zm32.26 0h32.26v20.65h-32.26zm32.26 0h32.26v20.65h-32.26zm32.26 0h32.26v20.65h-32.26zm32.25 0h32.26v20.65h-32.26zm32.26 0h32.26v20.65h-32.26zm32.26 0h32.26v20.65h-32.26zm32.26 0h32.26v20.65h-32.26zm32.26 0h32.26v20.65h-32.26zm32.25 0h32.26v20.65h-32.26zm32.26 0H1000v20.65h-32.26zM0 806.45h32.26v20.65H0zm32.26 0h32.26v20.65H32.26zm32.26 0h32.26v20.65H64.52zm32.25 0h32.26v20.65H96.77zm32.26 0h32.26v20.65h-32.26zm32.26 0h32.26v20.65h-32.26zm32.26 0h32.26v20.65h-32.26zm32.26 0h32.26v20.65h-32.26zm32.25 0h32.26v20.65h-32.26zm32.26 0h32.26v20.65h-32.26zm32.26 0h32.26v20.65h-32.26zm32.26 0h32.26v20.65h-32.26zm32.26 0h32.26v20.65H387.1zm32.25 0h32.26v20.65h-32.26zm32.26 0h32.26v20.65h-32.26zm32.26 0h32.26v20.65h-32.26zm32.26 0h32.26v20.65h-32.26zm32.26 0h32.26v20.65h-32.26zm32.26 0h32.26v20.65h-32.26zm32.25 0h32.26v20.65H612.9zm32.26 0h32.26v20.65h-32.26zm32.26 0h32.26v20.65h-32.26zm32.26 0h32.26v20.65h-32.26zm32.26 0h32.26v20.65h-32.26zm32.25 0h32.26v20.65h-32.26zm32.26 0h32.26v20.65h-32.26zm32.26 0h32.26v20.65h-32.26zm32.26 0h32.26v20.65h-32.26zm32.26 0h32.26v20.65h-32.26zm32.25 0h32.26v20.65h-32.26zm32.26 0H1000v20.65h-32.26zM0 838.71h32.26v20.65H0zm32.26 0h32.26v20.65H32.26zm32.26 0h32.26v20.65H64.52zm32.25 0h32.26v20.65H96.77zm32.26 0h32.26v20.65h-32.26zm32.26 0h32.26v20.65h-32.26zm32.26 0h32.26v20.65h-32.26zm32.26 0h32.26v20.65h-32.26zm32.25 0h32.26v20.65h-32.26zm32.26 0h32.26v20.65h-32.26zm32.26 0h32.26v20.65h-32.26zm32.26 0h32.26v20.65h-32.26zm32.26 0h32.26v20.65H387.1zm32.25 0h32.26v20.65h-32.26zm32.26 0h32.26v20.65h-32.26zm32.26 0h32.26v20.65h-32.26zm32.26 0h32.26v20.65h-32.26zm32.26 0h32.26v20.65h-32.26zm32.26 0h32.26v20.65h-32.26zm32.25 0h32.26v20.65H612.9zm32.26 0h32.26v20.65h-32.26zm32.26 0h32.26v20.65h-32.26zm32.26 0h32.26v20.65h-32.26zm32.26 0h32.26v20.65h-32.26zm32.25 0h32.26v20.65h-32.26zm32.26 0h32.26v20.65h-32.26zm32.26 0h32.26v20.65h-32.26zm32.26 0h32.26v20.65h-32.26zm32.26 0h32.26v20.65h-32.26zm32.25 0h32.26v20.65h-32.26zm32.26 0H1000v20.65h-32.26zM0 870.97h32.26v20.65H0zm32.26 0h32.26v20.65H32.26zm32.26 0h32.26v20.65H64.52zm32.25 0h32.26v20.65H96.77zm32.26 0h32.26v20.65h-32.26zm32.26 0h32.26v20.65h-32.26zm32.26 0h32.26v20.65h-32.26zm32.26 0h32.26v20.65h-32.26zm32.25 0h32.26v20.65h-32.26zm32.26 0h32.26v20.65h-32.26zm32.26 0h32.26v20.65h-32.26zm32.26 0h32.26v20.65h-32.26zm32.26 0h32.26v20.65H387.1zm32.25 0h32.26v20.65h-32.26zm32.26 0h32.26v20.65h-32.26zm32.26 0h32.26v20.65h-32.26zm32.26 0h32.26v20.65h-32.26zm32.26 0h32.26v20.65h-32.26zm32.26 0h32.26v20.65h-32.26zm32.25 0h32.26v20.65H612.9zm32.26 0h32.26v20.65h-32.26zm32.26 0h32.26v20.65h-32.26zm32.26 0h32.26v20.65h-32.26zm32.26 0h32.26v20.65h-32.26zm32.25 0h32.26v20.65h-32.26zm32.26 0h32.26v20.65h-32.26zm32.26 0h32.26v20.65h-32.26zm32.26 0h32.26v20.65h-32.26zm32.26 0h32.26v20.65h-32.26zm32.25 0h32.26v20.65h-32.26zm32.26 0H1000v20.65h-32.26zM0 903.23h32.26v20.65H0zm32.26 0h32.26v20.65H32.26zm32.26 0h32.26v20.65H64.52zm32.25 0h32.26v20.65H96.77zm32.26 0h32.26v20.65h-32.26zm32.26 0h32.26v20.65h-32.26zm32.26 0h32.26v20.65h-32.26zm32.26 0h32.26v20.65h-32.26zm32.25 0h32.26v20.65h-32.26zm32.26 0h32.26v20.65h-32.26zm32.26 0h32.26v20.65h-32.26zm32.26 0h32.26v20.65h-32.26zm32.26 0h32.26v20.65H387.1zm32.25 0h32.26v20.65h-32.26zm32.26 0h32.26v20.65h-32.26zm32.26 0h32.26v20.65h-32.26zm32.26 0h32.26v20.65h-32.26zm32.26 0h32.26v20.65h-32.26zm32.26 0h32.26v20.65h-32.26zm32.25 0h32.26v20.65H612.9zm32.26 0h32.26v20.65h-32.26zm32.26 0h32.26v20.65h-32.26zm32.26 0h32.26v20.65h-32.26zm32.26 0h32.26v20.65h-32.26zm32.25 0h32.26v20.65h-32.26zm32.26 0h32.26v20.65h-32.26zm32.26 0h32.26v20.65h-32.26zm32.26 0h32.26v20.65h-32.26zm32.26 0h32.26v20.65h-32.26zm32.25 0h32.26v20.65h-32.26zm32.26 0H1000v20.65h-32.26zM0 935.48h32.26v20.65H0zm32.26 0h32.26v20.65H32.26zm32.26 0h32.26v20.65H64.52zm32.25 0h32.26v20.65H96.77zm32.26 0h32.26v20.65h-32.26zm32.26 0h32.26v20.65h-32.26zm32.26 0h32.26v20.65h-32.26zm32.26 0h32.26v20.65h-32.26zm32.25 0h32.26v20.65h-32.26zm32.26 0h32.26v20.65h-32.26zm32.26 0h32.26v20.65h-32.26zm32.26 0h32.26v20.65h-32.26zm32.26 0h32.26v20.65H387.1zm32.25 0h32.26v20.65h-32.26zm32.26 0h32.26v20.65h-32.26zm32.26 0h32.26v20.65h-32.26zm32.26 0h32.26v20.65h-32.26zm32.26 0h32.26v20.65h-32.26zm32.26 0h32.26v20.65h-32.26zm32.25 0h32.26v20.65H612.9zm32.26 0h32.26v20.65h-32.26zm32.26 0h32.26v20.65h-32.26zm32.26 0h32.26v20.65h-32.26zm32.26 0h32.26v20.65h-32.26zm32.25 0h32.26v20.65h-32.26zm32.26 0h32.26v20.65h-32.26zm32.26 0h32.26v20.65h-32.26zm32.26 0h32.26v20.65h-32.26zm32.26 0h32.26v20.65h-32.26zm32.25 0h32.26v20.65h-32.26zm32.26 0H1000v20.65h-32.26zM0 967.74h32.26v20.65H0zm32.26 0h32.26v20.65H32.26zm32.26 0h32.26v20.65H64.52zm32.25 0h32.26v20.65H96.77zm32.26 0h32.26v20.65h-32.26zm32.26 0h32.26v20.65h-32.26zm32.26 0h32.26v20.65h-32.26zm32.26 0h32.26v20.65h-32.26zm32.25 0h32.26v20.65h-32.26zm32.26 0h32.26v20.65h-32.26zm32.26 0h32.26v20.65h-32.26zm32.26 0h32.26v20.65h-32.26zm32.26 0h32.26v20.65H387.1zm32.25 0h32.26v20.65h-32.26zm32.26 0h32.26v20.65h-32.26zm32.26 0h32.26v20.65h-32.26zm32.26 0h32.26v20.65h-32.26zm32.26 0h32.26v20.65h-32.26zm32.26 0h32.26v20.65h-32.26zm32.25 0h32.26v20.65H612.9zm32.26 0h32.26v20.65h-32.26zm32.26 0h32.26v20.65h-32.26zm32.26 0h32.26v20.65h-32.26zm32.26 0h32.26v20.65h-32.26zm32.25 0h32.26v20.65h-32.26zm32.26 0h32.26v20.65h-32.26zm32.26 0h32.26v20.65h-32.26zm32.26 0h32.26v20.65h-32.26zm32.26 0h32.26v20.65h-32.26zm32.25 0h32.26v20.65h-32.26zm32.26 0H1000v20.65h-32.26z"/><path fill="#0c322c" d="M258.06 225.81h32.26v20.65h-32.26zm64.52 0h32.26v20.65h-32.26zm-129.03 32.25h32.26v20.65h-32.26zm129.03 0h32.26v20.65h-32.26zm225.81 32.26h32.26v20.65h-32.26zm-419.36 32.26h32.26v20.65h-32.26zm483.87 0h32.26v20.65H612.9zM129.03 387.1h32.26v20.65h-32.26zm129.03 0h32.26v20.65h-32.26zm451.62 0h32.26v20.65h-32.26zm-548.39 32.25h32.26V440h-32.26zm32.26 0h32.26V440h-32.26zm32.26 0h32.26V440h-32.26zm516.13 0h32.26V440h-32.26zm-548.39 32.26h32.26v20.65h-32.26zm32.26 0h32.26v20.65h-32.26zm32.25 0h32.26v20.65h-32.26zm32.26 0h32.26v20.65h-32.26zm32.26 0h32.26v20.65h-32.26zm-32.26 32.26h32.26v20.65h-32.26zm32.26 0h32.26v20.65h-32.26zm96.77 0h32.26v20.65h-32.26zm354.84 0h32.26v20.65h-32.26zm161.29 0h32.26v20.65h-32.26zm-806.45 32.26h32.26v20.65h-32.26zm32.26 0h32.26v20.65h-32.26zm32.26 0h32.26v20.65h-32.26zm32.26 0h32.26v20.65h-32.26zm32.25 0h32.26v20.65h-32.26zm32.26 0h32.26v20.65h-32.26zm32.26 0h32.26v20.65h-32.26zm64.52 0h32.26v20.65H387.1zm64.51 0h32.26v20.65h-32.26zm129.04 0h32.26v20.65h-32.26zm96.77 0h32.26v20.65h-32.26zm32.26 0h32.26v20.65h-32.26zm225.8 0h32.26v20.65h-32.26zm-806.45 32.26h32.26v20.65h-32.26zm32.26 0h32.26v20.65h-32.26zm32.26 0h32.26v20.65h-32.26zm32.26 0h32.26v20.65h-32.26zm32.25 0h32.26v20.65h-32.26zm258.07 0h32.26v20.65h-32.26zm96.77 0h32.26v20.65H612.9zm32.26 0h32.26v20.65h-32.26zm96.78 0h32.26v20.65h-32.26zm64.51 0h32.26v20.65h-32.26zm64.52 0h32.26v20.65h-32.26zm32.26 0h32.26v20.65h-32.26zm32.25 0h32.26v20.65h-32.26zm32.26 0H1000v20.65h-32.26zm-612.9 32.26h32.26v20.65h-32.26zm32.26 0h32.26v20.65H387.1zm32.25 0h32.26v20.65h-32.26zm129.04 0h32.26v20.65h-32.26zm64.51 0h32.26v20.65H612.9zm32.26 0h32.26v20.65h-32.26zm96.78 0h32.26v20.65h-32.26zm64.51 0h32.26v20.65h-32.26zm96.78 0h32.26v20.65h-32.26zm32.25 0h32.26v20.65h-32.26zm32.26 0H1000v20.65h-32.26zM516.13 612.9h32.26v20.65h-32.26zm193.55 0h32.26v20.65h-32.26zm96.77 0h32.26v20.65h-32.26zm64.52 0h32.26v20.65h-32.26zm32.26 0h32.26v20.65h-32.26zm32.25 0h32.26v20.65h-32.26zm-741.93 32.26h32.26v20.65h-32.26zm96.77 0h32.26v20.65h-32.26zm32.26 0h32.26v20.65h-32.26zm258.07 0h32.26v20.65h-32.26zm32.25 0h32.26v20.65H612.9zm32.26 0h32.26v20.65h-32.26zm32.26 0h32.26v20.65h-32.26zm64.52 0h32.26v20.65h-32.26zm96.77 0h32.26v20.65h-32.26zm32.26 0h32.26v20.65h-32.26zm32.26 0h32.26v20.65h-32.26zm32.25 0h32.26v20.65h-32.26zm32.26 0H1000v20.65h-32.26zm-806.45 32.26h32.26v20.65h-32.26zm32.26 0h32.26v20.65h-32.26zm32.26 0h32.26v20.65h-32.26zm32.25 0h32.26v20.65h-32.26zm32.26 0h32.26v20.65h-32.26zm32.26 0h32.26v20.65h-32.26zm225.81 0h32.26v20.65h-32.26zm64.51 0h32.26v20.65H612.9zm96.78 0h32.26v20.65h-32.26zm-516.13 32.26h32.26v20.65h-32.26zm32.26 0h32.26v20.65h-32.26zm96.77 0h32.26v20.65h-32.26zm258.07 0h32.26v20.65h-32.26zm161.29 0h32.26v20.65h-32.26zm193.54 0h32.26v20.65h-32.26zm32.26 0H1000v20.65h-32.26zm-709.68 32.26h32.26v20.65h-32.26zm64.52 0h32.26v20.65h-32.26zm290.32 0h32.26v20.65H612.9zm32.26 0h32.26v20.65h-32.26zm32.26 0h32.26v20.65h-32.26zm32.26 0h32.26v20.65h-32.26z"/><path fill="#30ba78" d="M290.32 225.81h32.26v20.65h-32.26zm-64.51 32.25h32.26v20.65h-32.26zm32.25 0h32.26v20.65h-32.26zm32.26 0h32.26v20.65h-32.26zm-129.03 32.26h32.26v20.65h-32.26zm96.77 0h32.26v20.65h-32.26zm32.26 0h32.26v20.65h-32.26zm32.26 0h32.26v20.65h-32.26zm32.26 0h32.26v20.65h-32.26zm32.26 0h32.26v20.65H387.1zm32.25 0h32.26v20.65h-32.26zm32.26 0h32.26v20.65h-32.26zm32.26 0h32.26v20.65h-32.26zm32.26 0h32.26v20.65h-32.26zm-258.07 32.26h32.26v20.65h-32.26zm32.26 0h32.26v20.65h-32.26zm32.26 0h32.26v20.65h-32.26zm32.26 0h32.26v20.65h-32.26zm32.26 0h32.26v20.65H387.1zm32.25 0h32.26v20.65h-32.26zm32.26 0h32.26v20.65h-32.26zm32.26 0h32.26v20.65h-32.26zm32.26 0h32.26v20.65h-32.26zm32.26 0h32.26v20.65h-32.26zm32.26 0h32.26v20.65h-32.26zm-451.62 32.26h32.26v20.65h-32.26zm129.03 0h32.26v20.65h-32.26zm32.26 0h32.26v20.65h-32.26zm32.26 0h32.26v20.65h-32.26zm32.26 0h32.26v20.65h-32.26zm32.26 0h32.26v20.65H387.1zm32.25 0h32.26v20.65h-32.26zm32.26 0h32.26v20.65h-32.26zm32.26 0h32.26v20.65h-32.26zm32.26 0h32.26v20.65h-32.26zm32.26 0h32.26v20.65h-32.26zm32.26 0h32.26v20.65h-32.26zm32.25 0h32.26v20.65H612.9zm32.26 0h32.26v20.65h-32.26zM161.29 387.1h32.26v20.65h-32.26zm64.52 0h32.26v20.65h-32.26zm64.51 0h32.26v20.65h-32.26zm32.26 0h32.26v20.65h-32.26zm32.26 0h32.26v20.65h-32.26zm32.26 0h32.26v20.65H387.1zm32.25 0h32.26v20.65h-32.26zm32.26 0h32.26v20.65h-32.26zm32.26 0h32.26v20.65h-32.26zm32.26 0h32.26v20.65h-32.26zm32.26 0h32.26v20.65h-32.26zm32.26 0h32.26v20.65h-32.26zm32.25 0h32.26v20.65H612.9zm32.26 0h32.26v20.65h-32.26zm32.26 0h32.26v20.65h-32.26zm-419.36 32.25h32.26V440h-32.26zm32.26 0h32.26V440h-32.26zm32.26 0h32.26V440h-32.26zm32.26 0h32.26V440h-32.26zm32.26 0h32.26V440H387.1zm32.25 0h32.26V440h-32.26zm32.26 0h32.26V440h-32.26zm32.26 0h32.26V440h-32.26zm32.26 0h32.26V440h-32.26zm32.26 0h32.26V440h-32.26zm32.26 0h32.26V440h-32.26zm32.25 0h32.26V440H612.9zm32.26 0h32.26V440h-32.26zm32.26 0h32.26V440h-32.26zm32.26 0h32.26V440h-32.26zm-354.84 32.26h32.26v20.65h-32.26zm32.26 0h32.26v20.65H387.1zm32.25 0h32.26v20.65h-32.26zm32.26 0h32.26v20.65h-32.26zm32.26 0h32.26v20.65h-32.26zm32.26 0h32.26v20.65h-32.26zm32.26 0h32.26v20.65h-32.26zm32.26 0h32.26v20.65h-32.26zm32.25 0h32.26v20.65H612.9zm32.26 0h32.26v20.65h-32.26zm32.26 0h32.26v20.65h-32.26zm32.26 0h32.26v20.65h-32.26zm32.26 0h32.26v20.65h-32.26zm-387.1 32.26h32.26v20.65h-32.26zm32.26 0h32.26v20.65H387.1zm64.51 0h32.26v20.65h-32.26zm32.26 0h32.26v20.65h-32.26zm32.26 0h32.26v20.65h-32.26zm32.26 0h32.26v20.65h-32.26zm32.26 0h32.26v20.65h-32.26zm32.25 0h32.26v20.65H612.9zm32.26 0h32.26v20.65h-32.26zm32.26 0h32.26v20.65h-32.26zm32.26 0h32.26v20.65h-32.26zm32.26 0h32.26v20.65h-32.26zm-387.1 32.26h32.26v20.65h-32.26zm129.03 0h32.26v20.65h-32.26zm32.26 0h32.26v20.65h-32.26zm32.26 0h32.26v20.65h-32.26zm193.55 0h32.26v20.65h-32.26zm32.25 0h32.26v20.65h-32.26zM32.26 548.39h32.26v20.65H32.26zm32.26 0h32.26v20.65H64.52zm32.25 0h32.26v20.65H96.77zm193.55 0h32.26v20.65h-32.26zm32.26 0h32.26v20.65h-32.26zm32.26 0h32.26v20.65h-32.26zm32.26 0h32.26v20.65H387.1zm32.25 0h32.26v20.65h-32.26zm32.26 0h32.26v20.65h-32.26zm32.26 0h32.26v20.65h-32.26zm290.32 0h32.26v20.65h-32.26zm-322.58 32.26h32.26v20.65h-32.26zm32.26 0h32.26v20.65h-32.26zm32.26 0h32.26v20.65h-32.26zm64.52 0h32.26v20.65h-32.26zm96.77 0h32.26v20.65h-32.26zm96.77 0h32.26v20.65h-32.26zm96.78 0h32.26v20.65h-32.26zM548.39 612.9h32.26v20.65h-32.26zm32.26 0h32.26v20.65h-32.26zm32.25 0h32.26v20.65H612.9zm32.26 0h32.26v20.65h-32.26zm32.26 0h32.26v20.65h-32.26zm96.77 0h32.26v20.65h-32.26zm-548.38 32.26h32.26v20.65h-32.26zm32.25 0h32.26v20.65h-32.26zm290.33 0h32.26v20.65h-32.26zm161.29 0h32.26v20.65h-32.26zm64.51 0h32.26v20.65h-32.26zm32.26 0h32.26v20.65h-32.26zm-225.8 32.26h32.26v20.65h-32.26zm161.29 0h32.26v20.65h-32.26zm32.25 0h32.26v20.65h-32.26zm32.26 0h32.26v20.65h-32.26zm32.26 0h32.26v20.65h-32.26zm32.26 0h32.26v20.65h-32.26zm32.26 0h32.26v20.65h-32.26zm32.25 0h32.26v20.65h-32.26zm32.26 0H1000v20.65h-32.26zm-677.42 32.26h32.26v20.65h-32.26zm322.58 0h32.26v20.65H612.9zm32.26 0h32.26v20.65h-32.26zm32.26 0h32.26v20.65h-32.26zm32.26 0h32.26v20.65h-32.26zm-419.36 32.26h32.26v20.65h-32.26z"/><path fill="#bff1ea" d="M225.81 290.32h32.26v20.65h-32.26zm-32.26 96.78h32.26v20.65h-32.26z"/><path fill="#fff" d="M193.55 290.32h32.26v20.65h-32.26zm-32.26 32.26h32.26v20.65h-32.26zm32.26 0h32.26v20.65h-32.26zm32.26 0h32.26v20.65h-32.26zm-64.52 32.26h32.26v20.65h-32.26zm32.26 0h32.26v20.65h-32.26zm32.26 0h32.26v20.65h-32.26z"/></svg>