<svg xmlns="http://www.w3.org/2000/svg" width="1080" height="1080" style="width:100%;height:auto;display:block" viewBox="0 0 1080 1080"><rect height="100%" fill="#fff"/><path fill="#dbe2e4" stroke="#dbe2e4" stroke-linejoin="round" d="M0 0h81.9l-2.72 52.33-11.84 11.1L0 56.45z"/><path fill="#a3b7bf" stroke="#a3b7bf" stroke-linejoin="round" d="M81.9 0h67.04l5.12 69.3-3.31 2.44-71.57-19.41z"/><path fill="#d9e0e2" stroke="#d9e0e2" stroke-linejoin="round" d="M148.94 0h66.8L198.9 70.24l-44.84-.94z"/><path fill="#d5e0e3" stroke="#d5e0e3" stroke-linejoin="round" d="M215.74 0h57.54l-5.41 62.51-53.84 18.16-15.13-10.43z"/><path fill="#c5d2d7" stroke="#c5d2d7" stroke-linejoin="round" d="M273.28 0h67.61L349 69.26l-54.54 16.08-26.59-22.83z"/><path fill="#c2d0d5" stroke="#c2d0d5" stroke-linejoin="round" d="M340.89 0h85.77l.17 63.68-13.43 11.58-57.43-.83-6.97-5.17z"/><path fill="#c2d2d6" stroke="#c2d2d6" stroke-linejoin="round" d="M426.66 0h79.78l-14.12 80.62-65.49-16.94z"/><path fill="#bed1d5" stroke="#bed1d5" stroke-linejoin="round" d="M506.44 0h60.12l9.01 54.7-27.15 34.22-54.79-6.63-1.31-1.67z"/><path fill="#8aa7b1" stroke="#8aa7b1" stroke-linejoin="round" d="M566.56 0h85.97l-9.3 76.05-67.66-21.35z"/><path fill="#d2dddf" stroke="#d2dddf" stroke-linejoin="round" d="M652.53 0h62.95l3.64 63.31-73.79 15.92-2.1-3.18z"/><path fill="#7b9fac" stroke="#7b9fac" stroke-linejoin="round" d="M715.48 0h76.18l-5.15 79.21-6.39 8.29-39.58-4.54-21.42-19.65z"/><path fill="#668796" stroke="#668796" stroke-linejoin="round" d="M791.66 0h72.58l-3.19 62.82-74.54 16.39z"/><path fill="#7296a1" stroke="#7296a1" stroke-linejoin="round" d="M864.24 0h64.97l3.17 76.65-46.92 13.79-24.41-27.62z"/><path fill="#7597a1" stroke="#7597a1" stroke-linejoin="round" d="M929.21 0h66.94l8.37 68.56-2.95 4.01L950.4 85.3l-18.02-8.65z"/><path fill="#8dadb4" stroke="#8dadb4" stroke-linejoin="round" d="M996.15 0H1080v64.04l-75.48 4.52z"/><path fill="#abcbd4" stroke="#abcbd4" stroke-linejoin="round" d="M0 133.14V56.45l67.34 6.98 2.81 65.27z"/><path fill="#93b8c7" stroke="#93b8c7" stroke-linejoin="round" d="m70.15 128.7-2.81-65.27 11.84-11.1 71.57 19.41-15.06 52.2-60.06 9.37z"/><path fill="#6c93a0" stroke="#6c93a0" stroke-linejoin="round" d="m135.69 123.94 15.06-52.2 3.31-2.44 44.84.94 15.13 10.43 9.81 65.83-14.74 13.81-50.55-6.31z"/><path fill="#a3c9d5" stroke="#a3c9d5" stroke-linejoin="round" d="m223.84 146.5-9.81-65.83 53.84-18.16 26.59 22.83-7.31 48.4-17.98 13.8z"/><path fill="#76a8ba" stroke="#76a8ba" stroke-linejoin="round" d="m287.15 133.74 7.31-48.4L349 69.26l6.97 5.17-1.42 72.7-6.15 5.27z"/><path fill="#7aaaac" stroke="#7aaaac" stroke-linejoin="round" d="m354.55 147.13 1.42-72.7 57.43.83 6.14 72.45z"/><path fill="#90b9bf" stroke="#90b9bf" stroke-linejoin="round" d="m419.54 147.71-6.14-72.45 13.43-11.58 65.49 16.94 1.31 1.67-15.47 62.96-56.63 4.32z"/><path fill="#83adb4" stroke="#83adb4" stroke-linejoin="round" d="m478.16 145.25 15.47-62.96 54.79 6.63 21.23 52.23-66.89 31.73z"/><path fill="#8ab0bf" stroke="#8ab0bf" stroke-linejoin="round" d="m548.42 88.92 27.15-34.22 67.66 21.35 2.1 3.18-1.56 37.43-61.31 30.8-12.81-6.31z"/><path fill="#92b0bd" stroke="#92b0bd" stroke-linejoin="round" d="m643.77 116.66 1.56-37.43 73.79-15.92 21.42 19.65-43.74 67.33-19.2-1.61z"/><path fill="#7096a4" stroke="#7096a4" stroke-linejoin="round" d="m696.8 150.29 43.74-67.33 39.58 4.54 13.79 38.92-11.32 31.34-62.03 13.04z"/><path fill="#789eac" stroke="#789eac" stroke-linejoin="round" d="M793.91 126.42 780.12 87.5l6.39-8.29 74.54-16.39 24.41 27.62-10.11 38.25-7.73 7.07z"/><path fill="#628690" stroke="#628690" stroke-linejoin="round" d="m875.35 128.69 10.11-38.25 46.92-13.79 18.02 8.65 3.46 69.7-8.23 5.84z"/><path fill="#88a7ad" stroke="#88a7ad" stroke-linejoin="round" d="m953.86 155-3.46-69.7 51.17-12.73 18.67 64.84-20.53 21.37z"/><path fill="#89a8aa" stroke="#89a8aa" stroke-linejoin="round" d="M1080 64.04v75.98l-59.76-2.61-18.67-64.84 2.95-4.01z"/><path fill="#749295" stroke="#749295" stroke-linejoin="round" d="M0 200.66v-67.52l70.15-4.44 5.48 4.61 1.98 64.79-6.88 6.03z"/><path fill="#7a999b" stroke="#7a999b" stroke-linejoin="round" d="m77.61 198.1-1.98-64.79 60.06-9.37L158.55 154l-30.39 51.39z"/><path fill="#84ad9c" stroke="#84ad9c" stroke-linejoin="round" d="M128.16 205.39 158.55 154l50.55 6.31 4.27 52.35-62.83 28.47z"/><path fill="#82a49e" stroke="#82a49e" stroke-linejoin="round" d="m213.37 212.66-4.27-52.35 14.74-13.81 45.33 1.04 21.9 63.36-62.01 16.06z"/><path fill="#628f90" stroke="#628f90" stroke-linejoin="round" d="m291.07 210.9-21.9-63.36 17.98-13.8 61.25 18.66-6.19 60.53-3.2 3.04-32.09 3.74z"/><path fill="#80aeac" stroke="#80aeac" stroke-linejoin="round" d="m342.21 212.93 6.19-60.53 6.15-5.27 64.99.58 1.99 1.86-4.81 65.8z"/><path fill="#83a0a8" stroke="#83a0a8" stroke-linejoin="round" d="m416.72 215.37 4.81-65.8 56.63-4.32 24.6 27.63-1.1 33.95-73.64 21.73z"/><path fill="#6c8f99" stroke="#6c8f99" stroke-linejoin="round" d="m501.66 206.83 1.1-33.95 66.89-31.73 12.81 6.31 12.83 50.95-16.96 24.3-56.94 8.1z"/><path fill="#738f9b" stroke="#738f9b" stroke-linejoin="round" d="m595.29 198.41-12.83-50.95 61.31-30.8 33.83 32.02-31.78 57.05z"/><path fill="#8fadae" stroke="#8fadae" stroke-linejoin="round" d="m645.82 205.73 31.78-57.05 19.2 1.61 23.76 20.51 1.48 53.82-15.63 16.32-47.19-12.74z"/><path fill="#7999a7" stroke="#7999a7" stroke-linejoin="round" d="m722.04 224.62-1.48-53.82 62.03-13.04 17.51 38.28-20.36 35.11z"/><path fill="#7c9fad" stroke="#7c9fad" stroke-linejoin="round" d="m800.1 196.04-17.51-38.28 11.32-31.34 73.71 9.34-5.25 67.32z"/><path fill="#6c8e99" stroke="#6c8e99" stroke-linejoin="round" d="m862.37 203.08 5.25-67.32 7.73-7.07 70.28 32.15-17.55 50.11-59.66-.38z"/><path fill="#7a9ea0" stroke="#7a9ea0" stroke-linejoin="round" d="m928.08 210.95 17.55-50.11 8.23-5.84 45.85 3.78 17.08 57.55-76.75 10.08z"/><path fill="#8fafb3" stroke="#8fafb3" stroke-linejoin="round" d="M1080 140.02v69.92l-60.94 8.22-2.27-1.83-17.08-57.55 20.53-21.37z"/><path fill="#99b7ac" stroke="#99b7ac" stroke-linejoin="round" d="M0 277.68v-77.02l70.73 3.47-2.63 72.39z"/><path fill="#7aa296" stroke="#7aa296" stroke-linejoin="round" d="m68.1 276.52 2.63-72.39 6.88-6.03 50.55 7.29 22.38 35.74-3.46 22.58-69.76 20.84z"/><path fill="#819b9c" stroke="#819b9c" stroke-linejoin="round" d="m147.08 263.71 3.46-22.58 62.83-28.47 15.69 14.3 5.77 49.83-9.67 10.08-61.01.31z"/><path fill="#89a6a3" stroke="#89a6a3" stroke-linejoin="round" d="m234.83 276.79-5.77-49.83 62.01-16.06 15.85 8.81-23.45 63.39z"/><path fill="#7fa3a8" stroke="#7fa3a8" stroke-linejoin="round" d="m283.47 283.1 23.45-63.39 32.09-3.74 19.75 71.9-56.46 18.46z"/><path fill="#7ea59c" stroke="#7ea59c" stroke-linejoin="round" d="m358.76 287.87-19.75-71.9 3.2-3.04 74.51 2.44 11.3 13.19-.7 35.57-62.48 26.8z"/><path fill="#8dafa7" stroke="#8dafa7" stroke-linejoin="round" d="m427.32 264.13.7-35.57 73.64-21.73 19.73 23.98-7.71 49.52-12.89 9.56-63.2-13.83z"/><path fill="#62858d" stroke="#62858d" stroke-linejoin="round" d="m513.68 280.33 7.71-49.52 56.94-8.1 25.88 59.75-34.57 24.07z"/><path fill="#526b71" stroke="#526b71" stroke-linejoin="round" d="m578.33 222.71 16.96-24.3 50.53 7.32 13.4 22.47-35.84 57.16-19.17-2.9z"/><path fill="#6a7272" stroke="#6a7272" stroke-linejoin="round" d="m623.38 285.36 35.84-57.16 47.19 12.74 3.46 37.15-61.16 31.84z"/><path fill="#6e8b96" stroke="#6e8b96" stroke-linejoin="round" d="m709.87 278.09-3.46-37.15 15.63-16.32 57.7 6.53 13.79 38.89-10.3 16.68-50.12 12.83z"/><path fill="#6b8f9c" stroke="#6b8f9c" stroke-linejoin="round" d="m793.53 270.04-13.79-38.89 20.36-35.11 62.27 7.04 6.05 7.49-13.24 58.1z"/><path fill="#698b95" stroke="#698b95" stroke-linejoin="round" d="m855.18 268.67 13.24-58.1 59.66.38 11.96 15.46 2.84 50.27-14.65 19.87-59.52-7.67z"/><path fill="#7f9ea0" stroke="#7f9ea0" stroke-linejoin="round" d="m942.88 276.68-2.84-50.27 76.75-10.08 2.27 1.83-5.27 62.31z"/><path fill="#90b0b3" stroke="#90b0b3" stroke-linejoin="round" d="M1080 209.94v91.66l-56.08-8.09-10.13-13.04 5.27-62.31z"/><path fill="#95b0bb" stroke="#95b0bb" stroke-linejoin="round" d="M0 357.26v-79.58l68.1-1.16 9.22 8.03 6.27 60.41-8.64 8.09z"/><path fill="#a0b4bf" stroke="#a0b4bf" stroke-linejoin="round" d="m83.59 344.96-6.27-60.41 69.76-20.84 17.07 23.47-9.66 57.91-12.18 9.54z"/><path fill="#7d9ea7" stroke="#7d9ea7" stroke-linejoin="round" d="m154.49 345.09 9.66-57.91 61.01-.31 4.68 60.74-13.49 9.51z"/><path fill="#7b9ea7" stroke="#7b9ea7" stroke-linejoin="round" d="m229.84 347.61-4.68-60.74 9.67-10.08 48.64 6.31 18.83 23.23-5.79 32.76-23.73 16.48z"/><path fill="#7499a2" stroke="#7499a2" stroke-linejoin="round" d="m296.51 339.09 5.79-32.76 56.46-18.46 6.08 3.06 16.3 52.19-26.25 33.07z"/><path fill="#759ca9" stroke="#759ca9" stroke-linejoin="round" d="m381.14 343.12-16.3-52.19 62.48-26.8 10.27 11.93-8.1 68.9z"/><path fill="#739ba5" stroke="#739ba5" stroke-linejoin="round" d="m429.49 344.96 8.1-68.9 63.2 13.83-11.82 69.06-6.1 4.76-33.22-1.33z"/><path fill="#7ca2a9" stroke="#7ca2a9" stroke-linejoin="round" d="m488.97 358.95 11.82-69.06 12.89-9.56 55.96 26.2-2.49 59.05z"/><path fill="#5c8691" stroke="#5c8691" stroke-linejoin="round" d="m567.15 365.58 2.49-59.05 34.57-24.07 19.17 2.9 25.33 24.57 5.12 41.18-3.94 5.45-79.71 12.67z"/><path fill="#a38183" stroke="#a38183" stroke-linejoin="round" d="m653.83 351.11-5.12-41.18 61.16-31.84 23.24 21.46-6.15 57.6z"/><path fill="#586767" stroke="#586767" stroke-linejoin="round" d="m726.96 357.15 6.15-57.6 50.12-12.83 23.4 59.26-33.18 29.6-39.6-9.84z"/><path fill="#5e8798" stroke="#5e8798" stroke-linejoin="round" d="m806.63 345.98-23.4-59.26 10.3-16.68 61.65-1.37 13.53 20.21-23.58 57.8z"/><path fill="#7f9fa2" stroke="#7f9fa2" stroke-linejoin="round" d="m845.13 346.68 23.58-57.8 59.52 7.67 13.59 52.54-16.63 18.24-62.93.8z"/><path fill="#bb8987" stroke="#bb8987" stroke-linejoin="round" d="m941.82 349.09-13.59-52.54 14.65-19.87 70.91 3.79 10.13 13.04-32.03 64.25z"/><path fill="#311e16" stroke="#311e16" stroke-linejoin="round" d="M1080 301.6v68.83l-80.74-3.32-7.37-9.35 32.03-64.25z"/><path fill="#395a65" stroke="#395a65" stroke-linejoin="round" d="M0 422.02v-64.76l74.95-4.21.57 76.91-10.29 5.35z"/><path fill="#2c4e5e" stroke="#2c4e5e" stroke-linejoin="round" d="m75.52 429.96-.57-76.91 8.64-8.09 58.72 9.67 8.12 68.25-31.87 19.01z"/><path fill="#3e404a" stroke="#3e404a" stroke-linejoin="round" d="m150.43 422.88-8.12-68.25 12.18-9.54 61.86 12.03-4.35 63.25-21.22 14.69z"/><path fill="#58585e" stroke="#58585e" stroke-linejoin="round" d="m212 420.37 4.35-63.25 13.49-9.51 42.94 7.96 6.8 73.73z"/><path fill="#61716b" stroke="#61716b" stroke-linejoin="round" d="m279.58 429.3-6.8-73.73 23.73-16.48 58.38 37.1.87 25.48-72.58 30.94z"/><path fill="#c0cdd3" stroke="#c0cdd3" stroke-linejoin="round" d="m355.76 401.67-.87-25.48 26.25-33.07 48.35 1.84 20.16 17.42-38.29 64.38-32.87-2.87z"/><path fill="#b5c3cc" stroke="#b5c3cc" stroke-linejoin="round" d="m411.36 426.76 38.29-64.38 33.22 1.33 14.24 74.83-5.48 8.97-61.53-2.27z"/><path fill="#b2bfc8" stroke="#b2bfc8" stroke-linejoin="round" d="m497.11 438.54-14.24-74.83 6.1-4.76 78.18 6.63 3.03 3.65 1.36 51.37z"/><path fill="#4d504e" stroke="#4d504e" stroke-linejoin="round" d="m571.54 420.6-1.36-51.37 79.71-12.67 5.77 70.65-19.62 12.53-49.11-1.59z"/><path fill="#6b6368" stroke="#6b6368" stroke-linejoin="round" d="m655.66 427.21-5.77-70.65 3.94-5.45 73.13 6.04 6.89 8.59-33.64 71.96z"/><path fill="#2e2d34" stroke="#2e2d34" stroke-linejoin="round" d="m700.21 437.7 33.64-71.96 39.6 9.84 19.32 53.29-13.07 19.74-77.53-8.43z"/><path fill="#272a31" stroke="#272a31" stroke-linejoin="round" d="m792.77 428.87-19.32-53.29 33.18-29.6 38.5.7 17.13 21.45-12.83 58.86z"/><path fill="#a5a5ad" stroke="#a5a5ad" stroke-linejoin="round" d="m849.43 426.99 12.83-58.86 62.93-.8 4.16 66.1-61.95 12.31z"/><path fill="#835c51" stroke="#835c51" stroke-linejoin="round" d="m929.35 433.43-4.16-66.1 16.63-18.24 50.07 8.67 7.37 9.35.58 61.33-64.82 9.19z"/><path fill="#4e3425" stroke="#4e3425" stroke-linejoin="round" d="M1080 370.43v52.96l-69.31 14.91-10.85-9.86-.58-61.33z"/><path fill="#2a454f" stroke="#2a454f" stroke-linejoin="round" d="M0 503.14v-81.12l65.23 13.29-16.45 66.22z"/><path fill="#456876" stroke="#456876" stroke-linejoin="round" d="m48.78 501.53 16.45-66.22 10.29-5.35 43.04 11.93 4.14 54.69-56.36 20.9z"/><path fill="#8c9fab" stroke="#8c9fab" stroke-linejoin="round" d="m122.7 496.58-4.14-54.69 31.87-19.01 40.35 12.18 9.66 55.55-47.19 31.28z"/><path fill="#8295a2" stroke="#8295a2" stroke-linejoin="round" d="m200.44 490.61-9.66-55.55L212 420.37l67.58 8.93 3.6 3.31 3.34 36.19-53.75 36.83z"/><path fill="#6a7070" stroke="#6a7070" stroke-linejoin="round" d="m286.52 468.8-3.34-36.19 72.58-30.94 22.73 22.22-26.85 76.35-30.19-2.11z"/><path fill="#a7b9c3" stroke="#a7b9c3" stroke-linejoin="round" d="m351.64 500.24 26.85-76.35 32.87 2.87 18.74 18.48-10.01 59.47-53.91 8.63z"/><path fill="#a4b2bc" stroke="#a4b2bc" stroke-linejoin="round" d="m420.09 504.71 10.01-59.47 61.53 2.27 9.59 43.09-59.06 30.61z"/><path fill="#91949b" stroke="#91949b" stroke-linejoin="round" d="m501.22 490.6-9.59-43.09 5.48-8.97 74.43-17.94 15.39 17.55-16.31 58.13-63.71-1.02z"/><path fill="#868082" stroke="#868082" stroke-linejoin="round" d="m570.62 496.28 16.31-58.13 49.11 1.59 10.31 78.84-.54.78-63.58-4.4z"/><path fill="#a26e61" stroke="#a26e61" stroke-linejoin="round" d="m646.35 518.58-10.31-78.84 19.62-12.53 44.55 10.49 1.96 2.48 1.97 56.59z"/><path fill="#8a8083" stroke="#8a8083" stroke-linejoin="round" d="m704.14 496.77-1.97-56.59 77.53 8.43 2.41 38-61.13 22.84z"/><path fill="#948a8c" stroke="#948a8c" stroke-linejoin="round" d="m782.11 486.61-2.41-38 13.07-19.74 56.66-1.88 17.97 18.75-5.4 55.67-67.47-.49z"/><path fill="#9697a4" stroke="#9697a4" stroke-linejoin="round" d="m862 501.41 5.4-55.67 61.95-12.31 5.67 4.2 8.6 66.76-15.04 12.8-66.08-15.06z"/><path fill="#563d2d" stroke="#563d2d" stroke-linejoin="round" d="m943.62 504.39-8.6-66.76 64.82-9.19 10.85 9.86 1.79 54.29-16.69 16.58z"/><path fill="#9e989b" stroke="#9e989b" stroke-linejoin="round" d="M1080 423.39v81.95l-67.52-12.75-1.79-54.29z"/><path fill="#617b8b" stroke="#617b8b" stroke-linejoin="round" d="M0 579.4v-76.26l48.78-1.61 17.56 15.95 3.75 49.33-11.54 13.16z"/><path fill="#2d4b5d" stroke="#2d4b5d" stroke-linejoin="round" d="m70.09 566.81-3.75-49.33 56.36-20.9 30.55 25.31-1.37 41.05-7.27 8.63z"/><path fill="#6d808b" stroke="#6d808b" stroke-linejoin="round" d="m151.88 562.94 1.37-41.05 47.19-31.28 32.33 15.02 11.94 51.46-20.79 18.66z"/><path fill="#737e87" stroke="#737e87" stroke-linejoin="round" d="m244.71 557.09-11.94-51.46 53.75-36.83 34.93 29.33-36.32 67.31z"/><path fill="#717b84" stroke="#717b84" stroke-linejoin="round" d="m285.13 565.44 36.32-67.31 30.19 2.11 14.54 13.1 2.66 55.15-16.46 11.88-66.05-13.48z"/><path fill="#85888c" stroke="#85888c" stroke-linejoin="round" d="m368.84 568.49-2.66-55.15 53.91-8.63 22.07 16.5 5.94 49.9-31.01 18.8z"/><path fill="#6e7c88" stroke="#6e7c88" stroke-linejoin="round" d="m448.1 571.11-5.94-49.9 59.06-30.61 5.69 4.66 6.21 67.73-32.17 18.65z"/><path fill="#9ba4ac" stroke="#9ba4ac" stroke-linejoin="round" d="m513.12 562.99-6.21-67.73 63.71 1.02 11.61 18.68-14.08 45.23-15.79 11.93z"/><path fill="#5a5552" stroke="#5a5552" stroke-linejoin="round" d="m568.15 560.19 14.08-45.23 63.58 4.4 8.96 49-22.95 19.12z"/><path fill="#5f5855" stroke="#5f5855" stroke-linejoin="round" d="m654.77 568.36-8.96-49 .54-.78 57.79-21.81 16.84 12.68 8.28 50.74-29.44 23.7z"/><path fill="#5f5956" stroke="#5f5956" stroke-linejoin="round" d="m729.26 560.19-8.28-50.74 61.13-22.84 12.42 14.31-9.48 68.78z"/><path fill="#8e9caa" stroke="#8e9caa" stroke-linejoin="round" d="m785.05 569.7 9.48-68.78 67.47.49.5.72-11.08 72.43-58.99 3.65z"/><path fill="#bec9ce" stroke="#bec9ce" stroke-linejoin="round" d="m851.42 574.56 11.08-72.43 66.08 15.06-1.19 54.06-74.9 4.22z"/><path fill="#afb7be" stroke="#afb7be" stroke-linejoin="round" d="m927.39 571.25 1.19-54.06 15.04-12.8 52.17 4.78 13.3 68.91-66.49 12.88z"/><path fill="#a4a7ad" stroke="#a4a7ad" stroke-linejoin="round" d="M1080 505.34v62.88l-68.1 11.6-2.81-1.74-13.3-68.91 16.69-16.58z"/><path fill="#8595a3" stroke="#8595a3" stroke-linejoin="round" d="M0 662.85V579.4l58.55.57 14.14 66.05-1.83 1.97z"/><path fill="#29343a" stroke="#29343a" stroke-linejoin="round" d="m72.69 646.02-14.14-66.05 11.54-13.16 74.52 4.76.22 56.4-18.33 17.33z"/><path fill="#82878d" stroke="#82878d" stroke-linejoin="round" d="m144.83 627.97-.22-56.4 7.27-8.63 72.04 12.81-.99 67.81-7.55 5.72z"/><path fill="#474243" stroke="#474243" stroke-linejoin="round" d="m222.93 643.56.99-67.81 20.79-18.66 40.42 8.35 1.2 1.45 3.65 71.94-10.38 9.46z"/><path fill="#5a8396" stroke="#5a8396" stroke-linejoin="round" d="m289.98 638.83-3.65-71.94 66.05 13.48-11.77 55.23z"/><path fill="#46768b" stroke="#46768b" stroke-linejoin="round" d="m340.61 635.6 11.77-55.23 16.46-11.88 48.25 21.42-4.2 53.51-48.42 14.35z"/><path fill="#618497" stroke="#618497" stroke-linejoin="round" d="m412.89 643.42 4.2-53.51 31.01-18.8 32.85 10.53 13.51 60.51-4.22 7.32-56.3 11.12z"/><path fill="#676f7e" stroke="#676f7e" stroke-linejoin="round" d="m494.46 642.15-13.51-60.51 32.17-18.65 39.24 9.13 7.13 57.15z"/><path fill="#514c49" stroke="#514c49" stroke-linejoin="round" d="m559.49 629.27-7.13-57.15 15.79-11.93 63.67 27.29-11.15 41.34-51.64 8.09z"/><path fill="#69605d" stroke="#69605d" stroke-linejoin="round" d="m620.67 628.82 11.15-41.34 22.95-19.12 45.05 15.53 9.78 58.47-65.29 14.17z"/><path fill="#6b625c" stroke="#6b625c" stroke-linejoin="round" d="m709.6 642.36-9.78-58.47 29.44-23.7 55.79 9.51 7.38 8.51-13.06 71.22-60.87.04z"/><path fill="#a099a0" stroke="#a099a0" stroke-linejoin="round" d="m779.37 649.43 13.06-71.22 58.99-3.65 1.07.91 16.34 66.31-14.21 18.7-73.79-9.49z"/><path fill="#a3afb8" stroke="#a3afb8" stroke-linejoin="round" d="m868.83 641.78-16.34-66.31 74.9-4.22 15.21 19.71-10.77 42.89z"/><path fill="#a4abb2" stroke="#a4abb2" stroke-linejoin="round" d="m931.83 633.85 10.77-42.89 66.49-12.88 2.81 1.74 8.52 78.49-5.82 5.14-65.05-2.12z"/><path fill="#b4bdc5" stroke="#b4bdc5" stroke-linejoin="round" d="M1080 568.22v91.57l-59.58-1.48-8.52-78.49z"/><path fill="#98a3ac" stroke="#98a3ac" stroke-linejoin="round" d="M0 721.49v-58.64l70.86-14.86 4.51 73.97-6.78 8.5z"/><path fill="#718190" stroke="#718190" stroke-linejoin="round" d="m75.37 721.96-4.51-73.97 1.83-1.97 53.81-.72 15.81 65.87z"/><path fill="#586b7c" stroke="#586b7c" stroke-linejoin="round" d="M142.31 711.17 126.5 645.3l18.33-17.33 70.55 21.31-8.91 47.56-55.26 20.95z"/><path fill="#544f4a" stroke="#544f4a" stroke-linejoin="round" d="m206.47 696.84 8.91-47.56 7.55-5.72 56.67 4.73 12.48 54.93-14.58 20.87-40.09 7.31z"/><path fill="#417085" stroke="#417085" stroke-linejoin="round" d="m292.08 703.22-12.48-54.93 10.38-9.46 50.63-3.23 23.86 22.17-9.62 47.31z"/><path fill="#4c788a" stroke="#4c788a" stroke-linejoin="round" d="m354.85 705.08 9.62-47.31 48.42-14.35 21.05 17.17-2.38 69.72-67.26-9.56z"/><path fill="#396475" stroke="#396475" stroke-linejoin="round" d="m431.56 730.31 2.38-69.72 56.3-11.12L510 703.28l-14.17 22.44-62.85 6.19z"/><path fill="#5d7a8c" stroke="#5d7a8c" stroke-linejoin="round" d="m510 703.28-19.76-53.81 4.22-7.32 65.03-12.88 9.54 7.64-2.68 61.83z"/><path fill="#4f6f80" stroke="#4f6f80" stroke-linejoin="round" d="m566.35 698.74 2.68-61.83 51.64-8.09 23.64 27.71-11.75 56.18-1.74 1.56-49.7-1.88z"/><path fill="#42646e" stroke="#42646e" stroke-linejoin="round" d="m632.56 712.71 11.75-56.18 65.29-14.17 8.9 7.11-11.73 70.42z"/><path fill="#315760" stroke="#315760" stroke-linejoin="round" d="m706.77 719.89 11.73-70.42 60.87-.04 1.46 1.56 1.16 64.93-60.52 24.34z"/><path fill="#8f8c8c" stroke="#8f8c8c" stroke-linejoin="round" d="m781.99 715.92-1.16-64.93 73.79 9.49 13.46 54.51-5.07 7.73-57.2 12.75z"/><path fill="#9aa6ae" stroke="#9aa6ae" stroke-linejoin="round" d="m868.08 714.99-13.46-54.51 14.21-18.7 63-7.93 17.72 27.48-17.55 50.1-1.02.69z"/><path fill="#9ba3ab" stroke="#9ba3ab" stroke-linejoin="round" d="m932 711.43 17.55-50.1 65.05 2.12-1.08 62.44-17 13.48z"/><path fill="#989da3" stroke="#989da3" stroke-linejoin="round" d="M1080 659.79v86.59l-66.48-20.49 1.08-62.44 5.82-5.14z"/><path fill="#576f81" stroke="#576f81" stroke-linejoin="round" d="M0 796.66v-75.17l68.59 8.97 11.13 53.56-5.69 10.26z"/><path fill="#6a808d" stroke="#6a808d" stroke-linejoin="round" d="m79.72 784.02-11.13-53.56 6.78-8.5 66.94-10.79 8.9 6.62 2.97 54.65z"/><path fill="#4f4945" stroke="#4f4945" stroke-linejoin="round" d="m154.18 772.44-2.97-54.65 55.26-20.95 30.94 34.56-16.54 48.64-56.39 2.94z"/><path fill="#53565c" stroke="#53565c" stroke-linejoin="round" d="m220.87 780.04 16.54-48.64 40.09-7.31 30.93 53.27-17.02 22.25-60.53-6.95z"/><path fill="#215a6b" stroke="#215a6b" stroke-linejoin="round" d="m308.43 777.36-30.93-53.27 14.58-20.87 62.77 1.86 9.45 15.67-19.81 51.96z"/><path fill="#3f6e7e" stroke="#3f6e7e" stroke-linejoin="round" d="m344.49 772.71 19.81-51.96 67.26 9.56 1.42 1.6-1.94 40.21-16.85 21.09-48.41 2.48z"/><path fill="#244a58" stroke="#244a58" stroke-linejoin="round" d="m431.04 772.12 1.94-40.21 62.85-6.19 28.26 61.37-29.35 18.22z"/><path fill="#375963" stroke="#375963" stroke-linejoin="round" d="m524.09 787.09-28.26-61.37L510 703.28l56.35-4.54 14.77 13.65-28.05 77.91-1.97 1.45z"/><path fill="#395a63" stroke="#395a63" stroke-linejoin="round" d="m553.07 790.3 28.05-77.91 49.7 1.88 8.33 72.04z"/><path fill="#2b515a" stroke="#2b515a" stroke-linejoin="round" d="m639.15 786.31-8.33-72.04 1.74-1.56 74.21 7.18 14.7 20.37-2.4 30.81-71.96 23.27z"/><path fill="#2c4d54" stroke="#2c4d54" stroke-linejoin="round" d="m719.07 771.07 2.4-30.81 60.52-24.34 23.82 19.55-8.87 54.29-6.13 5.18-51.44.85z"/><path fill="#696a6e" stroke="#696a6e" stroke-linejoin="round" d="m796.94 789.76 8.87-54.29 57.2-12.75 12.72 63.83-14.49 13.37z"/><path fill="#6c6c6e" stroke="#6c6c6e" stroke-linejoin="round" d="m875.73 786.55-12.72-63.83 5.07-7.73 62.9-2.87-.01 82.09-1.86 2.01z"/><path fill="#67676b" stroke="#67676b" stroke-linejoin="round" d="m930.97 794.21.01-82.09 1.02-.69 64.52 27.94-6.87 37.53z"/><path fill="#767270" stroke="#767270" stroke-linejoin="round" d="M1080 746.38v39.58l-61.14 23.45-29.21-32.51 6.87-37.53 17-13.48z"/><path fill="#a4abb3" stroke="#a4abb3" stroke-linejoin="round" d="M0 873.03v-76.37l74.03-2.38 9.71 44.75-26.52 32.25z"/><path fill="#b7b8bc" stroke="#b7b8bc" stroke-linejoin="round" d="m83.74 839.03-9.71-44.75 5.69-10.26 74.46-11.58 10.3 10.54-8.57 59.57-19.12 10.9z"/><path fill="#5c5451" stroke="#5c5451" stroke-linejoin="round" d="m155.91 842.55 8.57-59.57 56.39-2.94 10.01 12.62-4.9 61.77-16.15 13.15z"/><path fill="#244550" stroke="#244550" stroke-linejoin="round" d="m225.98 854.43 4.9-61.77 60.53 6.95 9.87 61.48-2.19 1.53z"/><path fill="#1a4856" stroke="#1a4856" stroke-linejoin="round" d="m301.28 861.09-9.87-61.48 17.02-22.25 36.06-4.65 21.29 22.98-13.76 67.15-4.71 3.11z"/><path fill="#2d5b6d" stroke="#2d5b6d" stroke-linejoin="round" d="m352.02 862.84 13.76-67.15 48.41-2.48 13.78 53.1-17.98 19.51z"/><path fill="#244b59" stroke="#244b59" stroke-linejoin="round" d="m427.97 846.31-13.78-53.1 16.85-21.09 63.7 33.19-16.93 41.95z"/><path fill="#1e3d42" stroke="#1e3d42" stroke-linejoin="round" d="m493.15 874.13-15.34-26.87 16.93-41.95 29.35-18.22 27.01 4.66 16.47 61.7-15.01 23.15z"/><path fill="#2c4b51" stroke="#2c4b51" stroke-linejoin="round" d="m567.57 853.45-16.47-61.7 1.97-1.45 86.08-3.99 7.96 8.03 1.44 52.84-8.47 9.1z"/><path fill="#263c3f" stroke="#263c3f" stroke-linejoin="round" d="m648.55 847.18-1.44-52.84 71.96-23.27 20.3 24.72-15.74 65.98z"/><path fill="#273a3e" stroke="#273a3e" stroke-linejoin="round" d="m723.63 861.77 15.74-65.98 51.44-.85 14.71 71.99-3.39 3.76-77.36-7.16z"/><path fill="#6a6b6d" stroke="#6a6b6d" stroke-linejoin="round" d="m805.52 866.93-14.71-71.99 6.13-5.18 64.3 10.16-4.97 56.47z"/><path fill="#5d5b5c" stroke="#5d5b5c" stroke-linejoin="round" d="m856.27 856.39 4.97-56.47 14.49-13.37 53.38 9.67 9.6 59.11-15.39 15.8-43.05 2.78z"/><path fill="#64605f" stroke="#64605f" stroke-linejoin="round" d="m938.71 855.33-9.6-59.11 1.86-2.01 58.68-17.31 29.21 32.51-7.26 32.13-23.6 18.69z"/><path fill="#67625f" stroke="#67625f" stroke-linejoin="round" d="M1080 785.96v94.45l-68.4-38.87 7.26-32.13z"/><path fill="#aca9ab" stroke="#aca9ab" stroke-linejoin="round" d="M0 953.38v-80.35l57.22-1.75 31.13 62.25-20.33 23.39z"/><path fill="#8d8a8c" stroke="#8d8a8c" stroke-linejoin="round" d="m88.35 933.53-31.13-62.25 26.52-32.25 53.05 14.42-5.49 75.03z"/><path fill="#544e4c" stroke="#544e4c" stroke-linejoin="round" d="m131.3 928.48 5.49-75.03 19.12-10.9 53.92 25.03-.74 41.06-66.4 26.37z"/><path fill="#15363b" stroke="#15363b" stroke-linejoin="round" d="m209.09 908.64.74-41.06 16.15-13.15 73.11 8.19-22.26 65.41-39.7 7.08z"/><path fill="#1a3137" stroke="#1a3137" stroke-linejoin="round" d="m276.83 928.03 22.26-65.41 2.19-1.53 46.03 4.86 11.76 78.17-49.9 11.81z"/><path fill="#1c4450" stroke="#1c4450" stroke-linejoin="round" d="m359.07 944.12-11.76-78.17 4.71-3.11 57.97 2.98 21.06 64.15-6.91 7.71-60.42 9.02z"/><path fill="#1f3c43" stroke="#1f3c43" stroke-linejoin="round" d="m431.05 929.97-21.06-64.15 17.98-19.51 49.84.95 15.34 26.87-20.41 49.32z"/><path fill="#1d3538" stroke="#1d3538" stroke-linejoin="round" d="m472.74 923.45 20.41-49.32 59.41 2.47 12.2 48.7-12.52 18.39-52.73 4.19z"/><path fill="#24373b" stroke="#24373b" stroke-linejoin="round" d="m564.76 925.3-12.2-48.7 15.01-23.15 72.51 2.83-2.21 71.41z"/><path fill="#2b3a3d" stroke="#2b3a3d" stroke-linejoin="round" d="m637.87 927.69 2.21-71.41 8.47-9.1 75.08 14.59 1.14 1.76-5.48 61.35-76.36 8.88z"/><path fill="#2a393c" stroke="#2a393c" stroke-linejoin="round" d="m719.29 924.88 5.48-61.35 77.36 7.16 1.04 65.42-2.01 1.26-70.12 1.16z"/><path fill="#5f5b5c" stroke="#5f5b5c" stroke-linejoin="round" d="m803.17 936.11-1.04-65.42 3.39-3.76 50.75-10.54 24 17.52-21.63 68.79-9.78 5.23z"/><path fill="#5d5855" stroke="#5d5855" stroke-linejoin="round" d="m858.64 942.7 21.63-68.79 43.05-2.78 15.69 68.51-16.98 15.29z"/><path fill="#5e5956" stroke="#5e5956" stroke-linejoin="round" d="m939.01 939.64-15.69-68.51 15.39-15.8 49.29 4.9 18.42 65.03-14.57 19.9z"/><path fill="#5f5a56" stroke="#5f5a56" stroke-linejoin="round" d="M1080 880.41v31.22l-73.58 13.63L988 860.23l23.6-18.69z"/><path fill="#a8a6a7" stroke="#a8a6a7" stroke-linejoin="round" d="M0 1035.14v-81.76l68.02 3.54 12.7 59.76z"/><path fill="#aaaaac" stroke="#aaaaac" stroke-linejoin="round" d="m84 1019.5-3.28-2.82-12.7-59.76 20.33-23.39 42.95-5.05 11.39 6.53 18.87 56.64-22.01 24z"/><path fill="#9b9796" stroke="#9b9796" stroke-linejoin="round" d="m161.56 991.65-18.87-56.64 66.4-26.37 28.04 26.47-15.89 60.9-7.45 4.44z"/><path fill="#a59d9b" stroke="#a59d9b" stroke-linejoin="round" d="m221.24 996.01 15.89-60.9 39.7-7.08 32.34 27.9-14.19 57.08-6.22 4.71z"/><path fill="#aca3a0" stroke="#aca3a0" stroke-linejoin="round" d="m294.98 1013.01 14.19-57.08 49.9-11.81 4.65 2.58 9.64 75.94-4.75 5.01z"/><path fill="#8b919a" stroke="#8b919a" stroke-linejoin="round" d="m373.36 1022.64-9.64-75.94 60.42-9.02 13.34 70.64-6.72 7.96z"/><path fill="#1e292d" stroke="#1e292d" stroke-linejoin="round" d="m437.48 1008.32-13.34-70.64 6.91-7.71 41.69-6.52 26.77 24.43-10.9 56.36z"/><path fill="#202e2f" stroke="#202e2f" stroke-linejoin="round" d="m514.05 1027.87-25.44-23.63 10.9-56.36 52.73-4.19 15.4 56.04z"/><path fill="#253032" stroke="#253032" stroke-linejoin="round" d="m567.64 999.73-15.4-56.04 12.52-18.39 73.11 2.39 5.06 6.07-1.42 47.65-51.69 28.59z"/><path fill="#2f4248" stroke="#2f4248" stroke-linejoin="round" d="m641.51 981.41 1.42-47.65 76.36-8.88 11.75 13.65-9.03 66.21-5.28 3.62-44.27-.65z"/><path fill="#5b5a5c" stroke="#5b5a5c" stroke-linejoin="round" d="m722.01 1004.74 9.03-66.21 70.12-1.16-17.54 82.63z"/><path fill="#5d5b5e" stroke="#5d5b5e" stroke-linejoin="round" d="m786.24 1022.97-2.62-2.97 17.54-82.63 2.01-1.26 45.69 11.82 5.44 63.82z"/><path fill="#57524c" stroke="#57524c" stroke-linejoin="round" d="m854.3 1011.75-5.44-63.82 9.78-5.23 63.39 12.23-1.09 52.29-52.64 16.8z"/><path fill="#58504b" stroke="#58504b" stroke-linejoin="round" d="m946.31 1026.69-25.37-19.47 1.09-52.29 16.98-15.29 52.84 5.52 16.04 50.94z"/><path fill="#58504d" stroke="#58504d" stroke-linejoin="round" d="M1080 911.63v81.76l-62.89 8.35-9.22-5.64-16.04-50.94 14.57-19.9z"/><path fill="#a8a4a3" stroke="#a8a4a3" stroke-linejoin="round" d="M83.88 1080H0v-44.86l80.72-18.46 3.28 2.82z"/><path fill="#ada7a7" stroke="#ada7a7" stroke-linejoin="round" d="M158.25 1080H83.88l.12-60.5 55.55-3.85z"/><path fill="#afa6a2" stroke="#afa6a2" stroke-linejoin="round" d="M209.39 1080h-51.14l-18.7-64.35 22.01-24 52.23 8.8z"/><path fill="#aca39e" stroke="#aca39e" stroke-linejoin="round" d="M282.1 1080h-72.71l4.4-79.55 7.45-4.44 67.52 21.71z"/><path fill="#948f8f" stroke="#948f8f" stroke-linejoin="round" d="M365.03 1080H282.1l6.66-62.28 6.22-4.71 73.63 14.64z"/><path fill="#9d9694" stroke="#9d9694" stroke-linejoin="round" d="M445.68 1080h-80.65l3.58-52.35 4.75-5.01 57.4-6.36z"/><path fill="#a49994" stroke="#a49994" stroke-linejoin="round" d="M511.89 1080h-66.21l-14.92-63.72 6.72-7.96 51.13-4.08 25.44 23.63z"/><path fill="#2b3b41" stroke="#2b3b41" stroke-linejoin="round" d="M603.83 1080h-91.94l2.16-52.13 53.59-28.14 22.18 10.27z"/><path fill="#334244" stroke="#334244" stroke-linejoin="round" d="M645.01 1080h-41.18l-14.01-70 51.69-28.59 30.95 26.3z"/><path fill="#515a5f" stroke="#515a5f" stroke-linejoin="round" d="M716.84 1080h-71.83l27.45-72.29 44.27.65z"/><path fill="#545454" stroke="#545454" stroke-linejoin="round" d="M788.96 1080h-72.12l-.11-71.64 5.28-3.62 61.61 15.26 2.62 2.97z"/><path fill="#6e6058" stroke="#6e6058" stroke-linejoin="round" d="M866.69 1080h-77.73l-2.72-57.03 68.06-11.22 14 12.27z"/><path fill="#584f49" stroke="#584f49" stroke-linejoin="round" d="M949.34 1080h-82.65l1.61-55.98 52.64-16.8 25.37 19.47z"/><path fill="#5e534d" stroke="#5e534d" stroke-linejoin="round" d="M1023.33 1080h-73.99l-3.03-53.31 61.58-30.59 9.22 5.64z"/><path fill="#878076" stroke="#878076" stroke-linejoin="round" d="M1080 993.39V1080h-56.67l-6.22-78.26z"/></svg>