<svg xmlns="http://www.w3.org/2000/svg" width="1080" height="1080" style="width:100%;height:auto;display:block" viewBox="0 0 1080 1080"><rect height="100%" fill="#fff"/><path fill="#eceded" stroke="#eceded" stroke-linejoin="round" d="M0 0h55.88l-5.75 42.58L0 27.83z"/><path fill="#d7ddde" stroke="#d7ddde" stroke-linejoin="round" d="M55.88 0h40.08l9.87 35.1-51.91 14-3.79-6.52z"/><path fill="#bbc5c7" stroke="#bbc5c7" stroke-linejoin="round" d="M95.96 0h59.17l-45.07 38.13-4.23-3.03z"/><path fill="#98adb5" stroke="#98adb5" stroke-linejoin="round" d="M155.13 0h18l-4.78 41.12-38.25 25.22-3.49-.25-16.55-27.96z"/><path fill="#c4d2d5" stroke="#c4d2d5" stroke-linejoin="round" d="M173.13 0h40.86l14.18 53.38-25.98 14.09-33.84-26.35z"/><path fill="#b6c2c6" stroke="#b6c2c6" stroke-linejoin="round" d="M213.99 0h63.73l3.17 35.23-8.94 11.17-30.04 10.99-13.74-4.01z"/><path fill="#eaebeb" stroke="#eaebeb" stroke-linejoin="round" d="M277.72 0h61.64l-21.82 43.33-36.65-8.1z"/><path fill="#d3dddf" stroke="#d3dddf" stroke-linejoin="round" d="M339.36 0h26.52l7.55 35.46-44.74 20.9-11.15-13.03z"/><path fill="#93aab0" stroke="#93aab0" stroke-linejoin="round" d="M365.88 0h65.62l-10.97 37.87-38.37 6.24-8.73-8.65z"/><path fill="#dce5e6" stroke="#dce5e6" stroke-linejoin="round" d="M431.5 0h31.06l13.72 59.58-21.6 8.97-15.61-4.91-18.54-25.77z"/><path fill="#d5e0e2" stroke="#d5e0e2" stroke-linejoin="round" d="M462.56 0h54.03l-1.8 36.54-32.37 24.21-6.14-1.17z"/><path fill="#b0c4c9" stroke="#b0c4c9" stroke-linejoin="round" d="M516.59 0h47.1l.7 41.03-16.88 12.9-32.72-17.39z"/><path fill="#dfe8e9" stroke="#dfe8e9" stroke-linejoin="round" d="M563.69 0h42.37l-.01 48.28-5.69 4.82-35.97-12.07z"/><path fill="#4f656b" stroke="#4f656b" stroke-linejoin="round" d="M606.06 0h45.21l.36 47.1-45.58 1.18z"/><path fill="#d4dfe1" stroke="#d4dfe1" stroke-linejoin="round" d="M651.27 0h53.03l-.09 43.93-46.26 10.32-6.32-7.15z"/><path fill="#8faebc" stroke="#8faebc" stroke-linejoin="round" d="M704.3 0h43.68l5.03 37.99-34.55 18.33-14.25-12.39z"/><path fill="#89abb8" stroke="#89abb8" stroke-linejoin="round" d="M747.98 0h53.58l-15.67 52.64-32.88-14.65z"/><path fill="#7a9ca8" stroke="#7a9ca8" stroke-linejoin="round" d="M801.56 0h37.45l10.48 34.35L838.23 56l-42.15 8.23-6.82-4.66-3.37-6.93z"/><path fill="#8dabb7" stroke="#8dabb7" stroke-linejoin="round" d="M839.01 0h61.95l-8.99 39.97-42.48-5.62z"/><path fill="#7a9ca8" stroke="#7a9ca8" stroke-linejoin="round" d="M900.96 0h47.39l-18.19 42.82-36.83-1.1-1.36-1.75z"/><path fill="#7d9ea9" stroke="#7d9ea9" stroke-linejoin="round" d="M948.35 0h15.2l15.74 52.72-11.42 14.71-9.66 3.86-10.88-.29-17.17-28.18z"/><path fill="#789ea4" stroke="#789ea4" stroke-linejoin="round" d="M963.55 0h55.93l-4.57 48.58-35.62 4.14z"/><path fill="#8dadb4" stroke="#8dadb4" stroke-linejoin="round" d="M1019.48 0H1080v27.31l-50.91 34.34-14.18-13.07z"/><path fill="#ccd9dc" stroke="#ccd9dc" stroke-linejoin="round" d="M0 84.81V27.83l50.13 14.75 3.79 6.52-2.99 28.56z"/><path fill="#7697a0" stroke="#7697a0" stroke-linejoin="round" d="m50.93 77.66 2.99-28.56 51.91-14 4.23 3.03 16.55 27.96-5 5.75-64.85 13.18z"/><path fill="#88acb7" stroke="#88acb7" stroke-linejoin="round" d="m56.76 85.02 64.85-13.18-12.03 50.62-.77.25-49.86-26.93z"/><path fill="#8db1bf" stroke="#8db1bf" stroke-linejoin="round" d="m130.1 66.34 38.25-25.22 33.84 26.35-8.47 24.89-23.87 11.19z"/><path fill="#b4c5cb" stroke="#b4c5cb" stroke-linejoin="round" d="m193.72 92.36 8.47-24.89 25.98-14.09 13.74 4.01 9.48 49.68L231 125.11l-.06-.01z"/><path fill="#a3c8d2" stroke="#a3c8d2" stroke-linejoin="round" d="m251.39 107.07-9.48-49.68 30.04-10.99 25.82 55.17-6.69 7.42z"/><path fill="#bccfd6" stroke="#bccfd6" stroke-linejoin="round" d="m271.95 46.4 8.94-11.17 36.65 8.1 11.15 13.03 2.46 33.51-1.03 1.88-32.35 9.82z"/><path fill="#c4d2d4" stroke="#c4d2d4" stroke-linejoin="round" d="m331.15 89.87-2.46-33.51 44.74-20.9 8.73 8.65-.33 33.09z"/><path fill="#85a5ad" stroke="#85a5ad" stroke-linejoin="round" d="m381.83 77.2.33-33.09 38.37-6.24 18.54 25.77L397.3 92.7z"/><path fill="#88b5bc" stroke="#88b5bc" stroke-linejoin="round" d="m397.3 92.7 41.77-29.06 15.61 4.91-3.1 34.55-38.77 21.98-13.12-14.12z"/><path fill="#8eb9c9" stroke="#8eb9c9" stroke-linejoin="round" d="m489.76 70.45 49.56 19.62-34.69 43-10.66-3.93z"/><path fill="#bbd0d6" stroke="#bbd0d6" stroke-linejoin="round" d="m482.42 60.75 32.37-24.21 32.72 17.39-2.22 34.11-5.97 2.03-49.56-19.62z"/><path fill="#afc5cd" stroke="#afc5cd" stroke-linejoin="round" d="m547.51 53.93 16.88-12.9 35.97 12.07-1.77 32.23-32.04 15.53-21.26-12.82z"/><path fill="#4e656c" stroke="#4e656c" stroke-linejoin="round" d="m598.59 85.33 1.77-32.23 5.69-4.82 45.58-1.18 6.32 7.15-1.09 34.4-.97 1.14-37.72 8.11z"/><path fill="#8aabb8" stroke="#8aabb8" stroke-linejoin="round" d="m656.86 88.65 1.09-34.4 46.26-10.32 14.25 12.39 2.96 22.07-16.29 20.47z"/><path fill="#7a9eab" stroke="#7a9eab" stroke-linejoin="round" d="m721.42 78.39-2.96-22.07 34.55-18.33 32.88 14.65 3.37 6.93-39.65 29.5z"/><path fill="#6f939d" stroke="#6f939d" stroke-linejoin="round" d="m749.61 89.07 39.65-29.5 6.82 4.66 6.22 38.05-41.18 18.53z"/><path fill="#5f8ea0" stroke="#5f8ea0" stroke-linejoin="round" d="m802.3 102.28-6.22-38.05L838.23 56l22.27 37.97-5.34 8.03-49.44 3.27z"/><path fill="#769aa4" stroke="#769aa4" stroke-linejoin="round" d="m838.23 56 11.26-21.65 42.48 5.62 1.36 1.75-.62 44.66-1.83 2.14-30.38 5.45z"/><path fill="#7fa0ab" stroke="#7fa0ab" stroke-linejoin="round" d="m892.71 86.38.62-44.66 36.83 1.1L947.33 71l-11.95 9.91z"/><path fill="#8daab1" stroke="#8daab1" stroke-linejoin="round" d="m969.99 132.12-11.78-60.83 9.66-3.86 33.07 31.59-26.59 35.58z"/><path fill="#7d9ea0" stroke="#7d9ea0" stroke-linejoin="round" d="m1000.94 99.02-33.07-31.59 11.42-14.71 35.62-4.14 14.18 13.07 5.78 30.95z"/><path fill="#91b2b8" stroke="#91b2b8" stroke-linejoin="round" d="M1080 27.31v73.05l-41.35-4.33-3.78-3.43-5.78-30.95z"/><path fill="#92bbc7" stroke="#92bbc7" stroke-linejoin="round" d="M0 137.99V84.81l50.93-7.15 5.83 7.36 2.19 10.76-13.27 40.47z"/><path fill="#6c97a5" stroke="#6c97a5" stroke-linejoin="round" d="m45.68 136.25 13.27-40.47 49.86 26.93-19.55 23.7-32.25 3.19z"/><path fill="#7ba5b5" stroke="#7ba5b5" stroke-linejoin="round" d="m109.58 122.46 12.03-50.62 5-5.75 3.49.25 39.75 37.21-3.73 11.02-31.74 19.95z"/><path fill="#5d8898" stroke="#5d8898" stroke-linejoin="round" d="m134.38 134.52 31.74-19.95 25.76 43.2-2.7 11.27-49.91-8.15z"/><path fill="#98c0cf" stroke="#98c0cf" stroke-linejoin="round" d="m166.12 114.57 3.73-11.02 23.87-11.19 37.22 32.74-39.06 32.67z"/><path fill="#7eabbd" stroke="#7eabbd" stroke-linejoin="round" d="m231 125.11 20.39-18.04 39.69 1.92 3.47 38.42-26.4 25.39-9.87-5.11z"/><path fill="#aacfdb" stroke="#aacfdb" stroke-linejoin="round" d="m294.55 147.41-3.47-38.42 6.69-7.42 32.35-9.82 21.39 37.23-2.56 15.48-19.19 13.04z"/><path fill="#8db6bc" stroke="#8db6bc" stroke-linejoin="round" d="m330.12 91.75 1.03-1.88 50.68-12.67 15.47 15.5 2.39 18.26-48.18 18.02z"/><path fill="#7ca6ad" stroke="#7ca6ad" stroke-linejoin="round" d="m348.95 144.46 2.56-15.48 48.18-18.02 13.12 14.12v.01l-32.53 42.61z"/><path fill="#709ba1" stroke="#709ba1" stroke-linejoin="round" d="M412.81 125.09v-.01l38.77-21.98 28.62 27.65-24.11 23.52-24.32-6.02z"/><path fill="#99c1ca" stroke="#99c1ca" stroke-linejoin="round" d="m451.58 103.1 3.1-34.55 21.6-8.97 6.14 1.17 7.34 9.7 4.21 58.69-13.77 1.61z"/><path fill="#76a3a3" stroke="#76a3a3" stroke-linejoin="round" d="m504.63 133.07 34.69-43 5.97-2.03 21.26 12.82 3.1 31.17-52.69 18.08z"/><path fill="#548390" stroke="#548390" stroke-linejoin="round" d="m569.65 132.03-3.1-31.17 32.04-15.53 19.58 12.57-3.46 43.31-25.49 11.53z"/><path fill="#89b2c3" stroke="#89b2c3" stroke-linejoin="round" d="m614.71 141.21 3.46-43.31 37.72-8.11 3.89 50.83-8.99 11.19z"/><path fill="#8eb7c8" stroke="#8eb7c8" stroke-linejoin="round" d="m659.78 140.62-3.89-50.83.97-1.14 48.27 10.21 4.73 34.96z"/><path fill="#6a91a0" stroke="#6a91a0" stroke-linejoin="round" d="m709.86 133.82-4.73-34.96 16.29-20.47 28.19 10.68 11.51 31.74-4.55 12.65-44.86 2.18z"/><path fill="#5a828d" stroke="#5a828d" stroke-linejoin="round" d="m756.57 133.46 4.55-12.65 41.18-18.53 3.42 2.99 5.7 32.74-27.78 27.23-11.88-6.47z"/><path fill="#7197a7" stroke="#7197a7" stroke-linejoin="round" d="m811.42 138.01-5.7-32.74 49.44-3.27-.27 40.91-6.6 3.41z"/><path fill="#7a9ca5" stroke="#7a9ca5" stroke-linejoin="round" d="m854.89 142.91.27-40.91 5.34-8.03 30.38-5.45 21.17 50.26-30.47 15.81z"/><path fill="#628591" stroke="#628591" stroke-linejoin="round" d="m890.88 88.52 1.83-2.14 42.67-5.47 2.24 47.03-24.41 11.08-1.16-.24z"/><path fill="#678993" stroke="#678993" stroke-linejoin="round" d="m937.62 127.94-2.24-47.03L947.33 71l10.88.29 11.78 60.83z"/><path fill="#81a3a6" stroke="#81a3a6" stroke-linejoin="round" d="m974.35 134.6 26.59-35.58 33.93-6.42 3.78 3.43-13.6 58.09-46.97-12.31z"/><path fill="#92b1b2" stroke="#92b1b2" stroke-linejoin="round" d="M1080 100.36v66.75l-15.1 2.59-36.59-10.83-3.26-4.75 13.6-58.09z"/><path fill="#6d8b8e" stroke="#6d8b8e" stroke-linejoin="round" d="M0 184.98v-46.99l45.68-1.74 11.33 13.35-2.8 31.78-25.68 14.24z"/><path fill="#799fa6" stroke="#799fa6" stroke-linejoin="round" d="m54.21 181.38 2.8-31.78 32.25-3.19 18.56 36.91-20.22 20z"/><path fill="#7295a3" stroke="#7295a3" stroke-linejoin="round" d="m89.26 146.41 19.55-23.7.77-.25 24.8 12.06 4.89 26.37-13.24 19.77-18.21 2.66z"/><path fill="#80a9a3" stroke="#80a9a3" stroke-linejoin="round" d="m126.03 180.66 13.24-19.77 49.91 8.15 5.99 18.3-47.37 21.38z"/><path fill="#96b7c3" stroke="#96b7c3" stroke-linejoin="round" d="m189.18 169.04 2.7-11.27 39.06-32.67.06.01 27.28 42.58-62.8 19.91-.31-.26z"/><path fill="#7ca095" stroke="#7ca095" stroke-linejoin="round" d="m195.48 187.6 62.8-19.91 9.87 5.11 2.53 11.11-38.51 40.52-22.26-9.39-4.55-4.36z"/><path fill="#769ea4" stroke="#769ea4" stroke-linejoin="round" d="m270.68 183.91-2.53-11.11 26.4-25.39 35.21 10.09.27 42.09-5.54 3.25-33.45 1.66z"/><path fill="#6c9798" stroke="#6c9798" stroke-linejoin="round" d="m330.03 199.59-.27-42.09 19.19-13.04 31.33 23.24 5.21 16.94-30.3 21.57z"/><path fill="#71969e" stroke="#71969e" stroke-linejoin="round" d="m385.49 184.64-5.21-16.94 32.53-42.61 18.96 23.16-24.16 46.01z"/><path fill="#86adaa" stroke="#86adaa" stroke-linejoin="round" d="m407.61 194.26 24.16-46.01 24.32 6.02 8.72 37.43-48.8 12.83z"/><path fill="#89abb7" stroke="#89abb7" stroke-linejoin="round" d="m464.81 191.7-8.72-37.43 24.11-23.52 13.77-1.61 10.66 3.93 12.33 17.04 2.39 30.92-11.58 11.38-30.28 6.95z"/><path fill="#7297a2" stroke="#7297a2" stroke-linejoin="round" d="m519.35 181.03-2.39-30.92 52.69-18.08 19.57 20.71-.94 4.94-49.25 28.69z"/><path fill="#94b2bc" stroke="#94b2bc" stroke-linejoin="round" d="m539.03 186.37 49.25-28.69 11.94 35-4.63 10.27-31.71 12.5z"/><path fill="#52696f" stroke="#52696f" stroke-linejoin="round" d="m600.22 192.68-11.94-35 .94-4.94 25.49-11.53 36.08 10.6 5.14 26.51-8.27 12.41z"/><path fill="#9ab6c3" stroke="#9ab6c3" stroke-linejoin="round" d="m655.93 178.32-5.14-26.51 8.99-11.19 50.08-6.8 1.85 1.82-1.33 53.32z"/><path fill="#749faf" stroke="#749faf" stroke-linejoin="round" d="m710.38 188.96 1.33-53.32 44.86-2.18 15.19 25.31-56.69 36.24z"/><path fill="#7698a3" stroke="#7698a3" stroke-linejoin="round" d="m715.07 195.01 56.69-36.24 11.88 6.47 2.99 6.51-14.54 42.61-55.88-14.15z"/><path fill="#83a8b6" stroke="#83a8b6" stroke-linejoin="round" d="m783.64 165.24 27.78-27.23 36.87 8.31-19.38 44.93-42.28-19.5z"/><path fill="#8dadbb" stroke="#8dadbb" stroke-linejoin="round" d="m828.91 191.25 19.38-44.93 6.6-3.41 26.69 11.68 1.71 35.62-36.86 19.92-11.07-5.93z"/><path fill="#7d94a1" stroke="#7d94a1" stroke-linejoin="round" d="m883.29 190.21-1.71-35.62 30.47-15.81 1.16.24 24.26 47.47-34.36 15.46z"/><path fill="#6e8c92" stroke="#6e8c92" stroke-linejoin="round" d="m913.21 139.02 24.41-11.08 32.37 4.18 4.36 2.48 3.73 7.21-13.99 37.52-25.04 7.6-1.58-.44z"/><path fill="#85a6aa" stroke="#85a6aa" stroke-linejoin="round" d="m964.09 179.33 13.99-37.52 46.97 12.31 3.26 4.75-23.4 45.9-12.03.87z"/><path fill="#92b1b4" stroke="#92b1b4" stroke-linejoin="round" d="m1034.91 230.89-30-26.12 23.4-45.9 36.59 10.83-25.49 60.48z"/><path fill="#6d978d" stroke="#6d978d" stroke-linejoin="round" d="M0 244.71v-59.73l28.53 10.64 6.95 39.37z"/><path fill="#80a496" stroke="#80a496" stroke-linejoin="round" d="m35.48 234.99-6.95-39.37 25.68-14.24 33.39 21.94.33 17.82-44.46 19.09z"/><path fill="#7ca498" stroke="#7ca498" stroke-linejoin="round" d="m87.93 221.14-.33-17.82 20.22-20 18.21-2.66 21.77 28.06-5.42 27.02-12.93 7.45-27.42-5.97z"/><path fill="#7da696" stroke="#7da696" stroke-linejoin="round" d="m142.38 235.74 5.42-27.02 47.37-21.38.31.26 9.88 23.08-41.38 33.35z"/><path fill="#85aaa2" stroke="#85aaa2" stroke-linejoin="round" d="m163.98 244.03 41.38-33.35 4.55 4.36-17.89 56.1-6.42 1.66z"/><path fill="#849ea5" stroke="#849ea5" stroke-linejoin="round" d="m232.17 224.43 38.51-40.52 20.36 20.59-8.64 38.4-10.51 7.41-31.32-10.56z"/><path fill="#7da49d" stroke="#7da49d" stroke-linejoin="round" d="m282.4 242.9 8.64-38.4 33.45-1.66-.82 53.04z"/><path fill="#7ea69d" stroke="#7ea69d" stroke-linejoin="round" d="m323.67 255.88.82-53.04 5.54-3.25 25.16 6.62 10.56 36.14-35.83 20.34z"/><path fill="#84aca4" stroke="#84aca4" stroke-linejoin="round" d="m365.75 242.35-10.56-36.14 30.3-21.57 22.12 9.62 8.4 10.27-1.04 23.46-34.25 20.18z"/><path fill="#719c92" stroke="#719c92" stroke-linejoin="round" d="m414.97 227.99 1.04-23.46 48.8-12.83 12.68 7.66-7.77 46.69-2.52 1.19-49.67-16.69z"/><path fill="#9dacb9" stroke="#9dacb9" stroke-linejoin="round" d="m469.72 246.05 7.77-46.69 30.28-6.95 18.76 61.38-19.58 9.34z"/><path fill="#7aa3b0" stroke="#7aa3b0" stroke-linejoin="round" d="m507.77 192.41 11.58-11.38 19.68 5.34 24.85 29.08-7.57 29.37-16.28 10.57-13.5-1.6z"/><path fill="#bcd2d7" stroke="#bcd2d7" stroke-linejoin="round" d="m556.31 244.82 7.57-29.37 31.71-12.5 14.63 28.87-14.37 25.65z"/><path fill="#536a70" stroke="#536a70" stroke-linejoin="round" d="m595.59 202.95 4.63-10.27 47.44-1.95 3.77 40.77-41.21.32z"/><path fill="#93b1ad" stroke="#93b1ad" stroke-linejoin="round" d="m651.43 231.5-3.77-40.77 8.27-12.41 54.45 10.64 4.69 6.05 1.14 5.2-4.62 15.67-32.39 25.29-24.72-6.01z"/><path fill="#6b909c" stroke="#6b909c" stroke-linejoin="round" d="m711.59 215.88 4.62-15.67 55.88 14.15 10.79 24.72-24.53 21.11-14.02 2.84z"/><path fill="#5b828c" stroke="#5b828c" stroke-linejoin="round" d="m772.09 214.36 14.54-42.61 42.28 19.5 6.45 12.95-48.28 35.57-4.2-.69z"/><path fill="#60878f" stroke="#60878f" stroke-linejoin="round" d="m787.08 239.77 48.28-35.57 11.07 5.93 12.04 37.16-13.09 14.28-56.49-20.13z"/><path fill="#7c9ca7" stroke="#7c9ca7" stroke-linejoin="round" d="m846.43 210.13 36.86-19.92 19.82 11.74 2.38 42.95-8.06 8.74-38.96-6.35z"/><path fill="#7397a5" stroke="#7397a5" stroke-linejoin="round" d="m905.49 244.9-2.38-42.95 34.36-15.46 1.58.44 10.49 53.28z"/><path fill="#83a2a8" stroke="#83a2a8" stroke-linejoin="round" d="m949.54 240.21-10.49-53.28 25.04-7.6 28.79 26.31-26.49 37.92-7.51 1.33z"/><path fill="#92b2b7" stroke="#92b2b7" stroke-linejoin="round" d="m966.39 243.56 26.49-37.92 12.03-.87 30 26.12-15.13 25.7-25.45 5.51z"/><path fill="#90b0b1" stroke="#90b0b1" stroke-linejoin="round" d="M1080 167.11v77.47l-40.59-14.4 25.49-60.48z"/><path fill="#c3d4db" stroke="#c3d4db" stroke-linejoin="round" d="M0 298.01v-53.3l35.48-9.72 7.99 5.24 7.29 38.11-18.19 17.14z"/><path fill="#bacfd2" stroke="#bacfd2" stroke-linejoin="round" d="m50.76 278.34-7.29-38.11 44.46-19.09 14.1 16.08-22.42 44.74z"/><path fill="#acc4ce" stroke="#acc4ce" stroke-linejoin="round" d="m79.61 281.96 22.42-44.74 27.42 5.97 2.58 45.13-37.62 9.84z"/><path fill="#acc3ce" stroke="#acc3ce" stroke-linejoin="round" d="m132.03 288.32-2.58-45.13 12.93-7.45 21.6 8.29 21.62 28.77-10.03 15.96-33.54 6.6z"/><path fill="#88a3a3" stroke="#88a3a3" stroke-linejoin="round" d="m192.02 271.14 17.89-56.1 22.26 9.39 8.4 15.32-21.28 35.5z"/><path fill="#6c9399" stroke="#6c9399" stroke-linejoin="round" d="m219.29 275.25 21.28-35.5 31.32 10.56.38 36.74-42.33 3.44z"/><path fill="#759eab" stroke="#759eab" stroke-linejoin="round" d="m272.27 287.05-.38-36.74 10.51-7.41 41.27 12.98 6.25 6.81L328.6 292l-.18.15-48.62 3.82z"/><path fill="#7198a4" stroke="#7198a4" stroke-linejoin="round" d="m328.6 292 1.32-29.31 35.83-20.34 14.97 5.82 10.44 46.81-24.72 8.5z"/><path fill="#759d9e" stroke="#759d9e" stroke-linejoin="round" d="m391.16 294.98-10.44-46.81 34.25-20.18 2.56 2.56 8.7 54.66-19.09 15.57z"/><path fill="#557c7c" stroke="#557c7c" stroke-linejoin="round" d="m426.23 285.21-8.7-54.66 49.67 16.69-18.67 33.7z"/><path fill="#759aa1" stroke="#759aa1" stroke-linejoin="round" d="m448.53 280.94 18.67-33.7 2.52-1.19 37.23 17.08-10.12 41.49-16.89 7.82z"/><path fill="#a2b0bd" stroke="#a2b0bd" stroke-linejoin="round" d="m496.83 304.62 10.12-41.49 19.58-9.34 13.5 1.6 19.33 51.14-35.77 12.31z"/><path fill="#84a4ad" stroke="#84a4ad" stroke-linejoin="round" d="m540.03 255.39 16.28-10.57 39.54 12.65 10.43 22.84-6.92 13.76-39.81 12.54-.19-.08z"/><path fill="#516b72" stroke="#516b72" stroke-linejoin="round" d="m595.85 257.47 14.37-25.65 41.21-.32 3.05 3.66-20.26 41.02-27.94 4.13z"/><path fill="#839996" stroke="#839996" stroke-linejoin="round" d="m634.22 276.18 20.26-41.02 24.72 6.01 11.26 33.53-27.62 26.57z"/><path fill="#2e2d2f" stroke="#2e2d2f" stroke-linejoin="round" d="m679.2 241.17 32.39-25.29 32.74 47.15-19.45 22.67-34.42-11z"/><path fill="#779aa7" stroke="#779aa7" stroke-linejoin="round" d="m758.35 260.19 24.53-21.11 4.2.69 1.81 1.67 25.2 62.59-25.4 5.86z"/><path fill="#708f95" stroke="#708f95" stroke-linejoin="round" d="m788.89 241.44 56.49 20.13-10.92 44.02-4.11.97-16.26-2.53z"/><path fill="#588087" stroke="#588087" stroke-linejoin="round" d="m834.46 305.59 10.92-44.02 13.09-14.28 38.96 6.35 4.68 22.2-17.84 33.15-38.81 2.53z"/><path fill="#6b8d94" stroke="#6b8d94" stroke-linejoin="round" d="m902.11 275.84-4.68-22.2 8.06-8.74 44.05-4.69 9.34 4.68-11.13 50.22-3.36.44z"/><path fill="#af9694" stroke="#af9694" stroke-linejoin="round" d="m947.75 295.11 11.13-50.22 7.51-1.33 27.94 18.54-5.89 32.9-17.63 15.48z"/><path fill="#b88175" stroke="#b88175" stroke-linejoin="round" d="m988.44 295 5.89-32.9 25.45-5.51 17.44 36.34-3.59 8.9z"/><path fill="#78807d" stroke="#78807d" stroke-linejoin="round" d="M1080 244.58v29.91l-42.78 18.44-17.44-36.34 15.13-25.7 4.5-.71z"/><path fill="#86a3b1" stroke="#86a3b1" stroke-linejoin="round" d="M0 356.47v-58.46l32.57-2.53 23.7 43.14-12.62 18.62z"/><path fill="#9ab1bd" stroke="#9ab1bd" stroke-linejoin="round" d="m32.57 295.48 18.19-17.14 28.85 3.62 14.8 16.2-3.84 28.88-7.48 6.67-26.82 4.91z"/><path fill="#9cb2bd" stroke="#9cb2bd" stroke-linejoin="round" d="m90.57 327.04 3.84-28.88 37.62-9.84 10 7.04-.52 44.05-7.54 3.67z"/><path fill="#9eb0bc" stroke="#9eb0bc" stroke-linejoin="round" d="m141.51 339.41.52-44.05 33.54-6.6 17.6 39.86-19.2 21.22z"/><path fill="#789ca5" stroke="#789ca5" stroke-linejoin="round" d="m175.57 288.76 10.03-15.96 6.42-1.66 27.27 4.11 10.65 15.24-7.93 36.22-28.84 1.91z"/><path fill="#7b9fa8" stroke="#7b9fa8" stroke-linejoin="round" d="m222.01 326.71 7.93-36.22 42.33-3.44 7.53 8.92-7.4 33.68-33.76 11.62z"/><path fill="#78a0a9" stroke="#78a0a9" stroke-linejoin="round" d="m272.4 329.65 7.4-33.68 48.62-3.82-8.23 49.32-23.91 8.7z"/><path fill="#779ba6" stroke="#779ba6" stroke-linejoin="round" d="m320.19 341.47 8.23-49.32.18-.15 37.84 11.48-5.15 45.86-19.92 4.7z"/><path fill="#dce5e7" stroke="#dce5e7" stroke-linejoin="round" d="m361.29 349.34 5.15-45.86 24.72-8.5 15.98 5.8 2.38 6.43-23.33 56.64z"/><path fill="#749aa6" stroke="#749aa6" stroke-linejoin="round" d="m407.14 300.78 19.09-15.57 22.3-4.27 31.41 31.5-2.13 4.09-28.15 20.06-10.98-1.25-29.16-28.13z"/><path fill="#82a3ad" stroke="#82a3ad" stroke-linejoin="round" d="m477.81 316.53 2.13-4.09 16.89-7.82 26.76 14.22-.4 41.29-22.99 9.16z"/><path fill="#6a929b" stroke="#6a929b" stroke-linejoin="round" d="m523.19 360.13.4-41.29 35.77-12.31.19.08 10.4 37.67-23.02 24.86z"/><path fill="#9fb0bb" stroke="#9fb0bb" stroke-linejoin="round" d="m569.95 344.28-10.4-37.67 39.81-12.54 20.59 38.82-10.62 21.22z"/><path fill="#729497" stroke="#729497" stroke-linejoin="round" d="m599.36 294.07 6.92-13.76 27.94-4.13 28.62 25.09-.42 20.38-42.47 11.24z"/><path fill="#b28a8c" stroke="#b28a8c" stroke-linejoin="round" d="m662.42 321.65.42-20.38 27.62-26.57 34.42 11 1.73 10.97-10.62 28.23-29.61 15.89-5.47.01z"/><path fill="#483b38" stroke="#483b38" stroke-linejoin="round" d="m715.99 324.9 10.62-28.23 50.53 24.15-6.16 22.13-22.9 8.04z"/><path fill="#1d2220" stroke="#1d2220" stroke-linejoin="round" d="m726.61 296.67-1.73-10.97 19.45-22.67 14.02-2.84 30.34 49.7-11.55 10.93z"/><path fill="#aac1c7" stroke="#aac1c7" stroke-linejoin="round" d="m770.98 342.95 6.16-22.13 11.55-10.93 25.4-5.86 16.26 2.53-23.54 73.35-3.51.63z"/><path fill="#8facb2" stroke="#8facb2" stroke-linejoin="round" d="m858.55 361.28-13.09-49.76 38.81-2.53 24.31 28.94 1.71 8.46-8.32 9.86z"/><path fill="#678c95" stroke="#678c95" stroke-linejoin="round" d="m884.27 308.99 17.84-33.15 42.28 19.71-35.81 42.38z"/><path fill="#ada9b1" stroke="#ada9b1" stroke-linejoin="round" d="m910.29 346.39-1.71-8.46 35.81-42.38 3.36-.44 23.06 15.37 1.74 8.63-39.2 34.3z"/><path fill="#a5655a" stroke="#a5655a" stroke-linejoin="round" d="m972.55 319.11-1.74-8.63L988.44 295l45.19 6.83 3.3 25.96-9.04 9.36-41.88-2.62z"/><path fill="#271f17" stroke="#271f17" stroke-linejoin="round" d="M1080 274.49v62.09l-43.07-8.79-3.3-25.96 3.59-8.9z"/><path fill="#345760" stroke="#345760" stroke-linejoin="round" d="M0 407.09v-50.62l43.65.77 13.49 32.89-19.48 19.97z"/><path fill="#879eaa" stroke="#879eaa" stroke-linejoin="round" d="m43.65 357.24 12.62-18.62 26.82-4.91 12.19 41.69-23.94 17.34-14.2-2.61z"/><path fill="#8ca2af" stroke="#8ca2af" stroke-linejoin="round" d="m83.09 333.71 7.48-6.67 43.4 16.04-14.31 35.18-24.38-2.86z"/><path fill="#8fa1ad" stroke="#8fa1ad" stroke-linejoin="round" d="m119.66 378.26 14.31-35.18 7.54-3.67 32.46 10.43 7.07 30.73-12.21 14.87-37.04 3.06z"/><path fill="#8eadb5" stroke="#8eadb5" stroke-linejoin="round" d="m181.04 380.57-7.07-30.73 19.2-21.22 28.84-1.91 16.63 14.56-2.12 39.12-10.35 8.77z"/><path fill="#84a7af" stroke="#84a7af" stroke-linejoin="round" d="m236.52 380.39 2.12-39.12 33.76-11.62 23.88 20.52-7.08 37.55-4.53 3.87z"/><path fill="#e2eaeb" stroke="#e2eaeb" stroke-linejoin="round" d="m289.2 387.72 7.08-37.55 23.91-8.7 21.18 12.57-7.28 40.12z"/><path fill="#b4c4cc" stroke="#b4c4cc" stroke-linejoin="round" d="m334.09 394.16 7.28-40.12 19.92-4.7 24.9 14.51 7.37 12.48-50.02 28.76z"/><path fill="#d5e0e3" stroke="#d5e0e3" stroke-linejoin="round" d="m386.19 363.85 23.33-56.64 29.16 28.13-33.73 47.47-11.39-6.48z"/><path fill="#d3dfe2" stroke="#d3dfe2" stroke-linejoin="round" d="m404.95 382.81 33.73-47.47 10.98 1.25 16.02 40.17-13.21 13.04-40.44 3.26z"/><path fill="#bcc9d1" stroke="#bcc9d1" stroke-linejoin="round" d="m449.66 336.59 28.15-20.06 22.39 52.76-4.93 5.83-29.59 1.64z"/><path fill="#b8c3cc" stroke="#b8c3cc" stroke-linejoin="round" d="m495.27 375.12 4.93-5.83 22.99-9.16 23.74 9.01 11.99 31.78-51.64 17.55z"/><path fill="#b2bfc7" stroke="#b2bfc7" stroke-linejoin="round" d="m546.93 369.14 23.02-24.86 39.38 9.83 5.59 21.99-7.11 13.93-43.26 14.64-5.63-3.75z"/><path fill="#dce6e7" stroke="#dce6e7" stroke-linejoin="round" d="m609.33 354.11 10.62-21.22 42.47-11.24 18.49 19.15-18.01 37.95-47.98-2.65z"/><path fill="#957685" stroke="#957685" stroke-linejoin="round" d="m662.9 378.75 18.01-37.95 5.47-.01 43.15 49.81.14 2.89-1.06.87-55.59 5.62z"/><path fill="#7e4f4f" stroke="#7e4f4f" stroke-linejoin="round" d="m686.38 340.79 29.61-15.89 32.09 26.09-18.55 39.61z"/><path fill="#221f1d" stroke="#221f1d" stroke-linejoin="round" d="m729.67 393.49-.14-2.89 18.55-39.61 22.9-8.04 32.32 37.59-8.07 9.59-41.63 13.28z"/><path fill="#dbe4e7" stroke="#dbe4e7" stroke-linejoin="round" d="m806.81 379.91 23.54-73.35 4.11-.97 11 5.93 13.09 49.76-16.16 24.84-4.4 1.32z"/><path fill="#435151" stroke="#435151" stroke-linejoin="round" d="m842.39 386.12 16.16-24.84 43.42-5.03-.78 35.98-24.54 13.64z"/><path fill="#a09ea3" stroke="#a09ea3" stroke-linejoin="round" d="m901.19 392.23.78-35.98 8.32-9.86 23.06 7.02 20.53 26-19.39 33.47z"/><path fill="#815557" stroke="#815557" stroke-linejoin="round" d="m953.88 379.41-20.53-26 39.2-34.3 13.46 15.42-8.8 42.25z"/><path fill="#73433b" stroke="#73433b" stroke-linejoin="round" d="m977.21 376.78 8.8-42.25 41.88 2.62-.7 45.31-28.99 9.26z"/><path fill="#4d1d14" stroke="#4d1d14" stroke-linejoin="round" d="M1080 336.58v61.26l-26.15-.15-26.66-15.23.7-45.31 9.04-9.36z"/><path fill="#28424b" stroke="#28424b" stroke-linejoin="round" d="M0 451.57v-44.48l37.66 3.01 11.31 38.52-9.71 8.88z"/><path fill="#264552" stroke="#264552" stroke-linejoin="round" d="M48.97 448.62 37.66 410.1l19.48-19.97 14.2 2.61 22.57 34.93-13.34 23.01z"/><path fill="#244553" stroke="#244553" stroke-linejoin="round" d="m71.34 392.74 23.94-17.34 24.38 2.86 12.13 20.24-11.17 22.37-26.71 6.8z"/><path fill="#737e89" stroke="#737e89" stroke-linejoin="round" d="m120.62 420.87 11.17-22.37 37.04-3.06 11.16 48.66-25.87 15.44-5.1.32z"/><path fill="#535258" stroke="#535258" stroke-linejoin="round" d="m179.99 444.1-11.16-48.66 12.21-14.87 45.13 8.59.21 46.04-13.97 15.18z"/><path fill="#565458" stroke="#565458" stroke-linejoin="round" d="m226.38 435.2-.21-46.04 10.35-8.77 48.15 11.2-.76 40.24-7.92 7.36z"/><path fill="#545c5f" stroke="#545c5f" stroke-linejoin="round" d="m283.91 431.83.76-40.24 4.53-3.87 44.89 6.44 9.45 10.93 1.96 24.29-18.43 13.3z"/><path fill="#b0c1ca" stroke="#b0c1ca" stroke-linejoin="round" d="m345.5 429.38-1.96-24.29 50.02-28.76 11.39 6.48 7.08 10.25-2 15.21-48.24 28.13z"/><path fill="#aebfc9" stroke="#aebfc9" stroke-linejoin="round" d="m361.79 436.4 48.24-28.13 10.88 26.53-9.13 26.01-12.32 7.46-18.71-1.32z"/><path fill="#b4c2cb" stroke="#b4c2cb" stroke-linejoin="round" d="m410.03 408.27 2-15.21 40.44-3.26 21.33 49.75-52.89-4.75z"/><path fill="#b9c7cf" stroke="#b9c7cf" stroke-linejoin="round" d="m452.47 389.8 13.21-13.04 29.59-1.64 12.01 43.35-4.43 9.48L477 441.84l-3.2-2.29z"/><path fill="#aab7c0" stroke="#aab7c0" stroke-linejoin="round" d="m502.85 427.95 4.43-9.48 51.64-17.55 5.63 3.75 2.73 24.52-32.32 26.71z"/><path fill="#a1abb4" stroke="#a1abb4" stroke-linejoin="round" d="m567.28 429.19-2.73-24.52 43.26-14.64 25.4 52.43-32.87 15.09-7.59-1.22z"/><path fill="#323a45" stroke="#323a45" stroke-linejoin="round" d="m607.81 390.03 7.11-13.93 47.98 2.65 10.12 21.23-7.27 25.95-28.25 17.51-4.29-.98z"/><path fill="#383c41" stroke="#383c41" stroke-linejoin="round" d="m665.75 425.93 7.27-25.95 55.59-5.62-17.33 54.76-2.15 1.3z"/><path fill="#323440" stroke="#323440" stroke-linejoin="round" d="m711.28 449.12 17.33-54.76 1.06-.87 23.93 9.92 10.15 44.36-6.3 8.18z"/><path fill="#383b46" stroke="#383b46" stroke-linejoin="round" d="m763.75 447.77-10.15-44.36 41.63-13.28 4.14 51.57z"/><path fill="#424551" stroke="#424551" stroke-linejoin="round" d="m799.37 441.7-4.14-51.57 8.07-9.59 3.51-.63 31.18 7.53-3.54 56.73-20.76 6.67z"/><path fill="#a3a6b2" stroke="#a3a6b2" stroke-linejoin="round" d="m834.45 444.17 3.54-56.73 4.4-1.32 34.26 19.75 2.82 33.85-5.59 6.7-21.19 4.66z"/><path fill="#a29fa6" stroke="#a29fa6" stroke-linejoin="round" d="m879.47 439.72-2.82-33.85 24.54-13.64 33.3 20.65 2.31 13.54-7.92 11.72z"/><path fill="#816152" stroke="#816152" stroke-linejoin="round" d="m936.8 426.42-2.31-13.54 19.39-33.47 23.33-2.63 20.99 14.94-8.9 44.65z"/><path fill="#432b1b" stroke="#432b1b" stroke-linejoin="round" d="m989.3 436.37 8.9-44.65 28.99-9.26 26.66 15.23-30.83 51.09-25.51.25z"/><path fill="#4c4956" stroke="#4c4956" stroke-linejoin="round" d="M1080 397.84v46.55l-38.16 17.6-18.82-13.21 30.83-51.09z"/><path fill="#253940" stroke="#253940" stroke-linejoin="round" d="M0 495.8v-44.23l39.26 5.93-1.99 30.67z"/><path fill="#758b95" stroke="#758b95" stroke-linejoin="round" d="m37.27 488.17 1.99-30.67 9.71-8.88 31.6 2.06 15.47 30.26-7.75 15.45-40.39 4.47z"/><path fill="#587580" stroke="#587580" stroke-linejoin="round" d="m80.57 450.68 13.34-23.01 26.71-6.8 28.4 38.99-19.12 17.37-33.86 3.71z"/><path fill="#798b96" stroke="#798b96" stroke-linejoin="round" d="m154.12 459.54 25.87-15.44 32.42 6.28.95 3.67-29.83 58.57z"/><path fill="#828f96" stroke="#828f96" stroke-linejoin="round" d="m224.21 522.79-8.37-65.35 45.03 33.49-27.5 31.12z"/><path fill="#80939e" stroke="#80939e" stroke-linejoin="round" d="m213.36 454.05-.95-3.67 13.97-15.18 49.61 3.99.35 41.01-8.5 9.02-6.97 1.71-45.03-33.49z"/><path fill="#5b595b" stroke="#5b595b" stroke-linejoin="round" d="m275.99 439.19 7.92-7.36 43.16 10.85-2.55 40.87-2.93 2.49-45.25-5.84z"/><path fill="#69706f" stroke="#69706f" stroke-linejoin="round" d="m324.52 483.55 2.55-40.87 18.43-13.3 16.29 7.02 18.96 30.55-19.36 23.33z"/><path fill="#a0acb4" stroke="#a0acb4" stroke-linejoin="round" d="m399.46 468.27 12.32-7.46 42.09 23.86-1.31 12.23-22.29 22.79-17.89 1.7z"/><path fill="#acbac4" stroke="#acbac4" stroke-linejoin="round" d="m411.78 460.81 9.13-26.01 52.89 4.75 3.2 2.29-1.72 19-21.41 23.83z"/><path fill="#a7b4bd" stroke="#a7b4bd" stroke-linejoin="round" d="m475.28 460.84 1.72-19 25.85-13.89 32.11 27.95 2.49 30.54-18.9 9.19z"/><path fill="#a3aeb6" stroke="#a3aeb6" stroke-linejoin="round" d="m537.45 486.44-2.49-30.54 32.32-26.71 25.47 27.14-40.47 34.8z"/><path fill="#9ea6ad" stroke="#9ea6ad" stroke-linejoin="round" d="m552.28 491.13 40.47-34.8 7.59 1.22 8.47 53.45-7.14 6.44-33.87-5.55z"/><path fill="#694946" stroke="#694946" stroke-linejoin="round" d="m608.81 511-8.47-53.45 32.87-15.09 4.29.98 15.99 35.11-13.78 28.99z"/><path fill="#b1938c" stroke="#b1938c" stroke-linejoin="round" d="m637.5 443.44 28.25-17.51 43.38 24.49-9.97 34.56-45.67-6.43z"/><path fill="#908788" stroke="#908788" stroke-linejoin="round" d="m699.16 484.98 9.97-34.56 2.15-1.3 46.17 6.83 3.24 23.3-7.89 17.08-47.23 2.18z"/><path fill="#827a81" stroke="#827a81" stroke-linejoin="round" d="m760.69 479.25-3.24-23.3 6.3-8.18 35.62-6.07 14.32 9.14-5.5 34.43z"/><path fill="#969da5" stroke="#969da5" stroke-linejoin="round" d="m808.19 485.27 5.5-34.43 20.76-6.67 18.24 6.91-3.72 55.65-9.75 2.11-30.14-21.49z"/><path fill="#979ca2" stroke="#979ca2" stroke-linejoin="round" d="m848.97 506.73 3.72-55.65 21.19-4.66 20.65 43.04-10.68 14.03-22.66 6.64z"/><path fill="#9b9699" stroke="#9b9699" stroke-linejoin="round" d="m873.88 446.42 5.59-6.7 49.41-1.58 2.35 36.51-6.92 8.01-29.78 6.8z"/><path fill="#604431" stroke="#604431" stroke-linejoin="round" d="m931.23 474.65-2.35-36.51 7.92-11.72 52.5 9.95 8.21 12.66-13.18 33.99-2.54 1.7z"/><path fill="#75727b" stroke="#75727b" stroke-linejoin="round" d="m984.33 483.02 13.18-33.99 25.51-.25 18.82 13.21 6.16 28.02-19.32 20.69z"/><path fill="#a9abb4" stroke="#a9abb4" stroke-linejoin="round" d="M1080 444.39v52.55l-32-6.93-6.16-28.02z"/><path fill="#536f7a" stroke="#536f7a" stroke-linejoin="round" d="M0 534.34V495.8l37.27-7.63 10.63 12.69-7.25 27.11z"/><path fill="#8397a2" stroke="#8397a2" stroke-linejoin="round" d="m40.65 527.97 7.25-27.11 40.39-4.47L95 522.56l-35.71 28z"/><path fill="#365565" stroke="#365565" stroke-linejoin="round" d="m95 522.56-6.71-26.17 7.75-15.45 33.86-3.71 18.43 57.97-31.24 2.51z"/><path fill="#919397" stroke="#919397" stroke-linejoin="round" d="m129.9 477.23 19.12-17.37 5.1-.32 29.41 53.08.44 7.3-31.71 16.94-3.93-1.66z"/><path fill="#7d8e98" stroke="#7d8e98" stroke-linejoin="round" d="m183.97 519.92-.44-7.3 29.83-58.57 2.48 3.39 8.37 65.35-13.97 5.96z"/><path fill="#76818a" stroke="#76818a" stroke-linejoin="round" d="m233.37 522.05 27.5-31.12 6.97-1.71 22.84 41.56-21.62 22.95z"/><path fill="#879196" stroke="#879196" stroke-linejoin="round" d="m267.84 489.22 8.5-9.02 45.25 5.84-5.25 41.47-25.66 3.27z"/><path fill="#6c7d87" stroke="#6c7d87" stroke-linejoin="round" d="m316.34 527.51 5.25-41.47 2.93-2.49 36.87 6.73 8.48 28.58-17.16 21.49-17.96 3.47z"/><path fill="#959599" stroke="#959599" stroke-linejoin="round" d="m361.39 490.28 19.36-23.33 18.71 1.32 12.92 53.12-1.08.77-41.43-3.3z"/><path fill="#6f7c86" stroke="#6f7c86" stroke-linejoin="round" d="m430.27 519.69 22.29-22.79 35.19 24.07-26.71 39.8z"/><path fill="#a1aeb7" stroke="#a1aeb7" stroke-linejoin="round" d="m452.56 496.9 1.31-12.23 21.41-23.83 43.27 34.79-11.27 22.38-19.53 2.96z"/><path fill="#9ba5ad" stroke="#9ba5ad" stroke-linejoin="round" d="m507.28 518.01 11.27-22.38 18.9-9.19 14.83 4.69 15.52 20.76-18.77 40.88-28.43-8.48z"/><path fill="#5d5756" stroke="#5d5756" stroke-linejoin="round" d="m549.03 552.77 18.77-40.88 33.87 5.55 2.88 33.18-45.24 18.86z"/><path fill="#615b5b" stroke="#615b5b" stroke-linejoin="round" d="m604.55 550.62-2.88-33.18 7.14-6.44 30.9-3.46 18.39 23.74-34.55 36.04z"/><path fill="#554c50" stroke="#554c50" stroke-linejoin="round" d="m639.71 507.54 13.78-28.99 45.67 6.43 6.41 13.53-7.3 30.79-25.3 5.94-14.87-3.96z"/><path fill="#87898d" stroke="#87898d" stroke-linejoin="round" d="m698.27 529.3 7.3-30.79 47.23-2.18 16.69 35.11-33.58 18.67-27.2-8.77z"/><path fill="#71707c" stroke="#71707c" stroke-linejoin="round" d="m752.8 496.33 7.89-17.08 47.5 6.02.89 2.08-35.61 45.31-3.98-1.22z"/><path fill="#434956" stroke="#434956" stroke-linejoin="round" d="m773.47 532.66 35.61-45.31 30.14 21.49-16.7 28.15-44.47-.34z"/><path fill="#c3cfd3" stroke="#c3cfd3" stroke-linejoin="round" d="m873.61 573.08-12.42-62.95 22.66-6.64 31.55 41.89-38.13 29.59z"/><path fill="#cbd5d7" stroke="#cbd5d7" stroke-linejoin="round" d="m883.85 503.49 10.68-14.03 29.78-6.8 15.43 51.06-9.14 10.69-15.2.97z"/><path fill="#5a756c" stroke="#5a756c" stroke-linejoin="round" d="m939.74 533.72-15.43-51.06 6.92-8.01 50.56 10.07-12.72 40.81z"/><path fill="#8b93a2" stroke="#8b93a2" stroke-linejoin="round" d="m969.07 525.53 12.72-40.81 2.54-1.7 44.35 27.68.14 12.08-33.66 25.32z"/><path fill="#888998" stroke="#888998" stroke-linejoin="round" d="M1080 496.94v40.82l-29.88 3.79-21.3-18.77-.14-12.08 19.32-20.69z"/><path fill="#576e7b" stroke="#576e7b" stroke-linejoin="round" d="M0 574.03v-39.69l40.65-6.37 18.64 22.59-.13 23.85z"/><path fill="#5b7884" stroke="#5b7884" stroke-linejoin="round" d="m59.16 574.41.13-23.85 35.71-28 22.09 15.15-22.76 50.12-6.29 2.59-21.27-5.91z"/><path fill="#283943" stroke="#283943" stroke-linejoin="round" d="m94.33 587.83 22.76-50.12 31.24-2.51 3.93 1.66 1.9 11.65-23.49 45.42z"/><path fill="#8d8989" stroke="#8d8989" stroke-linejoin="round" d="m130.67 593.93 23.49-45.42 34.25 42.37-2.1 2.98-42.37 15.48z"/><path fill="#6e808e" stroke="#6e808e" stroke-linejoin="round" d="m154.16 548.51-1.9-11.65 31.71-16.94 26.27 8.83 3.46 54.61-25.29 7.52z"/><path fill="#6e7d85" stroke="#6e7d85" stroke-linejoin="round" d="m213.7 583.36-3.46-54.61 13.97-5.96 9.16-.74 35.69 31.68-.18 11.47-25.01 28.11-5.76 1.09z"/><path fill="#6d7781" stroke="#6d7781" stroke-linejoin="round" d="m268.88 565.2.18-11.47 21.62-22.95 25.66-3.27 18.41 16.31-13.37 40.62-4.27 2.32z"/><path fill="#4d7b91" stroke="#4d7b91" stroke-linejoin="round" d="m321.38 584.44 13.37-40.62 17.96-3.47 39.02 41.73-26.77 20.96z"/><path fill="#606c75" stroke="#606c75" stroke-linejoin="round" d="m352.71 540.35 17.16-21.49 41.43 3.3-11.06 59.08-8.51.84z"/><path fill="#80858b" stroke="#80858b" stroke-linejoin="round" d="m400.24 581.24 11.06-59.08 1.08-.77 17.89-1.7 30.77 41.08.13 1.67-45.78 26.78z"/><path fill="#667581" stroke="#667581" stroke-linejoin="round" d="m461.17 562.44-.13-1.67 26.71-39.8 19.53-2.96 13.32 26.28-23.9 30.75-16.73 1.94z"/><path fill="#444244" stroke="#444244" stroke-linejoin="round" d="m496.7 575.04 23.9-30.75 28.43 8.48 10.28 16.71-1.2 19.32-33.4 10.49z"/><path fill="#524c4a" stroke="#524c4a" stroke-linejoin="round" d="m558.11 588.8 1.2-19.32 45.24-18.86 19 16.7.99 3.68-27.76 32.66-37.56-13.54z"/><path fill="#57524f" stroke="#57524f" stroke-linejoin="round" d="m624.54 571-.99-3.68 34.55-36.04 14.87 3.96-7.89 57.9-8.39 1.24z"/><path fill="#575151" stroke="#575151" stroke-linejoin="round" d="m665.08 593.14 7.89-57.9 25.3-5.94 10.44 12.04-17.34 59.74z"/><path fill="#56514e" stroke="#56514e" stroke-linejoin="round" d="m691.37 601.08 17.34-59.74 27.2 8.77 7.06 42.57-.91 1.35-39.26 14.3-4.53-.43z"/><path fill="#574e49" stroke="#574e49" stroke-linejoin="round" d="m742.97 592.68-7.06-42.57 33.58-18.67 3.98 1.22 4.58 3.99 9.38 46.89z"/><path fill="#2f353e" stroke="#2f353e" stroke-linejoin="round" d="m787.43 583.54-9.38-46.89 44.47.34 13.28 35.55-22.16 20.81-13.08-.71z"/><path fill="#a1aeb7" stroke="#a1aeb7" stroke-linejoin="round" d="m822.52 536.99 16.7-28.15 9.75-2.11 12.22 3.4 12.42 62.95-37.81-.54z"/><path fill="#a9b2b9" stroke="#a9b2b9" stroke-linejoin="round" d="m877.27 574.97 38.13-29.59 15.2-.97 23.16 48.89-8.69 10.57-60.11-7.96z"/><path fill="#bac2c8" stroke="#bac2c8" stroke-linejoin="round" d="m953.76 593.3-23.16-48.89 9.14-10.69 29.33-8.19 26.09 22.57 1.14 25.22-13.2 15.49z"/><path fill="#b1b1b5" stroke="#b1b1b5" stroke-linejoin="round" d="m996.3 573.32-1.14-25.22 33.66-25.32 21.3 18.77-10.57 38.76z"/><path fill="#bec6cb" stroke="#bec6cb" stroke-linejoin="round" d="M1080 537.76v47.62l-39.31-3.66-1.14-1.41 10.57-38.76z"/><path fill="#24292d" stroke="#24292d" stroke-linejoin="round" d="M0 620.92v-46.89l59.16.38 7.61 10.1-29.71 44.07z"/><path fill="#233340" stroke="#233340" stroke-linejoin="round" d="m37.06 628.58 29.71-44.07 21.27 5.91 8.97 56.22-1.71 4.1-45.65.13z"/><path fill="#29343c" stroke="#29343c" stroke-linejoin="round" d="m97.01 646.64-8.97-56.22 6.29-2.59 36.34 6.1 13.27 15.41-1.43 16.18z"/><path fill="#9b989a" stroke="#9b989a" stroke-linejoin="round" d="m142.51 625.52 1.43-16.18 42.37-15.48 3.12 49.05-11.49 6.62-19.46-3.61z"/><path fill="#5d5d61" stroke="#5d5d61" stroke-linejoin="round" d="m189.43 642.91-3.12-49.05 2.1-2.98 25.29-7.52 24.41 11.04-16.26 53.95z"/><path fill="#574f4a" stroke="#574f4a" stroke-linejoin="round" d="m221.85 648.35 16.26-53.95 5.76-1.09 40.56 37.11-8.95 29.24-48.87-4.7z"/><path fill="#514d4c" stroke="#514d4c" stroke-linejoin="round" d="m243.87 593.31 25.01-28.11 48.23 21.56-12.94 33.72-19.74 9.94z"/><path fill="#4a7a8e" stroke="#4a7a8e" stroke-linejoin="round" d="m304.17 620.48 12.94-33.72 4.27-2.32 43.58 18.6-2.96 38.4-22.33 3.87z"/><path fill="#4a798d" stroke="#4a798d" stroke-linejoin="round" d="m362 641.44 2.96-38.4 26.77-20.96 8.51-.84 15.15 7.98 10.79 26.93-6.96 17.95-37.91 24.41z"/><path fill="#6a8c9f" stroke="#6a8c9f" stroke-linejoin="round" d="m415.39 589.22 45.78-26.78 18.8 14.54-6.84 41.89-4.2 2.74-42.75-5.46z"/><path fill="#9aaab5" stroke="#9aaab5" stroke-linejoin="round" d="m473.13 618.87 6.84-41.89 16.73-1.94 28.01 24.25-12.99 30.7z"/><path fill="#17242c" stroke="#17242c" stroke-linejoin="round" d="m511.72 629.99 12.99-30.7 33.4-10.49 1.11 1.32-1.39 58.43-4.88 2.87-37.33-12.9z"/><path fill="#282f34" stroke="#282f34" stroke-linejoin="round" d="m557.83 648.55 1.39-58.43 37.56 13.54 15.86 39.65-11.62 7.99z"/><path fill="#484443" stroke="#484443" stroke-linejoin="round" d="m612.64 643.31-15.86-39.65L624.54 571l32.15 23.38-28.78 48.21-3.69 1.26z"/><path fill="#5b5655" stroke="#5b5655" stroke-linejoin="round" d="m627.91 642.59 28.78-48.21 8.39-1.24 26.29 7.94 6.9 6.82-17.15 46.01-8.51 3.14z"/><path fill="#5e5654" stroke="#5e5654" stroke-linejoin="round" d="m702.8 608.33 39.26-14.3 23.27 49.54-27.39 10z"/><path fill="#544c47" stroke="#544c47" stroke-linejoin="round" d="m742.06 594.03.91-1.35 44.46-9.14 13.13 9.1-30.07 52.07-5.16-1.14z"/><path fill="#574d46" stroke="#574d46" stroke-linejoin="round" d="m770.49 644.71 30.07-52.07 13.08.71 23.2 45.81-55.06 16.32z"/><path fill="#95a1ac" stroke="#95a1ac" stroke-linejoin="round" d="m813.64 593.35 22.16-20.81 37.81.54 3.66 1.89 7.69 20.94-7.25 26.21-36.01 19.68-4.86-2.64z"/><path fill="#a2adb6" stroke="#a2adb6" stroke-linejoin="round" d="m877.71 622.12 7.25-26.21 60.11 7.96-1.74 27.84-39.07 16.87z"/><path fill="#a4abb2" stroke="#a4abb2" stroke-linejoin="round" d="m943.33 631.71 1.74-27.84 8.69-10.57 29.34-4.49 22.21 39.99-11.98 23.21-35.78-2.04z"/><path fill="#a7abb3" stroke="#a7abb3" stroke-linejoin="round" d="m1005.31 628.8-22.21-39.99 13.2-15.49 43.25 6.99 1.14 1.41-1.99 42.34z"/><path fill="#bfc8cf" stroke="#bfc8cf" stroke-linejoin="round" d="M1080 585.38v42.72l-32.55 2.56-8.75-6.6 1.99-42.34z"/><path fill="#828a96" stroke="#828a96" stroke-linejoin="round" d="M0 684.66v-63.74l37.06 7.66 12.59 22.29-10.34 23.46-15.17 9.69z"/><path fill="#9eacb5" stroke="#9eacb5" stroke-linejoin="round" d="m39.31 674.33 10.34-23.46 45.65-.13 10.08 24.17-16.57 31.58-7.52 1.72z"/><path fill="#858c94" stroke="#858c94" stroke-linejoin="round" d="m95.3 650.74 1.71-4.1 45.5-21.12 15.97 20.4L132.72 679l-27.34-4.09z"/><path fill="#838083" stroke="#838083" stroke-linejoin="round" d="m132.72 679 25.76-33.08 19.46 3.61 1.74 37.34-33.31 6.93z"/><path fill="#635f5f" stroke="#635f5f" stroke-linejoin="round" d="m179.68 686.87-1.74-37.34 11.49-6.62 32.42 5.44 4.76 6.61-6.65 30.04-37.44 4.19z"/><path fill="#544c49" stroke="#544c49" stroke-linejoin="round" d="m219.96 685 6.65-30.04 48.87 4.7 4.8 10.28-39.31 50.17-3.29.23z"/><path fill="#527d8e" stroke="#527d8e" stroke-linejoin="round" d="m280.28 669.94-4.8-10.28 8.95-29.24 19.74-9.94 35.5 24.83-28.58 42.89-1.02.12z"/><path fill="#30697c" stroke="#30697c" stroke-linejoin="round" d="m311.09 688.2 28.58-42.89 22.33-3.87 19.31 17.07 1 7.69-42.39 36.6z"/><path fill="#597f92" stroke="#597f92" stroke-linejoin="round" d="m382.31 666.2-1-7.69 37.91-24.41 33.07 42.92-11.18 16.84-47.42-12.26z"/><path fill="#5b8092" stroke="#5b8092" stroke-linejoin="round" d="m419.22 634.1 6.96-17.95 42.75 5.46-3.78 49.2-12.86 6.21z"/><path fill="#557689" stroke="#557689" stroke-linejoin="round" d="m465.15 670.81 3.78-49.2 4.2-2.74 38.59 11.12 3.9 8.53-21.69 37.26z"/><path fill="#577487" stroke="#577487" stroke-linejoin="round" d="m493.93 675.78 21.69-37.26 37.33 12.9-7.91 38.9-35.9 6.48z"/><path fill="#537381" stroke="#537381" stroke-linejoin="round" d="m545.04 690.32 7.91-38.9 4.88-2.87 43.19 2.75-6.47 43.49-30.21 14.09z"/><path fill="#436572" stroke="#436572" stroke-linejoin="round" d="m624.22 643.85 3.69-1.26 44.7 14.46-11.75 52.32-2.83 2.68-15.33-1.78z"/><path fill="#42646e" stroke="#42646e" stroke-linejoin="round" d="m660.86 709.37 11.75-52.32 8.51-3.14 38.95 24.37 1.92 16.4-3.28 3.73z"/><path fill="#6a6567" stroke="#6a6567" stroke-linejoin="round" d="m681.12 653.91 17.15-46.01 4.53.43 35.14 45.24-17.87 24.71z"/><path fill="#848e97" stroke="#848e97" stroke-linejoin="round" d="m721.99 694.68-1.92-16.4 17.87-24.71 27.39-10 5.16 1.14 11.29 10.77 5.23 36.38-27.31 15.89z"/><path fill="#534a41" stroke="#534a41" stroke-linejoin="round" d="m787.01 691.86-5.23-36.38 55.06-16.32 4.86 2.64 4.59 25.56-19.6 24.91-35.02 1.88z"/><path fill="#98a5ae" stroke="#98a5ae" stroke-linejoin="round" d="m846.29 667.36-4.59-25.56 36.01-19.68 26.55 26.46-2.77 31.19-16.31 9.44z"/><path fill="#9fa9b2" stroke="#9fa9b2" stroke-linejoin="round" d="m901.49 679.77 2.77-31.19 39.07-16.87 14.22 18.26-8.82 25.31-28.62 11.8z"/><path fill="#9da6ad" stroke="#9da6ad" stroke-linejoin="round" d="m948.73 675.28 8.82-25.31 35.78 2.04 10.48 22.04-31.16 30.64z"/><path fill="#9fa4aa" stroke="#9fa4aa" stroke-linejoin="round" d="m1003.81 674.05-10.48-22.04 11.98-23.21 33.39-4.74 8.75 6.6-4.67 47.5-16.9 5.81z"/><path fill="#9ea1a7" stroke="#9ea1a7" stroke-linejoin="round" d="M1080 628.1v63.32l-37.22-13.26 4.67-47.5z"/><path fill="#acb6c2" stroke="#acb6c2" stroke-linejoin="round" d="M0 741.97v-57.31l24.14-.64 18.46 48.84z"/><path fill="#979faa" stroke="#979faa" stroke-linejoin="round" d="m42.6 732.86-18.46-48.84 15.17-9.69 41.98 33.88-29.83 27.8z"/><path fill="#858899" stroke="#858899" stroke-linejoin="round" d="m88.81 706.49 16.57-31.58 27.34 4.09 13.65 14.8-2.18 46.66-.31.25-24.94-.4z"/><path fill="#6d7f8a" stroke="#6d7f8a" stroke-linejoin="round" d="m144.19 740.46 2.18-46.66 33.31-6.93 2.84 2.32 3.71 31.17-15.75 17.42z"/><path fill="#5d5751" stroke="#5d5751" stroke-linejoin="round" d="m186.23 720.36-3.71-31.17 37.44-4.19 17.72 35.34-1.49 1.38z"/><path fill="#595a5e" stroke="#595a5e" stroke-linejoin="round" d="m240.97 720.11 39.31-50.17 29.79 18.38-22.22 51.64-4.04 1.65z"/><path fill="#245e6f" stroke="#245e6f" stroke-linejoin="round" d="m287.85 739.96 22.22-51.64 1.02-.12 28.83 14.6 9.57 21.01-29.84 26.72z"/><path fill="#30697a" stroke="#30697a" stroke-linejoin="round" d="m349.49 723.81-9.57-21.01 42.39-36.6 11.38 15.4-9.43 46.45-14.89 4.81z"/><path fill="#517a8c" stroke="#517a8c" stroke-linejoin="round" d="m384.26 728.05 9.43-46.45 47.42 12.26.21 1.83-21.07 45.22-1.98 1.7z"/><path fill="#326273" stroke="#326273" stroke-linejoin="round" d="m420.25 740.91 21.07-45.22 45.8 40.22-8.3 10.34z"/><path fill="#305d6c" stroke="#305d6c" stroke-linejoin="round" d="m441.32 695.69-.21-1.83 11.18-16.84 12.86-6.21 28.78 4.97 15.21 21.02-10.74 35.09-11.28 4.02z"/><path fill="#3b5d69" stroke="#3b5d69" stroke-linejoin="round" d="m498.4 731.89 10.74-35.09 35.9-6.48 19.3 18.56-1.04 20.47-37.38 20.59z"/><path fill="#3b5e68" stroke="#3b5e68" stroke-linejoin="round" d="m563.3 729.35 1.04-20.47 30.21-14.09 31.33 21.35-20.33 42.24-20.51-7.16z"/><path fill="#37606f" stroke="#37606f" stroke-linejoin="round" d="m594.55 694.79 6.47-43.49 11.62-7.99 11.58.54 18.48 66.42-16.82 5.87z"/><path fill="#2f545d" stroke="#2f545d" stroke-linejoin="round" d="m658.03 712.05 2.83-2.68 57.85-10.96-6.57 47.54-9.35 4.26-37.05-19.39z"/><path fill="#2d5057" stroke="#2d5057" stroke-linejoin="round" d="m712.14 745.95 6.57-47.54 3.28-3.73 37.71 13.07 1.56 39.97-10.43 14.89z"/><path fill="#2c5159" stroke="#2c5159" stroke-linejoin="round" d="m761.26 747.72-1.56-39.97 27.31-15.89 4.66 2.29 15.34 50.34z"/><path fill="#536167" stroke="#536167" stroke-linejoin="round" d="m807.01 744.49-15.34-50.34 35.02-1.88 17.71 35.77-1.07 2.28-33.52 15.91z"/><path fill="#929294" stroke="#929294" stroke-linejoin="round" d="m826.69 692.27 19.6-24.91 38.89 21.85-5.8 25.14-34.98 13.69z"/><path fill="#929aa3" stroke="#929aa3" stroke-linejoin="round" d="m879.38 714.35 5.8-25.14 16.31-9.44 18.62 7.31 15.32 40.16-1.2 1.78-38.58 5.98z"/><path fill="#9ea2a8" stroke="#9ea2a8" stroke-linejoin="round" d="m935.43 727.24-15.32-40.16 28.62-11.8 23.92 29.41-1.35 11.62z"/><path fill="#979fa7" stroke="#979fa7" stroke-linejoin="round" d="m971.3 716.31 1.35-11.62 31.16-30.64 22.07 9.92-5.33 48.97-28.98 4.44z"/><path fill="#979da3" stroke="#979da3" stroke-linejoin="round" d="M1080 691.42v34.36l-44.6 16.7-14.85-9.54 5.33-48.97 16.9-5.81z"/><path fill="#577081" stroke="#577081" stroke-linejoin="round" d="M0 785.8v-43.83l42.6-9.11 8.86 3.15 9.5 29.21-28.99 26.14z"/><path fill="#627987" stroke="#627987" stroke-linejoin="round" d="m60.96 765.22-9.5-29.21 29.83-27.8 7.52-1.72 30.13 33.82-30.25 35.07z"/><path fill="#807a7a" stroke="#807a7a" stroke-linejoin="round" d="m88.69 775.38 30.25-35.07 24.94.4 7.3 50.93-50.07 15.56z"/><path fill="#6b737a" stroke="#6b737a" stroke-linejoin="round" d="m151.18 791.64-7.3-50.93.31-.25 26.29-2.68 29.65 26.72-17.24 25.31-28.41 4.06z"/><path fill="#58514d" stroke="#58514d" stroke-linejoin="round" d="m170.48 737.78 15.75-17.42 49.96 1.36-15.87 40.39-20.19 2.39z"/><path fill="#564e4b" stroke="#564e4b" stroke-linejoin="round" d="m220.32 762.11 15.87-40.39 1.49-1.38 3.29-.23 42.84 21.5-12.83 48.32-1.21.86-30.64-3.07z"/><path fill="#1e5162" stroke="#1e5162" stroke-linejoin="round" d="m270.98 789.93 12.83-48.32 4.04-1.65 31.8 10.57 11.79 26.73-12.69 21.93z"/><path fill="#235868" stroke="#235868" stroke-linejoin="round" d="m331.44 777.26-11.79-26.73 29.84-26.72 19.88 9.05-4.89 41.37z"/><path fill="#3f6e7e" stroke="#3f6e7e" stroke-linejoin="round" d="m364.48 774.23 4.89-41.37 14.89-4.81 34.01 14.56.4 33.23-.36.64-36.76 13.77z"/><path fill="#305f6f" stroke="#305f6f" stroke-linejoin="round" d="m418.67 775.84-.4-33.23 1.98-1.7 58.57 5.34-6.39 28.24z"/><path fill="#214551" stroke="#214551" stroke-linejoin="round" d="m472.43 774.49 6.39-28.24 8.3-10.34 11.28-4.02 27.52 18.05 6.5 40.65-22.69 8.5-29.16-7.27z"/><path fill="#35565f" stroke="#35565f" stroke-linejoin="round" d="m532.42 790.59-6.5-40.65 37.38-20.59 21.74 21.87-45.79 42.73z"/><path fill="#36575e" stroke="#36575e" stroke-linejoin="round" d="m539.25 793.95 45.79-42.73 20.51 7.16 5.72 10.93-5.81 12.9-61.85 16.42z"/><path fill="#375b64" stroke="#375b64" stroke-linejoin="round" d="m605.55 758.38 20.33-42.24 16.82-5.87 15.33 1.78 7.71 18.77-17.58 46.45-36.89-7.96z"/><path fill="#2a4f58" stroke="#2a4f58" stroke-linejoin="round" d="m648.16 777.27 17.58-46.45 37.05 19.39-11.78 28-38.98 2.99z"/><path fill="#2b484e" stroke="#2b484e" stroke-linejoin="round" d="m691.01 778.21 11.78-28 9.35-4.26 38.69 16.66.47 3.06-6.86 22.95-36.34 15.01z"/><path fill="#2c4b53" stroke="#2c4b53" stroke-linejoin="round" d="m751.3 765.67-.47-3.06 10.43-14.89 45.75-3.23 2.8 1.74 2.73 25.29-15.32 14.11z"/><path fill="#6b6c70" stroke="#6b6c70" stroke-linejoin="round" d="m812.54 771.52-2.73-25.29 33.52-15.91 17.6 37.34-14.85 20.21z"/><path fill="#6e6f73" stroke="#6e6f73" stroke-linejoin="round" d="m860.93 767.66-17.6-37.34 1.07-2.28 34.98-13.69L895.65 735l-5.97 28.9z"/><path fill="#6c6c6e" stroke="#6c6c6e" stroke-linejoin="round" d="m889.68 763.9 5.97-28.9 38.58-5.98 7 44.29-.4.36-42.19-.13z"/><path fill="#787474" stroke="#787474" stroke-linejoin="round" d="m941.23 773.31-7-44.29 1.2-1.78 35.87-10.93 20.27 21.07-13.62 35.53z"/><path fill="#5e5d62" stroke="#5e5d62" stroke-linejoin="round" d="m977.95 772.91 13.62-35.53 28.98-4.44 14.85 9.54 3.93 42.66-46.91 8.36z"/><path fill="#919194" stroke="#919194" stroke-linejoin="round" d="M1080 725.78v75.01l-29.26-6-11.41-9.65-3.93-42.66z"/><path fill="#a4adb4" stroke="#a4adb4" stroke-linejoin="round" d="M0 847.87V785.8l31.97 5.56 16.81 35.14-20.17 22.47z"/><path fill="#a4b0b8" stroke="#a4b0b8" stroke-linejoin="round" d="m48.78 826.5-16.81-35.14 28.99-26.14 27.73 10.16 12.42 31.82-1.36 4.36-20.35 17.4z"/><path fill="#b6b6bb" stroke="#b6b6bb" stroke-linejoin="round" d="m99.75 811.56 1.36-4.36 50.07-15.56 3.3 2.23 6.26 34.57-24.31 22.17z"/><path fill="#59514e" stroke="#59514e" stroke-linejoin="round" d="m160.74 828.44-6.26-34.57 28.41-4.06 28.99 33.31-19.57 17.14z"/><path fill="#5a534f" stroke="#5a534f" stroke-linejoin="round" d="m182.89 789.81 17.24-25.31 20.19-2.39 18.81 25.61-26.94 35.35-.31.05z"/><path fill="#554d4a" stroke="#554d4a" stroke-linejoin="round" d="m212.19 823.07 26.94-35.35 30.64 3.07.39 52.61-26.43 4.03z"/><path fill="#184653" stroke="#184653" stroke-linejoin="round" d="m270.16 843.4-.39-52.61 1.21-.86 47.77 9.26 10.26 26.99-5.97 14.64-36.39 15.14z"/><path fill="#1c4f60" stroke="#1c4f60" stroke-linejoin="round" d="m329.01 826.18-10.26-26.99 12.69-21.93 33.04-3.03 17.07 16.02-5.9 27.56z"/><path fill="#3b6676" stroke="#3b6676" stroke-linejoin="round" d="m375.65 817.81 5.9-27.56 36.76-13.77 20.67 49.96-21.16 18.03-25.68-3.41z"/><path fill="#264f5e" stroke="#264f5e" stroke-linejoin="round" d="m418.31 776.48.36-.64 53.76-1.35 8.14 17.33-26.72 34.75-14.87-.13z"/><path fill="#1d3b43" stroke="#1d3b43" stroke-linejoin="round" d="m453.85 826.57 26.72-34.75 29.16 7.27-8.85 48.25-20.99 4.48z"/><path fill="#1e3f46" stroke="#1e3f46" stroke-linejoin="round" d="m500.88 847.34 8.85-48.25 22.69-8.5 6.83 3.36 4.36 4.68 9.18 18.82-2.46 13.59-31.84 24.69z"/><path fill="#335257" stroke="#335257" stroke-linejoin="round" d="m552.79 817.45-9.18-18.82 61.85-16.42-3.11 37.93z"/><path fill="#2a4850" stroke="#2a4850" stroke-linejoin="round" d="m602.35 820.14 3.11-37.93 5.81-12.9 36.89 7.96 3.87 3.93 2.42 40.29-15.75 13.53-32.65-9.32z"/><path fill="#264147" stroke="#264147" stroke-linejoin="round" d="m654.45 821.49-2.42-40.29 38.98-2.99 17.09 25.42-8.27 27.7z"/><path fill="#273c3f" stroke="#273c3f" stroke-linejoin="round" d="m702.43 836.66-2.6-5.33 8.27-27.7 36.34-15.01 18.85 30.45-20.84 30.58z"/><path fill="#264347" stroke="#264347" stroke-linejoin="round" d="m763.29 819.07-18.85-30.45 6.86-22.95 45.92 19.96-3.88 33.27z"/><path fill="#6a6b6f" stroke="#6a6b6f" stroke-linejoin="round" d="m793.34 818.9 3.88-33.27 15.32-14.11 33.54 16.35 3.06 21.12-43.4 20.8z"/><path fill="#68686a" stroke="#68686a" stroke-linejoin="round" d="m849.14 808.99-3.06-21.12 14.85-20.21 28.75-3.76 8.96 9.64-5.79 39.25-30.76 5.71z"/><path fill="#6b696a" stroke="#6b696a" stroke-linejoin="round" d="m892.85 812.79 5.79-39.25 42.19.13-5.83 43.64-25.34 6.21z"/><path fill="#6c6867" stroke="#6c6867" stroke-linejoin="round" d="m935 817.31 5.83-43.64.4-.36 36.72-.4 14.47 20.59-7.26 32.3-34.95 2.02z"/><path fill="#686463" stroke="#686463" stroke-linejoin="round" d="m985.16 825.8 7.26-32.3 46.91-8.36 11.41 9.65-29.48 50.28-29.52-10z"/><path fill="#66615e" stroke="#66615e" stroke-linejoin="round" d="M1080 800.79v40.07l-48.96 17.4-9.78-13.19 29.48-50.28z"/><path fill="#adafb4" stroke="#adafb4" stroke-linejoin="round" d="M0 905.13v-57.26l28.61 1.1 15.19 32.12z"/><path fill="#a3a6ab" stroke="#a3a6ab" stroke-linejoin="round" d="m43.8 881.09-15.19-32.12 20.17-22.47 30.62 2.46 7.97 55.88-5.94 6.04-18.17.4z"/><path fill="#b2b3b7" stroke="#b2b3b7" stroke-linejoin="round" d="m87.37 884.84-7.97-55.88 20.35-17.4 36.68 39.05-1.26 27.6z"/><path fill="#6f7174" stroke="#6f7174" stroke-linejoin="round" d="m135.17 878.21 1.26-27.6 24.31-22.17 31.57 11.82-2.29 33.96-45.16 11.89z"/><path fill="#524a47" stroke="#524a47" stroke-linejoin="round" d="m190.02 874.22 2.29-33.96 19.57-17.14.31-.05 31.54 24.36-16.99 34.64-22.71 2.79z"/><path fill="#173741" stroke="#173741" stroke-linejoin="round" d="m226.74 882.07 16.99-34.64 26.43-4.03 16.49 12.56-.29 7.76-29.96 41.01-1.27.55z"/><path fill="#193a43" stroke="#193a43" stroke-linejoin="round" d="m286.36 863.72.29-7.76 36.39-15.14 30.63 39.38-33.44 31.92z"/><path fill="#1a4957" stroke="#1a4957" stroke-linejoin="round" d="m323.04 840.82 5.97-14.64 46.64-8.37 16.49 23.25-28.74 39.44-9.73-.3z"/><path fill="#2c525f" stroke="#2c525f" stroke-linejoin="round" d="m363.4 880.5 28.74-39.44 25.68 3.41 14.59 52.93-.75 1.12-8.59 4.28-40.84-2.8z"/><path fill="#203f49" stroke="#203f49" stroke-linejoin="round" d="m432.41 897.4-14.59-52.93 21.16-18.03 14.87.13 26.04 25.25-11.5 35.52z"/><path fill="#1c3238" stroke="#1c3238" stroke-linejoin="round" d="m468.39 887.34 11.5-35.52 20.99-4.48 17.61 8.39 9.76 25.94-1.16 3.26-41.28 15.61z"/><path fill="#284448" stroke="#284448" stroke-linejoin="round" d="m528.25 881.67-9.76-25.94 31.84-24.69 27.83 40.83z"/><path fill="#274649" stroke="#274649" stroke-linejoin="round" d="m550.33 831.04 2.46-13.59 49.56 2.69 3.7 5.56-24.1 47.7-3.79-1.53z"/><path fill="#253d41" stroke="#253d41" stroke-linejoin="round" d="m581.95 873.4 24.1-47.7 32.65 9.32 3.66 34.98-51.27 16.94z"/><path fill="#2a3d40" stroke="#2a3d40" stroke-linejoin="round" d="m642.36 870-3.66-34.98 15.75-13.53 45.38 9.84 2.6 5.33-18.01 42.93-20.2 8.55z"/><path fill="#2a393c" stroke="#2a393c" stroke-linejoin="round" d="m684.42 879.59 18.01-42.93 40.02 12.99 12.47 28.61-35.04 21.2z"/><path fill="#283b3f" stroke="#283b3f" stroke-linejoin="round" d="m754.92 878.26-12.47-28.61 20.84-30.58 30.05-.17 12.4 10.89 2.31 32.26-4.78 6.66-48.01 9.7z"/><path fill="#636366" stroke="#636366" stroke-linejoin="round" d="m808.05 862.05-2.31-32.26 43.4-20.8 12.95 9.51.02 48.08z"/><path fill="#605d5e" stroke="#605d5e" stroke-linejoin="round" d="m862.11 866.58-.02-48.08 30.76-5.71 16.81 10.73-5.05 39.44-24.06 12.9-10.69-.74z"/><path fill="#5f5b5a" stroke="#5f5b5a" stroke-linejoin="round" d="m904.61 862.96 5.05-39.44 25.34-6.21 15.21 10.51-10.12 47.55z"/><path fill="#605c59" stroke="#605c59" stroke-linejoin="round" d="m940.09 875.37 10.12-47.55 34.95-2.02 6.58 9.27-15.99 41.11-34.39.92z"/><path fill="#5f5b58" stroke="#5f5b58" stroke-linejoin="round" d="m975.75 876.18 15.99-41.11 29.52 10 9.78 13.19.57 25.49-8.07 7.78-36.87-2.49z"/><path fill="#5a5453" stroke="#5a5453" stroke-linejoin="round" d="M1080 840.86v59.05l-48.39-16.16-.57-25.49z"/><path fill="#968b8a" stroke="#968b8a" stroke-linejoin="round" d="M0 932.28v-27.15l43.8-24.04 19.46 10.19-30.58 45.07z"/><path fill="#a9a4a5" stroke="#a9a4a5" stroke-linejoin="round" d="m32.68 936.35 30.58-45.07 18.17-.4 10.43 45.5-9.78 10.86-28.64 8.03z"/><path fill="#a9a9ae" stroke="#a9a9ae" stroke-linejoin="round" d="m91.86 936.38-10.43-45.5 5.94-6.04 47.8-6.63 9.69 7.9 4.53 35.95-21.11 21.47z"/><path fill="#514c48" stroke="#514c48" stroke-linejoin="round" d="m149.39 922.06-4.53-35.95 45.16-11.89 14.01 10.64-5.15 49.2-9.56 4.58z"/><path fill="#504943" stroke="#504943" stroke-linejoin="round" d="m198.88 934.06 5.15-49.2 22.71-2.79 28.39 23.21-12.6 36.52-3.11 2.52z"/><path fill="#8b8687" stroke="#8b8687" stroke-linejoin="round" d="m242.53 941.8 12.6-36.52 1.27-.55 55.46 18.33-20.07 27.81z"/><path fill="#173239" stroke="#173239" stroke-linejoin="round" d="m256.4 904.73 29.96-41.01 33.87 48.4-1.91 7.59-6.46 3.35z"/><path fill="#1b3941" stroke="#1b3941" stroke-linejoin="round" d="m318.32 919.71 1.91-7.59 33.44-31.92 9.73.3 18.83 19.5-13.63 44.15-26.86-3.26z"/><path fill="#1f3b44" stroke="#1f3b44" stroke-linejoin="round" d="M368.6 944.15 382.23 900l40.84 2.8-16.85 51.37-33.31-5.3z"/><path fill="#1c3035" stroke="#1c3035" stroke-linejoin="round" d="m431.66 898.52.75-1.12 35.98-10.06 17.42 13.2 8.32 36.19-6.07 10.02-28.55 2.78z"/><path fill="#1b3236" stroke="#1b3236" stroke-linejoin="round" d="m494.13 936.73-8.32-36.19 41.28-15.61 11.07 34.12-2.29 8.29z"/><path fill="#233b3d" stroke="#233b3d" stroke-linejoin="round" d="m538.16 919.05-11.07-34.12 1.16-3.26 49.91-9.8 3.79 1.53 9.14 13.54-.38 10.6z"/><path fill="#223436" stroke="#223436" stroke-linejoin="round" d="m552.24 951.92-16.37-24.58 2.29-8.29 52.55-21.51 10 24.03z"/><path fill="#27393b" stroke="#27393b" stroke-linejoin="round" d="m600.71 921.57-10-24.03.38-10.6L642.36 870l21.86 18.14-5.57 27.67-7.33 8.08-44.63 2.71z"/><path fill="#2c3b3e" stroke="#2c3b3e" stroke-linejoin="round" d="m658.65 915.81 5.57-27.67 20.2-8.55 35.46 19.87-2.26 35.31-8.65 4.26z"/><path fill="#2c3b3e" stroke="#2c3b3e" stroke-linejoin="round" d="m717.62 934.77 2.26-35.31 35.04-21.2.34.15 20.39 60.98-.21.58-16.82 12.68z"/><path fill="#615d5d" stroke="#615d5d" stroke-linejoin="round" d="m775.65 939.39-20.39-60.98 48.01-9.7 11.62 42.24z"/><path fill="#5e5c5e" stroke="#5e5c5e" stroke-linejoin="round" d="m814.89 910.95-11.62-42.24 4.78-6.66 54.06 4.53 7.75 8.54-22.78 45.79-1.81.77z"/><path fill="#555050" stroke="#555050" stroke-linejoin="round" d="m847.08 920.91 22.78-45.79 10.69.74 28.08 42.99-11.74 24.96z"/><path fill="#5f5b58" stroke="#5f5b58" stroke-linejoin="round" d="m880.55 875.86 24.06-12.9 35.48 12.41 1.27 1.73-5 29.67-27.73 12.08z"/><path fill="#5e5957" stroke="#5e5957" stroke-linejoin="round" d="m936.36 906.77 5-29.67 34.39-.92 10.92 12.86-13.52 37.48-14.19.44z"/><path fill="#5a5552" stroke="#5a5552" stroke-linejoin="round" d="m973.15 926.52 13.52-37.48 36.87 2.49-3.74 44.59-29.66 3z"/><path fill="#5b5652" stroke="#5b5652" stroke-linejoin="round" d="M1080 899.91v37.38l-50.76 7.04-9.44-8.21 3.74-44.59 8.07-7.78z"/><path fill="#0c0f13" stroke="#0c0f13" stroke-linejoin="round" d="M0 992.08v-59.8l32.68 4.07 20.76 18.92-5.3 21.33-14.42 13.05z"/><path fill="#a2a1a4" stroke="#a2a1a4" stroke-linejoin="round" d="m48.14 976.6 5.3-21.33 28.64-8.03 13.67 43.23-13.14 9.66z"/><path fill="#a8a9ad" stroke="#a8a9ad" stroke-linejoin="round" d="m95.75 990.47-13.67-43.23 9.78-10.86 36.42 7.15 10.74 49.23-.32.44z"/><path fill="#a6a2a1" stroke="#a6a2a1" stroke-linejoin="round" d="m139.02 992.76-10.74-49.23 21.11-21.47 39.93 16.58-10.34 43.93z"/><path fill="#9b9693" stroke="#9b9693" stroke-linejoin="round" d="m178.98 982.57 10.34-43.93 9.56-4.58 40.54 10.26.15 21.51-38.11 32.77z"/><path fill="#9a8d86" stroke="#9a8d86" stroke-linejoin="round" d="m239.57 965.83-.15-21.51 3.11-2.52 49.26 9.07 6.93 37.02-39.26 2.89z"/><path fill="#93837e" stroke="#93837e" stroke-linejoin="round" d="m298.72 987.89-6.93-37.02 20.07-27.81 6.46-3.35 23.42 21.18-13.65 38.65-26.38 10.76z"/><path fill="#aea49f" stroke="#aea49f" stroke-linejoin="round" d="m328.09 979.54 13.65-38.65 26.86 3.26 4.31 4.72-8.53 45.53z"/><path fill="#94949a" stroke="#94949a" stroke-linejoin="round" d="m374.04 1013.31-9.66-18.91 8.53-45.53 33.31 5.3 17.2 20.5-48.93 38.83z"/><path fill="#213339" stroke="#213339" stroke-linejoin="round" d="m423.42 974.67-17.2-20.5 16.85-51.37 8.59-4.28 27.85 51.01-25.61 27.7z"/><path fill="#1c292b" stroke="#1c292b" stroke-linejoin="round" d="m442.87 993.28-8.97-16.05 25.61-27.7 28.55-2.78 11.48 24.39-25.25 36.87z"/><path fill="#1f2f31" stroke="#1f2f31" stroke-linejoin="round" d="m499.54 971.14-11.48-24.39 6.07-10.02 41.74-9.39 16.37 24.58.42 14.83-25.63 15.17z"/><path fill="#233132" stroke="#233132" stroke-linejoin="round" d="m552.66 966.75-.42-14.83 48.47-30.35 5.98 5.03.11 44.63-35.43 8.51z"/><path fill="#293738" stroke="#293738" stroke-linejoin="round" d="m606.8 971.23-.11-44.63 44.63-2.71 6.84 49.38-12.29 9.63-25.63-1.33z"/><path fill="#2d3e42" stroke="#2d3e42" stroke-linejoin="round" d="m658.16 973.27-6.84-49.38 7.33-8.08 50.32 23.22-19.61 37.51z"/><path fill="#2f4246" stroke="#2f4246" stroke-linejoin="round" d="m689.36 976.54 19.61-37.51 8.65-4.26 41 17.88-1.49 10.63-50.45 35.68z"/><path fill="#67686d" stroke="#67686d" stroke-linejoin="round" d="m778.29 1008.91-6.43-6.93-14.73-38.7 1.49-10.63 16.82-12.68 54.2 37.54-2 8.62z"/><path fill="#616064" stroke="#616064" stroke-linejoin="round" d="m775.44 939.97.21-.58 39.24-28.44 30.38 10.73-14.08 54.39-1.55 1.44z"/><path fill="#595451" stroke="#595451" stroke-linejoin="round" d="m831.19 976.07 14.08-54.39 1.81-.77 49.81 22.9 1.34 5.2-16.59 23.34z"/><path fill="#5c5451" stroke="#5c5451" stroke-linejoin="round" d="m898.23 949.01-1.34-5.2 11.74-24.96 27.73-12.08 22.6 20.19-21.83 38.44-4.47 1.49z"/><path fill="#5e5953" stroke="#5e5953" stroke-linejoin="round" d="m937.13 965.4 21.83-38.44 14.19-.44 16.99 12.6-11.88 41.87z"/><path fill="#5a524f" stroke="#5a524f" stroke-linejoin="round" d="m978.26 980.99 11.88-41.87 29.66-3 9.44 8.21-2.65 47.51-2 2.2-40.32-1.9z"/><path fill="#5b5350" stroke="#5b5350" stroke-linejoin="round" d="M1080 937.29v51.47l-53.41 3.08 2.65-47.51z"/><path fill="#a9a7a8" stroke="#a9a7a8" stroke-linejoin="round" d="M0 1033.61v-41.53l33.72-2.43 22.53 44.1-2.46 2.79z"/><path fill="#aaa7a8" stroke="#aaa7a8" stroke-linejoin="round" d="m56.25 1033.75-22.53-44.1 14.42-13.05 34.47 23.53-8.81 27.64z"/><path fill="#b0acad" stroke="#b0acad" stroke-linejoin="round" d="m73.8 1027.77 8.81-27.64 13.14-9.66 42.95 2.73-.28 18.15-37.3 31.91z"/><path fill="#b3aaa6" stroke="#b3aaa6" stroke-linejoin="round" d="m160.11 1043.8-21.69-32.45.28-18.15.32-.44 39.96-10.19 22.48 16.03 5.44 15.68-12.61 24.89z"/><path fill="#9e9a9b" stroke="#9e9a9b" stroke-linejoin="round" d="m206.9 1014.28-5.44-15.68 38.11-32.77 19.89 24.95-13.68 31.15z"/><path fill="#9d9999" stroke="#9d9999" stroke-linejoin="round" d="m245.78 1021.93 13.68-31.15 39.26-2.89 2.99 2.41 1.3 7.58-15.9 38.03-10.38 5.36-23.75-7.13z"/><path fill="#9c9897" stroke="#9c9897" stroke-linejoin="round" d="m287.11 1035.91 15.9-38.03 36.36 30.44-12.13 27.54z"/><path fill="#aaa2a0" stroke="#aaa2a0" stroke-linejoin="round" d="m339.37 1028.32-36.36-30.44-1.3-7.58 26.38-10.76 36.29 14.86 9.66 18.91z"/><path fill="#60575c" stroke="#60575c" stroke-linejoin="round" d="m374.49 1013.5 48.93-38.83 10.48 2.56 8.97 16.05-22.19 47.53-3.65 1.82-31.26-12.46z"/><path fill="#867f7d" stroke="#867f7d" stroke-linejoin="round" d="m420.68 1040.81 22.19-47.53 31.42 14.73 7.34 15.02-21.14 25.28z"/><path fill="#202b2c" stroke="#202b2c" stroke-linejoin="round" d="m481.63 1023.03-7.34-15.02 25.25-36.87 27.49 10.78-.92 39.5-17.38 10.91z"/><path fill="#223031" stroke="#223031" stroke-linejoin="round" d="m526.11 1021.42.92-39.5 25.63-15.17 18.71 12.99.86 49.39-3.38 2.93z"/><path fill="#263132" stroke="#263132" stroke-linejoin="round" d="m572.23 1029.13-.86-49.39 35.43-8.51 13.44 10.34-17.65 45.71z"/><path fill="#2c3a3b" stroke="#2c3a3b" stroke-linejoin="round" d="m602.59 1027.28 17.65-45.71 25.63 1.33 6.99 43.34-43.16 5.91z"/><path fill="#374a51" stroke="#374a51" stroke-linejoin="round" d="m652.86 1026.24-6.99-43.34 12.29-9.63 31.2 3.27 17.32 22.42 1.99 14.82-3.12 16.6-3.04 2.86-45.23-2.72z"/><path fill="#2d3d3f" stroke="#2d3d3f" stroke-linejoin="round" d="m708.67 1013.78-1.99-14.82 50.45-35.68 14.73 38.7z"/><path fill="#333c40" stroke="#333c40" stroke-linejoin="round" d="m705.55 1030.38 3.12-16.6 63.19-11.8 6.43 6.93-.22 10.04-44.03 21.75z"/><path fill="#5e5b5a" stroke="#5e5b5a" stroke-linejoin="round" d="m789.58 1043.3-11.51-24.35.22-10.04 49.35-22.78 15.12 31.7-12.32 20.65z"/><path fill="#534e4a" stroke="#534e4a" stroke-linejoin="round" d="m842.76 1017.83-15.12-31.7 2-8.62 1.55-1.44 50.45-3.72 10.05 43.18-12.8 8.41z"/><path fill="#5d554f" stroke="#5d554f" stroke-linejoin="round" d="m891.69 1015.53-10.05-43.18 16.59-23.34 34.43 17.88-9.17 51.02-.61.41z"/><path fill="#5a514c" stroke="#5a514c" stroke-linejoin="round" d="m923.49 1017.91 9.17-51.02 4.47-1.49 41.13 15.59 6.01 11.15-16.21 28.04z"/><path fill="#5d544e" stroke="#5d544e" stroke-linejoin="round" d="m980.15 1045.56-12.09-25.38 16.21-28.04 40.32 1.9 5.79 38.91-4.62 7.79z"/><path fill="#b8a99c" stroke="#b8a99c" stroke-linejoin="round" d="M1080 988.76v44.8l-49.62-.61-5.79-38.91 2-2.2z"/><path fill="#a8a4a3" stroke="#a8a4a3" stroke-linejoin="round" d="M50.07 1080H0v-46.39l53.79 2.93z"/><path fill="#a8a4a3" stroke="#a8a4a3" stroke-linejoin="round" d="M110.01 1080H50.07l3.72-43.46 2.46-2.79 17.55-5.98 27.32 15.49z"/><path fill="#aea8a8" stroke="#aea8a8" stroke-linejoin="round" d="M145.96 1080h-35.95l-8.89-36.74 37.3-31.91 21.69 32.45z"/><path fill="#a89e9c" stroke="#a89e9c" stroke-linejoin="round" d="M217.68 1080h-71.72l14.15-36.2 34.18-4.63z"/><path fill="#aca39e" stroke="#aca39e" stroke-linejoin="round" d="M224.02 1080h-6.34l-23.39-40.83 12.61-24.89 38.88 7.65 7.2 12.21z"/><path fill="#aba29d" stroke="#aba29d" stroke-linejoin="round" d="M279.25 1080h-55.23l28.96-45.86 23.75 7.13z"/><path fill="#ada39f" stroke="#ada39f" stroke-linejoin="round" d="M332.12 1080h-52.87l-2.52-38.73 10.38-5.36 40.13 19.95z"/><path fill="#9a9594" stroke="#9a9594" stroke-linejoin="round" d="M363.68 1080h-31.56l-4.88-24.14 12.13-27.54 34.67-15.01.45.19 11.28 16.67z"/><path fill="#8b8889" stroke="#8b8889" stroke-linejoin="round" d="M416.68 1080h-53l22.09-49.83 31.26 12.46z"/><path fill="#615c60" stroke="#615c60" stroke-linejoin="round" d="M467.38 1080h-50.7l.35-37.37 3.65-1.82 39.81 7.5z"/><path fill="#686464" stroke="#686464" stroke-linejoin="round" d="M512.91 1080h-45.53l-6.89-31.69 21.14-25.28 27.1 9.3z"/><path fill="#99a3ab" stroke="#99a3ab" stroke-linejoin="round" d="M564.96 1080h-52.05l-4.18-47.67 17.38-10.91 42.74 10.64z"/><path fill="#3a4346" stroke="#3a4346" stroke-linejoin="round" d="M622.86 1080h-57.9l3.89-47.94 3.38-2.93 30.36-1.85 7.11 4.87z"/><path fill="#41484e" stroke="#41484e" stroke-linejoin="round" d="M642.36 1080h-19.5l-13.16-47.85 43.16-5.91 4.42 4.28z"/><path fill="#4a565c" stroke="#4a565c" stroke-linejoin="round" d="M696.78 1080h-54.42l14.92-49.48 45.23 2.72z"/><path fill="#364146" stroke="#364146" stroke-linejoin="round" d="M760.72 1080h-63.94l5.73-46.76 3.04-2.86 28.49 10.32z"/><path fill="#796f69" stroke="#796f69" stroke-linejoin="round" d="M779.24 1080h-18.52l-26.68-39.3 44.03-21.75 11.51 24.35z"/><path fill="#ae9c91" stroke="#ae9c91" stroke-linejoin="round" d="M844.22 1080h-64.98l10.34-36.7 40.86-4.82z"/><path fill="#514b46" stroke="#514b46" stroke-linejoin="round" d="M877.44 1080h-33.22l-13.78-41.52 12.32-20.65 36.13 6.11z"/><path fill="#574e48" stroke="#574e48" stroke-linejoin="round" d="M926.4 1080h-48.96l1.45-56.06 12.8-8.41 31.19 2.79z"/><path fill="#5f544e" stroke="#5f544e" stroke-linejoin="round" d="M968.27 1080H926.4l-3.52-61.68.61-.41 44.57 2.27 12.09 25.38z"/><path fill="#574d46" stroke="#574d46" stroke-linejoin="round" d="M1034.83 1080h-66.56l11.88-34.44 45.61-4.82z"/><path fill="#867f75" stroke="#867f75" stroke-linejoin="round" d="M1080 1033.56V1080h-45.17l-9.07-39.26 4.62-7.79z"/></svg>