<svg xmlns="http://www.w3.org/2000/svg" width="1000" height="1000" viewBox="0 0 1000 1000"><path d="M2.22 1.48h23.33v15.56H2.22zm27.78 0h23.33v15.56H30zm27.78 0h23.33v15.56H57.78zm27.78 0h23.33v15.56H85.56zm27.77 0h23.33v15.56h-23.33zm27.78 0h23.33v15.56h-23.33zm27.78 0h23.33v15.56h-23.33zm27.78 0H220v15.56h-23.33zm27.77 0h23.33v15.56h-23.33zm27.78 0h23.33v15.56h-23.33zm27.78 0h23.33v15.56H280zm27.78 0h23.33v15.56h-23.33zm27.78 0h23.33v15.56h-23.33zm27.77 0h23.33v15.56h-23.33zm27.78 0h23.33v15.56h-23.33zm27.78 0h23.33v15.56h-23.33zm27.78 0H470v15.56h-23.33zm27.77 0h23.33v15.56h-23.33zm27.78 0h23.33v15.56h-23.33zm27.78 0h23.33v15.56H530zm27.78 0h23.33v15.56h-23.33zm27.78 0h23.33v15.56h-23.33zm27.77 0h23.33v15.56h-23.33zm27.78 0h23.33v15.56h-23.33zm27.78 0h23.33v15.56h-23.33zm27.78 0H720v15.56h-23.33zm27.77 0h23.33v15.56h-23.33zm27.78 0h23.33v15.56h-23.33zm27.78 0h23.33v15.56H780zm27.78 0h23.33v15.56h-23.33zm27.78 0h23.33v15.56h-23.33zm27.77 0h23.33v15.56h-23.33zm27.78 0h23.33v15.56h-23.33zm27.78 0h23.33v15.56h-23.33zm27.78 0H970v15.56h-23.33zm27.77 0h23.33v15.56h-23.33zM2.22 29.26h23.33v15.56H2.22zm27.78 0h23.33v15.56H30zm27.78 0h23.33v15.56H57.78zm27.78 0h23.33v15.56H85.56zm27.77 0h23.33v15.56h-23.33zm27.78 0h23.33v15.56h-23.33zm27.78 0h23.33v15.56h-23.33zm27.78 0H220v15.56h-23.33zm27.77 0h23.33v15.56h-23.33zm27.78 0h23.33v15.56h-23.33zm27.78 0h23.33v15.56H280zm27.78 0h23.33v15.56h-23.33zm27.78 0h23.33v15.56h-23.33zm27.77 0h23.33v15.56h-23.33zm27.78 0h23.33v15.56h-23.33zm27.78 0h23.33v15.56h-23.33zm27.78 0H470v15.56h-23.33zm27.77 0h23.33v15.56h-23.33zm27.78 0h23.33v15.56h-23.33zm27.78 0h23.33v15.56H530zm27.78 0h23.33v15.56h-23.33zm27.78 0h23.33v15.56h-23.33zm27.77 0h23.33v15.56h-23.33zm27.78 0h23.33v15.56h-23.33zm27.78 0h23.33v15.56h-23.33zm27.78 0H720v15.56h-23.33zm27.77 0h23.33v15.56h-23.33zm27.78 0h23.33v15.56h-23.33zm27.78 0h23.33v15.56H780zm27.78 0h23.33v15.56h-23.33zm27.78 0h23.33v15.56h-23.33zm27.77 0h23.33v15.56h-23.33zm27.78 0h23.33v15.56h-23.33zm27.78 0h23.33v15.56h-23.33zm27.78 0H970v15.56h-23.33zm27.77 0h23.33v15.56h-23.33zM2.22 57.04h23.33V72.6H2.22zm27.78 0h23.33V72.6H30zm27.78 0h23.33V72.6H57.78zm27.78 0h23.33V72.6H85.56zm27.77 0h23.33V72.6h-23.33zm27.78 0h23.33V72.6h-23.33zm27.78 0h23.33V72.6h-23.33zm27.78 0H220V72.6h-23.33zm27.77 0h23.33V72.6h-23.33zm27.78 0h23.33V72.6h-23.33zm27.78 0h23.33V72.6H280zm27.78 0h23.33V72.6h-23.33zm27.78 0h23.33V72.6h-23.33zm27.77 0h23.33V72.6h-23.33zm27.78 0h23.33V72.6h-23.33zm27.78 0h23.33V72.6h-23.33zm27.78 0H470V72.6h-23.33zm27.77 0h23.33V72.6h-23.33zm27.78 0h23.33V72.6h-23.33zm27.78 0h23.33V72.6H530zm27.78 0h23.33V72.6h-23.33zm27.78 0h23.33V72.6h-23.33zm27.77 0h23.33V72.6h-23.33zm27.78 0h23.33V72.6h-23.33zm27.78 0h23.33V72.6h-23.33zm27.78 0H720V72.6h-23.33zm27.77 0h23.33V72.6h-23.33zm27.78 0h23.33V72.6h-23.33zm27.78 0h23.33V72.6H780zm27.78 0h23.33V72.6h-23.33zm27.78 0h23.33V72.6h-23.33zm27.77 0h23.33V72.6h-23.33zm27.78 0h23.33V72.6h-23.33zm27.78 0h23.33V72.6h-23.33zm27.78 0H970V72.6h-23.33zm27.77 0h23.33V72.6h-23.33zM2.22 84.81h23.33v15.56H2.22zm27.78 0h23.33v15.56H30zm27.78 0h23.33v15.56H57.78zm27.78 0h23.33v15.56H85.56zm27.77 0h23.33v15.56h-23.33zm27.78 0h23.33v15.56h-23.33zm27.78 0h23.33v15.56h-23.33zm27.78 0H220v15.56h-23.33zm27.77 0h23.33v15.56h-23.33zm27.78 0h23.33v15.56h-23.33zm27.78 0h23.33v15.56H280zm27.78 0h23.33v15.56h-23.33zm27.78 0h23.33v15.56h-23.33zm27.77 0h23.33v15.56h-23.33zm27.78 0h23.33v15.56h-23.33zm27.78 0h23.33v15.56h-23.33zm27.78 0H470v15.56h-23.33zm27.77 0h23.33v15.56h-23.33zm27.78 0h23.33v15.56h-23.33zm27.78 0h23.33v15.56H530zm27.78 0h23.33v15.56h-23.33zm27.78 0h23.33v15.56h-23.33zm27.77 0h23.33v15.56h-23.33zm27.78 0h23.33v15.56h-23.33zm27.78 0h23.33v15.56h-23.33zm27.78 0H720v15.56h-23.33zm27.77 0h23.33v15.56h-23.33zm27.78 0h23.33v15.56h-23.33zm27.78 0h23.33v15.56H780zm27.78 0h23.33v15.56h-23.33zm27.78 0h23.33v15.56h-23.33zm27.77 0h23.33v15.56h-23.33zm27.78 0h23.33v15.56h-23.33zm27.78 0h23.33v15.56h-23.33zm27.78 0H970v15.56h-23.33zm27.77 0h23.33v15.56h-23.33zM2.22 112.59h23.33v15.56H2.22zm27.78 0h23.33v15.56H30zm27.78 0h23.33v15.56H57.78zm27.78 0h23.33v15.56H85.56zm27.77 0h23.33v15.56h-23.33zm27.78 0h23.33v15.56h-23.33zm27.78 0h23.33v15.56h-23.33zm27.78 0H220v15.56h-23.33zm27.77 0h23.33v15.56h-23.33zm27.78 0h23.33v15.56h-23.33zm27.78 0h23.33v15.56H280zm27.78 0h23.33v15.56h-23.33zm27.78 0h23.33v15.56h-23.33zm27.77 0h23.33v15.56h-23.33zm27.78 0h23.33v15.56h-23.33zm27.78 0h23.33v15.56h-23.33zm27.78 0H470v15.56h-23.33zm27.77 0h23.33v15.56h-23.33zm27.78 0h23.33v15.56h-23.33zm27.78 0h23.33v15.56H530zm27.78 0h23.33v15.56h-23.33zm27.78 0h23.33v15.56h-23.33zm27.77 0h23.33v15.56h-23.33zm27.78 0h23.33v15.56h-23.33zm27.78 0h23.33v15.56h-23.33zm27.78 0H720v15.56h-23.33zm27.77 0h23.33v15.56h-23.33zm27.78 0h23.33v15.56h-23.33zm27.78 0h23.33v15.56H780zm27.78 0h23.33v15.56h-23.33zm27.78 0h23.33v15.56h-23.33zm27.77 0h23.33v15.56h-23.33zm27.78 0h23.33v15.56h-23.33zm27.78 0h23.33v15.56h-23.33zm27.78 0H970v15.56h-23.33zm27.77 0h23.33v15.56h-23.33zM2.22 140.37h23.33v15.56H2.22zm27.78 0h23.33v15.56H30zm27.78 0h23.33v15.56H57.78zm27.78 0h23.33v15.56H85.56zm27.77 0h23.33v15.56h-23.33zm27.78 0h23.33v15.56h-23.33zm27.78 0h23.33v15.56h-23.33zm27.78 0H220v15.56h-23.33zm27.77 0h23.33v15.56h-23.33zm27.78 0h23.33v15.56h-23.33zm27.78 0h23.33v15.56H280zm27.78 0h23.33v15.56h-23.33zm27.78 0h23.33v15.56h-23.33zm27.77 0h23.33v15.56h-23.33zm27.78 0h23.33v15.56h-23.33zm27.78 0h23.33v15.56h-23.33zm27.78 0H470v15.56h-23.33zm27.77 0h23.33v15.56h-23.33zm27.78 0h23.33v15.56h-23.33zm27.78 0h23.33v15.56H530zm27.78 0h23.33v15.56h-23.33zm27.78 0h23.33v15.56h-23.33zm27.77 0h23.33v15.56h-23.33zm27.78 0h23.33v15.56h-23.33zm27.78 0h23.33v15.56h-23.33zm27.78 0H720v15.56h-23.33zm27.77 0h23.33v15.56h-23.33zm27.78 0h23.33v15.56h-23.33zm27.78 0h23.33v15.56H780zm27.78 0h23.33v15.56h-23.33zm27.78 0h23.33v15.56h-23.33zm27.77 0h23.33v15.56h-23.33zm27.78 0h23.33v15.56h-23.33zm27.78 0h23.33v15.56h-23.33zm27.78 0H970v15.56h-23.33zm27.77 0h23.33v15.56h-23.33zM2.22 168.15h23.33v15.56H2.22zm27.78 0h23.33v15.56H30zm27.78 0h23.33v15.56H57.78zm27.78 0h23.33v15.56H85.56zm27.77 0h23.33v15.56h-23.33zm27.78 0h23.33v15.56h-23.33zm27.78 0h23.33v15.56h-23.33zm27.78 0H220v15.56h-23.33zm27.77 0h23.33v15.56h-23.33zm27.78 0h23.33v15.56h-23.33zm27.78 0h23.33v15.56H280zm27.78 0h23.33v15.56h-23.33zm27.78 0h23.33v15.56h-23.33zm27.77 0h23.33v15.56h-23.33zm27.78 0h23.33v15.56h-23.33zm27.78 0h23.33v15.56h-23.33zm27.78 0H470v15.56h-23.33zm27.77 0h23.33v15.56h-23.33zm27.78 0h23.33v15.56h-23.33zm27.78 0h23.33v15.56H530zm27.78 0h23.33v15.56h-23.33zm27.78 0h23.33v15.56h-23.33zm27.77 0h23.33v15.56h-23.33zm27.78 0h23.33v15.56h-23.33zm27.78 0h23.33v15.56h-23.33zm27.78 0H720v15.56h-23.33zm27.77 0h23.33v15.56h-23.33zm27.78 0h23.33v15.56h-23.33zm27.78 0h23.33v15.56H780zm27.78 0h23.33v15.56h-23.33zm27.78 0h23.33v15.56h-23.33zm27.77 0h23.33v15.56h-23.33zm27.78 0h23.33v15.56h-23.33zm27.78 0h23.33v15.56h-23.33zm27.78 0H970v15.56h-23.33zm27.77 0h23.33v15.56h-23.33zM2.22 195.93h23.33v15.56H2.22zm27.78 0h23.33v15.56H30zm27.78 0h23.33v15.56H57.78zm27.78 0h23.33v15.56H85.56zm27.77 0h23.33v15.56h-23.33zm27.78 0h23.33v15.56h-23.33zm27.78 0h23.33v15.56h-23.33zm27.78 0H220v15.56h-23.33zm27.77 0h23.33v15.56h-23.33zm27.78 0h23.33v15.56h-23.33zm27.78 0h23.33v15.56H280zm27.78 0h23.33v15.56h-23.33zm27.78 0h23.33v15.56h-23.33zm27.77 0h23.33v15.56h-23.33zm27.78 0h23.33v15.56h-23.33zm27.78 0h23.33v15.56h-23.33zm27.78 0H470v15.56h-23.33zm27.77 0h23.33v15.56h-23.33zm27.78 0h23.33v15.56h-23.33zm27.78 0h23.33v15.56H530zm27.78 0h23.33v15.56h-23.33zm27.78 0h23.33v15.56h-23.33zm27.77 0h23.33v15.56h-23.33zm27.78 0h23.33v15.56h-23.33zm27.78 0h23.33v15.56h-23.33zm27.78 0H720v15.56h-23.33zm27.77 0h23.33v15.56h-23.33zm27.78 0h23.33v15.56h-23.33zm27.78 0h23.33v15.56H780zm27.78 0h23.33v15.56h-23.33zm27.78 0h23.33v15.56h-23.33zm27.77 0h23.33v15.56h-23.33zm27.78 0h23.33v15.56h-23.33zm27.78 0h23.33v15.56h-23.33zm27.78 0H970v15.56h-23.33zm27.77 0h23.33v15.56h-23.33zM2.22 223.7h23.33v15.56H2.22zm27.78 0h23.33v15.56H30zm27.78 0h23.33v15.56H57.78zm27.78 0h23.33v15.56H85.56zm27.77 0h23.33v15.56h-23.33zm27.78 0h23.33v15.56h-23.33zm27.78 0h23.33v15.56h-23.33zm27.78 0H220v15.56h-23.33zm27.77 0h23.33v15.56h-23.33zm27.78 0h23.33v15.56h-23.33zm83.34 0h23.33v15.56h-23.33zm27.77 0h23.33v15.56h-23.33zm27.78 0h23.33v15.56h-23.33zm27.78 0h23.33v15.56h-23.33zm27.78 0H470v15.56h-23.33zm27.77 0h23.33v15.56h-23.33zm27.78 0h23.33v15.56h-23.33zm27.78 0h23.33v15.56H530zm27.78 0h23.33v15.56h-23.33zm27.78 0h23.33v15.56h-23.33zm27.77 0h23.33v15.56h-23.33zm27.78 0h23.33v15.56h-23.33zm27.78 0h23.33v15.56h-23.33zm27.78 0H720v15.56h-23.33zm27.77 0h23.33v15.56h-23.33zm27.78 0h23.33v15.56h-23.33zm27.78 0h23.33v15.56H780zm27.78 0h23.33v15.56h-23.33zm27.78 0h23.33v15.56h-23.33zm27.77 0h23.33v15.56h-23.33zm27.78 0h23.33v15.56h-23.33zm27.78 0h23.33v15.56h-23.33zm27.78 0H970v15.56h-23.33zm27.77 0h23.33v15.56h-23.33zM2.22 251.48h23.33v15.56H2.22zm27.78 0h23.33v15.56H30zm27.78 0h23.33v15.56H57.78zm27.78 0h23.33v15.56H85.56zm27.77 0h23.33v15.56h-23.33zm27.78 0h23.33v15.56h-23.33zm27.78 0h23.33v15.56h-23.33zm166.67 0h23.33v15.56h-23.33zm27.77 0h23.33v15.56h-23.33zm27.78 0h23.33v15.56h-23.33zm27.78 0h23.33v15.56h-23.33zm27.78 0H470v15.56h-23.33zm27.77 0h23.33v15.56h-23.33zm27.78 0h23.33v15.56h-23.33zm27.78 0h23.33v15.56H530zm27.78 0h23.33v15.56h-23.33zm27.78 0h23.33v15.56h-23.33zm27.77 0h23.33v15.56h-23.33zm27.78 0h23.33v15.56h-23.33zm27.78 0h23.33v15.56h-23.33zm27.78 0H720v15.56h-23.33zm27.77 0h23.33v15.56h-23.33zm27.78 0h23.33v15.56h-23.33zm27.78 0h23.33v15.56H780zm27.78 0h23.33v15.56h-23.33zm27.78 0h23.33v15.56h-23.33zm27.77 0h23.33v15.56h-23.33zm27.78 0h23.33v15.56h-23.33zm27.78 0h23.33v15.56h-23.33zm27.78 0H970v15.56h-23.33zm27.77 0h23.33v15.56h-23.33zM2.22 279.26h23.33v15.56H2.22zm27.78 0h23.33v15.56H30zm27.78 0h23.33v15.56H57.78zm27.78 0h23.33v15.56H85.56zm27.77 0h23.33v15.56h-23.33zm27.78 0h23.33v15.56h-23.33zm388.89 0h23.33v15.56H530zm27.78 0h23.33v15.56h-23.33zm27.78 0h23.33v15.56h-23.33zm27.77 0h23.33v15.56h-23.33zm27.78 0h23.33v15.56h-23.33zm27.78 0h23.33v15.56h-23.33zm27.78 0H720v15.56h-23.33zm27.77 0h23.33v15.56h-23.33zm27.78 0h23.33v15.56h-23.33zm27.78 0h23.33v15.56H780zm27.78 0h23.33v15.56h-23.33zm27.78 0h23.33v15.56h-23.33zm27.77 0h23.33v15.56h-23.33zm27.78 0h23.33v15.56h-23.33zm27.78 0h23.33v15.56h-23.33zm27.78 0H970v15.56h-23.33zm27.77 0h23.33v15.56h-23.33zM2.22 307.04h23.33v15.56H2.22zm27.78 0h23.33v15.56H30zm27.78 0h23.33v15.56H57.78zm27.78 0h23.33v15.56H85.56zm27.77 0h23.33v15.56h-23.33zm500 0h23.33v15.56h-23.33zm27.78 0h23.33v15.56h-23.33zm27.78 0h23.33v15.56h-23.33zm27.78 0H720v15.56h-23.33zm27.77 0h23.33v15.56h-23.33zm27.78 0h23.33v15.56h-23.33zm27.78 0h23.33v15.56H780zm27.78 0h23.33v15.56h-23.33zm27.78 0h23.33v15.56h-23.33zm27.77 0h23.33v15.56h-23.33zm27.78 0h23.33v15.56h-23.33zm27.78 0h23.33v15.56h-23.33zm27.78 0H970v15.56h-23.33zm27.77 0h23.33v15.56h-23.33zM2.22 334.81h23.33v15.56H2.22zm27.78 0h23.33v15.56H30zm27.78 0h23.33v15.56H57.78zm27.78 0h23.33v15.56H85.56zm27.77 0h23.33v15.56h-23.33zm555.56 0h23.33v15.56h-23.33zm27.78 0H720v15.56h-23.33zm27.77 0h23.33v15.56h-23.33zm27.78 0h23.33v15.56h-23.33zm27.78 0h23.33v15.56H780zm27.78 0h23.33v15.56h-23.33zm27.78 0h23.33v15.56h-23.33zm27.77 0h23.33v15.56h-23.33zm27.78 0h23.33v15.56h-23.33zm27.78 0h23.33v15.56h-23.33zm27.78 0H970v15.56h-23.33zm27.77 0h23.33v15.56h-23.33zM2.22 362.59h23.33v15.56H2.22zm27.78 0h23.33v15.56H30zm27.78 0h23.33v15.56H57.78zm27.78 0h23.33v15.56H85.56zm27.77 0h23.33v15.56h-23.33zm583.34 0H720v15.56h-23.33zm27.77 0h23.33v15.56h-23.33zm27.78 0h23.33v15.56h-23.33zm27.78 0h23.33v15.56H780zm27.78 0h23.33v15.56h-23.33zm27.78 0h23.33v15.56h-23.33zm27.77 0h23.33v15.56h-23.33zm27.78 0h23.33v15.56h-23.33zm27.78 0h23.33v15.56h-23.33zm27.78 0H970v15.56h-23.33zm27.77 0h23.33v15.56h-23.33zM2.22 390.37h23.33v15.56H2.22zm27.78 0h23.33v15.56H30zm27.78 0h23.33v15.56H57.78zm27.78 0h23.33v15.56H85.56zm27.77 0h23.33v15.56h-23.33zm611.11 0h23.33v15.56h-23.33zm27.78 0h23.33v15.56h-23.33zm27.78 0h23.33v15.56H780zm27.78 0h23.33v15.56h-23.33zm27.78 0h23.33v15.56h-23.33zm27.77 0h23.33v15.56h-23.33zm27.78 0h23.33v15.56h-23.33zm27.78 0h23.33v15.56h-23.33zm27.78 0H970v15.56h-23.33zm27.77 0h23.33v15.56h-23.33zM2.22 418.15h23.33v15.56H2.22zm27.78 0h23.33v15.56H30zm27.78 0h23.33v15.56H57.78zm27.78 0h23.33v15.56H85.56zm27.77 0h23.33v15.56h-23.33zm27.78 0h23.33v15.56h-23.33zm611.11 0h23.33v15.56h-23.33zm27.78 0h23.33v15.56H780zm27.78 0h23.33v15.56h-23.33zm27.78 0h23.33v15.56h-23.33zm27.77 0h23.33v15.56h-23.33zm27.78 0h23.33v15.56h-23.33zm27.78 0h23.33v15.56h-23.33zm27.78 0H970v15.56h-23.33zm27.77 0h23.33v15.56h-23.33zM2.22 445.93h23.33v15.56H2.22zm27.78 0h23.33v15.56H30zm27.78 0h23.33v15.56H57.78zm27.78 0h23.33v15.56H85.56zm27.77 0h23.33v15.56h-23.33zm27.78 0h23.33v15.56h-23.33zm638.89 0h23.33v15.56H780zm27.78 0h23.33v15.56h-23.33zm27.78 0h23.33v15.56h-23.33zm27.77 0h23.33v15.56h-23.33zm27.78 0h23.33v15.56h-23.33zm27.78 0h23.33v15.56h-23.33zm27.78 0H970v15.56h-23.33zm27.77 0h23.33v15.56h-23.33zM2.22 473.7h23.33v15.56H2.22zm27.78 0h23.33v15.56H30zm27.78 0h23.33v15.56H57.78zm27.78 0h23.33v15.56H85.56zm27.77 0h23.33v15.56h-23.33zm27.78 0h23.33v15.56h-23.33zm27.78 0h23.33v15.56h-23.33zm27.78 0H220v15.56h-23.33zm27.77 0h23.33v15.56h-23.33zm27.78 0h23.33v15.56h-23.33zm27.78 0h23.33v15.56H280zm500 0h23.33v15.56H780zm27.78 0h23.33v15.56h-23.33zm27.78 0h23.33v15.56h-23.33zm27.77 0h23.33v15.56h-23.33zm27.78 0h23.33v15.56h-23.33zm27.78 0h23.33v15.56h-23.33zm27.78 0H970v15.56h-23.33zm27.77 0h23.33v15.56h-23.33zM2.22 501.48h23.33v15.56H2.22zm27.78 0h23.33v15.56H30zm27.78 0h23.33v15.56H57.78zm27.78 0h23.33v15.56H85.56zm27.77 0h23.33v15.56h-23.33zm27.78 0h23.33v15.56h-23.33zm27.78 0h23.33v15.56h-23.33zm27.78 0H220v15.56h-23.33zm27.77 0h23.33v15.56h-23.33zm27.78 0h23.33v15.56h-23.33zm166.67 0h23.33v15.56h-23.33zm388.89 0h23.33v15.56h-23.33zm27.78 0h23.33v15.56h-23.33zm27.77 0h23.33v15.56h-23.33zm27.78 0h23.33v15.56h-23.33zm27.78 0h23.33v15.56h-23.33zm55.55 0h23.33v15.56h-23.33zM2.22 529.26h23.33v15.56H2.22zm583.34 0h23.33v15.56h-23.33zm27.77 0h23.33v15.56h-23.33zm27.78 0h23.33v15.56h-23.33zm27.78 0h23.33v15.56h-23.33zm138.89 0h23.33v15.56h-23.33zm27.78 0h23.33v15.56h-23.33zm138.88 0h23.33v15.56h-23.33zM2.22 557.04h23.33v15.56H2.22zm555.56 0h23.33v15.56h-23.33zm138.89 0H720v15.56h-23.33zm27.77 0h23.33v15.56h-23.33zm111.12 0h23.33v15.56h-23.33zM2.22 584.81h23.33v15.56H2.22zm27.78 0h23.33v15.56H30zm27.78 0h23.33v15.56H57.78zm27.78 0h23.33v15.56H85.56zm27.77 0h23.33v15.56h-23.33zm27.78 0h23.33v15.56h-23.33zm27.78 0h23.33v15.56h-23.33zm27.78 0H220v15.56h-23.33zm27.77 0h23.33v15.56h-23.33zm27.78 0h23.33v15.56h-23.33zm27.78 0h23.33v15.56H280zm27.78 0h23.33v15.56h-23.33zm416.66 0h23.33v15.56h-23.33zm111.12 0h23.33v15.56h-23.33zm138.88 0h23.33v15.56h-23.33zM2.22 612.59h23.33v15.56H2.22zm27.78 0h23.33v15.56H30zm27.78 0h23.33v15.56H57.78zm27.78 0h23.33v15.56H85.56zm27.77 0h23.33v15.56h-23.33zm27.78 0h23.33v15.56h-23.33zm27.78 0h23.33v15.56h-23.33zm27.78 0H220v15.56h-23.33zm27.77 0h23.33v15.56h-23.33zm27.78 0h23.33v15.56h-23.33zm27.78 0h23.33v15.56H280zm27.78 0h23.33v15.56h-23.33zm27.78 0h23.33v15.56h-23.33zm27.77 0h23.33v15.56h-23.33zm27.78 0h23.33v15.56h-23.33zm27.78 0h23.33v15.56h-23.33zm27.78 0H470v15.56h-23.33zm27.77 0h23.33v15.56h-23.33zm250 0h23.33v15.56h-23.33zm111.12 0h23.33v15.56h-23.33zm27.77 0h23.33v15.56h-23.33zm111.11 0h23.33v15.56h-23.33zM2.22 640.37h23.33v15.56H2.22zm27.78 0h23.33v15.56H30zm27.78 0h23.33v15.56H57.78zm27.78 0h23.33v15.56H85.56zm27.77 0h23.33v15.56h-23.33zm27.78 0h23.33v15.56h-23.33zm27.78 0h23.33v15.56h-23.33zm27.78 0H220v15.56h-23.33zm138.89 0h23.33v15.56h-23.33zm27.77 0h23.33v15.56h-23.33zm27.78 0h23.33v15.56h-23.33zm27.78 0h23.33v15.56h-23.33zm27.78 0H470v15.56h-23.33zm27.77 0h23.33v15.56h-23.33zm27.78 0h23.33v15.56h-23.33zm27.78 0h23.33v15.56H530zm305.56 0h23.33v15.56h-23.33zm27.77 0h23.33v15.56h-23.33zm27.78 0h23.33v15.56h-23.33zm83.33 0h23.33v15.56h-23.33zM2.22 668.15h23.33v15.56H2.22zm27.78 0h23.33v15.56H30zm27.78 0h23.33v15.56H57.78zm27.78 0h23.33v15.56H85.56zm27.77 0h23.33v15.56h-23.33zm27.78 0h23.33v15.56h-23.33zm222.22 0h23.33v15.56h-23.33zm27.78 0h23.33v15.56h-23.33zm27.78 0h23.33v15.56h-23.33zm27.78 0H470v15.56h-23.33zm27.77 0h23.33v15.56h-23.33zm27.78 0h23.33v15.56h-23.33zm27.78 0h23.33v15.56H530zm83.33 0h23.33v15.56h-23.33zm27.78 0h23.33v15.56h-23.33zM2.22 695.93h23.33v15.56H2.22zm27.78 0h23.33v15.56H30zm27.78 0h23.33v15.56H57.78zm27.78 0h23.33v15.56H85.56zm27.77 0h23.33v15.56h-23.33zm27.78 0h23.33v15.56h-23.33zm222.22 0h23.33v15.56h-23.33zm27.78 0h23.33v15.56h-23.33zm27.78 0h23.33v15.56h-23.33zm27.78 0H470v15.56h-23.33zm27.77 0h23.33v15.56h-23.33zm27.78 0h23.33v15.56h-23.33zm27.78 0h23.33v15.56H530zM2.22 723.7h23.33v15.56H2.22zm27.78 0h23.33v15.56H30zm27.78 0h23.33v15.56H57.78zm27.78 0h23.33v15.56H85.56zm27.77 0h23.33v15.56h-23.33zm27.78 0h23.33v15.56h-23.33zm27.78 0h23.33v15.56h-23.33zm55.55 0h23.33v15.56h-23.33zm27.78 0h23.33v15.56h-23.33zm111.11 0h23.33v15.56h-23.33zm27.78 0h23.33v15.56h-23.33zm27.78 0h23.33v15.56h-23.33zm27.78 0H470v15.56h-23.33zm27.77 0h23.33v15.56h-23.33zm27.78 0h23.33v15.56h-23.33zm27.78 0h23.33v15.56H530zm27.78 0h23.33v15.56h-23.33zm222.22 0h23.33v15.56H780zm27.78 0h23.33v15.56h-23.33zm27.78 0h23.33v15.56h-23.33zm27.77 0h23.33v15.56h-23.33zm27.78 0h23.33v15.56h-23.33zm27.78 0h23.33v15.56h-23.33zm27.78 0H970v15.56h-23.33zm27.77 0h23.33v15.56h-23.33zM2.22 751.48h23.33v15.56H2.22zm27.78 0h23.33v15.56H30zm27.78 0h23.33v15.56H57.78zm27.78 0h23.33v15.56H85.56zm27.77 0h23.33v15.56h-23.33zm27.78 0h23.33v15.56h-23.33zm27.78 0h23.33v15.56h-23.33zm27.78 0H220v15.56h-23.33zm27.77 0h23.33v15.56h-23.33zm27.78 0h23.33v15.56h-23.33zm83.34 0h23.33v15.56h-23.33zm27.77 0h23.33v15.56h-23.33zm27.78 0h23.33v15.56h-23.33zm27.78 0h23.33v15.56h-23.33zm27.78 0H470v15.56h-23.33zm27.77 0h23.33v15.56h-23.33zm27.78 0h23.33v15.56h-23.33zm27.78 0h23.33v15.56H530zm27.78 0h23.33v15.56h-23.33zm27.78 0h23.33v15.56h-23.33zm27.77 0h23.33v15.56h-23.33zm111.11 0h23.33v15.56h-23.33zm27.78 0h23.33v15.56h-23.33zm27.78 0h23.33v15.56H780zm27.78 0h23.33v15.56h-23.33zm27.78 0h23.33v15.56h-23.33zm27.77 0h23.33v15.56h-23.33zm27.78 0h23.33v15.56h-23.33zm27.78 0h23.33v15.56h-23.33zm27.78 0H970v15.56h-23.33zm27.77 0h23.33v15.56h-23.33zM2.22 779.26h23.33v15.56H2.22zm27.78 0h23.33v15.56H30zm27.78 0h23.33v15.56H57.78zm27.78 0h23.33v15.56H85.56zm27.77 0h23.33v15.56h-23.33zm27.78 0h23.33v15.56h-23.33zm27.78 0h23.33v15.56h-23.33zm27.78 0H220v15.56h-23.33zm27.77 0h23.33v15.56h-23.33zm27.78 0h23.33v15.56h-23.33zm27.78 0h23.33v15.56H280zm27.78 0h23.33v15.56h-23.33zm27.78 0h23.33v15.56h-23.33zm27.77 0h23.33v15.56h-23.33zm27.78 0h23.33v15.56h-23.33zm27.78 0h23.33v15.56h-23.33zm27.78 0H470v15.56h-23.33zm27.77 0h23.33v15.56h-23.33zm27.78 0h23.33v15.56h-23.33zm27.78 0h23.33v15.56H530zm27.78 0h23.33v15.56h-23.33zm27.78 0h23.33v15.56h-23.33zm27.77 0h23.33v15.56h-23.33zm27.78 0h23.33v15.56h-23.33zm27.78 0h23.33v15.56h-23.33zm27.78 0H720v15.56h-23.33zm27.77 0h23.33v15.56h-23.33zm27.78 0h23.33v15.56h-23.33zm27.78 0h23.33v15.56H780zm27.78 0h23.33v15.56h-23.33zm27.78 0h23.33v15.56h-23.33zm27.77 0h23.33v15.56h-23.33zm27.78 0h23.33v15.56h-23.33zm27.78 0h23.33v15.56h-23.33zm27.78 0H970v15.56h-23.33zm27.77 0h23.33v15.56h-23.33zM2.22 807.04h23.33v15.56H2.22zm27.78 0h23.33v15.56H30zm27.78 0h23.33v15.56H57.78zm27.78 0h23.33v15.56H85.56zm27.77 0h23.33v15.56h-23.33zm27.78 0h23.33v15.56h-23.33zm27.78 0h23.33v15.56h-23.33zm27.78 0H220v15.56h-23.33zm27.77 0h23.33v15.56h-23.33zm27.78 0h23.33v15.56h-23.33zm27.78 0h23.33v15.56H280zm27.78 0h23.33v15.56h-23.33zm27.78 0h23.33v15.56h-23.33zm27.77 0h23.33v15.56h-23.33zm27.78 0h23.33v15.56h-23.33zm27.78 0h23.33v15.56h-23.33zm27.78 0H470v15.56h-23.33zm27.77 0h23.33v15.56h-23.33zm27.78 0h23.33v15.56h-23.33zm27.78 0h23.33v15.56H530zm27.78 0h23.33v15.56h-23.33zm27.78 0h23.33v15.56h-23.33zm27.77 0h23.33v15.56h-23.33zm27.78 0h23.33v15.56h-23.33zm27.78 0h23.33v15.56h-23.33zm27.78 0H720v15.56h-23.33zm27.77 0h23.33v15.56h-23.33zm27.78 0h23.33v15.56h-23.33zm27.78 0h23.33v15.56H780zm27.78 0h23.33v15.56h-23.33zm27.78 0h23.33v15.56h-23.33zm27.77 0h23.33v15.56h-23.33zm27.78 0h23.33v15.56h-23.33zm27.78 0h23.33v15.56h-23.33zm27.78 0H970v15.56h-23.33zm27.77 0h23.33v15.56h-23.33zM2.22 834.81h23.33v15.56H2.22zm27.78 0h23.33v15.56H30zm27.78 0h23.33v15.56H57.78zm27.78 0h23.33v15.56H85.56zm27.77 0h23.33v15.56h-23.33zm27.78 0h23.33v15.56h-23.33zm27.78 0h23.33v15.56h-23.33zm27.78 0H220v15.56h-23.33zm27.77 0h23.33v15.56h-23.33zm27.78 0h23.33v15.56h-23.33zm27.78 0h23.33v15.56H280zm27.78 0h23.33v15.56h-23.33zm27.78 0h23.33v15.56h-23.33zm27.77 0h23.33v15.56h-23.33zm27.78 0h23.33v15.56h-23.33zm27.78 0h23.33v15.56h-23.33zm27.78 0H470v15.56h-23.33zm27.77 0h23.33v15.56h-23.33zm27.78 0h23.33v15.56h-23.33zm27.78 0h23.33v15.56H530zm27.78 0h23.33v15.56h-23.33zm27.78 0h23.33v15.56h-23.33zm27.77 0h23.33v15.56h-23.33zm27.78 0h23.33v15.56h-23.33zm27.78 0h23.33v15.56h-23.33zm27.78 0H720v15.56h-23.33zm27.77 0h23.33v15.56h-23.33zm27.78 0h23.33v15.56h-23.33zm27.78 0h23.33v15.56H780zm27.78 0h23.33v15.56h-23.33zm27.78 0h23.33v15.56h-23.33zm27.77 0h23.33v15.56h-23.33zm27.78 0h23.33v15.56h-23.33zm27.78 0h23.33v15.56h-23.33zm27.78 0H970v15.56h-23.33zm27.77 0h23.33v15.56h-23.33zM2.22 862.59h23.33v15.56H2.22zm27.78 0h23.33v15.56H30zm27.78 0h23.33v15.56H57.78zm27.78 0h23.33v15.56H85.56zm27.77 0h23.33v15.56h-23.33zm27.78 0h23.33v15.56h-23.33zm27.78 0h23.33v15.56h-23.33zm27.78 0H220v15.56h-23.33zm27.77 0h23.33v15.56h-23.33zm27.78 0h23.33v15.56h-23.33zm27.78 0h23.33v15.56H280zm27.78 0h23.33v15.56h-23.33zm27.78 0h23.33v15.56h-23.33zm27.77 0h23.33v15.56h-23.33zm27.78 0h23.33v15.56h-23.33zm27.78 0h23.33v15.56h-23.33zm27.78 0H470v15.56h-23.33zm27.77 0h23.33v15.56h-23.33zm27.78 0h23.33v15.56h-23.33zm27.78 0h23.33v15.56H530zm27.78 0h23.33v15.56h-23.33zm27.78 0h23.33v15.56h-23.33zm27.77 0h23.33v15.56h-23.33zm27.78 0h23.33v15.56h-23.33zm27.78 0h23.33v15.56h-23.33zm27.78 0H720v15.56h-23.33zm27.77 0h23.33v15.56h-23.33zm27.78 0h23.33v15.56h-23.33zm27.78 0h23.33v15.56H780zm27.78 0h23.33v15.56h-23.33zm27.78 0h23.33v15.56h-23.33zm27.77 0h23.33v15.56h-23.33zm27.78 0h23.33v15.56h-23.33zm27.78 0h23.33v15.56h-23.33zm27.78 0H970v15.56h-23.33zm27.77 0h23.33v15.56h-23.33zM2.22 890.37h23.33v15.56H2.22zm27.78 0h23.33v15.56H30zm27.78 0h23.33v15.56H57.78zm27.78 0h23.33v15.56H85.56zm27.77 0h23.33v15.56h-23.33zm27.78 0h23.33v15.56h-23.33zm27.78 0h23.33v15.56h-23.33zm27.78 0H220v15.56h-23.33zm27.77 0h23.33v15.56h-23.33zm27.78 0h23.33v15.56h-23.33zm27.78 0h23.33v15.56H280zm27.78 0h23.33v15.56h-23.33zm27.78 0h23.33v15.56h-23.33zm27.77 0h23.33v15.56h-23.33zm27.78 0h23.33v15.56h-23.33zm27.78 0h23.33v15.56h-23.33zm27.78 0H470v15.56h-23.33zm27.77 0h23.33v15.56h-23.33zm27.78 0h23.33v15.56h-23.33zm27.78 0h23.33v15.56H530zm27.78 0h23.33v15.56h-23.33zm27.78 0h23.33v15.56h-23.33zm27.77 0h23.33v15.56h-23.33zm27.78 0h23.33v15.56h-23.33zm27.78 0h23.33v15.56h-23.33zm27.78 0H720v15.56h-23.33zm27.77 0h23.33v15.56h-23.33zm27.78 0h23.33v15.56h-23.33zm27.78 0h23.33v15.56H780zm27.78 0h23.33v15.56h-23.33zm27.78 0h23.33v15.56h-23.33zm27.77 0h23.33v15.56h-23.33zm27.78 0h23.33v15.56h-23.33zm27.78 0h23.33v15.56h-23.33zm27.78 0H970v15.56h-23.33zm27.77 0h23.33v15.56h-23.33zM2.22 918.15h23.33v15.56H2.22zm27.78 0h23.33v15.56H30zm27.78 0h23.33v15.56H57.78zm27.78 0h23.33v15.56H85.56zm27.77 0h23.33v15.56h-23.33zm27.78 0h23.33v15.56h-23.33zm27.78 0h23.33v15.56h-23.33zm27.78 0H220v15.56h-23.33zm27.77 0h23.33v15.56h-23.33zm27.78 0h23.33v15.56h-23.33zm27.78 0h23.33v15.56H280zm27.78 0h23.33v15.56h-23.33zm27.78 0h23.33v15.56h-23.33zm27.77 0h23.33v15.56h-23.33zm27.78 0h23.33v15.56h-23.33zm27.78 0h23.33v15.56h-23.33zm27.78 0H470v15.56h-23.33zm27.77 0h23.33v15.56h-23.33zm27.78 0h23.33v15.56h-23.33zm27.78 0h23.33v15.56H530zm27.78 0h23.33v15.56h-23.33zm27.78 0h23.33v15.56h-23.33zm27.77 0h23.33v15.56h-23.33zm27.78 0h23.33v15.56h-23.33zm27.78 0h23.33v15.56h-23.33zm27.78 0H720v15.56h-23.33zm27.77 0h23.33v15.56h-23.33zm27.78 0h23.33v15.56h-23.33zm27.78 0h23.33v15.56H780zm27.78 0h23.33v15.56h-23.33zm27.78 0h23.33v15.56h-23.33zm27.77 0h23.33v15.56h-23.33zm27.78 0h23.33v15.56h-23.33zm27.78 0h23.33v15.56h-23.33zm27.78 0H970v15.56h-23.33zm27.77 0h23.33v15.56h-23.33zM2.22 945.93h23.33v15.56H2.22zm27.78 0h23.33v15.56H30zm27.78 0h23.33v15.56H57.78zm27.78 0h23.33v15.56H85.56zm27.77 0h23.33v15.56h-23.33zm27.78 0h23.33v15.56h-23.33zm27.78 0h23.33v15.56h-23.33zm27.78 0H220v15.56h-23.33zm27.77 0h23.33v15.56h-23.33zm27.78 0h23.33v15.56h-23.33zm27.78 0h23.33v15.56H280zm27.78 0h23.33v15.56h-23.33zm27.78 0h23.33v15.56h-23.33zm27.77 0h23.33v15.56h-23.33zm27.78 0h23.33v15.56h-23.33zm27.78 0h23.33v15.56h-23.33zm27.78 0H470v15.56h-23.33zm27.77 0h23.33v15.56h-23.33zm27.78 0h23.33v15.56h-23.33zm27.78 0h23.33v15.56H530zm27.78 0h23.33v15.56h-23.33zm27.78 0h23.33v15.56h-23.33zm27.77 0h23.33v15.56h-23.33zm27.78 0h23.33v15.56h-23.33zm27.78 0h23.33v15.56h-23.33zm27.78 0H720v15.56h-23.33zm27.77 0h23.33v15.56h-23.33zm27.78 0h23.33v15.56h-23.33zm27.78 0h23.33v15.56H780zm27.78 0h23.33v15.56h-23.33zm27.78 0h23.33v15.56h-23.33zm27.77 0h23.33v15.56h-23.33zm27.78 0h23.33v15.56h-23.33zm27.78 0h23.33v15.56h-23.33zm27.78 0H970v15.56h-23.33zm27.77 0h23.33v15.56h-23.33zM2.22 973.7h23.33v15.56H2.22zm27.78 0h23.33v15.56H30zm27.78 0h23.33v15.56H57.78zm27.78 0h23.33v15.56H85.56zm27.77 0h23.33v15.56h-23.33zm27.78 0h23.33v15.56h-23.33zm27.78 0h23.33v15.56h-23.33zm27.78 0H220v15.56h-23.33zm27.77 0h23.33v15.56h-23.33zm27.78 0h23.33v15.56h-23.33zm27.78 0h23.33v15.56H280zm27.78 0h23.33v15.56h-23.33zm27.78 0h23.33v15.56h-23.33zm27.77 0h23.33v15.56h-23.33zm27.78 0h23.33v15.56h-23.33zm27.78 0h23.33v15.56h-23.33zm27.78 0H470v15.56h-23.33zm27.77 0h23.33v15.56h-23.33zm27.78 0h23.33v15.56h-23.33zm27.78 0h23.33v15.56H530zm27.78 0h23.33v15.56h-23.33zm27.78 0h23.33v15.56h-23.33zm27.77 0h23.33v15.56h-23.33zm27.78 0h23.33v15.56h-23.33zm27.78 0h23.33v15.56h-23.33zm27.78 0H720v15.56h-23.33zm27.77 0h23.33v15.56h-23.33zm27.78 0h23.33v15.56h-23.33zm27.78 0h23.33v15.56H780zm27.78 0h23.33v15.56h-23.33zm27.78 0h23.33v15.56h-23.33zm27.77 0h23.33v15.56h-23.33zm27.78 0h23.33v15.56h-23.33zm27.78 0h23.33v15.56h-23.33zm27.78 0H970v15.56h-23.33zm27.77 0h23.33v15.56h-23.33z"/><path fill="#0c322c" d="M280 223.7h23.33v15.56H280zm-83.33 27.78H220v15.56h-23.33zm-27.78 27.78h23.33v15.56h-23.33zm166.67 0h23.33v15.56h-23.33zm138.88 0h23.33v15.56h-23.33zm27.78 0h23.33v15.56h-23.33zm-361.11 27.78h23.33v15.56h-23.33zm444.45 0h23.33v15.56h-23.33zm55.55 27.77h23.33v15.56h-23.33zm-388.89 55.56h23.33v15.56h-23.33zm-83.33 27.78h23.33v15.56h-23.33zm27.78 0H220v15.56h-23.33zm27.77 0h23.33v15.56h-23.33zm-55.55 27.78h23.33v15.56h-23.33zm27.78 0H220v15.56h-23.33zm27.77 0h23.33v15.56h-23.33zm27.78 0h23.33v15.56h-23.33zm27.78 0h23.33v15.56H280zm27.78 0h23.33v15.56h-23.33zm444.44 0h23.33v15.56h-23.33zM307.78 473.7h23.33v15.56h-23.33zm27.78 0h23.33v15.56h-23.33zM280 501.48h23.33v15.56H280zm27.78 0h23.33v15.56h-23.33zm27.78 0h23.33v15.56h-23.33zm55.55 0h23.33v15.56h-23.33zm55.56 0H470v15.56h-23.33zm166.66 0h23.33v15.56h-23.33zm27.78 0h23.33v15.56h-23.33zm27.78 0h23.33v15.56h-23.33zm111.11 0h23.33v15.56H780zm166.67 0H970v15.56h-23.33zM30 529.26h23.33v15.56H30zm27.78 0h23.33v15.56H57.78zm27.78 0h23.33v15.56H85.56zm27.77 0h23.33v15.56h-23.33zm27.78 0h23.33v15.56h-23.33zm27.78 0h23.33v15.56h-23.33zm27.78 0H220v15.56h-23.33zm27.77 0h23.33v15.56h-23.33zm27.78 0h23.33v15.56h-23.33zm138.89 0h23.33v15.56h-23.33zm27.78 0h23.33v15.56h-23.33zm27.78 0H470v15.56h-23.33zm111.11 0h23.33v15.56h-23.33zm138.89 0H720v15.56h-23.33zm27.77 0h23.33v15.56h-23.33zm138.89 0h23.33v15.56h-23.33zm27.78 0h23.33v15.56h-23.33zm27.78 0h23.33v15.56h-23.33zm27.78 0H970v15.56h-23.33zm-833.34 27.78h23.33v15.56h-23.33zm27.78 0h23.33v15.56h-23.33zm27.78 0h23.33v15.56h-23.33zm27.78 0H220v15.56h-23.33zm27.77 0h23.33v15.56h-23.33zm27.78 0h23.33v15.56h-23.33zm27.78 0h23.33v15.56H280zm250 0h23.33v15.56H530zm55.56 0h23.33v15.56h-23.33zm27.77 0h23.33v15.56h-23.33zm55.56 0h23.33v15.56h-23.33zm83.33 0h23.33v15.56h-23.33zm55.56 0h23.33v15.56h-23.33zm55.55 0h23.33v15.56h-23.33zm27.78 0h23.33v15.56h-23.33zm27.78 0h23.33v15.56h-23.33zm27.78 0H970v15.56h-23.33zm27.77 0h23.33v15.56h-23.33zm-638.88 27.77h23.33v15.56h-23.33zm27.77 0h23.33v15.56h-23.33zm27.78 0h23.33v15.56h-23.33zm27.78 0h23.33v15.56h-23.33zm138.89 0h23.33v15.56h-23.33zm55.55 0h23.33v15.56h-23.33zm27.78 0h23.33v15.56h-23.33zm55.56 0H720v15.56h-23.33zm55.55 0h23.33v15.56h-23.33zm55.56 0h23.33v15.56h-23.33zm55.55 0h23.33v15.56h-23.33zm55.56 0h23.33v15.56h-23.33zm27.78 0H970v15.56h-23.33zm-444.45 27.78h23.33v15.56h-23.33zm27.78 0h23.33v15.56H530zm138.89 0h23.33v15.56h-23.33zm83.33 0h23.33v15.56h-23.33zm55.56 0h23.33v15.56h-23.33zm83.33 0h23.33v15.56h-23.33zm27.78 0h23.33v15.56h-23.33zm27.78 0H970v15.56h-23.33zm-722.23 27.78h23.33v15.56h-23.33zm83.34 0h23.33v15.56h-23.33zm277.78 0h23.33v15.56h-23.33zm27.77 0h23.33v15.56h-23.33zm138.89 0h23.33v15.56h-23.33zm55.56 0h23.33v15.56h-23.33zm111.11 0h23.33v15.56h-23.33zm27.78 0H970v15.56h-23.33zm-777.78 27.78h23.33v15.56h-23.33zm27.78 0H220v15.56h-23.33zm27.77 0h23.33v15.56h-23.33zm27.78 0h23.33v15.56h-23.33zm27.78 0h23.33v15.56H280zm27.78 0h23.33v15.56h-23.33zm27.78 0h23.33v15.56h-23.33zm333.33 0h23.33v15.56h-23.33zm27.78 0H720v15.56h-23.33zm27.77 0h23.33v15.56h-23.33zm-555.55 27.78h23.33v15.56h-23.33zm27.78 0H220v15.56h-23.33zm27.77 0h23.33v15.56h-23.33zm27.78 0h23.33v15.56h-23.33zm27.78 0h23.33v15.56H280zm55.56 0h23.33v15.56h-23.33zm222.22 0h23.33v15.56h-23.33zm83.33 0h23.33v15.56h-23.33zm27.78 0h23.33v15.56h-23.33zm27.78 0H720v15.56h-23.33zm83.33 0h23.33v15.56H780zm27.78 0h23.33v15.56h-23.33zm27.78 0h23.33v15.56h-23.33zm27.77 0h23.33v15.56h-23.33zm27.78 0h23.33v15.56h-23.33zm27.78 0h23.33v15.56h-23.33zM196.67 723.7H220v15.56h-23.33zm83.33 0h23.33v15.56H280zm55.56 0h23.33v15.56h-23.33zm250 0h23.33v15.56h-23.33zm166.66 0h23.33v15.56h-23.33zM280 751.48h23.33v15.56H280zm27.78 0h23.33v15.56h-23.33zm333.33 0h23.33v15.56h-23.33zm27.78 0h23.33v15.56h-23.33zm27.78 0H720v15.56h-23.33z"/><path fill="#30ba78" d="M307.78 223.7h23.33v15.56h-23.33zm-83.34 27.78h23.33v15.56h-23.33zm27.78 0h23.33v15.56h-23.33zm27.78 0h23.33v15.56H280zm27.78 0h23.33v15.56h-23.33zm-83.34 27.78h23.33v15.56h-23.33zm27.78 0h23.33v15.56h-23.33zm27.78 0h23.33v15.56H280zm27.78 0h23.33v15.56h-23.33zm55.55 0h23.33v15.56h-23.33zm27.78 0h23.33v15.56h-23.33zm27.78 0h23.33v15.56h-23.33zm27.78 0H470v15.56h-23.33zm-194.45 27.78h23.33v15.56h-23.33zm27.78 0h23.33v15.56H280zm27.78 0h23.33v15.56h-23.33zm27.78 0h23.33v15.56h-23.33zm27.77 0h23.33v15.56h-23.33zm27.78 0h23.33v15.56h-23.33zm27.78 0h23.33v15.56h-23.33zm27.78 0H470v15.56h-23.33zm27.77 0h23.33v15.56h-23.33zm27.78 0h23.33v15.56h-23.33zm27.78 0h23.33v15.56H530zm27.78 0h23.33v15.56h-23.33zm-416.67 27.77h23.33v15.56h-23.33zm138.89 0h23.33v15.56H280zm27.78 0h23.33v15.56h-23.33zm27.78 0h23.33v15.56h-23.33zm27.77 0h23.33v15.56h-23.33zm27.78 0h23.33v15.56h-23.33zm27.78 0h23.33v15.56h-23.33zm27.78 0H470v15.56h-23.33zm27.77 0h23.33v15.56h-23.33zm27.78 0h23.33v15.56h-23.33zm27.78 0h23.33v15.56H530zm27.78 0h23.33v15.56h-23.33zm27.78 0h23.33v15.56h-23.33zm27.77 0h23.33v15.56h-23.33zm-472.22 27.78h23.33v15.56h-23.33zm111.11 0h23.33v15.56h-23.33zm27.78 0h23.33v15.56H280zm27.78 0h23.33v15.56h-23.33zm27.78 0h23.33v15.56h-23.33zm27.77 0h23.33v15.56h-23.33zm27.78 0h23.33v15.56h-23.33zm27.78 0h23.33v15.56h-23.33zm27.78 0H470v15.56h-23.33zm27.77 0h23.33v15.56h-23.33zm27.78 0h23.33v15.56h-23.33zm27.78 0h23.33v15.56H530zm27.78 0h23.33v15.56h-23.33zm27.78 0h23.33v15.56h-23.33zm27.77 0h23.33v15.56h-23.33zm27.78 0h23.33v15.56h-23.33zm27.78 0h23.33v15.56h-23.33zm-527.78 27.78h23.33v15.56h-23.33zm27.78 0h23.33v15.56h-23.33zm55.55 0h23.33v15.56h-23.33zm55.56 0h23.33v15.56H280zm27.78 0h23.33v15.56h-23.33zm27.78 0h23.33v15.56h-23.33zm27.77 0h23.33v15.56h-23.33zm27.78 0h23.33v15.56h-23.33zm27.78 0h23.33v15.56h-23.33zm27.78 0H470v15.56h-23.33zm27.77 0h23.33v15.56h-23.33zm27.78 0h23.33v15.56h-23.33zm27.78 0h23.33v15.56H530zm27.78 0h23.33v15.56h-23.33zm27.78 0h23.33v15.56h-23.33zm27.77 0h23.33v15.56h-23.33zm27.78 0h23.33v15.56h-23.33zm27.78 0h23.33v15.56h-23.33zm27.78 0H720v15.56h-23.33zm-444.45 27.78h23.33v15.56h-23.33zm27.78 0h23.33v15.56H280zm27.78 0h23.33v15.56h-23.33zm27.78 0h23.33v15.56h-23.33zm27.77 0h23.33v15.56h-23.33zm27.78 0h23.33v15.56h-23.33zm27.78 0h23.33v15.56h-23.33zm27.78 0H470v15.56h-23.33zm27.77 0h23.33v15.56h-23.33zm27.78 0h23.33v15.56h-23.33zm27.78 0h23.33v15.56H530zm27.78 0h23.33v15.56h-23.33zm27.78 0h23.33v15.56h-23.33zm27.77 0h23.33v15.56h-23.33zm27.78 0h23.33v15.56h-23.33zm27.78 0h23.33v15.56h-23.33zm27.78 0H720v15.56h-23.33zm27.77 0h23.33v15.56h-23.33zm-388.88 27.78h23.33v15.56h-23.33zm27.77 0h23.33v15.56h-23.33zm27.78 0h23.33v15.56h-23.33zm27.78 0h23.33v15.56h-23.33zm27.78 0H470v15.56h-23.33zm27.77 0h23.33v15.56h-23.33zm27.78 0h23.33v15.56h-23.33zm27.78 0h23.33v15.56H530zm27.78 0h23.33v15.56h-23.33zm27.78 0h23.33v15.56h-23.33zm27.77 0h23.33v15.56h-23.33zm27.78 0h23.33v15.56h-23.33zm27.78 0h23.33v15.56h-23.33zm27.78 0H720v15.56h-23.33zm27.77 0h23.33v15.56h-23.33zM363.33 473.7h23.33v15.56h-23.33zm27.78 0h23.33v15.56h-23.33zm27.78 0h23.33v15.56h-23.33zm27.78 0H470v15.56h-23.33zm27.77 0h23.33v15.56h-23.33zm27.78 0h23.33v15.56h-23.33zm27.78 0h23.33v15.56H530zm27.78 0h23.33v15.56h-23.33zm27.78 0h23.33v15.56h-23.33zm27.77 0h23.33v15.56h-23.33zm27.78 0h23.33v15.56h-23.33zm27.78 0h23.33v15.56h-23.33zm27.78 0H720v15.56h-23.33zm27.77 0h23.33v15.56h-23.33zm27.78 0h23.33v15.56h-23.33zm-388.89 27.78h23.33v15.56h-23.33zm111.11 0h23.33v15.56h-23.33zm27.78 0h23.33v15.56h-23.33zm27.78 0h23.33v15.56H530zm27.78 0h23.33v15.56h-23.33zm27.78 0h23.33v15.56h-23.33zm111.11 0H720v15.56h-23.33zm27.77 0h23.33v15.56h-23.33zm27.78 0h23.33v15.56h-23.33zM280 529.26h23.33v15.56H280zm27.78 0h23.33v15.56h-23.33zm27.78 0h23.33v15.56h-23.33zm27.77 0h23.33v15.56h-23.33zm111.11 0h23.33v15.56h-23.33zm27.78 0h23.33v15.56h-23.33zm27.78 0h23.33v15.56H530zm222.22 0h23.33v15.56h-23.33zm27.78 0h23.33v15.56H780zM30 557.04h23.33v15.56H30zm27.78 0h23.33v15.56H57.78zm27.78 0h23.33v15.56H85.56zm222.22 0h23.33v15.56h-23.33zm27.78 0h23.33v15.56h-23.33zm27.77 0h23.33v15.56h-23.33zm27.78 0h23.33v15.56h-23.33zm27.78 0h23.33v15.56h-23.33zm27.78 0H470v15.56h-23.33zm27.77 0h23.33v15.56h-23.33zm27.78 0h23.33v15.56h-23.33zm138.89 0h23.33v15.56h-23.33zm138.89 0h23.33v15.56H780zm-333.33 27.77H470v15.56h-23.33zm27.77 0h23.33v15.56h-23.33zm27.78 0h23.33v15.56h-23.33zm27.78 0h23.33v15.56H530zm55.56 0h23.33v15.56h-23.33zm83.33 0h23.33v15.56h-23.33zm111.11 0h23.33v15.56H780zm111.11 0h23.33v15.56h-23.33zm-333.33 27.78h23.33v15.56h-23.33zm27.78 0h23.33v15.56h-23.33zm27.77 0h23.33v15.56h-23.33zm27.78 0h23.33v15.56h-23.33zm55.56 0H720v15.56h-23.33zm83.33 0h23.33v15.56H780zm-527.78 27.78h23.33v15.56h-23.33zm27.78 0h23.33v15.56H280zm277.78 0h23.33v15.56h-23.33zm83.33 0h23.33v15.56h-23.33zm27.78 0h23.33v15.56h-23.33zm27.78 0H720v15.56h-23.33zm27.77 0h23.33v15.56h-23.33zm55.56 0h23.33v15.56H780zm-222.22 27.78h23.33v15.56h-23.33zm27.78 0h23.33v15.56h-23.33zm166.66 0h23.33v15.56h-23.33zm27.78 0h23.33v15.56H780zm27.78 0h23.33v15.56h-23.33zm27.78 0h23.33v15.56h-23.33zm27.77 0h23.33v15.56h-23.33zm27.78 0h23.33v15.56h-23.33zm27.78 0h23.33v15.56h-23.33zm27.78 0H970v15.56h-23.33zm27.77 0h23.33v15.56h-23.33zm-666.66 27.78h23.33v15.56h-23.33zm277.78 0h23.33v15.56h-23.33zm27.77 0h23.33v15.56h-23.33zm111.11 0h23.33v15.56h-23.33zm27.78 0h23.33v15.56h-23.33zm194.45 0H970v15.56h-23.33zm27.77 0h23.33v15.56h-23.33zM307.78 723.7h23.33v15.56h-23.33zm305.55 0h23.33v15.56h-23.33zm27.78 0h23.33v15.56h-23.33zm27.78 0h23.33v15.56h-23.33zm27.78 0H720v15.56h-23.33zm27.77 0h23.33v15.56h-23.33z"/><path fill="#bff1ea" d="M196.67 279.26H220v15.56h-23.33zm-27.78 27.78h23.33v15.56h-23.33zm55.55 0h23.33v15.56h-23.33zm-55.55 27.77h23.33v15.56h-23.33zm83.33 0h23.33v15.56h-23.33zm-55.55 55.56H220v15.56h-23.33z"/><path fill="#fff" d="M196.67 307.04H220v15.56h-23.33zm0 27.77H220v15.56h-23.33zm27.77 0h23.33v15.56h-23.33zm-55.55 27.78h23.33v15.56h-23.33zm27.78 0H220v15.56h-23.33zm27.77 0h23.33v15.56h-23.33z"/></svg>