<svg xmlns="http://www.w3.org/2000/svg" width="1000" height="1000" viewBox="0 0 1000 1000"><path fill="#0c322c" d="M0 0h1000v1000H0z"/><path d="M2.42 1.58h25.45v16.6H2.42zm30.31 0h25.45v16.6H32.73zm30.3 0h25.45v16.6H63.03zm30.3 0h25.45v16.6H93.33zm30.31 0h25.45v16.6h-25.45zm30.3 0h25.45v16.6h-25.45zm30.3 0h25.45v16.6h-25.45zm30.31 0H240v16.6h-25.45zm30.3 0h25.45v16.6h-25.45zm30.3 0h25.45v16.6h-25.45zm30.3 0h25.45v16.6h-25.45zm30.31 0h25.45v16.6h-25.45zm30.3 0h25.45v16.6h-25.45zm30.3 0h25.45v16.6h-25.45zm30.31 0h25.45v16.6h-25.45zm30.3 0h25.45v16.6h-25.45zm30.3 0h25.45v16.6h-25.45zm30.31 0h25.45v16.6h-25.45zm30.3 0h25.45v16.6h-25.45zm30.3 0h25.45v16.6h-25.45zm30.3 0h25.45v16.6h-25.45zm30.31 0h25.45v16.6h-25.45zm30.3 0h25.45v16.6h-25.45zm30.3 0h25.45v16.6h-25.45zm30.31 0h25.45v16.6H729.7zm30.3 0h25.45v16.6H760zm30.3 0h25.45v16.6H790.3zm30.31 0h25.45v16.6h-25.45zm30.3 0h25.45v16.6h-25.45zm30.3 0h25.45v16.6h-25.45zm30.31 0h25.45v16.6h-25.45zm30.3 0h25.45v16.6h-25.45zm30.3 0h25.45v16.6h-25.45zM2.42 31.88h25.45v16.6H2.42zm30.31 0h25.45v16.6H32.73zm30.3 0h25.45v16.6H63.03zm30.3 0h25.45v16.6H93.33zm30.31 0h25.45v16.6h-25.45zm30.3 0h25.45v16.6h-25.45zm30.3 0h25.45v16.6h-25.45zm30.31 0H240v16.6h-25.45zm30.3 0h25.45v16.6h-25.45zm30.3 0h25.45v16.6h-25.45zm30.3 0h25.45v16.6h-25.45zm30.31 0h25.45v16.6h-25.45zm30.3 0h25.45v16.6h-25.45zm30.3 0h25.45v16.6h-25.45zm30.31 0h25.45v16.6h-25.45zm30.3 0h25.45v16.6h-25.45zm30.3 0h25.45v16.6h-25.45zm30.31 0h25.45v16.6h-25.45zm30.3 0h25.45v16.6h-25.45zm30.3 0h25.45v16.6h-25.45zm30.3 0h25.45v16.6h-25.45zm30.31 0h25.45v16.6h-25.45zm30.3 0h25.45v16.6h-25.45zm30.3 0h25.45v16.6h-25.45zm30.31 0h25.45v16.6H729.7zm30.3 0h25.45v16.6H760zm30.3 0h25.45v16.6H790.3zm30.31 0h25.45v16.6h-25.45zm30.3 0h25.45v16.6h-25.45zm30.3 0h25.45v16.6h-25.45zm30.31 0h25.45v16.6h-25.45zm30.3 0h25.45v16.6h-25.45zm30.3 0h25.45v16.6h-25.45zM2.42 62.19h25.45v16.6H2.42zm30.31 0h25.45v16.6H32.73zm30.3 0h25.45v16.6H63.03zm30.3 0h25.45v16.6H93.33zm30.31 0h25.45v16.6h-25.45zm30.3 0h25.45v16.6h-25.45zm30.3 0h25.45v16.6h-25.45zm30.31 0H240v16.6h-25.45zm30.3 0h25.45v16.6h-25.45zm30.3 0h25.45v16.6h-25.45zm30.3 0h25.45v16.6h-25.45zm30.31 0h25.45v16.6h-25.45zm30.3 0h25.45v16.6h-25.45zm30.3 0h25.45v16.6h-25.45zm30.31 0h25.45v16.6h-25.45zm30.3 0h25.45v16.6h-25.45zm30.3 0h25.45v16.6h-25.45zm30.31 0h25.45v16.6h-25.45zm30.3 0h25.45v16.6h-25.45zm30.3 0h25.45v16.6h-25.45zm30.3 0h25.45v16.6h-25.45zm30.31 0h25.45v16.6h-25.45zm30.3 0h25.45v16.6h-25.45zm30.3 0h25.45v16.6h-25.45zm30.31 0h25.45v16.6H729.7zm30.3 0h25.45v16.6H760zm30.3 0h25.45v16.6H790.3zm30.31 0h25.45v16.6h-25.45zm30.3 0h25.45v16.6h-25.45zm30.3 0h25.45v16.6h-25.45zm30.31 0h25.45v16.6h-25.45zm30.3 0h25.45v16.6h-25.45zm30.3 0h25.45v16.6h-25.45zM2.42 92.49h25.45v16.6H2.42zm30.31 0h25.45v16.6H32.73zm30.3 0h25.45v16.6H63.03zm30.3 0h25.45v16.6H93.33zm30.31 0h25.45v16.6h-25.45zm30.3 0h25.45v16.6h-25.45zm30.3 0h25.45v16.6h-25.45zm30.31 0H240v16.6h-25.45zm30.3 0h25.45v16.6h-25.45zm30.3 0h25.45v16.6h-25.45zm30.3 0h25.45v16.6h-25.45zm30.31 0h25.45v16.6h-25.45zm30.3 0h25.45v16.6h-25.45zm30.3 0h25.45v16.6h-25.45zm30.31 0h25.45v16.6h-25.45zm30.3 0h25.45v16.6h-25.45zm30.3 0h25.45v16.6h-25.45zm30.31 0h25.45v16.6h-25.45zm30.3 0h25.45v16.6h-25.45zm30.3 0h25.45v16.6h-25.45zm30.3 0h25.45v16.6h-25.45zm30.31 0h25.45v16.6h-25.45zm30.3 0h25.45v16.6h-25.45zm30.3 0h25.45v16.6h-25.45zm30.31 0h25.45v16.6H729.7zm30.3 0h25.45v16.6H760zm30.3 0h25.45v16.6H790.3zm30.31 0h25.45v16.6h-25.45zm30.3 0h25.45v16.6h-25.45zm30.3 0h25.45v16.6h-25.45zm30.31 0h25.45v16.6h-25.45zm30.3 0h25.45v16.6h-25.45zm30.3 0h25.45v16.6h-25.45zm-969.7 30.3h25.45v16.6H2.42zm30.31 0h25.45v16.6H32.73zm30.3 0h25.45v16.6H63.03zm30.3 0h25.45v16.6H93.33zm30.31 0h25.45v16.6h-25.45zm30.3 0h25.45v16.6h-25.45zm30.3 0h25.45v16.6h-25.45zm30.31 0H240v16.6h-25.45zm30.3 0h25.45v16.6h-25.45zm30.3 0h25.45v16.6h-25.45zm30.3 0h25.45v16.6h-25.45zm30.31 0h25.45v16.6h-25.45zm30.3 0h25.45v16.6h-25.45zm30.3 0h25.45v16.6h-25.45zm30.31 0h25.45v16.6h-25.45zm30.3 0h25.45v16.6h-25.45zm30.3 0h25.45v16.6h-25.45zm30.31 0h25.45v16.6h-25.45zm30.3 0h25.45v16.6h-25.45zm30.3 0h25.45v16.6h-25.45zm30.3 0h25.45v16.6h-25.45zm30.31 0h25.45v16.6h-25.45zm30.3 0h25.45v16.6h-25.45zm30.3 0h25.45v16.6h-25.45zm30.31 0h25.45v16.6H729.7zm30.3 0h25.45v16.6H760zm30.3 0h25.45v16.6H790.3zm30.31 0h25.45v16.6h-25.45zm30.3 0h25.45v16.6h-25.45zm30.3 0h25.45v16.6h-25.45zm30.31 0h25.45v16.6h-25.45zm30.3 0h25.45v16.6h-25.45zm30.3 0h25.45v16.6h-25.45zM2.42 153.1h25.45v16.6H2.42zm30.31 0h25.45v16.6H32.73zm30.3 0h25.45v16.6H63.03zm30.3 0h25.45v16.6H93.33zm30.31 0h25.45v16.6h-25.45zm30.3 0h25.45v16.6h-25.45zm30.3 0h25.45v16.6h-25.45zm30.31 0H240v16.6h-25.45zm30.3 0h25.45v16.6h-25.45zm30.3 0h25.45v16.6h-25.45zm30.3 0h25.45v16.6h-25.45zm30.31 0h25.45v16.6h-25.45zm30.3 0h25.45v16.6h-25.45zm30.3 0h25.45v16.6h-25.45zm30.31 0h25.45v16.6h-25.45zm30.3 0h25.45v16.6h-25.45zm30.3 0h25.45v16.6h-25.45zm30.31 0h25.45v16.6h-25.45zm30.3 0h25.45v16.6h-25.45zm30.3 0h25.45v16.6h-25.45zm30.3 0h25.45v16.6h-25.45zm30.31 0h25.45v16.6h-25.45zm30.3 0h25.45v16.6h-25.45zm30.3 0h25.45v16.6h-25.45zm30.31 0h25.45v16.6H729.7zm30.3 0h25.45v16.6H760zm30.3 0h25.45v16.6H790.3zm30.31 0h25.45v16.6h-25.45zm30.3 0h25.45v16.6h-25.45zm30.3 0h25.45v16.6h-25.45zm30.31 0h25.45v16.6h-25.45zm30.3 0h25.45v16.6h-25.45zm30.3 0h25.45v16.6h-25.45zM2.42 183.4h25.45V200H2.42zm30.31 0h25.45V200H32.73zm30.3 0h25.45V200H63.03zm30.3 0h25.45V200H93.33zm30.31 0h25.45V200h-25.45zm30.3 0h25.45V200h-25.45zm30.3 0h25.45V200h-25.45zm30.31 0H240V200h-25.45zm30.3 0h25.45V200h-25.45zm30.3 0h25.45V200h-25.45zm30.3 0h25.45V200h-25.45zm30.31 0h25.45V200h-25.45zm30.3 0h25.45V200h-25.45zm30.3 0h25.45V200h-25.45zm30.31 0h25.45V200h-25.45zm30.3 0h25.45V200h-25.45zm30.3 0h25.45V200h-25.45zm30.31 0h25.45V200h-25.45zm30.3 0h25.45V200h-25.45zm30.3 0h25.45V200h-25.45zm30.3 0h25.45V200h-25.45zm30.31 0h25.45V200h-25.45zm30.3 0h25.45V200h-25.45zm30.3 0h25.45V200h-25.45zm30.31 0h25.45V200H729.7zm30.3 0h25.45V200H760zm30.3 0h25.45V200H790.3zm30.31 0h25.45V200h-25.45zm30.3 0h25.45V200h-25.45zm30.3 0h25.45V200h-25.45zm30.31 0h25.45V200h-25.45zm30.3 0h25.45V200h-25.45zm30.3 0h25.45V200h-25.45zM2.42 213.7h25.45v16.6H2.42zm30.31 0h25.45v16.6H32.73zm30.3 0h25.45v16.6H63.03zm30.3 0h25.45v16.6H93.33zm30.31 0h25.45v16.6h-25.45zm30.3 0h25.45v16.6h-25.45zm30.3 0h25.45v16.6h-25.45zm30.31 0H240v16.6h-25.45zm30.3 0h25.45v16.6h-25.45zm30.3 0h25.45v16.6h-25.45zm60.61 0h25.45v16.6h-25.45zm30.3 0h25.45v16.6h-25.45zm30.3 0h25.45v16.6h-25.45zm30.31 0h25.45v16.6h-25.45zm30.3 0h25.45v16.6h-25.45zm30.3 0h25.45v16.6h-25.45zm30.31 0h25.45v16.6h-25.45zm30.3 0h25.45v16.6h-25.45zm30.3 0h25.45v16.6h-25.45zm30.3 0h25.45v16.6h-25.45zm30.31 0h25.45v16.6h-25.45zm30.3 0h25.45v16.6h-25.45zm30.3 0h25.45v16.6h-25.45zm30.31 0h25.45v16.6H729.7zm30.3 0h25.45v16.6H760zm30.3 0h25.45v16.6H790.3zm30.31 0h25.45v16.6h-25.45zm30.3 0h25.45v16.6h-25.45zm30.3 0h25.45v16.6h-25.45zm30.31 0h25.45v16.6h-25.45zm30.3 0h25.45v16.6h-25.45zm30.3 0h25.45v16.6h-25.45zM2.42 244.01h25.45v16.6H2.42zm30.31 0h25.45v16.6H32.73zm30.3 0h25.45v16.6H63.03zm30.3 0h25.45v16.6H93.33zm30.31 0h25.45v16.6h-25.45zm30.3 0h25.45v16.6h-25.45zm30.3 0h25.45v16.6h-25.45zm151.52 0h25.45v16.6h-25.45zm30.3 0h25.45v16.6h-25.45zm30.3 0h25.45v16.6h-25.45zm30.31 0h25.45v16.6h-25.45zm30.3 0h25.45v16.6h-25.45zm30.3 0h25.45v16.6h-25.45zm30.31 0h25.45v16.6h-25.45zm30.3 0h25.45v16.6h-25.45zm30.3 0h25.45v16.6h-25.45zm30.3 0h25.45v16.6h-25.45zm30.31 0h25.45v16.6h-25.45zm30.3 0h25.45v16.6h-25.45zm30.3 0h25.45v16.6h-25.45zm30.31 0h25.45v16.6H729.7zm30.3 0h25.45v16.6H760zm30.3 0h25.45v16.6H790.3zm30.31 0h25.45v16.6h-25.45zm30.3 0h25.45v16.6h-25.45zm30.3 0h25.45v16.6h-25.45zm30.31 0h25.45v16.6h-25.45zm30.3 0h25.45v16.6h-25.45zm30.3 0h25.45v16.6h-25.45zm-969.7 30.3h25.45v16.6H2.42zm30.31 0h25.45v16.6H32.73zm30.3 0h25.45v16.6H63.03zm30.3 0h25.45v16.6H93.33zm30.31 0h25.45v16.6h-25.45zm30.3 0h25.45v16.6h-25.45zm363.64 0h25.45v16.6h-25.45zm30.3 0h25.45v16.6h-25.45zm30.3 0h25.45v16.6h-25.45zm30.3 0h25.45v16.6h-25.45zm30.31 0h25.45v16.6h-25.45zm30.3 0h25.45v16.6h-25.45zm30.3 0h25.45v16.6h-25.45zm30.31 0h25.45v16.6H729.7zm30.3 0h25.45v16.6H760zm30.3 0h25.45v16.6H790.3zm30.31 0h25.45v16.6h-25.45zm30.3 0h25.45v16.6h-25.45zm30.3 0h25.45v16.6h-25.45zm30.31 0h25.45v16.6h-25.45zm30.3 0h25.45v16.6h-25.45zm30.3 0h25.45v16.6h-25.45zm-969.7 30.3h25.45v16.6H2.42zm30.31 0h25.45v16.6H32.73zm30.3 0h25.45v16.6H63.03zm30.3 0h25.45v16.6H93.33zm30.31 0h25.45v16.6h-25.45zm484.84 0h25.45v16.6h-25.45zm30.31 0h25.45v16.6h-25.45zm30.3 0h25.45v16.6h-25.45zm30.3 0h25.45v16.6h-25.45zm30.31 0h25.45v16.6H729.7zm30.3 0h25.45v16.6H760zm30.3 0h25.45v16.6H790.3zm30.31 0h25.45v16.6h-25.45zm30.3 0h25.45v16.6h-25.45zm30.3 0h25.45v16.6h-25.45zm30.31 0h25.45v16.6h-25.45zm30.3 0h25.45v16.6h-25.45zm30.3 0h25.45v16.6h-25.45zm-969.7 30.3h25.45v16.6H2.42zm30.31 0h25.45v16.6H32.73zm30.3 0h25.45v16.6H63.03zm30.3 0h25.45v16.6H93.33zm575.76 0h25.45v16.6h-25.45zm30.3 0h25.45v16.6h-25.45zm30.31 0h25.45v16.6H729.7zm30.3 0h25.45v16.6H760zm30.3 0h25.45v16.6H790.3zm30.31 0h25.45v16.6h-25.45zm30.3 0h25.45v16.6h-25.45zm30.3 0h25.45v16.6h-25.45zm30.31 0h25.45v16.6h-25.45zm30.3 0h25.45v16.6h-25.45zm30.3 0h25.45v16.6h-25.45zM2.42 365.22h25.45v16.6H2.42zm30.31 0h25.45v16.6H32.73zm30.3 0h25.45v16.6H63.03zm30.3 0h25.45v16.6H93.33zm606.06 0h25.45v16.6h-25.45zm30.31 0h25.45v16.6H729.7zm30.3 0h25.45v16.6H760zm30.3 0h25.45v16.6H790.3zm30.31 0h25.45v16.6h-25.45zm30.3 0h25.45v16.6h-25.45zm30.3 0h25.45v16.6h-25.45zm30.31 0h25.45v16.6h-25.45zm30.3 0h25.45v16.6h-25.45zm30.3 0h25.45v16.6h-25.45zm-969.7 30.3h25.45v16.6H2.42zm30.31 0h25.45v16.6H32.73zm30.3 0h25.45v16.6H63.03zm30.3 0h25.45v16.6H93.33zm636.37 0h25.45v16.6H729.7zm30.3 0h25.45v16.6H760zm30.3 0h25.45v16.6H790.3zm30.31 0h25.45v16.6h-25.45zm30.3 0h25.45v16.6h-25.45zm30.3 0h25.45v16.6h-25.45zm30.31 0h25.45v16.6h-25.45zm30.3 0h25.45v16.6h-25.45zm30.3 0h25.45v16.6h-25.45zm-969.7 30.3h25.45v16.6H2.42zm30.31 0h25.45v16.6H32.73zm30.3 0h25.45v16.6H63.03zm30.3 0h25.45v16.6H93.33zm30.31 0h25.45v16.6h-25.45zm636.36 0h25.45v16.6H760zm30.3 0h25.45v16.6H790.3zm30.31 0h25.45v16.6h-25.45zm30.3 0h25.45v16.6h-25.45zm30.3 0h25.45v16.6h-25.45zm30.31 0h25.45v16.6h-25.45zm30.3 0h25.45v16.6h-25.45zm30.3 0h25.45v16.6h-25.45zM2.42 456.13h25.45v16.6H2.42zm30.31 0h25.45v16.6H32.73zm30.3 0h25.45v16.6H63.03zm30.3 0h25.45v16.6H93.33zm30.31 0h25.45v16.6h-25.45zm30.3 0h25.45v16.6h-25.45zm30.3 0h25.45v16.6h-25.45zm606.06 0h25.45v16.6H790.3zm30.31 0h25.45v16.6h-25.45zm30.3 0h25.45v16.6h-25.45zm30.3 0h25.45v16.6h-25.45zm30.31 0h25.45v16.6h-25.45zm30.3 0h25.45v16.6h-25.45zm30.3 0h25.45v16.6h-25.45zm-969.7 30.3h25.45v16.6H2.42zm30.31 0h25.45v16.6H32.73zm30.3 0h25.45v16.6H63.03zm30.3 0h25.45v16.6H93.33zm30.31 0h25.45v16.6h-25.45zm30.3 0h25.45v16.6h-25.45zm30.3 0h25.45v16.6h-25.45zm30.31 0H240v16.6h-25.45zm30.3 0h25.45v16.6h-25.45zm545.45 0h25.45v16.6H790.3zm30.31 0h25.45v16.6h-25.45zm30.3 0h25.45v16.6h-25.45zm30.3 0h25.45v16.6h-25.45zm30.31 0h25.45v16.6h-25.45zm30.3 0h25.45v16.6h-25.45zm30.3 0h25.45v16.6h-25.45zm-969.7 30.3h25.45v16.6H2.42zm30.31 0h25.45v16.6H32.73zm30.3 0h25.45v16.6H63.03zm30.3 0h25.45v16.6H93.33zm30.31 0h25.45v16.6h-25.45zm272.72 0h25.45v16.6h-25.45zm30.31 0h25.45v16.6h-25.45zm181.81 0h25.45v16.6h-25.45zm30.31 0h25.45v16.6h-25.45zm181.82 0h25.45v16.6h-25.45zm30.3 0h25.45v16.6h-25.45zm30.3 0h25.45v16.6h-25.45zm30.31 0h25.45v16.6h-25.45zm60.6 0h25.45v16.6h-25.45zM2.42 547.04h25.45v16.6H2.42zm545.46 0h25.45v16.6h-25.45zm30.3 0h25.45v16.6h-25.45zm90.91 0h25.45v16.6h-25.45zm30.3 0h25.45v16.6h-25.45zm121.22 0h25.45v16.6h-25.45zM2.42 577.34h25.45v16.6H2.42zm30.31 0h25.45v16.6H32.73zm30.3 0h25.45v16.6H63.03zm30.3 0h25.45v16.6H93.33zm30.31 0h25.45v16.6h-25.45zm30.3 0h25.45v16.6h-25.45zm30.3 0h25.45v16.6h-25.45zm30.31 0H240v16.6h-25.45zm30.3 0h25.45v16.6h-25.45zm30.3 0h25.45v16.6h-25.45zm30.3 0h25.45v16.6h-25.45zm393.94 0h25.45v16.6h-25.45zm30.31 0h25.45v16.6H729.7zm90.91 0h25.45v16.6h-25.45zM2.42 607.64h25.45v16.6H2.42zm30.31 0h25.45v16.6H32.73zm30.3 0h25.45v16.6H63.03zm30.3 0h25.45v16.6H93.33zm30.31 0h25.45v16.6h-25.45zm30.3 0h25.45v16.6h-25.45zm30.3 0h25.45v16.6h-25.45zm30.31 0H240v16.6h-25.45zm30.3 0h25.45v16.6h-25.45zm30.3 0h25.45v16.6h-25.45zm30.3 0h25.45v16.6h-25.45zm30.31 0h25.45v16.6h-25.45zm30.3 0h25.45v16.6h-25.45zm30.3 0h25.45v16.6h-25.45zm30.31 0h25.45v16.6h-25.45zm303.03 0h25.45v16.6H729.7zm90.91 0h25.45v16.6h-25.45zm30.3 0h25.45v16.6h-25.45zm121.21 0h25.45v16.6h-25.45zm-969.7 30.3h25.45v16.6H2.42zm30.31 0h25.45v16.6H32.73zm30.3 0h25.45v16.6H63.03zm30.3 0h25.45v16.6H93.33zm30.31 0h25.45v16.6h-25.45zm30.3 0h25.45v16.6h-25.45zm30.3 0h25.45v16.6h-25.45zm151.52 0h25.45v16.6h-25.45zm30.3 0h25.45v16.6h-25.45zm30.3 0h25.45v16.6h-25.45zm30.31 0h25.45v16.6h-25.45zm30.3 0h25.45v16.6h-25.45zm30.3 0h25.45v16.6h-25.45zm30.31 0h25.45v16.6h-25.45zm303.03 0h25.45v16.6h-25.45zm30.3 0h25.45v16.6h-25.45zm30.3 0h25.45v16.6h-25.45zm90.91 0h25.45v16.6h-25.45zM2.42 668.25h25.45v16.6H2.42zm30.31 0h25.45v16.6H32.73zm30.3 0h25.45v16.6H63.03zm30.3 0h25.45v16.6H93.33zm30.31 0h25.45v16.6h-25.45zm30.3 0h25.45v16.6h-25.45zm212.12 0h25.45v16.6h-25.45zm30.3 0h25.45v16.6h-25.45zm30.31 0h25.45v16.6h-25.45zm30.3 0h25.45v16.6h-25.45zm30.3 0h25.45v16.6h-25.45zm30.31 0h25.45v16.6h-25.45zm121.21 0h25.45v16.6h-25.45zM2.42 698.55h25.45v16.6H2.42zm30.31 0h25.45v16.6H32.73zm30.3 0h25.45v16.6H63.03zm30.3 0h25.45v16.6H93.33zm30.31 0h25.45v16.6h-25.45zm242.42 0h25.45v16.6h-25.45zm30.3 0h25.45v16.6h-25.45zm30.31 0h25.45v16.6h-25.45zm30.3 0h25.45v16.6h-25.45zm30.3 0h25.45v16.6h-25.45zm30.31 0h25.45v16.6h-25.45zm30.3 0h25.45v16.6h-25.45zm242.42 0h25.45v16.6H790.3zM2.42 728.85h25.45v16.6H2.42zm30.31 0h25.45v16.6H32.73zm30.3 0h25.45v16.6H63.03zm30.3 0h25.45v16.6H93.33zm30.31 0h25.45v16.6h-25.45zm30.3 0h25.45v16.6h-25.45zm30.3 0h25.45v16.6h-25.45zm30.31 0H240v16.6h-25.45zm30.3 0h25.45v16.6h-25.45zm121.21 0h25.45v16.6h-25.45zm30.3 0h25.45v16.6h-25.45zm30.31 0h25.45v16.6h-25.45zm30.3 0h25.45v16.6h-25.45zm30.3 0h25.45v16.6h-25.45zm30.31 0h25.45v16.6h-25.45zm30.3 0h25.45v16.6h-25.45zm30.3 0h25.45v16.6h-25.45zm181.82 0h25.45v16.6H760zm30.3 0h25.45v16.6H790.3zm30.31 0h25.45v16.6h-25.45zm30.3 0h25.45v16.6h-25.45zm30.3 0h25.45v16.6h-25.45zm30.31 0h25.45v16.6h-25.45zm30.3 0h25.45v16.6h-25.45zm30.3 0h25.45v16.6h-25.45zM2.42 759.16h25.45v16.6H2.42zm30.31 0h25.45v16.6H32.73zm30.3 0h25.45v16.6H63.03zm30.3 0h25.45v16.6H93.33zm30.31 0h25.45v16.6h-25.45zm30.3 0h25.45v16.6h-25.45zm30.3 0h25.45v16.6h-25.45zm30.31 0H240v16.6h-25.45zm30.3 0h25.45v16.6h-25.45zm90.91 0h25.45v16.6h-25.45zm30.3 0h25.45v16.6h-25.45zm30.3 0h25.45v16.6h-25.45zm30.31 0h25.45v16.6h-25.45zm30.3 0h25.45v16.6h-25.45zm30.3 0h25.45v16.6h-25.45zm30.31 0h25.45v16.6h-25.45zm30.3 0h25.45v16.6h-25.45zm30.3 0h25.45v16.6h-25.45zm30.3 0h25.45v16.6h-25.45zm30.31 0h25.45v16.6h-25.45zm30.3 0h25.45v16.6h-25.45zm30.3 0h25.45v16.6h-25.45zm30.31 0h25.45v16.6H729.7zm30.3 0h25.45v16.6H760zm30.3 0h25.45v16.6H790.3zm30.31 0h25.45v16.6h-25.45zm30.3 0h25.45v16.6h-25.45zm30.3 0h25.45v16.6h-25.45zm30.31 0h25.45v16.6h-25.45zm30.3 0h25.45v16.6h-25.45zm30.3 0h25.45v16.6h-25.45zm-969.7 30.3h25.45v16.6H2.42zm30.31 0h25.45v16.6H32.73zm30.3 0h25.45v16.6H63.03zm30.3 0h25.45v16.6H93.33zm30.31 0h25.45v16.6h-25.45zm30.3 0h25.45v16.6h-25.45zm30.3 0h25.45v16.6h-25.45zm30.31 0H240v16.6h-25.45zm30.3 0h25.45v16.6h-25.45zm30.3 0h25.45v16.6h-25.45zm30.3 0h25.45v16.6h-25.45zm30.31 0h25.45v16.6h-25.45zm30.3 0h25.45v16.6h-25.45zm30.3 0h25.45v16.6h-25.45zm30.31 0h25.45v16.6h-25.45zm30.3 0h25.45v16.6h-25.45zm30.3 0h25.45v16.6h-25.45zm30.31 0h25.45v16.6h-25.45zm30.3 0h25.45v16.6h-25.45zm30.3 0h25.45v16.6h-25.45zm30.3 0h25.45v16.6h-25.45zm30.31 0h25.45v16.6h-25.45zm30.3 0h25.45v16.6h-25.45zm30.3 0h25.45v16.6h-25.45zm30.31 0h25.45v16.6H729.7zm30.3 0h25.45v16.6H760zm30.3 0h25.45v16.6H790.3zm30.31 0h25.45v16.6h-25.45zm30.3 0h25.45v16.6h-25.45zm30.3 0h25.45v16.6h-25.45zm30.31 0h25.45v16.6h-25.45zm30.3 0h25.45v16.6h-25.45zm30.3 0h25.45v16.6h-25.45zm-969.7 30.3h25.45v16.6H2.42zm30.31 0h25.45v16.6H32.73zm30.3 0h25.45v16.6H63.03zm30.3 0h25.45v16.6H93.33zm30.31 0h25.45v16.6h-25.45zm30.3 0h25.45v16.6h-25.45zm30.3 0h25.45v16.6h-25.45zm30.31 0H240v16.6h-25.45zm30.3 0h25.45v16.6h-25.45zm30.3 0h25.45v16.6h-25.45zm30.3 0h25.45v16.6h-25.45zm30.31 0h25.45v16.6h-25.45zm30.3 0h25.45v16.6h-25.45zm30.3 0h25.45v16.6h-25.45zm30.31 0h25.45v16.6h-25.45zm30.3 0h25.45v16.6h-25.45zm30.3 0h25.45v16.6h-25.45zm30.31 0h25.45v16.6h-25.45zm30.3 0h25.45v16.6h-25.45zm30.3 0h25.45v16.6h-25.45zm30.3 0h25.45v16.6h-25.45zm30.31 0h25.45v16.6h-25.45zm30.3 0h25.45v16.6h-25.45zm30.3 0h25.45v16.6h-25.45zm30.31 0h25.45v16.6H729.7zm30.3 0h25.45v16.6H760zm30.3 0h25.45v16.6H790.3zm30.31 0h25.45v16.6h-25.45zm30.3 0h25.45v16.6h-25.45zm30.3 0h25.45v16.6h-25.45zm30.31 0h25.45v16.6h-25.45zm30.3 0h25.45v16.6h-25.45zm30.3 0h25.45v16.6h-25.45zM2.42 850.07h25.45v16.6H2.42zm30.31 0h25.45v16.6H32.73zm30.3 0h25.45v16.6H63.03zm30.3 0h25.45v16.6H93.33zm30.31 0h25.45v16.6h-25.45zm30.3 0h25.45v16.6h-25.45zm30.3 0h25.45v16.6h-25.45zm30.31 0H240v16.6h-25.45zm30.3 0h25.45v16.6h-25.45zm30.3 0h25.45v16.6h-25.45zm30.3 0h25.45v16.6h-25.45zm30.31 0h25.45v16.6h-25.45zm30.3 0h25.45v16.6h-25.45zm30.3 0h25.45v16.6h-25.45zm30.31 0h25.45v16.6h-25.45zm30.3 0h25.45v16.6h-25.45zm30.3 0h25.45v16.6h-25.45zm30.31 0h25.45v16.6h-25.45zm30.3 0h25.45v16.6h-25.45zm30.3 0h25.45v16.6h-25.45zm30.3 0h25.45v16.6h-25.45zm30.31 0h25.45v16.6h-25.45zm30.3 0h25.45v16.6h-25.45zm30.3 0h25.45v16.6h-25.45zm30.31 0h25.45v16.6H729.7zm30.3 0h25.45v16.6H760zm30.3 0h25.45v16.6H790.3zm30.31 0h25.45v16.6h-25.45zm30.3 0h25.45v16.6h-25.45zm30.3 0h25.45v16.6h-25.45zm30.31 0h25.45v16.6h-25.45zm30.3 0h25.45v16.6h-25.45zm30.3 0h25.45v16.6h-25.45zm-969.7 30.3h25.45v16.6H2.42zm30.31 0h25.45v16.6H32.73zm30.3 0h25.45v16.6H63.03zm30.3 0h25.45v16.6H93.33zm30.31 0h25.45v16.6h-25.45zm30.3 0h25.45v16.6h-25.45zm30.3 0h25.45v16.6h-25.45zm30.31 0H240v16.6h-25.45zm30.3 0h25.45v16.6h-25.45zm30.3 0h25.45v16.6h-25.45zm30.3 0h25.45v16.6h-25.45zm30.31 0h25.45v16.6h-25.45zm30.3 0h25.45v16.6h-25.45zm30.3 0h25.45v16.6h-25.45zm30.31 0h25.45v16.6h-25.45zm30.3 0h25.45v16.6h-25.45zm30.3 0h25.45v16.6h-25.45zm30.31 0h25.45v16.6h-25.45zm30.3 0h25.45v16.6h-25.45zm30.3 0h25.45v16.6h-25.45zm30.3 0h25.45v16.6h-25.45zm30.31 0h25.45v16.6h-25.45zm30.3 0h25.45v16.6h-25.45zm30.3 0h25.45v16.6h-25.45zm30.31 0h25.45v16.6H729.7zm30.3 0h25.45v16.6H760zm30.3 0h25.45v16.6H790.3zm30.31 0h25.45v16.6h-25.45zm30.3 0h25.45v16.6h-25.45zm30.3 0h25.45v16.6h-25.45zm30.31 0h25.45v16.6h-25.45zm30.3 0h25.45v16.6h-25.45zm30.3 0h25.45v16.6h-25.45zm-969.7 30.3h25.45v16.6H2.42zm30.31 0h25.45v16.6H32.73zm30.3 0h25.45v16.6H63.03zm30.3 0h25.45v16.6H93.33zm30.31 0h25.45v16.6h-25.45zm30.3 0h25.45v16.6h-25.45zm30.3 0h25.45v16.6h-25.45zm30.31 0H240v16.6h-25.45zm30.3 0h25.45v16.6h-25.45zm30.3 0h25.45v16.6h-25.45zm30.3 0h25.45v16.6h-25.45zm30.31 0h25.45v16.6h-25.45zm30.3 0h25.45v16.6h-25.45zm30.3 0h25.45v16.6h-25.45zm30.31 0h25.45v16.6h-25.45zm30.3 0h25.45v16.6h-25.45zm30.3 0h25.45v16.6h-25.45zm30.31 0h25.45v16.6h-25.45zm30.3 0h25.45v16.6h-25.45zm30.3 0h25.45v16.6h-25.45zm30.3 0h25.45v16.6h-25.45zm30.31 0h25.45v16.6h-25.45zm30.3 0h25.45v16.6h-25.45zm30.3 0h25.45v16.6h-25.45zm30.31 0h25.45v16.6H729.7zm30.3 0h25.45v16.6H760zm30.3 0h25.45v16.6H790.3zm30.31 0h25.45v16.6h-25.45zm30.3 0h25.45v16.6h-25.45zm30.3 0h25.45v16.6h-25.45zm30.31 0h25.45v16.6h-25.45zm30.3 0h25.45v16.6h-25.45zm30.3 0h25.45v16.6h-25.45zm-969.7 30.3h25.45v16.6H2.42zm30.31 0h25.45v16.6H32.73zm30.3 0h25.45v16.6H63.03zm30.3 0h25.45v16.6H93.33zm30.31 0h25.45v16.6h-25.45zm30.3 0h25.45v16.6h-25.45zm30.3 0h25.45v16.6h-25.45zm30.31 0H240v16.6h-25.45zm30.3 0h25.45v16.6h-25.45zm30.3 0h25.45v16.6h-25.45zm30.3 0h25.45v16.6h-25.45zm30.31 0h25.45v16.6h-25.45zm30.3 0h25.45v16.6h-25.45zm30.3 0h25.45v16.6h-25.45zm30.31 0h25.45v16.6h-25.45zm30.3 0h25.45v16.6h-25.45zm30.3 0h25.45v16.6h-25.45zm30.31 0h25.45v16.6h-25.45zm30.3 0h25.45v16.6h-25.45zm30.3 0h25.45v16.6h-25.45zm30.3 0h25.45v16.6h-25.45zm30.31 0h25.45v16.6h-25.45zm30.3 0h25.45v16.6h-25.45zm30.3 0h25.45v16.6h-25.45zm30.31 0h25.45v16.6H729.7zm30.3 0h25.45v16.6H760zm30.3 0h25.45v16.6H790.3zm30.31 0h25.45v16.6h-25.45zm30.3 0h25.45v16.6h-25.45zm30.3 0h25.45v16.6h-25.45zm30.31 0h25.45v16.6h-25.45zm30.3 0h25.45v16.6h-25.45zm30.3 0h25.45v16.6h-25.45zM2.42 971.28h25.45v16.6H2.42zm30.31 0h25.45v16.6H32.73zm30.3 0h25.45v16.6H63.03zm30.3 0h25.45v16.6H93.33zm30.31 0h25.45v16.6h-25.45zm30.3 0h25.45v16.6h-25.45zm30.3 0h25.45v16.6h-25.45zm30.31 0H240v16.6h-25.45zm30.3 0h25.45v16.6h-25.45zm30.3 0h25.45v16.6h-25.45zm30.3 0h25.45v16.6h-25.45zm30.31 0h25.45v16.6h-25.45zm30.3 0h25.45v16.6h-25.45zm30.3 0h25.45v16.6h-25.45zm30.31 0h25.45v16.6h-25.45zm30.3 0h25.45v16.6h-25.45zm30.3 0h25.45v16.6h-25.45zm30.31 0h25.45v16.6h-25.45zm30.3 0h25.45v16.6h-25.45zm30.3 0h25.45v16.6h-25.45zm30.3 0h25.45v16.6h-25.45zm30.31 0h25.45v16.6h-25.45zm30.3 0h25.45v16.6h-25.45zm30.3 0h25.45v16.6h-25.45zm30.31 0h25.45v16.6H729.7zm30.3 0h25.45v16.6H760zm30.3 0h25.45v16.6H790.3zm30.31 0h25.45v16.6h-25.45zm30.3 0h25.45v16.6h-25.45zm30.3 0h25.45v16.6h-25.45zm30.31 0h25.45v16.6h-25.45zm30.3 0h25.45v16.6h-25.45zm30.3 0h25.45v16.6h-25.45z"/><path fill="#192072" d="M305.45 213.7h25.45v16.6h-25.45zm-90.9 30.31H240v16.6h-25.45zm121.21 30.3h25.45v16.6h-25.45zm30.3 0h25.45v16.6h-25.45zm90.91 0h25.45v16.6h-25.45zm30.3 0h25.45v16.6h-25.45zm90.91 30.3h25.45v16.6h-25.45zm-454.54 30.3h25.45v16.6h-25.45zm515.15 0h25.45v16.6h-25.45zm-515.15 30.31h25.45v16.6h-25.45zm0 30.3h25.45v16.6h-25.45zm121.21 0h25.45v16.6h-25.45zm-90.91 30.3h25.45v16.6h-25.45zm30.3 0h25.45v16.6h-25.45zm30.31 0H240v16.6h-25.45zm0 30.31H240v16.6h-25.45zm30.3 0h25.45v16.6h-25.45zm30.3 0h25.45v16.6h-25.45zm30.3 0h25.45v16.6h-25.45zm30.31 0h25.45v16.6h-25.45zm424.24 0h25.45v16.6H760zm-484.85 30.3h25.45v16.6h-25.45zm30.3 0h25.45v16.6h-25.45zm30.31 0h25.45v16.6h-25.45zm60.6 0h25.45v16.6h-25.45zm30.31 0h25.45v16.6h-25.45zm-272.73 30.3h25.45v16.6h-25.45zm30.3 0h25.45v16.6h-25.45zm30.31 0H240v16.6h-25.45zm30.3 0h25.45v16.6h-25.45zm30.3 0h25.45v16.6h-25.45zm30.3 0h25.45v16.6h-25.45zm30.31 0h25.45v16.6h-25.45zm121.21 0h25.45v16.6h-25.45zm121.21 0h25.45v16.6h-25.45zm90.91 0h25.45v16.6h-25.45zm30.3 0h25.45v16.6h-25.45zm90.91 0h25.45v16.6H790.3zm151.52 0h25.45v16.6h-25.45zM32.73 547.04h25.45v16.6H32.73zm121.21 0h25.45v16.6h-25.45zm30.3 0h25.45v16.6h-25.45zm30.31 0H240v16.6h-25.45zm30.3 0h25.45v16.6h-25.45zm363.63 0h25.45v16.6h-25.45zm30.31 0h25.45v16.6h-25.45zm90.91 0h25.45v16.6H729.7zm60.6 0h25.45v16.6H790.3zm60.61 0h25.45v16.6h-25.45zm30.3 0h25.45v16.6h-25.45zm30.31 0h25.45v16.6h-25.45zm30.3 0h25.45v16.6h-25.45zm30.3 0h25.45v16.6h-25.45zm-636.36 30.3h25.45v16.6h-25.45zm30.3 0h25.45v16.6h-25.45zm181.82 0h25.45v16.6h-25.45zm90.91 0h25.45v16.6h-25.45zm121.21 0h25.45v16.6H760zm90.91 0h25.45v16.6h-25.45zm60.61 0h25.45v16.6h-25.45zm30.3 0h25.45v16.6h-25.45zm30.3 0h25.45v16.6h-25.45zm-515.15 30.3h25.45v16.6h-25.45zm30.3 0h25.45v16.6h-25.45zm30.31 0h25.45v16.6h-25.45zm121.21 0h25.45v16.6h-25.45zm30.3 0h25.45v16.6h-25.45zm30.3 0h25.45v16.6h-25.45zm60.61 0h25.45v16.6H760zm121.21 0h25.45v16.6h-25.45zm30.31 0h25.45v16.6h-25.45zm30.3 0h25.45v16.6h-25.45zm-727.27 30.3H240v16.6h-25.45zm90.9 0h25.45v16.6h-25.45zm242.43 0h25.45v16.6h-25.45zm60.6 0h25.45v16.6h-25.45zm151.52 0h25.45v16.6H760zm151.52 0h25.45v16.6h-25.45zm30.3 0h25.45v16.6h-25.45zm-757.58 30.31h25.45v16.6h-25.45zm30.31 0H240v16.6h-25.45zm30.3 0h25.45v16.6h-25.45zm30.3 0h25.45v16.6h-25.45zm30.3 0h25.45v16.6h-25.45zm30.31 0h25.45v16.6h-25.45zm212.12 0h25.45v16.6h-25.45zm60.6 0h25.45v16.6h-25.45zm60.61 0h25.45v16.6h-25.45zm30.3 0h25.45v16.6h-25.45zm30.31 0h25.45v16.6H729.7zm-575.76 30.3h25.45v16.6h-25.45zm30.3 0h25.45v16.6h-25.45zm30.31 0H240v16.6h-25.45zm30.3 0h25.45v16.6h-25.45zm30.3 0h25.45v16.6h-25.45zm60.61 0h25.45v16.6h-25.45zm303.03 0h25.45v16.6h-25.45zm30.3 0h25.45v16.6h-25.45zm30.3 0h25.45v16.6h-25.45zm121.22 0h25.45v16.6h-25.45zm30.3 0h25.45v16.6h-25.45zm30.3 0h25.45v16.6h-25.45zm30.31 0h25.45v16.6h-25.45zm-636.37 30.3h25.45v16.6h-25.45zm60.61 0h25.45v16.6h-25.45zm272.72 0h25.45v16.6h-25.45zm121.22 0h25.45v16.6H729.7zm-454.55 30.31h25.45v16.6h-25.45zm30.3 0h25.45v16.6h-25.45z"/><path fill="#2453ff" d="M244.85 244.01h25.45v16.6h-25.45zm30.3 0h25.45v16.6h-25.45zm30.3 0h25.45v16.6h-25.45zm-121.21 30.3h25.45v16.6h-25.45zm30.31 0H240v16.6h-25.45zm30.3 0h25.45v16.6h-25.45zm30.3 0h25.45v16.6h-25.45zm30.3 0h25.45v16.6h-25.45zm90.91 0h25.45v16.6h-25.45zm30.31 0h25.45v16.6h-25.45zm-272.73 30.3h25.45v16.6h-25.45zm90.91 0h25.45v16.6h-25.45zm30.3 0h25.45v16.6h-25.45zm30.3 0h25.45v16.6h-25.45zm30.31 0h25.45v16.6h-25.45zm30.3 0h25.45v16.6h-25.45zm30.3 0h25.45v16.6h-25.45zm30.31 0h25.45v16.6h-25.45zm30.3 0h25.45v16.6h-25.45zm30.3 0h25.45v16.6h-25.45zm30.31 0h25.45v16.6h-25.45zm30.3 0h25.45v16.6h-25.45zm-272.73 30.3h25.45v16.6h-25.45zm30.3 0h25.45v16.6h-25.45zm30.31 0h25.45v16.6h-25.45zm30.3 0h25.45v16.6h-25.45zm30.3 0h25.45v16.6h-25.45zm30.31 0h25.45v16.6h-25.45zm30.3 0h25.45v16.6h-25.45zm30.3 0h25.45v16.6h-25.45zm30.31 0h25.45v16.6h-25.45zm30.3 0h25.45v16.6h-25.45zm30.3 0h25.45v16.6h-25.45zm30.3 0h25.45v16.6h-25.45zm-363.63 30.31h25.45v16.6h-25.45zm30.3 0h25.45v16.6h-25.45zm30.3 0h25.45v16.6h-25.45zm30.31 0h25.45v16.6h-25.45zm30.3 0h25.45v16.6h-25.45zm30.3 0h25.45v16.6h-25.45zm30.31 0h25.45v16.6h-25.45zm30.3 0h25.45v16.6h-25.45zm30.3 0h25.45v16.6h-25.45zm30.31 0h25.45v16.6h-25.45zm30.3 0h25.45v16.6h-25.45zm30.3 0h25.45v16.6h-25.45zm30.3 0h25.45v16.6h-25.45zm30.31 0h25.45v16.6h-25.45zm30.3 0h25.45v16.6h-25.45zm-515.15 30.3h25.45v16.6h-25.45zm30.3 0h25.45v16.6h-25.45zm30.31 0H240v16.6h-25.45zm60.6 0h25.45v16.6h-25.45zm30.3 0h25.45v16.6h-25.45zm30.31 0h25.45v16.6h-25.45zm30.3 0h25.45v16.6h-25.45zm30.3 0h25.45v16.6h-25.45zm30.31 0h25.45v16.6h-25.45zm30.3 0h25.45v16.6h-25.45zm30.3 0h25.45v16.6h-25.45zm30.31 0h25.45v16.6h-25.45zm30.3 0h25.45v16.6h-25.45zm30.3 0h25.45v16.6h-25.45zm30.3 0h25.45v16.6h-25.45zm30.31 0h25.45v16.6h-25.45zm30.3 0h25.45v16.6h-25.45zm30.3 0h25.45v16.6h-25.45zm-454.54 30.3h25.45v16.6h-25.45zm30.3 0h25.45v16.6h-25.45zm30.3 0h25.45v16.6h-25.45zm30.31 0h25.45v16.6h-25.45zm30.3 0h25.45v16.6h-25.45zm30.3 0h25.45v16.6h-25.45zm30.31 0h25.45v16.6h-25.45zm30.3 0h25.45v16.6h-25.45zm30.3 0h25.45v16.6h-25.45zm30.31 0h25.45v16.6h-25.45zm30.3 0h25.45v16.6h-25.45zm30.3 0h25.45v16.6h-25.45zm30.3 0h25.45v16.6h-25.45zm30.31 0h25.45v16.6h-25.45zm30.3 0h25.45v16.6h-25.45zm30.3 0h25.45v16.6h-25.45zm30.31 0h25.45v16.6H729.7zm-363.64 30.31h25.45v16.6h-25.45zm30.3 0h25.45v16.6h-25.45zm30.31 0h25.45v16.6h-25.45zm30.3 0h25.45v16.6h-25.45zm30.3 0h25.45v16.6h-25.45zm30.31 0h25.45v16.6h-25.45zm30.3 0h25.45v16.6h-25.45zm30.3 0h25.45v16.6h-25.45zm30.3 0h25.45v16.6h-25.45zm30.31 0h25.45v16.6h-25.45zm30.3 0h25.45v16.6h-25.45zm30.3 0h25.45v16.6h-25.45zm30.31 0h25.45v16.6H729.7zm-363.64 30.3h25.45v16.6h-25.45zm90.91 0h25.45v16.6h-25.45zm30.3 0h25.45v16.6h-25.45zm30.31 0h25.45v16.6h-25.45zm30.3 0h25.45v16.6h-25.45zm30.3 0h25.45v16.6h-25.45zm30.3 0h25.45v16.6h-25.45zm30.31 0h25.45v16.6h-25.45zm30.3 0h25.45v16.6h-25.45zm30.3 0h25.45v16.6h-25.45zm30.31 0h25.45v16.6H729.7zm30.3 0h25.45v16.6H760zm-393.94 30.3h25.45v16.6h-25.45zm121.21 0h25.45v16.6h-25.45zm30.31 0h25.45v16.6h-25.45zm30.3 0h25.45v16.6h-25.45zm181.82 0h25.45v16.6H729.7zm30.3 0h25.45v16.6H760zM63.03 547.04h25.45v16.6H63.03zm30.3 0h25.45v16.6H93.33zm30.31 0h25.45v16.6h-25.45zm151.51 0h25.45v16.6h-25.45zm30.3 0h25.45v16.6h-25.45zm30.31 0h25.45v16.6h-25.45zm30.3 0h25.45v16.6h-25.45zm30.3 0h25.45v16.6h-25.45zm30.31 0h25.45v16.6h-25.45zm30.3 0h25.45v16.6h-25.45zm30.3 0h25.45v16.6h-25.45zm30.31 0h25.45v16.6h-25.45zm242.42 0h25.45v16.6H760zm-363.64 30.3h25.45v16.6h-25.45zm30.31 0h25.45v16.6h-25.45zm30.3 0h25.45v16.6h-25.45zm30.3 0h25.45v16.6h-25.45zm30.31 0h25.45v16.6h-25.45zm60.6 0h25.45v16.6h-25.45zm30.3 0h25.45v16.6h-25.45zm60.61 0h25.45v16.6h-25.45zm121.21 0h25.45v16.6H790.3zm90.91 0h25.45v16.6h-25.45zm-333.33 30.3h25.45v16.6h-25.45zm30.3 0h25.45v16.6h-25.45zm30.3 0h25.45v16.6h-25.45zm181.82 0h25.45v16.6H790.3zm-545.45 30.3h25.45v16.6h-25.45zm30.3 0h25.45v16.6h-25.45zm303.03 0h25.45v16.6h-25.45zm60.61 0h25.45v16.6h-25.45zm30.3 0h25.45v16.6h-25.45zm30.3 0h25.45v16.6h-25.45zm30.31 0h25.45v16.6H729.7zm60.6 0h25.45v16.6H790.3zm-212.12 30.31h25.45v16.6h-25.45zm181.82 0h25.45v16.6H760zm30.3 0h25.45v16.6H790.3zm30.31 0h25.45v16.6h-25.45zm30.3 0h25.45v16.6h-25.45zm30.3 0h25.45v16.6h-25.45zm30.31 0h25.45v16.6h-25.45zm30.3 0h25.45v16.6h-25.45zm30.3 0h25.45v16.6h-25.45zm-666.67 30.3h25.45v16.6h-25.45zm272.73 0h25.45v16.6h-25.45zm30.3 0h25.45v16.6h-25.45zm121.22 0h25.45v16.6H729.7zm30.3 0h25.45v16.6H760zm181.82 0h25.45v16.6h-25.45zm30.3 0h25.45v16.6h-25.45zm-666.67 30.3h25.45v16.6h-25.45zm333.34 0h25.45v16.6h-25.45zm30.3 0h25.45v16.6h-25.45zm30.3 0h25.45v16.6h-25.45z"/><path fill="#fe7c3f" d="M184.24 334.91h25.45v16.6h-25.45zm60.61 0h25.45v16.6h-25.45zm-90.91 30.31h25.45v16.6h-25.45z"/><path fill="#fff" d="M184.24 304.61h25.45v16.6h-25.45zm30.31 0H240v16.6h-25.45zm-60.61 30.3h25.45v16.6h-25.45zm60.61 0H240v16.6h-25.45zm-30.31 30.31h25.45v16.6h-25.45zm30.31 0H240v16.6h-25.45z"/></svg>