<svg xmlns="http://www.w3.org/2000/svg" width="1080" height="1080" style="width:100%;height:auto;display:block" viewBox="0 0 1080 1080"><rect height="100%" fill="#0c322c"/><g stroke="#0c322c" stroke-linejoin="round" stroke-width="3"><path fill="#e4e7e8" d="M0 0h46.26l1.76 39.86-7.74 8.84L0 44.04z"/><path fill="#ced6d8" d="M46.26 0h42.25l2.74 40.13-43.23-.27z"/><path fill="#b3bfc3" d="M88.51 0h42.98l-15.42 46.88-15.47 1.68-9.35-8.43z"/><path fill="#a6b7bd" d="M131.49 0h28.59l-.69 43.5-28.17 10.15-15.15-6.77z"/><path fill="#d9e0e2" d="M160.08 0h40.54l7.25 37.99-33.05 14.58-15.43-9.07z"/><path fill="#dde2e3" d="M200.62 0h55.49l-.74 34.47-39.52 8.85-7.98-5.33z"/><path fill="#d6ddde" d="M256.11 0h52.45l-10.22 38.4-37.38 1.66-5.59-5.59z"/><path fill="#dfe5e5" d="M308.56 0h32.11l7.1 49.76-5.99 5.67-32.32-2.65-11.12-14.38z"/><path fill="#dce1e4" d="M340.67 0h47.34l.8 36.94-13.15 12.57-27.89.25z"/><path fill="#b4c5c9" d="M388.01 0h41.53l3.69 36.92-9.51 8.55-34.91-8.53z"/><path fill="#e4e9e9" d="M429.54 0h49.03l-6.71 40.95-2.46 1.79-36.17-5.82z"/><path fill="#d0dbdd" d="M478.57 0h39.67l.49 49.95-1.88 2.02-44.99-11.02z"/><path fill="#b9ccd0" d="M518.24 0h39.91l-.07 45.26-39.35 4.69z"/><path fill="#c9d8db" d="M558.15 0h43.12l.54 37.62-33.57 15.08-10.16-7.44z"/><path fill="#4f656b" d="M601.27 0h47.2l.2 46.7-5.01 4.31-25.21-.21-16.64-13.18z"/><path fill="#d3dee0" d="M648.47 0h37.79l8.05 38.29-8.43 11.14-37.21-2.73z"/><path fill="#8eb0be" d="M686.26 0h47.84l-3.65 34.73-36.14 3.56z"/><path fill="#799da9" d="M734.1 0h44.03l.66 35.1-39.78 9.02-8.56-9.39z"/><path fill="#80a2ae" d="M778.13 0h48.44l-7.24 43.07-8.29 5.77-18.8.01-13.45-13.75z"/><path fill="#7a9ca8" d="M826.57 0h33.16l.27 48.87-1.02 1.13-39.65-6.93z"/><path fill="#82a3ad" d="M859.73 0h35.41l4.49 41.48L860 48.87z"/><path fill="#7b9eaa" d="M895.14 0h49.1l-7.22 39.43-29.71 8.27-7.68-6.22z"/><path fill="#799ba4" d="M944.24 0h32.17l12.25 43.3-31.27 14.14-20.37-18.01z"/><path fill="#7fa2a8" d="M976.41 0h58.49l-2.78 26.67-36.37 19.73-7.09-3.1z"/><path fill="#89aaaf" d="M1034.9 0h45.1v50.4l-25.94.4-21.94-24.13z"/><path fill="#97becc" d="M0 94.67V44.04l40.28 4.66 7.92 36.61-8.6 10.08z"/><path fill="#93b0bb" d="M48.2 85.31 40.28 48.7l7.74-8.84 43.23.27 9.35 8.43-14.47 39.31z"/><path fill="#729ba9" d="m86.13 87.87 14.47-39.31 15.47-1.68 15.15 6.77 7.87 36.23-4.33 7.84-40.99 1.24z"/><path fill="#7da6b6" d="m139.09 89.88-7.87-36.23 28.17-10.15 15.43 9.07 2.49 29.95z"/><path fill="#a3c0cc" d="m177.31 82.52-2.49-29.95 33.05-14.58 7.98 5.33 5.16 41.71-10.73 7.98-26.15-3.83z"/><path fill="#b7c7cb" d="m221.01 85.03-5.16-41.71 39.52-8.85 5.59 5.59 1.02 38.28-13.25 10.44z"/><path fill="#e6eaec" d="m261.98 78.34-1.02-38.28 37.38-1.66 11.12 14.38-16.84 32.28z"/><path fill="#a7cbd5" d="m292.62 85.06 16.84-32.28 32.32 2.65 1.56 38.06-41.59 7.12z"/><path fill="#81abb8" d="m343.34 93.49-1.56-38.06 5.99-5.67 27.89-.25 17.01 37.36-1.51 2.17-43.06 9.34z"/><path fill="#a6bbbf" d="m375.66 49.51 13.15-12.57 34.91 8.53-.54 34.76-30.51 6.64z"/><path fill="#c8d5d7" d="m423.18 80.23.54-34.76 9.51-8.55 36.17 5.82-5.61 40.93-28.91 4.98z"/><path fill="#c5d8df" d="m463.79 83.67 5.61-40.93 2.46-1.79 44.99 11.02-.99 20.81-38.04 21.37z"/><path fill="#b6d2da" d="m515.86 72.78.99-20.81 1.88-2.02 39.35-4.69 10.16 7.44 3 31.55-4.73 4.79-33.73 4.63z"/><path fill="#b3cad2" d="m571.24 84.25-3-31.55 33.57-15.08 16.64 13.18-15.9 38.95z"/><path fill="#4d656c" d="m602.55 89.75 15.9-38.95 25.21.21L648.75 92l-36.59 9.06z"/><path fill="#9fc0cc" d="m648.75 92-5.09-40.99 5.01-4.31 37.21 2.73 9.57 29.77-6.54 8.3-34.6 8.58z"/><path fill="#8baebb" d="m685.88 49.43 8.43-11.14 36.14-3.56 8.56 9.39-1.26 36.27-4.28 3.02-38.02-4.21z"/><path fill="#7b9fab" d="m737.75 80.39 1.26-36.27 39.78-9.02 13.45 13.75-18.82 39.14z"/><path fill="#8aadb9" d="m773.42 87.99 18.82-39.14 18.8-.01 14.87 42.88-5.6 9.23-41.96-5.2z"/><path fill="#6a8e9d" d="m825.91 91.72-14.87-42.88 8.29-5.77L858.98 50l1.74 29.97z"/><path fill="#7696a0" d="M860.72 79.97 858.98 50l1.02-1.13 39.63-7.39 7.68 6.22-.32 33.85-1.26 1.28-34.41 6.09z"/><path fill="#7095a2" d="m906.99 81.55.32-33.85 29.71-8.27 20.37 18.01-5.34 29.81z"/><path fill="#8ca7ad" d="m952.05 87.25 5.34-29.81 31.27-14.14 7.09 3.1 13.23 31.68-21.85 25.07-33.9-13.78z"/><path fill="#81a2a7" d="M1008.98 78.08 995.75 46.4l36.37-19.73 21.94 24.13-20.88 31.05z"/><path fill="#8eafb5" d="M1080 50.4v58.02l-34.83-7.06-11.99-19.51 20.88-31.05z"/><path fill="#7ea7b7" d="M0 142.69V94.67l39.6.72 4.6 39.26z"/><path fill="#6e94a2" d="m44.2 134.65-4.6-39.26 8.6-10.08 37.93 2.56 7.64 11.09-3.87 32.67-4.39 4.66-39.45-.02z"/><path fill="#6e9ca9" d="m89.9 131.63 3.87-32.67 40.99-1.24 9.76 27.29-16.44 14.1z"/><path fill="#8ab4c2" d="m134.76 97.72 4.33-7.84 38.22-7.36 6.82 6.66-17.95 42.14-21.66-6.31z"/><path fill="#7eaaba" d="m166.18 131.32 17.95-42.14 26.15 3.83 1.88 43.11-44.34-2.91z"/><path fill="#99c2d0" d="m212.16 136.12-1.88-43.11 10.73-7.98 27.72 3.75 8.1 37.59-42.89 11.71z"/><path fill="#8ebac7" d="m256.83 126.37-8.1-37.59 13.25-10.44 30.64 6.72 9.13 15.55-7.3 31.32-2.41 1.82-25.71-.87z"/><path fill="#76a8ba" d="m294.45 131.93 7.3-31.32 41.59-7.12 4.76 4.89 3.14 29.08-11.88 14.76z"/><path fill="#8ab6bc" d="m351.24 127.46-3.14-29.08 43.06-9.34 3.93 41.77-3.57 3.43z"/><path fill="#659299" d="m395.09 130.81-3.93-41.77 1.51-2.17 30.51-6.64 11.7 8.42-3.66 40.47z"/><path fill="#7ba4aa" d="m431.22 129.12 3.66-40.47 28.91-4.98 14.03 10.48 5.15 24.02-22.27 25.65-18.41-3.86z"/><path fill="#90bac6" d="m482.97 118.17-5.15-24.02 38.04-21.37 16.92 20.89-10.06 32.14-4.2 2.26z"/><path fill="#7fa8ab" d="m522.72 125.81 10.06-32.14 33.73-4.63 4.22 47.03-8.86 5.08z"/><path fill="#85adba" d="m570.73 136.07-4.22-47.03 4.73-4.79 31.31 5.5 9.61 11.31-2.37 23.53-20.08 13.87z"/><path fill="#6d8f9b" d="m609.79 124.59 2.37-23.53L648.75 92l5.56 4.08 3.4 31.37-19.58 13.8z"/><path fill="#8cb4c5" d="m657.71 127.45-3.4-31.37 34.6-8.58 8.83 44.87-12.31 5.63z"/><path fill="#7b9fab" d="m697.74 132.37-8.83-44.87 6.54-8.3 38.02 4.21-6.19 48.57-6.59 3.88z"/><path fill="#7b9fac" d="m727.28 131.98 6.19-48.57 4.28-3.02 35.67 7.6 4.93 7.76-6.94 37.11-7.6 6.15z"/><path fill="#7da0aa" d="m771.41 132.86 6.94-37.11 41.96 5.2 6.34 24.62-9.03 17.64z"/><path fill="#789aa6" d="m826.65 125.57-6.34-24.62 5.6-9.23 34.81-11.75 10.6 8.95-1.89 36.48z"/><path fill="#5b8592" d="m869.43 125.4 1.89-36.48 34.41-6.09 6.13 50.41-2.67 1.35-33.96-2.44z"/><path fill="#58808c" d="m911.86 133.24-6.13-50.41 1.26-1.28 45.06 5.7 1.18 2.12-19.86 45.55z"/><path fill="#7b9ca5" d="m933.37 134.92 19.86-45.55 33.9 13.78 6.84 26.49-50.4 14.81z"/><path fill="#81a4a7" d="m993.97 129.64-6.84-26.49 21.85-25.07 24.2 3.77 11.99 19.51-22.3 32.53-25.65-1.27z"/><path fill="#9ab7bb" d="M1080 108.42v32.36l-43.71 7.94-13.42-14.83 22.3-32.53z"/><path fill="#7d9da3" d="M0 179.61v-36.92l44.2-8.04 1.86 1.62-.78 47.05-4.33 3.27z"/><path fill="#759599" d="m45.28 183.32.78-47.05 39.45.02 5.58 41.6-7.96 8.03z"/><path fill="#7295a3" d="m91.09 177.89-5.58-41.6 4.39-4.66 38.18 7.48 1.51 38.19-1.66 1.66z"/><path fill="#69919c" d="m129.59 177.3-1.51-38.19 16.44-14.1 21.66 6.31 1.64 1.89-1.3 38.99z"/><path fill="#7398a5" d="m166.52 172.2 1.3-38.99 44.34 2.91 1.78 1.96 2 27.72-11.48 12.32-26.57 3.43z"/><path fill="#669aaf" d="m215.94 165.8-2-27.72 42.89-11.71 9.5 6.51-17.08 42.75z"/><path fill="#8cafbb" d="m249.25 175.63 17.08-42.75 25.71.87 2.47 43.02-39.02 7.22z"/><path fill="#7fa2ac" d="m294.51 176.77-2.47-43.02 2.41-1.82 44.91 10.29 5.1 30.12-35.69 17.7z"/><path fill="#85adbd" d="m344.46 172.34-5.1-30.12 11.88-14.76 40.28 6.78-1.42 34.03-36.38 9.41z"/><path fill="#547f86" d="m390.1 168.27 1.42-34.03 3.57-3.43 36.13-1.69 11.07 10.84-29.76 44.65-2.96-.29z"/><path fill="#759b9f" d="m412.53 184.61 29.76-44.65 18.41 3.86 12.74 26.34-39.72 30.28z"/><path fill="#82a6b5" d="m460.7 143.82 22.27-25.65 35.55 9.9-7.7 41.16-29.38 5.23-8-4.3z"/><path fill="#84a7b6" d="m510.82 169.23 7.7-41.16 4.2-2.26 39.15 15.34-7.63 30.91-33.88 4.24z"/><path fill="#749da3" d="m554.24 172.06 7.63-30.91 8.86-5.08 18.98 2.39 15.43 40.66-6.52 10.5-31.33-.6z"/><path fill="#7a969e" d="m589.71 138.46 20.08-13.87 28.34 16.66-.65 26.8-32.34 11.07z"/><path fill="#729caf" d="m637.48 168.05.65-26.8 19.58-13.8L685.43 138l-8.18 33.55-28.7 4.67z"/><path fill="#8aaab7" d="m677.25 171.55 8.18-33.55 12.31-5.63 22.95 3.49.71 39.18-30.68 9.66z"/><path fill="#789fad" d="m721.4 175.04-.71-39.18 6.59-3.88 36.53 7.03 3.73 39.37-34.58 6.26z"/><path fill="#6d93a0" d="m767.54 178.38-3.73-39.37 7.6-6.15 46.21 10.35 3.53 18.25-9.77 13.97-40.23 6z"/><path fill="#76959d" d="m821.15 161.46-3.53-18.25 9.03-17.64 42.78-.17 5.8 6.75-13.58 40.52z"/><path fill="#739aa5" d="m861.65 172.67 13.58-40.52 33.96 2.44-9.55 53.17-33.16-7.1z"/><path fill="#647986" d="m899.64 187.76 9.55-53.17 2.67-1.35 21.51 1.68 10.2 9.53 5.86 34.07-.39.71-48.75 9.15z"/><path fill="#88a9b0" d="m949.43 178.52-5.86-34.07 50.4-14.81 3.25 2.98-6.01 40.57z"/><path fill="#8fb1b7" d="m991.21 173.19 6.01-40.57 25.65 1.27 13.42 14.83-.52 31.23-33.91 5.11z"/><path fill="#a0bbc0" d="M1080 140.78v39.74l-41.63 1.71-2.6-2.28.52-31.23z"/><path fill="#77a196" d="M0 230.25v-50.64l40.95 6.98-1.98 42.14-2.64 1.98z"/><path fill="#7b9f91" d="m38.97 228.73 1.98-42.14 4.33-3.27 37.85 2.6 4.9 35.19-15.76 14.11z"/><path fill="#7a9f95" d="m88.03 221.11-4.9-35.19 7.96-8.03 36.84 1.07 5 34.07-16.45 15.67z"/><path fill="#91bba8" d="m132.93 213.03-5-34.07 1.66-1.66 36.93-5.1 11.37 9.35-8.97 39.58-1.72.85z"/><path fill="#80ab98" d="m168.92 221.13 8.97-39.58 26.57-3.43 14.35 41.26-14.32 14.28z"/><path fill="#80a79c" d="m204.46 178.12 11.48-12.32 33.31 9.83 6.24 8.36-3.75 33.58-32.93 1.81z"/><path fill="#8fa2a8" d="m251.74 217.57 3.75-33.58 39.02-7.22 14.26 13.27-1.38 17.84-16.61 16.89-31.07.93z"/><path fill="#6c9893" d="m307.39 207.88 1.38-17.84 35.69-17.7 9.26 5.34 9.07 43.83-15.77 10.62z"/><path fill="#7ca79d" d="m362.79 221.51-9.07-43.83 36.38-9.41 19.47 16.05-30.31 39.81z"/><path fill="#8ab2a8" d="m379.26 224.13 30.31-39.81 2.96.29 21.19 15.83 6.11 21.8-.49.87-42.38 19.77z"/><path fill="#91acb0" d="m439.83 222.24-6.11-21.8 39.72-30.28 8 4.3 4.43 50.08-.8.46z"/><path fill="#7fa3ac" d="m485.87 224.54-4.43-50.08 29.38-5.23 9.54 7.07 2.69 41.2-15.79 9.61z"/><path fill="#779aa4" d="m523.05 217.5-2.69-41.2 33.88-4.24 13.05 16.96-16.69 33.19z"/><path fill="#799da6" d="m550.6 222.21 16.69-33.19 31.33.6 10.31 28.14-8.76 14.36-38.55 6.91z"/><path fill="#4d676b" d="m598.62 189.62 6.52-10.5 32.34-11.07 11.07 8.17.7 42.19-2.37 2.15-37.95-2.8z"/><path fill="#95b5b0" d="m649.25 218.41-.7-42.19 28.7-4.67 13.47 13.15-2.34 31.96z"/><path fill="#86a8b6" d="m688.38 216.66 2.34-31.96 30.68-9.66 11.56 9.6-5.06 35.07-36.95-.54z"/><path fill="#6c8d99" d="m727.9 219.71 5.06-35.07 34.58-6.26 3.61 3.05 2.97 37.58-.75.87-42.15 3.25z"/><path fill="#678c96" d="m774.12 219.01-2.97-37.58 40.23-6 10.63 43.03-3.89 3.26z"/><path fill="#7897a0" d="m822.01 218.46-10.63-43.03 9.77-13.97 40.5 11.21 4.83 7.99-18.9 38.12z"/><path fill="#84a5b0" d="m847.58 218.78 18.9-38.12 33.16 7.1.65.62 4.42 35.54-5.35 5.96-38.47 3.62z"/><path fill="#678d9b" d="m904.71 223.92-4.42-35.54 48.75-9.15 6.31 37.39-10.59 12.79z"/><path fill="#83a8ae" d="m955.35 216.62-6.31-37.39.39-.71 41.78-5.33 10.65 11.87-6.6 34.97z"/><path fill="#89abae" d="m995.26 220.03 6.6-34.97 33.91-5.11 2.6 2.28 3.58 42.89-4.32 3.81-35.92-.66z"/><path fill="#8cacad" d="M1080 180.52v43.2l-38.05 1.4-3.58-42.89z"/><path fill="#9cb5bf" d="M0 279.13v-48.88l36.33.46-2.32 45.34z"/><path fill="#c9dade" d="m34.01 276.05 2.32-45.34 2.64-1.98 33.3 6.49 5.37 28.31-37.14 17.24z"/><path fill="#79a292" d="m77.64 263.53-5.37-28.31 15.76-14.11 28.45 7.59 6.29 27.66-30.58 17.93z"/><path fill="#7ba493" d="m122.77 256.36-6.29-27.66 16.45-15.67 34.27 8.95-13.44 42.47-9.55 3.24z"/><path fill="#7fa596" d="m153.76 264.45 13.44-42.47 1.72-.85 35.57 12.53 2.12 23.08-35.11 14.92z"/><path fill="#789194" d="m206.61 256.74-2.12-23.08 14.32-14.28 32.93-1.81 7.97 8.13-7.23 47.09-31.21-.83z"/><path fill="#8fada8" d="m252.48 272.79 7.23-47.09 31.07-.93 14.6 35.9-8.12 13.7-44.01-.82z"/><path fill="#81a8a1" d="m290.78 224.77 16.61-16.89 39.63 24.25-6.24 21.22-35.4 7.32z"/><path fill="#678f89" d="m340.78 253.35 6.24-21.22 15.77-10.62 16.47 2.62 17.7 18.75.15 20.09-16.69 15.88-29.7-8.7z"/><path fill="#527b78" d="m397.11 262.97-.15-20.09 42.38-19.77 5.78 43.72-12.45 12.04z"/><path fill="#8db1a9" d="m445.12 266.83-5.78-43.72.49-.87 45.24 2.76-10.59 43.16z"/><path fill="#809aa2" d="M474.48 268.16 485.07 225l.8-.46 21.39 2.57 13.04 44.96-1.24 1.72-34.06 5.89z"/><path fill="#80a2a6" d="m520.3 272.07-13.04-44.96 15.79-9.61 27.55 4.71 11.02 16.82-5.03 23.26z"/><path fill="#739ca9" d="m556.59 262.29 5.03-23.26 38.55-6.91 12.24 35.64-15.56 11.01-38.34-14.05z"/><path fill="#4e6971" d="m600.17 232.12 8.76-14.36 37.95 2.8 2.45 41.43-12.33 11.2-24.59-5.43z"/><path fill="#86a3ad" d="m649.33 261.99-2.45-41.43 2.37-2.15 39.13-1.75 2.57 2.51-.82 46.4z"/><path fill="#7b99a2" d="m690.13 265.57.82-46.4 36.95.54 3.32 3.42 1.12 37.27-39.07 8.23z"/><path fill="#6b8d9a" d="m732.34 260.4-1.12-37.27 42.15-3.25-1.02 42.9-26.89 6.54z"/><path fill="#6b8f99" d="m772.35 262.78 1.02-42.9.75-.87 44 2.71-6.65 41.51-28.6 5.24z"/><path fill="#60868e" d="m811.47 263.23 6.65-41.51 3.89-3.26 25.57.32 13.31 14.72-3.59 27.32-34.38 11.28z"/><path fill="#698b94" d="m857.3 260.82 3.59-27.32 38.47-3.62 3.9 39.68-3.87 5.02-28.4 1.24z"/><path fill="#7596a1" d="m903.26 269.56-3.9-39.68 5.35-5.96 40.05 5.49 5.91 36.54z"/><path fill="#85a5ab" d="m950.67 265.95-5.91-36.54 10.59-12.79 39.91 3.41 6.45 8.24-9.25 35.33-15.92 10.71-24.73-7.13z"/><path fill="#8d9998" d="m992.46 263.6 9.25-35.33 35.92.66 5.42 42.48-9.12 8.53z"/><path fill="#96b5b9" d="M1080 223.72v48.75l-36.95-1.06-5.42-42.48 4.32-3.81z"/><path fill="#9cbbc2" d="M0 327.17v-48.04l34.01-3.08 6.49 4.72 7.49 25.08-10.51 16.31z"/><path fill="#c3d5dc" d="m47.99 305.85-7.49-25.08 37.14-17.24 14.55 10.76 2.3 30.24-7.8 5.38z"/><path fill="#b2cad4" d="m94.49 304.53-2.3-30.24 30.58-17.93 21.44 11.33-8.99 38.53-10.08 7.8z"/><path fill="#a4b6c2" d="m135.22 306.22 8.99-38.53 9.55-3.24 17.74 7.21 14.18 41.21-3.89 3.32z"/><path fill="#77949f" d="m171.5 271.66 35.11-14.92 14.66 15.22-18.56 38.46-17.03 2.45z"/><path fill="#7a9da6" d="m202.71 310.42 18.56-38.46 31.21.83.77.76 3.22 41.92-3.39 4.72-27.39 7.24z"/><path fill="#7ca2a9" d="m256.47 315.47-3.22-41.92 44.01.82 11.73 29.48-11.36 12.17z"/><path fill="#739ca8" d="m297.26 274.37 8.12-13.7 35.4-7.32 9.94 16.8-20.26 36.62-21.47-2.92z"/><path fill="#6d95a2" d="m330.46 306.77 20.26-36.62 29.7 8.7 3.14 30.3-41.27 10.04z"/><path fill="#749aa6" d="m383.56 309.15-3.14-30.3 16.69-15.88 35.56 15.9 1.28 29.69-9.45 8.37-34.36-1.53z"/><path fill="#719aa4" d="m433.95 308.56-1.28-29.69 12.45-12.04 29.36 1.33L485 279.68l-6.55 26.75-15.05 8.76z"/><path fill="#7ba1a1" d="m478.45 306.43 6.55-26.75 34.06-5.89 8.74 38.43-19.77 11.11z"/><path fill="#aab9c6" d="m527.8 312.22-8.74-38.43 1.24-1.72 36.29-9.78 1.92 2.43 1.39 46.22-12.1 8.35z"/><path fill="#90afb9" d="m559.9 310.94-1.39-46.22 38.34 14.05-5.79 32.57z"/><path fill="#698890" d="m591.06 311.34 5.79-32.57 15.56-11.01 24.59 5.43 6.44 36.77-42.31 12.31z"/><path fill="#3f414a" d="M643.44 309.96 637 273.19l12.33-11.2 40.8 3.58 3.14 3.06.15 38.02-44.09 7.96z"/><path fill="#593a35" d="m693.42 306.65-.15-38.02 39.07-8.23 13.12 8.92-4.79 38.68-43.06 2.67z"/><path fill="#4f6971" d="m740.67 308 4.79-38.68 26.89-6.54 10.52 5.69 1.85 43.45-16.21 10.91-17.89-4.19z"/><path fill="#6a92a4" d="m784.72 311.92-1.85-43.45 28.6-5.24 11.45 8.87 4.37 30.55-14.12 13.42z"/><path fill="#678f98" d="m827.29 302.65-4.37-30.55 34.38-11.28 13.69 15-12.3 33.94z"/><path fill="#507980" d="m858.69 309.76 12.3-33.94 28.4-1.24 10.51 40.7-6.5 7.39-36.06-.25z"/><path fill="#708e96" d="m909.9 315.28-10.51-40.7 3.87-5.02 47.41-3.61 1.14 1.23-19.89 45.19z"/><path fill="#c3a5a9" d="m931.92 312.37 19.89-45.19 24.73 7.13 6.01 28.11-27.16 24.96z"/><path fill="#b37a6f" d="m982.55 302.42-6.01-28.11 15.92-10.71 41.47 16.34-2.68 25.93-24.98 10.94z"/><path fill="#3f2a1b" d="M1080 272.47v46.65l-30.29 2.24-18.46-15.49 2.68-25.93 9.12-8.53z"/><path fill="#809eac" d="M0 364.19v-37.02l37.48-5.01 17.21 34.4-13.96 13.45z"/><path fill="#8da7b4" d="m37.48 322.16 10.51-16.31 38.7 4.06-8.49 46.84-23.51-.19z"/><path fill="#90a6b3" d="m78.2 356.75 8.49-46.84 7.8-5.38 30.65 9.49 4.79 36.66L118.71 361l-37.01-1.52z"/><path fill="#9baeba" d="m129.93 350.68-4.79-36.66 10.08-7.8 46.57 9.97-9.35 38.76-4.68 3.56z"/><path fill="#8cacb5" d="m172.44 354.95 9.35-38.76 3.89-3.32 17.03-2.45 22.98 17.01-7.1 37.7z"/><path fill="#84a4ad" d="m218.59 365.13 7.1-37.7 27.39-7.24 16.49 43.19-2.4 1.88-47.69 1.28z"/><path fill="#85a6b0" d="m253.08 320.19 3.39-4.72 41.16.55 1.99 40.08-9.93 7.62-20.12-.34z"/><path fill="#759ba4" d="m299.62 356.1-1.99-40.08 11.36-12.17 21.47 2.92 11.83 12.42-.2 35.55-4.99 3.96z"/><path fill="#d0dbde" d="m342.09 354.74.2-35.55 41.27-10.04 6.58 6.25-10.04 45.7z"/><path fill="#cfdbdf" d="m380.1 361.1 10.04-45.7 34.36 1.53 3.09 36.59-45.4 9.93z"/><path fill="#c1d0d6" d="m427.59 353.52-3.09-36.59 9.45-8.37 29.45 6.63 7.16 43-29.74 8.8z"/><path fill="#7da1ac" d="m470.56 358.19-7.16-43 15.05-8.76 29.58 16.9-6.87 35.58-15.76 5.1z"/><path fill="#a2b7bf" d="m501.16 358.91 6.87-35.58 19.77-11.11 20 7.07 4.71 34.44-37.64 11.28z"/><path fill="#7fa1a2" d="m552.51 353.73-4.71-34.44 12.1-8.35 31.16.4 10.07 10.93-2.27 29.53-40.24 6.61z"/><path fill="#67808a" d="m598.86 351.8 2.27-29.53 42.31-12.31 5.89 4.65 2.54 45.74-44.16 1.45z"/><path fill="#a69ea4" d="m651.87 360.35-2.54-45.74 44.09-7.96 4.19 4.02 2.48 39.15-14.44 12.34-28.99 2.64z"/><path fill="#4a3943" d="m700.09 349.82-2.48-39.15 43.06-2.67 9.95 10.64-23.07 38.5z"/><path fill="#292a2f" d="m727.55 357.14 23.07-38.5 17.89 4.19 9.78 37-37.81 15.89z"/><path fill="#78969d" d="m778.29 359.83-9.78-37 16.21-10.91 28.45 4.15 7.12 33.03-34.33 15.06z"/><path fill="#86a4a3" d="m820.29 349.1-7.12-33.03 14.12-13.42 31.4 7.11 8.65 12.66-15.44 35.1-12.89 1.76z"/><path fill="#d9e4e4" d="m851.9 357.52 15.44-35.1 36.06.25 6.23 34.73-11.45 16.16-31.64-3.12z"/><path fill="#ccd4d9" d="m909.63 357.4-6.23-34.73 6.5-7.39 22.02-2.91 23.47 15.01 5.49 26.95-6.81 7.45z"/><path fill="#a8716b" d="m960.88 354.33-5.49-26.95 27.16-24.96 23.72 14.39-5.92 40.27z"/><path fill="#5c3323" d="m1000.35 357.08 5.92-40.27 24.98-10.94 18.46 15.49-11.23 40.68-36.28-3.1z"/><path fill="#5a2928" d="M1080 319.12v46.28l-37.15 1.11-4.37-4.47 11.23-40.68z"/><path fill="#35545f" d="M0 408.02v-43.83l40.73 5.82 2.82 33.02-7.89 7.06z"/><path fill="#2f5c6b" d="m43.55 403.03-2.82-33.02 13.96-13.45 23.51.19 3.5 2.73-.5 48.96-1.03 1.04z"/><path fill="#436777" d="m81.2 408.44.5-48.96 37.01 1.52 4.78 41.73z"/><path fill="#525960" d="M123.49 402.73 118.71 361l11.22-10.32 37.83 7.83-.23 40.99-33.45 11.86z"/><path fill="#3f4348" d="m167.53 399.5.23-40.99 4.68-3.56 46.15 10.18.89 1.41-1.8 30.45-37.9 10.4z"/><path fill="#515258" d="m217.68 396.99 1.8-30.45 47.69-1.28-10.48 39.85-34.88-4.05z"/><path fill="#5b5a5e" d="m256.69 405.11 10.48-39.85 2.4-1.88 20.12.34 12.59 43.96-4.66 6.55-33.54-.13z"/><path fill="#586865" d="m302.28 407.68-12.59-43.96 9.93-7.62 37.48 2.6-1.32 41.27z"/><path fill="#b6c6d0" d="m335.78 399.97 1.32-41.27 4.99-3.96 38.01 6.36 2.09 2.35 5.18 31.09-42.61 12.39z"/><path fill="#bfced4" d="m387.37 394.54-5.18-31.09 45.4-9.93 13.23 13.47-6.84 26.68-46.07 1.37z"/><path fill="#c7d5db" d="m433.98 393.67 6.84-26.68 29.74-8.8 14.84 5.82-2.81 36.26-14.53 11.29-27.64-5.98z"/><path fill="#bfced5" d="m482.59 400.27 2.81-36.26 15.76-5.1 13.71 6.1 11.16 35.95-12.21 12.54z"/><path fill="#c6d1d7" d="m526.03 400.96-11.16-35.95 37.64-11.28 6.11 4.68 2.21 38.94-4.03 4.52z"/><path fill="#aab7bf" d="m560.83 397.35-2.21-38.94 40.24-6.61 8.85 10-5.9 35.83z"/><path fill="#475a64" d="m601.81 397.63 5.9-35.83 44.16-1.45 4.79 4.45-3.84 32.11-12.94 13.61-26.39 3.93z"/><path fill="#21222b" d="m652.82 396.91 3.84-32.11 28.99-2.64 19.01 42.62-13.31 9.99z"/><path fill="#73474e" d="m685.65 362.16 14.44-12.34 27.46 7.32 12.93 18.58-4.1 25.81-4.67 3.46-27.05-.21z"/><path fill="#2c2827" d="m736.38 401.53 4.1-25.81 37.81-15.89 7.67 4.33 9.74 39.37-19.71 11.25z"/><path fill="#363e44" d="m795.7 403.53-9.74-39.37 34.33-15.06 18.72 10.18-16.56 39.45-17.74 7.15z"/><path fill="#2d3139" d="m822.45 398.73 16.56-39.45 12.89-1.76 14.64 12.92-8.48 44.36z"/><path fill="#61676e" d="m858.06 414.8 8.48-44.36 31.64 3.12 8.78 26.41-1 2.92-43.74 19.15z"/><path fill="#a59990" d="m906.96 399.97-8.78-26.41 11.45-16.16 44.44 4.38-1.91 31.77z"/><path fill="#996e73" d="m952.16 393.55 1.91-31.77 6.81-7.45 39.47 2.75 1.85 1.86-4.47 51.15-3.18 2.62-35.84-9.59z"/><path fill="#5b3623" d="m997.73 410.09 4.47-51.15 36.28 3.1 4.37 4.47.03 34.89-8.74 8.92z"/><path fill="#342d2a" d="M1080 365.4v41.87l-37.12-5.87-.03-34.89z"/><path fill="#253c43" d="M0 449.31v-41.29l35.66 2.07 3.38 40.98-.64.68z"/><path fill="#2c4955" d="m39.04 451.07-3.38-40.98 7.89-7.06 36.62 6.45.66 36.51z"/><path fill="#28434d" d="m80.83 445.99-.66-36.51 1.03-1.04 42.29-5.71 10.59 8.63-2.57 34.88-1.2 1.46-43.13 4.62z"/><path fill="#90a5b3" d="m131.51 446.24 2.57-34.88 33.45-11.86 12.25 7.89 5.28 38.12-4.89 6.04z"/><path fill="#58575b" d="m185.06 445.51-5.28-38.12 37.9-10.4 4.13 4.07.84 43.91z"/><path fill="#5b595d" d="m222.65 444.97-.84-43.91 34.88 4.05 7.39 8.99-11.83 35.26-23.01.94z"/><path fill="#59575a" d="m252.25 449.36 11.83-35.26 33.54.13 5.88 26.55-19.79 20.77-19.37-1.46z"/><path fill="#696f6f" d="m303.5 440.78-5.88-26.55 4.66-6.55 33.5-7.71 8.98 6.96 4.06 31.81-16.48 13.02z"/><path fill="#abbdc7" d="m348.82 438.74-4.06-31.81 42.61-12.39.54.5 5.62 44.88-11.25 8.25z"/><path fill="#99a7b1" d="m393.53 439.92-5.62-44.88 46.07-1.37 6.44 11.91-16.13 38.65z"/><path fill="#b1bfc8" d="m424.29 444.23 16.13-38.65 27.64 5.98 7.25 28.91-10.95 13.67-34.25-2.47z"/><path fill="#b0bec7" d="m475.31 440.47-7.25-28.91 14.53-11.29 31.23 13.23-.3 27.85-.73.71z"/><path fill="#acb9c2" d="m513.52 441.35.3-27.85 12.21-12.54 30.77.91 4.36 36.63-7.09 8.06z"/><path fill="#a5afb8" d="m561.16 438.5-4.36-36.63 4.03-4.52 40.98.28 11.68 16.82-9.52 25.2z"/><path fill="#24232d" d="m603.97 439.65 9.52-25.2 26.39-3.93 23.84 41.73-16.07 15.46-41.82-23.29z"/><path fill="#2e404d" d="m639.88 410.52 12.94-13.61 38.53 17.86-8.52 34.09-19.11 3.39z"/><path fill="#293542" d="m682.83 448.86 8.52-34.09 13.31-9.99 27.05.21-.28 44.2-34.67 9.56z"/><path fill="#484b59" d="m731.43 449.19.28-44.2 4.67-3.46 39.61 13.25-3 36.56-32.41 4.47z"/><path fill="#a0a0a9" d="m772.99 451.34 3-36.56 19.71-11.25 9.01 2.35 16.62 42.72-10.75 11.18-31.82-2.73z"/><path fill="#959da9" d="m804.71 405.88 17.74-7.15 35.61 16.07 4.16 7.24-1.35 15.16-10.03 9.49-29.51 1.91z"/><path fill="#a3a1aa" d="m860.87 437.2 1.35-15.16 43.74-19.15 12.54 35.57-21.35 16z"/><path fill="#816a5d" d="m918.5 438.46-12.54-35.57 1-2.92 45.2-6.42 6.55 9.57-20.07 39.63z"/><path fill="#584034" d="m938.64 442.75 20.07-39.63 35.84 9.59-1.85 30.52-7.51 9.9-36.07 2.75z"/><path fill="#3a2820" d="m992.7 443.23 1.85-30.52 3.18-2.62 36.41.23 11.17 35.41-7.5 10.65z"/><path fill="#67646d" d="M1080 407.27v33.74l-34.69 4.72-11.17-35.41 8.74-8.92z"/><path fill="#253940" d="M0 500.27v-50.96l38.4 2.44.28 39.51z"/><path fill="#6e8690" d="m38.68 491.26-.28-39.51.64-.68 41.79-5.08 6.35 6.33-2.53 33.69-40.18 9.2z"/><path fill="#5f7883" d="m84.65 486.01 2.53-33.69 43.13-4.62 5.82 45.08-6.45 6.35-34.12-1.04z"/><path fill="#8e9fab" d="m136.13 492.78-5.82-45.08 1.2-1.46 48.66 5.31 1.43 38.55-5.55 4.18z"/><path fill="#8699a7" d="m181.6 490.1-1.43-38.55 4.89-6.04 37.59-.54 6.59 5.33-11.54 43.19-4.4 2.11z"/><path fill="#788b99" d="m217.7 493.49 11.54-43.19 23.01-.94 12.09 10.73-12.62 41.93z"/><path fill="#788b97" d="m251.72 502.02 12.62-41.93 19.37 1.46 15.06 27.36-9.71 17.5-31.16 3.32z"/><path fill="#595a5e" d="m283.71 461.55 19.79-20.77 28.84 10.98.89 32.96-34.46 4.19z"/><path fill="#70777a" d="m333.23 484.72-.89-32.96 16.48-13.02 33.46 9.43-3.95 42.68-39.41-.67z"/><path fill="#acbcc6" d="m378.33 490.85 3.95-42.68 11.25-8.25 30.76 4.31 5.82 7.44-4.79 40.84-42.26 3.43z"/><path fill="#a5b5bd" d="m425.32 492.51 4.79-40.84 34.25 2.47 13.99 35.47-44.83 10.7z"/><path fill="#a8b6bf" d="m464.36 454.14 10.95-13.67 37.48 1.59-5.3 42.01-27.76 6.25-1.38-.71z"/><path fill="#a4afb8" d="m507.49 484.07 5.3-42.01.73-.71 40.55 5.21 4.15 41.32-4.92 3.91-28.32 3.29z"/><path fill="#a0a9b2" d="m558.22 487.88-4.15-41.32 7.09-8.06 42.81 1.15 1.86 4.77-16.03 46.37z"/><path fill="#7e7673" d="m589.8 490.79 16.03-46.37 41.82 23.29-2.51 19.94-54.74 3.69z"/><path fill="#9a6f65" d="m645.14 487.65 2.51-19.94 16.07-15.46 19.11-3.39 13.93 9.89 5.37 38.35-13.62 11.54-39.12-11.3z"/><path fill="#9a908f" d="m702.13 497.1-5.37-38.35 34.67-9.56 9.15 6.62-.68 35.93-12.92 9.32z"/><path fill="#888185" d="m739.9 491.74.68-35.93 32.41-4.47 5.77 5.71-6.64 40.65z"/><path fill="#918a8c" d="m772.12 497.7 6.64-40.65 31.82 2.73 5.93 33.25-10.77 11.78-30.5-3.23z"/><path fill="#969da5" d="m816.51 493.03-5.93-33.25 10.75-11.18 29.51-1.91 6.94 48.79-.89.9z"/><path fill="#898790" d="m857.78 495.48-6.94-48.79 10.03-9.49 36.28 17.26.83 35.6z"/><path fill="#765e4f" d="m897.98 490.06-.83-35.6 21.35-16 20.14 4.29 10.48 13.13-8.03 32.83-32.67 9.5z"/><path fill="#523d2c" d="m941.09 488.71 8.03-32.83 36.07-2.75 10.93 38.96-37.92 10.61z"/><path fill="#4c494f" d="m996.12 492.09-10.93-38.96 7.51-9.9 45.11 13.15.73 25.5-4.62 4.8-36.8 6.02z"/><path fill="#a6a3aa" d="M1080 441.01v49.41l-41.46-8.54-.73-25.5 7.5-10.65z"/><path fill="#617886" d="M0 539.14v-38.87l38.68-9.01 5.79 3.95 8.23 37.59-10.77 14.47z"/><path fill="#799099" d="m52.7 532.8-8.23-37.59 40.18-9.2 10.91 12.08-10.76 32.97z"/><path fill="#2f4c5e" d="m84.8 531.06 10.76-32.97 34.12 1.04 3.79 42.32-9.96 6.96-26.22-2.38z"/><path fill="#908e8f" d="m133.47 541.45-3.79-42.32 6.45-6.35 39.92 1.5-1.8 48.28-9.65 6.12z"/><path fill="#738591" d="m174.25 542.56 1.8-48.28 5.55-4.18 31.7 5.5.24 49.9-2.53 3.33z"/><path fill="#73818a" d="m213.54 545.5-.24-49.9 4.4-2.11 34.02 8.53 6.18 7.71-4.59 22.99z"/><path fill="#737e85" d="m253.31 532.72 4.59-22.99 31.16-3.32 19.89 33.3-5.62 9.53-36.28 2.51z"/><path fill="#697984" d="m289.06 506.41 9.71-17.5 34.46-4.19 5.69 5.46-7.85 42.11-22.12 7.42z"/><path fill="#667781" d="m331.07 532.29 7.85-42.11 39.41.67 4.73 5.09-1.48 31.2-32.57 14.14z"/><path fill="#6a7b85" d="m381.58 527.14 1.48-31.2 42.26-3.43 8.2 7.8 1.88 31.49-8.89 7.85-37.07-4.34z"/><path fill="#9ca7b0" d="m435.4 531.8-1.88-31.49 44.83-10.7 1.38.71 1.6 50.42-7.05 3.92z"/><path fill="#9daab3" d="m481.33 540.74-1.6-50.42 27.76-6.25 17.49 11.01-11.64 50.77z"/><path fill="#9ba5ad" d="m513.34 545.85 11.64-50.77 28.32-3.29 5.62 53.64-40.81 4.92z"/><path fill="#9da5ad" d="m558.92 545.43-5.62-53.64 4.92-3.91 31.58 2.91.6.55 10.51 36.09-13.68 18.85-20.33 3.61z"/><path fill="#8f8d91" d="m600.91 527.43-10.51-36.09 54.74-3.69 4.25 9.69-13.98 31.21z"/><path fill="#656365" d="m635.41 528.55 13.98-31.21 39.12 11.3.52 32.2-8.65 8.9-36.47-4.95z"/><path fill="#747276" d="m689.03 540.84-.52-32.2 13.62-11.54 24.85 3.96 12.05 39.92-6.9 9.86z"/><path fill="#7e838e" d="m739.03 540.98-12.05-39.92 12.92-9.32 32.22 5.96 3.12 3.88-10.51 32.82z"/><path fill="#0d1013" d="m764.73 534.4 10.51-32.82 30.5 3.23 7.15 30.82-26.47 15.36z"/><path fill="#7e818d" d="m812.89 535.63-7.15-30.82 10.77-11.78 40.38 3.35-2.12 41.66-21.83 7.11z"/><path fill="#b8c4cc" d="m854.77 538.04 2.12-41.66.89-.9 40.2-5.42 10.44 8.15-.01 28.77-41.63 18.44z"/><path fill="#b4b9be" d="m908.41 526.98.01-28.77 32.67-9.5 17.11 13.99.16 33.14-41.5.77z"/><path fill="#898f9d" d="m958.36 535.84-.16-33.14 37.92-10.61 1 .61 5 40.36-17.63 11.98-21.31-3.39z"/><path fill="#9c9ba6" d="m1002.12 533.06-5-40.36 36.8-6.02 6.84 46.03-8.33 8.04z"/><path fill="#68697e" d="M1080 490.42v38.76l-39.24 3.53-6.84-46.03 4.62-4.8z"/><path fill="#233740" d="M0 588.86v-49.72l41.93 8.13 6.62 25.34-7.83 9.61z"/><path fill="#8597a1" d="m48.55 572.61-6.62-25.34L52.7 532.8l32.1-1.74 12.49 14.97-18.94 34.49z"/><path fill="#2b414c" d="m78.35 580.52 18.94-34.49 26.22 2.38-.15 37.5-36.08 7.72z"/><path fill="#46505b" d="m123.36 585.91.15-37.5 9.96-6.96 31.13 7.23.33 40.97-23.91 10.81z"/><path fill="#6d808e" d="m164.93 589.65-.33-40.97 9.65-6.12 36.76 6.27 6.64 24.83-37.85 23.13z"/><path fill="#6f7c85" d="m217.65 573.66-6.64-24.83 2.53-3.33 39.77-12.78 13.74 19.03-11.9 28.83-28.76-.13z"/><path fill="#6d7882" d="m255.15 580.58 11.9-28.83 36.28-2.51 6.01 28.91-16.55 17.86-24.08.6z"/><path fill="#61869b" d="m309.34 578.15-6.01-28.91 5.62-9.53 22.12-7.42 17.94 8.99 6.78 36.78-15.4 10.49z"/><path fill="#67717a" d="m355.79 578.06-6.78-36.78 32.57-14.14 7.86 8.17-3.1 48.1z"/><path fill="#666f79" d="m386.34 583.41 3.1-48.1 37.07 4.34-3.23 38.26-36.89 5.55z"/><path fill="#7e848b" d="m423.28 577.91 3.23-38.26 8.89-7.85 38.88 12.86-9.42 34.86-34.05 4.1z"/><path fill="#444d58" d="m464.86 579.52 9.42-34.86 7.05-3.92 32.01 5.11 4.77 4.5-.2 41.78-39.36 5.4z"/><path fill="#433f40" d="m517.91 592.13.2-41.78 40.81-4.92 7.98 4.46-4.47 44.85-43.55-1.63z"/><path fill="#544f4c" d="m562.43 594.74 4.47-44.85 20.33-3.61 26.7 33.1-11.19 13.83-35.07 7.13z"/><path fill="#544e4c" d="m587.23 546.28 13.68-18.85 34.5 1.12 8.5 16.24-14.86 33.11-15.12 1.48z"/><path fill="#56504f" d="m629.05 577.9 14.86-33.11 36.47 4.95 1.54 34.05-42.66 3.13z"/><path fill="#5b5653" d="m681.92 583.79-1.54-34.05 8.65-8.9 43.1 10 2.28 18.47-12.82 17.94-33.67 3.8z"/><path fill="#625753" d="m734.41 569.31-2.28-18.47 6.9-9.86 25.7-6.58 21.69 16.59-1.96 26.92-11.57 7.13z"/><path fill="#94adbc" d="m784.46 577.91 1.96-26.92 26.47-15.36 20.05 9.52-7.54 39-11.34 5.52z"/><path fill="#9ba9b2" d="m825.4 584.15 7.54-39 21.83-7.11 12.01 7.38 11.17 31.97-18.43 20.47z"/><path fill="#bbc6cc" d="m877.95 577.39-11.17-31.97 41.63-18.44 8.45 9.63-.71 37.39-8.7 7.81z"/><path fill="#bdc7cd" d="m916.15 574 .71-37.39 41.5-.77 4.82 5.81-14.73 34.25z"/><path fill="#bdc9cf" d="m948.45 575.9 14.73-34.25 21.31 3.39 12.44 42.37-35.54 6.77z"/><path fill="#a5aab1" d="m996.93 587.41-12.44-42.37 17.63-11.98 30.31 7.69 2.68 31.77-9.24 11.82-22.5 6.32z"/><path fill="#bec5cb" d="M1080 529.18v48.37l-44.89-5.03-2.68-31.77 8.33-8.04z"/><path fill="#242a2c" d="M0 621.8v-32.94l40.72-6.64 2.55 43.52z"/><path fill="#1a2529" d="m43.27 625.74-2.55-43.52 7.83-9.61 29.8 7.91 8.93 13.11-2.83 24.48-9.8 9.3-26.97 2.39z"/><path fill="#29353b" d="m84.45 618.11 2.83-24.48 36.08-7.72 17.66 14.55-5.54 24.79-10.1 6.85z"/><path fill="#949397" d="m135.48 625.25 5.54-24.79 23.91-10.81 14.87 7.14 11.42 28.81-20.93 20.4z"/><path fill="#6a7b88" d="m191.22 625.6-11.42-28.81 37.85-23.13 8.74 6.79-4.28 49.55-1.45 1z"/><path fill="#575457" d="m222.11 630 4.28-49.55 28.76.13 13.56 16.03-12.6 33.24z"/><path fill="#544b48" d="m256.11 629.85 12.6-33.24 24.08-.6 16.47 37.68-.96.97-43.22 5.82z"/><path fill="#588295" d="m292.79 596.01 16.55-17.86 31.05 10.4-.58 42.5-30.55 2.64z"/><path fill="#46768c" d="m339.81 631.05.58-42.5 15.4-10.49 30.55 5.35.05.05 1.45 38.2-46.81 10.3z"/><path fill="#568194" d="m387.84 621.66-1.45-38.2 36.89-5.55 7.53 5.71.82 43.57-41.28-3.15z"/><path fill="#65889c" d="m431.63 627.19-.82-43.57 34.05-4.1 13.69 18.01-9.57 30.21-36.94-.15z"/><path fill="#738c9c" d="m468.98 627.74 9.57-30.21 39.36-5.4.97.98 2.57 41.33-43.69 5.75z"/><path fill="#14232b" d="m521.45 634.44-2.57-41.33 43.55 1.63 5.24 5.6-.06 24.94-3.62 4.63-40.3 6.74z"/><path fill="#7c7c7f" d="m567.61 625.28.06-24.94 35.07-7.13 10.31 38.1-6.57 5.75z"/><path fill="#44403f" d="m613.05 631.31-10.31-38.1 11.19-13.83 15.12-1.48 10.21 9.02 5.26 41.59-.82.9z"/><path fill="#4c4846" d="m644.52 628.51-5.26-41.59 42.66-3.13 6 7.26-5.63 31.34z"/><path fill="#544f4d" d="m682.29 622.39 5.63-31.34 33.67-3.8 16.09 39.22-3.72 5.83-41.27 2.22z"/><path fill="#49413e" d="m721.59 587.25 12.82-17.94 38.48 15.73-7.07 32.43-28.14 9z"/><path fill="#594f47" d="m765.82 617.47 7.07-32.43 11.57-7.13 29.6 11.76-4.36 40.04-23.03 2.97z"/><path fill="#99a5ab" d="m809.7 629.71 4.36-40.04 11.34-5.52 34.12 13.71 2.02 23.02-46.71 12.6z"/><path fill="#a1aeb6" d="m861.54 620.88-2.02-23.02 18.43-20.47 29.5 4.42 9.48 45.83-.96.9-43.61 5.37z"/><path fill="#a9b2b9" d="m916.93 627.64-9.48-45.83 8.7-7.81 32.3 1.9 12.94 18.28-8.38 22.48-16.91 10.17z"/><path fill="#a6adb3" d="m953.01 616.66 8.38-22.48 35.54-6.77 6.44 3.25-1.99 41-13.5 6.41z"/><path fill="#a4a9af" d="m1028.41 644.86-27.03-13.2 1.99-41 22.5-6.32 26 40.48z"/><path fill="#bdc6cd" d="M1080 577.55v46.36l-28.13.91-26-40.48 9.24-11.82z"/><path fill="#3c3f44" d="M0 668v-46.2l43.27 3.94 4.41 4.06-9.61 37.01z"/><path fill="#637384" d="m38.07 666.81 9.61-37.01 26.97-2.39 14.67 42.99-4.68 7.31-35.46 2.79z"/><path fill="#6c737e" d="m89.32 670.4-14.67-42.99 9.8-9.3 40.93 13.99-6.52 29.33z"/><path fill="#888e97" d="m118.86 661.43 6.52-29.33 10.1-6.85L170.29 646l.18 24.9-34.64 6.03z"/><path fill="#787f84" d="m170.47 670.9-.18-24.9 20.93-20.4 29.44 5.4-1.3 35.87-17.72 14.27-27.73-6.59z"/><path fill="#544b46" d="m219.36 666.87 1.3-35.87 1.45-1 34-.15 8.97 10.63-.28 33.4-9.5 6.9z"/><path fill="#5a5c65" d="m264.8 673.88.28-33.4 43.22-5.82-6.8 45.74-1.77 1.97z"/><path fill="#49758a" d="m301.5 680.4 6.8-45.74.96-.97 30.55-2.64 1.22.91 10.84 38.88z"/><path fill="#3b6f83" d="m351.87 670.84-10.84-38.88 46.81-10.3 2.51 2.38-.64 44.46-3.3 3.44-33.14.25z"/><path fill="#557e92" d="m389.71 668.5.64-44.46 41.28 3.15.41.4-4.38 36.98z"/><path fill="#53798c" d="m427.66 664.57 4.38-36.98 36.94.15 8.78 12.45-2.29 29.46-41.62 1.88z"/><path fill="#537485" d="m475.47 669.65 2.29-29.46 43.69-5.75 2.24 2.21 3.91 31.46-6.83 6.72-44.34-3.72z"/><path fill="#718696" d="m527.6 668.11-3.91-31.46 40.3-6.74 3.81 39.83-7.57 5.46z"/><path fill="#68808f" d="m567.8 669.74-3.81-39.83 3.62-4.63 38.87 11.78-5.41 34.74z"/><path fill="#476a7e" d="m601.07 671.8 5.41-34.74 6.57-5.75 30.65-1.9 6.07 43.95-43.1 4.76z"/><path fill="#8a969d" d="m649.77 673.36-6.07-43.95.82-.9 37.77-6.12 10.4 12.13-7.29 43.91-29.39-.45z"/><path fill="#8b898c" d="m685.4 678.43 7.29-43.91 41.27-2.22 6.37 32.61-21.5 18.56-33.19-4.83z"/><path fill="#615853" d="m740.33 664.91-6.37-32.61 3.72-5.83 28.14-9 20.85 15.21-13.13 39.71-4.26 2.74z"/><path fill="#544943" d="m773.54 672.39 13.13-39.71 23.03-2.97 5.13 3.77 9.87 33.71-7.24 10.74z"/><path fill="#6f666a" d="m824.7 667.19-9.87-33.71 46.71-12.6 10.82 13.03-7.64 31.15z"/><path fill="#9ca9b2" d="m864.72 665.06 7.64-31.15 43.61-5.37-.14 50.41-2.98 1.81-42.11-5.7z"/><path fill="#9fa9b2" d="m915.83 678.95.14-50.41.96-.9 19.17-.81 29.09 49.69-13.42 11.05z"/><path fill="#a0a9b0" d="m965.19 676.52-29.09-49.69 16.91-10.17 34.87 21.41-15.34 36.65z"/><path fill="#9ea5ad" d="m972.54 674.72 15.34-36.65 13.5-6.41 27.03 13.2 2.22 21.78-35.82 19.15z"/><path fill="#9ea1a7" d="M1080 623.91v55.42l-35.55-.36-13.82-12.33-2.22-21.78 23.46-20.04z"/><path fill="#a1abb5" d="M0 716.3V668l38.07-1.19 11.11 13.69-8.57 32.85z"/><path fill="#868f99" d="m40.61 713.35 8.57-32.85 35.46-2.79 12.2 34.48-13.53 15.52-29.73 1.06z"/><path fill="#8b9daa" d="m96.84 712.19-12.2-34.48 4.68-7.31 29.54-8.97 16.97 15.5-9.12 35.34-2.17 1.38z"/><path fill="#6b737e" d="m126.71 712.27 9.12-35.34 34.64-6.03 3.44 3.65-10.16 44.44z"/><path fill="#63686c" d="m163.75 718.99 10.16-44.44 27.73 6.59 9.34 31.68-9.26 13.31-34.3-2.33z"/><path fill="#59514e" d="m210.98 712.82-9.34-31.68 17.72-14.27 35.94 13.91-6.4 32.2z"/><path fill="#595557" d="m248.9 712.98 6.4-32.2 9.5-6.9 34.93 8.49 5.05 27.73-10.42 14.76-39.06-2.59z"/><path fill="#30687b" d="m304.78 710.1-5.05-27.73 1.77-1.97 50.37-9.56 1.4 1.35-6.04 43.38z"/><path fill="#366b7c" d="m347.23 715.57 6.04-43.38 33.14-.25 11.93 40.52-1.99 3.04-44.35 6.51z"/><path fill="#557e90" d="m398.34 712.46-11.93-40.52 3.3-3.44 37.95-3.93 6.19 6.96-3.25 33.79z"/><path fill="#426f82" d="m430.6 705.32 3.25-33.79 41.62-1.88.96 1.46-.63 35.33-32.36 8.14z"/><path fill="#376070" d="m475.8 706.44.63-35.33 44.34 3.72-2.69 41.28-34.45-2.76z"/><path fill="#466a78" d="m518.08 716.11 2.69-41.28 6.83-6.72 32.63 7.09-1.34 46.87-1.3 1.21-36.58-4.41z"/><path fill="#3e6574" d="m558.89 722.07 1.34-46.87 7.57-5.46 33.27 2.06 5.6 6.32-2.73 37.96z"/><path fill="#3a5f6c" d="m603.94 716.08 2.73-37.96 43.1-4.76 6.24 4.62-12.6 42.83-36.36-1.73z"/><path fill="#3a5f68" d="m643.41 720.81 12.6-42.83 29.39.45.24.21-.22 56.23-33.99-5.12z"/><path fill="#30565f" d="m685.42 734.87.22-56.23 33.19 4.83 14.54 41.82-46.59 10.9z"/><path fill="#335862" d="m733.37 725.29-14.54-41.82 21.5-18.56 28.95 10.22.72 38.3-33.44 13.52z"/><path fill="#85929a" d="m770 713.43-.72-38.3 4.26-2.74 43.92 5.54 3.22 30.94-35.92 12.59z"/><path fill="#b0a19b" d="m820.68 708.87-3.22-30.94 7.24-10.74 40.02-2.13 6.02 10-8.34 36.35-11.17 7.67-14.4 1z"/><path fill="#919ca5" d="m862.4 711.41 8.34-36.35 42.11 5.7-10.94 42.51z"/><path fill="#959ea7" d="m901.91 723.27 10.94-42.51 2.98-1.81 35.94 8.62-.08 31.56-44.56 12.57z"/><path fill="#99a1a8" d="m951.69 719.13.08-31.56 13.42-11.05 7.35-1.8 22.27 11.07 11.52 35.9-11.4 12.8-34.6-4.68z"/><path fill="#99a0a8" d="m1006.33 721.69-11.52-35.9 35.82-19.15 13.82 12.33-11.97 41.54z"/><path fill="#989da3" d="M1080 679.33v37.58l-38.14 10.69-9.38-7.09 11.97-41.54z"/><path fill="#aebbc7" d="M0 758.25V716.3l40.61-2.95 12.97 15.42-10.99 32.56z"/><path fill="#627b89" d="m42.59 761.33 10.99-32.56 29.73-1.06 12.3 33.77-18.04 21.24-29.54-11.85z"/><path fill="#677d8b" d="m95.61 761.48-12.3-33.77 13.53-15.52 27.7 1.46 5.43 50.06z"/><path fill="#627888" d="m129.97 763.71-5.43-50.06 2.17-1.38 37.04 6.72 3.67 4.81-10.18 39.06-22.3 4.5z"/><path fill="#6f7277" d="m157.24 762.86 10.18-39.06 34.3 2.33 7.38 30.11-32.52 17.39z"/><path fill="#554d4a" d="m209.1 756.24-7.38-30.11 9.26-13.31 37.92.16 6.4 9.29-8.83 33.86-21.81 7.83z"/><path fill="#4f5a61" d="m246.47 756.13 8.83-33.86 39.06 2.59 6.02 24.76-32.85 21.25z"/><path fill="#235c6d" d="m300.38 749.62-6.02-24.76 10.42-14.76 42.45 5.47 4.77 6.44-3.24 31.86-3.63 3.5-27.33 4.87z"/><path fill="#3a6b7c" d="m348.76 753.87 3.24-31.86 44.35-6.51 7.49 37.42-14.34 11.39z"/><path fill="#4c7587" d="m403.84 752.92-7.49-37.42 1.99-3.04 32.26-7.14 12.84 9.26-1.84 41.53-8.32 3.51z"/><path fill="#2d5969" d="m441.6 756.11 1.84-41.53 32.36-8.14 7.83 6.91-9.03 49.34-4.35 2.04z"/><path fill="#264d5b" d="m474.6 762.69 9.03-49.34 34.45 2.76 2.93 2.76-12.78 47.63z"/><path fill="#30545f" d="m508.23 766.5 12.78-47.63 36.58 4.41 3.59 39.64-42.73 13.73z"/><path fill="#395b62" d="m561.18 762.92-3.59-39.64 1.3-1.21 45.05-5.99 3.11 3 .98 43.07-16.51 10.69-20.6-1.73z"/><path fill="#385a64" d="m608.03 762.15-.98-43.07 36.36 1.73 8.02 8.94-15.48 39.67z"/><path fill="#2c515a" d="m635.95 769.42 15.48-39.67 33.99 5.12 1.36 1.32.72 26.86-45.56 13.88z"/><path fill="#2b4c54" d="m687.5 763.05-.72-26.86 46.59-10.9 3.19 1.66 7.4 42.08-6.26 7.68-42.32-2.49z"/><path fill="#2c4f56" d="m743.96 769.03-7.4-42.08L770 713.43l14.76 8.03 6.03 41.94-6.92 6.05z"/><path fill="#455a60" d="m790.79 763.4-6.03-41.94 35.92-12.59 16.15 11.21L822 765.05z"/><path fill="#6f7175" d="m822 765.05 14.83-44.97 14.4-1 21.51 45.57-17.04 11.42-28.56-5.62z"/><path fill="#737478" d="m872.74 764.65-21.51-45.57 11.17-7.67 39.51 11.86 5.22 8.43-1.7 16.73-16.5 16.62z"/><path fill="#63656a" d="m905.43 748.43 1.7-16.73 44.56-12.57 8.64 10.68-14.28 40.52z"/><path fill="#616266" d="m946.05 770.33 14.28-40.52 34.6 4.68 4.36 28.01-18.37 18.16-34.26-8.7z"/><path fill="#96959a" d="m999.29 762.5-4.36-28.01 11.4-12.8 26.15-1.18 9.38 7.09 5.83 31.87-17.76 15.95z"/><path fill="#91959c" d="M1080 716.91v49.54l-32.31-6.98-5.83-31.87z"/><path fill="#a9b6be" d="M0 803.91v-45.66l42.59 3.08 5.44 9.54L27.91 806z"/><path fill="#a2afb8" d="m27.91 806 20.12-35.13 29.54 11.85 3.97 16.91-38.01 23.16z"/><path fill="#828084" d="m81.54 799.63-3.97-16.91 18.04-21.24 34.36 2.23 4.97 3.65-7.09 44.39-33.66-.33z"/><path fill="#8e979e" d="m127.85 811.75 7.09-44.39 22.3-4.5 19.34 10.77 4.71 26.16-13.4 15.81-35.78.83z"/><path fill="#534c49" d="m181.29 799.79-4.71-26.16 32.52-17.39 15.56 7.72-.1 41.23-6.35 4.91z"/><path fill="#564e4b" d="m224.56 805.19.1-41.23 21.81-7.83 21.06 14.74 5.1 26.56-11.84 13.3z"/><path fill="#1f5162" d="m272.63 797.43-5.1-26.56 32.85-21.25 17.42 12.62-10.76 38.3z"/><path fill="#1b4e5d" d="m307.04 800.54 10.76-38.3 27.33-4.87 8.86 48.18-13.9 8.88-25.59-4.57z"/><path fill="#285b6c" d="m353.99 805.55-8.86-48.18 3.63-3.5 40.74 10.44-.43 41.29-4.2 3.45z"/><path fill="#446e7e" d="m389.07 805.6.43-41.29 14.34-11.39 29.44 6.7-8.74 46.99z"/><path fill="#295565" d="m424.54 806.61 8.74-46.99 8.32-3.51 28.65 8.62-3.54 45.32-28.4 8.12z"/><path fill="#1d424b" d="m466.71 810.05 3.54-45.32 4.35-2.04 33.63 3.81 10.22 10.15-.22 31.57-.75.58-48.34 2.68z"/><path fill="#2e5057" d="m518.23 808.22.22-31.57 42.73-13.73 9.74 8.19-14 51.74z"/><path fill="#345358" d="m556.92 822.85 14-51.74 20.6 1.73L606 815.45l-45.52 12.37z"/><path fill="#2f5059" d="m606 815.45-14.48-42.61 16.51-10.69 27.92 7.27 5.99 7.51 1.51 21.36-31.52 19.94z"/><path fill="#28474f" d="m643.45 798.29-1.51-21.36 45.56-13.88 7.88 11.17-9.14 33.4-23.28 4.45z"/><path fill="#283e43" d="m686.24 807.62 9.14-33.4 42.32 2.49 1.57 26.9-17.61 19.68-16.68 1.46z"/><path fill="#274146" d="m739.27 803.61-1.57-26.9 6.26-7.68 39.91.42 3.86 43.3-9.94 9.25z"/><path fill="#5d5d5f" d="m787.73 812.75-3.86-43.3 6.92-6.05 31.21 1.65 5.14 5.4-7.96 43.67z"/><path fill="#696a6e" d="m819.18 814.12 7.96-43.67 28.56 5.62 4.44 39.44-31.56 6.83z"/><path fill="#69696b" d="m860.14 815.51-4.44-39.44 17.04-11.42 16.19.4 13.87 34.73-38.07 18.3z"/><path fill="#6e6c6e" d="m902.8 799.78-13.87-34.73 16.5-16.62 40.62 21.9.61 1.63-13.73 27.57-19.04 5.95z"/><path fill="#6c6867" d="m932.93 799.53 13.73-27.57 34.26 8.7 4.96 26.98-29.68 13.88z"/><path fill="#686463" d="m985.88 807.64-4.96-26.98 18.37-18.16 30.64 12.92 2.94 29.62-8.06 9.96-25.17 1.75z"/><path fill="#5c5b5b" d="M1080 766.45v42.21l-47.13-3.62-2.94-29.62 17.76-15.95z"/><path fill="#a4abb3" d="M0 854.06v-50.15L27.91 806l15.62 16.79 1.54 22.97z"/><path fill="#a5acb4" d="m45.07 845.76-1.54-22.97 38.01-23.16 12.65 11.79-13.63 45.08-30.77-6.1z"/><path fill="#b3b5ba" d="m80.56 856.5 13.63-45.08 33.66.33 4.26 4.68-.58 30.88-11.79 15.14-38.35-5z"/><path fill="#384653" d="m131.53 847.31.58-30.88 35.78-.83 12.89 31.37-12.13 12.17z"/><path fill="#5b5551" d="m180.78 846.97-12.89-31.37 13.4-15.81 36.92 10.31-5.38 35.44-3.64 3.12z"/><path fill="#57504c" d="m212.83 845.54 5.38-35.44 6.35-4.91 36.23 5.54 6.75 37.18-9.58 7.3z"/><path fill="#164451" d="m267.54 847.91-6.75-37.18 11.84-13.3 34.41 3.11 7.46 9.32-19.12 43.94z"/><path fill="#17424e" d="m295.38 853.8 19.12-43.94 25.59 4.57 5.18 44.7-.32.51-44.22.12z"/><path fill="#1d4c5c" d="m345.27 859.13-5.18-44.7 13.9-8.88 30.88 3.5 1.17 35.53z"/><path fill="#36626f" d="m386.04 844.58-1.17-35.53 4.2-3.45 35.47 1.01 13.77 11.56-5.85 35.88-31.51 4.46z"/><path fill="#20414a" d="m432.46 854.05 5.85-35.88 28.4-8.12 2.43 1.43 16.51 49.5-.73.6-50.07-5.01z"/><path fill="#1c3a42" d="m485.65 860.98-16.51-49.5 48.34-2.68-13.75 49.35z"/><path fill="#213f44" d="m503.73 858.15 13.75-49.35.75-.58 38.69 14.63 3.56 4.97-.08 7.96-38.27 32.25z"/><path fill="#254347" d="m560.4 835.78.08-7.96L606 815.45l5.93 2.78 8.53 30.01-20.84 17.31-22.87-4.55z"/><path fill="#294246" d="m620.46 848.24-8.53-30.01 31.52-19.94 19.51 13.78-7.89 38.73-10.01 5.57z"/><path fill="#293c40" d="m655.07 850.8 7.89-38.73 23.28-4.45 18.74 17.13-14.46 34.98-.21.1z"/><path fill="#27393b" d="m690.52 859.73 14.46-34.98 16.68-1.46 21.89 33.32-15.38 18.43z"/><path fill="#273b3c" d="m743.55 856.61-21.89-33.32 17.61-19.68L777.79 822l-3.2 26.86-5.3 4.79z"/><path fill="#636163" d="m774.59 848.86 3.2-26.86 9.94-9.25 31.45 1.37 9.4 8.22-3.5 31.7-9.89 8.39z"/><path fill="#5f5f61" d="m825.08 854.04 3.5-31.7 31.56-6.83 4.59 2.57 11.78 31.16-10.88 15.95z"/><path fill="#5f5d5e" d="m876.51 849.24-11.78-31.16 38.07-18.3 11.09 5.7-2.62 40.13-2.86 2.26z"/><path fill="#605c5c" d="m911.27 845.61 2.62-40.13 19.04-5.95 23.27 21.99-3.13 28.12-3.24 1.96z"/><path fill="#625e5d" d="m953.07 849.64 3.13-28.12 29.68-13.88 13.76 9.11-13.24 43.41z"/><path fill="#625e5b" d="m986.4 860.16 13.24-43.41 25.17-1.75 10.42 33.07-9.58 16.21-32.65 4.58z"/><path fill="#67625f" d="M1080 808.66v40.11l-44.77-.7-10.42-33.07 8.06-9.96z"/><path fill="#a6aaae" d="M0 892.56v-38.5l45.07-8.3 4.72 4.64-14.32 47.15z"/><path fill="#acafb2" d="m35.47 897.55 14.32-47.15 30.77 6.1.83.95-3.07 43.17-.85.79-39.93-1.87z"/><path fill="#8d8a8c" d="m78.32 900.62 3.07-43.17 38.35 5 8.45 27.56-9.58 14.01z"/><path fill="#6a747b" d="m128.19 890.01-8.45-27.56 11.79-15.14 37.12 11.83-1.65 33z"/><path fill="#4f4845" d="m167 892.14 1.65-33 12.13-12.17 28.41 1.69 1.79 44.78-5.32 5.48-31.08 1.3z"/><path fill="#544c49" d="m210.98 893.44-1.79-44.78 3.64-3.12 45.13 9.67-8.19 35.6z"/><path fill="#19373f" d="m249.77 890.81 8.19-35.6 9.58-7.3 27.84 5.89 5.35 5.96-1.77 39.02-39.35 3.97z"/><path fill="#183a41" d="m298.96 898.78 1.77-39.02 44.22-.12 7.08 27.87-6.64 11.82-39.44 6.98z"/><path fill="#1d4a58" d="m352.03 887.51-7.08-27.87.32-.51 40.77-14.55 14.91 13.93-9.92 31.78z"/><path fill="#214754" d="m391.03 890.29 9.92-31.78 31.51-4.46 2.39 2.52 4.2 43.36-19.58 11.85-20.74-8.59z"/><path fill="#1d3a40" d="m439.05 899.93-4.2-43.36 50.07 5.01-11.46 47.38z"/><path fill="#1b3236" d="m473.46 908.96 11.46-47.38.73-.6 18.08-2.83 18.4 9.88 7.98 17.98-13.83 23.73-41.36 1.36z"/><path fill="#264144" d="m530.11 886.01-7.98-17.98 38.27-32.25L576.75 861l-18.78 30.95z"/><path fill="#223a3d" d="M557.97 891.95 576.75 861l22.87 4.55 8 35.22-37.36 11.01z"/><path fill="#26393d" d="m607.62 900.77-8-35.22 20.84-17.31 24.6 8.13.76 37.81-5.42 5.44-25.93 5.11z"/><path fill="#2a3c3e" d="m645.82 894.18-.76-37.81 10.01-5.57 35.24 9.03-9.3 38.54z"/><path fill="#2b3a3d" d="m681.01 898.37 9.3-38.54.21-.1 37.65 15.31 1.18 19.25-41.95 12.13z"/><path fill="#2a393c" d="m729.35 894.29-1.18-19.25 15.38-18.43 25.74-2.96 6.38 47.78-35.9 5.59z"/><path fill="#615d5d" d="m775.67 901.43-6.38-47.78 5.3-4.79 40.6 13.57-.26 30.6-35.07 10.89z"/><path fill="#605e60" d="m814.93 893.03.26-30.6 9.89-8.39 40.55 11.15 1.94 20.28-10.74 12.88-29.67 4.61z"/><path fill="#5e5a58" d="m867.57 885.47-1.94-20.28 10.88-15.95 31.9-1.37 3.88 46.31-6.32 3.89z"/><path fill="#5e5a5a" d="m912.29 894.18-3.88-46.31 2.86-2.26 38.56 5.99-9.9 44.11z"/><path fill="#605d59" d="m939.93 895.71 9.9-44.11 3.24-1.96 33.33 10.52 6.6 8.7-5.89 25.15-38.96 9.2z"/><path fill="#5f5a56" d="m998.85 910.86-11.74-16.85 5.89-25.15 32.65-4.58 17.55 29.82-6.73 14.01z"/><path fill="#5d5856" d="M1080 848.77v36.25l-36.8 9.08-17.55-29.82 9.58-16.21z"/><path fill="#adacae" d="M0 945.47v-52.91l35.47 4.99 2.07 1.99.38 42.41-7.18 6.32z"/><path fill="#aeadaf" d="m37.92 941.95-.38-42.41 39.93 1.87-.79 41z"/><path fill="#aaa6a7" d="m76.68 942.41.79-41 .85-.79 40.29 3.4 6.09 32.95-45.54 7.9z"/><path fill="#44505c" d="m124.7 936.97-6.09-32.95 9.58-14.01 38.81 2.13 7.58 8.08-11.99 37.48-33.35 3.12z"/><path fill="#645955" d="m162.59 937.7 11.99-37.48 31.08-1.3 14.86 46.7-.65.86-43.72 6.56z"/><path fill="#4f4744" d="m220.52 945.62-14.86-46.7 5.32-5.48 38.79-2.63 9.84 11.94-5.66 35.7z"/><path fill="#737d8c" d="m253.95 938.45 5.66-35.7 39.35-3.97 6.99 7.53-.8 31.94-43.34 6.1z"/><path fill="#172f35" d="m305.15 938.25.8-31.94 39.44-6.98 13.65 39.56-16.99 12.14-30.22-4.81z"/><path fill="#1a3f48" d="m359.04 938.89-13.65-39.56 6.64-11.82 39 2.78 7.7 12.9-31.91 36.57z"/><path fill="#1f3b44" d="m366.82 939.76 31.91-36.57 20.74 8.59 1.79 29.98-40.34 9.25z"/><path fill="#1f3137" d="m421.26 941.76-1.79-29.98 19.58-11.85 34.41 9.03 1.46 2.14-1.75 28.79-43.2 12.15z"/><path fill="#1b2c30" d="m473.17 939.89 1.75-28.79 41.36-1.36 15.75 31.29-12.25 11.72-41.55-5.59z"/><path fill="#21373a" d="m532.03 941.03-15.75-31.29 13.83-23.73 27.86 5.94 12.29 19.83-4.54 17.35-18.31 12.26z"/><path fill="#243336" d="m565.72 929.13 4.54-17.35 37.36-11.01 6.85 3.96-.82 43.67-12.85 5.91z"/><path fill="#2a3839" d="m613.65 948.4.82-43.67 25.93-5.11 14.16 41.45-16.35 14.47z"/><path fill="#2b3a3c" d="m654.56 941.07-14.16-41.45 5.42-5.44 35.19 4.19 6.39 8.05.19 32.42z"/><path fill="#2c3c3f" d="m687.59 938.84-.19-32.42 41.95-12.13 10.42 12.73-7.24 34.64-44.04-1.96z"/><path fill="#28383b" d="m732.53 941.66 7.24-34.64 35.9-5.59 4.19 2.49 5.98 38.09-5.52 6.99-44.22-2.54z"/><path fill="#646468" d="m785.84 942.01-5.98-38.09 35.07-10.89 12.23 9.93-3.47 37.25z"/><path fill="#575355" d="m823.69 940.21 3.47-37.25 29.67-4.61 15.14 43.78-1.25 1.19-41.8 2.35z"/><path fill="#555050" d="m871.97 942.13-15.14-43.78 10.74-12.88 38.4 12.6-8.06 40.29z"/><path fill="#5a5552" d="m897.91 938.36 8.06-40.29 6.32-3.89 27.64 1.53 8.22 7.5.67 32-37.98 12.54z"/><path fill="#605b57" d="m948.82 935.21-.67-32 38.96-9.2 11.74 16.85-6.28 29.49-31.39 5.28z"/><path fill="#595350" d="m1002.97 950.93-10.4-10.58 6.28-29.49 37.62-2.75 10.83 29.34-11.05 12.99z"/><path fill="#544f4b" d="M1080 885.02v54.78l-32.7-2.35-10.83-29.34 6.73-14.01z"/><path fill="#908f95" d="M0 1004.51v-59.04l30.74 2.8 7.53 34.06z"/><path fill="#383b43" d="m38.27 982.33-7.53-34.06 7.18-6.32 38.76.46 2.48 2.46 1.82 29.87-27.91 14.72z"/><path fill="#535965" d="m80.98 974.74-1.82-29.87 45.54-7.9 4.54 3.85-4.03 37.77-29.52 6.2z"/><path fill="#a8a4a2" d="m125.21 978.59 4.03-37.77 33.35-3.12 13.56 15.34-4.94 34.17-31.42 5.15z"/><path fill="#9d9999" d="m171.21 987.21 4.94-34.17 43.72-6.56 3.33 39.65-7.68 6.25-39.67-.72z"/><path fill="#928680" d="m223.2 986.13-3.33-39.65.65-.86 33.43-7.17 7.86 5.9 8.06 42.43-15.39 9.02z"/><path fill="#a69c95" d="m269.87 986.78-8.06-42.43 43.34-6.1 6.68 7.97-16.49 45.95z"/><path fill="#ada49f" d="m295.34 992.17 16.49-45.95 30.22 4.81 3.31 43.47-47.02 1.06z"/><path fill="#9c999b" d="m345.36 994.5-3.31-43.47 16.99-12.14 7.78.87 14.1 11.25 8.59 39.97-41.42 5.99z"/><path fill="#394e5a" d="m389.51 990.98-8.59-39.97 40.34-9.25 8.71 10.28-1.48 28.1L389.54 991z"/><path fill="#1f2d30" d="m428.49 980.14 1.48-28.1 43.2-12.15 5.06 7.27-3.29 37.6-33.72 6.71z"/><path fill="#1c2a2c" d="m474.94 984.76 3.29-37.6 41.55 5.59-1.09 30.47-36.22 7.68z"/><path fill="#223031" d="m518.69 983.22 1.09-30.47 12.25-11.72 15.38.36 17.57 45.17-10.42 10.49-23.33-1.24z"/><path fill="#223031" d="m564.98 986.56-17.57-45.17 18.31-12.26 35.08 25.18-11.63 28.11z"/><path fill="#273335" d="m589.17 982.42 11.63-28.11 12.85-5.91 24.56 7.14 11.35 41.97-.64.84-42.23 3.1z"/><path fill="#2e3d42" d="m649.56 997.51-11.35-41.97 16.35-14.47 33.03-2.23.9.86-1.02 50.27-.01.01z"/><path fill="#2e4147" d="m687.47 989.97 1.02-50.27 44.04 1.96 3.57 4.8-2.78 34.31z"/><path fill="#363f43" d="m733.32 980.77 2.78-34.31 44.22 2.54 4.47 31.26-13.57 16.14-24.45.05z"/><path fill="#616266" d="M784.79 980.26 780.32 949l5.52-6.99 37.85-1.8 5.23 5.46-2.54 33.94-7.88 5.59z"/><path fill="#5a5656" d="m826.38 979.61 2.54-33.94 41.8-2.35-3.34 42.71-6.44 4.75z"/><path fill="#59514e" d="m867.38 986.03 3.34-42.71 1.25-1.19 25.94-3.77 12.93 9.39 5.42 39.18-9.25 6.21z"/><path fill="#605854" d="m916.26 986.93-5.42-39.18 37.98-12.54 12.36 10.42-4.08 39.12-15.97 8.49z"/><path fill="#5f5953" d="m957.1 984.75 4.08-39.12 31.39-5.28 10.4 10.58-5.09 33.9-14.74 8.65z"/><path fill="#5b544f" d="m997.88 984.83 5.09-33.9 33.28-.49 6.59 34.05-14.89 11.61z"/><path fill="#5e5653" d="M1080 939.8v53.46l-37.16-8.77-6.59-34.05 11.05-12.99z"/><path fill="#a9a7a8" d="M0 1019.38v-14.87l38.27-22.18 14.8 7.13 5.26 34.44-17.17 10.9z"/><path fill="#aaa7a8" d="m58.33 1023.9-5.26-34.44 27.91-14.72 14.71 10.05-2.06 40.78-8.71 5.51z"/><path fill="#b0acac" d="m93.63 1025.57 2.06-40.78 29.52-6.2 14.58 13.77-9.62 37.45z"/><path fill="#b3aba9" d="m135.2 1036.64-5.03-6.83 9.62-37.45 31.42-5.15 4.64 4.45 3.12 39.49-7.83 7.84z"/><path fill="#b0a7a3" d="m178.97 1031.15-3.12-39.49 39.67.72-1.89 40.74z"/><path fill="#aba29f" d="m213.63 1033.12 1.89-40.74 7.68-6.25 31.28 9.67-3.72 42.34-34.12-2.23z"/><path fill="#9d9999" d="m251.32 1038.73-.56-.59 3.72-42.34 15.39-9.02 25.47 5.39 3 3.39.71 35.12-9.15 10.26z"/><path fill="#a49f9c" d="m299.05 1030.68-.71-35.12 47.02-1.06 2.73 2.47-1.03 36.08-8.45 6.09z"/><path fill="#99918f" d="m347.06 1033.05 1.03-36.08 41.42-5.99.03.02 8.14 39.64-18.25 14.15z"/><path fill="#665d62" d="M397.68 1030.64 389.54 991l38.95-10.86 12.73 11.33-2.1 39.6-9.75 7.36z"/><path fill="#8c96a0" d="m439.12 1031.07 2.1-39.6 33.72-6.71 7.53 6.14 5.38 38-10.83 9.19z"/><path fill="#1e292c" d="m487.85 1028.9-5.38-38 36.22-7.68 12.54 12.59-19.05 34.89z"/><path fill="#233233" d="m526.02 1045.46-13.84-14.76 19.05-34.89 23.33 1.24 8.98 36.03z"/><path fill="#273232" d="m563.54 1033.08-8.98-36.03 10.42-10.49 24.19-4.14 17.52 19.03-11.27 35.93-25.77-.05z"/><path fill="#2f3a3c" d="m604.76 1046.96-9.34-9.58 11.27-35.93 42.23-3.1 1.34 39.87-.34.47z"/><path fill="#3f515a" d="m650.26 1038.22-1.34-39.87.64-.84 37.9-7.53L706 1032.1l-11.18 11.5z"/><path fill="#33474c" d="m706 1032.1-18.54-42.12.01-.01 45.85-9.2 13.45 15.68-17.03 36.05z"/><path fill="#69625e" d="m741.13 1045.71-11.39-13.21 17.03-36.05 24.45-.05 15.71 32.22-6.54 13.11z"/><path fill="#616368" d="m786.93 1028.62-15.71-32.22 13.57-16.14 33.71 4.94-.51 38.4z"/><path fill="#595554" d="m817.99 1023.6.51-38.4 7.88-5.59 34.56 11.17-4.8 38.09-24.43 3.72z"/><path fill="#564f49" d="m856.14 1028.87 4.8-38.09 6.44-4.75 39.63 7.11-8.55 38.61-29.02 7.34z"/><path fill="#5d544f" d="m898.46 1031.75 8.55-38.61 9.25-6.21 24.87 6.31 4.76 38.12-30.72 12.54z"/><path fill="#595049" d="m945.89 1031.36-4.76-38.12 15.97-8.49 26.04 8.73 5.41 41.66-.36.38-33.75 1.3z"/><path fill="#5e5550" d="m988.55 1035.14-5.41-41.66 14.74-8.65 30.07 11.27-1.33 34.95z"/><path fill="#bbab9e" d="M1080 993.26v30.56l-46.58 12.71-6.8-5.48 1.33-34.95 14.89-11.61z"/><path fill="#aaa6a5" d="M39.68 1080H0v-60.62l41.16 15.42z"/><path fill="#a8a4a3" d="M85.55 1080H39.68l1.48-45.2 17.17-10.9 26.59 7.18z"/><path fill="#ada7a7" d="M126.31 1080H85.55l-.63-48.92 8.71-5.51 36.54 4.24 5.03 6.83z"/><path fill="#aca4a2" d="M179.77 1080h-53.46l8.89-43.36 35.94 2.35z"/><path fill="#a89f9a" d="M206.43 1080h-26.66l-8.63-41.01 7.83-7.84 34.66 1.97 3.01 2.79z"/><path fill="#a9a09b" d="M248.81 1080h-42.38l10.21-44.09 34.12 2.23.56.59z"/><path fill="#aca39e" d="M297.68 1080h-48.87l2.51-41.27 38.58 2.21z"/><path fill="#ada49f" d="M331.88 1080h-34.2l-7.78-39.06 9.15-10.26 39.56 8.46z"/><path fill="#97928f" d="M380.43 1080h-48.55l6.73-40.86 8.45-6.09 32.37 11.74z"/><path fill="#6a656b" d="M429.61 1080h-49.18l-1-35.21 18.25-14.15 31.69 7.79z"/><path fill="#847f7d" d="M480.23 1080h-50.62l-.24-41.57 9.75-7.36 37.9 7.02z"/><path fill="#696765" d="M524.59 1080h-44.36l-3.21-41.91 10.83-9.19 24.33 1.8 13.84 14.76z"/><path fill="#97a0a8" d="M561.48 1080h-36.89l1.43-34.54 37.52-12.38 6.11 4.25z"/><path fill="#6a7a83" d="M605.51 1080h-44.03l8.17-42.67 25.77.05 9.34 9.58z"/><path fill="#41484e" d="M651.8 1080h-46.29l-.75-33.04 45.16-8.27z"/><path fill="#4c575d" d="M694.98 1080H651.8l-1.88-41.31.34-.47 44.56 5.38z"/><path fill="#444c4f" d="M738.7 1080h-43.72l-.16-36.4 11.18-11.5 23.74.4 11.39 13.21z"/><path fill="#b29c8e" d="M793.77 1080H738.7l2.43-34.29 39.26-3.98z"/><path fill="#9d897b" d="M818.44 1080h-24.67l-13.38-38.27 6.54-13.11 31.06-5.02 13.72 8.99z"/><path fill="#4b413b" d="M868.95 1080h-50.51l13.27-47.41 24.43-3.72 13.3 10.22z"/><path fill="#564d46" d="M917.45 1080h-48.5l.49-40.91 29.02-7.34 16.71 12.15z"/><path fill="#5b514b" d="M950.31 1080h-32.86l-2.28-36.1 30.72-12.54 8.55 5.46z"/><path fill="#5a4f49" d="M989.66 1080h-39.35l4.13-43.18 33.75-1.3z"/><path fill="#574c46" d="M1038.92 1080h-49.26l-1.47-44.48.36-.38 38.07-4.09 6.8 5.48z"/><path fill="#857e74" d="M1080 1023.82V1080h-41.08l-5.5-43.47z"/></g></svg>