<svg xmlns="http://www.w3.org/2000/svg" width="1080" height="1080" style="width:100%;height:auto;display:block" viewBox="0 0 1080 1080"><rect height="100%" fill="#21ad59"/><g fill-rule="evenodd"><path fill="#000500" d="M3.46 0 0 1079.52h1079.52l-3.46-294.1s-177.05-28.82-217.98-27.68-14.43 24.22-27.68 34.6-30 22.49-51.9 27.68-58.82 5.78-79.58 3.46-31.73-9.8-44.98-17.3-24.8-15.57-34.6-27.68-19.62-28.82-24.22-44.98 28.82-35.74-3.46-51.9-152.83-44.4-190.3-44.98c-37.47-.59-28.82 28.82-34.6 41.52s-4.05 21.35 0 34.6 20.17 33.46 24.22 44.98 2.32 13.84 0 24.22-5.78 25.36-13.84 38.06-34.6 38.06-34.6 38.06-7.5-17.89-17.3-17.3-41.52 20.76-41.52 20.76-1.14-27.1 3.46-44.98c4.6-17.89 24.22-62.28 24.22-62.28s-20.76 21.35-31.14 27.68-14.98 10.38-31.14 10.38-51.31-6.92-65.74-10.38-17.3-6.92-20.76-10.38-6.33-2.32 0-10.38 25.36-27.68 38.06-38.06 27.1-18.44 38.06-24.22 10.97-8.06 27.68-10.38 55.36 1.14 72.66-3.46 24.22-15.57 31.14-24.22 10.38-27.68 10.38-27.68-58.82-19.62-117.64-20.76S69.2 627.99 27.68 626.26s-13.84-24.22-13.84-24.22 79-18.44 114.18-24.22a945 945 0 0 1 96.88-10.38c23.08-1.14 24.22 10.97 41.52 3.46 17.3-7.5 51.31-38.65 62.28-48.44 10.97-9.8 3.46-10.38 3.46-10.38s-30.55 5.19-51.9 3.46-55.36-6.92-76.12-13.84-40.38-21.35-48.44-27.68 0-10.38 0-10.38 72.07 5.19 93.42 3.46 24.8-7.5 34.6-13.84 24.22-24.22 24.22-24.22-40.38 23.08-65.74 27.68-70.34.59-86.5 0-9.24 9.24-10.38-3.46 0-53.04 3.46-72.66 10.38-32.87 17.3-44.98-5.78-10.97 24.22-27.68 126.29-60.55 155.7-72.66 20.76 0 20.76 0v83.04s20.76-11.52 41.52-13.84 53.04-2.87 83.04 0 61.14 5.78 96.88 17.3 87.09 35.19 117.64 51.9 44.4 28.27 65.74 48.44c21.35 20.17 45.57 48.44 62.28 72.66s28.82 50.76 38.06 72.66 14.98 35.74 17.3 58.82-4.05 65.74-3.46 79.58-10.38 2.32 6.92 3.46 77.85 1.73 96.88 3.46 10.97 6.92 17.3 6.92 20.76-6.92 20.76-6.92-54.22-20.17-69.2-31.14-17.3-17.89-20.76-34.6 0-65.74 0-65.74 25.95-4.6 34.6-3.46 17.3 10.38 17.3 10.38l20.76-69.2s35.74 35.74 44.98 48.44 8.65 13.84 10.38 27.68 5.78 34.01 0 55.36-34.6 72.66-34.6 72.66l48.44 3.46V0zm449.8 532.84c-11.52-4.6-6.33-2.87-10.38 6.92-4.05 9.8-13.84 51.9-13.84 51.9s31.14 4.05 38.06 3.46-2.32-5.78 3.46-6.92 24.22 3.46 31.14 0 10.38-20.76 10.38-20.76-47.3-30-58.82-34.6m-72.66 6.92c-8.06 6.33-41.52 38.06-41.52 38.06s30-5.78 38.06-10.38 8.65-12.7 10.38-17.3 0-10.38 0-10.38 1.14-6.33-6.92 0m307.94 24.22c-13.84 1.14-31.73 4.05-48.44 10.38s-38.65 19.03-51.9 27.68-27.68 24.22-27.68 24.22 43.25 17.89 55.36 17.3 8.65-14.43 17.3-20.76 20.76-14.43 34.6-17.3 35.74-1.73 48.44 0 18.44 3.46 27.68 10.38 22.49 19.62 27.68 31.14-5.19 30 3.46 38.06 48.44 10.38 48.44 10.38 4.6-34.01-3.46-51.9-28.82-42.66-44.98-55.36-37.47-16.71-51.9-20.76-20.76-4.6-34.6-3.46m-3.46 76.12c-10.97 0-20.17 7.5-24.22 10.38-4.05 2.87-12.7 2.87 0 6.92s76.12 17.3 76.12 17.3 1.73-9.8 0-13.84c-1.73-4.05-1.73-6.92-10.38-10.38s-30.55-10.38-41.52-10.38m-325.24 38.06s-9.24 1.14-17.3 13.84-31.14 62.28-31.14 62.28 23.08-18.44 31.14-31.14 17.3-44.98 17.3-44.98m287.18 20.76s-1.14 19.03 3.46 27.68 13.84 17.3 24.22 24.22 24.22 14.98 38.06 17.3 30.55 1.14 44.98-3.46 41.52-24.22 41.52-24.22-34.6-15.57-48.44-17.3-25.95 9.24-34.6 6.92-5.78-15.57-17.3-20.76-51.9-10.38-51.9-10.38"/><path fill="#000200" d="M3.46 0 0 1079.52h1079.52l-3.46-294.1s-176.46-29.41-217.98-27.68-17.89 27.68-31.14 38.06-27.1 19.62-48.44 24.22c-21.35 4.6-58.82 5.78-79.58 3.46s-31.73-9.8-44.98-17.3-24.8-15.57-34.6-27.68-19.62-28.82-24.22-44.98 28.82-35.74-3.46-51.9-153.38-42.66-190.3-44.98-25.36 23.63-31.14 31.14c-5.78 7.5-2.87 6.33-3.46 13.84s-4.05 18.44 0 31.14 20.17 33.46 24.22 44.98 2.32 13.84 0 24.22-5.78 25.36-13.84 38.06-34.6 38.06-34.6 38.06-7.5-17.89-17.3-17.3-41.52 20.76-41.52 20.76 2.32-40.93 6.92-58.82 20.76-48.44 20.76-48.44-20.76 21.35-31.14 27.68-16.16 9.8-31.14 10.38-44.4-3.46-58.82-6.92-23.08-9.8-27.68-13.84c-4.6-4.05-6.33-2.32 0-10.38s24.22-27.1 38.06-38.06 21.35-20.76 44.98-27.68 76.12-8.06 96.88-13.84 21.35-12.7 27.68-20.76 10.38-27.68 10.38-27.68-76.7-19.62-121.1-20.76-106.67 11.52-145.32 13.84-69.79 3.46-86.5 0-13.25-15.57-13.84-20.76-8.65-5.78 10.38-10.38 70.93-12.7 103.8-17.3 70.34-9.24 93.42-10.38 27.1 10.97 44.98 3.46c17.89-7.5 51.31-38.65 62.28-48.44 10.97-9.8 3.46-10.38 3.46-10.38s-34.01 5.19-55.36 3.46-52.49-6.92-72.66-13.84-40.38-21.35-48.44-27.68 0-10.38 0-10.38 72.07 5.19 93.42 3.46 24.8-7.5 34.6-13.84 24.22-24.22 24.22-24.22-19.62 19.62-44.98 24.22-87.64 3.46-107.26 3.46-9.24 9.24-10.38-3.46 0-53.04 3.46-72.66 10.38-32.87 17.3-44.98-5.78-10.97 24.22-27.68 126.29-60.55 155.7-72.66 20.76 0 20.76 0v83.04s11.52-12.7 41.52-13.84 99.2.59 138.4 6.92 67.47 19.03 96.88 31.14 58.82 28.82 79.58 41.52 26.54 16.16 44.98 34.6 48.44 51.31 65.74 76.12c17.3 24.8 28.82 50.76 38.06 72.66s14.98 35.74 17.3 58.82-4.05 65.74-3.46 79.58-10.38 2.32 6.92 3.46 77.85 1.73 96.88 3.46 10.97 6.92 17.3 6.92 20.76-6.92 20.76-6.92-54.22-20.17-69.2-31.14-17.3-17.89-20.76-34.6 0-65.74 0-65.74 25.95-4.6 34.6-3.46 17.3 10.38 17.3 10.38l20.76-69.2s28.82 25.36 38.06 38.06 14.43 22.49 17.3 38.06 5.78 34.01 0 55.36-34.6 72.66-34.6 72.66l48.44 3.46V0zm449.8 532.84c-11.52-4.6-6.92-2.87-10.38 6.92-3.46 9.8-10.38 51.9-10.38 51.9s28.27 4.05 34.6 3.46-2.32-5.78 3.46-6.92 24.22 3.46 31.14 0 10.38-20.76 10.38-20.76-47.3-30-58.82-34.6m-72.66 6.92c-8.06 6.33-41.52 38.06-41.52 38.06s30-5.78 38.06-10.38 8.65-12.7 10.38-17.3 0-10.38 0-10.38 1.14-6.33-6.92 0M692 563.98c-17.89 0-34.6 4.05-51.9 10.38s-38.65 19.03-51.9 27.68-27.68 24.22-27.68 24.22 43.25 17.89 55.36 17.3 8.65-14.43 17.3-20.76 20.17-14.43 34.6-17.3 39.2-1.73 51.9 0 16.16 4.6 24.22 10.38 19.03 12.7 24.22 24.22-2.32 35.74 6.92 44.98 48.44 10.38 48.44 10.38 3.46-28.27 0-41.52-12.7-27.1-20.76-38.06-18.44-20.76-27.68-27.68-13.84-9.8-27.68-13.84c-13.84-4.05-37.47-10.38-55.36-10.38m-3.46 76.12c-10.97 0-23.08 7.5-27.68 10.38-4.6 2.87-12.7 2.87 0 6.92s76.12 17.3 76.12 17.3 1.73-9.8 0-13.84c-1.73-4.05-2.32-6.92-10.38-10.38s-27.1-10.38-38.06-10.38m-328.7 38.06s-9.24 1.14-17.3 13.84-31.14 62.28-31.14 62.28 23.08-18.44 31.14-31.14 17.3-44.98 17.3-44.98m287.18 20.76s.59 21.35 6.92 31.14c6.33 9.8 21.35 21.35 31.14 27.68 9.8 6.33 15.57 9.24 27.68 10.38s30.55 1.14 44.98-3.46 41.52-24.22 41.52-24.22-34.6-15.57-48.44-17.3-27.1 8.65-34.6 6.92 1.14-12.11-10.38-17.3-58.82-13.84-58.82-13.84"/><path d="M3.46 0 0 1079.52h1079.52l-3.46-294.1s-173-31.73-217.98-27.68-36.92 40.93-51.9 51.9-19.62 11.52-38.06 13.84-50.17 5.19-72.66 0-47.3-20.76-62.28-31.14-20.76-19.03-27.68-31.14-11.52-28.27-13.84-41.52 31.14-24.22 0-38.06-149.92-42.66-186.84-44.98-28.27 23.63-34.6 31.14c-6.33 7.5-2.87 6.33-3.46 13.84s-4.05 19.03 0 31.14 20.17 29.41 24.22 41.52 2.32 20.17 0 31.14-5.78 22.49-13.84 34.6-27.1 32.28-34.6 38.06-8.06-.59-10.38-3.46-3.46-13.84-3.46-13.84l-44.98 20.76s-4.05-13.84 0-31.14 24.22-72.66 24.22-72.66-18.44 18.44-27.68 24.22-12.7 9.8-27.68 10.38-46.71-2.32-62.28-6.92-31.14-20.76-31.14-20.76 58.82-53.04 76.12-65.74 9.8-7.5 27.68-10.38c17.89-2.87 59.96 0 79.58-6.92s31.73-26.54 38.06-34.6 0-13.84 0-13.84-78.44-19.62-121.1-20.76-95.74 11.52-134.94 13.84-81.9 3.46-100.34 0-10.38-15.57-10.38-20.76-8.06-5.78 10.38-10.38 67.47-12.7 100.34-17.3 73.25-9.24 96.88-10.38 27.68 10.38 44.98 3.46 47.85-35.19 58.82-44.98c10.97-9.8 6.92-13.84 6.92-13.84s-65.15 1.73-86.5 0-27.1-4.6-41.52-10.38-36.92-17.89-44.98-24.22-3.46-13.84-3.46-13.84 82.45 1.73 103.8 0 16.16-4.6 24.22-10.38 24.22-24.22 24.22-24.22-19.03 19.62-44.98 24.22-91.1 3.46-110.72 3.46-6.33 9.24-6.92-3.46 0-53.04 3.46-72.66 10.38-32.87 17.3-44.98-5.78-10.97 24.22-27.68 126.29-60.55 155.7-72.66 20.76 0 20.76 0v83.04s6.92-8.06 13.84-10.38 9.24-2.87 27.68-3.46 54.77-2.32 83.04 0 54.77 4.6 86.5 13.84 72.07 24.8 103.8 41.52c31.73 16.71 64.01 40.38 86.5 58.82s31.73 28.82 48.44 51.9 39.79 60.55 51.9 86.5 16.71 50.76 20.76 69.2 4.05 28.27 3.46 41.52-6.92 31.14-6.92 38.06-10.97 2.32 6.92 3.46 80.72 1.73 100.34 3.46 11.52 6.92 17.3 6.92 17.3-6.92 17.3-6.92-50.76-16.71-65.74-27.68-20.17-20.17-24.22-38.06 0-69.2 0-69.2 29.41-1.73 38.06 0 13.84 10.38 13.84 10.38l20.76-69.2s28.82 25.95 38.06 38.06 14.43 19.03 17.3 34.6 5.78 36.92 0 58.82-34.6 72.66-34.6 72.66l48.44 3.46V0zm449.8 532.84c-11.52-4.6-6.92-2.32-10.38 6.92S432.5 588.2 432.5 588.2s9.24 6.92 20.76 6.92 38.65-2.32 48.44-6.92c9.8-4.6 10.38-20.76 10.38-20.76s-47.3-30-58.82-34.6m-69.2 6.92s-9.8.59-17.3 6.92-27.68 31.14-27.68 31.14 10.38 2.32 17.3 0 19.62-7.5 24.22-13.84 3.46-24.22 3.46-24.22M692 563.98c-14.98 1.73-36.92 3.46-58.82 13.84s-72.66 48.44-72.66 48.44 40.93 19.62 55.36 17.3 19.62-24.22 31.14-31.14 25.95-9.24 38.06-10.38 21.9-1.14 34.6 3.46 34.6 18.44 41.52 24.22-1.73 7.5 0 10.38c1.73 2.87 8.06-.59 10.38 6.92s-5.19 30.55 3.46 38.06c8.65 7.5 48.44 6.92 48.44 6.92s3.46-25.36 0-38.06-12.7-27.1-20.76-38.06-14.43-19.62-27.68-27.68-38.06-16.71-51.9-20.76-16.16-5.19-31.14-3.46m-3.46 76.12c-10.97 1.14-27.68 17.3-27.68 17.3l76.12 17.3s1.73-9.8 0-13.84c-1.73-4.05-2.32-6.92-10.38-10.38s-27.1-11.52-38.06-10.38m-328.7 38.06s-10.38 2.87-17.3 13.84-24.22 51.9-24.22 51.9 17.3-9.8 24.22-20.76 17.3-44.98 17.3-44.98m290.64 20.76s-4.6 8.06-3.46 13.84 1.14 12.11 10.38 20.76 30.55 25.36 44.98 31.14 25.36 7.5 41.52 3.46 55.36-27.68 55.36-27.68-34.6-15.57-48.44-17.3-27.1 8.65-34.6 6.92.59-12.11-10.38-17.3-55.36-13.84-55.36-13.84"/></g></svg>