<svg xmlns="http://www.w3.org/2000/svg" width="1080" height="1080" style="width:100%;height:auto;display:block" viewBox="0 0 1080 1080"><rect height="100%" fill="#0c352e"/><path fill="#48a770" fill-rule="evenodd" d="M349.46 238.74c-26.54 9.8-113.04 47.85-141.86 62.28s-21.9 10.97-31.14 24.22-19.62 35.19-24.22 55.36-3.46 65.74-3.46 65.74 73.8 10.38 100.34 6.92 58.82-27.68 58.82-27.68 4.05 7.5 3.46 10.38c-.59 2.87 2.32 1.73-6.92 6.92s-24.22 19.62-48.44 24.22-96.88 3.46-96.88 3.46 21.9 17.89 38.06 24.22 32.87 11.52 58.82 13.84 76.12 4.6 96.88 0 27.68-27.68 27.68-27.68-1.73 28.82 0 38.06 9.8 9.8 10.38 17.3-1.73 20.17-6.92 27.68-14.43 13.84-24.22 17.3c-9.8 3.46-21.9 3.46-34.6 3.46s-30-4.05-41.52-3.46-27.68 6.92-27.68 6.92l10.38-13.84s9.8-5.19-17.3-3.46-107.26 9.24-145.32 13.84-68.61 10.38-83.04 13.84-4.6 2.87-3.46 6.92 0 13.84 10.38 17.3 10.38 5.19 51.9 3.46 146.46-14.43 197.22-13.84 107.26 17.3 107.26 17.3 2.32 11.52 0 17.3-13.84 17.3-13.84 17.3 20.17-23.08 27.68-27.68-14.43-6.92 17.3 0 142.45 34.01 173 41.52c30.55 7.5 8.65-5.78 10.38 3.46s-2.32 38.06 0 51.9 4.6 19.62 13.84 31.14 24.22 28.27 41.52 38.06 39.79 19.03 62.28 20.76 53.63-4.6 72.66-10.38 30.55-14.43 41.52-24.22c10.97-9.8-2.87-31.14 24.22-34.6 27.1-3.46 100.93 8.65 138.4 13.84s86.5 17.3 86.5 17.3v-55.36l-48.44-3.46v-13.84s-6.33 10.38-17.3 10.38-26.54-8.06-48.44-10.38-83.04-3.46-83.04-3.46 6.33-61.7 3.46-86.5-7.5-35.74-20.76-62.28c-13.25-26.54-37.47-69.79-58.82-96.88-21.35-27.1-43.25-46.71-69.2-65.74s-55.36-34.6-86.5-48.44-68.06-27.1-100.34-34.6-68.61-9.24-93.42-10.38c-24.8-1.14-39.79.59-55.36 3.46s-38.06 13.84-38.06 13.84l3.46-79.58s9.24-13.25-17.3-3.46m96.88 290.64s50.76 24.8 62.28 31.14 6.33 3.46 6.92 6.92-1.14 9.8-3.46 13.84c-2.32 4.05-3.46 8.65-10.38 10.38s-25.36-1.14-31.14 0 4.05 6.92-3.46 6.92-41.52-6.92-41.52-6.92zm256.04 24.22c13.25-.59 30-1.73 41.52 0s15.57 2.32 27.68 10.38 34.01 25.36 44.98 38.06 17.3 23.63 20.76 38.06 3.46 34.6 0 48.44-20.76 34.6-20.76 34.6l6.92-24.22s-39.2-1.73-48.44-10.38.59-28.82-6.92-41.52-21.35-28.27-38.06-34.6-46.71-5.19-62.28-3.46-22.49 7.5-31.14 13.84-6.92 23.63-20.76 24.22-62.28-20.76-62.28-20.76 51.31-39.79 65.74-48.44 13.25 0 20.76-3.46c7.5-3.46 13.84-13.84 24.22-17.3s24.8-2.87 38.06-3.46m242.2 27.68s-6.92 21.9-6.92 34.6 0 28.82 6.92 41.52 22.49 27.1 34.6 34.6 38.06 10.38 38.06 10.38 8.65 2.87-3.46-17.3-69.2-103.8-69.2-103.8M674.7 640.1c11.52-1.73 40.93 2.87 51.9 6.92s11.52 12.11 13.84 17.3 0 13.84 0 13.84L657.4 657.4s5.78-15.57 17.3-17.3m-335.62 44.98c-17.89 2.32-72.66 5.19-100.34 17.3s-54.77 43.84-65.74 55.36 0 13.84 0 13.84 76.12-25.36 103.8-38.06 50.76-30.55 62.28-38.06c11.52-7.5 6.92-6.92 6.92-6.92s10.97-5.78-6.92-3.46m304.48 10.38s49.03 8.06 62.28 13.84 8.65 18.44 17.3 20.76 21.35-8.65 34.6-6.92 44.98 17.3 44.98 17.3-28.27 23.08-44.98 27.68-39.2 4.05-55.36 0-31.73-15.57-41.52-24.22-14.43-19.62-17.3-27.68 0-20.76 0-20.76m-283.72 6.92s-31.73 38.65-38.06 55.36-2.32 29.41 0 44.98 13.84 48.44 13.84 48.44 10.38-1.73 13.84-6.92 5.19-.59 6.92-24.22 3.46-117.64 3.46-117.64"/></svg>