<svg xmlns="http://www.w3.org/2000/svg" width="1080" height="1080" style="width:100%;height:auto;display:block" viewBox="0 0 1080 1080"><rect height="100%" fill="#0c352e"/><path fill="#48a670" fill-rule="evenodd" d="M359.84 235.28C330.43 246.8 224.31 289.5 190.3 311.4s-27.68 33.46-34.6 55.36-10.38 61.7-6.92 76.12 11.52 8.65 27.68 10.38 47.3 4.6 69.2 0 62.28-27.68 62.28-27.68 6.92 7.5 0 13.84-16.71 19.03-41.52 24.22c-24.8 5.19-107.26 6.92-107.26 6.92s13.84 14.43 31.14 20.76 46.12 14.43 72.66 17.3 68.61 1.73 86.5 0 15.57-5.78 20.76-10.38 10.38-17.3 10.38-17.3-1.73 25.36 0 34.6 9.8 12.7 10.38 20.76-1.14 20.17-6.92 27.68-13.25 14.98-27.68 17.3-44.98-4.6-58.82-3.46-17.3 8.65-24.22 10.38-17.3 0-17.3 0l10.38-10.38s21.35-8.06-6.92-6.92-122.83 9.24-162.62 13.84-76.12 13.84-76.12 13.84-36.92 21.9 6.92 24.22 196.63-11.52 256.04-10.38c59.4 1.14 100.34 17.3 100.34 17.3s2.32 11.52 0 17.3-13.84 17.3-13.84 17.3 19.62-23.08 27.68-27.68-11.52-6.92 20.76 0 143 34.01 173 41.52c30 7.5 5.78-5.78 6.92 3.46s-2.32 38.06 0 51.9 4.6 19.62 13.84 31.14 23.63 28.27 41.52 38.06 47.3 17.89 65.74 20.76 30 0 44.98-3.46 31.73-9.8 44.98-17.3 27.1-19.62 34.6-27.68-14.43-19.62 10.38-20.76c24.8-1.14 100.93 8.65 138.4 13.84s86.5 17.3 86.5 17.3v-55.36l-48.44-3.46v-13.84s-6.33 10.38-17.3 10.38-26.54-8.06-48.44-10.38-83.04-3.46-83.04-3.46 6.33-61.7 3.46-86.5-9.8-38.65-20.76-62.28-25.95-54.22-44.98-79.58-44.98-52.49-69.2-72.66-43.25-32.87-76.12-48.44-79.58-35.74-121.1-44.98-99.2-9.8-128.02-10.38-34.6 4.05-44.98 6.92-17.3 10.38-17.3 10.38 4.05-65.15 3.46-79.58 22.49-18.44-6.92-6.92m86.5 294.1s58.23 25.95 69.2 34.6-.59 12.7-3.46 17.3-6.92 8.65-13.84 10.38-22.49-1.14-27.68 0 4.05 6.92-3.46 6.92-41.52-6.92-41.52-6.92zm252.58 24.22c16.71.59 45.57-1.73 65.74 6.92s43.25 31.73 55.36 44.98 14.43 20.76 17.3 34.6 2.87 35.19 0 48.44-17.3 31.14-17.3 31.14l3.46-24.22s-42.66-2.32-51.9-10.38 3.46-25.95-3.46-38.06-26.54-27.68-38.06-34.6-20.17-6.33-31.14-6.92-24.22.59-34.6 3.46a83 83 0 0 0-27.68 13.84c-7.5 5.78-3.46 20.17-17.3 20.76s-65.74-17.3-65.74-17.3 43.25-35.74 58.82-44.98 25.95-6.33 34.6-10.38 8.65-10.97 17.3-13.84 17.89-4.05 34.6-3.46m245.66 27.68s-4.6 51.31-3.46 65.74 4.6 13.84 10.38 20.76 13.25 14.98 24.22 20.76 41.52 13.84 41.52 13.84 5.19-4.05-6.92-24.22-65.74-96.88-65.74-96.88m-256.04 55.36c11.52-.59 29.41 5.78 38.06 10.38s11.52 12.11 13.84 17.3 0 13.84 0 13.84-69.2-16.16-83.04-20.76-5.19-3.46 0-6.92 19.62-13.25 31.14-13.84m-366.76 48.44c-10.97 0-25.36-.59-41.52 3.46s-38.65 10.97-55.36 20.76-36.33 28.27-44.98 38.06-6.92 20.76-6.92 20.76 30.55-4.05 48.44-10.38 38.06-16.16 58.82-27.68S346 688.54 346 688.54s-13.25-3.46-24.22-3.46m321.78 10.38s49.03 8.06 62.28 13.84 8.65 18.44 17.3 20.76 21.35-8.65 34.6-6.92 44.98 17.3 44.98 17.3-28.27 23.08-44.98 27.68-38.06 5.78-55.36 0-38.65-22.49-48.44-34.6c-9.8-12.11-10.38-38.06-10.38-38.06m-283.72 6.92s-31.14 38.06-38.06 51.9-5.78 14.98-3.46 31.14 17.3 65.74 17.3 65.74 6.92 2.32 10.38-3.46 8.06-6.92 10.38-31.14 3.46-114.18 3.46-114.18"/></svg>