<svg xmlns="http://www.w3.org/2000/svg" width="1080" height="1080" style="width:100%;height:auto;display:block" viewBox="0 0 1080 1080"><rect height="100%" fill="#fff"/><path fill="#e4e7e8" stroke="#e4e7e8" stroke-linejoin="round" d="M0 0h43.21l-.52 42.14-.58.54L0 45.52z"/><path fill="#ced6d8" stroke="#ced6d8" stroke-linejoin="round" d="M43.21 0h36.45l6.38 31.95-9.96 10.63-33.39-.44z"/><path fill="#afbbbf" stroke="#afbbbf" stroke-linejoin="round" d="M79.66 0h41.01l-8.47 34.1-26.16-2.15z"/><path fill="#b6c0c5" stroke="#b6c0c5" stroke-linejoin="round" d="M120.67 0h31.18l-4.14 36.82-25.82 6.68-9.69-9.4z"/><path fill="#d8e0e2" stroke="#d8e0e2" stroke-linejoin="round" d="M151.85 0h37.36l3.06 31.67-29.54 16.46-15.02-11.31z"/><path fill="#cfd8d9" stroke="#cfd8d9" stroke-linejoin="round" d="M189.21 0h48.84l-2.11 42.6-28.27 1.35-15.4-12.28z"/><path fill="#d1d9db" stroke="#d1d9db" stroke-linejoin="round" d="M238.05 0h40.05l-.18 36.01-9.74 9.61-26.95 1.85-5.29-4.87z"/><path fill="#eaeded" stroke="#eaeded" stroke-linejoin="round" d="M278.1 0h38.65l3.49 32.61-8.01 8.71-34.31-5.31z"/><path fill="#e3e7e8" stroke="#e3e7e8" stroke-linejoin="round" d="M316.75 0h46.62l-4.98 38.47-2.48 1.88-35.67-7.74z"/><path fill="#bac8cb" stroke="#bac8cb" stroke-linejoin="round" d="M363.37 0h34.09l4.14 43.15-2.39 2.51-40.82-7.19z"/><path fill="#becace" stroke="#becace" stroke-linejoin="round" d="M397.46 0h44.04l-5.04 39.25-34.86 3.9z"/><path fill="#dde3e5" stroke="#dde3e5" stroke-linejoin="round" d="M441.5 0h39.11l-1.21 37.35-33.51 10.67-9.43-8.77z"/><path fill="#d0dbdd" stroke="#d0dbdd" stroke-linejoin="round" d="M480.61 0h36.56l.53 47.28-25.68 1.09-12.62-11.02z"/><path fill="#b9ccd0" stroke="#b9ccd0" stroke-linejoin="round" d="M517.17 0h35.44l6.78 38.41-4.6 6.76-32.23 5.58-4.86-3.47z"/><path fill="#ccd8da" stroke="#ccd8da" stroke-linejoin="round" d="M552.61 0h46.62l.99 35.68-40.83 2.73z"/><path fill="#5c737a" stroke="#5c737a" stroke-linejoin="round" d="M599.23 0h41.38l-2.01 32.63-37.57 3.86-.81-.81z"/><path fill="#cad6da" stroke="#cad6da" stroke-linejoin="round" d="M640.61 0h39.88l-4.51 39.53-2.76 2.4-23.18 1.92-11.44-11.22z"/><path fill="#9ab5bf" stroke="#9ab5bf" stroke-linejoin="round" d="M680.49 0h37.06l6.34 33.65-8.72 10.1-39.19-4.22z"/><path fill="#7da0ad" stroke="#7da0ad" stroke-linejoin="round" d="M717.55 0h48.11l-7.39 38.37-34.38-4.72z"/><path fill="#94b0b9" stroke="#94b0b9" stroke-linejoin="round" d="M765.66 0h35.06l-6.7 41.61-34.5-1.76-1.25-1.48z"/><path fill="#799ba6" stroke="#799ba6" stroke-linejoin="round" d="M800.72 0h27.21l6.51 43.27L805.7 53.8l-11.68-12.19z"/><path fill="#7a9aa5" stroke="#7a9aa5" stroke-linejoin="round" d="M827.93 0h46.11l-4.79 34.89-26.15 12.2-8.66-3.82z"/><path fill="#8faab3" stroke="#8faab3" stroke-linejoin="round" d="M874.04 0h32.79l9.11 39.24-6.51 8.01-19.93 3.33-20.25-15.69z"/><path fill="#749cab" stroke="#749cab" stroke-linejoin="round" d="M906.83 0h51.41l.75 34.76-3.95 4.18-39.1.3z"/><path fill="#83a5ae" stroke="#83a5ae" stroke-linejoin="round" d="M958.24 0h55.66l-22.52 39.92-32.39-5.16z"/><path fill="#7b9ea2" stroke="#7b9ea2" stroke-linejoin="round" d="M1013.9 0h11.63l15.72 38.38-2.45 6.34L1006.45 61l-15.07-21.08z"/><path fill="#8caeb4" stroke="#8caeb4" stroke-linejoin="round" d="M1025.53 0H1080v30.41l-38.75 7.97z"/><path fill="#9abac8" stroke="#9abac8" stroke-linejoin="round" d="M0 84.1V45.52l42.11-2.84 4.02 43.26-8.57 6.83z"/><path fill="#88a8b4" stroke="#88a8b4" stroke-linejoin="round" d="m46.13 85.94-4.02-43.26.58-.54 33.39.44 9.43 30.61-14.22 15.02z"/><path fill="#79969e" stroke="#79969e" stroke-linejoin="round" d="m76.08 42.58 9.96-10.63 26.16 2.15 9.69 9.4-4.71 32.09-31.67-2.4z"/><path fill="#9fb5bf" stroke="#9fb5bf" stroke-linejoin="round" d="m117.18 75.59 4.71-32.09 25.82-6.68 15.02 11.31 2.17 31.33-1.65 1.62-42.42-.78z"/><path fill="#d8e0e2" stroke="#d8e0e2" stroke-linejoin="round" d="m164.9 79.46-2.17-31.33 29.54-16.46 15.4 12.28-12.59 36.28z"/><path fill="#a2bcc7" stroke="#a2bcc7" stroke-linejoin="round" d="m195.08 80.23 12.59-36.28 28.27-1.35 5.29 4.87-2.26 34.42-36.77 4.8z"/><path fill="#9fc3cf" stroke="#9fc3cf" stroke-linejoin="round" d="m238.97 81.89 2.26-34.42 26.95-1.85 18.17 34.75-4.29 8.35-39.99-2.78z"/><path fill="#e3e9e9" stroke="#e3e9e9" stroke-linejoin="round" d="m268.18 45.62 9.74-9.61 34.31 5.31v28.01l-25.88 11.04z"/><path fill="#d5dfe0" stroke="#d5dfe0" stroke-linejoin="round" d="M312.23 69.33V41.32l8.01-8.71 35.67 7.74-5.15 35.11-18.27 6.48z"/><path fill="#bdcdd2" stroke="#bdcdd2" stroke-linejoin="round" d="m350.76 75.46 5.15-35.11 2.48-1.88 40.82 7.19-1.25 30.57-30.68 8.87z"/><path fill="#abc4cc" stroke="#abc4cc" stroke-linejoin="round" d="m397.96 76.23 1.25-30.57 2.39-2.51 34.86-3.9 9.43 8.77 1.96 27.44-7.73 9.03-31.4 2.11z"/><path fill="#9bb5bc" stroke="#9bb5bc" stroke-linejoin="round" d="m447.85 75.46-1.96-27.44 33.51-10.67 12.62 11.02-10.95 32.49-.46.29z"/><path fill="#a9cbd4" stroke="#a9cbd4" stroke-linejoin="round" d="m481.07 80.86 10.95-32.49 25.68-1.09 4.86 3.47-.34 33.15-5.7 5.23z"/><path fill="#b6d2da" stroke="#b6d2da" stroke-linejoin="round" d="m522.22 83.9.34-33.15 32.23-5.58 13.38 36.3-10.74 11.17z"/><path fill="#d9e4e5" stroke="#d9e4e5" stroke-linejoin="round" d="m554.79 45.17 4.6-6.76 40.83-2.73.81.81 3.98 39.16-6.58 6.41-30.26-.59z"/><path fill="#4f656c" stroke="#4f656c" stroke-linejoin="round" d="m605.01 75.65-3.98-39.16 37.57-3.86 11.44 11.22-13.6 32.79z"/><path fill="#bdd1d8" stroke="#bdd1d8" stroke-linejoin="round" d="m636.44 76.64 13.6-32.79 23.18-1.92 8.63 38.56-2.96 3.43-32.84 4.01z"/><path fill="#a5bec7" stroke="#a5bec7" stroke-linejoin="round" d="m681.85 80.49-8.63-38.56 2.76-2.4 39.19 4.22 2.23 33.66z"/><path fill="#76a0af" stroke="#76a0af" stroke-linejoin="round" d="m717.4 77.41-2.23-33.66 8.72-10.1 34.38 4.72 1.25 1.48-2.79 41.6-3.33 4.06-30.89-3.06z"/><path fill="#9ab4bc" stroke="#9ab4bc" stroke-linejoin="round" d="m756.73 81.45 2.79-41.6 34.5 1.76L805.7 53.8l-3.86 20.63z"/><path fill="#6690a1" stroke="#6690a1" stroke-linejoin="round" d="m801.84 74.43 3.86-20.63 28.74-10.53 8.66 3.82 9.31 32.07-19.34 18.66-22.08-7.42z"/><path fill="#719ba9" stroke="#719ba9" stroke-linejoin="round" d="m843.1 47.09 26.15-12.2 20.25 15.69-13.8 31.7-23.29-3.12z"/><path fill="#668c97" stroke="#668c97" stroke-linejoin="round" d="m875.7 82.28 13.8-31.7 19.93-3.33 12.66 37.35-1.77 3.15-38.15 2.43z"/><path fill="#698f9b" stroke="#698f9b" stroke-linejoin="round" d="m922.09 84.6-12.66-37.35 6.51-8.01 39.1-.3.39 35.06z"/><path fill="#7da0a7" stroke="#7da0a7" stroke-linejoin="round" d="m955.43 74-.39-35.06 3.95-4.18 32.39 5.16L1006.45 61l-1.28 6.89-14.87 13.33-28.06-1.27z"/><path fill="#89aaaf" stroke="#89aaaf" stroke-linejoin="round" d="m1036.15 96.72-30.98-28.83 1.28-6.89 32.35-16.28 18.54 31.14z"/><path fill="#8cadb3" stroke="#8cadb3" stroke-linejoin="round" d="M1080 30.41v46.25l-22.66-.8-18.54-31.14 2.45-6.34z"/><path fill="#87afbd" stroke="#87afbd" stroke-linejoin="round" d="M0 130.58V84.1l37.56 8.67-.42 34.48-5.05 5.06z"/><path fill="#6f94a0" stroke="#6f94a0" stroke-linejoin="round" d="m37.14 127.25.42-34.48 8.57-6.83 25.16 2.27 12.88 30.29-8.95 13.31z"/><path fill="#8eb2bf" stroke="#8eb2bf" stroke-linejoin="round" d="m71.29 88.21 14.22-15.02 31.67 2.4 3.65 4.71-5.33 34.29-31.33 3.91z"/><path fill="#7ca6b6" stroke="#7ca6b6" stroke-linejoin="round" d="m115.5 114.59 5.33-34.29 42.42.78-1.45 37.72-38.65 3.96z"/><path fill="#7da7b6" stroke="#7da7b6" stroke-linejoin="round" d="m161.8 118.8 1.45-37.72 1.65-1.62 30.18.77 7.12 6.46 1.79 32.77-11.98 10.65-25.58-6.18z"/><path fill="#a3c7d3" stroke="#a3c7d3" stroke-linejoin="round" d="m203.99 119.46-1.79-32.77 36.77-4.8 3.1 4.05-2.54 36.02-1.46 1.09z"/><path fill="#9cc4d1" stroke="#9cc4d1" stroke-linejoin="round" d="m239.53 121.96 2.54-36.02 39.99 2.78 5.46 25.89-13.46 12.42z"/><path fill="#adcbd4" stroke="#adcbd4" stroke-linejoin="round" d="m287.52 114.61-5.46-25.89 4.29-8.35 25.88-11.04 20.26 12.61-6.29 29.75-17.77 8.37z"/><path fill="#a5c7d2" stroke="#a5c7d2" stroke-linejoin="round" d="m326.2 111.69 6.29-29.75 18.27-6.48 16.52 9.64.82 35.19-15.39 7.89z"/><path fill="#78a5ac" stroke="#78a5ac" stroke-linejoin="round" d="m368.1 120.29-.82-35.19 30.68-8.87 10.76 10.37-5.81 38.48-8.62 3.7z"/><path fill="#729ea6" stroke="#729ea6" stroke-linejoin="round" d="m402.91 125.08 5.81-38.48 31.4-2.11 9.51 35.76-25.6 13.3z"/><path fill="#7aa6b0" stroke="#7aa6b0" stroke-linejoin="round" d="m449.63 120.25-9.51-35.76 7.73-9.03 32.76 5.69-2 37.53-11.78 7.84z"/><path fill="#83afba" stroke="#83afba" stroke-linejoin="round" d="m478.61 118.68 2-37.53.46-.29 35.45 8.27-4.46 32.33z"/><path fill="#88b1b7" stroke="#88b1b7" stroke-linejoin="round" d="m512.06 121.46 4.46-32.33 5.7-5.23 35.21 8.74-.92 23.22-39.17 11.87z"/><path fill="#8db3bf" stroke="#8db3bf" stroke-linejoin="round" d="m556.51 115.86.92-23.22 10.74-11.17 30.26.59 5.99 40.67-2.7 1.98-35.36 2.7z"/><path fill="#546c72" stroke="#546c72" stroke-linejoin="round" d="m604.42 122.73-5.99-40.67 6.58-6.41 31.43.99 9.61 11.29-2.52 30.13-11.95 10.69z"/><path fill="#88b2c2" stroke="#88b2c2" stroke-linejoin="round" d="m643.53 118.06 2.52-30.13 32.84-4.01 7.8 43.05z"/><path fill="#92b0bd" stroke="#92b0bd" stroke-linejoin="round" d="m686.69 126.97-7.8-43.05 2.96-3.43 35.55-3.08 5.11 5.04-14.57 43.33-21.12 1.3z"/><path fill="#6a91a0" stroke="#6a91a0" stroke-linejoin="round" d="m707.94 125.78 14.57-43.33 30.89 3.06 9.29 31.96-15.8 15.32-28.38.54z"/><path fill="#6c8f9b" stroke="#6c8f9b" stroke-linejoin="round" d="m753.4 85.51 3.33-4.06 45.11-7.02 9.15 15.97-26.34 33.27-21.96-6.2z"/><path fill="#7a9ca8" stroke="#7a9ca8" stroke-linejoin="round" d="m784.65 123.67 26.34-33.27 22.08 7.42 8.39 27.86-45.28 14.76z"/><path fill="#6d8f99" stroke="#6d8f99" stroke-linejoin="round" d="m841.46 125.68-8.39-27.86 19.34-18.66 23.29 3.12 6.47 7.9-2.38 34.39-1.16 1.23-36.96.06z"/><path fill="#597f8c" stroke="#597f8c" stroke-linejoin="round" d="m879.79 124.57 2.38-34.39 38.15-2.43 6.11 33.2-2.34 2.11z"/><path fill="#698c92" stroke="#698c92" stroke-linejoin="round" d="m926.43 120.95-6.11-33.2 1.77-3.15L955.43 74l6.81 5.95-4 39.6-6.18 4.42z"/><path fill="#8daab1" stroke="#8daab1" stroke-linejoin="round" d="m958.24 119.55 4-39.6 28.06 1.27 5.82 39.76z"/><path fill="#81a4a7" stroke="#81a4a7" stroke-linejoin="round" d="m996.12 120.98-5.82-39.76 14.87-13.33 30.98 28.83-1.1 15.83-38.69 8.63z"/><path fill="#95b5ba" stroke="#95b5ba" stroke-linejoin="round" d="M1080 76.66V123l-35.81-.24-9.14-10.21 1.1-15.83 21.19-20.86z"/><path fill="#7394a1" stroke="#7394a1" stroke-linejoin="round" d="M0 176.38v-45.8l32.09 1.73 2.97 30.7z"/><path fill="#61818b" stroke="#61818b" stroke-linejoin="round" d="m35.06 163.01-2.97-30.7 5.05-5.06 38.08 4.56 7.06 32-5.14 7.79-28.44 2.34z"/><path fill="#5f8d9d" stroke="#5f8d9d" stroke-linejoin="round" d="m82.28 163.81-7.06-32 8.95-13.31 31.33-3.91 7.65 8.17-.98 35.87z"/><path fill="#6195a4" stroke="#6195a4" stroke-linejoin="round" d="m122.17 158.63.98-35.87 38.65-3.96 4.63 5.13-13.94 38.12-25.65.58z"/><path fill="#6592a4" stroke="#6592a4" stroke-linejoin="round" d="m152.49 162.05 13.94-38.12 25.58 6.18 5.97 27.65-35.56 12.34z"/><path fill="#6496aa" stroke="#6496aa" stroke-linejoin="round" d="m197.98 157.76-5.97-27.65 11.98-10.65 34.08 3.59-4.92 43.35-26-.39z"/><path fill="#6397ac" stroke="#6397ac" stroke-linejoin="round" d="m233.15 166.4 4.92-43.35 1.46-1.09 34.53 5.07 1.57 31.06-40.18 10.15z"/><path fill="#5f93a3" stroke="#5f93a3" stroke-linejoin="round" d="m275.63 158.09-1.57-31.06 13.46-12.42 20.91 5.45 7.2 38.53-35.9 3.11z"/><path fill="#659db1" stroke="#659db1" stroke-linejoin="round" d="m315.63 158.59-7.2-38.53 17.77-8.37 26.51 16.49-5.22 25.28-28.88 7.3z"/><path fill="#8cb3c1" stroke="#8cb3c1" stroke-linejoin="round" d="m347.49 153.46 5.22-25.28 15.39-7.89 26.19 8.49-8.58 39.22-22.84 1.38z"/><path fill="#658d95" stroke="#658d95" stroke-linejoin="round" d="m385.71 168 8.58-39.22 8.62-3.7 21.12 8.47 6.57 35.85-33.81 8.25z"/><path fill="#789ba5" stroke="#789ba5" stroke-linejoin="round" d="m430.6 169.4-6.57-35.85 25.6-13.3 17.2 6.27 4.34 31.89-39.27 11.77z"/><path fill="#85abb8" stroke="#85abb8" stroke-linejoin="round" d="m471.17 158.41-4.34-31.89 11.78-7.84 33.45 2.78 5.28 6.27 1.55 28.69-8.66 9.36-31.73-1.2z"/><path fill="#83a9b1" stroke="#83a9b1" stroke-linejoin="round" d="m518.89 156.42-1.55-28.69 39.17-11.87 9.85 11.55-7.5 35.06z"/><path fill="#698f9d" stroke="#698f9d" stroke-linejoin="round" d="m558.86 162.47 7.5-35.06 35.36-2.7-7.4 41.3-32.6.08z"/><path fill="#8eb2be" stroke="#8eb2be" stroke-linejoin="round" d="m594.32 166.01 7.4-41.3 2.7-1.98 27.16 6.02 6.48 27.65-1.36 2.4-33.24 14.78z"/><path fill="#7098ab" stroke="#7098ab" stroke-linejoin="round" d="m638.06 156.4-6.48-27.65 11.95-10.69 43.16 8.91.13.11-10.97 32.43z"/><path fill="#84a3ad" stroke="#84a3ad" stroke-linejoin="round" d="m675.85 159.51 10.97-32.43 21.12-1.3 10.57 7.55-2.27 43.7-3.42 2.66-33.58-13.09z"/><path fill="#6c98a6" stroke="#6c98a6" stroke-linejoin="round" d="m716.24 177.03 2.27-43.7 28.38-.54 8.54 36-6.11 7.56z"/><path fill="#97b8c3" stroke="#97b8c3" stroke-linejoin="round" d="m755.43 168.79-8.54-36 15.8-15.32 21.96 6.2 11.53 16.77-.41 14.73-9.22 11.05z"/><path fill="#6995a5" stroke="#6995a5" stroke-linejoin="round" d="m795.77 155.17.41-14.73 45.28-14.76.21.18.64 42.56-9.15 4.63z"/><path fill="#7599a3" stroke="#7599a3" stroke-linejoin="round" d="m842.31 168.42-.64-42.56 36.96-.06 5.25 31.81-18.55 18.13z"/><path fill="#61858f" stroke="#61858f" stroke-linejoin="round" d="m883.88 157.61-5.25-31.81 1.16-1.23 44.3-1.51-6.96 43.08z"/><path fill="#607d82" stroke="#607d82" stroke-linejoin="round" d="m917.13 166.14 6.96-43.08 2.34-2.11 25.63 3.02 8.53 36.6-5.7 7.21-35.15 2.06z"/><path fill="#86a8af" stroke="#86a8af" stroke-linejoin="round" d="m960.59 160.57-8.53-36.6 6.18-4.42 37.88 1.43.24.2.92 35.86z"/><path fill="#8badb1" stroke="#8badb1" stroke-linejoin="round" d="m997.28 157.04-.92-35.86 38.69-8.63 9.14 10.21-7.27 39.33-32.8 1.87z"/><path fill="#88a9a7" stroke="#88a9a7" stroke-linejoin="round" d="M1080 123v45.09l-34.84 1.88-8.24-7.88 7.27-39.33z"/><path fill="#789f9c" stroke="#789f9c" stroke-linejoin="round" d="M0 205.13v-28.75l35.06-13.37 13.64 10.93-13.29 34.98z"/><path fill="#83a89b" stroke="#83a89b" stroke-linejoin="round" d="m35.41 208.92 13.29-34.98 28.44-2.34 8.64 29.09-13.35 16.78-29.19.63z"/><path fill="#719796" stroke="#719796" stroke-linejoin="round" d="m85.78 200.69-8.64-29.09 5.14-7.79 39.89-5.18 4.67 4-1.49 44.1-5.16 3.66z"/><path fill="#81a9a3" stroke="#81a9a3" stroke-linejoin="round" d="m125.35 206.73 1.49-44.1 25.65-.58 9.93 8.05 4.36 28.96-11.72 10.23z"/><path fill="#799fa4" stroke="#799fa4" stroke-linejoin="round" d="m166.78 199.06-4.36-28.96 35.56-12.34 9.17 8.25-13.51 36.12z"/><path fill="#88b2a4" stroke="#88b2a4" stroke-linejoin="round" d="m193.64 202.13 13.51-36.12 26 .39 2.3 1.84 8.09 32.01-5.97 7.92-35.95 4.01z"/><path fill="#80a3aa" stroke="#80a3aa" stroke-linejoin="round" d="m243.54 200.25-8.09-32.01 40.18-10.15 4.1 3.61 2.18 33.36-8.23 7.78z"/><path fill="#79a1a8" stroke="#79a1a8" stroke-linejoin="round" d="m281.91 195.06-2.18-33.36 35.9-3.11 2.98 2.17.28 34.82-2.33 2.06z"/><path fill="#6c979b" stroke="#6c979b" stroke-linejoin="round" d="m318.89 195.58-.28-34.82 28.88-7.3 15.38 15.92-12.25 29.69z"/><path fill="#79a29b" stroke="#79a29b" stroke-linejoin="round" d="m350.62 199.07 12.25-29.69 22.84-1.38 11.08 9.65-1.42 31.25-36.72 2.65z"/><path fill="#487775" stroke="#487775" stroke-linejoin="round" d="m395.37 208.9 1.42-31.25 33.81-8.25 1.3.78 10.95 36.13-11.64 11.14-30.13-1.84z"/><path fill="#a2b4c1" stroke="#a2b4c1" stroke-linejoin="round" d="m431.9 170.18 39.27-11.77 7.33 6.17-10.04 43.14-25.61-1.41z"/><path fill="#95b5b5" stroke="#95b5b5" stroke-linejoin="round" d="m468.46 207.72 10.04-43.14 31.73 1.2 5.72 33.73-39.93 14.7z"/><path fill="#6c8f98" stroke="#6c8f98" stroke-linejoin="round" d="m515.95 199.51-5.72-33.73 8.66-9.36 39.97 6.05 2.86 3.62-3.91 41.02-28.91 3.13z"/><path fill="#92b3be" stroke="#92b3be" stroke-linejoin="round" d="m557.81 207.11 3.91-41.02 32.6-.08 9.14 7.57 2.85 30.4-5.28 4.43-42.28-.55z"/><path fill="#4c656c" stroke="#4c656c" stroke-linejoin="round" d="m606.31 203.98-2.85-30.4 33.24-14.78 8.1 38.35-11.21 10.45z"/><path fill="#86acb4" stroke="#86acb4" stroke-linejoin="round" d="m644.8 197.15-8.1-38.35 1.36-2.4 37.79 3.11 3.39 7.09-13.69 29.33z"/><path fill="#92b1b6" stroke="#92b1b6" stroke-linejoin="round" d="m665.55 195.93 13.69-29.33 33.58 13.09-2.75 18.96-26.97 16.26z"/><path fill="#739dab" stroke="#739dab" stroke-linejoin="round" d="m710.07 198.65 2.75-18.96 3.42-2.66 33.08-.68 7.65 29.52-2.92 6.55-24.51 7.47z"/><path fill="#6c8d96" stroke="#6c8d96" stroke-linejoin="round" d="m756.97 205.87-7.65-29.52 6.11-7.56 31.12-2.57 6.78 32.31z"/><path fill="#5d818a" stroke="#5d818a" stroke-linejoin="round" d="m793.33 198.53-6.78-32.31 9.22-11.05 37.39 17.88-12.98 31.82-16.2 2.21z"/><path fill="#809fac" stroke="#809fac" stroke-linejoin="round" d="m820.18 204.87 12.98-31.82 9.15-4.63 23.02 7.32 9.1 27.61-1.82 4.78-32.78 13.55z"/><path fill="#6795a7" stroke="#6795a7" stroke-linejoin="round" d="m874.43 203.35-9.1-27.61 18.55-18.13 33.25 8.53 2.61 3.7-4.58 24.23z"/><path fill="#6b8c93" stroke="#6b8c93" stroke-linejoin="round" d="m915.16 194.07 4.58-24.23 35.15-2.06 9.24 31.33-12.92 15.9-26.88-6.88z"/><path fill="#85aab2" stroke="#85aab2" stroke-linejoin="round" d="m964.13 199.11-9.24-31.33 5.7-7.21 36.69-3.53 6.84 6.92-7.28 35.24z"/><path fill="#95b2b5" stroke="#95b2b5" stroke-linejoin="round" d="m996.84 199.2 7.28-35.24 32.8-1.87 8.24 7.88-3.23 33.76-37.78 5.63z"/><path fill="#96b5b9" stroke="#96b5b9" stroke-linejoin="round" d="M1080 168.09v46.57l-29.22-.98-8.85-9.95 3.23-33.76z"/><path fill="#568079" stroke="#568079" stroke-linejoin="round" d="M0 249.88v-44.75l35.41 3.79 7.83 9.18-6.26 31.36z"/><path fill="#7b9d8c" stroke="#7b9d8c" stroke-linejoin="round" d="m36.98 249.46 6.26-31.36 29.19-.63 10.03 31.38-10.15 8.55-35.3-7.9z"/><path fill="#7da298" stroke="#7da298" stroke-linejoin="round" d="m72.43 217.47 13.35-16.78 34.41 9.7-4.4 37.93-3.99 3.87-29.34-3.34z"/><path fill="#7ba493" stroke="#7ba493" stroke-linejoin="round" d="m115.79 248.32 4.4-37.93 5.16-3.66 29.71 2.56 9.84 37.89-4.5 6.16z"/><path fill="#80a999" stroke="#80a999" stroke-linejoin="round" d="m164.9 247.18-9.84-37.89 11.72-10.23 26.86 3.07 7.98 10.05-4.42 28.55z"/><path fill="#779d97" stroke="#779d97" stroke-linejoin="round" d="m197.2 240.73 4.42-28.55 35.95-4.01 5.18 37.18-32.79 7.47z"/><path fill="#869da3" stroke="#869da3" stroke-linejoin="round" d="m242.75 245.35-5.18-37.18 5.97-7.92 30.14 2.59 8.84 37.04-5.51 6.79-27.24 3.1z"/><path fill="#80a59d" stroke="#80a59d" stroke-linejoin="round" d="m282.52 239.88-8.84-37.04 8.23-7.78 34.65 2.58-2.85 37.1z"/><path fill="#80aa9e" stroke="#80aa9e" stroke-linejoin="round" d="m313.71 234.74 2.85-37.1 2.33-2.06 31.73 3.49 8.03 12.48-7.02 27.61-29.63 1.77z"/><path fill="#739d97" stroke="#739d97" stroke-linejoin="round" d="m351.63 239.16 7.02-27.61 36.72-2.65 5.71 6.71-8.73 31.63-37.63-4.41z"/><path fill="#88ada4" stroke="#88ada4" stroke-linejoin="round" d="m392.35 247.24 8.73-31.63 30.13 1.84 6.39 34.52-8.5 10.66-30.35-3.56z"/><path fill="#88b0a5" stroke="#88b0a5" stroke-linejoin="round" d="m437.6 251.97-6.39-34.52 11.64-11.14 25.61 1.41 7.56 6.49 5.46 31.74-3.69 4.95z"/><path fill="#a3bac4" stroke="#a3bac4" stroke-linejoin="round" d="m481.48 245.95-5.46-31.74 39.93-14.7 12.95 10.73-11.09 35.56z"/><path fill="#729ca9" stroke="#729ca9" stroke-linejoin="round" d="m517.81 245.8 11.09-35.56 28.91-3.13.94.75 6.03 38.94-8.57 9.81-27.9 2.38z"/><path fill="#b7d0d6" stroke="#b7d0d6" stroke-linejoin="round" d="m564.78 246.8-6.03-38.94 42.28.55-.06 39.8-3.05 2.26z"/><path fill="#536b72" stroke="#536b72" stroke-linejoin="round" d="m600.97 248.21.06-39.8 5.28-4.43 27.28 3.62 11.28 33.13-8.72 13.21z"/><path fill="#96b5c1" stroke="#96b5c1" stroke-linejoin="round" d="m633.59 207.6 11.21-10.45 20.75-1.22 17.55 18.98-2.54 20.68-35.69 5.14z"/><path fill="#7f9ea9" stroke="#7f9ea9" stroke-linejoin="round" d="m680.56 235.59 2.54-20.68 26.97-16.26 19.47 21.24-9.41 28.6-28.16.09z"/><path fill="#6c919d" stroke="#6c919d" stroke-linejoin="round" d="m720.13 248.49 9.41-28.6 24.51-7.47 15.98 26.97-14.21 17.88-27.71-.56z"/><path fill="#718590" stroke="#718590" stroke-linejoin="round" d="m754.05 212.42 2.92-6.55 36.36-7.34 10.65 8.55-13.36 32.12-20.59.19z"/><path fill="#638690" stroke="#638690" stroke-linejoin="round" d="m790.62 239.2 13.36-32.12 16.2-2.21 19.65 16.81-1.97 27.38-1.2 1.37-38.37-1.85z"/><path fill="#7e9faa" stroke="#7e9faa" stroke-linejoin="round" d="m837.86 249.06 1.97-27.38 32.78-13.55 20.17 39.39-10.87 8.18z"/><path fill="#7c9fa9" stroke="#7c9fa9" stroke-linejoin="round" d="m872.61 208.13 1.82-4.78 40.73-9.28 9.17 14.06-21.91 40.08-9.64-.69z"/><path fill="#688a93" stroke="#688a93" stroke-linejoin="round" d="m902.42 248.21 21.91-40.08 26.88 6.88 5.61 20.63-9.07 14.38-35.87 5.08z"/><path fill="#7b9e9f" stroke="#7b9e9f" stroke-linejoin="round" d="m956.82 235.64-5.61-20.63 12.92-15.9 32.71.09 7.31 10.16-3.21 30.54-4.72 2.84z"/><path fill="#8eb3b8" stroke="#8eb3b8" stroke-linejoin="round" d="m1000.94 239.9 3.21-30.54 37.78-5.63 8.85 9.95-11.2 34.13-8.9 4.83z"/><path fill="#96b5ba" stroke="#96b5ba" stroke-linejoin="round" d="M1080 214.66v45.67l-40.42-12.52 11.2-34.13z"/><path fill="#c6d7db" stroke="#c6d7db" stroke-linejoin="round" d="M0 288.19v-38.31l36.98-.42.03.04-.54 38.97z"/><path fill="#b8cad2" stroke="#b8cad2" stroke-linejoin="round" d="m36.47 288.47.54-38.97 35.3 7.9-2.89 28.69-26.67 7.61z"/><path fill="#b6ccd6" stroke="#b6ccd6" stroke-linejoin="round" d="m69.42 286.09 2.89-28.69 10.15-8.55 29.34 3.34 2.03 28.45-27.53 17.7z"/><path fill="#acc2cf" stroke="#acc2cf" stroke-linejoin="round" d="m113.83 280.64-2.03-28.45 3.99-3.87 44.61 5.02 3.24 32.72-9.09 8.27-20.28 1.52z"/><path fill="#64787f" stroke="#64787f" stroke-linejoin="round" d="m163.64 286.06-3.24-32.72 4.5-6.16 32.3-6.45 12.76 12.09-2.77 26.63-16.94 11.8z"/><path fill="#81a3af" stroke="#81a3af" stroke-linejoin="round" d="m207.19 279.45 2.77-26.63 32.79-7.47 7.02 4.42-4.54 44.37-3.76 2.08z"/><path fill="#7ea3ad" stroke="#7ea3ad" stroke-linejoin="round" d="m245.23 294.14 4.54-44.37 27.24-3.1 14.28 39.52-13.18 12.7z"/><path fill="#8ca8a7" stroke="#8ca8a7" stroke-linejoin="round" d="m277.01 246.67 5.51-6.79 31.19-5.14 8.29 6.19-4.23 45.23-26.48.03z"/><path fill="#7da4a7" stroke="#7da4a7" stroke-linejoin="round" d="m317.77 286.16 4.23-45.23 29.63-1.77 3.09 3.67.66 35.44-35.93 9.01z"/><path fill="#618989" stroke="#618989" stroke-linejoin="round" d="m355.38 278.27-.66-35.44 37.63 4.41 6.4 11.83-14.95 26.91-12.13 3.34z"/><path fill="#759ca6" stroke="#759ca6" stroke-linejoin="round" d="m383.8 285.98 14.95-26.91 30.35 3.56 7.3 29.72-26.94 13.23z"/><path fill="#759ca3" stroke="#759ca3" stroke-linejoin="round" d="m436.4 292.35-7.3-29.72 8.5-10.66 40.19-1.07 2.3 37-38.59 7.29z"/><path fill="#a4b4bc" stroke="#a4b4bc" stroke-linejoin="round" d="m480.09 287.9-2.3-37 3.69-4.95 36.33-.15 10.5 13.19-7.93 32.11-5.44 3.13-32.17-3.93z"/><path fill="#799ca1" stroke="#799ca1" stroke-linejoin="round" d="m520.38 291.1 7.93-32.11 27.9-2.38L567.77 287l-18.14 15.58z"/><path fill="#6d929b" stroke="#6d929b" stroke-linejoin="round" d="m556.21 256.61 8.57-9.81 33.14 3.67-4.98 39.98-25.17-3.45z"/><path fill="#94b5bf" stroke="#94b5bf" stroke-linejoin="round" d="m592.94 290.45 4.98-39.98 3.05-2.26 35.18 5.73 6.28 28.07-45.14 13.09z"/><path fill="#82a29c" stroke="#82a29c" stroke-linejoin="round" d="m642.43 282.01-6.28-28.07 8.72-13.21 35.69-5.14 11.41 12.99-12.01 35.05-34.8.78z"/><path fill="#151414" stroke="#151414" stroke-linejoin="round" d="m679.96 283.63 12.01-35.05 28.16-.09 7.98 8.22-3.54 33.99-13.28 8.02-23.48-5.58z"/><path fill="#121310" stroke="#121310" stroke-linejoin="round" d="m724.57 290.7 3.54-33.99 27.71.56 15.2 30.83-18.62 13.85z"/><path fill="#799298" stroke="#799298" stroke-linejoin="round" d="m755.82 257.27 14.21-17.88 20.59-.19 7.67 9.38-5.61 40.39-1.2 1.32-20.46-2.19z"/><path fill="#708f95" stroke="#708f95" stroke-linejoin="round" d="m792.68 288.97 5.61-40.39 38.37 1.85-1.78 28.94z"/><path fill="#60858c" stroke="#60858c" stroke-linejoin="round" d="m834.88 279.37 1.78-28.94 1.2-1.37 44.05 6.64-9.26 34.45-24.23 5.3z"/><path fill="#6b909d" stroke="#6b909d" stroke-linejoin="round" d="m872.65 290.15 9.26-34.45 10.87-8.18 9.64.69 9.46 6.89 7.55 38.15-4.01 5.17-22.95 7.39z"/><path fill="#70929b" stroke="#70929b" stroke-linejoin="round" d="m919.43 293.25-7.55-38.15 35.87-5.08 13.19 34.3-5.75 6.66z"/><path fill="#8ca9b1" stroke="#8ca9b1" stroke-linejoin="round" d="m960.94 284.32-13.19-34.3 9.07-14.38 39.4 7.1-11.94 38.75z"/><path fill="#a46960" stroke="#a46960" stroke-linejoin="round" d="m984.28 281.49 11.94-38.75 4.72-2.84 29.74 12.74-.68 35.11-27.49 8.87z"/><path fill="#7d7b76" stroke="#7d7b76" stroke-linejoin="round" d="M1080 260.33v28.84l-34.59 8.74-15.41-10.16.68-35.11 8.9-4.83z"/><path fill="#a1bcc4" stroke="#a1bcc4" stroke-linejoin="round" d="M0 328.34v-40.15l36.47.28 6.28 5.23-1.35 36.27z"/><path fill="#9cb4c0" stroke="#9cb4c0" stroke-linejoin="round" d="m41.4 329.97 1.35-36.27 26.67-7.61 16.88 12.25 1.9 27.38-.36.42-42.99 7.5z"/><path fill="#9eb4bf" stroke="#9eb4bf" stroke-linejoin="round" d="m88.2 325.72-1.9-27.38 27.53-17.7 20.44 15.21-15.47 31.06z"/><path fill="#9cafbb" stroke="#9cafbb" stroke-linejoin="round" d="m118.8 326.91 15.47-31.06 20.28-1.52 8.1 43.08-3.62 3.21-28.98.03z"/><path fill="#9eb0bc" stroke="#9eb0bc" stroke-linejoin="round" d="m162.65 337.41-8.1-43.08 9.09-8.27 26.61 5.19 10.91 37.95-7.94 8.7z"/><path fill="#799ea8" stroke="#799ea8" stroke-linejoin="round" d="m190.25 291.25 16.94-11.8 34.28 16.77-10.89 30.06-29.42 2.92z"/><path fill="#86a8b0" stroke="#86a8b0" stroke-linejoin="round" d="m230.58 326.28 10.89-30.06 3.76-2.08 32.88 4.75 5.28 35.28-40.83 7.02z"/><path fill="#749ba4" stroke="#749ba4" stroke-linejoin="round" d="m283.39 334.17-5.28-35.28 13.18-12.7 26.48-.03 1.68 1.12 10.96 38.98-4.99 5.77-39.37 4.55z"/><path fill="#769ca9" stroke="#769ca9" stroke-linejoin="round" d="m319.45 287.28 35.93-9.01 16.29 11.05-10.21 36.44-31.05.5z"/><path fill="#7d9eaa" stroke="#7d9eaa" stroke-linejoin="round" d="m361.46 325.76 10.21-36.44 12.13-3.34 25.66 19.6-3.76 21.33-14.04 8.15-26.67-5.7z"/><path fill="#588388" stroke="#588388" stroke-linejoin="round" d="m405.7 326.91 3.76-21.33 26.94-13.23 5.1 2.84 6.74 34.23-15.38 14.2z"/><path fill="#668d96" stroke="#668d96" stroke-linejoin="round" d="m448.24 329.42-6.74-34.23 38.59-7.29 2.68 2.4-5.18 44.13z"/><path fill="#7aa0ab" stroke="#7aa0ab" stroke-linejoin="round" d="m477.59 334.43 5.18-44.13 32.17 3.93-1.48 42.25-27.62 7.87z"/><path fill="#7ea4a7" stroke="#7ea4a7" stroke-linejoin="round" d="m513.46 336.48 1.48-42.25 5.44-3.13 29.25 11.48 5.71 26.84-27.78 13.93z"/><path fill="#a9b5c3" stroke="#a9b5c3" stroke-linejoin="round" d="m555.34 329.42-5.71-26.84L567.77 287l25.17 3.45 4.35 4.65 1.13 25.56-36.04 12.12z"/><path fill="#547179" stroke="#547179" stroke-linejoin="round" d="m598.42 320.66-1.13-25.56 45.14-13.09 2.73 2.4-1.34 42.63-5.58 4.75-31.09-2.45z"/><path fill="#525357" stroke="#525357" stroke-linejoin="round" d="m643.82 327.04 1.34-42.63 34.8-.78 7.85 9.51-12.83 37.71z"/><path fill="#a38183" stroke="#a38183" stroke-linejoin="round" d="m674.98 330.85 12.83-37.71 23.48 5.58 4.29 33.35-36.41 3.46z"/><path fill="#8c5a4b" stroke="#8c5a4b" stroke-linejoin="round" d="m715.58 332.07-4.29-33.35 13.28-8.02 27.83 11.25-.72 21.9-32.09 11.88z"/><path fill="#859fa1" stroke="#859fa1" stroke-linejoin="round" d="m751.68 323.85.72-21.9 18.62-13.85 20.46 2.19 8.74 27.4-8.77 13.89-25.72 7.06z"/><path fill="#5e8798" stroke="#5e8798" stroke-linejoin="round" d="m791.48 290.29 1.2-1.32 42.2-9.6 13.54 16.08-9.41 29.04-38.79-6.8z"/><path fill="#6d919f" stroke="#6d919f" stroke-linejoin="round" d="m839.01 324.49 9.41-29.04 24.23-5.3 19.82 15.66-5.55 24.48-10.88 8.04-36.6-12.95z"/><path fill="#84a7b3" stroke="#84a7b3" stroke-linejoin="round" d="m886.92 330.29 5.55-24.48 22.95-7.39 17.36 38.69-11.57 11.59z"/><path fill="#93a5b1" stroke="#93a5b1" stroke-linejoin="round" d="m932.78 337.11-17.36-38.69 4.01-5.17 35.76-2.27 4.9 36.04-5.78 7.12z"/><path fill="#bb8987" stroke="#bb8987" stroke-linejoin="round" d="m960.09 327.02-4.9-36.04 5.75-6.66 23.34-2.83 18.23 15.13-4.91 28.76z"/><path fill="#885846" stroke="#885846" stroke-linejoin="round" d="m997.6 325.38 4.91-28.76 27.49-8.87 15.41 10.16-3.47 40.19-1.88 1.36-35.54-3.89z"/><path fill="#231d19" stroke="#231d19" stroke-linejoin="round" d="M1080 289.17v54.69l-38.06-5.76 3.47-40.19z"/><path fill="#88a1ac" stroke="#88a1ac" stroke-linejoin="round" d="M0 375.17v-46.83l41.4 1.63 3.45 3.67.17 24.49-17.83 17.48z"/><path fill="#8aa1ae" stroke="#8aa1ae" stroke-linejoin="round" d="m45.02 358.13-.17-24.49 42.99-7.5 3.63 43.56-11.39 8.11z"/><path fill="#8ea4b1" stroke="#8ea4b1" stroke-linejoin="round" d="m91.47 369.7-3.63-43.56.36-.42 30.6 1.19 11.25 13.74-13.01 32.1z"/><path fill="#8495a0" stroke="#8495a0" stroke-linejoin="round" d="m117.04 372.75 13.01-32.1 28.98-.03-.76 32.97-39.12 1.42z"/><path fill="#98aab6" stroke="#98aab6" stroke-linejoin="round" d="m158.27 373.59.76-32.97 3.62-3.21 30.57.49 8.92 40.22-2.93 3.7-37.6-3.95z"/><path fill="#8dadb4" stroke="#8dadb4" stroke-linejoin="round" d="m202.14 378.12-8.92-40.22 7.94-8.7 29.42-2.92 11.98 14.91-2.72 28.78-3.58 3.62z"/><path fill="#7fa2a9" stroke="#7fa2a9" stroke-linejoin="round" d="m239.84 369.97 2.72-28.78 40.83-7.02 2.66 2.41.42 31.08-10.72 8.57z"/><path fill="#7b9fa8" stroke="#7b9fa8" stroke-linejoin="round" d="m286.47 367.66-.42-31.08 39.37-4.55 4.4 38.82-14.13 9.23z"/><path fill="#799fa6" stroke="#799fa6" stroke-linejoin="round" d="m329.82 370.85-4.4-38.82 4.99-5.77 31.05-.5 3.53 3.6-4.57 47.9-1.81 1.33z"/><path fill="#d4dee1" stroke="#d4dee1" stroke-linejoin="round" d="m360.42 377.26 4.57-47.9 26.67 5.7 4.61 39.33z"/><path fill="#becad0" stroke="#becad0" stroke-linejoin="round" d="m396.27 374.39-4.61-39.33 14.04-8.15 27.16 16.71.08 18.58-31.77 15.07z"/><path fill="#d0dbe0" stroke="#d0dbe0" stroke-linejoin="round" d="m432.94 362.2-.08-18.58 15.38-14.2 29.35 5.01 8.25 9.92-3.76 16.73-34.53 12.48z"/><path fill="#b4c2cb" stroke="#b4c2cb" stroke-linejoin="round" d="m482.08 361.08 3.76-16.73 27.62-7.87 14.1 6.87 5.57 34.31-7.54 4.51-33.39-3.82z"/><path fill="#cdd6db" stroke="#cdd6db" stroke-linejoin="round" d="m533.13 377.66-5.57-34.31 27.78-13.93 7.04 3.36 10.56 36.4-27.21 12.14z"/><path fill="#a2b4be" stroke="#a2b4be" stroke-linejoin="round" d="m572.94 369.18-10.56-36.4 36.04-12.12 8.73 8.68-9.25 37.71-12.84 6.23z"/><path fill="#89a6b0" stroke="#89a6b0" stroke-linejoin="round" d="m597.9 367.05 9.25-37.71 31.09 2.45 3.09 36.54-10.26 10.39z"/><path fill="#dfe8e8" stroke="#dfe8e8" stroke-linejoin="round" d="m641.33 368.33-3.09-36.54 5.58-4.75 31.16 3.81 4.19 4.68 1.58 37.05-.38.32z"/><path fill="#b6828b" stroke="#b6828b" stroke-linejoin="round" d="m680.75 372.58-1.58-37.05 36.41-3.46 4.01 3.66 2.19 22.52-14.84 14.58z"/><path fill="#664c49" stroke="#664c49" stroke-linejoin="round" d="m721.78 358.25-2.19-22.52 32.09-11.88 14.05 14.79-5.75 23.89-7.68 5.46z"/><path fill="#252a31" stroke="#252a31" stroke-linejoin="round" d="m759.98 362.53 5.75-23.89 25.72-7.06 14.69 32.57-12.2 12.87z"/><path fill="#b0c6cb" stroke="#b0c6cb" stroke-linejoin="round" d="m791.45 331.58 8.77-13.89 38.79 6.8.43.89-8.84 37.25-24.46 1.52z"/><path fill="#819492" stroke="#819492" stroke-linejoin="round" d="m830.6 362.63 8.84-37.25 36.6 12.95-1.82 38.08-32.87-1.92z"/><path fill="#617675" stroke="#617675" stroke-linejoin="round" d="m874.22 376.41 1.82-38.08 10.88-8.04 34.29 18.41-2.83 22.25-40.11 9.23z"/><path fill="#ac979e" stroke="#ac979e" stroke-linejoin="round" d="m918.38 370.95 2.83-22.25 11.57-11.59 21.53-2.97 14.79 35.64-4.52 5.09-39.49 3.02z"/><path fill="#805e5c" stroke="#805e5c" stroke-linejoin="round" d="m969.1 369.78-14.79-35.64 5.78-7.12 37.51-1.64 6.92 10.19-11.75 32.34z"/><path fill="#753f2f" stroke="#753f2f" stroke-linejoin="round" d="m992.77 367.91 11.75-32.34 35.54 3.89-3.99 41.85-1.13.98-31.7-3.08z"/><path fill="#642826" stroke="#642826" stroke-linejoin="round" d="M1080 343.86v40.62l-43.93-3.17 3.99-41.85 1.88-1.36z"/><path fill="#26454f" stroke="#26454f" stroke-linejoin="round" d="M0 415.89v-40.72l27.19.44 14.63 30.6-10.09 13.95z"/><path fill="#325e6d" stroke="#325e6d" stroke-linejoin="round" d="m27.19 375.61 17.83-17.48 35.06 19.68-5.82 26.07-32.44 2.33z"/><path fill="#24475a" stroke="#24475a" stroke-linejoin="round" d="m74.26 403.88 5.82-26.07 11.39-8.11 25.57 3.05 2.11 2.26 6.73 35.26-8.23 8.6-34.9-1.87z"/><path fill="#4a4c54" stroke="#4a4c54" stroke-linejoin="round" d="m125.88 410.27-6.73-35.26 39.12-1.42 3.34 4.28-9.73 32.51z"/><path fill="#5b5f67" stroke="#5b5f67" stroke-linejoin="round" d="m151.88 410.38 9.73-32.51 37.6 3.95-.66 17.39-33.78 22.49z"/><path fill="#545459" stroke="#545459" stroke-linejoin="round" d="m198.55 399.21.66-17.39 2.93-3.7 34.12-4.53 9.77 40.93-2.94 3.52-28.18 4.03z"/><path fill="#636368" stroke="#636368" stroke-linejoin="round" d="m246.03 414.52-9.77-40.93 3.58-3.62 35.91 6.26-.43 33.65z"/><path fill="#5b6668" stroke="#5b6668" stroke-linejoin="round" d="m275.32 409.88.43-33.65 10.72-8.57 29.22 12.42-4.21 35.41-24 2.68z"/><path fill="#4f5e5f" stroke="#4f5e5f" stroke-linejoin="round" d="m311.48 415.49 4.21-35.41 14.13-9.23 28.79 7.74-.45 34.14-41.14 7.17z"/><path fill="#b3c4cc" stroke="#b3c4cc" stroke-linejoin="round" d="m358.16 412.73.45-34.14 1.81-1.33 35.85-2.87 4.9 2.88 6.55 31.96-10.83 9.44-32.63.4z"/><path fill="#c6d3d9" stroke="#c6d3d9" stroke-linejoin="round" d="m407.72 409.23-6.55-31.96 31.77-15.07 14.61 11.36 1.85 34.79-14.37 7.17z"/><path fill="#c6d5da" stroke="#c6d5da" stroke-linejoin="round" d="m449.4 408.35-1.85-34.79 34.53-12.48 10.12 17.27-8.22 24.14-22.56 9.81z"/><path fill="#b8c7ce" stroke="#b8c7ce" stroke-linejoin="round" d="m483.98 402.49 8.22-24.14 33.39 3.82-9.54 38.68-4.11 2.23z"/><path fill="#afbcc5" stroke="#afbcc5" stroke-linejoin="round" d="m516.05 420.85 9.54-38.68 7.54-4.51 12.6 3.66 13.54 41.82-4.1 4.58z"/><path fill="#acb9c1" stroke="#acb9c1" stroke-linejoin="round" d="m559.27 423.14-13.54-41.82 27.21-12.14 12.12 4.1 4.9 42.75z"/><path fill="#a5afb6" stroke="#a5afb6" stroke-linejoin="round" d="m589.96 416.03-4.9-42.75 12.84-6.23 33.17 11.67.38 25.91-34.53 14.92z"/><path fill="#2d3d4a" stroke="#2d3d4a" stroke-linejoin="round" d="m631.45 404.63-.38-25.91 10.26-10.39 39.04 4.57-5.61 36.58-30.18 4.85z"/><path fill="#777073" stroke="#777073" stroke-linejoin="round" d="m674.76 409.48 5.61-36.58.38-.32 26.19.25 17.67 36.6-7.19 6.12-34.29 1.93z"/><path fill="#261e1f" stroke="#261e1f" stroke-linejoin="round" d="m706.94 372.83 14.84-14.58 30.52 9.74-3.74 37.35-3.34 3.15-20.61.94z"/><path fill="#2c2827" stroke="#2c2827" stroke-linejoin="round" d="m748.56 405.34 3.74-37.35 7.68-5.46 33.96 14.49-.47 27.3z"/><path fill="#1e2428" stroke="#1e2428" stroke-linejoin="round" d="m793.47 404.32.47-27.3 12.2-12.87 24.46-1.52 10.75 11.86-15.06 39.88-26.25-2.41z"/><path fill="#333842" stroke="#333842" stroke-linejoin="round" d="m826.29 414.37 15.06-39.88 32.87 1.92 4.05 3.77 1.29 29.95-6.71 7.69-36.1 6.87z"/><path fill="#a9a9b5" stroke="#a9a9b5" stroke-linejoin="round" d="m879.56 410.13-1.29-29.95 40.11-9.23 6.71 6.94 3.36 37.37-13.42 5.81z"/><path fill="#8c5165" stroke="#8c5165" stroke-linejoin="round" d="m928.45 415.26-3.36-37.37 39.49-3.02.73 32.76-23.85 13.07z"/><path fill="#6c4436" stroke="#6c4436" stroke-linejoin="round" d="m965.31 407.63-.73-32.76 4.52-5.09 23.67-1.87 10.47 11.3-10.9 38.91z"/><path fill="#553120" stroke="#553120" stroke-linejoin="round" d="m992.34 418.12 10.9-38.91 31.7 3.08-.76 36.27-38.81 4.39z"/><path fill="#432920" stroke="#432920" stroke-linejoin="round" d="M1080 384.48v32.97l-36.85 9.85-8.97-8.74.76-36.27 1.13-.98z"/><path fill="#24363b" stroke="#24363b" stroke-linejoin="round" d="M0 460.8v-44.91l31.73 4.27 6.63 29.55z"/><path fill="#2c4955" stroke="#2c4955" stroke-linejoin="round" d="m38.36 449.71-6.63-29.55 10.09-13.95 32.44-2.33L82.75 417l-8.63 28.35-33 6.09z"/><path fill="#284453" stroke="#284453" stroke-linejoin="round" d="M74.12 445.35 82.75 417l34.9 1.87 7.32 37.85-4.57 3.64-39.71-6.56z"/><path fill="#7e8188" stroke="#7e8188" stroke-linejoin="round" d="m124.97 456.72-7.32-37.85 8.23-8.6 26 .11 12.89 11.32 3.93 22.23-13.05 16.52z"/><path fill="#535459" stroke="#535459" stroke-linejoin="round" d="m168.7 443.93-3.93-22.23 33.78-22.49 16.36 22.86-10.8 25.27z"/><path fill="#55565e" stroke="#55565e" stroke-linejoin="round" d="m204.11 447.34 10.8-25.27 28.18-4.03 9.09 37.2-19.88 10.58-21.25-6.8z"/><path fill="#5c5a5d" stroke="#5c5a5d" stroke-linejoin="round" d="m252.18 455.24-9.09-37.2 2.94-3.52 29.29-4.64 12.16 8.29-12.74 43.19z"/><path fill="#5c5a5b" stroke="#5c5a5b" stroke-linejoin="round" d="m274.74 461.36 12.74-43.19 24-2.68 5.54 4.41 5.79 34.71-7.02 11.42-39.3-2.53z"/><path fill="#6a7070" stroke="#6a7070" stroke-linejoin="round" d="m322.81 454.61-5.79-34.71 41.14-7.17 6.1 6.34-3.93 32.96z"/><path fill="#aebfc9" stroke="#aebfc9" stroke-linejoin="round" d="m360.33 452.03 3.93-32.96 32.63-.4 4.69 44.17-.23.29-32.73-.86z"/><path fill="#b1c1ca" stroke="#b1c1ca" stroke-linejoin="round" d="m401.58 462.84-4.69-44.17 10.83-9.44 27.31 6.29-1.73 37.98z"/><path fill="#b0bec7" stroke="#b0bec7" stroke-linejoin="round" d="m433.3 453.5 1.73-37.98 14.37-7.17 12.02 3.95 14.42 35.43-31.87 12.53z"/><path fill="#b0bec7" stroke="#b0bec7" stroke-linejoin="round" d="m461.42 412.3 22.56-9.81 27.96 20.59-8.66 21.4-24.68 4.53-2.76-1.28z"/><path fill="#a7b1ba" stroke="#a7b1ba" stroke-linejoin="round" d="m503.28 444.48 8.66-21.4 4.11-2.23 39.12 6.87-1.68 33.64-35.82 1.58z"/><path fill="#a2acb5" stroke="#a2acb5" stroke-linejoin="round" d="m553.49 461.36 1.68-33.64 4.1-4.58 30.69-7.11 6.96 3.52L607 456.88l-10.93 13.02-39.48-4.64z"/><path fill="#343940" stroke="#343940" stroke-linejoin="round" d="m607 456.88-10.08-37.33 34.53-14.92 13.13 9.7-1.89 42.96z"/><path fill="#2a3442" stroke="#2a3442" stroke-linejoin="round" d="m642.69 457.29 1.89-42.96 30.18-4.85 8.37 8-2.09 30.39-15.86 12.6-18.61-.04z"/><path fill="#293946" stroke="#293946" stroke-linejoin="round" d="m681.04 447.87 2.09-30.39 34.29-1.93-.73 41.53-2.33 1.56z"/><path fill="#878890" stroke="#878890" stroke-linejoin="round" d="m716.69 457.08.73-41.53 7.19-6.12 20.61-.94 13.85 42.47-8.53 8.92z"/><path fill="#383948" stroke="#383948" stroke-linejoin="round" d="m745.22 408.49 3.34-3.15 44.91-1.02 6.57 7.64-15.28 37.88-25.69 1.12z"/><path fill="#a5a3a7" stroke="#a5a3a7" stroke-linejoin="round" d="m784.76 449.84 15.28-37.88 26.25 2.41 10.46 10.32-1.05 27.03-34.89 15.06z"/><path fill="#97919a" stroke="#97919a" stroke-linejoin="round" d="m835.7 451.72 1.05-27.03 36.1-6.87 8.03 39.27-32.33 7.07z"/><path fill="#89858b" stroke="#89858b" stroke-linejoin="round" d="m880.88 457.09-8.03-39.27 6.71-7.69 35.47 10.94-9.56 36.18-17.68 3.91z"/><path fill="#7c604d" stroke="#7c604d" stroke-linejoin="round" d="m905.47 457.25 9.56-36.18 13.42-5.81 13.01 5.44 9.16 27.4-25.2 20.97z"/><path fill="#584034" stroke="#584034" stroke-linejoin="round" d="m950.62 448.1-9.16-27.4 23.85-13.07 27.03 10.49 3.03 4.83-3.78 20.24-24.93 11.64z"/><path fill="#39281f" stroke="#39281f" stroke-linejoin="round" d="m991.59 443.19 3.78-20.24 38.81-4.39 8.97 8.74-1.55 22.29-10.11 10.28-23.93.54z"/><path fill="#958d8e" stroke="#958d8e" stroke-linejoin="round" d="M1080 417.45v50.53l-38.4-18.39 1.55-22.29z"/><path fill="#273f47" stroke="#273f47" stroke-linejoin="round" d="M0 495.01V460.8l38.36-11.09 2.76 1.73 5.06 39.13-6.7 6.71z"/><path fill="#6e8690" stroke="#6e8690" stroke-linejoin="round" d="m46.18 490.57-5.06-39.13 33-6.09 6.57 8.45-3.55 37.31z"/><path fill="#274856" stroke="#274856" stroke-linejoin="round" d="m77.14 491.11 3.55-37.31 39.71 6.56-9.47 33.35-30.2.42z"/><path fill="#566772" stroke="#566772" stroke-linejoin="round" d="m110.93 493.71 9.47-33.35 4.57-3.64 30.68 3.73 10.12 31.08-43.57 16.61z"/><path fill="#899ca8" stroke="#899ca8" stroke-linejoin="round" d="m165.77 491.53-10.12-31.08 13.05-16.52 35.41 3.41 6.94 11.68-21.65 38.45-14.25 1.26z"/><path fill="#85929b" stroke="#85929b" stroke-linejoin="round" d="m189.4 497.47 21.65-38.45 21.25 6.8 3.45 31.01-29.71 10.56z"/><path fill="#7a8c97" stroke="#7a8c97" stroke-linejoin="round" d="m235.75 496.83-3.45-31.01 19.88-10.58 22.56 6.12 1.75 2.14-4.57 34.03-23.45 7.28z"/><path fill="#768892" stroke="#768892" stroke-linejoin="round" d="m271.92 497.53 4.57-34.03 39.3 2.53 7.06 21.44-12.97 19.11-24.61 2.55z"/><path fill="#696f6f" stroke="#696f6f" stroke-linejoin="round" d="m322.85 487.47-7.06-21.44 7.02-11.42 37.52-2.58 8.29 10.24-12.94 33.82z"/><path fill="#adbac3" stroke="#adbac3" stroke-linejoin="round" d="m355.68 496.09 12.94-33.82 32.73.86 5.55 33.07-8.58 9.33-38.41-2.16z"/><path fill="#afbdc6" stroke="#afbdc6" stroke-linejoin="round" d="m406.9 496.2-5.55-33.07.23-.29 31.72-9.34 10.67 6.76 4.75 27.75-13.08 13.02z"/><path fill="#a7b5be" stroke="#a7b5be" stroke-linejoin="round" d="m448.72 488.01-4.75-27.75 31.87-12.53 2.76 1.28 2.2 43.4z"/><path fill="#a6b4bd" stroke="#a6b4bd" stroke-linejoin="round" d="m480.8 492.41-2.2-43.4 24.68-4.53 14.39 18.46-11.35 30.57-20.39 3.39z"/><path fill="#a2adb6" stroke="#a2adb6" stroke-linejoin="round" d="m506.32 493.51 11.35-30.57 35.82-1.58 3.1 3.9-6.51 34.93-25.27 7.2z"/><path fill="#9ea7b0" stroke="#9ea7b0" stroke-linejoin="round" d="m550.08 500.19 6.51-34.93 39.48 4.64 5.24 29.47-1.25 1.65-33.38 14.14z"/><path fill="#694946" stroke="#694946" stroke-linejoin="round" d="m601.31 499.37-5.24-29.47L607 456.88l35.69.41 3.88 3.14-5 37.97-9.03 6.24z"/><path fill="#82504b" stroke="#82504b" stroke-linejoin="round" d="m641.57 498.4 5-37.97 18.61.04 23.33 35.3-14.34 14.25z"/><path fill="#bb8b79" stroke="#bb8b79" stroke-linejoin="round" d="m665.18 460.47 15.86-12.6 33.32 10.77-9.69 35.11-16.16 2.02z"/><path fill="#8d8485" stroke="#8d8485" stroke-linejoin="round" d="m704.67 493.75 9.69-35.11 2.33-1.56 33.85 2.8 2.5 33.61-43.52 4.02z"/><path fill="#79757c" stroke="#79757c" stroke-linejoin="round" d="m753.04 493.49-2.5-33.61 8.53-8.92 25.69-1.12 16.05 16.94-.31 24.71-8.97 7.53-34.5-.85z"/><path fill="#77737b" stroke="#77737b" stroke-linejoin="round" d="m800.5 491.49.31-24.71 34.89-15.06 12.85 12.44-1.47 30.34-11.14 10.35z"/><path fill="#84838e" stroke="#84838e" stroke-linejoin="round" d="m847.08 494.5 1.47-30.34 32.33-7.07 6.91 4.07-3.12 38.7z"/><path fill="#9193a0" stroke="#9193a0" stroke-linejoin="round" d="m884.67 499.86 3.12-38.7 17.68-3.91 19.95 11.82 4.83 24.9-44.59 7.08z"/><path fill="#53392a" stroke="#53392a" stroke-linejoin="round" d="m930.25 493.97-4.83-24.9 25.2-20.97 16.04 6.73 3.64 42.1-4.15 3.26-33.41-3.73z"/><path fill="#392c24" stroke="#392c24" stroke-linejoin="round" d="m970.3 496.93-3.64-42.1 24.93-11.64 15.97 17.22-9.99 30.54-6.87 4.92z"/><path fill="#535262" stroke="#535262" stroke-linejoin="round" d="m997.57 490.95 9.99-30.54 23.93-.54 8.35 34.28-3.59 4.1z"/><path fill="#a5a0a7" stroke="#a5a0a7" stroke-linejoin="round" d="M1080 467.98v21.83l-40.16 4.34-8.35-34.28 10.11-10.28z"/><path fill="#607784" stroke="#607784" stroke-linejoin="round" d="M0 541.33v-46.32l39.48 2.27 5.4 35.36-12.2 10.02z"/><path fill="#7e939d" stroke="#7e939d" stroke-linejoin="round" d="m44.88 532.64-5.4-35.36 6.7-6.71 30.96.54 3.59 3.02-3.74 40.78-3.33 2.37z"/><path fill="#375a6b" stroke="#375a6b" stroke-linejoin="round" d="m76.99 534.91 3.74-40.78 30.2-.42 11.27 14.43-1.1 25.93-2.64 2.8z"/><path fill="#828081" stroke="#828081" stroke-linejoin="round" d="m121.1 534.07 1.1-25.93 43.57-16.61 9.38 7.2-9.87 42.23z"/><path fill="#738591" stroke="#738591" stroke-linejoin="round" d="m165.28 540.96 9.87-42.23 14.25-1.26 16.64 9.92 7.77 31.18-10.66 11.48-37.34-8.24z"/><path fill="#75848d" stroke="#75848d" stroke-linejoin="round" d="m213.81 538.57-7.77-31.18 29.71-10.56 12.72 7.98-4.28 35.09z"/><path fill="#76818a" stroke="#76818a" stroke-linejoin="round" d="m244.19 539.9 4.28-35.09 23.45-7.28 13.35 11.6-6.55 37.38-2.26 2.81-29.21-6.33z"/><path fill="#717b84" stroke="#717b84" stroke-linejoin="round" d="m278.72 546.51 6.55-37.38 24.61-2.55 13.97 28.62-2.02 3z"/><path fill="#677883" stroke="#677883" stroke-linejoin="round" d="m309.88 506.58 12.97-19.11 32.83 8.62 4.23 7.28-7.23 28.2-28.83 3.63z"/><path fill="#687983" stroke="#687983" stroke-linejoin="round" d="m352.68 531.57 7.23-28.2 38.41 2.16 2.83 39.56-40.76-3.49z"/><path fill="#6b7c86" stroke="#6b7c86" stroke-linejoin="round" d="m401.15 545.09-2.83-39.56 8.58-9.33 28.74 4.83 10.52 34.22-3.74 4.92-38.75 7.68z"/><path fill="#9eacb5" stroke="#9eacb5" stroke-linejoin="round" d="m435.64 501.03 13.08-13.02 32.08 4.4 5.13 4.49-8.79 33.73-30.98 4.62z"/><path fill="#9ca7b1" stroke="#9ca7b1" stroke-linejoin="round" d="m477.14 530.63 8.79-33.73 20.39-3.39 18.49 13.88-3.84 33.9-.33.28-34.61-1.97z"/><path fill="#9ba4ad" stroke="#9ba4ad" stroke-linejoin="round" d="m520.97 541.29 3.84-33.9 25.27-7.2 16.6 14.97-.78 18.22-11.6 12.29z"/><path fill="#9ea3aa" stroke="#9ea3aa" stroke-linejoin="round" d="m565.9 533.38.78-18.22 33.38-14.14 5.44 42.52-5.8 5.86z"/><path fill="#95979a" stroke="#95979a" stroke-linejoin="round" d="m605.5 543.54-5.44-42.52 1.25-1.65 31.23 5.27 2.74 34.58z"/><path fill="#2e3640" stroke="#2e3640" stroke-linejoin="round" d="m635.28 539.22-2.74-34.58 9.03-6.24 32.6 11.62-.37 19.14-30.77 15.72z"/><path fill="#6a6b74" stroke="#6a6b74" stroke-linejoin="round" d="m673.8 529.16.37-19.14 14.34-14.25 16.16-2.02 4.85 3.76 10.94 38.86-7.35 8.78-22.14.43z"/><path fill="#81828d" stroke="#81828d" stroke-linejoin="round" d="m720.46 536.37-10.94-38.86 43.52-4.02 3.99 4.68-7.96 34.08z"/><path fill="#2b2b2e" stroke="#2b2b2e" stroke-linejoin="round" d="m749.07 532.25 7.96-34.08 34.5.85.87 42.57-25.94 7.09z"/><path fill="#313744" stroke="#313744" stroke-linejoin="round" d="m792.4 541.59-.87-42.57 8.97-7.53 35.44 13.36 1.83 20.5-7.85 11.74-26.32 10.16z"/><path fill="#b0bac1" stroke="#b0bac1" stroke-linejoin="round" d="m837.77 525.35-1.83-20.5 11.14-10.35 37.59 5.36.99 1.19 1.29 33.8-7.3 3.91z"/><path fill="#cad5d7" stroke="#cad5d7" stroke-linejoin="round" d="m886.95 534.85-1.29-33.8 44.59-7.08 2.49 2.49-11.96 43.99-8.24 3.94z"/><path fill="#b3b8be" stroke="#b3b8be" stroke-linejoin="round" d="m920.78 540.45 11.96-43.99 33.41 3.73.7 32.7-14.64 14.94z"/><path fill="#9da1aa" stroke="#9da1aa" stroke-linejoin="round" d="m966.85 532.89-.7-32.7 4.15-3.26 20.4-1.06 21.11 38.43-10.64 11.21z"/><path fill="#94929d" stroke="#94929d" stroke-linejoin="round" d="m1011.81 534.3-21.11-38.43 6.87-4.92 38.68 7.3-2.98 31.19z"/><path fill="#8e8e9f" stroke="#8e8e9f" stroke-linejoin="round" d="M1080 489.81v38.21l-37.98 7.64-8.75-6.22 2.98-31.19 3.59-4.1z"/><path fill="#273a42" stroke="#273a42" stroke-linejoin="round" d="M0 584.5v-43.17l32.68 1.33 10.61 42.3-2.8 1.84z"/><path fill="#637985" stroke="#637985" stroke-linejoin="round" d="m43.29 584.96-10.61-42.3 12.2-10.02 28.78 4.64 1.18 37.38-11.21 11.55z"/><path fill="#375867" stroke="#375867" stroke-linejoin="round" d="m74.84 574.66-1.18-37.38 3.33-2.37 41.47 1.96-1.49 39.31z"/><path fill="#5a636e" stroke="#5a636e" stroke-linejoin="round" d="m116.97 576.18 1.49-39.31 2.64-2.8 44.18 6.89.53.85-6.72 37.67-3.2 3.13-37.99-5.17z"/><path fill="#6e818d" stroke="#6e818d" stroke-linejoin="round" d="m159.09 579.48 6.72-37.67 37.34 8.24 3.94 31.8-1.7 1.86z"/><path fill="#6d7b86" stroke="#6d7b86" stroke-linejoin="round" d="m207.09 581.85-3.94-31.8 10.66-11.48 30.38 1.33 3.06 3.09-12.15 39.62z"/><path fill="#6c7981" stroke="#6c7981" stroke-linejoin="round" d="m235.1 582.61 12.15-39.62 29.21 6.33 5.91 21.67-.48.82-38.45 17.63z"/><path fill="#6e7882" stroke="#6e7882" stroke-linejoin="round" d="m282.37 570.99-5.91-21.67 2.26-2.81 43.11-8.31.24 38.53-1.45 1.35z"/><path fill="#8c9eab" stroke="#8c9eab" stroke-linejoin="round" d="m322.07 576.73-.24-38.53 2.02-3 28.83-3.63 7.71 10.03-6.24 32.18z"/><path fill="#809099" stroke="#809099" stroke-linejoin="round" d="m354.15 573.78 6.24-32.18 40.76 3.49 2.52 2.76-2.24 28.4-39.44 5.32z"/><path fill="#6e7981" stroke="#6e7981" stroke-linejoin="round" d="m401.43 576.25 2.24-28.4 38.75-7.68 10.55 40.21-12.19 10.47L402 577.17z"/><path fill="#5e6d79" stroke="#5e6d79" stroke-linejoin="round" d="m452.97 580.38-10.55-40.21 3.74-4.92 30.98-4.62 8.89 8.97-5.31 42.6z"/><path fill="#525a65" stroke="#525a65" stroke-linejoin="round" d="m480.72 582.2 5.31-42.6 34.61 1.97-2.42 40.92-8.01 5.19-26.14-2.73z"/><path fill="#49474a" stroke="#49474a" stroke-linejoin="round" d="m518.22 582.49 2.42-40.92.33-.28 33.33 4.38 5.75 29.63-12.95 11.86z"/><path fill="#4b4645" stroke="#4b4645" stroke-linejoin="round" d="m560.05 575.3-5.75-29.63 11.6-12.29 33.8 16.02-2.16 24.66-5.29 5.1z"/><path fill="#5c5351" stroke="#5c5351" stroke-linejoin="round" d="m597.54 574.06 2.16-24.66 5.8-5.86 29.78-4.32 7.75 5.66 3.97 25.98-10.43 10.65z"/><path fill="#5c5754" stroke="#5c5754" stroke-linejoin="round" d="m647 570.86-3.97-25.98 30.77-15.72 17.17 16.42-16.53 30.75zm27.44 5.47 16.53-30.75 22.14-.43 11.56 37.66-41.24 7.16z"/><path fill="#544c49" stroke="#544c49" stroke-linejoin="round" d="m724.67 582.81-11.56-37.66 7.35-8.78 28.61-4.12 17.39 16.43-9.41 35.47-31.76-.89z"/><path fill="#584d47" stroke="#584d47" stroke-linejoin="round" d="m757.05 584.15 9.41-35.47 25.94-7.09 11.2 5.66 5.23 31.18-8.36 12.15-40.61-3.14z"/><path fill="#939fae" stroke="#939fae" stroke-linejoin="round" d="m808.83 578.43-5.23-31.18 26.32-10.16 23.21 41.75-2.47 1.71z"/><path fill="#a3b0b9" stroke="#a3b0b9" stroke-linejoin="round" d="m829.92 537.09 7.85-11.74 41.88 13.41-18.11 39.18-8.41.9z"/><path fill="#a9b4bb" stroke="#a9b4bb" stroke-linejoin="round" d="m861.54 577.94 18.11-39.18 7.3-3.91 25.59 9.54-.74 34.16-31.54 12.5z"/><path fill="#b1bbc2" stroke="#b1bbc2" stroke-linejoin="round" d="m911.8 578.55.74-34.16 8.24-3.94 31.43 7.38 8.14 31.32-5.21 7.3-25.92 5.93z"/><path fill="#aeb6bd" stroke="#aeb6bd" stroke-linejoin="round" d="m960.35 579.15-8.14-31.32 14.64-14.94 34.32 12.62-.62 22.24-8.42 8.43z"/><path fill="#abadb2" stroke="#abadb2" stroke-linejoin="round" d="m1000.55 567.75.62-22.24 10.64-11.21 21.46-4.86 8.75 6.22 4.5 34.51-12.18 8.96z"/><path fill="#c1c5cc" stroke="#c1c5cc" stroke-linejoin="round" d="M1080 528.02v50.49l-33.48-8.34-4.5-34.51z"/><path fill="#252a2d" stroke="#252a2d" stroke-linejoin="round" d="M0 621.71V584.5l40.49 2.3-9.9 38.32z"/><path fill="#1b272c" stroke="#1b272c" stroke-linejoin="round" d="m30.59 625.12 9.9-38.32 2.8-1.84 20.34 1.25L78 616.89l-5.87 12.81-34.28 4.89z"/><path fill="#252f35" stroke="#252f35" stroke-linejoin="round" d="m63.63 586.21 11.21-11.55 42.13 1.52.93 1.26-6.52 34.87L78 616.89z"/><path fill="#283d49" stroke="#283d49" stroke-linejoin="round" d="m111.38 612.31 6.52-34.87 37.99 5.17 3.59 32.96-34.05 12.94z"/><path fill="#979391" stroke="#979391" stroke-linejoin="round" d="m159.48 615.57-3.59-32.96 3.2-3.13 46.3 4.23-4.65 29.74-31.24 8.85z"/><path fill="#818388" stroke="#818388" stroke-linejoin="round" d="m200.74 613.45 4.65-29.74 1.7-1.86 28.01.76 8.34 6.83 6.62 26.76-6.61 6.04-32.79 1.29z"/><path fill="#504e4f" stroke="#504e4f" stroke-linejoin="round" d="m250.06 616.2-6.62-26.76 38.45-17.63.56 48.37-1.17.61z"/><path fill="#555b66" stroke="#555b66" stroke-linejoin="round" d="m282.45 620.18-.56-48.37.48-.82 38.25 7.09-1.06 39.49-4.57 4.47z"/><path fill="#4b7b8f" stroke="#4b7b8f" stroke-linejoin="round" d="m319.56 617.57 1.06-39.49 1.45-1.35 32.08-2.95 7.84 7.79-1.6 35.84z"/><path fill="#48788e" stroke="#48788e" stroke-linejoin="round" d="m360.39 617.41 1.6-35.84 39.44-5.32.57.92-6.59 40.15-32.21 2.55z"/><path fill="#5a8397" stroke="#5a8397" stroke-linejoin="round" d="m395.41 617.32 6.59-40.15 38.78 13.68-2.35 35.21-4.65 3.99-25.72-1.57z"/><path fill="#638699" stroke="#638699" stroke-linejoin="round" d="m438.43 626.06 2.35-35.21 12.19-10.47 27.75 1.82 3.35 2.75-8.87 45.42z"/><path fill="#7890a0" stroke="#7890a0" stroke-linejoin="round" d="m475.2 630.37 8.87-45.42 26.14 2.73 5.16 38.72-31.63 12.07z"/><path fill="#758794" stroke="#758794" stroke-linejoin="round" d="m515.37 626.4-5.16-38.72 8.01-5.19 28.88 4.67 7.19 30.65-27.44 14.24z"/><path fill="#454041" stroke="#454041" stroke-linejoin="round" d="m554.29 617.81-7.19-30.65 12.95-11.86 32.2 3.86 1.38 38.78-1.57 1.73-19.64 6.74z"/><path fill="#4b4645" stroke="#4b4645" stroke-linejoin="round" d="m593.63 617.94-1.38-38.78 5.29-5.1 39.03 7.45 1.06 36.15z"/><path fill="#524d4d" stroke="#524d4d" stroke-linejoin="round" d="m637.63 617.66-1.06-36.15L647 570.86l27.44 5.47 8.99 13.64-5.52 27.51-37.67 2.77z"/><path fill="#4a4342" stroke="#4a4342" stroke-linejoin="round" d="m677.91 617.48 5.52-27.51 41.24-7.16.62.45-8.15 44.91-31.6-2.21z"/><path fill="#635a58" stroke="#635a58" stroke-linejoin="round" d="m717.14 628.17 8.15-44.91 31.76.89 2.81 3.29.82 36.74-35.62 11.37z"/><path fill="#615651" stroke="#615651" stroke-linejoin="round" d="m760.68 624.18-.82-36.74 40.61 3.14 8.05 25.9-3.41 4.79-37.47 8.82z"/><path fill="#a19897" stroke="#a19897" stroke-linejoin="round" d="m808.52 616.48-8.05-25.9 8.36-12.15 41.83 2.12-13.91 37.31z"/><path fill="#9caab3" stroke="#9caab3" stroke-linejoin="round" d="m836.75 617.86 13.91-37.31 2.47-1.71 8.41-.9 18.72 13.11 3.25 25.99-15.55 18.73-19.41-3.47z"/><path fill="#a5afb8" stroke="#a5afb8" stroke-linejoin="round" d="m883.51 617.04-3.25-25.99 31.54-12.5 17.42 13.83-8.84 33.83z"/><path fill="#a6afb5" stroke="#a6afb5" stroke-linejoin="round" d="m920.38 626.21 8.84-33.83 25.92-5.93 14.1 35.96-6.27 9.65-38.22 2.55z"/><path fill="#a9aeb4" stroke="#a9aeb4" stroke-linejoin="round" d="m969.24 622.41-14.1-35.96 5.21-7.3 31.78-2.97 10.59 41.39z"/><path fill="#a9b0b6" stroke="#a9b0b6" stroke-linejoin="round" d="m1002.72 617.57-10.59-41.39 8.42-8.43 33.79 11.38-2.88 33.32-24.23 7.5z"/><path fill="#bbc4cb" stroke="#bbc4cb" stroke-linejoin="round" d="M1080 578.51v29.39l-36.01 11.43-12.53-6.88 2.88-33.32 12.18-8.96z"/><path fill="#2e3438" stroke="#2e3438" stroke-linejoin="round" d="M0 668.98v-47.27l30.59 3.41 7.26 9.47-5.61 26.68z"/><path fill="#546271" stroke="#546271" stroke-linejoin="round" d="m32.24 661.27 5.61-26.68 34.28-4.89 10.94 27.81-4.43 7.62-36.29 5.28z"/><path fill="#575e6a" stroke="#575e6a" stroke-linejoin="round" d="M83.07 657.51 72.13 629.7 78 616.89l33.38-4.58 14.05 16.2-3.2 25.64z"/><path fill="#72737b" stroke="#72737b" stroke-linejoin="round" d="m122.23 654.15 3.2-25.64 34.05-12.94 10.02 6.73 3.19 38.46-16.33 7.8-33.17-13.11z"/><path fill="#81878c" stroke="#81878c" stroke-linejoin="round" d="m172.69 660.76-3.19-38.46 31.24-8.85 9.92 10.08-3.43 36.79-11.62 8.2z"/><path fill="#554c47" stroke="#554c47" stroke-linejoin="round" d="m207.23 660.32 3.43-36.79 32.79-1.29-.64 41.43z"/><path fill="#524944" stroke="#524944" stroke-linejoin="round" d="m242.81 663.67.64-41.43 6.61-6.04 31.22 4.59-8.14 47.04-25.08.52z"/><path fill="#607687" stroke="#607687" stroke-linejoin="round" d="m273.14 667.83 8.14-47.04 1.17-.61 32.54 1.86 5.96 34.86-10.29 13.47-37.2-2.3z"/><path fill="#3d7085" stroke="#3d7085" stroke-linejoin="round" d="m320.95 656.9-5.96-34.86 4.57-4.47 40.83-.16 2.81 2.46-.15 43.5z"/><path fill="#447489" stroke="#447489" stroke-linejoin="round" d="m363.05 663.37.15-43.5 32.21-2.55 12.65 11.16-20.16 39.49-22.87-2.26z"/><path fill="#578092" stroke="#578092" stroke-linejoin="round" d="m387.9 667.97 20.16-39.49 25.72 1.57 3.03 38.1-34.26 12.72z"/><path fill="#51768a" stroke="#51768a" stroke-linejoin="round" d="m436.81 668.15-3.03-38.1 4.65-3.99 36.77 4.31 8.54 8.1.49 25.01-38.79 10.93z"/><path fill="#5d7b8c" stroke="#5d7b8c" stroke-linejoin="round" d="m484.23 663.48-.49-25.01 31.63-12.07 11.48 5.65 5.97 31.32-18.03 10.6-30.37-10.28z"/><path fill="#788e9b" stroke="#788e9b" stroke-linejoin="round" d="m532.82 663.37-5.97-31.32 27.44-14.24 18.13 8.6-5.34 29.61-20.33 12.2z"/><path fill="#5d7787" stroke="#5d7787" stroke-linejoin="round" d="m567.08 656.02 5.34-29.61 19.64-6.74 18.71 47.1-15.17 7.48z"/><path fill="#435767" stroke="#435767" stroke-linejoin="round" d="m610.77 666.77-18.71-47.1 1.57-1.73 44-.28 2.61 2.59-2.6 38.08-13.75 9.62z"/><path fill="#8a9197" stroke="#8a9197" stroke-linejoin="round" d="m637.64 658.33 2.6-38.08 37.67-2.77 7.63 8.48-7.79 39.47-5.33 4.08z"/><path fill="#7f7d7f" stroke="#7f7d7f" stroke-linejoin="round" d="m677.75 665.43 7.79-39.47 31.6 2.21 7.92 7.38.63 25.54-9.83 9.43z"/><path fill="#635a55" stroke="#635a55" stroke-linejoin="round" d="m725.69 661.09-.63-25.54 35.62-11.37 6.96 5.91 4.29 24.91-14.29 17.94z"/><path fill="#5b504a" stroke="#5b504a" stroke-linejoin="round" d="m771.93 655-4.29-24.91 37.47-8.82 4.12 39.56-3.02 1.95z"/><path fill="#3c3331" stroke="#3c3331" stroke-linejoin="round" d="m809.23 660.83-4.12-39.56 3.41-4.79 28.23 1.38 11.8 14.44-21.97 30.14z"/><path fill="#878991" stroke="#878991" stroke-linejoin="round" d="m826.58 662.44 21.97-30.14 19.41 3.47 9.59 23.28-4.86 11.88-26.37 13.99z"/><path fill="#9daab3" stroke="#9daab3" stroke-linejoin="round" d="m877.55 659.05-9.59-23.28 15.55-18.73 36.87 9.17 4.37 8.4-5.84 22.72z"/><path fill="#98999e" stroke="#98999e" stroke-linejoin="round" d="m918.91 657.33 5.84-22.72 38.22-2.55 8.05 27.02-9.75 17.19-37.87-9.77z"/><path fill="#a0a7af" stroke="#a0a7af" stroke-linejoin="round" d="m971.02 659.08-8.05-27.02 6.27-9.65 33.48-4.84 4.51 2.38.7 37.51z"/><path fill="#a1a6ac" stroke="#a1a6ac" stroke-linejoin="round" d="m1007.93 657.46-.7-37.51 24.23-7.5 12.53 6.88 6.09 37.27-11.9 8.22-27.47-4.27z"/><path fill="#a1a6aa" stroke="#a1a6aa" stroke-linejoin="round" d="M1080 607.9v53.49l-29.92-4.79-6.09-37.27z"/><path fill="#9ea7b2" stroke="#9ea7b2" stroke-linejoin="round" d="M0 707.1v-38.12l32.24-7.71 10.11 9.14 1.9 38.9-2.15 1.92z"/><path fill="#96a4af" stroke="#96a4af" stroke-linejoin="round" d="m44.25 709.31-1.9-38.9 36.29-5.28 5.78 30.74-12.3 11.62z"/><path fill="#748695" stroke="#748695" stroke-linejoin="round" d="m84.42 695.87-5.78-30.74 4.43-7.62 39.16-3.36.96 1.3-10.1 45.54z"/><path fill="#94a2ae" stroke="#94a2ae" stroke-linejoin="round" d="m113.09 700.99 10.1-45.54 33.17 13.11-5.89 40.14-30.24.33z"/><path fill="#778792" stroke="#778792" stroke-linejoin="round" d="m150.47 708.7 5.89-40.14 16.33-7.8 22.92 7.76 5.52 35.92-39.91 14.16z"/><path fill="#504945" stroke="#504945" stroke-linejoin="round" d="m201.13 704.44-5.52-35.92 11.62-8.2 35.58 3.35 5.25 4.68-10.62 33.96-31.47 5.44z"/><path fill="#58524d" stroke="#58524d" stroke-linejoin="round" d="m237.44 702.31 10.62-33.96 25.08-.52.32.24 5.04 43-26.75 5.03z"/><path fill="#4c7789" stroke="#4c7789" stroke-linejoin="round" d="m278.5 711.07-5.04-43 37.2 2.3 6.63 26.9-11.4 16.15-17.31 3.44z"/><path fill="#30687b" stroke="#30687b" stroke-linejoin="round" d="m317.29 697.27-6.63-26.9 10.29-13.47 42.1 6.47 1.98 2.34-12.75 35.67z"/><path fill="#3d6e81" stroke="#3d6e81" stroke-linejoin="round" d="m352.28 701.38 12.75-35.67 22.87 2.26 14.65 12.9.58 26.23-42.83 9.69z"/><path fill="#557b8e" stroke="#557b8e" stroke-linejoin="round" d="m403.13 707.1-.58-26.23 34.26-12.72 8.63 6.26 4.36 28.94-9.29 11.27-32.73-2.08z"/><path fill="#3b6777" stroke="#3b6777" stroke-linejoin="round" d="m449.8 703.35-4.36-28.94 38.79-10.93.19.21-3.55 43.63z"/><path fill="#3a6273" stroke="#3a6273" stroke-linejoin="round" d="m480.87 707.32 3.55-43.63 30.37 10.28v32.82l-29.81 4.54z"/><path fill="#476b7b" stroke="#476b7b" stroke-linejoin="round" d="M514.79 706.79v-32.82l18.03-10.6 13.93 4.85 9.88 31.04-33.65 13.98z"/><path fill="#537381" stroke="#537381" stroke-linejoin="round" d="m556.63 699.26-9.88-31.04 20.33-12.2 28.52 18.23-12.47 29.31-15.66 1.42z"/><path fill="#38606d" stroke="#38606d" stroke-linejoin="round" d="m583.13 703.56 12.47-29.31 15.17-7.48 13.12 1.18 10.06 41.24-39.55 5.36z"/><path fill="#436571" stroke="#436571" stroke-linejoin="round" d="m633.95 709.19-10.06-41.24 13.75-9.62 34.78 11.18-.45 26.27-33.93 16.52z"/><path fill="#3b6069" stroke="#3b6069" stroke-linejoin="round" d="m671.97 695.78.45-26.27 5.33-4.08 38.11 5.09.29 38.25-31.7-1.72z"/><path fill="#385d68" stroke="#385d68" stroke-linejoin="round" d="m716.15 708.77-.29-38.25 9.83-9.43 31.95 11.85 4.49 19.04-13.09 18.49-32.52-1.33z"/><path fill="#8f8c8c" stroke="#8f8c8c" stroke-linejoin="round" d="m762.13 691.98-4.49-19.04L771.93 655l34.28 7.78-10.23 34.98z"/><path fill="#9b928e" stroke="#9b928e" stroke-linejoin="round" d="m795.98 697.76 10.23-34.98 3.02-1.95 17.35 1.61 19.74 22.48-2 9.59-11.99 10.64-34.78-5.08z"/><path fill="#9099a1" stroke="#9099a1" stroke-linejoin="round" d="m844.32 694.51 2-9.59 26.37-13.99 23.48 32.29-22.58 16.64z"/><path fill="#99a6af" stroke="#99a6af" stroke-linejoin="round" d="m872.69 670.93 4.86-11.88 41.36-1.72 4.49 9.17-12.21 37.41-15.02-.69z"/><path fill="#9ea6ae" stroke="#9ea6ae" stroke-linejoin="round" d="m911.19 703.91 12.21-37.41 37.87 9.77 6.12 21.13-9.11 13.64-36.66 4.38z"/><path fill="#9ba4ab" stroke="#9ba4ab" stroke-linejoin="round" d="m967.39 697.4-6.12-21.13 9.75-17.19 36.91-1.62 2.78 3.09-11.44 39.2z"/><path fill="#9aa1a9" stroke="#9aa1a9" stroke-linejoin="round" d="m999.27 699.75 11.44-39.2 27.47 4.27 2.68 39.78-1.68 2.01-31.85 1.1z"/><path fill="#999ea4" stroke="#999ea4" stroke-linejoin="round" d="M1080 661.39v37.47l-39.14 5.74-2.68-39.78 11.9-8.22z"/><path fill="#b4bfca" stroke="#b4bfca" stroke-linejoin="round" d="M0 758.76V707.1l42.1 4.13.52 36.62-3.6 5.29z"/><path fill="#92969e" stroke="#92969e" stroke-linejoin="round" d="m42.62 747.85-.52-36.62 2.15-1.92 27.87-1.82 15.89 38.9z"/><path fill="#99a8b3" stroke="#99a8b3" stroke-linejoin="round" d="m88.01 746.39-15.89-38.9 12.3-11.62 28.67 5.12 7.14 8.04-12.6 35.45-18.42 2.7z"/><path fill="#647b8b" stroke="#647b8b" stroke-linejoin="round" d="m107.63 744.48 12.6-35.45 30.24-.33 10.75 9.9.33 26.09-2.98 3.5-41.58 3.96z"/><path fill="#5d5a58" stroke="#5d5a58" stroke-linejoin="round" d="m161.55 744.69-.33-26.09 39.91-14.16 4.84 3.31 6.55 38.59-15.29 9.6z"/><path fill="#564f4b" stroke="#564f4b" stroke-linejoin="round" d="m212.52 746.34-6.55-38.59 31.47-5.44 14.31 13.79-6.4 32.03-10.26 5.7z"/><path fill="#514b49" stroke="#514b49" stroke-linejoin="round" d="m245.35 748.13 6.4-32.03 26.75-5.03 10.08 5.79-6.52 34-8.01 5.43z"/><path fill="#306474" stroke="#306474" stroke-linejoin="round" d="m282.06 750.86 6.52-34 17.31-3.44 20.68 29.66-10.76 17.2z"/><path fill="#235e6e" stroke="#235e6e" stroke-linejoin="round" d="m305.89 713.42 11.4-16.15 34.99 4.11 8.02 15.41-3.94 20.66-29.79 5.63z"/><path fill="#407081" stroke="#407081" stroke-linejoin="round" d="m356.36 737.45 3.94-20.66 42.83-9.69 4.65 5.44-4.14 33.71-1.88 1.62-36.92.7z"/><path fill="#4c7587" stroke="#4c7587" stroke-linejoin="round" d="m403.64 746.25 4.14-33.71 32.73 2.08 7.66 28.35-12.48 10.09z"/><path fill="#2e5d6d" stroke="#2e5d6d" stroke-linejoin="round" d="m448.17 742.97-7.66-28.35 9.29-11.27 31.07 3.97 4.11 4.01-5.24 39.79z"/><path fill="#2b515e" stroke="#2b515e" stroke-linejoin="round" d="m479.74 751.12 5.24-39.79 29.81-4.54 8.19 6.45 2.9 22.19-18.44 17.55-27.35-1.41z"/><path fill="#3a5e6a" stroke="#3a5e6a" stroke-linejoin="round" d="m525.88 735.43-2.9-22.19 33.65-13.98 10.84 5.72-12.59 42.43z"/><path fill="#365a65" stroke="#365a65" stroke-linejoin="round" d="m554.88 747.41 12.59-42.43 15.66-1.42 11.27 10.99 1.54 31.58-3.15 3.29-35.88 1.14z"/><path fill="#3a5d67" stroke="#3a5d67" stroke-linejoin="round" d="m595.94 746.13-1.54-31.58 39.55-5.36 4.09 3.11 4.25 25.12-11.84 11.79z"/><path fill="#365b64" stroke="#365b64" stroke-linejoin="round" d="m642.29 737.42-4.25-25.12 33.93-16.52 12.48 11.27-11.12 39.71-1.22.74z"/><path fill="#2e535c" stroke="#2e535c" stroke-linejoin="round" d="m673.33 746.76 11.12-39.71 31.7 1.72.37.37-4.67 38.73z"/><path fill="#2d5056" stroke="#2d5056" stroke-linejoin="round" d="m711.85 747.87 4.67-38.73 32.52 1.33 12.54 28.33-8.9 14.38-34.77 2.39z"/><path fill="#2e545d" stroke="#2e545d" stroke-linejoin="round" d="m749.04 710.47 13.09-18.49 33.85 5.78 1.57 2.31-5.13 37.17-30.84 1.56z"/><path fill="#525d63" stroke="#525d63" stroke-linejoin="round" d="m792.42 737.24 5.13-37.17 34.78 5.08-.6 35.66-31.56 3.1z"/><path fill="#6b6e74" stroke="#6b6e74" stroke-linejoin="round" d="m831.73 740.81.6-35.66 11.99-10.64 29.27 25.35-3.17 16.57-29.91 10.7z"/><path fill="#61646c" stroke="#61646c" stroke-linejoin="round" d="m870.42 736.43 3.17-16.57 22.58-16.64 15.02.69 10.43 11.51-3.07 22.38-34.28 11.67z"/><path fill="#797575" stroke="#797575" stroke-linejoin="round" d="m918.55 737.8 3.07-22.38 36.66-4.38 11.79 35.16-21.72 16.13-18.81-6.28z"/><path fill="#9ea2a9" stroke="#9ea2a9" stroke-linejoin="round" d="m970.07 746.2-11.79-35.16 9.11-13.64 31.88 2.35 8.06 7.96-8.69 45.45z"/><path fill="#9499a0" stroke="#9499a0" stroke-linejoin="round" d="m998.64 753.16 8.69-45.45 31.85-1.1 6.83 32.58-9.64 11.32-35.88 4.7z"/><path fill="#959aa0" stroke="#959aa0" stroke-linejoin="round" d="M1080 698.86v43.37l-33.99-3.04-6.83-32.58 1.68-2.01z"/><path fill="#a3b0b9" stroke="#a3b0b9" stroke-linejoin="round" d="M0 797.93v-39.17l39.02-5.62 14.23 34.79-5.73 6.85z"/><path fill="#6c8795" stroke="#6c8795" stroke-linejoin="round" d="m53.25 787.93-14.23-34.79 3.6-5.29 45.39-1.46 1.2.79-10.13 38.45-2.68 1.71z"/><path fill="#8e939b" stroke="#8e939b" stroke-linejoin="round" d="m79.08 785.63 10.13-38.45 18.42-2.7 9.36 7.67 4.85 33.12-7.03 8.44z"/><path fill="#878a93" stroke="#878a93" stroke-linejoin="round" d="m121.84 785.27-4.85-33.12 41.58-3.96-2.56 36.33z"/><path fill="#6d7379" stroke="#6d7379" stroke-linejoin="round" d="m156.01 784.52 2.56-36.33 2.98-3.5 35.68 11.25-3.1 33.37-29.59 5.49z"/><path fill="#56504c" stroke="#56504c" stroke-linejoin="round" d="m194.13 789.31 3.1-33.37 15.29-9.6 22.57 7.49.74 33.61-31.49 9.44z"/><path fill="#504944" stroke="#504944" stroke-linejoin="round" d="m235.83 787.44-.74-33.61 10.26-5.7 28.7 8.16 1.76 32.47-32.31 4.92z"/><path fill="#205364" stroke="#205364" stroke-linejoin="round" d="m275.81 788.76-1.76-32.47 8.01-5.43 33.75 9.42 3.3 22.59-42.47 6.55z"/><path fill="#205364" stroke="#205364" stroke-linejoin="round" d="m319.11 782.87-3.3-22.59 10.76-17.2 29.79-5.63 8.48 11.12-2.56 34.09-5.16 4.71-35-1.19z"/><path fill="#3b6b7a" stroke="#3b6b7a" stroke-linejoin="round" d="m362.28 782.66 2.56-34.09 36.92-.7 1.39 42.25-.54.42z"/><path fill="#467080" stroke="#467080" stroke-linejoin="round" d="m403.15 790.12-1.39-42.25 1.88-1.62 32.05 6.81-1.36 34.62z"/><path fill="#2c5767" stroke="#2c5767" stroke-linejoin="round" d="m434.33 787.68 1.36-34.62 12.48-10.09 31.57 8.15.35.45-4.95 25.58-34.27 15.11z"/><path fill="#1e444e" stroke="#1e444e" stroke-linejoin="round" d="m475.14 777.15 4.95-25.58 27.35 1.41 17.38 31.17-13.62 14.84-23.74-4.55z"/><path fill="#2c515b" stroke="#2c515b" stroke-linejoin="round" d="m507.44 752.98 18.44-17.55 29 11.98 2.03 3.15-6.94 32.27-25.15 1.32z"/><path fill="#37585f" stroke="#37585f" stroke-linejoin="round" d="m549.97 782.83 6.94-32.27 35.88-1.14 2.85 38.93-41.82-1.41z"/><path fill="#365760" stroke="#365760" stroke-linejoin="round" d="m595.64 788.35-2.85-38.93 3.15-3.29 34.51 3.08 1.41 34.72-33.94 6.5z"/><path fill="#2c5059" stroke="#2c5059" stroke-linejoin="round" d="m631.86 783.93-1.41-34.72 11.84-11.79 29.82 10.08-1.18 37.32-26.87 7.74z"/><path fill="#2c4a53" stroke="#2c4a53" stroke-linejoin="round" d="m670.93 784.82 1.18-37.32 1.22-.74 38.52 1.11 6.06 7.7-6.23 29.72-26.4 8.23z"/><path fill="#2b464d" stroke="#2b464d" stroke-linejoin="round" d="m711.68 785.29 6.23-29.72 34.77-2.39 10.74 32.01-39.4 10.08z"/><path fill="#2d4d53" stroke="#2d4d53" stroke-linejoin="round" d="m763.42 785.19-10.74-32.01 8.9-14.38 30.84-1.56 7.75 6.67-3.72 42.9-30.65.15z"/><path fill="#6a6a6e" stroke="#6a6a6e" stroke-linejoin="round" d="m796.45 786.81 3.72-42.9 31.56-3.1 8.78 6.32 1.85 27.55-14.58 14.57-29.28-.75z"/><path fill="#6f7074" stroke="#6f7074" stroke-linejoin="round" d="m842.36 774.68-1.85-27.55 29.91-10.7 13.85 13.04 2.07 31.42-7.95 5.78z"/><path fill="#6b6a6c" stroke="#6b6a6c" stroke-linejoin="round" d="m886.34 780.89-2.07-31.42 34.28-11.67 10.99 18.25-25.49 27.42z"/><path fill="#6e6c6d" stroke="#6e6c6d" stroke-linejoin="round" d="m904.05 783.47 25.49-27.42 18.81 6.28 3.86 29.11-30.73 11.73z"/><path fill="#6c6a6b" stroke="#6c6a6b" stroke-linejoin="round" d="m952.21 791.44-3.86-29.11 21.72-16.13 28.57 6.96 1.85 2.05v23l-12.39 15.44-25.58 5.5z"/><path fill="#5d5c60" stroke="#5d5c60" stroke-linejoin="round" d="M1000.49 778.21v-23l35.88-4.7 16.81 36.74-20.36 10.91z"/><path fill="#918f91" stroke="#918f91" stroke-linejoin="round" d="M1080 742.23v49.79l-26.82-4.77-16.81-36.74 9.64-11.32z"/><path fill="#a2abb4" stroke="#a2abb4" stroke-linejoin="round" d="M0 823.04v-25.11l47.52-3.15 1 34.92-10.58 6.63z"/><path fill="#a5afb8" stroke="#a5afb8" stroke-linejoin="round" d="m48.52 829.7-1-34.92 5.73-6.85 23.15-.59 8.06 44.27-6.04 6.72z"/><path fill="#b0b6bc" stroke="#b0b6bc" stroke-linejoin="round" d="m84.46 831.61-8.06-44.27 2.68-1.71 35.73 8.08 3.09 28.24z"/><path fill="#b7b8bc" stroke="#b7b8bc" stroke-linejoin="round" d="m117.9 821.95-3.09-28.24 7.03-8.44 34.17-.75 8.53 10.28-5.84 25.37-32.98 7.48z"/><path fill="#58504d" stroke="#58504d" stroke-linejoin="round" d="m158.7 820.17 5.84-25.37 29.59-5.49 10.21 7.57 2.3 35.54-2.7 2.18-33.87-1z"/><path fill="#554d49" stroke="#554d49" stroke-linejoin="round" d="m206.64 832.42-2.3-35.54 31.49-9.44 7.67 6.24.88 36.32-4.39 5.91z"/><path fill="#43545d" stroke="#43545d" stroke-linejoin="round" d="m244.38 830-.88-36.32 32.31-4.92.83.66 7.02 33.28z"/><path fill="#1b4b59" stroke="#1b4b59" stroke-linejoin="round" d="m283.66 822.7-7.02-33.28 42.47-6.55 3.01 3.31-6.5 35.45-25.15 6.14z"/><path fill="#1b4a5a" stroke="#1b4a5a" stroke-linejoin="round" d="m315.62 821.63 6.5-35.45 35 1.19 3.78 41.58-.2.25-30.86 3.87z"/><path fill="#2a5c6d" stroke="#2a5c6d" stroke-linejoin="round" d="m360.9 828.95-3.78-41.58 5.16-4.71 40.33 7.88-4.16 33.51z"/><path fill="#345f6e" stroke="#345f6e" stroke-linejoin="round" d="m398.45 824.05 4.16-33.51.54-.42 31.18-2.44 6.54 4.58 7.5 31.15-38.18 13.14z"/><path fill="#1f4550" stroke="#1f4550" stroke-linejoin="round" d="m448.37 823.41-7.5-31.15 34.27-15.11 12.32 17.29-16.37 28.35-22.18.98z"/><path fill="#1c3c44" stroke="#1c3c44" stroke-linejoin="round" d="m471.09 822.79 16.37-28.35 23.74 4.55 4.23 24.7-28.65 11.61z"/><path fill="#23464d" stroke="#23464d" stroke-linejoin="round" d="m515.43 823.69-4.23-24.7 13.62-14.84 25.15-1.32 3.85 4.11 1.68 40.27-26.38 7.31z"/><path fill="#325156" stroke="#325156" stroke-linejoin="round" d="m555.5 827.21-1.68-40.27 41.82 1.41 2.28 2.08-.97 35.3-.46.43-33.04 5.73z"/><path fill="#2b4952" stroke="#2b4952" stroke-linejoin="round" d="m596.95 825.73.97-35.3 33.94-6.5 12.2 8.63-4.21 37.12-2.03 1.43z"/><path fill="#274247" stroke="#274247" stroke-linejoin="round" d="m639.85 829.68 4.21-37.12 26.87-7.74 14.35 8.7.8 38.34-8.9 6.98z"/><path fill="#263b3f" stroke="#263b3f" stroke-linejoin="round" d="m686.08 831.86-.8-38.34 26.4-8.23 12.34 9.98 4.77 34.45-9.12 7.83z"/><path fill="#273d42" stroke="#273d42" stroke-linejoin="round" d="m728.79 829.72-4.77-34.45 39.4-10.08 2.38 1.77-7.6 43.92z"/><path fill="#263f43" stroke="#263f43" stroke-linejoin="round" d="m758.2 830.88 7.6-43.92 30.65-.15 2.05 1.69-.77 39.53-35.24 6.57z"/><path fill="#66676c" stroke="#66676c" stroke-linejoin="round" d="m797.73 828.03.77-39.53 29.28.75 15.1 36.08-34.12 12.39z"/><path fill="#5f5e63" stroke="#5f5e63" stroke-linejoin="round" d="m842.88 825.33-15.1-36.08 14.58-14.57 36.03 11.99-5.53 28.88-28.52 10.37z"/><path fill="#605e5f" stroke="#605e5f" stroke-linejoin="round" d="m872.86 815.55 5.53-28.88 7.95-5.78 17.71 2.58 17.43 19.7-5.04 27.55-5.1 4.83-16.35-.58z"/><path fill="#635f60" stroke="#635f60" stroke-linejoin="round" d="m916.44 830.72 5.04-27.55 30.73-11.73 10.31 7.71-1.83 35.43z"/><path fill="#625e5d" stroke="#625e5d" stroke-linejoin="round" d="m960.69 834.58 1.83-35.43 25.58-5.5 18.59 42.81-3.94 4.01-40.67-4.07z"/><path fill="#6c6867" stroke="#6c6867" stroke-linejoin="round" d="m1006.69 836.46-18.59-42.81 12.39-15.44 32.33 19.95-7.89 33.1z"/><path fill="#696461" stroke="#696461" stroke-linejoin="round" d="M1080 792.02v24.45l-41.71 21.62-13.36-6.83 7.89-33.1 20.36-10.91z"/><path fill="#a3abb4" stroke="#a3abb4" stroke-linejoin="round" d="M0 878.32v-55.28l37.94 13.29-5.28 37.04z"/><path fill="#a3a6ab" stroke="#a3a6ab" stroke-linejoin="round" d="m32.66 873.37 5.28-37.04 10.58-6.63 29.9 8.63 2.98 20.93-6.72 8.66-36.72 8.82z"/><path fill="#b2b4b8" stroke="#b2b4b8" stroke-linejoin="round" d="m81.4 859.26-2.98-20.93 6.04-6.72 33.44-9.66 7.82 5.7 1.6 33.67-11.82 9.69z"/><path fill="#a5aaae" stroke="#a5aaae" stroke-linejoin="round" d="m127.32 861.32-1.6-33.67 32.98-7.48 11.37 13.43-9.71 36.33z"/><path fill="#564e4b" stroke="#564e4b" stroke-linejoin="round" d="m160.36 869.93 9.71-36.33 33.87 1-3.03 38.98-10.31 6.77-26.57-4.84z"/><path fill="#574f4c" stroke="#574f4c" stroke-linejoin="round" d="m200.91 873.58 3.03-38.98 2.7-2.18 33.35 3.49 7.23 22.67-18.13 21.67z"/><path fill="#18404b" stroke="#18404b" stroke-linejoin="round" d="m247.22 858.58-7.23-22.67 4.39-5.91 39.28-7.3 6.81 5.07-3.88 35.32-11.74 5.57z"/><path fill="#19414b" stroke="#19414b" stroke-linejoin="round" d="m286.59 863.09 3.88-35.32 25.15-6.14 14.22 11.44-6.14 33.1-12.09 7.27z"/><path fill="#16454f" stroke="#16454f" stroke-linejoin="round" d="m323.7 866.17 6.14-33.1 30.86-3.87 6.36 35.98-11.07 10.73z"/><path fill="#275565" stroke="#275565" stroke-linejoin="round" d="m367.06 865.18-6.36-35.98.2-.25 37.55-4.9 11.74 12.5-1.44 24.08-10.91 9.16z"/><path fill="#234a58" stroke="#234a58" stroke-linejoin="round" d="m408.75 860.63 1.44-24.08 38.18-13.14.54.36 5.45 46.41-9.4 5.89z"/><path fill="#1f3d46" stroke="#1f3d46" stroke-linejoin="round" d="m454.36 870.18-5.45-46.41 22.18-.98 15.69 12.51-.13 28.53-9.93 8.19z"/><path fill="#1c393f" stroke="#1c393f" stroke-linejoin="round" d="m486.65 863.83.13-28.53 28.65-11.61 13.69 10.83-6.79 32.43z"/><path fill="#284448" stroke="#284448" stroke-linejoin="round" d="m522.33 866.95 6.79-32.43 26.38-7.31 7.95 4.68 3.02 41.94-14.1 7.48-27.17-10.07z"/><path fill="#254246" stroke="#254246" stroke-linejoin="round" d="m566.47 873.83-3.02-41.94 33.04-5.73 3.86 42.82-12.55 9.76z"/><path fill="#263f42" stroke="#263f42" stroke-linejoin="round" d="m600.35 868.98-3.86-42.82.46-.43 40.87 5.38-6.9 39.1z"/><path fill="#2a3d41" stroke="#2a3d41" stroke-linejoin="round" d="m630.92 870.21 6.9-39.1 2.03-1.43 37.33 9.16-1.23 34.38-7.3 6.53-32.93-3.78z"/><path fill="#283a3b" stroke="#283a3b" stroke-linejoin="round" d="m675.95 873.22 1.23-34.38 8.9-6.98 33.59 5.69 3.28 39.29-5.04 5.54z"/><path fill="#27393b" stroke="#27393b" stroke-linejoin="round" d="m722.95 876.84-3.28-39.29 9.12-7.83 29.41 1.16 4.29 3.72 3.88 35.4-4.56 5.63z"/><path fill="#494f55" stroke="#494f55" stroke-linejoin="round" d="m766.37 870-3.88-35.4 35.24-6.57 11.03 9.69-1.22 30.98z"/><path fill="#5f5f61" stroke="#5f5f61" stroke-linejoin="round" d="m807.54 868.7 1.22-30.98 34.12-12.39 1.46.59 11.46 45.73-4.77 2.35-42.35-4z"/><path fill="#605e60" stroke="#605e60" stroke-linejoin="round" d="m855.8 871.65-11.46-45.73 28.52-10.37 22.13 19.42-28.82 38.53z"/><path fill="#625e5d" stroke="#625e5d" stroke-linejoin="round" d="m866.17 873.5 28.82-38.53 16.35.58 11.38 38.85-3.89 6.11-41.19 3.88z"/><path fill="#5e5a58" stroke="#5e5a58" stroke-linejoin="round" d="m922.72 874.4-11.38-38.85 5.1-4.83 44.25 3.86 1.39 1.82-7.54 33.76z"/><path fill="#605c5b" stroke="#605c5b" stroke-linejoin="round" d="m954.54 870.16 7.54-33.76 40.67 4.07-1.94 36.42-34.03 4.82z"/><path fill="#5d5956" stroke="#5d5956" stroke-linejoin="round" d="m1002.98 879.25-2.17-2.36 1.94-36.42 3.94-4.01 18.24-5.2 13.36 6.83 13.49 26.56-9.79 15.73z"/><path fill="#615e5a" stroke="#615e5a" stroke-linejoin="round" d="M1080 816.47v47.11l-28.22 1.07-13.49-26.56z"/><path fill="#9b9394" stroke="#9b9394" stroke-linejoin="round" d="M0 916.53v-38.21l32.66-4.95 5.3 3.37 12.24 37.92-7.15 9.07z"/><path fill="#adb0b1" stroke="#adb0b1" stroke-linejoin="round" d="m50.2 914.66-12.24-37.92 36.72-8.82 7.51 41.54-1.1 1.44z"/><path fill="#a4a2a4" stroke="#a4a2a4" stroke-linejoin="round" d="m82.19 909.46-7.51-41.54 6.72-8.66 34.1 11.75-1.01 26.67z"/><path fill="#8f8e91" stroke="#8f8e91" stroke-linejoin="round" d="m114.49 897.68 1.01-26.67 11.82-9.69 33.04 8.61 3.67 5.58-14.23 32.87-23.16-.73z"/><path fill="#534e4b" stroke="#534e4b" stroke-linejoin="round" d="m149.8 908.38 14.23-32.87 26.57 4.84 5.55 38.78-39.18-.81z"/><path fill="#544c49" stroke="#544c49" stroke-linejoin="round" d="m196.15 919.13-5.55-38.78 10.31-6.77 28.18 6.67 7.01 23.65-37.25 17.82z"/><path fill="#16373e" stroke="#16373e" stroke-linejoin="round" d="m236.1 903.9-7.01-23.65 18.13-21.67 27.63 10.08-5.55 35.86-21.64 6.56z"/><path fill="#19343c" stroke="#19343c" stroke-linejoin="round" d="m269.3 904.52 5.55-35.86 11.74-5.57 25.02 10.35 1.56 30.36-27.27 10.79z"/><path fill="#183940" stroke="#183940" stroke-linejoin="round" d="m313.17 903.8-1.56-30.36 12.09-7.27 32.29 9.74-.03 33.33-29.27 3.79z"/><path fill="#1e4654" stroke="#1e4654" stroke-linejoin="round" d="m355.96 909.24.03-33.33 11.07-10.73 30.78 4.61 1.09 39.4-3.51 3.22-36.41-.69z"/><path fill="#214754" stroke="#214754" stroke-linejoin="round" d="m398.93 909.19-1.09-39.4 10.91-9.16 36.21 15.44-7.23 33.63z"/><path fill="#1d353b" stroke="#1d353b" stroke-linejoin="round" d="m437.73 909.7 7.23-33.63 9.4-5.89 22.36 1.84 12.63 38.78-12.17 11.13-35.55-7.01z"/><path fill="#1b3237" stroke="#1b3237" stroke-linejoin="round" d="m489.35 910.8-12.63-38.78 9.93-8.19 35.68 3.12 2.87 4.29-17.89 39.72z"/><path fill="#21393d" stroke="#21393d" stroke-linejoin="round" d="m507.31 910.96 17.89-39.72 27.17 10.07-2.29 35.63-26.84 6.34z"/><path fill="#23393c" stroke="#23393c" stroke-linejoin="round" d="m550.08 916.94 2.29-35.63 14.1-7.48 21.33 4.91 9.26 35.23-38.68 9.07z"/><path fill="#23363a" stroke="#23363a" stroke-linejoin="round" d="m597.06 913.97-9.26-35.23 12.55-9.76 30.57 1.23 4.8 5.76-9.6 36.25-21.71 6.86z"/><path fill="#293a3b" stroke="#293a3b" stroke-linejoin="round" d="m626.12 912.22 9.6-36.25 32.93 3.78 1.86 32.86-19.98 12.83z"/><path fill="#2b3a3d" stroke="#2b3a3d" stroke-linejoin="round" d="m670.51 912.61-1.86-32.86 7.3-6.53 41.96 9.16-.39 16.81-28.26 21.46zm47.01-13.42.39-16.81 5.04-5.54 38.86-1.21 7.26 34.46-11.35 12.97-22.49-2.8z"/><path fill="#605e5e" stroke="#605e5e" stroke-linejoin="round" d="m769.07 910.09-7.26-34.46 4.56-5.63 41.17-1.3 1.14 1.3-3.52 42.69z"/><path fill="#5c5b5e" stroke="#5c5b5e" stroke-linejoin="round" d="m805.16 912.69 3.52-42.69 42.35 4-16.79 45.06-26.18-3.27z"/><path fill="#595556" stroke="#595556" stroke-linejoin="round" d="M834.24 919.06 851.03 874l4.77-2.35 10.37 1.85 11.47 10.89 1.5 36.17-3.94 4.36-36-1.21z"/><path fill="#5e5956" stroke="#5e5956" stroke-linejoin="round" d="m879.14 920.56-1.5-36.17 41.19-3.88 4.54 23.29-13.89 18.36z"/><path fill="#615d59" stroke="#615d59" stroke-linejoin="round" d="m923.37 903.8-4.54-23.29 3.89-6.11 31.82-4.24 12.24 11.55-6.37 34-3.71 1.73z"/><path fill="#5b5653" stroke="#5b5653" stroke-linejoin="round" d="m960.41 915.71 6.37-34 34.03-4.82 2.17 2.36 1.87 32.85-17.16 14.19z"/><path fill="#5a5552" stroke="#5a5552" stroke-linejoin="round" d="m1004.85 912.1-1.87-32.85 39.01 1.13 7.64 25.85-17.04 15.68z"/><path fill="#56514e" stroke="#56514e" stroke-linejoin="round" d="M1080 863.58v49.77l-30.37-7.12-7.64-25.85 9.79-15.73z"/><path fill="#827873" stroke="#827873" stroke-linejoin="round" d="M0 955.73v-39.2l43.05 7.2 1.4 28.84z"/><path fill="#807975" stroke="#807975" stroke-linejoin="round" d="m44.45 952.57-1.4-28.84 7.15-9.07 30.89-3.76 12.23 32.98L73 964.7l-26.93-9.8z"/><path fill="#777476" stroke="#777476" stroke-linejoin="round" d="M93.32 943.88 81.09 910.9l1.1-1.44 32.3-11.78 12.15 9.97-11.1 38.87z"/><path fill="#4a525c" stroke="#4a525c" stroke-linejoin="round" d="m115.54 946.52 11.1-38.87 23.16.73 7.17 9.94-4.2 32.87-28.86 2.94z"/><path fill="#8b8483" stroke="#8b8483" stroke-linejoin="round" d="m152.77 951.19 4.2-32.87 39.18.81 2.7 2.59 3.51 23.05-5.15 6.29-41.34 2.82z"/><path fill="#98887e" stroke="#98887e" stroke-linejoin="round" d="m202.36 944.77-3.51-23.05 37.25-17.82 11.56 7.18-2.71 40.81-2.29 1.5z"/><path fill="#9f9089" stroke="#9f9089" stroke-linejoin="round" d="m244.95 951.89 2.71-40.81 21.64-6.56 16.6 10.07 1.15 29.6-13.9 11.77z"/><path fill="#7d8a96" stroke="#7d8a96" stroke-linejoin="round" d="m287.05 944.19-1.15-29.6 27.27-10.79 13.52 9.23-7.4 38.63z"/><path fill="#344a57" stroke="#344a57" stroke-linejoin="round" d="m319.29 951.66 7.4-38.63 29.27-3.79 3.05 2.48-.84 44.81-8.72 7-23.97-3.46z"/><path fill="#1e3940" stroke="#1e3940" stroke-linejoin="round" d="m358.17 956.53.84-44.81 36.41.69 4.29 42.28-3.27 3.76z"/><path fill="#213a40" stroke="#213a40" stroke-linejoin="round" d="m399.71 954.69-4.29-42.28 3.51-3.22 38.8.51 3.9 5.22-8.2 37.04z"/><path fill="#1f2e32" stroke="#1f2e32" stroke-linejoin="round" d="m433.43 951.96 8.2-37.04 35.55 7.01 2.58 34.63-4.15 4.42-29.84 3.43z"/><path fill="#1b2a2f" stroke="#1b2a2f" stroke-linejoin="round" d="m479.76 956.56-2.58-34.63 12.17-11.13 17.96.16 15.93 12.32-4.94 36.19z"/><path fill="#213335" stroke="#213335" stroke-linejoin="round" d="m518.3 959.47 4.94-36.19 26.84-6.34 8.3 6.1 4.9 35.96-.94 1.52-37.85 6.25z"/><path fill="#233235" stroke="#233235" stroke-linejoin="round" d="m563.28 959-4.9-35.96 38.68-9.07 7.35 5.11-.65 30.34z"/><path fill="#283637" stroke="#283637" stroke-linejoin="round" d="m603.76 949.42.65-30.34 21.71-6.86 24.41 13.22.14 30.05-42.23-.45z"/><path fill="#2d3c3f" stroke="#2d3c3f" stroke-linejoin="round" d="m650.67 955.49-.14-30.05 19.98-12.83 18.75 8.04 9.68 30.68-31.46 14.19-14.08-6.43z"/><path fill="#2c3d3f" stroke="#2c3d3f" stroke-linejoin="round" d="m698.94 951.33-9.68-30.68 28.26-21.46 17.71 21.07-24.18 35.59z"/><path fill="#2e3d40" stroke="#2e3d40" stroke-linejoin="round" d="m711.05 955.85 24.18-35.59 22.49 2.8 6.24 26.52-9.97 13.64-38.46-1.53z"/><path fill="#626064" stroke="#626064" stroke-linejoin="round" d="m763.96 949.58-6.24-26.52 11.35-12.97 36.09 2.6 2.9 3.1-10.38 39.49z"/><path fill="#605f61" stroke="#605f61" stroke-linejoin="round" d="m797.68 955.28 10.38-39.49 26.18 3.27 4.96 4.65-1.95 36.54-36.11.2z"/><path fill="#5c5656" stroke="#5c5656" stroke-linejoin="round" d="m837.25 960.25 1.95-36.54 36 1.21 2.78 32.67-34.11 9.54z"/><path fill="#514c48" stroke="#514c48" stroke-linejoin="round" d="m877.98 957.59-2.78-32.67 3.94-4.36 30.34 1.6 13.82 30.81-42.83 6.65z"/><path fill="#5b5351" stroke="#5b5351" stroke-linejoin="round" d="m923.3 952.97-13.82-30.81 13.89-18.36 33.33 13.64-15.72 34.95-16.29 1.43z"/><path fill="#59524f" stroke="#59524f" stroke-linejoin="round" d="m940.98 952.39 15.72-34.95 3.71-1.73 27.28 10.58 4.26 28.59-34.65 10.92z"/><path fill="#59514e" stroke="#59514e" stroke-linejoin="round" d="m991.95 954.88-4.26-28.59 17.16-14.19 27.74 9.81 3.02 32.24-32.95 8.74z"/><path fill="#55504c" stroke="#55504c" stroke-linejoin="round" d="M1080 913.35v31.62l-41.72 10.82-2.67-1.64-3.02-32.24 17.04-15.68z"/><path fill="#484a51" stroke="#484a51" stroke-linejoin="round" d="M0 990.01v-34.28l44.45-3.16 1.62 2.33-16.36 36.34z"/><path fill="#a4a2a6" stroke="#a4a2a6" stroke-linejoin="round" d="m46.26 1010.57-16.55-19.33 16.36-36.34L73 964.7l5.19 16.47-11.8 22.42z"/><path fill="#a5a6aa" stroke="#a5a6aa" stroke-linejoin="round" d="M78.19 981.17 73 964.7l20.32-20.82 22.22 2.64 8.37 7.61-6.73 38.18z"/><path fill="#9d9ea1" stroke="#9d9ea1" stroke-linejoin="round" d="m117.78 993.31-.6-1 6.73-38.18 28.86-2.94 3.1 2.69 5.36 37z"/><path fill="#a39f9e" stroke="#a39f9e" stroke-linejoin="round" d="m161.23 990.88-5.36-37 41.34-2.82-.54 39.01-31.52 4.26z"/><path fill="#96908e" stroke="#96908e" stroke-linejoin="round" d="m196.67 990.07.54-39.01 5.15-6.29 40.3 8.62-7.83 38.92-30.01 3.96z"/><path fill="#a49e9c" stroke="#a49e9c" stroke-linejoin="round" d="m234.83 992.31 7.83-38.92 2.29-1.5 28.2 4.07 11.05 33.74-38 13.09z"/><path fill="#988a83" stroke="#988a83" stroke-linejoin="round" d="m284.2 989.7-11.05-33.74 13.9-11.77 32.24 7.47 6.19 8.41-22.15 35.87-5.46 1.27z"/><path fill="#aca2a0" stroke="#aca2a0" stroke-linejoin="round" d="m303.33 995.94 22.15-35.87 23.97 3.46 7.12 33.61-27.1 13.82z"/><path fill="#aea5a1" stroke="#aea5a1" stroke-linejoin="round" d="m356.57 997.14-7.12-33.61 8.72-7 38.27 1.92 3.51 35.56-8.01 7.31-24.4 2.26z"/><path fill="#42535f" stroke="#42535f" stroke-linejoin="round" d="m399.95 994.01-3.51-35.56 3.27-3.76 33.72-2.73 12.34 12.45-8.91 31.22-6.36 4.21z"/><path fill="#1c282a" stroke="#1c282a" stroke-linejoin="round" d="m436.86 995.63 8.91-31.22 29.84-3.43 7.19 40.51-8.94 6.42z"/><path fill="#1e292b" stroke="#1e292b" stroke-linejoin="round" d="m482.8 1001.49-7.19-40.51 4.15-4.42 38.54 2.91 6.19 7.3-2.29 21.69-17.38 16.18z"/><path fill="#212f30" stroke="#212f30" stroke-linejoin="round" d="m522.2 988.46 2.29-21.69 37.85-6.25 11.47 34.09-18.22 15.11z"/><path fill="#253032" stroke="#253032" stroke-linejoin="round" d="m573.81 994.61-11.47-34.09.94-1.52 40.48-9.58 4.68 5.62-1.08 31.39-17.8 11.07z"/><path fill="#273536" stroke="#273536" stroke-linejoin="round" d="m607.36 986.43 1.08-31.39 42.23.45 2.73 3.6-24.45 35.8z"/><path fill="#2f3e41" stroke="#2f3e41" stroke-linejoin="round" d="m640.51 1014.41-11.56-19.52 24.45-35.8 14.08 6.43 6.2 30.19z"/><path fill="#32454c" stroke="#32454c" stroke-linejoin="round" d="m673.68 995.71-6.2-30.19 31.46-14.19 12.11 4.52 4.48 5.84-1.39 30.38-25.89 12.32z"/><path fill="#2e4043" stroke="#2e4043" stroke-linejoin="round" d="m714.14 992.07 1.39-30.38 38.46 1.53 7.59 31.02-2.46 3.58-32.61 3.74z"/><path fill="#696565" stroke="#696565" stroke-linejoin="round" d="m761.58 994.24-7.59-31.02 9.97-13.64 33.72 5.7 3.46 5.17-4.23 29.62z"/><path fill="#615f62" stroke="#615f62" stroke-linejoin="round" d="m796.91 990.07 4.23-29.62 36.11-.2 6.62 6.88-1.39 26.54-36.26 6.89z"/><path fill="#5c5451" stroke="#5c5451" stroke-linejoin="round" d="m842.48 993.67 1.39-26.54 34.11-9.54 2.49 2.03 7.46 33.72-41.82 4.13z"/><path fill="#5c5550" stroke="#5c5550" stroke-linejoin="round" d="m887.93 993.34-7.46-33.72 42.83-6.65 1.39.85-10.74 44.83-23.8-3.34z"/><path fill="#5a534d" stroke="#5a534d" stroke-linejoin="round" d="m913.95 998.65 10.74-44.83 16.29-1.43 16.32 13.41.48 35.09-38.72 2.77z"/><path fill="#5e5651" stroke="#5e5651" stroke-linejoin="round" d="m957.78 1000.89-.48-35.09 34.65-10.92 10.71 8.01-1.92 33.6-38.87 8.02z"/><path fill="#55504a" stroke="#55504a" stroke-linejoin="round" d="m1000.74 996.49 1.92-33.6 32.95-8.74 2.67 1.64 10.89 33.37-11.76 14.42-28.33.88z"/><path fill="#59514e" stroke="#59514e" stroke-linejoin="round" d="M1080 944.97v47.06l-30.83-2.87-10.89-33.37z"/><path fill="#a9a7a8" stroke="#a9a7a8" stroke-linejoin="round" d="M0 1032.16v-42.15l29.71 1.23 16.55 19.33-8.15 23.73-.34.25z"/><path fill="#aca8a7" stroke="#aca8a7" stroke-linejoin="round" d="m38.11 1034.3 8.15-23.73 20.13-6.98 25.79 26.14-16.31 20.61z"/><path fill="#ada9aa" stroke="#ada9aa" stroke-linejoin="round" d="m92.18 1029.73-25.79-26.14 11.8-22.42 38.99 11.14.6 1-2.87 32.58z"/><path fill="#b2acac" stroke="#b2acac" stroke-linejoin="round" d="m114.91 1025.89 2.87-32.58 43.45-2.43 3.92 3.45-5.76 39.4-41.68-5.16z"/><path fill="#b3aaa5" stroke="#b3aaa5" stroke-linejoin="round" d="m160.81 1035.43-1.42-1.7 5.76-39.4 31.52-4.26 8.15 6.2-3.15 39.43z"/><path fill="#b0a7a2" stroke="#b0a7a2" stroke-linejoin="round" d="m204.98 1039.26-3.31-3.56 3.15-39.43 30.01-3.96 11.37 10.48 2.92 28.46-9.23 8.53z"/><path fill="#9d9999" stroke="#9d9999" stroke-linejoin="round" d="m249.12 1031.25-2.92-28.46 38-13.09 13.67 7.51-11.45 38.66-5.79 3.61z"/><path fill="#9e9999" stroke="#9e9999" stroke-linejoin="round" d="m286.42 1035.87 11.45-38.66 5.46-1.27 26.14 15.02 2.25 30.62-7.02 6.53z"/><path fill="#8a8486" stroke="#8a8486" stroke-linejoin="round" d="m331.72 1041.58-2.25-30.62 27.1-13.82 10.97 6.44-5.76 40.14z"/><path fill="#9c9592" stroke="#9c9592" stroke-linejoin="round" d="m364.14 1045.81-2.36-2.09 5.76-40.14 24.4-2.26 7.32 39.11z"/><path fill="#aba49f" stroke="#aba49f" stroke-linejoin="round" d="m399.26 1040.43-7.32-39.11 8.01-7.31 30.55 5.83 2.22 40.72-.47.52-29.64 1.73z"/><path fill="#615a5e" stroke="#615a5e" stroke-linejoin="round" d="m432.72 1040.56-2.22-40.72 6.36-4.21 37 12.28-6.28 28.52z"/><path fill="#8d959c" stroke="#8d959c" stroke-linejoin="round" d="m482.46 1053.42-14.88-16.99 6.28-28.52 8.94-6.42 22.02 3.15 11.18 32.31-1.83 3.87z"/><path fill="#242f31" stroke="#242f31" stroke-linejoin="round" d="m516 1036.95-11.18-32.31 17.38-16.18 33.39 21.26-2.83 17.19z"/><path fill="#283334" stroke="#283334" stroke-linejoin="round" d="m564.3 1042.87-11.54-15.96 2.83-17.19 18.22-15.11 15.75 2.89 13.32 39.66z"/><path fill="#2a3436" stroke="#2a3436" stroke-linejoin="round" d="m602.88 1037.16-13.32-39.66 17.8-11.07 21.59 8.46 11.56 19.52-2 12.06-13.71 11.42-18.55 1.23z"/><path fill="#3e4e56" stroke="#3e4e56" stroke-linejoin="round" d="m638.51 1026.47 2-12.06 33.17-18.7 14.57 8.68 1.75 29.67-13.54 12.4z"/><path fill="#36494f" stroke="#36494f" stroke-linejoin="round" d="m690 1034.06-1.75-29.67 25.89-12.32 12.37 9.49-1.81 38.84-.17.14z"/><path fill="#2d3a3e" stroke="#2d3a3e" stroke-linejoin="round" d="m724.7 1040.4 1.81-38.84 32.61-3.74 5.53 36.42-2.61 2.87z"/><path fill="#393536" stroke="#393536" stroke-linejoin="round" d="m764.65 1034.24-5.53-36.42 2.46-3.58 35.33-4.17 9.31 10.49-2.7 33.43z"/><path fill="#5e5a5b" stroke="#5e5a5b" stroke-linejoin="round" d="m804.81 1035.49-1.29-1.5 2.7-33.43 36.26-6.89 3.63 3.8 4.64 32.78-15.2 11.15z"/><path fill="#564e4b" stroke="#564e4b" stroke-linejoin="round" d="m850.75 1030.25-4.64-32.78 41.82-4.13 2.22 1.97-15.85 40.71z"/><path fill="#59514b" stroke="#59514b" stroke-linejoin="round" d="m874.3 1036.02 15.85-40.71 23.8 3.34 5.11 5.01-2.98 36.71-1.22 1.11-35.75-.18z"/><path fill="#5b524b" stroke="#5b524b" stroke-linejoin="round" d="m916.08 1040.37 2.98-36.71 38.72-2.77 4.09 3.62 2.26 28.07-13.14 13.11z"/><path fill="#5a514c" stroke="#5a514c" stroke-linejoin="round" d="m964.13 1032.58-2.26-28.07 38.87-8.02 8.34 7.97-4.77 35.55-9.24 5.47z"/><path fill="#746b65" stroke="#746b65" stroke-linejoin="round" d="m1004.31 1040.01 4.77-35.55 28.33-.88 11.55 29.88-15.04 16.21z"/><path fill="#c0b0a3" stroke="#c0b0a3" stroke-linejoin="round" d="M1080 992.03v43.36l-31.04-1.93-11.55-29.88 11.76-14.42z"/><path fill="#a9a5a4" stroke="#a9a5a4" stroke-linejoin="round" d="M32.29 1080H0v-47.84l37.77 2.39z"/><path fill="#a7a3a2" stroke="#a7a3a2" stroke-linejoin="round" d="M79.41 1080H32.29l5.48-45.45.34-.25 37.76 16.04z"/><path fill="#ada7a7" stroke="#ada7a7" stroke-linejoin="round" d="M118.33 1080H79.41l-3.54-29.66 16.31-20.61 22.73-3.84 2.8 2.68z"/><path fill="#aca7a5" stroke="#aca7a5" stroke-linejoin="round" d="M158.21 1080h-39.88l-.62-51.43 41.68 5.16 1.42 1.7z"/><path fill="#aaa19d" stroke="#aaa19d" stroke-linejoin="round" d="M200.22 1080h-42.01l2.6-44.57 40.86.27 3.31 3.56z"/><path fill="#a9a09b" stroke="#a9a09b" stroke-linejoin="round" d="M242.98 1080h-42.76l4.76-40.74 34.91.52z"/><path fill="#aba29d" stroke="#aba29d" stroke-linejoin="round" d="M279.51 1080h-36.53l-3.09-40.22 9.23-8.53 31.51 8.23z"/><path fill="#ada39f" stroke="#ada39f" stroke-linejoin="round" d="M321.73 1080h-42.22l1.12-40.52 5.79-3.61 38.28 12.24z"/><path fill="#a8a09d" stroke="#a8a09d" stroke-linejoin="round" d="M367.43 1080h-45.7l2.97-31.89 7.02-6.53 30.06 2.14 2.36 2.09z"/><path fill="#706f76" stroke="#706f76" stroke-linejoin="round" d="M397.32 1080h-29.89l-3.29-34.19 35.12-5.38 3.35 2.38z"/><path fill="#433f43" stroke="#433f43" stroke-linejoin="round" d="M437.98 1080h-40.66l5.29-37.19 29.64-1.73z"/><path fill="#847f7d" stroke="#847f7d" stroke-linejoin="round" d="M478.01 1080h-40.03l-5.73-38.92.47-.52 34.86-4.13 14.88 16.99z"/><path fill="#716d6c" stroke="#716d6c" stroke-linejoin="round" d="M534.08 1080h-56.07l4.45-26.58 31.71-12.6z"/><path fill="#99a3ab" stroke="#99a3ab" stroke-linejoin="round" d="M557.05 1080h-22.97l-19.91-39.18 1.83-3.87 36.76-10.04 11.54 15.96z"/><path fill="#43515a" stroke="#43515a" stroke-linejoin="round" d="M596.2 1080h-39.15l7.25-37.13 38.58-5.71 3.37 1.96z"/><path fill="#3e484e" stroke="#3e484e" stroke-linejoin="round" d="M639.93 1080H596.2l10.05-40.88 18.55-1.23z"/><path fill="#495256" stroke="#495256" stroke-linejoin="round" d="M675.03 1080h-35.1l-15.13-42.11 13.71-11.42 37.95 19.99z"/><path fill="#4c545a" stroke="#4c545a" stroke-linejoin="round" d="M722.83 1080h-47.8l1.43-33.54 13.54-12.4 34.53 6.48z"/><path fill="#605d5c" stroke="#605d5c" stroke-linejoin="round" d="M765.6 1080h-42.77l1.7-39.46.17-.14 37.34-3.29z"/><path fill="#a58c7f" stroke="#a58c7f" stroke-linejoin="round" d="M797.26 1080H765.6l-3.56-42.89 2.61-2.87 38.87-.25 1.29 1.5z"/><path fill="#ad9d92" stroke="#ad9d92" stroke-linejoin="round" d="M841.66 1080h-44.4l7.55-44.51 30.74 5.91z"/><path fill="#514944" stroke="#514944" stroke-linejoin="round" d="M873.36 1080h-31.7l-6.11-38.6 15.2-11.15 23.55 5.77 4.81 5.28z"/><path fill="#564d46" stroke="#564d46" stroke-linejoin="round" d="M914.23 1080h-40.87l5.75-38.7 35.75.18z"/><path fill="#5a4f49" stroke="#5a4f49" stroke-linejoin="round" d="M955.26 1080h-41.03l.63-38.52 1.22-1.11 34.91 5.32z"/><path fill="#5a4f49" stroke="#5a4f49" stroke-linejoin="round" d="M989.58 1080h-34.32l-4.27-34.31 13.14-13.11 30.94 12.9z"/><path fill="#564b45" stroke="#564b45" stroke-linejoin="round" d="M1039.25 1080h-49.67l5.49-34.52 9.24-5.47 29.61 9.66z"/><path fill="#867f75" stroke="#867f75" stroke-linejoin="round" d="M1080 1035.39V1080h-40.75l-5.33-30.33 15.04-16.21z"/></svg>