<svg xmlns="http://www.w3.org/2000/svg" width="1080" height="1080" style="width:100%;height:auto;display:block" viewBox="0 0 1080 1080"><rect height="100%" fill="#4eb37b"/><g fill-rule="evenodd"><path fill="#2d8557" d="M3.46 0 0 1079.52h1079.52s16.71-258.91 0-314.86-65.74-16.16-100.34-20.76-107.26-6.92-107.26-6.92l6.92-27.68 200.68 20.76V0zm346 238.74c28.27-11.52 11.52-10.97 13.84 3.46s0 83.04 0 83.04 23.08-14.43 44.98-17.3 55.36-3.46 86.5 0 65.74 9.24 100.34 20.76 78.44 32.28 107.26 48.44 48.44 33.46 65.74 48.44 28.82 30.55 38.06 41.52 16.16 13.25 17.3 24.22-10.38 41.52-10.38 41.52l-62.28-51.9v72.66s-12.7-10.38-31.14-10.38-51.9-2.87-79.58 10.38-86.5 69.2-86.5 69.2 40.93 20.17 51.9 24.22 8.06 4.05 13.84 0 10.38-17.89 20.76-24.22 27.68-12.11 41.52-13.84 32.28.59 41.52 3.46 9.8 11.52 13.84 13.84c4.05 2.32 10.38 0 10.38 0l3.46 31.14s-4.6-12.11-10.38-17.3-13.25-11.52-24.22-13.84-32.28-1.14-41.52 0-9.24.59-13.84 6.92-13.84 31.14-13.84 31.14-3.46-8.65 10.38-6.92 58.82 13.84 72.66 17.3 8.65 1.14 10.38 3.46 3.46 6.33 0 10.38-14.43 11.52-20.76 13.84-4.6 2.87-17.3 0-58.82-17.3-58.82-17.3-4.6 19.62-3.46 27.68 3.46 12.7 10.38 20.76 22.49 21.35 31.14 27.68 8.65 8.65 20.76 10.38 51.9 0 51.9 0v27.68s-28.82 6.92-44.98 3.46-38.06-14.98-51.9-24.22-23.08-20.76-31.14-31.14-13.84-17.3-17.3-31.14-3.46-51.9-3.46-51.9 2.87 6.92-3.46 6.92-23.08-3.46-34.6-6.92-34.6-13.84-34.6-13.84l3.46-10.38-38.06 10.38 10.38-31.14-89.96-3.46s-1.14-17.89 6.92-20.76 27.68 4.6 41.52 3.46 32.87-.59 41.52-10.38 17.89-35.74 10.38-48.44-42.66-25.95-55.36-27.68-16.16 9.8-20.76 17.3-6.92 27.68-6.92 27.68l-44.98-3.46-10.38-145.32s13.84 8.65-6.92 10.38-94-2.32-117.64 0c-23.63 2.32-14.43 12.11-24.22 13.84-9.8 1.73-27.68-1.14-34.6-3.46s.59-8.65-6.92-10.38-38.06 0-38.06 0 0-40.93 6.92-58.82 2.87-28.27 34.6-48.44 127.43-61.14 155.7-72.66M245.66 467.1c9.24-1.14 17.3 0 17.3 0s-4.6 9.24-13.84 10.38-41.52-3.46-41.52-3.46 28.82-5.78 38.06-6.92M190.3 574.36c25.36-2.32 48.44 0 48.44 0s19.62 4.05-13.84 10.38-186.84 27.68-186.84 27.68l10.38 3.46s0 6.33-3.46 6.92-13.25-.59-17.3-3.46-6.92-13.84-6.92-13.84 37.47-12.11 65.74-17.3 78.44-11.52 103.8-13.84m141.86 6.92c10.97-.59 45.57 1.73 55.36 3.46 9.8 1.73 3.46 6.92 3.46 6.92s-21.9 12.11-34.6 13.84-31.73-2.32-41.52-3.46-13.84-.59-17.3-3.46-3.46-13.84-3.46-13.84 21.35 4.05 27.68 3.46-.59-6.33 10.38-6.92m612.42 6.92s6.33 0 6.92 10.38-3.46 51.9-3.46 51.9-6.33-3.46-6.92-13.84 3.46-48.44 3.46-48.44M314.86 688.54l20.76 3.46-20.76 10.38zm435.96 0s6.92 21.35 3.46 27.68-17.3 9.24-24.22 10.38-13.84-.59-17.3-3.46-3.46-13.84-3.46-13.84 2.87 6.33 6.92 6.92 12.11-1.14 17.3-3.46 10.97-6.33 13.84-10.38 3.46-13.84 3.46-13.84m20.76 0 10.38 10.38h-13.84z"/><path fill="#0d372e" d="M3.46 0 0 1079.52h1079.52l-3.46-294.1s-177.05-28.82-217.98-27.68-14.43 24.22-27.68 34.6-27.68 23.08-51.9 27.68-72.66 2.32-93.42 0-19.03-5.19-31.14-13.84-31.73-25.95-41.52-38.06-13.84-20.17-17.3-34.6 28.82-35.74-3.46-51.9-152.83-44.4-190.3-44.98c-37.47-.59-28.82 28.82-34.6 41.52s-4.05 20.76 0 34.6 22.49 30.55 24.22 48.44-5.78 42.66-13.84 58.82-27.68 31.73-34.6 38.06-4.6 3.46-6.92 0-6.92-20.76-6.92-20.76l-44.98 24.22s2.32-37.47 6.92-55.36 20.76-51.9 20.76-51.9-17.3 17.89-27.68 24.22-21.35 12.11-34.6 13.84-30.55 0-44.98-3.46-34.6-13.25-41.52-17.3-5.78.59 0-6.92 21.9-27.1 34.6-38.06 30-21.35 41.52-27.68 10.97-8.06 27.68-10.38 55.36 1.14 72.66-3.46 24.22-15.57 31.14-24.22 10.38-27.68 10.38-27.68-76.7-19.62-121.1-20.76-106.67 11.52-145.32 13.84-70.34 2.32-86.5 0-8.65-9.24-10.38-13.84-4.05-10.38 0-13.84-10.38-1.73 24.22-6.92 145.9-20.76 183.38-24.22 23.63 11.52 41.52 3.46 54.77-42.1 65.74-51.9 0-6.92 0-6.92-60.55 2.32-83.04 0-38.06-8.65-51.9-13.84-24.22-11.52-31.14-17.3-10.38-17.3-10.38-17.3 72.07 5.19 93.42 3.46 24.8-7.5 34.6-13.84 24.22-24.22 24.22-24.22-40.38 23.08-65.74 27.68-70.34.59-86.5 0-9.24 8.65-10.38-3.46 0-49.58 3.46-69.2 10.97-36.33 17.3-48.44-9.24-7.5 20.76-24.22S316.59 247.98 346 235.28s17.3 0 17.3 0l3.46 83.04s20.76-11.52 41.52-13.84 53.04-2.87 83.04 0 62.28 6.33 96.88 17.3 78.44 30 110.72 48.44 62.28 43.84 83.04 62.28 27.1 27.1 41.52 48.44c14.43 21.35 34.01 55.36 44.98 79.58s17.89 41.52 20.76 65.74-4.05 65.74-3.46 79.58-10.38 2.32 6.92 3.46 77.85 1.73 96.88 3.46 10.97 6.92 17.3 6.92 20.76-6.92 20.76-6.92-47.3-16.16-62.28-27.68-23.08-24.22-27.68-41.52 0-62.28 0-62.28 21.9-4.6 31.14-3.46 24.22 10.38 24.22 10.38l17.3-69.2s32.28 32.28 41.52 44.98 11.52 17.3 13.84 31.14 5.78 30.55 0 51.9-34.6 76.12-34.6 76.12l48.44 3.46V0zm449.8 532.84c-11.52-4.6-6.33-2.87-10.38 6.92-4.05 9.8-13.84 51.9-13.84 51.9s31.14 4.05 38.06 3.46-2.32-5.78 3.46-6.92 24.22 3.46 31.14 0 10.38-20.76 10.38-20.76-47.3-30-58.82-34.6m-72.66 6.92c-4.6 1.73-13.84 4.05-20.76 10.38s-20.76 27.68-20.76 27.68 30-5.78 38.06-10.38 8.65-12.7 10.38-17.3 0-10.38 0-10.38-2.32-1.73-6.92 0m307.94 24.22c-21.35 2.87-58.23 13.84-79.58 24.22s-48.44 38.06-48.44 38.06 40.38 19.62 55.36 17.3 17.89-24.8 34.6-31.14 49.58-8.06 65.74-6.92 21.9 6.92 31.14 13.84 19.62 16.71 24.22 27.68-5.19 30 3.46 38.06 48.44 10.38 48.44 10.38 2.32-32.87 0-44.98-5.78-17.3-13.84-27.68-22.49-25.95-34.6-34.6-23.63-13.25-38.06-17.3-27.1-9.8-48.44-6.92m-3.46 76.12c-10.97 0-20.17 7.5-24.22 10.38-4.05 2.87-12.7 2.87 0 6.92s76.12 17.3 76.12 17.3 1.73-9.8 0-13.84c-1.73-4.05-1.73-6.92-10.38-10.38s-30.55-10.38-41.52-10.38m-325.24 38.06s-9.24 1.14-17.3 13.84-31.14 62.28-31.14 62.28 26.54-21.9 34.6-34.6 13.84-41.52 13.84-41.52m287.18 20.76s-2.32 10.38 0 17.3 2.87 15.57 13.84 24.22 33.46 24.22 51.9 27.68 44.4-2.32 58.82-6.92 27.68-20.76 27.68-20.76-34.6-15.57-48.44-17.3-25.95 9.24-34.6 6.92-5.78-15.57-17.3-20.76-51.9-10.38-51.9-10.38"/><path fill="#0d362e" d="M3.46 0 0 1079.52h1079.52l-3.46-294.1s-177.05-28.82-217.98-27.68-14.43 24.22-27.68 34.6-27.68 23.08-51.9 27.68-72.66 2.32-93.42 0-19.03-5.19-31.14-13.84-31.73-25.95-41.52-38.06-13.84-20.17-17.3-34.6 28.82-35.74-3.46-51.9-152.83-44.4-190.3-44.98c-37.47-.59-28.82 28.82-34.6 41.52s-4.05 21.35 0 34.6 22.49 27.1 24.22 44.98c1.73 17.89-5.78 45.57-13.84 62.28s-34.6 38.06-34.6 38.06-7.5-17.89-17.3-17.3-41.52 20.76-41.52 20.76-1.14-27.1 3.46-44.98c4.6-17.89 24.22-62.28 24.22-62.28s-20.76 21.35-31.14 27.68-14.98 10.38-31.14 10.38-51.31-6.92-65.74-10.38-17.3-6.92-20.76-10.38-12.7 1.73 0-10.38 58.82-50.17 76.12-62.28 10.97-8.06 27.68-10.38 55.36 1.14 72.66-3.46 24.22-15.57 31.14-24.22 10.38-27.68 10.38-27.68-76.7-19.62-121.1-20.76-106.67 11.52-145.32 13.84-69.79 3.46-86.5 0-13.25-15.57-13.84-20.76-8.65-5.78 10.38-10.38 70.34-12.7 103.8-17.3 73.8-9.24 96.88-10.38 23.63 11.52 41.52 3.46 54.77-42.1 65.74-51.9 0-6.92 0-6.92-60.55 2.32-83.04 0-38.06-8.65-51.9-13.84-24.22-11.52-31.14-17.3-10.38-17.3-10.38-17.3 72.07 5.19 93.42 3.46 24.8-7.5 34.6-13.84 24.22-24.22 24.22-24.22-40.38 23.08-65.74 27.68-70.34.59-86.5 0-9.24 9.24-10.38-3.46 0-53.04 3.46-72.66 10.97-33.46 17.3-44.98-9.24-7.5 20.76-24.22S316 247.98 346 235.28s20.76 0 20.76 0v83.04s20.76-11.52 41.52-13.84 53.04-2.87 83.04 0 62.28 6.33 96.88 17.3 78.44 30 110.72 48.44 62.28 43.84 83.04 62.28 26.54 25.95 41.52 48.44 37.47 62.28 48.44 86.5 14.98 35.74 17.3 58.82-4.05 65.74-3.46 79.58-10.38 2.32 6.92 3.46 77.85 1.73 96.88 3.46 10.97 6.92 17.3 6.92 20.76-6.92 20.76-6.92-43.84-13.25-58.82-24.22-25.95-23.63-31.14-41.52 0-65.74 0-65.74 25.95-4.6 34.6-3.46 17.3 10.38 17.3 10.38l20.76-69.2s32.28 32.28 41.52 44.98 12.11 14.98 13.84 31.14 2.32 44.4-3.46 65.74c-5.78 21.35-31.14 62.28-31.14 62.28l48.44 3.46V0zm449.8 532.84c-11.52-4.6-8.06.59-10.38 6.92s-1.14 23.08-3.46 31.14-10.38 17.3-10.38 17.3 12.11 6.92 24.22 6.92 38.65-2.32 48.44-6.92c9.8-4.6 10.38-20.76 10.38-20.76s-47.3-30-58.82-34.6m-72.66 6.92c-5.19 2.32-17.3 7.5-24.22 13.84s-17.3 24.22-17.3 24.22 30-5.78 38.06-10.38 8.65-12.7 10.38-17.3 0-10.38 0-10.38-1.73-2.32-6.92 0m307.94 24.22c-19.03 3.46-58.23 13.84-79.58 24.22s-48.44 38.06-48.44 38.06 40.38 19.62 55.36 17.3 17.89-24.8 34.6-31.14 50.17-7.5 65.74-6.92 18.44 3.46 27.68 10.38 22.49 19.62 27.68 31.14-5.19 30 3.46 38.06 48.44 10.38 48.44 10.38 2.32-32.87 0-44.98-5.78-17.3-13.84-27.68-20.17-25.36-34.6-34.6-37.47-16.71-51.9-20.76-15.57-6.92-34.6-3.46m-3.46 76.12c-10.97 0-20.17 7.5-24.22 10.38-4.05 2.87-12.7 2.87 0 6.92s76.12 17.3 76.12 17.3 1.73-9.8 0-13.84c-1.73-4.05-1.73-6.92-10.38-10.38s-30.55-10.38-41.52-10.38m-325.24 38.06s-9.24 1.14-17.3 13.84-31.14 62.28-31.14 62.28 30-28.82 38.06-41.52 10.38-34.6 10.38-34.6m287.18 20.76s-1.14 19.03 3.46 27.68 13.84 17.3 24.22 24.22 25.95 14.43 38.06 17.3 20.17 4.6 34.6 0 51.9-27.68 51.9-27.68-34.6-15.57-48.44-17.3-27.1 8.65-34.6 6.92 1.14-12.11-10.38-17.3-58.82-13.84-58.82-13.84"/><path fill="#0c342d" d="M3.46 0 0 1079.52h1079.52l-3.46-294.1s-177.05-28.82-217.98-27.68-14.43 24.22-27.68 34.6-30 22.49-51.9 27.68-58.82 5.78-79.58 3.46-31.73-9.8-44.98-17.3-24.8-15.57-34.6-27.68-19.62-28.82-24.22-44.98 28.82-35.74-3.46-51.9-152.83-44.4-190.3-44.98c-37.47-.59-28.82 28.82-34.6 41.52s-4.05 21.35 0 34.6 20.17 33.46 24.22 44.98 2.32 13.84 0 24.22-5.78 25.36-13.84 38.06-34.6 38.06-34.6 38.06-7.5-17.89-17.3-17.3-41.52 20.76-41.52 20.76-1.14-27.1 3.46-44.98c4.6-17.89 24.22-62.28 24.22-62.28s-20.76 21.35-31.14 27.68-14.98 10.38-31.14 10.38-51.31-6.92-65.74-10.38-17.3-6.92-20.76-10.38-6.33-2.32 0-10.38 25.36-27.68 38.06-38.06 27.1-18.44 38.06-24.22 10.97-8.06 27.68-10.38 55.95.59 72.66-3.46 20.76-14.43 27.68-20.76q10.37-9.5 13.84-17.3c2.32-5.19 0-13.84 0-13.84s-77.26-19.62-121.1-20.76-103.21 11.52-141.86 13.84-72.66 3.46-89.96 0-13.25-15.57-13.84-20.76-8.65-5.78 10.38-10.38 70.34-12.7 103.8-17.3 73.8-9.24 96.88-10.38 23.63 11.52 41.52 3.46 54.77-42.1 65.74-51.9 0-6.92 0-6.92-30.55 5.19-51.9 3.46-55.36-6.92-76.12-13.84-40.38-21.35-48.44-27.68 0-10.38 0-10.38 72.07 5.19 93.42 3.46 24.8-7.5 34.6-13.84 24.22-24.22 24.22-24.22-19.62 19.62-44.98 24.22-87.64 3.46-107.26 3.46-9.24 9.24-10.38-3.46 0-53.04 3.46-72.66 10.38-32.87 17.3-44.98-5.78-10.97 24.22-27.68 126.29-60.55 155.7-72.66 20.76 0 20.76 0v83.04s11.52-12.7 41.52-13.84 98.02 0 138.4 6.92 74.39 22.49 103.8 34.6 53.04 25.95 72.66 38.06 26.54 16.16 44.98 34.6 48.44 51.31 65.74 76.12c17.3 24.8 28.82 50.76 38.06 72.66s14.98 35.74 17.3 58.82-4.05 65.74-3.46 79.58-10.97 2.32 6.92 3.46 80.72 1.73 100.34 3.46 11.52 6.92 17.3 6.92 17.3-6.92 17.3-6.92-54.22-20.17-69.2-31.14-17.3-17.89-20.76-34.6 0-65.74 0-65.74 25.95-4.6 34.6-3.46 17.3 10.38 17.3 10.38l20.76-69.2s25.36 21.9 34.6 34.6 17.89 23.63 20.76 41.52 2.32 44.4-3.46 65.74c-5.78 21.35-31.14 62.28-31.14 62.28l48.44 3.46V0zm449.8 532.84c-11.52-4.6-8.06.59-10.38 6.92s-1.14 23.08-3.46 31.14-10.38 17.3-10.38 17.3 12.11 6.92 24.22 6.92 38.65-2.32 48.44-6.92c9.8-4.6 10.38-20.76 10.38-20.76s-47.3-30-58.82-34.6m-72.66 6.92c-5.19 2.32-17.3 7.5-24.22 13.84s-17.3 24.22-17.3 24.22 30-5.78 38.06-10.38 8.65-12.7 10.38-17.3 0-10.38 0-10.38-1.73-2.32-6.92 0M692 563.98c-17.89 0-34.6 4.05-51.9 10.38s-38.65 19.03-51.9 27.68-27.68 24.22-27.68 24.22 43.25 17.89 55.36 17.3 8.65-14.43 17.3-20.76 20.76-14.43 34.6-17.3 35.74-1.73 48.44 0 18.44 3.46 27.68 10.38 22.49 19.62 27.68 31.14-5.19 30 3.46 38.06 48.44 10.38 48.44 10.38 2.87-28.82 0-41.52-9.24-23.63-17.3-34.6-21.35-23.63-31.14-31.14c-9.8-7.5-13.84-9.8-27.68-13.84-13.84-4.05-37.47-10.38-55.36-10.38m-6.92 76.12c-10.97 0-20.17 7.5-24.22 10.38-4.05 2.87-12.7 2.87 0 6.92s76.12 17.3 76.12 17.3 1.73-9.8 0-13.84c-1.73-4.05-1.73-6.92-10.38-10.38s-30.55-10.38-41.52-10.38m-325.24 38.06s-9.24 1.14-17.3 13.84-31.14 62.28-31.14 62.28 23.08-18.44 31.14-31.14 17.3-44.98 17.3-44.98m287.18 20.76s-1.14 19.03 3.46 27.68 13.84 17.3 24.22 24.22 24.22 14.98 38.06 17.3 30.55 1.14 44.98-3.46 41.52-24.22 41.52-24.22-34.6-15.57-48.44-17.3-27.1 8.65-34.6 6.92 1.14-12.11-10.38-17.3-58.82-13.84-58.82-13.84"/><path fill="#0c332c" d="M3.46 0 0 1079.52h1079.52l-3.46-294.1s-176.46-29.41-217.98-27.68-17.89 27.68-31.14 38.06-27.1 19.62-48.44 24.22c-21.35 4.6-58.82 5.78-79.58 3.46s-31.73-9.8-44.98-17.3-24.8-15.57-34.6-27.68-19.62-28.82-24.22-44.98 28.27-35.74-3.46-51.9-149.92-42.66-186.84-44.98-28.27 23.63-34.6 31.14c-6.33 7.5-2.87 6.33-3.46 13.84s-4.05 18.44 0 31.14 20.17 33.46 24.22 44.98 2.32 13.84 0 24.22-5.78 25.36-13.84 38.06-34.6 38.06-34.6 38.06-7.5-17.89-17.3-17.3-41.52 20.76-41.52 20.76 2.32-40.93 6.92-58.82 20.76-48.44 20.76-48.44-20.76 21.35-31.14 27.68-16.16 9.8-31.14 10.38-44.4-3.46-58.82-6.92-23.08-9.8-27.68-13.84c-4.6-4.05-10.97 1.14 0-10.38s49.03-46.71 65.74-58.82 15.57-10.38 34.6-13.84 59.96 0 79.58-6.92 31.73-26.54 38.06-34.6 0-13.84 0-13.84-77.85-19.62-121.1-20.76-99.2 11.52-138.4 13.84-79 3.46-96.88 0c-17.89-3.46-10.38-15.57-10.38-20.76s-8.06-5.78 10.38-10.38 67.47-12.7 100.34-17.3 73.25-9.24 96.88-10.38 27.1 10.97 44.98 3.46c17.89-7.5 51.31-38.65 62.28-48.44 10.97-9.8 3.46-10.38 3.46-10.38s-40.93 5.19-62.28 3.46-47.3-7.5-65.74-13.84-36.92-17.89-44.98-24.22-3.46-13.84-3.46-13.84 80.72 2.87 103.8 0 26.54-11.52 34.6-17.3 13.84-17.3 13.84-17.3-19.03 19.62-44.98 24.22-91.1 3.46-110.72 3.46-6.33 9.24-6.92-3.46 0-53.04 3.46-72.66 10.38-32.87 17.3-44.98-5.78-10.97 24.22-27.68 126.29-60.55 155.7-72.66 20.76 0 20.76 0v83.04s20.76-11.52 41.52-13.84 54.77-2.32 83.04 0 54.77 4.6 86.5 13.84 72.07 24.8 103.8 41.52c31.73 16.71 61.14 36.33 86.5 58.82s48.44 51.31 65.74 76.12c17.3 24.8 28.82 50.76 38.06 72.66s13.84 42.1 17.3 58.82 4.05 28.27 3.46 41.52-6.92 31.14-6.92 38.06-10.97 2.32 6.92 3.46 80.72 1.73 100.34 3.46 11.52 6.92 17.3 6.92 17.3-6.92 17.3-6.92-50.76-16.71-65.74-27.68-20.17-20.76-24.22-38.06 0-65.74 0-65.74 25.95-4.6 34.6-3.46 17.3 10.38 17.3 10.38l20.76-69.2s28.82 25.36 38.06 38.06 14.43 22.49 17.3 38.06 5.78 34.01 0 55.36-34.6 72.66-34.6 72.66l48.44 3.46V0zm449.8 532.84c-11.52-4.6-6.92-2.32-10.38 6.92S432.5 588.2 432.5 588.2s9.24 6.92 20.76 6.92 38.65-2.32 48.44-6.92c9.8-4.6 10.38-20.76 10.38-20.76s-47.3-30-58.82-34.6m-72.66 6.92c-8.06 6.33-41.52 38.06-41.52 38.06s30-5.78 38.06-10.38 8.65-12.7 10.38-17.3 0-10.38 0-10.38 1.14-6.33-6.92 0M692 563.98c-14.98 1.73-36.92 3.46-58.82 13.84s-72.66 48.44-72.66 48.44 43.25 17.89 55.36 17.3 8.65-14.43 17.3-20.76 20.17-14.43 34.6-17.3 39.2-1.73 51.9 0 16.16 4.6 24.22 10.38 19.03 12.7 24.22 24.22-2.32 36.33 6.92 44.98 48.44 6.92 48.44 6.92 3.46-25.36 0-38.06-12.7-27.1-20.76-38.06-14.43-19.62-27.68-27.68-38.06-16.71-51.9-20.76-16.16-5.19-31.14-3.46m-3.46 76.12c-10.97 0-23.08 7.5-27.68 10.38-4.6 2.87-12.7 2.87 0 6.92s76.12 17.3 76.12 17.3 1.73-9.8 0-13.84c-1.73-4.05-2.32-6.92-10.38-10.38s-27.1-10.38-38.06-10.38m-328.7 38.06s-9.24 1.14-17.3 13.84-31.14 62.28-31.14 62.28 23.08-18.44 31.14-31.14 17.3-44.98 17.3-44.98m287.18 20.76s4.05 24.8 10.38 34.6 18.44 18.44 27.68 24.22 15.57 9.24 27.68 10.38 30.55 1.14 44.98-3.46 41.52-24.22 41.52-24.22-34.6-15.57-48.44-17.3-27.1 8.65-34.6 6.92 1.14-12.11-10.38-17.3-58.82-13.84-58.82-13.84"/><path fill="#0c322c" d="M3.46 0 0 1079.52h1079.52l-3.46-294.1s-173-31.73-217.98-27.68-36.92 40.93-51.9 51.9-19.62 11.52-38.06 13.84-50.17 5.19-72.66 0-47.3-20.76-62.28-31.14-20.76-19.03-27.68-31.14-12.11-28.82-13.84-41.52 3.46-34.6 3.46-34.6-156.29-42.1-193.76-44.98-25.36 20.76-31.14 27.68-2.87 6.33-3.46 13.84-4.05 19.03 0 31.14 20.17 29.41 24.22 41.52 2.32 20.17 0 31.14-5.78 22.49-13.84 34.6-27.1 32.28-34.6 38.06-8.06-.59-10.38-3.46-3.46-13.84-3.46-13.84l-44.98 20.76s-4.05-13.84 0-31.14 24.22-72.66 24.22-72.66-18.44 18.44-27.68 24.22-12.7 9.8-27.68 10.38-46.71-2.32-62.28-6.92-31.14-20.76-31.14-20.76 58.82-53.04 76.12-65.74 9.8-7.5 27.68-10.38c17.89-2.87 59.96 0 79.58-6.92s31.73-26.54 38.06-34.6 0-13.84 0-13.84-78.44-19.62-121.1-20.76-95.74 11.52-134.94 13.84-81.9 3.46-100.34 0-10.38-15.57-10.38-20.76-8.06-5.78 10.38-10.38 67.47-12.7 100.34-17.3 73.25-9.24 96.88-10.38 27.68 10.38 44.98 3.46 47.85-35.19 58.82-44.98c10.97-9.8 6.92-13.84 6.92-13.84s-65.15 1.73-86.5 0-27.1-4.6-41.52-10.38-36.92-17.89-44.98-24.22-3.46-13.84-3.46-13.84 82.45 1.73 103.8 0 16.16-4.6 24.22-10.38 24.22-24.22 24.22-24.22-19.03 19.62-44.98 24.22-91.1 3.46-110.72 3.46-6.33 9.24-6.92-3.46 0-53.04 3.46-72.66 10.38-32.87 17.3-44.98-5.78-10.97 24.22-27.68 126.29-60.55 155.7-72.66 20.76 0 20.76 0v83.04s6.92-8.06 13.84-10.38 9.24-2.87 27.68-3.46 54.77-2.32 83.04 0 54.77 4.6 86.5 13.84 72.07 24.8 103.8 41.52c31.73 16.71 64.01 40.38 86.5 58.82s31.73 28.82 48.44 51.9 39.79 60.55 51.9 86.5 16.71 50.76 20.76 69.2 4.05 28.27 3.46 41.52-6.92 31.14-6.92 38.06-10.97 2.32 6.92 3.46 80.72 1.73 100.34 3.46 11.52 6.92 17.3 6.92 17.3-6.92 17.3-6.92-50.76-16.71-65.74-27.68-20.17-20.17-24.22-38.06 0-69.2 0-69.2 29.41-1.73 38.06 0 13.84 10.38 13.84 10.38l20.76-69.2s28.82 25.95 38.06 38.06 14.43 19.03 17.3 34.6 5.78 36.92 0 58.82-34.6 72.66-34.6 72.66l48.44 3.46V0zm449.8 532.84c-11.52-4.6-6.92-2.32-10.38 6.92S432.5 588.2 432.5 588.2s9.24 6.92 20.76 6.92 38.65-2.32 48.44-6.92c9.8-4.6 10.38-20.76 10.38-20.76s-47.3-30-58.82-34.6m-69.2 6.92s-9.8.59-17.3 6.92-27.68 31.14-27.68 31.14 10.38 2.32 17.3 0 19.62-7.5 24.22-13.84 3.46-24.22 3.46-24.22M692 563.98c-14.98 1.73-36.92 3.46-58.82 13.84s-72.66 48.44-72.66 48.44 40.93 19.62 55.36 17.3 19.62-24.22 31.14-31.14 25.95-9.24 38.06-10.38 21.9-1.14 34.6 3.46 34.6 18.44 41.52 24.22-1.73 7.5 0 10.38c1.73 2.87 8.06-.59 10.38 6.92s-5.19 30.55 3.46 38.06c8.65 7.5 48.44 6.92 48.44 6.92s3.46-25.36 0-38.06-12.7-27.1-20.76-38.06-14.43-19.62-27.68-27.68-38.06-16.71-51.9-20.76-16.16-5.19-31.14-3.46m-3.46 76.12c-10.97 1.14-27.68 17.3-27.68 17.3l76.12 17.3s1.73-9.8 0-13.84c-1.73-4.05-2.32-6.92-10.38-10.38s-27.1-11.52-38.06-10.38m-328.7 38.06s-10.38 2.87-17.3 13.84-24.22 51.9-24.22 51.9 17.3-9.8 24.22-20.76 17.3-44.98 17.3-44.98m290.64 20.76s-4.6 8.06-3.46 13.84 1.14 12.11 10.38 20.76 30.55 25.36 44.98 31.14 25.36 7.5 41.52 3.46 55.36-27.68 55.36-27.68-34.6-15.57-48.44-17.3-27.1 8.65-34.6 6.92.59-12.11-10.38-17.3-55.36-13.84-55.36-13.84"/></g></svg>