<svg xmlns="http://www.w3.org/2000/svg" width="1080" height="1080" style="width:100%;height:auto;display:block" viewBox="0 0 1080 1080"><rect height="100%" fill="#4fb982"/><g fill-rule="evenodd"><path fill="#4a9e68" d="M3.46 0 0 1079.52h1079.52V747.36s-94.56-16.71-128.02-20.76-72.66-3.46-72.66-3.46V709.3s-19.62-3.46 13.84 0 186.84 20.76 186.84 20.76V0zm346 242.2c26.54-9.8 12.11-10.97 13.84 3.46s-4.05 61.14-3.46 83.04 6.92 48.44 6.92 48.44h-93.42s0 23.08-3.46 31.14-10.97 13.25-17.3 17.3-10.97 6.92-20.76 6.92-28.27-1.73-38.06-6.92-17.3-16.71-20.76-24.22 2.32-16.71 0-20.76-13.84-3.46-13.84-3.46 9.8-36.33 17.3-48.44-1.14-9.8 27.68-24.22c28.82-14.43 118.78-52.49 145.32-62.28m65.74 65.74a19.5 19.5 0 0 1 13.84 3.46s-6.92-2.32-10.38 0-10.38 13.84-10.38 13.84 23.08-7.5 27.68-10.38c4.6-2.87 0-6.92 0-6.92s28.27-1.73 48.44 0 48.44 4.6 72.66 10.38 44.98 12.11 72.66 24.22 65.15 28.27 93.42 48.44 64.01 53.04 76.12 72.66-3.46 44.98-3.46 44.98 4.6 11.52-10.38 0-53.63-51.9-79.58-69.2-76.12-34.6-76.12-34.6 6.33 125.7 3.46 152.24-10.38-2.32-20.76 6.92-31.73 39.2-41.52 48.44-14.43 4.05-17.3 6.92-10.38 5.19 0 10.38 49.03 19.62 62.28 20.76 17.3-13.84 17.3-13.84v110.72s-16.16-18.44-20.76-27.68-6.33-17.3-6.92-27.68 13.84-24.8 3.46-34.6-47.85-23.08-65.74-24.22-41.52 17.3-41.52 17.3l6.92-34.6s-9.8 5.19-24.22 3.46c-14.43-1.73-62.28-13.84-62.28-13.84l3.46-10.38s23.63 8.06 38.06 6.92 38.06-1.73 48.44-13.84 19.62-44.98 13.84-58.82-36.92-21.9-48.44-24.22-5.78 8.65-20.76 10.38-69.2 0-69.2 0-4.6-27.68-3.46-38.06 8.65-13.25 10.38-24.22 2.32-19.03 0-41.52-13.84-93.42-13.84-93.42 26.54-9.24 34.6-10.38m6.92 124.56c-10.38-.59-12.7.59-17.3 3.46s-10.38 13.84-10.38 13.84-1.14-5.19 6.92-6.92 31.14-3.46 41.52-3.46 12.7-.59 20.76 3.46 27.68 20.76 27.68 20.76-12.7-19.03-24.22-24.22-34.6-6.33-44.98-6.92m72.66 34.6s-.59 18.44-3.46 24.22-13.84 10.38-13.84 10.38 17.89-4.6 20.76-10.38-3.46-24.22-3.46-24.22m-276.8 107.26c14.98-1.14 20.76 0 20.76 0s-1.73 8.06-17.3 10.38-76.12 3.46-76.12 3.46-8.65-4.6 3.46-6.92 54.22-5.78 69.2-6.92m114.18 6.92c10.38.59 58.82 10.38 58.82 10.38s1.73 6.92-13.84 6.92-79.58-6.92-79.58-6.92v-6.92s25.36 4.05 31.14 3.46-6.92-7.5 3.46-6.92m318.32 79.58s61.14 9.8 76.12 13.84c14.98 4.05 13.84 10.38 13.84 10.38s-1.14 7.5-10.38 6.92-31.73-6.92-44.98-10.38-28.82-6.92-34.6-10.38 0-10.38 0-10.38"/><path fill="#1e7d51" d="M3.46 0 0 1079.52h1079.52s12.11-242.2 0-294.1-36.33-12.11-72.66-17.3-145.32-13.84-145.32-13.84-19.03-40.93 17.3-44.98 200.68 20.76 200.68 20.76V0zm346 238.74c26.54-10.97 10.97-1.14 13.84 0s3.46-7.5 3.46 6.92-3.46 79.58-3.46 79.58 19.62-14.43 41.52-17.3 59.96-2.87 89.96 0 54.22 5.19 89.96 17.3 89.37 34.01 124.56 55.36 63.42 47.85 86.5 72.66 43.25 24.22 51.9 76.12 3.46 192.03 0 235.28-10.38 16.16-20.76 24.22-27.68 18.44-41.52 24.22-22.49 10.97-41.52 10.38-54.77-7.5-72.66-13.84-34.6-24.22-34.6-24.22 15.57-1.73 10.38-13.84-34.01-42.66-41.52-58.82c-7.5-16.16-3.46-38.06-3.46-38.06s-8.06 5.78-34.6 0-96.88-27.68-124.56-34.6-29.41-10.97-41.52-6.92-31.14 31.14-31.14 31.14 10.97-8.06 13.84-13.84 3.46-20.76 3.46-20.76-36.92-10.97-69.2-13.84-82.45-5.19-124.56-3.46-99.75 12.7-128.02 13.84-34.01-2.87-41.52-6.92c-7.5-4.05-4.05-13.84-3.46-17.3s-20.76 1.14 6.92-3.46 123.42-20.17 159.16-24.22 55.36 0 55.36 0-8.65 9.24-20.76 13.84-51.9 13.84-51.9 13.84 51.9-3.46 93.42 0 155.7 20.76 155.7 20.76v-20.76h-27.68v-6.92s-17.89 13.25-34.6 13.84-65.74-10.38-65.74-10.38-4.05-14.98 6.92-17.3 47.85 4.6 58.82 3.46 2.87-8.06 6.92-10.38 12.7 0 17.3-3.46 10.38.59 10.38-17.3-10.38-89.96-10.38-89.96-73.8-2.32-93.42 0-9.24 10.97-24.22 13.84-53.04 4.6-65.74 3.46-10.38-10.38-10.38-10.38 65.74-1.73 86.5-6.92 32.28-17.89 38.06-24.22-3.46-13.84-3.46-13.84-8.06 14.43-34.6 17.3-124.56 0-124.56 0 2.87-54.22 6.92-72.66 9.24-27.1 17.3-38.06 1.73-12.11 31.14-27.68 118.78-54.77 145.32-65.74m107.26 283.72c-11.52-1.14-13.25 8.06-17.3 17.3s-3.46 27.68-6.92 38.06-13.84 24.22-13.84 24.22-9.24-5.78 3.46-6.92 57.09 3.46 72.66 0 18.44-12.7 20.76-20.76 2.87-19.03-6.92-27.68c-9.8-8.65-40.38-23.08-51.9-24.22m221.44 24.22c-17.3 2.87-34.6 4.05-55.36 17.3s-69.2 62.28-69.2 62.28 51.31 21.35 65.74 20.76 11.52-17.89 20.76-24.22 22.49-11.52 34.6-13.84 27.1-1.73 38.06 0 17.89 1.73 27.68 10.38c9.8 8.65 25.95 30.55 31.14 41.52s-4.6 19.03 0 24.22 22.49 4.05 27.68 6.92 3.46 10.38 3.46 10.38h-27.68s5.78 9.8 0 13.84c-5.78 4.05-24.8 8.65-34.6 10.38s-19.03 2.87-24.22 0 4.6-11.52-6.92-17.3-50.76-16.71-62.28-17.3-8.06 6.33-6.92 13.84 4.6 20.76 13.84 31.14 23.08 25.95 41.52 31.14 51.31 4.05 69.2 0 26.54-13.84 38.06-24.22 24.22-25.95 31.14-38.06 9.24-23.63 10.38-34.6.59-19.62-3.46-31.14-10.97-25.95-20.76-38.06-22.49-25.36-38.06-34.6-38.06-17.3-55.36-20.76-31.14-2.87-48.44 0m262.96 38.06s23.63 26.54 27.68 41.52-3.46 48.44-3.46 48.44-6.33 1.73-10.38-3.46-11.52-13.25-13.84-27.68 0-58.82 0-58.82m-446.34 34.6c-11.52 1.14-58.82 6.92-58.82 6.92l65.74 13.84 3.46-20.76s1.14-1.14-10.38 0M692 626.26c-10.38-.59-17.89 1.73-24.22 6.92s-13.84 24.22-13.84 24.22l86.5 20.76s1.14 12.7-3.46 17.3-24.22 10.38-24.22 10.38 7.5 9.8 13.84 6.92c6.33-2.87 20.76-14.98 24.22-24.22s0-22.49-3.46-31.14-8.06-15.57-17.3-20.76-27.68-9.8-38.06-10.38m-387.52 62.28c12.7-1.14 34.6 3.46 34.6 3.46l-76.12 41.52s-6.92-27.1 0-34.6 28.82-9.24 41.52-10.38m31.14 48.44c3.46-9.24 6.92 0 6.92 0l-3.46 110.72s-16.71-36.92-17.3-55.36 10.38-46.12 13.84-55.36"/><path fill="#0e3b30" d="M3.46 0 0 1079.52h1079.52l-3.46-294.1s-30.55-1.14-41.52-3.46-9.8-8.65-24.22-10.38c-14.43-1.73-36.92 2.32-62.28 0s-70.34-17.3-89.96-13.84-15.57 24.8-27.68 34.6-33.46 19.03-44.98 24.22-8.06 6.33-24.22 6.92-54.77-.59-72.66-3.46-21.9-5.19-34.6-13.84-31.73-25.36-41.52-38.06-13.84-23.63-17.3-38.06 28.82-32.87-3.46-48.44-153.38-42.66-190.3-44.98-24.8 20.76-31.14 31.14-10.38 14.98-6.92 31.14 25.95 44.98 27.68 65.74-9.24 43.25-17.3 58.82-24.8 28.82-31.14 34.6-4.6 3.46-6.92 0-6.92-20.76-6.92-20.76l-44.98 24.22s6.92-62.87 17.3-86.5 35.19-39.2 44.98-55.36c9.8-16.16 13.84-41.52 13.84-41.52s-9.24 1.14-17.3 13.84-20.76 47.3-31.14 62.28-20.76 21.35-31.14 27.68-20.17 8.65-31.14 10.38-20.17 3.46-34.6 0-43.25-16.16-51.9-20.76-11.52 4.6 0-6.92 51.31-49.58 69.2-62.28 19.03-10.38 38.06-13.84 57.68-.59 76.12-6.92 28.82-23.08 34.6-31.14 0-17.3 0-17.3-79.58-19.62-124.56-20.76-107.26 11.52-145.32 13.84-67.47 2.32-83.04 0-8.65-9.24-10.38-13.84-4.6-10.38 0-13.84-2.32-2.32 27.68-6.92 114.77-17.3 152.24-20.76 50.17 8.65 72.66 0 51.9-42.1 62.28-51.9 0-6.92 0-6.92-72.66 1.73-100.34-3.46-53.04-20.76-65.74-27.68-10.38-13.84-10.38-13.84 72.66 1.73 93.42 0 21.35-4.05 31.14-10.38c9.8-6.33 27.68-27.68 27.68-27.68s-39.79 23.08-65.74 27.68-73.8.59-89.96 0-6.33 8.65-6.92-3.46.59-50.76 3.46-69.2 6.33-28.82 13.84-41.52 4.05-18.44 31.14-34.6c27.1-16.16 103.21-50.17 131.48-62.28s38.06-10.38 38.06-10.38l3.46 83.04s19.03-12.7 48.44-13.84 85.36-1.73 128.02 6.92 92.83 28.82 128.02 44.98 58.23 31.73 83.04 51.9c24.8 20.17 46.71 43.84 65.74 69.2s36.92 57.68 48.44 83.04 17.3 47.85 20.76 69.2 1.14 46.71 0 58.82-6.92 10.38-6.92 13.84-13.84 4.05 6.92 6.92 94.56 9.8 117.64 10.38 20.76-6.92 20.76-6.92 4.6-4.05-3.46-6.92-32.28-4.05-44.98-10.38-24.22-19.62-31.14-27.68-8.65-6.33-10.38-20.76-2.87-54.22 0-65.74 8.06-4.6 17.3-3.46 38.06 10.38 38.06 10.38l17.3-65.74s32.28 28.27 41.52 41.52 12.11 22.49 13.84 38.06 2.32 35.19-3.46 55.36-31.14 65.74-31.14 65.74l48.44 3.46V0zM449.8 532.84s-6.92 4.05-10.38 13.84c-3.46 9.8-10.38 44.98-10.38 44.98s51.9 2.32 65.74 0 14.98-9.24 17.3-13.84 6.92-6.33-3.46-13.84-58.82-31.14-58.82-31.14m-69.2 6.92c-4.6 1.73-13.84 4.05-20.76 10.38s-20.76 27.68-20.76 27.68 10.97 5.19 17.3 3.46 15.57-9.24 20.76-13.84q7.78-6.92 10.38-13.84c1.73-4.6 0-13.84 0-13.84s-2.32-1.73-6.92 0m307.94 24.22c-23.08 2.32-59.4 15.57-79.58 24.22s-34.01 20.76-41.52 27.68c-7.5 6.92-3.46 13.84-3.46 13.84s40.93 14.43 51.9 13.84 6.33-11.52 13.84-17.3 17.3-13.84 31.14-17.3 35.19-7.5 51.9-3.46 38.06 18.44 48.44 27.68 11.52 19.03 13.84 27.68-8.06 18.44 0 24.22 48.44 10.38 48.44 10.38 5.78-28.82 0-44.98-21.9-39.2-34.6-51.9-24.8-18.44-41.52-24.22c-16.71-5.78-35.74-12.7-58.82-10.38m-3.46 76.12c-10.97 0-20.17 7.5-24.22 10.38-4.05 2.87-12.7 2.87 0 6.92s76.12 17.3 76.12 17.3 1.73-9.8 0-13.84c-1.73-4.05-1.73-6.92-10.38-10.38s-30.55-10.38-41.52-10.38m-38.06 58.82c-9.24-.59-5.78 0-3.46 6.92s6.33 24.22 17.3 34.6 31.73 23.63 48.44 27.68 36.92 1.14 51.9-3.46 38.06-24.22 38.06-24.22-34.6-15.57-48.44-17.3-25.95 9.24-34.6 6.92-5.78-15.57-17.3-20.76-42.66-9.8-51.9-10.38"/><path fill="#0e3a30" d="M3.46 0 0 1079.52h1079.52l-3.46-294.1s-177.05-28.82-217.98-27.68-15.57 24.8-27.68 34.6-33.46 19.03-44.98 24.22-7.5 6.33-24.22 6.92-58.23-.59-76.12-3.46-19.03-5.19-31.14-13.84-31.73-25.95-41.52-38.06-13.84-20.17-17.3-34.6 28.82-35.74-3.46-51.9-153.38-42.66-190.3-44.98-24.8 20.17-31.14 31.14-10.38 18.44-6.92 34.6 25.36 42.66 27.68 62.28-5.78 39.79-13.84 55.36-27.68 31.73-34.6 38.06-4.6 3.46-6.92 0-6.92-20.76-6.92-20.76l-44.98 24.22s3.46-55.95 13.84-79.58 38.06-44.98 48.44-62.28 13.84-41.52 13.84-41.52-9.24 1.14-17.3 13.84-20.76 47.3-31.14 62.28-21.35 21.35-31.14 27.68c-9.8 6.33-16.71 8.65-27.68 10.38s-23.08 3.46-38.06 0-43.25-16.16-51.9-20.76-11.52 4.6 0-6.92 51.31-49.58 69.2-62.28 19.03-10.38 38.06-13.84 57.68-.59 76.12-6.92 28.82-23.08 34.6-31.14 0-17.3 0-17.3-80.17-19.62-124.56-20.76-103.8 11.52-141.86 13.84-69.79 3.46-86.5 0-13.84-20.76-13.84-20.76-6.33-5.78 13.84-10.38 66.88-13.25 107.26-17.3 102.07 2.87 134.94-6.92c32.87-9.8 51.9-42.1 62.28-51.9s0-6.92 0-6.92-72.66 1.73-100.34-3.46-53.04-20.76-65.74-27.68-10.38-13.84-10.38-13.84 72.66 1.73 93.42 0 21.35-4.05 31.14-10.38c9.8-6.33 27.68-27.68 27.68-27.68s-39.79 23.08-65.74 27.68-73.8.59-89.96 0-6.33 8.65-6.92-3.46.59-50.76 3.46-69.2 6.33-28.82 13.84-41.52.59-16.71 31.14-34.6S317.73 247.39 346 235.28s17.3 0 17.3 0l3.46 83.04s19.03-12.7 48.44-13.84 85.36-1.73 128.02 6.92 92.83 28.82 128.02 44.98 58.23 31.73 83.04 51.9c24.8 20.17 46.71 43.84 65.74 69.2s36.92 57.68 48.44 83.04 17.3 47.85 20.76 69.2 1.14 46.71 0 58.82-6.92 10.38-6.92 13.84-13.84 4.05 6.92 6.92 94.56 9.8 117.64 10.38 20.76-6.92 20.76-6.92 4.6-4.05-3.46-6.92-32.28-4.05-44.98-10.38-24.22-19.62-31.14-27.68-8.65-6.33-10.38-20.76-2.87-54.22 0-65.74 8.65-4.6 17.3-3.46 34.6 10.38 34.6 10.38 10.38-51.31 13.84-62.28-1.14-9.8 6.92-3.46c8.06 6.33 32.28 28.82 41.52 41.52s12.11 19.03 13.84 34.6 2.32 38.06-3.46 58.82-31.14 65.74-31.14 65.74l48.44 3.46V0zM449.8 532.84l-20.76 58.82s51.9 2.32 65.74 0 14.98-9.24 17.3-13.84 6.92-6.33-3.46-13.84-58.82-31.14-58.82-31.14m-69.2 6.92c-4.6 1.73-13.84 4.05-20.76 10.38s-20.76 27.68-20.76 27.68 10.97 5.19 17.3 3.46 15.57-9.24 20.76-13.84q7.78-6.92 10.38-13.84c1.73-4.6 0-13.84 0-13.84s-2.32-1.73-6.92 0m307.94 24.22c-23.08 2.32-58.23 13.84-79.58 24.22s-48.44 38.06-48.44 38.06 43.84 17.3 55.36 17.3 6.33-11.52 13.84-17.3 16.71-13.84 31.14-17.3 38.65-7.5 55.36-3.46 35.19 18.44 44.98 27.68c9.8 9.24 11.52 19.03 13.84 27.68s-8.06 18.44 0 24.22 48.44 10.38 48.44 10.38 4.05-30.55 0-44.98a93.7 93.7 0 0 0-24.22-41.52c-12.7-12.7-33.46-27.1-51.9-34.6s-35.74-12.7-58.82-10.38m-3.46 76.12c-10.97 0-20.17 7.5-24.22 10.38-4.05 2.87-12.7 2.87 0 6.92s76.12 17.3 76.12 17.3 1.73-9.8 0-13.84c-1.73-4.05-1.73-6.92-10.38-10.38s-30.55-10.38-41.52-10.38m-38.06 58.82s-2.32 10.38 0 17.3 5.19 16.16 13.84 24.22 23.63 19.62 38.06 24.22 36.33 4.05 48.44 3.46 15.57-2.32 24.22-6.92 27.68-20.76 27.68-20.76-34.6-15.57-48.44-17.3-25.95 9.24-34.6 6.92-5.78-15.57-17.3-20.76-51.9-10.38-51.9-10.38"/><path fill="#0e382f" d="M3.46 0 0 1079.52h1079.52l-3.46-294.1s-177.05-28.82-217.98-27.68-14.43 24.22-27.68 34.6-27.68 23.08-51.9 27.68-66.88 6.92-93.42 0-50.76-27.1-65.74-41.52-19.62-28.82-24.22-44.98 28.82-35.74-3.46-51.9-152.83-44.4-190.3-44.98c-37.47-.59-28.27 29.41-34.6 41.52s-5.19 23.63-3.46 31.14c1.73 7.5 9.24 5.19 13.84 13.84s13.84 21.9 13.84 38.06-5.78 42.66-13.84 58.82-27.68 31.73-34.6 38.06-4.6 3.46-6.92 0-6.92-20.76-6.92-20.76l-44.98 24.22s1.73-36.92 6.92-55.36 24.22-55.36 24.22-55.36-13.84 17.3-24.22 24.22-23.08 14.98-38.06 17.3-36.92 0-51.9-3.46-31.73-13.25-38.06-17.3-11.52 4.6 0-6.92 51.31-49.58 69.2-62.28 19.03-10.38 38.06-13.84 57.68-.59 76.12-6.92 28.82-23.08 34.6-31.14 0-17.3 0-17.3-80.17-19.62-124.56-20.76-103.8 11.52-141.86 13.84-69.79 3.46-86.5 0-13.84-20.76-13.84-20.76-5.78-5.78 13.84-10.38 69.2-12.7 103.8-17.3 80.72-9.24 103.8-10.38 18.44 11.52 34.6 3.46 51.9-42.1 62.28-51.9 0-6.92 0-6.92-65.15 1.73-86.5 0-26.54-4.05-41.52-10.38-40.38-21.9-48.44-27.68 0-6.92 0-6.92 72.66 1.73 93.42 0 21.35-4.05 31.14-10.38c9.8-6.33 27.68-27.68 27.68-27.68s-39.79 23.08-65.74 27.68-73.8.59-89.96 0-6.33 8.65-6.92-3.46.59-50.76 3.46-69.2 7.5-29.41 13.84-41.52-6.33-13.25 24.22-31.14S316.59 247.98 346 235.28s17.3 0 17.3 0l3.46 83.04s9.24-8.06 17.3-10.38 4.6-4.05 31.14-3.46 85.36-1.73 128.02 6.92 92.83 28.82 128.02 44.98 59.96 34.01 83.04 51.9 36.33 30 55.36 55.36 45.57 69.2 58.82 96.88 17.3 47.3 20.76 69.2 1.14 50.17 0 62.28-6.92 7.5-6.92 10.38c0 2.87-10.97 5.19 6.92 6.92s80.72 1.73 100.34 3.46 10.97 6.92 17.3 6.92 20.76-6.92 20.76-6.92-35.19-9.8-48.44-17.3-24.22-19.62-31.14-27.68-8.65-6.33-10.38-20.76 0-65.74 0-65.74 15.57-4.6 24.22-3.46 27.68 10.38 27.68 10.38 10.38-51.31 13.84-62.28-1.14-9.8 6.92-3.46c8.06 6.33 32.28 28.82 41.52 41.52s11.52 20.76 13.84 34.6 5.78 27.68 0 48.44-34.6 76.12-34.6 76.12l48.44 3.46V0zM449.8 532.84l-20.76 58.82s52.49 1.73 65.74 0 11.52-5.78 13.84-10.38 9.8-9.24 0-17.3-58.82-31.14-58.82-31.14m-69.2 6.92c-4.6 1.73-13.84 4.05-20.76 10.38s-20.76 27.68-20.76 27.68l17.3 3.46s-3.46-4.6 0-6.92 15.57-2.87 20.76-6.92 8.65-12.7 10.38-17.3 0-10.38 0-10.38-2.32-1.73-6.92 0M692 563.98c-21.35 2.87-61.14 13.84-83.04 24.22s-48.44 38.06-48.44 38.06 43.84 17.3 55.36 17.3 6.33-11.52 13.84-17.3 16.71-13.84 31.14-17.3 38.65-7.5 55.36-3.46 35.19 18.44 44.98 27.68c9.8 9.24 11.52 19.03 13.84 27.68s-8.06 18.44 0 24.22 48.44 10.38 48.44 10.38 2.32-32.87 0-44.98-5.78-17.3-13.84-27.68-22.49-25.95-34.6-34.6-24.22-13.25-38.06-17.3-23.63-9.8-44.98-6.92m-6.92 76.12c-10.97 0-20.17 7.5-24.22 10.38-4.05 2.87-12.7 2.87 0 6.92s76.12 17.3 76.12 17.3 1.73-9.8 0-13.84c-1.73-4.05-1.73-6.92-10.38-10.38s-30.55-10.38-41.52-10.38m-325.24 38.06s-9.8 1.73-17.3 13.84-27.68 58.82-27.68 58.82 23.63-19.03 31.14-31.14c7.5-12.11 13.84-41.52 13.84-41.52m287.18 20.76s-2.32 10.38 0 17.3 5.19 16.16 13.84 24.22 23.63 19.62 38.06 24.22 36.33 4.05 48.44 3.46 15.57-2.32 24.22-6.92 27.68-20.76 27.68-20.76-34.6-15.57-48.44-17.3-25.95 9.24-34.6 6.92-5.78-15.57-17.3-20.76-51.9-10.38-51.9-10.38"/><path fill="#0d372e" d="M3.46 0 0 1079.52h1079.52l-3.46-294.1s-177.05-28.82-217.98-27.68-14.43 24.22-27.68 34.6-27.68 23.08-51.9 27.68-68.61 5.19-93.42 0c-24.8-5.19-42.66-21.9-55.36-31.14s-14.98-14.98-20.76-24.22-10.97-17.3-13.84-31.14 28.82-35.74-3.46-51.9-152.83-44.4-190.3-44.98c-37.47-.59-28.82 28.27-34.6 41.52s-1.73 30.55 0 38.06c1.73 7.5 6.33-.59 10.38 6.92s13.84 21.9 13.84 38.06-5.78 42.66-13.84 58.82-34.6 38.06-34.6 38.06-7.5-17.89-17.3-17.3-41.52 20.76-41.52 20.76 1.73-36.92 6.92-55.36 24.22-55.36 24.22-55.36-13.84 17.3-24.22 24.22-23.08 14.98-38.06 17.3-36.92 0-51.9-3.46-31.73-13.25-38.06-17.3-5.78.59 0-6.92 23.08-27.68 34.6-38.06a163 163 0 0 1 34.6-24.22c12.11-6.33 19.03-10.38 38.06-13.84s57.68 0 76.12-6.92 28.82-26.54 34.6-34.6 0-13.84 0-13.84-80.72-19.62-124.56-20.76-100.34 11.52-138.4 13.84-72.66 3.46-89.96 0-13.84-20.76-13.84-20.76-5.78-5.78 13.84-10.38 64.01-13.25 103.8-17.3 101.48 2.87 134.94-6.92c33.46-9.8 54.77-42.1 65.74-51.9s0-6.92 0-6.92-27.1 5.19-48.44 3.46c-21.35-1.73-58.23-6.92-79.58-13.84s-40.38-21.9-48.44-27.68 0-6.92 0-6.92 72.07 2.32 93.42 0 24.8-7.5 34.6-13.84 24.22-24.22 24.22-24.22-19.03 19.62-44.98 24.22-91.1 3.46-110.72 3.46-6.33 9.24-6.92-3.46 0-53.04 3.46-72.66 10.97-33.46 17.3-44.98-9.24-7.5 20.76-24.22S316.59 247.98 346 235.28s17.3 0 17.3 0l3.46 83.04s24.8-11.52 44.98-13.84 47.3-2.87 76.12 0 61.7 6.33 96.88 17.3c35.19 10.97 81.31 30 114.18 48.44s61.14 42.1 83.04 62.28 34.01 37.47 48.44 58.82 28.27 46.12 38.06 69.2 17.89 44.98 20.76 69.2-4.05 62.87-3.46 76.12-10.38 2.32 6.92 3.46 77.85 1.73 96.88 3.46 10.97 6.92 17.3 6.92 20.76-6.92 20.76-6.92-54.22-20.17-69.2-31.14-17.3-17.89-20.76-34.6 0-65.74 0-65.74 19.03-4.6 27.68-3.46 24.22 10.38 24.22 10.38 10.38-54.77 13.84-65.74-1.14-6.92 6.92 0 32.28 28.82 41.52 41.52 11.52 20.76 13.84 34.6 5.78 27.68 0 48.44-34.6 76.12-34.6 76.12l48.44 3.46V0zm449.8 532.84c-11.52-4.6-6.33-2.87-10.38 6.92-4.05 9.8-13.84 51.9-13.84 51.9s30.55 4.05 38.06 3.46c7.5-.59 1.14-5.78 6.92-6.92s21.35 3.46 27.68 0 10.38-20.76 10.38-20.76-47.3-30-58.82-34.6m-72.66 6.92c-5.19 2.32-17.3 7.5-24.22 13.84s-17.3 24.22-17.3 24.22l17.3 3.46s-3.46-4.6 0-6.92 15.57-2.87 20.76-6.92 8.65-12.7 10.38-17.3 0-10.38 0-10.38-1.73-2.32-6.92 0M692 563.98c-23.08 2.32-61.14 13.84-83.04 24.22s-48.44 38.06-48.44 38.06 40.38 19.62 55.36 17.3 17.89-24.8 34.6-31.14 47.3-10.38 65.74-6.92 35.19 18.44 44.98 27.68c9.8 9.24 11.52 19.03 13.84 27.68s-8.06 18.44 0 24.22 48.44 10.38 48.44 10.38 2.32-32.87 0-44.98-5.78-17.3-13.84-27.68-24.22-26.54-34.6-34.6-13.84-9.8-27.68-13.84c-13.84-4.05-32.28-12.7-55.36-10.38m-6.92 76.12c-10.97 0-20.17 7.5-24.22 10.38-4.05 2.87-12.7 2.87 0 6.92s76.12 17.3 76.12 17.3 1.73-9.8 0-13.84c-1.73-4.05-1.73-6.92-10.38-10.38s-30.55-10.38-41.52-10.38m-325.24 38.06s-9.8 1.73-17.3 13.84-27.68 58.82-27.68 58.82 23.63-19.03 31.14-31.14c7.5-12.11 13.84-41.52 13.84-41.52m287.18 20.76s-2.32 10.38 0 17.3 6.92 16.71 13.84 24.22 19.03 16.16 27.68 20.76 10.38 6.92 24.22 6.92 44.4-2.32 58.82-6.92 27.68-20.76 27.68-20.76-34.6-15.57-48.44-17.3-25.95 9.24-34.6 6.92-5.78-15.57-17.3-20.76-51.9-10.38-51.9-10.38"/><path fill="#0d352d" d="M3.46 0 0 1079.52h1079.52l-3.46-294.1s-176.46-29.41-217.98-27.68-17.89 27.68-31.14 38.06-27.1 19.62-48.44 24.22c-21.35 4.6-58.82 5.78-79.58 3.46s-31.73-9.8-44.98-17.3-24.8-15.57-34.6-27.68-19.62-28.82-24.22-44.98 28.82-35.74-3.46-51.9-152.83-44.4-190.3-44.98c-37.47-.59-28.82 28.82-34.6 41.52s-4.05 21.35 0 34.6 20.17 33.46 24.22 44.98 2.32 13.84 0 24.22-5.78 25.36-13.84 38.06-34.6 38.06-34.6 38.06-7.5-17.89-17.3-17.3-41.52 20.76-41.52 20.76 1.73-36.92 6.92-55.36 24.22-55.36 24.22-55.36-13.84 17.3-24.22 24.22-23.08 14.98-38.06 17.3-37.47-.59-51.9-3.46-28.27-9.8-34.6-13.84c-6.33-4.05-8.65-2.32-3.46-10.38s23.08-27.68 34.6-38.06 23.08-17.89 34.6-24.22 15.57-10.38 34.6-13.84 60.55 0 79.58-6.92 28.82-26.54 34.6-34.6 0-13.84 0-13.84-84.77-19.62-128.02-20.76-94 11.52-131.48 13.84-75.53 3.46-93.42 0-11.52-16.16-13.84-20.76-2.32-5.19 0-6.92-5.78 0 13.84-3.46 69.79-12.7 103.8-17.3 77.85-9.24 100.34-10.38 17.89 11.52 34.6 3.46 54.77-42.1 65.74-51.9 0-6.92 0-6.92-34.01 5.19-55.36 3.46-52.49-6.92-72.66-13.84-40.38-21.9-48.44-27.68 0-6.92 0-6.92 72.07 2.32 93.42 0 24.8-7.5 34.6-13.84 24.22-24.22 24.22-24.22-19.03 19.62-44.98 24.22-91.1 3.46-110.72 3.46-6.33 9.24-6.92-3.46 0-53.04 3.46-72.66 10.97-33.46 17.3-44.98-9.24-7.5 20.76-24.22S316.59 247.98 346 235.28s17.3 0 17.3 0l3.46 83.04s24.8-11.52 44.98-13.84 46.71-2.87 76.12 0 65.15 6.33 100.34 17.3 78.44 30 110.72 48.44 61.14 42.1 83.04 62.28 34.01 37.47 48.44 58.82 28.27 46.12 38.06 69.2 17.89 44.98 20.76 69.2-4.05 62.87-3.46 76.12-10.38 2.32 6.92 3.46 77.85 1.73 96.88 3.46 10.97 6.92 17.3 6.92 20.76-6.92 20.76-6.92-54.22-20.17-69.2-31.14-17.3-17.89-20.76-34.6 0-65.74 0-65.74 22.49-4.6 31.14-3.46 20.76 10.38 20.76 10.38 10.38-54.77 13.84-65.74-1.14-6.92 6.92 0 32.28 28.82 41.52 41.52 11.52 20.76 13.84 34.6 5.78 27.68 0 48.44-34.6 76.12-34.6 76.12l48.44 3.46V0zm449.8 532.84c-11.52-4.6-6.33-2.87-10.38 6.92-4.05 9.8-13.84 51.9-13.84 51.9s31.14 4.05 38.06 3.46-2.32-5.78 3.46-6.92 24.22 3.46 31.14 0 10.38-20.76 10.38-20.76-47.3-30-58.82-34.6m-72.66 6.92c-8.06 6.33-41.52 38.06-41.52 38.06l17.3 3.46s-3.46-4.6 0-6.92 15.57-2.87 20.76-6.92 8.65-12.7 10.38-17.3 0-10.38 0-10.38 1.14-6.33-6.92 0M692 563.98c-23.08 2.32-61.14 13.84-83.04 24.22s-48.44 38.06-48.44 38.06 40.38 19.62 55.36 17.3 17.89-24.8 34.6-31.14 49.58-8.06 65.74-6.92 21.9 6.92 31.14 13.84 19.62 16.71 24.22 27.68-5.19 30 3.46 38.06 48.44 10.38 48.44 10.38 2.87-28.82 0-41.52-9.24-23.63-17.3-34.6-21.35-23.63-31.14-31.14c-9.8-7.5-13.84-9.8-27.68-13.84-13.84-4.05-32.28-12.7-55.36-10.38m-6.92 76.12c-10.97 0-20.17 7.5-24.22 10.38-4.05 2.87-12.7 2.87 0 6.92s76.12 17.3 76.12 17.3 1.73-9.8 0-13.84c-1.73-4.05-1.73-6.92-10.38-10.38s-30.55-10.38-41.52-10.38m-325.24 38.06s-9.8 1.73-17.3 13.84-27.68 58.82-27.68 58.82 23.63-19.03 31.14-31.14c7.5-12.11 13.84-41.52 13.84-41.52m287.18 20.76s-2.32 10.38 0 17.3 2.87 15.57 13.84 24.22 33.46 24.22 51.9 27.68 44.4-2.32 58.82-6.92 27.68-20.76 27.68-20.76-34.6-15.57-48.44-17.3-27.1 8.65-34.6 6.92 1.14-12.11-10.38-17.3-58.82-13.84-58.82-13.84"/><path fill="#0c342d" d="M3.46 0 0 1079.52h1079.52l-3.46-294.1s-176.46-29.41-217.98-27.68-17.89 27.68-31.14 38.06-27.1 19.62-48.44 24.22c-21.35 4.6-58.82 5.78-79.58 3.46s-31.14-9.24-44.98-17.3-28.27-19.03-38.06-31.14a109 109 0 0 1-20.76-41.52c-4.05-15.57 28.27-35.74-3.46-51.9s-149.37-44.4-186.84-44.98c-37.47-.59-31.73 28.82-38.06 41.52s-4.05 21.35 0 34.6 20.17 33.46 24.22 44.98 2.32 13.84 0 24.22-5.78 25.36-13.84 38.06-34.6 38.06-34.6 38.06-7.5-17.89-17.3-17.3-41.52 20.76-41.52 20.76 2.32-37.47 6.92-55.36 20.76-51.9 20.76-51.9-21.35 21.35-31.14 27.68c-9.8 6.33-16.16 8.65-27.68 10.38s-27.1 2.87-41.52 0-36.92-12.7-44.98-17.3-8.65-2.32-3.46-10.38 21.9-27.1 34.6-38.06 30-21.35 41.52-27.68 10.97-8.06 27.68-10.38 55.36 1.14 72.66-3.46 24.22-15.57 31.14-24.22 10.38-27.68 10.38-27.68-73.25-20.17-128.02-20.76S89.96 627.4 51.9 629.72s-21.35.59-27.68-3.46-8.65-16.16-10.38-20.76-2.32-5.19 0-6.92-5.19 0 13.84-3.46 66.33-12.7 100.34-17.3 80.72-9.24 103.8-10.38 17.89 11.52 34.6 3.46 54.77-42.1 65.74-51.9 0-6.92 0-6.92-65.15 1.73-86.5 0-27.1-4.6-41.52-10.38-36.92-18.44-44.98-24.22-3.46-10.38-3.46-10.38 72.07 2.32 93.42 0 24.8-7.5 34.6-13.84 24.22-24.22 24.22-24.22-19.03 19.62-44.98 24.22-91.1 3.46-110.72 3.46-6.33 9.24-6.92-3.46 0-53.04 3.46-72.66 10.97-33.46 17.3-44.98-9.24-7.5 20.76-24.22S316.59 247.98 346 235.28s17.3 0 17.3 0l3.46 83.04s24.8-11.52 44.98-13.84 46.71-2.87 76.12 0 65.15 6.33 100.34 17.3 80.17 31.73 110.72 48.44 51.9 33.46 72.66 51.9 35.19 34.6 51.9 58.82 37.47 61.7 48.44 86.5 14.98 39.2 17.3 62.28-4.05 62.87-3.46 76.12-13.84 1.14 6.92 3.46 95.15 9.8 117.64 10.38 17.3-6.92 17.3-6.92-55.36-23.08-69.2-31.14-9.8-8.06-13.84-17.3c-4.05-9.24-9.24-23.63-10.38-38.06s3.46-48.44 3.46-48.44 25.95-1.73 34.6 0 17.3 10.38 17.3 10.38 10.38-54.22 13.84-65.74-1.14-10.38 6.92-3.46 32.28 32.28 41.52 44.98 11.52 17.3 13.84 31.14 5.78 30.55 0 51.9-34.6 76.12-34.6 76.12l48.44 3.46V0zm449.8 532.84c-11.52-4.6-8.06.59-10.38 6.92s-1.14 23.08-3.46 31.14-10.38 17.3-10.38 17.3 12.11 6.92 24.22 6.92 38.65-2.32 48.44-6.92c9.8-4.6 10.38-20.76 10.38-20.76s-47.3-30-58.82-34.6m-69.2 6.92s-9.8.59-17.3 6.92-27.68 31.14-27.68 31.14 30-5.78 38.06-10.38 9.24-12.7 10.38-17.3-3.46-10.38-3.46-10.38M692 563.98c-17.89 0-34.6 4.05-51.9 10.38s-38.65 19.03-51.9 27.68-27.68 24.22-27.68 24.22 40.38 19.62 55.36 17.3 17.89-24.8 34.6-31.14 49.58-8.06 65.74-6.92 21.9 6.92 31.14 13.84 19.62 16.71 24.22 27.68-5.19 30 3.46 38.06 48.44 10.38 48.44 10.38 3.46-28.27 0-41.52-12.7-27.1-20.76-38.06-18.44-20.76-27.68-27.68-13.84-9.8-27.68-13.84c-13.84-4.05-37.47-10.38-55.36-10.38m-3.46 76.12c-10.97 0-23.08 7.5-27.68 10.38-4.6 2.87-12.7 2.87 0 6.92s76.12 17.3 76.12 17.3 1.73-9.8 0-13.84c-1.73-4.05-2.32-6.92-10.38-10.38s-27.1-10.38-38.06-10.38m-328.7 38.06s-9.24 1.14-17.3 13.84-31.14 62.28-31.14 62.28 26.54-21.9 34.6-34.6 13.84-41.52 13.84-41.52m287.18 20.76s-1.14 19.03 3.46 27.68 13.84 17.3 24.22 24.22 21.9 15.57 38.06 17.3 44.4-2.32 58.82-6.92 27.68-20.76 27.68-20.76-34.6-15.57-48.44-17.3-27.1 8.65-34.6 6.92 1.14-12.11-10.38-17.3-58.82-13.84-58.82-13.84"/><path fill="#0c332c" d="M3.46 0 0 1079.52h1079.52l-3.46-294.1s-176.46-29.41-217.98-27.68-20.76 28.82-31.14 38.06-21.35 12.7-31.14 17.3c-9.8 4.6-10.97 8.65-27.68 10.38s-50.17 5.19-72.66 0-47.3-20.76-62.28-31.14-20.76-19.03-27.68-31.14-12.11-28.82-13.84-41.52 3.46-34.6 3.46-34.6-156.29-42.1-193.76-44.98-25.36 20.76-31.14 27.68-2.87 6.33-3.46 13.84-4.05 18.44 0 31.14 20.17 32.87 24.22 44.98 2.32 17.3 0 27.68-5.78 22.49-13.84 34.6-27.1 32.28-34.6 38.06-8.06-.59-10.38-3.46-3.46-13.84-3.46-13.84l-44.98 20.76s5.78-51.31 10.38-69.2 17.3-38.06 17.3-38.06-21.35 21.35-31.14 27.68c-9.8 6.33-16.16 8.65-27.68 10.38s-27.1 2.87-41.52 0-36.92-12.7-44.98-17.3-8.65-2.32-3.46-10.38 21.9-27.1 34.6-38.06 30-21.35 41.52-27.68 10.97-8.06 27.68-10.38 55.36 1.14 72.66-3.46 24.22-15.57 31.14-24.22 10.38-27.68 10.38-27.68-72.66-20.17-128.02-20.76S86.5 627.4 48.44 629.72s-18.44.59-24.22-3.46-8.65-16.16-10.38-20.76-4.6-4.6 0-6.92 8.65-3.46 27.68-6.92 55.36-9.8 86.5-13.84c31.14-4.05 77.26-9.24 100.34-10.38s21.35 10.97 38.06 3.46c16.71-7.5 51.31-38.65 62.28-48.44 10.97-9.8 3.46-10.38 3.46-10.38s-48.44 4.05-65.74 3.46-20.17-.59-38.06-6.92-57.09-24.22-69.2-31.14-3.46-10.38-3.46-10.38 72.07 2.32 93.42 0 24.8-7.5 34.6-13.84 24.22-24.22 24.22-24.22-18.44 19.62-44.98 24.22-114.18 3.46-114.18 3.46-2.87-55.95 0-76.12 10.38-32.87 17.3-44.98-5.78-10.97 24.22-27.68 126.29-60.55 155.7-72.66 20.76 0 20.76 0v83.04s14.98-12.7 44.98-13.84 96.3.59 134.94 6.92 67.47 19.03 96.88 31.14 66.33 33.46 79.58 41.52-7.5 1.14 0 6.92 26.54 10.38 44.98 27.68 48.44 51.31 65.74 76.12c17.3 24.8 28.82 50.76 38.06 72.66s14.98 35.74 17.3 58.82-4.05 65.74-3.46 79.58-10.97 2.32 6.92 3.46 80.72 1.73 100.34 3.46 11.52 6.92 17.3 6.92 17.3-6.92 17.3-6.92-51.9-19.62-65.74-27.68-12.7-11.52-17.3-20.76-9.24-20.17-10.38-34.6 3.46-51.9 3.46-51.9 25.95-1.73 34.6 0 17.3 10.38 17.3 10.38 10.38-54.22 13.84-65.74-1.73-10.97 6.92-3.46c8.65 7.5 35.74 35.74 44.98 48.44s9.24 12.11 10.38 27.68 2.32 44.4-3.46 65.74c-5.78 21.35-31.14 62.28-31.14 62.28l48.44 3.46V0zm449.8 532.84c-11.52-4.6-6.92-2.87-10.38 6.92-3.46 9.8-10.38 51.9-10.38 51.9s28.27 4.05 34.6 3.46-2.32-5.78 3.46-6.92 24.22 3.46 31.14 0 10.38-20.76 10.38-20.76-47.3-30-58.82-34.6m-69.2 6.92s-9.8.59-17.3 6.92-27.68 31.14-27.68 31.14 30-5.78 38.06-10.38 9.24-12.7 10.38-17.3-3.46-10.38-3.46-10.38m311.4 24.22c-20.17 0-39.79 3.46-62.28 13.84s-72.66 48.44-72.66 48.44 43.25 17.89 55.36 17.3 8.65-14.43 17.3-20.76 20.76-14.43 34.6-17.3 35.74-1.73 48.44 0 19.03 4.6 27.68 10.38 19.03 12.7 24.22 24.22-2.32 35.74 6.92 44.98 48.44 10.38 48.44 10.38 3.46-28.27 0-41.52-9.24-25.36-20.76-38.06-30.55-29.41-48.44-38.06-38.65-13.84-58.82-13.84m-6.92 76.12c-9.8-.59-16.16 4.05-20.76 6.92s-6.92 10.38-6.92 10.38l76.12 17.3s1.73-9.8 0-13.84c-1.73-4.05-2.32-6.92-10.38-10.38s-28.27-9.8-38.06-10.38m-328.7 38.06s-9.24 1.14-17.3 13.84-31.14 62.28-31.14 62.28 23.08-18.44 31.14-31.14 17.3-44.98 17.3-44.98m287.18 20.76s.59 21.35 6.92 31.14c6.33 9.8 21.35 21.35 31.14 27.68 9.8 6.33 17.3 8.65 27.68 10.38s20.17 4.6 34.6 0 51.9-27.68 51.9-27.68-34.6-15.57-48.44-17.3-27.1 8.65-34.6 6.92 1.14-12.11-10.38-17.3-58.82-13.84-58.82-13.84"/><path fill="#0c322c" d="M3.46 0 0 1079.52h1079.52l-3.46-294.1s-173-31.73-217.98-27.68-36.92 40.93-51.9 51.9-19.62 11.52-38.06 13.84-54.22 2.32-72.66 0-24.22-5.19-38.06-13.84-34.6-25.95-44.98-38.06-14.43-20.17-17.3-34.6 32.28-35.74 0-51.9-156.29-42.1-193.76-44.98-25.36 20.76-31.14 27.68-2.87 6.33-3.46 13.84-4.05 19.03 0 31.14 21.9 24.22 24.22 41.52-2.32 44.98-10.38 62.28-30 35.19-38.06 41.52-8.06-.59-10.38-3.46-3.46-13.84-3.46-13.84l-44.98 20.76s5.78-54.77 10.38-72.66 17.3-34.6 17.3-34.6-4.6 10.97-13.84 17.3-27.1 17.3-41.52 20.76-28.82 4.05-44.98 0-51.9-24.22-51.9-24.22 27.1-32.87 41.52-44.98 21.9-21.35 44.98-27.68 73.25-5.19 93.42-10.38 20.76-14.43 27.68-20.76q10.37-9.5 13.84-17.3c2.32-5.19 0-13.84 0-13.84s-76.12-20.17-131.48-20.76-163.2 14.98-200.68 17.3c-37.47 2.32-18.44.59-24.22-3.46s-8.65-16.16-10.38-20.76-4.6-4.6 0-6.92 8.65-3.46 27.68-6.92 55.36-9.8 86.5-13.84c31.14-4.05 77.26-9.24 100.34-10.38s21.9 10.38 38.06 3.46 47.85-35.19 58.82-44.98c10.97-9.8 6.92-13.84 6.92-13.84s-68.06 1.73-89.96 0-27.68-4.6-41.52-10.38-34.01-18.44-41.52-24.22c-7.5-5.78-3.46-10.38-3.46-10.38s72.07 2.32 93.42 0 24.8-7.5 34.6-13.84 24.22-24.22 24.22-24.22-35.74 23.08-62.28 27.68-96.88 0-96.88 0-2.87-55.95 0-76.12 10.38-32.87 17.3-44.98-5.78-10.97 24.22-27.68 126.29-60.55 155.7-72.66 20.76 0 20.76 0v83.04s24.8-11.52 44.98-13.84 48.44-2.32 76.12 0 58.82 5.19 89.96 13.84 65.15 21.35 96.88 38.06 66.88 39.2 93.42 62.28 48.44 51.31 65.74 76.12c17.3 24.8 28.82 50.76 38.06 72.66s14.98 35.74 17.3 58.82-4.05 65.74-3.46 79.58-10.97 2.32 6.92 3.46 80.72 1.73 100.34 3.46 11.52 6.92 17.3 6.92 17.3-6.92 17.3-6.92-52.49-20.76-65.74-27.68-9.24-4.6-13.84-13.84-12.11-25.95-13.84-41.52 3.46-51.9 3.46-51.9 25.95-1.73 34.6 0 17.3 10.38 17.3 10.38 10.38-57.68 13.84-69.2-.59-6.33 6.92 0 28.82 25.36 38.06 38.06 14.43 22.49 17.3 38.06 5.78 34.01 0 55.36-34.6 72.66-34.6 72.66l48.44 3.46V0zm449.8 532.84c-11.52-4.6-6.92-2.32-10.38 6.92S432.5 588.2 432.5 588.2s9.24 6.92 20.76 6.92 38.65-2.32 48.44-6.92c9.8-4.6 10.38-20.76 10.38-20.76s-47.3-30-58.82-34.6m-69.2 6.92s-13.84 4.05-20.76 10.38-20.76 27.68-20.76 27.68 27.1-5.78 34.6-10.38 9.24-12.7 10.38-17.3-3.46-10.38-3.46-10.38m311.4 24.22c-18.44.59-39.79 3.46-62.28 13.84s-72.66 48.44-72.66 48.44 44.4 17.3 55.36 17.3 1.73-10.97 10.38-17.3 26.54-17.3 41.52-20.76 35.74-1.73 48.44 0 19.03 4.6 27.68 10.38 19.03 12.7 24.22 24.22-2.32 35.74 6.92 44.98 48.44 10.38 48.44 10.38 4.05-27.68 0-41.52-10.97-28.27-24.22-41.52-38.06-30-55.36-38.06-30-10.97-48.44-10.38m-6.92 76.12c-10.38 1.14-27.68 17.3-27.68 17.3l76.12 17.3s2.32-9.8 0-13.84c-2.32-4.05-5.78-6.92-13.84-10.38s-24.22-11.52-34.6-10.38m-328.7 38.06s-9.24 1.14-17.3 13.84-31.14 62.28-31.14 62.28 23.08-18.44 31.14-31.14 17.3-44.98 17.3-44.98m287.18 20.76s4.05 24.8 10.38 34.6 18.44 18.44 27.68 24.22 17.3 8.65 27.68 10.38 20.17 4.6 34.6 0 51.9-27.68 51.9-27.68-27.1-12.11-41.52-13.84-36.33 5.78-44.98 3.46 4.05-12.11-6.92-17.3-58.82-13.84-58.82-13.84"/></g></svg>