<svg xmlns="http://www.w3.org/2000/svg" width="1080" height="1080" viewBox="0 0 1080 1080"><defs><clipPath id="fcovclip-1" clipPathUnits="userSpaceOnUse"><rect width="760" height="760" x="620" y="-300" fill="#fff" rx="380" ry="380"/></clipPath></defs><path fill="#0c322c" d="M0 0h1080v1080H0z"/><rect width="760" height="760" x="620" y="-300" fill="#30ba78" rx="380" ry="380"/><svg xmlns="http://www.w3.org/2000/svg" xmlns:c2pa="http://c2pa.org/manifest" width="480" height="480" x="560" y="120" viewBox="0 0 1080 1080"><defs><clipPath id="clippath"><path d="M933.07 380.84c-40.03-143.28-171.52-248.39-327.58-248.39-125.97 0-235.94 68.49-294.72 170.27a202 202 0 0 0-64.03-10.33c-111.93 0-202.68 90.74-202.68 202.68v429.47h990.93V495.07c0-59.08-44.57-107.75-101.93-114.22Z" class="cls-2"/></clipPath><clipPath id="clippath-1"><path d="M607.59 472.55 495 1035H270z" class="cls-16"/></clipPath><clipPath id="clippath-2"><path d="M607.59 472.55 675 45h225z" class="cls-16"/></clipPath><clipPath id="clippath-3"><rect width="143.7" height="229.92" x="558.28" y="390.63" class="cls-11" rx="6.9" ry="6.9" transform="rotate(90 630.13 505.58)"/></clipPath><clipPath id="clippath-5"><rect width="114.9" height="19.16" x="572.71" y="491.24" class="cls-15" rx="8.69" ry="8.69"/></clipPath><clipPath id="clippath-6"><path d="M619.91 891.24a98.6 98.6 0 0 0-68.05 27.13 149 149 0 0 0-31.35-39.13c-6.21-103.76-92.29-186-197.61-186s-198 88.65-198 198c-54.68 0-99 44.32-99 99h693c0-54.68-44.32-99-99-99Z" class="cls-15"/></clipPath><clipPath id="clippath-7"><path d="M494.69 256.32a23 23 0 0 0 1.35-7.73c0-12.51-10.14-22.35-22.65-22.35s-22.65 9.83-22.65 22.35c0 2.71.48 5.32 1.35 7.73a33.75 33.75 0 1 0 42.6 0Z" class="cls-22"/></clipPath><style>.cls-2{fill:#c8dafc}.cls-10,.cls-11,.cls-12,.cls-15,.cls-16,.cls-17,.cls-18,.cls-2,.cls-20,.cls-22,.cls-23,.cls-4,.cls-5,.cls-8{stroke:#0c322c;stroke-width:4px}.cls-10,.cls-11,.cls-12,.cls-15,.cls-16,.cls-17,.cls-18,.cls-2,.cls-20,.cls-23,.cls-4,.cls-5,.cls-8{stroke-miterlimit:10}.cls-11{fill:#efefef}.cls-10,.cls-22,.cls-26{fill:#90ebcd}.cls-4{fill:#ffefe9}.cls-5{fill:#bff1ea}.cls-15,.cls-27{fill:#fff}.cls-22{stroke-linejoin:round}.cls-8{fill:#fe7c3f}.cls-34{fill:#0c322c;stroke-width:0}.cls-12{fill:#30ba78}.cls-16,.cls-35{fill:#ffb184}.cls-17{fill:#81aefc}.cls-18{fill:none}.cls-20{fill:#2453ff}.cls-23{fill:#ffd3bd}</style></defs><g id="BG"><circle cx="601.04" cy="469.08" r="384.22" class="cls-4"/><path d="M933.07 380.84c-40.03-143.28-171.52-248.39-327.58-248.39-125.97 0-235.94 68.49-294.72 170.27a202 202 0 0 0-64.03-10.33c-111.93 0-202.68 90.74-202.68 202.68v429.47h990.93V495.07c0-59.08-44.57-107.75-101.93-114.22Z" style="fill:#c8dafc"/><g style="clip-path:url(#clippath)"><path d="M44 495.31h991v429H44z" class="cls-17"/><circle cx="599.45" cy="469.08" r="384.22" style="stroke:#0c322c;stroke-width:4px;stroke-miterlimit:10;fill:#e6edfe"/></g><path d="M933.07 380.84c-40.03-143.28-171.52-248.39-327.58-248.39-125.97 0-235.94 68.49-294.72 170.27a202 202 0 0 0-64.03-10.33c-111.93 0-202.68 90.74-202.68 202.68v429.47h990.93V495.07c0-59.08-44.57-107.75-101.93-114.22Z" class="cls-18"/><path d="M875.75 494.24q.89-10.89.89-22c0-148.56-120.44-269-269-269s-269 120.44-269 269q0 12.13 1.06 24" class="cls-18"/><circle cx="607.59" cy="472.55" r="247.45" class="cls-8"/><path d="M765.24 405a45.12 45.12 0 0 0-66.42-39.78 55.33 55.33 0 0 0-76.18-17.43 117.8 117.8 0 0 0-99.73-55 117.9 117.9 0 0 0-106.42 67.1h-.03c-24.92 0-38.68 14.09-46.98 45.12-5.56 21.51-9.36 45.44-9.36 67.55 0 136.66 110.79 247.45 247.45 247.45 59.92 0 114.87-21.3 157.68-56.74z" class="cls-23"/><path d="M607.59 472.55 270 1035H45z" class="cls-23"/><path d="M607.59 472.55 495 1035H270z" class="cls-35"/><circle cx="601.42" cy="468.47" r="384.22" class="cls-8" style="clip-path:url(#clippath-1)"/><path d="M607.59 472.55 495 1035H270z" class="cls-18"/><path d="M416.45 629.75C461.83 684.86 530.59 720 607.56 720c59.92 0 114.87-21.3 157.68-56.74v-33.51z" style="stroke:#0c322c;stroke-width:4px;stroke-miterlimit:10;fill:#bd3314"/><path d="M607.59 472.55 675 45h225z" class="cls-35"/><circle cx="600.38" cy="469.08" r="384.22" class="cls-8" style="clip-path:url(#clippath-2)"/><path d="M607.59 472.55 675 45h225z" class="cls-18"/><path d="M607.59 472.55 900 45h135v135z" class="cls-23"/><path d="M720.12 359.88a45 45 0 0 0-21.3 5.34 55.33 55.33 0 0 0-76.18-17.43 117.8 117.8 0 0 0-99.73-55c-9.53 0-18.79 1.15-27.66 3.28v333.68h270V405a45.1 45.1 0 0 0-45.12-45.12Z" style="stroke:#0c322c;stroke-width:4px;stroke-miterlimit:10;fill:#ff5a2b"/><path d="M796.64 823.9a59.06 59.06 0 0 0-59.06-59.06 29.53 29.53 0 0 0-38.46-28.15 117.7 117.7 0 0 0-79.66-30.91c-15.97 0-31.19 3.19-45.09 8.93a88.59 88.59 0 0 0-161.24 58.27 59.06 59.06 0 0 0-88.98 50.92h121.5v85.34h260V823.9z" class="cls-8"/><path d="M267.64 495.24h95" class="cls-17"/><path d="M853.64 494.24h30" class="cls-18"/></g><g id="Graphic"><path d="M367.5 901.18a59.06 59.06 0 0 1 59.06-59.06 29.53 29.53 0 0 1 38.46-28.15 117.7 117.7 0 0 1 79.66-30.91c15.97 0 31.19 3.19 45.09 8.93a88.59 88.59 0 0 1 161.24 58.27 59.06 59.06 0 0 1 88.98 50.92z" class="cls-23"/><circle cx="135.39" cy="225.64" r="11.25" class="cls-17"/><path d="M938.34 263.77c0-56.59-45.87-102.46-102.46-102.46s-99.04 42.56-102.25 96.25q-.67.6-1.33 1.24a77 77 0 0 0-14.89 19.01A51.23 51.23 0 0 0 630.97 315h358.6a51.23 51.23 0 0 0-51.23-51.23Z" class="cls-15"/><rect width="44.97" height="585.12" x="900.03" y="269.88" class="cls-4" rx="22.49" ry="22.49"/><path d="M202.65 113.08a65.76 65.76 0 0 0-65.76 65.76v19.37H45.7a51.23 51.23 0 0 1 51.23-51.23c0-56.59 45.87-102.46 102.46-102.46 54.5 0 99.04 42.56 102.25 96.25a77 77 0 0 1 16.22 20.25 51.23 51.23 0 0 1 86.44 37.19H268.4v-19.37a65.76 65.76 0 0 0-65.76-65.76Z" class="cls-2"/><path d="M200.18 333.21c30.5 0 30.5-44.64 61-44.64q3.92.02 7.22.94v-91.3H136.89v90.45q1.11-.09 2.28-.09c30.5 0 30.5 44.64 61 44.64Z" class="cls-4"/><path d="M202.65 801a65.76 65.76 0 0 0 65.76-65.76V289.5q-3.3-.92-7.22-.94c-30.5 0-30.5 44.64-61 44.64s-30.5-44.64-61-44.64q-1.17 0-2.28.09v446.58a65.76 65.76 0 0 0 65.76 65.76Z" class="cls-23"/><path d="M136.89 178.84a65.76 65.76 0 1 1 131.52 0v19.37H136.9v-19.37Z" style="stroke:#0c322c;stroke-width:4px;stroke-miterlimit:10;fill:#3c8eef"/><path d="M991.55 857.75a68.5 68.5 0 0 0-47.26 18.84 104 104 0 0 0-21.77-27.17c-4.31-72.06-64.09-129.17-137.23-129.17s-137.51 61.56-137.51 137.51a68.75 68.75 0 0 0-68.75 68.75h481.27a68.75 68.75 0 0 0-68.75-68.75Z" class="cls-4"/><path d="m206.81 141.18-.43.53a6.9 6.9 0 0 1-5.35 2.55h-1.32a6.9 6.9 0 0 1-5.35-2.55l-.43-.53a6.9 6.9 0 0 0-7.47-2.22 6.9 6.9 0 0 0-4.74 6.18l-.04.68a6.9 6.9 0 0 1-2.83 5.21l-1.07.77a6.9 6.9 0 0 1-5.83 1.08l-.66-.18a6.9 6.9 0 0 0-7.35 2.6 6.9 6.9 0 0 0-.2 7.79l.37.57a6.9 6.9 0 0 1 .78 5.87l-.41 1.25a6.9 6.9 0 0 1-4.08 4.3l-.64.24a6.88 6.88 0 0 0 0 12.84l.64.24a6.9 6.9 0 0 1 4.08 4.3l.41 1.25a6.9 6.9 0 0 1-.78 5.87l-.37.57a6.9 6.9 0 0 0 .2 7.79 6.9 6.9 0 0 0 7.35 2.6l.66-.18a6.9 6.9 0 0 1 5.83 1.08l1.07.77a6.9 6.9 0 0 1 2.83 5.21l.04.68a6.88 6.88 0 0 0 12.21 3.96l.43-.53a6.9 6.9 0 0 1 5.35-2.55h1.32a6.9 6.9 0 0 1 5.35 2.55l.43.53a6.9 6.9 0 0 0 7.47 2.22 6.9 6.9 0 0 0 4.74-6.18l.04-.68a6.9 6.9 0 0 1 2.83-5.21l1.07-.77a6.9 6.9 0 0 1 5.83-1.08l.66.18a6.87 6.87 0 0 0 7.55-10.39l-.37-.57a6.9 6.9 0 0 1-.78-5.87l.41-1.25a6.9 6.9 0 0 1 4.08-4.3l.64-.24a6.88 6.88 0 0 0 0-12.84l-.64-.24a6.9 6.9 0 0 1-4.08-4.3l-.41-1.25a6.9 6.9 0 0 1 .78-5.87l.37-.57a6.9 6.9 0 0 0-.2-7.79 6.9 6.9 0 0 0-7.35-2.6l-.66.18a6.9 6.9 0 0 1-5.83-1.08l-1.07-.77a6.9 6.9 0 0 1-2.83-5.21l-.04-.68a6.9 6.9 0 0 0-4.74-6.18 6.9 6.9 0 0 0-7.47 2.22Zm11.14 40.58a17.57 17.57 0 1 1-35.14 0 17.57 17.57 0 0 1 35.14 0Z" class="cls-5"/><path d="m927.84 341.92-.43.53a6.9 6.9 0 0 1-5.35 2.55h-1.32a6.9 6.9 0 0 1-5.35-2.55l-.43-.53a6.9 6.9 0 0 0-7.47-2.22 6.9 6.9 0 0 0-4.74 6.18l-.04.68a6.9 6.9 0 0 1-2.83 5.21l-1.07.77a6.9 6.9 0 0 1-5.83 1.08l-.66-.18a6.9 6.9 0 0 0-7.35 2.6 6.9 6.9 0 0 0-.2 7.79l.37.57a6.9 6.9 0 0 1 .78 5.87l-.41 1.25a6.9 6.9 0 0 1-4.08 4.3l-.64.24a6.88 6.88 0 0 0 0 12.84l.64.24a6.9 6.9 0 0 1 4.08 4.3l.41 1.25a6.9 6.9 0 0 1-.78 5.87l-.37.57a6.9 6.9 0 0 0 .2 7.79 6.9 6.9 0 0 0 7.35 2.6l.66-.18a6.9 6.9 0 0 1 5.83 1.08l1.07.77a6.9 6.9 0 0 1 2.83 5.21l.04.68a6.88 6.88 0 0 0 12.21 3.96l.43-.53a6.9 6.9 0 0 1 5.35-2.55h1.32a6.9 6.9 0 0 1 5.35 2.55l.43.53a6.9 6.9 0 0 0 7.47 2.22 6.9 6.9 0 0 0 4.74-6.18l.04-.68a6.9 6.9 0 0 1 2.83-5.21l1.07-.77a6.9 6.9 0 0 1 5.83-1.08l.66.18a6.87 6.87 0 0 0 7.55-10.39l-.37-.57a6.9 6.9 0 0 1-.78-5.87l.41-1.25a6.9 6.9 0 0 1 4.08-4.3l.64-.24a6.88 6.88 0 0 0 0-12.84l-.64-.24a6.9 6.9 0 0 1-4.08-4.3l-.41-1.25a6.9 6.9 0 0 1 .78-5.87l.37-.57a6.9 6.9 0 0 0-.2-7.79 6.9 6.9 0 0 0-7.35-2.6l-.66.18a6.9 6.9 0 0 1-5.83-1.08l-1.07-.77a6.9 6.9 0 0 1-2.83-5.21l-.04-.68a6.9 6.9 0 0 0-4.74-6.18 6.9 6.9 0 0 0-7.47 2.22Zm11.14 40.58a17.57 17.57 0 1 1-35.14 0 17.57 17.57 0 0 1 35.14 0Zm-11.14 94.42-.43.53a6.9 6.9 0 0 1-5.35 2.55h-1.32a6.9 6.9 0 0 1-5.35-2.55l-.43-.53a6.9 6.9 0 0 0-7.47-2.22 6.9 6.9 0 0 0-4.74 6.18l-.04.68a6.9 6.9 0 0 1-2.83 5.21l-1.07.77a6.9 6.9 0 0 1-5.83 1.08l-.66-.18a6.9 6.9 0 0 0-7.35 2.6 6.9 6.9 0 0 0-.2 7.79l.37.57a6.9 6.9 0 0 1 .78 5.87l-.41 1.25a6.9 6.9 0 0 1-4.08 4.3l-.64.24a6.88 6.88 0 0 0 0 12.84l.64.24a6.9 6.9 0 0 1 4.08 4.3l.41 1.25a6.9 6.9 0 0 1-.78 5.87l-.37.57a6.89 6.89 0 0 0 7.55 10.39l.66-.18a6.9 6.9 0 0 1 5.83 1.08l1.07.77a6.9 6.9 0 0 1 2.83 5.21l.04.68a6.88 6.88 0 0 0 12.21 3.96l.43-.53a6.9 6.9 0 0 1 5.35-2.55h1.32a6.9 6.9 0 0 1 5.35 2.55l.43.53a6.9 6.9 0 0 0 7.47 2.22 6.9 6.9 0 0 0 4.74-6.18l.04-.68a6.9 6.9 0 0 1 2.83-5.21l1.07-.77a6.9 6.9 0 0 1 5.83-1.08l.66.18a6.87 6.87 0 0 0 7.55-10.39l-.37-.57a6.9 6.9 0 0 1-.78-5.87l.41-1.25a6.9 6.9 0 0 1 4.08-4.3l.64-.24a6.88 6.88 0 0 0 0-12.84l-.64-.24a6.9 6.9 0 0 1-4.08-4.3l-.41-1.25a6.9 6.9 0 0 1 .78-5.87l.37-.57a6.9 6.9 0 0 0-.2-7.79 6.9 6.9 0 0 0-7.35-2.6l-.66.18a6.9 6.9 0 0 1-5.83-1.08l-1.07-.77a6.9 6.9 0 0 1-2.83-5.21l-.04-.68a6.9 6.9 0 0 0-4.74-6.18 6.9 6.9 0 0 0-7.47 2.22Zm11.14 40.58a17.57 17.57 0 1 1-35.14 0 17.57 17.57 0 0 1 35.14 0Zm-11.14 94.42-.43.53a6.9 6.9 0 0 1-5.35 2.55h-1.32a6.9 6.9 0 0 1-5.35-2.55l-.43-.53a6.9 6.9 0 0 0-7.47-2.22 6.9 6.9 0 0 0-4.74 6.18l-.04.68a6.9 6.9 0 0 1-2.83 5.21l-1.07.77a6.9 6.9 0 0 1-5.83 1.08l-.66-.18a6.9 6.9 0 0 0-7.35 2.6 6.9 6.9 0 0 0-.2 7.79l.37.57a6.9 6.9 0 0 1 .78 5.87l-.41 1.25a6.9 6.9 0 0 1-4.08 4.3l-.64.24a6.88 6.88 0 0 0 0 12.84l.64.24a6.9 6.9 0 0 1 4.08 4.3l.41 1.25a6.9 6.9 0 0 1-.78 5.87l-.37.57a6.89 6.89 0 0 0 7.55 10.39l.66-.18a6.9 6.9 0 0 1 5.83 1.08l1.07.77a6.9 6.9 0 0 1 2.83 5.21l.04.68a6.88 6.88 0 0 0 12.21 3.96l.43-.53a6.9 6.9 0 0 1 5.35-2.55h1.32a6.9 6.9 0 0 1 5.35 2.55l.43.53a6.9 6.9 0 0 0 7.47 2.22 6.9 6.9 0 0 0 4.74-6.18l.04-.68a6.9 6.9 0 0 1 2.83-5.21l1.07-.77a6.9 6.9 0 0 1 5.83-1.08l.66.18a6.87 6.87 0 0 0 7.55-10.39l-.37-.57a6.9 6.9 0 0 1-.78-5.87l.41-1.25a6.9 6.9 0 0 1 4.08-4.3l.64-.24a6.88 6.88 0 0 0 0-12.84l-.64-.24a6.9 6.9 0 0 1-4.08-4.3l-.41-1.25a6.9 6.9 0 0 1 .78-5.87l.37-.57a6.9 6.9 0 0 0-.2-7.79 6.9 6.9 0 0 0-7.35-2.6l-.66.18a6.9 6.9 0 0 1-5.83-1.08l-1.07-.77a6.9 6.9 0 0 1-2.83-5.21l-.04-.68a6.9 6.9 0 0 0-4.74-6.18 6.9 6.9 0 0 0-7.47 2.22Zm11.14 40.58a17.57 17.57 0 1 1-35.14 0 17.57 17.57 0 0 1 35.14 0Z" class="cls-20"/><circle cx="55.89" cy="235.99" r="11.25" class="cls-17"/><circle cx="67.39" cy="337.49" r="11.25" class="cls-17"/><circle cx="112.39" cy="370.49" r="11.25" class="cls-17"/><circle cx="90" cy="270" r="11.25" class="cls-17"/><circle cx="314.89" cy="225.49" r="11.25" class="cls-17"/><circle cx="359.89" cy="269.99" r="11.25" class="cls-17"/><circle cx="335.39" cy="315.49" r="11.25" class="cls-17"/><circle cx="292.89" cy="291.99" r="11.25" class="cls-17"/><path d="M158.2 513.87h22.5v22.5h-22.5zm33.75-67.5h22.5v22.5h-22.5z" class="cls-20"/><path d="M158.2 480.11h22.5v22.5h-22.5z" class="cls-8"/><path d="M158.2 581.37h22.5v22.5h-22.5z" class="cls-12"/><path d="M158.2 652.99h22.5v22.5h-22.5z" class="cls-20"/><path d="M191.95 558.87h22.5v22.5h-22.5z" class="cls-8"/><path d="M225.7 525.12h22.5v22.5h-22.5zm0 94.75h22.5v22.5h-22.5z" class="cls-12"/><path d="M225.7 581.37h22.5v22.5h-22.5z" class="cls-20"/><path d="M236.95 558.87v11.24m0 85.13v19.25m0-228.13v67.51m-33.75-33.75v67.5m-33.75 0v22.5m0 47.25v22.5m0-193.5v22.5m33.75 123.74v59.89" class="cls-12"/><path d="M157.65 333.21h22.5v22.5h-22.5z" class="cls-20"/><path d="M191.4 265.71h22.5v22.5h-22.5z" class="cls-12"/><path d="M157.65 231.96h22.5v22.5h-22.5z" class="cls-8"/><path d="M157.65 400.71h22.5v22.5h-22.5z" class="cls-12"/><path d="M191.4 378.21h22.5v22.5h-22.5z" class="cls-8"/><path d="M225.15 344.46h22.5v22.5h-22.5z" class="cls-12"/><path d="M225.15 400.71h22.5v22.5h-22.5z" class="cls-20"/><path d="M236.4 378.21v11.25m0-123.75v67.5m-33.75-33.75v67.5m-33.75 0v22.5m0-123.75v45m33.75 101.25v11.25" class="cls-12"/><path d="M225.15 231.96h22.5v22.5h-22.5z" class="cls-20"/><path d="M649.44 577.44h-38.62a19.16 19.16 0 0 1-19.16 19.16H572.5v9.58h115.26v-9.58H668.6a19.16 19.16 0 0 1-19.16-19.16Z" class="cls-11"/><rect width="143.7" height="229.92" x="558.28" y="390.63" rx="6.9" ry="6.9" style="fill:#efefef" transform="rotate(90 630.13 505.58)"/><g style="clip-path:url(#clippath-3)"><path d="M515.16 424.16h229.92v134.12H515.16z" class="cls-26"/><path d="M515.16 424.16h229.92v134.12H515.16z" class="cls-18"/></g><rect width="143.7" height="229.92" x="558.28" y="390.63" class="cls-18" rx="6.9" ry="6.9" transform="rotate(90 630.13 505.58)"/><rect width="19.16" height="9.58" x="620.55" y="443.31" class="cls-8" rx="4.79" ry="4.79"/><rect width="114.9" height="19.16" x="572.71" y="491.24" class="cls-27" rx="8.69" ry="8.69"/><path d="M572.71 491.23h76.58v19.18h-76.58z" class="cls-8" style="clip-path:url(#clippath-5)"/><rect width="114.9" height="19.16" x="572.71" y="491.24" class="cls-18" rx="8.69" ry="8.69"/><path d="M534.34 491.25h19.15v19.15h-19.15z" class="cls-10"/><path d="M706.83 491.25h19.15v19.15h-19.15z" class="cls-20"/><path d="M619.91 891.24a98.6 98.6 0 0 0-68.05 27.13 149 149 0 0 0-31.35-39.13c-6.21-103.76-92.29-186-197.61-186s-198 88.65-198 198c-54.68 0-99 44.32-99 99h693c0-54.68-44.32-99-99-99Z" class="cls-27"/><path d="M607.59 472.55 270 1035H45z" class="cls-15" style="clip-path:url(#clippath-6)"/><path d="M619.91 891.24a98.6 98.6 0 0 0-68.05 27.13 149 149 0 0 0-31.35-39.13c-6.21-103.76-92.29-186-197.61-186s-198 88.65-198 198c-54.68 0-99 44.32-99 99h693c0-54.68-44.32-99-99-99Z" class="cls-18"/><rect width="67.5" height="115.88" x="404.25" y="448.1" class="cls-20" rx="15.6" ry="15.6"/><path d="M431.86 552.8h10.56" class="cls-8"/><circle cx="437.14" cy="461.12" r="4.79" class="cls-20"/><path d="M494.25 629.75v22.75h103.56m-13.56 58.74v-14h67.5v-22.02h22.5m-135-22.72v22.72h45m180-22.72h-67.5" class="cls-18"/><circle cx="696.75" cy="652.5" r="11.37" class="cls-8"/><circle cx="606.75" cy="653.16" r="11.37" class="cls-20"/><circle cx="674.25" cy="675.66" r="11.37" class="cls-12"/><circle cx="584.25" cy="674.87" r="11.37" class="cls-10"/><circle cx="471.75" cy="652.5" r="11.37" class="cls-8"/><path d="M471.75 629.75v11.38" class="cls-10"/><rect width="32.43" height="32.43" x="421.78" y="489.38" rx="7.13" ry="7.13" style="stroke:#0c322c;stroke-width:4px;stroke-miterlimit:10;fill:#c0efde"/><path d="M922.51 270.02A22.5 22.5 0 0 1 945 292.51v22.36h-44.97v-22.36a22.5 22.5 0 0 1 22.49-22.49Zm-23.87 744.22a59.06 59.06 0 0 0-59.06-59.06 29.53 29.53 0 0 0-38.46-28.15 117.7 117.7 0 0 0-79.66-30.91c-15.97 0-31.19 3.19-45.09 8.93a88.59 88.59 0 0 0-161.24 58.27 59.06 59.06 0 0 0-88.98 50.92z" class="cls-2"/><path d="M519.64 809.74h-159v11.25h67.5l11.25-11.25z" class="cls-12"/><path d="M360.64 809.74a22.5 22.5 0 0 0-22.5-22.5v22.5a22.5 22.5 0 1 0 45 0z" class="cls-8"/><path d="M315.64 809.74a22.5 22.5 0 0 1 22.5-22.5v22.5z" class="cls-11"/><circle cx="347.39" cy="798.49" r="2" class="cls-34"/><path d="M405.64 809.74a45 45 0 0 1-45 45v-45z" class="cls-12"/><path d="M383.14 809.74a22.5 22.5 0 0 1-22.5 22.5v-22.5z" class="cls-8"/><path d="m484.64 361.24-11.25-11.25v-56.25h11.25zm-22.5 0 11.25-11.25v-56.25h-11.25z" class="cls-22"/><path d="M494.69 256.32a23 23 0 0 0 1.35-7.73c0-12.51-10.14-22.35-22.65-22.35s-22.65 9.83-22.65 22.35c0 2.71.48 5.32 1.35 7.73a33.75 33.75 0 1 0 42.6 0" class="cls-26"/><g style="clip-path:url(#clippath-7)"><path d="M495.79 316.24h-44.9v-33.75h44.9zm0-90h-44.9v22.5h44.9z" style="stroke:#0c322c;stroke-width:4px;fill:#bff1ea;stroke-linejoin:round"/></g><path d="M494.69 256.32a23 23 0 0 0 1.35-7.73c0-12.51-10.14-22.35-22.65-22.35s-22.65 9.83-22.65 22.35c0 2.71.48 5.32 1.35 7.73a33.75 33.75 0 1 0 42.6 0Z" style="stroke:#0c322c;stroke-width:4px;stroke-linejoin:round;fill:none"/><path d="M488.27 265.62a22.45 22.45 0 0 0 4.61-28.12h-38.96a22.3 22.3 0 0 0-3.02 11.25c0 6.72 2.95 12.75 7.63 16.87a22.5 22.5 0 1 0 29.74 0Z" style="stroke:#0c322c;stroke-width:4px;stroke-linejoin:round;fill:#fe7c3f"/><circle cx="462.14" cy="248.74" r="2" class="cls-34"/><circle cx="484.64" cy="248.74" r="2" class="cls-34"/><path d="m479.02 251.35-5.63 3.44-5.62-3.44" class="cls-18"/><path d="M268.4 735.24v-34.4a198.4 198.4 0 0 0-111.16 81.94 65.76 65.76 0 0 0 111.16-47.55Z" class="cls-4"/><path d="m208.07 691.32-.43.53a6.9 6.9 0 0 1-5.35 2.55h-1.32a6.9 6.9 0 0 1-5.35-2.55l-.43-.53a6.9 6.9 0 0 0-7.47-2.22 6.9 6.9 0 0 0-4.74 6.18l-.04.68a6.9 6.9 0 0 1-2.83 5.21l-1.07.77a6.9 6.9 0 0 1-5.83 1.08l-.66-.18a6.9 6.9 0 0 0-7.35 2.6 6.9 6.9 0 0 0-.2 7.79l.37.57a6.9 6.9 0 0 1 .78 5.87l-.41 1.25a6.9 6.9 0 0 1-4.08 4.3l-.64.24a6.88 6.88 0 0 0 0 12.84l.64.24a6.9 6.9 0 0 1 4.08 4.3l.41 1.25a6.9 6.9 0 0 1-.78 5.87l-.37.57a6.9 6.9 0 0 0 .2 7.79 6.9 6.9 0 0 0 7.35 2.6l.66-.18a6.9 6.9 0 0 1 5.83 1.08l1.07.77a6.9 6.9 0 0 1 2.83 5.21l.04.68a6.88 6.88 0 0 0 12.21 3.96l.43-.53a6.9 6.9 0 0 1 5.35-2.55h1.32a6.9 6.9 0 0 1 5.35 2.55l.43.53a6.9 6.9 0 0 0 7.47 2.22 6.9 6.9 0 0 0 4.74-6.18l.04-.68a6.9 6.9 0 0 1 2.83-5.21l1.07-.77a6.9 6.9 0 0 1 5.83-1.08l.66.18a6.87 6.87 0 0 0 7.55-10.39l-.37-.57a6.9 6.9 0 0 1-.78-5.87l.41-1.25a6.9 6.9 0 0 1 4.08-4.3l.64-.24a6.88 6.88 0 0 0 0-12.84l-.64-.24a6.9 6.9 0 0 1-4.08-4.3l-.41-1.25a6.9 6.9 0 0 1 .78-5.87l.37-.57a6.9 6.9 0 0 0-.2-7.79 6.9 6.9 0 0 0-7.35-2.6l-.66.18a6.9 6.9 0 0 1-5.83-1.08l-1.07-.77a6.9 6.9 0 0 1-2.83-5.21l-.04-.68a6.9 6.9 0 0 0-4.74-6.18 6.9 6.9 0 0 0-7.47 2.22Zm11.14 40.59a17.57 17.57 0 1 1-35.14 0 17.57 17.57 0 0 1 35.14 0Z" class="cls-5"/></g></svg><svg xmlns="http://www.w3.org/2000/svg" xmlns:c2pa="http://c2pa.org/manifest" width="300" height="110" x="89" y="90" viewBox="0 0 210.18 37.67"><path fill="#fff" d="M194.7 30.87a5.96 5.96 0 0 1-5.96-5.96V7.26a5.97 5.97 0 0 1 5.96-5.96h13.55c1.07 0 1.93.86 1.93 1.92a1.93 1.93 0 0 1-1.93 1.92H194.7a2.1 2.1 0 0 0-2.1 2.11v6.95h13.29c1 0 1.82.82 1.82 1.83a1.83 1.83 0 0 1-1.82 1.82h-13.3v7.06a2.1 2.1 0 0 0 2.1 2.11h13.56c1.07 0 1.93.87 1.93 1.93a1.93 1.93 0 0 1-1.93 1.92zm-60.78.39c-3.91 0-6.92-1-8.95-2.95s-3.06-4.9-3.06-8.74V3.14c0-1.23 1-2.23 2.23-2.23a2.23 2.23 0 0 1 2.23 2.23v15.84q0 4.34 1.84 6.41 1.86 2.08 5.7 2.09 3.86 0 5.7-2.09c1.23-1.37 1.85-3.53 1.85-6.4V3.13A2.24 2.24 0 0 1 143.69.9a2.23 2.23 0 0 1 2.23 2.23v16.43c0 3.84-1.03 6.78-3.06 8.74s-5.04 2.95-8.94 2.95m33.52 0c-5.03 0-8.87-1.43-11.4-4.25a2.1 2.1 0 0 1 .11-2.86l.01-.01.01-.01a2 2 0 0 1 1.5-.62c.6 0 1.16.26 1.55.7a9 9 0 0 0 2.4 1.97q2.33 1.3 5.78 1.3 3.26 0 5.15-1.14A3.7 3.7 0 0 0 174.5 23q-.01-1.74-1.76-2.8c-1.13-.69-3.04-1.27-5.84-1.8q-4.08-.76-6.5-1.88a8 8 0 0 1-3.47-2.73 7 7 0 0 1-1.08-3.96 8 8 0 0 1 1.37-4.5 9.4 9.4 0 0 1 3.96-3.23q2.6-1.2 6.1-1.2 4.06 0 6.93 1.47a12 12 0 0 1 3.45 2.68c.77.86.7 2.2-.16 2.97a2.1 2.1 0 0 1-3.08-.28 8 8 0 0 0-1.92-1.8q-1.96-1.25-5.18-1.25-3.19 0-4.97 1.28a4 4 0 0 0-1.8 3.36q0 1.92 1.77 3.06c1.14.72 3.12 1.33 6.04 1.86q4 .72 6.35 1.81a8 8 0 0 1 3.38 2.69 7 7 0 0 1 1.05 3.98q0 2.55-1.45 4.49a9 9 0 0 1-4.1 2.98q-2.64 1.05-6.14 1.05m-66.83 0c-5.03 0-8.87-1.42-11.4-4.24a2.1 2.1 0 0 1 .11-2.87l.02-.01a2.1 2.1 0 0 1 3.05.08 9 9 0 0 0 2.4 1.97q2.33 1.3 5.78 1.3 3.27 0 5.15-1.15a3.7 3.7 0 0 0 1.94-3.32q-.01-1.75-1.76-2.8c-1.13-.69-3.04-1.28-5.84-1.8q-4.08-.76-6.51-1.88a8 8 0 0 1-3.46-2.73A7 7 0 0 1 89 9.85a8 8 0 0 1 1.37-4.5 9.4 9.4 0 0 1 3.96-3.23q2.61-1.2 6.09-1.2 4.07 0 6.94 1.47a12 12 0 0 1 3.45 2.68 2.1 2.1 0 0 1-1.57 3.51 2.1 2.1 0 0 1-1.67-.82 8 8 0 0 0-1.92-1.8q-1.96-1.25-5.18-1.26-3.2 0-4.97 1.29a4 4 0 0 0-1.8 3.36q0 1.92 1.76 3.05c1.15.73 3.13 1.34 6.06 1.87a27 27 0 0 1 6.35 1.81 8 8 0 0 1 3.37 2.69 7 7 0 0 1 1.05 3.98q0 2.55-1.45 4.48a9 9 0 0 1-4.1 3q-2.64 1.04-6.14 1.04M70.97 11.39a1.17 1.17 0 0 0-1.68 0 1.2 1.2 0 0 0 .19 1.83c.39.25.9.25 1.3 0a1.2 1.2 0 0 0 .19-1.83m-1.56-4.2a4.55 4.55 0 0 0-5.46 5.47 4.6 4.6 0 0 0 3.4 3.4 4.55 4.55 0 0 0 5.46-5.47 4.6 4.6 0 0 0-3.4-3.4M14.6 37.68c-3.9 0-7.78-1.58-10.14-4.12C1.54 30.44-.21 27.29.02 21.29c.15-3.78 2.25-7.93 5.61-11.1A38 38 0 0 1 23.93.85a41 41 0 0 1 8.25-.83q2.1 0 4.17.2c3.87.4 7.5 1.1 10.8 2.13a42 42 0 0 1 5.1 1.94l.71.32c1.33.59 2.83 1.25 3.77 2.21l.36.37v-.52q0-1.7-.04-3.4Q57.01 1.8 57 .64c0-.4.33-.64.64-.64q.14 0 .26.06l3.14 1.47c2.72 1.27 6.1 2.86 8.67 4.03a8.2 8.2 0 0 1 4.5 5.22c.72 2.18.86 4.63.96 7.17q0 .14-.02.21c-.02.03-.1.14-.68.14h-.98c-.54 0-1.15 0-1.6.02a31 31 0 0 1-3.57-.03c-2-.1-4.13-.94-5.7-2.26-.14-.12-.4-.2-.62-.2a.7.7 0 0 0-.5.2.8.8 0 0 0-.02 1.02 10.4 10.4 0 0 0 7.15 2.91 32 32 0 0 0 4.74-.1l.24-.01q.3-.04.52-.05l-.55.43a13 13 0 0 1-3.72 1.86 20 20 0 0 1-5.9 1.02h-.61q-1.5 0-3-.19l-.79-.1q-.54-.1-1.1-.15l-.27-.03a7 7 0 0 0-.79-.06q-.3 0-.56.05a2.2 2.2 0 0 0-1.3.8c-.46.6-.59 2.13-.34 2.78.48 1.31 1.57 2.04 2.55 2.63q.48.28.99.49c.81.36 1.52.68 1.75 1.41-.3.08-1.21.14-2.22.14H54.7c-.96 0-1.7-.07-2.04-.2h-.03c-.29-.16-.43-.58-.54-.93v-.01a7 7 0 0 0-.9-1.64 7 7 0 0 0-3.06-2.64 9 9 0 0 0-3.56-.65l-1.15.02-1.07.02h-.79l-1.28-.01c-.49-.01-1.05-.03-2.05-.03-.33 0-.57.35-.65.94-.14 1.07.3 2.85 2.1 3.35l.49.13c.87.22 1.78.45 2.41 1.1.2.21.27.4.24.46-.01.03-.1.09-.35.09h-6.22c-1.04 0-1.83-.05-2.5-.6-1.11-.95-1.66-2.21-2.23-3.55l-.1-.22a40 40 0 0 0-2.11-4.28c-1.83-3.13-4.04-5.42-6.58-6.78-2-1.07-4.5-1.68-6.84-1.68-2.82 0-5.45.87-7.59 2.51a8.5 8.5 0 0 0-3.38 6.77 10.4 10.4 0 0 0 3.82 8.04 9 9 0 0 0 5.7 1.9q.3 0 .6-.03a7.8 7.8 0 0 0 5.8-2.82 5.8 5.8 0 0 0 1.1-4.75 5 5 0 0 0-2.28-3.36 5.6 5.6 0 0 0-2.84-.68h-.02q-1.96 0-2.95.98c-.94.9-1.09 2.5-.34 3.57l.32.41c.33.38.6.72.54 1.16a1 1 0 0 1-.78.76l-.31.04c-.65 0-1.22-.44-1.58-.82a5.1 5.1 0 0 1-1.03-5.36c1.02-2.45 3.75-3.55 6-3.55h.23a9.1 9.1 0 0 1 7.79 5.32 10 10 0 0 1-.93 9.48c-1.88 2.75-5.22 4.33-9.16 4.33m57.07-26.05a3.3 3.3 0 1 1-6.6 0 3.3 3.3 0 1 1 6.6 0"/></svg><path fill="#fff" d="M127.55 717.06q-5.7 0-10.68-1.97-4.97-1.98-8.74-5.63-3.76-3.64-5.85-8.58t-2.09-10.95v-1.06q0-6.01 2.09-10.95t5.85-8.58q3.77-3.65 8.74-5.63 4.98-1.97 10.68-1.97 5.32 0 9.73 1.67t7.83 4.71l-5.93 7.07q-4.79-4.33-11.63-4.33-5.09 0-9.16 2.28-4.06 2.28-6.38 6.34t-2.32 9.39v1.06q0 5.32 2.32 9.39 2.32 4.06 6.38 6.34t9.16 2.28q7.07 0 11.86-4.56l6 7q-3.49 3.19-8.05 4.94-4.56 1.74-9.81 1.74m36.56-1.06q-5.02 0-8.02-2.74-3-2.73-3-7.52v-37.77h-6.16v-7.45h14.9v45.37q0 1.22.8 2.02.79.79 2.01.79h3.88v7.3zm27.05.76q-5.39 0-9.72-2.43t-6.84-6.73q-2.51-4.29-2.51-9.84v-.68q0-5.55 2.51-9.81 2.5-4.25 6.84-6.65 4.33-2.39 9.72-2.39t9.69 2.39 6.81 6.65 2.5 9.73v.76q0 5.55-2.5 9.84t-6.81 6.73q-4.29 2.43-9.69 2.43m0-7.75q4.56 0 7.41-3.16 2.85-3.15 2.85-8.09V697q0-4.86-2.85-7.94t-7.41-3.08q-4.48 0-7.37 3.12-2.89 3.11-2.89 7.98v.68q0 4.94 2.89 8.09 2.89 3.16 7.37 3.16m40.59 7.75q-6.08 0-10.15-3.69-4.06-3.68-4.06-11.28v-22.8h8.74v21.13q0 4.78 2.09 6.72t5.35 1.94q3.5 0 5.82-2.24t2.32-6.8v-20.75h8.74V716H243v-4.48q-2.36 3.11-5.51 4.18-3.16 1.06-5.74 1.06m44.23 0q-5.02 0-8.97-2.36t-6.23-6.61-2.28-9.95v-.76q0-5.55 2.32-9.81 2.32-4.25 6.27-6.65 3.95-2.39 8.97-2.39 3.42 0 6.27 1.29t4.97 3.57v-22.57h8.74V716h-7.9v-5.02q-2.2 2.74-5.32 4.26t-6.84 1.52m1.37-7.68q4.48 0 7.48-3.11 3.01-3.12 3.01-8.44 0-5.39-3.01-8.47t-7.48-3.08q-4.18 0-7.15 2.96-2.96 2.97-2.96 8.14v.76q0 5.16 2.96 8.2 2.97 3.04 7.15 3.04m46.59 6.92v-53.2h8.43l24.55 36.71V662.8h9.35V716h-8.29l-24.77-36.86V716zm63.91.76q-6.31 0-10.03-3.08t-3.72-7.94q0-4.94 4.06-8.17 4.07-3.23 10.83-3.23 5.09 0 8.44 1.82v-3.57q0-3.65-2.05-5.17-2.06-1.52-5.25-1.52-2.81 0-5.81 1.07-3 1.06-5.13 3.04l-3.95-5.93q2.43-2.74 6.65-4.29 4.21-1.56 8.77-1.56 6.84 0 11.14 3.53 4.29 3.54 4.29 10.38v11.93q0 3.04.04 6 .04 2.97.19 5.93h-7.75l-.08-3.8q-3.11 4.56-10.64 4.56m2.43-6.46q3.27 0 5.25-1.37 1.97-1.37 1.97-3.57 0-2.13-1.97-3.5-1.98-1.36-5.32-1.36-3.27 0-5.28 1.36-2.02 1.37-2.02 3.5 0 2.2 2.02 3.57 2.01 1.37 5.35 1.37m39.3 5.7q-2.66 0-5.29-.91t-4.37-3.31-1.74-6.65v-18.69h-6.31v-7.45h6.31v-9.05h8.74v9.05h8.58v7.45h-8.58v19.38q0 1.14.79 1.93.8.8 1.94.8h5.85V716zm16.79 0v-29.56h-6.69v-7.45h15.51V716zm-.38-44.38v-10.11h9.73v10.11zM474.87 716l-14.29-37.01h9.12l9.73 26.67 9.73-26.67h9.12L484.07 716zm44.61.76q-5.54 0-9.76-2.39t-6.58-6.69-2.35-10v-.76q0-5.24 2.16-9.5t6.16-6.72q3.99-2.47 9.31-2.47 5.55 0 9.5 2.7 3.95 2.69 5.78 7.63 1.82 4.94.98 11.63h-25.23q.46 3.88 3.16 6.42 2.69 2.55 7.33 2.55 2.74 0 4.71-.76 1.98-.76 3.57-2.28l4.94 5.17q-2.2 2.73-5.73 4.1t-7.95 1.37m-.98-31.46q-3.88 0-6.08 2.39t-2.82 6.27h16.72q-.15-4.1-2.31-6.38t-5.51-2.28m56.01 31.76q-5.93 0-10.34-2.2t-7.52-5.85l5.77-5.78q3.04 3.12 6.05 4.52 3 1.41 6.34 1.41 4.49 0 7.03-2.09t2.55-5.43q0-2.66-1.45-4.26-1.44-1.6-3.8-2.58-2.35-.99-5.2-1.83-2.85-.83-5.66-1.82t-5.17-2.59-3.8-4.14-1.45-6.5q0-4.94 2.32-8.58 2.32-3.65 6.46-5.63 4.14-1.97 9.77-1.97 5.09 0 9.27 1.82t6.84 4.86l-5.93 5.93q-2.28-2.35-4.75-3.53t-5.51-1.18q-4.18 0-6.69 2.01-2.5 2.02-2.5 5.36 0 2.51 1.44 3.95t3.84 2.36 5.24 1.67 5.7 1.71 5.25 2.55 3.83 4.25 1.45 6.77q0 5.09-2.43 8.85t-6.81 5.85-10.14 2.09m40.51-.3q-6.08 0-10.15-3.69t-4.07-11.28v-22.8h8.74v21.13q0 4.78 2.09 6.72t5.36 1.94q3.5 0 5.82-2.24 2.31-2.24 2.31-6.8v-20.75h8.74V716h-7.6v-4.48q-2.35 3.11-5.51 4.18t-5.73 1.06m29.03-.76v-37.01h8.36v4.63q2.13-3.11 5.09-4.25t5.7-1.14q3.65 0 6.42 1.48t4.45 4.52q1.67-2.43 3.84-3.72t4.33-1.79 3.91-.49q6.01 0 9.81 3.87t3.8 11.4V716h-8.67v-21.2q0-4.49-1.94-6.54-1.93-2.05-5.2-2.05-3.35 0-5.51 2.24-2.17 2.24-2.17 6.35V716h-8.74v-21.2q0-4.49-1.94-6.54-1.93-2.05-5.13-2.05-3.34 0-5.54 2.24t-2.21 6.35V716zm65.43 0v-37.01h8.36v4.63q2.13-3.11 5.1-4.25t5.7-1.14q3.64 0 6.42 1.48t4.44 4.52q1.68-2.43 3.84-3.72t4.33-1.79 3.92-.49q6 0 9.8 3.87t3.8 11.4V716h-8.66v-21.2q0-4.49-1.94-6.54t-5.21-2.05q-3.34 0-5.51 2.24t-2.16 6.35V716h-8.74v-21.2q0-4.49-1.94-6.54t-5.13-2.05q-3.34 0-5.55 2.24t-2.2 6.35V716zm68.02 0v-29.56h-6.68v-7.45h15.5V716zm-.38-44.38v-10.11h9.73v10.11zM810.49 716q-2.66 0-5.28-.91t-4.37-3.31-1.75-6.65v-18.69h-6.31v-7.45h6.31v-9.05h8.74v9.05h8.59v7.45h-8.59v19.38q0 1.14.8 1.93.79.8 1.93.8h5.86V716z"/><path fill="#30ba78" d="M101.71 799.59v-6.84l18.62-18.85q3.35-3.34 4.71-6.08 1.37-2.73 1.37-5.47 0-3.65-2.24-5.81-2.24-2.17-6.04-2.17-3.35 0-6.12 1.82-2.77 1.83-5.13 5.25l-6-5.85q3.04-4.56 7.52-7.26t10.03-2.7q5.17 0 9.08 2.01 3.92 2.02 6.12 5.55 2.21 3.54 2.21 8.17 0 4.18-2.06 8.55-2.05 4.37-6.99 9.31l-12.01 12.09h23.26v8.28zm63.69.76q-9.42 0-14.71-7.14-5.28-7.15-5.28-20.14t5.28-20.22 14.71-7.22q9.42 0 14.71 7.22 5.28 7.22 5.28 20.22t-5.28 20.14-14.71 7.14m0-8.36q5.17 0 7.94-4.79t2.78-14.13q0-9.43-2.78-14.25t-7.94-4.83-7.94 4.83q-2.78 4.82-2.78 14.25 0 9.34 2.78 14.13t7.94 4.79m27.51 7.6v-6.84l18.62-18.85q3.35-3.34 4.71-6.08 1.37-2.73 1.37-5.47 0-3.65-2.24-5.81-2.24-2.17-6.04-2.17-3.35 0-6.12 1.82-2.77 1.83-5.13 5.25l-6-5.85q3.04-4.56 7.52-7.26t10.03-2.7q5.17 0 9.08 2.01 3.92 2.02 6.12 5.55 2.21 3.54 2.21 8.17 0 4.18-2.06 8.55-2.05 4.37-6.99 9.31l-12.01 12.09h23.26v8.28zm64.07.76q-6 0-10.37-2.24t-6.77-6.42q-2.39-4.18-2.39-9.81 0-3.72 1.56-7.52 1.55-3.8 4.29-7.75l13.91-20.22h11.09l-14.13 19.08q2.28-.69 4.71-.69 5.17 0 9.12 2.28t6.16 6.27 2.2 9.08q0 5.48-2.43 9.5-2.43 4.03-6.8 6.24t-10.15 2.2m-.15-7.98q4.48 0 7.29-2.77 2.82-2.78 2.82-7.11 0-4.41-2.82-7.22t-7.14-2.81q-4.56 0-7.33 2.81t-2.78 7.22 2.74 7.14q2.73 2.74 7.22 2.74"/><path fill="#c0efde" d="M99.99 918v-2.07h6.5v-17.62q0-.88-.55-1.46-.54-.58-1.43-.58h-4.38v-2.07h4.89q1.64 0 2.67 1.04 1.04 1.03 1.04 2.63v18.06h6.46V918zm19.82 0v-1.7l8.98-9.04q2.01-2.04 2.67-3.51t.66-2.78q0-2.32-1.34-3.64t-3.66-1.33q-1.73 0-3.24.94t-2.6 2.63l-1.5-1.39q1.26-2.04 3.21-3.18 1.96-1.14 4.2-1.14 3.33 0 5.29 1.9 1.95 1.91 1.95 5.04 0 1.08-.34 2.26t-1.22 2.53-2.48 2.99l-7.31 7.35h12.27V918zm29.21 0v-23.8h2.18l12.88 19.92V894.2h2.25V918h-2.18l-12.85-19.89V918zm29.58.34q-2.31 0-4.11-1.07t-2.83-2.96-1.02-4.37v-.3q0-2.42 1.02-4.27t2.83-2.91 4.11-1.05q2.28 0 4.08 1.05 1.8 1.06 2.82 2.89 1.02 1.84 1.02 4.22v.37q0 2.48-1.02 4.37t-2.82 2.96-4.08 1.07m0-1.94q1.7 0 2.99-.83t2.03-2.28.73-3.35v-.37q0-1.84-.73-3.23-.74-1.4-2.03-2.19-1.29-.8-2.99-.8t-3.01.81q-1.31.82-2.06 2.23-.74 1.41-.74 3.25v.3q0 1.91.74 3.35.75 1.45 2.06 2.28t3.01.83m16.25 1.6-6.56-16.25h2.24l5.48 13.67 5.44-13.67h2.24L197.16 918zm18.74.34q-2.38 0-4.22-1.07t-2.86-2.96-1.02-4.37v-.34q0-2.38.96-4.21.95-1.84 2.63-2.91t3.93-1.07q2.28 0 3.91 1.12t2.4 3.16.45 4.76h-12.13q.06 1.67.83 3.01.76 1.34 2.09 2.11t3.09.76q2.69 0 4.22-1.32l1.22 1.39q-.91.92-2.36 1.43t-3.14.51m-.58-15.03q-2.25 0-3.66 1.46-1.41 1.47-1.68 3.88h10.06q.04-2.45-1.27-3.89-1.31-1.45-3.45-1.45M223.92 918v-16.25H226v2.85q.91-1.8 2.41-2.5 1.5-.69 2.96-.69 1.87 0 3.25.85t2.02 2.65q.68-1.33 1.65-2.09.97-.77 2.04-1.09t2.05-.32q2.66 0 4.31 1.71 1.64 1.72 1.64 5.33V918h-2.1v-9.32q0-2.78-1.19-4.02-1.19-1.25-3.13-1.25-1.97 0-3.33 1.35-1.36 1.34-1.36 3.89V918h-2.15v-9.32q0-2.78-1.17-4.02-1.17-1.25-3.11-1.25-2.01 0-3.37 1.35-1.36 1.34-1.36 3.89V918zm37.71.34q-2.01 0-3.62-.97t-2.54-2.7V918h-2v-24.82h2.17v11.7q.92-1.6 2.47-2.54t3.52-.93q2.21 0 3.93 1.05 1.71 1.06 2.7 2.91.98 1.85.98 4.27v.3q0 2.48-.96 4.39-.97 1.9-2.69 2.96-1.72 1.05-3.96 1.05m-.27-1.94q1.66 0 2.95-.8t2.03-2.26.73-3.4v-.3q0-1.87-.73-3.29-.73-1.41-2.03-2.2t-2.95-.8q-1.67 0-3 .83-1.32.83-2.09 2.29-.76 1.47-.76 3.4 0 1.98.76 3.44.77 1.46 2.09 2.28 1.33.81 3 .81m19.1 1.94q-2.38 0-4.21-1.07-1.84-1.07-2.86-2.96t-1.02-4.37v-.34q0-2.38.95-4.21.96-1.84 2.64-2.91t3.93-1.07q2.27 0 3.91 1.12 1.63 1.12 2.39 3.16t.46 4.76h-12.14q.07 1.67.84 3.01.76 1.34 2.09 2.11t3.09.76q2.69 0 4.22-1.32l1.22 1.39q-.92.92-2.36 1.43-1.45.51-3.15.51m-.57-15.03q-2.25 0-3.66 1.46-1.41 1.47-1.68 3.88h10.06q.04-2.45-1.27-3.89-1.31-1.45-3.45-1.45M290.8 918v-16.25h2.11v2.65q.61-1.56 1.82-2.13 1.2-.56 2.73-.56h1.4v2.15h-1.57q-2 0-3.16 1.03-1.15 1.04-1.15 3.25V918zm18.53 0v-1.7l8.98-9.04q2-2.04 2.67-3.51t.66-2.78q0-2.32-1.34-3.64-1.35-1.33-3.66-1.33-1.73 0-3.25.94-1.51.93-2.6 2.63l-1.49-1.39q1.25-2.04 3.21-3.18 1.95-1.14 4.2-1.14 3.33 0 5.29 1.9 1.95 1.91 1.95 5.04 0 1.08-.34 2.26t-1.22 2.53-2.49 2.99l-7.31 7.35h12.28V918zm28.19.34q-2.66 0-4.56-1.46t-2.94-4.2-1.04-6.55q0-3.84 1.04-6.57t2.94-4.22 4.56-1.48 4.55 1.48q1.91 1.48 2.94 4.22 1.04 2.73 1.04 6.57 0 3.81-1.04 6.55-1.03 2.74-2.94 4.2-1.9 1.46-4.55 1.46m0-2.07q2.92 0 4.59-2.67 1.66-2.67 1.66-7.47 0-4.82-1.66-7.51-1.67-2.69-4.59-2.69-2.96 0-4.61 2.69t-1.65 7.51q0 4.8 1.65 7.47t4.61 2.67m12.61 1.73v-1.7l8.98-9.04q2-2.04 2.67-3.51t.66-2.78q0-2.32-1.34-3.64-1.35-1.33-3.66-1.33-1.73 0-3.25.94-1.51.93-2.6 2.63l-1.49-1.39q1.25-2.04 3.21-3.18 1.95-1.14 4.2-1.14 3.33 0 5.29 1.9 1.95 1.91 1.95 5.04 0 1.08-.34 2.26t-1.22 2.53-2.49 2.99l-7.31 7.35h12.28V918zm28.42.34q-2.51 0-4.35-.97t-2.82-2.77q-.99-1.8-.99-4.22 0-1.59.55-3.04.54-1.44 1.46-2.77l7.31-10.37h2.75l-6.73 9.18q.78-.37 1.6-.54t1.67-.17q2.24 0 3.97 1 1.74 1 2.72 2.77t.99 4.05q0 2.34-1.04 4.11-1.03 1.77-2.87 2.75-1.84.99-4.22.99m-.03-2.01q1.73 0 3.06-.74 1.33-.75 2.07-2.06.75-1.31.75-3.04 0-1.74-.75-3.06-.74-1.33-2.05-2.08t-3.01-.75q-2.69 0-4.32 1.64-1.63 1.63-1.63 4.25 0 2.65 1.6 4.25 1.59 1.59 4.28 1.59m36.55-6.25v-3.13h2.62v3.13zm32.27 7.92v-23.8h7.82q3.4 0 5.32 1.62 1.92 1.61 1.92 4.3 0 1.93-1 3.48-1.01 1.55-3.01 2.13 2.27.54 3.55 2.1 1.27 1.57 1.27 3.64 0 2.96-1.98 4.75-1.99 1.78-5.84 1.78zm7.61-21.86h-5.37v8.7h5.61q2.38 0 3.66-1.26 1.27-1.25 1.27-3.23 0-1.9-1.38-3.06-1.37-1.15-3.79-1.15m.51 10.57h-5.88v9.35h5.51q2.89 0 4.33-1.31 1.45-1.31 1.45-3.45 0-1.97-1.48-3.28t-3.93-1.31m19.14 11.63q-2.38 0-4.21-1.07-1.84-1.07-2.86-2.96t-1.02-4.37v-.34q0-2.38.95-4.21.96-1.84 2.64-2.91t3.93-1.07q2.27 0 3.91 1.12 1.63 1.12 2.39 3.16t.46 4.76h-12.14q.07 1.67.84 3.01.76 1.34 2.09 2.11t3.09.76q2.69 0 4.22-1.32l1.22 1.39q-.92.92-2.36 1.43-1.45.51-3.15.51m-.57-15.03q-2.25 0-3.66 1.46-1.41 1.47-1.68 3.88h10.06q.04-2.45-1.27-3.89-1.31-1.45-3.45-1.45M484.94 918v-16.25h2.11v2.65q.61-1.56 1.82-2.13 1.2-.56 2.73-.56h1.4v2.15h-1.57q-2 0-3.16 1.03-1.15 1.04-1.15 3.25V918zm15.57 0q-1.87 0-3.01-1.09t-1.14-2.89v-18.97h-3.12v-1.87h5.3v20.88q0 .88.6 1.47.59.6 1.47.6h1.47V918zm5.71 0v-14.35h-3.26v-1.9h5.41V918zm-.13-19.99v-3.67h2.41v3.67zm7.68 19.99v-16.25h2.08v2.89q.64-1.23 1.61-1.92.97-.7 2.02-1.01 1.06-.3 1.98-.3 2.75 0 4.48 1.75t1.74 5.35V918h-2.18v-9.21q0-2.86-1.29-4.12t-3.26-1.26q-1.36 0-2.5.62-1.14.61-1.82 1.8t-.68 2.99V918z"/></svg>