<svg xmlns="http://www.w3.org/2000/svg" width="1080" height="1080" viewBox="0 0 1080 1080"><rect width="920" height="920" x="80" y="80" fill="#fff" rx="32" ry="32"/><path fill="#0c322c" d="M167.86 278.69v6.91h-6.67v-10.56q0-1.8.73-2.81.72-1.02 1.85-1.45 1.13-.44 2.29-.44h2.03v3.31h-2.03q-.69 0-1.07.43-.38.44-.38 1.08v3.53zm10.9 0v6.91h-6.67v-10.56q0-1.8.76-2.81.75-1.02 1.85-1.45 1.11-.44 2.27-.44H179v3.31h-2.03q-.7 0-1.08.43-.37.44-.37 1.08v3.53zm25.52 33.06q-5.68 0-10.17-2.63-4.5-2.64-7.08-7.37t-2.58-10.93v-.47q0-6.15 2.58-10.81t7.08-7.28 10.17-2.61q5.75 0 10.21 2.61t7.02 7.28 2.55 10.81v.47q0 6.2-2.55 10.93t-7.02 7.37-10.21 2.63m0-5.91q3.95 0 7.02-1.83 3.08-1.83 4.82-5.22t1.74-7.97v-.47q0-4.52-1.74-7.83-1.74-3.3-4.82-5.13-3.07-1.83-7.02-1.83-4 0-7.07 1.83t-4.82 5.13-1.74 7.83v.47q0 4.58 1.74 7.97t4.82 5.22 7.07 1.83m26.1 16.76v-39.67h5.34v4.12q1.62-2.21 4.06-3.45t5.39-1.25q3.83 0 6.82 1.8 2.99 1.79 4.7 5.01t1.71 7.46v.58q0 4.29-1.68 7.54-1.69 3.24-4.67 5.04-2.99 1.8-6.82 1.8-2.84 0-5.19-1.16t-3.97-3.19v15.37zm13.98-16.01q3.54 0 5.95-2.55 2.4-2.55 2.4-6.84v-.58q0-4.24-2.4-6.73-2.41-2.5-5.95-2.5-3.71 0-6.17 2.59-2.47 2.58-2.47 6.98t2.47 7.02 6.17 2.61m32.83 4.99q-4.23 0-7.42-1.83-3.19-1.82-4.96-5.07t-1.77-7.54v-.58q0-4.06 1.65-7.28t4.64-5.08 6.99-1.85q4.12 0 7.05 2.03t4.29 5.68.78 8.64h-19.78q.35 3.37 2.64 5.6t6.12 2.23q4.18 0 6.61-2.26l3.25 3.42q-1.68 1.92-4.29 2.9-2.61.99-5.8.99m-.87-24.53q-3.25 0-5.16 2.03t-2.38 5.33h14.21q-.06-3.48-1.91-5.42-1.86-1.94-4.76-1.94m18.5 23.95v-28.07h5.45v4q1.74-2.67 4.27-3.62t4.61-.96q4.75 0 7.65 3.07 2.9 3.08 2.9 8.99V311h-5.68v-15.72q0-4.12-1.8-5.91-1.8-1.8-4.58-1.8-2.96 0-5.05 1.97t-2.08 5.86V311zm54.06.52q-3.25 0-6-.98-2.76-.99-4.56-2.44l2.5-3.89q1.68 1.28 3.77 2.06 2.08.79 4.29.79 2.32 0 3.74-1.05 1.42-1.04 1.42-2.67 0-1.5-1.04-2.29-1.05-.78-2.7-1.24-1.65-.47-3.54-.96-1.88-.49-3.54-1.34-1.65-.84-2.72-2.37t-1.08-4.15q0-3.83 2.88-6.23t7.68-2.41q2.73 0 5.13.78 2.41.78 4.27 2.06l-2.56 3.83q-1.5-1.05-3.27-1.65-1.77-.61-3.63-.61-2.26 0-3.65 1.04t-1.39 2.67q0 1.51 1.07 2.29t2.78 1.25l3.6.98q1.88.52 3.6 1.39 1.71.87 2.78 2.44t1.07 4.18q0 2.49-1.42 4.4t-3.86 3.02-5.62 1.1m29.46.06q-4.06 0-7.28-1.86-3.22-1.85-5.1-5.1-1.89-3.25-1.89-7.48v-.52q0-4.18 1.89-7.4 1.88-3.22 5.1-5.05t7.28-1.82 7.25 1.82q3.19 1.83 5.05 5.02t1.85 7.37v.58q0 4.23-1.85 7.48-1.86 3.25-5.05 5.1-3.19 1.86-7.25 1.86m0-5.05q3.77 0 6.12-2.61t2.35-6.78v-.58q0-4.06-2.35-6.61t-6.12-2.56-6.15 2.59q-2.37 2.58-2.37 6.64v.52q0 4.17 2.37 6.78t6.15 2.61m30.97 5.05q-4.64 0-7.71-2.78-3.07-2.79-3.07-8.7v-17.17h5.62v16.12q0 4.12 1.8 5.72t4.58 1.59q2.9 0 4.93-1.88 2.03-1.89 2.03-5.72v-15.83h5.63V311h-4.99v-3.83q-1.74 2.61-4.23 3.51t-4.59.9m22.04-.58v-28.07h5.51v4.29q.99-2.55 3.05-3.51t4.61-.96h2.32v5.63h-2.78q-3.37 0-5.19 1.6-1.83 1.59-1.83 4.78V311zm32.14.58q-4.24 0-7.51-1.83-3.28-1.82-5.17-5.04-1.88-3.22-1.88-7.4v-.69q0-4.24 1.91-7.46 1.92-3.22 5.19-5.01 3.28-1.8 7.46-1.8 3.07 0 5.68 1.19t4.35 3.27l-3.48 3.54q-2.49-2.78-6.55-2.78-3.83 0-6.33 2.46-2.49 2.47-2.49 6.59v.69q0 4.06 2.52 6.56t6.35 2.49q1.92 0 3.6-.67 1.68-.66 3.07-2.06l3.43 3.48q-1.74 2.09-4.41 3.28t-5.74 1.19m27.26 0q-4.24 0-7.43-1.83-3.19-1.82-4.96-5.07t-1.77-7.54v-.58q0-4.06 1.66-7.28 1.65-3.22 4.64-5.08t6.99-1.85q4.11 0 7.04 2.03t4.3 5.68.78 8.64h-19.78q.35 3.37 2.64 5.6t6.12 2.23q4.17 0 6.61-2.26l3.25 3.42q-1.68 1.92-4.29 2.9-2.61.99-5.8.99m-.87-24.53q-3.25 0-5.17 2.03-1.91 2.03-2.37 5.33h14.21q-.06-3.48-1.92-5.42t-4.75-1.94M523.4 311v-23.2h-5.22v-4.87h10.96V311zm-.23-33.93v-7.25h6.32v7.25zm22.27 34.45q-3.25 0-6-.98-2.76-.99-4.56-2.44l2.5-3.89q1.68 1.28 3.77 2.06 2.09.79 4.29.79 2.32 0 3.74-1.05 1.42-1.04 1.42-2.67 0-1.5-1.04-2.29-1.05-.78-2.7-1.24-1.65-.47-3.54-.96-1.88-.49-3.53-1.34-1.66-.84-2.73-2.37t-1.07-4.15q0-3.83 2.87-6.23t7.68-2.41q2.73 0 5.14.78t4.26 2.06l-2.55 3.83q-1.51-1.05-3.28-1.65-1.77-.61-3.63-.61-2.26 0-3.65 1.04t-1.39 2.67q0 1.51 1.07 2.29t2.79 1.25l3.59.98q1.89.52 3.6 1.39t2.78 2.44 1.07 4.18q0 2.49-1.42 4.4t-3.85 3.02-5.63 1.1m30.33-.52v-42.34h5.46v18.27q1.74-2.67 4.26-3.62t4.61-.96q4.76 0 7.66 3.07 2.9 3.08 2.9 8.99V311h-5.69v-15.72q0-4.12-1.8-5.91-1.79-1.8-4.58-1.8-2.96 0-5.04 1.97t-2.09 5.86V311zm45.19.58q-4.06 0-7.28-1.86-3.22-1.85-5.11-5.1-1.88-3.25-1.88-7.48v-.52q0-4.18 1.88-7.4 1.89-3.22 5.11-5.05t7.28-1.82 7.25 1.82q3.19 1.83 5.04 5.02 1.86 3.19 1.86 7.37v.58q0 4.23-1.86 7.48-1.85 3.25-5.04 5.1-3.19 1.86-7.25 1.86m0-5.05q3.77 0 6.12-2.61 2.34-2.61 2.34-6.78v-.58q0-4.06-2.34-6.61-2.35-2.56-6.12-2.56t-6.15 2.59-2.38 6.64v.52q0 4.17 2.38 6.78t6.15 2.61m25.11 4.47-7.77-28.07h5.62l5.69 22.27 6.2-22.27h5.98l6.15 22.21 5.74-22.21h5.62L671.53 311h-6.55l-6.21-22.97-6.2 22.97zm60.96 0q-1.97 0-3.86-.73-1.88-.72-3.1-2.43t-1.22-4.73V287.8h-4.93v-4.87h4.93v-6.9h5.68v6.9h6.91v4.87h-6.91v15.78q0 1.1.76 1.82.75.73 1.8.73h4.35V311zm10.5 0v-42.34h5.45v18.27q1.74-2.67 4.26-3.62t4.61-.96q4.76 0 7.66 3.07 2.9 3.08 2.9 8.99V311h-5.69v-15.72q0-4.12-1.79-5.91-1.8-1.8-4.59-1.8-2.95 0-5.04 1.97t-2.09 5.86V311zm45.12.58q-4.23 0-7.42-1.83-3.19-1.82-4.96-5.07t-1.77-7.54v-.58q0-4.06 1.65-7.28t4.64-5.08 6.99-1.85q4.12 0 7.05 2.03t4.29 5.68.78 8.64h-19.78q.35 3.37 2.64 5.6t6.12 2.23q4.18 0 6.61-2.26l3.25 3.42q-1.68 1.92-4.29 2.9-2.61.99-5.8.99m-.87-24.53q-3.25 0-5.16 2.03t-2.38 5.33h14.21q-.06-3.48-1.91-5.42-1.86-1.94-4.76-1.94m-594.79 90.64-7.77-28.07h5.62l5.69 22.27 6.2-22.27h5.98l6.15 22.21 5.74-22.21h5.62l-7.77 28.07h-6.55l-6.21-22.97-6.2 22.97zm50.63.58q-4.06 0-7.27-1.86-3.22-1.85-5.11-5.1-1.88-3.25-1.88-7.48v-.52q0-4.18 1.88-7.4 1.89-3.22 5.11-5.05 3.21-1.82 7.27-1.82t7.25 1.82 5.05 5.02 1.86 7.37v.58q0 4.23-1.86 7.48t-5.05 5.1-7.25 1.86m0-5.05q3.77 0 6.12-2.61t2.35-6.78v-.58q0-4.06-2.35-6.61t-6.12-2.56-6.14 2.59q-2.38 2.58-2.38 6.64v.52q0 4.17 2.38 6.78t6.14 2.61m20.54 4.47v-28.07h5.51v4.29q.98-2.55 3.04-3.51t4.61-.96h2.32v5.63h-2.78q-3.37 0-5.19 1.6-1.83 1.59-1.83 4.78v16.24zm28.59 0q-3.6 0-5.77-2.03-2.18-2.03-2.18-5.45v-29.99h-4.93v-4.87h10.62v34.97q0 1.11.75 1.86.76.75 1.86.75h2.78v4.76zm19.31.58q-3.82 0-6.81-1.8t-4.7-5.04-1.71-7.54v-.58q0-4.24 1.74-7.46t4.73-5.01 6.81-1.8q2.84 0 5.16 1.16t3.95 3.25v-18.1h5.68v42.34h-5.16v-4.41q-1.62 2.38-4.12 3.68t-5.57 1.31m.87-4.99q3.72 0 6.18-2.61 2.47-2.61 2.47-7.02t-2.47-6.98q-2.46-2.59-6.18-2.59-3.59 0-6 2.5t-2.41 6.73v.58q0 4.29 2.41 6.84t6 2.55m50.23 4.99q-3.07 0-5.57-1.31-2.49-1.3-4.11-3.62v4.35h-5.17v-42.34H328v18.04q1.62-2.03 3.94-3.19t5.16-1.16q3.83 0 6.82 1.8 2.99 1.79 4.7 5.01t1.71 7.46v.58q0 4.29-1.68 7.54-1.69 3.24-4.67 5.04-2.99 1.8-6.82 1.8m-.87-4.99q3.54 0 5.95-2.55 2.4-2.55 2.4-6.84v-.58q0-4.24-2.4-6.73-2.41-2.5-5.95-2.5-3.71 0-6.17 2.59-2.47 2.58-2.47 6.98t2.47 7.02q2.46 2.61 6.17 2.61m30.92 4.99q-4.64 0-7.72-2.78-3.07-2.79-3.07-8.7v-17.17h5.62v16.12q0 4.12 1.8 5.72t4.58 1.59q2.9 0 4.93-1.88 2.03-1.89 2.03-5.72v-15.83h5.63v28.07h-4.99v-3.83q-1.74 2.61-4.23 3.51t-4.58.9m24.3-.58v-23.2h-5.22v-4.87h10.96v28.07zm-.23-33.93v-7.25h6.32v7.25zm22.15 33.93q-3.59 0-5.77-2.03t-2.17-5.45v-29.99h-4.93v-4.87h10.61v34.97q0 1.11.75 1.86.76.75 1.86.75h2.78v4.76zm19.32.58q-3.83 0-6.82-1.8t-4.7-5.04-1.71-7.54v-.58q0-4.24 1.74-7.46t4.73-5.01 6.81-1.8q2.85 0 5.17 1.16t3.94 3.25v-18.1h5.68v42.34h-5.16v-4.41q-1.62 2.38-4.12 3.68t-5.56 1.31m.87-4.99q3.71 0 6.17-2.61 2.47-2.61 2.47-7.02t-2.47-6.98q-2.46-2.59-6.17-2.59-3.6 0-6.01 2.5t-2.4 6.73v.58q0 4.29 2.4 6.84 2.41 2.55 6.01 2.55m30.33 4.93q-3.25 0-6-.98-2.76-.99-4.56-2.44l2.5-3.89q1.68 1.28 3.77 2.06 2.09.79 4.29.79 2.32 0 3.74-1.05 1.42-1.04 1.42-2.67 0-1.5-1.04-2.29-1.05-.78-2.7-1.24-1.65-.47-3.54-.96-1.88-.49-3.53-1.34-1.66-.84-2.73-2.37t-1.07-4.15q0-3.83 2.87-6.23t7.68-2.41q2.73 0 5.14.78t4.26 2.06l-2.55 3.83q-1.51-1.05-3.28-1.65-1.77-.61-3.63-.61-2.26 0-3.65 1.04t-1.39 2.67q0 1.51 1.07 2.29t2.79 1.25l3.59.98q1.89.52 3.6 1.39t2.78 2.44 1.07 4.18q0 2.49-1.42 4.4t-3.85 3.02-5.63 1.1m34.8-.52-7.77-28.07h5.62l5.69 22.27 6.2-22.27h5.98l6.15 22.21 5.74-22.21h5.62l-7.77 28.07h-6.55l-6.21-22.97-6.2 22.97zm38.51 0v-42.34h5.45v18.27q1.74-2.67 4.27-3.62t4.61-.96q4.75 0 7.65 3.07 2.9 3.08 2.9 8.99v16.59h-5.68v-15.72q0-4.12-1.8-5.91-1.8-1.8-4.58-1.8-2.96 0-5.05 1.97t-2.08 5.86v15.6zm41.18.58q-4.75 0-7.62-2.35t-2.88-6.06q0-2.44 1.45-4.38t3.98-3.07 5.83-1.13q4.23 0 6.9 1.62v-3.07q0-3.08-1.68-4.41-1.69-1.34-4.41-1.34-2.21 0-4.53.82t-4 2.49l-2.61-3.94q1.92-2.09 5.02-3.25t6.47-1.16q5.04 0 8.2 2.67t3.16 7.83v9.04q0 2.27.03 4.56t.15 4.55h-5.11v-2.84q-2.49 3.42-8.35 3.42m1.57-4.23q2.84 0 4.49-1.19t1.66-3.11q0-1.85-1.66-3.04-1.65-1.19-4.55-1.19-2.84 0-4.55 1.19t-1.71 3.04 1.71 3.08 4.61 1.22m29.46 3.65q-1.97 0-3.85-.73-1.89-.72-3.11-2.43t-1.22-4.73v-15.31h-4.93v-4.87h4.93v-6.9h5.69v6.9h6.9v4.87h-6.9v15.78q0 1.1.75 1.82.76.73 1.8.73h4.35v4.87zm36.37.58q-4.24 0-7.51-1.83-3.28-1.82-5.16-5.04t-1.89-7.4v-.69q0-4.24 1.91-7.46 1.92-3.22 5.2-5.01 3.27-1.8 7.45-1.8 3.07 0 5.68 1.19t4.35 3.27l-3.48 3.54q-2.49-2.78-6.55-2.78-3.83 0-6.32 2.46-2.5 2.47-2.5 6.59v.69q0 4.06 2.53 6.56t6.35 2.49q1.91 0 3.59-.67 1.68-.66 3.08-2.06l3.42 3.48q-1.74 2.09-4.41 3.28t-5.74 1.19m27.32 0q-4.06 0-7.28-1.86-3.22-1.85-5.11-5.1-1.88-3.25-1.88-7.48v-.52q0-4.18 1.88-7.4 1.89-3.22 5.11-5.05t7.28-1.82 7.25 1.82q3.19 1.83 5.04 5.02 1.86 3.19 1.86 7.37v.58q0 4.23-1.86 7.48-1.85 3.25-5.04 5.1-3.19 1.86-7.25 1.86m0-5.05q3.77 0 6.12-2.61 2.34-2.61 2.34-6.78v-.58q0-4.06-2.34-6.61-2.35-2.56-6.12-2.56t-6.15 2.59-2.38 6.64v.52q0 4.17 2.38 6.78t6.15 2.61m20.53 4.47v-28.07h5.45v3.94q1.62-2.61 3.97-3.56t4.56-.96q2.9 0 5.1 1.25 2.2 1.24 3.42 3.74 1.22-1.98 2.87-3.05t3.4-1.51 3.13-.43q4.58 0 7.45 2.93t2.87 8.84v16.88h-5.62v-16.07q0-3.88-1.66-5.62-1.65-1.74-4.43-1.74-2.79 0-4.67 1.88-1.89 1.89-1.89 5.43v16.12h-5.68v-16.07q0-3.88-1.65-5.62-1.66-1.74-4.38-1.74-2.85 0-4.73 1.88-1.89 1.89-1.89 5.43v16.12zm62.46.58q-4.23 0-7.42-1.83-3.19-1.82-4.96-5.07t-1.77-7.54v-.58q0-4.06 1.66-7.28 1.65-3.22 4.64-5.08t6.98-1.85q4.12 0 7.05 2.03t4.29 5.68.79 8.64h-19.78q.35 3.37 2.64 5.6t6.12 2.23q4.17 0 6.61-2.26l3.25 3.42q-1.69 1.92-4.3 2.9-2.61.99-5.8.99m-.87-24.53q-3.24 0-5.16 2.03-1.91 2.03-2.38 5.33h14.21q-.05-3.48-1.91-5.42t-4.76-1.94m26.63 24.47q-3.25 0-6.01-.98-2.75-.99-4.55-2.44l2.49-3.89q1.69 1.28 3.77 2.06 2.09.79 4.3.79 2.32 0 3.74-1.05 1.42-1.04 1.42-2.67 0-1.5-1.05-2.29-1.04-.78-2.69-1.24-1.66-.47-3.54-.96t-3.54-1.34q-1.65-.84-2.72-2.37t-1.08-4.15q0-3.83 2.87-6.23t7.69-2.41q2.72 0 5.13.78t4.26 2.06l-2.55 3.83q-1.51-1.05-3.27-1.65-1.77-.61-3.63-.61-2.26 0-3.65 1.04t-1.4 2.67q0 1.51 1.08 2.29 1.07.78 2.78 1.25l3.6.98q1.88.52 3.59 1.39t2.79 2.44 1.07 4.18q0 2.49-1.42 4.4t-3.86 3.02q-2.43 1.1-5.62 1.1m-619.79 66.17v-28.07h5.45v4q1.74-2.67 4.26-3.62 2.53-.96 4.61-.96 4.76 0 7.66 3.07 2.9 3.08 2.9 8.99v16.59h-5.68v-15.72q0-4.12-1.8-5.91-1.8-1.8-4.58-1.8-2.96 0-5.05 1.97t-2.09 5.86v15.6zm45.12.58q-4.23 0-7.42-1.83-3.19-1.82-4.96-5.07t-1.77-7.54v-.58q0-4.06 1.65-7.28 1.66-3.22 4.64-5.08 2.99-1.85 6.99-1.85 4.12 0 7.05 2.03t4.29 5.68.78 8.64h-19.77q.34 3.37 2.64 5.6 2.29 2.23 6.11 2.23 4.18 0 6.62-2.26l3.24 3.42q-1.68 1.92-4.29 2.9-2.61.99-5.8.99m-.87-24.53q-3.25 0-5.16 2.03t-2.38 5.33h14.21q-.06-3.48-1.91-5.42-1.86-1.94-4.76-1.94m14.44 23.95 9.75-13.98-9.46-14.09h6.67l6.62 10.44 6.61-10.44h6.55l-9.51 14.03 9.69 14.04H241l-6.85-10.32-6.72 10.32zm41.88 0q-1.97 0-3.86-.73-1.88-.72-3.1-2.43t-1.22-4.73v-15.31h-4.93v-4.87h4.93v-6.9h5.69v6.9h6.9v4.87h-6.9v15.78q0 1.1.75 1.82.75.73 1.8.73h4.35v4.87zm9.74 0v-7.13h6.67v7.13zm18.27-34.16v-6.9h6.67v10.55q0 1.8-.75 2.84-.75 1.05-1.86 1.45-1.1.41-2.26.41h-2.03v-3.25h2.03q.7 0 1.08-.43.37-.44.37-1.13v-3.54zm-10.9 0v-6.9h6.61v10.55q0 1.8-.72 2.84-.73 1.05-1.86 1.45-1.13.41-2.29.41h-2.03v-3.25h2.03q.75 0 1.1-.43.35-.44.35-1.13v-3.54z"/><path fill="#30ba78" d="M165.45 723.39q-2.19 0-3.81-.81t-2.77-2.16l2.13-2.12q1.12 1.14 2.22 1.66 1.11.52 2.34.52 1.65 0 2.59-.77t.94-2q0-.98-.53-1.57-.54-.59-1.4-.95-.87-.37-1.92-.67t-2.09-.68q-1.03-.36-1.9-.95t-1.4-1.52q-.53-.94-.53-2.4 0-1.82.85-3.16.85-1.35 2.38-2.07 1.53-.73 3.6-.73 1.87 0 3.41.67t2.52 1.79l-2.18 2.19q-.84-.87-1.75-1.31-.91-.43-2.03-.43-1.54 0-2.46.74-.93.74-.93 1.98 0 .92.53 1.45.54.53 1.42.87t1.93.62 2.1.63 1.93.93q.88.59 1.42 1.57t.53 2.49q0 1.88-.9 3.27-.89 1.38-2.5 2.15t-3.74.77m17.78 0q-3.47 0-5.53-1.79t-2.06-5.38V703.4h3.44v12.54q0 2.16 1.14 3.21 1.13 1.05 3.01 1.05 1.9 0 3.04-1.05 1.13-1.05 1.13-3.21V703.4h3.44v12.82q0 3.59-2.08 5.38t-5.53 1.79m17.08 0q-2.19 0-3.81-.81t-2.77-2.16l2.13-2.12q1.12 1.14 2.22 1.66 1.11.52 2.34.52 1.65 0 2.59-.77t.94-2q0-.98-.53-1.57-.54-.59-1.4-.95-.87-.37-1.92-.67t-2.09-.68q-1.03-.36-1.9-.95t-1.4-1.52q-.53-.94-.53-2.4 0-1.82.85-3.16.85-1.35 2.38-2.07 1.53-.73 3.6-.73 1.87 0 3.41.67t2.52 1.79l-2.18 2.19q-.84-.87-1.75-1.31-.91-.43-2.03-.43-1.54 0-2.46.74-.93.74-.93 1.98 0 .92.53 1.45.54.53 1.42.87t1.93.62 2.1.63 1.93.93q.88.59 1.42 1.57t.53 2.49q0 1.88-.9 3.27-.89 1.38-2.5 2.15t-3.74.77m13.44-.39q-1.43 0-2.34-.92-.91-.93-.91-2.36v-13.04q0-1.43.91-2.36t2.34-.92h9.55v3.14h-8.4q-.42 0-.72.29-.29.29-.29.71v4.12h8.82v3h-8.82v4.2q0 .42.29.71.3.29.72.29h8.4V723zm18.51-6.3v-3.02h25.2v3.02zm43.56 6.69q-2.77 0-4.95-1.27-2.19-1.28-3.45-3.56t-1.26-5.28v-.22q0-3 1.26-5.25t3.45-3.53 4.95-1.27q2.78 0 4.96 1.27 2.18 1.28 3.43 3.53t1.25 5.25v.22q0 3-1.25 5.28t-3.43 3.56-4.96 1.27m0-3.36q1.8 0 3.17-.82 1.37-.83 2.15-2.34.79-1.51.79-3.59v-.22q0-2.04-.79-3.56-.78-1.51-2.15-2.32t-3.17-.81-3.17.81q-1.39.81-2.17 2.32-.79 1.52-.79 3.56v.22q0 2.08.79 3.59.78 1.51 2.17 2.34 1.38.82 3.17.82m12.46 8.57v-19.24h3.03v1.71q.78-.92 1.9-1.45 1.12-.54 2.44-.54 1.82 0 3.29.89 1.47.88 2.31 2.45.84 1.56.84 3.61v.28q0 2.1-.84 3.67t-2.28 2.43-3.29.87q-1.26 0-2.33-.48-1.06-.47-1.85-1.31v7.11zm6.86-8.15q1.57 0 2.65-1.12t1.08-3.02v-.28q0-1.91-1.08-3t-2.65-1.09q-1.65 0-2.74 1.13-1.09 1.14-1.09 3.13 0 1.96 1.09 3.1t2.74 1.15m15.91 2.83q-2.05 0-3.6-.88t-2.42-2.47-.87-3.68v-.28q0-1.93.8-3.5t2.27-2.48 3.43-.91q2.04 0 3.5 1 1.45.99 2.12 2.81t.37 4.29h-9.3q.17 1.42 1.16 2.36 1 .94 2.71.94 1 0 1.73-.28t1.32-.84l1.82 1.9q-.81 1.01-2.12 1.52-1.3.5-2.92.5m-.37-11.59q-1.42 0-2.24.88-.81.88-1.03 2.31h6.16q-.06-1.51-.86-2.35-.79-.84-2.03-.84m8.88 11.31v-13.64h3.11v1.74q.84-1.2 2-1.61t2.11-.41q2.3 0 3.69 1.5 1.38 1.5 1.38 4.3V723h-3.22v-7.59q0-1.79-.77-2.59t-1.97-.8q-1.32 0-2.21.89-.9.88-.9 2.56V723zm29.46.28q-1.38 0-2.52-.56t-1.96-1.54V723h-2.92v-20.44h3.22v8.32q.76-.84 1.82-1.32 1.07-.48 2.33-.48 1.82 0 3.29.89 1.47.88 2.31 2.45.84 1.56.84 3.61v.28q0 2.1-.84 3.67t-2.28 2.43-3.29.87m-.54-2.83q1.57 0 2.65-1.12t1.08-3.02v-.28q0-1.91-1.08-3t-2.65-1.09q-1.65 0-2.74 1.13-1.09 1.14-1.09 3.13 0 1.96 1.09 3.1t2.74 1.15m8.52 8.15v-2.74h2.96q.4 0 .62-.23.22-.22.39-.59l.84-1.84-5.54-13.84h3.58l3.7 9.89 3.36-9.89h3.58l-6.3 15.82q-.31.79-.78 1.59-.48.79-1.33 1.31t-2.28.52zm26.79-5.32q-1.85 0-3.3-.87-1.46-.87-2.3-2.43-.84-1.57-.84-3.67v-.28q0-2.05.86-3.61.85-1.57 2.31-2.45 1.45-.89 3.3-.89 1.26 0 2.31.48t1.83 1.32v-8.32h3.22V723h-2.91v-1.85q-.81 1.01-1.96 1.57t-2.52.56m.51-2.83q1.65 0 2.75-1.15 1.11-1.14 1.11-3.1 0-1.99-1.11-3.13-1.1-1.13-2.75-1.13-1.54 0-2.64 1.09-1.09 1.09-1.09 3v.28q0 1.9 1.09 3.02 1.1 1.12 2.64 1.12m16.68 2.83q-2.04 0-3.59-.88-1.56-.88-2.43-2.47-.86-1.58-.86-3.68v-.28q0-1.93.79-3.5.8-1.57 2.27-2.48t3.43-.91q2.05 0 3.5 1 1.46.99 2.13 2.81t.36 4.29h-9.29q.17 1.42 1.16 2.36t2.7.94q1.01 0 1.74-.28t1.31-.84l1.82 1.9q-.81 1.01-2.11 1.52-1.3.5-2.93.5m-.36-11.59q-1.43 0-2.24.88t-1.04 2.31h6.16q-.05-1.51-.85-2.35t-2.03-.84m12.96 11.56q-1.62 0-2.98-.47-1.36-.48-2.25-1.18l1.4-2.21q.81.59 1.8.96 1 .38 2.03.38 1.01 0 1.61-.42t.61-1.09-.49-1.01-1.28-.54l-1.66-.44q-.89-.22-1.67-.64t-1.29-1.19-.5-2.03q0-1.88 1.43-3.08 1.42-1.21 3.83-1.21 1.35 0 2.55.37 1.2.36 2.16 1.01l-1.43 2.15q-1.57-1.06-3.31-1.06-.98 0-1.56.43-.59.44-.59 1.11 0 .61.52.96.51.35 1.31.56t1.7.47 1.69.68q.8.44 1.32 1.21.51.77.51 2.03t-.7 2.21-1.93 1.5-2.83.54m9.47-.25v-10.89h-2.47v-2.75h5.72V723zm-.14-16.35v-3.73h3.58v3.73zm6.02 21.95v-2.66h8.26q1.37 0 1.37-1.23 0-1.15-1.37-1.15h-4.73q-1.1 0-1.68-.53-.59-.53-.68-1.36-.08-.83.34-1.69l.87-1.74q-1.04-.67-1.61-1.69-.58-1.03-.58-2.31v-.26q0-1.42.77-2.53t2.13-1.74 3.15-.63h.28l1.23-2.66h3.25l-1.76 3.22q1.4.62 2.21 1.74t.81 2.58v.28q0 1.48-.77 2.61-.77 1.14-2.13 1.78t-3.12.65q-.67 0-1.29-.09l-.56 1.15q-.14.22-.08.46t.45.24h3.97q1.74 0 2.83.9 1.09.89 1.09 2.82 0 1.66-1.13 2.75t-2.93 1.09zm6.24-11.79q.65 0 1.3-.24.66-.23 1.11-.82t.45-1.63q0-1.09-.8-1.76t-2.06-.67q-1.29 0-2.08.67-.8.67-.8 1.76 0 1.04.45 1.63.44.59 1.1.82.66.24 1.33.24m8.93 6.19v-13.64h3.11v1.74q.84-1.2 2-1.61t2.12-.41q2.29 0 3.68 1.5t1.39 4.3V723h-3.22v-7.59q0-1.79-.77-2.59t-1.98-.8q-1.31 0-2.21.89-.9.88-.9 2.56V723z"/><svg xmlns="http://www.w3.org/2000/svg" xmlns:c2pa="http://c2pa.org/manifest" width="240" height="84" x="150" y="850" viewBox="0 0 210.6 38.09"><path fill="#0c322c" d="M208.46 27.03h-13.55a1.9 1.9 0 0 1-1.9-1.9v-6.85h13.09a2.04 2.04 0 1 0 0-4.07H193V7.47c0-1.04.85-1.9 1.9-1.9h13.55a2.14 2.14 0 1 0 0-4.27H194.9a6.2 6.2 0 0 0-6.17 6.17v17.66a6.2 6.2 0 0 0 6.17 6.17h13.55a2.14 2.14 0 1 0 0-4.27M168.6 14.27q-4.3-.78-5.97-1.84-1.68-1.06-1.68-2.87 0-1.94 1.72-3.19 1.72-1.24 4.85-1.24 3.16 0 5.06 1.22 1.03.66 1.87 1.75A2.32 2.32 0 1 0 178 5.14a12 12 0 0 0-3.5-2.73q-2.92-1.5-7.04-1.5-3.53 0-6.18 1.23-2.65 1.22-4.05 3.3a8 8 0 0 0-1.4 4.62q0 2.4 1.1 4.07 1.12 1.68 3.56 2.8 2.44 1.14 6.56 1.9 4.12.78 5.77 1.77 1.66 1 1.65 2.62 0 2.05-1.83 3.15-1.83 1.11-5.04 1.11-3.4 0-5.68-1.27a9 9 0 0 1-2.34-1.92 2.3 2.3 0 0 0-3.37-.09v.01a2.3 2.3 0 0 0-.12 3.16q3.87 4.32 11.55 4.32 3.53 0 6.22-1.07 2.7-1.06 4.19-3.05t1.5-4.62q0-2.44-1.1-4.09-1.08-1.65-3.46-2.76t-6.4-1.83m-66.83 0q-4.3-.77-5.97-1.83-1.68-1.06-1.68-2.87 0-1.95 1.72-3.2t4.84-1.24q3.17 0 5.07 1.23 1.03.66 1.87 1.75a2.32 2.32 0 1 0 3.56-2.96 12 12 0 0 0-3.5-2.73q-2.92-1.5-7.04-1.5-3.53 0-6.18 1.23-2.65 1.22-4.05 3.3a8 8 0 0 0-1.4 4.62q0 2.4 1.1 4.07 1.12 1.68 3.56 2.8 2.44 1.14 6.56 1.9 4.12.78 5.77 1.77 1.65 1 1.65 2.63 0 2.03-1.83 3.14t-5.05 1.11q-3.4 0-5.68-1.27a9 9 0 0 1-2.33-1.92 2.3 2.3 0 0 0-3.37-.09v.01a2.3 2.3 0 0 0-.12 3.16q3.87 4.32 11.55 4.32 3.53 0 6.22-1.07t4.19-3.05 1.5-4.62q0-2.44-1.1-4.1t-3.46-2.75-6.4-1.83m44.57-10.92v16.43q0 5.88-3.12 8.89t-9.1 3.01-9.1-3.01q-3.11-3.01-3.11-8.9V3.37a2.44 2.44 0 0 1 4.88 0V19.2q0 4.25 1.8 6.27t5.54 2.01 5.54-2.01 1.79-6.27V3.36a2.44 2.44 0 0 1 4.88 0"/><path fill="#30ba78" d="M71.4 13.46a1.2 1.2 0 0 1-1.35 0 1.23 1.23 0 0 1-.19-1.9 1.2 1.2 0 0 1 1.74 0c.54.54.47 1.46-.2 1.9m1.94-2.69a4.55 4.55 0 0 1-5.46 5.47 4.6 4.6 0 0 1-3.4-3.4 4.55 4.55 0 0 1 5.47-5.45 4.6 4.6 0 0 1 3.4 3.39M51.22 28.44q.59.8.86 1.58c.13.37.29.85.65 1.05l.06.03c.67.24 2.4.2 2.4.2h3.16c.27 0 2.66 0 2.6-.27-.3-1.27-1.76-1.5-2.88-2.17-1.04-.61-2.02-1.31-2.46-2.51-.23-.62-.1-2.05.3-2.57a2 2 0 0 1 1.18-.73c.52-.1 1.05-.01 1.56.04.63.06 1.25.18 1.88.25q1.81.23 3.65.2a20 20 0 0 0 5.95-1.04 14 14 0 0 0 3.79-1.9c1.29-.95.95-.86-.36-.73q-2.35.23-4.71.1a10 10 0 0 1-4.24-.95 10 10 0 0 1-2.77-1.91.6.6 0 0 1 .03-.73c.22-.23.68-.1.82.03 1.45 1.2 3.6 2.2 5.83 2.3q1.79.11 3.59.04c.6-.03 1.51-.03 2.12-.03.3-.01 1.16.08 1.32-.25q.06-.14.04-.32C75.42 13.33 75.06 7.9 70 5.58c-3.76-1.72-9.41-4.4-11.8-5.5a.85.85 0 0 0-1.2.77c0 1.61.08 3.93.08 6.04-1.14-1.17-3.07-1.9-4.53-2.58a43 43 0 0 0-5.14-1.96A55 55 0 0 0 36.6.23a42 42 0 0 0-12.5.63 38.6 38.6 0 0 0-18.4 9.38C2.6 13.15.19 17.3.02 21.5c-.23 5.94 1.43 9.13 4.5 12.42 4.87 5.24 15.38 5.98 19.63-.24 1.91-2.8 2.33-6.6.94-9.69a9.3 9.3 0 0 0-7.97-5.43c-2.62-.1-5.42 1.25-6.43 3.67a5.3 5.3 0 0 0 1.07 5.6c.54.55 1.28 1.01 2.09.83.47-.1.87-.46.94-.94.1-.71-.51-1.17-.9-1.72a2.64 2.64 0 0 1 .32-3.3c.73-.7 1.8-.92 2.82-.91.95 0 1.92.17 2.73.64a4.8 4.8 0 0 1 2.17 3.22c.8 3.9-2.38 7.07-6.68 7.32a9 9 0 0 1-6.16-1.83c-4.35-3.5-5.42-10.65-.45-14.47 4.72-3.62 10.68-2.69 14.2-.8 2.81 1.5 4.9 3.97 6.5 6.7a39 39 0 0 1 2.1 4.25c.6 1.4 1.17 2.81 2.39 3.84.8.68 1.8.65 2.84.65h6c.82 0 .63-.54.27-.9-.8-.82-1.94-1-3-1.3-2.42-.66-2.17-3.86-1.5-3.86 2.16 0 2.23.06 4.13.04 2.73-.04 3.56-.2 5.7.6a7 7 0 0 1 2.96 2.56"/></svg></svg>