<svg xmlns="http://www.w3.org/2000/svg" width="1080" height="1080" viewBox="0 0 1080 1080"><path fill="#30ba78" d="M0 0h1080v360H0z"/><svg xmlns="http://www.w3.org/2000/svg" xmlns:c2pa="http://c2pa.org/manifest" width="300" height="110" x="89" y="120" viewBox="0 0 210.18 37.67"><path fill="#fff" d="M194.7 30.87a5.96 5.96 0 0 1-5.96-5.96V7.26a5.97 5.97 0 0 1 5.96-5.96h13.55c1.07 0 1.93.86 1.93 1.92a1.93 1.93 0 0 1-1.93 1.92H194.7a2.1 2.1 0 0 0-2.1 2.11v6.95h13.29c1 0 1.82.82 1.82 1.83a1.83 1.83 0 0 1-1.82 1.82h-13.3v7.06a2.1 2.1 0 0 0 2.1 2.11h13.56c1.07 0 1.93.87 1.93 1.93a1.93 1.93 0 0 1-1.93 1.92zm-60.78.39c-3.91 0-6.92-1-8.95-2.95s-3.06-4.9-3.06-8.74V3.14c0-1.23 1-2.23 2.23-2.23a2.23 2.23 0 0 1 2.23 2.23v15.84q0 4.34 1.84 6.41 1.86 2.08 5.7 2.09 3.86 0 5.7-2.09c1.23-1.37 1.85-3.53 1.85-6.4V3.13A2.24 2.24 0 0 1 143.69.9a2.23 2.23 0 0 1 2.23 2.23v16.43c0 3.84-1.03 6.78-3.06 8.74s-5.04 2.95-8.94 2.95m33.52 0c-5.03 0-8.87-1.43-11.4-4.25a2.1 2.1 0 0 1 .11-2.86l.01-.01.01-.01a2 2 0 0 1 1.5-.62c.6 0 1.16.26 1.55.7a9 9 0 0 0 2.4 1.97q2.33 1.3 5.78 1.3 3.26 0 5.15-1.14A3.7 3.7 0 0 0 174.5 23q-.01-1.74-1.76-2.8c-1.13-.69-3.04-1.27-5.84-1.8q-4.08-.76-6.5-1.88a8 8 0 0 1-3.47-2.73 7 7 0 0 1-1.08-3.96 8 8 0 0 1 1.37-4.5 9.4 9.4 0 0 1 3.96-3.23q2.6-1.2 6.1-1.2 4.06 0 6.93 1.47a12 12 0 0 1 3.45 2.68c.77.86.7 2.2-.16 2.97a2.1 2.1 0 0 1-3.08-.28 8 8 0 0 0-1.92-1.8q-1.96-1.25-5.18-1.25-3.19 0-4.97 1.28a4 4 0 0 0-1.8 3.36q0 1.92 1.77 3.06c1.14.72 3.12 1.33 6.04 1.86q4 .72 6.35 1.81a8 8 0 0 1 3.38 2.69 7 7 0 0 1 1.05 3.98q0 2.55-1.45 4.49a9 9 0 0 1-4.1 2.98q-2.64 1.05-6.14 1.05m-66.83 0c-5.03 0-8.87-1.42-11.4-4.24a2.1 2.1 0 0 1 .11-2.87l.02-.01a2.1 2.1 0 0 1 3.05.08 9 9 0 0 0 2.4 1.97q2.33 1.3 5.78 1.3 3.27 0 5.15-1.15a3.7 3.7 0 0 0 1.94-3.32q-.01-1.75-1.76-2.8c-1.13-.69-3.04-1.28-5.84-1.8q-4.08-.76-6.51-1.88a8 8 0 0 1-3.46-2.73A7 7 0 0 1 89 9.85a8 8 0 0 1 1.37-4.5 9.4 9.4 0 0 1 3.96-3.23q2.61-1.2 6.09-1.2 4.07 0 6.94 1.47a12 12 0 0 1 3.45 2.68 2.1 2.1 0 0 1-1.57 3.51 2.1 2.1 0 0 1-1.67-.82 8 8 0 0 0-1.92-1.8q-1.96-1.25-5.18-1.26-3.2 0-4.97 1.29a4 4 0 0 0-1.8 3.36q0 1.92 1.76 3.05c1.15.73 3.13 1.34 6.06 1.87a27 27 0 0 1 6.35 1.81 8 8 0 0 1 3.37 2.69 7 7 0 0 1 1.05 3.98q0 2.55-1.45 4.48a9 9 0 0 1-4.1 3q-2.64 1.04-6.14 1.04M70.97 11.39a1.17 1.17 0 0 0-1.68 0 1.2 1.2 0 0 0 .19 1.83c.39.25.9.25 1.3 0a1.2 1.2 0 0 0 .19-1.83m-1.56-4.2a4.55 4.55 0 0 0-5.46 5.47 4.6 4.6 0 0 0 3.4 3.4 4.55 4.55 0 0 0 5.46-5.47 4.6 4.6 0 0 0-3.4-3.4M14.6 37.68c-3.9 0-7.78-1.58-10.14-4.12C1.54 30.44-.21 27.29.02 21.29c.15-3.78 2.25-7.93 5.61-11.1A38 38 0 0 1 23.93.85a41 41 0 0 1 8.25-.83q2.1 0 4.17.2c3.87.4 7.5 1.1 10.8 2.13a42 42 0 0 1 5.1 1.94l.71.32c1.33.59 2.83 1.25 3.77 2.21l.36.37v-.52q0-1.7-.04-3.4Q57.01 1.8 57 .64c0-.4.33-.64.64-.64q.14 0 .26.06l3.14 1.47c2.72 1.27 6.1 2.86 8.67 4.03a8.2 8.2 0 0 1 4.5 5.22c.72 2.18.86 4.63.96 7.17q0 .14-.02.21c-.02.03-.1.14-.68.14h-.98c-.54 0-1.15 0-1.6.02a31 31 0 0 1-3.57-.03c-2-.1-4.13-.94-5.7-2.26-.14-.12-.4-.2-.62-.2a.7.7 0 0 0-.5.2.8.8 0 0 0-.02 1.02 10.4 10.4 0 0 0 7.15 2.91 32 32 0 0 0 4.74-.1l.24-.01q.3-.04.52-.05l-.55.43a13 13 0 0 1-3.72 1.86 20 20 0 0 1-5.9 1.02h-.61q-1.5 0-3-.19l-.79-.1q-.54-.1-1.1-.15l-.27-.03a7 7 0 0 0-.79-.06q-.3 0-.56.05a2.2 2.2 0 0 0-1.3.8c-.46.6-.59 2.13-.34 2.78.48 1.31 1.57 2.04 2.55 2.63q.48.28.99.49c.81.36 1.52.68 1.75 1.41-.3.08-1.21.14-2.22.14H54.7c-.96 0-1.7-.07-2.04-.2h-.03c-.29-.16-.43-.58-.54-.93v-.01a7 7 0 0 0-.9-1.64 7 7 0 0 0-3.06-2.64 9 9 0 0 0-3.56-.65l-1.15.02-1.07.02h-.79l-1.28-.01c-.49-.01-1.05-.03-2.05-.03-.33 0-.57.35-.65.94-.14 1.07.3 2.85 2.1 3.35l.49.13c.87.22 1.78.45 2.41 1.1.2.21.27.4.24.46-.01.03-.1.09-.35.09h-6.22c-1.04 0-1.83-.05-2.5-.6-1.11-.95-1.66-2.21-2.23-3.55l-.1-.22a40 40 0 0 0-2.11-4.28c-1.83-3.13-4.04-5.42-6.58-6.78-2-1.07-4.5-1.68-6.84-1.68-2.82 0-5.45.87-7.59 2.51a8.5 8.5 0 0 0-3.38 6.77 10.4 10.4 0 0 0 3.82 8.04 9 9 0 0 0 5.7 1.9q.3 0 .6-.03a7.8 7.8 0 0 0 5.8-2.82 5.8 5.8 0 0 0 1.1-4.75 5 5 0 0 0-2.28-3.36 5.6 5.6 0 0 0-2.84-.68h-.02q-1.96 0-2.95.98c-.94.9-1.09 2.5-.34 3.57l.32.41c.33.38.6.72.54 1.16a1 1 0 0 1-.78.76l-.31.04c-.65 0-1.22-.44-1.58-.82a5.1 5.1 0 0 1-1.03-5.36c1.02-2.45 3.75-3.55 6-3.55h.23a9.1 9.1 0 0 1 7.79 5.32 10 10 0 0 1-.93 9.48c-1.88 2.75-5.22 4.33-9.16 4.33m57.07-26.05a3.3 3.3 0 1 1-6.6 0 3.3 3.3 0 1 1 6.6 0"/></svg><path fill="#0c322c" d="M115.09 530.95q-5.31 0-9.25-1.97t-6.73-5.24l5.17-5.16q2.72 2.78 5.4 4.04t5.68 1.26q4.01 0 6.29-1.87t2.28-4.86q0-2.38-1.29-3.81-1.3-1.43-3.4-2.31-2.11-.89-4.66-1.63-2.55-.75-5.07-1.64-2.51-.88-4.62-2.31t-3.4-3.7-1.29-5.82q0-4.42 2.07-7.68 2.07-3.27 5.78-5.03t8.74-1.77q4.55 0 8.29 1.63t6.12 4.35l-5.3 5.31q-2.04-2.11-4.25-3.17-2.21-1.05-4.93-1.05-3.74 0-5.98 1.8t-2.25 4.8q0 2.24 1.29 3.53 1.3 1.29 3.44 2.11t4.69 1.5 5.1 1.53 4.69 2.27 3.44 3.81 1.29 6.05q0 4.56-2.18 7.93-2.17 3.36-6.08 5.23t-9.08 1.87m43.18 0q-8.43 0-13.43-4.35t-5-13.06V482.4h8.36v30.46q0 5.24 2.76 7.79t7.31 2.55q4.62 0 7.38-2.55t2.75-7.79V482.4h8.36v31.14q0 8.71-5.06 13.06-5.07 4.35-13.43 4.35m41.48 0q-5.31 0-9.25-1.97t-6.73-5.24l5.17-5.16q2.72 2.78 5.4 4.04t5.68 1.26q4.01 0 6.29-1.87t2.28-4.86q0-2.38-1.29-3.81-1.3-1.43-3.4-2.31-2.11-.89-4.66-1.63-2.55-.75-5.07-1.64-2.51-.88-4.62-2.31t-3.4-3.7-1.29-5.82q0-4.42 2.07-7.68 2.07-3.27 5.78-5.03t8.74-1.77q4.55 0 8.29 1.63t6.12 4.35l-5.3 5.31q-2.04-2.11-4.25-3.17-2.21-1.05-4.93-1.05-3.74 0-5.98 1.8t-2.25 4.8q0 2.24 1.29 3.53 1.3 1.29 3.44 2.11t4.69 1.5 5.1 1.53 4.69 2.27 3.44 3.81 1.29 6.05q0 4.56-2.18 7.93-2.17 3.36-6.08 5.23t-9.08 1.87m32.64-.95q-3.47 0-5.68-2.24t-2.21-5.72v-31.68q0-3.47 2.21-5.72t5.68-2.24h23.19v7.62h-20.4q-1.02 0-1.74.71-.71.71-.71 1.73v10h21.42v7.28h-21.42v10.2q0 1.02.71 1.73.72.71 1.74.71h20.4V530zm54.81 0q-3.47 0-5.72-2.24t-2.24-5.72V482.4h8.36v37.26q0 1.09.72 1.81.71.71 1.73.71h19.18V530zm28.15 0v-26.45h-5.99v-6.67h13.88V530zm-.34-39.71v-9.05h8.7v9.05zM332.28 530v-33.12h7.55v4.22q2.04-2.92 4.86-3.91t5.13-.99q5.58 0 8.95 3.64t3.36 10.44V530h-7.82v-18.43q0-4.35-1.87-6.29t-4.79-1.94q-3.2 0-5.37 2.15-2.18 2.14-2.18 6.22V530zm50.86.68q-5.44 0-9.07-3.3-3.64-3.3-3.64-10.1v-20.4h7.82v18.91q0 4.28 1.87 6.02t4.79 1.73q3.13 0 5.2-2.01t2.08-6.08v-18.57h7.82V530h-6.8v-4.01q-2.11 2.79-4.93 3.74t-5.14.95m22.04-.68 11.28-16.52-10.94-16.6h9.18l7.07 11.56 7-11.56h9.05l-11.02 16.53L437.95 530h-9.25l-7.27-11.42-7.14 11.42zm61.4 0q-3.47 0-5.68-2.24t-2.21-5.72v-31.68q0-3.47 2.21-5.72t5.68-2.24h23.19v7.62h-20.4q-1.02 0-1.74.71-.71.71-.71 1.73v10h21.42v7.28h-21.42v10.2q0 1.02.71 1.73.72.71 1.74.71h20.4V530zm30.46 0v-33.12h7.55v4.22q2.04-2.92 4.86-3.91t5.14-.99q5.57 0 8.94 3.64t3.37 10.44V530h-7.82v-18.43q0-4.35-1.87-6.29t-4.8-1.94q-3.19 0-5.37 2.15t-2.18 6.22V530zm50.73 0q-2.38 0-4.72-.82-2.35-.81-3.91-2.95-1.57-2.15-1.57-5.95v-16.73h-5.64v-6.67h5.64v-8.09h7.82v8.09h7.69v6.67h-7.69v17.34q0 1.02.72 1.73.71.72 1.73.72h5.24V530zm26.05.68q-4.97 0-8.74-2.14t-5.88-5.99-2.11-8.94v-.68q0-4.69 1.94-8.5 1.93-3.81 5.5-6.02t8.33-2.21q4.97 0 8.5 2.42t5.17 6.83q1.63 4.42.89 10.41h-22.58q.41 3.46 2.82 5.74 2.42 2.28 6.56 2.28 2.45 0 4.22-.68t3.2-2.04l4.42 4.62q-1.98 2.45-5.14 3.68-3.16 1.22-7.1 1.22m-.89-28.15q-3.47 0-5.44 2.14t-2.51 5.61h14.96q-.14-3.67-2.08-5.71t-4.93-2.04M594.49 530v-33.12h7.55v4.83q1.22-2.85 3.6-3.98t5.3-1.12h2.72v7.75h-3.33q-3.87 0-5.95 1.77-2.07 1.77-2.07 5.17V530zm24.95 13.6v-46.72h7.35v4.15q1.9-2.24 4.62-3.53 2.72-1.3 5.92-1.3 4.42 0 7.99 2.15t5.61 5.95 2.04 8.77v.68q0 5.1-2.04 8.91-2.04 3.8-5.54 5.91t-7.99 2.11q-3.06 0-5.65-1.16-2.58-1.15-4.49-3.19v17.27zm16.66-19.79q3.81 0 6.43-2.72t2.62-7.34v-.68q0-4.63-2.62-7.28t-6.43-2.65q-4.01 0-6.66 2.75t-2.65 7.59q0 4.76 2.65 7.54t6.66 2.79m23.94 6.19v-33.12h7.55v4.83q1.22-2.85 3.6-3.98t5.31-1.12h2.72v7.75h-3.34q-3.87 0-5.95 1.77-2.07 1.77-2.07 5.17V530zm27.74 0v-26.45h-5.98v-6.67h13.87V530zm-.34-39.71v-9.05h8.71v9.05zm27.2 40.32q-3.94 0-7.24-1.15-3.3-1.16-5.47-2.86l3.4-5.37q1.97 1.43 4.38 2.34 2.42.92 4.93.92 2.45 0 3.91-1.02 1.47-1.02 1.47-2.65t-1.19-2.45q-1.19-.81-3.1-1.32-1.9-.51-4.04-1.06-2.15-.54-4.05-1.56t-3.13-2.89-1.22-4.93q0-4.56 3.47-7.48 3.46-2.93 9.31-2.93 3.27 0 6.19.89 2.92.88 5.24 2.45l-3.47 5.23q-3.81-2.58-8.03-2.58-2.38 0-3.8 1.05-1.43 1.06-1.43 2.69 0 1.49 1.26 2.34 1.25.85 3.19 1.36t4.12 1.13 4.11 1.66q1.94 1.06 3.2 2.93 1.25 1.87 1.25 4.93t-1.7 5.37-4.69 3.64-6.87 1.32m34.75.07q-4.96 0-8.74-2.14-3.77-2.14-5.88-5.99-2.11-3.84-2.11-8.94v-.68q0-4.69 1.94-8.5t5.51-6.02 8.33-2.21q4.96 0 8.5 2.42t5.17 6.83q1.63 4.42.88 10.41h-22.57q.4 3.46 2.82 5.74t6.56 2.28q2.45 0 4.22-.68t3.19-2.04l4.42 4.62q-1.97 2.45-5.13 3.68-3.16 1.22-7.11 1.22m-.88-28.15q-3.47 0-5.44 2.14t-2.52 5.61h14.96q-.13-3.67-2.07-5.71t-4.93-2.04M786.52 530v-7.62h11.49v-30.32q0-2.04-2.04-2.04h-9.59v-7.62h11.84q3.46 0 5.67 2.21t2.21 5.68v32.09h11.29V530zm55.56.68q-5.38 0-9.29-2.01t-6.05-5.74-2.14-8.77q0-3.34 1.39-6.74 1.4-3.4 3.85-6.93l12.44-18.09h9.93l-12.65 17.07q2.04-.61 4.22-.61 4.62 0 8.16 2.04 3.53 2.04 5.5 5.61t1.98 8.12q0 4.9-2.18 8.5-2.18 3.61-6.09 5.58t-9.07 1.97m-.14-7.14q4.01 0 6.53-2.48 2.51-2.48 2.51-6.36 0-3.94-2.51-6.46-2.52-2.52-6.39-2.52-4.08 0-6.57 2.52-2.48 2.52-2.48 6.46t2.45 6.39 6.46 2.45"/><path fill="#30ba78" d="M884.37 530v-26.45h-5.98v-6.67h13.87V530zm-.34-39.71v-9.05h8.71v9.05zm27.2 40.32q-3.94 0-7.24-1.15-3.3-1.16-5.47-2.86l3.4-5.37q1.97 1.43 4.38 2.34 2.42.92 4.93.92 2.45 0 3.91-1.02 1.47-1.02 1.47-2.65t-1.19-2.45q-1.19-.81-3.1-1.32-1.9-.51-4.04-1.06-2.15-.54-4.05-1.56t-3.13-2.89-1.22-4.93q0-4.56 3.47-7.48 3.46-2.93 9.31-2.93 3.27 0 6.19.89 2.92.88 5.24 2.45l-3.47 5.23q-3.81-2.58-8.03-2.58-2.38 0-3.8 1.05-1.43 1.06-1.43 2.69 0 1.49 1.26 2.34 1.25.85 3.19 1.36t4.12 1.13 4.11 1.66q1.94 1.06 3.2 2.93 1.25 1.87 1.25 4.93t-1.7 5.37-4.69 3.64-6.87 1.32m-809.67 75.55v-49.64h7.54v20.74q2.04-2.92 4.87-3.91 2.82-.99 5.13-.99 5.58 0 8.94 3.64 3.37 3.64 3.37 10.44v19.72h-7.82v-18.43q0-4.35-1.87-6.29t-4.8-1.94q-3.19 0-5.37 2.15-2.17 2.14-2.17 6.22v18.29zm53.24.68q-4.96 0-8.74-2.14-3.77-2.14-5.88-5.99-2.11-3.84-2.11-8.94v-.68q0-4.69 1.94-8.5t5.51-6.02 8.33-2.21q4.96 0 8.5 2.42 3.53 2.41 5.17 6.83 1.63 4.42.88 10.41h-22.58q.41 3.46 2.83 5.74t6.56 2.28q2.45 0 4.21-.68 1.77-.68 3.2-2.04l4.42 4.62q-1.97 2.45-5.13 3.68-3.17 1.22-7.11 1.22m-.88-28.15q-3.47 0-5.44 2.14t-2.52 5.61h14.96q-.14-3.67-2.07-5.71-1.94-2.04-4.93-2.04m21.55 27.47v-33.12h7.55v4.83q1.22-2.85 3.6-3.98t5.31-1.12h2.72v7.75h-3.33q-3.88 0-5.95 1.77t-2.08 5.17v18.7zm38.22.68q-4.97 0-8.74-2.14t-5.88-5.99-2.11-8.94v-.68q0-4.69 1.94-8.5t5.51-6.02 8.33-2.21q4.96 0 8.5 2.42 3.53 2.41 5.16 6.83t.89 10.41h-22.58q.41 3.46 2.82 5.74 2.42 2.28 6.57 2.28 2.44 0 4.21-.68t3.2-2.04l4.42 4.62q-1.97 2.45-5.14 3.68-3.16 1.22-7.1 1.22m-.89-28.15q-3.46 0-5.44 2.14-1.97 2.14-2.51 5.61h14.96q-.14-3.67-2.08-5.71-1.93-2.04-4.93-2.04"/><path fill="#0c322c" d="M108.91 808.45q-3.06 0-5.38-1.36-2.33-1.37-3.66-3.77-1.34-2.4-1.34-5.55v-.51q0-3.15 1.35-5.56 1.35-2.42 3.73-3.78 2.39-1.37 5.51-1.37 1.83 0 3.45.59 1.62.58 2.94 1.69l-1.35 1.44q-1.05-.93-2.35-1.36-1.31-.44-2.69-.44-2.49 0-4.43 1.13t-3.01 3.1-1.08 4.56v.51q0 2.58 1.07 4.56 1.06 1.98 2.94 3.09t4.33 1.11q2.19 0 3.8-1.03 1.6-1.04 2.48-2.79.89-1.76.83-3.86h-5.79v-1.71H118q.24 2.4-.28 4.46-.53 2.05-1.73 3.6-1.2 1.54-3 2.4t-4.08.85m18.72-.15q-2.1 0-3.72-.94-1.62-.95-2.52-2.61-.9-1.67-.9-3.86v-.3q0-2.1.84-3.72t2.32-2.56 3.47-.95q2.01 0 3.45.99t2.11 2.79.41 4.2h-10.71q.06 1.47.74 2.66.67 1.18 1.84 1.86 1.17.67 2.73.67 2.37 0 3.72-1.17l1.08 1.23q-.81.81-2.08 1.26-1.28.45-2.78.45m-.51-13.26q-1.98 0-3.22 1.29t-1.49 3.42h8.88q.03-2.16-1.12-3.43-1.16-1.28-3.05-1.28m9.63 12.96v-14.34h1.83v2.55q.57-1.08 1.43-1.69.85-.62 1.78-.89t1.74-.27q2.43 0 3.96 1.55 1.53 1.54 1.53 4.72V808h-1.92v-8.13q0-2.52-1.14-3.63t-2.88-1.11q-1.2 0-2.2.54t-1.61 1.59-.6 2.64v8.1zm22.95.3q-2.1 0-3.72-.94-1.62-.95-2.52-2.61-.9-1.67-.9-3.86v-.3q0-2.1.84-3.72t2.32-2.56q1.49-.95 3.47-.95 2.01 0 3.45.99t2.12 2.79q.67 1.8.4 4.2h-10.71q.06 1.47.73 2.66.68 1.18 1.85 1.86 1.17.67 2.73.67 2.37 0 3.72-1.17l1.08 1.23q-.81.81-2.09 1.26t-2.77.45m-.51-13.26q-1.98 0-3.22 1.29t-1.49 3.42h8.88q.03-2.16-1.12-3.43-1.16-1.28-3.05-1.28m9.63 12.96v-14.34h1.86V796q.54-1.38 1.61-1.87 1.06-.5 2.41-.5h1.23v1.89h-1.38q-1.77 0-2.79.92-1.02.91-1.02 2.86v8.7zm13.68.3q-2.49 0-3.96-1.17t-1.47-3.06q0-1.26.72-2.22t2-1.51 2.92-.56q1.32 0 2.33.32 1 .31 1.69.88v-2.22q0-1.95-.99-2.8-.99-.86-2.67-.86-1.2 0-2.44.44-1.25.43-2.09 1.39l-.93-1.35q.96-1.11 2.46-1.66 1.5-.56 3.09-.56 2.46 0 3.96 1.32t1.5 3.99v4.56q0 2.4.09 4.77H187l-.03-1.56q-1.29 1.86-4.47 1.86m.45-1.47q1.83 0 2.81-.78.97-.78.97-1.98 0-1.23-.99-1.98t-2.82-.75q-1.8 0-2.85.75t-1.05 1.98q0 1.2 1.05 1.98t2.88.78m13.89 1.17q-1.65 0-2.65-.96-1.01-.96-1.01-2.55v-16.74h-2.76v-1.65h4.68v18.42q0 .78.53 1.31.52.52 1.3.52h1.29V808zm7.8 0q-1.65 0-2.65-.96-1.01-.96-1.01-2.55v-16.74h-2.76v-1.65h4.68v18.42q0 .78.53 1.31.52.52 1.3.52h1.29V808zm1.71 6v-1.65h2.73q.75 0 1.19-.52.43-.53.7-1.22l1.11-2.49-5.94-14.46h2.1l4.86 12.12 4.71-12.12h2.1l-6.99 17.01q-.33.81-.79 1.58-.47.76-1.22 1.26-.75.49-1.92.49zm27.27-5.7q-2.49 0-3.96-1.17t-1.47-3.06q0-1.26.72-2.22t2-1.51 2.92-.56q1.32 0 2.33.32 1 .31 1.69.88v-2.22q0-1.95-.99-2.8-.99-.86-2.67-.86-1.2 0-2.44.44-1.25.43-2.09 1.39l-.93-1.35q.96-1.11 2.46-1.66 1.5-.56 3.09-.56 2.46 0 3.96 1.32t1.5 3.99v4.56q0 2.4.09 4.77h-1.71l-.03-1.56q-1.29 1.86-4.47 1.86m.45-1.47q1.83 0 2.81-.78.97-.78.97-1.98 0-1.23-.99-1.98t-2.82-.75q-1.8 0-2.85.75t-1.05 1.98q0 1.2 1.05 1.98t2.88.78m13.89 1.17-5.79-14.34h1.98l4.83 12.06 4.8-12.06h1.98L250 808zm14.67.3q-2.49 0-3.96-1.17t-1.47-3.06q0-1.26.72-2.22t2-1.51 2.92-.56q1.32 0 2.33.32 1 .31 1.69.88v-2.22q0-1.95-.99-2.8-.99-.86-2.67-.86-1.2 0-2.44.44-1.25.43-2.09 1.39l-.93-1.35q.96-1.11 2.46-1.66 1.5-.56 3.09-.56 2.46 0 3.96 1.32t1.5 3.99v4.56q0 2.4.09 4.77h-1.71l-.03-1.56q-1.29 1.86-4.47 1.86m.45-1.47q1.83 0 2.81-.78.97-.78.97-1.98 0-1.23-.99-1.98t-2.82-.75q-1.8 0-2.85.75t-1.05 1.98q0 1.2 1.05 1.98t2.88.78m11.13 1.17v-12.66h-2.88v-1.68h4.77V808zm-.12-17.64v-3.24h2.13v3.24zM284.53 808q-1.65 0-2.65-.96-1.01-.96-1.01-2.55v-16.74h-2.76v-1.65h4.68v18.42q0 .78.53 1.31.52.52 1.3.52h1.29V808zm8.52.3q-2.49 0-3.96-1.17t-1.47-3.06q0-1.26.72-2.22t1.99-1.51 2.93-.56q1.32 0 2.32.32 1.01.31 1.7.88v-2.22q0-1.95-.99-2.8-.99-.86-2.67-.86-1.2 0-2.44.44-1.25.43-2.09 1.39l-.93-1.35q.96-1.11 2.46-1.66 1.5-.56 3.09-.56 2.46 0 3.96 1.32t1.5 3.99v4.56q0 2.4.09 4.77h-1.71l-.03-1.56q-1.29 1.86-4.47 1.86m.45-1.47q1.83 0 2.81-.78.97-.78.97-1.98 0-1.23-.99-1.98t-2.82-.75q-1.8 0-2.85.75t-1.05 1.98q0 1.2 1.05 1.98t2.88.78m17.46 1.47q-1.77 0-3.19-.85-1.43-.86-2.24-2.39V808h-1.77v-21.9h1.92v10.32q.81-1.41 2.18-2.23 1.36-.83 3.1-.83 1.95 0 3.47.93 1.51.93 2.38 2.57t.87 3.76v.27q0 2.19-.85 3.87-.86 1.68-2.37 2.61t-3.5.93m-.24-1.71q1.47 0 2.61-.7 1.14-.71 1.78-2t.65-3v-.27q0-1.65-.65-2.89-.64-1.25-1.78-1.95-1.14-.71-2.61-.71t-2.64.74-1.84 2.02-.68 3q0 1.74.68 3.03.67 1.29 1.84 2.01t2.64.72m14.34 1.41q-1.65 0-2.65-.96-1.01-.96-1.01-2.55v-16.74h-2.76v-1.65h4.68v18.42q0 .78.53 1.31.52.52 1.3.52h1.29V808zm10.05.3q-2.1 0-3.72-.94-1.62-.95-2.52-2.61-.9-1.67-.9-3.86v-.3q0-2.1.84-3.72t2.33-2.56 3.46-.95q2.01 0 3.45.99t2.12 2.79.4 4.2h-10.71q.06 1.47.74 2.66.67 1.18 1.84 1.86 1.17.67 2.73.67 2.37 0 3.72-1.17l1.08 1.23q-.81.81-2.08 1.26-1.28.45-2.78.45m-.51-13.26q-1.98 0-3.22 1.29t-1.49 3.42h8.88q.03-2.16-1.12-3.43-1.16-1.28-3.05-1.28M355.63 808q-.96 0-1.8-.39t-1.38-1.18-.54-2.06v-9.03h-2.67v-1.68h2.67v-3.57h1.89v3.57h3.99v1.68h-3.99v9.15q0 .81.54 1.34.54.52 1.32.52h2.13V808zm11.04.3q-2.04 0-3.63-.94-1.59-.95-2.49-2.61-.9-1.67-.9-3.86v-.27q0-2.13.9-3.76.9-1.64 2.49-2.57t3.63-.93q2.01 0 3.6.93t2.49 2.55.9 3.72v.33q0 2.19-.9 3.86-.9 1.66-2.49 2.61-1.59.94-3.6.94m0-1.71q1.5 0 2.64-.73 1.14-.74 1.78-2.01.65-1.28.65-2.96v-.33q0-1.62-.65-2.85-.64-1.23-1.78-1.93-1.14-.71-2.64-.71t-2.65.72-1.82 1.97-.66 2.86v.27q0 1.68.66 2.96.66 1.27 1.82 2.01 1.15.73 2.65.73m16.47 1.71q-1.98 0-3.49-.93t-2.38-2.61q-.85-1.68-.85-3.87v-.27q0-2.13.87-3.76.87-1.64 2.39-2.57 1.51-.93 3.46-.93 1.74 0 3.11.83 1.36.82 2.17 2.23V786.1h1.92V808h-1.74v-2.94q-.84 1.5-2.25 2.37t-3.21.87m.24-1.71q1.47 0 2.64-.72t1.85-2.01q.67-1.29.67-3.03 0-1.71-.67-3-.68-1.29-1.85-2.02-1.17-.74-2.64-.74t-2.61.71-1.78 1.95q-.65 1.24-.65 2.89v.27q0 1.71.65 3 .64 1.29 1.78 2 1.14.7 2.61.7m15.99 1.71q-2.49 0-3.96-1.17t-1.47-3.06q0-1.26.72-2.22t1.99-1.51 2.93-.56q1.32 0 2.32.32 1.01.31 1.7.88v-2.22q0-1.95-.99-2.8-.99-.86-2.67-.86-1.2 0-2.44.44-1.25.43-2.09 1.39l-.93-1.35q.96-1.11 2.46-1.66 1.5-.56 3.09-.56 2.46 0 3.96 1.32t1.5 3.99v4.56q0 2.4.09 4.77h-1.71l-.03-1.56q-1.29 1.86-4.47 1.86m.45-1.47q1.83 0 2.81-.78.97-.78.97-1.98 0-1.23-.99-1.98t-2.82-.75q-1.8 0-2.85.75t-1.05 1.98q0 1.2 1.05 1.98t2.88.78m8.28 7.17v-1.65h2.73q.75 0 1.19-.52.43-.53.7-1.22l1.11-2.49-5.94-14.46h2.1l4.86 12.12 4.71-12.12h2.1l-6.99 17.01q-.33.81-.79 1.58-.47.76-1.22 1.26-.75.49-1.92.49zm27.27-5.7q-2.49 0-3.96-1.17t-1.47-3.06q0-1.26.72-2.22t2-1.51 2.92-.56q1.32 0 2.33.32 1 .31 1.69.88v-2.22q0-1.95-.99-2.8-.99-.86-2.67-.86-1.2 0-2.44.44-1.25.43-2.09 1.39l-.93-1.35q.96-1.11 2.46-1.66 1.5-.56 3.09-.56 2.46 0 3.96 1.32t1.5 3.99v4.56q0 2.4.09 4.77h-1.71l-.03-1.56q-1.29 1.86-4.47 1.86m.45-1.47q1.83 0 2.81-.78.97-.78.97-1.98 0-1.23-.99-1.98t-2.82-.75q-1.8 0-2.85.75t-1.05 1.98q0 1.2 1.05 1.98t2.88.78m16.56 1.47q-2.13 0-3.78-.93t-2.58-2.56-.93-3.8v-.39q0-2.13.95-3.76.94-1.64 2.58-2.57 1.63-.93 3.76-.93 1.56 0 2.82.56 1.26.55 2.16 1.54l-1.2 1.2q-1.47-1.53-3.81-1.53-1.56 0-2.77.69-1.22.69-1.91 1.94-.69 1.24-.69 2.86v.39q0 1.65.71 2.9.7 1.24 1.91 1.93 1.22.69 2.78.69 2.34 0 3.84-1.53l1.17 1.2q-.9.99-2.17 1.55-1.28.55-2.84.55m8.34-.3v-14.34h1.86V796q.54-1.38 1.61-1.87 1.06-.5 2.41-.5h1.23v1.89h-1.38q-1.77 0-2.79.92-1.02.91-1.02 2.86v8.7zm15.39.3q-2.04 0-3.63-.94-1.59-.95-2.49-2.61-.9-1.67-.9-3.86v-.27q0-2.13.9-3.76.9-1.64 2.49-2.57t3.63-.93q2.01 0 3.6.93t2.49 2.55.9 3.72v.33q0 2.19-.9 3.86-.9 1.66-2.49 2.61-1.59.94-3.6.94m0-1.71q1.5 0 2.64-.73 1.14-.74 1.79-2.01.64-1.28.64-2.96v-.33q0-1.62-.64-2.85-.65-1.23-1.79-1.93-1.14-.71-2.64-.71t-2.65.72-1.82 1.97-.66 2.86v.27q0 1.68.66 2.96.66 1.27 1.82 2.01 1.15.73 2.65.73m14.52 1.68q-1.5 0-2.88-.48t-2.22-1.29l.87-1.32q.78.72 1.92 1.14t2.31.42q1.47 0 2.4-.69t.93-1.83q0-.93-.57-1.44t-1.48-.78-1.92-.52-1.91-.66-1.47-1.16-.57-2.1q0-1.86 1.38-3.03t3.69-1.17q1.32 0 2.48.41 1.15.4 2.02 1.06l-.87 1.35q-.75-.6-1.68-.93t-1.98-.33q-1.44 0-2.32.69-.89.69-.89 1.8 0 .93.57 1.43t1.49.78 1.93.54 1.93.67 1.49 1.2.57 2.13q0 1.8-1.45 2.96-1.46 1.15-3.77 1.15m12.63 0q-1.5 0-2.88-.48t-2.22-1.29l.87-1.32q.78.72 1.92 1.14t2.31.42q1.47 0 2.4-.69t.93-1.83q0-.93-.57-1.44t-1.48-.78-1.92-.52-1.91-.66-1.47-1.16-.57-2.1q0-1.86 1.38-3.03t3.69-1.17q1.32 0 2.48.41 1.15.4 2.02 1.06l-.87 1.35q-.75-.6-1.68-.93t-1.98-.33q-1.44 0-2.32.69-.89.69-.89 1.8 0 .93.57 1.43t1.49.78 1.93.54 1.94.67 1.48 1.2.57 2.13q0 1.8-1.45 2.96-1.46 1.15-3.77 1.15m22.17.03q-2.1 0-3.72-.94-1.62-.95-2.52-2.61-.9-1.67-.9-3.86v-.3q0-2.1.84-3.72t2.33-2.56 3.46-.95q2.01 0 3.45.99t2.11 2.79.41 4.2h-10.71q.06 1.47.74 2.66.67 1.18 1.84 1.86 1.17.67 2.73.67 2.37 0 3.72-1.17l1.08 1.23q-.81.81-2.08 1.26-1.28.45-2.78.45m-.51-13.26q-1.98 0-3.22 1.29t-1.49 3.42h8.88q.03-2.16-1.12-3.43-1.16-1.28-3.05-1.28M538.21 808l-5.79-14.34h1.98l4.83 12.06 4.8-12.06h1.98L540.25 808zm16.53.3q-2.1 0-3.72-.94-1.62-.95-2.52-2.61-.9-1.67-.9-3.86v-.3q0-2.1.84-3.72t2.33-2.56 3.46-.95q2.01 0 3.45.99t2.11 2.79.41 4.2h-10.71q.06 1.47.74 2.66.67 1.18 1.84 1.86 1.17.67 2.73.67 2.37 0 3.72-1.17l1.08 1.23q-.81.81-2.08 1.26-1.28.45-2.78.45m-.51-13.26q-1.98 0-3.22 1.29t-1.49 3.42h8.88q.03-2.16-1.12-3.43-1.16-1.28-3.05-1.28m9.63 12.96v-14.34h1.86V796q.54-1.38 1.61-1.87 1.06-.5 2.41-.5h1.23v1.89h-1.38q-1.77 0-2.79.92-1.02.91-1.02 2.86v8.7zm8.34 6v-1.65h2.73q.75 0 1.19-.52.43-.53.7-1.22l1.11-2.49-5.94-14.46h2.1l4.86 12.12 4.71-12.12h2.1l-6.99 17.01q-.33.81-.79 1.58-.47.76-1.22 1.26-.75.49-1.92.49zm22.98-6v-14.34h1.83v2.52q.81-1.59 2.13-2.2t2.61-.62q1.65 0 2.87.75 1.21.75 1.78 2.34.6-1.17 1.45-1.84.86-.68 1.81-.96.94-.29 1.81-.29 2.34 0 3.8 1.52 1.45 1.51 1.45 4.69V808h-1.86v-8.22q0-2.46-1.05-3.55-1.05-1.1-2.76-1.1-1.74 0-2.94 1.19-1.2 1.18-1.2 3.43V808h-1.89v-8.22q0-2.46-1.04-3.55-1.03-1.1-2.74-1.1-1.77 0-2.97 1.19-1.2 1.18-1.2 3.43V808zm30.36.3q-2.49 0-3.96-1.17t-1.47-3.06q0-1.26.72-2.22t1.99-1.51 2.93-.56q1.32 0 2.32.32 1.01.31 1.7.88v-2.22q0-1.95-.99-2.8-.99-.86-2.67-.86-1.2 0-2.44.44-1.25.43-2.09 1.39l-.93-1.35q.96-1.11 2.46-1.66 1.5-.56 3.09-.56 2.46 0 3.96 1.32t1.5 3.99v4.56q0 2.4.09 4.77h-1.71l-.03-1.56q-1.29 1.86-4.47 1.86m.45-1.47q1.83 0 2.8-.78.98-.78.98-1.98 0-1.23-.99-1.98t-2.82-.75q-1.8 0-2.85.75t-1.05 1.98q0 1.2 1.05 1.98t2.88.78m7.74 7.17v-1.65h1.53q.81 0 1.34-.52.52-.53.52-1.31v-15.18h-2.88v-1.68h4.77v16.56q0 1.71-1.08 2.75-1.08 1.03-2.85 1.03zm3.3-23.64v-3.24h2.13v3.24zm12.78 17.94q-2.04 0-3.63-.94-1.59-.95-2.49-2.61-.9-1.67-.9-3.86v-.27q0-2.13.9-3.76.9-1.64 2.49-2.57t3.63-.93q2.01 0 3.6.93t2.49 2.55.9 3.72v.33q0 2.19-.9 3.86-.9 1.66-2.49 2.61-1.59.94-3.6.94m0-1.71q1.5 0 2.64-.73 1.14-.74 1.79-2.01.64-1.28.64-2.96v-.33q0-1.62-.64-2.85-.65-1.23-1.79-1.93-1.14-.71-2.64-.71t-2.65.72-1.82 1.97q-.66 1.24-.66 2.86v.27q0 1.68.66 2.96.66 1.27 1.82 2.01 1.15.73 2.65.73m10.74 1.41v-14.34h1.86V796q.54-1.38 1.61-1.87 1.06-.5 2.41-.5h1.23v1.89h-1.38q-1.77 0-2.79.92-1.02.91-1.02 2.86v8.7zm22.89.3q-2.13 0-3.78-.93t-2.58-2.56-.93-3.8v-.39q0-2.13.95-3.76.94-1.64 2.57-2.57 1.64-.93 3.77-.93 1.56 0 2.82.56 1.26.55 2.16 1.54l-1.2 1.2q-1.47-1.53-3.81-1.53-1.56 0-2.77.69-1.22.69-1.91 1.94-.69 1.24-.69 2.86v.39q0 1.65.71 2.9.7 1.24 1.92 1.93 1.21.69 2.77.69 2.34 0 3.84-1.53l1.17 1.2q-.9.99-2.17 1.55-1.28.55-2.84.55m11.97-.3q-1.65 0-2.65-.96-1.01-.96-1.01-2.55v-16.74h-2.76v-1.65h4.68v18.42q0 .78.52 1.31.53.52 1.31.52h1.29V808zm9.93.3q-2.04 0-3.63-.94-1.59-.95-2.49-2.61-.9-1.67-.9-3.86v-.27q0-2.13.9-3.76.9-1.64 2.49-2.57t3.63-.93q2.01 0 3.6.93t2.49 2.55.9 3.72v.33q0 2.19-.9 3.86-.9 1.66-2.49 2.61-1.59.94-3.6.94m0-1.71q1.5 0 2.64-.73 1.14-.74 1.79-2.01.64-1.28.64-2.96v-.33q0-1.62-.64-2.85-.65-1.23-1.79-1.93-1.14-.71-2.64-.71t-2.66.72-1.81 1.97-.66 2.86v.27q0 1.68.66 2.96.66 1.27 1.81 2.01 1.16.73 2.66.73m16.08 1.71q-1.59 0-2.85-.61-1.26-.62-1.98-1.92-.72-1.31-.72-3.44v-8.67h1.89v8.37q0 2.52 1.14 3.51t2.85.99q1.17 0 2.16-.52.99-.53 1.61-1.56.61-1.04.61-2.63v-8.16h1.86V808h-1.74v-2.37q-.87 1.5-2.25 2.09t-2.58.58m17.04 0q-1.98 0-3.49-.93t-2.37-2.61-.86-3.87v-.27q0-2.13.87-3.76.87-1.64 2.39-2.57 1.51-.93 3.46-.93 1.74 0 3.1.83 1.37.82 2.18 2.23V786.1h1.92V808h-1.74v-2.94q-.84 1.5-2.25 2.37t-3.21.87m.24-1.71q1.47 0 2.64-.72t1.84-2.01.68-3.03q0-1.71-.68-3-.67-1.29-1.84-2.02-1.17-.74-2.64-.74t-2.61.71-1.79 1.95-.64 2.89v.27q0 1.71.64 3 .65 1.29 1.79 2 1.14.7 2.61.7m11.25 1.41v-2.76h2.31V808z"/></svg>