<svg xmlns="http://www.w3.org/2000/svg" width="1080" height="1080" viewBox="0 0 1080 1080"><defs><clipPath id="fcovclip-1" clipPathUnits="userSpaceOnUse"><rect width="270" height="84" x="72" y="770" fill="#fff" rx="42" ry="42"/></clipPath></defs><path fill="#192072" d="M0 0h540v1080H0z"/><path fill="#eafaf4" d="M540 0h540v1080H540z"/><path fill="#fff" d="M91.34 232q-3.06 0-5.01-1.98t-1.95-5.04v-27.96q0-3.06 1.95-5.04t5.01-1.98h20.46v6.72h-18q-.9 0-1.53.63t-.63 1.53v8.82h18.9v6.42h-18.9v9q0 .9.63 1.53t1.53.63h18V232zm26.88 0v-29.22h6.66v3.72q1.8-2.58 4.29-3.45t4.53-.87q4.92 0 7.89 3.21t2.97 9.21V232h-6.9v-16.26q0-3.84-1.65-5.55t-4.23-1.71q-2.82 0-4.74 1.89t-1.92 5.49V232zm44.76 0q-2.1 0-4.17-.72t-3.45-2.61-1.38-5.25v-14.76H149v-5.88h4.98v-7.14h6.9v7.14h6.78v5.88h-6.78v15.3q0 .9.63 1.53t1.53.63h4.62V232zm22.98.6q-4.38 0-7.71-1.89t-5.19-5.28-1.86-7.89v-.6q0-4.14 1.71-7.5t4.86-5.31 7.35-1.95q4.38 0 7.5 2.13t4.56 6.03.78 9.18h-19.92q.36 3.06 2.49 5.07t5.79 2.01q2.16 0 3.72-.6t2.82-1.8l3.9 4.08q-1.74 2.16-4.53 3.24t-6.27 1.08m-.78-24.84q-3.06 0-4.8 1.89t-2.22 4.95h13.2q-.12-3.24-1.83-5.04t-4.35-1.8M204.2 232v-29.22h6.66v4.26q1.08-2.52 3.18-3.51t4.68-.99h2.4v6.84h-2.94q-3.42 0-5.25 1.56t-1.83 4.56V232zm22.02 12v-41.22h6.48v3.66q1.68-1.98 4.08-3.12t5.22-1.14q3.9 0 7.05 1.89t4.95 5.25 1.8 7.74v.6q0 4.5-1.8 7.86t-4.89 5.22-7.05 1.86q-2.7 0-4.98-1.02t-3.96-2.82V244zm14.7-17.46q3.36 0 5.67-2.4t2.31-6.48v-.6q0-4.08-2.31-6.42t-5.67-2.34q-3.54 0-5.88 2.43t-2.34 6.69q0 4.2 2.34 6.66t5.88 2.46m21.12 5.46v-29.22h6.66v4.26q1.08-2.52 3.18-3.51t4.68-.99h2.4v6.84h-2.94q-3.42 0-5.25 1.56t-1.83 4.56V232zm24.48 0v-23.34h-5.28v-5.88h12.24V232zm-.3-35.04v-7.98h7.68v7.98zm24 35.58q-3.48 0-6.39-1.02T299 229l3-4.74q1.74 1.26 3.87 2.07t4.35.81q2.16 0 3.45-.9t1.29-2.34-1.05-2.16-2.73-1.17-3.57-.93-3.57-1.38-2.76-2.55-1.08-4.35q0-4.02 3.06-6.6t8.22-2.58q2.88 0 5.46.78t4.62 2.16l-3.06 4.62q-3.36-2.28-7.08-2.28-2.1 0-3.36.93t-1.26 2.37q0 1.32 1.11 2.07t2.82 1.2 3.63.99 3.63 1.47 2.82 2.58 1.11 4.35-1.5 4.74-4.14 3.21-6.06 1.17m30.66.06q-4.38 0-7.71-1.89t-5.19-5.28-1.86-7.89v-.6q0-4.14 1.71-7.5t4.86-5.31 7.35-1.95q4.38 0 7.5 2.13t4.56 6.03.78 9.18h-19.92q.36 3.06 2.49 5.07t5.79 2.01q2.16 0 3.72-.6t2.82-1.8l3.9 4.08q-1.74 2.16-4.53 3.24t-6.27 1.08m-.78-24.84q-3.06 0-4.8 1.89t-2.22 4.95h13.2q-.12-3.24-1.83-5.04t-4.35-1.8M91.58 299.19q-3.06 0-5.04-1.98t-1.98-5.04v-34.98h7.38v32.88q0 .96.63 1.59t1.53.63h16.92v6.9zm24.84 0v-23.34h-5.28v-5.88h12.24v29.22zm-.3-35.04v-7.98h7.68v7.98zm15.24 35.04v-29.22h6.66v3.72q1.8-2.58 4.29-3.45t4.53-.87q4.92 0 7.89 3.21t2.97 9.21v17.4h-6.9v-16.26q0-3.84-1.65-5.55t-4.23-1.71q-2.82 0-4.74 1.89t-1.92 5.49v16.14zm44.88.6q-4.8 0-8.01-2.91t-3.21-8.91v-18h6.9v16.68q0 3.78 1.65 5.31t4.23 1.53q2.76 0 4.59-1.77t1.83-5.37v-16.38h6.9v29.22h-6v-3.54q-1.86 2.46-4.35 3.3t-4.53.84m19.44-.6 9.96-14.58-9.66-14.64h8.1l6.24 10.2 6.18-10.2h7.98l-9.72 14.58 9.84 14.64h-8.16l-6.42-10.08-6.3 10.08zm32.7 0v-8.1h8.04v11.58q0 2.22-.87 3.39t-2.19 1.62-2.58.45h-2.58v-4.02h2.58q.72 0 1.11-.45t.39-1.11v-3.36z"/><path fill="#30ba78" d="M84.02 366.38v-29.22h6.66v4.26q1.08-2.52 3.18-3.51t4.68-.99h2.4v6.84H98q-3.42 0-5.25 1.56t-1.83 4.56v16.5zm33.72.6q-4.38 0-7.71-1.89t-5.19-5.28-1.86-7.89v-.6q0-4.14 1.71-7.5t4.86-5.31 7.35-1.95q4.38 0 7.5 2.13t4.56 6.03.78 9.18h-19.92q.36 3.06 2.49 5.07t5.79 2.01q2.16 0 3.72-.6t2.82-1.8l3.9 4.08q-1.74 2.16-4.53 3.24t-6.27 1.08m-.78-24.84q-3.06 0-4.8 1.89t-2.22 4.95h13.2q-.12-3.24-1.83-5.04t-4.35-1.8m21.18 24.24v-23.34h-5.28v-5.88h12.24v29.22zm-.3-35.04v-7.98h7.68v7.98zm15.24 35.04v-29.22h6.6v3.66q1.68-2.46 4.02-3.36t4.5-.9q2.88 0 5.07 1.17t3.51 3.57q1.32-1.92 3.03-2.94t3.42-1.41 3.09-.39q4.74 0 7.74 3.06t3 9v17.76h-6.84v-16.74q0-3.54-1.53-5.16t-4.11-1.62q-2.64 0-4.35 1.77t-1.71 5.01v16.74h-6.9v-16.74q0-3.54-1.53-5.16t-4.05-1.62q-2.64 0-4.38 1.77t-1.74 5.01v16.74zm60.48.6q-4.98 0-7.92-2.43t-2.94-6.27q0-3.9 3.21-6.45t8.55-2.55q4.02 0 6.66 1.44v-2.82q0-2.88-1.62-4.08t-4.14-1.2q-2.22 0-4.59.84t-4.05 2.4l-3.12-4.68q1.92-2.16 5.25-3.39t6.93-1.23q5.4 0 8.79 2.79t3.39 8.19v9.42q0 2.4.03 4.74t.15 4.68h-6.12l-.06-3q-2.46 3.6-8.4 3.6m1.92-5.1q2.58 0 4.14-1.08t1.56-2.82q0-1.68-1.56-2.76t-4.2-1.08q-2.58 0-4.17 1.08t-1.59 2.76q0 1.74 1.59 2.82t4.23 1.08m17.88 16.5v-5.7h17.7q2.94 0 2.94-2.64 0-2.46-2.94-2.46h-10.14q-2.34 0-3.6-1.14t-1.44-2.91.72-3.63l1.86-3.72q-2.22-1.44-3.45-3.63t-1.23-4.95v-.54q0-3.06 1.65-5.43t4.56-3.72 6.75-1.35h.6l2.64-5.7h6.96l-3.78 6.9q3 1.32 4.74 3.72t1.74 5.52v.6q0 3.18-1.65 5.61t-4.56 3.81-6.69 1.38q-1.44 0-2.76-.18l-1.2 2.46q-.3.48-.18.99t.96.51h8.52q3.72 0 6.06 1.92t2.34 6.06q0 3.54-2.43 5.88t-6.27 2.34zm13.38-25.26q1.38 0 2.79-.51t2.37-1.77.96-3.48q0-2.34-1.71-3.78t-4.41-1.44q-2.76 0-4.47 1.44t-1.71 3.78q0 2.22.96 3.48t2.37 1.77 2.85.51m21.42 13.26v-23.34h-5.28v-5.88h12.24v29.22zm-.3-35.04v-7.98h7.68v7.98zm15.24 35.04v-29.22h6.66v3.72q1.8-2.58 4.29-3.45t4.53-.87q4.92 0 7.89 3.21t2.97 9.21v17.4h-6.9v-16.26q0-3.84-1.65-5.55t-4.23-1.71q-2.82 0-4.74 1.89t-1.92 5.49v16.14zm46.98.6q-4.38 0-7.71-1.89t-5.19-5.28-1.86-7.89v-.6q0-4.14 1.71-7.5t4.86-5.31 7.35-1.95q4.38 0 7.5 2.13t4.56 6.03.78 9.18h-19.92q.36 3.06 2.49 5.07t5.79 2.01q2.16 0 3.72-.6t2.82-1.8l3.9 4.08q-1.74 2.16-4.53 3.24t-6.27 1.08m-.78-24.84q-3.06 0-4.8 1.89t-2.22 4.95h13.2q-.12-3.24-1.83-5.04t-4.35-1.8m31.02 24.84q-3.96 0-7.08-1.86t-4.92-5.22-1.8-7.86v-.6q0-4.38 1.83-7.74t4.95-5.25 7.08-1.89q2.7 0 4.95 1.02t3.93 2.82v-17.82h6.9v43.8h-6.24v-3.96q-1.74 2.16-4.2 3.36t-5.4 1.2m1.08-6.06q3.54 0 5.91-2.46t2.37-6.66q0-4.26-2.37-6.69t-5.91-2.43q-3.3 0-5.64 2.34t-2.34 6.42v.6q0 4.08 2.34 6.48t5.64 2.4"/><path fill="#c0efde" d="M90.84 555.31q-2.72 0-4.85-1.28-2.13-1.27-3.33-3.54t-1.2-5.26v-.25q0-2.94 1.2-5.17t3.33-3.47 4.85-1.25q2.74 0 4.85 1.25 2.12 1.24 3.32 3.47 1.21 2.23 1.21 5.17v.25q0 2.99-1.21 5.26-1.2 2.27-3.32 3.54-2.11 1.28-4.85 1.28m0-1.82q2.18 0 3.86-1.04 1.68-1.03 2.65-2.88.96-1.85.96-4.34v-.25q0-2.41-.96-4.23-.97-1.82-2.65-2.83t-3.86-1.01-3.88 1.01-2.65 2.83-.95 4.23v.25q0 2.49.95 4.34t2.65 2.88 3.88 1.04m12.88 1.51v-13.38h1.7V544q.54-1.01 1.33-1.59.8-.57 1.67-.82t1.62-.25q2.27 0 3.7 1.44t1.43 4.41V555h-1.79v-7.59q0-2.35-1.07-3.39-1.06-1.03-2.69-1.03-1.12 0-2.05.5-.94.51-1.5 1.49t-.56 2.46V555zm21.42.28q-1.96 0-3.48-.88-1.51-.88-2.35-2.44-.84-1.55-.84-3.6v-.28q0-1.96.79-3.47.78-1.51 2.17-2.39 1.38-.88 3.23-.88 1.88 0 3.22.92t1.97 2.6.38 3.92h-9.99q.05 1.38.68 2.48.63 1.11 1.72 1.74 1.1.63 2.55.63 2.21 0 3.47-1.09l1.01 1.14q-.75.76-1.94 1.18t-2.59.42m-.48-12.38q-1.85 0-3.01 1.21-1.16 1.2-1.39 3.19h8.29q.03-2.02-1.05-3.21t-2.84-1.19m19.24 12.35q-1.4 0-2.69-.45-1.29-.44-2.07-1.2l.81-1.23q.73.67 1.79 1.06t2.16.39q1.37 0 2.24-.64.86-.64.86-1.71 0-.87-.53-1.34t-1.38-.73q-.86-.25-1.8-.49-.93-.24-1.77-.62-.84-.37-1.38-1.07t-.53-1.96q0-1.74 1.29-2.83t3.44-1.09q1.24 0 2.31.37 1.08.38 1.89 1l-.81 1.26q-.7-.56-1.57-.87-.86-.31-1.84-.31-1.35 0-2.17.65-.83.64-.83 1.68 0 .86.53 1.33.53.46 1.39.72.85.27 1.8.51t1.81.63 1.39 1.12.53 1.99q0 1.68-1.36 2.75-1.36 1.08-3.51 1.08m13.97.03q-1.96 0-3.47-.88t-2.36-2.44-.84-3.6v-.28q0-1.96.79-3.47.78-1.51 2.17-2.39 1.38-.88 3.23-.88 1.88 0 3.22.92t1.98 2.6.37 3.92h-9.99q.05 1.38.68 2.48.63 1.11 1.73 1.74 1.09.63 2.54.63 2.22 0 3.48-1.09l1 1.14q-.75.76-1.94 1.18t-2.59.42m-.48-12.38q-1.85 0-3.01 1.21-1.16 1.2-1.38 3.19h8.28q.03-2.02-1.05-3.21-1.07-1.19-2.84-1.19m14.87 12.38q-1.99 0-3.53-.87t-2.41-2.39-.86-3.54v-.37q0-1.99.88-3.51.88-1.53 2.41-2.4 1.52-.86 3.51-.86 1.46 0 2.63.51 1.18.52 2.02 1.45l-1.12 1.12q-1.37-1.43-3.56-1.43-1.45 0-2.59.64-1.13.65-1.78 1.81-.64 1.16-.64 2.67v.37q0 1.54.66 2.7t1.79 1.8 2.59.65q2.18 0 3.58-1.43l1.1 1.12q-.84.92-2.03 1.44t-2.65.52m12.77 0q-1.49 0-2.66-.57-1.18-.58-1.85-1.8-.67-1.21-.67-3.2v-8.09h1.76v7.81q0 2.35 1.07 3.27 1.06.93 2.66.93 1.09 0 2.01-.49.93-.49 1.5-1.46.57-.96.57-2.45v-7.61h1.74V555h-1.62v-2.21q-.82 1.4-2.1 1.94-1.29.55-2.41.55m10.55-.28v-13.38h1.74v2.18q.5-1.29 1.5-1.75.99-.46 2.25-.46h1.15v1.76h-1.29q-1.65 0-2.6.86-.95.85-.95 2.67V555zm14.48.28q-1.96 0-3.47-.88t-2.35-2.44-.84-3.6v-.28q0-1.96.78-3.47t2.17-2.39 3.23-.88q1.88 0 3.22.92t1.98 2.6.38 3.92h-10q.06 1.38.69 2.48.63 1.11 1.72 1.74t2.55.63q2.21 0 3.47-1.09l1.01 1.14q-.76.76-1.95 1.18t-2.59.42m-.48-12.38q-1.84 0-3.01 1.21-1.16 1.2-1.38 3.19h8.29q.02-2.02-1.05-3.21-1.08-1.19-2.85-1.19m15.68 17.7v-18.98h1.68v2.68q.79-1.37 2.09-2.17t2.95-.79q1.82 0 3.24.86 1.41.87 2.22 2.4t.82 3.51v.25q0 2.05-.8 3.62-.8 1.56-2.21 2.43-1.42.87-3.27.87-1.59 0-2.88-.76-1.29-.75-2.04-2.07v8.15zm6.5-6.92q1.37 0 2.44-.65 1.06-.66 1.66-1.87.6-1.2.6-2.8v-.25q0-1.54-.6-2.7t-1.66-1.82-2.44-.66-2.46.69q-1.1.68-1.73 1.89-.63 1.2-.63 2.8 0 1.62.63 2.83.63 1.2 1.73 1.87 1.09.67 2.46.67m13.38 1.32q-1.54 0-2.47-.9-.94-.89-.94-2.38V536.1h-2.58v-1.54h4.37v17.19q0 .73.49 1.22t1.22.49h1.2V555zm7.96.28q-2.33 0-3.7-1.09t-1.37-2.86q0-1.17.67-2.07t1.86-1.41q1.19-.52 2.73-.52 1.23 0 2.17.29.94.3 1.58.83v-2.07q0-1.82-.92-2.62t-2.49-.8q-1.12 0-2.28.41-1.17.4-1.95 1.3l-.87-1.26q.9-1.04 2.3-1.56 1.4-.51 2.88-.51 2.3 0 3.7 1.23t1.4 3.72v4.26q0 2.24.08 4.45h-1.59l-.03-1.46q-1.21 1.74-4.17 1.74m.42-1.37q1.7 0 2.61-.73t.91-1.85q0-1.15-.92-1.85t-2.63-.7q-1.68 0-2.66.7t-.98 1.85q0 1.12.98 1.85t2.69.73m13.69 1.09q-.9 0-1.68-.36-.79-.37-1.29-1.11t-.5-1.92v-8.43h-2.5v-1.56h2.5v-3.34h1.76v3.34h3.72v1.56h-3.72v8.54q0 .76.5 1.25.51.49 1.24.49h1.98V555zm6.05 0v-11.82h-2.55v-1.56h2.55v-3.67q0-1.54.98-2.47.98-.92 2.52-.92h2.21v1.54h-2.21q-.76 0-1.25.49t-.49 1.22v3.81h3.95v1.56h-3.95V555zm13.32.28q-1.9 0-3.38-.88-1.49-.88-2.33-2.44-.84-1.55-.84-3.6v-.25q0-1.99.84-3.51.84-1.53 2.33-2.4 1.48-.86 3.38-.86 1.88 0 3.36.86 1.49.87 2.33 2.38.84 1.52.84 3.48v.3q0 2.05-.84 3.6t-2.33 2.44-3.36.88m0-1.6q1.4 0 2.47-.68 1.06-.69 1.66-1.88.61-1.19.61-2.76v-.3q0-1.52-.61-2.66-.6-1.15-1.66-1.81-1.07-.66-2.47-.66t-2.47.67-1.7 1.84q-.61 1.16-.61 2.67v.25q0 1.57.61 2.76.62 1.19 1.7 1.88 1.07.68 2.47.68m10.03 1.32v-13.38h1.73v2.18q.51-1.29 1.5-1.75 1-.46 2.26-.46h1.14v1.76h-1.28q-1.66 0-2.61.86-.95.85-.95 2.67V555zm9.43 0v-13.38h1.71v2.35q.76-1.49 1.99-2.06t2.44-.57q1.54 0 2.67.7t1.67 2.18q.56-1.09 1.35-1.72.8-.63 1.68-.9.89-.26 1.7-.26 2.18 0 3.54 1.41t1.36 4.38V555h-1.74v-7.67q0-2.3-.98-3.32t-2.57-1.02q-1.63 0-2.75 1.1-1.12 1.11-1.12 3.21v7.7h-1.76v-7.67q0-2.3-.97-3.32-.96-1.02-2.56-1.02-1.65 0-2.77 1.1-1.12 1.11-1.12 3.21v7.7zm31.64 0v-11.82h-2.54v-1.56h2.54v-3.67q0-1.54.98-2.47.98-.92 2.52-.92h2.22v1.54h-2.22q-.75 0-1.24.49t-.49 1.22v3.81h3.95v1.56h-3.95V555zm8.4 0v-13.38h1.74v2.18q.5-1.29 1.5-1.75.99-.46 2.25-.46h1.15v1.76h-1.29q-1.65 0-2.6.86-.95.85-.95 2.67V555zm14.37.28q-1.91 0-3.39-.88t-2.32-2.44-.84-3.6v-.25q0-1.99.84-3.51.84-1.53 2.32-2.4t3.39-.86q1.87 0 3.36.86 1.48.87 2.32 2.38.84 1.52.84 3.48v.3q0 2.05-.84 3.6t-2.32 2.44-3.36.88m0-1.6q1.4 0 2.46-.68 1.07-.69 1.67-1.88t.6-2.76v-.3q0-1.52-.6-2.66t-1.67-1.81-2.46-.66-2.48.67q-1.08.68-1.69 1.84-.62 1.16-.62 2.67v.25q0 1.57.62 2.76.61 1.19 1.69 1.88t2.48.68m10.02 1.32v-13.38h1.71v2.35q.76-1.49 1.99-2.06t2.43-.57q1.54 0 2.68.7 1.13.7 1.66 2.18.56-1.09 1.36-1.72t1.68-.9 1.7-.26q2.18 0 3.54 1.41t1.36 4.38V555h-1.74v-7.67q0-2.3-.98-3.32t-2.58-1.02q-1.62 0-2.74 1.1-1.12 1.11-1.12 3.21v7.7h-1.76v-7.67q0-2.3-.97-3.32t-2.56-1.02q-1.65 0-2.77 1.1-1.12 1.11-1.12 3.21v7.7zm36.77.28q-1.96 0-3.48-.88-1.51-.88-2.35-2.44-.84-1.55-.84-3.6v-.28q0-1.96.79-3.47.78-1.51 2.17-2.39 1.38-.88 3.23-.88 1.88 0 3.22.92t1.97 2.6.38 3.92h-9.99q.05 1.38.68 2.48.63 1.11 1.72 1.74 1.1.63 2.55.63 2.21 0 3.47-1.09l1.01 1.14q-.75.76-1.94 1.18t-2.59.42m-.48-12.38q-1.85 0-3.01 1.21-1.16 1.2-1.39 3.19h8.29q.03-2.02-1.05-3.21t-2.84-1.19m14.34 12.38q-1.85 0-3.27-.87-1.41-.87-2.21-2.43-.8-1.57-.8-3.62v-.25q0-1.99.82-3.51.81-1.53 2.22-2.4t3.24-.86q1.62 0 2.89.77 1.28.77 2.03 2.08v-9.63h1.8V555h-1.63v-2.74q-.78 1.4-2.1 2.21-1.31.81-2.99.81m.22-1.6q1.37 0 2.46-.67 1.1-.67 1.73-1.87t.63-2.83q0-1.6-.63-2.8-.63-1.21-1.73-1.89-1.09-.69-2.46-.69t-2.44.66-1.66 1.82-.6 2.7v.25q0 1.6.6 2.8.6 1.21 1.66 1.87 1.07.65 2.44.65m9.44 6.92v-1.51h7.92q1.09 0 1.72-.55.63-.54.63-1.5 0-.89-.63-1.4t-1.72-.5h-4.26q-1.03 0-1.56-.49-.54-.49-.59-1.22-.06-.73.31-1.43l.92-1.84q-1.04-.62-1.64-1.64t-.6-2.28v-.26q0-1.37.71-2.42.72-1.05 1.99-1.64 1.28-.58 2.93-.58.42 0 .78.02l1.43-2.91h1.79l-1.71 3.22q1.52.51 2.43 1.63t.91 2.6v.34q0 1.4-.72 2.47-.71 1.08-1.99 1.7-1.27.61-2.92.61-1.04 0-1.96-.25l-.73 1.4q-.14.31-.18.66t.18.6.78.25h3.92q1.71 0 2.76.87t1.05 2.49q0 1.6-1.06 2.58-1.07.98-2.83.98zm6.13-11q.89 0 1.79-.33.9-.32 1.5-1.07.6-.76.6-2.13 0-1.46-1.09-2.35t-2.8-.9-2.8.9q-1.09.89-1.09 2.35 0 1.34.61 2.11.62.77 1.53 1.09t1.75.33m14.75 5.68q-1.96 0-3.47-.88t-2.35-2.44-.84-3.6v-.28q0-1.96.78-3.47.79-1.51 2.17-2.39 1.39-.88 3.24-.88 1.87 0 3.22.92 1.34.92 1.97 2.6t.38 3.92h-10q.06 1.38.69 2.48.63 1.11 1.72 1.74t2.55.63q2.21 0 3.47-1.09l1.01 1.14q-.76.76-1.95 1.18t-2.59.42m-.47-12.38q-1.85 0-3.01 1.21-1.16 1.2-1.39 3.19h8.29q.03-2.02-1.05-3.21t-2.84-1.19M86.5 591.39q-.9 0-1.68-.36-.79-.37-1.29-1.11-.51-.74-.51-1.92v-8.43h-2.49v-1.56h2.49v-3.34h1.77v3.34h3.72v1.56h-3.72v8.54q0 .76.5 1.25.51.49 1.23.49h1.99v1.54zm10.3.28q-1.9 0-3.39-.88-1.48-.88-2.32-2.44-.84-1.55-.84-3.6v-.25q0-1.99.84-3.51.84-1.53 2.32-2.4 1.49-.86 3.39-.86 1.88 0 3.36.86 1.48.87 2.32 2.38.84 1.52.84 3.48v.3q0 2.05-.84 3.6t-2.32 2.44-3.36.88m0-1.6q1.4 0 2.46-.68 1.07-.69 1.67-1.88t.6-2.76v-.3q0-1.52-.6-2.66t-1.67-1.81q-1.06-.66-2.46-.66t-2.48.67-1.69 1.84q-.62 1.16-.62 2.67v.25q0 1.57.62 2.76.61 1.19 1.69 1.88t2.48.68m22.6 1.6q-1.99 0-3.53-.87t-2.41-2.39-.87-3.54v-.37q0-1.99.88-3.51.89-1.53 2.41-2.4 1.53-.86 3.52-.86 1.45 0 2.63.51 1.17.52 2.01 1.45l-1.12 1.12q-1.37-1.43-3.55-1.43-1.46 0-2.59.64-1.14.65-1.78 1.81t-.64 2.67v.37q0 1.54.65 2.7.66 1.16 1.8 1.8 1.13.65 2.59.65 2.18 0 3.58-1.43l1.09 1.12q-.84.92-2.03 1.44t-2.64.52m13.02 0q-1.91 0-3.39-.88t-2.33-2.44-.84-3.6v-.25q0-1.99.84-3.51.84-1.53 2.33-2.4 1.48-.86 3.39-.86 1.87 0 3.36.86 1.48.87 2.32 2.38.84 1.52.84 3.48v.3q0 2.05-.84 3.6t-2.32 2.44q-1.49.88-3.36.88m0-1.6q1.4 0 2.46-.68t1.67-1.88.6-2.76v-.3q0-1.52-.6-2.66-.61-1.15-1.67-1.81t-2.46-.66-2.48.67-1.7 1.84-.61 2.67v.25q0 1.57.61 2.76.62 1.19 1.7 1.88t2.48.68m10.02 1.32v-13.38h1.74v2.18q.5-1.29 1.49-1.75 1-.46 2.26-.46h1.15v1.76h-1.29q-1.65 0-2.61.86-.95.85-.95 2.67v8.12zm14.48.28q-1.96 0-3.48-.88-1.51-.88-2.35-2.44-.84-1.55-.84-3.6v-.28q0-1.96.79-3.47.78-1.51 2.17-2.39 1.38-.88 3.23-.88 1.88 0 3.22.92t1.97 2.6.38 3.92h-9.99q.05 1.38.68 2.48.63 1.11 1.72 1.74 1.1.63 2.55.63 2.21 0 3.47-1.09l1.01 1.14q-.75.76-1.94 1.18t-2.59.42m-.48-12.38q-1.85 0-3.01 1.21-1.16 1.2-1.39 3.19h8.29q.03-2.02-1.05-3.21t-2.84-1.19m8.57 12.1v-2.58h2.15v2.58z"/><rect width="270" height="84" x="72" y="770" fill="#fe7c3f" rx="42" ry="42"/><path fill="#fff" d="M132.99 823q-1.33 0-2.19-.86t-.85-2.18V804.8h3.19v14.25q0 .41.28.69.27.27.66.27h7.33V823zm15.68.26q-1.9 0-3.34-.82-1.45-.82-2.25-2.29-.81-1.47-.81-3.42v-.26q0-1.79.74-3.25.74-1.45 2.11-2.3t3.18-.84q1.9 0 3.25.92t1.98 2.61.34 3.98h-8.64q.16 1.33 1.08 2.2.93.87 2.51.87.94 0 1.61-.26t1.23-.78l1.69 1.77q-.76.93-1.97 1.4t-2.71.47m-.34-10.76q-1.33 0-2.08.82-.76.81-.96 2.14h5.72q-.06-1.4-.8-2.18t-1.88-.78m12.01 10.76q-2.16 0-3.43-1.05-1.28-1.06-1.28-2.72 0-1.69 1.4-2.79 1.39-1.11 3.7-1.11 1.74 0 2.89.62v-1.22q0-1.25-.71-1.77-.7-.52-1.79-.52-.96 0-1.99.37-1.03.36-1.75 1.04l-1.36-2.03q.84-.94 2.28-1.47t3-.53q2.34 0 3.81 1.21t1.47 3.55v4.08l.01 2.05q.02 1.02.07 2.03h-2.65l-.03-1.3q-1.07 1.56-3.64 1.56m.83-2.21q1.12 0 1.8-.47t.67-1.22q0-.73-.67-1.2-.68-.46-1.82-.46-1.12 0-1.81.46t-.69 1.2.69 1.22 1.83.47m8.76 1.95v-12.66h2.89v1.84q.47-1.09 1.38-1.52t2.03-.43h1.04v2.97h-1.28q-1.48 0-2.27.67-.8.68-.8 1.98V823zm9.55 0v-12.66h2.88v1.61q.78-1.12 1.86-1.49 1.08-.38 1.96-.38 2.14 0 3.42 1.39 1.29 1.39 1.29 3.99V823h-2.99v-7.05q0-1.66-.71-2.4-.72-.74-1.84-.74-1.22 0-2.05.82t-.83 2.38V823zm20.48 0v-12.66h2.86v1.58q.73-1.06 1.75-1.45 1.01-.39 1.95-.39 1.24 0 2.19.51.95.5 1.52 1.54.58-.83 1.32-1.27t1.48-.61 1.34-.17q2.05 0 3.35 1.32 1.3 1.33 1.3 3.9v7.7h-2.96v-7.25q0-1.54-.66-2.24-.67-.7-1.79-.7-1.14 0-1.88.77-.74.76-.74 2.17V823H208v-7.25q0-1.54-.67-2.24-.66-.7-1.75-.7-1.14 0-1.9.77-.75.76-.75 2.17V823zm28.11.26q-1.85 0-3.33-.83t-2.34-2.3-.86-3.37v-.23q0-1.9.86-3.36.86-1.45 2.34-2.27t3.33-.82 3.32.82 2.32 2.27q.86 1.46.86 3.33v.26q0 1.9-.86 3.37t-2.32 2.3q-1.47.83-3.32.83m0-2.65q1.56 0 2.54-1.08.97-1.08.97-2.77v-.26q0-1.66-.97-2.72-.98-1.05-2.54-1.05-1.53 0-2.52 1.07-.99 1.06-.99 2.73v.23q0 1.69.99 2.77t2.52 1.08m9.18 2.39v-12.66h2.88v1.84q.47-1.09 1.38-1.52t2.03-.43h1.04v2.97h-1.27q-1.49 0-2.28.67-.79.68-.79 1.98V823zm14.61.26q-1.9 0-3.34-.82t-2.25-2.29-.81-3.42v-.26q0-1.79.75-3.25.74-1.45 2.1-2.3 1.37-.84 3.19-.84 1.89 0 3.25.92 1.35.92 1.97 2.61.63 1.69.34 3.98h-8.63q.15 1.33 1.08 2.2.92.87 2.51.87.93 0 1.61-.26.67-.26 1.22-.78l1.69 1.77q-.75.93-1.96 1.4t-2.72.47m-.34-10.76q-1.32 0-2.08.82-.75.81-.96 2.14h5.72q-.05-1.4-.79-2.18t-1.89-.78m13.08 2.62v-2.44h15.89l-6.92-6.89h3.51l8.09 8.19-8.09 8.03h-3.54l7.08-6.89z"/><svg xmlns="http://www.w3.org/2000/svg" xmlns:c2pa="http://c2pa.org/manifest" width="400" height="400" x="610" y="320" viewBox="0 0 1080 1080"><defs><clipPath id="clippath"><circle cx="360" cy="675" r="225" class="cls-9"/></clipPath><clipPath id="clippath-1"><path d="M540 629.8h135V855H540z" class="cls-5"/></clipPath><clipPath id="clippath-2"><path d="M675 630h360v360H675z" class="cls-7"/></clipPath><clipPath id="clippath-3"><path d="M90 720h225v270H90z" class="cls-2"/></clipPath><clipPath id="clippath-4"><path d="M405 360h270v270H405z" class="cls-6"/></clipPath><clipPath id="clippath-5"><path d="M675 360h360v270H675z" class="cls-7"/></clipPath><clipPath id="clippath-6"><path d="M270 810c0-15.24 1.37-45-45-45s-55.81 6.65-69.59 21.14a45 45 0 0 0-12.43 26.05c-.99 8.03 3.49 12.61 3.49 15.84 0 5.87-14.26 14.34-17.27 17.19s-1.35 8.06 3.17 9.78 7.47 3.09 7.22 9.78c-.12 3.12-3.15 5.68-1.83 9.51 1.92 5.55-2.75 8.87-2.75 14.46 0 11.43 5.69 11.25 14.23 11.25h8.3c38.57.01 35.3 25.36 22.47 45-6.93 10.6-22.5 19.11-22.5 22.5h112.5c0-26.19-22.5-36.57-22.5-67.5s22.5-37.34 22.5-90Z" class="cls-15"/></clipPath><clipPath id="clippath-7"><rect width="202.5" height="315" x="753.8" y="663.75" class="cls-10" rx="9.59" ry="9.59" transform="rotate(90 855.05 821.25)"/></clipPath><clipPath id="clippath-9"><path d="M225.03 155.59c-63.2 0-114.43 51.23-114.43 114.43s51.23 114.43 114.43 114.43 114.43-51.23 114.43-114.43-51.23-114.43-114.43-114.43Zm0 191.56c-42.6 0-77.13-34.53-77.13-77.13s34.53-77.13 77.13-77.13 77.13 34.53 77.13 77.13-34.53 77.13-77.13 77.13Z" class="cls-9"/></clipPath><style>.cls-2{fill:#c8dafc}.cls-10,.cls-12,.cls-14,.cls-15,.cls-2,.cls-3,.cls-4,.cls-5,.cls-6,.cls-7,.cls-8,.cls-9{stroke-miterlimit:10;stroke-width:4px}.cls-10,.cls-12,.cls-14,.cls-15,.cls-2,.cls-5,.cls-6,.cls-7,.cls-8,.cls-9{stroke:#0c322c}.cls-3{stroke:#90ebcd}.cls-14,.cls-3,.cls-4{fill:none}.cls-4{stroke:#2453ff}.cls-19,.cls-7{fill:#90ebcd}.cls-5{fill:#ffefe9}.cls-21,.cls-9{fill:#30ba78}.cls-10{fill:#fff}.cls-15{fill:#2453ff}.cls-6{fill:#fe7c3f}.cls-8{fill:#192072}.cls-12{fill:#0c322c}</style></defs><g id="BG"><path d="M675 629.8c-74.44 0-134.78-60.34-134.78-134.78S600.56 360.24 675 360.24s134.78 60.34 134.78 134.78S749.44 629.8 675 629.8Zm180-134.78c0-99.41-80.59-180-180-180s-180 80.59-180 180 80.59 180 180 180 180-80.59 180-180Zm45 0c0-124.26-100.74-225-225-225s-225 100.74-225 225 100.74 225 225 225 225-100.74 225-225Zm45 0c0-149.12-120.88-270-270-270s-270 120.88-270 270 120.88 270 270 270 270-120.88 270-270Zm43.73 0c0-173.27-140.46-313.73-313.73-313.73S361.27 321.75 361.27 495.02 501.73 808.75 675 808.75s313.73-140.46 313.73-313.73Z" class="cls-14"/><circle cx="360" cy="675" r="225" class="cls-21"/><g style="clip-path:url(#clippath)"><path d="M877.5 247.49c-49.71 0-90 40.29-90 90s-40.29 90-90 90-90 40.29-90 90v.02c0 49.71-40.29 90-90 90s-90 40.29-90 90-40.29 90-90 90-90 40.29-90 90" class="cls-9"/><path d="M855 224.99c-49.71 0-90 40.29-90 90s-40.29 90-90 90-90 40.29-90 90v.02c0 49.71-40.29 90-90 90s-90 40.29-90 90-40.29 90-90 90-90 40.29-90 90" class="cls-9"/><path d="M832.5 202.49c-49.71 0-90 40.29-90 90s-40.29 90-90 90-90 40.29-90 90v.02c0 49.71-40.29 90-90 90s-90 40.29-90 90-40.29 90-90 90-90 40.29-90 90" class="cls-9"/><path d="M810 179.99c-49.71 0-90 40.29-90 90s-40.29 90-90 90-90 40.29-90 90v.02c0 49.71-40.29 90-90 90s-90 40.29-90 90-40.29 90-90 90-90 40.29-90 90" class="cls-9"/><path d="M787.5 157.49c-49.71 0-90 40.29-90 90s-40.29 90-90 90-90 40.29-90 90v.02c0 49.71-40.29 90-90 90s-90 40.29-90 90-40.29 90-90 90-90 40.29-90 90" class="cls-9"/></g><circle cx="360" cy="675" r="225" class="cls-14"/><path d="M540 629.8h135V855H540z" style="fill:#ffefe9"/><g style="clip-path:url(#clippath-1)"><path d="M675 629.8c-74.44 0-134.78-60.34-134.78-134.78S600.56 360.24 675 360.24s134.78 60.34 134.78 134.78S749.44 629.8 675 629.8Zm180-134.78c0-99.41-80.59-180-180-180s-180 80.59-180 180 80.59 180 180 180 180-80.59 180-180Zm45 0c0-124.26-100.74-225-225-225s-225 100.74-225 225 100.74 225 225 225 225-100.74 225-225Zm45 0c0-149.12-120.88-270-270-270s-270 120.88-270 270 120.88 270 270 270 270-120.88 270-270Zm43.73 0c0-173.27-140.46-313.73-313.73-313.73S361.27 321.75 361.27 495.02 501.73 808.75 675 808.75s313.73-140.46 313.73-313.73Z" class="cls-14"/><circle cx="360" cy="675" r="225" style="stroke-miterlimit:10;stroke-width:4px;stroke:#0c322c;fill:#ffd3bd"/></g><path d="M540 629.8h135V855H540z" class="cls-14"/><path d="M675 630h360v360H675z" class="cls-19"/><path d="M675 629.8c-74.44 0-134.78-60.34-134.78-134.78S600.56 360.24 675 360.24s134.78 60.34 134.78 134.78S749.44 629.8 675 629.8Zm180-134.78c0-99.41-80.59-180-180-180s-180 80.59-180 180 80.59 180 180 180 180-80.59 180-180Zm45 0c0-124.26-100.74-225-225-225s-225 100.74-225 225 100.74 225 225 225 225-100.74 225-225Zm45 0c0-149.12-120.88-270-270-270s-270 120.88-270 270 120.88 270 270 270 270-120.88 270-270Zm43.73 0c0-173.27-140.46-313.73-313.73-313.73S361.27 321.75 361.27 495.02 501.73 808.75 675 808.75s313.73-140.46 313.73-313.73Z" class="cls-14" style="clip-path:url(#clippath-2)"/><path d="M675 630h360v360H675z" class="cls-14"/><path d="M90 720h225v270H90z" style="fill:#c8dafc"/><g style="clip-path:url(#clippath-3)"><circle cx="360" cy="675" r="225" style="stroke-miterlimit:10;stroke-width:4px;stroke:#0c322c;fill:#81aefc"/><path d="M877.5 247.49c-49.71 0-90 40.29-90 90s-40.29 90-90 90-90 40.29-90 90v.02c0 49.71-40.29 90-90 90s-90 40.29-90 90-40.29 90-90 90-90 40.29-90 90" class="cls-14"/><path d="M855 224.99c-49.71 0-90 40.29-90 90s-40.29 90-90 90-90 40.29-90 90v.02c0 49.71-40.29 90-90 90s-90 40.29-90 90-40.29 90-90 90-90 40.29-90 90" class="cls-14"/><path d="M832.5 202.49c-49.71 0-90 40.29-90 90s-40.29 90-90 90-90 40.29-90 90v.02c0 49.71-40.29 90-90 90s-90 40.29-90 90-40.29 90-90 90-90 40.29-90 90" class="cls-14"/><path d="M810 179.99c-49.71 0-90 40.29-90 90s-40.29 90-90 90-90 40.29-90 90v.02c0 49.71-40.29 90-90 90s-90 40.29-90 90-40.29 90-90 90-90 40.29-90 90" class="cls-14"/><path d="M787.5 157.49c-49.71 0-90 40.29-90 90s-40.29 90-90 90-90 40.29-90 90v.02c0 49.71-40.29 90-90 90s-90 40.29-90 90-40.29 90-90 90-90 40.29-90 90" class="cls-14"/></g><path d="M90 720h225v270H90z" class="cls-14"/><path d="M405 360h270v270H405z" style="fill:#fe7c3f"/><g style="clip-path:url(#clippath-4)"><circle cx="540" cy="495" r="135.01" class="cls-2"/><path d="M607.5 517.49v.02c0 49.71-40.29 90-90 90s-90 40.29-90 90-40.29 90-90 90-90 40.29-90 90" class="cls-14"/><path d="M585 494.99v.02c0 49.71-40.29 90-90 90s-90 40.29-90 90-40.29 90-90 90-90 40.29-90 90" class="cls-14"/><path d="M562.5 472.49v.02c0 49.71-40.29 90-90 90s-90 40.29-90 90-40.29 90-90 90-90 40.29-90 90" class="cls-14"/><path d="M540 449.99v.02c0 49.71-40.29 90-90 90s-90 40.29-90 90-40.29 90-90 90-90 40.29-90 90" class="cls-14"/><path d="M517.5 427.49v.02c0 49.71-40.29 90-90 90s-90 40.29-90 90-40.29 90-90 90-90 40.29-90 90" class="cls-14"/><path d="M405 494.9h63.95" style="stroke-miterlimit:10;stroke-width:4px;fill:none;stroke:#192072"/></g><path d="M405 360h270v270H405z" class="cls-14"/><path d="M675 360h360v270H675z" class="cls-19"/><path d="M675 629.8c-74.44 0-134.78-60.34-134.78-134.78S600.56 360.24 675 360.24s134.78 60.34 134.78 134.78S749.44 629.8 675 629.8Zm180-134.78c0-99.41-80.59-180-180-180s-180 80.59-180 180 80.59 180 180 180 180-80.59 180-180Zm45 0c0-124.26-100.74-225-225-225s-225 100.74-225 225 100.74 225 225 225 225-100.74 225-225Zm45 0c0-149.12-120.88-270-270-270s-270 120.88-270 270 120.88 270 270 270 270-120.88 270-270Zm43.73 0c0-173.27-140.46-313.73-313.73-313.73S361.27 321.75 361.27 495.02 501.73 808.75 675 808.75s313.73-140.46 313.73-313.73Z" class="cls-14" style="clip-path:url(#clippath-5)"/><path d="M675 360h360v270H675zm.09 89.9H1035m-359.91 22.6H1035m-359.91 44.9H1035m-359.91-22.5H1035m-359.91 45H1035" class="cls-14"/><path d="M540 854.98h135V990H540zM45.06 90H405v360.04H45.06z" class="cls-5"/><circle cx="225.03" cy="270.02" r="154.26" class="cls-7"/><path d="M674.96 90H1035v270H674.96z" class="cls-8"/><path d="M225 495.02V422.5" class="cls-14"/><circle cx="225" cy="495.02" r="4" class="cls-12"/></g><g id="Graphic"><path d="M270 810c0-15.24 1.37-45-45-45s-55.81 6.65-69.59 21.14a45 45 0 0 0-12.43 26.05c-.99 8.03 3.49 12.61 3.49 15.84 0 5.87-14.26 14.34-17.27 17.19s-1.35 8.06 3.17 9.78 7.47 3.09 7.22 9.78c-.12 3.12-3.15 5.68-1.83 9.51 1.92 5.55-2.75 8.87-2.75 14.46 0 11.43 5.69 11.25 14.23 11.25h8.3c38.57.01 35.3 25.36 22.47 45-6.93 10.6-22.5 19.11-22.5 22.5h112.5c0-26.19-22.5-36.57-22.5-67.5s22.5-37.34 22.5-90Z" style="fill:#2453ff"/><g style="clip-path:url(#clippath-6)"><path d="M225 832.5v78.75l-56.25 56.25H157.5l56.25-67.5v-67.49zm-67.5-45c45 0 45-.65 45 22.5 0 13.92-4.27 21.55-16.2 33.75C157.91 872.8 165.71 900 149.23 900c-39.29 0-56.71-33.66-45.94-67.5s-21.48-45 54.21-45Z" class="cls-10"/><circle cx="225" cy="821.25" r="33.75" class="cls-6"/><circle cx="225" cy="821.25" r="22.5" class="cls-8"/></g><path d="M270 810c0-15.24 1.37-45-45-45s-55.81 6.65-69.59 21.14a45 45 0 0 0-12.43 26.05c-.99 8.03 3.49 12.61 3.49 15.84 0 5.87-14.26 14.34-17.27 17.19s-1.35 8.06 3.17 9.78 7.47 3.09 7.22 9.78c-.12 3.12-3.15 5.68-1.83 9.51 1.92 5.55-2.75 8.87-2.75 14.46 0 11.43 5.69 11.25 14.23 11.25h8.3c38.57.01 35.3 25.36 22.47 45-6.93 10.6-22.5 19.11-22.5 22.5h112.5c0-26.19-22.5-36.57-22.5-67.5s22.5-37.34 22.5-90Z" class="cls-14"/><path d="M611.05 495.03a22.47 22.47 0 0 0-5.01-37.09 22.48 22.48 0 0 0-43.55-52.89 22.5 22.5 0 0 0-22.5 22.44c-.02-12.39-10.08-22.44-22.5-22.44s-22.5 10.06-22.5 22.47a22.48 22.48 0 0 0-21.05 30.42 22.47 22.47 0 0 0-5.01 37.09 22.45 22.45 0 0 0 5 37.07 22.48 22.48 0 0 0 43.56 52.86 22.5 22.5 0 0 0 22.5-22.46c0 12.41 10.08 22.46 22.5 22.46s22.5-10.06 22.5-22.47a22.48 22.48 0 0 0 21.06-30.39 22.46 22.46 0 0 0 5-37.07Z" class="cls-15"/><path d="M540 427.5v135m-22.5-134.97 22.5 22.5 22.5-22.5m-67.5 22.5h22.5v28.13h45v-28.13H585m-67.5 28.13h-33.73m0 33.75h33.73L534.41 495h11.2l16.89 16.91h33.74m-78.74 0v50.59m0-22.47H495m67.5-61.87h33.74m-33.74 33.75v50.59m0-22.47H585" class="cls-14"/><circle cx="562.5" cy="427.53" r="11.23" class="cls-6"/><circle cx="585" cy="450.03" r="11.23" class="cls-6"/><circle cx="585" cy="540.03" r="11.23" class="cls-6"/><circle cx="596.23" cy="478.16" r="11.23" class="cls-6"/><circle cx="596.23" cy="511.91" r="11.23" class="cls-6"/><circle cx="495" cy="450.03" r="11.23" class="cls-6"/><circle cx="495" cy="540.03" r="11.23" class="cls-6"/><circle cx="483.77" cy="478.16" r="11.23" class="cls-6"/><circle cx="483.77" cy="511.91" r="11.23" class="cls-6"/><circle cx="517.5" cy="427.53" r="11.23" class="cls-6"/><circle cx="562.5" cy="562.5" r="11.23" class="cls-6"/><circle cx="517.5" cy="562.5" r="11.23" class="cls-6"/><path d="M877.73 922.5h-45.36a22.5 22.5 0 0 1-22.5 22.5h-22.5v11.25h135.36V945h-22.5a22.5 22.5 0 0 1-22.5-22.5Z" class="cls-10"/><rect width="202.5" height="315" x="753.8" y="663.75" rx="9.59" ry="9.59" style="fill:#fff" transform="rotate(90 855.05 821.25)"/><g style="clip-path:url(#clippath-7)"><path d="M675.05 697.5h360V900h-360z" class="cls-21"/><path d="M675.05 697.5h360V900h-360z" class="cls-14"/></g><rect width="202.5" height="315" x="753.8" y="663.75" class="cls-14" rx="9.59" ry="9.59" transform="rotate(90 855.05 821.25)"/><rect width="22.5" height="11.25" x="843.8" y="736.88" class="cls-6" rx="5.63" ry="5.63"/><path d="M720 765h270v22.5H720zm.05 45h270v22.5h-270zm0 45h270v22.5h-270z" class="cls-12"/><path d="M720.05 854.98H945v22.52H720.05zm0-44.99H810v22.52h-89.95zm0-45H900v22.52H720.05z" class="cls-7"/><circle cx="562.5" cy="967.5" r="22.5" class="cls-6"/><circle cx="652.5" cy="967.5" r="22.5" class="cls-6"/><circle cx="562.5" cy="922.5" r="22.5" class="cls-15"/><circle cx="607.5" cy="922.5" r="22.5" class="cls-9"/><circle cx="652.5" cy="922.5" r="22.5" class="cls-15"/><circle cx="202.5" cy="630" r="22.5" class="cls-7"/><circle cx="247.5" cy="630" r="22.5" class="cls-6"/><circle cx="202.5" cy="584.97" r="22.5" class="cls-7"/><circle cx="247.5" cy="584.97" r="22.5" class="cls-6"/><circle cx="607.5" cy="877.5" r="22.5" class="cls-15"/><circle cx="652.5" cy="877.5" r="22.5" class="cls-6"/><circle cx="562.5" cy="877.5" r="22.5" class="cls-6"/><circle cx="562.5" cy="877.5" r="11.25" class="cls-9"/><circle cx="607.5" cy="967.5" r="22.5" class="cls-15"/><circle cx="607.47" cy="967.5" r="11.25" class="cls-9"/><path d="M202.5 562.47V540h45v22.47M225 539.9v-44.88h180" class="cls-14"/><path d="M1001.23 202.36H850.98a67.5 67.5 0 1 0-.04 45.07h26.41l11.27-11.28 11.34.11 11.32-11.35h11.23l11.25 11.24 11.27-11.23 11.23 11.23 11.23-11.23h11.27L990 236.15l22.5-22.53z" style="stroke-miterlimit:10;stroke-width:4px;stroke:#2453ff;fill:#192072"/><path d="M743.94 213a45 45 0 0 0-1.57 11.83 44.98 44.98 0 0 0 56.19 43.57" class="cls-3"/><path d="M809.81 263.81a44.98 44.98 0 1 0-61.43-61.46" class="cls-4"/><circle cx="787.35" cy="224.84" r="22.64" class="cls-4"/><path d="M787.49 168.66a56.23 56.23 0 0 0-33.95 101.06" class="cls-4"/><path d="M764.99 276.44a56.23 56.23 0 1 0 33.38-106.73" class="cls-3"/><circle cx="787.35" cy="224.89" r="33.81" class="cls-3"/><path d="M933.68 213.61h33.81l-11.23 11.23m-102.21-11.23h45.94m112.51 0h-45m22.49 11.23 11.22-11.23" class="cls-4"/><path d="M877.49 224.84h-22.5m33.63 0h11.39l11.23-11.23h11.27l11.23 11.23" class="cls-3"/><path d="M888.62 236.14h-34.57" class="cls-4"/><path d="M225.03 155.59c-63.2 0-114.43 51.23-114.43 114.43s51.23 114.43 114.43 114.43 114.43-51.23 114.43-114.43-51.23-114.43-114.43-114.43m0 191.56c-42.6 0-77.13-34.53-77.13-77.13s34.53-77.13 77.13-77.13 77.13 34.53 77.13 77.13-34.53 77.13-77.13 77.13" class="cls-21"/><g style="clip-path:url(#clippath-9)"><path d="m43.27 270.08 90.92-90.89 90.89 90.92L134.16 361z" class="cls-6"/><path d="m225.09 270.08-90.9-90.91 90.86-90.95z" class="cls-15"/></g><path d="M225.03 155.59c-63.2 0-114.43 51.23-114.43 114.43s51.23 114.43 114.43 114.43 114.43-51.23 114.43-114.43-51.23-114.43-114.43-114.43Zm0 191.56c-42.6 0-77.13-34.53-77.13-77.13s34.53-77.13 77.13-77.13 77.13 34.53 77.13 77.13-34.53 77.13-77.13 77.13Z" class="cls-14"/><path d="M853.6 472.5h-45.7a136 136 0 0 1 1.88 22.4H855q-.01-11.39-1.4-22.4Zm-4.3-22.6h-47.26a134 134 0 0 1 5.86 22.6h45.7q-1.44-11.55-4.3-22.6Zm5.7 45.12v-.11h-45.22v.11q-.01 11.46-1.86 22.39h45.69q1.37-11.01 1.38-22.39Zm43.89 22.38a222 222 0 0 1-3.38 22.5h45.75a268 268 0 0 0 2.8-22.5z" class="cls-9"/><path d="M807.92 517.4a134 134 0 0 1-5.8 22.5h47.24a179 179 0 0 0 4.26-22.5h-45.69Z" class="cls-9"/><path d="M853.62 517.4a179 179 0 0 1-4.26 22.5h46.16a228 228 0 0 0 3.38-22.5zm90.44-44.9a271 271 0 0 0-2.83-22.6h-45.75a224 224 0 0 1 3.41 22.6zm-45.18 0H853.6q1.38 11.02 1.4 22.4h45q0-11.34-1.12-22.4Z" class="cls-9"/><path d="M898.88 472.5q-1.14-11.48-3.41-22.6H849.3q2.86 11.04 4.3 22.6zm1.12 22.4h-45v.11q0 11.38-1.38 22.39h45.28a227 227 0 0 0 1.11-22.39zm0 0h45q-.01-11.33-.94-22.4h-45.18q1.1 11.06 1.12 22.4Z" class="cls-9"/><path d="M900 495.02q0 11.34-1.11 22.39h45.18q.92-11.08.93-22.39v-.11h-45z" class="cls-9"/><path d="M945 495.02q0 11.3-.93 22.39h43.85q.79-11.1.8-22.39v-.11h-43.73zm-95.64 44.88a180 180 0 0 1-55.3 90.1h60.96a224 224 0 0 0 40.49-90.1z" class="cls-9"/><path d="M849.36 539.9h-47.24c-18.49 52.37-68.42 89.9-127.12 89.9v.2h119.06a180 180 0 0 0 55.3-90.1Zm91.9 0h44.25a320 320 0 0 0 2.41-22.5h-43.85q-.94 11.4-2.8 22.5Zm-45.74 0a224 224 0 0 1-40.49 90.1h53.86a268 268 0 0 0 32.38-90.1z" class="cls-9"/><path d="M941.26 539.9a268 268 0 0 1-32.38 90.1h49.39a312 312 0 0 0 27.25-90.1zm-139.22-90h47.26a180 180 0 0 0-55.27-89.9H675v.23c58.62 0 108.48 37.42 127.04 89.67Zm142.96 45h43.73q-.01-11.3-.81-22.4h-43.86q.93 11.09.94 22.4Zm-.94-22.4h43.86a317 317 0 0 0-2.43-22.6h-44.26q1.88 11.15 2.83 22.6Zm41.42-22.6a311 311 0 0 0-27.23-89.9h-49.39a268 268 0 0 1 32.37 89.9z" class="cls-9"/><path d="M849.3 449.9h46.17a224 224 0 0 0-40.48-89.9h-60.97a180 180 0 0 1 55.27 89.9Z" class="cls-9"/><path d="M941.23 449.9a268 268 0 0 0-32.37-89.9H855a224 224 0 0 1 40.48 89.9z" class="cls-9"/><circle cx="801.72" cy="450.09" r="11.3" class="cls-15"/><circle cx="945" cy="472.5" r="11.3" class="cls-6"/><circle cx="855.05" cy="494.9" r="11.3" class="cls-15"/><circle cx="988.73" cy="517.4" r="11.3" class="cls-10"/><circle cx="895.61" cy="540" r="11.3" class="cls-10"/></g></svg></svg>