<svg xmlns="http://www.w3.org/2000/svg" width="1080" height="1080" viewBox="0 0 1080 1080"><defs><clipPath id="fcovclip-1" clipPathUnits="userSpaceOnUse"><rect width="842" height="842" x="585" y="-325" fill="#fff" rx="421" ry="421"/></clipPath></defs><path fill="#0c322c" d="M0 0h1080v1080H0z"/><svg xmlns="http://www.w3.org/2000/svg" id="lockup-svg" width="311" height="192" x="89" y="476" data-surface="#0c322c" preserveAspectRatio="xMidYMid meet" style="display:block;width:100%;height:100%" viewBox="0 0 2366.88 559.69"><path fill="#30ba78" d="M536.64 86.72a9.1 9.1 0 0 0-13.04 0c-4 4-3.52 10.96 1.44 14.24 3.04 2 7.12 2 10.16 0a9.28 9.28 0 0 0 1.44-14.24m-11.92-31.28c-24.64-5.76-46.8 16.32-40.96 40.96a34.3 34.3 0 0 0 25.44 25.44c24.64 5.76 46.8-16.4 40.96-40.96a34.3 34.3 0 0 0-25.44-25.44M362.08 194.08c-16.08-5.92-22.24-4.72-42.8-4.48-14.24.16-14.72-.32-30.96-.32-5.04 0-6.88 24 11.28 29.04 7.92 2.16 16.56 3.6 22.48 9.68 2.64 2.72 4.16 6.8-2 6.8h-45.04c-7.92 0-15.36.16-21.36-4.88-9.12-7.68-13.36-18.24-17.92-28.8-4.72-10.88-9.84-21.68-15.76-31.92-11.92-20.48-27.6-38.96-48.72-50.24-26.32-14.16-71.04-21.12-106.48 6.08-37.28 28.64-29.28 82.32 3.36 108.56 12.88 10.4 29.68 14.72 46.24 13.76 32.24-1.92 56.08-25.68 50.16-54.96-2-9.84-7.68-19.04-16.32-24.16-6.16-3.6-13.36-4.88-20.48-4.88-7.6 0-15.76 1.6-21.2 6.88-6.48 6.24-7.52 17.36-2.32 24.8 2.88 4.08 7.52 7.52 6.72 12.88-.56 3.6-3.52 6.32-7.12 7.12-6.08 1.36-11.6-2.08-15.68-6.32-10.48-10.8-13.76-28-8-41.92 7.52-18.24 28.56-28.24 48.24-27.6 25.44.88 49.36 17.6 59.76 40.8s7.28 51.68-7.04 72.64C149.2 299.28 70.4 293.76 33.84 254.4 10.88 229.76-1.6 205.76.16 161.2c1.2-31.52 19.44-62.56 42.56-84.4C80.48 41.28 130.24 16.96 180.8 6.4a312 312 0 0 1 93.68-4.72c27.52 2.72 54.88 7.76 81.28 16 13.12 4.08 26 8.96 38.48 14.64 11.04 5.04 25.44 10.56 34 19.28 0-15.84-.64-33.2-.64-45.28a6.36 6.36 0 0 1 9.04-5.76c17.92 8.32 60.24 28.32 88.56 41.28 37.92 17.28 40.56 58.16 41.92 94.32 0 .8 0 1.68-.32 2.32-1.2 2.48-7.6 1.84-9.92 1.84-4.56 0-11.36 0-15.92.24-9.04.4-17.84.24-26.88-.24-16.72-.8-32.88-8.24-43.76-17.36-1.04-.88-4.56-1.92-6.24-.16s-1.12 4.56-.16 5.44c6.24 6.24 12.96 10.32 20.8 14.4 9.92 5.12 20.8 6.4 31.76 7.04 11.76.72 23.6.56 35.36-.72 9.84-.96 12.32-1.68 2.64 5.52-8.48 6.32-18.4 10.88-28.4 14.24-14.32 4.88-29.52 7.28-44.64 7.68q-13.78.36-27.44-1.44c-4.72-.56-9.36-1.44-14.08-1.92-3.84-.4-7.84-1.12-11.6-.32a15.5 15.5 0 0 0-8.88 5.44c-2.96 3.92-4 14.64-2.32 19.28 3.36 9.04 10.72 14.24 18.4 18.88 8.4 4.96 19.44 6.72 21.6 16.24.48 2-17.44 2.08-19.44 2h-23.76s-12.96.32-17.92-1.52c-.16 0-.32-.16-.48-.16-2.72-1.44-3.92-5.12-4.88-7.92-1.36-3.92-3.68-7.84-6.48-11.84-5.36-7.68-13.6-16-22.24-19.2M542.08 88.56a25.2 25.2 0 1 1-50.4 0 25.2 25.2 0 0 1 50.4 0"/><path fill="#fff" d="M717.92 232.96c48.64 0 81.6-27.84 81.6-70.72 0-80.96-112.64-49.28-112.64-97.92 0-18.88 15.36-31.04 38.72-31.04 17.28 0 30.08 6.72 43.2 19.84l24.96-24.96C778.72 11.2 754.72 0 725.92 0c-47.04 0-78.08 26.56-78.08 68.16 0 77.44 111.68 48.32 111.68 99.84 0 18.88-15.04 31.68-40.32 31.68-18.88 0-34.88-7.36-52.16-24.96l-24.32 24.32c17.28 20.48 41.6 33.92 75.2 33.92m203.2 0c52.48 0 87.04-27.2 87.04-81.92V4.48H968.8v143.36c0 32.64-18.88 48.64-47.68 48.64s-47.36-16-47.36-48.64V4.48H834.4v146.56c0 54.72 33.92 81.92 86.72 81.92m195.2 0c48.64 0 81.6-27.84 81.6-70.72 0-80.96-112.64-49.28-112.64-97.92 0-18.88 15.36-31.04 38.72-31.04 17.28 0 30.08 6.72 43.2 19.84l24.96-24.96C1177.12 11.2 1153.12 0 1124.32 0c-47.04 0-78.08 26.56-78.08 68.16 0 77.44 111.68 48.32 111.68 99.84 0 18.88-15.04 31.68-40.32 31.68-18.88 0-34.88-7.36-52.16-24.96l-24.32 24.32c17.28 20.48 41.6 33.92 75.2 33.92m153.6-4.48h109.12v-35.84h-96c-6.4 0-11.52-5.12-11.52-11.52v-48h100.8V98.88h-100.8V51.84c0-6.4 5.12-11.52 11.52-11.52h96V4.48h-109.12c-21.76 0-37.12 15.68-37.12 37.44v149.12c0 21.76 15.36 37.44 37.12 37.44m281.28 3.84c45.76 0 77.44-26.24 77.44-67.52 0-81.28-116.8-44.8-116.8-101.76 0-23.36 18.56-39.04 47.36-39.04 18.24 0 32.64 6.4 45.12 19.2l17.6-17.6C1607.84 10.24 1586.08.64 1559.2.64c-45.12 0-74.56 25.28-74.56 64.96 0 77.44 115.84 43.2 115.84 103.04 0 24-18.24 40.32-48.32 40.32-21.44 0-39.68-8-55.04-25.6l-17.28 17.28c16 19.52 40 31.68 71.36 31.68m160.64-3.84h23.68V206.4h-23.36c-9.6 0-17.28-7.36-17.28-17.28V96.96h40.64v-22.4h-40.64V36.48h-25.6v38.08h-27.84v22.4h27.84v90.56c0 29.76 21.44 40.96 42.56 40.96m115.52 3.2c16 0 37.44-6.08 50.24-26.24v23.04h23.04V74.56h-25.6v87.04c0 31.04-19.52 46.4-42.56 46.4-22.4 0-38.72-11.2-38.72-44.16V74.56h-25.92v93.76c0 44.16 25.28 63.36 59.52 63.36m183.36 0c24 0 43.84-11.52 56-31.04v27.84h23.36V-5.12h-25.92V99.52c-11.84-17.6-30.72-28.16-53.44-28.16-41.6 0-72.32 32-72.32 78.08v2.88c0 47.36 30.08 79.36 72.32 79.36m3.52-23.04c-28.8 0-49.92-22.08-49.92-56.32v-2.88c0-33.28 21.12-55.04 49.92-55.04 29.76 0 51.52 22.72 51.52 57.28s-21.76 56.96-51.52 56.96m134.4-168h28.8V3.52h-28.8zm1.6 187.84h25.6V74.56h-55.68v22.4h30.08zm140.16 3.2c44.16 0 76.48-32.64 76.48-79.36v-3.52c0-45.12-32.32-77.44-76.48-77.44-43.84 0-76.48 32.32-76.48 78.08v2.88c0 46.72 32.64 79.36 76.48 79.36m0-23.04c-29.76 0-50.88-23.04-50.88-56.32v-2.88c0-32.32 21.12-55.04 50.88-55.04 30.08 0 50.56 22.4 50.56 54.4v3.52c0 33.28-20.48 56.32-50.56 56.32M642.72 492.48h15.01V361.44l84.67 131.04h14.34v-156.8h-14.78v131.26l-84.9-131.26h-14.34zm194.88 2.24c30.24 0 52.2-22.85 52.2-55.33v-2.46c0-31.36-21.96-53.76-52.2-53.76s-52.41 22.4-52.41 54.21v2.01c0 32.48 22.17 55.33 52.41 55.33m0-12.77c-22.4 0-38.3-17.47-38.3-42.56v-2.01c0-24.2 15.9-41.44 38.3-41.44s37.86 16.8 37.86 40.99v2.46c0 25.09-15.46 42.56-37.86 42.56m125.22 12.77c30.24 0 52.19-22.85 52.19-55.33v-2.46c0-31.36-21.95-53.76-52.19-53.76s-52.42 22.4-52.42 54.21v2.01c0 32.48 22.18 55.33 52.42 55.33m0-12.77c-22.4 0-38.3-17.47-38.3-42.56v-2.01c0-24.2 15.9-41.44 38.3-41.44s37.86 16.8 37.86 40.99v2.46c0 25.09-15.46 42.56-37.86 42.56m108.42 12.55c22.84 0 38.97-12.55 38.97-30.69 0-40.1-59.58-22.85-59.58-50.4 0-10.98 9.63-18.59 23.97-18.59a44 44 0 0 1 27.32 9.4l6.5-10.08c-8.51-6.49-20.38-10.97-33.6-10.97-22.85 0-37.86 12.99-37.86 31.36 0 39.65 59.14 21.73 59.14 49.73 0 11.2-10.08 18.81-24.86 18.81-11.65 0-23.75-4.48-31.59-11.65l-6.49 9.86c8.51 8.06 23.07 13.22 38.08 13.22m98.11.22c15.68 0 27.1-4.93 33.37-13.89l.23 11.65h12.77a940 940 0 0 1-.68-35.62v-34.04c0-26.66-16.35-39.65-40.76-39.65-15.68 0-31.81 5.37-41.44 16.57l6.94 10.08c8.51-9.63 21.95-13.66 33.82-13.66 16.8 0 27.33 7.84 27.33 27.33v16.57c-6.72-5.6-16.8-8.96-30.01-8.96-24.87 0-42.12 13.44-42.12 32.04 0 18.81 15.91 31.58 40.55 31.58m3.36-10.98c-18.37 0-29.35-8.73-29.35-20.6 0-12.32 10.98-20.39 29.12-20.39s28.45 8.07 28.45 20.39c0 12.09-10.08 20.6-28.22 20.6"/></svg><rect width="842" height="842" x="585" y="-325" fill="#c0efde" rx="421" ry="421"/><svg xmlns="http://www.w3.org/2000/svg" width="681" height="1104" x="399" y="-267" viewBox="0 0 800 800"><svg width="800" height="800" aria-hidden="true" class="curious-geeko spot-illustration" preserveAspectRatio="xMaxYMid meet" viewBox="-20 -15 1040 631.6"><defs><linearGradient id="linear-gradient" x1="1057.3" x2="1103.8" y1="672.1" y2="672.1" gradientTransform="translate(-124 -300)" gradientUnits="userSpaceOnUse"><stop id="stop1" offset="0" stop-color="#005a37"/><stop id="stop2" offset=".5" stop-color="#006c44"/><stop id="stop3" offset="1" stop-color="#008658"/></linearGradient><linearGradient id="linear-gradient-2" x1="1098.1" x2="1008.8" y1="700.5" y2="700.5" gradientTransform="translate(-124 -300)" gradientUnits="userSpaceOnUse"><stop id="stop4" offset="0" stop-color="#008658"/><stop id="stop5" offset=".3" stop-color="#068c5c"/><stop id="stop6" offset=".6" stop-color="#1a9d67"/><stop id="stop7" offset="1" stop-color="#35b677"/></linearGradient><linearGradient id="linear-gradient-3" x1="-59.6" x2="993" y1="175" y2="175" gradientTransform="rotate(-7 2626 -317)" gradientUnits="userSpaceOnUse"><stop id="stop8" offset="0" stop-color="#fff" stop-opacity="0"/><stop id="stop9" offset=".7" stop-color="#fff" stop-opacity=".2"/><stop id="stop10" offset="1" stop-color="#fff" stop-opacity=".3"/></linearGradient><linearGradient id="linear-gradient-4" x1="13.9" x2="61.1" y1="-1009.7" y2="-1091.5" gradientTransform="rotate(-20 4226 -971)" gradientUnits="userSpaceOnUse"><stop id="stop11" offset="0" stop-color="#fff" stop-opacity="0"/><stop id="stop12" offset="1" stop-color="#a87c4f"/></linearGradient><linearGradient id="linear-gradient-5" x1="345.3" x2="524.2" y1="-879.3" y2="-879.3" gradientTransform="rotate(-18 3800 -950)" gradientUnits="userSpaceOnUse"><stop id="stop13" offset="0" stop-color="#fff" stop-opacity="0"/><stop id="stop14" offset=".1" stop-color="#fcfbfa" stop-opacity="0"/><stop id="stop15" offset=".3" stop-color="#f6f2ee" stop-opacity=".1"/><stop id="stop16" offset=".4" stop-color="#ece3d9" stop-opacity=".2"/><stop id="stop17" offset=".5" stop-color="#decdbc" stop-opacity=".4"/><stop id="stop18" offset=".6" stop-color="#cbb197" stop-opacity=".6"/><stop id="stop19" offset=".8" stop-color="#b5906a" stop-opacity=".8"/><stop id="stop20" offset=".8" stop-color="#a87c4f"/></linearGradient><linearGradient id="linear-gradient-6" x1="444.8" x2="961.5" y1="618.5" y2="618.5" gradientTransform="translate(-124 -300)" gradientUnits="userSpaceOnUse"><stop id="stop21" offset="0" stop-color="#1b6936" stop-opacity="0"/><stop id="stop22" offset=".5" stop-color="#1a6835" stop-opacity="0"/><stop id="stop23" offset=".8" stop-color="#1a6835" stop-opacity=".1"/><stop id="stop24" offset=".9" stop-color="#196835" stop-opacity=".2"/><stop id="stop25" offset="1" stop-color="#196835" stop-opacity=".3"/></linearGradient><linearGradient id="linear-gradient-7" x1="-251.2" x2="-.9" y1="676.5" y2="676.5" gradientTransform="rotate(31 214 1915)scale(-1 1)" gradientUnits="userSpaceOnUse"><stop id="stop28" offset="0" stop-color="#fff" stop-opacity="0"/><stop id="stop29" offset=".2" stop-color="#c0d6c8" stop-opacity=".1"/><stop id="stop30" offset=".7" stop-color="#45855c" stop-opacity=".3"/><stop id="stop31" offset="1" stop-color="#196835" stop-opacity=".3"/></linearGradient><linearGradient id="linear-gradient-8" x1="-84.6" x2="-84.6" y1="558.3" y2="631.6" gradientTransform="translate(-124 -300)" href="#linear-gradient-7"/><linearGradient id="linear-gradient-9" x1="170.9" x2="170" y1="565.5" y2="610.5" gradientTransform="rotate(31 214 1915)scale(-1 1)" gradientUnits="userSpaceOnUse"><stop id="stop32" offset="0" stop-color="#fff" stop-opacity="0"/><stop id="stop33" offset=".6" stop-color="#639976" stop-opacity=".3"/><stop id="stop34" offset="1" stop-color="#196835" stop-opacity=".5"/></linearGradient><linearGradient id="linear-gradient-10" x1="-78.6" x2="-78.6" y1="477.7" y2="615.1" gradientTransform="translate(-124 -300)" href="#linear-gradient-9"/><linearGradient id="linear-gradient-11" x1="10137.6" x2="10196.4" y1="-1581.3" y2="-1588.7" gradientTransform="rotate(164 5358 198)scale(1 -1)" gradientUnits="userSpaceOnUse"><stop id="stop35" offset="0" stop-color="#fff" stop-opacity="0"/><stop id="stop36" offset=".2" stop-color="#f5f8f6" stop-opacity="0"/><stop id="stop37" offset=".4" stop-color="#d8e6dd" stop-opacity=".2"/><stop id="stop38" offset=".6" stop-color="#a9c7b4" stop-opacity=".4"/><stop id="stop39" offset=".8" stop-color="#689b7a" stop-opacity=".7"/><stop id="stop40" offset="1" stop-color="#196835"/></linearGradient><linearGradient id="linear-gradient-12" x1="382.7" x2="459.1" y1="806.5" y2="806.5" gradientTransform="translate(-124 -300)" gradientUnits="userSpaceOnUse"><stop id="stop41" offset="0" stop-color="#008658"/><stop id="stop42" offset=".5" stop-color="#006c44"/><stop id="stop43" offset="1" stop-color="#005a37"/></linearGradient><linearGradient id="linear-gradient-13" x1="264.1" x2="439.4" y1="775.9" y2="775.9" gradientUnits="userSpaceOnUse"><stop id="stop44" offset="0" stop-color="#008658"/><stop id="stop45" offset=".6" stop-color="#22a56c"/><stop id="stop46" offset="1" stop-color="#35b677"/></linearGradient><linearGradient id="linear-gradient-14" x1="457.1" x2="417.6" y1="818.4" y2="818.4" gradientTransform="translate(-124 -300)" href="#linear-gradient-13"/><linearGradient id="linear-gradient-16" x1="518" x2="518" y1="492.3" y2="672.3" gradientTransform="translate(-124 -300)" gradientUnits="userSpaceOnUse"><stop id="stop51" offset="0" stop-color="#1b6936" stop-opacity="0"/><stop id="stop52" offset=".4" stop-color="#1a6835" stop-opacity="0"/><stop id="stop53" offset=".7" stop-color="#1a6835" stop-opacity=".1"/><stop id="stop54" offset="1" stop-color="#196835" stop-opacity=".3"/></linearGradient><linearGradient id="linear-gradient-17" x1="-8.1" x2="-8.1" y1="134.1" y2="400" gradientTransform="rotate(-179 118 -69)scale(1 -1)" gradientUnits="userSpaceOnUse"><stop id="stop55" offset="0" stop-color="#0d6b37" stop-opacity="0"/><stop id="stop56" offset=".5" stop-color="#0c6a36" stop-opacity="0"/><stop id="stop57" offset=".7" stop-color="#0c6a36" stop-opacity=".1"/><stop id="stop58" offset=".8" stop-color="#0c6a36" stop-opacity=".2"/><stop id="stop59" offset=".9" stop-color="#0b6a36" stop-opacity=".3"/><stop id="stop60" offset="1" stop-color="#0b6a36" stop-opacity=".5"/></linearGradient><linearGradient id="linear-gradient-18" x1="2161.3" x2="2161.3" y1="-3069.5" y2="-3054.5" gradientTransform="matrix(1 .02 .02 -1 -1793 -2678)" gradientUnits="userSpaceOnUse"><stop id="stop65" offset="0" stop-color="#fff" stop-opacity="0"/><stop id="stop66" offset=".1" stop-color="#fff" stop-opacity=".1"/><stop id="stop67" offset=".3" stop-color="#fff" stop-opacity=".4"/><stop id="stop68" offset=".5" stop-color="#fff" stop-opacity=".6"/><stop id="stop69" offset=".6" stop-color="#fff" stop-opacity=".8"/><stop id="stop70" offset=".8" stop-color="#fff" stop-opacity=".9"/><stop id="stop71" offset=".9" stop-color="#fff" stop-opacity="1"/><stop id="stop72" offset="1" stop-color="#fff"/></linearGradient><linearGradient id="linear-gradient-19" x1="1.7" x2="52.5" y1="285.4" y2="373.4" gradientTransform="rotate(-179 118 -69)scale(1 -1)" gradientUnits="userSpaceOnUse"><stop id="stop73" offset="0" stop-color="#fff" stop-opacity="0"/><stop id="stop74" offset="1" stop-color="#196835" stop-opacity=".5"/></linearGradient><linearGradient id="linearGradient115" x1="-251.2" x2="-.9" y1="676.5" y2="676.5" gradientTransform="rotate(31 692 1543)scale(-1 1)" gradientUnits="userSpaceOnUse" href="#linear-gradient-7"/><linearGradient id="linearGradient116" x1="170.9" x2="170" y1="565.5" y2="610.5" gradientTransform="rotate(31 692 1543)scale(-1 1)" gradientUnits="userSpaceOnUse" href="#linear-gradient-9"/><linearGradient id="linearGradient117" x1="264.1" x2="439.4" y1="775.9" y2="775.9" gradientTransform="translate(-124 -300)" gradientUnits="userSpaceOnUse" href="#linear-gradient-13"/><linearGradient id="linearGradient119" x1="2161.3" x2="2161.3" y1="-3069.5" y2="-3054.5" gradientTransform="matrix(1 .02 .02 -1 -1919 -2990)" gradientUnits="userSpaceOnUse" href="#linear-gradient-18"/><radialGradient id="radial-gradient" cx="56" cy="427.5" r="209" fx="56" fy="427.5" gradientTransform="rotate(31 214 1915)scale(-1 1)" gradientUnits="userSpaceOnUse"><stop id="stop26" offset="0" stop-color="#a7d8bb"/><stop id="stop27" offset="1" stop-color="#fff" stop-opacity="0"/></radialGradient><radialGradient id="radial-gradient-2" cx="-75.5" cy="583.8" r="62.8" fx="-75.5" fy="583.8" gradientTransform="translate(-124 -300)" href="#radial-gradient"/><radialGradient id="radial-gradient-3" cx="-.4" cy="228.8" r="99.8" fx="-.4" fy="228.8" gradientTransform="rotate(-179 118 -69)scale(1 -1)" href="#radial-gradient"/><radialGradient id="radial-gradient-5" cx="21.5" cy="345.7" r="54.8" fx="21.5" fy="345.7" gradientTransform="rotate(-179 118 -69)scale(1 -1)" href="#radial-gradient"/><radialGradient id="radialGradient115" cx="56" cy="427.5" r="209" fx="56" fy="427.5" gradientTransform="rotate(31 692 1543)scale(-1 1)" gradientUnits="userSpaceOnUse" href="#radial-gradient"/><clipPath id="clipPath120" clipPathUnits="userSpaceOnUse"><circle id="circle121" cx="181.7" cy="442" r="50" fill="#fff"/></clipPath><style id="style1">.cls-5{fill:#8e755a}.cls-23{fill:#008657}.cls-24{fill:#34b677}.cls-29{fill:#a47c53}</style></defs><g class="gc-branch"><path id="path80" d="M0 347s190-33 239-24c48 8 182 14 266 50 83 36 334 92 354 91 33-1 84 7 96 10 20 7 121 13 121 13s2 56 0 57c-4 6-124-21-124-21l-127-14S325 355 209 361c-115 5-196 19-203 4l-6-16z" class="cls-29" style="isolation:isolate"/><path id="path81" fill="url(#linear-gradient-3)" d="M240 336c49 8 183 14 266 50 84 36 334 92 354 91 34-1 84 7 96 11 7 2 121 17 121 17l-1-18s-108-7-121-13c-12-3-63-11-96-10-20 1-271-55-354-91-84-36-218-42-266-50-49-9-239 24-239 24v2l4 10c24-4 191-31 236-23"/><path id="path82" fill="url(#linear-gradient-4)" d="m5 361 1 4c7 15 88 1 203-4 78-4 201 32 276 52l21-39-1-1-18-7-30 6s-73 5-73-6c1-8 8-18 12-23l-24-4-51 19-60-11 11-20-48-6-23 12C177 345 5 361 5 361" style="mix-blend-mode:multiply;opacity:.5;isolation:isolate"/><path id="path84" d="M945 503c-12-4-62-11-96-10-20 0-270-56-354-92-83-36-217-42-266-50-37-6-157 11-211 20 27 4 98-6 191-10 116-6 616 148 616 148s73 11 108 12c11 0 13 1 19 2 0 0 57 14 57 12 1 0 61 13 67 9l1-16c-9-4-47-6-48-6-14-6-55-12-55-12z" class="cls-5"/><path id="path85" fill="url(#linear-gradient-5)" d="M601 447q7 1 40 9l136 36 16-39c-83-18-118-28-176-43z" style="mix-blend-mode:multiply;isolation:isolate"/><path id="path96" d="M664 462c-2-10 3-22 5-32l2-6c-44-11-88-23-123-35l2 4q8 19 3 38z" class="cls-29" style="isolation:isolate"/><path id="path97" fill="#b38f6d" d="m669 430 2-6c-44-11-88-23-123-35l2 4 4 11 113 32z" style="isolation:isolate"/><path id="path98" d="m664 453-110-30-1 8 111 31z" class="cls-5" style="isolation:isolate"/></g><g id="gc-leaves-2"><path id="path74" d="m969 477 4-6q5-4 5-10l-5 4-11 10-3 3z" class="cls-29" style="isolation:isolate"/><path id="path75" d="M951 283c6 11 18 18 27 27q19 18 24 41 8 33-2 63l-5 16q-3 9-10 16-5 5-6 12l-3 6 2-11q0-4-2-7a168 168 0 0 1-42-80q-2-12 3-24l11-41 1-14v-4z" class="cls-23" style="isolation:isolate"/><path id="path76" fill="url(#linear-gradient)" d="M976 463v-2q3-11-6-20l-18-22q-20-29-18-65l5-25 8-28q3-9 2-20l3 4q9 27 15 55l11 66q4 23 1 45v7l-1 6z" style="isolation:isolate"/><path id="path77" d="m975 466-5-6q-3-4-7-5l-39-11q-16-11-28-27-11-17-11-37l1-37q0-6 5-4l23 1q22 6 37 25 16 18 18 43l2 42q0 4 2 8l4 5-1 3z" class="cls-23" style="isolation:isolate"/><path id="path78" fill="url(#linear-gradient-2)" d="M974 462q-6-4-15-5-24-4-45-19a68 68 0 0 1-29-56l2-37v-6q4 2 5 6l34 53q22 32 46 61z" style="isolation:isolate"/></g><path id="path79" d="M360 290c-10 0-22 7-30 13l-11 11-17 19q-11 6-21 1c-9-3-32-1-39-7-7-5 20-20 23-22s30-21 36-30l4-7 1-7c3-11 11-33 33-45 30-17 65 25 64 51-1 24-25 23-30 23z" class="cls-23" style="isolation:isolate"/><path id="path83" d="m331 206-5-3c-34-26-23-91 13-121 20-18 85-13 91-14q18 1 35 3a424 424 0 0 1 137 38c29 14 104 55 100 120-2 51-57 82-90 96q-14 3-26 9c-56 4-86-4-113-17l-27-16-18-11-8-5q-48-30-68-51z" class="cls-24" style="isolation:isolate"/><path id="path86" d="M392 275c22 4 28 10 51 24l35 20c5 4-9 32-33 25-10-3-11 3-15 6-1 0 10 2 16 5 11 4 24 8 24 17 1 12-10 24-10 26 7 9 32-5 33-5l36-25 39-25q42-24 89-24c39 2 94 25 116 79 22 58-23 113-77 120q-34 4-62-16c-35-23-45-66-19-95q14-16 35-16 14 0 26 8 15 7 19 22c3 12-3 25-14 30q-10 2-16 9-2 8 3 13 10 8 22 4c19-5 34-22 37-42 4-26-13-51-35-64a92 92 0 0 0-95 6c-28 19-43 53-41 86 4 74 96 121 164 102 43-12 73-31 101-82 20-36 21-84 9-124a380 380 0 0 0-209-241 541 541 0 0 0-156-47c-16-2-36-5-51-1-51 9-119 87-83 136 4 3 16 18 22 28 5 7 7 24 10 23 0 0 17 16 29 18" class="cls-24" style="isolation:isolate"/><path id="path87" fill="url(#linear-gradient-6)" d="M392 275c22 4 28 10 51 24l35 20c5 4-9 32-33 25-10-3-11 3-15 6-1 0 10 2 16 5 11 4 24 8 24 17 1 12-10 24-10 26 7 9 32-5 33-5l36-25 39-25q42-24 89-24c39 2 94 25 116 79 22 58-23 113-77 120q-34 4-62-16c-35-23-45-66-19-95q14-16 35-16 14 0 26 8 15 7 19 22c3 12-3 25-14 30q-10 2-16 9-2 8 3 13 10 8 22 4c19-5 34-22 37-42 4-26-13-51-35-64a92 92 0 0 0-95 6c-28 19-43 53-41 86 4 74 96 121 164 102 43-12 73-31 101-82 20-36 21-84 9-124a380 380 0 0 0-209-241 541 541 0 0 0-156-47c-16-2-36-5-51-1-51 9-119 87-83 136 4 3 16 18 22 28 5 7 7 24 10 23 0 0 17 16 29 18" style="mix-blend-mode:multiply;isolation:isolate"/><path id="path88" fill="url(#radialGradient115)" d="M413 69s35 1 51 3q27 3 53 10 53 13 102 37 57 27 103 68c49 47 89 108 107 173q7 25 8 49C676 79 375 124 375 124l-5-54z" opacity=".3" style="isolation:isolate"/><path id="path89" fill="url(#linearGradient115)" d="M629 535c56 38 158-8 161-9q-30 28-70 39c-68 19-161-28-165-102q-1-27 11-50c-10 33 6 84 63 122" style="mix-blend-mode:multiply;isolation:isolate"/><path id="path90" fill="url(#linear-gradient-8)" d="M702 411c15 38-22 55-30 52s-3-8-2-8l11-5c11-4 17-18 14-29q-6-15-19-22-12-8-27-9-20 1-34 17-9 8-12 19s8-25 18-38c11-13 65-16 81 23" style="isolation:isolate"/><path id="path91" fill="url(#radial-gradient-2)" d="M595 376c27-19 66-22 95-6 22 13 39 38 35 64q-2 15-13 27c0-1 17-56-23-80-41-24-100 1-120 21q11-15 26-26" opacity=".3" style="isolation:isolate"/><path id="path92" fill="url(#linearGradient116)" d="m490 280-11 42q0-2-2-3l-35-20c-23-15-29-20-51-24 13-4 34-12 43-10l20 3z" style="mix-blend-mode:multiply;isolation:isolate"/><path id="path93" d="M429 269q-16 12-22 32l-4 17-3 12s-20 37-31 40c-7 3-21 5-20-3-1-7 21-29 6-30l-29-4s2-7 14-10 19-18 20-31l-1-9-3-7c-4-12-10-39 4-64 20-35 81-17 98 8 14 23-11 38-16 40l-1 1q-6 3-12 8" class="cls-24" style="isolation:isolate"/><path id="path94" fill="url(#linear-gradient-10)" d="M598 313s99-41 167 40c67 81-17 141-17 141 26-23 39-59 24-96-21-54-76-77-115-79q-48 0-89 24l-32 20c24-21 39-43 62-50" style="mix-blend-mode:multiply;isolation:isolate"/><path id="path95" fill="url(#linear-gradient-11)" d="M338 83c5-3 8-9 32-13l-10 140q-1-1-8 24-6-7-9-13c-18-36-12-76-24-87q-1-43 19-51" style="mix-blend-mode:multiply;isolation:isolate"/><path id="path99" d="m334 415 6-9 8-7c5-6 3-20 9-27l15 11-28 28-8 5z" class="cls-5" style="isolation:isolate"/><g id="gc-leaves-1"><path id="path100" d="m335 418-8 23q-4 17-16 31l-15 18c-20 23-28 50-33 79l-5 33 5-2 25-12q16-9 28-22c14-16 21-62 8-79-5-6-2-13-1-19l14-49z" class="cls-23" style="isolation:isolate"/><path id="path101" fill="url(#linear-gradient-12)" d="m259 600 15-7q35-15 43-54l12-81 5-45-2 5q-1 15-9 30l-23 68c-9 24-17 48-33 69z" style="isolation:isolate"/><path id="path102" d="m331 454 8-43-15 11-4 3q-13 14-34 12-52-4-92 32l-43 38-11 9q20 8 38 15 48 14 87-17 25-23 37-54l5-10q7-19 26-30l1 2-8 36q-1 3-4 6a72 72 0 0 0-21 69l8 47v15c27-14 39-38 46-65 6-29-6-52-24-76" class="cls-23" style="isolation:isolate"/><path id="path103" fill="url(#linearGradient117)" d="M316 434q-32 1-65 5-40 7-70 34-24 18-41 43 7 3 12 2 49-15 94-41l62-38z" style="isolation:isolate"/><path id="path104" fill="url(#linear-gradient-14)" d="m333 438-14 25q-4 8-9 14a87 87 0 0 0-15 67q3 22 11 43l4 12q14-22 16-48l4-69z" style="isolation:isolate"/></g><path id="path106" d="M250 315s-18 12-21 24c-1 4 36-3 43-12" class="cls-23" style="isolation:isolate"/><path id="path107" fill="url(#linear-gradient-16)" d="M429 269q-16 12-22 32l-4 17-3 12s-20 37-31 40c-7 3-21 5-20-3-1-7 20-29 6-30l-29-4s2-7 14-10 19-18 20-31l-1-9-3-7c-4-12-10-39 4-64 20-35 81-17 98 8 14 23-11 38-16 40l-1 1q-6 2-12 8" style="mix-blend-mode:multiply;isolation:isolate"/><g class="gc-head" transform="rotate(5 335 215)"><path id="path108" d="M148 221q27 3 54 2a117 117 0 0 0 79-31q4-2 0-8-4-3-9 0c-17 13-41 24-66 25l-41-1h-24c-3-1-13 0-15-4v-3c3-55 8-116 66-141L326 1q12-3 14 9l-3 68c-2 76 46 169-21 183l-21 2a264 264 0 0 1-109-12q-22-7-42-22c-14-11-10-10 4-8" class="cls-24" style="isolation:isolate"/><path id="path109" fill="url(#linear-gradient-17)" d="M148 221q27 3 54 2a117 117 0 0 0 79-31q4-2 0-8-4-3-9 0c-17 13-41 24-66 25l-41-1h-24c-3-1-13 0-15-4v-3c3-55 8-116 66-141L326 1q12-3 14 9l-3 68c-2 76 46 169-21 183l-21 2a264 264 0 0 1-109-12q-22-7-42-22c-14-11-10-10 4-8" style="mix-blend-mode:multiply;isolation:isolate"/><path id="path110" fill="url(#radial-gradient-3)" d="M127 185c3-50 13-102 65-125L326 1q12-3 14 9l-1 33c-45 2-104 26-150 55-37 22-43 47-62 87" opacity=".3" style="isolation:isolate"/><path id="path113" fill="url(#linear-gradient-19)" d="M249 186c34-21 34 1 34 1l-2-3q-4-3-9 0c-17 13-41 24-66 25l-41-1h-24c-3-1-13 0-15-4v-7c19 2 92 8 123-11" style="mix-blend-mode:multiply;isolation:isolate"/><path id="path114" fill="url(#radial-gradient-5)" d="M148 221q27 3 54 2a117 117 0 0 0 79-31l2-5s7 14-25 34c-25 16-88 12-112 9l-2-1c-14-11-10-10 4-8" opacity=".3" style="isolation:isolate"/><g id="gc-eye"><circle id="path118" cx="200" cy="136.9" r="48" fill="#fff"/><g id="gc-pupil" transform="translate(.31 32.55)"><path d="M174 137q10 6 19 0c9-6 11-18 3-26-6-7-17-7-24 0s-7 20 2 26" class="cls-24"/><circle id="gc-pupilshine" cx="178.7" cy="116.6" r="7.5" fill="url(#linearGradient119)"/></g><path id="gc-eyelids" fill="none" stroke="#30ba78" stroke-width="0" d="M67 495h220M67 385h220" clip-path="url(#clipPath120)" transform="translate(18 -305)"/></g></g></svg></svg><path fill="#c0efde" d="M99.99 893v-2.07h6.5v-17.62q0-.88-.55-1.46-.54-.58-1.43-.58h-4.38v-2.07h4.89q1.64 0 2.67 1.04 1.04 1.03 1.04 2.63v18.06h6.46V893zm21.97 0 11.22-21.76h-13.67v-2.04h16.18v1.56L124.47 893zm23.73 0q-1.09 0-2.04-.44t-1.57-1.34-.61-2.33v-10.24h-3.02v-1.9h3.02v-4.05h2.14v4.05h4.53v1.9h-4.53v10.37q0 .92.62 1.51.61.6 1.49.6h2.42V893zm6.22 0v-24.82h2.07v11.46q.65-1.23 1.62-1.92.97-.7 2.02-1.01 1.06-.3 1.97-.3 2.76 0 4.49 1.75t1.74 5.35V893h-2.18v-9.21q0-2.86-1.29-4.12t-3.27-1.26q-1.36 0-2.49.62-1.14.61-1.82 1.8t-.68 2.99V893zm25.23 0v-2.07h5.44q1.02 0 1.73-.7.72-.7.72-1.75v-17.21h-6.7v-2.07h8.94v19.11q0 2.17-1.29 3.43t-3.57 1.26zm21.55.34q-1.8 0-3.23-.7-1.42-.69-2.24-2.17t-.82-3.9v-9.82h2.15v9.48q0 2.86 1.29 3.98t3.23 1.12q1.32 0 2.45-.59 1.12-.6 1.82-1.77.69-1.17.69-2.97v-9.25h2.11V893h-1.97v-2.69q-.99 1.7-2.55 2.37-1.57.66-2.93.66m16.94-.34q-1.87 0-3.01-1.09t-1.14-2.89v-18.97h-3.13v-1.87h5.3v20.88q0 .88.6 1.47.59.6 1.48.6h1.46V893zm1.93 6.8v-1.87h3.1q.85 0 1.34-.59.49-.6.8-1.38l1.26-2.82-6.73-16.39h2.38l5.5 13.73 5.34-13.73h2.38l-7.92 19.28q-.37.91-.9 1.78t-1.38 1.43-2.17.56zm25.78-6.8v-1.7l8.97-9.04q2.01-2.04 2.67-3.51t.66-2.78q0-2.32-1.34-3.64t-3.65-1.33q-1.74 0-3.25.94t-2.6 2.63l-1.5-1.39q1.26-2.04 3.22-3.18 1.95-1.14 4.19-1.14 3.34 0 5.29 1.9 1.96 1.91 1.96 5.04 0 1.08-.34 2.26t-1.23 2.53-2.48 2.99l-7.31 7.35h12.27V893zm28.18.34q-2.65 0-4.55-1.46-1.91-1.46-2.94-4.2-1.04-2.74-1.04-6.55 0-3.84 1.04-6.57 1.03-2.74 2.94-4.22 1.9-1.48 4.55-1.48t4.56 1.48 2.94 4.22 1.04 6.57q0 3.81-1.04 6.55t-2.94 4.2q-1.91 1.46-4.56 1.46m0-2.07q2.93 0 4.59-2.67 1.67-2.67 1.67-7.47 0-4.82-1.67-7.51-1.66-2.69-4.59-2.69-2.96 0-4.6 2.69-1.65 2.69-1.65 7.51 0 4.8 1.65 7.47 1.64 2.67 4.6 2.67m12.62 1.73v-1.7l8.97-9.04q2.01-2.04 2.67-3.51t.66-2.78q0-2.32-1.34-3.64t-3.65-1.33q-1.74 0-3.25.94t-2.6 2.63l-1.5-1.39q1.26-2.04 3.22-3.18 1.95-1.14 4.19-1.14 3.34 0 5.29 1.9 1.96 1.91 1.96 5.04 0 1.08-.34 2.26t-1.23 2.53-2.48 2.99l-7.31 7.35h12.27V893zm28.42.34q-2.52 0-4.35-.97-1.84-.97-2.82-2.77-.99-1.8-.99-4.22 0-1.59.54-3.04.55-1.44 1.47-2.77l7.31-10.37h2.75l-6.73 9.18q.78-.37 1.6-.54.81-.17 1.66-.17 2.25 0 3.98 1t2.72 2.77.99 4.05q0 2.34-1.04 4.11t-2.87 2.75-4.22.99m-.03-2.01q1.73 0 3.06-.74 1.32-.75 2.07-2.06t.75-3.04-.75-3.06-2.06-2.08-3.01-.75q-2.68 0-4.31 1.64-1.64 1.63-1.64 4.25 0 2.65 1.6 4.25 1.6 1.59 4.29 1.59m53.75 6.57v-30.71h2.11v30.71zm56.3-4.56q-2.51 0-4.35-.97t-2.82-2.77-.99-4.22q0-1.59.55-3.04.54-1.44 1.46-2.77l7.31-10.37h2.75l-6.73 9.18q.78-.37 1.6-.54t1.67-.17q2.24 0 3.97 1 1.74 1 2.72 2.77t.99 4.05q0 2.34-1.04 4.11-1.03 1.77-2.87 2.75-1.84.99-4.22.99m-.03-2.01q1.73 0 3.06-.74 1.33-.75 2.07-2.06.75-1.31.75-3.04 0-1.74-.75-3.06-.74-1.33-2.05-2.08t-3.01-.75q-2.69 0-4.32 1.64-1.63 1.63-1.63 4.25 0 2.65 1.6 4.25 1.59 1.59 4.28 1.59m12.14-11.45v-3.13h2.62v3.13zm0 13.12v-3.13h2.62V893zm14.99.34q-2.65 0-4.55-1.46-1.91-1.46-2.94-4.2-1.04-2.74-1.04-6.55 0-3.84 1.04-6.57 1.03-2.74 2.94-4.22 1.9-1.48 4.55-1.48t4.56 1.48 2.94 4.22 1.04 6.57q0 3.81-1.04 6.55t-2.94 4.2q-1.91 1.46-4.56 1.46m0-2.07q2.93 0 4.59-2.67 1.67-2.67 1.67-7.47 0-4.82-1.67-7.51-1.66-2.69-4.59-2.69-2.96 0-4.6 2.69-1.65 2.69-1.65 7.51 0 4.8 1.65 7.47 1.64 2.67 4.6 2.67m20.4 2.07q-2.65 0-4.55-1.46-1.91-1.46-2.94-4.2-1.04-2.74-1.04-6.55 0-3.84 1.04-6.57 1.03-2.74 2.94-4.22 1.9-1.48 4.55-1.48t4.56 1.48 2.94 4.22 1.04 6.57q0 3.81-1.04 6.55t-2.94 4.2q-1.91 1.46-4.56 1.46m0-2.07q2.93 0 4.59-2.67 1.67-2.67 1.67-7.47 0-4.82-1.67-7.51-1.66-2.69-4.59-2.69-2.96 0-4.6 2.69-1.65 2.69-1.65 7.51 0 4.8 1.65 7.47 1.64 2.67 4.6 2.67M491.5 893v-23.8h7.07q3.47 0 5.61 1.85 2.15 1.86 2.15 5.15 0 3.34-2.15 5.17-2.14 1.84-5.61 1.84h-4.79V893zm7.18-21.79h-4.9v10.06h4.9q2.41 0 3.92-1.36 1.52-1.36 1.52-3.71t-1.52-3.67-3.92-1.32M510.54 893v-23.8h3.03l7.38 14.82 7.34-14.82h3.03V893h-2.21v-20.84l-7.25 14.86h-1.87l-7.2-14.86V893zm41.55.34q-2.31 0-4.11-1.07t-2.83-2.96-1.02-4.37v-.3q0-2.42 1.02-4.27t2.83-2.91q1.8-1.05 4.11-1.05 2.28 0 4.08 1.05 1.8 1.06 2.82 2.89 1.02 1.84 1.02 4.22v.37q0 2.48-1.02 4.37t-2.82 2.96-4.08 1.07m0-1.94q1.7 0 2.99-.83t2.03-2.28.73-3.35v-.37q0-1.84-.73-3.23-.74-1.4-2.03-2.19-1.29-.8-2.99-.8t-3.01.81q-1.31.82-2.06 2.23-.74 1.41-.74 3.25v.3q0 1.91.74 3.35.75 1.45 2.06 2.28t3.01.83m12.17 1.6v-16.25h2.08v2.89q.64-1.23 1.61-1.92.97-.7 2.02-1.01 1.06-.3 1.98-.3 2.75 0 4.48 1.75t1.74 5.35V893h-2.18v-9.21q0-2.86-1.29-4.12t-3.26-1.26q-1.36 0-2.5.62-1.14.61-1.82 1.8t-.68 2.99V893zm21.83 0-4.83-16.25h2.18l3.98 14.04 4.11-14.04h2.28l4.11 13.97 4.01-13.97h2.15L599.25 893h-2.45l-4.15-14.21-4.11 14.21zm26.18.34q-2.82 0-4.49-1.33-1.66-1.32-1.66-3.46 0-1.43.81-2.52t2.26-1.72 3.32-.63q1.49 0 2.63.36t1.92 1v-2.51q0-2.21-1.12-3.18t-3.02-.97q-1.36 0-2.77.49-1.42.5-2.37 1.58l-1.05-1.53q1.09-1.25 2.79-1.88t3.5-.63q2.79 0 4.49 1.49 1.7 1.5 1.7 4.53v5.16q0 2.72.1 5.41h-1.94l-.03-1.77q-1.47 2.11-5.07 2.11m.51-1.67q2.07 0 3.18-.88 1.1-.88 1.1-2.24 0-1.4-1.12-2.25t-3.19-.85q-2.04 0-3.23.85t-1.19 2.25q0 1.36 1.19 2.24t3.26.88m11.63 1.33v-16.25h2.11v2.65q.61-1.56 1.82-2.13 1.2-.56 2.73-.56h1.4v2.15h-1.57q-2 0-3.16 1.03-1.16 1.04-1.16 3.25V893zm17.1.34q-2.24 0-3.96-1.05-1.72-1.06-2.69-2.96-.97-1.91-.97-4.39v-.3q0-2.42.99-4.27t2.7-2.91 3.93-1.05q1.97 0 3.52.93t2.46 2.54v-11.7h2.18V893h-1.97v-3.33q-.95 1.7-2.55 2.68t-3.64.99m.27-1.94q1.67 0 2.99-.81t2.1-2.28q.76-1.46.76-3.44 0-1.93-.76-3.4-.77-1.46-2.1-2.29-1.32-.83-2.99-.83-1.66 0-2.96.8-1.29.79-2.02 2.2t-.73 3.29v.3q0 1.94.73 3.4t2.02 2.26 2.96.8m17.58 1.91q-1.7 0-3.26-.55-1.57-.54-2.52-1.46l.99-1.5q.88.82 2.17 1.3 1.29.47 2.62.47 1.67 0 2.72-.78t1.05-2.07q0-1.06-.64-1.64-.65-.57-1.68-.88-1.04-.31-2.18-.59-1.14-.29-2.16-.75t-1.67-1.31-.64-2.38q0-2.11 1.56-3.44 1.57-1.32 4.18-1.32 1.5 0 2.81.46t2.29 1.2l-.98 1.53q-.85-.68-1.91-1.05-1.05-.37-2.24-.37-1.63 0-2.63.78-1.01.78-1.01 2.04 0 1.05.65 1.61.64.56 1.68.89t2.19.61 2.2.76q1.03.48 1.68 1.36t.65 2.42q0 2.04-1.65 3.35t-4.27 1.31"/><path fill="#fff" d="M102.81 708v-49h9.73l13.09 28.07L138.65 659h9.8v49h-7.14v-39.55l-12.88 28.49h-5.6l-12.95-28.49V708zm70.56.7q-4.9 0-8.78-2.24-3.89-2.24-6.16-6.16t-2.28-9.03v-.63q0-5.04 2.28-8.93t6.16-6.08q3.88-2.21 8.78-2.21t8.75 2.21 6.09 6.05q2.24 3.85 2.24 8.89v.7q0 5.11-2.24 9.03t-6.09 6.16-8.75 2.24m0-6.09q4.55 0 7.39-3.15t2.83-8.19v-.7q0-4.9-2.83-7.98t-7.39-3.08-7.42 3.11-2.87 8.02v.63q0 5.04 2.87 8.19t7.42 3.15m38.57 6.09q-4.62 0-8.22-2.17t-5.67-6.09-2.07-9.1v-.7q0-5.11 2.1-9t5.71-6.05q3.6-2.17 8.22-2.17 3.43 0 6.23 1.4t4.76 3.92V656.9h6.86V708h-6.23v-5.32q-1.96 2.87-4.97 4.44t-6.72 1.58m1.05-6.02q4.48 0 7.46-3.15t2.97-8.47-2.97-8.44q-2.98-3.11-7.46-3.11-4.34 0-7.24 3.01t-2.91 8.12v.7q0 5.18 2.91 8.26 2.9 3.08 7.24 3.08m41.72 6.02q-5.11 0-8.96-2.2t-5.98-6.13-2.14-9.1v-.7q0-4.9 2-8.79 1.99-3.88 5.6-6.12t8.43-2.24q4.97 0 8.51 2.45 3.53 2.45 5.18 6.86 1.64 4.41.94 10.43h-23.87q.42 4.06 3.19 6.75 2.76 2.7 7.38 2.7 5.04 0 7.98-2.73l3.92 4.13q-2.03 2.31-5.18 3.5t-7 1.19m-1.05-29.61q-3.92 0-6.23 2.45t-2.87 6.44h17.15q-.07-4.2-2.31-6.54-2.24-2.35-5.74-2.35M275.99 708v-33.88h6.65v5.18q1.19-3.08 3.68-4.23 2.48-1.16 5.56-1.16h2.8v6.79h-3.36q-4.06 0-6.26 1.92-2.21 1.93-2.21 5.78V708zm24.99 0v-33.88h6.58v4.83q2.1-3.22 5.15-4.38 3.04-1.15 5.56-1.15 5.74 0 9.24 3.71t3.5 10.85V708h-6.86v-18.97q0-4.97-2.17-7.14t-5.53-2.17q-3.57 0-6.09 2.38t-2.52 7.07V708zm41.72 0v-28h-6.3v-5.88h13.23V708zm-.28-40.95v-8.75h7.63v8.75zM357.05 708v-5.32l17.5-22.47h-17.29v-6.09h25.69v5.39l-17.71 22.47h18.13V708zm36.4 0v-28h-6.3v-5.88h13.23V708zm-.28-40.95v-8.75h7.63v8.75zM410.25 708v-33.88h6.58v4.83q2.1-3.22 5.15-4.38 3.04-1.15 5.56-1.15 5.74 0 9.24 3.71t3.5 10.85V708h-6.86v-18.97q0-4.97-2.17-7.14t-5.53-2.17q-3.57 0-6.09 2.38t-2.52 7.07V708zm36.47 14v-5.67h20.37q4.27 0 4.27-3.78 0-3.5-4.27-3.5h-11.41q-2.66 0-4.09-1.3-1.44-1.29-1.61-3.25t.8-4.06l2.24-4.41q-2.59-1.68-4.06-4.2t-1.47-5.74v-.63q0-3.5 1.89-6.23t5.22-4.27q3.32-1.54 7.66-1.54h1.12l3.22-6.86h6.93l-4.34 8.05q3.57 1.47 5.67 4.27t2.1 6.44v.77q0 3.64-1.85 6.44-1.86 2.8-5.18 4.38-3.33 1.57-7.67 1.57-1.96 0-3.78-.35l-1.54 3.08q-.42.77-.28 1.61t1.54.84h9.87q4.34 0 7.04 2.2 2.69 2.21 2.69 6.76 0 4.13-2.76 6.76-2.77 2.62-7.25 2.62zm15.54-28.84q1.82 0 3.68-.66 1.85-.67 3.08-2.28 1.22-1.61 1.22-4.48 0-3.01-2.24-4.87-2.24-1.85-5.74-1.85-3.57 0-5.81 1.85-2.24 1.86-2.24 4.87 0 2.87 1.26 4.48t3.12 2.28 3.67.66M498.38 708v-6.65h8.4v-35.7h-8.4V659h24.22v6.65h-8.47v35.7h8.47V708zm30.87 0v-33.88h6.58v4.83q2.1-3.22 5.15-4.38 3.04-1.15 5.56-1.15 5.74 0 9.24 3.71t3.5 10.85V708h-6.86v-18.97q0-4.97-2.17-7.14t-5.53-2.17q-3.57 0-6.09 2.38t-2.52 7.07V708zm41.65 0v-28h-6.09v-5.88h6.09v-7.77q0-4.34 2.73-6.89 2.73-2.56 7.35-2.56h5.67v5.74h-5.74q-1.33 0-2.24.91t-.91 2.24v8.33h8.89V680h-8.89v28zm21.84 0v-33.88h6.65v5.18q1.19-3.08 3.68-4.23 2.48-1.16 5.56-1.16h2.8v6.79h-3.36q-4.06 0-6.26 1.92-2.21 1.93-2.21 5.78V708zm33.67.7q-5.74 0-9.2-2.84-3.47-2.83-3.47-7.31 0-2.94 1.75-5.29 1.75-2.34 4.8-3.7t7.03-1.37q5.11 0 8.33 1.96v-3.71q0-3.71-2.03-5.32t-5.32-1.61q-2.66 0-5.46.98t-4.83 3.01l-3.15-4.76q2.31-2.52 6.06-3.92t7.8-1.4q6.09 0 9.91 3.22 3.81 3.22 3.81 9.45v10.92q0 2.73.04 5.5.03 2.76.17 5.49h-6.16v-3.43q-3.01 4.13-10.08 4.13m1.89-5.11q3.43 0 5.43-1.44 1.99-1.43 1.99-3.74 0-2.24-1.99-3.67-2-1.44-5.5-1.44-3.43 0-5.49 1.44-2.07 1.43-2.07 3.67t2.07 3.71q2.06 1.47 5.56 1.47m33.53 5.04q-3.92 0-7.24-1.19t-5.5-2.94l3.01-4.69q2.03 1.54 4.55 2.48 2.52.95 5.18.95 2.8 0 4.52-1.26t1.71-3.22q0-1.82-1.26-2.76-1.26-.95-3.25-1.51-2-.56-4.27-1.15-2.28-.6-4.27-1.62-2-1.01-3.29-2.87-1.3-1.85-1.3-5 0-4.62 3.47-7.53 3.46-2.9 9.27-2.9 3.29 0 6.2.94 2.9.95 5.14 2.49l-3.08 4.62q-1.82-1.26-3.95-1.99-2.14-.74-4.38-.74-2.73 0-4.41 1.26t-1.68 3.22q0 1.82 1.3 2.77 1.29.94 3.36 1.5l4.34 1.19q2.27.63 4.34 1.68t3.36 2.94 1.29 5.04q0 3.01-1.71 5.32-1.72 2.31-4.66 3.64t-6.79 1.33m32.9-.63q-2.38 0-4.65-.88-2.28-.87-3.75-2.94t-1.47-5.7V680h-5.95v-5.88h5.95v-8.33h6.86v8.33h8.33V680h-8.33v19.04q0 1.33.91 2.2t2.17.88h5.25V708zm12.67 0v-33.88h6.65v5.18q1.19-3.08 3.68-4.23 2.48-1.16 5.56-1.16h2.8v6.79h-3.36q-4.06 0-6.26 1.92-2.21 1.93-2.21 5.78V708zm37.59.7q-5.6 0-9.31-3.36t-3.71-10.5v-20.72h6.79v19.46q0 4.97 2.17 6.9 2.17 1.92 5.53 1.92 3.5 0 5.95-2.28t2.45-6.89v-19.11h6.79V708h-6.02v-4.62q-2.1 3.15-5.11 4.24-3.01 1.08-5.53 1.08m41.93 0q-5.11 0-9.06-2.2t-6.23-6.1q-2.28-3.88-2.28-8.92v-.84q0-5.11 2.31-9t6.27-6.05 8.99-2.17q3.71 0 6.86 1.43 3.15 1.44 5.25 3.96l-4.2 4.27q-3.01-3.36-7.91-3.36-4.62 0-7.63 2.97t-3.01 7.95v.84q0 4.9 3.05 7.91t7.66 3.01q2.31 0 4.34-.8 2.03-.81 3.71-2.49l4.13 4.2q-2.1 2.52-5.32 3.95t-6.93 1.44m31.22-.7q-2.38 0-4.65-.88-2.28-.87-3.75-2.94t-1.47-5.7V680h-5.95v-5.88h5.95v-8.33h6.86v8.33h8.33V680h-8.33v19.04q0 1.33.91 2.2t2.17.88h5.25V708zm25.27.7q-5.6 0-9.31-3.36t-3.71-10.5v-20.72h6.79v19.46q0 4.97 2.17 6.9 2.17 1.92 5.53 1.92 3.5 0 5.95-2.28t2.45-6.89v-19.11h6.79V708h-6.02v-4.62q-2.1 3.15-5.11 4.24-3.01 1.08-5.53 1.08m26.6-.7v-33.88h6.65v5.18q1.19-3.08 3.68-4.23 2.48-1.16 5.56-1.16h2.8v6.79h-3.36q-4.06 0-6.26 1.92-2.21 1.93-2.21 5.78V708zm38.36.7q-5.11 0-8.96-2.2t-5.98-6.13-2.14-9.1v-.7q0-4.9 2-8.79 1.99-3.88 5.6-6.12t8.43-2.24q4.97 0 8.51 2.45 3.53 2.45 5.18 6.86 1.64 4.41.94 10.43h-23.87q.42 4.06 3.19 6.75 2.76 2.7 7.38 2.7 5.04 0 7.98-2.73l3.92 4.13q-2.03 2.31-5.18 3.5t-7 1.19m-1.05-29.61q-3.92 0-6.23 2.45t-2.87 6.44h17.15q-.07-4.2-2.31-6.54-2.24-2.35-5.74-2.35m-802.69 107.3v-28h-6.09v-5.88h6.09v-7.77q0-4.34 2.73-6.89 2.73-2.56 7.35-2.56h5.67v5.74h-5.74q-1.33 0-2.24.91t-.91 2.24v8.33h8.89v5.88h-8.89v28zm35.42.7q-4.9 0-8.78-2.24-3.89-2.24-6.16-6.16t-2.28-9.03v-.63q0-5.04 2.28-8.93t6.16-6.08q3.88-2.21 8.78-2.21t8.75 2.21 6.09 6.05q2.24 3.85 2.24 8.89v.7q0 5.11-2.24 9.03t-6.09 6.16-8.75 2.24m0-6.09q4.55 0 7.39-3.15t2.83-8.19v-.7q0-4.9-2.83-7.98t-7.39-3.08-7.42 3.11-2.87 8.02v.63q0 5.04 2.87 8.19t7.42 3.15m24.78 5.39v-33.88h6.65v5.18q1.19-3.08 3.68-4.23 2.48-1.16 5.56-1.16h2.8v6.79h-3.36q-4.06 0-6.26 1.92-2.21 1.93-2.21 5.78v19.6zm50.96 0q-2.38 0-4.65-.88-2.28-.87-3.75-2.94t-1.47-5.7v-18.48h-5.95v-5.88h5.95v-8.33h6.86v8.33h8.33v5.88h-8.33v19.04q0 1.33.91 2.2t2.17.88h5.25v5.88zm12.67 0v-51.1h6.58v22.05q2.1-3.22 5.15-4.38 3.04-1.15 5.56-1.15 5.74 0 9.24 3.71t3.5 10.85v20.02h-6.86v-18.97q0-4.97-2.17-7.14t-5.53-2.17q-3.57 0-6.09 2.38t-2.52 7.07v18.83zm54.46.7q-5.11 0-8.96-2.2t-5.98-6.13-2.14-9.1v-.7q0-4.9 2-8.79 1.99-3.88 5.6-6.12t8.43-2.24q4.97 0 8.51 2.45 3.53 2.45 5.18 6.86 1.64 4.41.94 10.43h-23.87q.42 4.06 3.19 6.75 2.76 2.7 7.38 2.7 5.04 0 7.98-2.73l3.92 4.13q-2.03 2.31-5.18 3.5t-7 1.19m-1.05-29.61q-3.92 0-6.23 2.45t-2.87 6.44h17.15q-.07-4.2-2.31-6.54-2.24-2.35-5.74-2.35m61.46 29.82q-5.18 0-9.76-1.82t-8.02-5.15-5.35-7.87q-1.93-4.55-1.93-10.01v-1.12q0-5.46 1.93-10.01 1.92-4.55 5.35-7.88 3.43-3.32 8.02-5.14t9.76-1.82q4.76 0 8.72 1.44 3.95 1.43 7.1 4.09l-4.62 5.53q-4.62-3.92-11.2-3.92-5.04 0-9.03 2.24t-6.3 6.23-2.31 9.24v1.12q0 5.25 2.31 9.24t6.3 6.23 9.03 2.24q6.72 0 11.34-4.13l4.69 5.46q-3.15 2.8-7.24 4.3-4.1 1.51-8.79 1.51m32.97-.91q-4.34 0-6.96-2.45t-2.63-6.58v-36.19h-5.95v-5.88h12.81v42.21q0 1.33.91 2.24t2.24.91h3.36v5.74zm24.43.7q-4.9 0-8.78-2.24-3.89-2.24-6.16-6.16t-2.28-9.03v-.63q0-5.04 2.28-8.93t6.16-6.08q3.88-2.21 8.78-2.21t8.75 2.21 6.09 6.05q2.24 3.85 2.24 8.89v.7q0 5.11-2.24 9.03t-6.09 6.16-8.75 2.24m0-6.09q4.55 0 7.39-3.15t2.83-8.19v-.7q0-4.9-2.83-7.98t-7.39-3.08-7.42 3.11-2.87 8.02v.63q0 5.04 2.87 8.19t7.42 3.15m37.38 6.09q-5.6 0-9.31-3.36t-3.71-10.5v-20.72h6.79v19.46q0 4.97 2.17 6.9 2.17 1.92 5.53 1.92 3.5 0 5.95-2.28t2.45-6.89v-19.11h6.79v33.88h-6.02v-4.62q-2.1 3.15-5.11 4.24-3.01 1.08-5.53 1.08m40.39 0q-4.62 0-8.22-2.17t-5.67-6.09-2.07-9.1v-.7q0-5.11 2.1-9t5.71-6.05 8.22-2.17q3.43 0 6.23 1.4t4.76 3.92v-21.84h6.86v51.1h-6.23v-5.32q-1.96 2.87-4.97 4.44t-6.72 1.58m1.05-6.02q4.48 0 7.46-3.15t2.97-8.47-2.97-8.44q-2.98-3.11-7.46-3.11-4.34 0-7.24 3.01t-2.91 8.12v.7q0 5.18 2.91 8.26 2.9 3.08 7.24 3.08m25.34-10.64v-6.86h21.42v6.86zm30.73 15.96v-49h6.65l23.94 36.19v-36.19h7.28v49h-6.58l-24.01-36.26v36.26zm58.24.7q-5.74 0-9.2-2.84-3.47-2.83-3.47-7.31 0-2.94 1.75-5.29 1.75-2.34 4.8-3.7t7.03-1.37q5.11 0 8.33 1.96v-3.71q0-3.71-2.03-5.32t-5.32-1.61q-2.66 0-5.46.98t-4.83 3.01l-3.15-4.76q2.31-2.52 6.06-3.92t7.8-1.4q6.09 0 9.91 3.22 3.81 3.22 3.81 9.45v10.92q0 2.73.04 5.5.03 2.76.17 5.49h-6.16v-3.43q-3.01 4.13-10.08 4.13m1.89-5.11q3.43 0 5.43-1.44 1.99-1.43 1.99-3.74 0-2.24-1.99-3.67-2-1.44-5.5-1.44-3.43 0-5.49 1.44-2.07 1.43-2.07 3.67t2.07 3.71q2.06 1.47 5.56 1.47m35.56 4.41q-2.38 0-4.65-.88-2.28-.87-3.75-2.94t-1.47-5.7v-18.48h-5.95v-5.88h5.95v-8.33h6.86v8.33h8.33v5.88h-8.33v19.04q0 1.33.91 2.2t2.17.88h5.25v5.88zm15.4 0v-28h-6.3v-5.88h13.23v33.88zm-.28-40.95v-8.75h7.63v8.75zm25.97 40.95-13.3-33.88h7.14l9.73 25.83 9.73-25.83h7.14l-13.23 33.88zm40.32.7q-5.11 0-8.96-2.2t-5.98-6.13-2.14-9.1v-.7q0-4.9 2-8.79 1.99-3.88 5.6-6.12t8.43-2.24q4.97 0 8.51 2.45 3.53 2.45 5.18 6.86 1.64 4.41.94 10.43h-23.87q.42 4.06 3.19 6.75 2.76 2.7 7.38 2.7 5.04 0 7.98-2.73l3.92 4.13q-2.03 2.31-5.18 3.5t-7 1.19m-1.05-29.61q-3.92 0-6.23 2.45t-2.87 6.44h17.15q-.07-4.2-2.31-6.54-2.24-2.35-5.74-2.35m46.48 28.91q-3.5 0-5.74-2.24t-2.24-5.74v-33.04q0-3.5 2.24-5.74t5.74-2.24h23.17v6.65h-20.86q-1.33 0-2.2.91t-.88 2.24v11.41h22.47v6.37h-22.47v11.62q0 1.33.88 2.24.87.91 2.2.91h20.86v6.65zm31.08 0v-33.88h6.65v5.18q1.19-3.08 3.68-4.23 2.48-1.16 5.56-1.16h2.8v6.79h-3.36q-4.06 0-6.26 1.92-2.21 1.93-2.21 5.78v19.6zm33.67.7q-5.74 0-9.2-2.84-3.47-2.83-3.47-7.31 0-2.94 1.75-5.29 1.75-2.34 4.8-3.7t7.03-1.37q5.11 0 8.33 1.96v-3.71q0-3.71-2.03-5.32t-5.32-1.61q-2.66 0-5.46.98t-4.83 3.01l-3.15-4.76q2.31-2.52 6.06-3.92t7.8-1.4q6.09 0 9.91 3.22 3.81 3.22 3.81 9.45v10.92q0 2.73.04 5.5.03 2.76.17 5.49h-6.16v-3.43q-3.01 4.13-10.08 4.13m1.89-5.11q3.43 0 5.43-1.44 1.99-1.43 1.99-3.74 0-2.24-1.99-3.67-2-1.44-5.5-1.44-3.43 0-5.49 1.44-2.07 1.43-2.07 3.67t2.07 3.71q2.06 1.47 5.56 1.47"/></svg>