<svg xmlns="http://www.w3.org/2000/svg" width="1200" height="360" viewBox="0 0 1200 360"><path fill="#0c322c" d="M0 0h1200v360H0z"/><svg xmlns="http://www.w3.org/2000/svg" xmlns:c2pa="http://c2pa.org/manifest" width="607.58" height="110" x="296.2" y="125" viewBox="0 0 210.39 38.09"><path fill="#fff" d="M208.46 27.03h-13.55a1.9 1.9 0 0 1-1.9-1.9v-6.85h13.09a2.04 2.04 0 1 0 0-4.07H193V7.47c0-1.04.85-1.9 1.9-1.9h13.55a2.14 2.14 0 1 0 0-4.27H194.9a6.2 6.2 0 0 0-6.17 6.17v17.66a6.2 6.2 0 0 0 6.17 6.17h13.55a2.14 2.14 0 1 0 0-4.27M168.6 14.27q-4.3-.78-5.97-1.84-1.68-1.06-1.68-2.87 0-1.94 1.72-3.19 1.72-1.24 4.85-1.24 3.16 0 5.06 1.22 1.03.66 1.87 1.75A2.32 2.32 0 1 0 178 5.14a12 12 0 0 0-3.5-2.73q-2.92-1.5-7.04-1.5-3.53 0-6.18 1.23-2.65 1.22-4.05 3.3a8 8 0 0 0-1.4 4.62q0 2.4 1.1 4.07 1.12 1.68 3.56 2.8 2.44 1.14 6.56 1.9 4.12.78 5.77 1.77 1.66 1 1.65 2.62 0 2.05-1.83 3.15-1.83 1.11-5.04 1.11-3.4 0-5.68-1.27a9 9 0 0 1-2.34-1.92 2.3 2.3 0 0 0-3.37-.09v.01a2.3 2.3 0 0 0-.12 3.16q3.87 4.32 11.55 4.32 3.53 0 6.22-1.07 2.7-1.06 4.19-3.05t1.5-4.62q0-2.44-1.1-4.09-1.08-1.65-3.46-2.76t-6.4-1.83m-66.83 0q-4.3-.77-5.97-1.83-1.68-1.06-1.68-2.87 0-1.95 1.72-3.2t4.84-1.24q3.17 0 5.07 1.23 1.03.66 1.87 1.75a2.32 2.32 0 1 0 3.56-2.96 12 12 0 0 0-3.5-2.73q-2.92-1.5-7.04-1.5-3.53 0-6.18 1.23-2.65 1.22-4.05 3.3a8 8 0 0 0-1.4 4.62q0 2.4 1.1 4.07 1.12 1.68 3.56 2.8 2.44 1.14 6.56 1.9 4.12.78 5.77 1.77 1.65 1 1.65 2.63 0 2.03-1.83 3.14t-5.05 1.11q-3.4 0-5.68-1.27a9 9 0 0 1-2.33-1.92 2.3 2.3 0 0 0-3.37-.09v.01a2.3 2.3 0 0 0-.12 3.16q3.87 4.32 11.55 4.32 3.53 0 6.22-1.07t4.19-3.05 1.5-4.62q0-2.44-1.1-4.1t-3.46-2.75-6.4-1.83m44.57-10.92v16.43q0 5.88-3.12 8.89t-9.1 3.01-9.1-3.01q-3.11-3.01-3.11-8.9V3.37a2.44 2.44 0 0 1 4.88 0V19.2q0 4.25 1.8 6.27t5.54 2.01 5.54-2.01 1.79-6.27V3.36a2.44 2.44 0 0 1 4.88 0"/><path fill="#30ba78" d="M71.54 11.56a1.2 1.2 0 0 0-1.74 0 1.23 1.23 0 0 0 .2 1.9c.4.27.94.27 1.35 0a1.24 1.24 0 0 0 .2-1.9m-1.6-4.18a4.55 4.55 0 0 0-5.46 5.47 4.6 4.6 0 0 0 3.4 3.39 4.54 4.54 0 0 0 5.45-5.47 4.6 4.6 0 0 0-3.39-3.38M48.27 25.87c-2.14-.79-2.97-.63-5.7-.6-1.9.03-1.97-.03-4.13-.03-.67 0-.92 3.2 1.5 3.87 1.06.29 2.2.47 3 1.29.36.36.55.9-.26.9h-6c-1.06 0-2.05.02-2.85-.66-1.22-1.02-1.78-2.43-2.39-3.83a40 40 0 0 0-2.1-4.26c-1.6-2.72-3.69-5.19-6.5-6.7-3.52-1.88-9.48-2.81-14.2.81-4.97 3.82-3.9 10.97.45 14.47a9 9 0 0 0 6.16 1.83c4.3-.24 7.47-3.42 6.68-7.32a4.8 4.8 0 0 0-2.17-3.22 5.4 5.4 0 0 0-2.73-.64c-1.01 0-2.1.2-2.83.9-.86.85-1 2.33-.3 3.31.37.55 1 1 .89 1.72-.07.48-.47.84-.94.94-.81.18-1.55-.28-2.1-.84a5.3 5.3 0 0 1-1.06-5.59c1-2.42 3.8-3.76 6.43-3.67 3.39.11 6.58 2.34 7.97 5.44s.97 6.88-.94 9.68c-4.25 6.22-14.76 5.48-19.64.24C1.45 30.62-.2 27.43.02 21.5c.17-4.2 2.59-8.34 5.68-11.25A38.6 38.6 0 0 1 24.1.86 42 42 0 0 1 36.6.23a55 55 0 0 1 10.83 2.13 43 43 0 0 1 5.14 1.95c1.47.68 3.39 1.41 4.53 2.58 0-2.11-.08-4.43-.08-6.04a.85.85 0 0 1 1.2-.77c2.39 1.1 8.04 3.78 11.8 5.5 5.05 2.3 5.41 7.75 5.59 12.58q.01.16-.04.31c-.16.33-1.01.24-1.32.25-.6 0-1.52 0-2.12.03a38 38 0 0 1-3.59-.03 10.2 10.2 0 0 1-5.83-2.31c-.14-.13-.6-.26-.83-.03a.6.6 0 0 0-.02.73 10 10 0 0 0 2.77 1.91c1.32.68 2.77.86 4.24.94q2.36.15 4.71-.09c1.31-.13 1.65-.22.36.74a14 14 0 0 1-3.78 1.9c-1.92.65-3.94.97-5.96 1.02a23 23 0 0 1-3.65-.19c-.63-.07-1.25-.19-1.88-.25-.52-.05-1.05-.15-1.55-.04-.47.1-.9.35-1.19.73-.4.52-.53 1.95-.3 2.57.44 1.2 1.42 1.9 2.46 2.52 1.12.66 2.59.89 2.88 2.16.06.27-2.33.28-2.6.27H55.2s-1.72.04-2.39-.2l-.06-.03c-.36-.2-.52-.68-.64-1.05a7 7 0 0 0-.87-1.58 7 7 0 0 0-2.96-2.57m24-14.06a3.36 3.36 0 1 1-6.72 0 3.36 3.36 0 0 1 6.72 0"/></svg></svg>