<svg xmlns="http://www.w3.org/2000/svg" width="1200" height="360" viewBox="0 0 1200 360"><path fill="#0c322c" d="M0 0h1200v360H0z"/><svg xmlns="http://www.w3.org/2000/svg" xmlns:c2pa="http://c2pa.org/manifest" width="669.59" height="120" x="265.2" y="120" viewBox="0 0 210.18 37.67"><path fill="#fff" d="M194.7 30.87a5.96 5.96 0 0 1-5.96-5.96V7.26a5.97 5.97 0 0 1 5.96-5.96h13.55c1.07 0 1.93.86 1.93 1.92a1.93 1.93 0 0 1-1.93 1.92H194.7a2.1 2.1 0 0 0-2.1 2.11v6.95h13.29c1 0 1.82.82 1.82 1.83a1.83 1.83 0 0 1-1.82 1.82h-13.3v7.06a2.1 2.1 0 0 0 2.1 2.11h13.56c1.07 0 1.93.87 1.93 1.93a1.93 1.93 0 0 1-1.93 1.92zm-60.78.39c-3.91 0-6.92-1-8.95-2.95s-3.06-4.9-3.06-8.74V3.14c0-1.23 1-2.23 2.23-2.23a2.23 2.23 0 0 1 2.23 2.23v15.84q0 4.34 1.84 6.41 1.86 2.08 5.7 2.09 3.86 0 5.7-2.09c1.23-1.37 1.85-3.53 1.85-6.4V3.13A2.24 2.24 0 0 1 143.69.9a2.23 2.23 0 0 1 2.23 2.23v16.43c0 3.84-1.03 6.78-3.06 8.74s-5.04 2.95-8.94 2.95m33.52 0c-5.03 0-8.87-1.43-11.4-4.25a2.1 2.1 0 0 1 .11-2.86l.01-.01.01-.01a2 2 0 0 1 1.5-.62c.6 0 1.16.26 1.55.7a9 9 0 0 0 2.4 1.97q2.33 1.3 5.78 1.3 3.26 0 5.15-1.14A3.7 3.7 0 0 0 174.5 23q-.01-1.74-1.76-2.8c-1.13-.69-3.04-1.27-5.84-1.8q-4.08-.76-6.5-1.88a8 8 0 0 1-3.47-2.73 7 7 0 0 1-1.08-3.96 8 8 0 0 1 1.37-4.5 9.4 9.4 0 0 1 3.96-3.23q2.6-1.2 6.1-1.2 4.06 0 6.93 1.47a12 12 0 0 1 3.45 2.68c.77.86.7 2.2-.16 2.97a2.1 2.1 0 0 1-3.08-.28 8 8 0 0 0-1.92-1.8q-1.96-1.25-5.18-1.25-3.19 0-4.97 1.28a4 4 0 0 0-1.8 3.36q0 1.92 1.77 3.06c1.14.72 3.12 1.33 6.04 1.86q4 .72 6.35 1.81a8 8 0 0 1 3.38 2.69 7 7 0 0 1 1.05 3.98q0 2.55-1.45 4.49a9 9 0 0 1-4.1 2.98q-2.64 1.05-6.14 1.05m-66.83 0c-5.03 0-8.87-1.42-11.4-4.24a2.1 2.1 0 0 1 .11-2.87l.02-.01a2.1 2.1 0 0 1 3.05.08 9 9 0 0 0 2.4 1.97q2.33 1.3 5.78 1.3 3.27 0 5.15-1.15a3.7 3.7 0 0 0 1.94-3.32q-.01-1.75-1.76-2.8c-1.13-.69-3.04-1.28-5.84-1.8q-4.08-.76-6.51-1.88a8 8 0 0 1-3.46-2.73A7 7 0 0 1 89 9.85a8 8 0 0 1 1.37-4.5 9.4 9.4 0 0 1 3.96-3.23q2.61-1.2 6.09-1.2 4.07 0 6.94 1.47a12 12 0 0 1 3.45 2.68 2.1 2.1 0 0 1-1.57 3.51 2.1 2.1 0 0 1-1.67-.82 8 8 0 0 0-1.92-1.8q-1.96-1.25-5.18-1.26-3.2 0-4.97 1.29a4 4 0 0 0-1.8 3.36q0 1.92 1.76 3.05c1.15.73 3.13 1.34 6.06 1.87a27 27 0 0 1 6.35 1.81 8 8 0 0 1 3.37 2.69 7 7 0 0 1 1.05 3.98q0 2.55-1.45 4.48a9 9 0 0 1-4.1 3q-2.64 1.04-6.14 1.04M70.97 11.39a1.17 1.17 0 0 0-1.68 0 1.2 1.2 0 0 0 .19 1.83c.39.25.9.25 1.3 0a1.2 1.2 0 0 0 .19-1.83m-1.56-4.2a4.55 4.55 0 0 0-5.46 5.47 4.6 4.6 0 0 0 3.4 3.4 4.55 4.55 0 0 0 5.46-5.47 4.6 4.6 0 0 0-3.4-3.4M14.6 37.68c-3.9 0-7.78-1.58-10.14-4.12C1.54 30.44-.21 27.29.02 21.29c.15-3.78 2.25-7.93 5.61-11.1A38 38 0 0 1 23.93.85a41 41 0 0 1 8.25-.83q2.1 0 4.17.2c3.87.4 7.5 1.1 10.8 2.13a42 42 0 0 1 5.1 1.94l.71.32c1.33.59 2.83 1.25 3.77 2.21l.36.37v-.52q0-1.7-.04-3.4Q57.01 1.8 57 .64c0-.4.33-.64.64-.64q.14 0 .26.06l3.14 1.47c2.72 1.27 6.1 2.86 8.67 4.03a8.2 8.2 0 0 1 4.5 5.22c.72 2.18.86 4.63.96 7.17q0 .14-.02.21c-.02.03-.1.14-.68.14h-.98c-.54 0-1.15 0-1.6.02a31 31 0 0 1-3.57-.03c-2-.1-4.13-.94-5.7-2.26-.14-.12-.4-.2-.62-.2a.7.7 0 0 0-.5.2.8.8 0 0 0-.02 1.02 10.4 10.4 0 0 0 7.15 2.91 32 32 0 0 0 4.74-.1l.24-.01q.3-.04.52-.05l-.55.43a13 13 0 0 1-3.72 1.86 20 20 0 0 1-5.9 1.02h-.61q-1.5 0-3-.19l-.79-.1q-.54-.1-1.1-.15l-.27-.03a7 7 0 0 0-.79-.06q-.3 0-.56.05a2.2 2.2 0 0 0-1.3.8c-.46.6-.59 2.13-.34 2.78.48 1.31 1.57 2.04 2.55 2.63q.48.28.99.49c.81.36 1.52.68 1.75 1.41-.3.08-1.21.14-2.22.14H54.7c-.96 0-1.7-.07-2.04-.2h-.03c-.29-.16-.43-.58-.54-.93v-.01a7 7 0 0 0-.9-1.64 7 7 0 0 0-3.06-2.64 9 9 0 0 0-3.56-.65l-1.15.02-1.07.02h-.79l-1.28-.01c-.49-.01-1.05-.03-2.05-.03-.33 0-.57.35-.65.94-.14 1.07.3 2.85 2.1 3.35l.49.13c.87.22 1.78.45 2.41 1.1.2.21.27.4.24.46-.01.03-.1.09-.35.09h-6.22c-1.04 0-1.83-.05-2.5-.6-1.11-.95-1.66-2.21-2.23-3.55l-.1-.22a40 40 0 0 0-2.11-4.28c-1.83-3.13-4.04-5.42-6.58-6.78-2-1.07-4.5-1.68-6.84-1.68-2.82 0-5.45.87-7.59 2.51a8.5 8.5 0 0 0-3.38 6.77 10.4 10.4 0 0 0 3.82 8.04 9 9 0 0 0 5.7 1.9q.3 0 .6-.03a7.8 7.8 0 0 0 5.8-2.82 5.8 5.8 0 0 0 1.1-4.75 5 5 0 0 0-2.28-3.36 5.6 5.6 0 0 0-2.84-.68h-.02q-1.96 0-2.95.98c-.94.9-1.09 2.5-.34 3.57l.32.41c.33.38.6.72.54 1.16a1 1 0 0 1-.78.76l-.31.04c-.65 0-1.22-.44-1.58-.82a5.1 5.1 0 0 1-1.03-5.36c1.02-2.45 3.75-3.55 6-3.55h.23a9.1 9.1 0 0 1 7.79 5.32 10 10 0 0 1-.93 9.48c-1.88 2.75-5.22 4.33-9.16 4.33m57.07-26.05a3.3 3.3 0 1 1-6.6 0 3.3 3.3 0 1 1 6.6 0"/></svg></svg>