<svg xmlns="http://www.w3.org/2000/svg" width="1080" height="565" viewBox="0 0 1080 565"><path fill="#0c322c" d="M0 0h1080v565H0z"/><path fill="#0a9bd6" d="M0 0h1080v565H0z"/><path fill="#fff" d="M411.21 452.31q-3 0-4.95-1.95t-1.95-4.94v-32.66h9.04v29.95q0 .45.34.79t.79.34h16.05v8.47zm34.57.57q-4.23 0-7.43-1.78t-5-5-1.8-7.52v-.56q0-3.96 1.69-7.15 1.7-3.19 4.75-5.09 3.05-1.89 7.12-1.89 4.4 0 7.48 2.12t4.46 5.96q1.39 3.84.71 9.04h-17.74q.34 2.2 1.89 3.5 1.56 1.3 4.33 1.3 2.03 0 3.27-.65t2.32-1.78l4.8 4.92q-1.75 2.32-4.52 3.44-2.77 1.14-6.33 1.14m-.62-22.44q-2.26 0-3.47 1.42-1.22 1.41-1.61 3.67h9.66q-.17-2.49-1.41-3.79-1.25-1.3-3.17-1.3m25.2 22.44q-4.63 0-7.43-2.32t-2.8-5.93q0-3.85 2.97-6.22t8.5-2.37q3.17 0 5.37.9v-1.98q0-2.09-1.3-2.93t-3.16-.85q-1.92 0-4.1.76T464.6 434l-3.73-5.59q1.86-1.98 5.17-3.25t7.03-1.27q3.62 0 6.36 1.24 2.74 1.25 4.32 3.59 1.58 2.35 1.58 5.74v9.09q0 2.21.03 4.38.03 2.18.14 4.38h-7.51v-2.99q-2.09 3.56-7.63 3.56m2.43-6.11q1.86 0 3.05-.73 1.19-.74 1.19-1.92 0-1.13-1.19-1.87-1.19-.73-3.05-.73-1.81 0-2.99.73-1.19.74-1.19 1.87 0 1.18 1.19 1.92 1.18.73 2.99.73m18.02 5.54v-27.85h8.2v3.61q1.07-2.15 2.99-3.02t4.29-.88h2.15v8.36h-2.88q-3.05 0-4.66 1.28-1.61 1.27-1.61 3.53v14.97zm21.02 0v-27.85h8.19v2.76q1.7-2.03 3.82-2.68t3.81-.65q4.69 0 7.46 3.11t2.77 8.53v16.78h-8.48v-15.37q0-2.82-1.13-4.09-1.13-1.28-3.1-1.28-2.09 0-3.48 1.45-1.38 1.44-1.38 4.15v15.14zm42.49 0v-27.85h8.14v2.71q1.58-1.92 3.61-2.6 2.04-.68 3.84-.68 5.03 0 7.57 3.79 1.3-1.59 2.89-2.41 1.58-.81 3.1-1.1 1.53-.28 2.66-.28 4.46 0 7.34 2.88 2.89 2.88 2.89 8.31v17.23h-8.42v-15.93q0-2.49-1.1-3.65-1.11-1.16-2.97-1.16-1.92 0-3.11 1.3-1.18 1.3-1.18 3.51v15.93h-8.48v-15.93q0-2.49-1.07-3.65-1.08-1.16-2.88-1.16-1.93 0-3.17 1.3t-1.24 3.51v15.93zm60.68.57q-4.18 0-7.54-1.81t-5.31-5.03-1.95-7.4v-.57q0-4.18 1.95-7.37t5.31-5 7.54-1.81 7.52 1.81 5.28 5 1.95 7.37v.57q0 4.18-1.95 7.4t-5.28 5.03-7.52 1.81m0-7.41q2.83 0 4.55-1.92t1.72-4.91v-.57q0-2.99-1.72-4.89t-4.55-1.89q-2.77 0-4.55 1.89-1.78 1.9-1.78 4.89v.57q0 2.99 1.78 4.91t4.55 1.92m18.87 6.84v-27.85h8.19v3.61q1.08-2.15 3-3.02t4.29-.88h2.15v8.36h-2.88q-3.05 0-4.66 1.28-1.61 1.27-1.61 3.53v14.97zm32.66.57q-4.24 0-7.43-1.78t-5-5-1.81-7.52v-.56q0-3.96 1.7-7.15 1.69-3.19 4.74-5.09 3.05-1.89 7.12-1.89 4.41 0 7.49 2.12t4.46 5.96.71 9.04h-17.74q.33 2.2 1.89 3.5t4.32 1.3q2.03 0 3.28-.65 1.24-.65 2.31-1.78l4.81 4.92q-1.75 2.32-4.52 3.44-2.77 1.14-6.33 1.14m-.62-22.44q-2.26 0-3.48 1.42-1.21 1.41-1.61 3.67h9.66q-.17-2.49-1.41-3.79t-3.16-1.3"/><path fill="#fff" d="M446.08 511.1q-1.71 0-3.16-.51-1.45-.52-2.4-1.29l1.32-2.04q.88.67 1.98 1.08t2.26.42q1.22 0 1.97-.55.74-.55.74-1.41 0-.79-.55-1.2t-1.41-.66l-1.87-.5q-.99-.26-1.86-.7-.87-.45-1.43-1.25-.57-.81-.57-2.19 0-2.01 1.51-3.28 1.51-1.26 4.05-1.26 1.43 0 2.7.41 1.26.41 2.24 1.08l-1.34 2.02q-.8-.55-1.73-.87t-1.9-.32q-1.19 0-1.93.55-.73.55-.73 1.4 0 .79.57 1.2.56.42 1.46.66l1.89.52q.99.27 1.89.73t1.47 1.28q.56.83.56 2.2 0 1.31-.74 2.32-.75 1.01-2.03 1.58t-2.96.58m14.52.04q-2.44 0-4.06-1.47-1.61-1.46-1.61-4.58v-9.03h2.95v8.48q0 2.17.95 3.01t2.41.84q1.53 0 2.59-.99 1.07-.99 1.07-3.01v-8.33h2.96v14.77h-2.62v-2.01q-.92 1.37-2.23 1.84-1.31.48-2.41.48m15.87-.04q-1.71 0-3.16-.51-1.45-.52-2.4-1.29l1.31-2.04q.89.67 1.99 1.08t2.26.42q1.22 0 1.96-.55.75-.55.75-1.41 0-.79-.55-1.2t-1.42-.66l-1.86-.5q-.99-.26-1.86-.7-.87-.45-1.43-1.25-.57-.81-.57-2.19 0-2.01 1.51-3.28 1.51-1.26 4.05-1.26 1.43 0 2.7.41 1.26.41 2.24 1.08l-1.34 2.02q-.8-.55-1.73-.87t-1.91-.32q-1.19 0-1.92.55t-.73 1.4q0 .79.56 1.2.57.42 1.47.66l1.89.52q.99.27 1.89.73t1.47 1.28q.56.83.56 2.2 0 1.31-.75 2.32-.74 1.01-2.02 1.58-1.29.58-2.96.58m15.46.04q-2.22 0-3.9-.97-1.68-.96-2.61-2.67-.93-1.7-.93-3.96v-.31q0-2.13.87-3.83.87-1.69 2.44-2.67 1.57-.97 3.68-.97 2.16 0 3.7 1.07 1.54 1.06 2.26 2.99.72 1.92.41 4.54h-10.4q.18 1.77 1.39 2.95 1.2 1.17 3.22 1.17 2.19 0 3.47-1.19l1.71 1.8q-.88 1.01-2.25 1.53t-3.06.52m-.45-12.91q-1.71 0-2.72 1.07t-1.25 2.8h7.48q-.04-1.83-1.01-2.85-.98-1.02-2.5-1.02m9.33 12.6v-3.75h3.51v3.75zm13.82.31q-2.22 0-3.95-.97-1.72-.96-2.71-2.65t-.99-3.89v-.37q0-2.22 1-3.92 1.01-1.69 2.73-2.64 1.73-.94 3.92-.94 1.62 0 2.99.62 1.38.63 2.29 1.73l-1.83 1.86q-1.31-1.47-3.45-1.47-2.01 0-3.32 1.3t-1.31 3.46v.37q0 2.14 1.32 3.45 1.33 1.31 3.34 1.31 1.01 0 1.9-.35t1.61-1.08l1.8 1.83q-.91 1.09-2.32 1.72t-3.02.63m14.37 0q-2.13 0-3.83-.98-1.69-.98-2.68-2.69-.99-1.7-.99-3.93v-.28q0-2.19.99-3.89.99-1.69 2.68-2.65t3.83-.96 3.82.96 2.65 2.64.98 3.87v.31q0 2.23-.98 3.93-.97 1.71-2.65 2.69t-3.82.98m0-2.66q1.99 0 3.22-1.37t1.24-3.57v-.31q0-2.13-1.24-3.48-1.23-1.34-3.22-1.34-1.98 0-3.23 1.36t-1.25 3.49v.28q0 2.19 1.25 3.57t3.23 1.37m10.8 2.35v-14.77h2.87v2.08q.86-1.38 2.09-1.88 1.24-.5 2.4-.5 1.52 0 2.68.65 1.16.66 1.8 1.97.64-1.04 1.51-1.6t1.79-.79 1.64-.23q2.42 0 3.93 1.54t1.51 4.65v8.88h-2.96v-8.45q0-2.05-.87-2.96t-2.34-.92-2.45 1q-1 .99-1 2.85v8.48h-2.99v-8.45q0-2.05-.86-2.96-.87-.92-2.31-.92-1.49 0-2.48 1-1 .99-1 2.85v8.48zm23.71 4.39 11.08-27.55h3.05l-11.14 27.55zm20.66-4.08q-2.23 0-3.91-.97-1.68-.96-2.61-2.67-.93-1.7-.93-3.96v-.31q0-2.13.87-3.83.87-1.69 2.44-2.67 1.57-.97 3.68-.97 2.16 0 3.71 1.07 1.54 1.06 2.25 2.99.72 1.92.41 4.54h-10.4q.18 1.77 1.39 2.95 1.2 1.17 3.22 1.17 2.19 0 3.48-1.19l1.7 1.8q-.88 1.01-2.25 1.53t-3.05.52m-.46-12.91q-1.71 0-2.72 1.07-1 1.07-1.25 2.8h7.48q-.03-1.83-1.01-2.85t-2.5-1.02m15.74 12.91q-2.01 0-3.58-.95t-2.47-2.66q-.9-1.7-.9-3.96v-.31q0-2.22.91-3.92.92-1.69 2.49-2.64 1.57-.94 3.58-.94 1.5 0 2.72.61t2.07 1.71v-9.52h2.99v22.27h-2.71v-2.32q-.86 1.25-2.17 1.94t-2.93.69m.46-2.63q1.95 0 3.25-1.37t1.3-3.69-1.3-3.68-3.25-1.36q-1.89 0-3.16 1.31-1.26 1.32-1.26 3.54v.31q0 2.26 1.26 3.6 1.27 1.34 3.16 1.34m10.34 8.42v-2.47h8.88q1.86 0 1.86-1.65 0-1.52-1.86-1.52h-4.97q-1.16 0-1.79-.57-.62-.56-.7-1.42t.35-1.77l.98-1.92q-1.13-.73-1.77-1.83t-.64-2.5v-.27q0-1.53.82-2.72.83-1.19 2.27-1.86 1.45-.67 3.35-.67h.48l1.41-2.99h3.02l-1.89 3.51q1.55.64 2.47 1.86.91 1.22.91 2.8v.34q0 1.59-.81 2.81-.8 1.22-2.25 1.9-1.45.69-3.34.69-.86 0-1.65-.15l-.67 1.34q-.19.34-.13.7.07.37.68.37h4.3q1.89 0 3.06.96t1.18 2.94q0 1.8-1.21 2.95-1.2 1.14-3.15 1.14zm6.78-12.57q.79 0 1.6-.29t1.34-.99.53-1.95q0-1.31-.97-2.12-.98-.81-2.5-.81-1.56 0-2.54.81-.97.81-.97 2.12 0 1.25.55 1.95.54.7 1.35.99t1.61.29m16.26 6.78q-2.23 0-3.91-.97-1.68-.96-2.61-2.67-.93-1.7-.93-3.96v-.31q0-2.13.87-3.83.87-1.69 2.44-2.67 1.57-.97 3.68-.97 2.17 0 3.71 1.07 1.54 1.06 2.25 2.99.72 1.92.42 4.54H628.8q.19 1.77 1.39 2.95 1.21 1.17 3.22 1.17 2.2 0 3.48-1.19l1.71 1.8q-.89 1.01-2.26 1.53t-3.05.52m-.46-12.91q-1.71 0-2.72 1.07-1 1.07-1.25 2.8h7.48q-.03-1.83-1.01-2.85t-2.5-1.02" opacity=".92"/></svg>