<svg xmlns="http://www.w3.org/2000/svg" width="608" height="1080" viewBox="0 0 608 1080"><path fill="#0c322c" d="M0 0h608v1080H0z"/><path fill="#fcb244" d="M0 0h608v1080H0z"/><path fill="#0c322c" d="M172.31 724.09q-3.22 0-5.32-2.1t-2.1-5.32v-27.72q0-3.22 2.1-5.32t5.32-2.1h21.83v8.82h-18.43q-.48 0-.85.36-.36.37-.36.85v6.93h18.36v8.39H174.5v7.18q0 .48.36.85.37.36.85.36h18.43v8.82zm24.14 0 9.85-14.96-9.55-15.01h10.64l5.05 9.18 4.98-9.18h10.46l-9.55 14.95 9.67 15.02h-10.7l-5.23-9.06-5.11 9.06zm34.53 12.16v-42.13h8.51v2.55q1.71-1.52 3.86-2.34 2.16-.82 4.59-.82 4.02 0 7.24 1.91 3.22 1.92 5.14 5.38 1.91 3.47 1.91 8.03v.61q0 4.62-1.88 8.05-1.89 3.44-5.08 5.32T248 724.7q-2.24 0-4.25-.7t-3.65-1.98v14.23zm15.5-19.52q2.68 0 4.66-1.88 1.97-1.89 1.97-5.41v-.61q0-3.59-1.97-5.47-1.98-1.89-4.66-1.89-2.97 0-4.98 1.98-2.01 1.97-2.01 5.68 0 3.65 2.01 5.63 2.01 1.97 4.98 1.97m30.04 7.36q-4.5 0-7.14-2.34-2.65-2.34-2.65-6.6v-27.78h-4.44v-7.66h13.56v35.62q0 .49.37.86.36.36.85.36h3.46v7.54zm21.77.61q-4.5 0-8.12-1.95-3.62-1.94-5.72-5.41-2.09-3.46-2.09-7.96v-.61q0-4.5 2.09-7.94 2.1-3.43 5.72-5.38t8.12-1.94 8.08 1.94q3.59 1.95 5.69 5.38 2.1 3.44 2.1 7.94v.61q0 4.5-2.1 7.96-2.1 3.47-5.69 5.41-3.58 1.95-8.08 1.95m0-7.97q3.04 0 4.89-2.06 1.86-2.07 1.86-5.29v-.61q0-3.22-1.86-5.26-1.85-2.04-4.89-2.04-2.98 0-4.9 2.04-1.91 2.04-1.91 5.26v.61q0 3.22 1.91 5.29 1.92 2.06 4.9 2.06m20.3 7.36v-29.97h8.82v3.89q1.15-2.31 3.22-3.26t4.62-.94h2.31v9h-3.1q-3.28 0-5.01 1.37-1.74 1.37-1.74 3.8v16.11zm35.15.61q-4.56 0-8-1.92-3.43-1.91-5.38-5.38t-1.95-8.08v-.61q0-4.26 1.83-7.69 1.82-3.44 5.11-5.48 3.28-2.03 7.66-2.03 4.74 0 8.05 2.28t4.81 6.41.76 9.73h-19.1q.37 2.37 2.04 3.77t4.65 1.4q2.19 0 3.53-.7t2.49-1.92l5.17 5.29q-1.89 2.5-4.86 3.71-2.98 1.22-6.81 1.22m-.67-24.14q-2.43 0-3.74 1.52t-1.73 3.95h10.39q-.18-2.67-1.52-4.07t-3.4-1.4M378 724.09l14.95-42.56h12.1l14.9 42.56h-9.97l-3.04-9.3h-15.87l-3.1 9.3zm15.74-17.45h10.46l-5.23-15.81zm28.15 17.45v-8.82h6.75v-24.92h-6.75v-8.82h23.29v8.82h-6.75v24.92h6.75v8.82z"/><path fill="#0c322c" d="M224.87 786.88q-1.84 0-3.4-.56t-2.58-1.38l1.41-2.2q.96.72 2.14 1.16 1.18.45 2.43.45 1.31 0 2.12-.59.8-.59.8-1.51 0-.86-.59-1.3t-1.53-.71l-2-.54q-1.07-.28-2-.75-.94-.48-1.55-1.35-.6-.87-.6-2.35 0-2.16 1.62-3.53t4.35-1.36q1.54 0 2.91.44 1.36.45 2.41 1.17l-1.44 2.17q-.86-.59-1.86-.94t-2.05-.34q-1.28 0-2.07.59t-.79 1.51q0 .85.61 1.29t1.58.71l2.03.56q1.07.29 2.04.79.97.49 1.57 1.38t.61 2.36q0 1.41-.8 2.49-.81 1.09-2.19 1.71-1.38.63-3.18.63m15.63.03q-2.63 0-4.37-1.58-1.74-1.57-1.74-4.92v-9.72h3.18v9.13q0 2.33 1.02 3.23t2.6.9q1.64 0 2.79-1.06 1.14-1.07 1.14-3.24v-8.96h3.19v15.89h-2.82v-2.17q-.99 1.48-2.4 1.99t-2.59.51m17.07-.03q-1.84 0-3.4-.56t-2.58-1.38l1.41-2.2q.96.72 2.14 1.16 1.18.45 2.43.45 1.31 0 2.12-.59.8-.59.8-1.51 0-.86-.59-1.3t-1.53-.71l-2-.54q-1.07-.28-2-.75-.94-.48-1.55-1.35-.6-.87-.6-2.35 0-2.16 1.62-3.53t4.35-1.36q1.55 0 2.91.44 1.36.45 2.41 1.17l-1.44 2.17q-.86-.59-1.86-.94t-2.05-.34q-1.28 0-2.07.59t-.79 1.51q0 .85.61 1.29t1.58.71l2.03.56q1.07.29 2.04.79.97.49 1.57 1.38t.61 2.36q0 1.41-.8 2.49-.81 1.09-2.19 1.71-1.38.63-3.18.63m16.64.03q-2.39 0-4.2-1.04-1.8-1.03-2.81-2.87-1-1.84-1-4.27v-.33q0-2.29.94-4.12.93-1.82 2.63-2.87t3.95-1.05q2.33 0 3.99 1.15t2.43 3.22.44 4.89h-11.19q.19 1.9 1.49 3.17 1.3 1.26 3.47 1.26 2.36 0 3.74-1.28l1.84 1.94q-.96 1.08-2.43 1.64t-3.29.56m-.49-13.89q-1.84 0-2.92 1.15t-1.35 3.02h8.05q-.04-1.97-1.09-3.07t-2.69-1.1m10.05 13.56v-4.04h3.77v4.04zm14.87.33q-2.4 0-4.25-1.04-1.86-1.03-2.92-2.85-1.07-1.82-1.07-4.19v-.39q0-2.4 1.08-4.22 1.09-1.82 2.94-2.84 1.86-1.02 4.22-1.02 1.74 0 3.22.67 1.48.68 2.46 1.86l-1.97 2q-1.41-1.57-3.71-1.57-2.17 0-3.58 1.39-1.41 1.4-1.41 3.73v.39q0 2.3 1.43 3.71t3.59 1.41q1.09 0 2.04-.37.95-.38 1.74-1.17l1.94 1.97q-.99 1.18-2.5 1.86-1.51.67-3.25.67m15.46 0q-2.29 0-4.12-1.05-1.82-1.05-2.88-2.89-1.07-1.84-1.07-4.24v-.29q0-2.37 1.07-4.19 1.06-1.82 2.88-2.85 1.83-1.04 4.12-1.04t4.11 1.04q1.8 1.03 2.86 2.84t1.05 4.16v.33q0 2.4-1.05 4.24-1.06 1.84-2.86 2.89-1.81 1.05-4.11 1.05m0-2.86q2.14 0 3.47-1.48 1.33-1.47 1.33-3.84v-.33q0-2.29-1.33-3.74-1.33-1.44-3.47-1.44-2.13 0-3.48 1.46-1.34 1.46-1.34 3.76v.29q0 2.37 1.34 3.84 1.35 1.48 3.48 1.48m11.63 2.53v-15.89h3.08v2.23q.92-1.48 2.25-2.02t2.58-.54q1.64 0 2.89.71 1.25.7 1.94 2.11.69-1.11 1.62-1.72t1.92-.85 1.78-.25q2.59 0 4.21 1.66t1.63 5.01v9.55h-3.19v-9.09q0-2.2-.93-3.19t-2.51-.98-2.65 1.06q-1.06 1.07-1.06 3.07v9.13h-3.22v-9.09q0-2.2-.94-3.19t-2.47-.98q-1.61 0-2.68 1.06-1.07 1.07-1.07 3.07v9.13zm25.51 4.73 11.92-29.65h3.28l-11.98 29.65zm20.19-4.4q-2.69 0-4.32-1.33-1.62-1.33-1.62-3.43 0-1.38.82-2.48t2.25-1.74 3.3-.64q2.39 0 3.9.92v-1.74q0-1.74-.95-2.5-.95-.75-2.49-.75-1.25 0-2.56.46-1.32.46-2.27 1.41l-1.48-2.23q1.09-1.19 2.84-1.84 1.76-.66 3.66-.66 2.86 0 4.65 1.51t1.79 4.43v5.13l.01 2.57q.02 1.3.09 2.58h-2.89v-1.61q-1.41 1.94-4.73 1.94m.89-2.4q1.6 0 2.54-.67t.94-1.76q0-1.05-.94-1.72t-2.58-.67q-1.61 0-2.57.67-.97.67-.97 1.72t.97 1.74q.96.69 2.61.69m12.21 2.07v-13.13h-2.96v-2.76h6.21v15.89zm-.13-19.21v-4.1h3.58v4.1z" opacity=".92"/></svg>