<svg xmlns="http://www.w3.org/2000/svg" width="300" height="250" viewBox="0 0 300 250"><path fill="#0c322c" d="M0 0h300v250H0z"/><path fill="#2fb9a0" d="M0 0h300v250H0z"/><path fill="#0c322c" d="M90.63 199.91v-13.87h-4.7v-3.63h13.5v3.63h-4.77v13.87zm8.2 0v-12.32h3.63v1.59q.47-.94 1.32-1.33t1.9-.39h.95v3.7h-1.27q-1.35 0-2.07.56t-.71 1.57v6.62zm8.7 5v-3.15h2.95q.3 0 .4-.25l.68-1.37-4.98-12.55h4.18l2.77 7.9 2.43-7.9h4.17l-5.5 14.1q-.27.72-.74 1.47t-1.31 1.25-2.32.5zm18.38-5v-17.5h6.9q2.87 0 4.61 1.49t1.74 4.26q0 1.88-.79 3.17-.79 1.31-2.21 1.98l3.52 6.6h-4.55l-2.95-5.93h-2.27v5.93zm6.7-14.15h-2.7v4.9h2.7q1.1 0 1.77-.68.68-.67.68-1.74 0-1.08-.68-1.78-.67-.7-1.77-.7m12.27 14.4q-2.05 0-3.29-1.02-1.23-1.03-1.23-2.63 0-1.7 1.31-2.75t3.76-1.05q1.4 0 2.38.4v-.88q0-.92-.58-1.29-.57-.38-1.4-.38-.85 0-1.81.34-.96.33-1.69.91l-1.65-2.47q.83-.88 2.29-1.44t3.11-.56q1.6 0 2.81.55 1.22.54 1.92 1.58t.7 2.54v4.03l.01 1.93q.01.96.06 1.94h-3.32v-1.33q-.93 1.58-3.38 1.58m1.08-2.7q.82 0 1.35-.33.52-.32.52-.84 0-.5-.52-.83-.53-.33-1.35-.33-.8 0-1.33.33-.52.33-.52.83 0 .52.52.84.53.33 1.33.33m7.97 2.45v-12.32h3.63v1.22q.75-.9 1.68-1.19.94-.28 1.69-.28 2.08 0 3.3 1.37 1.23 1.37 1.23 3.77v7.43h-3.75v-6.8q0-1.25-.5-1.81t-1.38-.57q-.92 0-1.54.64-.61.64-.61 1.84v6.7zm19.75.25q-1.87 0-3.35-.8-1.47-.8-2.32-2.23-.85-1.42-.85-3.27v-.25q0-1.88.86-3.29t2.34-2.2 3.32-.78q1.4 0 2.64.58 1.24.59 1.96 1.62l-2.27 2.27q-.43-.55-1.04-.8t-1.26-.25q-1.18 0-1.99.75t-.81 2.1v.25q0 1.35.83 2.11.84.77 2.02.77.6 0 1.22-.23.63-.22 1.15-.77l2.23 2.22q-.73 1-2 1.6-1.28.6-2.68.6m6.15-.25v-18.25h3.63v7.15q.75-.9 1.68-1.19.94-.28 1.69-.28 2.08 0 3.3 1.37 1.23 1.37 1.23 3.77v7.43h-3.75v-6.8q0-1.25-.5-1.81t-1.38-.57q-.92 0-1.54.64-.61.64-.61 1.84v6.7zm19.53.25q-1.88 0-3.29-.79t-2.21-2.21-.8-3.32v-.25q0-1.76.75-3.17t2.1-2.25 3.15-.83q1.95 0 3.31.93t1.97 2.64q.62 1.7.32 4h-7.85q.15.97.83 1.55.69.58 1.92.58.9 0 1.45-.29t1.02-.79l2.13 2.18q-.78 1.02-2 1.52-1.23.5-2.8.5m-.28-9.93q-1 0-1.54.63-.53.62-.71 1.62h4.28q-.08-1.09-.63-1.67t-1.4-.58m7.48 9.68v-12.32h3.62v1.59q.48-.94 1.33-1.33t1.9-.39h.95v3.7h-1.28q-1.35 0-2.06.56t-.71 1.57v6.62z"/><path fill="#0c322c" d="M114.52 225.66v-6.53h1.28v1q.23-.6.71-.82t1.07-.22h.54v1.31h-.64q-.79 0-1.21.37-.43.37-.43 1.11v3.78zm6.49.14q-1.1 0-1.77-.55t-.67-1.41q0-.57.34-1.02.33-.45.92-.72t1.36-.26q.98 0 1.6.38v-.72q0-.71-.39-1.02t-1.02-.31q-.52 0-1.06.18-.54.19-.93.59l-.61-.92q.45-.49 1.17-.76t1.51-.27q1.17 0 1.91.62.73.62.73 1.82v2.11l.01 1.06.03 1.06h-1.18V225q-.58.8-1.95.8m.37-.99q.66 0 1.04-.28.39-.27.39-.72 0-.43-.39-.71-.38-.27-1.06-.27-.66 0-1.06.27-.39.28-.39.71t.39.72q.4.28 1.08.28m4.57.85v-6.53h1.27v.93q.41-.62.99-.85t1.08-.22q1.1 0 1.78.72.67.71.67 2.09v3.86h-1.32V222q0-.96-.42-1.38t-1.06-.41q-.69 0-1.18.46-.48.45-.48 1.36v3.63zm10.59.14q-.99 0-1.75-.43t-1.2-1.17-.44-1.73v-.16q0-.98.44-1.73.45-.75 1.21-1.17.77-.42 1.74-.42.71 0 1.32.28.61.27 1.01.76l-.81.82q-.58-.64-1.52-.64-.89 0-1.47.57t-.58 1.53v.16q0 .95.58 1.53.59.58 1.48.58.45 0 .84-.16.39-.15.71-.47l.8.81q-.41.48-1.03.76t-1.33.28m3.67-.14v-9.85h1.27v4.25q.4-.62.99-.85t1.07-.22q1.11 0 1.79.72.67.71.67 2.09v3.86h-1.32V222q0-.96-.42-1.38t-1.07-.41q-.69 0-1.17.46-.49.45-.49 1.36v3.63zm10.5.14q-.98 0-1.73-.43-.74-.43-1.15-1.18-.41-.76-.41-1.76v-.13q0-.95.38-1.7.39-.74 1.08-1.18t1.63-.43q.96 0 1.64.47.68.48 1 1.33t.18 2.01h-4.6q.08.78.61 1.3.54.52 1.43.52.97 0 1.53-.53l.76.8q-.39.45-1 .68t-1.35.23m-.2-5.72q-.76 0-1.2.48-.45.47-.56 1.24h3.31q-.01-.81-.44-1.26-.44-.46-1.11-.46m4.31 5.58v-6.53h1.28v1q.23-.6.71-.82t1.07-.22h.54v1.31h-.65q-.78 0-1.21.37t-.42 1.11v3.78zm3.67 0V224h1.55v1.66zm6.11.14q-.98 0-1.74-.43-.77-.43-1.21-1.17-.43-.75-.43-1.73v-.16q0-.98.44-1.73.45-.75 1.21-1.17t1.73-.42q.72 0 1.33.28.6.27 1.01.76l-.81.82q-.58-.64-1.53-.64-.89 0-1.47.57t-.58 1.53v.16q0 .95.59 1.53t1.48.58q.44 0 .83-.16.4-.15.72-.47l.8.81q-.41.48-1.03.76t-1.34.28m6.36 0q-.94 0-1.69-.44-.75-.43-1.19-1.18-.44-.76-.44-1.75v-.12q0-.97.44-1.72t1.19-1.17 1.69-.43 1.69.43q.74.42 1.17 1.16.44.75.44 1.72v.13q0 .99-.44 1.75-.43.75-1.17 1.18-.74.44-1.69.44m0-1.18q.88 0 1.43-.61.54-.6.54-1.58v-.13q0-.95-.54-1.54-.55-.59-1.43-.59t-1.43.6-.55 1.54v.12q0 .98.55 1.58t1.43.61m4.78 1.04v-6.53h1.27v.91q.38-.6.92-.83.55-.22 1.06-.22.68 0 1.19.29.52.29.8.87.28-.46.67-.71.38-.25.79-.35.4-.1.73-.1 1.06 0 1.73.68t.67 2.06v3.93h-1.31v-3.74q0-.9-.39-1.31-.38-.4-1.03-.4t-1.08.43-.44 1.27v3.75h-1.33v-3.74q0-.9-.38-1.31-.39-.4-1.02-.4-.66 0-1.1.43-.44.44-.44 1.27v3.75z" opacity=".92"/></svg>