<svg xmlns="http://www.w3.org/2000/svg" width="864" height="1080" viewBox="0 0 864 1080"><path fill="#0c322c" d="M0 0h864v1080H0z"/><path fill="#30ba78" d="M0 0h864v1080H0z"/><path fill="#0c322c" d="M278.77 802.57q-7.17 0-12.35-2.68t-8.99-7l8.56-8.47q3.8 3.63 6.87 5.1 3.06 1.47 6.43 1.47 4.06 0 6.31-1.77t2.25-4.45q0-2.51-1.56-4.06-1.55-1.56-4.15-2.6-2.59-1.03-5.7-1.94t-6.18-2.12-5.66-3.11-4.14-4.88-1.56-7.47q0-5.88 2.72-10.15t7.69-6.61 11.54-2.34q6.31 0 11.45 2.29t8.42 6.09l-8.81 8.73q-2.68-2.76-5.27-4.15-2.6-1.38-5.79-1.38-3.72 0-5.96 1.69-2.25 1.68-2.25 4.53 0 2.34 1.6 3.76 1.6 1.43 4.19 2.29t5.74 1.69 6.31 1.98q3.16 1.17 5.75 3.03t4.19 4.92 1.6 7.73q0 5.97-2.94 10.42t-8.17 6.95-12.14 2.51m45.54-1.3q-2.42 0-4.97-.52t-4.71-1.99-3.5-4.14-1.34-7v-18.06h-6.65v-10.89h6.65v-10.28h12.96v10.28h8.73v10.89h-8.73v19.1q0 .69.52 1.21.52.51 1.21.51h7v10.89zm26.95.86q-7.08 0-11.36-3.54t-4.27-9.07q0-5.88 4.53-9.5t13-3.63q4.84 0 8.21 1.38v-3.02q0-3.2-1.98-4.5-1.99-1.29-4.84-1.29-2.94 0-6.27 1.16-3.32 1.17-5.83 3.16l-5.7-8.56q2.85-3.02 7.9-4.97t10.76-1.94q5.53 0 9.72 1.9t6.61 5.49 2.42 8.77v13.91q0 3.37.04 6.69.05 3.33.22 6.7h-11.49v-4.58q-3.2 5.44-11.67 5.44m3.72-9.33q2.85 0 4.66-1.12 1.82-1.12 1.82-2.94 0-1.73-1.82-2.85-1.81-1.12-4.66-1.12-2.77 0-4.58 1.12t-1.81 2.85q0 1.82 1.81 2.94t4.58 1.12m27.56 8.47v-42.6h12.53v5.53q1.64-3.28 4.58-4.62t6.56-1.34h3.29v12.79h-4.41q-4.66 0-7.13 1.94-2.46 1.95-2.46 5.4v22.9zm50.03 0q-2.42 0-4.97-.52t-4.71-1.99-3.5-4.14-1.34-7v-18.06h-6.65v-10.89h6.65v-10.28h12.96v10.28h8.73v10.89h-8.73v19.1q0 .69.52 1.21.52.51 1.21.51h7v10.89zm34.82 0v-31.71h-6.83v-10.89h6.83v-6.91q0-6.39 4.01-9.98 4.02-3.58 10.85-3.58h7.34v10.71h-7.52q-.69 0-1.21.52-.51.52-.51 1.21v8.03h9.24v10.89h-9.24v31.71zm27.21 0v-42.6h12.53v5.53q1.64-3.28 4.58-4.62t6.57-1.34h3.28v12.79h-4.41q-4.66 0-7.13 1.94-2.46 1.95-2.46 5.4v22.9zm49.94.86q-6.48 0-11.36-2.72t-7.65-7.64-2.76-11.5v-.86q0-6.05 2.59-10.93t7.26-7.77 10.88-2.9q6.74 0 11.45 3.24t6.83 9.12 1.08 13.82h-27.13q.52 3.37 2.89 5.36 2.38 1.98 6.61 1.98 3.11 0 5.01-.99t3.55-2.72l7.34 7.52q-2.68 3.54-6.91 5.27t-9.68 1.72m-.95-34.3q-3.46 0-5.31 2.16-1.86 2.16-2.47 5.62h14.78q-.26-3.8-2.16-5.79t-4.84-1.99m45.19 34.3q-6.48 0-11.36-2.72-4.89-2.72-7.65-7.64t-2.77-11.5v-.86q0-6.05 2.6-10.93 2.59-4.88 7.25-7.77 4.67-2.9 10.89-2.9 6.74 0 11.45 3.24t6.82 9.12 1.08 13.82h-27.13q.52 3.37 2.9 5.36 2.38 1.98 6.61 1.98 3.11 0 5.01-.99t3.54-2.72l7.35 7.52q-2.68 3.54-6.92 5.27t-9.67 1.72m-.95-34.3q-3.46 0-5.32 2.16-1.85 2.16-2.46 5.62h14.78q-.26-3.8-2.16-5.79t-4.84-1.99"/><path fill="#0c322c" d="M309.4 890.36v-22.58h4.43v3.45q.8-2.05 2.45-2.82t3.71-.77h1.87v4.52h-2.24q-2.71 0-4.18 1.29-1.47 1.28-1.47 3.85v13.06zm22.44.47q-3.82 0-6.13-1.89t-2.31-4.88q0-1.96 1.17-3.52 1.16-1.56 3.19-2.47t4.69-.91q3.41 0 5.55 1.3v-2.47q0-2.47-1.35-3.55t-3.55-1.07q-1.77 0-3.64.65-1.86.66-3.21 2.01l-2.1-3.17q1.54-1.68 4.03-2.61 2.5-.94 5.2-.94 4.06 0 6.61 2.15 2.54 2.14 2.54 6.3v7.28l.02 3.66q.02 1.84.12 3.66h-4.11v-2.29q-2 2.76-6.72 2.76m1.26-3.41q2.29 0 3.62-.96 1.33-.95 1.33-2.49 0-1.49-1.33-2.45t-3.66-.96q-2.29 0-3.67.96t-1.37 2.45 1.37 2.47q1.38.98 3.71.98m15.82 2.94v-22.58h4.39V871q1.4-2.15 3.43-2.92 2.02-.77 3.7-.77 3.83 0 6.16 2.47t2.34 7.24v13.34h-4.58v-12.64q0-3.32-1.44-4.76-1.45-1.45-3.69-1.45-2.38 0-4.06 1.59-1.68 1.58-1.68 4.71v12.55zm36.58.47q-3.41 0-6.04-1.47-2.64-1.47-4.16-4.06-1.51-2.59-1.51-5.95v-.56q0-3.41 1.54-6t4.17-4.03q2.64-1.45 6-1.45 2.47 0 4.57.96 2.1.95 3.5 2.63l-2.8 2.85q-2.01-2.24-5.27-2.24-3.08 0-5.09 1.98-2 1.99-2 5.3v.56q0 3.27 2.03 5.27 2.03 2.01 5.11 2.01 1.53 0 2.89-.54 1.35-.54 2.47-1.66l2.75 2.8q-1.4 1.68-3.54 2.64t-4.62.96m12.69-.47V856.3h4.38V871q1.4-2.15 3.43-2.92t3.71-.77q3.83 0 6.16 2.47t2.33 7.24v13.34h-4.57v-12.64q0-3.32-1.44-4.76-1.45-1.45-3.69-1.45-2.38 0-4.06 1.59-1.68 1.58-1.68 4.71v12.55zm36.3.47q-3.41 0-5.97-1.47-2.57-1.47-3.99-4.09-1.43-2.61-1.43-6.06v-.47q0-3.26 1.33-5.85t3.74-4.09q2.4-1.49 5.62-1.49 3.31 0 5.67 1.63 2.35 1.64 3.45 4.58t.63 6.95h-15.91q.28 2.7 2.12 4.5t4.92 1.8q3.36 0 5.32-1.82l2.62 2.75q-1.36 1.54-3.46 2.33-2.1.8-4.66.8m-.7-19.74q-2.62 0-4.15 1.63-1.54 1.64-1.92 4.3h11.43q-.04-2.8-1.54-4.37-1.49-1.56-3.82-1.56m14.88 19.27v-22.58h4.43v3.45q.8-2.05 2.45-2.82t3.71-.77h1.87v4.52h-2.24q-2.71 0-4.18 1.29-1.47 1.28-1.47 3.85v13.06zm12.69 0v-5.74h5.37v5.74zm21.14.47q-3.41 0-6.05-1.47t-4.15-4.06-1.51-5.95v-.56q0-3.41 1.54-6 1.53-2.59 4.17-4.03t6-1.45q2.47 0 4.57.96 2.1.95 3.5 2.63l-2.8 2.85q-2.01-2.24-5.27-2.24-3.08 0-5.09 1.98-2.01 1.99-2.01 5.3v.56q0 3.27 2.03 5.27 2.03 2.01 5.11 2.01 1.54 0 2.9-.54t2.47-1.66l2.75 2.8q-1.4 1.68-3.54 2.64t-4.62.96m21.97 0q-3.26 0-5.85-1.5-2.59-1.49-4.11-4.1t-1.52-6.02v-.42q0-3.36 1.52-5.95t4.11-4.06 5.85-1.47 5.83 1.47 4.06 4.04 1.5 5.92v.47q0 3.41-1.5 6.02-1.49 2.61-4.06 4.1-2.56 1.5-5.83 1.5m0-4.06q3.03 0 4.92-2.1t1.89-5.46v-.47q0-3.26-1.89-5.32-1.89-2.05-4.92-2.05t-4.94 2.08q-1.92 2.07-1.92 5.34v.42q0 3.36 1.92 5.46 1.91 2.1 4.94 2.1m16.52 3.59v-22.58h4.38v3.17q1.31-2.1 3.2-2.87t3.66-.77q2.33 0 4.11 1.01 1.77 1 2.75 3 .98-1.58 2.31-2.45 1.33-.86 2.73-1.21t2.52-.35q3.68 0 5.99 2.36t2.31 7.11v13.58h-4.52v-12.92q0-3.13-1.33-4.53t-3.57-1.4-3.76 1.52-1.51 4.36v12.97h-4.58v-12.92q0-3.13-1.33-4.53t-3.52-1.4q-2.28 0-3.8 1.52-1.52 1.51-1.52 4.36v12.97z" opacity=".92"/></svg>