<svg xmlns="http://www.w3.org/2000/svg" width="1080" height="1080" viewBox="0 0 1080 1080"><path fill="#0c322c" d="M0 0h1080v1080H0z"/><path fill="#0c322c" d="M0 0h1080v1080H0z"/><path fill="#fff" d="M315.21 869.87q-11.45 0-20.25-4.97t-13.77-13.77-4.97-20.25v-.75q0-11.56 5.02-20.36T295.23 796t20.52-4.97q9.07 0 16.2 3.19t12.53 8.8l-12.1 11.99q-3.35-4-7.45-5.78-4.11-1.78-8.86-1.78-6.48 0-11.5 2.91t-7.83 7.99-2.81 11.78v.75q0 6.7 2.81 11.83t7.72 8.04 11.18 2.92q7.34 0 12.2-3.94t5.3-10.21h-16.2v-14.04h33.04q1.73 13.5-2.1 23.49t-12.26 15.45-20.41 5.45m66.85-.54q-8.1 0-14.2-3.4t-9.56-9.56-3.46-14.36v-1.08q0-7.56 3.24-13.67 3.24-6.1 9.08-9.72 5.83-3.61 13.6-3.61 8.43 0 14.31 4.05t8.54 11.39q2.64 7.34 1.35 17.28h-33.92q.65 4.21 3.62 6.7 2.97 2.48 8.26 2.48 3.89 0 6.27-1.24t4.43-3.4l9.18 9.39q-3.35 4.43-8.64 6.59t-12.1 2.16m-1.19-42.88q-4.32 0-6.64 2.7t-3.08 7.02h18.47q-.32-4.75-2.7-7.23t-6.05-2.49m54 41.8q-3.02 0-6.21-.65t-5.88-2.48-4.38-5.19q-1.67-3.34-1.67-8.74v-22.58h-8.32v-13.6h8.32v-12.86h16.2v12.86h10.91v13.6h-10.91v23.87q0 .87.65 1.51.64.65 1.51.65h8.75v13.61zm55.73.86q-6.8 0-12.2-1.89t-9.08-4.48l6.81-10.91q3.45 2.06 7.07 3.46t7.4 1.4q2.92 0 4.64-1.02 1.73-1.03 1.73-2.76 0-1.94-1.83-2.86-1.84-.92-4.7-1.62t-6.1-1.62-6.11-2.59-4.69-4.75-1.84-8.16q0-7.66 5.78-12.52t15.93-4.86q5.4 0 10.37 1.35t8.85 3.83l-6.91 10.8q-6.26-3.78-12.53-3.78-2.81 0-4.43 1.03-1.62 1.02-1.62 2.75 0 1.84 1.89 2.81t4.86 1.67 6.27 1.68 6.26 2.75 4.86 4.86 1.89 8.15-2.91 8.97q-2.92 3.89-8 6.1t-11.66 2.21m52.81-.86q-3.02 0-6.21-.65t-5.88-2.48-4.38-5.19q-1.67-3.34-1.67-8.74v-22.58h-8.32v-13.6h8.32v-12.86h16.2v12.86h10.91v13.6h-10.91v23.87q0 .87.65 1.51.64.65 1.51.65h8.75v13.61zm33.7 1.08q-8.86 0-14.2-4.43t-5.35-11.34q0-7.34 5.67-11.88 5.67-4.53 16.25-4.53 6.05 0 10.26 1.72v-3.78q0-3.99-2.48-5.61t-6.05-1.62q-3.67 0-7.83 1.46-4.16 1.45-7.29 3.94l-7.13-10.69q3.57-3.78 9.89-6.21 6.31-2.43 13.44-2.43 6.91 0 12.15 2.37t8.26 6.86 3.03 10.96v17.39q0 4.21.05 8.37t.27 8.37h-14.36v-5.72q-4 6.8-14.58 6.8m4.64-11.66q3.57 0 5.83-1.41 2.27-1.4 2.27-3.67 0-2.16-2.27-3.56-2.26-1.41-5.83-1.41-3.45 0-5.72 1.41-2.27 1.4-2.27 3.56 0 2.27 2.27 3.67 2.27 1.41 5.72 1.41m34.45 10.58v-53.24h15.66v6.91q2.06-4.11 5.73-5.78t8.21-1.67h4.1v15.98h-5.51q-5.83 0-8.91 2.43t-3.08 6.75v28.62zm62.54 0q-3.03 0-6.21-.65t-5.89-2.48-4.37-5.19q-1.68-3.34-1.68-8.74v-22.58h-8.31v-13.6h8.31v-12.86h16.2v12.86h10.91v13.6h-10.91v23.87q0 .87.65 1.51.65.65 1.51.65h8.75v13.61zm40.5 1.08q-8.1 0-14.21-3.4-6.1-3.4-9.55-9.56t-3.46-14.36v-1.08q0-7.56 3.24-13.67 3.24-6.1 9.07-9.72 5.83-3.61 13.61-3.61 8.42 0 14.31 4.05t8.53 11.39 1.35 17.28h-33.91q.65 4.21 3.62 6.7 2.97 2.48 8.26 2.48 3.89 0 6.26-1.24 2.38-1.24 4.43-3.4l9.18 9.39q-3.35 4.43-8.64 6.59t-12.09 2.16m-1.19-42.88q-4.32 0-6.64 2.7-2.33 2.7-3.08 7.02h18.47q-.33-4.75-2.7-7.23t-6.05-2.49m54.65 42.88q-7.13 0-12.86-3.35t-9.07-9.45-3.35-14.31v-1.08q0-8.1 3.41-14.25 3.4-6.16 9.18-9.56t12.79-3.4q8 0 13.94 4.75v-29.27h16.2v78.84h-14.48v-5.29q-6.37 6.37-15.76 6.37m2.7-14.15q5.29 0 8.85-3.51 3.57-3.51 3.57-9.99 0-6.59-3.57-10.1t-8.85-3.51q-4.65 0-8.21 3.35t-3.57 9.72v1.08q0 6.27 3.57 9.61 3.56 3.35 8.21 3.35"/><path fill="#fff" d="M437.7 977.86q-3.14 0-5.8-.95t-4.4-2.35l2.41-3.75q1.63 1.23 3.64 1.99 2.02.75 4.15.75 2.24 0 3.61-1.01 1.37-1 1.37-2.57 0-1.46-1.01-2.21-1.01-.76-2.6-1.21-1.6-.45-3.42-.92t-3.41-1.29q-1.6-.81-2.64-2.3-1.03-1.48-1.03-4 0-3.7 2.77-6.02t7.42-2.32q2.63 0 4.96.75 2.32.76 4.11 1.99l-2.46 3.7q-1.46-1.01-3.17-1.6-1.7-.59-3.5-.59-2.18 0-3.52 1.01-1.35 1.01-1.35 2.58 0 1.45 1.04 2.21 1.03.75 2.69 1.2l3.47.95q1.82.51 3.47 1.35t2.69 2.35 1.03 4.03q0 2.41-1.37 4.26t-3.72 2.91-5.43 1.06m26.65.06q-4.48 0-7.45-2.69t-2.96-8.4v-16.57h5.43v15.56q0 3.98 1.73 5.52 1.74 1.54 4.43 1.54 2.8 0 4.76-1.82t1.96-5.52v-15.28h5.43v27.1h-4.82v-3.7q-1.68 2.52-4.08 3.39t-4.43.87m29.12-.06q-3.13 0-5.79-.95t-4.4-2.35l2.41-3.75q1.62 1.23 3.64 1.99 2.01.75 4.14.75 2.24 0 3.61-1.01 1.38-1 1.38-2.57 0-1.46-1.01-2.21-1.01-.76-2.61-1.21t-3.41-.92q-1.82-.48-3.42-1.29t-2.63-2.3q-1.04-1.48-1.04-4 0-3.7 2.78-6.02t7.42-2.32q2.63 0 4.95.75 2.33.76 4.12 1.99l-2.47 3.7q-1.45-1.01-3.16-1.6t-3.5-.59q-2.18 0-3.53 1.01t-1.34 2.58q0 1.45 1.03 2.21 1.04.75 2.69 1.2l3.47.95q1.82.51 3.48 1.35 1.65.84 2.68 2.35t1.04 4.03q0 2.41-1.37 4.26t-3.73 2.91-5.43 1.06m28.39.06q-4.08 0-7.16-1.76-3.08-1.77-4.79-4.9t-1.71-7.28v-.56q0-3.92 1.6-7.03 1.59-3.11 4.48-4.9 2.88-1.79 6.74-1.79 3.98 0 6.81 1.96t4.14 5.48.76 8.35h-19.1q.34 3.25 2.55 5.4t5.91 2.16q4.03 0 6.38-2.19l3.14 3.31q-1.63 1.85-4.15 2.8t-5.6.95m-.84-23.69q-3.13 0-4.98 1.96t-2.3 5.15h13.72q-.05-3.36-1.84-5.23-1.8-1.88-4.6-1.88m17.14 23.13v-6.89h6.44v6.89zm25.37.56q-4.09 0-7.25-1.76-3.17-1.77-4.99-4.88t-1.82-7.14v-.67q0-4.09 1.85-7.19t5.01-4.85q3.17-1.73 7.2-1.73 2.97 0 5.49 1.14 2.52 1.15 4.2 3.17l-3.36 3.41q-2.41-2.68-6.33-2.68-3.7 0-6.11 2.38-2.4 2.38-2.4 6.35v.67q0 3.92 2.43 6.33t6.13 2.41q1.85 0 3.48-.64 1.62-.65 2.96-1.99l3.31 3.36q-1.68 2.01-4.26 3.16-2.57 1.15-5.54 1.15m26.37 0q-3.92 0-7.02-1.79-3.11-1.79-4.93-4.93t-1.82-7.22v-.51q0-4.03 1.82-7.14t4.93-4.87 7.02-1.76 7 1.76 4.88 4.84 1.79 7.12v.56q0 4.08-1.79 7.22-1.8 3.14-4.88 4.93t-7 1.79m0-4.87q3.64 0 5.91-2.52t2.27-6.55v-.56q0-3.92-2.27-6.39t-5.91-2.46-5.93 2.49-2.3 6.41v.51q0 4.03 2.3 6.55t5.93 2.52m19.83 4.31v-27.1h5.26v3.8q1.57-2.52 3.84-3.44t4.39-.92q2.8 0 4.93 1.2t3.31 3.61q1.17-1.9 2.77-2.94 1.59-1.03 3.27-1.45t3.03-.42q4.42 0 7.19 2.82 2.78 2.83 2.78 8.54v16.3h-5.44v-15.51q0-3.75-1.59-5.43-1.6-1.68-4.29-1.68t-4.5 1.82-1.82 5.23v15.57h-5.49v-15.51q0-3.75-1.6-5.43-1.59-1.68-4.23-1.68-2.74 0-4.56 1.82t-1.82 5.23v15.57z" opacity=".92"/></svg>