<svg xmlns="http://www.w3.org/2000/svg" width="800" height="600" viewBox="0 0 800 600"><path fill="#f0f5f2" d="M0 0h840v600H0z"/><path fill="#0a6e43" d="M489.79 72.29q-1.68 0-2.92-.62t-2.1-1.63l1.41-1.43q.86.9 1.76 1.32t1.93.42q1.43 0 2.25-.69.81-.7.81-1.8 0-.81-.43-1.32-.43-.5-1.12-.81t-1.53-.54-1.67-.52-1.53-.73-1.12-1.18-.43-1.87q0-1.41.65-2.43t1.84-1.58q1.18-.57 2.77-.57 1.43 0 2.57.5 1.15.49 1.89 1.33l-1.45 1.47q-.66-.68-1.38-1.02-.73-.34-1.65-.34-1.35 0-2.16.67t-.81 1.75q0 .77.43 1.23.42.46 1.13.75.7.29 1.55.5.85.2 1.68.48.84.27 1.54.74t1.14 1.22q.42.76.42 1.94 0 1.46-.69 2.52-.69 1.07-1.92 1.65-1.24.59-2.86.59m12.78-.29q-1.08 0-1.8-.7-.71-.71-.71-1.81V56.6h2.29v12.25q0 .42.28.71t.71.28h6.18V72zm13.48 0q-1.1 0-1.8-.7-.7-.71-.7-1.81V59.11q0-1.1.7-1.81.7-.7 1.8-.7h7.29v2.09h-6.56q-.42 0-.69.29-.28.28-.28.7v3.59h7.06v2h-7.06v3.65q0 .42.28.7.27.29.69.29h6.56V72zm16.42.29q-1.68 0-2.92-.62t-2.1-1.63l1.41-1.43q.86.9 1.76 1.32t1.93.42q1.43 0 2.25-.69.81-.7.81-1.8 0-.81-.43-1.32-.43-.5-1.12-.81t-1.53-.54-1.67-.52-1.53-.73-1.12-1.18-.43-1.87q0-1.41.65-2.43t1.84-1.58q1.18-.57 2.77-.57 1.43 0 2.57.5 1.15.49 1.89 1.33l-1.45 1.47q-.66-.68-1.38-1.02-.73-.34-1.65-.34-1.35 0-2.16.67t-.81 1.75q0 .77.42 1.23.43.46 1.14.75.7.29 1.55.5.85.2 1.68.48.84.27 1.54.74t1.13 1.22q.43.76.43 1.94 0 1.46-.69 2.52-.69 1.07-1.92 1.65-1.24.59-2.86.59m17.64-.29v-2.09h3.87V59.57q0-.4-.23-.64t-.63-.24h-3.01V56.6h3.61q1.1 0 1.8.7.71.71.71 1.79v10.82h3.82V72zm20.2.22q-1.7 0-2.94-.65t-1.93-1.84-.68-2.79q0-1.06.42-2.1.42-1.05 1.14-2.1l4.27-6.14h2.73l-4.16 5.65q.75-.28 1.61-.28 1.47 0 2.61.66 1.13.66 1.77 1.8.63 1.15.63 2.64 0 1.56-.69 2.72-.69 1.15-1.92 1.79-1.24.64-2.86.64m-.05-1.98q1.43 0 2.32-.88t.89-2.29-.89-2.3-2.27-.89q-1.46 0-2.35.89t-.89 2.3q0 1.43.88 2.3t2.31.87M485.83 105V89.6h5.23q2.38 0 3.83 1.21t1.45 3.52q0 1.85-.89 2.97t-2.43 1.52l3.78 6.18h-2.64l-3.52-5.94h-2.53V105zm5.12-13.44h-2.84v5.56h2.84q1.37 0 2.2-.69t.84-2.08q0-1.32-.84-2.05-.83-.74-2.2-.74M503.93 105q-1.1 0-1.8-.7-.71-.71-.71-1.81V92.11q0-1.1.71-1.81.7-.7 1.8-.7h7.28v2.09h-6.55q-.42 0-.69.29-.28.28-.28.7v3.59h7.06v2h-7.06v3.65q0 .42.28.7.27.29.69.29h6.55V105zm14.9 0q-1.08 0-1.8-.7-.71-.71-.71-1.81V89.6h2.29v12.25q0 .42.28.71t.71.28h6.18V105zm13.48 0q-1.1 0-1.8-.7-.71-.71-.71-1.81V92.11q0-1.1.71-1.81.7-.7 1.8-.7h7.28v2.09h-6.55q-.42 0-.69.29-.28.28-.28.7v3.59h7.06v2h-7.06v3.65q0 .42.28.7.27.29.69.29h6.55V105zm10.8 0 5.75-15.4h2.79l5.74 15.4h-2.35l-1.45-3.98h-6.67l-1.45 3.98zm4.51-5.94h5.26l-2.62-7.22zm17.76 6.23q-1.67 0-2.92-.62-1.24-.62-2.1-1.63l1.41-1.43q.86.9 1.76 1.32t1.94.42q1.43 0 2.24-.69.81-.7.81-1.8 0-.81-.42-1.32-.43-.5-1.13-.81-.69-.31-1.53-.54-.83-.23-1.67-.52-.83-.28-1.53-.73-.69-.45-1.12-1.18t-.43-1.87q0-1.41.65-2.43t1.84-1.58 2.77-.57q1.43 0 2.57.5 1.15.49 1.9 1.33l-1.46 1.47q-.66-.68-1.38-1.02-.73-.34-1.65-.34-1.34 0-2.16.67-.81.67-.81 1.75 0 .77.43 1.23t1.13.75 1.55.5q.85.2 1.68.48.84.27 1.54.74t1.14 1.22q.43.76.43 1.94 0 1.46-.7 2.52-.69 1.07-1.92 1.65-1.23.59-2.86.59m12.71-.29q-1.1 0-1.8-.7-.7-.71-.7-1.81V92.11q0-1.1.7-1.81.7-.7 1.8-.7h7.29v2.09h-6.56q-.42 0-.69.29-.28.28-.28.7v3.59h7.06v2h-7.06v3.65q0 .42.28.7.27.29.69.29h6.56V105zm-88.3 33.29q-1.68 0-2.92-.62t-2.1-1.63l1.41-1.43q.86.9 1.76 1.32t1.93.42q1.43 0 2.25-.69.81-.7.81-1.8 0-.81-.43-1.32-.43-.5-1.12-.81t-1.53-.54-1.67-.52q-.84-.28-1.53-.73t-1.12-1.18-.43-1.87q0-1.41.65-2.43t1.84-1.58 2.77-.57q1.43 0 2.57.5 1.15.49 1.89 1.33l-1.45 1.47q-.66-.68-1.38-1.02-.73-.34-1.65-.34-1.35 0-2.16.67t-.81 1.75q0 .77.43 1.23.42.46 1.13.75.7.29 1.55.5.85.2 1.68.48.84.27 1.54.74t1.14 1.22q.42.76.42 1.94 0 1.46-.69 2.52-.69 1.07-1.92 1.65-1.24.59-2.86.59m13.83-.29v-6.45l-5.54-8.95h2.49l4.2 6.75 4.22-6.75h2.49l-5.55 8.95V138zm12.02 0v-15.4h2.09l7.52 11.37V122.6h2.29V138h-2.07l-7.55-11.4V138zm24.79.29q-1.63 0-3.07-.58-1.44-.57-2.52-1.61-1.08-1.05-1.68-2.48-.61-1.43-.61-3.14v-.36q0-1.71.61-3.14.6-1.43 1.68-2.48 1.08-1.04 2.52-1.61t3.07-.58q1.5 0 2.74.46 1.24.45 2.23 1.28l-1.45 1.74q-1.45-1.23-3.52-1.23-1.58 0-2.84.7-1.25.71-1.98 1.96-.72 1.25-.72 2.9v.36q0 1.65.72 2.9.73 1.25 1.98 1.96 1.26.7 2.84.7 2.11 0 3.56-1.3l1.48 1.72q-.99.88-2.28 1.35t-2.76.48"/><path fill="#0c322c" d="M590.36 68V52.6h5.37q2.53 0 4.03 1.31t1.51 3.62-1.51 3.61q-1.5 1.29-4.03 1.29h-2.25V68zm5.52-12.76h-2.4v4.62h2.4q1.08 0 1.7-.66.63-.66.63-1.67 0-.99-.63-1.64-.62-.65-1.7-.65M604.94 68V52.6h5.81q2.47 0 3.97 1.28 1.51 1.27 1.51 3.67 0 1.72-.76 2.86t-2.1 1.67l3.32 5.92h-3.54l-2.9-5.46h-2.18V68zm5.66-12.78h-2.53v4.73h2.53q1.08 0 1.76-.63t.68-1.73q0-1.05-.68-1.71t-1.76-.66M618.91 68l5.53-15.4h3.85l5.52 15.4h-3.19l-1.23-3.56h-6.05L622.1 68zm5.33-6.18h4.27l-2.14-6.25zm19.42 6.51q-2.31 0-4.08-1.01t-2.78-2.8-1.01-4.11v-.2q0-2.33 1.02-4.12 1.02-1.8 2.83-2.81 1.8-1.01 4.16-1.01 1.73 0 3.13.61 1.4.6 2.48 1.68l-2.18 2.15q-.68-.77-1.54-1.13t-1.85-.36q-1.43 0-2.53.64-1.1.63-1.72 1.77-.61 1.13-.61 2.58v.2q0 1.47.61 2.6.62 1.12 1.69 1.76t2.47.63q1.1 0 1.97-.44t1.38-1.21.55-1.78h-3.5v-2.53h6.51q.33 2.66-.44 4.67t-2.46 3.11q-1.7 1.11-4.1 1.11m16.83-.02q-2.77 0-4.43-1.4t-1.66-4.3V52.6h3.12v9.77q0 1.58.82 2.32t2.15.74q1.35 0 2.16-.74t.81-2.32V52.6h3.13v10.01q0 1.94-.76 3.2t-2.14 1.88-3.2.62m13.27-.31q-1.17 0-1.9-.74-.74-.73-.74-1.88V55.22q0-1.15.74-1.88.73-.74 1.9-.74h7.68v2.82h-6.62q-.27 0-.44.18-.18.19-.18.45v2.86h6.78v2.69h-6.78v2.95q0 .26.18.45.17.18.44.18h6.62V68z"/><path fill="#0a6e43" d="M604.51 98v-2.18h2.72v-7.19q0-.35-.34-.35h-2.46V86.1h3.13q.88 0 1.45.57t.57 1.44v7.71h2.67V98zm14.66.17q-2.16 0-3.37-1.59t-1.21-4.5q0-2.94 1.21-4.54 1.21-1.61 3.37-1.61 2.14 0 3.34 1.61 1.2 1.6 1.2 4.54 0 2.91-1.2 4.5t-3.34 1.59m0-2.16q2.12 0 2.12-3.93 0-3.99-2.12-3.99-2.16 0-2.16 3.99 0 3.93 2.16 3.93m6.85-3.84v-2.5h2.53v2.5zm0 5.83v-2.52h2.53V98zm9.42.17q-2.16 0-3.37-1.59t-1.21-4.5q0-2.94 1.21-4.54 1.21-1.61 3.37-1.61 2.14 0 3.34 1.61 1.2 1.6 1.2 4.54 0 2.91-1.2 4.5t-3.34 1.59m0-2.16q2.12 0 2.12-3.93 0-3.99-2.12-3.99-2.16 0-2.16 3.99 0 3.93 2.16 3.93m11.05 2.16q-2.16 0-3.37-1.59t-1.21-4.5q0-2.94 1.21-4.54 1.21-1.61 3.37-1.61 2.14 0 3.34 1.61 1.2 1.6 1.2 4.54 0 2.91-1.2 4.5t-3.34 1.59m0-2.16q2.12 0 2.12-3.93 0-3.99-2.12-3.99-2.16 0-2.16 3.99 0 3.93 2.16 3.93M656.53 98l4.27-11.9h2.98l4.26 11.9h-2.46l-.95-2.75h-4.68L659 98zm4.12-4.78h3.3l-1.65-4.82zm9.57 4.78V86.1h3.23l2.67 6.15 2.65-6.15H682V98h-2.35v-8.7L677 95.64h-1.78l-2.66-6.34V98z"/><path fill="#0c322c" fill-opacity=".58" d="m617.27 121.5-2.41-8.4h1.27l1.79 6.56 2.03-6.56h1.38l2.02 6.56 1.78-6.56h1.28l-2.43 8.4h-1.27l-2.08-6.85-2.06 6.85zm12.46 0q-.6 0-.98-.38-.39-.39-.39-.99v-5.66q0-.6.39-.99.38-.38.98-.38h3.97v1.14h-3.57q-.23 0-.38.16-.15.15-.15.38v1.96h3.85v1.09h-3.85v1.99q0 .23.15.38.15.16.38.16h3.57v1.14zm6.43 0v-8.4h2.93q1.18 0 2.11.52.94.52 1.48 1.44t.54 2.12v.13q0 .93-.31 1.69-.32.77-.88 1.33t-1.31.86q-.75.31-1.63.31zm2.83-7.22h-1.58v6.04h1.58q.86 0 1.52-.37.67-.38 1.05-1.06.39-.68.39-1.58v-.13q0-.86-.38-1.52t-1.05-1.02-1.53-.36m5.68 7.22v-1.48h1.42v2.25q0 .39-.16.61t-.4.3-.48.08h-.43v-.68h.43q.15 0 .23-.1.07-.09.07-.22v-.76zm6.44 0v-1.14h1.78q.32 0 .54-.22.22-.21.22-.54v-5.36h-2.14v-1.14h3.4v6.38q0 .99-.55 1.5-.55.52-1.58.52zm9.7.16q-1.45 0-2.32-.77-.87-.76-.87-2.26v-5.53h1.25v5.44q0 .96.52 1.45.53.5 1.42.5t1.42-.5q.54-.49.54-1.45v-5.44h1.24v5.53q0 1.5-.87 2.26-.88.77-2.33.77m7.28-.16q-.58 0-.97-.38-.39-.39-.39-.99v-7.03h1.24v6.68q0 .23.16.39.16.15.38.15h3.38v1.18zm11.57.12q-.93 0-1.63-.3t-1.08-.85-.38-1.27q0-.76.4-1.3t1.12-.79q-.58-.25-.91-.75t-.33-1.15q0-.67.35-1.17.35-.51.98-.78.63-.28 1.48-.28t1.48.28q.63.27.98.77t.35 1.17q0 .65-.33 1.15-.33.51-.91.76.71.24 1.12.78.41.55.41 1.29 0 .75-.39 1.29-.38.55-1.08.85t-1.63.3m.01-4.96q.72 0 1.16-.35t.43-.94-.44-.95-1.16-.36-1.15.36-.43.95.43.94 1.16.35m-.01 3.89q.82 0 1.32-.41t.51-1.06-.51-1.05q-.5-.39-1.31-.39t-1.32.39-.51 1.05.5 1.06 1.32.41"/></svg>