<svg xmlns="http://www.w3.org/2000/svg" width="800" height="600" viewBox="0 0 800 600"><path fill="#071f1a" d="M0 0h800v600H0z"/><path fill="#30ba78" d="M68.82 72V58.69h-4.51V56.6h11.35v2.09h-4.53V72zm13.4 0q-1.1 0-1.81-.7-.7-.71-.7-1.81V59.11q0-1.1.7-1.81.71-.7 1.81-.7h7.28v2.09h-6.56q-.42 0-.69.29-.28.28-.28.7v3.59h7.07v2h-7.07v3.65q0 .42.28.7.27.29.69.29h6.56V72zm10.8 0 5.74-15.4h2.79L107.3 72h-2.36l-1.45-3.98h-6.67L95.37 72zm4.51-5.94h5.26l-2.62-7.22zM111.52 72V56.6h3.06l4.11 8.82 4.09-8.82h3.08V72h-2.24V59.57l-4.05 8.95h-1.76l-4.07-8.95V72zm27.37 0V56.6h3.06l4.11 8.82 4.09-8.82h3.08V72h-2.24V59.57l-4.05 8.95h-1.76l-4.07-8.95V72zm22.55 0q-1.1 0-1.81-.7-.7-.71-.7-1.81V59.11q0-1.1.7-1.81.71-.7 1.81-.7h7.28v2.09h-6.56q-.41 0-.69.29t-.27.7v3.59h7.06v2h-7.06v3.65q0 .42.27.7.28.29.69.29h6.56V72zm14.83 0q-1.1 0-1.81-.7-.7-.71-.7-1.81V59.11q0-1.1.7-1.81.71-.7 1.81-.7h7.28v2.09h-6.56q-.42 0-.69.29-.28.28-.28.7v3.59h7.07v2h-7.07v3.65q0 .42.28.7.27.29.69.29h6.56V72zm15.37 0V58.69h-4.51V56.6h11.36v2.09h-4.54V72zm10.23 0v-2.09h2.64V58.69h-2.64V56.6h7.62v2.09h-2.67v11.22h2.67V72zm12.52 0V56.6h2.09l7.53 11.37V56.6h2.28V72h-2.06l-7.55-11.4V72zm24.64.33q-2.26 0-4-1t-2.73-2.78q-.99-1.79-.99-4.1v-.28q0-2.33 1-4.12 1-1.78 2.78-2.78 1.79-1 4.1-1 1.54 0 2.83.52 1.3.51 2.31 1.46l-1.58 1.61q-.73-.73-1.63-1.07t-1.91-.34q-1.63 0-2.88.74-1.26.73-1.97 2.02-.72 1.29-.72 2.96v.28q0 1.68.71 2.97.7 1.3 1.92 2.03t2.83.72q1.36 0 2.4-.6 1.03-.61 1.6-1.64t.55-2.31h-3.87v-1.87h6.09q.29 2.49-.48 4.42-.77 1.94-2.4 3.05t-3.96 1.11"/><path fill="#fff" d="M590.15 68V52.6h2.79l6.73 9.9v-9.9h3.11V68h-2.73l-6.78-9.94V68zm23.38.31q-2.77 0-4.43-1.4t-1.66-4.3V52.6h3.12v9.77q0 1.58.82 2.32t2.15.74q1.35 0 2.16-.74t.81-2.32V52.6h3.13v10.01q0 1.94-.76 3.2t-2.13 1.88-3.21.62m10.76-.31V52.6h5.81q2.46 0 3.97 1.28 1.51 1.27 1.51 3.67 0 1.72-.76 2.86t-2.1 1.67l3.32 5.92h-3.54l-2.91-5.46h-2.17V68zm5.66-12.78h-2.53v4.73h2.53q1.07 0 1.76-.63t.68-1.73q0-1.05-.68-1.71t-1.76-.66M642.33 68q-1.16 0-1.9-.74-.74-.73-.74-1.88V55.22q0-1.15.74-1.88.74-.74 1.9-.74h7.68v2.82h-6.62q-.27 0-.44.18-.18.19-.18.45v2.86h6.78v2.69h-6.78v2.95q0 .26.18.45.17.18.44.18h6.62V68zm11.97 0V52.6h4.18l3.45 7.96 3.44-7.96h4.18V68h-3.04V56.74l-3.43 8.2h-2.31l-3.43-8.2V68zm20.04 0V52.6h5.83q2.36 0 3.71 1.07 1.35 1.06 1.35 2.89 0 1.08-.49 2.08-.5 1-1.6 1.44 1.34.37 2.03 1.4t.68 2.23q0 1.96-1.41 3.12T680.55 68zm5.46-12.85h-2.4v3.76h2.49q1.03 0 1.61-.51.59-.52.59-1.42 0-.84-.61-1.33-.6-.5-1.68-.5m.5 6.21h-2.9v4.09h2.64q1.23 0 1.91-.55.69-.55.69-1.48 0-.85-.61-1.46-.6-.6-1.73-.6M692.36 68q-1.17 0-1.9-.74-.74-.73-.74-1.88V55.22q0-1.15.74-1.88.73-.74 1.9-.74h7.68v2.82h-6.62q-.27 0-.44.18-.18.19-.18.45v2.86h6.78v2.69h-6.78v2.95q0 .26.18.45.17.18.44.18h6.62V68zm11.97 0V52.6h5.81q2.46 0 3.97 1.28 1.5 1.27 1.5 3.67 0 1.72-.75 2.86-.76 1.14-2.11 1.67l3.33 5.92h-3.55l-2.9-5.46h-2.18V68zm5.65-12.78h-2.53v4.73h2.53q1.08 0 1.76-.63t.68-1.73q0-1.05-.68-1.71t-1.76-.66m16.79 13.11q-2.31 0-4.08-1.01t-2.79-2.8-1.01-4.11v-.2q0-2.33 1.02-4.12 1.03-1.8 2.83-2.81 1.81-1.01 4.16-1.01 1.74 0 3.13.61 1.4.6 2.48 1.68l-2.18 2.15q-.68-.77-1.54-1.13t-1.85-.36q-1.43 0-2.53.64-1.1.63-1.71 1.77-.62 1.13-.62 2.58v.2q0 1.47.62 2.6.61 1.12 1.68 1.76t2.48.63q1.1 0 1.96-.44.87-.44 1.38-1.21t.55-1.78h-3.5v-2.53h6.51q.33 2.66-.44 4.67t-2.46 3.11-4.09 1.11"/><path fill="#30ba78" d="M656.4 98v-2.18h2.72v-7.19q0-.35-.34-.35h-2.46V86.1h3.13q.88 0 1.45.57t.57 1.44v7.71h2.67V98zm14.66.17q-2.16 0-3.37-1.59t-1.21-4.5q0-2.94 1.21-4.54 1.21-1.61 3.37-1.61 2.14 0 3.34 1.61 1.2 1.6 1.2 4.54 0 2.91-1.2 4.5t-3.34 1.59m0-2.16q2.12 0 2.12-3.93 0-3.99-2.12-3.99-2.16 0-2.16 3.99 0 3.93 2.16 3.93m6.85-3.84v-2.5h2.53v2.5zm0 5.83v-2.52h2.53V98zm9.42.17q-2.16 0-3.37-1.59t-1.21-4.5q0-2.94 1.21-4.54 1.21-1.61 3.37-1.61 2.14 0 3.34 1.61 1.2 1.6 1.2 4.54 0 2.91-1.2 4.5t-3.34 1.59m0-2.16q2.12 0 2.12-3.93 0-3.99-2.12-3.99-2.16 0-2.16 3.99 0 3.93 2.16 3.93m11.05 2.16q-2.16 0-3.37-1.59t-1.21-4.5q0-2.94 1.21-4.54 1.21-1.61 3.37-1.61 2.14 0 3.34 1.61 1.2 1.6 1.2 4.54 0 2.91-1.2 4.5t-3.34 1.59m0-2.16q2.12 0 2.12-3.93 0-3.99-2.12-3.99-2.16 0-2.16 3.99 0 3.93 2.16 3.93M708.42 98l4.27-11.9h2.98l4.26 11.9h-2.46l-.95-2.75h-4.68l-.95 2.75zm4.12-4.78h3.3l-1.65-4.82zm9.57 4.78V86.1h3.23l2.67 6.15 2.65-6.15h3.23V98h-2.35v-8.7l-2.65 6.34h-1.78l-2.66-6.34V98z"/><path fill="#fff" fill-opacity=".42" d="m669.16 121.5-2.41-8.4h1.27l1.79 6.56 2.03-6.56h1.38l2.02 6.56 1.78-6.56h1.28l-2.43 8.4h-1.27l-2.08-6.85-2.06 6.85zm12.46 0q-.6 0-.98-.38-.39-.39-.39-.99v-5.66q0-.6.39-.99.38-.38.98-.38h3.97v1.14h-3.57q-.23 0-.38.16-.15.15-.15.38v1.96h3.85v1.09h-3.85v1.99q0 .23.15.38.15.16.38.16h3.57v1.14zm6.43 0v-8.4h2.93q1.18 0 2.11.52.94.52 1.48 1.44t.54 2.12v.13q0 .93-.31 1.69-.32.77-.88 1.33t-1.31.86q-.75.31-1.63.31zm2.83-7.22h-1.58v6.04h1.58q.86 0 1.52-.37.67-.38 1.05-1.06.39-.68.39-1.58v-.13q0-.86-.38-1.52t-1.05-1.02-1.53-.36m5.68 7.22v-1.48h1.42v2.25q0 .39-.16.61t-.4.3-.48.08h-.43v-.68h.43q.15 0 .23-.1.07-.09.07-.22v-.76zm6.44 0v-1.14h1.78q.32 0 .54-.22.22-.21.22-.54v-5.36h-2.14v-1.14h3.4v6.38q0 .99-.55 1.5-.55.52-1.58.52zm9.7.16q-1.45 0-2.32-.77-.87-.76-.87-2.26v-5.53h1.25v5.44q0 .96.52 1.45.53.5 1.42.5t1.42-.5q.54-.49.54-1.45v-5.44h1.24v5.53q0 1.5-.87 2.26-.88.77-2.33.77m7.28-.16q-.58 0-.97-.38-.39-.39-.39-.99v-7.03h1.24v6.68q0 .23.16.39.16.15.38.15h3.38v1.18zm11.57.12q-.93 0-1.63-.3t-1.08-.85-.38-1.27q0-.76.4-1.3t1.12-.79q-.58-.25-.91-.75t-.33-1.15q0-.67.35-1.17.35-.51.98-.78.63-.28 1.48-.28t1.48.28q.63.27.98.77t.35 1.17q0 .65-.33 1.15-.33.51-.91.76.71.24 1.12.78.41.55.41 1.29 0 .75-.39 1.29-.38.55-1.08.85t-1.63.3m.01-4.96q.72 0 1.16-.35t.43-.94-.44-.95-1.16-.36-1.15.36-.43.95.43.94 1.16.35m-.01 3.89q.82 0 1.32-.41t.51-1.06-.51-1.05q-.5-.39-1.31-.39t-1.32.39-.51 1.05.5 1.06q.51.41 1.32.41"/><svg width="800" height="473.5" y="126.5" style="width:100%;height:100%" viewBox="0 0 800 519"><g class="mp-map-g"><path fill="transparent" d="m400 507-8.64-.15-8.62-.45-8.61-.76-8.57-1.05-8.54-1.35-8.48-1.65-8.42-1.94-8.34-2.24-8.26-2.52-8.17-2.82-8.06-3.1-7.96-3.37-7.83-3.65-7.7-3.92-7.55-4.19-7.4-4.45-7.25-4.7-7.08-4.96-6.9-5.2-6.71-5.43-6.52-5.67-6.32-5.9-6.1-6.1-5.9-6.32-5.67-6.52-5.43-6.71-5.2-6.9-4.96-7.08-4.7-7.25-4.45-7.4-4.19-7.56-3.92-7.7-3.65-7.82-3.38-7.96-3.1-8.06-2.8-8.17-2.53-8.26-2.24-8.34-1.94-8.42-1.65-8.48-1.35-8.54-1.05-8.57-.76-8.6-.45-8.63-.15-8.64.15-8.64.45-8.62.76-8.61 1.05-8.57 1.35-8.54 1.65-8.48 1.94-8.42 2.24-8.34 2.52-8.26 2.82-8.17 3.1-8.06 3.37-7.96 3.65-7.83 3.92-7.7 4.19-7.55 4.45-7.4 4.7-7.25 4.96-7.08 5.2-6.9 5.43-6.71 5.67-6.52 5.9-6.32 6.1-6.1 6.32-5.9 6.52-5.67 6.71-5.43 6.9-5.2 7.08-4.96 7.25-4.7 7.4-4.45 7.56-4.19 7.7-3.92 7.82-3.65 7.96-3.38 8.06-3.1 8.17-2.8 8.26-2.53 8.34-2.24 8.42-1.94 8.48-1.65 8.54-1.35 8.57-1.05 8.6-.76 8.63-.45L400 12l8.64.15 8.63.45 8.6.76 8.57 1.05 8.54 1.35 8.48 1.65 8.42 1.94 8.34 2.24 8.26 2.52 8.17 2.82 8.06 3.1 7.96 3.37 7.83 3.65 7.7 3.92 7.55 4.19 7.4 4.45 7.25 4.7 7.08 4.96 6.9 5.2 6.71 5.43 6.52 5.67 6.32 5.9 6.1 6.1 5.9 6.32 5.67 6.52 5.43 6.71 5.2 6.9 4.96 7.08 4.7 7.25 4.45 7.4 4.19 7.56 3.92 7.7 3.65 7.82 3.38 7.95 3.1 8.07 2.8 8.17 2.53 8.26 2.24 8.34 1.94 8.42 1.65 8.48 1.35 8.53 1.05 8.58.76 8.6.45 8.63.15 8.64-.15 8.64-.45 8.63-.76 8.6-1.05 8.57-1.35 8.54-1.65 8.48-1.94 8.42-2.24 8.34-2.52 8.26-2.82 8.17-3.1 8.06-3.37 7.96-3.65 7.83-3.92 7.7-4.19 7.55-4.45 7.4-4.7 7.25-4.96 7.08-5.2 6.9-5.43 6.71-5.67 6.52-5.9 6.32-6.1 6.1-6.32 5.9-6.52 5.67-6.71 5.43-6.9 5.2-7.08 4.96-7.25 4.7-7.4 4.45-7.56 4.19-7.7 3.92-7.82 3.65-7.96 3.38-8.06 3.1-8.17 2.8-8.26 2.53-8.34 2.24-8.42 1.94-8.48 1.65-8.54 1.35-8.57 1.05-8.6.76-8.63.45z"/><path fill="#163d2e" d="m496 435.49.67.09 14.07.5.2 1.43 5.34.42-1.98 3.82.1 1.32 2.34-.09.04.59-1.19 1.88.13.63-.38 1.23 1.12.93 1.2 1.61 1.27-.08-3.18 2.53-4.24 2.5-2.26.85-1.46 1.16-2.66 1.04-1.05.63-4.51 1.02-2.94 1.16-.64-2.63-1.2-.61-.7-.38-3.84.77-2.17-.02-2.5.35-1.56.06-1.63-.13-1.93-2.4-2.26-.74-.73-1.22.47-1.4-.63-2.14 1.7-.55 1.52-1.31 1.63-1.77 1.03-.83-.02-.84-.86-.36-.2-.99 1.17-.65.27-1.66-1.6-1.1 1.44-.72 4.44-1.2ZM325.94 341.6l-.03.27-.21.73-1 5.9-11.83-3.74-1.69 9.8-3.48-.8-1.24 1.64-.26 5.61-14.16-5.26-1.01.9.46-1.47.06.03 8.12 2.81.68-1.17 1.8-1.13 2.18-4.75 5.78-2.37 2.61-4.28 1.16.07 1.75-2.64 3.08.51 1.2.89 1.63.47 1.33-.54 2.25.5.28-2.13Zm-42.9-289.12.27-.2 6.12-2.98 2.42-1.03 4.6-2.5 3.1-.6 1.07.32 3.52-1.54 2.12.06 3.99-1.18 1.16.22v.88l1.46.3 4.63-1.54 4.4-.3 2.69-.09 2.64-.52 2.1-.28 2.03-.01 1.18-1.22.73-1.4 2.94-.12 2.13-.13 2.34-.48 1.9-.73 10.27 7.52 6.94 6.04-2.92.62-3.07.14-1.57.5-.22 1.22-.82 1.26-2.12.8-.73 1.67-1.26 1.5-1.86-.1-.23.88 1 .81-1.04.35-4.3.1.47 1.9-2.3-.82-.84 1.2.46.65-1.4.93-2.8.85-3.44 1.74-1.86 1.14-.7.98-2.9.92-.3-1.76-2.41 1.68-2.02 2.88-.13.98-2.95.86.88 1.4 2.3-.9.68.84-.75 1.3-.23.88-1.43.78-2.66.93-.47 1.26-2.8 1.94-.34 1.8-.92 1.7 2.41-.15.2 1-2.05 1.82-3.61.15 2.74.61-.46.95 3.7.32 2.84-1.29 2.08-1.28 4.26.08 2.38 1.19-1.12 1.3-2.1 1.07-4.92 1.67-1.64-.84-1.41 2.14-4.04.4 2.7 1.2-2.86 1.72-2.86.05-2.91 1.6 2.62.83 3.3.3 4.4-.64-.53 1.65-.77 1.79-2.1 1.95-2 .52-2.1-.43-2.19 1.36-1.93.3-2.57-1.88-.39-1.7 1.38-1.58h-1.9l-3.06-.66-1.63-.07-2.26-1.11.23-1.98-1.31-.84-2.43.33.02-1.61-2.44-1.31-3.56-.96-2.63-.12-4.13.67-1.45 2.54-3.59 1.5-2.94 1.45-.01 2.24-2.38 3.7-1.75 2.18-1.94 1.83-1.39 2.62-1.78 2.5-.58 3.15-.53 2.17-3.02.96-3.54 2.1-3.93 3.2-3.34 4.61 1.07 1.02 3.5-.69 5.48-3.67 1.87-2.2 1.64 2.27 2.56.95 2.55-.15 2.4-1.25 3.05-2.54 2.72-3.24 3.94.42 3.37-2.02 5.92-2.7.91.75-.9 3-.23 1.7 1.13.86-1.1 1.95-1.91 2.86-1.37 1.15.26 2.93-3.13 1.5-4.53 2.92-.2 1.83-1.83 2.4 2.68 1.29 4.47-.73 2.03.08-2.8 3.14-3.74 4.96-3.43 4.64-2.45.79-.94 3.68-1.22 2.99.5 3.46-.47 1.97-2.38 2.93.33 1.75-.8 1.74-3.48 3.2-1.93-.33-1.82-.4-2.71-2.21-3.74-.3-1.96-2.97-.97-4.84-1-3.07-.87-1.95-2.81-.06-2.11-1.65-4.91-.09-3.4-.45.88 1.51 4.9.5 3.83 2.5 1.27 2.89-.92 3.05-2.77-.34-3.11 3.36-2.06 2.62-.48 4.14 1.85 3.24 4.26-.84-2.1 2.1-.44 2.37-3.1-.92-3.7-3.35-1.98-1.2-2.94-.7-.32-1.94 2.45-2.23 3.7 1.84-1.25-3.51-1.09-2.22 1.31-2.84 4.19-3.27.65-1.65-.88-1.08.65-1.34-2.72.06-2.54 1.11-1.55.24-.65-.61-.28-.62-.8.33-.63-4.25-.4-3.5-.66-.64-2.35-.95-.25-.12-1.2.07-.09-2.19-.05-2.32-.47-.75-.58.78-.9.84-.3.16-1.4-2.14-.36-2.18-1.35-1.78.05-.62.53-1.13.44-.55.3-.15.96-.14 1.5.08 1.7-.43 2.64-2.12 2.8-2.17 1.68-3.23.51-.03.42-.55.07-.62.54-.73.76-.52-.27-.26.17-.66.3-.04.37-.69.85-.65 1.26-2.26 1.34-2.31 1.63-2.74 1.57-2.58-.45-1.51.14-.7 1.52-3 .08-1.56 1.61-2.46 1.22-2.36.7-1.53.77-.85 1.87-1 .25-.7-1.2.44 1.73-4.26 3.32-6.92 3.83-6.72 3.81-5.77 4.2-5.62 4.5-5.35 5.04-5.34 1.7-1.67L277.6 57Zm2.94 56.67 1.65.64-.21 2.05-.74.19-1.96-1.16.2-1.1Zm40.85-4.18 2.22-1.45 1.5-.2.25.39-.45 2.19-2.22 2.11-1.13.35.07-1.06.06-1.06-.56-.94Zm-42.66 10.21 1.12.22-.1.65-.78.65-1.99.08.34-.8 1.14-.78Zm53.78-23.44-1.4-.49.76-1.2 1.45-.94 1.61.53.63 1.19-1.67.64Zm10.37.2v-.32l.74-1.25 1.2-.08-.58 1.33-.92.43Zm5.78-1.48-1.7.6-1.4-.3-.43-1.04 1.17-.42 1.62-.09 1.67.17-.51.76Zm-19.83 5.96.83-1.42 1.95-2.28 2.32-.27 2.05-.06 2.03-.72 1.07-1.5 1.6-.75 1.52.41-.82 1.43-1.6.73-.45 1.43-1.53.63-1.5-.17-1.16.9-1.1.54-.43 1.1-.57 1.2.7 1.22.18 1.6-.39 1.35-1.61 1.11-1.73.46-1.1-.36-.82-1.17.6-1.18-.3-2.44Zm22.8-15.05-1.22.65-.93-.52-.1-1.44 1.9-.48.7.84Zm2.2.92-1.31.49-.16-.9.79-.92.49.18.59.92Zm-101.32 98.14-2.51.73-3.39 1.13 1.72.34.09 1.9-1.45.3.18 2.5 1.25.2.27 2.83-2.53 1.52 1.36.87-1.38 1.8-1.4 2.46-3.04 1.76-.68-.8-.3-1.9 2.63-1.95.03-.92-3.9.15-.6-1.34 2.19.11-.39-2.65-1.35-2.04-1.9-4.1.74-1.12 1.67.33.4-1.62 2.66.08 5.95-2.28 2.4-.36 1.97.7.36.99Zm38.27-73.73-1.5 1.85-1.33 1.93-1.85.64.24.97-1.32 1.42-1.17-.93 1.08-2.54 1.81-1.28-1.9-.9-1.7-1.59 2.32-1.03-.02-1.88 1.67.83 3.01-.48 3.5-.27-.48 1.04-1.74.62.5.57Zm28.75-.38 1.65.59-1.97 2.67-1.83 1.92-1.77.63 1.18 1.66-2.4 1.91-1.06 3.14-1.38 1.56-3.43 2.54-2.39-1.38-1.84 3.86-.26 2.29-2.94 3.46.5 2.07-2.81 1-5.26.02 1.07-2.46 3.08-3.8-.94-1.46-2.26.81-1.87 2.43-1.22 2.7-.83 1.06-3.42 2.84-2.85.93.44-2.37 2.07-5.1-2.75 3.61-1.84 2.69-1.22.92.41-4.83 1.54-4.21 1.55-2.58 1.17.05 1.67-2.93 1.65-2.77-1.12.44-.87-3.9 1.32-1.63 2.9.02.18 2.55.75 2.63 1.35-.95 2.01-.24 4.07.3 1.7-.96 1.3-.94 1.74-2.48 1.2-2.81 1.06.47 2.45-1.9.2-1.07 1.38-1.22-1.2-.32-.45-1.93 1.3-4.27 1.57-2.52.97-1.83 1.62-1.03 1.58.93.36-1.48 4.17-.6 3.43.52 1.44.84.65 2.27-2.54-.42-2.69 1.03 3.19.5 1.44 2.12-4.37 2.32-2.7.34Zm9.85-15.4-.75 1.81-1.48 1.71-3.2-1.25-.43-1.1-2.62-1 .56-1.1 3.7-.54 1.96.07 1.5.51ZM357.24 72l1.13 2.1.76 2.08-.96.82-.3.96-2.5-1.1-.68-.9.43-.63-.14-1.7.63-1.17Zm-43.1-31.83-1.78 1.14-1.75-.85-3.5.75.85-.48 2.2-.56 1.73-.26 1.68-.44h1.28l.53.23Zm44.78 45.62-1.21.97-2.3 1.29-2.11.17h-1.78l.98-.97 1.84-.8.96-1.3.77.82 1.36-.49Zm-75.69-34.27.7-.76 4.4-2.52 1.41-.46 2.63-1.29 1-.24 2.54-1.42 1.99-.46.32.15-2.64 1.4-1.6.84-2.14 1.33-1.47.48-2.08.73-2.95 1.52Zm67.95 18.84-1.75.66-2.1 1.68-1.67.35-2.17.32.1-1.22-.28-2.65-1.1-1.77-1.34-.51 1.05-2.63 1.8.16 3.77-.96.77.9 1.44 1.5 1.15 1.52 2.61.29Zm-4.16 10.91.18.77-.67.7-1.91-.24-1.47-.8 1.29-2.65V76.8l.9-1.14 1.2.26.24 1.93 2.48-3.25 1.55-.7 2.31 2.1.36.94-2.8 1.4-3.1.58-1.25 1.15 4.2-.06.84.96-.93.56-1.92-.21Zm-10.86-1.06-2.13.73-3.96.06-2.79-.03-2.83 1.47-2.8 1.72-1.59-.2.66-1.75-1.8.6-1.16-.45 1.75-1.91 2.15-1.72.6-1.23.23-2.1 1.55-2.66 1.23-1.84 2.05-.2 2.12-1.07.45-.92 3.67-.4-.27.68-.8 1.53-1.35 1.24-.48 1.33 2.36-1.56 1.57-1.95 1.33-1.2 1.63-.05-.72 2.34 1.26-1.3 2.37-1.12 1.63 1.5.7 1-.08 2.7-1.4.58-1.2-.86-.58 2.07-2.72.7 1.04 1.35-1.76.52-4.05.04 1.16.71 4.14.1-.01.83Zm-4.6 5.17 3.03-.74 1.31 1.2-1.32.95-.22 1.59-1.25.17-1.5-.93-2.3 1.33-3.45-.26-.79-1.65.79-.94 1.79-.6 4.18-2.06 1.2.15Zm6.56-4.89-.59 1.13-1.22.51-1.97-1.12 3.47-.9Zm8.32 7.95-2.09.37-2.04-.16-2.78-.6.23-1.35 1.06-.78 2.26.29.38-1.27 3 .4-.56.76.76 1.25-.71.98Zm14.94 3.3 1.1.5.1.54 1.02-.11-.17 1.14-2.41.5-1.13.84-1 .87-2.86.45-1.48.74-1.1-.8-2.9-1.15v-1.17l.93-1.32 1.9-.58 1.49.12.93.54.35-1.07 1.6-.5 1.98-.12Zm4.58 2.67.61.71.01.53.5.88 1.48.65-.29.52-1.25.49 2.28.24.66.5.45.68.2 1.19-.44.26.84 1.02-.13.89-.08.89-.05 1.11-.25.99-.85 1.07-1.1.33-2.18-.5-1.18-.87-1.06-.18.32 1.02-2.86-.48-1.38-.55-3.63-.16-.89-1.05-.9-.22-.6-1.75-.49.93-.78-.3-2.05.88-1.5-.38-1.23-.85-1.66-.08-1.26-.83-.95.24.17 1.24-1.03.18-2.5-1.66 1.29-2.17-.35-2.2.71-1.17.54-1.44 2-.12.64 1.32 3.08-.42.2.4-2.12 1.93 2.84-1.07 1-1.1 1.52.5.81 1.08 1.45.12 1.78-.89 2.21-.26-.42 1.51-.5.47 1.47.76.6-1.24.03-1.86 1.64-.9 1.8-.35 1.38-.49Zm-60.69 21.17-1.24-.45-.28-1.37 1.94-.89 2.26-.12.62.95-1.03 1.3-1.7.55Zm11.96-26.4-1.75.7-1.07-.66 1.81-1.53v-.9l2.43-1.47.7.98 1.31.77-1.6 1.12-.96.65Zm-71.71 77.45.5.5.18 3.31-.5 3.15-.55.53-.45-.95-.02-3.47Zm-8.51 8.11-1.21 2 .18 1.92.86 1.94h-1.65l-.5-.63.26-3.88.83-1.39Zm46.03-122.25L277.6 57l-5.36 4.93-1.7 1.67-5.03 5.34-4.5 5.35-4.2 5.62-3.82 5.77-3.83 6.72-3.32 6.92-1.74 4.26 1.2-.43-.24.69-1.87 1-.76.85-.71 1.53-1.22 2.36-1.6 2.46-.1 1.56-1.51 3-.14.7.45 1.51-1.57 2.58-1.63 2.74-1.34 2.31-1.26 2.26-.85.65-.38.7-.29.03-.17.66.27.26-.75.52-.55.73-.07.62-.41.55-.52.03-1.68 3.23-2.8 2.17-2.64 2.12-1.7.43-1.5-.08-.97.14-.29.15-.44.55-.53 1.13-.05.62 1.35 1.78.35 2.18 1.4 2.14.3-.16.91-.84.58-.78.47.75.05 2.32.08 2.19 1.2-.07.26.12 2.35.95.65.65.41 3.5.64 4.24.79-.33.28.62.65.61 1.55-.24 2.54-1.11 2.72-.06-.65 1.34.88 1.08-.66 1.65-4.18 3.27-1.3 2.84-.88 1.2-2.09-1.25-1.6-1.54-1.4-1.76-2 .16-.72.13-1.54 1.24-1.37 2.07.13 1.06 1-1.13-.5 1.25-.85.5-.78-1.24-.17-1.21-.8-1.39-.3-.95-.36-1.31-1.08-1.38 1.03 3.18-.42 1.18-1.34-2.76-.2-1.57.35-.21-.86-.11-.05.84-2.05 1.13-2.28-.06.68-.78.09-.67.61-1.4-1.42 1.75-.43 1.05-1.01.92-1.1.09-2.22.4.09-.33 1.85-.78.92-2.2 2.23-2.2-1.2.5-1.67 1.99.33-2.06-.77 2.52-2.49 2.32-.13.9-.87 1.1-2.51 2.74-1.96.08-.86-2.1-1.47-.4-.18-1.2-.88-.53-.8.4-1.46-1.51-1.03-.47-1.29.07-1.55 1.22-1.55 2.14-1.87 2.98-1.53 2.99-.88 1.06-2.36 4.23-1.3 1.58-.73.84-1.11.8-.2-.58.29-1.77.84-1.55.5-1.68 1.75-3.67 1.61-3.2.82-1.36 1.3-.99 1.22-2.09 2-4.16.45-1.45-.6-1.84.19-.61 1.2-2.42.83-2.31.32-2.9.76-2.73.34-1.98-.05-.81-.7 1.07-.83.82-.56 1.02-.14-.25.56-1.37-.12-.64.61-2.1 1.7-3.2.48-2.16 1.14-2.5.44-1.57.36-1.84-.53-1.03.26-1.87-.28-.55-.58.28-1.27 1.37-.94 1.12-.84 1.23.42-1.02 1.29-2.44 1.58-2.8 1.22-1.7 1.6-1.99 1.87-2.7 1.6-2.05 2.04-2.6 1.8-2.6 1.16-2.1-.57-.23 1.87-2.7 1.41-1.87 1.47-1.59 1.57-1.73 1.85-2.23 1.49-1.79 1.33-1.48 3.03-4.25-.81.64 1.46-1.94 3.77-4.75 5.93-6.35 4.1-4.09.16-.05 2.54-2.68 2.39-2.4 1.31-1 2.53-2.09 1.29-1.13.77-.56 1.39-1.23 1.33-1.05 2.35-2 .9-.7 1.3-.81 4.16-2.92 4.6-2.84.35-.13 1.68-1.1 3.44-2.05 1.9-.82 2.33-1.3 1.12-.12 1.82-.53 2.29-.93 1.08.24 1.65-.16 1.7-.1 3.34-.65 2.57-.66 1.64-.5.2.15-3.72 2.29-3.25 1.05.1.34 2.23-.44Zm111.73-25.72-1.7-.07-.3-.54 1.3-.27 1.45.22 1.34.36Zm-30.26.3-1.54.24-1.25-.15 1.44-.97 1.9-.9 1.4.06.78.47-1.7.82Zm-4.7 23.91-6.95-6.04-10.27-7.52-1.9.73-2.34.48-2.13.13-2.94.13-.73 1.4-1.18 1.21h-2.04l-2.09.29-2.64.52-2.7.09-4.4.3-4.62 1.54-1.46-.3v-.88l1.9-.45 2.4-.83 2.42.22 4.19-.81 3 .17 1.94-.88 3.08-1.48 2.82-.8 5.9-.73 2.18-.55 3.98-.92 2.55-1.09 4.56-.74 2.93-.19 1.9-.92-1.35-.77 1.04-.4 2.1-.9 1.43-.9 2.09-.84.94.69.17 1.52-1.76.94.84.2 1.9-1.37.68-1.22 2.3-1.57-2.03-.3 1.36-1.3 2.02-.97 2-.77.23-.61 3.25-1.16.43-.63 2.53-.84 1.7-.11 2.12-.55 2.33-.6 1.93-.53 4.2-.58.43.15-2.59.66-2.29.5-2.35.84-2.93.43-.95.6-2.88 1.12-.38.3-1.45.68.16 1-.68.93 2.3-.78.84.12.96-.63 1.75.48.4-.55 1.1.56 2-.77 1.37-.13.45.79-.22.54 1.54.37 2.73-.48 1.96.55 1.52.28.14.84 1.69.59-.68.93-1.5.96-.55.88-1.55.22-1.4-.16-1.35.93-1.42-.02-1.29.67.6.73 1.13.2-1.15.81 1.1-.13 1.85-.56.47-.43 1.55.27 2.58-.36 2.77.3.83.7 2.33 1-2.43.83-3.75 1.08-1.4.1.05-.96-3.65.38 1.68 1.02 2.22.57 1.35.9 1.68.75 2.26.55-.79 1.1-2.75.2-1.76 1.06-.15 1.04-1.28 1.13-1.34.39-2.4 1.26-1.33.04-1.67 1.46-2.24-.08-1.45-.75-.4.52-2.37.38-.19-.5-2.31.16-1.26.56-3.31.19-2.76.63-1.25.1-1.5.92-2.55.21Zm45.56-18.8-1.15-.37-1.2.15-1.54-.47-1.92-.23.16-.18 1.48-.35 1.48.38.72.32 1.71-.05.45.17Zm151.7 134.63 1.57 3.23-.31 1.98 3.06 2.63.94 2.35-2.69 3.38 4.65 6.34.14 1.73-.92 5.42 5.86 2.91-.04 2.28 1.65 1.45-1.1.97-1.57.1-2.1 2.98-2.22 3.55-.2 1.11-3.09 1.8-.27 1.84 1.3 2.16-3.37 2.41-.67 1.83.76 1.86-.47 1.8-.5 5.01.95 3.25-.64.8-1.61-.98-2.37 2.5-2.32-2.31-.9.95-2.26-3.5-3.95-.13-3.04 3.51-1.95 2.69-3.97-1.4-2.5.14-4.78.16-.58.01-4.11 6.41 7.77 13.35-1.09 1.06-3.19-1.67-2.13.1-2.27 2.62-.42 1.96-.6-.82-.22-1.95-1.12-1-3.43.55-2.8-2.7-1.81-.12-.7-1.18 2.48-1.1-1.34-2.8 1.63-1.89 2.29-.78-1.62-3.9-1.7-2-2.11 1.66-2.4.32-1.76 3.31-1.76 2.11-1.51.09-.74-2.1-2.77-1.7-1.69 1.09-3.25-1.54-.1-3.65-1.06-.41-.34-5.21 3.42.9-1.2-2.92 2.08-6.75 3.12-2.15 5.96-.52 3.27-.25 1.04-3.06 2.91-2.45 3.63-.17-.22-1.47 2.6-2.08-.8-2-4.58.18.4-3.13-1.04-.64.92-2.33-3.02-1.22-.16-1.83 4.83-6.81v-1.55l2.43-5.07-.05-2.69 2.94-2.23 3.55 2.55.55-2.46 2.59-1.18 1.58 1.72.96-1.83-.25-7 .62 1.5 3.78-.16 10.25 2.7-1.13-2.43 3.09-1.16.42-3.47 1.02-.64 2.23.5 1.16-.92 1.68.18.5-2.97Zm-25.85 86.57-7.77-13.35 4.11-6.4.58-.02 4.78-.16 2.5-.13 3.97 1.39 1.95-2.69 3.04-3.5 3.95.11 2.26 3.5.9-.94 2.31 2.31 2.38-2.5 1.6.99.65-.81-.95-3.25.5-5.02.47-1.79.72-.31.24 3.84 2.14-.36.53-2.32 3.15-.91-.24 5.07-1.48 1.35-.62.97-.91-.59-.78-1.94-1.7 3.6.98 2.77.44 2.82-1.62 1.62.53 2.02 1.9-.78 2.07 2 1.2 4.57-1.9.94-1.08 1.18-1.29-2.12-3.53 1.36-3.16.5-2.34-.3-3.84-.12-3.27-2.62h-1.1l-2.16 2.2h-1.25l-1.96-2.62-4 .56-.6 3.57-1.16 2.75 1.4 1.53Zm116.24 11.13v-.1l-.08.53-.08-1.45-.15-.98-.3 1.18-.33-.7-.39.88-.77.28-.24-1.15.28-1.97.59-4.5.56-.14.33-.63.18-.63.28-.1v-3.29l.02-.83v.06l.15 8.64ZM477.3 450.17l.63 2.14-.47 1.4.72 1.22 2.27.74 1.93 2.4-1.56.19-5.47 1.78-1.12.55-1.29 1.74.82.78-1 2.78-.74 2.27 1.04.11 2.7.13 1.15-.66v2.13l-3.04.75-1.49-.72-1.37-.53-3.07.42-.77-.9-2.57 1.2-3.23.37-1.27-.69-2.59.3-1.95.4-.16-.62-1.42.2-1.88.19-2.6.74-1.8.23-1.04.35.4-2.63-1.34-.62-.24-1.33.7-1.48-.8-.77-.02-1.47-5.12.7.4-.9-2.16.27-.25.45-2.62.4-1.1 1.49-.66.65-2.34-.09-1.4.46-2.82.44-1.6-1.09-.96-.69-1.2-1.34-1.01-1.74-12.66.6-1.51.34-1.24-.01-1.78.36-.6-.75 1.1-.28.14-1.09.7-.65 1.57-.57 1.13.23 1.48-1.02 2.35-.06.26.7 1.6.38 2.55-1.71 2.5-1.4 1.11-.9-.14-2.15 1.89-2.73 1.97-1.55 2.83-1.55.5-.93.1-1.03.7-1.04-.22-1.6.52-2.6.83-1.9 1.27-1.7.23-1.83.36-2.14 1.63-1.72 2.27-1.24 3.53.63 2.73.78 3.1-.12 3.16.13 1.22-2.03.58-.33h1.93l4.63-2.34 1.67.35 1.35-.35.6-.86 1.55-.57 3.14-.31 2.65-.5 1.35-.62 2.6 1.96 1.84-.07 1.1-.77 1.89-.26 2.26-1.22 1.01 1.04 3.64 1.05-.15 3.53 1.63-.05-1.28 1.4-1.56 1.2-1.54 1.9-.85 1.55-.22 2.32-.96 1.31-.05 2.09-1.19 1.06-.17 1.64-.57.35-.42 1.55 1 .94Zm48.28-23.98-2.18-1.29-.17-10.38 3.11-4.81.97-1.4 2.35-1.15 3.11-3.68 4.68-2.47 9.05-14.6 2.06-4.01 1.27-2.85-.24-1.67-.48-3.26-.2-1.36.01-.06 1.06-.7 1.45-1.4 1.69-1.4 1.36-2.09 1.22-.79.23.86.03 2.08.28 1.69-.5 1.6-.42 4.04-1.14 4.51-1.62 5.24-2.5 6.22-2.68 5.05-3.89 6.32-3.45 4.25-5.3 5.58-3.38 3.8-4.04 5.27-.88 1.84Zm-9.3 11.74-5.36-.42-.2-1.43-14.06-.5-.67-.1-.03-2.93 1.14-1.51 1.94-2.53 1.4-2.6-1.83-2.78-.5-1.34-1.97-1.48 2.35-2.6 2.56-2.92 2.07-.2.1 1.73 1.38.52 2.7-.97 5 .7 1.2-.43.9-.44h.86l2.55-.79 1.06-1.7 3.37-2.72 1.56.35 2.54-1.13-3.1 4.81.16 10.38 2.18 1.3-2.65 2.23-.95 1.52-1.41.8-.62 2.1-1.26 1.57-.84 2.03Zm-59.14-20.46-3.24-.86-1.49-.7-.31-.97.61-1.49-.08-1.35-2.5-1.69-.53-1.37v-.82l-1.57-.77-.15-1.97-.93-1.2-1.45.42.35-1.33.99-1.6-.56-1.38 1.3-1.27-.9-.7.94-2.34 1.7-2.91 3.52-.34-1.35-14.43-.09-1.57 4.55-.83-.74-7.52 15.48-3.36 14.6-4 14.53-4.88 1.86 3.2-.68.95 1.2 3.57 2.1 3.83 1.55.35 2.22.55-1.52 2.75-2.61 1.61-1 1.53-.01 2.48-.9 5.73.6 1.24-.23 3.18-1.13 3.9-2.14 2.48-1.38 3.12-.26 1.5-1.76 1.54-.84 3.82.3 2.9-.25-2.52-.56.11-.07-1.65-.57-.99-2.14-.67-.7-2.26.23-2.64-1.84.32-.2.84-2.35.88 1.05.7.51 1.92-2 2.47-1.8 2.94-2.04.92-3.51-1.03-1.47 1.07-.35 1.07-2.04 1.15-.09.7-4.06.97-.6-.55-2.95.55-1.44.88-1.15-.05-2.23-1.49-.76-.77-2.94 1.03-1.05 1.75-.92 3.14-1.4.87-1.25.58Zm-5.65-39.07 1.35 14.43-3.53.34-1.69 2.91-.94 2.35.9.69-1.3 1.27.56 1.38-1 1.6-.34 1.33 1.45-.41.93 1.19.15 1.97 1.57.77v.82l-2.6.98-2.06 1.67-2.88 4.05-3.9 2.02-4.1.27-1.17.42.46 1.11-2.18 1.37-1.78 1.43-5.33 1.68-1.07-.66h-.71l-.79.88-3.51.45.65-.9-1.37-2.16-.62-1.33-1.86-.46-2.54-1.82.9-1.6 1.95.25 1.19-.3 2.37-.1-2.36-2.92.12-2.26-.31-2.26-1.72-2.13.4-1.66-2.7.04-.03-2.25-1.75-1.25 1.73-4.75 5.2-3.65.1-4.77 1.36-7.64.82-1.67-1.73-1.2-.1-1.2-1.53-.9-1.15-5.91 3.93-2.34 16.18 5.92ZM168.85 227.45l-.73 1.78-.58.85-.35-.3-.28 1.63-.37.71-.1-2.53-.31-1.27-.15-2.1-.43-.93.24-2.53.47-.61.14 3.24.2 2.56.47.5.4-2.62.54-1.03-.04-2.37.5-.07.2 2Zm-2.31 4.67.37-.7.28-1.63.35.29.58-.85.73-1.78.31-.1.42 2.4-.02 2.54.2.74-.38 1.54.39 1.62-.44.75.26 1.46-.14 2.55-.82.02-.05-2.08-.37-1.28-.15-1.15-.36-.05-.31-1 .23-1.16-.38-.62-1.13.7.07-1.25ZM438.3 104.31l-.8-1.26 2.23-.66 4.18-.7 3.81.66.45 1.47-1.4 1.52-1.77.67-3.1-.25-1 .56Zm7.7-3.97 2.3-1.37 1.74.32 1.73 4-5.54-1.96-.48-.56Zm.89-24.63-1.59-1.68-.92-2.92 2.85-.61 2.66 2.41 1.95.83-.83 2.11-2.67.46Zm-4.3-6.74-1.35-1.83 2.07-.01 1.1 1.07.34 1.71-1.14.36Zm12.62 2.65-2-.2-1.26-.76.03-1.48.7-.43 1.28 1.06 1.29 1.62Zm-32.72 54.72.69-1.16.8-.52.82.76-.3-.91.06-.8 1.39.15.2.58-.38.85-.3.53.34.55-.26.9-1.25-.37-.44-1.15Zm6.67 109.87-4.55.72-3.12-.1.33-1.95 3.18-1.8 2.65.37 1.2.5-.08 1.21Zm17.57-92.33-.48-4.15-1.54-1.2.13-2.87.28-3.76 1.49-2.52-.28-2 .62-1.5 1.77.48.73 1.18-.4 3.55-.45 3.25.67 4.7 1.72 3.86 1.4 4 2.58 2.43 4.26 1.08-.32.74-3.71 2.06-1.5-1.23-2.6.4-1.6-1.67.46-1.37-1.53-1.72-.54-3.93Zm62.42-88.31 1.88-.58 2.54.01 1.76-.59 2.36-1.38 2.05 2.27 4.66 1.32.51-1.32 1.68.27.11 1.07 3.1 1.4h-1.62l-2.55-.5-2.42-.1-2.29-.53-3.43-.25-1.48.84-3.72-.15-2.76-1.33-.55.62-1.11-.62Zm50.06 26.8-.23.13-1.28-.48-.87-1.1-3.26-1.35-1.84-.2-2.25-2-1.47-2.26-3.62-1.98-3.45-1.35-1.59-.93-3.25-1.43 3.4 3.18 2.39 1.84 2.25 2.89-2.06.15-.4 1.77 1.3 3.07-2.46.04-1.44.25-.87.42-2.43.5-.2 1.36.57 2.5 1.36 2.43 1.7 2.42 2.34 1.94.3-.83 1.76.44 1.52 1.35 4.16 2.77 1.38.42 3.17 3.51-.26 2.02 1.13 2.54-.72.67.04 1.1 3.16 3.91 1.25 2.98 1.25 2.28.03 2.44.39 1.98-1.46.5-1.28 1.32-.19 1.9.7 2.85.75 2.29-1.27 2.25-2.5-.9-.85 1.97-.42 1.65-1.49 1.52 3.37 4.05 2.02.28 2.15 3.4-1.14 2.55-.4 2.02-1.76.42-.41 2.13-1.37 1.13.85 4.17 1.75 5.93-.1 2.6v1.02l-2.3-.39-.5 2.97-1.68-.18-1.16.92-2.23-.5-1.02.64-.42 3.47-3.1 1.16 1.14 2.43-10.25-2.7-3.78.16-.62-1.5.25 7-.96 1.83-1.58-1.72-2.59 1.18-.55 2.46-3.55-2.55-2.94 2.23.05 2.69-2.42 5.07-.01 1.55-4.83 6.81.16 1.83 3.02 1.22-.92 2.33 1.03.64-.4 3.13 4.6-.18.79 2-2.6 2.08.22 1.47-3.63.17-2.9 2.44-1.05 3.07-3.26.25-5.97.52-3.12 2.15-2.08 6.75 1.2 2.93-3.43-.91.34 5.2 1.06.42.1 3.65 3.26 1.54 1.69-1.1 2.77 1.7.74 2.11 1.51-.09.05 2.9-2.02 1.97-.59 5.34 3.96 2.41.94 2.73 4.84 2.94-.84 2.43-.01 1.23-1.26.39-2.83-1.36-.79.27-2.04-.02-1.48-1.17-2.8.43-1.37 1.43-.76-.51-4.39-.16-4.23 1.14-2.56.3-.16.62-4.7-1.97-3.65-.32-3.16-1.5 1.77-1.4 1.07-4.25-2.05-1.03 3.28-3.17-.4-.85-2.1 1.57-.55-1.83.92-1.65 2.36-1.3-.12-1.5-1.41-1.99.18-2.53-.5-1.16-4.13.18-1.42.6-2.23-1.32-1.67 1.35-3.66-.32-.22-.82-1.48-1.47-2.04.45-.62-1.2.35-1.04-2.32-1.82-2.41 1.18-.81.02-.34 1.12-.98.1-1.37-2.48-.98-1.21.36-.52 2-.43.65-1.18-1.02-.89-1.83-.26-.09-.79-1.19-.48-2.26-2.3.18-1.25-.79-1.88-2.53-.4-1.08.81-.6-.95-2.7-.46-1.35-2.29-.7-1.98-1.31-.71.63-1.53-1.63-3.73.9-2.74-.5-.64 1.74-2.85-2.67-1.44 2.74-6.27 1.03-2.81.03-2.25-3.6-2.02-.1-2.82-2.53-2.57.07-3.72-3.35-4.04.51-3.35-3.18-2.04-.62-2.82 1.06-.64 1.92-2.21.95-1.76 3.2 1.63 4.24-.4 7.4 2.13 2.03 1.3 1.42 2.42-.64 2.68-2.02 2.03-8.27-.43-.97.86 3.74 2.01.84 1.77 1.73 3.96 2.69.43 1.77.53-.6-1.96-1.75-1.3.4-1.85 5.07.84.9-1.5-2.46-2.32 1.63-5.21 1.48-.42 2.11.61-.65-2.92-2.46-1.58-.62-2.5-2.34-1.75 4.41-.73 2.06 1.57-1.42 1.35 1.26 1.99 1.88.65 1.62-1.95-1.2-2.42 1.5-3.25 1.94-5.63 1-.45.52 2.8 1.74-.7-.13-1.71 2.01-1.7.37-2.58 3 .82-.85-3.02-2.83-.8-.5-1.44 3.74-1.73 2.28-.4 7-.43-1.2-2.08-2.65-.39-.74-.53-1.35.9-1.31-1.6-3.07-1.6-1.1-.82-1.7-3.97-2.7-2.84-.2-1.1 2.62-1.58 2.13 1.12 2.3 2.77 1.57.2 2.72 1.37 4.72 3.57 3 .34 2.04 2.11 3.36 5.82 1.48-.93-.93-1.38-.02-1.91-1.55-1.53-1.06-2.13-2.47-.72-2.05-2.07-1.06.95-2.16-1.09-3.1-3.16-3.8-.68-1.35-3.18-2.77-1.38.2-.49 2.36.76 3.34 2.5 1.3-.6-2.93-1.16-.56-2.4.84-2.02 3.06-.63-3.62-.77-4.18-1.95-.07-1.88 1.05-2.02.17-2.11-2.35-.12-2.32-1.97.18-.98-1.6-2.25-.08-2.27-1.09-.57-.08-2.16 1.01-.43-2.09-2.21.11-1.4-1.81-.5-1.8-.95-1.81-1.88 1.24-1.1 1.14 1.08.46-1.6 2.03-.05-1.11-.76-.38-2.18 1.57-1.68 1.35-.62 2.18.19 1.47.92 2.81 2.32 1.35.74.35-1.06.71-1.27-.98-.83 2.46-.38-1.16-.43-1.1-1.44-.42-2.86 1.75-.29-1.23-3.8-2.95.25-.35-1.89-.85-1.34 1.05-1.68 2.06-.8 1.89.29 2.04-1.6.36-1.72-4.38-.15.4-1.75-2.2-1.26-.51-1.92-1.53-.34-.92-1.48-2.39 1.56-2.46-.52-6.19-7.26.75-1.45-.83-2.9-5.06-2.25-1.99-1.44-.12-1.18 1.69-1.16-1-1.2-2.18-.4-2.4-.9-2.2-1.3-2.8-.7-1.11-2.4-2.26.06.24 1.54-1.26.67-4.1-1.72-3.03-.54-3.74-1.75-1.74-1.2-3.28-2.03-3.76-2.35.4-1.17-1.05-.55.12 1.4-4.53-.55-3.25-1.85 1.8-.76 2.95-.08.3-1.74.79-.32 1.74.15 1.29.71 2.3.72.2.8 1.72.49h2.09l.72.76-.62.62 2.24-.14-.45-.96 1.32-.6h.02l2.67-.38 2.27.53-1.16-1.18-.43-1.53-.67-.57.1-.68.7-.34 3.46.97h6.2l1.87.23 3.85-.22 3.67-.02 1.33-.37 1.9 1.72 6.31.74.3.75 2.58.2 2.36 1.15 1.76-.46h4.07l.65-.42L462 34.6l2.75-1.2 2.03.79 2.36-.27-.16-.7 4.7 1.3 2.8-.36 3.73 1.42 2.54-.16 4.97 1.26-.49.68-1.93 1.1-3.36 1.8-3.83.4-2.86-.42-1.05.32-3.43-1.3-5.85-.45-5.17-.35L455 38l-3.9 1.2 2.3.73 2.56-.59 6.66.75-.97 2.02 5.15 1.83 7.99.77-.11-1.34 4.54 2.07 2.93 1.58-1.84.45 2.21 1.79 3.25 1.04 4.4 3.68 5.76 3.92 10.22 3.78 12.28 5.65-1.9-2.44 1.06-.72-.85-1.49-2.37-1-1.54-1.65.6-2.2 2.17-.03 3.94 1.3 3.22.34 4.86 1.17 6.34 3.17 2.34.94 5.33 3.16 5.24 3.35 2.6 1.72 3.74 3.15 1.1 1.3-.19.86 4.01 3.45ZM415.08 48.4l-.21.06-1.13-.17-1.78-.86.2-.29 1.59-.33 1.86.12 1.57.13-.03.71Zm50.35 216.3.44-1.24 2.22.25.93-.13.6.7.46-.02.13.35 1.65.52 2.74-1.23-.08 1.64-2.81 1.78-3.13 3.64-1.81-.34.08-2.14-3.43-.26.3-.95 2.27-2.2Zm-286.36-77.88.16 1.17-.03 2.01-.5.75-.35-2.8Zm.53 2.85-.8 3.46-1.37 1.31.21-.87 1-1.29.73-2.32Zm-3.5 3.48-.06 1-1.48 3.18-1.02 1.51-.1-.6.99-2.25.5-1.86Zm227.05-58.3.18-1.3 1.07-.2 1.13 1.21 3.08 2.46-1.82 1.72-.08 2.82-.7.78-.06 3.2-1.17.23-2.25-2.23.76-1.39-1.41-1.04-1.76-3.16-.61-2.94 2.06-1.36.48 1.3Zm26.45 35.6-1.92 2.22-1.06.64-.26-2.89-2.29-1.12-1.83 1.8.04 3.05-1 2.04-1.86-.68-1.94.52-2.09-1.88-.72 1.18-.92.28.18 2.69-3.04-.34-.16 2.3-1.54.11-.81 3-1.36 4.66-2.46 5.95.73 1.4-.58 1.68-1.87-.02-1.17 3.94.2 5.59 1.35 2.12-.59 4.99-1.77 2.93-.97 2.46-1.47-2.62-4.53 4.83-3.09.86-2.97-2.37-.4-4.62.24-9.78 2.08-2.57 5.38-3.26 3.85-4.23 3.28-5.82 3.75-8.08 2.44-3.23 3.59-5.45 2.91-2.15 2.4-.14 1.39-3.64 2.52-.3 2.2-1.32 5.16 1.75-1.4 1.51Zm-17.58-38.26-.48 2.18-2.12.83-2.41-.29-.32-1-1.09.05-1.04-1.62 2.03-1.26 1.2.74.45-1.2 2 .6Zm.27 8.48-1.64 1.86-1.8-.64.43-1.05-.76-1.13 1.61-1 .68 1.34Zm-39.18-27.88 3.13-.17.93 1.2 1.62-.52 1.45.72 2.5 2.3.69 3.8-1.76.76-1.9-.84-2.67-1.27-.3.65 1.9.73.56 1.87 1.71-.42-.43 1.32-1.96 1.52 2.25-.49 3.44-.13 1.32 1.24-.4 1.56-3.8 1.5-.82.62-2.4-.3 1.38.8-2.3 2.08-1.96 1.9-2.38 3.72-.4 2.65-1.4-.45-2.08.41.42 2.54-1.6 3.01-1.21-.14-.6 3.54-2.36-.79.26 1.97-1.1 1.06-1.81-.18-1.45-.72-.25 2.99-.99 1.55-1.17-2.53-1.19.61.87 1.64.07 2.86-1.35 3.05-2.57-.4v-1.82l-.01-2.74-1.27 2.53-2.62 1.04 3.01 1.87 1.55 1.05-5.31 1.31-5.3.76-4.46-1.14-1.32-.9-2.28.4-4.61 2.18-4.58.19-.94-.56-2.28-.58-2.34-.78-2.87.96-2.16 2.12-2.6 1.43-4.38.48-1.93 2.86-3.08 1.95-3.61 2.31-1.92-1.7.82-4.41-2.19-2.74.78-2.86 2.57-3.58 2.62-5.58 1.82-2.33 3.02-2.44 2.19-3.97 2.9-1.35.78-1.61 4.92-1.66 2.4.72 1.78-.6 2.94-1.68-2.06-.31-.91-.2-1.11-.6.41-2.04 2.47-1.58 2.2-.78.62.87.33 2.6 1.22-3.12.74-1.62-1.09-.63.48-1.33 4.1-.94 1.09-1.32 2.25-2.1 3.54-3.08 1-1.74 1.64-.75 1.4-3.05-.34-1.72-.84-1.97-.82-1.79 1.11-1.28 2.37-2 1.7 1.54.58 1.36.39-3.3 1.47-1.94 1.64-.25 2.45 1.94 2.59 1.66 1.56-.23 1.07-1.94 1.78.03 3.46.92.7.55 1.76-.79 1.5.69 1.27 1.06.74 1.24-.92 1 2.8.03-.7 1.66.16.71-.46 1.52 1.14-2.08Zm46.85 388.13 1.9-.59 1.43.14.55.33 1.67-.08 2.32-.05 2.03-.27 3.5-.84 1.1-3.9 1 .05 2 .8-.56.72.74.26 2.75-.48 2.06-.76 1.92-.6 1.12-.69 1.94-.57 1.56-.13 1.7.01 3.06-.5 2.52-.74.53-.45.88-.7 2.1-.53 1.32-.71 1.6-1.13 3.76-1.77 5.76-2.33 1.53-.38 1.74-.24 1.34-.51 1.95-.4.96 1.44.51.66-1.36 1.58.06.35-1.71.3-1.1.38-.53.44-1.24.7-.2.38h1.8l2.18-.71 1.04-.7 2.72-.8-1.42 1.07-1.03 1-1.25.72-2.8 1.19-.79.33-1.87.88-1.35.71-2.51 1.12-4.68 1.78-2.87 1-2.94.9-3.87 1.01-1.8.4-.61.24-2.03.33-1.84.43-3.68.56-2.18.42-1.43.2-3.8.74-3.08.48-2.3.44-1.62.2h-1.35l-1.19.12-1.38-.06-.21.08-.4-.09.2-.32-.97-.28 1.21-.22.13-.5-2.16-.44-1.65-.5h-.01Zm46.6-6.93-1.37.08-1.82.6-2.2.81-2.3.99 2.22.04 1.34-.37.86-.42 2.08-.61.82-.44 1.42-.7Zm0 0 1.05-.03-1.42.72-.81.43-2.1.6-.85.43-1.34.37-2.22-.04 2.3-.99 2.2-.81 1.82-.6ZM193.1 123.69l-.04.07.48-.72 1.24-1.84.74-1.06 1.35-1.94 3.12-4.31 3.1-4.16 1.93-2.43 2.32-2.95.76-.91.71-.72 1.4-1.7 1.99-2.33 1.68-1.8 1.22-1.45 2.1-2.28 1.82-1.91.64-.6 2.45-2.44 2.13-1.97.67-.52 2.25-2.24.63-.7 1.73-1.69-.4.2-1.23 1.06-1.55 1.3-1.46 1.4-2.8 2.79-.76.76-.45.47-.87.86-.35.4-1.52 1.52-1.07 1.16-1.04 1.1-2.15 2.4-2.18 2.45-1.31 1.53-1.3 1.54-.92 1.1-1.05 1.3-1.5 1.89-.79 1 5.43-6.72 2.35-2.76.5-.57 1.17-1.32 1.51-1.7 2.2-2.42.1-.1.97-1.05 1.75-1.87 2.26-2.32-.04.05L222 87.6l-.2.28.67-.62 2.91-2.9 1.78-1.76 1.9-1.74 1.98-1.77 2.47-2.12 2.54-2.06-2.39 2.39-2.54 2.68-.17.05-4.09 4.09-5.93 6.35-3.77 4.75-1.46 1.94.81-.64-3.03 4.25-1.33 1.48-1.49 1.8-1.85 2.22-1.57 1.73-1.47 1.6-1.4 1.86-1.88 2.7.57.22-1.17 2.11-1.8 2.6-2.03 2.6-1.6 2.04-1.87 2.71-1.6 1.98-1.22 1.72-1.58 2.8-1.3 2.43-.41 1.02-1.07.75-1.01 1.03-2.1 2.67-.64.79-1.07 1.7-1.13 1.97-1.4 2.33-1.89 3.64-1.07 2.01-1.14 2.32-1.58 3.8-1 2.22-.57 1.97-.64 2.06-.47 1.84-.34 1.49.02.93.62-.68 1.17-1.78.3-.19-.12 1.41-.39 2.63-.62 2.75-.23 1.64-.46 1.23-.72 1.1-.59-.18-.74.78-.36 1-.52.61-.9 1.19.5-1.43.12-.6.1-.55-.55.4.29-.85.02-.25-.2.39.73-2.87.77-2.85-.72 1.38.4-1.38-.75 1.97-.6 1.71-.35.89-.2.65-.4.78 1.13-3.96-.47.57-.34.9-.15.24-.28.65 2.3-6.17.91-2.39 1.2-3.12.56-1.52.53-1.5.52-1.29 1.2-2.76 1.21-2.7 1.83-3.86.71-1.47 3.94-7.69 4.21-7.54 4.47-7.4Zm-15 245.42-.33-.7-1.05-2.14-3.48-7.62.37.83-.47-1.08-.56-1.32-.64-1.56-1.04-2.5-.79-1.88-.78-2-1-2.57-.8-2.16-.83-2.31-2.61-7.79-.3-.97-.42-1.38-.45-1.65-1.13-3.67-.09-.32-2.19-8.36-1.89-8.42-1.6-8.5-1.08-6.92.3 1.69.4 2.11.03.02.6 3.05-.29-6.16-.03-1.14-.14-2.1-.32-2.46.02-2.03.4 1.35.13.95.05-.97-.4-2.18.05-1.82 1.47 6.36.32.1.2 1.78.11 2.3.18.25.47 3.26.76 2.3.21-.24.8 1.7.46.85.18-.83.85 1.45-.03-.77-.93-2.92-.03-2.24.22-1.77-.4-2.17.22.33.77 2.72.84 3.22.41.23.93 1.82 1.55 2.4.62.05-.08-1.23.73 1.5.24 1.37-.33.87.43 1.5.19 2.04-.5.16-.4 1.94.26 2.24.04 1.54.84 3.23.73 1.66.18-.22.48.85.73.89.54.23.88 1.93.4.63.9 1.88.17-.3-.25-1.08.22-.52.67 1.47.83 1.12.98 2.32.75 1.9.6.14.4.78.22 1.2.9 1.22.8.05.73-1.23 1.38-.92.7.85.35 2.33.81 6.65 1.1 2.01-.02 2.04-1.58.17.63 1.74 3.76 5.5.12 2.9 1.64.3 2.87 4.51 3.98 6.26 1.25 2.93-.31 1.07 2.82 2.29 5.07 6.56 3.98 3.75 4.23 5.95 3.9 6.11 2.3 2.62 2.5 2.15 1.17 1.68 1.43 4.04.72 1.9-.44 3.14-1.17.37-3.25-.06-1.06 1.08-1.42.18-.67-.57-.2.97 1.78 4.25.7 2.57.38 1.09-.42.03 1 2.23-1.05.07.86 1.53-1.41-1.16.23.54-2.57-2.65-3.05-3.18-.91-.94-1.98-2.27-.48-.57-5.37-6.77-5.13-6.95-4.89-7.12-4.63-7.3-4.38-7.44-4.11-7.6Zm-16.4-42.79.1.32 1.12 3.67.45 1.64.42 1.4.3.96Zm5 15.78.84 2.31.8 2.16.98 2.57.8 2 .78 1.89 1.04 2.5.64 1.55.56 1.32.47 1.08-.37-.83-3.32-7.97-3.04-8.09Zm10.02 24.17 1.05 2.14.33.7Zm-23.75-91.74.06.43.02-.8-.06-2.59.07.6.22 3.5.14 2.38.2 2.24.38 4.85.37 2.78.24 1.05.23 1.67.33 1.7.58 3.79-.17.74.2 1.03.48 3.1-.6-3.06-.02-.02-.4-2.12-.3-1.68-1.06-8.57-.75-8.6Zm5.05 20.7-.18-.26-.11-2.3-.2-1.79-.32-.1-1.47-6.35-.06 1.82.4 2.18-.04.97-.14-.95-.4-1.35v2.03l.3 2.45.15 2.11.03 1.14.28 6.16-.48-3.09-.2-1.03.17-.74-.58-3.79-.33-1.7-.23-1.67-.24-1.05-.37-2.78-.39-4.85-.2-2.24-.13-2.37-.22-3.5-.07-.6-.11-2.08-.1-2.54-.06-.49-.12-3.16v-2.02l-.02-.56v-4.9l.04-1.3.01 1 .08-1.54.07-.25.04 1.44.18-.39.19-.22.03-1.87.2-1.02.34-3.29.13-.04.38-2.89.25-2.8.28-.94-.01 1.25.2-.23.33-2.39h.11l.05 1.75.6.49.18 1.02.24-.89.69-1.77.53.54.22 1.97.2-.33.23 2.75.77 1.1.38.61.69.18.13 1.3-.09 1.58-.4.33-.5-1.57-.55.6-.42-.42-.42.11-.6 1.63-.53.75.18 1.86-.24 1.7-.03 1.35-.22 1.39-.27.66-.1.7.08 1.05-.07 1.76.78 3.88.3 2.22.07 4.73.34.99.53 2.46.52 1.5.22 1.63-.38.97-.33.24-.32 1.79-.04 2.54.17 1.76-.03.74-.54-.2.26 1.77.17 1.85Zm-2.59-54.89-.1.01-.34 2.4-.2.22v-1.25l-.28.94.14-1.9.3-2.2.19.06.03-1 .2-1.54.19-2.38-.03-1.24-.22.3-.13-.6v-.63l-.12.26-.36 3.05-.05-.52-.07-.06.04-1.38.36-2.22-.08.06.1-1.25.28-1.76.13-1.52.14-1.16.11-1.38-.12.5.13-.79.1-.38.1-.29.14-.6.03.14.16-1.08.29-1.11-.05 1-.34 2.14-.14.52-.13 1.41.04.08-.22 1.57-.03 1.4.1.68.09 1.4.19.3-.06 1.93-.07.16-.02 1.9-.1 1.93-.18 1.88Zm1.01-19.3.05-1-.28 1.11-.17 1.08-.03-.15-.13.61-.1.3-.12.37.32-2.37.2-1.22.08-.1.16-.74.26-1.55.3-1.8.22-1.45.25-1.01.25-1.33-.25 1h-.08l.3-1.48.23-1.3.23-.99.22-.79.19-.43.25-1.28.04.22.03.14-.52 2.82v.37l-.2 1.26-.22 1.08-.17 1.13.09.19-.52 2.28-.43 2.35Zm1.4-7.31-.1-.19.18-1.13.23-1.08.2-1.26v-.37l.51-2.82-.03-.14.44-1.95.6-2.56.43-1.6.53-2.17.74-2.78.08-.06-.25.92.02.06-.14.87.14-.2-.07.44.5-1.36-.1.68-.13.68.16-.02-.36 1.46h.08l.03.27.13.38.21-.5-.05.34.2-.22-.01.25-.24.94-.13.76.05.35-.1.8.02.76.11.07-.13 1.13-.08-.02-.23.44-.43 1.3-.28.18-.38.72-.43 1.08-.26.86-.44 1.29-.04-.23-.35.85-.25.93-.15.04-.24.87Zm3.75-9.25.13-1.13-.1-.07-.02-.76.1-.8-.06-.35.13-.76.24-.94.01-.25-.2.22.05-.33-.21.5-.13-.39-.03-.27h-.08l.36-1.46-.16.02.12-.68.11-.68-.5 1.36.07-.45-.14.2.14-.86.41-1.37.28-1.18.36-.83.2-.72.2-.83.18-1.07.17-.46.38-1.37.36-1.19.31-1.14h.12l.27-.75.16-.27-.03.76.12.45-.12.42.06.24-.16.85-.16.5-.03.36-.38 1.68-.23 1.38-.04.72.07.07-.22 1.14-.2.92-.1.77.02.4-.35 1.8-.1.55-.33 1.45-.36 1.5-.3 1.55Zm2.68-18.04-.3 1.14-.37 1.2-.38 1.36-.17.46-.17 1.07-.21.83-.2.72-.36.83-.16.26.41-1.87.35-1.38.5-1.82.5-1.9.44-1.44.12-.28-.02.42-.03.3.17-.47Zm2.6-9.23.28-.65.15-.24.34-.9.47-.57-1.12 3.96.38-.78.2-.65.37-.89.6-1.71.74-1.97-.4 1.38.72-1.38-.77 2.84-.72 2.88-1 1.96-1.3 2.6-.23.93-.44 1.47.12-.1-.35 1.24-.12-.45.03-.76-.16.27-.27.75h-.12l.12-.57-.17.47.03-.3.02-.42-.12.28.6-2.05.56-2 .62-1.93Zm1.24 1.32.2-.4-.03.26-.29.86.56-.41-.11.55-.2.38-.14.6-.35.62-.46.59-.25.65-.39.58-.16.44-.54.93-.19.06.1-.48-.28.26.22-.92 1.3-2.61Zm-2.27 124.85.08 1.23-.62-.04-1.55-2.41-.93-1.82-.4-.23-.85-3.22-.77-2.72-.23-.33.41 2.17-.22 1.77.03 2.24.93 2.92.03.77-.85-1.45-.18.83-.47-.85-.79-1.7-.21.24-.76-2.3-.47-3.26-.14-3.8-.17-1.85-.26-1.78.54.21.03-.74-.17-1.76.04-2.54.32-1.79.33-.25.38-.96-.22-1.63-.52-1.5-.53-2.46-.34-1-.07-4.72-.3-2.22-.78-3.88.07-1.76-.08-1.04.1-.7.27-.67.22-1.39.03-1.34.24-1.7-.18-1.87.53-.75.6-1.63.42-.11.42.42.55-.6.5 1.57-.23.58-.41-1.54-.2 2.33-.43 1.45-.67.23-.36 3.46.28 1.2.64-1.33.08-2 .57-2.3 1.09 2.8.31-1.77.51.21-.37 3.15.49 2.27.03 3.65-.23 1.08.73 2.86 1.04 3.08.2 3.1.68 2.76.82.84.2-.69 1.43 3.68 1.46 3.67-1.26-1.76.06 2.44.94 2.69.64 3.78-.3 2.84.72 1.53.4 1.9-1.42-.72-.32.8.28 2.14-.44-.22-.9-1.44-.18 1.4-.47-.05Zm5.44 22.36-.4-.63-.88-1.93-.54-.23-.73-.9-.48-.84-.18.22-.73-1.66-.84-3.23-.04-1.54-.27-2.24.42-1.94.49-.16-.19-2.04-.43-1.5.33-.87-.24-1.38-.73-1.49-.59-4.3.48.04.19-1.4.9 1.45.43.22-.28-2.14.32-.8 1.42.72.73 3.1.56 3.79-.22 1.6.56 1.21.6 3.07.48 2.2-.6 2.14-1.05-1.1.01.85-.44.93.5 3.44.5.99.1 2.02Zm3.52 4.9-.98-2.33-.83-1.12-.67-1.47-.22.52.25 1.07-.18.3-.89-1.87-.84-4.33-.1-2.02-.5-.99-.5-3.44.44-.93v-.84l1.04 1.1.6-2.15 1.87 4.2.26-.2 1.42 2.22 1.8 3.97-1.25.98-.07 2.22.54 2.89-.41.72-.25 1.05Zm5.78 3.13-1.38.92-.73 1.23-.8-.05-.9-1.21-.21-1.2-.4-.8-.61-.14-.75-1.89.53-.44.25-1.05.41-.72-.54-2.89.07-2.22 1.24-.98.59 1.34 1.27 2.86 1.76 5.56ZM386.3 259l1.25 1.22 4.02 1-1.56 2.88-.5 3.06-.84.7-1.3-.47.03 1.1-2.29 2.29-.18 1.94 1.46-.58.92 1.95-.18 1.2.8 1.67-1.12 1.25.62 3.37 1.65.63-.44 1.85-2.96 2.27-6.1-1.62-4.66.95-.6 2.53-3.72.13-3.3-2.39-1.25.76-5.44-2.82-.98-1.87 1.98-2.27 1.87-8.37-2.27-4.99-1.72-2.53-3.97-2.5.36-3.14 3.74-.2 4.45 1.95-.05-4.97 2.29 2.27 6.86-2.4 1.27-3.41 2.45-.58.22 1.55 1.24.2 1.09 1.86 1.72 2.21 1.45-.2 2.28 2.14.6.42Zm6.3 29.8 2.08-1.6.47 3.7-1.13 3.28-1.45-.91-.66-2.9Zm-240.03-34.9v.8l.01 1.13v4.89l.02.56v2.02l.12 3.16.06.49.1 2.54.1 2.07.07 2.58-.02.81-.06-.43-.38-8.63-.07-8.64Zm18.44-6.48.35 1.81-.1 1.13-.56-.05-.68-2.31-.54-1.69.51-1.4.32.01Zm-5.66-34.74-.04 2.34-.24 2.3-.33 1.25-.14-2.14-.27-.49.16-2.19.45-2.76.32-.23.12 1.11Zm7.54-26.64-.3 2.79-.13 2.4-.65 3.72-.62 2.14.2 2.55-.37 1.68-.93 4.2-.62 3.1.08.99-.19 2.36-.45.54.13 2.37-.38 3.43-.4.27-.38-1.7-.25-1.94-.03-2.33-.33-4.16.9.57.35-1.94.05-2.15.43-1.82.89-2.22-.06-1.63.48-3.54.37-1.45.46-4.35.39-1.55.33.5.32-3.1-.65-.87.12-1.22-.34.17v-1.23l.33-1.52.29.82.5-.24.22.82.16 1.05-.05 2.04Zm305.9 297.82-1.95.41-1.34.51-1.74.24-1.53.38-2.2-.06-2.9.49-.86-.69.16-.53-1.62.2-4-.77-1.03-.69-.73-.13-1.27-1.05 4.42-.7 1.24-.08 1.35-.32 2.43-1.6 3.73-2.26 1.45-.48.6-.75 2.4-1.3 3.03-1.02.11.62 3.28-.92 1.7-.12.74.22 1.8-.4 1.87-.02-.6 2.24-1.1 1.4-.55 1.3.46.3-.74 1.06-.62.31-1.4 1.4Zm-6.56 1.54-5.76 2.33-3.77 1.77-1.59 1.13-1.31.7-2.11.53-.88.71-.53.45-2.52.73-3.06.51H449l-1.56.12-1.94.57-1.12.69-1.92.6-2.06.76-2.75.48-.74-.26.55-.72-2-.8-1-.05.77-3.79 3.9-.53 1.02-5.46 3.02-.47 6.3-1.53 1.4.43 2.68-1.1 1.22-.22 2.32-.8h.7l1.26 1.04.73.13 1.03.69 4 .78 1.62-.2-.16.52.86.69 2.9-.48Zm-37.77 10.25-1.1 3.9-3.5.84-2.02.27-2.32.05-1.67.08-.55-.33-1.42-.14-1.91.6-2.7-.53-1.37-.63-.73-.97-.86-.75-1.15-1.77.02-1.54-.45-.7-1.52-.52-2.03-1.1-2.06-1.74-.86-.97-3.3-1.52-.24-1.29 2-.35 2.47-.34 2.67-.02 2.44.68.62-.14 16.65-1.22 2.74.54 9.8-.97 7.52-1.8 3.37-.95 2.58-.37 1.5.1v.13l-2.3.8-1.23.23-2.67 1.1-1.42-.44-6.3 1.53-3 .47-1.02 5.46-3.91.54ZM287.84 383.4l-1.15-3.29-1.64-1.97h1.7l2.16-1.71 1.15-1.45 1.45-.63 1.8 1.01 1.91-.08 2.09.73 1.63 1.68 2.36 1.81 1.94 3.37 2.23 3.24-.08 2.21.52 2.22 1.34 1.42.2 1.43-.3 1-.58.02-2.08-.95-.34.28-.85-.2-2.69-1.77-1.84-.67-7-2.71-1.06-.01-1.23-.6-2.06-.23-.27-2.84 3.39 1.42.97-.13.68.23 1.5-.26 1.52 1.32 1.64.66 1.74-.18-.64-1.26-1.33.12-1.17-.44-1.38-1.4-1.2-.39-.96.49Zm19.31 11 .3-1-.2-1.44-1.34-1.42-.52-2.22.08-2.21 1.37-.22.9-1.85 1.23.3 2.58 1.81 2.28-.04 1.47.67.68-.61 15.82 4 1.12-2.3-.64-.6-.18-16.22.31-16.85 5.75 1.25 11.96 10.92 12.63 10.24.83 1.88 2.44 1.36 1.83.81-.08 2.38 4.5.07-.34 8.48-2.35 2.2-.45 2.17-3.7.19-5.62-.37-1.58 1.06-2.64-.22-2.62-.38-1-.84-2.27.15-3.9.82-.86.96-3.27.98-.62.79-1.75.37-1.93-.86-1.17.62-.78 2.23-3.44 2.13.02 1.17-1.2 1.17.12 2-1.7.12-.98.2-.53-1.58-1.2.1-.69-.23-.81.78-3.12-.8-1.08-.8-.55.17-1.15-1.28.3-.94-.48-.52-.87.1.25-1.05.89-.64-1.51-1.86-.4-1.06-.8-1-.78-.3-1 .2-1.32.09-1.15.41-1.66-.78-1-1.19-.64-.3-1.07.12-.62-.18Zm-16.12-37.73 1-.91 14.17 5.26.26-5.61 1.24-1.64 3.48.8 1.69-9.8 11.82 3.74 1.01-5.9 12.46 12.84-5.75-1.25-.31 16.85.18 16.22.64.6-1.12 2.3-15.82-4-.68.61-1.47-.67-2.28.04-2.58-1.8-1.23-.31-.9 1.85-1.37.22-2.23-3.24-1.94-3.37-2.36-1.81-1.63-1.68-2.09-.73-1.92.09-1.79-1.02-1.45.63-.01-2.02 1.32-1.34 1-3.18.24-3.7-.12-1.97.7-1.67-.6-2.1Zm73.09 70.24-3.51-.05-1-2.3.43-7.4-.83-.78-.1-1.65-1.4-1.35-1.25-1.16.6-1.7 1.46-.19.9-1.37 2.06-.06.96-.9 1.44-.85 1.5.16 3.13 2.3-.2 1.12.87 2.1-.86 1.26.42.95-2.12 1.84-1.33.87-.85 1.98.05 2.07Zm50.9-57 1.14 5.91 1.53.9.1 1.2 1.73 1.2-.82 1.67-1.35 7.64-.1 4.77-5.21 3.65-1.73 4.75 1.75 1.25.03 2.25 2.7-.04-.4 1.66-1.18.25-.12 1.11-.79.1-2.9-3.7-.98-.11-3.26 2.02-3.26-.98-2.27-.2-1.21.49-2.47-.13-2.5 1.44-2.13.03-5.07-1.97-2 .76-2.14-.17-1.54-1.41-4.17-1.6-4.49.05-1.1.66-.66 1.95-1.25 1.27-.4 3.03-3.12-2.3-1.5-.16-1.44.84.19-2.34-4.75-1.4-.05-1.69-2.2-2.6-.46-1.68.42-1.66 2.64.22 1.58-1.06 5.63.37 3.69-.19.45-2.17 2.35-2.2.35-8.48 5.78-1.2 11.88-6.8 13.72-7.2 6.29 1.53 2.28 2.03Zm-50.9 57 .37-5.1-.05-2.08.85-1.98 1.33-.87 2.12-1.84-.42-.95.86-1.27-.87-2.1.2-1.1.39-3.04 1.25-1.27.66-1.95 1.1-.66 4.5-.05 4.16 1.6 1.54 1.4 2.14.18 2-.76 5.07 1.97 2.14-.03 2.5-1.44 2.46.13 1.2-.49 2.28.2 3.26.98 3.26-2.02.99.11 2.9 3.7.78-.1 1.69 1.3-.46.64-.2 1.14-3.53 2.76-1.11 2.18-.58 1.75-.9.76-.85 2.33-2.27 1.38-.65 1.65-.97 1.3-.4 1.34-2.95 1.08-2.4-1.31-1.62.04-2.56 1.8h-1.25l-2.06 2.98-1.1 2.15-4.49.92-1.62-.25-1.66.6-3.43-.3-2.28-2.07-1.37-2.35-3-2.32-3.2-.27Zm50.27-20.19 1.72 2.13.3 2.26-.1 2.26 2.35 2.93-2.37.09-1.19.3-1.95-.26-.9 1.6 2.54 1.83 1.86.46.62 1.33 1.37 2.15-.65.91-2.12 3.34-1.03.62-.3 2.44.44 1.28-.35.94 2.05 1.5.37 1.06 1.6 1.47 1.97.84.2 1.34.45.82-.3 1.6-3.42-.49-3.49-.6-5.43.08-.55-.15-2.54.43-2.63-.36-2.05.2-7.02-.12.62-2.32-1.67-2.02-1.97-.56-.86-1.38-1.11-.48.06-.84 1.11-2.15 2.06-2.97h1.25l2.56-1.81 1.62-.04 2.4 1.31 2.95-1.08.4-1.33.97-1.31.65-1.65 2.27-1.38.85-2.33.9-.76.58-1.75 1.1-2.18 3.54-2.76.2-1.14.46-.64-1.7-1.3.13-1.1Zm-57.33 3.8-.6 1.7 1.24 1.16 1.4 1.35.11 1.65.83.79-.43 7.39 1 2.3-3.43.23-.92-1.22-1.06-2.17-.29-1.63 1.02-2.77-1-1.33-.3-2.65.1-2.4-1.66-1.99.35-1Zm-3.64-.6-.35 1.01 1.67 1.98-.12 2.41.31 2.65 1 1.33-1.02 2.77.29 1.63 1.06 2.17.92 1.22-6.68.86-2.36.7-3.8.24-3.71-1.56.23-1.18-1.72-3.03 1.23-3.36 1.87-2.37-.88-4.86-.43-2.6.22-1.89 7.17 1.12 1.82.54 1.38-.33Zm-33.16-4.03.55-.17 1.08.8 3.12.8.81-.78.7.23 1.19-.1.53 1.57.98-.2 1.7-.1 1.8 1.13.65 1.25 1.8 1.09 1.48-.54 1.94.26 2.77 1.4.88 4.86-1.87 2.37-1.23 3.36 1.72 3.03-.23 1.19-1.9-.33-2.88-1.19-2.66-.52-4.91-.55-2.89.2-4.1.12-.78-.28.42-2.44.4-.29-.07-1.25-1.67-1.75-1.27-.55-1.14-1.17.95-1.16-.32-1.65.24-.88.64.17.34-1.33-.28-.7.42-.35h1.52l-.83-2.87-.82-1.6.41-1.03Zm-21.5-14.8 1.85.68 2.69 1.76.85.21.34-.28 2.08.95.58-.01.1 1.3.62.2 1.07-.13.64.3 1 1.2 1.66.77 1.14-.41 1.33-.09 1-.2.77.3.82 1 .39 1.06 1.5 1.86-.88.64-.25 1.05.87-.1.48.52-.3.94 1.15 1.28-.8.05-.42 1.02.82 1.61.83 2.87h-1.52l-.42.34.28.71-.34 1.33-.64-.17-1.12-.39-.9 1.06-1.14-.33-.75-.9.36-1.2-1.54-2.46-1.08.06-.85-.18-1.11-.14.13-1.17-.57-1.04.2-.9-.74-1.64-1-1.52-3.14-1-.98.33-1.07-.28-.74.49-.53.75-2.2.72-1.53-2.5-1.38-1.82-.94-.78-.89-1-.3-1.62-.48-.93-1.03-.96 1.86-1 1.15.49 1.07-.2.84.3.65-.24-.2-1.23.47-.2Zm-11.33-3.54 2.05.24 1.22.59h1.07l7 2.72-.2 1.12-.47.2.2 1.23-.65.23-.84-.3-1.07.2-1.15-.48-1.86 1-1.88-2.16-1.57-.83-.74-1.27.08-.5-1.05-1.17Zm30.62 26.1-.24.88.32 1.65-.95 1.16 1.14 1.17 1.27.56 1.67 1.75.06 1.25-.4.28-.41 2.44-1.07-.25-4.12-2.59-3.56-3.37-3.32-2.72-2.56-2.85 1-.72.28-.85 1.92-1.18 1.95-.94.85.17 1.08-.06 1.54 2.45-.36 1.2.75.91 1.13.33.9-1.06Zm-18.76-9.74 2.2-.72.52-.75.74-.49 1.07.28.98-.33 3.13 1 1.01 1.52.74 1.63-.2.9.57 1.05-.13 1.17 1.11.14-1.95.95-1.92 1.18-.27.85-1 .72-1.06-.58-2.75-2.2-1.91-2.37-.6-1.4Zm31.63 4.02-.13-2 1.21-1.17-.02-1.17 3.44-2.12.78-2.24 1.17-.62 1.93.86 1.75-.37.62-.79 3.27-.98.86-.96 3.9-.82 2.28-.15.99.84 2.62.38-.42 1.66.46 1.68 2.2 2.6.05 1.7 4.75 1.39-.19 2.34-.96.9-2.05.07-.9 1.37-1.47.2-3.64-.6-1.9-.56-1.37.33-1.83-.54-7.17-1.12-.22 1.89.43 2.6-2.77-1.4-1.94-.26-1.48.54-1.8-1.1-.66-1.24Zm138.24 16.66-1.35.62-2.65.5-3.14.3-1.55.58-.6.86-1.35.35-1.67-.35-4.63 2.34h-1.94l-.57.33-1.22 2.03-3.16-.13-3.1.12-2.73-.78-3.53-.63-2.27 1.24-1.63 1.72-.36 2.14-2.75.1-2.9-.26-2.55 1.78-2.24 2.92-.45-.83-.2-1.34-1.97-.84-1.6-1.47-.37-1.06-2.05-1.5.35-.94-.44-1.28.3-2.44 1.03-.62 2.12-3.34 3.51-.45.79-.89.7.01 1.08.66 5.33-1.68 1.78-1.43 2.18-1.37-.46-1.1 1.18-.43 4.1-.26 3.89-2.03 2.88-4.05 2.06-1.67 2.6-.98.53 1.37 2.5 1.7.08 1.34-.61 1.49.31.98 1.49.7 3.23.85 2.34.88.07 1.04 2.87 1.11 1.78 1.02 1.12 1.67 3.15.56Zm-37.45 11.24-.23 1.83-1.27 1.7-.83 1.9-.52 2.6.22 1.6-.7 1.04-.1 1.03-.5.93-2.83 1.56-1.97 1.54-1.89 2.73.14 2.15-1.1.9-2.5 1.4-2.56 1.71-1.6-.37-.26-.7-2.35.05-1.48 1.02-1.13-.23-1.6-.83-1.31.45-1.74 1.11-3.53-2.67 3.29-1.44-1.63-1.73 1.48-.68 2.9-.37.36-1.19 2.3 1.23 3.8-.01 1.32-1.32.57-1.83-.48-2.12-2.04-1.58 1.87-3.36-1.08-.53-3.21.34-1.21-1.46.32-1.28 5.43-.08 3.5.6 3.4.5.3-1.6 2.25-2.92 2.55-1.78 2.9.25Zm-30.85 5.25 2.05-.2 2.63.35 2.54-.43.55.15-.32 1.28 1.2 1.46 3.22-.34 1.08.53-1.87 3.36 2.04 1.57.48 2.13-.57 1.83-1.32 1.32-3.8.01-2.3-1.23-.36 1.2-2.9.36-1.48.68 1.63 1.72-3.3 1.45-4.42-2.65-2.86-2.25-2.63-2.87.14-.91.95-.86 1.04-2.01.87-2.1 1.46-.14 6.28.08Zm-7.02-.13 7.02.13.03 3.49-6.28-.08-1.46.15-.8-.46Zm88.55 17.12 1.63.13 1.56-.06 2.5-.35 2.17.02 1.75.45.76 1.57-.75.8-1.04 2 .46 1.53-1.35 1.1-1.53 2.25 1.96-.11-12.2 5 .1 1.27-3.02 1.02-2.4 1.3-.6.75-1.45.48-3.74 2.26-2.42 1.6-1.35.32-1.24.08-4.42.7-.7.01v-.13l-1.5-.1-2.58.37-3.37.95-2.47-.67-2.55-1.04.84-6.11 8.58-1.35-.28-.64.69-.88-.64-.85.57-1.1-.37-.6 1.42-.2.16.64 1.95-.41 2.59-.3 1.27.7 3.23-.38 2.57-1.2.77.9 3.07-.42 1.37.53 1.49.72 3.04-.75v-2.13l-1.15.66-2.7-.13-1.04-.11.75-2.27.99-2.78-.82-.78 1.29-1.74 1.12-.55 5.47-1.78Zm7.86-.26 3.83-.77.7.38 1.2.6.65 2.64-1.35 1.96.58 2.33 1.35-.47 1.24.18 1.28.89-.29 2.36-1.73.96-1.5 1.67-2.17-.31.04-1.24 1.02-1.15-.05-.7h-1.41l-1.11.51-2.02-.25-1.96.1 1.53-2.24 1.35-1.1-.46-1.52 1.04-2 .75-.8-.76-1.58Zm6.38 2.85 2.94-1.16 4.51-1.02 1.06-.63 2.65-1.04 1.46-1.16 2.26-.85 4.24-2.5 3.18-2.53.43.75-.56 2.25.06 1.69-.63 3.16.38.71-1.48 1.88-1.8 1.93-2.69 2.13-3.56 2.05-4.43 2.47-4.79 3.4-1.53.82-3.01 2.09-1.68.9-.73 1.24 1.28.58.33.65-.15.42.68-.3-.78 1.46-.91.85.72-.05-.83.74-1.76.99-3.21 1.42-4.73 2.05-1.84.93.02.4.87-.19-.69.7-2.72.8v-.41l-.24-.37-.06-.35 1.36-1.58-.51-.66-.96-1.45 4.59-2.8 1.4-1.41.62-.31.74-1.07-.45-.3.55-1.28 1.08-1.4.6-2.25-1.86.01-1.8.4-.74-.2-1.7.1-3.28.93-.11-.62-.1-1.26 12.19-5.01 2.02.25 1.1-.52h1.42l.05.7-1.02 1.16-.04 1.24 2.16.31 1.5-1.67 1.75-.96.28-2.36-1.28-.89-1.24-.18-1.35.47-.58-2.33Zm-17.44 28.03-1.04.7-2.18.73h-1.8l.2-.39 1.24-.7.53-.44 1.1-.38 1.71-.3.23.37Zm-70.94-28.47-1.57.57-.7.65-.14 1.1-1.1.27-1.14-1.86 1.74-1.1 1.3-.46Zm-2.9 3.34 1.77-.36 1.24.01 1.51-.33 12.66-.6 1.01 1.73 1.2 1.35.96.68 1.6 1.1 2.81-.44 1.4-.47 2.35.09.66-.65 1.1-1.5 2.62-.4.25-.44 2.16-.27-.4.9 5.12-.7.01 1.47.8.77-.69 1.48.24 1.33 1.35.62-.4 2.63 1.02-.35 1.81-.23 2.6-.74 1.88-.2.37.6-.57 1.1.63.85-.68.88.28.64-8.58 1.35-.84 6.11 2.55 1.04 2.47.67-7.51 1.8-9.8.97-2.75-.54-16.65 1.22-.62.14-2.44-.68-2.67.02-2.48.34-2 .35-.37-1.08.58-1.57 1.45-1.7.24-.82 1.38-1.76 1-.83 2.44-1.38 1.38-.95.47-1.56-.2-1.2-1.26-.73-1.12-1.3-1.02-1.31.23-.47 1.32-.94-1.28-2.2-.86-1.57-2.14-1.5Zm76.75-20.04.21.99.86.36.02.84-1.03.83-1.63 1.77-1.52 1.31-1.7.55-.14-3.06-1-.94 2.5-.42 1.28-1.83Zm4.74-127.13-.28 1.46-1.33-.14-.08 2.88.94.16-.73.84.1 1.1 1.46-1.08.44 1.5-.28 6.88-.56-.91-3.17-5.13.68-1.62-.28-.15.47-2.16-.04-3.23.24-1.17.08-.07 1.11-.37.13-.8.87-.37.45 1.62-.3.76Zm-.23-2.37-.87.36-.13.8-1.1.37.37-3.66.9-3.37.02-.17 1.5-.3.93 1.37-1.37 2.13Zm63.71 124 .63.4.4.92-.27 2.2.5.44-.67 1.18-.79.94-.66-.5-.84.97.07 1.1-.61 1-1.08.98-.9 1.74-2.24 2.9-2.82 3.36-3.8 4.29-2.62 2.84-2.65 2.5-2.84 1.74-3.25 2.06-1.6.6-2.22.81-.4-.29.63-1.17-.46-.62.32-.95 1.23-1.44 1.7-1.04.3-.55 2.24-2.06.82-1.25-.43-.43-.17-.8.38-1.55 1.6-1.64.9-1.45 1.74-.94 2.06-1.39 1.39-1.02 1.5-.82 2.3-2.18 3.19-2.8 1.32-1.6-.19-.64 1.35-.57 2.26-2.54.43-1.35 1.35-1.63Zm-63.4-116.41-1.47 1.07-.09-1.1.73-.83-.94-.16.08-2.88 1.33.14.58 2.43ZM287.84 383.4l4.07 1.49.96-.49 1.2.4 1.38 1.39 1.17.44 1.33-.12.64 1.26-1.74.18-1.64-.66-1.52-1.32-1.5.26-.68-.23-.97.13-3.39-1.42Zm106.2-42.79-1.44-7.4-2.2-1.73-.02-1-2.88-2.59-.2-3.14 2.27-2.24.93-3.41-.44-4.02.78-2.14 3.78-1.6 2.4.55-.13 2.13 2.94-1.53.25.8-1.74 2.07-.03 1.94 1.2 1.05-.46 3.62-2.36 2.08.67 2.28 1.84.08.91 1.98 1.38.64-.2 3.18-1.77 1.19-1.14 1.31-2.54 1.56.38 1.7-.34 1.73Zm-68.34 2 .2-.73.04-.27.8-4.67 6.26-1.43 3.67.26 3.1-.4 1.68-1.7 4.4-.73.59-2.97 2.1.05 1.83-1.2 4.74.13.84-1.48-.82-1.02-.67-4.55.12-2.54-.94-2.88 3.6-1.7 3.8-.13 2.35-1.4 3.44-.83 5.87-.06 5.7.19 1.7.76 3.33-1.43 3.68.18 1.36 1.04 2.37-.16-.78 2.14.44 4.02-.93 3.41-2.27 2.24.2 3.14 2.88 2.59.02 1 2.2 1.73 1.45 7.4 1.16 3.62.18 1.88-.7 3.28.26 1.85-.52 2.18.3 2.5-1.55 1.63 2.26 2.93.14 1.7 1.38 2.2 1.84-.71 3.1 1.82 1.76 2.42-13.72 7.2-11.88 6.8-5.78 1.2-4.5-.07.07-2.38-1.83-.81-2.44-1.36-.83-1.88-12.63-10.25-11.96-10.9Zm160.86-24.76.28-1.46 4.05.26 5.23-6.64 2.63 4.27-.46.84-6.04 4.5 4.3 2.67-.93 1.1-.23 1.5-2.44 1.5-.47 1.7-1.2 1.73-3.96.7-.24-.53.28-6.87-.44-1.51.22-1.33Zm60 5.98.48-.52.43.9 2.14-2.1 2.46-1.57 1.79-1.11 1.13-3.8 1.28-3.82.94-3.5.97.82 1.4 2.5-1.4 1.09.6 2.46.67.11-1.03 1.65.49 1.44-.33 2.07.4 1.47-.34 1.16-9.4 4.36-2.29-2.87Zm-2.9-.35-1.04-2.51.17-2.41.68-.92 1.28.56.76 2.08.04 2.54-.75.8Zm-14.94-14.08 1.2 1.3.02 1 1.91 2.25-2.1 1.32-1.35-1.35-2.85 1.14 1.04-4.83Zm-29.98 4.88-2.62-4.27 5.75-7-.35-5.26-1.22-2.75 1.32-1.7.67-3.15 1.05-1.2 3.57-1.11 1.36.49 1.14-1.35 3.58 3.67 2.32.16 1.06 2.13-.97 2.1.39 3.36 3.34 2.56 4.36.12 2.56 2.02.48 3 .95-.54.74 1.98 2.33 1.03-1.83.83-2.13.83-1.04 4.83-5.86 2.72-11.24-3.42-5.53-.63Zm60.24 7.64-.4-1.47.33-2.07-.49-1.44 1.03-1.65-.68-.1-.59-2.47 1.4-1.1 2.12 1.44 2 .07 2.14-1.14 1.82-.69 1.93.97 1.13.54 1.1-.39.27.77-.24 2.87-.09 1.32-.76 2.05-.25 3.18-1.3.84-.32 1.29.1 2.08 1.04 2-.13.63-1.3 1.02-1.42 2.67.2 1.86-.46 1.22-1.82 1.35-.92 1.71.37 1.36-1.18 1.99-1.74.87-1.74 2.57-1.37 1.17-1.6-1.7-3.87-4.06 8.04-9.71-.24-8.35Zm-.8-12.79-.97-.82.32-1.8.47.04.3 1.65Zm83.66-88.43-1.13-2.52-.93-4.3-.45-4.61-.1-2.6.14-1.58-.9-3.26.01-1.83.58 1.03 1.21 3.57 1.38 7.44.35.22.42 3.58.55 3.87.06 2.3-.35-.12Zm-2.6-14.03.1 2.6.44 4.61.93 4.3 1.13 2.52-.36 1.62.03 2.8-.76-2.63-.03 2.83 1.05 3.28 1.21 5.78.65 3.5.53 1.8.1-2.03.63 1.22.52 1.83.32-.22.05-1.64.22-.25.2 2.21.08 2.5-.23-1.19-.24 1.45.08 1.06-.23.22-.28-.84-.4.16-.37.25.32 2.17-.37-.94-.39-2.1-.62-3.63-.72-4.43-.72-4.34-.9-1.28-.45-1.33-.58-1.17-.95-.07-.6-.63-.15-1.6-.95-3.53-.88-.52h-1.07l-1.29-.9-.14-1.8-1.43-4.35.06-2.3-.56-2.95-.3-2.38.48-.51.88 1.41.08-1.97 1.48 3.56 1.19 2.33-.83-4.89.21-.47-.1-1.9-.5-1.55-.04-2.17.9-.25 1.21 2.39.8-.24.97 2.37Zm-.76-6.67-.01 1.83.9 3.26-.14 1.57-.59-2.22-.96-2.37-.8.24-1.22-2.39-.9.25.05 2.17.5 1.55.1 1.9-.2.47.82 4.89-1.2-2.33-1.48-3.56-.07 1.97-.88-1.41-.48.51-.55-1.63-1-4.32.38.34.02-1.56-1.82-2.5-.27-1.95 1.22.25 1.36.97-.22-3.75 1.2 1.04.54 2.65.58 1.82.54-2.17 1.32.48.88.32.51-.56.7 1.05Zm-6.56 6.33.3 2.38.56 2.96-.06 2.3 1.43 4.34.14 1.8 1.3.9h1.06l.88.52.95 3.53.14 1.6.6.63.96.07.59 1.17.45 1.33.89 1.27.72 4.35.72 4.43-.59-1.76-.58-3.12-.58-.56-1-3.3-.6-.13-1.35-2.28-1.5-2.91-1.13-.92.42 3.45.43 5.55-.35 1.51-.57 1.29-1.36-4.55-1.32-1.97-2-.8-.44-1.37-.51 1.43-1.62-.12-1.28-2.06.45-.62-1.12-2.07-.1-2.14-.76-.85-.44-1.62-1.75-2.97.8-1.7-1.25-3.57-.86-1.46-1.33-3.88-1.1-1.44-.88-5.6.56-1.6-1.24-1.37-.28-1.48-.79-.77-.02-1.87 1.26.54.56-.66 1.5 1.88 1.58 2.24 1.36 4.97 2.1 3.49-.08-3.6 1.63 1.7.4-1.4 1.35 3.07.68-1.27.32-.84-.45-3 .66.98.99 4.32Zm11.05 13.38-.55-3.87-.42-3.58-.35-.22-1.38-7.44-1.2-3.57-.59-1.03-1.17-3.19-.7-1.05-.51.56-.88-.32-1.32-.48-.54 2.17-.58-1.82-.54-2.65-1.2-1.04.22 3.75-1.36-.97-1.22-.25-.46-2.26-.1-2.4-.4-3.23-1.12-3.9.49-.51-.03-2.3 1.01 1.9.47-.43-.05-2.42 1.92 6.2 1.7 4.94 1.07 2.45 1.18.35 1.28.45.3-1.24.6.18 1.7 3.38 1.71 5.06 1.03 4.42 1.08 5.4.97 4.89 1.07 6.57-.33-.58-.56-2.76ZM558.98 82.5l.23-.13.45.75 1.53 1.26 1.32 1 1.74.7 1.35 1.36.71.6 1.3 1.17 1.42 1.68 1.31 1.3 1.12.61.44.4-.2-.7.2-.74.8.63.8 1.06 1.19 1.7 1.65 1.5.57 1 .3.27.25.89.63.55.6.8-.4-.18.14.49-.02.41-1.45-1.25-.62-.71-.32-.04-1.7-1.31-.32-.07.52 1.22-.05.73-2.72-2.7-2.88-3.16-2.8-2.35.15-.68-1.17-1.87-1.12-.23-3.4-3.78-2.05-1.4Zm18.24 15.42-.3-.26-.58-1-1.65-1.5-1.19-1.7-.8-1.07-.8-.63 1.4-.48 1.1.28 2.56 1.52 1.84 1.66 1.91 2.44 2.19 2.53 1.59 2.33-1.04-.55-1.97-1.56-1.75-.44-1.5-2Zm-20.16 67.87.1-2.6-1.75-5.93-.85-4.17 1.37-1.13.41-2.13 1.75-.42.4-2.02 1.15-2.55-2.14-3.4-2.03-.28-3.37-4.05 1.5-1.52.41-1.65.85-1.96 2.5.9 1.27-2.26-.75-2.3-.7-2.85.19-1.89 1.28-1.31 1.46-.5-.4-2-.02-2.43-1.25-2.28-1.25-2.98-3.16-3.91-.04-1.1.72-.67-1.13-2.54 2.75 1.88 3.65 2.72 1.08-.04-.81-1.36-.3-1.9-1.77-2.07.28-1.32 1.28-1.1 1.17.64.4 1.55 1.65 3.29 1.43 1.89 2.57 2.49 2.28 3.93 2.26 3.03.04 2.04.07 1.14 2.22 2.21.96-.12.88.15 1.38 2.18 1.94 2.6 1.58 3.38.72 3.67 1.53 4.54 1.84 3.87-.8.48.2 2.95-1.64 2.37-.42 2.08.34 3.5-.96 4.5-.18 2.7-1.9.06-2.89-.99-.53 1.19-2.33 1.38-1.02 2.77-1.11 2.3-1.51-.22-3.39-3.62-2.88-.37-2 2.19-2.2.5Zm60.47 28.36.79.77.28 1.49 1.24 1.35-.56 1.62.88 5.59 1.1 1.44 1.33 3.88.86 1.46 1.24 3.57-.8 1.7 1.76 2.97.44 1.62.76.85.1 2.14-2.95-2.83-.16.83.97 2.27-1.24.18-.77-2.5.2-1.49-1.23-3.7-.66 1.22-.59 2.75-.94 2.4-1.33-1.7-.47 1.24-1.45 1.06.96 2.95 1.57-.58.14 2.87.45 1.68 1-1.02.88 2.21 1.55 1.13 1.46 1.9.45 1.46-.6 1.99-.85 4.26 1.2 2.02.33 3.31-.6 6.27.28 6.81-.13 4.12-.5 4.91.55 1.39-.4 2.21-.86 3.76-.62 1.53.37 3.2 1.63 3.3.86 2.33.18 4.11 1.33 5.09-.77 1.7-.2 3.63.7.07-1.3 3.58-.15 3.01-.52 2.06-2.19.03-1.74-2.84-1.43-1.92-1-.43-1.78-1.39-1.58-3.13-.92-1.43-3.12-1.7-2.96-4.91-2.13-3.22-1.56-3.85-1.64-2.45-2.05 5.8-1.59 1.49-4.36-.52.5-2.42-1.17-.51-3.71.21.42-3.87 4.49-5.63-1.74-2.26-1.93-.22-1.47-2.23-2.06.18.39-6.18 2.34-2.68.02-6.02-.8-4.83-.3-5.64-1.46-2.22.19-3.94-2.33.45-1.99-1.3-2.46-1.9-.14-2.55 2.9-2.92 1.34-3.2-.54-4.94 4.14.89 1.68 2.72 1.67.53 1.06 1.63-1.28 1.43 2.73 2.64 2.66-.64 3.26-1.58.1 3.06 1.33 3.86 2.02-1.47 2.14-1.1 2.64-1.93 1.8-3.45 1.57-.13.97-1.92 1.6-2.74.71-2.43-.64-1.45-1.33-1.43-.78-1.44.1-2.32 1.6 1.98.41.5 1.44-1.53.17-2.25.7-2.25.47-2.44-1.16-1.88-.88.3.23-2.66-1.01-4.6-.79-4.98.85-1.75-.63-3.12 1.44.26.77 2.06Zm9.42 30.45 1.12 2.06-.45.63 1.28 2.06-.97-.6-.83-1.25-.9-.78-1.22-.38-.7 2.64.73.9.66 2.5-.65.7.18.96-.4.52-.46.9-1.46-1.89-1.55-1.13-.88-2.21-1 1.02-.45-1.69-.14-2.86-1.57.58-.96-2.95 1.45-1.06.47-1.24 1.33 1.7.94-2.4.6-2.75.65-1.22 1.22 3.7-.19 1.48.77 2.5 1.24-.17-.97-2.27.16-.83Zm-10.89-12.95.88-.3 1.16 1.9-.47 2.44-.7 2.24-.17 2.25-1.44 1.53-.4-.5-.94-3.97-.1-2.24.97-1.38.4-1.45Zm-2.85 9.9.78 1.44 1.33 1.43.64 1.45-.71 2.43-1.6 2.74-.97 1.92-1.58.13-1.79 3.45-2.64 1.92-2.14 1.11-2.02 1.47-1.33-3.86-.1-3.06.03-1.81 1.62-1.24 2.51-.8.93-1.13 1.33.49 1.23-1.57 1.7-.99 1.55-2.5Zm-28.05 4.95.54 4.94-1.34 3.2-2.9 2.92.14 2.55 2.46 1.9 1.99 1.3 2.33-.45-.2 3.94 1.46 2.22.3 5.64.8 4.83v6.02l-2.35 2.68-.39 6.18 2.06-.18 1.48 2.23 1.92.22 1.74 2.26-4.49 5.63-.42 3.88-1.96 1-1.71-1.64-2.86-.63-3.9 5.07-3.83 3.9-3.25 3.73-.75-4.85 2.68-5.08-.9-1.38-1.4.54-1.44-2.96-2.99.63-1.94-1.2-2.05-.75 4.83-1.93 2.07-2.76 1.57-.93.09-1.2 1.7-1.31 2.1-4.43-1.45-2.95.13-3.2 1.53-1.72-.3-1.2 1.27-2.23.9-.56.22-1.85-1.28-1.85-.39-2.99.67-2.33-2.08-1.23 1.8-2.13-.27-1.82-.89-1.14-.02-2.53-1.29-1.34-1.34-.81.04-2.76 1.3-3.15 1.59-3.04.36-1.77.62-1.72 2.2-.3 2.2 1.66Zm-23.15 20.16 1.08-1.18 1.9-.94.84-.27.64-2.65 1.04-.1-.44-2.23 1.1-1.26-.05-.82-.74-1.55-.06-2.08 1.44-.47.53 1.23.62-.53 1.76 2.91 1.41.15.1-1.48.52-1.33-.03-2.86 1.27-1.36 1.58-2.4.95.47-.62 1.72-.37 1.77-1.57 3.04-1.31 3.15-.04 2.76 1.34.81 1.29 1.34.02 2.53.9 1.14.26 1.82-1.8 2.13 2.08 1.23-.67 2.33.4 2.99 1.27 1.85-.21 1.85-.9.56-1.29 2.23.3 1.2-1.52 1.73-.13 3.19 1.45 2.95-2.1 4.43-1.7 1.3-.09 1.2-1.57.94-2.07 2.76-4.83 1.93.64-5.14-1.3-2.06-2.07 1.04-1.3-2.05-2.19-2.12.02-2.81-1.28.39-.71-3.13-1.44-5.21 3.02-.8 1.39-2.03-.45-2.01 1.37-2.18.56-2.25-1.25-3.15 1.3-2.44-.46-1.54 1.5-.1Zm2.98-2.12-1.2-4.58-2.07-2-1.9.79-.53-2.02 1.63-1.62-.45-2.82-.97-2.78 1.69-3.59.78 1.94.9.59.63-.97.13 1.77-2.25 1.82 1.2 2.07 1.67-2.6 2.83-1.67 2.64-4.7 2.62 2.32.26-1.06 1.47-.7.88 1.3 1.57 1.41-1.58 2.4-1.27 1.36.03 2.86-.51 1.33-.1 1.48-1.42-.15-1.76-2.91-.62.53-.53-1.23-1.44.47.06 2.08.74 1.55.06.82-1.11 1.26.44 2.22-1.04.11-.64 2.65Zm-6.55-23.42-.76-1.86.67-1.83 3.38-2.41-1.31-2.16.27-1.84 3.1-1.8.19-1.1 2.22-3.56 2.1-2.99 1.57-.1 1.1-.96.46.97-.43 5.15.6 1.98-1.36 3.26 1.13 2.78-1.82 1.98-.5 2.16-.25 3.6.8.42.12 1.36-2.64 4.7-2.83 1.67-1.67 2.6-1.2-2.07 2.25-1.82-.13-1.77 1.48-1.35.25-5.07-3.16.91-.53 2.32-2.14.36-.24-3.84Zm-36.34 36.33.43-1.96 2.27-2.63 2.13-.1 3.2 1.68 1.08-1.06 2.53-2.03-1.4-1.53 1.18-2.75.58-3.57 4-.56 1.97 2.61 1.25.01 2.17-2.2h1.09l3.27 2.62 3.84.12 2.34.3 3.16-.5 3.53-1.36 1.29 2.12-.66.54-1.5.1.44 1.54-1.29 2.44 1.25 3.15-.56 2.25-1.37 2.18.45 2-1.4 2.05-3 .79-1.85-2.79-1.74 1.38-4.33-.89-2.05 1.15-3.57.27-1.86.98-.7 1.49-1.67 1.11-.69 3.38-1.85 2.28-1.73-2.27-1.55-4.12-2.54.08-.64-2.98-1.74.9-1.03-3.51 2.75-.67 1.47-2.67-2.9-.99-1.8-1.63-1.41 2.27 1.15 2.9Zm8.45 51.12-2.33-1.03-.74-1.98-.95.54-.48-3-2.56-2.02-4.36-.12-3.34-2.56-.4-3.36.98-2.1-1.06-2.13-2.32-.16-3.58-3.67-2.73-2.34.11-1.49-2.58-4.04 1.47-2.07 1.02 1.25 2.11 1.07 2.1-.48.95-.65 2.01-4.6.88-.86 1.27.68-.1 2.42 2.52 1.03.59-.58 2.06 2.3 2.87-.74 2.68.73 4.03-1.78 3.56-3.72-.17-1.05 1.85-2.28.7-3.38 1.67-1.11.7-1.49 1.85-.98 3.57-.27 2.05-1.15 4.33.89 1.75-1.38 1.83 2.79 1.44 5.2.7 3.14 1.29-.4-.02 2.82 2.2 2.12 1.29 2.05 2.07-1.04 1.3 2.06-.64 5.14 2.05.75 1.94 1.2 2.99-.63 1.45 2.96 1.39-.54.9 1.38-2.68 5.08.75 4.85-5.2 3.2-3.17 1.6-3.18 2-2.83-3.44-1.54.38-1.85 2.23-2.13 3.78-3.88 1.26-3.9-.8-3.16.78-3.2-2.23-3.95-3.58-1.34 1.56-2.32-.12Zm-43.71 7.82h-.08l.3-.76-.45-1.62.25-2.46 1.37-2.13-.93-1.37-1.5.3-1.1-2.96.34-1.93.6-1.17.62-1.2-.45-2.3 1.24.41 3.08-2.41 1.86.12 2.51-1.04 3-2.95 1.63-.64 3.16-2.13-.67 3.15-1.32 1.7 1.22 2.75.35 5.27-5.75 7-5.23 6.63Zm25.02-38.16-.95.65-2.02-1.65-.23-.6-1.22.64-1.22-.63-.54.4-1.53-.59-2.44.04-.47-2.05-1-1.15 3.54-2.5.97.75 1.3.14-.14 1.26 1.98.58-.25 1.64 1.58.44 1.48-.01ZM399.9 219.07l.97-2.46 1.77-2.93.6-5-1.36-2.11-.2-5.59 1.17-3.94 1.87.02.58-1.68-.73-1.4 2.46-5.95 1.36-4.66.8-3 1.55-.1.16-2.31 3.04.34-.18-2.69.92-.28 2.4 1.69 3 2.35 1.36 6.22.9 1.49-2.73 1.63-1.21 3.11.7 2.48-2.44 3.7-3.3 3.99-.86 6.03 1.79 2.84 2.28 2.15-1.47 4.96-2.21 1.19-.28 7.21-1.04 4.1-2.94-.25-1.21 3.46-2.83.29-.88-4.04-2.05-4.83Zm40.62 6.86 2.7.46.6.95 1.08-.8 2.53.39.8 1.88-.2 1.25 2.27 2.3 1.2.48.08.8 1.83.25 1.02.9-.66 1.17-2 .43-.35.52.98 1.2 1.37 2.5-2.07.84-.52 1.12.4 2.15-1.12-.13-2.25.78-.91-.8-.78.96-1.12-.38-2.03.37-3.1-.39-2.68.19-1.98.47-1.22 1.41-1.22.38-.38-1.89-1.13-1.84 1.38-1.12-.28-1.7-.99-1.5-.44-1.85 2.4-.4 2.36-2.09.06-2.49 1.66-1.75-.64-1.83 1.26-1.02Zm13.25 14.68.98-.11.34-1.12.8-.02 2.42-1.18 2.32 1.82-.35 1.03.62 1.21 2.04-.45 1.48 1.47.22.82 3.66.32 1.67-1.35 2.23 1.32 1.42-.6 4.14-.18.5 1.16-.2 2.53 1.42 1.98.12 1.51-2.36 1.3-.92 1.65.56 1.83-1.99 1.14-1.32 1.97-2.44 1.11-1.85 2.33.81 2.16-.45.01-.6-.7-.94.14-2.22-.25-.44 1.25-.5-.33-4.62.24-.6-1.5-2.44 1.23-.47 2.58-1.48 3.67-1.47-.39-1.2 1.01-1.47-.47.63-.62.19-1.57.48-1.53-.38-.7.51-.48.41.5 1.7-.29.68-.5-.63-.29.04-.67-1.23-.82-.82-1.65-1.18-.44-.13-1.47-1.5-.82-1.18.11-2.3-.85-1.76.82-.52.76-1.18.25-.5 1.13-2 .81-.83.84-1.5-.8-1.8.3-1.83-.18-1.08 1.11-.37-1.12-1.74-.92.3-1.8.6-1.24.64.16-1-1.8 1.9-3.95 1.26-.72.07-1.25-1.97-3.48 1.22-.38 1.22-1.4 1.98-.48 2.68-.19 3.1.4 2.03-.38 1.12.38.78-.97.91.81 2.25-.78 1.13.13-.4-2.15.5-1.11Zm-22.44-2.93.44 1.85.99 1.5.28 1.7-1.38 1.12 1.13 1.84.38 1.89 1.97 3.48-.07 1.25-1.25.72-1.9 3.94 1 1.81-.64-.16-2.87-1.25-1.91.88-1.37-.27-1.54 1.12-1.57-1.37-1.08.71-.19-.24-1.47-2-2.08-.06-.38-1.33-1.92-.33-.32 1.15-1.55-.78.08-1.2-2.05-.25-1.37-1.32-1.25-2.7.14-1.5-.76-2.27-1.02-1.49.67-1.18-.7-2.16 1.68-1.35 3.8-2.22 3-1.7 2.54.5.3 1.02 2.41-.2 3.12.1 4.55-.72 1.34.26ZM417 264.58l-.09 1.78-1.62.13.62.9-.78 2.83-.52.77-2.58.25-1.44 1.06-2.47-.23-4.27-1-.68-1.49-2.9.77-.34.82-1.8-.62-1.5-.13-1.31-.81.46-1.06-.1-.76.88-.22 1.47 1.21.42-1.13 2.57.18 2.08-.8 1.4.12.93.86.25-.74-.48-2.8 1.02-.58.94-2.01 2.17 1.3 1.52-1.84.98-.37 2.27 1.18 1.32-.31 1.37.7-.2.57Zm14.37-2.92 1.74.92.37 1.12-1.61 1.16-.95 3.1-1.39 3.14-2.27 1.1-1.86.03-2.16 1.38-1.06.75-2.53-.6-2.37-1.65-.98-.46-.67-1.42h-.5l.78-2.85-.62-.89 1.62-.13.09-1.78 1.55.98 1.1.38 2.37-.76.14-.88 1.13-.25 1.31-.83.34.24 1.27-.7.55-1.08.88-.38 3.2.89Zm12.83-1.42.52-.76 1.75-.82 2.31.85 1.18-.11 1.5.82.13 1.47 1.18.44.82 1.65 1.23.82-.04.67.63.29-.68.5-1.7.3-.4-.5-.52.47.38.7-.48 1.53-.19 1.56-.63.63-.93-1.8-.08-1.87-.5-1.82-2.16-2.14-1.28-1.58-1.12-1.06Zm7 10.51 1.45.47 1.21-1 1.47.38.32 1.06-1.2 1.26-.98-.18.28 5.26-1.84-.02-2.48-1.05-3.33 1.73-1.3 1.38-4.5.6-2.43-.26-1.14.5-1.13-1.61-.66-.66.6-.82-.81-.42-.82 1.1-1.92-.98-.47-1.73-1.95-.76-.5-1.32-1.8-1.48 2.26-1.1 1.39-3.15.95-3.1 1.61-1.15 1.08-1.11 1.82.18 1.81-.3 1.5.8.84-.84 1.99-.8.5-1.14 1.18-.25.92.24 1.12 1.06 1.28 1.58 2.16 2.14.5 1.82.08 1.87Zm-14.03-41.63.64 1.83-1.66 1.75-.06 2.49-2.36 2.1-2.4.39-.82-1.21-1.34-.26-.39-1.05.07-1.2-1.19-.51-2.65-.38-1.04-3.5 2.5-1.69 3.99-.36 2.2-.83.5.81 1.3.03Zm-.01-8.17 1.31.71.7 1.98 1.35 2.29-2.09 2.17-1.26 1.02-2.7-1.59-1.3-.03-.5-.81-2.22.83-3.98.36-2.5 1.68-.39-3.2.73-2.82 1.9-1.76 2.38 2.86 1.82-.4-.2-3.3 1.75-1.1 1.08.34 2.27 1.16Zm-.6-8.64.5.64-.9 2.74 1.63 3.72-.63 1.54-1.85.39-2.27-1.16-1.08-.33-1.75 1.1-.24-2.53-.7.68-1.69-1.26-.64-2.38 2.48-1.64 2.54-1.11 2.46.2Zm-28.78 28.47.69 2.16-.67 1.18 1.02 1.5.76 2.27-.14 1.5 1.25 2.7-1.19.5-.73-.46-.65.85-1.94.9-.98 1.1-1.99.99.51 1.28.34 1.81 1.45 1 1.65 1.82-.94 2.01-1.02.58.48 2.8-.25.74-.93-.86-1.4-.11-2.08.8-2.57-.2-.42 1.14-1.47-1.21-.87.22-3.08-1.4-.63.91-2.47-.13.5-3.06 1.56-2.89-4.02-1-1.25-1.2.28-1.89-.5-1 .52-2.9-.15-4.54 1.6.1.76-1.58.88-3.9-.4-1.5.56-.87 2.14-.14.44.97 1.8-2.06-.52-1.64-.02-2.44 1.86.63 1.6-.63v1.66l2.54 1.03-.03 1.53 2.57-.82 1.4-1.2 2.89 1.62Zm27.82 38.49 1.13 1.61 1.14-.5 2.43.26 4.5-.6 1.3-1.38 3.33-1.73 2.48 1.05 1.84.02-1.19 2.1-.5 3.26 1.47 2.17-2.76.03-2.9 1.99.33 2.1-2.78.96-2.46-1.06-2.34 1.6-2.37.27-.62-2.77-1.75-1.1.43-.69-.4-.45.34-1.43.98-1.52-1.76-1.6-.47-1.51Zm17.4 35.37-.24 1.31-4.88 1.31-.06-.7-4.31-.06.41-1.87 2.06 1.07 2.63-.72 2.59-.2.02.73Zm-14.76-23.22 2.37-.27 2.34-1.6 2.46 1.06 2.78-.96-.34-2.1 1.72.8-.5 2.83-.67.63-1.94.26-1.72-.08-3.68 1.78 2.57 1.98-1.53.97-1.8.31-2-1.9-.48 1.02 1.06 2.41 1.9 1.7-1.11 1.13 2.1 1.64 1.8.93.38 2.36-3.24-.6 1.28 1.98-2.07.78 1.75 3.48-2.25.41-3.01-1.4-1.64-3.18-.9-2.71-1.51-1.77-1.96-2.2-.34-1.17 1.3-2.25.04-1.4 1-.75-.07-1.11 2.06-.67 1.1-1.1 1.73-.18.43-.82Zm71.17-4.44-1.14 1.35-1.36-.5-3.57 1.12-1.05 1.2-3.16 2.13-1.62.64-3 2.95-2.52 1.04-1.86-.12-3.08 2.41-1.24-.4.45 2.3-.61 1.19-.6 1.17-1.66-1.41.79-1.93-1.82 1.02-2.9-.03-1.6 3.04-4.8 1.98-3.12-1.43-3.54.84-.4 1.9-2.18 1.08-3.61-1.39-3.6.93-2.7-3.7-2.79-1.79 1.02-3.57-2.39-1.57 2.82-4.75 4.82-1.3.65-3.48 5.97-1 3-3.72 3.17-2.23 4.84-1.68 5.97 1.07 4.67-.02 3.14-1.97 2.58-.67 2.58-3.53 2.88-1.54 3.4.68 1 1.15.47 2.05 2.44-.04 1.53.6-1.47 2.06 2.58 4.04-.1 1.5Zm-61.56.57 2.91-1.99 2.76-.03.69 1.53 2.98.7-.36 1.16-3.65 1.1-1.09 1.58-2.23 2.83-1.34-1.76-.12-.86.67-.63.5-2.83Zm-15.53 6.88.07 1.12-.99.74-.03 1.4-1.3 2.25-.6-.23-.16-.92-1.95-1.22-.47-1.99-.01-2.93.3-1.37-.6-.61-.34-1.34 1.15-2.25.29.78.8-.48.8 1.07.8.34.39 1.51-.24 1.5.65 1.77Zm-16.03-22.78.98.46 2.37 1.65 2.53.6 1.06-.75.88 1.58 1.1 1.12-1.01 1.74-1.46-.81-2.1.26-2.65-.5-1.41.2-.6.95-1.14-.92-.54 1.83 1.62 1.91.76 1.28 1.53 1.5 1.25.85 1.33 1.69 2.92 1.36-.3.75-3.09-1.3-1.93-1.4-2.94-1.07-2.78-3 .6-.35-1.49-1.73-.12-1.45-1.99-.6-.86 1.9-.95-1.4.01-1.5.11-.07 2.12.06.52-.75 1.06.65 1.19.02-.08-1.2 1.03-.5.18-1.76Zm-20.61-3.86.09.76-.46 1.06 1.3.8 1.51.14-.25 1.77-1.31.71-2.2-.6-.7 1.74-1.42.09-.5-.7-1.73 1.39-1.46.13-1.25-.98-.92-1.95-1.46.58.18-1.94 2.29-2.3-.03-1.1 1.3.47.84-.7 2.47.14.63-.91Zm-9.6-11.66.49 1-.28 1.88-.82.04-.6-.42.48-2.4Zm.5-2.9-.5 2.9-.73.1-.47 2.4-2.28-2.15-1.45.21-1.72-2.21-1.09-1.85-1.24-.21-.22-1.55 2.24-.62 1.93.54 2.56-.68 1.55 2.01Zm2.7-11.41.4 1.48-.88 3.9-.76 1.59-1.6-.1.15 4.54-1.43-1.1-1.55-2.02-2.56.68-1.93-.54 1.5-1.04 2.89-6.1 3.66-1.55Zm-52.64 41.76 1.35-.75 1.36-.28.3 2.24 1.8.47.63-.4 1.75.59.43 2.3-1.67.78-.7 3.24-.64.48-.54 1.94h-1.43l.75 2.8-1.45 2.5.87 1.5-.67 1.02-1.52 1.25v1.42l-1.53.73-1.6-1.03h-1.77l1.19-3.08.25-2.6-1.33-.79-.41-1.77.87-2.62 1.6-1.15.6-1.61 1.23-2.31.34-1.77-.27-1.66Zm.62 21.1v-1.42l1.52-1.25.67-1.01-.87-1.5 1.45-2.5-.75-2.82 1.43.01.54-1.94.63-.48.71-3.24 1.67-.78-.43-2.3-1.75-.6-.63.4-1.8-.46-.3-2.24-1.37.28-1.34.75.86-2.91-.78-2.15 4.9-1.86 3.46 1.67 4.02.92 3.07 1.42 2.55.29 4.9 1.05.98 1.87 5.44 2.82 1.25-.76 3.3 2.39 3.72-.13-.07 2.5-3.3 2.49-4.22.36-.46 1.39-2.28 2.06-1.69 3.24.98 2.6-2.14 1.58-1.07 2.61-2.64.43-2.83 2.79-4.27-.74-3.19-.73-2.34 1.02-1.54 1.27-1.58-.71-.98-1.68-.5-2.6Zm19.4-69.23-.32 3.09-2.81 3.3-5.12 1.3-3.37-1.62 3.26-3.76-.03-4.57 4.17-2.35 2.31-1.47-.12 2.35-1.09 2.11 1.51.31Zm274.93 64.58.3 3.5-.47 2.12-1.2 3.33-1.08-.87-1.03-3.7-.33-6.17 1.41-.45 1.12.66Zm1.01-116.87.05 1.75-1.18-2.07-.92-2.64-1.07-4.04-.35-1.68.4.26.93 2.42.95 2.14Zm-61.63 17.35-1.65-1.45.04-2.28-5.86-2.91.92-5.42-.14-1.73-4.65-6.34 2.7-3.38-.95-2.35-3.06-2.63.31-1.98-1.57-3.23v-1.02l2.38 1.14 2.2-.52 2-2.18 2.88.37 3.39 3.62 1.5.22 1.12-2.3 1.02-2.77 2.33-1.38.53-1.19 2.88 1 1.9-.07.2-2.7.95-4.5-.34-3.5.42-2.08 1.64-2.37-.2-2.95.8-.48-1.84-3.87-1.53-4.54-.72-3.67-1.58-3.39-1.94-2.59-1.38-2.18-.88-.15-.96.12-2.23-2.21-.06-1.14-.04-2.04-2.25-3.03-2.29-3.93-2.57-2.5-1.43-1.88-1.66-3.29-.4-1.55-1.16-.64-1.28 1.1-.28 1.32 1.77 2.07.3 1.9.8 1.36-1.07.03-3.64-2.7-2.76-1.89.26-2.02-3.17-3.51-1.38-.42-4.16-2.77-1.52-1.35-1.76-.44-.3.83-2.33-1.94-1.71-2.42-1.36-2.43-.57-2.5.2-1.36 2.43-.5.87-.42 1.44-.25 2.46-.04-1.3-3.07.4-1.77 2.06-.15-2.25-2.89-2.4-1.84-3.39-3.18 3.25 1.43 1.59.93 3.45 1.34 3.62 2 1.47 2.26 2.25 2 1.84.19 3.26 1.36.87 1.09 1.28.48-.5.78 2.05 1.4 3.4 3.77 1.12.24 1.17 1.87-.14.68 2.79 2.36 2.88 3.15 2.72 2.7 2.5 3.65 2.1 2.4 1.96 2.97-1.8-1.95-.76-.06-2.67-2.8-.77.5 1.92 2.53 3.05 3.69 2.33 2.45 1.11 2.45 1.7 1.99 1.23-.21-.41-1.76 1.09.64-.12-1.49-3.04-3.87-.08-1.57-.73-1.53 1.07.4 2.41 3.9 1.85 2.04 2.31 3.27 2.23 2.48.06-1.8 1.76.68 1.28.03.78-.42 1.58 1.38 1.38 2.16.78.35-.15-1 1.82 1.94 1.88 2.2.9 1.69 3 4.14 3.4 4.93 3.2 5.14 3.13 5.95 2.86 5.93 1.29 3.56 1.27 2.83-.2.27 1.27 2.84 1.9 5.35 1 3.55 1.83 3.6.44 1.83-.93-.98-.74-1.66.26 3.28.5 1.82.04 2.42-.47.43-1-1.9.02 2.3-.49.52 1.13 3.89.39 3.24.1 2.4.46 2.25.27 1.95 1.82 2.5-.02 1.56-.37-.34-.66-.97.45 2.99-.32.84-.68 1.27-1.34-3.07-.41 1.4-1.63-1.7.08 3.6-2.1-3.49-1.36-4.97-1.57-2.24-1.51-1.88-.56.66-1.26-.54.02 1.87-.61 2.72-.76-2.06-1.45-.27.63 3.13-.85 1.75.79 4.98 1.01 4.6-.23 2.65-.81.52-.4 1.45-.97 1.38.1 2.24.93 3.97-1.6-1.98-.1 2.32-1.24 3.01-1.54 2.51-1.7.99-1.23 1.56-1.33-.48-.93 1.13-2.5.8-1.62 1.24-.04 1.81-3.26 1.58-2.66.64-2.73-2.64 1.28-1.44-1.06-1.62-1.67-.53-1.68-2.72-4.14-.88-3.28 2.76-2.22-1.66-2.2.3-.94-.47-1.57-1.42-.88-1.29-1.47.7-.26 1.06-2.62-2.32-.13-1.36-.79-.41.26-3.62.5-2.15 1.81-1.98-1.13-2.78 1.36-3.26-.6-1.98.43-5.15Zm39.88-68 3.43 5.09 1.85 3-.61-.34-1.04-1.27-2.4-3.74-2.37-3.82-.12-.66ZM398.13 270.55l1.8.62.34-.82 2.9-.77.68 1.49 4.27 1-.26 2.14.8 1.8-2.43-.55-2.43 1.59.2 2.13-.35 1.23 1.04 2.17 2.98 2.1 1.7 3.48 3.7 3.29 2.5-.17.83.89-.85.9 2.99 1.35 2.47 1.1 2.96 1.95.4.77-.48 1.57-1.98-1.81-2.9-.46-1.2 2.85 2.5 1.39-.25 2.25-1.38.36-1.59 3.75-1.4.42-.05-1.3.57-2.31.68-.96-1.43-2.37-1.13-2.08-1.38-.46-1.05-1.8-2.14-.67-1.46-1.67-2.42-.2-2.56-1.9-2.95-2.75-2.15-2.48-.94-4.26-1.53-.52-2.5-1.48-1.43.54-1.87 1.92-1.3.26.43-1.85-1.65-.63-.62-3.37 1.12-1.25-.8-1.67.18-1.2 1.25.98 1.46-.13 1.74-1.4.5.71 1.42-.1.69-1.72 2.2.6 1.31-.72Zm14.39 37.18 2.56-.5-1.07 3.4.56 1.27-.62 2.2-2.71-1.45-1.77-.39-4.82-2.01.43-2.19 3.98.28Zm-20.24-11.54 1.66-1.27 1.9 3.07-.55 5.63-1.51-.31-1.4 1.38-1.24-1.17.03-5.14-.68-2.46Zm4.87-60.56-1.6.63-1.86-.63-.91-2.42.12-4.38.44-1.14.73-1.26 2.07-.2.85-1.17 1.87-1.19-.1 2.2-.7 1.39.27 1.2 1.29.66-.6 1.61-.71-.47-1.8 3.06Zm5.98-4.85.81 2.14-1.4 3.5-2.61-2.4-.35-1.8Zm-46.46 4.67-1.6-1.3-1.52-.32 1.1-2.1.11-2.36 2.01.32 1.9 3.18Zm7.21 3.59.85-2.39-1.1-2.91-.02-.07-2.75-1.35-.3-1.26 1.29-1.68-.5-1.33-1.74 1.7.85-4.06-.61-2.39 1.9-4.11 2.55-3 1.65.7 2.7.18-3.36 4.06 2.41-.12 2.45.47-1.26 3.32-2.86 3.38 2.38.73.1.47 1.23 5.36 1.56.95.77 5.08.47 1.79 3 1.23-.68 2.7-1.5 1.07.75 2.35-2.71 1.92-3.58-.58-4.75.4-1.09-1.07-2.14 1.64-2.37-.99-2.21 1.21-1.23-1.16 4.83-3.59 2.52-.44h-.02l-3.9-1.55-.35-1.83 2.96-.74-.89-2.57 1.08-2.66Zm-6.57-59.28-1.47 2.36.69 3.29-3.44 2.18-6.07.73-1.79.08-1.9-1.53-3.82-3.35 2.49-.86-2.28-3.5 3.1.68.57-1.12-2.59-2.45 2.45-1.83 2.5.59.88 3.6 3.39-.98 1.36 1.88 3.5-1Zm149.3 86.65.78-.27 2.83 1.36 1.26-.39.01-1.23.84-2.43 2.27 1.22 2.54 1.92 1.28-.55 1.26.54-1.97 1.6.88 3.22.14 1.6-.58 1.47.89 1.85-.59.58-2.53-1.03.1-2.42-1.26-.68-.88.86-2 4.6-1.17-2.64-1.48.01-1.58-.44.25-1.64-1.98-.58.14-1.26-1.3-.14-.97-.75.4-.97 2.45.07 1.53-.52.17-.66-2.19-1.4Zm4.3 12.47-2.09.49-2.11-1.08-1.02-1.25.54-.4 1.22.63 1.22-.64.23.6Zm-24.1-10.4.16-.62 2.56-.31 4.23-1.14 4.4.16.75.5 1.37-1.42 2.8-.43 1.48 1.17 2.04.02-.45.9 2.19 1.4-.17.66-1.53.52-2.45-.07-.4.98-3.54 2.49-3.4-.68-2.88 1.54-.2-1.89-1.7-2.4-2.12-.78-1.7.2ZM625.78 158.1l-.98-2.1-.17-.41-2-4.03-1.58-3.06-.84-1.78-.53-1.14-.78-1.48.19.3.76 1.44.26.48 3.81 7.75Zm21.48 90.51.01.46-.06 1.66-.12-1.05-.18.02-.28-1.87-.22-.35-.3-2.4-.22-.46-.08-1.06.24-1.45.23 1.18-.07-2.49-.21-2.21.02-.49.2-.25.2.5.21 1.7.15 1.6.08.65.13 1.41-.02-.38.01.14Zm-239.15 23.46 2.47.23 1.44-1.06 2.58-.25.52-.77.5.01.67 1.42-2.29 1.3-.18 1.76-1.03.5.08 1.2-1.2-.02-1.05-.65-.52.75-2.12-.06.66-.42-.79-1.8Zm18.5-98.76.63 2.82 3.18 2.04-.5 3.35 3.34 4.04-.07 3.72 2.52 2.57.1 2.82 3.6 2.02-.02 2.25-1.03 2.81-2.74 6.28-3.63 1.14-3.32 2.23-3.26 1.46-1.63-2.1-2.25-1.08-.22-4.18-1.57-3.63.52-2.55 1.26-2.85 3.26-5.15.98-1.07-.58-1.7-2.84-1.47-.9-1.49-1.38-6.22-3-2.35-2.39-1.69.72-1.18 2.09 1.88 1.94-.52 1.85.68 1-2.04-.03-3.05 1.83-1.8 2.3 1.12Zm5.66 85.31-.6 1.23-.31 1.8-.54.54-3.19-.9-.88.39-.55 1.09-1.27.7-.34-.25-1.31.83-1.13.25-.14.88-2.37.76-1.1-.38-1.55-.98-.4-1.47.19-.56.32-.98 1.26-.03.93-.53.03-.41.53-.25.1-1 .62-.25.35-.81.82-.1.2.25 1.07-.71 1.57 1.37 1.54-1.12 1.37.27 1.9-.88Zm-21.6-6.54 1.38 1.32 2.05.25-.08 1.2 1.55.78.32-1.15 1.92.33.38 1.32 2.08.08 1.47 1.99-.82.09-.35.81-.63.25-.09 1-.53.25-.03.4-.93.54-1.26.03-.32.98-1.37-.72-1.32.32-2.27-1.18-.98.37-1.52 1.84-2.17-1.3-1.65-1.81-1.45-1-.34-1.82-.5-1.28 1.98-.98.98-1.1 1.94-.9.65-.86.73.46Zm91.97 131.95-.6-1.24.9-5.73v-2.48l1-1.53 2.62-1.6 1.52-2.76 2.81 3.27 1.54 2.8 2.27.88 5.48 1.13 2.3 1.06 2.27 1.06 1.3.64 1.9.19-.94 1.32-1.59.43-1.39-.52-1.78-1.31-1.78-.37-1.1-.77-3.4-.02-2.53 1-1-.36-2.05 1.68-2.47-.7-.8 3.03Zm42.58-321.44 4.08 2.67 2.06.93 2.42 1.56.6.16 2.52 1.84 3.73 3.22 3.88 3.86 5.21 4.6.6 1.01-1.42-.87 3.84 4.23 3.2 3.38 2.16 2.77-.34-1.35 4.63 4.12 2 2.22.12.58-2.24-2 .53 1.1-.7-.05-2.3-2.72-2.23-2.13-2.91-3.07-2.79-2.58-4.4-4.86-1.67-2.11-5.82-4.29-.34-.9-5.13-4.09-2-1.53-3.91-2.36-2.08-.6-2.26-1.3-2.6-2.14 1.8-.01Zm-16.07-8.02-2.44-1.38 1.92.1 3.81 2.71 4.03 2.14 1.82 2.44 3.55 1.73 2.3 2.12-1.95-.44-2.75-1.43-2.27-1.98-3.75-1.27-2.4-.88.01-1.58-.85-1.17Zm47.28 34.72-2.26-2.11-.85-1.16-1.64-1.5-1-1.38.44.16 2.31 2.1.17.5 1.46 1.52 1.68 1.43.67 1.13Zm-23.14 252.2 3.88 4.06 1.6 1.69-2.03 2.42-.25 1.9.2 1.2-2.84 3.48-4.84 4.78-2.49 4.13-1.42 1.03-1.04.38-1.72 2.5-2.06 1.84-2.85 1.72-.83.65-.62 1.28-.87.72-.4 1.12-1.75.8-1.06 1.02-2.48 1.03-1.22-1.52-.2-1.9-.74-.71-1.11-2.2-1.27-.94.69-.5-.65-1.4.32-.87-.43-1.44 1.32-1.84-.63-1.3.6-2.18 1.6.22.87-.77 3.95-2.08.69.03 3.35-1.38 1.25-.87 1.09.7 1.44-1.46 1.54-4.98 2.65-3.34Zm-65.97-10.97 3.97-.7 1.19-1.73.47-1.7 2.44-1.5.23-1.5.93-1.1-4.3-2.67 6.04-4.5.45-.84 4.18-.55 5.53.63 11.24 3.42 5.86-2.72 2.85-1.14 1.35 1.35 2.1-1.32 2.26 2.5 1.77-.04.94.98 2.57.3.67 1.39.11 1.4.78.98 1.2.48.78.93.73.6 1.14.14.75-.79 1.02 1 .38.75 2.28 2.87 9.41-4.36.34-1.16 2.11 1.5.24 8.35-8.04 9.71-8.76 7.03-2.65 3.34-1.54 4.98-1.44 1.45-1.1-.7-1.24.88-3.35 1.38-.69-.03-3.95 2.08-.87.77-1.6-.22-.6 2.17.63 1.3-1.32 1.84-.75-1.26-1.25-.57-.54-1.27-2.06-.44-2.46-2.14-1.58-2.48-2.94-1.43-1.7.07-3.05-2.51-.93-2.4-.3-2.25-2.9-3.32-1.95-.83-2.06-.05-1.63-1.73.01-.92-1.39-1.61-1.2-.48-1.97-2.36-2.8-2.35-2.34-2.06-1.74.6.1-2.32-.15-1.42Zm-12.63-20.68.22-.1.25-1.12 2.36-.67 2.65-2.15-1.77 2.42.43.68-.39-.03-.55.5-.51.08-.13.2-.15-.38-.3-.18-.64.15-.8.62Zm0 0 .66.02.8-.62.65-.15.3.18.15.38.13-.2.51-.07.55-.5.39.02.17.3-2.98 2.7-1.74-.04-1.12-1.4Zm-121.05 6.64.94 2.88-.12 2.54.67 4.55.82 1.02-.84 1.48-4.74-.13-1.82 1.2-2.11-.05-.58 2.97-4.41.72-1.68 1.7-3.1.41-3.67-.25-6.27 1.42-.79 4.67-.54-.15-.27 2.12-2.26-.5-1.33.56-1.63-.48-1.2-.89-3.08-.5-1.75 2.63-1.16-.07-2.61 4.28-5.78 2.37-2.18 4.75-1.8 1.13-.68 1.17-8.12-2.81-.06-.03.51-1.64 1.56-.47 1.56-1.47.03-1.35 1.77-2.16 2.47-1.64 1.3-.16 1.41-1.86.5-2 1.77-1.9 2.63-.56 3.07-3.17.07-.03 2.06-.9 3.36.63 3.29-1.81 1.97-.52 3.57-2.44.1-5.2 2-3.06.88-2 2.74-2.11 3.76-.95 2.84-1.04 3.04-3.69 1.5-2.27 2.48.58 1.73 2.19 3.28.38 3.41 1.6Zm146.2 39.76-14.54 4.87-14.6 4.01-15.48 3.36-1.55-14.2-1.7-14.07-1.5-3.04.6-2.66-.78-1.63 1.04-2.19 4.72-1.01 3.58.32 3.7.4 1.74.22 2.49-1.95 1.22-1.52 3-1.16 2.57-.18 1.32 1.71.55-1.54 2.94.12 2.72-.61 1.47-1.54 3.17 5.13.56.9-.62 1.9-.13 3.2-.53 2.35-.69.94-1.43-.88-1.93-1.25-3.61-4.9-.3.47 2.27 3.73 2.94 3.27 3.86 5.18 1.72 1.66 1.57 1.78 4.03 3.1-.59.91.58 2.4 4.83 1.87Zm-44.62 12.24.74 7.52-4.55.83.1 1.57-16.4-4.9-16.17-5.93-3.93 2.34-2.78 1.56-2.28-2.03-6.3-1.53-1.74-2.42-3.1-1.82-1.85.7-1.38-2.2-.14-1.69-2.26-2.93 1.55-1.62-.3-2.51.52-2.18-.26-1.85.7-3.27-.18-1.89-1.16-3.62 1.83-.91.34-1.73-.38-1.7 2.54-1.56 1.14-1.31 1.77-1.19.2-3.18 4.27 1.37 1.52-.39 3.05.59 4.88 1.62 1.87 3.56 3.34.57 5.29 1.28 4.07 1.63 1.72-1.25 1.6-2.08-1.11-3.03.96-2.13 2.41-2.25 2.42-.9 4.9.13 1.44 1.63 1.33-.21 1.22.5 3.6-.15 1.06 1.17-1.04 2.19.78 1.63-.6 2.66 1.5 3.04 1.7 14.08Zm91.29 17.92-9.05 14.6-4.68 2.48-3.11 3.68-2.35 1.14-.97 1.4-2.54 1.14-1.56-.35-3.37 2.71-1.06 1.71-2.55.8h-.86l-.9.43-1.2.44-5-.71-2.7.97-1.39-.52-.09-1.72-2.07.19-2.52-2.6-1.84-.14-.77-1.04-2.1-.91-2.46.53 1.22-2.25 2.09-.73.51-1.18-.3-2.9.85-3.82 1.76-1.55.26-1.49 1.38-3.12 2.14-2.48 1.13-3.9.23-3.18 4.47-.9.8-3.02 2.48.7 2.06-1.69 1 .37 2.52-1.01 3.4.02 1.1.77 1.78.37 1.78 1.3 1.4.53-1.07 2.06-1.02 2.12.41.78.18.98 2.04-.87.84-.64.89.22-.65 1.53 1.57 1.17 1.5.93 1.52.48 11.98-2.2Zm-21.09-4.93 1.59-.43.95-1.32 1 .63.08 1.44-1.92 1.76 1.66.18-1.08 2.39-.89-.22-.84.64-2.04.87-.18-.98-.4-.79 1-2.11Zm23.51-8.27-.01.06.2 1.36.48 3.26.24 1.67-1.27 2.85-2.06 4-2.89 1.64-11.98 2.2-1.51-.5-1.51-.93-1.57-1.16.65-1.53 1.08-2.4 1.26.05.88 1.03 1.78.58 1.77-.87 3.2-2.53 3.73-2.4 2.88-2.7 1.65-1.16 1.11-1.3ZM496 435.5l-8.17 2.7-4.44 1.2-1.44.72-2.45 1.48-.98-.02.05-2.09.96-1.3.22-2.33.85-1.55 1.54-1.9 1.56-1.2 1.28-1.4-1.63.05.15-3.53 1.65-1.28 2.58-.05 3.22-1.66 2.8-.85 2.4-2.17 1.96 1.48.5 1.34 1.84 2.79-1.4 2.59-1.94 2.53-1.14 1.5Zm-14.05 4.62 1.6 1.1-.27 1.66-1.18.65-2.15.4-1.29 1.83-2.49.42.42-1.55.57-.35.17-1.64 1.19-1.06.98.02Zm-58.24-152.46-2.92-1.36-1.33-1.7-1.25-.84-1.53-1.5-.76-1.28-1.62-1.91.54-1.83 1.14.92.6-.94 1.4-.2 2.67.49 2.09-.26 1.46.8 1.09-.12-.57 1.96 1.65 1.48-.25 2.07-.7.27-.55.45-.91 1.1Zm12.16-.1 1.75 1.1.62 2.77-.59.24-.43.82-1.73.17-1.1 1.1-2.06.68-1.45-.86-.65-1.77.24-1.5.4-.01.05-.9 1.78-.9.69-.26 1.04-.4Zm-12.64-13.94 2.16-1.38 1.86-.03 1.81 1.48.5 1.32 1.95.76.47 1.73 1.92.98.81-1.1.83.42-.6.82.65.66-.6 1.08.47 1.51 1.76 1.6-.98 1.52-.34 1.43.4.45-.44.68-1.43.28-1.04.4-.14-.3.3-.56.22-1.08-.43.09-.7-.7-.55-.14-.48-.62-.62-.18-.51-.55-.54.3-.26 1.48-.7.4.2-.4-1.29-.74-1.07-.34-.5-.54-.9-.64.7-.27.25-2.07-1.65-1.48.57-1.96-1.09.13 1-1.74-1.08-1.12Zm5.26 13.77-.81.48-.29-.78-1.15 2.25.34 1.34-.7-.26-1.02-1.3-1.44-.7.29-.76.25-2.4.91-1.1.54-.45.9.64.51.54 1.07.34 1.29.74-.2.4Zm1.98 2.92-.4-1.51-.79-.34-.8-1.07.5-1.02.7-.4.26-1.47.54-.31.51.55.62.18.48.62.54.13.7.7.44-.08-.22 1.08-.3.57.14.3-.69.26-1.78.9-.05.9Zm-262.7-6.07.84 1.38.25.75-.6 2.07-1.16-2.25-.16-.82.57.1Zm315.73 142.1-3.64-1.06-1.01-1.04-2.26 1.22-1.9.26-1.09.77-1.85.07-2.6-1.96-.68-.84-3.15-.56-1.12-1.67-1.78-1.02-2.87-1.11-.07-1.04-2.34-.88-2.88-.76 1.25-.58 1.4-.87.92-3.14 1.05-1.75 2.94-1.03.76.77 2.23 1.5 1.15.04 1.44-.88 2.95-.55.6.55 4.06-.96.09-.71 2.04-1.15.35-1.07 1.47-1.07 3.51 1.03 2.05-.92 1.78-2.94 2.01-2.47-.51-1.92-1.05-.7 2.36-.88.19-.83 1.84-.33-.23 2.64.7 2.26 2.14.67.57.99.07 1.65.56-.1.25 2.51-.52 1.18-2.09.73-1.22 2.25 2.45-.53 2.11.91.77 1.04 1.84.14 2.52 2.6-2.56 2.92-2.35 2.6-2.4 2.17-2.8.85-3.22 1.66-2.58.05Z"/><path fill="rgba(0,0,0,.45)" d="m472.31 22.8-4.88-1.38-5.78-1.33-5.85-1.05-5.92-.75-5.98-.46-6.03-.16-6.08.13-6.11.43-6.15.71-6.17 1.02-6.2 1.3-6.19 1.6-6.2 1.88-6.19 2.17-6.18 2.45-6.15 2.73-6.13 3.01-6.1 3.29-6.04 3.55-6 3.82-5.93 4.08-5.87 4.33-5.8 4.59-5.72 4.82-5.64 5.07-5.53 5.3-5.44 5.53-5.33 5.74-5.22 5.96-5.1 6.16-4.97 6.36-4.84 6.55-4.7 6.73-4.55 6.9-4.4 7.08-4.26 7.22-4.1 7.38-3.92 7.51-3.76 7.65-3.58 7.76-3.4 7.88-3.23 7.97-3.03 8.07-2.85 8.15-2.65 8.22-2.45 8.28-2.25 8.34-2.05 8.37-1.85 8.41-1.63 8.43-1.43 8.44-1.22 8.44-1 8.43-.8 8.41-.56 8.38-.36 8.34-.15 8.29.08 8.23.29 8.15.5 8.08.73 7.99.93 7.89 1.15 7.77 1.37 7.66 1.57 7.53 1.78 7.39 1.98 7.24 2.2 7.09 2.38 6.92 2.6 6.75 2.78 6.57 2.97 6.39 3.16 6.18 3.35 5.98 3.53 5.77 3.7 5.55 3.88 5.32 4.04 5.1 4.2 4.85 4.36 4.61 4.51 4.36 4.66 4.1 4.8 3.85 4.92 3.59 5.06 3.31 5.18 3.04 5.3 2.76 5.4 2.49 5.5 2.2 5.61 1.91.81.25-8.22-2.67-8.12-2.95-8-3.23-7.9-3.52-7.76-3.78-7.63-4.06-7.49-4.31-7.32-4.58-7.17-4.83-6.99-5.07-6.8-5.32-6.62-5.55-6.42-5.78-6.22-6-6-6.22-5.78-6.41-5.56-6.62-5.32-6.8-5.08-7-4.83-7.16-4.58-7.32-4.32-7.48-4.06-7.63-3.79-7.76-3.51-7.9-3.24-8-2.96-8.12-2.67-8.22-2.38-8.3-2.1-8.38-1.8-8.45-1.5-8.5-1.2-8.56-.9-8.6-.6-8.61-.31-8.64v-8.63l.3-8.64.6-8.62.9-8.59 1.2-8.55 1.5-8.51 1.8-8.45 2.08-8.38 2.38-8.31 2.67-8.22 2.95-8.12 3.23-8 3.52-7.9 3.78-7.76 4.06-7.63 4.31-7.49 4.58-7.32 4.83-7.17 5.08-6.99 5.31-6.8 5.55-6.62 5.78-6.42 6-6.22 6.22-6 6.41-5.78 6.62-5.56 6.8-5.32 7-5.08 7.16-4.83 7.32-4.58 7.48-4.32L287.6 39l7.76-3.79 7.9-3.51 8-3.24 8.12-2.96 8.22-2.67 8.3-2.38 8.38-2.1 8.45-1.8 8.5-1.5 8.56-1.2 8.6-.9 8.61-.6 8.64-.31h8.63l8.64.3 8.62.6 8.59.9 8.55 1.2 8.51 1.5 8.45 1.8 8.38 2.08z"/><path fill="none" stroke="rgba(48,186,120,.2)" d="m400 507-8.64-.15-8.62-.45-8.61-.76-8.57-1.05-8.54-1.35-8.48-1.65-8.42-1.94-8.34-2.24-8.26-2.52-8.17-2.82-8.06-3.1-7.96-3.37-7.83-3.65-7.7-3.92-7.55-4.19-7.4-4.45-7.25-4.7-7.08-4.96-6.9-5.2-6.71-5.43-6.52-5.67-6.32-5.9-6.1-6.1-5.9-6.32-5.67-6.52-5.43-6.71-5.2-6.9-4.96-7.08-4.7-7.25-4.45-7.4-4.19-7.56-3.92-7.7-3.65-7.82-3.38-7.96-3.1-8.06-2.8-8.17-2.53-8.26-2.24-8.34-1.94-8.42-1.65-8.48-1.35-8.54-1.05-8.57-.76-8.6-.45-8.63-.15-8.64.15-8.64.45-8.62.76-8.61 1.05-8.57 1.35-8.54 1.65-8.48 1.94-8.42 2.24-8.34 2.52-8.26 2.82-8.17 3.1-8.06 3.37-7.96 3.65-7.83 3.92-7.7 4.19-7.55 4.45-7.4 4.7-7.25 4.96-7.08 5.2-6.9 5.43-6.71 5.67-6.52 5.9-6.32 6.1-6.1 6.32-5.9 6.52-5.67 6.71-5.43 6.9-5.2 7.08-4.96 7.25-4.7 7.4-4.45 7.56-4.19 7.7-3.92 7.82-3.65 7.96-3.38 8.06-3.1 8.17-2.8 8.26-2.53 8.34-2.24 8.42-1.94 8.48-1.65 8.54-1.35 8.57-1.05 8.6-.76 8.63-.45L400 12l8.64.15 8.63.45 8.6.76 8.57 1.05 8.54 1.35 8.48 1.65 8.42 1.94 8.34 2.24 8.26 2.52 8.17 2.82 8.06 3.1 7.96 3.37 7.83 3.65 7.7 3.92 7.55 4.19 7.4 4.45 7.25 4.7 7.08 4.96 6.9 5.2 6.71 5.43 6.52 5.67 6.32 5.9 6.1 6.1 5.9 6.32 5.67 6.52 5.43 6.71 5.2 6.9 4.96 7.08 4.7 7.25 4.45 7.4 4.19 7.56 3.92 7.7 3.65 7.82 3.38 7.95 3.1 8.07 2.8 8.17 2.53 8.26 2.24 8.34 1.94 8.42 1.65 8.48 1.35 8.53 1.05 8.58.76 8.6.45 8.63.15 8.64-.15 8.64-.45 8.63-.76 8.6-1.05 8.57-1.35 8.54-1.65 8.48-1.94 8.42-2.24 8.34-2.52 8.26-2.82 8.17-3.1 8.06-3.37 7.96-3.65 7.83-3.92 7.7-4.19 7.55-4.45 7.4-4.7 7.25-4.96 7.08-5.2 6.9-5.43 6.71-5.67 6.52-5.9 6.32-6.1 6.1-6.32 5.9-6.52 5.67-6.71 5.43-6.9 5.2-7.08 4.96-7.25 4.7-7.4 4.45-7.56 4.19-7.7 3.92-7.82 3.65-7.96 3.38-8.06 3.1-8.17 2.8-8.26 2.53-8.34 2.24-8.42 1.94-8.48 1.65-8.54 1.35-8.57 1.05-8.6.76-8.63.45z"/><g class="pins" transform="translate(400 259.5)"><circle r="16" fill="#30ba78" opacity=".18"/><circle r="9.5" fill="none" stroke="#30ba78" stroke-width="1.8" opacity=".75"/><circle r="5" fill="#30ba78"/><g class="pin-label"><rect width="83.75" height="20" x="6" y="-25" fill="rgba(5,15,12,1)" rx="3"/><text x="11" y="-11" fill="currentColor" stroke="rgba(5,15,12,0)" stroke-linejoin="round" stroke-width="3" font-family="SUSE, ui-sans-serif, sans-serif" font-size="11" font-weight="700" letter-spacing=".07em" paint-order="stroke">NUREMBERG</text></g></g></g></svg></svg>