<svg xmlns="http://www.w3.org/2000/svg" width="800" height="600" viewBox="0 0 800 600"><path fill="#30ba78" d="M0 0h800v600H0z"/><path fill="#fff" d="M69.79 72.29q-1.68 0-2.92-.62t-2.1-1.63l1.41-1.43q.86.9 1.76 1.32t1.93.42q1.43 0 2.25-.69.81-.7.81-1.8 0-.81-.43-1.32-.43-.5-1.12-.81t-1.53-.54q-.83-.23-1.67-.52-.84-.28-1.53-.73t-1.12-1.18-.43-1.87q0-1.41.65-2.43t1.84-1.58q1.18-.57 2.77-.57 1.43 0 2.57.5 1.15.49 1.89 1.33l-1.45 1.47q-.66-.68-1.38-1.02-.73-.34-1.65-.34-1.35 0-2.16.67t-.81 1.75q0 .77.43 1.23.42.46 1.13.75.7.29 1.55.5.85.2 1.68.48.84.27 1.54.74t1.14 1.22q.42.76.42 1.94 0 1.46-.69 2.52-.69 1.07-1.92 1.65-1.24.59-2.86.59m16.06 0q-2.67 0-4.26-1.4-1.6-1.4-1.6-4.15V56.6h2.29v9.97q0 1.76.97 2.67t2.6.91 2.6-.91.98-2.67V56.6h2.29v10.14q0 2.75-1.61 4.15-1.6 1.4-4.26 1.4m15.53 0q-1.67 0-2.92-.62-1.24-.62-2.1-1.63l1.41-1.43q.86.9 1.76 1.32t1.94.42q1.43 0 2.24-.69.81-.7.81-1.8 0-.81-.42-1.32-.43-.5-1.13-.81-.69-.31-1.53-.54-.83-.23-1.67-.52-.83-.28-1.53-.73-.69-.45-1.12-1.18t-.43-1.87q0-1.41.65-2.43t1.84-1.58q1.19-.57 2.77-.57 1.43 0 2.57.5 1.15.49 1.9 1.33l-1.46 1.47q-.66-.68-1.38-1.02-.73-.34-1.65-.34-1.34 0-2.16.67-.81.67-.81 1.75 0 .77.43 1.23t1.13.75 1.55.5 1.68.48 1.54.74q.71.46 1.14 1.22t.43 1.94q0 1.46-.7 2.52-.69 1.07-1.92 1.65-1.23.59-2.86.59m12.71-.29q-1.1 0-1.8-.7-.7-.71-.7-1.81V59.11q0-1.1.7-1.81.7-.7 1.8-.7h7.29v2.09h-6.56q-.42 0-.69.29-.28.28-.28.7v3.59h7.06v2h-7.06v3.65q0 .42.28.7.27.29.69.29h6.56V72zm19.23.29q-1.63 0-3.07-.58-1.44-.57-2.52-1.61-1.07-1.05-1.68-2.48t-.6-3.14v-.36q0-1.71.6-3.14.61-1.43 1.68-2.48 1.08-1.04 2.52-1.61t3.07-.58q1.5 0 2.74.46 1.24.45 2.23 1.28l-1.45 1.74q-1.45-1.23-3.52-1.23-1.58 0-2.84.7-1.25.71-1.98 1.96-.72 1.25-.72 2.9v.36q0 1.65.72 2.9.73 1.25 1.98 1.96 1.26.7 2.84.7 2.11 0 3.57-1.3l1.47 1.72q-.99.88-2.28 1.35t-2.76.48m15.71 0q-2.16 0-3.86-1-1.71-1.01-2.68-2.8t-.98-4.15v-.17q0-2.33.98-4.1.97-1.78 2.68-2.77 1.7-.99 3.86-.99 2.18 0 3.87.99 1.7.99 2.66 2.77.97 1.77.97 4.1v.17q0 2.36-.97 4.15-.96 1.79-2.66 2.8-1.69 1-3.87 1m0-2.25q1.5 0 2.66-.69t1.83-1.98.66-3.03v-.17q0-1.72-.66-2.97t-1.83-1.95q-1.16-.69-2.66-.69-1.52 0-2.68.69t-1.83 1.95q-.66 1.25-.66 2.97v.17q0 1.74.66 3.03t1.83 1.98q1.16.69 2.68.69M161.55 72V56.6h2.09l7.52 11.37V56.6h2.29V72h-2.07l-7.54-11.4V72zm24.55 0v-1.69l5.52-5.59q1.1-1.08 1.5-1.93t.39-1.66q0-1.19-.71-1.89-.72-.7-1.95-.7-1.01 0-1.88.55t-1.55 1.58l-1.5-1.43q.88-1.34 2.17-2.1t2.83-.76q1.47 0 2.58.57t1.73 1.6.62 2.36q0 1.17-.58 2.4-.57 1.23-2.04 2.73l-3.9 3.91h7.13V72zm20.57.22q-2.66 0-4.18-2.08t-1.52-5.82q0-3.76 1.52-5.85t4.18-2.09q2.68 0 4.19 2.09t1.51 5.85q0 3.74-1.51 5.82t-4.19 2.08m0-2.07q1.63 0 2.52-1.49.89-1.5.89-4.34 0-2.86-.89-4.36t-2.52-1.51-2.52 1.51q-.89 1.5-.89 4.36 0 2.84.89 4.34.89 1.49 2.52 1.49M216.9 72v-1.69l5.52-5.59q1.1-1.08 1.5-1.93t.39-1.66q0-1.19-.71-1.89-.72-.7-1.95-.7-1.01 0-1.88.55t-1.55 1.58l-1.5-1.43q.88-1.34 2.17-2.1t2.83-.76q1.47 0 2.58.57t1.73 1.6.62 2.36q0 1.17-.58 2.4-.57 1.23-2.04 2.73l-3.9 3.91h7.13V72zm20.7.22q-1.69 0-2.93-.65t-1.93-1.84-.68-2.79q0-1.06.42-2.1.41-1.05 1.14-2.1l4.27-6.14h2.73l-4.16 5.65q.75-.28 1.6-.28 1.48 0 2.61.66t1.77 1.8q.64 1.15.64 2.64 0 1.56-.69 2.72-.7 1.15-1.93 1.79t-2.86.64m-.04-1.98q1.43 0 2.32-.88t.89-2.29-.89-2.3-2.28-.89q-1.45 0-2.34.89t-.89 2.3q0 1.43.88 2.3t2.31.87"/><path fill="#0c322c" d="M627.06 68.31q-2.17 0-3.91-.99t-2.74-2.78-1-4.17v-.16q0-2.37 1-4.16 1-1.78 2.74-2.77t3.91-.99q2.2 0 3.92.99t2.72 2.77 1 4.16v.16q0 2.37-1 4.17t-2.72 2.78-3.92.99m0-3.04q1.3 0 2.3-.58t1.58-1.68.57-2.64v-.16q0-1.52-.57-2.62-.58-1.1-1.58-1.68t-2.3-.58-2.31.58-1.58 1.68-.57 2.62v.16q0 1.54.57 2.64t1.58 1.68 2.31.58M638.72 68V52.6h5.81q2.47 0 3.97 1.28 1.51 1.27 1.51 3.67 0 1.72-.76 2.86t-2.1 1.67l3.32 5.92h-3.54l-2.9-5.46h-2.18V68zm5.66-12.78h-2.53v4.73h2.53q1.08 0 1.76-.63t.68-1.73q0-1.05-.68-1.71t-1.76-.66M656.83 68q-1.14 0-1.88-.74-.74-.73-.74-1.88V52.6h3.1v11.86q0 .26.19.44t.45.17h6.23V68zm9.24 0 5.52-15.4h3.85l5.52 15.4h-3.19l-1.23-3.56h-6.05L669.26 68zm5.32-6.18h4.27l-2.13-6.25zM684.22 68V52.6h2.79l6.74 9.9v-9.9h3.1V68h-2.73l-6.78-9.94V68zm17.42 0V52.6h5.72q1.65 0 3.06.55t2.44 1.56 1.62 2.4.58 3.06v.22q0 1.67-.59 3.07-.59 1.39-1.64 2.41-1.04 1.01-2.44 1.57t-3.03.56zm5.48-12.5h-2.35v9.6h2.35q1.39 0 2.47-.6 1.07-.59 1.68-1.65.6-1.05.6-2.46v-.22q0-1.41-.59-2.45t-1.67-1.63-2.49-.59m18.86 12.81q-2.18 0-3.92-.99t-2.74-2.78-1-4.17v-.16q0-2.37 1-4.16 1-1.78 2.74-2.77t3.92-.99q2.2 0 3.91.99 1.72.99 2.72 2.77 1 1.79 1 4.16v.16q0 2.37-1 4.17t-2.72 2.78q-1.71.99-3.91.99m0-3.04q1.29 0 2.3-.58t1.57-1.68.57-2.64v-.16q0-1.52-.57-2.62t-1.57-1.68-2.3-.58-2.31.58-1.59 1.68-.57 2.62v.16q0 1.54.57 2.64t1.59 1.68 2.31.58"/><path fill="#fff" d="M656.4 98v-2.18h2.72v-7.19q0-.35-.34-.35h-2.46V86.1h3.13q.88 0 1.45.57t.57 1.44v7.71h2.67V98zm14.66.17q-2.16 0-3.37-1.59t-1.21-4.5q0-2.94 1.21-4.54 1.21-1.61 3.37-1.61 2.14 0 3.34 1.61 1.2 1.6 1.2 4.54 0 2.91-1.2 4.5t-3.34 1.59m0-2.16q2.12 0 2.12-3.93 0-3.99-2.12-3.99-2.16 0-2.16 3.99 0 3.93 2.16 3.93m6.85-3.84v-2.5h2.53v2.5zm0 5.83v-2.52h2.53V98zm9.42.17q-2.16 0-3.37-1.59t-1.21-4.5q0-2.94 1.21-4.54 1.21-1.61 3.37-1.61 2.14 0 3.34 1.61 1.2 1.6 1.2 4.54 0 2.91-1.2 4.5t-3.34 1.59m0-2.16q2.12 0 2.12-3.93 0-3.99-2.12-3.99-2.16 0-2.16 3.99 0 3.93 2.16 3.93m11.05 2.16q-2.16 0-3.37-1.59t-1.21-4.5q0-2.94 1.21-4.54 1.21-1.61 3.37-1.61 2.14 0 3.34 1.61 1.2 1.6 1.2 4.54 0 2.91-1.2 4.5t-3.34 1.59m0-2.16q2.12 0 2.12-3.93 0-3.99-2.12-3.99-2.16 0-2.16 3.99 0 3.93 2.16 3.93M708.42 98l4.27-11.9h2.98l4.26 11.9h-2.46l-.95-2.75h-4.68l-.95 2.75zm4.12-4.78h3.3l-1.65-4.82zm9.57 4.78V86.1h3.23l2.67 6.15 2.65-6.15h3.23V98h-2.35v-8.7l-2.65 6.34h-1.78l-2.66-6.34V98z"/><path fill="#0c322c" d="m669.16 121.5-2.41-8.4h1.27l1.79 6.56 2.03-6.56h1.38l2.02 6.56 1.78-6.56h1.28l-2.43 8.4h-1.27l-2.08-6.85-2.06 6.85zm12.46 0q-.6 0-.98-.38-.39-.39-.39-.99v-5.66q0-.6.39-.99.38-.38.98-.38h3.97v1.14h-3.57q-.23 0-.38.16-.15.15-.15.38v1.96h3.85v1.09h-3.85v1.99q0 .23.15.38.15.16.38.16h3.57v1.14zm6.43 0v-8.4h2.93q1.18 0 2.11.52.94.52 1.48 1.44t.54 2.12v.13q0 .93-.31 1.69-.32.77-.88 1.33t-1.31.86q-.75.31-1.63.31zm2.83-7.22h-1.58v6.04h1.58q.86 0 1.52-.37.67-.38 1.05-1.06.39-.68.39-1.58v-.13q0-.86-.38-1.52t-1.05-1.02-1.53-.36m5.68 7.22v-1.48h1.42v2.25q0 .39-.16.61t-.4.3-.48.08h-.43v-.68h.43q.15 0 .23-.1.07-.09.07-.22v-.76zm6.44 0v-1.14h1.78q.32 0 .54-.22.22-.21.22-.54v-5.36h-2.14v-1.14h3.4v6.38q0 .99-.55 1.5-.55.52-1.58.52zm9.7.16q-1.45 0-2.32-.77-.87-.76-.87-2.26v-5.53h1.25v5.44q0 .96.52 1.45.53.5 1.42.5t1.42-.5q.54-.49.54-1.45v-5.44h1.24v5.53q0 1.5-.87 2.26-.88.77-2.33.77m7.28-.16q-.58 0-.97-.38-.39-.39-.39-.99v-7.03h1.24v6.68q0 .23.16.39.16.15.38.15h3.38v1.18zm11.57.12q-.93 0-1.63-.3t-1.08-.85-.38-1.27q0-.76.4-1.3t1.12-.79q-.58-.25-.91-.75t-.33-1.15q0-.67.35-1.17.35-.51.98-.78.63-.28 1.48-.28t1.48.28q.63.27.98.77t.35 1.17q0 .65-.33 1.15-.33.51-.91.76.71.24 1.12.78.41.55.41 1.29 0 .75-.39 1.29-.38.55-1.08.85t-1.63.3m.01-4.96q.72 0 1.16-.35t.43-.94-.44-.95-1.16-.36-1.15.36-.43.95.43.94 1.16.35m-.01 3.89q.82 0 1.32-.41t.51-1.06-.51-1.05q-.5-.39-1.31-.39t-1.32.39-.51 1.05.5 1.06q.51.41 1.32.41"/><svg width="800" height="360.5" y="126.5" style="width:100%;height:100%" viewBox="0 0 800 519"><g class="mp-map-g"><path fill="transparent" d="m400 507-8.64-.15-8.62-.45-8.61-.76-8.57-1.05-8.54-1.35-8.48-1.65-8.42-1.94-8.34-2.24-8.26-2.52-8.17-2.82-8.06-3.1-7.96-3.37-7.83-3.65-7.7-3.92-7.55-4.19-7.4-4.45-7.25-4.7-7.08-4.96-6.9-5.2-6.71-5.43-6.52-5.67-6.32-5.9-6.1-6.1-5.9-6.32-5.67-6.52-5.43-6.71-5.2-6.9-4.96-7.08-4.7-7.25-4.45-7.4-4.19-7.56-3.92-7.7-3.65-7.82-3.38-7.96-3.1-8.06-2.8-8.17-2.53-8.26-2.24-8.34-1.94-8.42-1.65-8.48-1.35-8.54-1.05-8.57-.76-8.6-.45-8.63-.15-8.64.15-8.64.45-8.62.76-8.61 1.05-8.57 1.35-8.54 1.65-8.48 1.94-8.42 2.24-8.34 2.52-8.26 2.82-8.17 3.1-8.06 3.37-7.96 3.65-7.83 3.92-7.7 4.19-7.55 4.45-7.4 4.7-7.25 4.96-7.08 5.2-6.9 5.43-6.71 5.67-6.52 5.9-6.32 6.1-6.1 6.32-5.9 6.52-5.67 6.71-5.43 6.9-5.2 7.08-4.96 7.25-4.7 7.4-4.45 7.56-4.19 7.7-3.92 7.82-3.65 7.96-3.38 8.06-3.1 8.17-2.8 8.26-2.53 8.34-2.24 8.42-1.94 8.48-1.65 8.54-1.35 8.57-1.05 8.6-.76 8.63-.45L400 12l8.64.15 8.63.45 8.6.76 8.57 1.05 8.54 1.35 8.48 1.65 8.42 1.94 8.34 2.24 8.26 2.52 8.17 2.82 8.06 3.1 7.96 3.37 7.83 3.65 7.7 3.92 7.55 4.19 7.4 4.45 7.25 4.7 7.08 4.96 6.9 5.2 6.71 5.43 6.52 5.67 6.32 5.9 6.1 6.1 5.9 6.32 5.67 6.52 5.43 6.71 5.2 6.9 4.96 7.08 4.7 7.25 4.45 7.4 4.19 7.56 3.92 7.7 3.65 7.82 3.38 7.95 3.1 8.07 2.8 8.17 2.53 8.26 2.24 8.34 1.94 8.42 1.65 8.48 1.35 8.53 1.05 8.58.76 8.6.45 8.63.15 8.64-.15 8.64-.45 8.63-.76 8.6-1.05 8.57-1.35 8.54-1.65 8.48-1.94 8.42-2.24 8.34-2.52 8.26-2.82 8.17-3.1 8.06-3.37 7.96-3.65 7.83-3.92 7.7-4.19 7.55-4.45 7.4-4.7 7.25-4.96 7.08-5.2 6.9-5.43 6.71-5.67 6.52-5.9 6.32-6.1 6.1-6.32 5.9-6.52 5.67-6.71 5.43-6.9 5.2-7.08 4.96-7.25 4.7-7.4 4.45-7.56 4.19-7.7 3.92-7.82 3.65-7.96 3.38-8.06 3.1-8.17 2.8-8.26 2.53-8.34 2.24-8.42 1.94-8.48 1.65-8.54 1.35-8.57 1.05-8.6.76-8.63.45z"/><path fill="#1a7a48" d="m609.32 189.7.13.24.34.74 2.8 5.56-4.23 5.56 4.36 9.55-1.2 2 .46 2.38 2.45 5.15-6.29 6.88.1 1.66-.52-1.7.03-.03 3.63-4.24-.34-1.59-.02-2.43-1.65-5.84.26-6.5-1.52-5.54.28-.81-.97-3.46.9-1.86.68-.15.56-.8-.03-1.39.66-1.2-1.05-1.92Zm-316.83-36.16-.28-.13-1.81-5.31-.44-2.2-2.52-3.14 1.12-3.6 1.78-2-1.22-2.63 1.76-2.89-.13-3.52 1.33-1.72 2.19-1.1 1.65-2.08-.92-3.54 1.7-4.48 1.17-2.76.06-2.15.32-1.8.87-2-2.25.11-2.93.8.95-2.7.56-1.87-.23-1.64-.99-.94 18.93-15.06 12.81-8.89.63 1.7-.31 2.13.6.86 2.17-.5 2.1-.07.98 1.16 2.79-.29 2.34.23-.57 1.44 1.45-.22 1.62-1.11.37.62-.81 3.24 3.33-1.18-1.95 2.14 1.82.14 1.21-.63 1.22.73.7 1.87 1.95 2.1 1.35 1.1 1.4.22.66 2.07-2.98.9 2 1.42 4.04.72 1.55-.22.41 2.26 2.51-1.2-.69-1.68 1.54-.84 1.8.26 1.3-.06.76 1 .6 2.02 1.79.08 2.04 1.94 2.6-.12 2.25.43.55-2.05 1.55-.36 2.01 1.4-.97 3.11 1.8-2.5 1.24.24 1.61-3.2-1.01-2.16-1.27-1.5 1.28-3.45 2.31-2.05 1.58.69.97 1.51 1.05 3.74-1.67 1.46 2.62.9-.66 3.33 2.52-2.42 1.51 2.22-.82 2.42 1.28 2.35 2-2.34 1.42-2.82.41-3.58 2.1.31 2.18.52 2.02 1.63.1 1.63-1.2 1.76 1.15 1.8-.21 1.63-3.39 2.35-2.44.47-1.7-1.08-.67 1.69-2.01 2.82-.7 1.5-2.45 2.23-2.71.06-1.75 1.37-.53 2.28-2.33.26-3 2.65-3.1 3.8-1.48 2.77-1.11 4.23 3.07.96.3 3.57.54 2.94 3.35-.46 4.08 1.94 2.18 1.6 1.53 1.88 2.93 1.2 2.47 1.7 4.05.31 2.67.42-.45 3.35.73 3.93 1.87 4.41 4.03 3.75 2.04-1.32 1.28-4.1-1.58-6.17-1.84-2.02 3.91-1.88 2.6-2.79 1.13-2.7-.4-2.54-1.8-3.14-2.91-2.74 2.36-3.96-1.16-3.3-1.04-5.62 1.34-.88 3.5.84 2.1.24 1.52-1.04 2.03 1.09 2.83 1.9.88 1.34 3.7-.06.6 3.04 1.67 4.56 2.12.36 2.1 2 2.65-2.44.92-4.3.88-1.86 2.6 2.98 4.24 4.22 3.87 4-.14 2.49 3.71 1.56 2.8 1.76 3.98.24 1.92.88 2.13 2.97 2 .1 1.5 1.2 1.84 4.22-1.2 1.82-1.25 1.72-3.62 2.22-2.16 3.81-4.2 1.42-5.83.07-3.97.54-2.69.64-1.66 3.14-3.15 2.17-3.15 5.75-2.77 4.05 2.37-.9 3.7-5.77 5.17-4.03 3.98-.93 2.86 1.6-1.96 3.06 1.85 4.21 1.62 2.92 4.18 1.46 4.56-1.37 1.57-5 1 2.87 2.22 1.12-2.77 3.28-5.8 3.48-2.54 2.1-2.72 3.43h-2.35l-.78-3.47 4.41-4.08-4.64.78-3.18.91-2.34-2.08-1-5.55-1.48-1.03-1.8.9-1.13-.97-1.7 3.29-.42 3.26-.79 1.97-1.18.74-.93.3-.17 1.04-5.56.41-4.6.31-1.31.84-3.04 3.13-.36.34-.9 1.67-2.86.09-3.07.1-1.39.69.52.8.33 1.28-.05.43-4.1 2.14-3.29.67-3.75 2.24-.81-.01-1.08-.68-.35-.6.08-.44.73-1.46 1.54-2.29.94-2.46-.59-3.62-.6-3.77-3.1-1.98.4-.73-.44-.51-.81-.02-.59-.66-.11-.98-.6.41-.8-.14.2-.4-.67-.43-.24-1.09-2.21-1.38-2.26-1.45-2.71-1.71-2.56-1.62-2.67.99-.94-.03-3.38-1.31-2.37.34-2.55-1.5-2.76-.93-1.9-.45-.74-.78-.06-2.25-.93-.09-.31 1.54-5.67-.72-9.25-1.4-9-1.65-7.75-1.66-7.57-1.85-7.22-2-7.24-2.26-2.27-.77-6.7-2.43Zm102.29-32.19 1.54-1.62 2.7.06-.05.69-2.38 1.95-1.42-.1Zm7.27-34.61-1.43-1.62.04-1.1.58-.2 2.79.27 2.29 1.6.21.85-1.36-.04-1.37-.03-1.37.45Zm.1 35.98.75-1.09.83.07.53.73-.72 1.9-.92-.3-.56-1.06Zm-15.74-43.27-.95 1.08-1.55-.4-1.05-.94 1.07-1.23 1.78-.6.59 1.12Zm2.05-7.29-.44.04-1.64-.38.07-.8 1.76.25.46.58Zm-1.24-3.71.6 1.06-.6.96-1.52.4-.42-.73.1-1.07.45-1.12 1 .26Zm4.93 13.23-1.79-.49-2.76-1.2.07-1.64.28-1.45-.63-1.36-1.93-.58-.78-1.02.82-1.1 1.85.41.76 1.02 1.91.18.62 1-.5 1.07 1.04.75.54.73 1.4.22 1.54.32 1.77-.57 2.18-.21 1.73.21 1.18 1.1.29 1.23-.69.8-1.71.65-1.46-.38-3.35.37Zm-17.47-13.93.78.7-.87.7-2.11.32-.47-1.16 1.33-.62Zm1.6-1.58.54.77-1.31.25-1.25-.35.33-.35 1.4-.54Zm91 90.15-.4 2.71-.44 3.75 1.17-1.67 2 .44-.4 1.56 2.64.54.8-1.22 2.96.57.33 3.03 1.5-1.1 1.14 1.96 1.74 2.21.24 3.73-1.12.44-2-.3-.63-3.36-.9-.32-1.8 4.14-1.65.23 1.23-2.28-2.87-.38-2.76.85-5.24.94-.77-1.1 1.23-1.71-1.49-.84 1.46-2.81.54-6.75.75-2.52 1.62-1.8 1.19-.08Zm-71.83-44.33 1.96 1.22 2.1 1.1.16 1.67 1.39-.27 1.38 1.16-1.7 1.12-2.98-.86-1.02-1.6-1.97 1.84-2.88 1.76-.49-2.1-2.63.23 1.84-1.67.5-2.74.9-3.14 1.26.33.22 1.52.96-.5Zm7.97-23.88 1.13-1.26 3.04 1.46 2.05 1.39.4 1.36 2.4-.89 1.86 1.89 3.69.93 1.6 1.14 2.3 2.83-2.34 1.82 4.26 1.7 2.72.39 3.37 2.67 2.61-.19.41 2.4-1.53 4.37-2.62-1.14-3.68-2.89-2.06.69.3 1.95 2.38 1.77 2.87 1.26 1.02.81 2.27 3.25.14 2.6-2.68-.63-5.46-2.24 3.44 2.71 2.58 1.88.67 1.2-5.68-.8-4.62-1.65-2.65-1.52.49-1.05-3.1-1.6-2.94-1.52.17 1.01-5.34.79-1.65-1.16 1.04-2.59 3.38-.18 3.61-.64-.76-1.2.35-1.73 1.64-3.43-.71-1.44-.82-1.1-2.67-1.45-3.3-.98.9-.87-1.8-1.96-1.32-.15-1.23-1.07-.75.97-2.69.44-5.38-.8-3-1.07-2.28-.61-.99-1.2 1.7-1.35-1.95-.14.2-3.2 1.52-2.68 1.49-1.17 3.23-.66-1.13 1.94.79 1.96 1.4-2.45 3.16-1.19 2.13 3.18-.16 2.04Zm-18.78-6.28 2.38.35 2.06.92-2.45 2.55-1.64.45-2.03 2.16-1.44-.29.11-2.77.54-1.5 1.05-1.19Zm-23.97-12.15 3.34-1.27 3.25-.97 1.1.45 1.4-.01-1.96 1.87-1.47.66-.88-.14-2.6.5-1.7-.12Zm-74.14 57.21 1.75.64-3.54 3.47-.66 3.54-.67-.4.2-2.11.62-1.89.03-1.51.91-1.62.97-.99Zm94.7-61 1.23.64 1.54 1.34-.04 1.37-.23 1.18-1.24-.54-.87-1.1-1.74-.46 1.26-.62-.52-.82ZM290 154.73l-1.37.04-2.39-3.2.2-1.55-.97-2.1.32-1.19-1.55-1.63.59-2.28.73-.72 1.44 1.75.83 1.11 1.58 1.25-.12 1.55-.08 2.16 1.13 2.41Zm67.2-80.47.74 1.03 2.23 1.02.24 1.1.08 1.48-1.87.26-4.24 1.01-3.07 1.4-1.13 1.19-4.07.17.65-1.41-.8-2.42 1.62-.9 2.73-1.57 2.64-1.31.88-1.91Zm15.84.3 1.15-.26.91.34-.67 1.39-1.44 1.19-3.68-.39-3.4.5-1.56-.37.6-.92 2.95-.6-4.49-.98-.82-.9 3.56-2.1 1.46-.45 1.66 1.61.37 2.03 1.5.63.6-2.9 1.53-.75.68.53-.6 1.35Zm-3.66 8.08.6 1.47-.85 3.04-.75 2.2 1.45 1.95 1.8 1.9-.76 1.36-2.44-.16.36 1.37-1.02 1.07-2.38-1-2-1.35-1.71-.18-3.22.43-3.77-.46-2.6-.4.29-1.64-1.15-1.36-1.38-.04.34-2.81 1.04-.03 2.26.12 1.63.67 2-.04-1.87-1.39-2.73-.59-1.6-.63.3-1.24 3.58-.22-1.77-.55-1.27-1.43 2.77-1.72 1.7-.82 4.22-.72.63.86-1.6 1.14 3.08-.13.49 1.86 2.29-1.12.4 1.2-.9 3.1 1.37-1.07 1.08-3.17 1.25-.18Zm6.58 2.48-.4-2.16 2.03-1.19 1.1.84 2.22-.08-.02.91-1.67 1.28 1.37 1.55-1.2 2.73-2.6.9-1.18-.46-.4-1.3-2.02-2.87.5-.94Zm-5.75-4 1.56.2.49.82-2.1 1.71-.57-2.41Zm13.04-7.27.18 1.4-.57 1.46-1.37 2.07-1.89.03-.92-.64.84-1.66-1.77-.07 1.11-2.17.98.27 1.91-.7 1.27.36Zm6.53-10.18.78-.73.75-.1-.06-.62 1.54.02.44 1.46 1.03.65 1.07.58.3 1.8.82.9-1.22.77-1.93 2-1.59.08-1.69-.52-.54-1.2.35-.98.86-.65-1.43-.13-.5-.99.05-1.25Zm4.03-3.02 1.01-.41.7-.04 1.23-.35.97-.9.67.14.56.73.48-1.37.7-.4.93-.28 1.56-.15.32.25 1.38-.5 1.14.06 1.15.05 1.44.03 1.24.15 1.32.5.35.66-.78 1.28-1.2.7-.31.64 1.33-.19-.85 1.74-.83.85-.57 2.28-1.46.56-.38.58-2.35.42 1.16.3-.5.5.9 1.33-.68.99-1.3.84-.33 1.12-1.27.87.16.65 1.65-.15.09.7-2.6 1.78-2.67-.8-3.02.36-1.46-.42-1.87-.26.16-1.39 1.9-.53-.1-2.06.58-.17 2.28 1.32-1.03-1.85-1.34-.6.87-1.03 1.55-.6.33-.95-.97-1.1-.12-1.4 1.99.2.56.3 1.17-.97-1.58-.33-2.5.08-1.04-.97-.3-1.09-.55-.81Zm16.37 43.15-.95 1.04-1.87.25-.55-1.63.51-1.9 1.42-.52 1.37.86.2 1.42Zm-32.45-7.9.5 1.33-1.29 1.02-1.68-1.25-1.34.18-1.44-1.74 1.65-.78 1.5-1.22 1.19 1.1.67.7Zm68.53 70.28.84-.47 3.73.46 3.16 1.2.28.71-1.28.3-3.8-.7Zm4.07 11.12 1.45 1.82 2.19.22 2.58-.54-.98 1.88-.98.43-4.02-1.15-1.01-1.25ZM292.5 153.54l6.17 2.47 6.7 2.43 2.27.77 7.24 2.25 7.22 2 7.57 1.86 7.75 1.66 9 1.65 9.25 1.4 5.67.72.3-1.54.94.09.06 2.25.74.78 1.9.45 2.76.93 2.55 1.5 2.37-.34 3.38 1.31.94.03 2.67-.99 2.56 1.62 2.7 1.7 2.27 1.46 2.21 1.38.24 1.09.68.42-.2.4.8.15.59-.4.11.97.59.66.81.02.43.51-.4.73 3.11 1.98.6 3.77.59 3.62-.94 2.46-1.54 2.29-.73 1.46-.08.43.35.61 1.08.68h.81l3.75-2.23 3.29-.67 4.1-2.14.05-.43-.33-1.27-.52-.81 1.4-.69 3.06-.1 2.86-.1.9-1.66.36-.34 3.04-3.13 1.3-.84 4.6-.3 5.57-.42.17-1.05.93-.29 1.18-.74.79-1.97.41-3.26 1.71-3.29 1.13.97 1.8-.9 1.48 1.03 1 5.55 2.34 2.08.76 1.28-2.83 2.37-2.89 1.76-3.03 1.55-1.3 2.62-.4.98.25 2.2 1.33 2.13 1.32-.02-.53-1.5 1.06.84-.08 1.22-2.06.88-1.53.06-2.27.92-1.38.32-1.85.34-2.56 1.4 4.65-1.12 1.04.72-4.4 1.6-2.07.13.05-.52-.88 1.23.97.14-.45 3.07-2.17 3.4-.32-1.08-.75-.17-1.16-1.01.84 2.25.88.7.17 1.6-.97 1.72-1.71 3.5-.32-.17.88-2.94-1.82-1.55-.6-3.5-.54 1.85.87 2.67-2.27-.58 2.4 1.28.37 4.05 1 .25.44 1.46.74 4.25-2.06 3.29-3.61 1.4-2.25 2.6-1.78.32-1.78 1.62-.48 1.46-3.94 2.84-2.05 2.06-1.73 2.57-.57 3.06.67 3 1.25 3.7 1.7 3.04.03 1.87 1.87 5-.1 2.9-.15 1.69-.94 2.64-1.17.56-1.93-.52-.62-1.9-1.47-.99-2.05-3.72-1.75-3.32-.56-1.7.81-2.86-1.02-2.39-2.87-3.65-1.44-.7-3.84 1.86-.65-.24-1.74-2.07-2.29-1.16-4.22.35-3.27-.67-2.84.13-1.56.57.58 1.19-.18 1.74.73.9-.75.52-1.34-.73-1.45.72-2.7-.34-2.57-2.5-3.27.24-2.57-1.26-2.32.07-3.2.67-3.7 2.79-3.88 1.4-2.27 1.77-1.08 1.81-.41 2.95-.07 2.08.52 1.55-1.46-.06-2.53-1.32-2.71-1.76-.76-2.16-.37-3.12-1.78-2.78-.85-2.7-1.3-3.21-2.21-2.13-2.88-.44-2.82 2.94-2.66-1.83-1.55-1.64-.39-2.5-.67-2.45-1.62-2.3-1.43-1.7-.88-1.76-5.72-1.33-.42 1.73-2.61-.64-6.44-1.65-6.39-4.99-4.03-3.43.53-.72-3.97-.78-3.49-.82.22-2.26-1.08-3.02-1.18-.97.1-1.27-1.51-.8-.62-1.46-2.44-1.39-.45-.92.53-2.34-1-5.07.18-6.42.5-.88-.56-1.77-.44-4.13 1.17-3.33-.26-2.7 2.11-2.95 1.59-3.34.77-3.26 2.8-3.18 2.14-3.3 2.14-3.3 2.44-5.16 1.16-3.46.42-1.97.67-.6 2.34 2.59-.83 3.98 1.1-.75 1.36-3.18Zm-115.97 61.88.08.66v.8l-.2 1.8-.1.16-.75.08-.57-.01-.39.35-.08-1 .42-1 .32-1.68.21-.32.42-.3.21-.86.2-.24.05.2Zm.35-3.67-.27.3-.46-.37.14-1.1v-.52l.08-.26.23-.13.23 1.02Zm-.18-2.96-.2.34-.49-1.11.26-.31Zm-.4-4.37-.03.39-.24 1.77-.14.1-.04-.17-.27-.78.23-1.07.02-.23Zm-.4-4.34-.35.9-.26.13.01-1.3.16-.16.28-.08Zm102.25-124.6-.19 1-1.4.88-.7-.3.57-1.07.92-1.17Zm-2.88 19.23.25.86-.75 1.25-2.29.33-2.03-.08.53-1.22 1.53-1.36 1.86.05Zm50.72-18.4-12.82 8.88-18.93 15.06 1 .94.22 1.64-.56 1.87-.95 2.7 2.93-.8 2.25-.1-.87 1.98-.32 1.8-.06 2.16-1.18 2.76-1.7 4.48.93 3.54-1.65 2.09-2.2 1.09.14-1.73-.52-1.83 1.98-3.05.39-3.7 1.97-3.39-1.12-1.03-2.03-1.48-.62-1.9.77-4.87-.47-1.4-.72-2.56-1.7-1.03-.32-3.04.4-2.2-1.68-.48-2.22 2-.7-.37-1.66-.57h-1.87l-1.59-.55 1.96-1.62 3.8-2.01 1.87.23.68-.87-2.9.17-2.84.98-3.5.33-1.22 1.95-3.16.84-2.18-.08-1.7-.3-1.69.83-2.7-.42-1.82.82-2.1-.26-.07-.97-1.4-.39-1.6-.34-1.48-.16-1.56-1.35.54-.58 1.97.17 1.42.4 2.34-.1.92 1.14 1.68-.44 2.8.07.82-.25 1.64-.06 2.8-1.66 2.39-.89-1.7-.47.45-.75-1.57.3 1.53-1.88-1.42.55 1.64-1.54-1.86-.14-.23-.64 2.14-1.43 1.4-.63 1.1-1.44-1.11-.92 1.51-1.86.74-1.19 2.12-1.16 1.45-1.6 2.25-.76 2.3-.32 2.04-.66.48.6-.42.95 2.07-.22-.1.83 1.44.07 1.69-1.08.5-.85 1.72-.11-.24-.5-1.16-.51-.94.15.64-1.11-.76-1.04.66-1.73 1.5-1.07 2.13-2.08 1.81.48 2.32 1 .18.67-2 .77.71 1.68 2.2-1.8 1.2-1.65 1.82-1.4 1.52-1.45 1.06-1.55 2.17-.4.43 1.27 2.08.18 2-.6 2.14-.06.7.48 2.31.54.02.73 2.64.08-.27 1.34-1.46 1.28.93-.07.53 1.2-.92.4.1 1.31.9.46v1.99l.83 1.42.03.77 1.48.47v1.61Zm-35.32-12.2-.74.9.41.39-.98 1.2-.45 1.16-.42.11-.87-.33.8-1.09.68-.67-.23-.72.34-.37Zm238.72-15.6-2.56-1.54h-.01l-4.22-2.44-.33-.22-2.08-1.16-6.43-3.45-2.62-1.35 7.65 4.02 7.5 4.27Zm-96.24 453.8.61.2.65.35 2.67-.03 3.14-.3-1.56.42-2.3.32-.9-.03-1.44.16-2.59.29Zm53.01-39.87-1.56 2.03-1.82 2.49-.88 2.16-.94.63-.85 1.41-.72 1.13 3.29.88-1.15 1.47 1.52.42-.68.97-4.38 3.03-5.19 1.9-6.5 1.52-3.38.42.14.9-1.32 1.36.1.73-2.18.86-3.28.71-2.7-.13-1.42.59-.37 1.45 1.83.15 1.94-.72.44.63-3.05.87-2.95 1.22-1.28 1.43-1.15.79-2.78.37-2.7.92-1.4 1 2.26.5 2.54-.13-1.74 1.1-3.73 1-2.7 1.33-2.77.63-1.42.51.1.75 1.28.24-1.05.08-2.28.14-6.22.47-.78-.35.46-.6-1.84.18-.78-.24.25-.92 2.35-.57 1.21-.69-.08-.49 1.97-1.04 1.76-1.61-.01-.7 1.42-.35-.12-.45-1.32-.14 1.23-.64-1.2-.4-.19-1.55 1.37-.4.04-1.78 1.23-1.67 1.31-1.54 2.16-.79-.55-1.6.42-1.66 2.9-1.44.3-1.59 2.47-2.1.46-1.88-.84-.29-.88-3.52 2.68-2.5.05-2.17 1.71-2.26 2.85-2.5 2.91-1.82-.95-.85.92-.9.57-4.26 4.37-1.78 1.76-2.95-.36-.62 3.59-2.9h4.94l1.9 1.67 1.9-2.44 4.3-.56.5.5 5.97 3.28 2.92-.14 3.96 1.11 3.43.28.18 1.05-4.64 4.6 3.34-.05 3.8-.46 2.88-1.02 3.8-2.69 1.31-2.42 1.89-.92 1.22 1.08-.79 2.08-3.37 2.1-2.66 1.58-4.74 3.27Zm-53.01 39.86-1.72 1.39 2.59-.3 1.43-.15-1.14.3-2.3.4-1.15.11-1.35.11-1.53.03-2.44.16-2.76-.04-2.26-.12-3.02-.48 2.03.01 3.25.17 3.13-.06 1.58-.39 1.27-.51 2.65-.52Zm15.06-66.79 1.78 1.84.32 2.07 1.96 1.01-1.57 2.93 1.74 2.94 1 3.62 2.85-.7.37.62-1.77 2.95-4.37 1.78-.57 4.26-.92.9.95.85-2.92 1.81-2.84 2.5-1.71 2.27-.06 2.18-2.68 2.49.9 3.52.83.29-.46 1.87-2.46 2.11-.32 1.59-2.89 1.44-.42 1.66.55 1.6-2.16.79-1.3 1.54-1.24 1.67-.04 1.78-1.37.4.18 1.56 1.21.4-1.23.63 1.31.14.13.45-1.42.35.01.7-1.76 1.61-1.97 1.04.08.5-1.2.68-2.36.57-.25.92.78.24 1.84-.19-.46.6.78.36 6.22-.47 2.28-.14-2.29.24-1.41.3-2.55.46-1 .63-1.08.1-2.66.03-2.58-.24-3.01-.2-.6-.41.98-.5-1.13-.46.21-1.52 1.55-1.03 3.35-1-4.36-.07 3.14-1.16 1.63-2.12 3.27.24 2.52-2.92-2-.24-1.5 1.82-1.9-.07 1.51-2.08 1.8-2.91 1.76-1.2-.6-1.58.15-1.96 1.44-.15 2.72-3.14 3.05-3.32 2.11-3.2-.25-3.17 1.4-1.94v-2.8l2.64-3.1 1.37-4.86 1.94-5.51 1.94-6.22.2-4.63-.45-4.04 2.13-.96Zm192.88-232.03-.08-.33-.56-2.3-.41-1.54-.5-1.92.24 1.2-.66-2.34-.23-.53-1.63-5.62-1.68-5.89-1.69-4.73-3.01-7.87-.75-1.9-.3-.4-.48-1.07-.23-.18-2.4-4.87-1.4-3.75.57-1.03-.09-.27 3.4 7.95 3.12 8.05 2.84 8.16 2.55 8.25 2.26 8.34Zm-201.95 92.4.48 2.3-.21 1.66-.95.79 1.1 1.19-.01 1.16-2.74-.5-1.9.43-2.48-.14-1.87.91-2.24-1.19.3-1.38 3.76.35 3.08.12 1.42-1.05-1.94-1.7-.06-1.63-2.57-.49.84-1.23h2.47Zm.4 7.1.02-1.16-1.1-1.2.95-.78.2-1.67-.47-2.28.45-.77 3.12-.25 2.44.88 1.05-.2.82 1.43 2.17-.3-.04 1.28 1.8-.04 2.06 1.35-1.36 1.88-1.96-.72-1.82.37-1.35-.07-.67.83-1.52.41-.69-.97-1.3.73-1.45 3.04-1.07-.6ZM403.27 26.35l-1.5.29-1.25-.75-1.71-1.34.1-1.2 1.83-.16 2.26.42 1.21.55.29 1 .89.32Zm-6.64-2.42-2.31-.63.05-.53 4.9-.62-1.4 1.69-.63.16Zm-34.9 2.84-2.18.84-4.27 1.02-1.63-.6 3.07-1.37.78-.71 3.44-.31 1.34.6Zm-9.4 2.99-2.6.95-.48-.59 1.45-.64 2.61-.61.83.22Zm.98-4.04.23.53-.85.52-2.34.44-.87-.03 1.33-.63 2.2-.78Zm79.34 7.85-1.44-.4-.7-.39.8-.24-1.05.02-.95-.1v-.54l.66-.02 1.06.25.67.18.6-.07 1.1.2-.3.45-1.3.05Zm107.33 32.49 1.11 2.18.24 1.24-1.63-1.1-1.83-2.18.01-.89.28-.23 1 .62Zm-90.9-38.65-4.56-.59-1.06.31-3.3-.5-4.38-.64-3.21-.81-2.3-.15-1.9-.37.23-.5 1.25-.1 4.24.56 3.85.6 5.22.5 4.01.14 4.15.32 2.14-.3.25-1.04.88.25 3.02 1.55-1.01.19.94.9-1.5.14-1.56-.43-1.6.14-4.24-.59ZM299 33.55l-.6.29 1.85-.81-.47.23-2.09.9-2.97 1.35-.3.15Zm212.14 4.8 2.62 1.35 6.43 3.45 2.08 1.16.33.22 4.22 2.44h.01l2.56 1.54 7.28 4.64 7.12 4.9 6.94 5.14 2.77 2.16-.13-.05.74.7-.32-.05-1.48-1.25-3.48-2.65-.26-.05-3.29-2.56-.55-.36 1.76 1.38-1.27-.85-1.52-1.12-1.63-1.28-1.15-.77-1.2-.68-2.06-1.35-.8-.48 1.17 1.16.84.7-.53-.07 1.47 1.15.57.89-.62-.36-.86-.3.8.84-.85-.42-.91-.63-1.01-.19 1.44 1.35.16.26.98.67.27.38-1.76-.8-.82-.27-.49-.37-.72-.87-1.1-.78-.54-.1.12.47-.63-.35-.2.17-1.52-.33-1.08-.65-1.45-.6.1.69.84.75-.7-.23.02.76-1.74-.55-1.6-.64-.43.17-1.41-.92-3.02-1.02-2.54-1.51-.5-.08-2.79-1.84-.9.4-6.09-3.52-2.75-1.46-2.09-.86-1.36.58-2.64-.99-2.1.04-3.57-1.31-3.48-.07-3.35-1.27-1.64.6-2.73-.6-.78-.62-2.46-1.4-1.9-.88 1.22-.76-1.02-1.68.96-1.98.95-.31 2.17.26 2.78 1.04L487.4 37l.9 2.78.99.63 1.4-.7 1.59.3 3.53.74-.04-.78.2-.42-1.77-.48-.95.15-1.86-.77-.1-1.41-1.61-.8-1.82.05-5.45-2.18-.7-.6.2-.48-2.8-.68-1.1.32-2.42-.52-1.36.28-1.59-1.63 1.2-.21 1.67.82 1.76.18.27-.4-2.3-1.05-2.23-.32-3.67-1.33-6.31-2-.7-.38 2.82.53-1.13-.66-1.77-.38-2.28-.96-2.85-.69.13-.6-3.04-.44-.19.57-1.44-.17-2.82-1.33-1.02-.65-2.4-1.72-1.97-.12.3.54-.4.08 1.37.48-1.43.04-1 .48-.65.15-4.08-.2-2.6.3-1.22-.1-2.49-.9.76-.4 2.62-.2-.19-.35.84-.45 2.73-.5-.5-.58 1.77-.07 5.46.39-1.51-.46-1.24-.08-2.14-.33-1.23.04-2.07-.14-.06.37-1.75.1 1.4.37-.61.3-2.76.24.25.81-3.35-.08-.91.53-.62-.11.28-.5 2.04-.5-1.08-.38-.55.55-2.67-.14-2.64-.4-1.61-.77.09.76-1.25.85-2.26-.13-2.74-.4-2.66-.17.48.58-1.86.49-1.27-.09-2.42.34-2.87-.03-.46.28-2.74.01-.82-.26-2.35.57h-1.86l-.2.49-.83.52-2.07.57-1.74-.3 1.16-.36-2.25-.04-.57-.53-.74.33-2.86.25-2.7-.26-1.21-.28-.32-.54.86-.43 2.4-.84.62-.36-1.55.01-1.96-.03-.86.29-1.27-.47-.24.28-1.68.39-3.92.46-.95-.31-5.1.86 1.25.55-2.64.41-1.71.44-2.82.13-1.84-.23-.18-.41-3.12.03-2.75.39 1.23.79-2.85.4-1.24.76-2.87.67-.05.4-2.07.65 3.23-.02-.1.69-10.02 3.9-2.62.4L334 31.5l-2.5 2.23-2.02 1.2-2.05.62-2.52.19-1.89.9-.18.76-1.05 1.14-1.87 1.35-.64 1.2-4.3 1.82.62.64 2.84-1.03 1.5-.01-2.43 2.37-.5 1.38-2.76 2.47-2.09 1.47-3.54 2.7-4.32 3.32-2.46.78-1.05.9 2.9-1.2-.74 2.4-3.68 3.05-1.74-.15-.39-1.24-3.82 1.51-.8-.03.18-.88 1.43-1.21 1.3-1.6 1.74-.82.8-1.1-.27-.8 1.49-.92 1.4-.3-.64-.7-1.95 1-1.5.07h-.01l-1.32-.54.73-1.22-2.36 1.48-3.34 1.66-1.17.8-1.6.7-.92.16 1.49-2.07-1.57-1.6.02-.68-1.7-.52-1.3-.6-1.37.26 3.45-2.29-.73-1.52 1.65-.88-.64-.4 1.66-1.43-1.9.46h-2.04l-1.36.54-1.89 1.4-4.62 1.8.86-.9-2.2.7-1.82 1.05.41-1.13-3.07 1.28 1.16-1.25-2.6 1.18-.7-.16 2.5-1.45 4.82-2.55 7.3-3.46 3.54-1.18.78.12 1.38-.48-1.13 1.22 2.08.27 1.67.47 1.05.78 4.2-.75.72-.96-2.3.29-1.27-1.15 4.9-1.89 1.58-1.88-2.37-.65-2.9 1.3 2.03-1.7 1.75-1.24 2.04-.57 2.54-1.4.31-.61 4.97-2.55 4.35-2.26.71-.98 1.35-.69 8.15-2.85 8.25-2.56 8.34-2.27 8.4-1.99 8.48-1.68 8.53-1.4 8.57-1.09 8.6-.79 8.62-.49 8.64-.19 8.64.11 8.63.42 8.6.71 8.59 1.02 8.54 1.3 8.48 1.62 8.43 1.9 8.35 2.2 8.28 2.49 8.18 2.78 8.08 3.06 7.96 3.33 7.85 3.62ZM304.93 31l-.47.2-.92.38Zm17.49 16.68.14.05-.17.54-1.4 1.23-.55.08-.8-.45.02-.81.04-.7 1.32-.4Zm233.71 21-1.03-.83-.3-.49-.32-.33.38.22-.12-.13.23.16v-.15l-1.6-1.44 1.25.96 2 1.78 3.4 2.98.17.31-1.58-1.26.56.84-.76-.63-2.13-1.94ZM409.25 266.97l1.8-.39 2.55.07.14 1.11-4.2.8Zm4.55-1.2 3.1 1.84-.56 3.1-.73-.53-.02-2.26-1.77-1.65Zm-1.35 7.95 1.19.13 1.46 3.54.08 2.5-.96.24-1.05-2.45-1.5-1.2Zm40.3 225.33 3.72-1.05 1.82-.2 2.01-.64h1.39l-1.2.45-3.71.9-.67-.07-2.66.75ZM444.06 43.2l-1.47-.29-.3-.53 1.32-.33 2.59-1 2.06 1.11 3.15.55.92.46 3.52.66.32.59-2.33.6-1.57-.62-1.09.47-3.46.27-3.3-.2-1.63-1.19 1.44-.02Zm35.8-3.22 2.46 1.4.78.62-2.88-.75-.87.6 2.02 1.27 3.05.9 2.14 1.04-.49.56.7.98-1.69.32 1.24.68.36.48 2.64.77-.1 1.23 2.27.81.22.73 2.97 1.36 4.57 2.21 5.78 3.27 1.27.18 1.6.9.07.87 3.7 2.06 5.07 2.13 1.84.23 4.46 2.38 2.66 2.1 2.18 1.54-2.22-.44 4.34 4.34.8 1.93-1.99.44-4.02-1.81-8.72-4.2-2.37-2.1-3.1-3.94-4.06-3.48-5.62-3.67-8-4.51-3.31-2.16-5.67-3.3-2.4-1.9-.36-1.08-3.82-1.63-.57-1.14-1.58-1.26 1.19-1.58 1.71.98Zm-39.41-1.2 2.53.53 1.1 1.07-.16 1.04h-1.12l.12.5-1.8.23-1.56-1.11.77-.44-1.4-.37.54-.81Zm9.58 1.27 2.2 1.07-.6.68-1.19-.39-1.2.14-1.25-.9 1.46-.06Zm-32 16.31-.08-1.76 1.5-.46-.58-.93.92-.75 2.88-1.2 4.6-.06.9 1.01-1.05.95-1.6 1.36.78.22.93-.99 2.26-.12-.48-.98 1.58.37 1.76 1.23-.53-1.28-.12-1.86 1.48-.55 1.84.4 1.71 2.2.72.52-.41 1.27.97-.65 2.36 1.54 2.12 1.36 4.16 1.92 2.96.68-.56.71.36 1.27 2.86.2 3.25 1.5-.23.68 3.85 1.06-1 1.23 2.15.25 1.08.89-.32 1.03-.9.72 3.22.8 1.58.96-2.8.14.55.86 1.83-.16 3.06.63 3.1 1.57-.65 1.49-1.92-.45-2.92-.64 2.57 1.4.82 1.9 2.28-1.44 1.25-.7.84 3.68.17 3.6-1.77 2.66-1.13.66.07 1.64 1.56 3.72-.6 3.27-.74.53-1.04 1.5-1.28 1.5.42 2.35 1.77 2.15.91 2.33-.51 3.47 2.5 2.25 1.24 2.94 1.42 3.53-2.27 1.08-4.35-1.84-3.5 1.11-2.81-1.32-3.12-2.91-5.36-3.28-2.09-1.92-1.92-2.85-3.9-2.42-.82-2.48-1.65-.86-.76-4.02 1.35-1.7-.31-1.4-1.33-2.42-.77 1.47-.42.64-.93.74-2.26-.6-1.33-2.03-.47-1.71 1.14-.34 3.07.11-3.38-1.3-1.75-.73-.96.7-1.47-.5-.35-3.03-1.38-.9-2.13-1.8-3.13-2.72-1.96-.82-.66-1.18-3.54-1.14-2.18.14-2.6.5-2.37.5-1.46-.79-2.19-1.63 2.21-1.12 1.8-.37-4.14-.31-2.3-.98-.11-1.08 2.8-1.6 2.4-1.62-.13-1-2.36-.7.21-1.11 1.47-2.1.76-.41-.87-1.08.97-.88 1.42-.72 1.6-.39 1.2.58.2-1.63 2.03.49.88-.06 1.85.36-2.51-.78ZM278.1 223.48l3.5.82 3.96.78-.53.72 4.03 3.44 6.39 4.98 6.44 1.65 2.61.64.42-1.73 5.72 1.33.88 1.77 1.43 1.7 1.62 2.29.67 2.44.4 2.5 1.54 1.65 2.66 1.83 2.82-2.94 2.88.44 2.2 2.13 1.3 3.21.86 2.7 1.78 2.78.37 3.12.76 2.16 2.71 1.76 2.53 1.31 1.46.07-1.89 3.56-1.03 2.99-.92 5.68-.6 2.03.4 2.42.99 2.24.45 3.4 2.29 3.5.7 2.55 1.38 2.28 4.12 1.63 1.51 1.95 3.6-.8 3.09-.13 3.06-.48 2.57-.5 2.65-1.53 1.1-2.42.52-3.55.76-1.2 2.76-.93 4.26-.72 3.53.35 2.45-.24.92.95-.2 2.06-2.25 2.44-1.06 2.55.72.78-.68 1.8-1.13 3.27-1-1.15-.85.02-.78.01-1.55 2.48-.73-.55-.5.16.01.63-3.76-.31-3.79-.29-.14 2.39-1.83-.15 1.44 1.55 1.46 1.09.42.95.65.3-.17 1.43-5.26-.41-2.13 3.24.53.84-.52.94-.16 1.2-4.38-4.95-2.03-1.58-3.22-1.46-2.28.04-3.35 1.2-2.05.15-2.74-1.48-2.93-1.21-3.54-2.47-2.9-1.05-4.23-2.68-3.04-2.56-.85-1.3-2.11-.64-3.75-2.07-1.34-2.23-3.73-3.2-1.5-3.06-.57-2.24 1.3-.14-.21-1.29 1-.91.24-1.46-.94-2.16-.06-1.75-.88-2.4-2.44-4.9-2.96-4.13-1.2-3.04-2.61-2.46-.42-1.19 1.07-2.47-1.53-1.43-1.53-2.56-.16-3.15-1.7-.82-1.38-2.74-1.01-2.47.2-1.34-.9-3.65-.25-3.51.5-1.58-1.78-2.33-1.09-.14-1.42-1.69-1 1.53-.07 2.15-.6 3.2.58 2.05 1.56 3.58.27 1.14.4.44.06 1.56.59.11-.03 2.89.74 1.35.33 1.69 1.57 2.71.23 4.21.6 2.12.52 2.22-.27 2.26 1.63.58 1.01 2.27.9 2.2-.23.74-1.76 1.17-.62-.19-.43-2.8-1.76-2.99-2.04-2.7-1.5-1.56.8-3.03.01-2.41-1.27-1.75-1.8-2.54-.57.4-.56-1.33-1.73-1.62-1.25-3.01.3-.24 1.27.65 1.6-1.19.61-1.84-1.62-3.73-1.5-1.73-.39-2.96-.31-3.09-.37-3.76Zm208.06 238.98 2.3-.73 2.69 1.05 1.26-.36 2.78.67 1.99.62 1.12 1.04-1.93 1.4.25 1-2.09 1.68-4.18 2.02-2.13.14-1.86.61-2.53-.22-2.25.53-1.47-.74.85-1.41.94-.63.88-2.16 1.82-2.5Zm10.46 4.69-.25-1 1.93-1.4-1.12-1.04-1.99-.62-2.78-.67-1.26.36-2.68-1.05-2.3.72 5.75-4.22 4.74-3.27 2.66-1.57 3.37-2.11.8-2.08-1.23-1.08-1.89.92 1.16-1.68.97-1.7.44-1.49-1.12-.18-1.45.76-1.28.19-.13-.96.34-2.45-.46-.68-2.24-.21-1.63.88-3.73.28 1.1-3.9-.77-1.4 1.29-.84-.03-1.6 1.28-1.51 1.1-2.5-.56-1.7-1.91-.43-.22-1.12.84-1.91-7.35 1.3-1-3.37 1.14-.26.13-1.36-.66-.79.05-1.82-2.18-.55-2.49.46-1.54-.67-2.63-.2-1.46-.97-4.45.14-4.17-2.33.49-2.28-.42-1.22.59-2.6-5.4 1.28-2.25 1.54-3.68 1.78-.98 1.12-2.13.3-3.06.04-2.38.8-1.87-.2.5-5.15-3.52 2.3-3.7.22-1.52-1.7-2.79.01.94-1.53-2.3-1.93-1.69-3.02 1.13-.7.03-1.5 2.6-1.19-.4-1.88 1.11-1.32.33-1.69 4.91-2.82 3.48-1 .57-.6 3.82-.17 2.02-10.3.1-1.63-.65-2.1-1.87-1.2.01-2.76 2.38-.86.85.3.13-1.47-2.46-.15-.08-2.4 8.21-.78 1.38-1.5 1.17 1.1.85 2.16.78-.57 2.3 1.73 3.24-.67.8-1.28 3.07-1.33 1.7-.88.47-1.7 2.91-1.54-.23-.78-3.49.19-.61-2.36.12-2.65-1.87-.75.76-.47 3.06.05 3.3.48 1.15-1.11 2.92-1.1 4.48-2.25 1.43-1.76-.58-1.02 2.1-.56.95.74-.46 1.82 1.4.34.96 1.65-1.07 1.6-.56 3.43 1.06 1.76.32 1.74 2.48 1.32 1.97-.2.42-.84 1.26-.42 1.78-1.05 1.27-1.3 2.19-.14.94-.34 2.13-.17.34-.86-.66-.62.37-1.21 1.58-.01 1.82-.83 2.22.3 1.7.38 1.16-1.34.85-.05.55.95 1.81-.74 1.43-1.84 1.08-3.17 2.09-4.17 1.27-.54 1 1.91 2.27 6.2 1.99.05.13 2.63-2.75 3.94 1.15.81 6.48-1.33.1 3.74 2.77-3.33 4.48-.1 5.8.3 1.64 1.58-.62 2.27 4.02-2.6 6.46-.56 4.9-2.15 4.59 1.02 3.74 2.3 2.3-.05 2.56-1.1 1 .6.58 4.12.25 1.93-1.9 6.46-1.84 3.04-5 6.85-2.61 4.76-2.84 3.95-.78.4-1.37 2.85-1.16 6.05-2.12 5.31-.9 2.23-1.33 1.65-1.78 4.36-4.38 5.23-1.58 3.27-2.93 2.26-1.36 2.02-3.37 1.29-5.35 2.9-2.7 2.05-3.89 2.04-4.62 3.43-3.77 3.53-1.26 2.12-.04 1.27-1.7 2.76-1.26 1.45-2.86 2.04-5.52 5.24-3.7 2.62-2.7 1.64-2.52 2.5Zm-46.71-52.72 3.06-.03 2.13-.3.98-1.12 3.68-1.79 2.25-1.54 5.4-1.28-.59 2.6.42 1.22-.5 2.28 4.18 2.33 4.45-.14 1.46.97 2.63.2 1.54.67 2.5-.46 2.17.55-.05 1.82.66.8-.13 1.35-1.14.26 1 3.38 7.35-1.31-.84 1.9.22 1.13 1.9.44.57 1.7-1.1 2.49-1.28 1.51.03 1.6-1.29.85.13-.9-3.22-.8-3.5.63-6.8 2.04-2.26 2.86-.37 1.55-2.12 3.61-.5-.5-4.32.56-1.89 2.44-1.9-1.67h-4.94l-3.6 2.9-2.83.7-1-3.62-1.75-2.94 1.57-2.93-1.96-1-.32-2.08-1.78-1.84 2.83-3.54-1.52-2.4 1-1.15-.63-1.1 1.7-1.73.29-2.73.34-2.3.96-1.19Zm-.75-23.07-3.82.18-.57.6-3.48.99-4.9 2.82-.34 1.7-1.1 1.3.38 1.9-2.59 1.19-.03 1.48-1.13.71 1.69 3.02 2.3 1.93-.94 1.53h2.79l1.52 1.69 3.7-.22 3.51-2.3-.49 5.15 1.87.2 2.38-.8 3.27 4.95-.96 1.2-.34 2.29-.28 2.73-1.7 1.74.62 1.09-1 1.14 1.52 2.41-2.83 3.54-1.2 1.64-2.14.96-3.92-1.35-.26-1.2-7.9-2.45-7.24-2.94-3.13-1.79-1.65-2.54.72-.95-3.46-4.12-4.07-5.98-3.94-6.7-1.75-1.54-1.32-2.56-3.33-2.26-3.06-1.42 1.4-1.6-2.08-3.42 1.33-2.54 3.44-2.32.5 1.51-1.22.88.12 1.33 1.77-.3 1.75.37 1.79 1.79 2.44-1.54.83-2.46 2.65-3.26 5.18-1.64 4.7-4.1 1.34-2.5-.59-2.84 1.15-.42 2.84 1.64 1.37 1.7 1.98.84 2.5 3.74 3.17.23 2.35-1.17 1.54.52 2.54-.54 3.24 1.43-2.78 4 1.26-.03Zm12.82-22.16-.78.57-.85-2.17-1.17-1.08-1.38 1.49-8.2.78.07 2.4 2.46.15-.13 1.48-.85-.3-2.37.85-.02 2.77 1.87 1.2.65 2.09-.1 1.63-2.02 10.3-2.09-1.74-1.26.03 2.77-4-3.23-1.43-2.54.54-1.54-.52-2.35 1.17-3.18-.23-2.49-3.75-1.98-.84-1.37-1.7-2.84-1.63-1.15.42-1.84-.81-2.12-1.16-1.23.65-3.64-.4-1.06-1.6-.8.08-4.32-2.08-.58-1.18 1.6-.32-.19-1.93 1-1.43 2.15-.32 1.8-2.5 1.63-2.12-1.58-.88.79-2.31-.98-3.6.9-1.07-.7-3.36-1.75-2.09.54-1.97 1.37.25.79-1.23-1.01-2.35.51-.61 2.2.04 3.16-2.97 1.73-.51.02-1.35.71-3.5 2.38-2.04 2.64-.23.32-.88 3.3.14 3.23-2.31 1.6-1.05 1.94-2.16 1.48.13 1.13 1-.75 1.47-2.65.9-1 2.15-1.58 1.3-1.18 1.61-.43 2.96-1.11 2.47 2.2.12.57 1.82.96.83.36 1.6-.47 1.54.17.82 1.06.26 1.04 1.33 5.41-.85 2.45.28 3.06 3.15 1.68-.6 3.02-.1 2.36-.74 1.5.51-.69 2.23-.9 1.45-.27 2.87.9 2.51 1.2 1.02.16.87-2.08 2.18 1.51.68 1.13 1.23Zm-44.79-25.86-.51.6 1 2.36-.78 1.23-1.37-.25-.54 1.97-1.44-1.12-.93-2.15 1.04-1.11-1.08-.25-.8-1.33-2.13-1.08-1.87.29-.86 1.42-1.72 1.05-.93.14-.42.85 2.04 2.18-1.15.52-.62.6-2 .22-.75-2.4-.55.69-1.42-.24-.86-1.63-1.75-.28-1.11-.48-1.83-.01-.13.87-.49-.61.22-.8.36-.82-.15-.74.63-.47-.89-.62v-1.64l1.64-.35 1.53 1.47-.1.87 1.7.19.4-.33 1.19 1 2.09-.3 1.82-1.03 2.58-.85 1.45-1.24 2.35.2-.15.4 2.37.1 1.9.65 1.4 1.18Zm-22.15-3.4-1.65.36.01 1.64.89.62-.63.47.15.74-.36.82-.22.8-2.32-.94-.85-.87.5-.7-.17-.9-1.17-1-1.66-.84-1.45-.56-.28-1.2-1.11-.76.26 1.2-.85.95-.97-1.17-1.35-.45-.57-.85.05-1.24.57-1.28-1.18-.62.98-.76.65-.51 2.77 1.18.97-.51 1.35.38.7.86 1.24.3 1.02-.85 1.05 2.25 1.64 1.68Zm-4.68-5.69-1.02.86-1.25-.3-.69-.87-1.35-.38-.97.5-2.77-1.17-.65.5-1.44-1.35-1.94-1.74-.9-1.44-1.74-1.38-2.06-1.99.48-.61.68.65.32-.27 1.3-.12.55-.92h.62l-.04-2.06.97-.05.88.06.92-1.08 1.22.9.45-.51.77-.47 1.48-1.1.08-.86.4.04.56-.98.44-.1.7.65.83.22.92-.52 1.05.02 1.47-.51.57-.57 1.43.1-.36.4-.22.94.42 1.54-.97 1.42-.47 1.66-.16 1.84.22 1.08.1 1.87-.66.4-.41 1.76.27 1.1-.86 1.04.18 1.11Zm2.27-16.84-1.43-.11-.57.56-1.47.52-1.05-.02-.92.52-.84-.22-.7-.66-.43.11-.56.98-.4-.04-.08.85-1.48 1.1-.77.48-.45.5-1.22-.9-.92 1.09-.87-.06-.98.05.04 2.05h-.62l-.55.94-1.3.1-.69-1.33-1.25-.43.33-1.65-.56-.49-.85-.34-1.84.39-.13-.57-1.24-.75-.87-.9-1.2-.43.9-1-.3-.85.32-.78 2-1.05 1.94-1.5.42.2.93-.7 1.18.01.38.36.64-.17 1.91.47 1.91-.03 1.35-.41.5-.45 1.31.27.98.32 1.1-.07.82-.33 1.89.63.65.11 1.26.82 1.19.96 1.5.68Zm-25.88 1.35 1.21.43.87.9 1.24.74.13.57 1.84-.4.85.35.56.49-.33 1.65-.5.96-2.42-.2-1.49-.5-1.7-.93-2.29-.42-1.15-.98.16-.6 1.46-.95.79-.42-.2-.5Zm-11.83-1.43.16-1.2.52-.94-.53-.84 2.13-3.24 5.26.41.17-1.42-.65-.31-.42-.95-1.46-1.1-1.44-1.54 1.83.15.14-2.38 3.79.28 3.76.31-.17 3.35-.51 4.74 1.23.08 1.3.85.39-.6 1.2.6-1.95 1.49-1.99 1.05-.32.78.3.85-.9 1-.99.2.2.5-.78.42-1.46.95-.16.6-2.09-.89-2.58-.29-1.85-.98Zm13.26-12.77v-.63l.49-.16.73.55 1.55-2.48h.78l-.01.62.78.06-.12 1.15-.73 1.8.33.67-.48 1.5.25.41-.55 2.11-.86 1.07-.74.09-.87 1.41-1.23-.08.51-4.74ZM486.91 350l.58 1.02-1.44 1.76-4.48 2.25-2.91 1.1-1.16 1.11-3.29-.48-3.06-.05-.76.47 1.87.75-.12 2.65.62 2.36 3.48-.2.23.79-2.91 1.54-.46 1.7-1.7.88-3.07 1.33-.8 1.28-3.24.67-2.31-1.73-1.32-3.68-1.13-1.23-1.51-.68 2.08-2.18-.15-.87-1.21-1.02-.9-2.51.28-2.87.9-1.44.69-2.24-1.5-.5-2.37.72-3.02.11-1.68.6-3.06-3.15-2.45-.28-5.41.85-1.04-1.33-1.06-.26-.17-.82.47-1.54-.36-1.6-.96-.83-.58-1.82-2.2-.12 1.12-2.47.43-2.96 1.18-1.61 1.58-1.3 1-2.14 2.65-.91-.09.98-2.43.68 1.43 1.76.03 2.15-1.78 2.53 1.68 3.1 1.8-.4.85-3.04-1.34-1.33-.32-3.08 5.13-2.15-.65-1.88 1.4-1.44 1.6 2.75 2.92-.23 2.78 2 .22 1.34 3.7-.39 4.37-.97 2.44 1.52 3.16.08 2.2-1.6v-1.05l5-1 4.8-.85-3.33 1.77 1.5 1.7 3.22-.23 3.15 1.47.83 3.13 2.07-.47 1.61.66-3.03 2.95-.27 1.52 1.44 1.24-.96.93-2.44 1.09.15 1.82-1.05 1.3Zm17.01 9.55-.94.34-2.19.15-1.26 1.3-1.8 1.04-1.25.42-.42.84-1.97.2-2.48-1.32-.32-1.74-1.06-1.76.56-3.44 1.07-1.59-.96-1.65-1.4-.34.46-1.82-.96-.74-2.09.56-2.84-2.53 1.05-1.28-.15-1.83 2.44-1.09.96-.93-1.44-1.24.27-1.52 3.03-2.95 2.7.97 2.58 2.14.22 2.03 1.5-.2 2.2 1.5 1.6 1.05-.46 3.7-2.36 1.53.25.88-.66 2.18 1.83 2.48 1.26-.27.58 2.08Zm7.8-3.4-2.22-.3-1.82.83h-1.58l-.37 1.22.66.62-.34.87-2.13.16-2.45-2.85-.58-2.08-1.26.26-1.83-2.47.65-2.18-.24-.88 2.36-1.53.46-3.7 4.72-.23.38-.82 3.12-1.01 4.16.07-1.82 3.88.4 2.61 1.59 1.96-.62 1.84-.29 1.86Zm10.67-9.98-2.1 4.17-1.07 3.17-1.43 1.84-1.81.74-.55-.95-.85.05-1.17 1.34-1.69-.39.95-1.86.29-1.86.62-1.84-1.58-1.96-.42-2.61 1.83-3.88 1.33.1 2.83.23 4.13 2.27Zm38.33-248.64.91.03.7-1.48 2.2 2.41 2.27 2 .53.84-.33.4.8.61 1.7 2.52 1.41 1.23-.43-1.1 1.4.69.88.82 1.18.59.9 1.33 2.37 1.74.42-.45 1.3 1.37 1.59 2.94-1.13 2.19.57 3.11 1.72 1.93-.02 2.15-1.77.35.46 1.19-2.25 1.38-1.36-.58-1.47-2.56-5.9-6.12-3.78-1.57-2-.44-2.14.96-2.36-1.96.1-2.34 1.75-1.52-3.8-2.7 1.85-.08-1.6-5.16-2.6-2.53-.4-1.65 1.2.71.2-.56 1.44.42 1.72.3-.16-.89h1.65l.32-.08Zm21.4 14.54-1.15-2.04 2.5 2.13 2.24 2.68-.57.12-1.95-1.55Zm-156.2 265.6.58 2.85-1.34 2.5-4.7 4.1-5.18 1.64-2.65 3.26-.83 2.46-2.44 1.54-1.8-1.8-1.74-.36-1.77.3-.12-1.33 1.22-.88-.5-1.51 2.3-2.78-.93-1.6-1.65 1.73-2.58-1.6.87-1.06-.73-3.39 1.51-.57.8-2.36 1.64-2.46-.31-1.56 2.38-.84 2.95-1.59 4.32 2.08.8-.08 1.06 1.6 3.64.4 1.23-.65 2.12 1.16Zm35.22-78.96 2.05.11.78.75-.92 1.2-2.98.36-2.33.44-.37-1.79.53-.68Zm-45.53 3.74 2.76.28 2.2.94.7 1.12-2.87.2-1.23.75-2.31-.6-2.38-1.48.48-.99 1.7-.34Zm-19.14-19.88 3.43.32 3.14.04 3.75 1.43 1.6 1.54 3.72-.56 1.43.97 3.45 2.55 2.55 1.84 1.33-.12 2.4.76-.24 1.23 2.97.02 3.12 1.58-.44 1.02-2.66.7-2.71.34-2.8-.2-5.79.62 2.66-2.47-1.67-1.06-2.6-.2-1.43-1.2-1-2.42-2.26.21-3.75-1.1-1.2-.9-5.22-.64-1.4-.85 1.5-1.06-3.91-.25-2.89 2.19-1.65.02-.6 1.04-2 .42-1.69-.45 2.13-1.28.9-1.52 1.82-.92 2.04-.8 3.01-.37Zm220.97-25-1.48-2.28-1.26-.5.62-1.52.14-3.6-.13-2.43.26-1.86.95-.56.57-1.73.9-1.05 1.11.26 1.35-.19 1.72 1.73 1.71 1.41.7 2.32.83 1.84.81.38.48 1.33.2 1.3-.16.48-.87.72-.02.57-.31.5-1.32.4-.78.87-3.1 3.25-.38.94-.6.48-.81 1.6-.96-2.69 1.64-1.57.29-.99.3-.36.42-1.58.92.03.73-.73.5-1.68-.6-.74-.38 1.27-.52.55-.9-.23-.52.64-.16 1.34Zm9.49-5.16-.21-1.29-.48-1.33-.8-.38-.84-1.84-.7-2.32.31-1.32-.37-2.59.42-.68 1.28-.24.56-1.82.58-.47-.05-1.14 4.63-7.72-.58-3.08-.31-.14-6.22-15.31-7.47-15.1 1.45-2.83 6.47 1.72 5.44 1.54.81 1.25.7-.16.42-.3.91 2.3.25-2.52 3.07 8.42.63 3.54.7 2.45-.17 2.35-.55 3.02.2 2.05-.33 1.4-.39 1.3-.38-.23-.22 1.61-.23 3.4.18 1.55-.17 3.22.14 1.24-.17 1.6-.56.43-.02 1.46.5 2.9-.04 4.72.3 1.24.07 2.16.52 2.09-.32 1.38-.16.94-.49-1.34-.23 1-.2.27v1.47l-.9 1.48-.44-.04-.09.6-.59-.5-.16-1.25-.25-.2-.19.78-.2-1.32.05-1.39-.87-.82-.38-.83-.48-.41-.28.28-.19 1-.32 1.13-.18 1.36-.66.5-.6-.44-.27.19-.26 1-.23.31Zm-18.69-22.98-.09-1.66 6.3-6.88-2.46-5.15-.45-2.38 1.2-2-4.37-9.54 4.23-5.57-2.8-5.56 8.33 2.12-1.45 2.84 7.47 15.09 6.22 15.31.31.14.58 3.08-4.63 7.72.05 1.14-.58.47-.56 1.82-1.28.24-.42.68.37 2.59-.3 1.32-1.72-1.41-1.72-1.73-1.35.19-1.1-.26-.91 1.05-.57 1.73-.95.56-.26 1.86-.74-1.94-.07-2.41-.91-3.88-1.42-3.63-.86-1.7-.49-2.11-1.09-1.39Zm36.48 18.52-.34 2.12-.46-2.11-1.34-8.8-.25-.38-.37-1.78-.45-.63-.4-.5-.35-2.24.1-1.12-.26-2.05.17-1.34-.15-1.57-.11-1.77.15-.73.82.62.27 1.34.57 1.77.24 1.91.25.8.26 3.32.09 1.79.33 2.76.4 2.36Zm-18-84.74 2.4 4.87.23.17.48 1.08.3.39.75 1.9 3.01 7.87 1.69 4.73 1.68 5.9 1.63 5.61.23.53.66 2.34-.25-1.2.5 1.92.18.77.31 1.23.1.46-.81-2.65.03.32.8 3.62-.1.47.04.88.19 1.09.04 1.07.47 2.75.05 1.11-.53.53.21 1.86-.07.96-.43-.64-.58.62-.17 2.59.13 1.32.52 2.43.29 2.08.78 3.48-.82-.62-.15.73.1 1.77-.61-2.61-.8 1.45-.5-1.76-.98-1.34-.56-1.44-.48-1.97.33-1.41-.2-2.05.55-3.02.17-2.35-.7-2.45-.63-3.54-3.07-8.42-.27-4.35-2.68-12.6-3.54-13.17.27-1.51.71.81Zm18 84.74-.83-6.23-.4-2.36-.33-2.76-.09-1.79-.26-3.32-.25-.8-.24-1.9-.57-1.78-.27-1.34-.78-3.48-.29-2.08-.51-2.43-.14-1.32.17-2.59.58-.62.43.64.07-.96-.2-1.86.52-.53-.05-1.1-.47-2.76-.04-1.07-.2-1.1-.04-.87.1-.47-.79-3.62-.03-.32.8 2.65-.09-.46.2.67.2.89.32 1.31.98 4.55.6 2.9.43 2.22.23 1.26.53 3.01.42 2.63.35 2.2.28 1.98.25 1.75.32 2.67-.13-.4.06.84.35 3.42.02.63.45 4.62.27 3.2.08 3.5-.06.58.02 1.64-.14 1.56-.34-1.27-.37-2.07-.5-1.04-.26 1.58Zm2.54.35.01.42-.17-3.28-.14-1.7-.03.3-.13-1.29h-.05l-.1-1.08-.27-3.2-.45-4.62-.02-.63-.35-3.42-.06-.83.13.4-.32-2.68-.25-1.75-.28-1.98-.35-2.2-.41-2.62-.54-3.02-.23-1.27-.44-2.2-.6-2.9-.97-4.56-.31-1.31-.21-.9-.2-.66-.31-1.23-.17-.77.41 1.54.56 2.3.08.33 1.8 8.45 1.52 8.5 1.21 8.56.92 8.59.61 8.62Zm-6.5-14.67.35 2.24.4.5.45.63.37 1.78.25.37 1.34 8.8.46 2.12-.33 2.45-.3-.88-.46-1.87-.31-1.73-.4-3.86-.38-.88-.59-2.8-.53-2.76-.66-1.11-.2-1.33Zm-.54 1.67.2 1.33.66 1.11.53 2.76.6 2.8.37.88.4 3.86.3 1.73.48 1.87.29.88-.74 5.42-.26 2.43-.57 2.93-.84.72-.11-1.6-.75-2.42-.34-4.83-.12-4.05-1.16-4.9-.67-2.58-.43-2.22 1.33-3.62.37-.61.1-1.27Zm-6.84 19.03.09-.6.44.03.9-1.48v-1.47l.2-.27.24-1 .48 1.34.16-.94.32-1.38.62-.06.41.92.59-.09.15-1.65.4-1.07.78-.38 1.16 4.89.12 4.05.34 4.83.75 2.42.11 1.6-.4.95-.7.66-.62 1.33-1.15 3.03-.67 2.48-1.03 3.37-.24.28-.19-3.31.07-.67-.2-1.45-.69-.77-.42.37-.5-.48.07-2.13-.38-1.66-.1-1.21.2-.31-.17-1.8-.21-.58.03-.73.38-1.19-.82-2.58-.57-1.15-.14-1.46Zm-9.92 1.63.78-.86 1.32-.41.31-.5.02-.57.87-.72.16-.49.4 1.3.23-.3.26-1.01.27-.2.6.46.66-.5.18-1.37.32-1.13.2-1 .27-.28.48.41.38.83.87.82-.05 1.39.2 1.32.2-.79.24.2.16 1.26.59.5-.19.69.14 1.46.57 1.15.82 2.58-.38 1.2-.03.72.2.58.18 1.8-.2.3-.37.46-.04 1.95-.37.53-.38-.44-.13-1.68-.91-1.54-.3.94-.27.5-.35.76-.2-1.44-.4-.7-.14-1.18-.59-1.21-.64-.84-1.18 1.51-.22 1.18-.4.6-.11 1.17v1.29l-.56 2.7-1.08-1.45-.9-.79-.5-.02-.56-.3-.5-1.5-.42-.59-.61-.1.37-2.72.52-.49.3-1.13.35-.42.15-.8-.42-1.13.1-.62Zm-4.9 6.27.81-1.6.61-.48.37-.94 3.11-3.25.26 1.34-.09.62.42 1.12-.15.81-.36.42-.3 1.13-.51.5-.37 2.71-1.25-.63-.8.51-.62-.67-.11-.6-.72-.27Zm15.93 2.58.1 1.2.38 1.67-.06 2.13.49.48.42-.37.7.77.19 1.45-.07.67.2 3.31-.33.55-1.46.2-1.5-1.15-1.41-.45-1.27-1.18.19-1.69-.07-1.22.35-2.97.38-2.7.28-.49.29-.94.91 1.55.13 1.67.38.44.37-.53.04-1.95Zm-7.56 4.56.56-2.71v-1.29l.11-1.16.4-.6.22-1.19 1.17-1.51.65.84.6 1.2.13 1.18.4.71.2 1.44.35-.76-.38 2.7-.35 2.96.07 1.22-.2 1.7-.43.22-1.29-.17-1.09-1.08-.48-1.07Zm9.28-20.81-.52-2.1-.06-2.15-.31-1.24.05-4.72-.5-2.9.01-1.46.56-.44.17-1.59-.14-1.24.17-3.22-.18-1.55.23-3.4.22-1.61.38.22.4-1.28.47 1.97.56 1.44.98 1.34.5 1.76.8-1.45.62 2.61.15 1.57-.17 1.34.26 2.05-.1 1.12-.54 1.67-.37.62-.09 1.27-.37.6-1.33 3.63.43 2.22.67 2.59-.78.38-.4 1.07-.15 1.66-.59.08-.41-.91Zm11.2 4.16-.14-4-.01-.42Zm-29.97 4.86 1.89-2.1.16-1.33.53-.64.9.23.5-.55.39-1.27.6.75-.5 1.67-.73.73-.92-.03-.42 1.58-.3.36-.3.99-1.63 1.57Zm-3.78-109.32-4-5.06-.93-.22-.56-.75-1.43-.5-1.82-2.24-1.33-2.8-2.04-2.97-2.42-2.67-1.32-1.9-1.08-3 .27-.8 1.31 1.57-1.05-2.5.49.45 1.33 2.3 1.18 1.4.58.18 2.17 2.86 1.31 2.67 1.3 1.37-.02-.83 1.1 1.05.3-.17 1.8 2.5.74 1.76.78 1.56.94 2.45.92 1.14.94 1.52Zm-3.86 42.43-.34-.74-.13-.24-2.32-4.3.24-5.44.66-2.27.2-2.37-.72-2.43.11-3.4-1.59-2.65.25-1.3-.5-2.05.5-2.81-.77-1.64-.65-.26-2.7-2.97-1.49-1.94-1.8-1.51-.74-3.4.18-2.35-.71-2.37-.33-2.57.19-3.36.25-2.97.49-.37-.86-2.77.1-1.79.62.04-.13-1.31 1.32 1.9 2.42 2.67 2.04 2.96 1.33 2.81 1.82 2.25 1.43.49.56.75.93.22 4 5.06 1.88 2.3.97 1.44 1.7 3.02.92 1.39 1.1 2.06 1.21 1.96.83 2.15 1.32 1.38.79 1.4.97 1.24-.4-1.51.7.1.99 1.33 3.54 13.16 2.68 12.6.27 4.36-.25 2.52-.9-2.3-.43.3-.7.16-.81-1.25-5.44-1.54-6.47-1.72ZM527.9 70.84l-2.18-1.54-2.66-2.1-4.46-2.38-1.84-.23-5.07-2.13-3.7-2.06-.08-.87-1.59-.9-1.27-.18-5.78-3.27-4.57-2.21-2.97-1.36-.22-.73-2.27-.81.1-1.23-2.64-.77-.36-.48 1.47-.51 2.04-.52 5.9 1.5 1.34.13 1.84 1.7 3.06 1.63 2.27.6 3.68 2.44 3.93 2.96 5.54 2.8 2.4.4 1.7-.08 4.48 2.78 1.2 1.5 6.21 3.39 3.53 2.38v1.2l2.95 2.21.4 1.44-3.3-1.52-3.98-1.3Zm1.95-13.99-.02-.76.7.23-.85-.75-.1-.7 1.46.6 1.08.66 1.53.33.19-.17.63.35-.12-.47.54.1 1.1.78.72.87.5.37.8.27 1.77.8 1.07 1.1 1 .74 1.65.96.1.31 1.01 1.17-.49-.1.9.76-.12.2.63.9.17.92.54 1.08.66 1 1.28 1.18.46.67-1.44-.83-1.33-.51-1.08-1.11-1.33-.75-1.09-.37-1.45-.75-.63-1.12-2.04-1.93-2.07-1.22-1.7-1.46-1.44-.63-1.03-.94Zm9.93 2.5-.27-.37-.98-.67-.16-.26-1.44-1.35 1 .19.92.63.85.42-.8-.85.86.31.62.36-.57-.89-1.47-1.15.53.06-.84-.69-1.18-1.16.8.48 2.07 1.35 1.2.68 1.15.77 1.63 1.28 1.52 1.12 1.27.85 1.37 1.13 1.83 1.43 1.44 1.28 2.2 1.81 1.42 1 .12.13-.38-.22.31.33.31.5 1.03.83-.13-.04 1.16 1.52-1-.67 1.42 1.46 2 1.63 2.98 2.6v.25l.96.99-.07.2-.58-.57-1.18-.97-1.21-1.05-.45-.28-.45-.44.3.16-.54-.73-.5-.5-.1.03-.5-.4-.38-.06-1.09-.66-.11.14-1.09-.78-.36.04.3.47-.26.32.91 1.06.67.61.37.56.94.82.91 1.17.75.78-.37.1.47.84.12.6.98 1.04-.8-.5-.47.16-1.4-1.13-1.01-.91.04-.16-1.26-.61-3.28-2.88-.73-.86-.98-.7-2.48-1.08-.46-.67-1.28-1.19-.66-.99-.54-1.08-.17-.92-.62-.9.11-.2-.9-.77.5.1-1.03-1.16-.1-.3-1.64-.97-1-.74Zm1.14 6.58 1.45.75 1.1.37 1.32.75 1.08 1.1 1.33.52 1.44.83 2.48 1.08.98.7.73.86 3.28 2.88 1.26.6-.04.17-.6.43.9 1.25-.06.4 1.03 1.24-.88-.1.65.83-.16-.05-1.38-.48.14.84-.99-.56-.08.65.9.77-.47.25-.93-.69-.03.78-.93-.1-2.02-.87-1.2-.85-1.75-.84-1.12-.3-.99-.92-1.7-.78-1.2-1.43-2.08-2.8-1.64-2.14.18-.85.81.37-.4-1.11-.24-1.24-1.1-2.18.04-.4Zm22.55 20.2 1.32 1.05.24.78.61.25 2.15 1.99.6.67.4 1.29.86 1.27v.97l-.48 1.38-1.05-.55.7 1.82.62.64-.38.5-.05.65-.55.17-.79-.84-.55-.4-.2-.55.85-.01-.86-.86.03-1.12-.68-1.44v-.6l.59.08-.56-.55-2.06-1.38-.49-.8-1.57-1.57.85-.25-1.5-1.72-.35-.65.72-.34-.35-.75.42-.2.44.41Zm-3.73-7.55.48-.16.79.5 1.07 1.27 2.41 2.16 2.48 2.38 1.07 1.55.23.77 1.22 1.7.66.9-.19.7-.98.03-.25.14-.97-.53.03.2-2.15-1.98-.6-.25-.25-.78-1.32-1.05.59-.1.18-.25-.8-1.43-.67-.56-.3-.62-.76-1h.14l-.66-.91-.88-.84-.39-.57.29-.76Zm-2.9-5.57-.67-.6-.9-1.07.25-.33-.3-.46.36-.04 1.09.78.11-.14 1.09.66.37.06.51.4.1-.03.5.5.54.73-.3-.16.45.44.45.28 1.21 1.05 1.18.97.58.58-1.16-.74-1.36-1.06-1.26-.88-1.22-.48-.98-.45-.61-.2Zm6.62 3.62.07-.21-.96-.99v-.25l.72.53 1.14 1.13.05.2 3.72 3.08.32.58-.3.2 1.8 2.2 1.18 1.29 1.13 1.98.18.73.51.74-.98-.57-.37-.15-.67-.73-.18.06.89.98-.45.15-1.17-.86-.3.3-.9-.58-.85-.16-1.07-1.55-2.48-2.38-2.41-2.16-1.07-1.27-.98-1.05-.12-.59-.48-.84.38-.1-.75-.78-.91-1.17-.94-.82-.37-.56.03-.19.61.2.98.45 1.22.48 1.26.88 1.37 1.06Zm-30.42-17.06 1.44.63 1.7 1.46 2.07 1.22 2.04 1.93.63 1.12-.89-.28-.05.4-.81-.35-1-.62-.29.23-.01.9-2.82-1.26-1.68-1.8-.78-1.76-.99-1.24.63.18-.15-.48Zm-6.96-3.74.43-.17 1.6.64 1.74.55 2.15 1.78 1.04.94-.96.28.15.48-.63-.18.99 1.24.77 1.75 1.7 1.81-2.67-1.34-2.47-1.59-1.72-1.57 2.18.35-.57-.9-2.8-1.42-1.17-1.17.14-.27.7-.35Zm-7.47-3.53.5.08 2.54 1.5 3.02 1.03 1.41.92.6.86-.7.35-.14.27 1.17 1.17-2.16-1.02.67.57-.88.12-2.01-.78-1.74-1.69-1.3-1.47-.15-.85Zm27.05 25.14 1.7.78.99.91 1.12.3 1.76.85 1.18.84 2.03.88.48.8-.31.09.7.75.82 1.37.9 1.05.87 1.46.96.47 1.36.84.68-.11 1.27.25 1.58 1.57.48.8 2.06 1.38.56.55-.59-.07v.59l.68 1.44-.03 1.12.86.86h-.85l.2.56-.96.72.7.84-.06 1.16-2.28-2-2.2-2.42-.69 1.48-.9-.03-1.44-1.18-.77-.3-2.24-1.83-3.55-2.35.06-.76-1.25-1.22-3.13-2.46-1.18-.56-.73-.72-.14-1.14.77.27-1.72-1.94-1.31-.55-2-1.2.46-.6-.57-1.1 1.36.82.74-.71 1.25.78-.79-1.64-1.04-1.25 1.15-.53Zm26.38 9.83.98.57-.51-.74-.17-.73-1.14-1.98-1.18-1.3-1.8-2.19.3-.2-.32-.58 1.7 1.67 2.37 2.17 1.23.88.53.93 1.88 2.24 1.37 1.22 1.12 1.58-.32.2 1.45 1.86.53 1.04-1.79-1.54-.51-.05-.53-.6-.25-.13-1.04-1.03-1.18-1.31-.87-.33-1-.75Zm20.43 17.3.84 1.01 1.68 2.57-.4-.48.68 1.44-1.2-1.48.3.04-.9-1.41-.58-1 .44.51ZM580.05 93.9l-.53-1.04-1.45-1.87.32-.19-1.12-1.58L575.9 88l.25-.07 2 1.98.54.63.5.84.23.54 1.78 2.48.91.37.89 1.19.48.85-.96-.52.75.85 1.42 1.2.83.46.9 1.15.73.35h.31l1.43 1.47.14.75 1.05.9.81 1.3 1.9 1.8.59 1.1-.43.13-1.75-1.6-1.6-1.53-.93-.62-1.16-.73-.72-.65-1.63-2-.93-.94-.62-.88-.74-.7-.72-1.24-.88-1.13-.37-.77-.6-.69Zm2.73-1.29-.1-.08 1.36 1.56 1.29 1.43 1.16 1.38-.1.11 1.32 1.75-1.8-1.69-.64-.3-2.5-2.75-.59-.25-3.66-4.06-1.79-2.38-2.49-2.44-1.93-2.44-3.23-3.2-2.29-2.28-2.36-2.33-.8-.83-.19-.18 6.39 5.82 6.18 6.04 5.97 6.25Zm-6.88-4.6-1.88-2.25-.53-.93.92.74-.1-.5.86.85 1.45 1.88 1.27 1.38 2.3 2.58-.94-.7-.56-.52-.54-.63-2-1.98Zm6.97 10.08.74.7.62.89.92.93 1.64 2-.08.1-.58-.56-.57-.04-1.26-1.12-1.95-1.9-.96-1.01-.34-.15-.87-.72-1.67-1.9.5.38-.42-.62.63.36.14-.1.98.81 1.04 1.06 1.1.9Zm-14.15-7.58.25-.14.98-.03.19-.7-.66-.9 1.05.58.69.23 1.34 1.46-.42.12.4 1.02-.1.83.26.73.72.83-.56-.06 1.34 1.34 1.22.47.83.46.91.27h.47l1.04.5.64-.35.55.6-.59.46-.77-.06-.49.6-1.86-.65-.3-.49-1.1-.4-1.02-.83-.28.54 1.4 1.54-.94-.43-1.06-.9-.06-.1-.1-.92-.57-.69.4-.07-.09-.52-.85-.69-.44-.75-1.28-1.13Zm-1.61 7.25.55.4.8.84.54-.17.05-.65 1.3 1.16.55 1.06-.36.73 1.27 1.36.1.77-.5-.17 1.04 1.7.12.82-.7.05-1.4-.69.43 1.1-1.41-1.23-1.7-2.52-.8-.62.33-.4-.53-.82.05-1.16-.69-.84Zm-8.6-1.73.77.3 1.43 1.18.04.44-.32.08-1.83-1.56Zm-2.24-1.83 2.24 1.83.09.44 1.83 1.56h-1.64l.15.88-1.72-.29-1.45-.42-.18.56-1.21-.7-.45-1.54.44-.74-.52-1.7 1.56.25Zm-9.05-7.35 1.18.56 3.13 2.46 1.25 1.22-.06.76 3.55 2.35-.86.14-1.56-.27.52 1.71-.44.74-.8-1.34-4.84-4.7-1.25-2.67Zm28.37 54.19-.35-1.36-.02-1.06 1.59 1.2.53-.87-.2-.65.6-.75 1.63 1.18.35 1.56 2.1 2.54.25.72 1.23 1.61-.17.93 1.94 1.37 1.45 2.6 1.09.45.57 1.12.6 1.84.9.99.27 1.5-.88.36-.25 1.19-1.8-2.9-1.65-1.92-.7.38-1.22-.91-1.6-2.31-.55-1.82-1-1.44-1.4-2.3-1.16-1.34-1.18-.88Zm14.1 13.41-.91-.98-.6-1.84-.57-1.12-1.09-.45-1.45-2.6-1.94-1.37.17-.93-1.23-1.6-.24-.72-2.11-2.55-.35-1.56-1.63-1.18-.6.75.2.65-.53.88-1.59-1.2.02 1.05.35 1.36-1.92-2.37-1.61-.8-.72-4.33 1.57-1.19 1.05-1.96 1.27-1.02.41-1.37 1.1-2.28 1.35.58 2.25-1.38-.46-1.19 1.77-.35.02-2.15 1.7 1.64 1.57 3.44.08 2.62.9 1.16 1.24 2.66 2.03 3.15 1.74 1.18.88 2.33 1.59 2.42.08 1.87 1.53 3.64-.83 2.11-.76 1.48.38 2.2.62 1.88-.63.5-1.16-.53-1.69-1.48Zm-48.6-52.74 2.5 1.72 2.45 3.35.6 3.81-1.64 1.3-2.73-3.93-3.77-2.21-1.58-3.7-1.04-2.1 1.96 1.19 1.67 1.67.38-.76Zm27.96-3.53.38-.5-.62-.64-.7-1.82 1.05.55.48-1.38 1.56 1.39 1.25.72-.24.77 1.27 2.08 1.5 1.2.89.92 1.47.86 1.27-.07 2.3 1.42 1.96.46-.32-1.2.53.2.68.96.63-.4.5-.33.99.06.45.34 1.09 1.25-.99-.4-.02.92 1.98 2.4.67-.11 1.47 1.63.36.82 2.52 3.25.38.9-.8-.87-1.53-1.84-.66-.94-1.4-.99-1.27-.9-.19.3-1.1-.73-.29.51-1-.43v.97l-1.11-.04-1.73-.39-1.6-.54-2.9-2.22-.31.43-.97.3.41 1.06 1.38 2.13.2.82-1.3-1.37-.42.45-2.37-1.74-.9-1.33-1.18-.6-.88-.81.7-.05-.12-.82-1.03-1.7.5.17-.1-.77-1.28-1.36.37-.73-.57-1.06Zm24.48 17.07-.52-1.47 2.22 2.82.74.66 1.4 1.82-.68.17-.12.52-.95.8-1.39-1.73-.07-1.63Zm-6.45 1.74-.9-1.66 1.98 1.09 3.67 4.04-.15.54.91 1.63-.71-.17-3.34-3.46-1.62-1.3Zm-45.1-37.11.57 1.08-.46.61-1.98-.72-3.66-2.15-.97-.75-1.08-.95-.24-1.11-1.01-.95-1.09-1.45 1.88 1.05 1.2.99 1 .43.5-.3 1.38 1.04-.37.12 2.62 2.34Zm-4.27-5.2 1.73.65 2.96 2.36-1.86.06-1.46-.7Zm3.37 27.03-1.2.34-.37.76-1.67-1.67-1.96-1.2.42-1.05 2.8.38Zm3.4-2.47-1.9-1.68-2.47-.79-.05-.01-1.28.95-1.07-.42-1.33-1.56-1.15-.32 1.32 1.81-3.37-2.39-2.08-.73-3.43-2.96-2.46-2.8.7-.64.27-1.46 3.36 3.7.01-1.42.5-1.18 2.8 2.22 2.75 3.2.71-1.02.4.17 4.51 1.87.84-.41 4.17 2.1 1.45.64 1.07-1.02 2.13 1.76.82 1.4 1.87.8 1.42 2.53-.59 1.7.08 2.93-.9.07 1.15 2.13-.93.87.78 1.98-1 .12-2.46-4.79-.19-1.71-1.49 1.5-1.49-.73-.38-2.12-2.14-.78-2.09-1.97Zm-53.56-20.52 2.19 1.65 3.25.68 1.82 2.84.1 4.04-.12 1.16-1.68.7-3.72 1.37-.53-1.9-3.73.36 1.06-1.81-1.04-.72-2.76.93-1.52-2.15.88-1.44 3.68.55-.62-2.45 2-.26-.68-2.47Zm78.72 15.67v-.98l-.87-1.26-.39-1.29-.6-.67-.03-.22.97.54 1.14 1.77 1.28 1.13.44.75.85.69.08.52-.4.07.58.7.1.91-.34-.55-1.25-.72ZM483.11 42l2.73.6 1.64-.6 3.35 1.27 3.48.06 3.58 1.32 2.1-.04 2.63.99 1.36-.58 2.1.86 2.74 1.46 6.09 3.53 1.51 1.85 2.4 2.23 1.68 1.92-1.68-.21-.73.48-3.74-1.62-3.15-.79-2.4-1.2-2.76-1.62-5.18-3.23-1.13-.78-1.54-.36-1.1.65-1.34-.14-5.91-1.49-2.04.52-1.47.5-1.24-.67 1.69-.32-.7-.98.49-.56-2.14-1.05-3.05-.9-2.02-1.27.87-.6Zm74.2 34.54 1.02.91 1.4 1.13.47.5-.29.77.39.57.88.84.66.9h-.14l.75 1.02.3.6.68.57.8 1.43-.18.25-.6.1-1.06-.66-.44-.4-.76-.7-.14-.55-.48-.69-.32-.24-.24-.37-.76-.59-.25-.4-.65-.6-.15-.4.16.06-.65-.84.88.11-1.03-1.25.06-.4-.9-1.24ZM554.44 82l.93.1.03-.78.93.69.48-.25-.91-.77.08-.65.99.56-.14-.84 1.38.48.15.39.65.6.25.4.76.6.25.36.3.24.5.7.13.55.76.69-.42.19.35.75-.72.34.35.65 1.5 1.72-.85.25-1.26-.25-.69.11-1.36-.84-.96-.47-.86-1.45-.91-1.06-.82-1.37-.7-.75.3-.08Zm-62.87 354.5.76 1.38-1.09 3.9 3.73-.27 1.63-.88 2.24.2.46.7-.34 2.44.13.95 1.28-.18 1.45-.76 1.12.18-.44 1.5-.97 1.69-1.16 1.68-1.32 2.42-3.8 2.69-2.87 1.02-3.8.46-3.34.05 4.64-4.6-.19-1.05-3.42-.28-3.96-1.11-2.92.14-5.96-3.28 2.12-3.6.37-1.56 2.26-2.86 6.8-2.04 3.5-.62 3.22.8Zm107.19-284.14 1.8 1.51 1.49 1.94 2.69 2.97.65.26.77 1.64-.5 2.81.5 2.06-.25 1.3 1.6 2.64-.12 3.4.71 2.43-.19 2.37-.66 2.27-.24 5.45 2.32 4.29-.18.26 1.05 1.92-.66 1.2.03 1.4-.56.8-.69.14-.89 1.86.97 3.46-.28.81 1.52 5.54-.26 6.5 1.64 5.84.03 2.43.34 1.6-3.63 4.23-.03.03-.59-1.87.26-1.7-.23-2.58-.62-1.18-.52-3.3-.12-3.38.27-1.19-.55-2.66-.87-2.06-.52-2.94.35-2.5-.95-4.9v-.08l-.02-2.27 1.05-2-.3-3.85.1-1.83-.69-4.45-2.88-4.05-1.41-3.7-1.01-2.1-.8-3.44v-3.25l-.24-2.65-1.83-4.65-1.2-2.6.64-1.18 1.53.45.57-1.8 1.29-.96Zm12.05-22.55-3.6-5.6-1.34-1.92-1.56-2.28-.75-1-1.4-2.03-1.49-2.28-.55-.84-.23-.32 4.97 7.06 4.72 7.24Zm15 28.33.08.27-.56 1.03 1.39 3.75.9 2.62-.7-.81-.28 1.5-1-1.31-.69-.11.4 1.5-.97-1.24-.79-1.39-1.33-1.38-.82-2.15-1.22-1.96-1.1-2.06-.91-1.4-1.7-3.01-.97-1.43-1.88-2.31-.54-1.63-.94-1.52-.92-1.14-.94-2.45-.78-1.56-.74-1.75-1.8-2.51.55-.95-.31-1 .12-.93.53-.92 1.81 1.94v-.97l.13-1.17.39-.33-.9-1.65-1.34-2.24-1.52-1.92-1.32-2-1.6-2.62-.86-1.57-.69-1.68.7.74-.35-.63.08-.03-.73-1.33.46.55 1.41 2.03.75 1 1.56 2.28 1.34 1.91 3.6 5.6 4.4 7.44 4.13 7.59 3.87 7.72Zm-46.5-60.96-.63.35-1.04-.5h-.47l-.9-.27-.84-.46-1.22-.47-1.34-1.34.56.06-.72-.83-.27-.73.1-.83-.39-1.02.42-.12-.21-.52 1.45 1.42.86.25 1.47 1.37.27.46.37.5.86 1.06Zm-1.55-4.86.51.05 1.79 1.54.24.38.62.68.36.77.88 1.13.72 1.23h-.39l-1.1-.89-1.04-1.06-.06-.16-.61-.6-.85-1.26-.27-.43-.41-.66Zm-8.27-3.57-1.22-1.7-.23-.77.85.16.9.58.3-.3 1.17.86.45-.15-.9-.98.2-.06.66.73.37.15.85.9 1 .75.87.33 1.18 1.31 1.04 1.03.25.13.53.6.39.72.41.66-.18-.14-.43-.48-.77-.77.12.23-.4-.18-.02.13-.37-.2-.04.13-.32-.14.28.4 1.05 1.02.36.54-.3-.33-.36.04-.1.22-.33-.14-.34-.03-.27-.46-1.47-1.37-.86-.25-1.45-1.42.21.52-1.34-1.46-.69-.23Zm9.11 6.33.42.62-.5-.38 1.67 1.9.87.72-.1.11-.76-.4-.34.13-.54-.6-1.68-1.62-.86-1.06-.37-.5.34.03.32.14.11-.22.36-.05.3.34Zm1.75 1.07-.98-.81-.14.1-.63-.36-.76-.84-.36-.54-1.05-1.02-.28-.4.32.14.04-.13.37.2.02-.12.4.17-.12-.23.77.77.43.48.18.14.27.43.85 1.27.6.59Zm-98.38 232.12 2.26-.93h.84l.04 3.07-3.3 1.03-.75-.25 1.1-1.32Z"/><path fill="rgba(0,20,10,.42)" d="m379.36 12.86-1.95.18-5.9.75-5.88 1.04-5.84 1.34-5.79 1.64-5.72 1.94-5.67 2.22-5.6 2.52-5.52 2.8-5.43 3.09-5.35 3.36-5.25 3.64-5.15 3.9-5.03 4.18-4.92 4.44-4.8 4.69-4.68 4.94-4.54 5.19-4.4 5.42-4.26 5.65-4.1 5.88-3.96 6.09-3.8 6.3-3.63 6.5-3.47 6.7-3.29 6.89-3.12 7.06-2.93 7.23-2.76 7.38-2.56 7.54-2.38 7.68-2.18 7.81-1.99 7.94-1.79 8.05-1.59 8.15-1.39 8.25-1.18 8.32-.98 8.4-.77 8.47-.56 8.51-.36 8.56-.15 8.6.06 8.6.27 8.62.48 8.63.68 8.6.9 8.6 1.09 8.56 1.3 8.52 1.5 8.46 1.71 8.4 1.9 8.34 2.1 8.24 2.3 8.16 2.49 8.05 2.67 7.94 2.86 7.82 3.04 7.69 3.22 7.54 3.4 7.4 3.56 7.23 3.73 7.07 3.89 6.89 4.04 6.7 4.2 6.52 4.34 6.3 4.48 6.1 4.62 5.9 4.75 5.66 4.87 5.43 4.99 5.2 5.1 4.94 5.2 4.7 5.31 4.45 5.4 4.19 5.49 3.92 5.56 3.65 5.64 3.37 5.7 3.1 5.77 2.81 5.81 2.53 5.86 2.24 5.9 1.94 5.93 1.65 5.95 1.36 5.96 1.06 5.98.75 5.98.46 5.97.16 5.96-.15 3.99-.26-8.62.57-8.64.27-8.64-.04-8.63-.33-8.62-.63-8.58-.94-8.56-1.24-8.5-1.53-8.44-1.83-8.37-2.12-8.3-2.41-8.2-2.7-8.11-2.99-8-3.26-7.88-3.55-7.75-3.81-7.61-4.09-7.47-4.35-7.3-4.6-7.15-4.86-6.97-5.1-6.79-5.35-6.6-5.58-6.39-5.8-6.2-6.03-5.97-6.23-5.75-6.44-5.53-6.64-5.3-6.83-5.05-7.01-4.8-7.18-4.55-7.34-4.3-7.5-4.02-7.65-3.76-7.77-3.48-7.9-3.2-8.03-2.93-8.13-2.64-8.23-2.35-8.31-2.06-8.39-1.76-8.46-1.47-8.51-1.17-8.56-.87-8.6-.57-8.62-.27-8.63.04-8.64.33-8.63.64-8.62.93-8.58 1.24-8.56 1.53-8.5 1.83-8.44 2.12-8.37 2.41-8.3 2.7-8.2 2.99-8.11 3.26-8 3.55-7.88 3.81-7.75 4.09-7.61 4.35-7.47 4.6-7.3 4.86-7.15 5.1-6.97 5.35-6.78 5.58-6.6 5.8-6.4 6.03-6.2 6.23-5.97 6.45-5.75 6.63-5.53 6.83-5.3 7.01-5.05 7.18-4.8 7.34-4.55 7.5-4.3 7.65-4.02 7.77-3.76 7.9-3.48 8.03-3.2 8.13-2.93 8.23-2.64 8.31-2.35 8.39-2.06 8.46-1.76 8.51-1.47 8.56-1.17z"/><path fill="none" stroke="rgba(12,50,44,.28)" d="m400 507-8.64-.15-8.62-.45-8.61-.76-8.57-1.05-8.54-1.35-8.48-1.65-8.42-1.94-8.34-2.24-8.26-2.52-8.17-2.82-8.06-3.1-7.96-3.37-7.83-3.65-7.7-3.92-7.55-4.19-7.4-4.45-7.25-4.7-7.08-4.96-6.9-5.2-6.71-5.43-6.52-5.67-6.32-5.9-6.1-6.1-5.9-6.32-5.67-6.52-5.43-6.71-5.2-6.9-4.96-7.08-4.7-7.25-4.45-7.4-4.19-7.56-3.92-7.7-3.65-7.82-3.38-7.96-3.1-8.06-2.8-8.17-2.53-8.26-2.24-8.34-1.94-8.42-1.65-8.48-1.35-8.54-1.05-8.57-.76-8.6-.45-8.63-.15-8.64.15-8.64.45-8.62.76-8.61 1.05-8.57 1.35-8.54 1.65-8.48 1.94-8.42 2.24-8.34 2.52-8.26 2.82-8.17 3.1-8.06 3.37-7.96 3.65-7.83 3.92-7.7 4.19-7.55 4.45-7.4 4.7-7.25 4.96-7.08 5.2-6.9 5.43-6.71 5.67-6.52 5.9-6.32 6.1-6.1 6.32-5.9 6.52-5.67 6.71-5.43 6.9-5.2 7.08-4.96 7.25-4.7 7.4-4.45 7.56-4.19 7.7-3.92 7.82-3.65 7.96-3.38 8.06-3.1 8.17-2.8 8.26-2.53 8.34-2.24 8.42-1.94 8.48-1.65 8.54-1.35 8.57-1.05 8.6-.76 8.63-.45L400 12l8.64.15 8.63.45 8.6.76 8.57 1.05 8.54 1.35 8.48 1.65 8.42 1.94 8.34 2.24 8.26 2.52 8.17 2.82 8.06 3.1 7.96 3.37 7.83 3.65 7.7 3.92 7.55 4.19 7.4 4.45 7.25 4.7 7.08 4.96 6.9 5.2 6.71 5.43 6.52 5.67 6.32 5.9 6.1 6.1 5.9 6.32 5.67 6.52 5.43 6.71 5.2 6.9 4.96 7.08 4.7 7.25 4.45 7.4 4.19 7.56 3.92 7.7 3.65 7.82 3.38 7.95 3.1 8.07 2.8 8.17 2.53 8.26 2.24 8.34 1.94 8.42 1.65 8.48 1.35 8.53 1.05 8.58.76 8.6.45 8.63.15 8.64-.15 8.64-.45 8.63-.76 8.6-1.05 8.57-1.35 8.54-1.65 8.48-1.94 8.42-2.24 8.34-2.52 8.26-2.82 8.17-3.1 8.06-3.37 7.96-3.65 7.83-3.92 7.7-4.19 7.55-4.45 7.4-4.7 7.25-4.96 7.08-5.2 6.9-5.43 6.71-5.67 6.52-5.9 6.32-6.1 6.1-6.32 5.9-6.52 5.67-6.71 5.43-6.9 5.2-7.08 4.96-7.25 4.7-7.4 4.45-7.56 4.19-7.7 3.92-7.82 3.65-7.96 3.38-8.06 3.1-8.17 2.8-8.26 2.53-8.34 2.24-8.42 1.94-8.48 1.65-8.54 1.35-8.57 1.05-8.6.76-8.63.45z"/><g class="pins"><g transform="translate(400 259.5)"><circle r="16" fill="#fff" opacity=".18"/><circle r="9.5" fill="none" stroke="#fff" stroke-width="1.8" opacity=".75"/><circle r="5" fill="#fff"/><g class="pin-label"><rect width="68.73" height="20" x="6" y="-25" fill="rgba(239,239,239,1)" rx="3"/><text x="11" y="-11" fill="currentColor" stroke="rgba(255,255,255,.0)" stroke-linejoin="round" stroke-width="3" font-family="SUSE, ui-sans-serif, sans-serif" font-size="11" font-weight="700" letter-spacing=".07em" paint-order="stroke">ORLANDO</text></g></g><g transform="translate(560.74 90.98)"><circle r="10" fill="#fff" opacity=".14"/><circle r="3.5" fill="#fff"/><g class="pin-label"><rect width="70.34" height="18" x="4.5" y="-21.5" fill="rgba(239,239,239,1)" rx="3"/><text x="9.5" y="-9.5" fill="currentColor" stroke="rgba(255,255,255,.0)" stroke-linejoin="round" stroke-width="3" font-family="SUSE, ui-sans-serif, sans-serif" font-size="9" font-weight="700" letter-spacing=".07em" paint-order="stroke">NUREMBERG</text></g></g><g transform="translate(529.3 435.44)"><circle r="10" fill="#fff" opacity=".14"/><circle r="3.5" fill="#fff"/><g class="pin-label"><rect width="64.11" height="18" x="4.5" y="-21.5" fill="rgba(239,239,239,1)" rx="3"/><text x="9.5" y="-9.5" fill="currentColor" stroke="rgba(255,255,255,.0)" stroke-linejoin="round" stroke-width="3" font-family="SUSE, ui-sans-serif, sans-serif" font-size="9" font-weight="700" letter-spacing=".07em" paint-order="stroke">SÃO PAULO</text></g></g><g transform="translate(377.45 136.89)"><circle r="10" fill="#ef4444" opacity=".14"/><circle r="3.5" fill="#ef4444"/><g class="pin-label"><rect width="67.39" height="18" x="4.5" y="-21.5" fill="rgba(239,239,239,1)" rx="3"/><text x="9.5" y="-9.5" fill="currentColor" stroke="rgba(255,255,255,.0)" stroke-linejoin="round" stroke-width="3" font-family="SUSE, ui-sans-serif, sans-serif" font-size="9" font-weight="700" letter-spacing=".07em" paint-order="stroke">SINGAPORE</text></g></g><g transform="translate(271.55 196.8)"><circle r="10" fill="#f59e0b" opacity=".14"/><circle r="3.5" fill="#f59e0b"/><g class="pin-label"><rect width="89" height="18" x="4.5" y="-21.5" fill="rgba(239,239,239,1)" rx="3"/><text x="9.5" y="-9.5" fill="currentColor" stroke="rgba(255,255,255,.0)" stroke-linejoin="round" stroke-width="3" font-family="SUSE, ui-sans-serif, sans-serif" font-size="9" font-weight="700" letter-spacing=".07em" paint-order="stroke">SAN FRANCISCO</text></g></g></g></g></svg><path fill="#0c322c" d="M22.97 517.25q-1.79 0-3.21-.81t-2.24-2.27-.82-3.42v-.12q0-1.95.82-3.4.82-1.46 2.24-2.27t3.21-.81 3.2.81q1.4.81 2.22 2.27.82 1.45.82 3.4v.12q0 1.95-.82 3.42-.82 1.46-2.22 2.27t-3.2.81m0-2.48q1.06 0 1.88-.48t1.28-1.38.47-2.16v-.12q0-1.24-.47-2.14t-1.28-1.38-1.88-.48-1.89.48-1.3 1.38-.47 2.14v.12q0 1.26.47 2.16t1.3 1.38 1.89.48M33.05 517v-12.6h4.75q2.01 0 3.25 1.04 1.23 1.05 1.23 3.01 0 1.4-.62 2.34t-1.72 1.37l2.72 4.84h-2.9l-2.38-4.46H35.6V517zm4.62-10.46H35.6v3.87h2.07q.88 0 1.44-.51t.56-1.41q0-.87-.56-1.41t-1.44-.54M48.4 517q-.94 0-1.54-.6-.6-.61-.6-1.54V504.4h2.54v9.7q0 .22.15.36.15.15.37.15h5.09V517zm8.1 0 4.52-12.6h3.15l4.52 12.6h-2.61l-1.01-2.92h-4.95L59.11 517zm4.36-5.06h3.49l-1.75-5.11zM71.89 517v-12.6h2.29l5.5 8.1v-8.1h2.54V517h-2.23l-5.54-8.14V517zm14.8 0v-12.6h4.68q1.35 0 2.5.45t2 1.28 1.32 1.96q.48 1.13.48 2.5v.18q0 1.37-.49 2.51-.49 1.15-1.34 1.97t-2 1.29-2.47.46zm4.48-10.22h-1.93v7.84h1.93q1.13 0 2.01-.48.89-.49 1.38-1.35.5-.87.5-2.02v-.18q0-1.15-.49-2t-1.37-1.34q-.88-.47-2.03-.47m15.96 10.47q-1.78 0-3.2-.81t-2.24-2.27-.82-3.42v-.12q0-1.95.82-3.4.82-1.46 2.24-2.27t3.2-.81q1.8 0 3.21.81 1.4.81 2.22 2.27.82 1.45.82 3.4v.12q0 1.95-.82 3.42-.82 1.46-2.22 2.27t-3.21.81m0-2.48q1.07 0 1.88-.48.82-.48 1.29-1.38t.47-2.16v-.12q0-1.24-.47-2.14t-1.29-1.38-1.88-.48-1.89.48-1.29 1.38-.47 2.14v.12q0 1.26.47 2.16t1.29 1.38 1.89.48" opacity=".55"/><path fill="#fff" d="M17.96 552v-2.82h3.52v-9.3q0-.46-.44-.46h-3.19v-2.82h4.05q1.14 0 1.88.74.73.73.73 1.86v9.98h3.46V552zm18.08.22q-2.79 0-4.35-2.06-1.57-2.05-1.57-5.82 0-3.8 1.57-5.88 1.56-2.08 4.35-2.08 2.77 0 4.33 2.08 1.55 2.08 1.55 5.88 0 3.77-1.55 5.82-1.56 2.06-4.33 2.06m0-2.79q2.75 0 2.75-5.09 0-5.17-2.75-5.17-2.79 0-2.79 5.17 0 5.09 2.79 5.09m7.99-4.98v-3.23h3.28v3.23zm0 7.55v-3.26h3.28V552zm11.31.22q-2.8 0-4.36-2.06-1.56-2.05-1.56-5.82 0-3.8 1.56-5.88t4.36-2.08q2.77 0 4.32 2.08t1.55 5.88q0 3.77-1.55 5.82t-4.32 2.06m0-2.79q2.75 0 2.75-5.09 0-5.17-2.75-5.17-2.8 0-2.8 5.17 0 5.09 2.8 5.09m13.42 2.79q-2.8 0-4.36-2.06-1.56-2.05-1.56-5.82 0-3.8 1.56-5.88t4.36-2.08q2.77 0 4.32 2.08t1.55 5.88q0 3.77-1.55 5.82t-4.32 2.06m0-2.79q2.75 0 2.75-5.09 0-5.17-2.75-5.17-2.8 0-2.8 5.17 0 5.09 2.8 5.09M80 552l5.52-15.4h3.85l5.52 15.4H91.7l-1.23-3.56h-6.05L83.19 552zm5.32-6.18h4.27l-2.13-6.25zM96.83 552v-15.4h4.18l3.45 7.96 3.43-7.96h4.18V552h-3.03v-11.26l-3.43 8.2h-2.31l-3.44-8.2V552z"/><path fill="#0c322c" d="m17.95 571-1.81-6.3h.96l1.34 4.92 1.52-4.92h1.03l1.52 4.92 1.34-4.92h.95l-1.82 6.3h-.95l-1.56-5.14-1.54 5.14zm9.16 0q-.44 0-.73-.29t-.29-.74v-4.24q0-.45.29-.74t.73-.29h2.98v.86h-2.68q-.17 0-.28.11t-.11.29v1.47h2.89v.82h-2.89v1.49q0 .17.11.29t.28.12h2.68v.85zm4.65 0v-6.3h2.19q.89 0 1.59.39t1.11 1.08.4 1.59v.1q0 .69-.23 1.27-.24.57-.66.99t-.99.65-1.22.23zm2.12-5.42H32.7v4.54h1.18q.64 0 1.14-.29t.79-.79.29-1.18v-.1q0-.65-.29-1.14-.28-.5-.78-.77t-1.15-.27m4.08 5.42v-1.11h1.06v1.69q0 .29-.12.45t-.29.23-.36.06h-.33v-.51h.33q.11 0 .16-.07t.06-.17V571zm4.47 0v-.85h1.33q.25 0 .41-.17.16-.16.16-.4v-4.02h-1.6v-.86h2.55v4.79q0 .74-.41 1.12t-1.19.39zm7.1.12q-1.09 0-1.75-.57-.65-.58-.65-1.7v-4.15h.94v4.08q0 .72.39 1.09.4.37 1.07.37.66 0 1.06-.37t.4-1.09v-4.08h.94v4.15q0 1.12-.66 1.7t-1.74.57m5.28-.12q-.44 0-.74-.29-.29-.29-.29-.74v-5.27h.94v5.01q0 .17.11.29t.29.12h2.53v.88zm8.31.09q-.7 0-1.22-.22-.52-.23-.81-.64t-.29-.96.31-.97q.3-.4.83-.59-.43-.19-.67-.57t-.25-.86q0-.5.26-.88t.73-.58 1.11-.21 1.12.21q.47.2.73.58t.26.88q0 .48-.25.86-.24.38-.68.57.53.18.84.59t.31.96-.29.97-.82.64-1.22.22m.01-3.72q.54 0 .87-.26.32-.27.32-.71t-.33-.71-.87-.27-.86.27-.32.71.32.71.87.26m-.01 2.92q.62 0 .99-.31.38-.3.38-.8 0-.49-.38-.79-.37-.29-.98-.29t-.99.29-.38.79.37.8.99.31"/><path fill="#fff" d="M159.19 487h1v113h-1z"/><path fill="#0c322c" d="m176.24 517 4.52-12.6h3.15l4.52 12.6h-2.61l-1.01-2.92h-4.95l-1.01 2.92zm4.36-5.06h3.49l-1.74-5.11zm11.03 5.06v-12.6h3.42l2.83 6.52 2.81-6.52h3.42V517h-2.49v-9.22l-2.8 6.72h-1.89l-2.81-6.72V517zm16.38 0v-2.3h2.06v-8h-2.06v-2.3h6.68v2.3h-2.05v8h2.05v2.3zm10.59 0v-12.6h2.28l5.51 8.1v-8.1h2.54V517h-2.23l-5.55-8.14V517zm13.52 0 4.51-12.6h3.15l4.52 12.6h-2.61l-1.01-2.92h-4.95l-1 2.92zm4.35-5.06h3.49l-1.74-5.11z" opacity=".55"/><path fill="#0c322c" d="M176.97 534v-6.3h.72l3.24 4.96v-4.96h.77v6.3h-.71l-3.25-4.96V534zm8.07.09q-.72 0-1.2-.43-.48-.42-.48-1.35v-2.64h.73v2.51q0 .7.31.97t.78.27q.49 0 .84-.32.36-.32.36-.98v-2.45h.72V534h-.65v-.65q-.27.43-.67.58-.4.16-.74.16m3.77-.09v-4.33h.7v.69q.16-.41.48-.56t.72-.15h.37v.72h-.43q-.53 0-.82.26-.29.27-.29.81V534zm5.15.09q-.64 0-1.13-.28t-.77-.79-.27-1.16v-.09q0-.63.25-1.12t.71-.78 1.06-.29q.62 0 1.06.31.45.3.66.86.21.55.12 1.31h-3.13q.02.37.21.68.18.32.5.5t.75.18q.34 0 .61-.08t.46-.26l.42.45q-.25.27-.65.42-.39.14-.86.14m-.15-3.88q-.54 0-.88.34t-.41.91h2.43q0-.59-.32-.92-.31-.33-.82-.33m3.24 3.79v-4.33h.7v.69q.25-.45.63-.61.38-.17.74-.17.47 0 .83.21.35.21.53.64.19-.33.45-.51.25-.19.53-.26.27-.08.51-.08.71 0 1.15.46.44.45.44 1.39V534h-.71v-2.48q0-.67-.29-.97t-.76-.3-.81.33q-.32.32-.32.94V534h-.72v-2.48q0-.67-.28-.97t-.75-.3q-.49 0-.82.33-.33.32-.33.94V534zm10.39.09q-.51 0-.91-.23t-.66-.63v.77h-.66v-6.57h.72v2.94q.26-.37.64-.58.39-.21.87-.21.58 0 1.04.28t.73.77q.26.5.26 1.15v.08q0 .66-.26 1.17t-.72.78-1.05.28m-.11-.65q.41 0 .72-.19.32-.19.51-.55.18-.36.18-.84v-.08q0-.7-.4-1.13t-1.01-.42q-.41 0-.74.2-.32.2-.51.56t-.19.85.19.85.51.55q.33.2.74.2m5.44.65q-.63 0-1.12-.28t-.77-.79-.27-1.16v-.09q0-.63.25-1.12t.71-.78 1.06-.29q.62 0 1.06.31.44.3.66.86.21.55.12 1.31h-3.14q.03.37.22.68.18.32.5.5t.75.18q.34 0 .61-.08t.46-.26l.42.45q-.25.27-.65.42-.39.14-.87.14m-.14-3.88q-.54 0-.88.34t-.41.91h2.43q-.01-.59-.32-.92t-.82-.33m3.24 3.79v-4.33h.7v.69q.16-.41.48-.56t.72-.15h.37v.72h-.42q-.53 0-.83.26-.29.27-.29.81V534zm2.92 1.8v-.61h2.58q.31 0 .48-.15t.17-.42q0-.25-.17-.39t-.48-.14h-1.42q-.34 0-.52-.16t-.2-.41.11-.48l.28-.59q-.33-.2-.52-.53t-.19-.74v-.08q0-.45.24-.79t.66-.54.96-.19l.2.01.44-.91h.72l-.55 1.04q.47.17.76.53.28.36.28.83v.1q0 .46-.24.81t-.65.56-.96.2q-.29 0-.56-.06l-.22.42q-.06.12-.04.26.03.14.25.14h1.27q.55 0 .89.28t.34.84q0 .51-.34.84t-.93.33zm1.98-3.62q.26 0 .52-.09.26-.1.44-.33t.18-.62q0-.43-.32-.7t-.82-.26-.83.26q-.32.27-.32.7 0 .39.18.62t.45.33.52.09"/><path fill="#fff" d="M176.92 563.18v-2.53l4.53-9.55h3.06l-4.34 9.37h3.57v-3.78h2.94v3.78h2.07v2.71h-2.07v3.32h-2.94v-3.32zm13.88-4.23v-3.23h3.28v3.23zm0 7.55v-3.26h3.28v3.26zm11.31.22q-2.8 0-4.36-2.06-1.56-2.05-1.56-5.82 0-3.8 1.56-5.88t4.36-2.08q2.77 0 4.32 2.08t1.55 5.88q0 3.77-1.55 5.82t-4.32 2.06m0-2.79q2.75 0 2.75-5.09 0-5.17-2.75-5.17-2.8 0-2.8 5.17 0 5.09 2.8 5.09m13.42 2.79q-2.8 0-4.36-2.06-1.56-2.05-1.56-5.82 0-3.8 1.56-5.88t4.36-2.08q2.77 0 4.32 2.08t1.55 5.88q0 3.77-1.55 5.82t-4.32 2.06m0-2.79q2.75 0 2.75-5.09 0-5.17-2.75-5.17-2.8 0-2.8 5.17 0 5.09 2.8 5.09m13.39 2.57v-15.4h5.37q2.53 0 4.04 1.31t1.51 3.62-1.51 3.61-4.04 1.29h-2.24v5.57zm5.53-12.76h-2.4v4.62h2.4q1.07 0 1.7-.66t.63-1.67q0-.99-.63-1.64t-1.7-.65m7.74 12.76v-15.4h4.18l3.45 7.96 3.44-7.96h4.18v15.4h-3.04v-11.26l-3.43 8.2h-2.31l-3.43-8.2v11.26z"/><path fill="#0c322c" d="m178.14 585.5-1.81-6.3h.96l1.34 4.92 1.52-4.92h1.03l1.52 4.92 1.34-4.92h.95l-1.82 6.3h-.95l-1.56-5.14-1.54 5.14zm9.16 0q-.44 0-.73-.29t-.29-.74v-4.24q0-.45.29-.74t.73-.29h2.98v.86h-2.68q-.17 0-.28.11t-.11.29v1.47h2.89v.82h-2.89v1.49q0 .17.11.29t.28.12h2.68v.85zm4.65 0v-6.3h2.19q.89 0 1.59.39t1.11 1.08.4 1.59v.1q0 .69-.23 1.27-.24.57-.66.99t-.99.65-1.22.23zm2.12-5.42h-1.18v4.54h1.18q.64 0 1.14-.29t.79-.79.29-1.18v-.1q0-.65-.29-1.14-.28-.5-.78-.77t-1.15-.27m4.08 5.42v-1.11h1.06v1.69q0 .29-.12.45t-.29.23q-.18.06-.36.06h-.33v-.51h.33q.11 0 .16-.07t.06-.17v-.57zm4.47 0v-.85h1.33q.25 0 .41-.17.16-.16.16-.4v-4.02h-1.6v-.86h2.55v4.79q0 .74-.41 1.12t-1.19.39zm7.1.12q-1.09 0-1.75-.57-.65-.58-.65-1.7v-4.15h.94v4.08q0 .72.39 1.09.4.37 1.07.37.66 0 1.06-.37t.4-1.09v-4.08h.94v4.15q0 1.12-.66 1.7t-1.74.57m5.28-.12q-.44 0-.74-.29-.29-.29-.29-.74v-5.27h.94v5.01q0 .17.11.29t.29.12h2.53v.88zm8.31.09q-.7 0-1.22-.22-.52-.23-.81-.64t-.29-.96.31-.97q.3-.4.83-.59-.43-.19-.67-.57t-.25-.86q0-.5.26-.88t.73-.58 1.11-.21 1.12.21q.47.2.73.58t.26.88q0 .48-.25.86-.24.38-.68.57.53.18.84.59t.31.96-.29.97-.82.64-1.22.22m.01-3.72q.54 0 .87-.26.32-.27.32-.71t-.33-.71-.87-.27-.86.27-.32.71.32.71.87.26m-.01 2.92q.62 0 .99-.31.38-.3.38-.8 0-.49-.38-.79-.37-.29-.98-.29t-.99.29-.38.79.37.8.99.31"/><path fill="#fff" d="M319.39 487h1v113h-1z"/><path fill="#0c322c" d="M337.72 517v-12.6h4.68q1.35 0 2.5.45 1.16.45 2 1.28t1.33 1.96q.47 1.13.47 2.5v.18q0 1.37-.48 2.51-.49 1.15-1.34 1.97t-2 1.29-2.48.46zm4.48-10.22h-1.92v7.84h1.92q1.14 0 2.02-.48.88-.49 1.38-1.35t.49-2.02v-.18q0-1.15-.48-2-.49-.86-1.37-1.34-.88-.47-2.04-.47m9.45 10.22v-2.3h2.06v-8h-2.06v-2.3h6.68v2.3h-2.05v8h2.05v2.3zm12.64 0q-.95 0-1.56-.6-.6-.61-.6-1.54v-8.32q0-.93.6-1.54.61-.6 1.56-.6h6.28v2.3h-5.42q-.21 0-.36.16-.14.15-.14.37v2.34h5.54v2.19h-5.54v2.41q0 .22.14.37.15.16.36.16h5.42v2.3zm15.93.27q-1.89 0-3.34-.83t-2.28-2.28q-.82-1.46-.82-3.37v-.16q0-1.91.83-3.38.84-1.46 2.32-2.29 1.47-.83 3.4-.83 1.42 0 2.56.5 1.15.49 2.03 1.37l-1.78 1.77q-.56-.63-1.26-.93-.71-.3-1.52-.3-1.17 0-2.07.52-.9.53-1.4 1.45-.5.93-.5 2.12v.16q0 1.21.5 2.12t1.38 1.44 2.02.53q.9 0 1.61-.36t1.13-.99.45-1.46h-2.86V510h5.32q.27 2.18-.36 3.81-.63 1.64-2.01 2.55-1.39.91-3.35.91m15.07-.02q-1.79 0-3.21-.81t-2.24-2.27-.82-3.42v-.12q0-1.95.82-3.4.82-1.46 2.24-2.27t3.21-.81q1.8 0 3.2.81t2.22 2.27.82 3.4v.12q0 1.95-.82 3.42-.82 1.46-2.22 2.27t-3.2.81m0-2.48q1.06 0 1.88-.48t1.28-1.38.47-2.16v-.12q0-1.24-.47-2.14t-1.28-1.38-1.88-.48-1.89.48-1.3 1.38-.47 2.14v.12q0 1.26.47 2.16t1.3 1.38 1.89.48" opacity=".55"/><path fill="#0c322c" d="M338.74 534.11q-.67 0-1.17-.24t-.84-.65l.49-.49q.65.72 1.55.72.63 0 .99-.31.37-.32.37-.82 0-.36-.18-.58t-.46-.35q-.29-.13-.64-.23l-.7-.22q-.35-.11-.64-.29t-.47-.47q-.17-.29-.17-.76 0-.56.26-.97t.73-.63 1.1-.23q.57 0 1.02.19t.75.51l-.5.5q-.26-.27-.57-.41t-.7-.13q-.6 0-.96.3-.37.3-.37.8 0 .34.18.54t.47.33q.29.12.64.21l.7.2q.35.11.64.29t.48.49q.18.31.18.8 0 .58-.28 1.01-.27.42-.77.65-.49.24-1.13.24m4.85-.02q-.74 0-1.18-.36-.45-.36-.45-.94 0-.37.23-.67.22-.3.61-.47.39-.18.88-.18.71 0 1.13.3v-.54q0-.53-.27-.76-.28-.23-.74-.23-.35 0-.72.13-.36.13-.62.4l-.35-.51q.29-.34.76-.51t.96-.17q.77 0 1.24.41t.46 1.2v1.39q0 .72.03 1.42h-.65l-.01-.43q-.4.52-1.31.52m.19-.55q.49 0 .77-.21.27-.2.27-.54 0-.33-.27-.53-.28-.2-.78-.2-.49 0-.78.2t-.29.53.29.54.79.21m.7-4.58q-.22 0-.41-.13-.19-.12-.35-.28l-.29-.29q-.13-.12-.24-.12-.15 0-.21.15-.06.16-.07.38h-.53q0-.51.21-.8t.59-.29q.2 0 .39.12.18.13.34.29l.3.28q.14.12.26.12.16 0 .23-.15.07-.16.07-.4h.53q.01.53-.21.82-.21.3-.61.3m4.58 5.13q-.62 0-1.1-.28t-.77-.79-.28-1.16v-.08q0-.64.28-1.14t.77-.78 1.1-.28 1.11.28q.48.28.76.77t.28 1.13v.1q0 .66-.28 1.16t-.76.79-1.11.28m0-.65q.43 0 .74-.2.32-.2.5-.56.18-.35.18-.82v-.1q0-.68-.39-1.1-.4-.43-1.03-.43-.41 0-.74.2-.32.2-.5.55-.19.35-.19.8v.08q0 .47.19.82.18.36.5.56.33.2.74.2m6.14.56v-6.3h1.95q.95 0 1.53.5t.58 1.4-.58 1.39-1.53.5h-1.18V534zm1.99-5.63h-1.22v2.47h1.22q.58 0 .95-.34.36-.33.36-.9t-.36-.9-.95-.33m4.55 5.72q-.73 0-1.18-.36t-.45-.94q0-.37.23-.67.22-.3.62-.47.39-.18.87-.18.71 0 1.14.3v-.54q0-.53-.28-.76-.27-.23-.74-.23-.35 0-.72.13-.36.13-.62.4l-.34-.51q.29-.34.75-.51t.97-.17q.76 0 1.23.41t.47 1.2v1.39q0 .72.02 1.42h-.64l-.01-.43q-.41.52-1.32.52m.19-.55q.5 0 .77-.21.28-.2.28-.54 0-.33-.28-.53-.27-.2-.78-.2-.49 0-.78.2t-.29.53.29.54.79.21m5.03.55q-.72 0-1.19-.43-.48-.42-.48-1.35v-2.64h.73v2.51q0 .7.31.97t.78.27.84-.32q.35-.32.35-.98v-2.45h.72V534h-.64v-.65q-.27.43-.67.58-.4.16-.75.16m4.93-.09q-.53 0-.85-.3t-.31-.81v-4.84h-.8v-.62h1.52v5.47q0 .21.14.34.13.14.34.14h.42v.62zm3.41.09q-.62 0-1.11-.28t-.77-.79-.27-1.16v-.08q0-.64.27-1.14.28-.5.77-.78t1.11-.28 1.1.28.77.77.28 1.13v.1q0 .66-.28 1.16t-.77.79-1.1.28m0-.65q.42 0 .74-.2t.5-.56.18-.82v-.1q0-.68-.4-1.1-.39-.43-1.02-.43-.42 0-.74.2t-.51.55-.18.8v.08q0 .47.18.82.19.36.51.56t.74.2"/><path fill="#fff" d="M338.35 566.5v-2.82h3.52v-9.3q0-.46-.44-.46h-3.19v-2.82h4.05q1.14 0 1.88.74.73.73.73 1.86v9.98h3.46v2.82zm13.42 0v-2.82h3.52v-9.3q0-.46-.44-.46h-3.19v-2.82h4.05q1.14 0 1.88.74.73.73.73 1.86v9.98h3.46v2.82zm12.65-7.55v-3.23h3.28v3.23zm0 7.55v-3.26h3.28v3.26zm11.31.22q-2.8 0-4.36-2.06-1.56-2.05-1.56-5.82 0-3.8 1.56-5.88t4.36-2.08q2.77 0 4.32 2.08t1.55 5.88q0 3.77-1.55 5.82t-4.32 2.06m0-2.79q2.75 0 2.75-5.09 0-5.17-2.75-5.17-2.8 0-2.8 5.17 0 5.09 2.8 5.09m13.42 2.79q-2.8 0-4.36-2.06-1.56-2.05-1.56-5.82 0-3.8 1.56-5.88t4.36-2.08q2.77 0 4.32 2.08t1.55 5.88q0 3.77-1.55 5.82t-4.32 2.06m0-2.79q2.75 0 2.75-5.09 0-5.17-2.75-5.17-2.8 0-2.8 5.17 0 5.09 2.8 5.09m11.24 2.57 5.52-15.4h3.85l5.52 15.4h-3.19l-1.23-3.56h-6.05l-1.23 3.56zm5.32-6.18h4.27l-2.13-6.25zm11.51 6.18v-15.4h4.18l3.45 7.96 3.43-7.96h4.18v15.4h-3.03v-11.26l-3.43 8.2h-2.31l-3.44-8.2v11.26z"/><path fill="#0c322c" d="m338.34 585.5-1.81-6.3h.96l1.34 4.92 1.52-4.92h1.03l1.52 4.92 1.34-4.92h.95l-1.82 6.3h-.95l-1.56-5.14-1.54 5.14zm9.16 0q-.44 0-.73-.29t-.29-.74v-4.24q0-.45.29-.74t.73-.29h2.98v.86h-2.68q-.17 0-.28.11t-.11.29v1.47h2.89v.82h-2.89v1.49q0 .17.11.29t.28.12h2.68v.85zm4.65 0v-6.3h2.19q.89 0 1.59.39t1.11 1.08.4 1.59v.1q0 .69-.23 1.27-.24.57-.66.99t-.99.65-1.22.23zm2.12-5.42h-1.18v4.54h1.18q.64 0 1.14-.29t.79-.79.29-1.18v-.1q0-.65-.29-1.14-.28-.5-.78-.77t-1.15-.27m4.08 5.42v-1.11h1.06v1.69q0 .29-.12.45t-.29.23-.36.06h-.33v-.51h.33q.11 0 .16-.07t.06-.17v-.57zm4.47 0v-.85h1.33q.25 0 .41-.17.16-.16.16-.4v-4.02h-1.6v-.86h2.55v4.79q0 .74-.41 1.12t-1.19.39zm7.1.12q-1.09 0-1.75-.57-.65-.58-.65-1.7v-4.15h.94v4.08q0 .72.39 1.09.4.37 1.07.37.66 0 1.06-.37t.4-1.09v-4.08h.94v4.15q0 1.12-.66 1.7t-1.74.57m5.28-.12q-.44 0-.74-.29-.29-.29-.29-.74v-5.27h.94v5.01q0 .17.11.29t.29.12h2.53v.88zm8.31.09q-.7 0-1.22-.22-.52-.23-.81-.64t-.29-.96.31-.97q.3-.4.83-.59-.43-.19-.67-.57t-.25-.86q0-.5.26-.88t.73-.58 1.11-.21 1.12.21q.47.2.73.58t.26.88q0 .48-.25.86-.24.38-.68.57.53.18.84.59t.31.96-.29.97-.82.64-1.22.22m.01-3.72q.54 0 .87-.26.32-.27.32-.71t-.33-.71-.87-.27-.86.27-.32.71.32.71.87.26m-.01 2.92q.62 0 .99-.31.38-.3.38-.8 0-.49-.38-.79-.37-.29-.98-.29t-.99.29-.38.79.37.8.99.31"/><path fill="#ef4444" d="M479.59 487h1v113h-1z"/><path fill="#0c322c" d="M497.92 517v-12.6h3.42l2.83 6.52 2.81-6.52h3.42V517h-2.49v-9.22l-2.81 6.72h-1.89l-2.8-6.72V517zm18.99 0q-.95 0-1.56-.6-.6-.61-.6-1.54v-8.32q0-.93.6-1.54.61-.6 1.56-.6h6.28v2.3h-5.41q-.22 0-.36.16-.15.15-.15.37v2.34h5.55v2.19h-5.55v2.41q0 .22.15.37.14.16.36.16h5.41v2.3zm9.78 0v-2.3h2.05v-8h-2.05v-2.3h6.67v2.3h-2.05v8h2.05v2.3z" opacity=".55"/><path fill="#0c322c" d="M498.94 534.11q-.67 0-1.17-.24t-.84-.65l.49-.49q.65.72 1.55.72.63 0 .99-.31.37-.32.37-.82 0-.36-.18-.58t-.46-.35q-.29-.13-.64-.23l-.7-.22q-.35-.11-.64-.29t-.47-.47q-.17-.29-.17-.76 0-.56.26-.97t.73-.63 1.1-.23q.57 0 1.02.19t.75.51l-.5.5q-.26-.27-.57-.41t-.7-.13q-.6 0-.96.3-.37.3-.37.8 0 .34.18.54t.47.33q.29.12.64.21l.7.2q.35.11.64.29t.48.49q.18.31.18.8 0 .58-.28 1.01-.27.42-.77.65-.49.24-1.13.24m3.72-.11v-3.7h-.84v-.63h1.57V534zm-.04-5.28v-1.05h.81v1.05zm2.48 5.28v-4.33h.71v.69q.26-.45.67-.61.41-.17.76-.17.73 0 1.18.47.45.48.45 1.4V534h-.72v-2.44q0-.69-.31-1-.32-.31-.79-.31-.5 0-.86.33-.36.34-.36.99V534zm4.99 1.8v-.61h2.58q.31 0 .48-.15t.17-.42q0-.25-.17-.39t-.48-.14h-1.42q-.34 0-.52-.16t-.19-.41q-.03-.24.1-.48l.29-.59q-.34-.2-.52-.53-.19-.33-.19-.74v-.08q0-.45.23-.79t.66-.54.96-.19l.2.01.44-.91h.73l-.56 1.04q.48.17.76.53t.28.83v.1q0 .46-.23.81t-.66.56-.96.2q-.29 0-.56-.06l-.21.42q-.07.12-.04.26.02.14.24.14h1.27q.55 0 .89.28.35.28.35.84 0 .51-.35.84t-.92.33zm1.98-3.62q.26 0 .52-.09.26-.1.44-.33t.18-.62q0-.43-.32-.7t-.82-.26-.82.26q-.32.27-.32.7 0 .39.18.62t.44.33.52.09m4.52 1.91q-.74 0-1.19-.36t-.44-.94q0-.37.22-.67.23-.3.62-.47.39-.18.88-.18.71 0 1.13.3v-.54q0-.53-.27-.76-.28-.23-.75-.23-.35 0-.71.13t-.63.4l-.34-.51q.29-.34.76-.51t.96-.17q.77 0 1.23.41.47.4.47 1.2v1.39q0 .72.03 1.42h-.65l-.01-.43q-.4.52-1.31.52m.19-.55q.49 0 .77-.21.27-.2.27-.54 0-.33-.27-.53-.28-.2-.78-.2t-.78.2-.29.53.29.54.79.21m3.42 2.26v-6.13h.68v.75q.25-.39.65-.61.4-.23.9-.23.58 0 1.04.28t.73.77.26 1.15v.08q0 .66-.26 1.17t-.72.78-1.05.28q-.48 0-.86-.21-.39-.21-.64-.58v2.5zm2.12-2.36q.41 0 .73-.19t.5-.55.18-.84v-.08q0-.7-.4-1.13t-1.01-.42q-.41 0-.74.2-.32.2-.51.56t-.19.85.19.85.51.55q.33.2.74.2m5.43.65q-.62 0-1.11-.28-.48-.29-.76-.79t-.28-1.16v-.08q0-.64.28-1.14t.76-.78 1.11-.28 1.11.28.76.77.28 1.13v.1q0 .66-.28 1.16t-.76.79-1.11.28m0-.65q.42 0 .74-.2t.5-.56.18-.82v-.1q0-.68-.4-1.1-.39-.43-1.02-.43-.42 0-.74.2t-.51.55-.18.8v.08q0 .47.18.82.19.36.51.56t.74.2m3.57.56v-4.33h.7v.69q.17-.41.48-.56.32-.15.72-.15h.37v.72h-.42q-.54 0-.83.26-.29.27-.29.81V534zm5.15.09q-.64 0-1.13-.28t-.77-.79-.27-1.16v-.09q0-.63.25-1.12t.71-.78 1.07-.29 1.06.31.65.86.12 1.31h-3.13q.03.37.21.68t.5.5.76.18q.34 0 .6-.08.27-.08.47-.26l.41.45q-.25.27-.64.42t-.87.14m-.14-3.88q-.54 0-.88.34t-.41.91h2.43q-.01-.59-.33-.92-.31-.33-.81-.33"/><path fill="#ef4444" d="M498.55 566.5v-2.82h3.52v-9.3q0-.46-.44-.46h-3.19v-2.82h4.05q1.14 0 1.88.74.73.73.73 1.86v9.98h3.46v2.82zm18.08.22q-2.79 0-4.35-2.06-1.57-2.05-1.57-5.82 0-3.8 1.57-5.88 1.56-2.08 4.35-2.08 2.77 0 4.33 2.08 1.55 2.08 1.55 5.88 0 3.77-1.55 5.82-1.56 2.06-4.33 2.06m0-2.79q2.75 0 2.75-5.09 0-5.17-2.75-5.17-2.79 0-2.79 5.17 0 5.09 2.79 5.09m7.99-4.98v-3.23h3.28v3.23zm0 7.55v-3.26h3.28v3.26zm11.31.22q-2.8 0-4.36-2.06-1.56-2.05-1.56-5.82 0-3.8 1.56-5.88t4.36-2.08q2.77 0 4.32 2.08t1.55 5.88q0 3.77-1.55 5.82t-4.32 2.06m0-2.79q2.75 0 2.75-5.09 0-5.17-2.75-5.17-2.8 0-2.8 5.17 0 5.09 2.8 5.09m13.42 2.79q-2.8 0-4.36-2.06-1.56-2.05-1.56-5.82 0-3.8 1.56-5.88t4.36-2.08q2.77 0 4.32 2.08t1.55 5.88q0 3.77-1.55 5.82t-4.32 2.06m0-2.79q2.75 0 2.75-5.09 0-5.17-2.75-5.17-2.8 0-2.8 5.17 0 5.09 2.8 5.09m13.39 2.57v-15.4h5.37q2.53 0 4.04 1.31t1.51 3.62-1.51 3.61-4.04 1.29h-2.24v5.57zm5.53-12.76h-2.4v4.62h2.4q1.07 0 1.7-.66t.63-1.67q0-.99-.63-1.64t-1.7-.65m7.74 12.76v-15.4h4.18l3.45 7.96 3.44-7.96h4.18v15.4h-3.04v-11.26l-3.43 8.2h-2.31l-3.43-8.2v11.26z"/><path fill="#0c322c" d="m498.54 585.5-1.81-6.3h.96l1.34 4.92 1.52-4.92h1.03l1.52 4.92 1.34-4.92h.95l-1.82 6.3h-.95l-1.56-5.14-1.54 5.14zm9.16 0q-.44 0-.73-.29t-.29-.74v-4.24q0-.45.29-.74t.73-.29h2.98v.86H508q-.17 0-.28.11t-.11.29v1.47h2.89v.82h-2.89v1.49q0 .17.11.29t.28.12h2.68v.85zm4.65 0v-6.3h2.19q.89 0 1.59.39t1.11 1.08.4 1.59v.1q0 .69-.23 1.27-.24.57-.66.99t-.99.65q-.56.23-1.22.23zm2.12-5.42h-1.18v4.54h1.18q.64 0 1.14-.29t.79-.79.29-1.18v-.1q0-.65-.29-1.14-.28-.5-.78-.77t-1.15-.27m4.08 5.42v-1.11h1.06v1.69q0 .29-.12.45t-.29.23-.36.06h-.33v-.51h.33q.11 0 .16-.07t.06-.17v-.57zm4.47 0v-.85h1.33q.25 0 .41-.17.16-.16.16-.4v-4.02h-1.6v-.86h2.55v4.79q0 .74-.41 1.12t-1.19.39zm7.1.12q-1.09 0-1.75-.57-.65-.58-.65-1.7v-4.15h.94v4.08q0 .72.39 1.09.4.37 1.07.37.66 0 1.06-.37t.4-1.09v-4.08h.94v4.15q0 1.12-.66 1.7t-1.74.57m5.28-.12q-.44 0-.74-.29-.29-.29-.29-.74v-5.27h.94v5.01q0 .17.11.29t.29.12h2.53v.88zm8.31.09q-.7 0-1.22-.22-.52-.23-.81-.64t-.29-.96.31-.97q.3-.4.83-.59-.43-.19-.67-.57t-.25-.86q0-.5.26-.88t.73-.58 1.11-.21 1.12.21q.47.2.73.58t.26.88q0 .48-.25.86-.24.38-.68.57.53.18.84.59t.31.96-.29.97-.82.64q-.52.22-1.22.22m.01-3.72q.54 0 .87-.26.32-.27.32-.71t-.33-.71-.87-.27-.86.27-.32.71.32.71.87.26m-.01 2.92q.62 0 .99-.31.38-.3.38-.8 0-.49-.38-.79-.37-.29-.98-.29t-.99.29-.38.79.37.8.99.31"/><path fill="#f59e0b" d="M639.8 487h1v113h-1z"/><path fill="#0c322c" d="M661.62 517.25q-1.44 0-2.5-.53t-1.82-1.41l1.57-1.57q.76.74 1.43 1.06.68.33 1.43.33.96 0 1.49-.43.53-.44.53-1.12 0-.58-.34-.93-.33-.35-.88-.57-.55-.23-1.2-.42-.66-.19-1.32-.44-.65-.25-1.2-.63t-.88-1q-.34-.62-.34-1.55 0-1.19.56-2.06t1.57-1.35 2.35-.48q1.26 0 2.29.45t1.69 1.2l-1.62 1.62q-.56-.57-1.11-.86-.56-.29-1.25-.29-.88 0-1.42.43-.54.42-.54 1.1 0 .54.34.86t.9.52 1.23.38q.66.17 1.32.4t1.22.62.9 1.02.34 1.6q0 1.23-.6 2.14-.59.9-1.66 1.41t-2.48.5m6.95-.25 4.52-12.6h3.15l4.52 12.6h-2.61l-1.01-2.92h-4.95l-1.01 2.92zm4.36-5.06h3.49l-1.75-5.11zm11.03 5.06v-12.6h3.42l2.83 6.52 2.81-6.52h3.42V517h-2.49v-9.22l-2.81 6.72h-1.89l-2.8-6.72V517z" opacity=".55"/><path fill="#0c322c" d="M659.15 534.11q-.67 0-1.17-.24t-.84-.65l.49-.49q.65.72 1.55.72.63 0 .99-.31.37-.32.37-.82 0-.36-.18-.58t-.46-.35-.64-.23l-.7-.22q-.35-.11-.64-.29t-.47-.47q-.17-.29-.17-.76 0-.56.26-.97t.73-.63 1.1-.23q.57 0 1.02.19t.75.51l-.5.5q-.26-.27-.57-.41t-.7-.13q-.6 0-.96.3-.37.3-.37.8 0 .34.18.54t.47.33q.29.12.64.21l.7.2q.35.11.64.29t.48.49q.18.31.18.8 0 .58-.28 1.01-.27.42-.77.65-.49.24-1.13.24m4.85-.02q-.74 0-1.18-.36-.45-.36-.45-.94 0-.37.23-.67.22-.3.61-.47.39-.18.88-.18.71 0 1.13.3v-.54q0-.53-.27-.76-.28-.23-.74-.23-.35 0-.72.13-.36.13-.62.4l-.35-.51q.29-.34.76-.51t.96-.17q.77 0 1.24.41t.46 1.2v1.39q0 .72.03 1.42h-.65l-.01-.43q-.4.52-1.31.52m.19-.55q.49 0 .77-.21.27-.2.27-.54 0-.33-.27-.53-.28-.2-.78-.2-.49 0-.78.2t-.29.53.29.54.79.21m3.42.46v-4.33h.7v.69q.26-.45.67-.61.41-.17.76-.17.73 0 1.19.47.45.48.45 1.4V534h-.73v-2.44q0-.69-.31-1t-.79-.31-.85.33-.36.99V534zm7.96 0v-5.3q0-.43.28-.72t.72-.28h2.86v.7h-2.61q-.21 0-.35.14t-.13.34v1.81h2.89v.7h-2.89V534zm5.01 0v-4.33h.7v.69q.16-.41.48-.56t.72-.15h.37v.72h-.43q-.53 0-.82.26-.29.27-.29.81V534zm4.58.09q-.74 0-1.18-.36-.45-.36-.45-.94 0-.37.23-.67.22-.3.61-.47.39-.18.88-.18.71 0 1.13.3v-.54q0-.53-.27-.76-.28-.23-.74-.23-.36 0-.72.13t-.62.4l-.35-.51q.29-.34.76-.51t.96-.17q.77 0 1.23.41.47.4.47 1.2v1.39q0 .72.03 1.42h-.65l-.01-.43q-.4.52-1.31.52m.19-.55q.49 0 .77-.21.27-.2.27-.54 0-.33-.27-.53-.28-.2-.78-.2t-.78.2-.29.53.29.54.79.21m3.42.46v-4.33h.7v.69q.26-.45.67-.61.41-.17.76-.17.73 0 1.18.47.46.48.46 1.4V534h-.73v-2.44q0-.69-.31-1t-.79-.31-.85.33-.36.99V534zm7.34.09q-.64 0-1.14-.28t-.79-.78-.28-1.14v-.11q0-.65.29-1.15t.78-.77 1.14-.28q.48 0 .87.18t.66.49l-.45.45q-.41-.44-1.08-.44-.43 0-.77.19-.33.18-.53.53-.19.34-.19.8v.11q0 .45.2.8.19.35.53.54t.77.19q.66 0 1.09-.44l.44.44q-.26.32-.66.49-.4.18-.88.18m3.18-.09v-3.7h-.85v-.63h1.57V534zm-.05-5.28v-1.05h.81v1.05zm3.69 5.36q-.48 0-.9-.15t-.68-.38l.32-.5q.25.2.58.33t.68.13q.4 0 .65-.19.25-.18.25-.48 0-.25-.17-.39t-.43-.22l-.56-.15q-.29-.08-.56-.2t-.43-.36-.17-.64q0-.57.43-.93t1.15-.37q.4 0 .77.12.36.12.63.32l-.32.51q-.24-.17-.51-.27-.28-.1-.58-.1-.39 0-.63.18-.25.19-.25.48 0 .26.18.39.17.14.43.22l.57.15q.3.08.57.21t.44.37.16.64q0 .38-.2.67t-.58.45-.84.16m4.94.01q-.64 0-1.15-.28t-.78-.78q-.29-.5-.29-1.14v-.11q0-.65.29-1.15t.79-.77 1.14-.28q.47 0 .86.18.4.17.67.49l-.45.45q-.42-.44-1.08-.44-.44 0-.77.19-.34.18-.53.53-.2.34-.2.8v.11q0 .45.2.8t.54.54.77.19q.65 0 1.08-.44l.45.44q-.27.32-.67.49-.4.18-.87.18m4.57 0q-.62 0-1.11-.28t-.76-.79-.28-1.16v-.08q0-.64.28-1.14.27-.5.76-.78t1.11-.28 1.11.28.76.77.28 1.13v.1q0 .66-.28 1.16t-.76.79-1.11.28m0-.65q.42 0 .74-.2t.5-.56.18-.82v-.1q0-.68-.4-1.1-.39-.43-1.02-.43-.42 0-.74.2t-.51.55-.18.8v.08q0 .47.18.82.19.36.51.56t.74.2"/><path fill="#f59e0b" d="m659.02 566.5 6.45-12.65h-7.5v-2.75h10.89v2.13l-6.41 13.27zm12.39-7.55v-3.23h3.28v3.23zm0 7.55v-3.26h3.28v3.26zm11.31.22q-2.8 0-4.36-2.06-1.56-2.05-1.56-5.82 0-3.8 1.56-5.88t4.36-2.08q2.77 0 4.32 2.08t1.55 5.88q0 3.77-1.55 5.82t-4.32 2.06m0-2.79q2.75 0 2.75-5.09 0-5.17-2.75-5.17-2.8 0-2.8 5.17 0 5.09 2.8 5.09m13.42 2.79q-2.8 0-4.36-2.06-1.56-2.05-1.56-5.82 0-3.8 1.56-5.88t4.36-2.08q2.77 0 4.32 2.08t1.55 5.88q0 3.77-1.55 5.82t-4.32 2.06m0-2.79q2.75 0 2.75-5.09 0-5.17-2.75-5.17-2.8 0-2.8 5.17 0 5.09 2.8 5.09m11.24 2.57 5.52-15.4h3.85l5.52 15.4h-3.19l-1.23-3.56h-6.05l-1.23 3.56zm5.32-6.18h4.27l-2.13-6.25zm11.51 6.18v-15.4h4.18l3.45 7.96 3.43-7.96h4.18v15.4h-3.03v-11.26l-3.43 8.2h-2.31l-3.44-8.2v11.26z"/><path fill="#0c322c" d="m658.75 585.5-1.81-6.3h.96l1.34 4.92 1.52-4.92h1.03l1.52 4.92 1.34-4.92h.95l-1.82 6.3h-.95l-1.56-5.14-1.54 5.14zm9.16 0q-.44 0-.73-.29t-.29-.74v-4.24q0-.45.29-.74t.73-.29h2.98v.86h-2.68q-.17 0-.28.11t-.11.29v1.47h2.89v.82h-2.89v1.49q0 .17.11.29t.28.12h2.68v.85zm4.65 0v-6.3h2.19q.89 0 1.59.39t1.11 1.08.4 1.59v.1q0 .69-.23 1.27-.24.57-.66.99t-.99.65-1.22.23zm2.12-5.42h-1.18v4.54h1.18q.64 0 1.14-.29t.79-.79.29-1.18v-.1q0-.65-.29-1.14-.28-.5-.78-.77t-1.15-.27m4.08 5.42v-1.11h1.06v1.69q0 .29-.12.45t-.29.23-.36.06h-.33v-.51h.33q.11 0 .16-.07t.06-.17v-.57zm4.47 0v-.85h1.33q.25 0 .41-.17.16-.16.16-.4v-4.02h-1.6v-.86h2.55v4.79q0 .74-.41 1.12t-1.19.39zm7.1.12q-1.09 0-1.75-.57-.65-.58-.65-1.7v-4.15h.94v4.08q0 .72.39 1.09.4.37 1.07.37.66 0 1.06-.37t.4-1.09v-4.08h.94v4.15q0 1.12-.66 1.7t-1.74.57m5.28-.12q-.44 0-.74-.29-.29-.29-.29-.74v-5.27h.94v5.01q0 .17.11.29t.29.12h2.53v.88zm8.31.09q-.7 0-1.22-.22-.52-.23-.81-.64t-.29-.96.31-.97q.3-.4.83-.59-.43-.19-.67-.57t-.25-.86q0-.5.26-.88t.73-.58 1.11-.21 1.12.21q.47.2.73.58t.26.88q0 .48-.25.86-.24.38-.68.57.53.18.84.59t.31.96-.29.97-.82.64-1.22.22m.01-3.72q.54 0 .87-.26.32-.27.32-.71t-.33-.71-.87-.27-.86.27-.32.71.32.71.87.26m-.01 2.92q.62 0 .99-.31.38-.3.38-.8 0-.49-.38-.79-.37-.29-.98-.29t-.99.29-.38.79.37.8.99.31"/></svg>