<svg xmlns="http://www.w3.org/2000/svg" width="1600" height="1000" viewBox="0 0 1600 1000"><defs><clipPath id="fcovclip-1" clipPathUnits="userSpaceOnUse"><rect width="300" height="116" x="650" y="90" fill="#fff" rx="18" ry="18"/></clipPath><clipPath id="fcovclip-2" clipPathUnits="userSpaceOnUse"><rect width="84" height="84" x="666" y="106" fill="#fff" rx="42" ry="42"/></clipPath><clipPath id="fcovclip-3" clipPathUnits="userSpaceOnUse"><rect width="300" height="116" x="360" y="430" fill="#fff" rx="18" ry="18"/></clipPath><clipPath id="fcovclip-4" clipPathUnits="userSpaceOnUse"><rect width="84" height="84" x="376" y="446" fill="#fff" rx="42" ry="42"/></clipPath><clipPath id="fcovclip-5" clipPathUnits="userSpaceOnUse"><rect width="300" height="116" x="650" y="430" fill="#fff" rx="18" ry="18"/></clipPath><clipPath id="fcovclip-6" clipPathUnits="userSpaceOnUse"><rect width="84" height="84" x="666" y="446" fill="#fff" rx="42" ry="42"/></clipPath><clipPath id="fcovclip-7" clipPathUnits="userSpaceOnUse"><rect width="300" height="116" x="940" y="430" fill="#fff" rx="18" ry="18"/></clipPath><clipPath id="fcovclip-8" clipPathUnits="userSpaceOnUse"><rect width="84" height="84" x="956" y="446" fill="#fff" rx="42" ry="42"/></clipPath><clipPath id="fcovclip-9" clipPathUnits="userSpaceOnUse"><rect width="280" height="92" x="210" y="740" fill="#fff" rx="14" ry="14"/></clipPath><clipPath id="fcovclip-10" clipPathUnits="userSpaceOnUse"><rect width="56" height="56" x="224" y="758" fill="#fff" rx="16" ry="16"/></clipPath><clipPath id="fcovclip-11" clipPathUnits="userSpaceOnUse"><rect width="280" height="92" x="520" y="740" fill="#fff" rx="14" ry="14"/></clipPath><clipPath id="fcovclip-12" clipPathUnits="userSpaceOnUse"><rect width="56" height="56" x="534" y="758" fill="#fff" rx="16" ry="16"/></clipPath></defs><svg width="1600" height="1000" aria-hidden="true" class="oc-connectors" preserveAspectRatio="none" viewBox="0 0 1600 1000"><path fill="none" stroke="#30ba78" stroke-linecap="round" stroke-linejoin="round" stroke-width="3.5" d="M800 206v96q0 16-16 16H526q-16 0-16 16v84.8"/><path stroke="#30ba78" stroke-linecap="round" stroke-width="3.08" d="M499.92 408.72 510 418.8m10.08-10.08L510 418.8"/><path fill="none" stroke="#30ba78" stroke-linecap="round" stroke-linejoin="round" stroke-width="3.5" d="M800 206v112q0 0 0 0h0q0 0 0 0v100.8"/><path stroke="#30ba78" stroke-linecap="round" stroke-width="3.08" d="M789.92 408.72 800 418.8m10.08-10.08L800 418.8"/><path fill="none" stroke="#30ba78" stroke-linecap="round" stroke-linejoin="round" stroke-width="3.5" d="M800 206v96q0 16 16 16h258q16 0 16 16v84.8"/><path stroke="#30ba78" stroke-linecap="round" stroke-width="3.08" d="M1079.92 408.72 1090 418.8m10.08-10.08L1090 418.8"/><path fill="none" stroke="#30ba78" stroke-linecap="round" stroke-linejoin="round" stroke-width="3.5" d="M510 546v81q0 16-16 16H366q-16 0-16 16v69.8"/><path stroke="#30ba78" stroke-linecap="round" stroke-width="3.08" d="M339.92 718.72 350 728.8m10.08-10.08L350 728.8"/><path fill="none" stroke="#30ba78" stroke-linecap="round" stroke-linejoin="round" stroke-width="3.5" d="M510 546v81q0 16 16 16h118q16 0 16 16v69.8"/><path stroke="#30ba78" stroke-linecap="round" stroke-width="3.08" d="M649.92 718.72 660 728.8m10.08-10.08L660 728.8"/></svg><rect width="300" height="116" x="650" y="90" fill="#0c322c" rx="18" ry="18"/><g clip-path="url(#fcovclip-1)"><rect width="84" height="84" x="666" y="106" fill="#30ba78" rx="42" ry="42"/><g clip-path="url(#fcovclip-2)"><path fill="#fff" d="m684.31 159.5 8.78-24.5h6.13l8.78 24.5h-5.07l-1.96-5.67h-9.63l-1.96 5.67zm8.47-9.84h6.79l-3.4-9.94zm18.65 9.84V135h9.24q3.92 0 6.32 2.03t2.4 5.85q0 2.72-1.21 4.55t-3.34 2.65l5.28 9.42h-5.63l-4.62-8.68h-3.47v8.68zm9-20.33h-4.03v7.52h4.03q1.71 0 2.8-1t1.08-2.75q0-1.68-1.08-2.72-1.09-1.05-2.8-1.05"/></g><path fill="#fff" d="m764.24 123.25 7.83-21h3.81l7.83 21h-3.21l-1.98-5.43h-9.09l-1.98 5.43zm6.15-8.1h7.17l-3.57-9.84zm19.62 8.1q-1.86 0-2.98-1.05-1.13-1.05-1.13-2.82v-15.51h-2.55v-2.52h5.49v18.09q0 .57.39.96t.96.39h1.44v2.46zm10.44.3q-2.19 0-3.84-.94-1.65-.95-2.56-2.63t-.92-3.9v-.3q0-2.1.86-3.76.85-1.67 2.4-2.63t3.61-.96q2.13 0 3.64 1.05t2.23 2.94q.7 1.89.4 4.47h-10.23q.18 1.74 1.37 2.9 1.18 1.15 3.16 1.15 2.16 0 3.42-1.17l1.68 1.77q-.87.99-2.22 1.5t-3 .51m-.45-12.69q-1.68 0-2.67 1.05t-1.23 2.76h7.35q-.03-1.8-.99-2.8-.96-1.01-2.46-1.01m7.47 12.39 5.04-7.23-4.89-7.29h3.45l3.42 5.4 3.42-5.4h3.39l-4.92 7.26 5.01 7.26h-3.48l-3.54-5.34-3.48 5.34zm23.61 0v-21h7.14q3.24 0 5.22 1.65t1.98 4.8q0 2.52-1.21 4.05-1.22 1.53-3.32 2.07l5.16 8.43h-3.6l-4.8-8.1h-3.45v8.1zm6.99-18.33h-3.87v7.59h3.87q1.86 0 3-.94 1.14-.95 1.14-2.84 0-1.8-1.14-2.8-1.14-1.01-3-1.01m12.27 18.33v-12h-2.7v-2.52h5.67v14.52zm-.12-17.55v-3.75h3.27v3.75zm11.13 17.55-5.7-14.52h3.06l4.17 11.07 4.17-11.07h3.06l-5.67 14.52zm17.28.3q-2.19 0-3.84-.94-1.65-.95-2.56-2.63t-.92-3.9v-.3q0-2.1.86-3.76.85-1.67 2.4-2.63t3.61-.96q2.13 0 3.64 1.05t2.23 2.94q.7 1.89.4 4.47h-10.23q.18 1.74 1.37 2.9 1.18 1.15 3.16 1.15 2.16 0 3.42-1.17l1.68 1.77q-.87.99-2.22 1.5t-3 .51m-.45-12.69q-1.68 0-2.67 1.05t-1.23 2.76h7.35q-.03-1.8-.99-2.8-.96-1.01-2.46-1.01m9.57 12.39v-14.52h2.85v2.22q.51-1.32 1.57-1.81 1.07-.5 2.39-.5h1.2v2.91h-1.44q-1.74 0-2.68.83-.95.82-.95 2.47v8.4zm14.43.3q-2.46 0-3.95-1.21-1.48-1.22-1.48-3.14 0-1.26.75-2.26.75-1.01 2.06-1.59 1.3-.59 3.01-.59 2.19 0 3.57.84v-1.59q0-1.59-.87-2.28t-2.28-.69q-1.14 0-2.34.42t-2.07 1.29l-1.35-2.04q.99-1.08 2.59-1.68 1.61-.6 3.35-.6 2.61 0 4.25 1.38 1.63 1.38 1.63 4.05v4.68l.02 2.36q.01 1.18.07 2.35h-2.64v-1.47q-1.29 1.77-4.32 1.77m.81-2.19q1.47 0 2.33-.61.85-.62.85-1.61 0-.96-.85-1.57-.86-.62-2.36-.62-1.47 0-2.36.62-.88.61-.88 1.57t.88 1.59 2.39.63m-126.78 36.72q-2.22 0-4.14-.76-1.92-.77-3.36-2.16t-2.25-3.33-.81-4.28v-.6q0-2.34.81-4.27.81-1.94 2.25-3.33t3.36-2.16 4.14-.77q1.83 0 3.44.51t2.8 1.47l-.87 1.11q-2.22-1.68-5.37-1.68-2.55 0-4.62 1.16-2.07 1.15-3.27 3.19t-1.2 4.77v.6q0 2.73 1.2 4.77t3.27 3.2 4.62 1.15q3.18 0 5.4-1.71l.9 1.11q-2.58 2.01-6.3 2.01m9.78-.33v-21.9h1.32v10.47q.54-1.17 1.43-1.84t1.86-.98 1.84-.3q2.4 0 3.93 1.53t1.53 4.74v8.28h-1.38v-8.1q0-2.76-1.24-3.96-1.25-1.2-3.11-1.2-1.29 0-2.38.59-1.1.58-1.76 1.72t-.66 2.82v8.13zm17.43 0v-12.99h-2.97v-1.26h4.35v14.25zm-.09-17.67v-3.03h1.56v3.03zm12.54 17.97q-2.1 0-3.69-.94-1.59-.95-2.49-2.61-.9-1.67-.9-3.83v-.3q0-2.1.82-3.7.83-1.61 2.3-2.54t3.42-.93q1.92 0 3.32.98 1.39.97 2.07 2.7.67 1.72.43 4h-10.98q.03 1.71.76 3.03.74 1.32 2.02 2.09 1.27.76 2.95.76 1.14 0 2.14-.31 1.01-.32 1.7-.92l.81.93q-.81.75-2.04 1.17t-2.64.42m-.54-13.59q-2.19 0-3.57 1.46-1.38 1.45-1.56 3.79h9.63q.06-2.4-1.2-3.82-1.26-1.43-3.3-1.43m10.44 13.29v-12.99h-2.79v-1.26h2.79v-4.26q0-1.5.99-2.44.99-.95 2.52-.95h2.31v1.23h-2.34q-.9 0-1.48.59-.59.58-.59 1.51v4.32h4.41v1.26h-4.41v12.99zm-55.92 34.5q-1.38 0-2.26-.9-.89-.9-.89-2.28v-14.64q0-1.38.89-2.28.88-.9 2.26-.9H779v1.35h-8.79q-.9 0-1.5.6t-.6 1.47v6.42h10.26v1.32h-10.26v6.42q0 .87.6 1.47t1.5.6H779v1.35zm11.37 0 5.25-7.11-5.1-7.14h1.65l4.38 6.27 4.38-6.27h1.62l-5.1 7.14 5.22 7.11h-1.71l-4.44-6.18-4.47 6.18zm20.94.3q-2.1 0-3.69-.94-1.59-.95-2.49-2.61-.9-1.67-.9-3.83v-.3q0-2.1.82-3.7.83-1.61 2.3-2.54t3.42-.93q1.92 0 3.31.98 1.4.97 2.08 2.7.67 1.72.43 4h-10.98q.03 1.71.77 3.03.73 1.32 2.01 2.09t2.95.76q1.14 0 2.15-.31 1-.32 1.69-.92l.81.93q-.81.75-2.04 1.17t-2.64.42m-.54-13.59q-2.19 0-3.57 1.46-1.38 1.45-1.56 3.79h9.63q.06-2.4-1.2-3.82-1.26-1.43-3.3-1.43m15.81 13.59q-2.07 0-3.7-.91-1.64-.92-2.55-2.55-.92-1.64-.92-3.77v-.39q0-2.13.93-3.76.93-1.64 2.55-2.55 1.62-.92 3.69-.92 1.53 0 2.76.51t2.13 1.5l-.87.9q-.78-.78-1.77-1.18-.99-.41-2.25-.41-1.71 0-3.01.75-1.31.75-2.04 2.07-.74 1.32-.74 3.09v.39q0 1.74.75 3.08.75 1.33 2.06 2.08 1.3.75 2.98.75 2.46 0 4.02-1.56l.87.87q-.87.99-2.11 1.5-1.25.51-2.78.51m13.74 0q-1.59 0-2.82-.6t-1.95-1.92-.72-3.45V178h1.38v8.4q0 1.8.57 2.87.57 1.06 1.55 1.53.97.46 2.2.46 1.26 0 2.34-.57t1.74-1.69.66-2.84V178h1.35v14.25h-1.29v-2.61q-.84 1.59-2.28 2.25t-2.73.66m15.6-.3q-1.41 0-2.43-.87t-1.02-2.52v-9.6h-2.79V178h2.79v-3.57h1.35V178h4.17v1.26h-4.17v9.66q0 .9.6 1.5t1.5.6h2.07v1.23zm6.54 0v-12.99h-2.97V178h4.35v14.25zm-.09-17.67v-3.03h1.56v3.03zm10.35 17.67L857.72 178h1.44l5.16 12.57 5.1-12.57h1.44l-5.82 14.25zm16.17.3q-2.1 0-3.69-.94-1.59-.95-2.49-2.61-.9-1.67-.9-3.83v-.3q0-2.1.83-3.7.82-1.61 2.29-2.54t3.42-.93q1.92 0 3.32.98 1.39.97 2.07 2.7.67 1.72.43 4h-10.98q.03 1.71.77 3.03.73 1.32 2.01 2.09t2.95.76q1.14 0 2.15-.31 1-.32 1.69-.92l.81.93q-.81.75-2.04 1.17t-2.64.42m-.54-13.59q-2.19 0-3.57 1.46-1.38 1.45-1.56 3.79h9.63q.06-2.4-1.2-3.82-1.26-1.43-3.3-1.43"/></g><rect width="300" height="116" x="360" y="430" fill="#fff" rx="18" ry="18"/><g clip-path="url(#fcovclip-3)"><rect width="84" height="84" x="376" y="446" fill="#30ba78" rx="42" ry="42"/><g clip-path="url(#fcovclip-4)"><path fill="#fff" d="M396.87 499.5V475h8.54q4.03 0 6.42 2.08 2.4 2.09 2.4 5.76t-2.4 5.74-6.42 2.07h-3.57v8.85zm8.79-20.3h-3.82v7.35h3.82q1.71 0 2.71-1.05t1-2.66q0-1.58-1-2.61t-2.71-1.03m12.67 20.3V475h4.44l10.71 15.75V475h4.94v24.5h-4.34l-10.78-15.82v15.82z"/></g><path fill="#0c322c" d="M476.49 480.5v-21h6.78q3.24 0 5.22 1.71t1.98 4.74-1.98 4.73-5.22 1.69h-3.66v8.13zm6.93-18.33h-3.81v7.59h3.81q1.77 0 2.87-1.05 1.09-1.05 1.09-2.76t-1.09-2.74q-1.1-1.04-2.87-1.04m9.69 18.33v-14.52h2.85v2.22q.51-1.32 1.58-1.81 1.06-.5 2.38-.5h1.2v2.91h-1.44q-1.74 0-2.69.83-.94.82-.94 2.47v8.4zm11.88 0v-12h-2.7v-2.52h5.67v14.52zm-.12-17.55v-3.75h3.27v3.75zm5.97 23.55v-2.52h3.03q.51 0 .83-.33t.52-.81l.99-2.13-5.97-14.73h3.27l4.26 11.13 3.96-11.13H525l-6.84 16.98q-.33.81-.82 1.64-.5.82-1.35 1.36t-2.27.54zm20.61-5.7q-2.46 0-3.94-1.21-1.49-1.22-1.49-3.14 0-1.26.75-2.26.75-1.01 2.06-1.59 1.3-.59 3.01-.59 2.19 0 3.57.84v-1.59q0-1.59-.87-2.28t-2.28-.69q-1.14 0-2.34.42t-2.07 1.29l-1.35-2.04q.99-1.08 2.6-1.68 1.6-.6 3.34-.6 2.61 0 4.24 1.38t1.64 4.05v4.68l.01 2.36q.02 1.18.08 2.35h-2.64v-1.47q-1.29 1.77-4.32 1.77m.81-2.19q1.47 0 2.33-.61.85-.62.85-1.61 0-.96-.85-1.57-.86-.62-2.36-.62-1.47 0-2.35.62-.89.61-.89 1.57t.89 1.59 2.38.63m17.34 1.89v-21h2.85l10.26 15.51V459.5h3.12v21h-2.82l-10.29-15.54v15.54zm24.96.3q-2.46 0-3.94-1.21-1.49-1.22-1.49-3.14 0-1.26.75-2.26.75-1.01 2.06-1.59 1.3-.59 3.01-.59 2.19 0 3.57.84v-1.59q0-1.59-.87-2.28t-2.28-.69q-1.14 0-2.34.42t-2.07 1.29l-1.35-2.04q.99-1.08 2.6-1.68 1.6-.6 3.34-.6 2.61 0 4.25 1.38 1.63 1.38 1.63 4.05v4.68l.02 2.36q.01 1.18.07 2.35h-2.64v-1.47q-1.29 1.77-4.32 1.77m.81-2.19q1.47 0 2.33-.61.85-.62.85-1.61 0-.96-.85-1.57-.86-.62-2.36-.62-1.47 0-2.35.62-.89.61-.89 1.57t.89 1.59 2.38.63m11.16 1.89v-12h-2.7v-2.52h5.67v14.52zm-.12-17.55v-3.75h3.27v3.75zm7.32 17.55v-14.52h2.85v2.22q.51-1.32 1.58-1.81 1.06-.5 2.38-.5h1.2v2.91h-1.44q-1.74 0-2.68.83-.95.82-.95 2.47v8.4zm-107.52 34.83q-2.22 0-4.14-.76-1.92-.77-3.36-2.16t-2.25-3.33-.81-4.28v-.6q0-2.34.81-4.27.81-1.94 2.25-3.33t3.36-2.16 4.14-.77q1.83 0 3.44.51t2.8 1.47l-.87 1.11q-2.22-1.68-5.37-1.68-2.55 0-4.62 1.16-2.07 1.15-3.27 3.19t-1.2 4.77v.6q0 2.73 1.2 4.77t3.27 3.2q2.07 1.15 4.62 1.15 3.18 0 5.4-1.71l.9 1.11q-2.58 2.01-6.3 2.01m14.31-.33v-19.65h-6.66V494h14.82v1.35h-6.69V515zm18.81.33q-2.91 0-5.16-1.38t-3.53-3.81-1.27-5.61v-.3q0-3.12 1.27-5.49 1.28-2.37 3.53-3.72t5.16-1.35 5.16 1.35 3.53 3.72 1.27 5.49v.3q0 3.18-1.27 5.61-1.28 2.43-3.53 3.81t-5.16 1.38m0-1.41q2.49 0 4.4-1.18 1.9-1.19 3-3.3 1.09-2.12 1.09-4.91v-.3q0-2.7-1.09-4.77-1.1-2.07-3-3.22-1.91-1.16-4.4-1.16t-4.4 1.16q-1.9 1.15-3 3.22-1.09 2.07-1.09 4.77v.3q0 2.79 1.09 4.91 1.1 2.11 3 3.3 1.91 1.18 4.4 1.18"/></g><rect width="300" height="116" x="650" y="430" fill="#fff" rx="18" ry="18"/><g clip-path="url(#fcovclip-5)"><rect width="84" height="84" x="666" y="446" fill="#30ba78" rx="42" ry="42"/><g clip-path="url(#fcovclip-6)"><path fill="#fff" d="M693.29 499.99q-2.8 0-4.86-1.03-2.07-1.04-3.54-2.75l3.05-3.05q1.47 1.44 2.78 2.07t2.78.63q1.86 0 2.89-.84t1.03-2.17q0-1.12-.65-1.8-.64-.69-1.71-1.12t-2.35-.81q-1.27-.36-2.55-.86-1.28-.49-2.35-1.22-1.06-.74-1.71-1.94-.65-1.21-.65-3.03 0-2.31 1.09-4.01 1.08-1.69 3.04-2.62t4.59-.93q2.45 0 4.44.88 2 .87 3.29 2.34l-3.15 3.15q-1.08-1.12-2.17-1.68t-2.41-.56q-1.72 0-2.77.82t-1.05 2.15q0 1.06.67 1.67.66.61 1.75 1.01t2.38.74 2.57.79 2.36 1.2 1.75 1.98.67 3.11q0 2.38-1.16 4.15-1.15 1.77-3.24 2.75-2.08.98-4.81.98m24.57 0q-3.46 0-6.23-1.58-2.76-1.57-4.36-4.42-1.59-2.85-1.59-6.64v-.24q0-3.78 1.59-6.62 1.6-2.83 4.36-4.41 2.77-1.57 6.23-1.57 3.5 0 6.23 1.57 2.73 1.58 4.32 4.41t1.6 6.62v.24q0 3.79-1.6 6.64-1.59 2.85-4.32 4.42-2.73 1.58-6.23 1.58m0-4.83q2.07 0 3.66-.93 1.59-.92 2.5-2.68.91-1.74.91-4.2v-.24q0-2.42-.91-4.17t-2.5-2.67-3.66-.93-3.67.93q-1.61.92-2.52 2.67t-.91 4.17v.24q0 2.46.91 4.2.91 1.76 2.52 2.68t3.67.93"/></g><path fill="#0c322c" d="M771.89 480.89q-2.28 0-3.97-.84t-2.87-2.22l1.92-1.95q1.17 1.23 2.4 1.8t2.64.57q1.95 0 3.06-.94 1.11-.95 1.11-2.45 0-1.11-.58-1.8-.59-.69-1.53-1.11t-2.09-.73q-1.14-.32-2.28-.71t-2.08-1-1.53-1.61-.59-2.55q0-1.92.88-3.31.89-1.4 2.51-2.16t3.78-.77q1.95 0 3.51.68 1.56.67 2.58 1.81l-1.98 2.01q-.9-.93-1.89-1.39-.99-.47-2.25-.47-1.83 0-2.94.92-1.11.91-1.11 2.38 0 1.05.59 1.68.58.63 1.54 1.02t2.11.68q1.16.28 2.3.66 1.14.37 2.1 1t1.54 1.67q.59 1.03.59 2.65 0 1.98-.94 3.44-.95 1.45-2.63 2.25-1.68.79-3.9.79m15-.09q-2.46 0-3.94-1.21-1.49-1.22-1.49-3.14 0-1.26.75-2.26.75-1.01 2.06-1.59 1.3-.59 3.01-.59 2.19 0 3.57.84v-1.59q0-1.59-.87-2.28t-2.28-.69q-1.14 0-2.34.42t-2.07 1.29l-1.35-2.04q.99-1.08 2.6-1.68 1.6-.6 3.34-.6 2.61 0 4.25 1.38 1.63 1.38 1.63 4.05v4.68l.02 2.36q.01 1.18.07 2.35h-2.64v-1.47q-1.29 1.77-4.32 1.77m.81-2.19q1.47 0 2.33-.61.85-.62.85-1.61 0-.96-.85-1.57-.86-.62-2.36-.62-1.47 0-2.35.62-.89.61-.89 1.57t.89 1.59 2.38.63m10.17 1.89v-14.52h2.82v2.04q.84-1.35 2.05-1.84 1.22-.5 2.36-.5 1.5 0 2.64.65 1.14.64 1.77 1.93.63-1.02 1.49-1.57.85-.56 1.75-.78.9-.23 1.62-.23 2.37 0 3.86 1.52 1.48 1.51 1.48 4.57v8.73h-2.91v-8.31q0-2.01-.85-2.91-.86-.9-2.3-.9t-2.41.98-.98 2.8v8.34h-2.94v-8.31q0-2.01-.85-2.91-.86-.9-2.27-.9-1.47 0-2.45.98-.97.97-.97 2.8v8.34zm42.21.39q-2.94 0-5.26-1.36-2.33-1.37-3.66-3.81-1.34-2.45-1.34-5.66v-.24q0-3.18 1.34-5.59 1.33-2.42 3.66-3.77 2.32-1.35 5.26-1.35 2.97 0 5.28 1.35t3.63 3.77 1.32 5.59v.24q0 3.21-1.32 5.66-1.32 2.44-3.63 3.81-2.31 1.36-5.28 1.36m0-3.06q2.04 0 3.63-.94 1.59-.95 2.49-2.7t.9-4.13v-.24q0-2.34-.9-4.05t-2.49-2.65q-1.59-.95-3.63-.95-2.07 0-3.66.95-1.59.94-2.49 2.65t-.9 4.05v.24q0 2.37.9 4.13t2.49 2.7 3.66.94m17.76 2.94q-1.68 0-3.1-.51t-2.36-1.26l1.29-2.01q.87.66 1.95 1.07 1.08.4 2.22.4 1.2 0 1.94-.54.73-.54.73-1.38 0-.78-.54-1.18-.54-.41-1.39-.65-.86-.24-1.84-.49-.97-.26-1.82-.69-.86-.44-1.41-1.23-.56-.8-.56-2.15 0-1.98 1.49-3.22 1.48-1.25 3.97-1.25 1.41 0 2.66.41 1.24.4 2.2 1.06l-1.32 1.98q-.78-.54-1.69-.85-.92-.32-1.88-.32-1.17 0-1.89.54t-.72 1.38q0 .78.56 1.19.55.4 1.44.64l1.86.51q.97.27 1.86.72.88.45 1.44 1.26t.55 2.16q0 1.29-.74 2.28-.73.99-1.99 1.56t-2.91.57m15.21.03q-2.19 0-3.84-.94-1.65-.95-2.56-2.63t-.92-3.9v-.3q0-2.1.86-3.76.85-1.67 2.4-2.63t3.61-.96q2.13 0 3.64 1.05t2.22 2.94.41 4.47h-10.23q.18 1.74 1.37 2.9 1.18 1.15 3.16 1.15 2.16 0 3.42-1.17l1.68 1.77q-.87.99-2.22 1.5t-3 .51m-.45-12.69q-1.68 0-2.67 1.05t-1.23 2.76h7.35q-.03-1.8-.99-2.8-.96-1.01-2.46-1.01m10.59 12.39v-12h-2.7v-2.52h5.67v14.52zm-.12-17.55v-3.75h3.27v3.75zm-106.86 52.38q-2.22 0-4.14-.76-1.92-.77-3.36-2.16t-2.25-3.33-.81-4.28v-.6q0-2.34.81-4.27.81-1.94 2.25-3.33t3.36-2.16 4.14-.77q1.83 0 3.44.51t2.8 1.47l-.87 1.11q-2.22-1.68-5.37-1.68-2.55 0-4.62 1.16-2.07 1.15-3.27 3.19t-1.2 4.77v.6q0 2.73 1.2 4.77t3.27 3.2q2.07 1.15 4.62 1.15 3.18 0 5.4-1.71l.9 1.11q-2.58 2.01-6.3 2.01m18.06 0q-2.91 0-5.16-1.38t-3.52-3.81-1.28-5.61v-.3q0-3.12 1.28-5.49 1.27-2.37 3.52-3.72t5.16-1.35 5.16 1.35 3.53 3.72 1.27 5.49v.3q0 3.18-1.27 5.61-1.28 2.43-3.53 3.81t-5.16 1.38m0-1.41q2.49 0 4.4-1.18 1.9-1.19 3-3.3 1.09-2.12 1.09-4.91v-.3q0-2.7-1.09-4.77-1.1-2.07-3-3.22-1.91-1.16-4.4-1.16t-4.39 1.16q-1.91 1.15-3 3.22-1.1 2.07-1.1 4.77v.3q0 2.79 1.1 4.91 1.09 2.11 3 3.3 1.9 1.18 4.39 1.18m23.22 1.41q-2.91 0-5.16-1.38t-3.52-3.81-1.28-5.61v-.3q0-3.12 1.28-5.49 1.27-2.37 3.52-3.72t5.16-1.35 5.16 1.35 3.53 3.72 1.27 5.49v.3q0 3.18-1.27 5.61-1.28 2.43-3.53 3.81t-5.16 1.38m0-1.41q2.49 0 4.4-1.18 1.9-1.19 3-3.3 1.09-2.12 1.09-4.91v-.3q0-2.7-1.09-4.77-1.1-2.07-3-3.22-1.91-1.16-4.4-1.16t-4.39 1.16q-1.91 1.15-3 3.22-1.1 2.07-1.1 4.77v.3q0 2.79 1.1 4.91 1.09 2.11 3 3.3 1.9 1.18 4.39 1.18"/></g><rect width="300" height="116" x="940" y="430" fill="#fff" rx="18" ry="18"/><g clip-path="url(#fcovclip-7)"><rect width="84" height="84" x="956" y="446" fill="#30ba78" rx="42" ry="42"/><g clip-path="url(#fcovclip-8)"><path fill="#fff" d="M973.62 499.5V475h6.65l5.5 12.67 5.46-12.67h6.65v24.5h-4.83v-17.92l-5.46 13.06h-3.68l-5.46-13.06v17.92zm41.58.49q-2.66 0-4.95-.91t-4.04-2.59-2.73-3.97-.98-5.06v-.42q0-2.77.98-5.06t2.73-3.97 4.04-2.59 4.95-.91q2.49 0 4.57.79 2.08.78 3.73 2.29l-3.19 3.71q-2.1-1.96-5.11-1.96-2.2 0-3.94.98t-2.71 2.71-.98 4.01v.42q0 2.28.98 4.01t2.71 2.71 3.94.98q3.12 0 5.25-2.13l3.19 3.71q-1.68 1.57-3.82 2.41t-4.62.84"/></g><path fill="#0c322c" d="M1056.49 480.5v-21h4.17l5.61 12.03 5.58-12.03h4.2v21h-3.06v-16.95l-5.52 12.21h-2.4l-5.55-12.21v16.95zm25.14 0v-12h-2.7v-2.52h5.67v14.52zm-.12-17.55v-3.75h3.27v3.75zm11.67 17.85q-2.46 0-3.94-1.21-1.49-1.22-1.49-3.14 0-1.26.75-2.26.75-1.01 2.06-1.59 1.3-.59 3.01-.59 2.19 0 3.57.84v-1.59q0-1.59-.87-2.28t-2.28-.69q-1.14 0-2.34.42t-2.07 1.29l-1.35-2.04q.99-1.08 2.59-1.68 1.61-.6 3.35-.6 2.61 0 4.25 1.38 1.63 1.38 1.63 4.05v4.68l.02 2.36q.01 1.18.07 2.35h-2.64v-1.47q-1.29 1.77-4.32 1.77m.81-2.19q1.47 0 2.33-.61.85-.62.85-1.61 0-.96-.85-1.57-.86-.62-2.36-.62-1.47 0-2.36.62-.88.61-.88 1.57t.88 1.59 2.39.63m26.94 2.28q-2.22 0-4.18-.78-1.97-.78-3.44-2.2t-2.29-3.38-.83-4.29v-.48q0-2.34.83-4.29.82-1.95 2.29-3.37t3.44-2.21 4.18-.78q2.04 0 3.73.62 1.7.61 3.05 1.75l-1.98 2.37q-1.98-1.68-4.8-1.68-2.16 0-3.87.96t-2.7 2.67-.99 3.96v.48q0 2.25.99 3.96t2.7 2.67 3.87.96q2.88 0 4.86-1.77l2.01 2.34q-1.35 1.2-3.11 1.85-1.75.64-3.76.64m9.72-.39v-21.9h2.82v9.45q.9-1.38 2.21-1.87 1.3-.5 2.38-.5 2.46 0 3.96 1.59t1.5 4.65v8.58h-2.94v-8.13q0-2.13-.93-3.06t-2.37-.93q-1.53 0-2.61 1.02t-1.08 3.03v8.07zm23.34.3q-2.19 0-3.84-.94-1.65-.95-2.56-2.63t-.92-3.9v-.3q0-2.1.86-3.76.85-1.67 2.4-2.63t3.61-.96q2.13 0 3.65 1.05 1.51 1.05 2.22 2.94.7 1.89.4 4.47h-10.23q.18 1.74 1.37 2.9 1.18 1.15 3.16 1.15 2.16 0 3.42-1.17l1.68 1.77q-.87.99-2.22 1.5t-3 .51m-.45-12.69q-1.68 0-2.67 1.05t-1.23 2.76h7.35q-.03-1.8-.99-2.8-.96-1.01-2.46-1.01m9.57 12.39v-14.52h2.82v2.07q.9-1.38 2.21-1.87 1.3-.5 2.38-.5 2.46 0 3.96 1.59t1.5 4.65v8.58h-2.94v-8.13q0-2.13-.93-3.06t-2.37-.93q-1.53 0-2.61 1.02t-1.08 3.03v8.07zm-96.9 34.83q-2.22 0-4.14-.76-1.92-.77-3.36-2.16t-2.25-3.33-.81-4.28v-.6q0-2.34.81-4.27.81-1.94 2.25-3.33t3.36-2.16 4.14-.77q1.83 0 3.44.51t2.8 1.47l-.87 1.11q-2.22-1.68-5.37-1.68-2.55 0-4.62 1.16-2.07 1.15-3.27 3.19t-1.2 4.77v.6q0 2.73 1.2 4.77t3.27 3.2q2.07 1.15 4.62 1.15 3.18 0 5.4-1.71l.9 1.11q-2.58 2.01-6.3 2.01m10.05-.33v-17.82q0-1.38.89-2.28.88-.9 2.29-.9h9.03v1.35h-8.7q-.87 0-1.47.6t-.6 1.47v6.93h10.14v1.35h-10.14v9.3zm24.45.33q-2.91 0-5.16-1.38t-3.52-3.81-1.28-5.61v-.3q0-3.12 1.28-5.49 1.27-2.37 3.52-3.72t5.16-1.35 5.16 1.35 3.53 3.72 1.27 5.49v.3q0 3.18-1.27 5.61-1.28 2.43-3.53 3.81t-5.16 1.38m0-1.41q2.49 0 4.4-1.18 1.9-1.19 3-3.3 1.09-2.12 1.09-4.91v-.3q0-2.7-1.09-4.77-1.1-2.07-3-3.22-1.91-1.16-4.4-1.16t-4.39 1.16q-1.91 1.15-3 3.22-1.1 2.07-1.1 4.77v.3q0 2.79 1.1 4.91 1.09 2.11 3 3.3 1.9 1.18 4.39 1.18"/></g><rect width="280" height="92" x="210" y="740" fill="#fff" rx="14" ry="14"/><g clip-path="url(#fcovclip-9)"><rect width="56" height="56" x="224" y="758" fill="#30ba78" rx="16" ry="16"/><g clip-path="url(#fcovclip-10)"><path fill="#fff" d="M246.42 794v-16.8h5.85q2.76 0 4.41 1.43 1.64 1.43 1.64 3.95t-1.64 3.93q-1.65 1.42-4.41 1.42h-2.45V794zm6.02-13.92h-2.62v5.04h2.62q1.18 0 1.86-.72t.68-1.82q0-1.08-.68-1.79t-1.86-.71"/></g><path fill="#0c322c" d="M294.99 766.97v-16.8h5.43q2.59 0 4.17 1.37 1.59 1.37 1.59 3.79t-1.59 3.78-4.17 1.36h-2.93v6.5zm5.55-14.66h-3.05v6.07h3.05q1.41 0 2.29-.84.87-.84.87-2.21t-.87-2.2-2.29-.82m11.25 14.66q-1.49 0-2.39-.84t-.9-2.26v-12.4h-2.04v-2.02h4.4v14.47q0 .46.31.77t.77.31h1.15v1.97zm6.99.24q-1.97 0-3.16-.97t-1.19-2.51q0-1.01.6-1.81.6-.81 1.65-1.27 1.04-.47 2.41-.47 1.75 0 2.85.67v-1.27q0-1.27-.69-1.83-.7-.55-1.83-.55-.91 0-1.87.34-.96.33-1.65 1.03l-1.08-1.63q.79-.87 2.07-1.35 1.29-.48 2.68-.48 2.09 0 3.39 1.11 1.31 1.1 1.31 3.24v3.74l.01 1.89.06 1.88h-2.11v-1.18q-1.03 1.42-3.45 1.42m.64-1.75q1.18 0 1.86-.49.69-.5.69-1.29 0-.77-.69-1.26t-1.88-.49-1.88.49q-.71.49-.71 1.26t.71 1.27 1.9.51m12.2 1.51q-.82 0-1.6-.3t-1.28-1.01q-.51-.71-.51-1.95v-6.34h-2.04v-2.02h2.04v-2.85h2.35v2.85h2.86v2.02h-2.86v6.53q0 .45.32.75.31.3.74.3h1.8v2.02zm5.25 0v-9.6h-2.09v-2.02h2.09v-2.66q0-1.49.94-2.36.93-.88 2.52-.88h1.94v1.97h-1.97q-.45 0-.76.31-.32.31-.32.77v2.85h3.05v2.02h-3.05v9.6zm12.15.24q-1.68 0-3.02-.77-1.33-.77-2.11-2.11t-.78-3.1v-.21q0-1.73.78-3.06t2.11-2.09 3.02-.76 3 .76 2.08 2.08.77 3.04v.24q0 1.76-.77 3.1-.76 1.34-2.08 2.11t-3 .77m0-2.09q1.56 0 2.53-1.08t.97-2.81v-.24q0-1.68-.97-2.73-.97-1.06-2.53-1.06t-2.55 1.07-.98 2.75v.21q0 1.73.98 2.81.99 1.08 2.55 1.08m8.49 1.85v-11.62h2.28v1.78q.41-1.06 1.26-1.45.85-.4 1.91-.4h.96v2.33h-1.15q-1.39 0-2.15.66t-.76 1.98v6.72zm8.57 0v-11.62h2.26v1.64q.67-1.08 1.64-1.48t1.88-.4q1.2 0 2.12.52.91.52 1.41 1.55.51-.82 1.19-1.26t1.4-.63q.72-.18 1.3-.18 1.9 0 3.08 1.22 1.19 1.21 1.19 3.66v6.98h-2.33v-6.65q0-1.61-.68-2.33t-1.84-.72-1.93.78-.78 2.25v6.67h-2.35v-6.65q0-1.61-.68-2.33t-1.82-.72q-1.17 0-1.95.78t-.78 2.25v6.67zm-72.22 27.36v-1.08h3.1v-14.64h-3.1v-1.08h7.4v1.08h-3.15v14.64h3.15v1.08zm9.99 0v-11.4h1.05v2.26q.44-.94 1.14-1.48.71-.54 1.49-.78t1.48-.24q1.92 0 3.14 1.22 1.23 1.23 1.23 3.8v6.62h-1.11v-6.48q0-2.21-.99-3.17-1-.96-2.49-.96-1.03 0-1.91.47t-1.4 1.38q-.53.91-.53 2.26v6.5zm13.85 0v-10.39h-2.24v-1.01h2.24v-3.41q0-1.2.79-1.95.79-.76 2.01-.76h1.85v.98h-1.87q-.72 0-1.19.47t-.47 1.21v3.46h3.53v1.01h-3.53v10.39zm7.1 0v-11.4h1.06v1.9q.45-1.13 1.32-1.53.86-.39 1.92-.39h1.03v1.1h-1.08q-1.47 0-2.31.77t-.84 2.47v7.08zm10.58.24q-1.96 0-3.14-.91t-1.18-2.43q0-1.44 1.22-2.37 1.21-.94 3.2-.94 1.18 0 2.04.31.86.32 1.37.84v-2.16q0-1.68-.83-2.43t-2.29-.76q-.99 0-1.99.35-1.01.35-1.71 1.16l-.57-.79q.79-.91 1.95-1.33 1.17-.42 2.34-.42 1.92 0 3.06 1.03t1.14 3.17v3.6q0 1.92.07 3.84h-1l-.03-1.37q-.45.77-1.38 1.19t-2.27.42m.24-.89q1.59 0 2.44-.68t.85-1.74q0-1.08-.85-1.75-.85-.68-2.46-.68-1.58 0-2.5.68-.91.67-.91 1.72 0 1.06.91 1.76.92.69 2.52.69m11.14.89q-1.15 0-2.23-.38-1.08-.39-1.73-1.04l.55-.81q.6.6 1.53.95.92.34 1.88.34 1.3 0 2.1-.62t.8-1.61q0-.84-.46-1.27t-1.22-.67q-.74-.24-1.57-.43-.83-.2-1.56-.52t-1.2-.91-.47-1.65q0-1.44 1.08-2.35t2.81-.91q1.03 0 1.93.34.9.33 1.58.86l-.56.79q-.57-.48-1.33-.77-.75-.28-1.62-.28-1.25 0-2.04.63-.79.64-.79 1.62 0 .79.48 1.23t1.21.67 1.57.44 1.59.54 1.21.94q.47.6.47 1.65 0 1.42-1.12 2.32-1.11.9-2.89.9m10.51-.24q-1.13 0-1.94-.7-.82-.69-.82-2.01v-7.68h-2.23v-1.01h2.23v-2.86h1.08v2.86h3.34v1.01h-3.34v7.73q0 .72.48 1.2t1.2.48h1.66v.98zm4.44 0v-11.4h1.06v1.9q.45-1.13 1.32-1.53.86-.39 1.92-.39h1.03v1.1h-1.08q-1.46 0-2.3.77t-.84 2.47v7.08zm12.05.24q-1.27 0-2.26-.48t-1.56-1.54-.57-2.76v-6.86h1.1v6.72q0 1.44.46 2.29.45.85 1.23 1.23.78.37 1.77.37 1.01 0 1.87-.46.86-.45 1.39-1.35t.53-2.27v-6.53h1.08v11.4h-1.03v-2.09q-.67 1.27-1.83 1.8-1.15.53-2.18.53m13.97 0q-1.66 0-2.97-.73-1.3-.73-2.04-2.04-.73-1.31-.73-3.01v-.32q0-1.7.75-3.01.74-1.31 2.04-2.04 1.29-.73 2.95-.73 1.22 0 2.21.41.98.41 1.7 1.2l-.7.72q-.62-.63-1.41-.95t-1.8-.32q-1.37 0-2.41.6-1.05.6-1.64 1.65-.58 1.06-.58 2.47v.32q0 1.39.6 2.46.6 1.06 1.64 1.66t2.39.6q1.97 0 3.21-1.24l.7.69q-.7.79-1.69 1.2-1 .41-2.22.41m10.2-.24q-1.13 0-1.95-.7-.81-.69-.81-2.01v-7.68h-2.23v-1.01h2.23v-2.86h1.08v2.86h3.33v1.01h-3.33v7.73q0 .72.48 1.2t1.2.48h1.65v.98zm8.64.24q-1.27 0-2.26-.48t-1.56-1.54-.57-2.76v-6.86h1.1v6.72q0 1.44.46 2.29.45.85 1.23 1.23.78.37 1.77.37 1 0 1.87-.46.86-.45 1.39-1.35t.53-2.27v-6.53h1.08v11.4h-1.03v-2.09q-.68 1.27-1.83 1.8t-2.18.53m9.07-.24v-11.4h1.06v1.9q.45-1.13 1.32-1.53.86-.39 1.92-.39h1.03v1.1h-1.08q-1.47 0-2.31.77t-.84 2.47v7.08zm12.02.24q-1.68 0-2.95-.76-1.27-.75-1.99-2.08-.72-1.34-.72-3.06v-.24q0-1.68.66-2.97.66-1.28 1.84-2.03 1.17-.74 2.73-.74 1.54 0 2.65.78 1.12.78 1.66 2.16t.35 3.2h-8.79q.03 1.37.62 2.43.58 1.05 1.6 1.67t2.37.61q.91 0 1.71-.25.81-.26 1.36-.74l.65.75q-.65.6-1.63.93-.99.34-2.12.34m-.43-10.87q-1.75 0-2.85 1.16-1.11 1.17-1.25 3.04h7.7q.05-1.92-.96-3.06t-2.64-1.14m-128.81 37.99q-1.12 0-1.94-.7-.82-.69-.82-2.01v-7.68h-2.23v-1.01h2.23v-2.86h1.08v2.86h3.34v1.01h-3.34v7.73q0 .72.48 1.2t1.2.48h1.66v.98zm8.86.24q-1.68 0-2.95-.76-1.27-.75-1.99-2.08-.72-1.34-.72-3.06v-.24q0-1.68.66-2.97.66-1.28 1.83-2.03 1.18-.74 2.74-.74 1.53 0 2.65.78t1.66 2.16.34 3.2h-8.78q.02 1.37.61 2.43.59 1.05 1.61 1.67t2.36.61q.92 0 1.72-.25.8-.26 1.36-.74l.64.75q-.64.6-1.63.93t-2.11.34m-.43-10.87q-1.75 0-2.86 1.16-1.1 1.17-1.25 3.04h7.71q.05-1.92-.96-3.06t-2.64-1.14m11.11 10.87q-1.97 0-3.14-.91t-1.18-2.43q0-1.44 1.21-2.37t3.21-.94q1.17 0 2.04.31.86.32 1.36.84v-2.16q0-1.68-.82-2.43-.83-.76-2.3-.76-.98 0-1.99.35t-1.7 1.16l-.58-.79q.79-.91 1.96-1.33 1.16-.42 2.34-.42 1.92 0 3.06 1.03t1.14 3.17v3.6q0 1.92.07 3.84h-1.01l-.02-1.37q-.46.77-1.38 1.19-.93.42-2.27.42m.24-.89q1.58 0 2.44-.68t.85-1.74q0-1.08-.85-1.75-.86-.68-2.46-.68-1.59 0-2.5.68-.91.67-.91 1.72 0 1.06.91 1.76.91.69 2.52.69m8.26.65v-11.4h1.03v2.23q.65-1.37 1.75-1.92t2.16-.55q1.39 0 2.4.66t1.46 2.05q.44-1.01 1.12-1.61t1.46-.85 1.53-.25q1.89 0 3.03 1.21t1.14 3.78v6.65h-1.05v-6.55q0-2.14-.91-3.1-.92-.96-2.4-.96-1.54 0-2.58 1.03-1.05 1.04-1.05 3.03v6.55h-1.08v-6.55q0-2.14-.91-3.1t-2.4-.96q-1.54 0-2.58 1.03-1.04 1.04-1.04 3.03v6.55z"/></g><rect width="280" height="92" x="520" y="740" fill="#fff" rx="14" ry="14"/><g clip-path="url(#fcovclip-11)"><rect width="56" height="56" x="534" y="758" fill="#fe7c3f" rx="16" ry="16"/><g clip-path="url(#fcovclip-12)"><path fill="#fff" d="M556.42 794v-16.8h5.85q2.76 0 4.41 1.43 1.64 1.43 1.64 3.95t-1.64 3.93q-1.65 1.42-4.41 1.42h-2.45V794zm6.02-13.92h-2.62v5.04h2.62q1.18 0 1.86-.72t.68-1.82q0-1.08-.68-1.79t-1.86-.71"/></g><path fill="#0c322c" d="M604.99 780.64v-16.8h5.43q2.59 0 4.17 1.37 1.59 1.37 1.59 3.79t-1.59 3.78-4.17 1.36h-2.93v6.5zm5.55-14.66h-3.05v6.07h3.05q1.41 0 2.29-.84.87-.84.87-2.21t-.87-2.2-2.29-.82m7.75 14.66v-11.62h2.28v1.78q.41-1.06 1.26-1.45.85-.4 1.91-.4h.96v2.33h-1.16q-1.39 0-2.14.66t-.76 1.98v6.72zm13.17.24q-1.68 0-3.01-.77t-2.11-2.11-.78-3.1v-.21q0-1.73.78-3.06t2.11-2.09 3.01-.76 3 .76 2.09 2.08.77 3.04v.24q0 1.76-.77 3.1t-2.09 2.11-3 .77m0-2.09q1.56 0 2.54-1.08.97-1.08.97-2.81v-.24q0-1.68-.97-2.73-.98-1.06-2.54-1.06t-2.54 1.07-.98 2.75v.21q0 1.73.98 2.81t2.54 1.08m13.23 2.09q-1.59 0-2.82-.74-1.24-.75-1.95-2.09-.7-1.35-.7-3.12v-.24q0-1.75.72-3.09t1.95-2.07q1.24-.75 2.82-.75 1.18 0 2.14.48t1.63 1.35v-7.49h2.35v17.52h-2.13v-1.82q-.68.98-1.71 1.52t-2.3.54m.36-2.06q1.53 0 2.55-1.08t1.02-2.91-1.02-2.89-2.55-1.07q-1.49 0-2.49 1.03-.99 1.04-.99 2.79v.24q0 1.77.99 2.83 1 1.06 2.49 1.06m13.51 2.06q-1.92 0-3.19-1.15t-1.27-3.6v-7.11h2.32v6.68q0 1.7.75 2.36.74.66 1.89.66 1.2 0 2.04-.78t.84-2.36v-6.56h2.33v11.62h-2.06v-1.58q-.72 1.08-1.75 1.45-1.04.37-1.9.37m14.38 0q-1.76 0-3.11-.76-1.36-.75-2.14-2.08-.78-1.34-.78-3.06v-.29q0-1.75.79-3.09.8-1.33 2.15-2.07 1.36-.75 3.09-.75 1.27 0 2.35.5 1.08.49 1.8 1.35l-1.44 1.47q-1.03-1.16-2.71-1.16-1.59 0-2.62 1.02t-1.03 2.73v.29q0 1.68 1.04 2.71 1.05 1.03 2.63 1.03.79 0 1.49-.28.69-.27 1.27-.85l1.42 1.44q-.72.87-1.83 1.36-1.1.49-2.37.49m10.7-.24q-.82 0-1.6-.3t-1.28-1.01-.5-1.95v-6.34h-2.04v-2.02h2.04v-2.85h2.35v2.85h2.85v2.02h-2.85v6.53q0 .45.31.75t.74.3h1.8v2.02zM603.38 808l6.63-16.8h1.32l6.62 16.8h-1.2l-1.97-5.04h-8.25l-1.97 5.04zm3.56-6.07h7.44l-3.7-9.48zm13.39 10.87v-16.2h1.05v2.64q.65-1.32 1.83-2.1 1.17-.78 2.69-.78 1.56 0 2.74.73t1.88 2.04q.68 1.31.68 2.99v.22q0 1.75-.67 3.08t-1.87 2.08-2.76.74q-1.52 0-2.68-.76-1.16-.75-1.79-2.05v7.37zm5.42-5.57q1.27 0 2.26-.62.98-.63 1.53-1.73.56-1.1.56-2.54v-.22q0-1.39-.56-2.46-.55-1.07-1.53-1.67-.99-.6-2.26-.6-1.25 0-2.24.63-1 .62-1.56 1.72-.57 1.11-.57 2.57 0 1.47.57 2.57t1.56 1.73 2.24.62m8.64 5.57v-16.2h1.06v2.64q.65-1.32 1.82-2.1 1.18-.78 2.69-.78 1.56 0 2.75.73t1.87 2.04.68 2.99v.22q0 1.75-.67 3.08t-1.87 2.08-2.76.74q-1.51 0-2.68-.76-1.16-.75-1.78-2.05v7.37zm5.43-5.57q1.27 0 2.25-.62.99-.63 1.54-1.73t.55-2.54v-.22q0-1.39-.55-2.46t-1.54-1.67-2.25-.6-2.25.63q-.99.62-1.56 1.72-.56 1.11-.56 2.57 0 1.47.56 2.57t1.56 1.73 2.25.62m11.32.77q-1.22 0-1.98-.74-.75-.75-.75-1.92v-13.88h-2.31v-.98h3.41v14.86q0 .74.48 1.21t1.2.47h.96v.98zm3.96 0v-10.39h-2.37v-1.01h3.48V808zm-.07-14.14v-2.42h1.25v2.42zm10.11 14.38q-1.66 0-2.97-.73t-2.04-2.04-.73-3.01v-.32q0-1.7.74-3.01.75-1.31 2.04-2.04 1.3-.73 2.96-.73 1.22 0 2.2.41t1.71 1.2l-.7.72q-.62-.63-1.41-.95-.8-.32-1.8-.32-1.37 0-2.42.6t-1.63 1.65-.59 2.47v.32q0 1.39.6 2.46.6 1.06 1.65 1.66t2.39.6q1.96 0 3.21-1.24l.7.69q-.7.79-1.69 1.2-1 .41-2.22.41m10.15 0q-1.97 0-3.15-.91-1.17-.91-1.17-2.43 0-1.44 1.21-2.37t3.2-.94q1.18 0 2.04.31.87.32 1.37.84v-2.16q0-1.68-.83-2.43-.82-.76-2.29-.76-.98 0-1.99.35t-1.7 1.16l-.58-.79q.79-.91 1.96-1.33 1.16-.42 2.34-.42 1.92 0 3.06 1.03t1.14 3.17v3.6q0 1.92.07 3.84h-1.01l-.02-1.37q-.46.77-1.38 1.19-.93.42-2.27.42m.24-.89q1.58 0 2.43-.68t.86-1.74q0-1.08-.86-1.75-.85-.68-2.46-.68-1.58 0-2.49.68-.91.67-.91 1.72 0 1.06.91 1.76.91.69 2.52.69m11.52.65q-1.13 0-1.95-.7-.81-.69-.81-2.01v-7.68h-2.23v-1.01h2.23v-2.86h1.08v2.86h3.33v1.01h-3.33v7.73q0 .72.48 1.2t1.2.48h1.65v.98zm5.23 0v-10.39h-2.38v-1.01h3.48V808zm-.07-14.14v-2.42h1.25v2.42zm9.84 14.38q-1.59 0-2.82-.76-1.24-.75-1.95-2.08-.7-1.34-.7-3.06v-.2q0-1.7.7-3 .71-1.29 1.95-2.04 1.23-.74 2.82-.74 1.61 0 2.83.73t1.93 2.02.71 2.96v.27q0 1.72-.71 3.06-.71 1.33-1.93 2.08-1.22.76-2.83.76m0-1.03q1.29 0 2.28-.61.98-.62 1.53-1.72.56-1.1.56-2.54v-.27q0-1.39-.56-2.45-.55-1.05-1.53-1.64-.99-.59-2.28-.59-1.27 0-2.26.6t-1.55 1.68-.56 2.47v.2q0 1.44.56 2.54t1.55 1.72q.99.61 2.26.61m8.66.79v-11.4h1.06v2.26q.43-.94 1.14-1.48t1.49-.78 1.47-.24q1.92 0 3.15 1.22 1.22 1.23 1.22 3.8V808h-1.1v-6.48q0-2.21-1-3.17t-2.48-.96q-1.04 0-1.91.47-.88.47-1.41 1.38t-.52 2.26v6.5zm22.27 0q-1.12 0-1.94-.7-.82-.69-.82-2.01v-7.68h-2.23v-1.01h2.23v-2.86h1.08v2.86h3.34v1.01h-3.34v7.73q0 .72.48 1.2t1.2.48h1.66v.98zm8.86.24q-1.68 0-2.95-.76-1.27-.75-1.99-2.08-.72-1.34-.72-3.06v-.24q0-1.68.66-2.97.66-1.28 1.83-2.03 1.18-.74 2.74-.74 1.53 0 2.65.78t1.66 2.16.34 3.2h-8.78q.02 1.37.61 2.43.59 1.05 1.61 1.67t2.36.61q.92 0 1.72-.25.8-.26 1.36-.74l.64.75q-.64.6-1.63.93t-2.11.34m-.43-10.87q-1.75 0-2.86 1.16-1.1 1.17-1.25 3.04h7.71q.05-1.92-.96-3.06t-2.64-1.14m11.11 10.87q-1.97 0-3.14-.91t-1.18-2.43q0-1.44 1.21-2.37t3.21-.94q1.17 0 2.04.31.86.32 1.36.84v-2.16q0-1.68-.82-2.43-.83-.76-2.3-.76-.98 0-1.99.35t-1.7 1.16l-.58-.79q.79-.91 1.96-1.33 1.16-.42 2.34-.42 1.92 0 3.06 1.03t1.14 3.17v3.6q0 1.92.07 3.84h-1.01l-.02-1.37q-.46.77-1.38 1.19-.93.42-2.27.42m.24-.89q1.58 0 2.44-.68t.85-1.74q0-1.08-.85-1.75-.86-.68-2.46-.68-1.59 0-2.5.68-.91.67-.91 1.72 0 1.06.91 1.76.91.69 2.52.69m8.26.65v-11.4h1.03v2.23q.65-1.37 1.75-1.92t2.16-.55q1.39 0 2.4.66t1.46 2.05q.44-1.01 1.12-1.61t1.46-.85 1.53-.25q1.89 0 3.03 1.21t1.14 3.78V808h-1.05v-6.55q0-2.14-.91-3.1-.92-.96-2.4-.96-1.54 0-2.58 1.03-1.05 1.04-1.05 3.03V808h-1.08v-6.55q0-2.14-.91-3.1t-2.4-.96q-1.54 0-2.58 1.03-1.04 1.04-1.04 3.03V808z"/></g></svg>