<svg xmlns="http://www.w3.org/2000/svg" width="800" height="800" viewBox="0 0 800 800"><path fill="#f0f7f4" d="M0 0h800v800H0z"/><svg xmlns="http://www.w3.org/2000/svg" width="1024" height="1024" x="-40" y="-168" aria-hidden="true" class="dangling-geeko spot-illustration" preserveAspectRatio="xMinYMin meet" viewBox="1 100 2000 2550"><g transform="matrix(-1 0 0 1 2002 0)"><g class="dg-body"><path fill="url(#dg-h)" d="M1026 736c-36 0-87-10-61 42 2 127-34 252-70 373a918 918 0 0 0-21 523c20 97 60 187 104 275 41 54-31 131 44 162 72 46 151 80 229 113 40-80 83-165 78-255 15-43 34-87 38-135 13-91 10-182 7-273-7-58-28-115-55-167q-43-55-101-95c-49-62-75-138-81-216-14-107-21-215-31-323-16-25-53-22-80-24" transform="matrix(-1 0 0 1 1900 0)"/><path fill="url(#dg-i)" d="M951 2094s-2-138 42-138c-24-24-40-64-54-95q-24-53-41-108-34-111-45-227-12-133 13-263c30-141 79-257 95-394 24-25 39 249 8 555a805 805 0 0 0 162 542z" transform="matrix(-1 0 0 1 1900 0)"/><path fill="url(#dg-j)" d="m944 1878 34 71c41 54-31 131 44 162 72 46 151 80 229 113 25-49 50-99 65-152z" transform="matrix(-1 0 0 1 1900 0)"/><g fill="#30ba78" class="dg-backleg"><path d="M360.38 1448.76q1 4 4.53 2.12c35.56-26.83 93.6-13.53 97.53.24.94 1.77 16.76 44.32 44.32 72.7s128.51 58.52 173.08-19.54c43.69-77.6 45.34-172.47-47-180l-.9.47a526 526 0 0 1-118.8-10.44c-29.64-4.63-57.52-10.2-86.88-3.64q-8 1.99-13.66 8.4l-36.54 59.06-13.37 55.8z"/><path d="M367.68 1400.71q-19.7-.85-31.38 15.55l-29.23 47.26c-9.5 14.1 3.1 16.47 13.33 14.42 20.48-4.09 34.44-18.3 49.75-32.1q8.72-9.17 12.38-23.58c1.13-8.53-.03-19.24-14.85-21.55"/><path d="m382.74 1394.96 39.3-56c24.64-34.62-4.2-24.95-4.2-24.95-20.41 6.33-132.45 34.18-158.68 76.44 3.81 9.3 44.16 12.77 67.87 12.62q14.35 1.43 26.52 5.15c7.23 2.95 18.4 2.67 29.2-13.26"/></g><g fill="#30ba78" class="dg-frontleg"><path d="M419.5 1724.2c3.5 3.71 21.3 20.89 23.95 25.13 18.23 21.62 60.3 62.54 122.1 65.2 84.8 3.61 122.23-127.08 95.1-185.6-24.27-52.05-79.5-23.43-90.52-16.54l-1.7 1.06-28.4 13.03c-24.17 10.39-57.14 8.58-81.94 2.86l-20.67-4.78c-18.98-5.83-39.75 2.44-48.87 19.93-8.8 16.1-7.64 42.5 30.94 79.71"/><path d="M434.12 1736.29s-9.96-10.29-14.63-12.09c-24.06-12.08-49.4-9.22-73.14-3.82-27.34 5.3-63.91 12.82-75.68 7.2.74-25.23 64.45-68.58 64.45-68.58s56.93-39.1 91.59-.62c33.28 38.16 7.41 77.9 7.41 77.9"/><path d="M421.84 1616.61c-24.17-17.91-131.02-36.05-130.06-21.32 1.8 14.2 43.34 63.71 43.34 63.71s49.71 55.02 85.76 27.78 62.22-2.32 44.1-27.55-43.14-42.62-43.14-42.62"/></g><g class="dg-head"><path fill="#30ba78" d="M938.59 2496.47q-45.1-35.38-83.22-77.94a251 251 0 0 1-73.96-166.48c.21-5.1 5.2-11.96 13.26-12.23s13.72 9.98 13.36 14.08c5.07 44.76 25.68 98.2 62.35 137.95q29.34 31.8 61.32 61.16c11.6 9.3 27.26 25.04 38.02 35.49 4.74 4.31 18.42 20.37 27.15 17.97l5.3-4.89c78.3-87.32 163.77-186.92 115.63-311.92-37.06-93.36-89.85-234.84-112.39-294.04-5.3-14.35-23.03-17.62-33.48-6.85l-100.65 106.05c-112.91 118.12-324.2 183.98-245.13 306.12l28.14 37.05a566 566 0 0 0 180.16 146.62q46.33 24.05 98.06 31.04c38.27 5.08 30.57 1.24 6.08-19.18"/><path fill="url(#dg-k)" d="M822 2226c22-98 52-246 65-308 3-15 20-21 32-12l29 22c-20 48-103 223-107 337-2 55-1 93-8 80-7-11-23-65-11-119" opacity=".3" transform="rotate(-9 -83 -10115.9)scale(-1 1)"/><path fill="url(#dg-l)" d="M1112 2284c7-86 44-58 44-58h-1q-2-2-6-1c-8 1-12 12-11 16 2 45-10 101-40 146q-24 36-51 70c-10 11-23 29-32 41-4 5-15 23-24 22l-6-4-6-5c27-32 126-150 133-227" transform="rotate(-9 -83 -10115.9)scale(-1 1)"/><path fill="url(#dg-m)" d="M1047 2501q39-42 70-90a251 251 0 0 0 47-176q-2-5-8-9s34 5 29 85c-4 64-90 168-125 207l-4 1c-37 11-30 6-9-18" transform="rotate(-9 -83 -10115.9)scale(-1 1)"/><g class="dg-eye" transform="rotate(-9 -83 -10115.9)scale(-1 1)"><use href="#dg-eyeball" style="transform:scale(.97)"/><g class="dg-pupil"><path fill="#30ba78" d="M894.37 2313.82q21-9 23-31c2-23-19-41-40-37-20 2-33 20-30 40 3 21 25 35 47 28"/><path fill="url(#dg-o)" d="M905 2283a16 16 0 0 1-22-5 16 16 0 0 1 6-22 16 16 0 0 1 22 5 16 16 0 0 1-6 22" transform="translate(-19.63 -2.18)"/></g><path id="dg-eyelids" fill="none" stroke="#30ba78" stroke-width="0" d="m921.3 2516.3 251.3-295.2M732 2369l251.27-295" class="dg-eyelids" clip-path="url(#dg-eye-clip)"/></g></g></g><g class="dg-branch"><path fill="url(#dg-p)" d="M1286 656s-24-136 76-144c16 7 37 7 2 57-34 50 13 96 13 96z" transform="matrix(-1 0 0 1 1900 0)"/><path fill="#27b46a" d="m931 649-80 65-206-42 60-58 99-15h79z"/><path fill="#a47c53" d="M1782 693c-38 10-182-42-403-27-93 6-255 80-339 84-30 2-65 34-100 39-39 6-78-16-111-14-60 3-95-8-155-6q-167 8-334 6c-86-1-185-43-271-42-82 1-148 64-231 64-93 0-399 78-466 71-28-3-73-92-101-98-80-20-46-142 34-123 45 10 85-10 130-9 37 1 78 25 115 24 83-2 165 3 248 7 85 3 149-53 232-61 54-5 99-31 154-28 28 2 66 33 94 34 74 2 162 35 236 33 224-4 444-21 668-31 45-2 170-45 215-46 80-2 153 16 233 17 113 3 151 32 263 46 34 4-66 64-111 60"/><path fill="#fff" fill-opacity=".1" d="M1397 570c80-2 153 16 233 17 113 3 151 32 263 46 16 2 3 16-21 30-96-15-137-41-242-43-80-2-153-19-233-17-45 1-170 44-215 45-224 10-444 27-668 32-74 1-162-32-236-34-28 0-66-32-94-33-55-4-100 22-154 27-83 8-147 64-232 61-83-3-165-8-248-6-37 0-78-23-115-24-45-1-85 19-130 8-41-10-70 18-77 50-11-41 22-96 77-82 45 10 85-10 130-9 37 1 78 25 115 24 83-2 165 3 248 7 85 3 149-53 232-61 54-5 99-31 154-28 28 2 66 33 94 34 74 2 162 35 236 33 224-4 444-21 668-31 45-2 170-45 215-46"/><path fill-opacity=".1" d="M1657 634c64 9 107 19 125 14q19 1 44-8v45q-25 9-44 8c-18 5-61-5-125-14-69-11-163-21-278-13-93 6-255 80-339 84-30 2-65 34-100 39-21 3-42-2-62-6q-26-9-49-8-44 2-79-3-33-4-76-3-167 8-334 6c-86-1-185-43-271-42-82 1-148 64-231 64l-36 2v-44l36-3c83 0 149-63 231-64 86-1 185 42 271 43q167 1 334-6 43-2 76 3 35 4 79 2 23 1 49 8c20 5 41 10 62 7 35-6 70-38 100-39 84-5 246-79 339-85l79-3c80 0 147 8 199 16"/><path fill="url(#dg-q)" d="M1090 636s22 100 0 140c-2 0 51-2 89-6 17 4 64-78 64-78l-29-45-22-7z" transform="matrix(-1 0 0 1 1900 0)"/><path fill="#30ba78" d="M865 633c-40-7-174-25-177 41-3 78 33 96 33 96s-71 97-134-28c-62-122 235-421 338-113z"/><path fill="url(#dg-r)" d="M1192 640c-74-49-89-4-89-4z" transform="matrix(-1 0 0 1 1900 0)"/></g><defs><linearGradient id="dg-e"><stop offset="0" stop-color="#0c322c"/><stop offset="1" stop-color="#0c322c" stop-opacity="0"/></linearGradient><linearGradient id="dg-c"><stop offset="0" stop-color="#fff"/><stop offset="1" stop-color="#fff" stop-opacity="0"/></linearGradient><linearGradient id="dg-g"><stop offset="0" stop-color="#fff"/><stop offset="1" stop-color="#efefef"/></linearGradient><linearGradient id="dg-d"><stop offset="0" stop-color="#c0efde"/><stop offset="1" stop-color="#c0efde" stop-opacity="0"/></linearGradient><linearGradient id="dg-b"><stop offset="0" stop-color="#0c322c"/><stop offset="1" stop-color="#0c322c" stop-opacity="0"/></linearGradient><linearGradient id="dg-a"><stop offset="0" stop-color="#34b677"/><stop offset="1" stop-color="#008657"/></linearGradient><linearGradient id="dg-p" x1="37.9" x2="-34.1" y1="89" y2="30.4" gradientTransform="matrix(1.33 0 0 -1.33 1286 656)" gradientUnits="userSpaceOnUse" href="#dg-a"/><linearGradient id="dg-q" x1="983.7" x2="761.8" y1="1778.4" y2="1736.4" gradientTransform="matrix(1.33 0 0 -1.33 74 3018)" gradientUnits="userSpaceOnUse" href="#dg-b"/><linearGradient id="dg-r" x1="809.9" x2="816.4" y1="1838.5" y2="1769.1" gradientTransform="matrix(1.33 0 0 -1.33 74 3018)" gradientUnits="userSpaceOnUse" href="#dg-b"/><linearGradient id="dg-o" x1="798.6" x2="856.9" y1="2465.3" y2="2465.3" gradientTransform="rotate(60 1029 2433)" gradientUnits="userSpaceOnUse" href="#dg-c"/><linearGradient id="dg-l" x1="480.5" x2="785.2" y1="467.1" y2="506.6" gradientTransform="matrix(1.33 0 0 -1.33 74 3018)" gradientUnits="userSpaceOnUse" href="#dg-b"/><linearGradient id="dg-m" x1="647.5" x2="833.5" y1="550.4" y2="482.5" gradientTransform="matrix(1.33 0 0 -1.33 74 3018)" gradientUnits="userSpaceOnUse" href="#dg-d"/><linearGradient id="dg-h" x1="-127.8" x2="152.2" y1="376.2" y2="406.1" gradientTransform="matrix(1.33 0 0 -1.33 1330 1957)" gradientUnits="userSpaceOnUse" href="#dg-a"/><linearGradient id="dg-j" x1="1037.9" x2="1183.2" y1="2476.1" y2="2233.2" gradientTransform="translate(74 -192)" gradientUnits="userSpaceOnUse" href="#dg-e"/><radialGradient id="dg-i" cx="492.2" cy="1144.9" r="105.8" fx="492.2" fy="1144.9" gradientTransform="matrix(11.82 .25 .23 -10.75 -6131 13462)" gradientUnits="userSpaceOnUse" href="#dg-d"/><radialGradient id="dg-n" cx="592.4" cy="2548.9" r="111" fx="592.4" fy="2548.9" gradientTransform="translate(1618 5105)scale(-1.12)" gradientUnits="userSpaceOnUse" href="#dg-g"/><radialGradient id="dg-k" cx="579" cy="690.3" r="48.7" fx="579" fy="690.3" gradientTransform="matrix(1.98 -.5 -1.1 -4.44 473 5537)" gradientUnits="userSpaceOnUse" href="#dg-d"/><clipPath id="dg-eye-clip"><circle id="dc-eye" cx="956.7" cy="2295.8" r="111"/><circle id="dg-eyeball" cx="956.7" cy="2295.8" r="111" fill="url(#dg-n)"/></clipPath></defs></g></svg></svg>