<svg xmlns="http://www.w3.org/2000/svg" width="600" height="600" viewBox="0 0 600 600"><path d="M0 0h600v600H0z" style="fill:#0c322c;shape-rendering:crispEdges"/><path d="M106.67 106.67H120V120h-13.33zm13.33 0h13.33V120H120zm13.33 0h13.33V120h-13.33zm13.34 0H160V120h-13.33zm13.33 0h13.33V120H160zm13.33 0h13.33V120h-13.33zm13.34 0H200V120h-13.33zm26.66 0h13.33V120h-13.33zm13.34 0H240V120h-13.33zm13.33 0h13.33V120H240zm13.33 0h13.33V120h-13.33zm13.34 0H280V120h-13.33zm40 0H320V120h-13.33zm13.33 0h13.33V120H320zm13.33 0h13.33V120h-13.33zm13.34 0H360V120h-13.33zm13.33 0h13.33V120H360zm13.33 0h13.33V120h-13.33zm26.67 0h13.33V120H400zm13.33 0h13.33V120h-13.33zm13.34 0H440V120h-13.33zm13.33 0h13.33V120H440zm13.33 0h13.33V120h-13.33zm13.34 0H480V120h-13.33zm13.33 0h13.33V120H480zM106.67 120H120v13.33h-13.33zm80 0H200v13.33h-13.33zm40 0H240v13.33h-13.33zm13.33 0h13.33v13.33H240zm13.33 0h13.33v13.33h-13.33zm13.34 0H280v13.33h-13.33zm26.66 0h13.33v13.33h-13.33zm13.34 0H320v13.33h-13.33zm13.33 0h13.33v13.33H320zm26.67 0H360v13.33h-13.33zm13.33 0h13.33v13.33H360zm13.33 0h13.33v13.33h-13.33zm26.67 0h13.33v13.33H400zm80 0h13.33v13.33H480zm-373.33 13.33H120v13.33h-13.33zm26.66 0h13.33v13.33h-13.33zm13.34 0H160v13.33h-13.33zm13.33 0h13.33v13.33H160zm26.67 0H200v13.33h-13.33zm40 0H240v13.33h-13.33zm26.66 0h13.33v13.33h-13.33zm26.67 0h13.33v13.33H280zm26.67 0H320v13.33h-13.33zm26.66 0h13.33v13.33h-13.33zm13.34 0H360v13.33h-13.33zm53.33 0h13.33v13.33H400zm26.67 0H440v13.33h-13.33zm13.33 0h13.33v13.33H440zm13.33 0h13.33v13.33h-13.33zm26.67 0h13.33v13.33H480zm-373.33 13.34H120V160h-13.33zm26.66 0h13.33V160h-13.33zm13.34 0H160V160h-13.33zm13.33 0h13.33V160H160zm26.67 0H200V160h-13.33zm26.66 0h13.33V160h-13.33zm40 0h13.33V160h-13.33zm26.67 0h13.33V160H280zm40 0h13.33V160H320zm53.33 0h13.33V160h-13.33zm26.67 0h13.33V160H400zm26.67 0H440V160h-13.33zm13.33 0h13.33V160H440zm13.33 0h13.33V160h-13.33zm26.67 0h13.33V160H480zM106.67 160H120v13.33h-13.33zm26.66 0h13.33v13.33h-13.33zm13.34 0H160v13.33h-13.33zm13.33 0h13.33v13.33H160zm26.67 0H200v13.33h-13.33zm26.66 0h13.33v13.33h-13.33zm26.67 0h13.33v13.33H240zm93.33 0h13.33v13.33h-13.33zm26.67 0h13.33v13.33H360zm13.33 0h13.33v13.33h-13.33zm26.67 0h13.33v13.33H400zm26.67 0H440v13.33h-13.33zm13.33 0h13.33v13.33H440zm13.33 0h13.33v13.33h-13.33zm26.67 0h13.33v13.33H480zm-373.33 13.33H120v13.33h-13.33zm80 0H200v13.33h-13.33zm26.66 0h13.33v13.33h-13.33zm26.67 0h13.33v13.33H240zm26.67 0H280v13.33h-13.33zm13.33 0h13.33v13.33H280zm53.33 0h13.33v13.33h-13.33zm40 0h13.33v13.33h-13.33zm26.67 0h13.33v13.33H400zm80 0h13.33v13.33H480zm-373.33 13.34H120V200h-13.33zm13.33 0h13.33V200H120zm13.33 0h13.33V200h-13.33zm13.34 0H160V200h-13.33zm13.33 0h13.33V200H160zm13.33 0h13.33V200h-13.33zm13.34 0H200V200h-13.33zm26.66 0h13.33V200h-13.33zm26.67 0h13.33V200H240zm26.67 0H280V200h-13.33zm26.66 0h13.33V200h-13.33zm26.67 0h13.33V200H320zm26.67 0H360V200h-13.33zm26.66 0h13.33V200h-13.33zm26.67 0h13.33V200H400zm13.33 0h13.33V200h-13.33zm13.34 0H440V200h-13.33zm13.33 0h13.33V200H440zm13.33 0h13.33V200h-13.33zm13.34 0H480V200h-13.33zm13.33 0h13.33V200H480zM213.33 200h13.33v13.33h-13.33zm26.67 0h13.33v13.33H240zm13.33 0h13.33v13.33h-13.33zm-146.66 13.33H120v13.33h-13.33zm13.33 0h13.33v13.33H120zm13.33 0h13.33v13.33h-13.33zm26.67 0h13.33v13.33H160zm26.67 0H200v13.33h-13.33zm26.66 0h13.33v13.33h-13.33zm40 0h13.33v13.33h-13.33zm53.34 0H320v13.33h-13.33zm13.33 0h13.33v13.33H320zm40 0h13.33v13.33H360zm26.67 0H400v13.33h-13.33zm13.33 0h13.33v13.33H400zm13.33 0h13.33v13.33h-13.33zm13.34 0H440v13.33h-13.33zm13.33 0h13.33v13.33H440zm40 0h13.33v13.33H480zm-373.33 13.34H120V240h-13.33zm13.33 0h13.33V240H120zm13.33 0h13.33V240h-13.33zm66.67 0h13.33V240H200zm13.33 0h13.33V240h-13.33zm53.34 0H280V240h-13.33zm26.66 0h13.33V240h-13.33zm26.67 0h13.33V240H320zm13.33 0h13.33V240h-13.33zm26.67 0h13.33V240H360zm26.67 0H400V240h-13.33zm26.66 0h13.33V240h-13.33zm13.34 0H440V240h-13.33zm13.33 0h13.33V240H440zm13.33 0h13.33V240h-13.33zm13.34 0H480V240h-13.33zm-360 13.33H120v13.33h-13.33zm40 0H160v13.33h-13.33zm26.66 0h13.33v13.33h-13.33zm13.34 0H200v13.33h-13.33zm26.66 0h13.33v13.33h-13.33zm26.67 0h13.33v13.33H240zm120 0h13.33v13.33H360zm53.33 0h13.33v13.33h-13.33zm13.34 0H440v13.33h-13.33zm13.33 0h13.33v13.33H440zm40 0h13.33v13.33H480zm-360 13.33h13.33v13.33H120zm40 0h13.33v13.33H160zm53.33 0h13.33v13.33h-13.33zm40 0h13.33v13.33h-13.33zm26.67 0h13.33v13.33H280zm40 0h13.33v13.33H320zm26.67 0H360v13.33h-13.33zm13.33 0h13.33v13.33H360zm13.33 0h13.33v13.33h-13.33zm13.34 0H400v13.33h-13.33zm13.33 0h13.33v13.33H400zm40 0h13.33v13.33H440zm13.33 0h13.33v13.33h-13.33zm26.67 0h13.33v13.33H480zm-346.67 13.34h13.33V280h-13.33zm40 0h13.33V280h-13.33zm13.34 0H200V280h-13.33zm13.33 0h13.33V280H200zm26.67 0H240V280h-13.33zm13.33 0h13.33V280H240zm40 0h13.33V280H280zm66.67 0H360V280h-13.33zm26.66 0h13.33V280h-13.33zm13.34 0H400V280h-13.33zm13.33 0h13.33V280H400zm40 0h13.33V280H440zm13.33 0h13.33V280h-13.33zm13.34 0H480V280h-13.33zm13.33 0h13.33V280H480zM200 280h13.33v13.33H200zm13.33 0h13.33v13.33h-13.33zm13.34 0H240v13.33h-13.33zm13.33 0h13.33v13.33H240zm13.33 0h13.33v13.33h-13.33zm13.34 0H280v13.33h-13.33zm13.33 0h13.33v13.33H280zm13.33 0h13.33v13.33h-13.33zm40 0h13.33v13.33h-13.33zm40 0h13.33v13.33h-13.33zm53.34 0H440v13.33h-13.33zm40 0H480v13.33h-13.33zm13.33 0h13.33v13.33H480zm-320 13.33h13.33v13.33H160zm26.67 0H200v13.33h-13.33zm93.33 0h13.33v13.33H280zm40 0h13.33v13.33H320zm13.33 0h13.33v13.33h-13.33zm26.67 0h13.33v13.33H360zm13.33 0h13.33v13.33h-13.33zm13.34 0H400v13.33h-13.33zm13.33 0h13.33v13.33H400zm13.33 0h13.33v13.33h-13.33zm13.34 0H440v13.33h-13.33zm-320 13.34H120V320h-13.33zm26.66 0h13.33V320h-13.33zm26.67 0h13.33V320H160zm13.33 0h13.33V320h-13.33zm26.67 0h13.33V320H200zm40 0h13.33V320H240zm26.67 0H280V320h-13.33zm13.33 0h13.33V320H280zm13.33 0h13.33V320h-13.33zm13.34 0H320V320h-13.33zm13.33 0h13.33V320H320zm13.33 0h13.33V320h-13.33zm13.34 0H360V320h-13.33zm26.66 0h13.33V320h-13.33zm13.34 0H400V320h-13.33zm13.33 0h13.33V320H400zm26.67 0H440V320h-13.33zm13.33 0h13.33V320H440zm13.33 0h13.33V320h-13.33zm13.34 0H480V320h-13.33zm-360 13.33H120v13.33h-13.33zm13.33 0h13.33v13.33H120zm13.33 0h13.33v13.33h-13.33zm13.34 0H160v13.33h-13.33zm13.33 0h13.33v13.33H160zm13.33 0h13.33v13.33h-13.33zm13.34 0H200v13.33h-13.33zm13.33 0h13.33v13.33H200zm13.33 0h13.33v13.33h-13.33zm13.34 0H240v13.33h-13.33zm13.33 0h13.33v13.33H240zm26.67 0H280v13.33h-13.33zm13.33 0h13.33v13.33H280zm66.67 0H360v13.33h-13.33zm13.33 0h13.33v13.33H360zm13.33 0h13.33v13.33h-13.33zm26.67 0h13.33v13.33H400zm26.67 0H440v13.33h-13.33zm13.33 0h13.33v13.33H440zm-333.33 13.33H120v13.33h-13.33zm13.33 0h13.33v13.33H120zm26.67 0H160v13.33h-13.33zm66.66 0h13.33v13.33h-13.33zm26.67 0h13.33v13.33H240zm13.33 0h13.33v13.33h-13.33zm80 0h13.33v13.33h-13.33zm40 0h13.33v13.33h-13.33zm26.67 0h13.33v13.33H400zm13.33 0h13.33v13.33h-13.33zm40 0h13.33v13.33h-13.33zM120 346.67h13.33V360H120zm13.33 0h13.33V360h-13.33zm26.67 0h13.33V360H160zm26.67 0H200V360h-13.33zm40 0H240V360h-13.33zm26.66 0h13.33V360h-13.33zm80 0h13.33V360h-13.33zm13.34 0H360V360h-13.33zm66.66 0h13.33V360h-13.33zm40 0h13.33V360h-13.33zm26.67 0h13.33V360H480zM120 360h13.33v13.33H120zm13.33 0h13.33v13.33h-13.33zm26.67 0h13.33v13.33H160zm66.67 0H240v13.33h-13.33zm66.66 0h13.33v13.33h-13.33zm13.34 0H320v13.33h-13.33zm13.33 0h13.33v13.33H320zm13.33 0h13.33v13.33h-13.33zm13.34 0H360v13.33h-13.33zm26.66 0h13.33v13.33h-13.33zm26.67 0h13.33v13.33H400zm13.33 0h13.33v13.33h-13.33zm13.34 0H440v13.33h-13.33zm13.33 0h13.33v13.33H440zm-320 13.33h13.33v13.33H120zm53.33 0h13.33v13.33h-13.33zm13.34 0H200v13.33h-13.33zm40 0H240v13.33h-13.33zm26.66 0h13.33v13.33h-13.33zm13.34 0H280v13.33h-13.33zm26.66 0h13.33v13.33h-13.33zm26.67 0h13.33v13.33H320zm13.33 0h13.33v13.33h-13.33zm26.67 0h13.33v13.33H360zm13.33 0h13.33v13.33h-13.33zm13.34 0H400v13.33h-13.33zm13.33 0h13.33v13.33H400zm13.33 0h13.33v13.33h-13.33zm13.34 0H440v13.33h-13.33zm26.66 0h13.33v13.33h-13.33zm26.67 0h13.33v13.33H480zm-266.67 13.34h13.33V400h-13.33zm13.34 0H240V400h-13.33zm13.33 0h13.33V400H240zm13.33 0h13.33V400h-13.33zm26.67 0h13.33V400H280zm26.67 0H320V400h-13.33zm26.66 0h13.33V400h-13.33zm13.34 0H360V400h-13.33zm13.33 0h13.33V400H360zm13.33 0h13.33V400h-13.33zm53.34 0H440V400h-13.33zm13.33 0h13.33V400H440zm13.33 0h13.33V400h-13.33zm13.34 0H480V400h-13.33zm-360 13.33H120v13.33h-13.33zm13.33 0h13.33v13.33H120zm13.33 0h13.33v13.33h-13.33zm13.34 0H160v13.33h-13.33zm13.33 0h13.33v13.33H160zm13.33 0h13.33v13.33h-13.33zm13.34 0H200v13.33h-13.33zm80 0H280v13.33h-13.33zm13.33 0h13.33v13.33H280zm13.33 0h13.33v13.33h-13.33zm13.34 0H320v13.33h-13.33zm40 0H360v13.33h-13.33zm13.33 0h13.33v13.33H360zm13.33 0h13.33v13.33h-13.33zm26.67 0h13.33v13.33H400zm26.67 0H440v13.33h-13.33zm40 0H480v13.33h-13.33zm-360 13.33H120v13.33h-13.33zm80 0H200v13.33h-13.33zm40 0H240v13.33h-13.33zm13.33 0h13.33v13.33H240zm26.67 0H280v13.33h-13.33zm26.66 0h13.33v13.33h-13.33zm13.34 0H320v13.33h-13.33zm53.33 0h13.33v13.33H360zm13.33 0h13.33v13.33h-13.33zm53.34 0H440v13.33h-13.33zm13.33 0h13.33v13.33H440zm13.33 0h13.33v13.33h-13.33zm13.34 0H480v13.33h-13.33zm-360 13.34H120V440h-13.33zm26.66 0h13.33V440h-13.33zm13.34 0H160V440h-13.33zm13.33 0h13.33V440H160zm26.67 0H200V440h-13.33zm26.66 0h13.33V440h-13.33zm13.34 0H240V440h-13.33zm53.33 0h13.33V440H280zm26.67 0H320V440h-13.33zm26.66 0h13.33V440h-13.33zm26.67 0h13.33V440H360zm13.33 0h13.33V440h-13.33zm13.34 0H400V440h-13.33zm13.33 0h13.33V440H400zm13.33 0h13.33V440h-13.33zm13.34 0H440V440h-13.33zm26.66 0h13.33V440h-13.33zm26.67 0h13.33V440H480zM106.67 440H120v13.33h-13.33zm26.66 0h13.33v13.33h-13.33zm13.34 0H160v13.33h-13.33zm13.33 0h13.33v13.33H160zm26.67 0H200v13.33h-13.33zm66.66 0h13.33v13.33h-13.33zm26.67 0h13.33v13.33H280zm40 0h13.33v13.33H320zm26.67 0H360v13.33h-13.33zm13.33 0h13.33v13.33H360zm13.33 0h13.33v13.33h-13.33zm13.34 0H400v13.33h-13.33zm13.33 0h13.33v13.33H400zm26.67 0H440v13.33h-13.33zm40 0H480v13.33h-13.33zm13.33 0h13.33v13.33H480zm-373.33 13.33H120v13.33h-13.33zm26.66 0h13.33v13.33h-13.33zm13.34 0H160v13.33h-13.33zm13.33 0h13.33v13.33H160zm26.67 0H200v13.33h-13.33zm26.66 0h13.33v13.33h-13.33zm13.34 0H240v13.33h-13.33zm13.33 0h13.33v13.33H240zm40 0h13.33v13.33H280zm13.33 0h13.33v13.33h-13.33zm13.34 0H320v13.33h-13.33zm26.66 0h13.33v13.33h-13.33zm26.67 0h13.33v13.33H360zm13.33 0h13.33v13.33h-13.33zm80 0h13.33v13.33h-13.33zm13.34 0H480v13.33h-13.33zm-360 13.34H120V480h-13.33zm80 0H200V480h-13.33zm26.66 0h13.33V480h-13.33zm13.34 0H240V480h-13.33zm53.33 0h13.33V480H280zm53.33 0h13.33V480h-13.33zm40 0h13.33V480h-13.33zm53.34 0H440V480h-13.33zm26.66 0h13.33V480h-13.33zM106.67 480H120v13.33h-13.33zm13.33 0h13.33v13.33H120zm13.33 0h13.33v13.33h-13.33zm13.34 0H160v13.33h-13.33zm13.33 0h13.33v13.33H160zm13.33 0h13.33v13.33h-13.33zm13.34 0H200v13.33h-13.33zm26.66 0h13.33v13.33h-13.33zm40 0h13.33v13.33h-13.33zm13.34 0H280v13.33h-13.33zm13.33 0h13.33v13.33H280zm13.33 0h13.33v13.33h-13.33zm13.34 0H320v13.33h-13.33zm40 0H360v13.33h-13.33zm80 0H440v13.33h-13.33zm13.33 0h13.33v13.33H440zm13.33 0h13.33v13.33h-13.33zm13.34 0H480v13.33h-13.33z" style="fill:#fcb244;shape-rendering:crispEdges"/></svg>