<svg xmlns="http://www.w3.org/2000/svg" width="600" height="600" viewBox="0 0 600 600"><path d="M0 0h600v600H0z" style="fill:#fff;shape-rendering:crispEdges"/><path d="M72.73 72.73h18.18v18.18H72.73zm18.18 0h18.18v18.18H90.91zm18.18 0h18.18v18.18h-18.18z" style="fill:#0c322c;shape-rendering:crispEdges"/><path d="M127.27 72.73h18.18v18.18h-18.18zm18.18 0h18.18v18.18h-18.18zm18.19 0h18.18v18.18h-18.18zm18.18 0H200v18.18h-18.18zm36.36 0h18.18v18.18h-18.18zm18.18 0h18.18v18.18h-18.18zm36.37 0h18.18v18.18h-18.18zm36.36 0h18.18v18.18h-18.18zm18.18 0h18.18v18.18h-18.18zm18.18 0h18.18v18.18h-18.18zm18.19 0h18.18v18.18h-18.18zm36.36 0h18.18v18.18H400zm18.18 0h18.18v18.18h-18.18zm18.18 0h18.18v18.18h-18.18zm18.19 0h18.18v18.18h-18.18zm18.18 0h18.18v18.18h-18.18zm18.18 0h18.18v18.18h-18.18z" style="fill:#0c322c;shape-rendering:crispEdges"/><path d="M509.09 72.73h18.18v18.18h-18.18zM72.73 90.91h18.18v18.18H72.73zm109.09 0H200v18.18h-18.18zm54.54 0h18.18v18.18h-18.18zm18.19 0h18.18v18.18h-18.18zm36.36 0h18.18v18.18h-18.18zm18.18 0h18.18v18.18h-18.18zm18.18 0h18.18v18.18h-18.18zm72.73 0h18.18v18.18H400zm109.09 0h18.18v18.18h-18.18zM72.73 109.09h18.18v18.18H72.73zm36.36 0h18.18v18.18h-18.18z" style="fill:#0c322c;shape-rendering:crispEdges"/><path d="M127.27 109.09h18.18v18.18h-18.18zm18.18 0h18.18v18.18h-18.18zm36.37 0H200v18.18h-18.18zm72.73 0h18.18v18.18h-18.18zm36.36 0h18.18v18.18h-18.18zm36.36 0h18.18v18.18h-18.18zm18.18 0h18.18v18.18h-18.18zm54.55 0h18.18v18.18H400zm36.36 0h18.18v18.18h-18.18zm18.19 0h18.18v18.18h-18.18zm18.18 0h18.18v18.18h-18.18zm36.36 0h18.18v18.18h-18.18zM72.73 127.27h18.18v18.18H72.73z" style="fill:#0c322c;shape-rendering:crispEdges"/><path d="M109.09 127.27h18.18v18.18h-18.18z" style="fill:#0c322c;shape-rendering:crispEdges"/><path d="M127.27 127.27h18.18v18.18h-18.18zm18.18 0h18.18v18.18h-18.18zm36.37 0H200v18.18h-18.18zm36.36 0h18.18v18.18h-18.18zm54.55 0h18.18v18.18h-18.18zm36.36 0h18.18v18.18h-18.18zm54.55 0h18.18v18.18h-18.18zm36.36 0h18.18v18.18H400zm36.36 0h18.18v18.18h-18.18zm18.19 0h18.18v18.18h-18.18zm18.18 0h18.18v18.18h-18.18zm36.36 0h18.18v18.18h-18.18zM72.73 145.45h18.18v18.18H72.73zm36.36 0h18.18v18.18h-18.18z" style="fill:#0c322c;shape-rendering:crispEdges"/><path d="M127.27 145.45h18.18v18.18h-18.18zm18.18 0h18.18v18.18h-18.18zm36.37 0H200v18.18h-18.18zm36.36 0h18.18v18.18h-18.18zm18.18 0h18.18v18.18h-18.18zm18.19 0h18.18v18.18h-18.18zm18.18 0h18.18v18.18h-18.18zm18.18 0h18.18v18.18h-18.18zm54.54 0h18.18v18.18h-18.18zm54.55 0h18.18v18.18H400zm36.36 0h18.18v18.18h-18.18zm18.19 0h18.18v18.18h-18.18zm18.18 0h18.18v18.18h-18.18zm36.36 0h18.18v18.18h-18.18zM72.73 163.64h18.18v18.18H72.73zm109.09 0H200v18.18h-18.18zm36.36 0h18.18v18.18h-18.18zm18.18 0h18.18v18.18h-18.18zm18.19 0h18.18v18.18h-18.18zm54.54 0h18.18v18.18h-18.18zm18.18 0h18.18v18.18h-18.18zm36.37 0h18.18v18.18h-18.18zm36.36 0h18.18v18.18H400zm109.09 0h18.18v18.18h-18.18zM72.73 181.82h18.18V200H72.73zm18.18 0h18.18V200H90.91zm18.18 0h18.18V200h-18.18z" style="fill:#0c322c;shape-rendering:crispEdges"/><path d="M127.27 181.82h18.18V200h-18.18zm18.18 0h18.18V200h-18.18zm18.19 0h18.18V200h-18.18zm18.18 0H200V200h-18.18zm36.36 0h18.18V200h-18.18zm36.37 0h18.18V200h-18.18zm36.36 0h18.18V200h-18.18zm36.36 0h18.18V200h-18.18zm36.37 0h18.18V200h-18.18zm36.36 0h18.18V200H400zm18.18 0h18.18V200h-18.18zm18.18 0h18.18V200h-18.18zm18.19 0h18.18V200h-18.18zm18.18 0h18.18V200h-18.18zm18.18 0h18.18V200h-18.18z" style="fill:#0c322c;shape-rendering:crispEdges"/><path d="M509.09 181.82h18.18V200h-18.18zM218.18 200h18.18v18.18h-18.18zm18.18 0h18.18v18.18h-18.18zm36.37 0h18.18v18.18h-18.18zm18.18 0h18.18v18.18h-18.18z" style="fill:#0c322c;shape-rendering:crispEdges"/><path d="M309.09 200h18.18v18.18h-18.18zm36.36 0h18.18v18.18h-18.18zm18.19 0h18.18v18.18h-18.18zM72.73 218.18h18.18v18.18H72.73zm18.18 0h18.18v18.18H90.91zm18.18 0h18.18v18.18h-18.18zm36.36 0h18.18v18.18h-18.18zm36.37 0H200v18.18h-18.18zm36.36 0h18.18v18.18h-18.18zm18.18 0h18.18v18.18h-18.18zm72.73 0h18.18v18.18h-18.18zm18.18 0h18.18v18.18h-18.18zm36.37 0h18.18v18.18h-18.18zm18.18 0H400v18.18h-18.18zm18.18 0h18.18v18.18H400zm18.18 0h18.18v18.18h-18.18zm18.18 0h18.18v18.18h-18.18zm18.19 0h18.18v18.18h-18.18zm54.54 0h18.18v18.18h-18.18zM90.91 236.36h18.18v18.18H90.91zm36.36 0h18.18v18.18h-18.18zm36.37 0h18.18v18.18h-18.18zm36.36 0h18.18v18.18H200zm36.36 0h18.18v18.18h-18.18zm18.19 0h18.18v18.18h-18.18zm18.18 0h18.18v18.18h-18.18zm18.18 0h18.18v18.18h-18.18zm90.91 0H400v18.18h-18.18zm54.54 0h18.18v18.18h-18.18zm18.19 0h18.18v18.18h-18.18zm18.18 0h18.18v18.18h-18.18zM90.91 254.55h18.18v18.18H90.91zm54.54 0h18.18v18.18h-18.18zm36.37 0H200v18.18h-18.18zm72.73 0h18.18v18.18h-18.18zm18.18 0h18.18v18.18h-18.18zm18.18 0h18.18v18.18h-18.18zm54.54 0h18.18v18.18h-18.18zm36.37 0H400v18.18h-18.18zm18.18 0h18.18v18.18H400zm18.18 0h18.18v18.18h-18.18zm72.73 0h18.18v18.18h-18.18zM72.73 272.73h18.18v18.18H72.73zm18.18 0h18.18v18.18H90.91zm18.18 0h18.18v18.18h-18.18zm36.36 0h18.18v18.18h-18.18zm18.19 0h18.18v18.18h-18.18zm109.09 0h18.18v18.18h-18.18zm18.18 0h18.18v18.18h-18.18zm72.73 0h18.18v18.18h-18.18zm18.18 0H400v18.18h-18.18zm36.36 0h18.18v18.18h-18.18zm18.18 0h18.18v18.18h-18.18zm36.37 0h18.18v18.18h-18.18zm18.18 0h18.18v18.18h-18.18z" style="fill:#0c322c;shape-rendering:crispEdges"/><path d="M509.09 272.73h18.18v18.18h-18.18zm-400 18.18h18.18v18.18h-18.18zm18.18 0h18.18v18.18h-18.18zm54.55 0H200v18.18h-18.18zm36.36 0h18.18v18.18h-18.18zm18.18 0h18.18v18.18h-18.18zm72.73 0h18.18v18.18h-18.18zm36.36 0h18.18v18.18h-18.18zm18.19 0h18.18v18.18h-18.18zm36.36 0h18.18v18.18H400zm54.55 0h18.18v18.18h-18.18zm36.36 0h18.18v18.18h-18.18z" style="fill:#0c322c;shape-rendering:crispEdges"/><path d="M509.09 290.91h18.18v18.18h-18.18zM72.73 309.09h18.18v18.18H72.73zm36.36 0h18.18v18.18h-18.18z" style="fill:#0c322c;shape-rendering:crispEdges"/><path d="M127.27 309.09h18.18v18.18h-18.18zm18.18 0h18.18v18.18h-18.18zm18.19 0h18.18v18.18h-18.18zm36.36 0h18.18v18.18H200zm36.36 0h18.18v18.18h-18.18zm54.55 0h18.18v18.18h-18.18zm54.54 0h18.18v18.18h-18.18zm54.55 0h18.18v18.18H400zm18.18 0h18.18v18.18h-18.18zm18.18 0h18.18v18.18h-18.18zm18.19 0h18.18v18.18h-18.18zm18.18 0h18.18v18.18h-18.18zm18.18 0h18.18v18.18h-18.18z" style="fill:#0c322c;shape-rendering:crispEdges"/><path d="M509.09 309.09h18.18v18.18h-18.18zM72.73 327.27h18.18v18.18H72.73zm18.18 0h18.18v18.18H90.91zm18.18 0h18.18v18.18h-18.18zm36.36 0h18.18v18.18h-18.18zm18.19 0h18.18v18.18h-18.18zm18.18 0H200v18.18h-18.18zm36.36 0h18.18v18.18h-18.18zm18.18 0h18.18v18.18h-18.18zm36.37 0h18.18v18.18h-18.18zm18.18 0h18.18v18.18h-18.18z" style="fill:#0c322c;shape-rendering:crispEdges"/><path d="M309.09 327.27h18.18v18.18h-18.18zm18.18 0h18.18v18.18h-18.18zm18.18 0h18.18v18.18h-18.18zm54.55 0h18.18v18.18H400zm-272.73 18.18h18.18v18.18h-18.18zm90.91 0h18.18v18.18h-18.18zm18.18 0h18.18v18.18h-18.18zm18.19 0h18.18v18.18h-18.18zm18.18 0h18.18v18.18h-18.18zm18.18 0h18.18v18.18h-18.18zm18.18 0h18.18v18.18h-18.18zm18.18 0h18.18v18.18h-18.18zm36.37 0h18.18v18.18h-18.18zm18.18 0H400v18.18h-18.18zm36.36 0h18.18v18.18h-18.18zm18.18 0h18.18v18.18h-18.18zm18.19 0h18.18v18.18h-18.18zm18.18 0h18.18v18.18h-18.18zm18.18 0h18.18v18.18h-18.18zm-363.64 18.19h18.18v18.18h-18.18zm54.55 0H200v18.18h-18.18zm18.18 0h18.18v18.18H200zm18.18 0h18.18v18.18h-18.18zm36.37 0h18.18v18.18h-18.18zm18.18 0h18.18v18.18h-18.18zm36.36 0h18.18v18.18h-18.18zm54.55 0h18.18v18.18h-18.18zm18.18 0H400v18.18h-18.18zm18.18 0h18.18v18.18H400zm18.18 0h18.18v18.18h-18.18zm18.18 0h18.18v18.18h-18.18zm72.73 0h18.18v18.18h-18.18zm-290.91 18.18h18.18V400h-18.18zm18.18 0h18.18V400h-18.18zm72.73 0h18.18V400h-18.18zm18.18 0h18.18V400h-18.18zm18.18 0h18.18V400h-18.18zm18.19 0h18.18V400h-18.18zm72.72 0h18.18V400h-18.18zm36.37 0h18.18V400h-18.18zm36.36 0h18.18V400h-18.18zM72.73 400h18.18v18.18H72.73zm18.18 0h18.18v18.18H90.91zm18.18 0h18.18v18.18h-18.18z" style="fill:#0c322c;shape-rendering:crispEdges"/><path d="M127.27 400h18.18v18.18h-18.18zm18.18 0h18.18v18.18h-18.18zm18.19 0h18.18v18.18h-18.18zm18.18 0H200v18.18h-18.18zm72.73 0h18.18v18.18h-18.18zm36.36 0h18.18v18.18h-18.18zm36.36 0h18.18v18.18h-18.18zm36.37 0h18.18v18.18h-18.18zm36.36 0h18.18v18.18H400zm36.36 0h18.18v18.18h-18.18zm18.19 0h18.18v18.18h-18.18zM72.73 418.18h18.18v18.18H72.73zm109.09 0H200v18.18h-18.18zm54.54 0h18.18v18.18h-18.18zm18.19 0h18.18v18.18h-18.18zm18.18 0h18.18v18.18h-18.18zm72.72 0h18.18v18.18h-18.18zm18.19 0h18.18v18.18h-18.18zm72.72 0h18.18v18.18h-18.18zm54.55 0h18.18v18.18h-18.18zM72.73 436.36h18.18v18.18H72.73zm36.36 0h18.18v18.18h-18.18z" style="fill:#0c322c;shape-rendering:crispEdges"/><path d="M127.27 436.36h18.18v18.18h-18.18zm18.18 0h18.18v18.18h-18.18zm36.37 0H200v18.18h-18.18zm36.36 0h18.18v18.18h-18.18zm18.18 0h18.18v18.18h-18.18zm72.73 0h18.18v18.18h-18.18zm18.18 0h18.18v18.18h-18.18zm36.37 0h18.18v18.18h-18.18zm18.18 0H400v18.18h-18.18zm18.18 0h18.18v18.18H400zm18.18 0h18.18v18.18h-18.18zm18.18 0h18.18v18.18h-18.18zm36.37 0h18.18v18.18h-18.18zm18.18 0h18.18v18.18h-18.18zM72.73 454.55h18.18v18.18H72.73zm36.36 0h18.18v18.18h-18.18z" style="fill:#0c322c;shape-rendering:crispEdges"/><path d="M127.27 454.55h18.18v18.18h-18.18zm18.18 0h18.18v18.18h-18.18zm36.37 0H200v18.18h-18.18zm54.54 0h18.18v18.18h-18.18zm18.19 0h18.18v18.18h-18.18zm18.18 0h18.18v18.18h-18.18zm54.54 0h18.18v18.18h-18.18zm18.18 0h18.18v18.18h-18.18zm127.28 0h18.18v18.18h-18.18zm36.36 0h18.18v18.18h-18.18zM72.73 472.73h18.18v18.18H72.73zm36.36 0h18.18v18.18h-18.18z" style="fill:#0c322c;shape-rendering:crispEdges"/><path d="M127.27 472.73h18.18v18.18h-18.18zm18.18 0h18.18v18.18h-18.18zm36.37 0H200v18.18h-18.18zm36.36 0h18.18v18.18h-18.18zm18.18 0h18.18v18.18h-18.18zm36.37 0h18.18v18.18h-18.18zm54.54 0h18.18v18.18h-18.18zm18.18 0h18.18v18.18h-18.18zm18.19 0h18.18v18.18h-18.18zm18.18 0H400v18.18h-18.18zm90.91 0h18.18v18.18h-18.18zm18.18 0h18.18v18.18h-18.18zM72.73 490.91h18.18v18.18H72.73zm109.09 0H200v18.18h-18.18zm36.36 0h18.18v18.18h-18.18zm18.18 0h18.18v18.18h-18.18zm36.37 0h18.18v18.18h-18.18zm36.36 0h18.18v18.18h-18.18zm18.18 0h18.18v18.18h-18.18zm36.37 0h18.18v18.18h-18.18zm18.18 0H400v18.18h-18.18zm54.54 0h18.18v18.18h-18.18zm18.19 0h18.18v18.18h-18.18zm18.18 0h18.18v18.18h-18.18zm18.18 0h18.18v18.18h-18.18z" style="fill:#0c322c;shape-rendering:crispEdges"/><path d="M72.73 509.09h18.18v18.18H72.73zm18.18 0h18.18v18.18H90.91zm18.18 0h18.18v18.18h-18.18z" style="fill:#0c322c;shape-rendering:crispEdges"/><path d="M127.27 509.09h18.18v18.18h-18.18zm18.18 0h18.18v18.18h-18.18zm18.19 0h18.18v18.18h-18.18zm18.18 0H200v18.18h-18.18zm36.36 0h18.18v18.18h-18.18zm36.37 0h18.18v18.18h-18.18zm18.18 0h18.18v18.18h-18.18zm18.18 0h18.18v18.18h-18.18zm36.36 0h18.18v18.18h-18.18zm18.18 0h18.18v18.18h-18.18zm54.55 0h18.18v18.18H400zm18.18 0h18.18v18.18h-18.18zm18.18 0h18.18v18.18h-18.18zm18.19 0h18.18v18.18h-18.18zm18.18 0h18.18v18.18h-18.18zm18.18 0h18.18v18.18h-18.18z" style="fill:#0c322c;shape-rendering:crispEdges"/><path d="M509.09 509.09h18.18v18.18h-18.18z" style="fill:#0c322c;shape-rendering:crispEdges"/></svg>