<svg xmlns="http://www.w3.org/2000/svg" width="600" height="600" viewBox="0 0 600 600"><path d="M0 0h600v600H0z" style="fill:#90ebcd;shape-rendering:crispEdges"/><path d="M97.3 97.3h16.22v16.22H97.3z" style="fill:#0c322c;shape-rendering:crispEdges"/><path d="M113.51 97.3h16.22v16.22h-16.22z" style="fill:#0c322c;shape-rendering:crispEdges"/><path d="M129.73 97.3h16.22v16.22h-16.22zm16.22 0h16.22v16.22h-16.22z" style="fill:#0c322c;shape-rendering:crispEdges"/><path d="M162.16 97.3h16.22v16.22h-16.22zm16.22 0h16.22v16.22h-16.22z" style="fill:#0c322c;shape-rendering:crispEdges"/><path d="M194.59 97.3h16.22v16.22h-16.22zm32.44 0h16.22v16.22h-16.22z" style="fill:#0c322c;shape-rendering:crispEdges"/><path d="M243.24 97.3h16.22v16.22h-16.22zm48.65 0h16.22v16.22h-16.22zm16.22 0h16.22v16.22h-16.22z" style="fill:#0c322c;shape-rendering:crispEdges"/><path d="M324.32 97.3h16.22v16.22h-16.22zm16.22 0h16.22v16.22h-16.22zm16.22 0h16.22v16.22h-16.22zm32.43 0h16.22v16.22h-16.22zm16.22 0h16.22v16.22h-16.22z" style="fill:#0c322c;shape-rendering:crispEdges"/><path d="M421.62 97.3h16.22v16.22h-16.22z" style="fill:#0c322c;shape-rendering:crispEdges"/><path d="M437.84 97.3h16.22v16.22h-16.22z" style="fill:#0c322c;shape-rendering:crispEdges"/><path d="M454.05 97.3h16.22v16.22h-16.22zm16.22 0h16.22v16.22h-16.22zm16.22 0h16.22v16.22h-16.22zM97.3 113.51h16.22v16.22H97.3zm97.29 0h16.22v16.22h-16.22zm64.87 0h16.22v16.22h-16.22zm16.22 0h16.22v16.22h-16.22z" style="fill:#0c322c;shape-rendering:crispEdges"/><path d="M291.89 113.51h16.22v16.22h-16.22zm16.22 0h16.22v16.22h-16.22z" style="fill:#0c322c;shape-rendering:crispEdges"/><path d="M324.32 113.51h16.22v16.22h-16.22zm64.87 0h16.22v16.22h-16.22zm97.3 0h16.22v16.22h-16.22zM97.3 129.73h16.22v16.22H97.3zm32.43 0h16.22v16.22h-16.22zm16.22 0h16.22v16.22h-16.22z" style="fill:#0c322c;shape-rendering:crispEdges"/><path d="M162.16 129.73h16.22v16.22h-16.22zm32.43 0h16.22v16.22h-16.22zm64.87 0h16.22v16.22h-16.22zm16.22 0h16.22v16.22h-16.22z" style="fill:#0c322c;shape-rendering:crispEdges"/><path d="M291.89 129.73h16.22v16.22h-16.22zm16.22 0h16.22v16.22h-16.22zm48.65 0h16.22v16.22h-16.22zm32.43 0h16.22v16.22h-16.22zm32.43 0h16.22v16.22h-16.22z" style="fill:#0c322c;shape-rendering:crispEdges"/><path d="M437.84 129.73h16.22v16.22h-16.22z" style="fill:#0c322c;shape-rendering:crispEdges"/><path d="M454.05 129.73h16.22v16.22h-16.22zm32.44 0h16.22v16.22h-16.22zM97.3 145.95h16.22v16.22H97.3zm32.43 0h16.22v16.22h-16.22zm16.22 0h16.22v16.22h-16.22z" style="fill:#0c322c;shape-rendering:crispEdges"/><path d="M162.16 145.95h16.22v16.22h-16.22zm32.43 0h16.22v16.22h-16.22zm32.44 0h16.22v16.22h-16.22z" style="fill:#0c322c;shape-rendering:crispEdges"/><path d="M243.24 145.95h16.22v16.22h-16.22z" style="fill:#0c322c;shape-rendering:crispEdges"/><path d="M259.46 145.95h16.22v16.22h-16.22zm32.43 0h16.22v16.22h-16.22zm64.87 0h16.22v16.22h-16.22zm32.43 0h16.22v16.22h-16.22zm32.43 0h16.22v16.22h-16.22z" style="fill:#0c322c;shape-rendering:crispEdges"/><path d="M437.84 145.95h16.22v16.22h-16.22z" style="fill:#0c322c;shape-rendering:crispEdges"/><path d="M454.05 145.95h16.22v16.22h-16.22zm32.44 0h16.22v16.22h-16.22zM97.3 162.16h16.22v16.22H97.3zm32.43 0h16.22v16.22h-16.22zm16.22 0h16.22v16.22h-16.22z" style="fill:#0c322c;shape-rendering:crispEdges"/><path d="M162.16 162.16h16.22v16.22h-16.22zm32.43 0h16.22v16.22h-16.22zm32.44 0h16.22v16.22h-16.22zm48.65 0h16.22v16.22h-16.22zm48.64 0h16.22v16.22h-16.22zm32.44 0h16.22v16.22h-16.22zm32.43 0h16.22v16.22h-16.22zm32.43 0h16.22v16.22h-16.22z" style="fill:#0c322c;shape-rendering:crispEdges"/><path d="M437.84 162.16h16.22v16.22h-16.22z" style="fill:#0c322c;shape-rendering:crispEdges"/><path d="M454.05 162.16h16.22v16.22h-16.22zm32.44 0h16.22v16.22h-16.22zM97.3 178.38h16.22v16.22H97.3zm97.29 0h16.22v16.22h-16.22zm32.44 0h16.22v16.22h-16.22z" style="fill:#0c322c;shape-rendering:crispEdges"/><path d="M243.24 178.38h16.22v16.22h-16.22z" style="fill:#0c322c;shape-rendering:crispEdges"/><path d="M259.46 178.38h16.22v16.22h-16.22zm32.43 0h16.22v16.22h-16.22zm48.65 0h16.22v16.22h-16.22zm48.65 0h16.22v16.22h-16.22zm97.3 0h16.22v16.22h-16.22zM97.3 194.59h16.22v16.22H97.3z" style="fill:#0c322c;shape-rendering:crispEdges"/><path d="M113.51 194.59h16.22v16.22h-16.22z" style="fill:#0c322c;shape-rendering:crispEdges"/><path d="M129.73 194.59h16.22v16.22h-16.22zm16.22 0h16.22v16.22h-16.22z" style="fill:#0c322c;shape-rendering:crispEdges"/><path d="M162.16 194.59h16.22v16.22h-16.22zm16.22 0h16.22v16.22h-16.22z" style="fill:#0c322c;shape-rendering:crispEdges"/><path d="M194.59 194.59h16.22v16.22h-16.22zm32.44 0h16.22v16.22h-16.22zm32.43 0h16.22v16.22h-16.22zm32.43 0h16.22v16.22h-16.22zm32.43 0h16.22v16.22h-16.22zm32.44 0h16.22v16.22h-16.22zm32.43 0h16.22v16.22h-16.22zm16.22 0h16.22v16.22h-16.22z" style="fill:#0c322c;shape-rendering:crispEdges"/><path d="M421.62 194.59h16.22v16.22h-16.22z" style="fill:#0c322c;shape-rendering:crispEdges"/><path d="M437.84 194.59h16.22v16.22h-16.22z" style="fill:#0c322c;shape-rendering:crispEdges"/><path d="M454.05 194.59h16.22v16.22h-16.22zm16.22 0h16.22v16.22h-16.22zm16.22 0h16.22v16.22h-16.22zm-259.46 16.22h16.22v16.22h-16.22z" style="fill:#0c322c;shape-rendering:crispEdges"/><path d="M243.24 210.81h16.22v16.22h-16.22z" style="fill:#0c322c;shape-rendering:crispEdges"/><path d="M259.46 210.81h16.22v16.22h-16.22zm32.43 0h16.22v16.22h-16.22zm32.43 0h16.22v16.22h-16.22zm16.22 0h16.22v16.22h-16.22zm16.22 0h16.22v16.22h-16.22zM97.3 227.03h16.22v16.22H97.3z" style="fill:#0c322c;shape-rendering:crispEdges"/><path d="M113.51 227.03h16.22v16.22h-16.22z" style="fill:#0c322c;shape-rendering:crispEdges"/><path d="M129.73 227.03h16.22v16.22h-16.22zm32.43 0h16.22v16.22h-16.22zm32.43 0h16.22v16.22h-16.22zm32.44 0h16.22v16.22h-16.22zm48.65 0h16.22v16.22h-16.22z" style="fill:#0c322c;shape-rendering:crispEdges"/><path d="M291.89 227.03h16.22v16.22h-16.22zm16.22 0h16.22v16.22h-16.22zm32.43 0h16.22v16.22h-16.22zm32.43 0h16.22v16.22h-16.22z" style="fill:#0c322c;shape-rendering:crispEdges"/><path d="M389.19 227.03h16.22v16.22h-16.22zm16.22 0h16.22v16.22h-16.22z" style="fill:#0c322c;shape-rendering:crispEdges"/><path d="M421.62 227.03h16.22v16.22h-16.22z" style="fill:#0c322c;shape-rendering:crispEdges"/><path d="M437.84 227.03h16.22v16.22h-16.22zm48.65 0h16.22v16.22h-16.22zm-356.76 16.21h16.22v16.22h-16.22zm16.22 0h16.22v16.22h-16.22z" style="fill:#0c322c;shape-rendering:crispEdges"/><path d="M162.16 243.24h16.22v16.22h-16.22zm16.22 0h16.22v16.22h-16.22zm32.43 0h16.22v16.22h-16.22zm48.65 0h16.22v16.22h-16.22zm16.22 0h16.22v16.22h-16.22zm48.64 0h16.22v16.22h-16.22zm16.22 0h16.22v16.22h-16.22zm16.22 0h16.22v16.22h-16.22zm48.65 0h16.22v16.22h-16.22zm48.64 0h16.22v16.22h-16.22zm32.44 0h16.22v16.22h-16.22zM97.3 259.46h16.22v16.22H97.3z" style="fill:#0c322c;shape-rendering:crispEdges"/><path d="M194.59 259.46h16.22v16.22h-16.22zm32.44 0h16.22v16.22h-16.22z" style="fill:#0c322c;shape-rendering:crispEdges"/><path d="M243.24 259.46h16.22v16.22h-16.22z" style="fill:#0c322c;shape-rendering:crispEdges"/><path d="M259.46 259.46h16.22v16.22h-16.22zm48.65 0h16.22v16.22h-16.22z" style="fill:#0c322c;shape-rendering:crispEdges"/><path d="M324.32 259.46h16.22v16.22h-16.22zm16.22 0h16.22v16.22h-16.22zm16.22 0h16.22v16.22h-16.22z" style="fill:#0c322c;shape-rendering:crispEdges"/><path d="M372.97 259.46h16.22v16.22h-16.22zm48.65 0h16.22v16.22h-16.22zm48.65 0h16.22v16.22h-16.22zm16.22 0h16.22v16.22h-16.22zm-356.76 16.22h16.22v16.22h-16.22zm32.43 0h16.22v16.22h-16.22zm64.87 0h16.22v16.22h-16.22z" style="fill:#0c322c;shape-rendering:crispEdges"/><path d="M243.24 275.68h16.22v16.22h-16.22z" style="fill:#0c322c;shape-rendering:crispEdges"/><path d="M259.46 275.68h16.22v16.22h-16.22zm32.43 0h16.22v16.22h-16.22zm32.43 0h16.22v16.22h-16.22zm16.22 0h16.22v16.22h-16.22zm32.43 0h16.22v16.22h-16.22zm16.22 0h16.22v16.22h-16.22zM97.3 291.89h16.22v16.22H97.3zm32.43 0h16.22v16.22h-16.22zm32.43 0h16.22v16.22h-16.22zm16.22 0h16.22v16.22h-16.22z" style="fill:#0c322c;shape-rendering:crispEdges"/><path d="M194.59 291.89h16.22v16.22h-16.22zm48.65 0h16.22v16.22h-16.22z" style="fill:#0c322c;shape-rendering:crispEdges"/><path d="M259.46 291.89h16.22v16.22h-16.22zm32.43 0h16.22v16.22h-16.22zm32.43 0h16.22v16.22h-16.22zm48.65 0h16.22v16.22h-16.22zm32.44 0h16.22v16.22h-16.22z" style="fill:#0c322c;shape-rendering:crispEdges"/><path d="M421.62 291.89h16.22v16.22h-16.22zm32.43 0h16.22v16.22h-16.22zm32.44 0h16.22v16.22h-16.22zM97.3 308.11h16.22v16.22H97.3z" style="fill:#0c322c;shape-rendering:crispEdges"/><path d="M113.51 308.11h16.22v16.22h-16.22z" style="fill:#0c322c;shape-rendering:crispEdges"/><path d="M129.73 308.11h16.22v16.22h-16.22zm16.22 0h16.22v16.22h-16.22zm32.43 0h16.22v16.22h-16.22zm32.43 0h16.22v16.22h-16.22zm32.43 0h16.22v16.22h-16.22z" style="fill:#0c322c;shape-rendering:crispEdges"/><path d="M259.46 308.11h16.22v16.22h-16.22zm48.65 0h16.22v16.22h-16.22zm48.65 0h16.22v16.22h-16.22z" style="fill:#0c322c;shape-rendering:crispEdges"/><path d="M372.97 308.11h16.22v16.22h-16.22zm32.44 0h16.22v16.22h-16.22zm32.43 0h16.22v16.22h-16.22zm48.65 0h16.22v16.22h-16.22zM97.3 324.32h16.22v16.22H97.3zm32.43 0h16.22v16.22h-16.22zm64.86 0h16.22v16.22h-16.22zm16.22 0h16.22v16.22h-16.22zm32.43 0h16.22v16.22h-16.22zm64.87 0h16.22v16.22h-16.22z" style="fill:#0c322c;shape-rendering:crispEdges"/><path d="M421.62 324.32h16.22v16.22h-16.22z" style="fill:#0c322c;shape-rendering:crispEdges"/><path d="M437.84 324.32h16.22v16.22h-16.22zm32.43 0h16.22v16.22h-16.22zm16.22 0h16.22v16.22h-16.22zm-356.76 16.22h16.22v16.22h-16.22zm16.22 0h16.22v16.22h-16.22zm64.86 0h16.22v16.22h-16.22zm16.22 0h16.22v16.22h-16.22z" style="fill:#0c322c;shape-rendering:crispEdges"/><path d="M243.24 340.54h16.22v16.22h-16.22z" style="fill:#0c322c;shape-rendering:crispEdges"/><path d="M259.46 340.54h16.22v16.22h-16.22zm16.22 0h16.22v16.22h-16.22zm32.43 0h16.22v16.22h-16.22z" style="fill:#0c322c;shape-rendering:crispEdges"/><path d="M324.32 340.54h16.22v16.22h-16.22zm32.44 0h16.22v16.22h-16.22zm48.65 0h16.22v16.22h-16.22z" style="fill:#0c322c;shape-rendering:crispEdges"/><path d="M421.62 340.54h16.22v16.22h-16.22zm32.43 0h16.22v16.22h-16.22zm16.22 0h16.22v16.22h-16.22zm-340.54 16.22h16.22v16.22h-16.22zm16.22 0h16.22v16.22h-16.22z" style="fill:#0c322c;shape-rendering:crispEdges"/><path d="M162.16 356.76h16.22v16.22h-16.22zm32.43 0h16.22v16.22h-16.22zm32.44 0h16.22v16.22h-16.22zm64.86 0h16.22v16.22h-16.22zm16.22 0h16.22v16.22h-16.22zm32.43 0h16.22v16.22h-16.22zm16.22 0h16.22v16.22h-16.22z" style="fill:#0c322c;shape-rendering:crispEdges"/><path d="M372.97 356.76h16.22v16.22h-16.22z" style="fill:#0c322c;shape-rendering:crispEdges"/><path d="M389.19 356.76h16.22v16.22h-16.22zm16.22 0h16.22v16.22h-16.22z" style="fill:#0c322c;shape-rendering:crispEdges"/><path d="M421.62 356.76h16.22v16.22h-16.22zm64.87 0h16.22v16.22h-16.22zm-259.46 16.21h16.22v16.22h-16.22z" style="fill:#0c322c;shape-rendering:crispEdges"/><path d="M243.24 372.97h16.22v16.22h-16.22zm64.87 0h16.22v16.22h-16.22z" style="fill:#0c322c;shape-rendering:crispEdges"/><path d="M324.32 372.97h16.22v16.22h-16.22zm16.22 0h16.22v16.22h-16.22zm16.22 0h16.22v16.22h-16.22zm64.86 0h16.22v16.22h-16.22zm32.43 0h16.22v16.22h-16.22zm32.44 0h16.22v16.22h-16.22zM97.3 389.19h16.22v16.22H97.3z" style="fill:#0c322c;shape-rendering:crispEdges"/><path d="M113.51 389.19h16.22v16.22h-16.22z" style="fill:#0c322c;shape-rendering:crispEdges"/><path d="M129.73 389.19h16.22v16.22h-16.22zm16.22 0h16.22v16.22h-16.22z" style="fill:#0c322c;shape-rendering:crispEdges"/><path d="M162.16 389.19h16.22v16.22h-16.22zm16.22 0h16.22v16.22h-16.22z" style="fill:#0c322c;shape-rendering:crispEdges"/><path d="M194.59 389.19h16.22v16.22h-16.22zm64.87 0h16.22v16.22h-16.22zm32.43 0h16.22v16.22h-16.22zm32.43 0h16.22v16.22h-16.22zm32.44 0h16.22v16.22h-16.22zm32.43 0h16.22v16.22h-16.22zm32.43 0h16.22v16.22h-16.22z" style="fill:#0c322c;shape-rendering:crispEdges"/><path d="M437.84 389.19h16.22v16.22h-16.22zM97.3 405.41h16.22v16.22H97.3zm97.29 0h16.22v16.22h-16.22zm48.65 0h16.22v16.22h-16.22z" style="fill:#0c322c;shape-rendering:crispEdges"/><path d="M259.46 405.41h16.22v16.22h-16.22zm16.22 0h16.22v16.22h-16.22zm64.86 0h16.22v16.22h-16.22zm16.22 0h16.22v16.22h-16.22zm64.86 0h16.22v16.22h-16.22zm48.65 0h16.22v16.22h-16.22zM97.3 421.62h16.22v16.22H97.3zm32.43 0h16.22v16.22h-16.22zm16.22 0h16.22v16.22h-16.22z" style="fill:#0c322c;shape-rendering:crispEdges"/><path d="M162.16 421.62h16.22v16.22h-16.22zm32.43 0h16.22v16.22h-16.22zm32.44 0h16.22v16.22h-16.22z" style="fill:#0c322c;shape-rendering:crispEdges"/><path d="M243.24 421.62h16.22v16.22h-16.22zm64.87 0h16.22v16.22h-16.22z" style="fill:#0c322c;shape-rendering:crispEdges"/><path d="M324.32 421.62h16.22v16.22h-16.22zm32.44 0h16.22v16.22h-16.22z" style="fill:#0c322c;shape-rendering:crispEdges"/><path d="M372.97 421.62h16.22v16.22h-16.22z" style="fill:#0c322c;shape-rendering:crispEdges"/><path d="M389.19 421.62h16.22v16.22h-16.22zm16.22 0h16.22v16.22h-16.22z" style="fill:#0c322c;shape-rendering:crispEdges"/><path d="M421.62 421.62h16.22v16.22h-16.22zm32.43 0h16.22v16.22h-16.22zm16.22 0h16.22v16.22h-16.22zM97.3 437.84h16.22v16.22H97.3zm32.43 0h16.22v16.22h-16.22zm16.22 0h16.22v16.22h-16.22z" style="fill:#0c322c;shape-rendering:crispEdges"/><path d="M162.16 437.84h16.22v16.22h-16.22zm32.43 0h16.22v16.22h-16.22zm48.65 0h16.22v16.22h-16.22z" style="fill:#0c322c;shape-rendering:crispEdges"/><path d="M259.46 437.84h16.22v16.22h-16.22zm16.22 0h16.22v16.22h-16.22zm48.64 0h16.22v16.22h-16.22zm16.22 0h16.22v16.22h-16.22zm113.51 0h16.22v16.22h-16.22zm32.44 0h16.22v16.22h-16.22zM97.3 454.05h16.22v16.22H97.3zm32.43 0h16.22v16.22h-16.22zm16.22 0h16.22v16.22h-16.22z" style="fill:#0c322c;shape-rendering:crispEdges"/><path d="M162.16 454.05h16.22v16.22h-16.22zm32.43 0h16.22v16.22h-16.22zm32.44 0h16.22v16.22h-16.22z" style="fill:#0c322c;shape-rendering:crispEdges"/><path d="M243.24 454.05h16.22v16.22h-16.22zm32.44 0h16.22v16.22h-16.22zm48.64 0h16.22v16.22h-16.22zm16.22 0h16.22v16.22h-16.22zm16.22 0h16.22v16.22h-16.22z" style="fill:#0c322c;shape-rendering:crispEdges"/><path d="M372.97 454.05h16.22v16.22h-16.22zm81.08 0h16.22v16.22h-16.22zm16.22 0h16.22v16.22h-16.22zM97.3 470.27h16.22v16.22H97.3zm97.29 0h16.22v16.22h-16.22zm32.44 0h16.22v16.22h-16.22z" style="fill:#0c322c;shape-rendering:crispEdges"/><path d="M243.24 470.27h16.22v16.22h-16.22zm32.44 0h16.22v16.22h-16.22zm32.43 0h16.22v16.22h-16.22z" style="fill:#0c322c;shape-rendering:crispEdges"/><path d="M324.32 470.27h16.22v16.22h-16.22zm32.44 0h16.22v16.22h-16.22z" style="fill:#0c322c;shape-rendering:crispEdges"/><path d="M372.97 470.27h16.22v16.22h-16.22zm32.44 0h16.22v16.22h-16.22z" style="fill:#0c322c;shape-rendering:crispEdges"/><path d="M421.62 470.27h16.22v16.22h-16.22z" style="fill:#0c322c;shape-rendering:crispEdges"/><path d="M437.84 470.27h16.22v16.22h-16.22z" style="fill:#0c322c;shape-rendering:crispEdges"/><path d="M454.05 470.27h16.22v16.22h-16.22zm16.22 0h16.22v16.22h-16.22zM97.3 486.49h16.22v16.22H97.3z" style="fill:#0c322c;shape-rendering:crispEdges"/><path d="M113.51 486.49h16.22v16.22h-16.22z" style="fill:#0c322c;shape-rendering:crispEdges"/><path d="M129.73 486.49h16.22v16.22h-16.22zm16.22 0h16.22v16.22h-16.22z" style="fill:#0c322c;shape-rendering:crispEdges"/><path d="M162.16 486.49h16.22v16.22h-16.22zm16.22 0h16.22v16.22h-16.22z" style="fill:#0c322c;shape-rendering:crispEdges"/><path d="M194.59 486.49h16.22v16.22h-16.22zm32.44 0h16.22v16.22h-16.22zm32.43 0h16.22v16.22h-16.22zm16.22 0h16.22v16.22h-16.22z" style="fill:#0c322c;shape-rendering:crispEdges"/><path d="M291.89 486.49h16.22v16.22h-16.22zm32.43 0h16.22v16.22h-16.22zm16.22 0h16.22v16.22h-16.22zm48.65 0h16.22v16.22h-16.22zm32.43 0h16.22v16.22h-16.22zm16.22 0h16.22v16.22h-16.22z" style="fill:#0c322c;shape-rendering:crispEdges"/><path d="M454.05 486.49h16.22v16.22h-16.22zm16.22 0h16.22v16.22h-16.22zm16.22 0h16.22v16.22h-16.22z" style="fill:#0c322c;shape-rendering:crispEdges"/></svg>