<svg xmlns="http://www.w3.org/2000/svg" width="600" height="600" viewBox="0 0 600 600"><path d="M0 0h600v600H0z" style="fill:#fff;shape-rendering:crispEdges"/><path d="M58.54 58.54v14.63h14.63V58.54zm14.63 0v14.63H87.8V58.54zm14.63 0v14.63h14.64V58.54zm14.64 0v14.63h14.63V58.54zm14.63 0v14.63h14.64V58.54zm14.64 0v14.63h14.63V58.54zm14.63 0v14.63h14.64V58.54zm73.17 0v14.63h14.64V58.54zm14.64 0v14.63h14.63V58.54zm29.26 0v14.63h14.64V58.54zm58.54 0v14.63h14.64V58.54zm29.27 0v14.63h14.63V58.54zm14.63 0v14.63h14.64V58.54zm14.64 0v14.63h14.63V58.54zm14.63 0v14.63h14.64V58.54zm14.64 0v14.63h14.63V58.54zm29.26 0v14.63h14.64V58.54zm14.64 0v14.63h14.63V58.54zm14.63 0v14.63h14.64V58.54zm14.64 0v14.63h14.63V58.54zm14.63 0v14.63h14.64V58.54zm14.64 0v14.63h14.63V58.54zm14.63 0v14.63h14.63V58.54zM58.54 73.17V87.8h14.63V73.17zm87.8 0V87.8h14.64V73.17zm29.27 0V87.8h14.63V73.17zm29.27 0V87.8h14.63V73.17zm14.63 0V87.8h14.64V73.17zm29.27 0V87.8h14.63V73.17zm14.63 0V87.8h14.64V73.17zm14.64 0V87.8h14.63V73.17zm73.17 0V87.8h14.63V73.17zm58.54 0V87.8h14.63V73.17zm29.26 0V87.8h14.64V73.17zm87.81 0V87.8h14.63V73.17zM58.54 87.8v14.64h14.63V87.8zm29.26 0v14.64h14.64V87.8zm14.64 0v14.64h14.63V87.8zm14.63 0v14.64h14.64V87.8zm29.27 0v14.64h14.64V87.8zm87.81 0v14.64h14.63V87.8zm14.63 0v14.64h14.63V87.8zm29.27 0v14.64h14.63V87.8zm43.9 0v14.64h14.64V87.8zm14.64 0v14.64h14.63V87.8zm14.63 0v14.64h14.63V87.8zm29.27 0v14.64h14.63V87.8zm58.53 0v14.64h14.64V87.8zm29.27 0v14.64h14.64V87.8zm14.64 0v14.64h14.63V87.8zm14.63 0v14.64h14.64V87.8zm29.27 0v14.64h14.63V87.8zM58.54 102.44v14.63h14.63v-14.63zm29.26 0v14.63h14.64v-14.63zm14.64 0v14.63h14.63v-14.63zm14.63 0v14.63h14.64v-14.63zm29.27 0v14.63h14.64v-14.63zm29.27 0v14.63h14.63v-14.63zm29.27 0v14.63h14.63v-14.63zm29.27 0v14.63h14.63v-14.63zm14.63 0v14.63h14.63v-14.63zm14.63 0v14.63h14.64v-14.63zm58.54 0v14.63h14.64v-14.63zm14.64 0v14.63h14.63v-14.63zm14.63 0v14.63h14.63v-14.63zm14.63 0v14.63h14.64v-14.63zm73.17 0v14.63h14.64v-14.63zm29.27 0v14.63h14.64v-14.63zm14.64 0v14.63h14.63v-14.63zm14.63 0v14.63h14.64v-14.63zm29.27 0v14.63h14.63v-14.63zM58.54 117.07v14.64h14.63v-14.64zm29.26 0v14.64h14.64v-14.64zm14.64 0v14.64h14.63v-14.64zm14.63 0v14.64h14.64v-14.64zm29.27 0v14.64h14.64v-14.64zm29.27 0v14.64h14.63v-14.64zm160.98 0v14.64h14.63v-14.64zm14.63 0v14.64h14.63v-14.64zm43.9 0v14.64h14.64v-14.64zm14.64 0v14.64h14.63v-14.64zm29.26 0v14.64h14.64v-14.64zm29.27 0v14.64h14.64v-14.64zm14.64 0v14.64h14.63v-14.64zm14.63 0v14.64h14.64v-14.64zm29.27 0v14.64h14.63v-14.64zM58.54 131.71v14.63h14.63v-14.63zm87.8 0v14.63h14.64v-14.63zm29.27 0v14.63h14.63v-14.63zm14.63 0v14.63h14.64v-14.63zm73.17 0v14.63h14.64v-14.63zm29.27 0v14.63h14.64v-14.63zm14.64 0v14.63h14.63v-14.63zm43.9 0v14.63h14.63v-14.63zm29.27 0v14.63h14.63v-14.63zm14.63 0v14.63h14.64v-14.63zm14.64 0v14.63h14.63v-14.63zm29.26 0v14.63h14.64v-14.63zm87.81 0v14.63h14.63v-14.63zM58.54 146.34v14.64h14.63v-14.64zm14.63 0v14.64H87.8v-14.64zm14.63 0v14.64h14.64v-14.64zm14.64 0v14.64h14.63v-14.64zm14.63 0v14.64h14.64v-14.64zm14.64 0v14.64h14.63v-14.64zm14.63 0v14.64h14.64v-14.64zm29.27 0v14.64h14.63v-14.64zm29.27 0v14.64h14.63v-14.64zm29.27 0v14.64h14.63v-14.64zm29.26 0v14.64h14.64v-14.64zm29.27 0v14.64h14.64v-14.64zm29.27 0v14.64h14.64v-14.64zm29.27 0v14.64h14.63v-14.64zm29.27 0v14.64h14.63v-14.64zm29.27 0v14.64h14.63v-14.64zm29.26 0v14.64h14.64v-14.64zm14.64 0v14.64h14.63v-14.64zm14.63 0v14.64h14.64v-14.64zm14.64 0v14.64h14.63v-14.64zm14.63 0v14.64h14.64v-14.64zm14.64 0v14.64h14.63v-14.64zm14.63 0v14.64h14.63v-14.64zm-307.32 14.64v14.63h14.64v-14.63zm29.27 0v14.63h14.63v-14.63zm29.27 0v14.63h14.63v-14.63zm58.54 0v14.63h14.63v-14.63zm29.26 0v14.63h14.64v-14.63zm29.27 0v14.63h14.64v-14.63zM73.17 175.61v14.63H87.8v-14.63zm29.27 0v14.63h14.63v-14.63zm14.63 0v14.63h14.64v-14.63zm29.27 0v14.63h14.64v-14.63zm14.64 0v14.63h14.63v-14.63zm14.63 0v14.63h14.63v-14.63zm58.54 0v14.63h14.63v-14.63zm43.9 0v14.63h14.63v-14.63zm14.63 0v14.63h14.64v-14.63zm14.64 0v14.63h14.63v-14.63zm14.63 0v14.63h14.64v-14.63zm29.27 0v14.63h14.63v-14.63zm14.63 0v14.63h14.64v-14.63zm14.64 0v14.63h14.63v-14.63zm14.63 0v14.63h14.64v-14.63zm29.27 0v14.63h14.63v-14.63zm29.27 0v14.63h14.63v-14.63zm14.63 0v14.63h14.64v-14.63zm14.64 0v14.63h14.63v-14.63zm29.27 0v14.63h14.63v-14.63zM73.17 190.24v14.64H87.8v-14.64zm14.63 0v14.64h14.64v-14.64zm14.64 0v14.64h14.63v-14.64zm14.63 0v14.64h14.64v-14.64zm43.91 0v14.64h14.63v-14.64zm14.63 0v14.64h14.63v-14.64zm14.63 0v14.64h14.64v-14.64zm14.64 0v14.64h14.63v-14.64zm14.63 0v14.64h14.64v-14.64zm58.54 0v14.64h14.63v-14.64zm14.63 0v14.64h14.64v-14.64zm58.54 0v14.64h14.63v-14.64zm58.54 0v14.64h14.63v-14.64zm43.9 0v14.64h14.63v-14.64zm14.63 0v14.64h14.64v-14.64zm29.27 0v14.64h14.64v-14.64zm14.64 0v14.64h14.63v-14.64zm14.63 0v14.64h14.63v-14.64zM58.54 204.88v14.63h14.63v-14.63zm14.63 0v14.63H87.8v-14.63zm14.63 0v14.63h14.64v-14.63zm43.91 0v14.63h14.63v-14.63zm14.63 0v14.63h14.64v-14.63zm29.27 0v14.63h14.63v-14.63zm14.63 0v14.63h14.64v-14.63zm29.27 0v14.63h14.64v-14.63zm14.64 0v14.63h14.63v-14.63zm29.26 0v14.63h14.64v-14.63zm58.54 0v14.63h14.64v-14.63zm29.27 0v14.63h14.63v-14.63zm14.63 0v14.63h14.64v-14.63zm29.27 0v14.63h14.64v-14.63zm29.27 0v14.63h14.63v-14.63zm14.63 0v14.63h14.64v-14.63zm14.64 0v14.63h14.63v-14.63zm14.63 0v14.63h14.64v-14.63zm14.64 0v14.63h14.63v-14.63zM58.54 219.51v14.64h14.63v-14.64zm29.26 0v14.64h14.64v-14.64zm14.64 0v14.64h14.63v-14.64zm14.63 0v14.64h14.64v-14.64zm73.17 0v14.64h14.64v-14.64zm58.54 0v14.64h14.63v-14.64zm14.63 0v14.64h14.64v-14.64zm14.64 0v14.64h14.63v-14.64zm14.63 0v14.64h14.64v-14.64zm29.27 0v14.64h14.64v-14.64zm29.27 0v14.64h14.63v-14.64zm14.63 0v14.64h14.64v-14.64zm29.27 0v14.64h14.64v-14.64zm43.9 0v14.64h14.64v-14.64zm14.64 0v14.64h14.63v-14.64zm14.63 0v14.64h14.64v-14.64zm14.64 0v14.64h14.63v-14.64zm14.63 0v14.64h14.64v-14.64zm14.64 0v14.64h14.63v-14.64zm14.63 0v14.64h14.63v-14.64zM73.17 234.15v14.63H87.8v-14.63zm14.63 0v14.63h14.64v-14.63zm58.54 0v14.63h14.64v-14.63zm14.64 0v14.63h14.63v-14.63zm29.26 0v14.63h14.64v-14.63zm29.27 0v14.63h14.64v-14.63zm29.27 0v14.63h14.63v-14.63zm58.54 0v14.63h14.63v-14.63zm58.53 0v14.63h14.64v-14.63zm14.64 0v14.63h14.63v-14.63zm14.63 0v14.63h14.64v-14.63zm73.17 0v14.63h14.64v-14.63zm14.64 0v14.63h14.63v-14.63zm43.9 0v14.63h14.63v-14.63zM58.54 248.78v14.63h14.63v-14.63zm14.63 0v14.63H87.8v-14.63zm87.81 0v14.63h14.63v-14.63zm14.63 0v14.63h14.63v-14.63zm29.27 0v14.63h14.63v-14.63zm14.63 0v14.63h14.64v-14.63zm14.64 0v14.63h14.63v-14.63zm14.63 0v14.63h14.63v-14.63zm43.9 0v14.63h14.64v-14.63zm29.27 0v14.63h14.64v-14.63zm14.64 0v14.63h14.63v-14.63zm14.63 0v14.63h14.63v-14.63zm14.63 0v14.63h14.64v-14.63zm29.27 0v14.63h14.64v-14.63zm14.64 0v14.63h14.63v-14.63zm14.63 0v14.63h14.63v-14.63zm14.63 0v14.63h14.64v-14.63zm14.64 0v14.63h14.63v-14.63zm43.9 0v14.63h14.64v-14.63zm29.27 0v14.63h14.63v-14.63zM58.54 263.41v14.64h14.63v-14.64zm14.63 0v14.64H87.8v-14.64zm14.63 0v14.64h14.64v-14.64zm43.91 0v14.64h14.63v-14.64zm14.63 0v14.64h14.64v-14.64zm29.27 0v14.64h14.63v-14.64zm14.63 0v14.64h14.64v-14.64zm58.54 0v14.64h14.63v-14.64zm29.27 0v14.64h14.63v-14.64zm29.27 0v14.64h14.63v-14.64zm29.27 0v14.64h14.63v-14.64zm14.63 0v14.64h14.63v-14.64zm58.54 0v14.64h14.63v-14.64zm14.63 0v14.64h14.63v-14.64zm14.63 0v14.64h14.64v-14.64zm43.91 0v14.64h14.63v-14.64zm-380.49 14.64v14.63h14.63v-14.63zm14.63 0v14.63h14.64v-14.63zm14.64 0v14.63h14.63v-14.63zm29.27 0v14.63h14.63v-14.63zm14.63 0v14.63h14.63v-14.63zm29.27 0v14.63h14.63v-14.63zm29.27 0v14.63h14.63v-14.63zm14.63 0v14.63h14.63v-14.63zm29.27 0v14.63h14.63v-14.63zm29.27 0v14.63h14.63v-14.63zm14.63 0v14.63h14.64v-14.63zm43.9 0v14.63h14.64v-14.63zm14.64 0v14.63h14.63v-14.63zm14.63 0v14.63h14.64v-14.63zm29.27 0v14.63h14.63v-14.63zm43.9 0v14.63h14.64v-14.63zm14.64 0v14.63h14.63v-14.63zm29.27 0v14.63h14.63v-14.63zm14.63 0v14.63h14.63v-14.63zM87.8 292.68v14.64h14.64v-14.64zm14.64 0v14.64h14.63v-14.64zm14.63 0v14.64h14.64v-14.64zm14.64 0v14.64h14.63v-14.64zm14.63 0v14.64h14.64v-14.64zm14.64 0v14.64h14.63v-14.64zm58.53 0v14.64h14.64v-14.64zm14.64 0v14.64h14.63v-14.64zm29.26 0v14.64h14.64v-14.64zm14.64 0v14.64h14.63v-14.64zm14.63 0v14.64h14.64v-14.64zm14.64 0v14.64h14.63v-14.64zm43.9 0v14.64h14.63v-14.64zm29.27 0v14.64h14.63v-14.64zm58.53 0v14.64h14.64v-14.64zm43.91 0v14.64h14.63v-14.64zm14.63 0v14.64h14.64v-14.64zM58.54 307.32v14.63h14.63v-14.63zm58.53 0v14.63h14.64v-14.63zm58.54 0v14.63h14.63v-14.63zm14.63 0v14.63h14.64v-14.63zm43.91 0v14.63h14.63v-14.63zm58.53 0v14.63h14.64v-14.63zm14.64 0v14.63h14.63v-14.63zm14.63 0v14.63h14.64v-14.63zm58.54 0v14.63h14.63v-14.63zm14.63 0v14.63h14.64v-14.63zm14.64 0v14.63h14.63v-14.63zm14.63 0v14.63h14.63v-14.63zm43.9 0v14.63h14.64v-14.63zm14.64 0v14.63h14.63v-14.63zm14.63 0v14.63h14.64v-14.63zM73.17 321.95v14.64H87.8v-14.64zm29.27 0v14.64h14.63v-14.64zm29.27 0v14.64h14.63v-14.64zm14.63 0v14.64h14.64v-14.64zm43.9 0v14.64h14.64v-14.64zm29.27 0v14.64h14.64v-14.64zm29.27 0v14.64h14.63v-14.64zm14.63 0v14.64h14.64v-14.64zm14.64 0v14.64h14.63v-14.64zm14.63 0v14.64h14.64v-14.64zm29.27 0v14.64h14.64v-14.64zm14.64 0v14.64h14.63v-14.64zm14.63 0v14.64h14.63v-14.64zm29.27 0v14.64h14.63v-14.64zm29.27 0v14.64h14.63v-14.64zm43.9 0v14.64h14.63v-14.64zm58.54 0v14.64h14.63v-14.64zM73.17 336.59v14.63H87.8v-14.63zm29.27 0v14.63h14.63v-14.63zm29.27 0v14.63h14.63v-14.63zm58.53 0v14.63h14.64v-14.63zm58.54 0v14.63h14.63v-14.63zm14.63 0v14.63h14.64v-14.63zm43.91 0v14.63h14.63v-14.63zm14.63 0v14.63h14.64v-14.63zm58.54 0v14.63h14.63v-14.63zm14.63 0v14.63h14.64v-14.63zm43.9 0v14.63h14.64v-14.63zm14.64 0v14.63h14.63v-14.63zm43.9 0v14.63h14.64v-14.63zm14.64 0v14.63h14.63v-14.63zm14.63 0v14.63h14.63v-14.63zM87.8 351.22v14.63h14.64v-14.63zm14.64 0v14.63h14.63v-14.63zm43.9 0v14.63h14.64v-14.63zm43.9 0v14.63h14.64v-14.63zm29.27 0v14.63h14.64v-14.63zm29.27 0v14.63h14.63v-14.63zm14.63 0v14.63h14.64v-14.63zm14.64 0v14.63h14.63v-14.63zm14.63 0v14.63h14.64v-14.63zm14.64 0v14.63h14.63v-14.63zm73.17 0v14.63h14.63v-14.63zm14.63 0v14.63h14.64v-14.63zm14.64 0v14.63h14.63v-14.63zm29.26 0v14.63h14.64v-14.63zm14.64 0v14.63h14.63v-14.63zm58.54 0v14.63h14.63v-14.63zM58.54 365.85v14.64h14.63v-14.64zm29.26 0v14.64h14.64v-14.64zm29.27 0v14.64h14.64v-14.64zm73.17 0v14.64h14.64v-14.64zm29.27 0v14.64h14.64v-14.64zm14.64 0v14.64h14.63v-14.64zm87.8 0v14.64h14.64v-14.64zm29.27 0v14.64h14.63v-14.64zm29.27 0v14.64h14.63v-14.64zm43.9 0v14.64h14.63v-14.64zm29.27 0v14.64h14.63v-14.64zm14.63 0v14.64h14.64v-14.64zm14.64 0v14.64h14.63v-14.64zm-380.49 14.64v14.63h14.63v-14.63zm14.63 0v14.63h14.64v-14.63zm29.27 0v14.63h14.64v-14.63zm14.64 0v14.63h14.63v-14.63zm43.9 0v14.63h14.63v-14.63zm14.63 0v14.63h14.64v-14.63zm43.9 0v14.63h14.64v-14.63zm29.27 0v14.63h14.64v-14.63zm14.64 0v14.63h14.63v-14.63zm14.63 0v14.63h14.64v-14.63zm14.64 0v14.63h14.63v-14.63zm14.63 0v14.63h14.63v-14.63zm29.27 0v14.63h14.63v-14.63zm29.27 0v14.63h14.63v-14.63zm43.9 0v14.63h14.63v-14.63zm14.63 0v14.63h14.64v-14.63zm14.64 0v14.63h14.63v-14.63zM87.8 395.12v14.64h14.64v-14.64zm29.27 0v14.64h14.64v-14.64zm43.91 0v14.64h14.63v-14.64zm14.63 0v14.64h14.63v-14.64zm14.63 0v14.64h14.64v-14.64zm14.64 0v14.64h14.63v-14.64zm87.8 0v14.64h14.64v-14.64zm29.27 0v14.64h14.64v-14.64zm14.64 0v14.64h14.63v-14.64zm87.8 0v14.64h14.63v-14.64zm14.63 0v14.64h14.64v-14.64zm14.64 0v14.64h14.63v-14.64zm14.63 0v14.64h14.64v-14.64zM87.8 409.76v14.63h14.64v-14.63zm14.64 0v14.63h14.63v-14.63zm29.27 0v14.63h14.63v-14.63zm14.63 0v14.63h14.64v-14.63zm58.54 0v14.63h14.63v-14.63zm43.9 0v14.63h14.63v-14.63zm29.27 0v14.63h14.63v-14.63zm14.63 0v14.63h14.64v-14.63zm14.64 0v14.63h14.63v-14.63zm43.9 0v14.63h14.63v-14.63zm29.27 0v14.63h14.63v-14.63zm29.27 0v14.63h14.63v-14.63zm14.63 0v14.63h14.63v-14.63zm14.63 0v14.63h14.64v-14.63zm14.64 0v14.63h14.63v-14.63zm14.63 0v14.63h14.64v-14.63zm29.27 0v14.63h14.64v-14.63zm14.64 0v14.63h14.63v-14.63zm14.63 0v14.63h14.63v-14.63zm-351.22 14.63v14.63h14.63v-14.63zm29.27 0v14.63h14.63v-14.63zm14.63 0v14.63h14.64v-14.63zm29.27 0v14.63h14.63v-14.63zm29.27 0v14.63h14.63v-14.63zm14.63 0v14.63h14.64v-14.63zm14.64 0v14.63h14.63v-14.63zm14.63 0v14.63h14.64v-14.63zm58.54 0v14.63h14.63v-14.63zm14.63 0v14.63h14.64v-14.63zm14.64 0v14.63h14.63v-14.63zm58.53 0v14.63h14.64v-14.63zm14.64 0v14.63h14.63v-14.63zm29.27 0v14.63h14.63v-14.63zM58.54 439.02v14.64h14.63v-14.64zm14.63 0v14.64H87.8v-14.64zm14.63 0v14.64h14.64v-14.64zm14.64 0v14.64h14.63v-14.64zm14.63 0v14.64h14.64v-14.64zm14.64 0v14.64h14.63v-14.64zm14.63 0v14.64h14.64v-14.64zm29.27 0v14.64h14.63v-14.64zm43.9 0v14.64h14.64v-14.64zm14.64 0v14.64h14.63v-14.64zm29.26 0v14.64h14.64v-14.64zm29.27 0v14.64h14.64v-14.64zm14.64 0v14.64h14.63v-14.64zm14.63 0v14.64h14.64v-14.64zm14.64 0v14.64h14.63v-14.64zm43.9 0v14.64h14.63v-14.64zm14.63 0v14.64h14.64v-14.64zm14.64 0v14.64h14.63v-14.64zm29.26 0v14.64h14.64v-14.64zm29.27 0v14.64h14.64v-14.64zM58.54 453.66v14.63h14.63v-14.63zm87.8 0v14.63h14.64v-14.63zm73.17 0v14.63h14.64v-14.63zm14.64 0v14.63h14.63v-14.63zm58.53 0v14.63h14.64v-14.63zm29.27 0v14.63h14.64v-14.63zm43.9 0v14.63h14.64v-14.63zm14.64 0v14.63h14.63v-14.63zm14.63 0v14.63h14.64v-14.63zm14.64 0v14.63h14.63v-14.63zm58.53 0v14.63h14.64v-14.63zm14.64 0v14.63h14.63v-14.63zm14.63 0v14.63h14.64v-14.63zm14.64 0v14.63h14.63v-14.63zm14.63 0v14.63h14.63v-14.63zM58.54 468.29v14.64h14.63v-14.64zm29.26 0v14.64h14.64v-14.64zm14.64 0v14.64h14.63v-14.64zm14.63 0v14.64h14.64v-14.64zm29.27 0v14.64h14.64v-14.64zm29.27 0v14.64h14.63v-14.64zm14.63 0v14.64h14.64v-14.64zm14.64 0v14.64h14.63v-14.64zm73.17 0v14.64h14.63v-14.64zm14.63 0v14.64h14.64v-14.64zm14.64 0v14.64h14.63v-14.64zm29.27 0v14.64h14.63v-14.64zm29.26 0v14.64h14.64v-14.64zm14.64 0v14.64h14.63v-14.64zm29.27 0v14.64h14.63v-14.64zm14.63 0v14.64h14.63v-14.64zm14.63 0v14.64h14.64v-14.64zm14.64 0v14.64h14.63v-14.64zm14.63 0v14.64h14.64v-14.64zm29.27 0v14.64h14.64v-14.64zm14.64 0v14.64h14.63v-14.64zm14.63 0v14.64h14.63v-14.64zM58.54 482.93v14.63h14.63v-14.63zm29.26 0v14.63h14.64v-14.63zm14.64 0v14.63h14.63v-14.63zm14.63 0v14.63h14.64v-14.63zm29.27 0v14.63h14.64v-14.63zm29.27 0v14.63h14.63v-14.63zm14.63 0v14.63h14.64v-14.63zm14.64 0v14.63h14.63v-14.63zm43.9 0v14.63h14.63v-14.63zm29.27 0v14.63h14.63v-14.63zm14.63 0v14.63h14.64v-14.63zm29.27 0v14.63h14.64v-14.63zm14.64 0v14.63h14.63v-14.63zm14.63 0v14.63h14.63v-14.63zm58.54 0v14.63h14.63v-14.63zm43.9 0v14.63h14.63v-14.63zm58.54 0v14.63h14.63v-14.63zM58.54 497.56v14.64h14.63v-14.64zm29.26 0v14.64h14.64v-14.64zm14.64 0v14.64h14.63v-14.64zm14.63 0v14.64h14.64v-14.64zm29.27 0v14.64h14.64v-14.64zm43.9 0v14.64h14.64v-14.64zm14.64 0v14.64h14.63v-14.64zm14.63 0v14.64h14.64v-14.64zm29.27 0v14.64h14.63v-14.64zm14.63 0v14.64h14.64v-14.64zm14.64 0v14.64h14.63v-14.64zm29.27 0v14.64h14.63v-14.64zm14.63 0v14.64h14.64v-14.64zm14.64 0v14.64h14.63v-14.64zm43.9 0v14.64h14.63v-14.64zm14.63 0v14.64h14.64v-14.64zm29.27 0v14.64h14.63v-14.64zm14.63 0v14.64h14.64v-14.64zm14.64 0v14.64h14.63v-14.64zm58.54 0v14.64h14.63v-14.64zM58.54 512.2v14.63h14.63V512.2zm87.8 0v14.63h14.64V512.2zm29.27 0v14.63h14.63V512.2zm14.63 0v14.63h14.64V512.2zm14.64 0v14.63h14.63V512.2zm14.63 0v14.63h14.64V512.2zm87.81 0v14.63h14.63V512.2zm29.27 0v14.63h14.63V512.2zm43.9 0v14.63h14.63V512.2zm14.63 0v14.63h14.64V512.2zm14.64 0v14.63h14.63V512.2zm14.63 0v14.63h14.63V512.2zm29.27 0v14.63h14.63V512.2zm14.63 0v14.63h14.64V512.2zm29.27 0v14.63h14.64V512.2zm14.64 0v14.63h14.63V512.2zM58.54 526.83v14.63h14.63v-14.63zm14.63 0v14.63H87.8v-14.63zm14.63 0v14.63h14.64v-14.63zm14.64 0v14.63h14.63v-14.63zm14.63 0v14.63h14.64v-14.63zm14.64 0v14.63h14.63v-14.63zm14.63 0v14.63h14.64v-14.63zm58.54 0v14.63h14.63v-14.63zm29.27 0v14.63h14.63v-14.63zm43.9 0v14.63h14.63v-14.63zm29.27 0v14.63h14.63v-14.63zm14.63 0v14.63h14.64v-14.63zm14.64 0v14.63h14.63v-14.63zm14.63 0v14.63h14.63v-14.63zm29.27 0v14.63h14.63v-14.63zm29.27 0v14.63h14.63v-14.63zm73.17 0v14.63h14.63v-14.63zm14.63 0v14.63h14.64v-14.63zm14.64 0v14.63h14.63v-14.63z" style="fill:#0a9bd6;shape-rendering:crispEdges"/></svg>