<svg xmlns="http://www.w3.org/2000/svg" width="600" height="600" viewBox="0 0 600 600"><path d="M0 0h600v600H0z" style="fill:#0c322c;shape-rendering:crispEdges"/><path d="M64.86 64.86h16.22v16.22H64.86zm16.22 0H97.3v16.22H81.08zm16.22 0h16.22v16.22H97.3z" style="fill:#fe7c3f;shape-rendering:crispEdges"/><path d="M113.51 64.86h16.22v16.22h-16.22z" style="fill:#fe7c3f;shape-rendering:crispEdges"/><path d="M129.73 64.86h16.22v16.22h-16.22zm16.22 0h16.22v16.22h-16.22z" style="fill:#fe7c3f;shape-rendering:crispEdges"/><path d="M162.16 64.86h16.22v16.22h-16.22zm81.08 0h16.22v16.22h-16.22z" style="fill:#fe7c3f;shape-rendering:crispEdges"/><path d="M259.46 64.86h16.22v16.22h-16.22zm32.43 0h16.22v16.22h-16.22zm16.22 0h16.22v16.22h-16.22z" style="fill:#fe7c3f;shape-rendering:crispEdges"/><path d="M324.32 64.86h16.22v16.22h-16.22zm32.44 0h16.22v16.22h-16.22zm32.43 0h16.22v16.22h-16.22zm32.43 0h16.22v16.22h-16.22z" style="fill:#fe7c3f;shape-rendering:crispEdges"/><path d="M437.84 64.86h16.22v16.22h-16.22z" style="fill:#fe7c3f;shape-rendering:crispEdges"/><path d="M454.05 64.86h16.22v16.22h-16.22zm16.22 0h16.22v16.22h-16.22zm16.22 0h16.22v16.22h-16.22z" style="fill:#fe7c3f;shape-rendering:crispEdges"/><path d="M502.7 64.86h16.22v16.22H502.7zm16.22 0h16.22v16.22h-16.22zM64.86 81.08h16.22V97.3H64.86zm97.3 0h16.22V97.3h-16.22zm48.65 0h16.22V97.3h-16.22zm16.22 0h16.22V97.3h-16.22z" style="fill:#fe7c3f;shape-rendering:crispEdges"/><path d="M243.24 81.08h16.22V97.3h-16.22zm48.65 0h16.22V97.3h-16.22zm16.22 0h16.22V97.3h-16.22zm113.51 0h16.22V97.3h-16.22zm97.3 0h16.22V97.3h-16.22zM64.86 97.3h16.22v16.22H64.86zm32.44 0h16.22v16.22H97.3z" style="fill:#fe7c3f;shape-rendering:crispEdges"/><path d="M113.51 97.3h16.22v16.22h-16.22z" style="fill:#fe7c3f;shape-rendering:crispEdges"/><path d="M129.73 97.3h16.22v16.22h-16.22zm32.43 0h16.22v16.22h-16.22zm48.65 0h16.22v16.22h-16.22zm32.43 0h16.22v16.22h-16.22zm32.44 0h16.22v16.22h-16.22z" style="fill:#fe7c3f;shape-rendering:crispEdges"/><path d="M291.89 97.3h16.22v16.22h-16.22zm32.43 0h16.22v16.22h-16.22zm16.22 0h16.22v16.22h-16.22zm48.65 0h16.22v16.22h-16.22zm32.43 0h16.22v16.22h-16.22zm32.43 0h16.22v16.22h-16.22zm16.22 0h16.22v16.22h-16.22zm16.22 0h16.22v16.22h-16.22zm32.43 0h16.22v16.22h-16.22zM64.86 113.51h16.22v16.22H64.86zm32.44 0h16.22v16.22H97.3z" style="fill:#fe7c3f;shape-rendering:crispEdges"/><path d="M113.51 113.51h16.22v16.22h-16.22z" style="fill:#fe7c3f;shape-rendering:crispEdges"/><path d="M129.73 113.51h16.22v16.22h-16.22zm32.43 0h16.22v16.22h-16.22zm32.43 0h16.22v16.22h-16.22zm32.44 0h16.22v16.22h-16.22z" style="fill:#fe7c3f;shape-rendering:crispEdges"/><path d="M243.24 113.51h16.22v16.22h-16.22zm32.44 0h16.22v16.22h-16.22z" style="fill:#fe7c3f;shape-rendering:crispEdges"/><path d="M291.89 113.51h16.22v16.22h-16.22zm48.65 0h16.22v16.22h-16.22zm16.22 0h16.22v16.22h-16.22z" style="fill:#fe7c3f;shape-rendering:crispEdges"/><path d="M372.97 113.51h16.22v16.22h-16.22zm48.65 0h16.22v16.22h-16.22zm32.43 0h16.22v16.22h-16.22zm16.22 0h16.22v16.22h-16.22zm16.22 0h16.22v16.22h-16.22zm32.43 0h16.22v16.22h-16.22zM64.86 129.73h16.22v16.22H64.86zm32.44 0h16.22v16.22H97.3z" style="fill:#fe7c3f;shape-rendering:crispEdges"/><path d="M113.51 129.73h16.22v16.22h-16.22z" style="fill:#fe7c3f;shape-rendering:crispEdges"/><path d="M129.73 129.73h16.22v16.22h-16.22zm32.43 0h16.22v16.22h-16.22zm48.65 0h16.22v16.22h-16.22zm145.95 0h16.22v16.22h-16.22zm64.86 0h16.22v16.22h-16.22zm32.43 0h16.22v16.22h-16.22zm16.22 0h16.22v16.22h-16.22zm16.22 0h16.22v16.22h-16.22zm32.43 0h16.22v16.22h-16.22zM64.86 145.95h16.22v16.22H64.86zm97.3 0h16.22v16.22h-16.22zm48.65 0h16.22v16.22h-16.22zm32.43 0h16.22v16.22h-16.22zm48.65 0h16.22v16.22h-16.22zm16.22 0h16.22v16.22h-16.22zm48.65 0h16.22v16.22h-16.22z" style="fill:#fe7c3f;shape-rendering:crispEdges"/><path d="M372.97 145.95h16.22v16.22h-16.22zm48.65 0h16.22v16.22h-16.22zm97.3 0h16.22v16.22h-16.22zM64.86 162.16h16.22v16.22H64.86zm16.22 0H97.3v16.22H81.08zm16.22 0h16.22v16.22H97.3z" style="fill:#fe7c3f;shape-rendering:crispEdges"/><path d="M113.51 162.16h16.22v16.22h-16.22z" style="fill:#fe7c3f;shape-rendering:crispEdges"/><path d="M129.73 162.16h16.22v16.22h-16.22zm16.22 0h16.22v16.22h-16.22z" style="fill:#fe7c3f;shape-rendering:crispEdges"/><path d="M162.16 162.16h16.22v16.22h-16.22zm32.43 0h16.22v16.22h-16.22zm32.44 0h16.22v16.22h-16.22zm32.43 0h16.22v16.22h-16.22zm32.43 0h16.22v16.22h-16.22zm32.43 0h16.22v16.22h-16.22zm32.44 0h16.22v16.22h-16.22zm32.43 0h16.22v16.22h-16.22zm32.43 0h16.22v16.22h-16.22z" style="fill:#fe7c3f;shape-rendering:crispEdges"/><path d="M437.84 162.16h16.22v16.22h-16.22z" style="fill:#fe7c3f;shape-rendering:crispEdges"/><path d="M454.05 162.16h16.22v16.22h-16.22zm16.22 0h16.22v16.22h-16.22zm16.22 0h16.22v16.22h-16.22z" style="fill:#fe7c3f;shape-rendering:crispEdges"/><path d="M502.7 162.16h16.22v16.22H502.7zm16.22 0h16.22v16.22h-16.22zm-308.11 16.22h16.22v16.22h-16.22zm48.65 0h16.22v16.22h-16.22zm32.43 0h16.22v16.22h-16.22zm16.22 0h16.22v16.22h-16.22zm81.08 0h16.22v16.22h-16.22zM64.86 194.59h16.22v16.22H64.86zm16.22 0H97.3v16.22H81.08zm32.43 0h16.22v16.22h-16.22zm16.22 0h16.22v16.22h-16.22zm16.22 0h16.22v16.22h-16.22z" style="fill:#fe7c3f;shape-rendering:crispEdges"/><path d="M162.16 194.59h16.22v16.22h-16.22zm64.87 0h16.22v16.22h-16.22z" style="fill:#fe7c3f;shape-rendering:crispEdges"/><path d="M243.24 194.59h16.22v16.22h-16.22zm32.44 0h16.22v16.22h-16.22z" style="fill:#fe7c3f;shape-rendering:crispEdges"/><path d="M291.89 194.59h16.22v16.22h-16.22zm81.08 0h16.22v16.22h-16.22zm32.44 0h16.22v16.22h-16.22zm64.86 0h16.22v16.22h-16.22zM64.86 210.81h16.22v16.22H64.86zm32.44 0h16.22v16.22H97.3zm32.43 0h16.22v16.22h-16.22zm48.65 0h16.22v16.22h-16.22zm48.65 0h16.22v16.22h-16.22zm64.86 0h16.22v16.22h-16.22zm32.43 0h16.22v16.22h-16.22zm48.65 0h16.22v16.22h-16.22zm32.44 0h16.22v16.22h-16.22zm32.43 0h16.22v16.22h-16.22zm32.43 0h16.22v16.22h-16.22zm32.43 0h16.22v16.22H502.7zm-389.19 16.22h16.22v16.22h-16.22zm32.44 0h16.22v16.22h-16.22z" style="fill:#fe7c3f;shape-rendering:crispEdges"/><path d="M162.16 227.03h16.22v16.22h-16.22zm48.65 0h16.22v16.22h-16.22zm64.87 0h16.22v16.22h-16.22zm32.43 0h16.22v16.22h-16.22zm32.43 0h16.22v16.22h-16.22zm64.87 0h16.22v16.22h-16.22z" style="fill:#fe7c3f;shape-rendering:crispEdges"/><path d="M421.62 227.03h16.22v16.22h-16.22zm48.65 0h16.22v16.22h-16.22zm16.22 0h16.22v16.22h-16.22zm32.43 0h16.22v16.22h-16.22zM81.08 243.24H97.3v16.22H81.08zm48.65 0h16.22v16.22h-16.22zm16.22 0h16.22v16.22h-16.22zm48.64 0h16.22v16.22h-16.22zm16.22 0h16.22v16.22h-16.22zm16.22 0h16.22v16.22h-16.22z" style="fill:#fe7c3f;shape-rendering:crispEdges"/><path d="M243.24 243.24h16.22v16.22h-16.22zm32.44 0h16.22v16.22h-16.22z" style="fill:#fe7c3f;shape-rendering:crispEdges"/><path d="M291.89 243.24h16.22v16.22h-16.22zm32.43 0h16.22v16.22h-16.22zm16.22 0h16.22v16.22h-16.22zm32.43 0h16.22v16.22h-16.22zm32.44 0h16.22v16.22h-16.22zm64.86 0h16.22v16.22h-16.22zm16.22 0h16.22v16.22h-16.22zM81.08 259.46H97.3v16.22H81.08zm32.43 0h16.22v16.22h-16.22zm32.44 0h16.22v16.22h-16.22z" style="fill:#fe7c3f;shape-rendering:crispEdges"/><path d="M162.16 259.46h16.22v16.22h-16.22zm48.65 0h16.22v16.22h-16.22zm48.65 0h16.22v16.22h-16.22zm48.65 0h16.22v16.22h-16.22zm32.43 0h16.22v16.22h-16.22zm32.43 0h16.22v16.22h-16.22zm32.44 0h16.22v16.22h-16.22zm32.43 0h16.22v16.22h-16.22z" style="fill:#fe7c3f;shape-rendering:crispEdges"/><path d="M454.05 259.46h16.22v16.22h-16.22zm16.22 0h16.22v16.22h-16.22zm16.22 0h16.22v16.22h-16.22zm32.43 0h16.22v16.22h-16.22zM64.86 275.68h16.22v16.22H64.86zm16.22 0H97.3v16.22H81.08zm48.65 0h16.22v16.22h-16.22zm16.22 0h16.22v16.22h-16.22zm48.64 0h16.22v16.22h-16.22zm32.44 0h16.22v16.22h-16.22zm32.43 0h16.22v16.22h-16.22zm32.43 0h16.22v16.22h-16.22zm16.22 0h16.22v16.22h-16.22z" style="fill:#fe7c3f;shape-rendering:crispEdges"/><path d="M324.32 275.68h16.22v16.22h-16.22zm32.44 0h16.22v16.22h-16.22zm32.43 0h16.22v16.22h-16.22zm16.22 0h16.22v16.22h-16.22zm48.64 0h16.22v16.22h-16.22zm48.65 0h16.22v16.22H502.7zM81.08 291.89H97.3v16.22H81.08zm32.43 0h16.22v16.22h-16.22zm48.65 0h16.22v16.22h-16.22zm64.87 0h16.22v16.22h-16.22zm32.43 0h16.22v16.22h-16.22zm32.43 0h16.22v16.22h-16.22z" style="fill:#fe7c3f;shape-rendering:crispEdges"/><path d="M308.11 291.89h16.22v16.22h-16.22z" style="fill:#fe7c3f;shape-rendering:crispEdges"/><path d="M324.32 291.89h16.22v16.22h-16.22zm81.09 0h16.22v16.22h-16.22zm32.43 0h16.22v16.22h-16.22z" style="fill:#fe7c3f;shape-rendering:crispEdges"/><path d="M454.05 291.89h16.22v16.22h-16.22zm32.44 0h16.22v16.22h-16.22z" style="fill:#fe7c3f;shape-rendering:crispEdges"/><path d="M502.7 291.89h16.22v16.22H502.7zM64.86 308.11h16.22v16.22H64.86zm32.44 0h16.22v16.22H97.3zm48.65 0h16.22v16.22h-16.22zm32.43 0h16.22v16.22h-16.22zm48.65 0h16.22v16.22h-16.22z" style="fill:#fe7c3f;shape-rendering:crispEdges"/><path d="M243.24 308.11h16.22v16.22h-16.22z" style="fill:#fe7c3f;shape-rendering:crispEdges"/><path d="M259.46 308.11h16.22v16.22h-16.22zm16.22 0h16.22v16.22h-16.22zm81.08 0h16.22v16.22h-16.22z" style="fill:#fe7c3f;shape-rendering:crispEdges"/><path d="M372.97 308.11h16.22v16.22h-16.22z" style="fill:#fe7c3f;shape-rendering:crispEdges"/><path d="M389.19 308.11h16.22v16.22h-16.22zm16.22 0h16.22v16.22h-16.22z" style="fill:#fe7c3f;shape-rendering:crispEdges"/><path d="M421.62 308.11h16.22v16.22h-16.22zm48.65 0h16.22v16.22h-16.22zm48.65 0h16.22v16.22h-16.22zM64.86 324.32h16.22v16.22H64.86zm81.09 0h16.22v16.22h-16.22z" style="fill:#fe7c3f;shape-rendering:crispEdges"/><path d="M162.16 324.32h16.22v16.22h-16.22zm32.43 0h16.22v16.22h-16.22zm16.22 0h16.22v16.22h-16.22zm32.43 0h16.22v16.22h-16.22z" style="fill:#fe7c3f;shape-rendering:crispEdges"/><path d="M259.46 324.32h16.22v16.22h-16.22zm16.22 0h16.22v16.22h-16.22zm48.64 0h16.22v16.22h-16.22zm32.44 0h16.22v16.22h-16.22zm48.65 0h16.22v16.22h-16.22z" style="fill:#fe7c3f;shape-rendering:crispEdges"/><path d="M421.62 324.32h16.22v16.22h-16.22z" style="fill:#fe7c3f;shape-rendering:crispEdges"/><path d="M437.84 324.32h16.22v16.22h-16.22zm32.43 0h16.22v16.22h-16.22zm48.65 0h16.22v16.22h-16.22zM81.08 340.54H97.3v16.22H81.08zm16.22 0h16.22v16.22H97.3zm32.43 0h16.22v16.22h-16.22zm16.22 0h16.22v16.22h-16.22zm48.64 0h16.22v16.22h-16.22zm16.22 0h16.22v16.22h-16.22zm48.65 0h16.22v16.22h-16.22zm32.43 0h16.22v16.22h-16.22zm32.43 0h16.22v16.22h-16.22zm64.87 0h16.22v16.22h-16.22zm16.22 0h16.22v16.22h-16.22zm48.64 0h16.22v16.22h-16.22zm48.65 0h16.22v16.22H502.7zM64.86 356.76h16.22v16.22H64.86zm16.22 0H97.3v16.22H81.08zm32.43 0h16.22v16.22h-16.22zm16.22 0h16.22v16.22h-16.22zm16.22 0h16.22v16.22h-16.22z" style="fill:#fe7c3f;shape-rendering:crispEdges"/><path d="M162.16 356.76h16.22v16.22h-16.22zm97.3 0h16.22v16.22h-16.22zm16.22 0h16.22v16.22h-16.22z" style="fill:#fe7c3f;shape-rendering:crispEdges"/><path d="M291.89 356.76h16.22v16.22h-16.22zm81.08 0h16.22v16.22h-16.22zm32.44 0h16.22v16.22h-16.22z" style="fill:#fe7c3f;shape-rendering:crispEdges"/><path d="M421.62 356.76h16.22v16.22h-16.22z" style="fill:#fe7c3f;shape-rendering:crispEdges"/><path d="M437.84 356.76h16.22v16.22h-16.22zm48.65 0h16.22v16.22h-16.22zm-340.54 16.21h16.22v16.22h-16.22zm32.43 0h16.22v16.22h-16.22zm48.65 0h16.22v16.22h-16.22zm32.43 0h16.22v16.22h-16.22zm16.22 0h16.22v16.22h-16.22zm32.43 0h16.22v16.22h-16.22z" style="fill:#fe7c3f;shape-rendering:crispEdges"/><path d="M324.32 372.97h16.22v16.22h-16.22zm48.65 0h16.22v16.22h-16.22zm32.44 0h16.22v16.22h-16.22zm64.86 0h16.22v16.22h-16.22zm16.22 0h16.22v16.22h-16.22z" style="fill:#fe7c3f;shape-rendering:crispEdges"/><path d="M502.7 372.97h16.22v16.22H502.7zM64.86 389.19h16.22v16.22H64.86zm16.22 0H97.3v16.22H81.08zm16.22 0h16.22v16.22H97.3zm48.65 0h16.22v16.22h-16.22z" style="fill:#fe7c3f;shape-rendering:crispEdges"/><path d="M162.16 389.19h16.22v16.22h-16.22zm16.22 0h16.22v16.22h-16.22zm32.43 0h16.22v16.22h-16.22zm64.87 0h16.22v16.22h-16.22z" style="fill:#fe7c3f;shape-rendering:crispEdges"/><path d="M291.89 389.19h16.22v16.22h-16.22zm16.22 0h16.22v16.22h-16.22z" style="fill:#fe7c3f;shape-rendering:crispEdges"/><path d="M324.32 389.19h16.22v16.22h-16.22zm64.87 0h16.22v16.22h-16.22zm16.22 0h16.22v16.22h-16.22z" style="fill:#fe7c3f;shape-rendering:crispEdges"/><path d="M421.62 389.19h16.22v16.22h-16.22z" style="fill:#fe7c3f;shape-rendering:crispEdges"/><path d="M437.84 389.19h16.22v16.22h-16.22z" style="fill:#fe7c3f;shape-rendering:crispEdges"/><path d="M454.05 389.19h16.22v16.22h-16.22zm16.22 0h16.22v16.22h-16.22zm16.22 0h16.22v16.22h-16.22z" style="fill:#fe7c3f;shape-rendering:crispEdges"/><path d="M502.7 389.19h16.22v16.22H502.7zm16.22 0h16.22v16.22h-16.22zm-308.11 16.22h16.22v16.22h-16.22zm32.43 0h16.22v16.22h-16.22zm32.44 0h16.22v16.22h-16.22z" style="fill:#fe7c3f;shape-rendering:crispEdges"/><path d="M291.89 405.41h16.22v16.22h-16.22zm48.65 0h16.22v16.22h-16.22zm16.22 0h16.22v16.22h-16.22zm32.43 0h16.22v16.22h-16.22zm64.86 0h16.22v16.22h-16.22zm16.22 0h16.22v16.22h-16.22zM64.86 421.62h16.22v16.22H64.86zm16.22 0H97.3v16.22H81.08zm16.22 0h16.22v16.22H97.3z" style="fill:#fe7c3f;shape-rendering:crispEdges"/><path d="M113.51 421.62h16.22v16.22h-16.22z" style="fill:#fe7c3f;shape-rendering:crispEdges"/><path d="M129.73 421.62h16.22v16.22h-16.22zm16.22 0h16.22v16.22h-16.22z" style="fill:#fe7c3f;shape-rendering:crispEdges"/><path d="M162.16 421.62h16.22v16.22h-16.22zm48.65 0h16.22v16.22h-16.22zm16.22 0h16.22v16.22h-16.22z" style="fill:#fe7c3f;shape-rendering:crispEdges"/><path d="M243.24 421.62h16.22v16.22h-16.22z" style="fill:#fe7c3f;shape-rendering:crispEdges"/><path d="M259.46 421.62h16.22v16.22h-16.22zm32.43 0h16.22v16.22h-16.22zm48.65 0h16.22v16.22h-16.22zm48.65 0h16.22v16.22h-16.22zm32.43 0h16.22v16.22h-16.22zm32.43 0h16.22v16.22h-16.22zm16.22 0h16.22v16.22h-16.22zm32.43 0h16.22v16.22H502.7zm16.22 0h16.22v16.22h-16.22zM64.86 437.84h16.22v16.22H64.86zm97.3 0h16.22v16.22h-16.22zm32.43 0h16.22v16.22h-16.22zm32.44 0h16.22v16.22h-16.22z" style="fill:#fe7c3f;shape-rendering:crispEdges"/><path d="M259.46 437.84h16.22v16.22h-16.22zm16.22 0h16.22v16.22h-16.22zm32.43 0h16.22v16.22h-16.22z" style="fill:#fe7c3f;shape-rendering:crispEdges"/><path d="M324.32 437.84h16.22v16.22h-16.22zm16.22 0h16.22v16.22h-16.22zm16.22 0h16.22v16.22h-16.22zm32.43 0h16.22v16.22h-16.22zm64.86 0h16.22v16.22h-16.22zm48.65 0h16.22v16.22H502.7zM64.86 454.05h16.22v16.22H64.86zm32.44 0h16.22v16.22H97.3z" style="fill:#fe7c3f;shape-rendering:crispEdges"/><path d="M113.51 454.05h16.22v16.22h-16.22z" style="fill:#fe7c3f;shape-rendering:crispEdges"/><path d="M129.73 454.05h16.22v16.22h-16.22zm32.43 0h16.22v16.22h-16.22zm32.43 0h16.22v16.22h-16.22zm162.17 0h16.22v16.22h-16.22zm32.43 0h16.22v16.22h-16.22zm16.22 0h16.22v16.22h-16.22z" style="fill:#fe7c3f;shape-rendering:crispEdges"/><path d="M421.62 454.05h16.22v16.22h-16.22z" style="fill:#fe7c3f;shape-rendering:crispEdges"/><path d="M437.84 454.05h16.22v16.22h-16.22z" style="fill:#fe7c3f;shape-rendering:crispEdges"/><path d="M454.05 454.05h16.22v16.22h-16.22zm16.22 0h16.22v16.22h-16.22zm16.22 0h16.22v16.22h-16.22zm32.43 0h16.22v16.22h-16.22zM64.86 470.27h16.22v16.22H64.86zm32.44 0h16.22v16.22H97.3z" style="fill:#fe7c3f;shape-rendering:crispEdges"/><path d="M113.51 470.27h16.22v16.22h-16.22z" style="fill:#fe7c3f;shape-rendering:crispEdges"/><path d="M129.73 470.27h16.22v16.22h-16.22zm32.43 0h16.22v16.22h-16.22zm32.43 0h16.22v16.22h-16.22zm16.22 0h16.22v16.22h-16.22zm32.43 0h16.22v16.22h-16.22zm32.44 0h16.22v16.22h-16.22zm97.29 0h16.22v16.22h-16.22z" style="fill:#fe7c3f;shape-rendering:crispEdges"/><path d="M389.19 470.27h16.22v16.22h-16.22zm32.43 0h16.22v16.22h-16.22zm32.43 0h16.22v16.22h-16.22zm32.44 0h16.22v16.22h-16.22zM64.86 486.49h16.22v16.22H64.86zm32.44 0h16.22v16.22H97.3z" style="fill:#fe7c3f;shape-rendering:crispEdges"/><path d="M113.51 486.49h16.22v16.22h-16.22z" style="fill:#fe7c3f;shape-rendering:crispEdges"/><path d="M129.73 486.49h16.22v16.22h-16.22zm32.43 0h16.22v16.22h-16.22zm81.08 0h16.22v16.22h-16.22zm145.95 0h16.22v16.22h-16.22zm32.43 0h16.22v16.22h-16.22z" style="fill:#fe7c3f;shape-rendering:crispEdges"/><path d="M437.84 486.49h16.22v16.22h-16.22zm48.65 0h16.22v16.22h-16.22zM64.86 502.7h16.22v16.22H64.86zm97.3 0h16.22v16.22h-16.22zm32.43 0h16.22v16.22h-16.22zm32.44 0h16.22v16.22h-16.22z" style="fill:#fe7c3f;shape-rendering:crispEdges"/><path d="M243.24 502.7h16.22v16.22h-16.22zm48.65 0h16.22v16.22h-16.22zm16.22 0h16.22v16.22h-16.22z" style="fill:#fe7c3f;shape-rendering:crispEdges"/><path d="M324.32 502.7h16.22v16.22h-16.22zm16.22 0h16.22v16.22h-16.22zm16.22 0h16.22v16.22h-16.22zm32.43 0h16.22v16.22h-16.22zm32.43 0h16.22v16.22h-16.22z" style="fill:#fe7c3f;shape-rendering:crispEdges"/><path d="M437.84 502.7h16.22v16.22h-16.22z" style="fill:#fe7c3f;shape-rendering:crispEdges"/><path d="M454.05 502.7h16.22v16.22h-16.22zm48.65 0h16.22v16.22H502.7zm16.22 0h16.22v16.22h-16.22zM64.86 518.92h16.22v16.22H64.86zm16.22 0H97.3v16.22H81.08zm16.22 0h16.22v16.22H97.3z" style="fill:#fe7c3f;shape-rendering:crispEdges"/><path d="M113.51 518.92h16.22v16.22h-16.22z" style="fill:#fe7c3f;shape-rendering:crispEdges"/><path d="M129.73 518.92h16.22v16.22h-16.22zm16.22 0h16.22v16.22h-16.22z" style="fill:#fe7c3f;shape-rendering:crispEdges"/><path d="M162.16 518.92h16.22v16.22h-16.22zm32.43 0h16.22v16.22h-16.22zm16.22 0h16.22v16.22h-16.22zm81.08 0h16.22v16.22h-16.22zm48.65 0h16.22v16.22h-16.22zm16.22 0h16.22v16.22h-16.22zm32.43 0h16.22v16.22h-16.22zm16.22 0h16.22v16.22h-16.22zm32.43 0h16.22v16.22h-16.22zm32.43 0h16.22v16.22h-16.22zm16.22 0h16.22v16.22h-16.22z" style="fill:#fe7c3f;shape-rendering:crispEdges"/></svg>