<svg xmlns="http://www.w3.org/2000/svg" width="600" height="600" viewBox="0 0 600 600"><path d="M0 0h600v600H0z" style="fill:#0c322c;shape-rendering:crispEdges"/><path d="M64.86 64.86v16.22h16.22V64.86zm16.22 0v16.22H97.3V64.86zm16.22 0v16.22h16.21V64.86zm16.21 0v16.22h16.22V64.86zm16.22 0v16.22h16.22V64.86zm16.22 0v16.22h16.21V64.86zm16.21 0v16.22h16.22V64.86zm32.43 0v16.22h16.22V64.86zm64.87 0v16.22h16.22V64.86zm32.43 0v16.22h16.22V64.86zm32.43 0v16.22h16.22V64.86zm16.22 0v16.22h16.22V64.86zm16.22 0v16.22h16.21V64.86zm16.21 0v16.22h16.22V64.86zm16.22 0v16.22h16.22V64.86zm32.43 0v16.22h16.22V64.86zm16.22 0v16.22h16.21V64.86zm16.21 0v16.22h16.22V64.86zm16.22 0v16.22h16.22V64.86zm16.22 0v16.22h16.21V64.86zm16.21 0v16.22h16.22V64.86zm16.22 0v16.22h16.22V64.86zM64.86 81.08V97.3h16.22V81.08zm97.3 0V97.3h16.22V81.08zm48.65 0V97.3h16.22V81.08zm81.08 0V97.3h16.22V81.08zm64.87 0V97.3h16.21V81.08zm16.21 0V97.3h16.22V81.08zm16.22 0V97.3h16.22V81.08zm32.43 0V97.3h16.22V81.08zm97.3 0V97.3h16.22V81.08zM64.86 97.3v16.21h16.22V97.3zm32.44 0v16.21h16.21V97.3zm16.21 0v16.21h16.22V97.3zm16.22 0v16.21h16.22V97.3zm32.43 0v16.21h16.22V97.3zm129.73 0v16.21h16.22V97.3zm32.43 0v16.21h16.22V97.3zm16.22 0v16.21h16.22V97.3zm16.22 0v16.21h16.21V97.3zm64.86 0v16.21h16.22V97.3zm32.43 0v16.21h16.22V97.3zm16.22 0v16.21h16.22V97.3zm16.22 0v16.21h16.21V97.3zm32.43 0v16.21h16.22V97.3zM64.86 113.51v16.22h16.22v-16.22zm32.44 0v16.22h16.21v-16.22zm16.21 0v16.22h16.22v-16.22zm16.22 0v16.22h16.22v-16.22zm32.43 0v16.22h16.22v-16.22zm32.43 0v16.22h16.22v-16.22zm48.65 0v16.22h16.22v-16.22zm16.22 0v16.22h16.22v-16.22zm16.22 0v16.22h16.21v-16.22zm16.21 0v16.22h16.22v-16.22zm16.22 0v16.22h16.21v-16.22zm16.21 0v16.22h16.22v-16.22zm16.22 0v16.22h16.22v-16.22zm16.22 0v16.22h16.21v-16.22zm16.21 0v16.22h16.22v-16.22zm48.65 0v16.22h16.22v-16.22zm32.43 0v16.22h16.22v-16.22zm16.22 0v16.22h16.22v-16.22zm16.22 0v16.22h16.21v-16.22zm32.43 0v16.22h16.22v-16.22zM64.86 129.73v16.22h16.22v-16.22zm32.44 0v16.22h16.21v-16.22zm16.21 0v16.22h16.22v-16.22zm16.22 0v16.22h16.22v-16.22zm32.43 0v16.22h16.22v-16.22zm32.43 0v16.22h16.22v-16.22zm16.22 0v16.22h16.22v-16.22zm16.22 0v16.22h16.21v-16.22zm16.21 0v16.22h16.22v-16.22zm64.87 0v16.22h16.21v-16.22zm32.43 0v16.22h16.22v-16.22zm32.43 0v16.22h16.22v-16.22zm48.65 0v16.22h16.22v-16.22zm32.43 0v16.22h16.22v-16.22zm16.22 0v16.22h16.22v-16.22zm16.22 0v16.22h16.21v-16.22zm32.43 0v16.22h16.22v-16.22zM64.86 145.95v16.21h16.22v-16.21zm97.3 0v16.21h16.22v-16.21zm32.43 0v16.21h16.22v-16.21zm48.65 0v16.21h16.22v-16.21zm16.22 0v16.21h16.22v-16.21zm16.22 0v16.21h16.21v-16.21zm48.64 0v16.21h16.22v-16.21zm32.44 0v16.21h16.21v-16.21zm64.86 0v16.21h16.22v-16.21zm97.3 0v16.21h16.22v-16.21zM64.86 162.16v16.22h16.22v-16.22zm16.22 0v16.22H97.3v-16.22zm16.22 0v16.22h16.21v-16.22zm16.21 0v16.22h16.22v-16.22zm16.22 0v16.22h16.22v-16.22zm16.22 0v16.22h16.21v-16.22zm16.21 0v16.22h16.22v-16.22zm32.43 0v16.22h16.22v-16.22zm32.44 0v16.22h16.21v-16.22zm32.43 0v16.22h16.22v-16.22zm32.43 0v16.22h16.22v-16.22zm32.43 0v16.22h16.22v-16.22zm32.44 0v16.22h16.21v-16.22zm32.43 0v16.22h16.22v-16.22zm32.43 0v16.22h16.22v-16.22zm16.22 0v16.22h16.21v-16.22zm16.21 0v16.22h16.22v-16.22zm16.22 0v16.22h16.22v-16.22zm16.22 0v16.22h16.21v-16.22zm16.21 0v16.22h16.22v-16.22zm16.22 0v16.22h16.22v-16.22zm-324.33 16.22v16.21h16.22v-16.21zm16.22 0v16.21h16.22v-16.21zm32.43 0v16.21h16.22v-16.21zm16.22 0v16.21h16.22v-16.21zm32.43 0v16.21h16.22v-16.21zm32.43 0v16.21h16.22v-16.21zm32.44 0v16.21h16.21v-16.21zm32.43 0v16.21h16.22v-16.21zM64.86 194.59v16.22h16.22v-16.22zm16.22 0v16.22H97.3v-16.22zm16.22 0v16.22h16.21v-16.22zm32.43 0v16.22h16.22v-16.22zm32.43 0v16.22h16.22v-16.22zm32.43 0v16.22h16.22v-16.22zm32.44 0v16.22h16.21v-16.22zm32.43 0v16.22h16.22v-16.22zm81.08 0v16.22h16.22v-16.22zm16.22 0v16.22h16.21v-16.22zm16.21 0v16.22h16.22v-16.22zm32.44 0v16.22h16.21v-16.22zm16.21 0v16.22h16.22v-16.22zm16.22 0v16.22h16.21v-16.22zm16.21 0v16.22h16.22v-16.22zm16.22 0v16.22h16.22v-16.22zm48.65 0v16.22h16.22v-16.22zm-405.41 16.22v16.22h16.22v-16.22zm32.44 0v16.22h16.21v-16.22zm64.86 0v16.22h16.22v-16.22zm16.22 0v16.22h16.21v-16.22zm16.21 0v16.22h16.22v-16.22zm48.65 0v16.22h16.22v-16.22zm16.22 0v16.22h16.21v-16.22zm48.65 0v16.22h16.21v-16.22zm32.43 0v16.22h16.22v-16.22zm16.22 0v16.22h16.21v-16.22zm16.21 0v16.22h16.22v-16.22zm48.65 0v16.22h16.22v-16.22zm32.43 0v16.22h16.22v-16.22zm-340.54 16.22v16.21h16.22v-16.21zm64.87 0v16.21h16.21v-16.21zm97.29 0v16.21h16.22v-16.21zm32.44 0v16.21h16.21v-16.21zm32.43 0v16.21h16.22v-16.21zm32.43 0v16.21h16.22v-16.21zm32.43 0v16.21h16.22v-16.21zm32.44 0v16.21h16.21v-16.21zm16.21 0v16.21h16.22v-16.21zm16.22 0v16.21h16.22v-16.21zM81.08 243.24v16.22H97.3v-16.22zm48.65 0v16.22h16.22v-16.22zm64.86 0v16.22h16.22v-16.22zm48.65 0v16.22h16.22v-16.22zm16.22 0v16.22h16.22v-16.22zm16.22 0v16.22h16.21v-16.22zm16.21 0v16.22h16.22v-16.22zm16.22 0v16.22h16.21v-16.22zm32.43 0v16.22h16.22v-16.22zm64.87 0v16.22h16.21v-16.22zm48.64 0v16.22h16.22v-16.22zm32.44 0v16.22h16.21v-16.22zm32.43 0v16.22h16.22v-16.22zM64.86 259.46v16.22h16.22v-16.22zm48.65 0v16.22h16.22v-16.22zm48.65 0v16.22h16.22v-16.22zm48.65 0v16.22h16.22v-16.22zm16.22 0v16.22h16.21v-16.22zm16.21 0v16.22h16.22v-16.22zm32.44 0v16.22h16.21v-16.22zm16.21 0v16.22h16.22v-16.22zm16.22 0v16.22h16.21v-16.22zm16.21 0v16.22h16.22v-16.22zm32.44 0v16.22h16.21v-16.22zm32.43 0v16.22h16.22v-16.22zm16.22 0v16.22h16.21v-16.22zm32.43 0v16.22h16.21v-16.22zm32.43 0v16.22h16.22v-16.22zm32.43 0v16.22h16.22v-16.22zm16.22 0v16.22h16.22v-16.22zM64.86 275.68v16.21h16.22v-16.21zm16.22 0v16.21H97.3v-16.21zm16.22 0v16.21h16.21v-16.21zm32.43 0v16.21h16.22v-16.21zm16.22 0v16.21h16.21v-16.21zm48.64 0v16.21h16.22v-16.21zm64.87 0v16.21h16.22v-16.21zm48.65 0v16.21h16.21v-16.21zm48.65 0v16.21h16.21v-16.21zm16.21 0v16.21h16.22v-16.21zm16.22 0v16.21h16.22v-16.21zm16.22 0v16.21h16.21v-16.21zm16.21 0v16.21h16.22v-16.21zm16.22 0v16.21h16.21v-16.21zm16.21 0v16.21h16.22v-16.21zm48.65 0v16.21h16.22v-16.21zm16.22 0v16.21h16.22v-16.21zM64.86 291.89v16.22h16.22v-16.22zm16.22 0v16.22H97.3v-16.22zm16.22 0v16.22h16.21v-16.22zm16.21 0v16.22h16.22v-16.22zm32.44 0v16.22h16.21v-16.22zm16.21 0v16.22h16.22v-16.22zm16.22 0v16.22h16.21v-16.22zm16.21 0v16.22h16.22v-16.22zm16.22 0v16.22h16.22v-16.22zm16.22 0v16.22h16.21v-16.22zm16.21 0v16.22h16.22v-16.22zm16.22 0v16.22h16.22v-16.22zm32.43 0v16.22h16.22v-16.22zm16.22 0v16.22h16.21v-16.22zm48.65 0v16.22h16.21v-16.22zm113.51 0v16.22h16.22v-16.22zm16.22 0v16.22h16.21v-16.22zm16.21 0v16.22h16.22v-16.22zM64.86 308.11v16.21h16.22v-16.21zm16.22 0v16.21H97.3v-16.21zm32.43 0v16.21h16.22v-16.21zm16.22 0v16.21h16.22v-16.21zm64.86 0v16.21h16.22v-16.21zm48.65 0v16.21h16.22v-16.21zm48.65 0v16.21h16.22v-16.21zm32.43 0v16.21h16.22v-16.21zm48.65 0v16.21h16.22v-16.21zm48.65 0v16.21h16.22v-16.21zm32.43 0v16.21h16.22v-16.21zm48.65 0v16.21h16.22v-16.21zm-340.54 16.21v16.22h16.22v-16.22zm32.43 0v16.22h16.22v-16.22zm113.52 0v16.22h16.21v-16.22zm48.65 0v16.22h16.21v-16.22zm16.21 0v16.22h16.22v-16.22zm32.44 0v16.22h16.21v-16.22zm16.21 0v16.22h16.22v-16.22zm16.22 0v16.22h16.21v-16.22zm16.21 0v16.22h16.22v-16.22zm16.22 0v16.22h16.22v-16.22zm16.22 0v16.22h16.21v-16.22zM64.86 340.54v16.22h16.22v-16.22zm16.22 0v16.22H97.3v-16.22zm32.43 0v16.22h16.22v-16.22zm81.08 0v16.22h16.22v-16.22zm32.44 0v16.22h16.21v-16.22zm16.21 0v16.22h16.22v-16.22zm97.3 0v16.22h16.22v-16.22zm48.65 0v16.22h16.22v-16.22zm32.43 0v16.22h16.22v-16.22zm16.22 0v16.22h16.21v-16.22zm48.65 0v16.22h16.21v-16.22zm32.43 0v16.22h16.22v-16.22zM81.08 356.76v16.21H97.3v-16.21zm16.22 0v16.21h16.21v-16.21zm32.43 0v16.21h16.22v-16.21zm32.43 0v16.21h16.22v-16.21zm48.65 0v16.21h16.22v-16.21zm32.43 0v16.21h16.22v-16.21zm97.3 0v16.21h16.22v-16.21zm16.22 0v16.21h16.21v-16.21zm81.08 0v16.21h16.21v-16.21zm48.65 0v16.21h16.21v-16.21zm32.43 0v16.21h16.22v-16.21zM81.08 372.97v16.22H97.3v-16.22zm16.22 0v16.22h16.21v-16.22zm32.43 0v16.22h16.22v-16.22zm81.08 0v16.22h16.22v-16.22zm81.08 0v16.22h16.22v-16.22zm16.22 0v16.22h16.21v-16.22zm16.21 0v16.22h16.22v-16.22zm16.22 0v16.22h16.22v-16.22zm16.22 0v16.22h16.21v-16.22zm32.43 0v16.22h16.22v-16.22zm32.43 0v16.22h16.22v-16.22zm16.22 0v16.22h16.21v-16.22zm16.21 0v16.22h16.22v-16.22zm16.22 0v16.22h16.22v-16.22zM81.08 389.19v16.22H97.3v-16.22zm64.87 0v16.22h16.21v-16.22zm16.21 0v16.22h16.22v-16.22zm48.65 0v16.22h16.22v-16.22zm32.43 0v16.22h16.22v-16.22zm16.22 0v16.22h16.22v-16.22zm32.43 0v16.22h16.22v-16.22zm32.43 0v16.22h16.22v-16.22zm16.22 0v16.22h16.22v-16.22zm32.43 0v16.22h16.22v-16.22zm16.22 0v16.22h16.22v-16.22zm16.22 0v16.22h16.21v-16.22zm16.21 0v16.22h16.22v-16.22zm16.22 0v16.22h16.21v-16.22zm16.21 0v16.22h16.22v-16.22zm32.44 0v16.22h16.21v-16.22zm32.43 0v16.22h16.22v-16.22zm-324.33 16.22v16.21h16.22v-16.21zm16.22 0v16.21h16.22v-16.21zm16.22 0v16.21h16.21v-16.21zm16.21 0v16.21h16.22v-16.21zm32.44 0v16.21h16.21v-16.21zm32.43 0v16.21h16.21v-16.21zm32.43 0v16.21h16.22v-16.21zm16.22 0v16.21h16.21v-16.21zm16.21 0v16.21h16.22v-16.21zm16.22 0v16.21h16.22v-16.21zm64.86 0v16.21h16.22v-16.21zm16.22 0v16.21h16.22v-16.21zm16.22 0v16.21h16.21v-16.21zm16.21 0v16.21h16.22v-16.21zM64.86 421.62v16.22h16.22v-16.22zm16.22 0v16.22H97.3v-16.22zm16.22 0v16.22h16.21v-16.22zm16.21 0v16.22h16.22v-16.22zm16.22 0v16.22h16.22v-16.22zm16.22 0v16.22h16.21v-16.22zm16.21 0v16.22h16.22v-16.22zm97.3 0v16.22h16.22v-16.22zm16.22 0v16.22h16.21v-16.22zm16.21 0v16.22h16.22v-16.22zm16.22 0v16.22h16.21v-16.22zm48.65 0v16.22h16.21v-16.22zm16.21 0v16.22h16.22v-16.22zm16.22 0v16.22h16.22v-16.22zm32.43 0v16.22h16.22v-16.22zm32.43 0v16.22h16.22v-16.22zm48.65 0v16.22h16.22v-16.22zM64.86 437.84v16.21h16.22v-16.21zm97.3 0v16.21h16.22v-16.21zm48.65 0v16.21h16.22v-16.21zm16.22 0v16.21h16.21v-16.21zm32.43 0v16.21h16.22v-16.21zm32.43 0v16.21h16.22v-16.21zm16.22 0v16.21h16.21v-16.21zm64.86 0v16.21h16.22v-16.21zm16.22 0v16.21h16.22v-16.21zm64.86 0v16.21h16.22v-16.21zm16.22 0v16.21h16.22v-16.21zm16.22 0v16.21h16.21v-16.21zm16.21 0v16.21h16.22v-16.21zM64.86 454.05v16.22h16.22v-16.22zm32.44 0v16.22h16.21v-16.22zm16.21 0v16.22h16.22v-16.22zm16.22 0v16.22h16.22v-16.22zm32.43 0v16.22h16.22v-16.22zm32.43 0v16.22h16.22v-16.22zm16.22 0v16.22h16.22v-16.22zm64.87 0v16.22h16.21v-16.22zm32.43 0v16.22h16.21v-16.22zm32.43 0v16.22h16.22v-16.22zm32.43 0v16.22h16.22v-16.22zm16.22 0v16.22h16.22v-16.22zm16.22 0v16.22h16.21v-16.22zm16.21 0v16.22h16.22v-16.22zm16.22 0v16.22h16.21v-16.22zm16.21 0v16.22h16.22v-16.22zm32.44 0v16.22h16.21v-16.22zm32.43 0v16.22h16.22v-16.22zM64.86 470.27v16.22h16.22v-16.22zm32.44 0v16.22h16.21v-16.22zm16.21 0v16.22h16.22v-16.22zm16.22 0v16.22h16.22v-16.22zm32.43 0v16.22h16.22v-16.22zm81.08 0v16.22h16.22v-16.22zm32.44 0v16.22h16.21v-16.22zm48.64 0v16.22h16.22v-16.22zm32.44 0v16.22h16.21v-16.22zm16.21 0v16.22h16.22v-16.22zm16.22 0v16.22h16.22v-16.22zm16.22 0v16.22h16.21v-16.22zm16.21 0v16.22h16.22v-16.22zm32.43 0v16.22h16.22v-16.22zm48.65 0v16.22h16.22v-16.22zm16.22 0v16.22h16.22v-16.22zM64.86 486.49v16.21h16.22v-16.21zm32.44 0v16.21h16.21v-16.21zm16.21 0v16.21h16.22v-16.21zm16.22 0v16.21h16.22v-16.21zm32.43 0v16.21h16.22v-16.21zm32.43 0v16.21h16.22v-16.21zm16.22 0v16.21h16.22v-16.21zm16.22 0v16.21h16.21v-16.21zm48.65 0v16.21h16.21v-16.21zm16.21 0v16.21h16.22v-16.21zm16.22 0v16.21h16.21v-16.21zm32.43 0v16.21h16.22v-16.21zm32.43 0v16.21h16.22v-16.21zm16.22 0v16.21h16.22v-16.21zm97.3 0v16.21h16.21v-16.21zm16.21 0v16.21h16.22v-16.21zM64.86 502.7v16.22h16.22V502.7zm97.3 0v16.22h16.22V502.7zm32.43 0v16.22h16.22V502.7zm16.22 0v16.22h16.22V502.7zm64.87 0v16.22h16.21V502.7zm64.86 0v16.22h16.22V502.7zm48.65 0v16.22h16.22V502.7zm48.65 0v16.22h16.21V502.7zm32.43 0v16.22h16.22V502.7zm16.22 0v16.22h16.21V502.7zM64.86 518.92v16.22h16.22v-16.22zm16.22 0v16.22H97.3v-16.22zm16.22 0v16.22h16.21v-16.22zm16.21 0v16.22h16.22v-16.22zm16.22 0v16.22h16.22v-16.22zm16.22 0v16.22h16.21v-16.22zm16.21 0v16.22h16.22v-16.22zm32.43 0v16.22h16.22v-16.22zm48.65 0v16.22h16.22v-16.22zm16.22 0v16.22h16.22v-16.22zm16.22 0v16.22h16.21v-16.22zm16.21 0v16.22h16.22v-16.22zm16.22 0v16.22h16.21v-16.22zm48.65 0v16.22h16.21v-16.22zm81.08 0v16.22h16.21v-16.22zm48.65 0v16.22h16.21v-16.22zm16.21 0v16.22h16.22v-16.22z" style="fill:#fff;shape-rendering:crispEdges"/></svg>