<svg xmlns="http://www.w3.org/2000/svg" width="1080" height="1080" viewBox="0 0 1080 1080"><path fill="#f7f7f5" d="M0 0h1080v1080H0z"/><path fill="#0c322c" d="m101.62 298.3-19.74-65.8h6.39l16.55 56.68 17.86-56.68h6.86l17.86 56.78 16.54-56.78h6.39l-19.74 65.8h-6.39l-18.05-57.72-18.04 57.72zm91.46.94q-6.58 0-11.65-2.96t-7.9-8.18q-2.82-5.22-2.82-12.08v-.94q0-6.58 2.63-11.65t7.29-8.04 10.85-2.96q6.3 0 10.81 3.1t6.63 8.74 1.27 13.16h-33.56q.19 4.61 2.31 8.32 2.11 3.71 5.78 5.83 3.66 2.11 8.55 2.11 7.43 0 11.66-3.66l3.38 3.85q-2.54 2.54-6.53 3.95t-8.7 1.41m-1.6-41.55q-6.2 0-10.1 4.04t-4.65 10.72h27.82q.09-6.77-3.52-10.76-3.62-4-9.55-4m72.38 41.55q-5.54 0-10.01-2.68t-7-7.47v9.21h-5.55v-68.62h6.02v32.34q2.54-4.42 6.82-7.01 4.27-2.58 9.72-2.58 6.11 0 10.86 2.91t7.47 8.04 2.73 11.8v.84q0 6.86-2.68 12.13-2.68 5.26-7.42 8.18t-10.96 2.91m-.75-5.36q4.61 0 8.18-2.21t5.59-6.25 2.02-9.4v-.84q0-5.17-2.02-9.07t-5.59-6.11-8.18-2.21-8.27 2.3-5.78 6.34-2.12 9.4q0 5.46 2.12 9.5 2.11 4.04 5.78 6.3t8.27 2.25m48.88 5.36q-4.98 0-8.93-1.93-3.95-1.92-6.2-6.01t-2.26-10.77v-27.16h5.92v26.22q0 7.9 3.58 11 3.57 3.1 8.93 3.1 3.66 0 6.76-1.64 3.11-1.65 5.03-4.89t1.93-8.22v-25.57h5.83v44.93h-5.45v-7.43q-2.73 4.7-7.05 6.54t-8.09 1.83m37.41-.94v-39.67h-9.02v-5.26h14.95v44.93zm-.37-55.27v-10.15h6.67v10.15zm31.3 55.27q-5.17 0-8.32-3.01t-3.15-7.99v-52.45h-8.65v-5.17h14.67v57.72q0 2.44 1.64 4.09 1.65 1.64 4.09 1.64h4.04v5.17zm28.86.94q-6.21 0-10.95-2.91-4.75-2.92-7.43-8.18t-2.68-12.13v-.84q0-6.68 2.73-11.8t7.47-8.04 10.86-2.91q5.45 0 9.73 2.58 4.27 2.59 6.81 7.01v-32.34h6.02v68.62h-5.45v-9.21q-2.64 4.7-7.05 7.42-4.42 2.73-10.06 2.73m.75-5.36q4.61 0 8.27-2.25 3.67-2.26 5.78-6.3t2.12-9.5q0-5.35-2.12-9.4-2.11-4.04-5.78-6.34-3.66-2.3-8.27-2.3t-8.18 2.21-5.59 6.11-2.02 9.07v.84q0 5.36 2.02 9.4t5.59 6.25 8.18 2.21m58.66 4.42v-39.67h-9.03v-5.26h14.95v44.93zm-.38-55.27v-10.15h6.67v10.15zm19.83 55.27v-44.93h5.74v7.99q1.78-3.39 4.46-5.31 2.68-1.93 5.6-2.78t5.45-.84q7.61 0 12.41 4.84t4.79 14.8v26.23h-6.02v-25.47q0-7.9-3.57-11.38t-9.02-3.48q-3.76 0-6.91 1.7-3.15 1.69-5.03 4.98t-1.88 8.27v25.38zm85.54 0q-3 0-5.64-1.22t-4.32-3.71q-1.69-2.5-1.69-6.44v-28.3h-8.37v-5.26h8.37v-11.19h5.92v11.19h12.5v5.26h-12.5v28.67q0 2.54 1.69 4.19 1.69 1.64 4.14 1.64h6.67v5.17zm15.8 0v-68.62h5.73v31.68q1.79-3.39 4.47-5.31 2.67-1.93 5.59-2.78t5.45-.84q7.61 0 12.41 4.84t4.79 14.8v26.23h-6.01v-25.47q0-7.9-3.58-11.38-3.57-3.48-9.02-3.48-3.76 0-6.91 1.7-3.15 1.69-5.03 4.98t-1.88 8.27v25.38zm70.5.94q-6.58 0-11.66-2.96t-7.9-8.18-2.82-12.08v-.94q0-6.58 2.64-11.65 2.63-5.08 7.28-8.04t10.86-2.96q6.3 0 10.81 3.1t6.63 8.74 1.26 13.16h-33.55q.18 4.61 2.3 8.32t5.78 5.83 8.55 2.11q7.43 0 11.66-3.66l3.38 3.85q-2.53 2.54-6.53 3.95t-8.69 1.41m-1.6-41.55q-6.21 0-10.11 4.04t-4.65 10.72h27.82q.1-6.77-3.52-10.76t-9.54-4M727 299.24q-6.39 0-11.37-2.96t-7.8-8.18-2.82-12.08v-.84q0-6.68 2.82-11.8t7.8-8.04 11.37-2.91q6.3 0 11.28 2.91t7.8 7.99 2.82 11.66v1.03q0 6.86-2.82 12.08t-7.8 8.18-11.28 2.96m0-5.36q4.7 0 8.27-2.3 3.58-2.3 5.6-6.3t2.02-9.26v-1.03q0-5.08-2.02-8.93-2.02-3.86-5.6-6.06-3.57-2.21-8.27-2.21t-8.32 2.25-5.68 6.16q-2.07 3.9-2.07 8.98v.84q0 5.27 2.07 9.26t5.68 6.3q3.62 2.3 8.32 2.3m32.24 23.22v-63.73h5.64v9.02q2.64-4.6 7.01-7.28t9.91-2.68q6.11 0 10.86 2.91t7.47 8.04 2.73 11.8v.84q0 6.86-2.68 12.13-2.68 5.26-7.42 8.18t-10.96 2.91q-5.35 0-9.68-2.54t-6.86-6.95v27.35zm21.81-23.22q4.61 0 8.18-2.21t5.59-6.25 2.02-9.4v-.84q0-5.17-2.02-9.07t-5.59-6.11-8.18-2.21-8.27 2.3-5.78 6.34-2.12 9.4q0 5.46 2.12 9.5 2.11 4.04 5.78 6.3t8.27 2.25m51.42 5.36q-6.58 0-11.66-2.96t-7.89-8.18-2.82-12.08v-.94q0-6.58 2.63-11.65t7.29-8.04 10.85-2.96q6.3 0 10.81 3.1t6.63 8.74 1.27 13.16h-33.56q.19 4.61 2.3 8.32 2.12 3.71 5.78 5.83 3.67 2.11 8.56 2.11 7.42 0 11.65-3.66l3.39 3.85q-2.54 2.54-6.53 3.95t-8.7 1.41m-1.6-41.55q-6.2 0-10.1 4.04t-4.66 10.72h27.83q.09-6.77-3.53-10.76t-9.54-4m28.77 40.61v-44.93h5.73v7.99q1.79-3.39 4.47-5.31 2.67-1.93 5.59-2.78t5.45-.84q7.61 0 12.41 4.84t4.79 14.8v26.23h-6.01v-25.47q0-7.9-3.58-11.38-3.57-3.48-9.02-3.48-3.76 0-6.91 1.7-3.15 1.69-5.03 4.98t-1.88 8.27v25.38zM109.99 413.91q-5.55 0-10.01-2.68t-7.01-7.47v9.21h-5.54v-68.62h6.01v32.34q2.54-4.42 6.82-7.01 4.27-2.58 9.73-2.58 6.11 0 10.85 2.91 4.75 2.92 7.48 8.04 2.72 5.12 2.72 11.8v.84q0 6.86-2.68 12.13-2.68 5.26-7.42 8.18t-10.95 2.91m-.76-5.36q4.61 0 8.18-2.21t5.6-6.25q2.02-4.04 2.02-9.4v-.84q0-5.17-2.02-9.07t-5.6-6.11-8.18-2.21-8.27 2.3-5.78 6.34-2.11 9.4q0 5.46 2.11 9.5 2.12 4.04 5.78 6.3t8.27 2.25m51.42 5.36q-6.58 0-11.65-2.96t-7.9-8.18q-2.82-5.22-2.82-12.08v-.94q0-6.58 2.63-11.65t7.29-8.04 10.85-2.96q6.3 0 10.81 3.1t6.63 8.74 1.27 13.16H144.2q.19 4.61 2.31 8.32 2.11 3.71 5.78 5.83 3.66 2.11 8.55 2.11 7.43 0 11.66-3.66l3.38 3.85q-2.54 2.54-6.53 3.95t-8.7 1.41m-1.6-41.55q-6.2 0-10.1 4.04t-4.65 10.72h27.82q.09-6.77-3.52-10.76-3.62-4-9.55-4m48.51 41.55q-6.68 0-11.85-2.91t-8.08-8.04-2.91-11.89v-1.22q0-6.68 2.96-11.8t8.08-8.04 11.8-2.91q4.89 0 8.83 1.74t6.77 4.84l-3.76 3.76q-4.6-4.8-11.94-4.8-4.88 0-8.69 2.17t-5.97 6.06-2.16 8.98v1.22q0 5.17 2.21 9.07t6.01 6.06 8.7 2.16q7.33 0 12.03-4.79l3.67 3.76q-2.82 3.1-6.82 4.84t-8.88 1.74m38.16 0q-7.8 0-12.41-3.67-4.6-3.66-4.6-9.58 0-3.95 2.25-6.96t6.26-4.75q3.99-1.74 9.16-1.74 4.14 0 7.29.99 3.14.99 5.31 2.77v-6.95q0-6.11-3.11-8.79t-8.36-2.68q-3.76 0-7.66 1.36-3.9 1.37-6.54 4.37l-2.91-4.23q3.01-3.47 7.71-5.21t9.68-1.74q7.71 0 12.41 4.13t4.7 12.51v14.28q0 7.52.28 14.95h-5.36l-.09-4.89q-4.04 5.83-14.01 5.83m1.41-4.61q5.74 0 8.79-2.44 3.06-2.44 3.06-6.2 0-3.86-3.11-6.21t-8.83-2.35q-5.64 0-8.93 2.35t-3.29 6.21q0 3.76 3.29 6.2t9.02 2.44m47.47 4.61q-4.98 0-8.93-1.93-3.95-1.92-6.2-6.01t-2.26-10.77v-27.16h5.92v26.22q0 7.9 3.58 11 3.57 3.1 8.93 3.1 3.66 0 6.76-1.64 3.11-1.65 5.03-4.89t1.93-8.22v-25.57h5.83v44.93h-5.45v-7.43q-2.73 4.7-7.05 6.54t-8.09 1.83m45.97-.09q-4.7 0-9.03-1.51-4.32-1.5-6.95-4.04l2.72-4.14q2.45 2.26 6.02 3.58 3.57 1.31 7.24 1.31 4.6 0 7.52-2.16t2.91-5.73q0-2.92-1.78-4.52-1.79-1.59-4.66-2.44-2.86-.85-6.01-1.64-3.15-.8-5.97-2.07t-4.61-3.62-1.78-6.58q0-5.83 4.32-9.5t11.56-3.66q4.14 0 7.76 1.27t6.34 3.33l-2.72 4.23q-2.35-1.88-5.27-2.91t-6.2-1.03q-4.51 0-7.29 2.16-2.77 2.16-2.77 5.64 0 2.91 1.79 4.46 1.78 1.55 4.65 2.45 2.87.89 6.06 1.69 3.2.8 6.07 2.11 2.86 1.32 4.65 3.76 1.78 2.45 1.78 6.68 0 5.64-4.55 9.26t-11.8 3.62m45.49.09q-6.58 0-11.65-2.96t-7.9-8.18-2.82-12.08v-.94q0-6.58 2.63-11.65 2.64-5.08 7.29-8.04t10.86-2.96q6.29 0 10.81 3.1 4.51 3.1 6.62 8.74t1.27 13.16h-33.56q.19 4.61 2.31 8.32 2.11 3.71 5.78 5.83 3.66 2.11 8.55 2.11 7.43 0 11.66-3.66l3.38 3.85q-2.54 2.54-6.53 3.95t-8.7 1.41m-1.59-41.55q-6.21 0-10.11 4.04t-4.65 10.72h27.82q.1-6.77-3.52-10.76t-9.54-4m63.07 40.61q-3.01 0-5.64-1.22t-4.32-3.71q-1.7-2.5-1.7-6.44v-28.3h-8.36v-5.26h8.36v-11.19h5.93v11.19h12.5v5.26h-12.5v28.67q0 2.54 1.69 4.19 1.69 1.64 4.13 1.64h6.68v5.17zm15.79 0v-68.62h5.74v31.68q1.78-3.39 4.46-5.31 2.68-1.93 5.59-2.78 2.92-.84 5.46-.84 7.61 0 12.4 4.84t4.8 14.8v26.23h-6.02V387.5q0-7.9-3.57-11.38t-9.02-3.48q-3.76 0-6.91 1.7-3.15 1.69-5.03 4.98t-1.88 8.27v25.38zm70.5.94q-6.58 0-11.65-2.96t-7.9-8.18q-2.82-5.22-2.82-12.08v-.94q0-6.58 2.63-11.65t7.29-8.04q4.65-2.96 10.85-2.96 6.3 0 10.81 3.1t6.63 8.74 1.27 13.16h-33.56q.19 4.61 2.31 8.32 2.11 3.71 5.78 5.83 3.66 2.11 8.55 2.11 7.43 0 11.66-3.66l3.38 3.85q-2.54 2.54-6.53 3.95t-8.7 1.41m-1.6-41.55q-6.2 0-10.1 4.04t-4.65 10.72h27.82q.09-6.77-3.52-10.76-3.62-4-9.55-4m72.38 41.55q-5.54 0-10.01-2.68t-7-7.47v9.21h-5.55v-68.62h6.02v32.34q2.54-4.42 6.82-7.01 4.27-2.58 9.72-2.58 6.11 0 10.86 2.91t7.47 8.04 2.73 11.8v.84q0 6.86-2.68 12.13-2.68 5.26-7.42 8.18t-10.96 2.91m-.75-5.36q4.61 0 8.18-2.21t5.59-6.25 2.02-9.4v-.84q0-5.17-2.02-9.07t-5.59-6.11-8.18-2.21-8.27 2.3-5.78 6.34-2.12 9.4q0 5.46 2.12 9.5 2.11 4.04 5.78 6.3t8.27 2.25m51.42 5.36q-6.58 0-11.66-2.96t-7.89-8.18-2.82-12.08v-.94q0-6.58 2.63-11.65t7.29-8.04q4.65-2.96 10.85-2.96 6.3 0 10.81 3.1t6.63 8.74 1.27 13.16h-33.56q.19 4.61 2.3 8.32 2.12 3.71 5.78 5.83 3.67 2.11 8.56 2.11 7.42 0 11.65-3.66l3.39 3.85q-2.54 2.54-6.53 3.95t-8.7 1.41m-1.6-41.55q-6.2 0-10.1 4.04t-4.66 10.72h27.83q.09-6.77-3.53-10.76t-9.54-4m40.7 41.46q-4.7 0-9.02-1.51-4.32-1.5-6.96-4.04l2.73-4.14q2.44 2.26 6.02 3.58 3.57 1.31 7.23 1.31 4.61 0 7.52-2.16 2.92-2.16 2.92-5.73 0-2.92-1.79-4.52-1.78-1.59-4.65-2.44t-6.02-1.64q-3.15-.8-5.97-2.07t-4.6-3.62-1.79-6.58q0-5.83 4.33-9.5t11.56-3.66q4.13 0 7.75 1.27t6.35 3.33l-2.73 4.23q-2.35-1.88-5.26-2.91-2.92-1.03-6.21-1.03-4.51 0-7.28 2.16t-2.77 5.64q0 2.91 1.78 4.46 1.79 1.55 4.65 2.45 2.87.89 6.07 1.69 3.19.8 6.06 2.11 2.87 1.32 4.65 3.76 1.79 2.45 1.79 6.68 0 5.64-4.56 9.26t-11.8 3.62m40.71-.85q-3.01 0-5.64-1.22-2.64-1.22-4.33-3.71t-1.69-6.44v-28.3h-8.37v-5.26h8.37v-11.19h5.92v11.19h12.5v5.26h-12.5v28.67q0 2.54 1.69 4.19 1.7 1.64 4.14 1.64h6.67v5.17zm39.19 0V373.3h-9.02v-5.26h14.95v44.93zm-.37-55.27v-10.15h6.67v10.15zm37.79 56.21q-6.21 0-10.95-2.91-4.75-2.92-7.43-8.18t-2.68-12.13v-.84q0-6.68 2.73-11.8t7.47-8.04 10.86-2.91q5.45 0 9.73 2.58 4.27 2.59 6.81 7.01v-32.34h6.02v68.62h-5.46v-9.21q-2.63 4.7-7.05 7.42-4.41 2.73-10.05 2.73m.75-5.36q4.6 0 8.27-2.25t5.78-6.3 2.12-9.5q0-5.35-2.12-9.4-2.11-4.04-5.78-6.34t-8.27-2.3-8.18 2.21q-3.57 2.2-5.59 6.11-2.02 3.9-2.02 9.07v.84q0 5.36 2.02 9.4t5.59 6.25 8.18 2.21m54.52 5.36q-6.58 0-11.66-2.96t-7.89-8.18-2.82-12.08v-.94q0-6.58 2.63-11.65t7.28-8.04 10.86-2.96q6.3 0 10.81 3.1t6.63 8.74 1.27 13.16h-33.56q.19 4.61 2.3 8.32 2.12 3.71 5.78 5.83 3.67 2.11 8.56 2.11 7.42 0 11.65-3.66l3.39 3.85q-2.54 2.54-6.54 3.95t-8.69 1.41m-1.6-41.55q-6.2 0-10.1 4.04-3.91 4.05-4.66 10.72h27.83q.09-6.77-3.53-10.76t-9.54-4m42.11 41.55q-7.8 0-12.41-3.67-4.6-3.66-4.6-9.58 0-3.95 2.25-6.96t6.26-4.75q3.99-1.74 9.16-1.74 4.14 0 7.29.99 3.14.99 5.31 2.77v-6.95q0-6.11-3.11-8.79t-8.36-2.68q-3.76 0-7.66 1.36-3.9 1.37-6.54 4.37l-2.91-4.23q3.01-3.47 7.71-5.21t9.68-1.74q7.71 0 12.41 4.13t4.7 12.51v14.28q0 7.52.28 14.95h-5.36l-.09-4.89q-4.04 5.83-14.01 5.83m1.41-4.61q5.74 0 8.79-2.44 3.06-2.44 3.06-6.2 0-3.86-3.11-6.21t-8.83-2.35q-5.64 0-8.93 2.35t-3.29 6.21q0 3.76 3.29 6.2t9.02 2.44m42.68 4.52q-4.7 0-9.03-1.51-4.32-1.5-6.95-4.04l2.72-4.14q2.45 2.26 6.02 3.58 3.57 1.31 7.24 1.31 4.6 0 7.52-2.16t2.91-5.73q0-2.92-1.78-4.52-1.79-1.59-4.66-2.44-2.86-.85-6.01-1.64-3.15-.8-5.97-2.07t-4.61-3.62-1.78-6.58q0-5.83 4.32-9.5t11.56-3.66q4.14 0 7.76 1.27t6.34 3.33l-2.72 4.23q-2.35-1.88-5.27-2.91t-6.2-1.03q-4.51 0-7.29 2.16-2.77 2.16-2.77 5.64 0 2.91 1.79 4.46 1.78 1.55 4.65 2.45 2.87.89 6.06 1.69 3.2.8 6.07 2.11 2.86 1.32 4.65 3.76 1.78 2.45 1.78 6.68 0 5.64-4.55 9.26t-11.8 3.62m-844.4 114.76q-6.68 0-11.85-2.91t-8.08-8.04-2.92-11.89v-1.22q0-6.68 2.97-11.8 2.96-5.12 8.08-8.04t11.8-2.91q4.88 0 8.83 1.74t6.77 4.84l-3.76 3.76q-4.61-4.8-11.94-4.8-4.89 0-8.69 2.17-3.81 2.16-5.97 6.06t-2.16 8.98v1.22q0 5.17 2.21 9.07t6.01 6.06 8.7 2.16q7.33 0 12.03-4.79l3.66 3.76q-2.82 3.1-6.81 4.84-4 1.74-8.88 1.74m42.3 0q-6.4 0-11.38-2.96t-7.8-8.18-2.82-12.08v-.84q0-6.68 2.82-11.8t7.8-8.04 11.38-2.91q6.29 0 11.28 2.91t7.8 7.99 2.82 11.66v1.03q0 6.86-2.82 12.08t-7.8 8.18-11.28 2.96m0-5.36q4.7 0 8.27-2.3t5.59-6.3 2.02-9.26v-1.03q0-5.08-2.02-8.93-2.02-3.86-5.59-6.06-3.57-2.21-8.27-2.21t-8.32 2.25-5.69 6.16-2.07 8.98v.84q0 5.27 2.07 9.26t5.69 6.3 8.32 2.3m32.24 4.42v-44.93h5.73v7.89q2.54-4.98 6.68-6.9 4.13-1.93 8.17-1.93 5.17 0 8.98 2.35t5.59 7.33q1.88-3.67 4.56-5.78t5.64-3.01 5.69-.89q7.33 0 11.89 4.75t4.56 14.71v26.41h-5.83v-25.76q0-7.7-3.29-11.14-3.29-3.43-8.65-3.43-5.45 0-9.21 3.72-3.76 3.71-3.76 10.76v25.85h-5.92v-25.76q0-7.7-3.24-11.14-3.25-3.43-8.6-3.43-5.55 0-9.31 3.72-3.76 3.71-3.76 10.76v25.85zm99.54.94q-6.58 0-11.65-2.96t-7.9-8.18-2.82-12.08v-.94q0-6.58 2.63-11.65 2.64-5.08 7.29-8.04t10.86-2.96q6.29 0 10.81 3.1 4.51 3.1 6.62 8.74t1.27 13.16H264.8q.19 4.61 2.31 8.32 2.11 3.71 5.78 5.83 3.66 2.11 8.55 2.11 7.43 0 11.66-3.66l3.38 3.85q-2.54 2.54-6.53 3.95t-8.7 1.41m-1.59-41.55q-6.21 0-10.11 4.04t-4.65 10.72h27.82q.1-6.77-3.52-10.76t-9.54-4m51.88 40.61v-39.67h-8.55v-5.26h8.55v-12.32q0-5.17 3.29-8.27t8.46-3.1h7.43v5.17h-7.43q-2.53 0-4.18 1.65-1.64 1.64-1.64 4.08v12.79h13.25v5.26h-13.25v39.67zm26.79 0v-44.93h5.83v7.33q1.69-4.32 5.03-5.87 3.34-1.56 7.57-1.56h3.85v5.93h-4.32q-5.55 0-8.74 2.86-3.2 2.87-3.2 8.98v27.26zm46.82.94q-6.4 0-11.38-2.96t-7.8-8.18-2.82-12.08v-.84q0-6.68 2.82-11.8t7.8-8.04 11.38-2.91q6.29 0 11.28 2.91t7.8 7.99 2.82 11.66v1.03q0 6.86-2.82 12.08t-7.8 8.18-11.28 2.96m0-5.36q4.7 0 8.27-2.3t5.59-6.3 2.02-9.26v-1.03q0-5.08-2.02-8.93-2.02-3.86-5.59-6.06-3.57-2.21-8.27-2.21t-8.32 2.25-5.69 6.16-2.07 8.98v.84q0 5.27 2.07 9.26t5.69 6.3 8.32 2.3m32.24 4.42v-44.93h5.73v7.89q2.54-4.98 6.68-6.9 4.13-1.93 8.17-1.93 5.17 0 8.98 2.35t5.59 7.33q1.88-3.67 4.56-5.78t5.64-3.01 5.69-.89q7.33 0 11.89 4.75t4.56 14.71v26.41h-5.83v-25.76q0-7.7-3.29-11.14-3.29-3.43-8.65-3.43-5.45 0-9.21 3.72-3.76 3.71-3.76 10.76v25.85h-5.92v-25.76q0-7.7-3.24-11.14-3.25-3.43-8.6-3.43-5.55 0-9.31 3.72-3.76 3.71-3.76 10.76v25.85zm120.6.94q-6.58 0-11.66-2.96t-7.89-8.18-2.82-12.08v-.94q0-6.58 2.63-11.65t7.29-8.04 10.85-2.96q6.3 0 10.81 3.1t6.63 8.74 1.27 13.16h-33.56q.19 4.61 2.3 8.32 2.12 3.71 5.78 5.83 3.67 2.11 8.56 2.11 7.42 0 11.65-3.66l3.39 3.85q-2.54 2.54-6.53 3.95t-8.7 1.41m-1.6-41.55q-6.2 0-10.1 4.04t-4.66 10.72h27.83q.09-6.77-3.53-10.76t-9.54-4m40.23 40.61-18.14-44.93h6.21l15.13 37.79 15.04-37.79h6.2l-18.04 44.93zm50.39.94q-6.58 0-11.66-2.96t-7.89-8.18-2.82-12.08v-.94q0-6.58 2.63-11.65t7.28-8.04 10.86-2.96q6.3 0 10.81 3.1t6.63 8.74 1.27 13.16h-33.56q.19 4.61 2.3 8.32 2.12 3.71 5.78 5.83 3.67 2.11 8.56 2.11 7.42 0 11.65-3.66l3.39 3.85q-2.54 2.54-6.54 3.95t-8.69 1.41m-1.6-41.55q-6.2 0-10.11 4.04t-4.65 10.72h27.83q.09-6.77-3.53-10.76t-9.54-4m28.76 40.61v-44.93H680v7.33q1.69-4.32 5.03-5.87 3.34-1.56 7.57-1.56h3.85v5.93h-4.32q-5.55 0-8.74 2.86-3.2 2.87-3.2 8.98v27.26zm24.73 18.8v-5.17h8.55q2.35 0 3.71-1.64 1.37-1.65 2.21-3.81l3.48-7.8-18.61-45.31h6.58l15.23 37.97 14.75-37.97h6.58l-21.9 53.3q-1.03 2.53-2.49 4.93t-3.81 3.95-6.01 1.55zm57.99-18.8-13.34-44.93h6.01l11 38.82 11.37-38.82h6.3l11.38 38.63 11.09-38.63h5.92l-13.35 44.93h-6.77l-11.46-39.29-11.38 39.29zm58 0v-68.62h5.74v31.68q1.78-3.39 4.46-5.31 2.68-1.93 5.59-2.78 2.92-.84 5.46-.84 7.61 0 12.4 4.84t4.8 14.8v26.23h-6.02v-25.47q0-7.9-3.57-11.38t-9.02-3.48q-3.76 0-6.91 1.7-3.15 1.69-5.03 4.98t-1.88 8.27v25.38zm70.5.94q-6.58 0-11.65-2.96t-7.9-8.18-2.82-12.08v-.94q0-6.58 2.63-11.65t7.29-8.04q4.65-2.96 10.85-2.96 6.3 0 10.81 3.1t6.63 8.74 1.27 13.16h-33.56q.19 4.61 2.31 8.32 2.11 3.71 5.78 5.83 3.66 2.11 8.55 2.11 7.43 0 11.66-3.66l3.38 3.85q-2.54 2.54-6.53 3.95t-8.7 1.41m-1.6-41.55q-6.2 0-10.1 4.04t-4.65 10.72h27.82q.09-6.77-3.52-10.76-3.62-4-9.55-4m28.77 40.61v-44.93h5.83v7.33q1.69-4.32 5.03-5.87 3.33-1.56 7.56-1.56h3.86v5.93h-4.33q-5.54 0-8.74 2.86-3.2 2.87-3.2 8.98v27.26zm47.19.94q-6.58 0-11.66-2.96t-7.9-8.18-2.82-12.08v-.94q0-6.58 2.64-11.65 2.63-5.08 7.28-8.04t10.86-2.96q6.3 0 10.81 3.1t6.63 8.74 1.26 13.16H943.3q.18 4.61 2.3 8.32t5.78 5.83 8.55 2.11q7.43 0 11.66-3.66l3.38 3.85q-2.53 2.54-6.53 3.95t-8.69 1.41m-1.6-41.55q-6.21 0-10.11 4.04t-4.65 10.72h27.82q.1-6.77-3.52-10.76t-9.54-4m27.35 40.61v-8.65h7.24v8.65z"/><path fill="#0c322c" fill-opacity=".12" d="M80 852.31h920v2H80z"/><path fill="#0c322c" d="M82.53 926.31v-22.4h5.25l5.5 12.22 5.47-12.22h5.28v22.4h-3.84v-17.25l-5.44 12.48h-2.94l-5.47-12.48v17.25zm32.67.32q-2.34 0-4.11-1.01t-2.77-2.81q-.99-1.81-.99-4.21v-.32q0-2.21.91-4t2.59-2.83 3.92-1.04q2.34 0 4 1.13 1.67 1.14 2.43 3.22t.42 4.89h-10.62q.19 1.64 1.32 2.71t3.09 1.07q1.15 0 1.99-.32.83-.32 1.5-.96l2.08 2.18q-.93 1.15-2.42 1.72t-3.34.58m-.42-13.25q-1.63 0-2.56 1.01-.92 1.01-1.18 2.64h7.04q-.06-1.73-.98-2.69t-2.32-.96m11.3 12.93v-12.45h-2.82v-3.13h6.53v15.58zm-.16-18.69v-4.25h4.1v4.25zm25.92 19.14q-2.4 0-4.5-.83-2.09-.84-3.68-2.37-1.58-1.54-2.46-3.62t-.88-4.61v-.44q0-2.53.88-4.61t2.46-3.62 3.68-2.37 4.5-.83q2.24 0 4.1.71 1.85.7 3.29 1.98l-2.49 2.98q-2.02-1.83-4.9-1.83-2.14 0-3.86.96t-2.68 2.67q-.98 1.72-.98 3.96v.44q0 2.24.98 3.96.97 1.71 2.68 2.67t3.86.96q2.98 0 4.99-1.92l2.53 2.94q-1.47 1.35-3.39 2.08-1.92.74-4.13.74m10.34-.45v-23.36h3.55v9.76q.96-1.38 2.29-1.84 1.32-.46 2.41-.46 2.63 0 4.21 1.71t1.58 4.91v9.28h-3.68v-8.67q0-2.05-.88-2.96t-2.25-.91q-1.51 0-2.53 1-1.02 1.01-1.02 2.93v8.61zm25.05.32q-2.33 0-4.11-1.01t-2.77-2.81-.99-4.21v-.32q0-2.21.91-4t2.59-2.83 3.92-1.04q2.34 0 4 1.13 1.67 1.14 2.44 3.22.76 2.08.41 4.89h-10.62q.19 1.64 1.33 2.71 1.13 1.07 3.08 1.07 1.16 0 1.99-.32t1.5-.96l2.08 2.18q-.93 1.15-2.41 1.72-1.49.58-3.35.58m-.41-13.25q-1.64 0-2.56 1.01t-1.19 2.64h7.04q-.06-1.73-.97-2.69-.92-.96-2.32-.96m10.14 12.93v-15.58h3.55v1.98q.96-1.38 2.29-1.84t2.42-.46q2.62 0 4.2 1.71 1.59 1.71 1.59 4.91v9.28h-3.68v-8.67q0-2.05-.88-2.96t-2.26-.91q-1.5 0-2.53 1-1.02 1.01-1.02 2.93v8.61zm-104.9 66.61q-2.25 0-4.21-.78-1.97-.78-3.46-2.22-1.48-1.44-2.3-3.39-.83-1.95-.83-4.32v-.42q0-2.37.83-4.32.82-1.95 2.3-3.39 1.49-1.44 3.46-2.22 1.96-.78 4.21-.78 2.1 0 3.84.66t3.09 1.86l-2.34 2.79q-1.89-1.71-4.59-1.71-2.01 0-3.61.9-1.61.9-2.52 2.51-.92 1.6-.92 3.7v.42q0 2.1.92 3.71.91 1.6 2.52 2.5t3.61.9q2.79 0 4.68-1.8l2.37 2.76q-1.38 1.26-3.18 1.95t-3.87.69m15.57-.12q-2.13 0-3.84-.96t-2.7-2.65-.99-3.89v-.27q0-2.19.99-3.87t2.7-2.62 3.84-.95 3.83.95q1.69.94 2.68 2.62t.99 3.84v.3q0 2.19-.99 3.89-.99 1.69-2.68 2.65t-3.83.96m0-3.06q1.8 0 2.93-1.24 1.12-1.25 1.12-3.2v-.3q0-1.92-1.12-3.13-1.13-1.22-2.93-1.22-1.77 0-2.91 1.23t-1.14 3.15v.27q0 1.95 1.14 3.2 1.14 1.24 2.91 1.24m10.59 2.76v-14.61h3.3v1.83q.84-1.23 2.01-1.68t2.25-.45q1.44 0 2.54.59 1.09.58 1.75 1.78.66-.96 1.52-1.47.85-.51 1.7-.7.86-.2 1.55-.2 2.37 0 3.87 1.53t1.5 4.5v8.88h-3.42v-8.37q0-1.77-.76-2.58-.77-.81-2.06-.81-1.32 0-2.18.89-.85.88-.85 2.5v8.37h-3.45v-8.37q0-1.77-.76-2.58-.77-.81-2.03-.81-1.32 0-2.19.89-.87.88-.87 2.5v8.37zm25.83 0v-14.61h3.3v1.83q.84-1.23 2.01-1.68t2.25-.45q1.44 0 2.54.59 1.09.58 1.75 1.78.66-.96 1.51-1.47.86-.51 1.72-.7.85-.2 1.54-.2 2.37 0 3.87 1.53t1.5 4.5v8.88h-3.42v-8.37q0-1.77-.76-2.58-.77-.81-2.06-.81-1.32 0-2.17.89-.86.88-.86 2.5v8.37h-3.45v-8.37q0-1.77-.77-2.58-.76-.81-2.02-.81-1.32 0-2.19.89-.87.88-.87 2.5v8.37zm31.26.3q-2.4 0-4-1.45-1.61-1.46-1.61-4.46v-9h3.45v8.34q0 1.89.83 2.66.82.76 2.11.76 1.38 0 2.3-.88.91-.89.91-2.69v-8.19h3.45v14.61h-3v-1.77q-.93 1.23-2.17 1.65-1.25.42-2.27.42m11.46-.3v-14.61h3.33v1.86q.9-1.29 2.14-1.72 1.25-.44 2.27-.44 2.46 0 3.95 1.61 1.48 1.6 1.48 4.6v8.7h-3.45v-8.13q0-1.92-.82-2.77-.83-.86-2.12-.86-1.41 0-2.37.95-.96.94-.96 2.74v8.07zm18.03 0v-11.67h-2.64v-2.94h6.12v14.61zm-.15-17.52v-3.99h3.84v3.99zm13.17 17.52q-1.05 0-2.09-.36t-1.72-1.3q-.69-.95-.69-2.63v-7.38h-2.49v-2.94h2.49v-3.57h3.45v3.57h3.39v2.94h-3.39v7.65q0 .45.32.77.31.31.76.31h2.31v2.94zm4.26 6v-2.94h3.18q.42 0 .66-.24t.42-.63l.9-1.98-5.94-14.82h3.84l3.96 10.59 3.6-10.59h3.84l-6.75 16.95q-.33.84-.84 1.7-.51.85-1.42 1.4-.92.56-2.45.56zm23.07-6v-21h7.56q2.97 0 5.33 1.31 2.35 1.3 3.7 3.61t1.35 5.34v.33q0 2.28-.78 4.19-.78 1.9-2.2 3.3-1.43 1.39-3.32 2.16-1.89.76-4.08.76zm7.26-17.55h-3.6v14.1h3.6q2.01 0 3.57-.87t2.46-2.44.9-3.65v-.33q0-2.04-.88-3.57-.89-1.53-2.45-2.38-1.56-.86-3.6-.86m15.21 17.55v-11.67h-2.64v-2.94h6.12v14.61zm-.15-17.52v-3.99h3.84v3.99zm7.62 17.52v-14.61h3.33v2.13q.54-1.26 1.59-1.75 1.05-.5 2.34-.5h1.2v3.42h-1.47q-1.71 0-2.62.78t-.92 2.28v8.25zm16.86.3q-2.19 0-3.85-.94-1.67-.95-2.6-2.64t-.93-3.95v-.3q0-2.07.86-3.75.85-1.68 2.43-2.65 1.57-.98 3.67-.98 2.19 0 3.75 1.07 1.56 1.06 2.28 3.01t.39 4.59h-9.96q.18 1.53 1.25 2.54 1.06 1 2.89 1 1.08 0 1.86-.3t1.41-.9l1.95 2.04q-.87 1.08-2.27 1.62-1.39.54-3.13.54m-.39-12.42q-1.53 0-2.4.95-.87.94-1.11 2.47h6.6q-.06-1.62-.91-2.52t-2.18-.9m16.2 12.42q-2.19 0-3.91-.94-1.73-.95-2.72-2.63t-.99-3.87v-.33q0-2.22 1.01-3.9 1-1.68 2.73-2.61 1.72-.93 3.88-.93 1.62 0 3.03.65 1.41.64 2.28 1.78l-2.1 2.13q-.6-.69-1.42-1.03-.83-.35-1.76-.35-1.8 0-2.99 1.14-1.18 1.14-1.18 3.12v.33q0 1.95 1.21 3.11 1.22 1.15 2.99 1.15.9 0 1.73-.31.82-.32 1.51-1.01l2.07 2.07q-.87 1.14-2.31 1.79-1.44.64-3.06.64m13.62-.3q-1.05 0-2.08-.36-1.04-.36-1.73-1.3t-.69-2.63v-7.38h-2.49v-2.94h2.49v-3.57h3.45v3.57h3.39v2.94h-3.39v7.65q0 .45.32.77.31.31.76.31h2.31v2.94zm11.61.3q-2.13 0-3.84-.96t-2.7-2.65-.99-3.89v-.27q0-2.19.99-3.87t2.7-2.62 3.84-.95 3.83.95q1.69.94 2.68 2.62t.99 3.84v.3q0 2.19-.99 3.89-.99 1.69-2.68 2.65t-3.83.96m0-3.06q1.8 0 2.93-1.24 1.12-1.25 1.12-3.2v-.3q0-1.92-1.12-3.13-1.13-1.22-2.93-1.22-1.77 0-2.91 1.23t-1.14 3.15v.27q0 1.95 1.14 3.2 1.14 1.24 2.91 1.24m10.59 2.76v-14.61h3.33v2.13q.54-1.26 1.59-1.75 1.05-.5 2.34-.5h1.2v3.42h-1.47q-1.71 0-2.62.78t-.92 2.28v8.25z"/></svg>