<svg xmlns="http://www.w3.org/2000/svg" width="1080" height="1080" viewBox="0 0 1080 1080"><path fill="#30ba78" d="M0 0h1080v1080H0z"/><path fill="#0c322c" d="M431.59 176v-68.67q0-10.36 4.73-18.21 4.74-7.84 13.1-12.28t19.17-4.44h18.05v28.86h-16.13q-3.26 0-5.03 1.92-1.78 1.93-1.78 5.18v14.51h22.94V176zm63.64 0v-68.67q0-10.36 4.73-18.21 4.74-7.84 13.1-12.28t19.17-4.44h18.05v28.86h-16.13q-3.26 0-5.03 1.92-1.78 1.93-1.78 5.18v14.51h22.94V176zm-62.05 119.36v-65.8h6.3v38.82l31.87-38.82h7.42l-23.12 28.2 25.19 37.6h-7.61l-21.72-32.52-12.03 14.75v17.77zm68.72.94q-4.98 0-8.93-1.93-3.95-1.92-6.21-6.01t-2.25-10.77v-27.16h5.92v26.22q0 7.9 3.57 11t8.93 3.1q3.67 0 6.77-1.64 3.1-1.65 5.03-4.89t1.93-8.22v-25.57h5.82v44.93h-5.45v-7.43q-2.72 4.7-7.05 6.54t-8.08 1.83m56.59 0q-5.55 0-10.01-2.68t-7.01-7.47v9.21h-5.54v-68.62h6.01v32.34q2.54-4.42 6.82-7.01 4.27-2.58 9.73-2.58 6.11 0 10.85 2.91 4.75 2.92 7.48 8.04 2.72 5.12 2.72 11.8v.84q0 6.86-2.68 12.13-2.68 5.26-7.42 8.18t-10.95 2.91m-.76-5.36q4.61 0 8.18-2.21t5.6-6.25q2.02-4.04 2.02-9.4v-.84q0-5.17-2.02-9.07t-5.6-6.11-8.18-2.21-8.27 2.3q-3.66 2.3-5.78 6.34-2.11 4.05-2.11 9.4 0 5.46 2.11 9.5 2.12 4.04 5.78 6.3t8.27 2.25m51.42 5.36q-6.58 0-11.65-2.96t-7.9-8.18-2.82-12.08v-.94q0-6.58 2.63-11.65t7.29-8.04 10.85-2.96q6.3 0 10.81 3.1t6.63 8.74 1.27 13.16H592.7q.19 4.61 2.31 8.32 2.11 3.71 5.78 5.83 3.66 2.11 8.55 2.11 7.43 0 11.66-3.66l3.38 3.85q-2.54 2.54-6.53 3.95t-8.7 1.41m-1.6-41.55q-6.2 0-10.1 4.04t-4.65 10.72h27.82q.09-6.77-3.52-10.76-3.62-4-9.55-4m28.77 40.61v-44.93h5.83v7.33q1.69-4.32 5.03-5.87 3.33-1.56 7.56-1.56h3.86v5.93h-4.33q-5.54 0-8.74 2.86-3.2 2.87-3.2 8.98v27.26zm30.27 0v-44.93h5.73v7.99q1.79-3.39 4.47-5.31 2.67-1.93 5.59-2.78t5.45-.84q7.61 0 12.41 4.84t4.79 14.8v26.23h-6.01v-25.47q0-7.9-3.58-11.38-3.57-3.48-9.02-3.48-3.76 0-6.91 1.7-3.15 1.69-5.03 4.98t-1.88 8.27v25.38zm70.5.94q-6.58 0-11.66-2.96t-7.9-8.18-2.82-12.08v-.94q0-6.58 2.64-11.65 2.63-5.08 7.28-8.04t10.86-2.96q6.3 0 10.81 3.1t6.63 8.74 1.26 13.16h-33.55q.18 4.61 2.3 8.32t5.78 5.83 8.55 2.11q7.43 0 11.66-3.66l3.38 3.85q-2.53 2.54-6.53 3.95t-8.69 1.41m-1.6-41.55q-6.21 0-10.11 4.04t-4.65 10.72h27.82q.1-6.77-3.52-10.76t-9.54-4m42.77 40.61q-3.01 0-5.64-1.22t-4.33-3.71q-1.69-2.5-1.69-6.44v-28.3h-8.36v-5.26h8.36v-11.19h5.92v11.19h12.51v5.26h-12.51v28.67q0 2.54 1.7 4.19 1.69 1.64 4.13 1.64h6.68v5.17zm33.56.94q-6.58 0-11.66-2.96t-7.9-8.18-2.82-12.08v-.94q0-6.58 2.64-11.65 2.63-5.08 7.28-8.04t10.86-2.96q6.3 0 10.81 3.1t6.63 8.74 1.26 13.16h-33.55q.18 4.61 2.3 8.32t5.78 5.83 8.55 2.11q7.43 0 11.66-3.66l3.38 3.85q-2.53 2.54-6.53 3.95t-8.69 1.41m-1.6-41.55q-6.21 0-10.11 4.04t-4.65 10.72h27.82q.1-6.77-3.52-10.76t-9.54-4m40.7 41.46q-4.7 0-9.02-1.51-4.33-1.5-6.96-4.04l2.73-4.14q2.44 2.26 6.01 3.58 3.57 1.31 7.24 1.31 4.61 0 7.52-2.16t2.91-5.73q0-2.92-1.78-4.52-1.79-1.59-4.65-2.44t-6.02-1.64q-3.15-.8-5.97-2.07t-4.61-3.62-1.78-6.58q0-5.83 4.32-9.5t11.56-3.66q4.14 0 7.76 1.27t6.34 3.33l-2.72 4.23q-2.35-1.88-5.27-2.91t-6.2-1.03q-4.51 0-7.28 2.16t-2.78 5.64q0 2.91 1.79 4.46 1.78 1.55 4.65 2.45 2.87.89 6.06 1.69 3.2.8 6.07 2.11 2.86 1.32 4.65 3.76 1.79 2.45 1.79 6.68 0 5.64-4.56 9.26t-11.8 3.62M427.07 428.83v-5.08h26.61q3.66 0 5.78-1.83 2.11-1.83 2.11-5.03 0-3.01-2.11-4.7-2.12-1.69-5.78-1.69h-14.29q-3.48 0-5.27-1.64-1.78-1.65-1.97-4.09-.19-2.45 1.03-4.8l3.11-6.2q-3.48-2.07-5.5-5.5t-2.02-7.66v-.85q0-4.6 2.39-8.13 2.4-3.52 6.68-5.5 4.27-1.97 9.82-1.97 1.41 0 2.63.09l4.8-9.77h6.01l-5.73 10.81q5.07 1.69 8.13 5.45 3.05 3.76 3.05 8.74v1.13q0 4.7-2.39 8.32t-6.68 5.68q-4.27 2.07-9.82 2.07-3.48 0-6.58-.84l-2.44 4.7q-.47 1.03-.61 2.21-.15 1.17.61 2.02.75.84 2.63.84h13.16q5.73 0 9.26 2.92t3.52 8.36q0 5.36-3.57 8.65t-9.49 3.29zm20.59-36.94q3.01 0 6.02-1.08t5.03-3.62 2.02-7.15q0-4.88-3.67-7.89t-9.4-3.01-9.4 3.01-3.67 7.89q0 4.52 2.07 7.1t5.13 3.67 5.87 1.08m42.02 19.08q-7.8 0-12.41-3.67t-4.61-9.58q0-3.95 2.26-6.96t6.25-4.75 9.17-1.74q4.13 0 7.28.99t5.31 2.77v-6.95q0-6.11-3.1-8.79t-8.37-2.68q-3.76 0-7.66 1.36-3.9 1.37-6.53 4.37l-2.91-4.23q3-3.47 7.7-5.21t9.69-1.74q7.7 0 12.4 4.13t4.7 12.51v14.28q0 7.52.29 14.95h-5.36l-.1-4.89q-4.04 5.83-14 5.83m1.41-4.61q5.73 0 8.79-2.44t3.05-6.2q0-3.86-3.1-6.21t-8.84-2.35q-5.64 0-8.93 2.35t-3.29 6.21q0 3.76 3.29 6.2t9.03 2.44m42.11 3.67-18.14-44.93h6.2l15.14 37.79 15.04-37.79h6.2l-18.05 44.93zm50.38.94q-6.58 0-11.65-2.96t-7.9-8.18-2.82-12.08v-.94q0-6.58 2.63-11.65 2.64-5.08 7.29-8.04t10.86-2.96q6.29 0 10.81 3.1 4.51 3.1 6.62 8.74t1.27 13.16h-33.56q.19 4.61 2.31 8.32 2.11 3.71 5.78 5.83 3.66 2.11 8.55 2.11 7.43 0 11.66-3.66l3.38 3.85q-2.54 2.54-6.53 3.95t-8.7 1.41m-1.59-41.55q-6.21 0-10.11 4.04t-4.65 10.72h27.82q.1-6.77-3.52-10.76t-9.54-4m66.55 41.55q-4.98 0-8.93-1.93-3.95-1.92-6.21-6.01t-2.25-10.77V365.1h5.92v26.22q0 7.9 3.57 11t8.93 3.1q3.67 0 6.77-1.64 3.1-1.65 5.03-4.89t1.93-8.22V365.1h5.82v44.93h-5.45v-7.43q-2.72 4.7-7.05 6.54t-8.08 1.83m45.96-.09q-4.7 0-9.02-1.51-4.32-1.5-6.96-4.04l2.73-4.14q2.44 2.26 6.02 3.58 3.57 1.31 7.23 1.31 4.61 0 7.52-2.16 2.92-2.16 2.92-5.73 0-2.92-1.79-4.52-1.78-1.59-4.65-2.44t-6.02-1.64q-3.15-.8-5.97-2.07t-4.6-3.62-1.79-6.58q0-5.83 4.33-9.5t11.56-3.66q4.13 0 7.75 1.27t6.35 3.33l-2.73 4.23q-2.35-1.88-5.26-2.91-2.92-1.03-6.21-1.03-4.51 0-7.28 2.16t-2.77 5.64q0 2.91 1.78 4.46 1.79 1.55 4.66 2.45 2.86.89 6.06 1.69t6.06 2.11 4.65 3.76 1.79 6.68q0 5.64-4.56 9.26t-11.8 3.62m60.82.09q-7.8 0-12.41-3.67-4.6-3.66-4.6-9.58 0-3.95 2.25-6.96t6.26-4.75q3.99-1.74 9.16-1.74 4.14 0 7.29.99 3.14.99 5.31 2.77v-6.95q0-6.11-3.11-8.79t-8.36-2.68q-3.76 0-7.66 1.36-3.9 1.37-6.54 4.37l-2.91-4.23q3.01-3.47 7.71-5.21t9.68-1.74q7.71 0 12.41 4.13t4.7 12.51v14.28q0 7.52.28 14.95h-5.36l-.09-4.89q-4.04 5.83-14.01 5.83m1.41-4.61q5.74 0 8.79-2.44 3.06-2.44 3.06-6.2 0-3.86-3.11-6.21t-8.83-2.35q-5.64 0-8.93 2.35t-3.29 6.21q0 3.76 3.29 6.2t9.02 2.44M451.8 525.64q-6.68 0-11.85-2.91t-8.08-8.04q-2.92-5.12-2.92-11.89v-1.22q0-6.68 2.97-11.8 2.96-5.12 8.08-8.04t11.8-2.91q4.88 0 8.83 1.74t6.77 4.84l-3.76 3.76q-4.61-4.8-11.94-4.8-4.89 0-8.69 2.17-3.81 2.16-5.97 6.06t-2.16 8.98v1.22q0 5.17 2.21 9.07t6.01 6.06 8.7 2.16q7.33 0 12.03-4.79l3.66 3.76q-2.82 3.1-6.81 4.84-4 1.74-8.88 1.74m42.3 0q-6.4 0-11.38-2.96t-7.8-8.18-2.82-12.08v-.84q0-6.68 2.82-11.8t7.8-8.04 11.38-2.91q6.29 0 11.28 2.91t7.8 7.99 2.82 11.66v1.03q0 6.86-2.82 12.08t-7.8 8.18q-4.99 2.96-11.28 2.96m0-5.36q4.7 0 8.27-2.3t5.59-6.3 2.02-9.26v-1.03q0-5.08-2.02-8.93-2.02-3.86-5.59-6.06-3.57-2.21-8.27-2.21t-8.32 2.25-5.69 6.16-2.07 8.98v.84q0 5.27 2.07 9.26t5.69 6.3 8.32 2.3m32.24 4.42v-44.93h5.73v7.89q2.54-4.98 6.68-6.9 4.13-1.93 8.17-1.93 5.17 0 8.98 2.35t5.59 7.33q1.88-3.67 4.56-5.78t5.64-3.01 5.69-.89q7.33 0 11.89 4.75t4.56 14.71v26.41H588v-25.76q0-7.7-3.29-11.14-3.29-3.43-8.65-3.43-5.45 0-9.21 3.72-3.76 3.71-3.76 10.76v25.85h-5.92v-25.76q0-7.7-3.24-11.14-3.25-3.43-8.6-3.43-5.55 0-9.31 3.72-3.76 3.71-3.76 10.76v25.85zm80.27 0v-44.93h5.74v7.89q2.54-4.98 6.67-6.9 4.14-1.93 8.18-1.93 5.17 0 8.98 2.35 3.8 2.35 5.59 7.33 1.88-3.67 4.56-5.78t5.64-3.01 5.69-.89q7.33 0 11.89 4.75t4.56 14.71v26.41h-5.83v-25.76q0-7.7-3.29-11.14-3.29-3.43-8.65-3.43-5.45 0-9.21 3.72-3.76 3.71-3.76 10.76v25.85h-5.92v-25.76q0-7.7-3.25-11.14-3.24-3.43-8.6-3.43-5.54 0-9.3 3.72-3.76 3.71-3.76 10.76v25.85zm99.17.94q-6.39 0-11.37-2.96t-7.8-8.18-2.82-12.08v-.84q0-6.68 2.82-11.8t7.8-8.04 11.37-2.91q6.3 0 11.28 2.91 4.99 2.92 7.81 7.99t2.82 11.66v1.03q0 6.86-2.82 12.08t-7.81 8.18-11.28 2.96m0-5.36q4.7 0 8.28-2.3t5.59-6.3 2.02-9.26v-1.03q0-5.08-2.02-8.93-2.02-3.86-5.59-6.06-3.58-2.21-8.28-2.21t-8.32 2.25-5.68 6.16-2.07 8.98v.84q0 5.27 2.07 9.26t5.68 6.3 8.32 2.3m32.25 4.42v-44.93h5.73v7.99q1.79-3.39 4.47-5.31 2.67-1.93 5.59-2.78t5.45-.84q7.61 0 12.41 4.84t4.79 14.8v26.23h-6.01v-25.47q0-7.9-3.58-11.38-3.57-3.48-9.02-3.48-3.76 0-6.91 1.7-3.15 1.69-5.03 4.98t-1.88 8.27v25.38zm-294.6 114.68q-5.17 0-8.32-3.01t-3.15-7.99v-52.45h-8.65v-5.17h14.67v57.72q0 2.44 1.64 4.09 1.65 1.64 4.09 1.64h4.04v5.17zm25.29.94q-7.81 0-12.41-3.67t-4.61-9.58q0-3.95 2.26-6.96t6.25-4.75 9.16-1.74q4.14 0 7.29.99t5.31 2.77v-6.95q0-6.11-3.1-8.79t-8.37-2.68q-3.76 0-7.66 1.36-3.9 1.37-6.53 4.37l-2.92-4.23q3.01-3.47 7.71-5.21t9.68-1.74q7.71 0 12.41 4.13t4.7 12.51v14.28q0 7.52.28 14.95h-5.35l-.1-4.89q-4.04 5.83-14 5.83m1.41-4.61q5.73 0 8.79-2.44t3.05-6.2q0-3.86-3.1-6.21t-8.84-2.35q-5.64 0-8.93 2.35t-3.29 6.21q0 3.76 3.29 6.2t9.03 2.44m30.73 3.67v-44.93h5.74v7.99q1.78-3.39 4.46-5.31 2.68-1.93 5.6-2.78t5.45-.84q7.61 0 12.41 4.84t4.79 14.8v26.23h-6.02v-25.47q0-7.9-3.57-11.38t-9.02-3.48q-3.76 0-6.91 1.7-3.15 1.69-5.03 4.98t-1.88 8.27v25.38zm46.25 18.8v-5.08h26.6q3.67 0 5.79-1.83 2.11-1.83 2.11-5.03 0-3.01-2.11-4.7-2.12-1.69-5.79-1.69h-14.28q-3.48 0-5.27-1.64-1.78-1.65-1.97-4.09-.19-2.45 1.03-4.8l3.1-6.2q-3.47-2.07-5.49-5.5t-2.03-7.66v-.85q0-4.6 2.4-8.13 2.4-3.52 6.68-5.5 4.27-1.97 9.82-1.97 1.41 0 2.63.09l4.79-9.77h6.02l-5.73 10.81q5.07 1.69 8.13 5.45 3.05 3.76 3.05 8.74v1.13q0 4.7-2.39 8.32t-6.68 5.68q-4.28 2.07-9.82 2.07-3.48 0-6.58-.84l-2.45 4.7q-.47 1.03-.61 2.21-.14 1.17.61 2.02.76.84 2.64.84h13.16q5.73 0 9.26 2.92t3.52 8.36q0 5.36-3.57 8.65t-9.5 3.29zm20.59-36.94q3.01 0 6.01-1.08t5.03-3.62 2.02-7.15q0-4.88-3.66-7.89t-9.4-3.01-9.4 3.01-3.67 7.89q0 4.52 2.07 7.1t5.12 3.67 5.88 1.08m45.59 19.08q-4.98 0-8.93-1.93-3.95-1.92-6.21-6.01t-2.25-10.77v-27.16h5.92v26.22q0 7.9 3.57 11t8.93 3.1q3.67 0 6.77-1.64 3.1-1.65 5.03-4.89t1.93-8.22v-25.57h5.82v44.93h-5.45v-7.43q-2.72 4.7-7.05 6.54t-8.08 1.83m47.47 0q-7.8 0-12.41-3.67t-4.61-9.58q0-3.95 2.26-6.96t6.25-4.75 9.17-1.74q4.13 0 7.28.99t5.31 2.77v-6.95q0-6.11-3.1-8.79t-8.37-2.68q-3.76 0-7.66 1.36-3.9 1.37-6.53 4.37l-2.91-4.23q3-3.47 7.7-5.21t9.69-1.74q7.7 0 12.4 4.13t4.7 12.51v14.28q0 7.52.29 14.95h-5.36l-.1-4.89q-4.04 5.83-14 5.83m1.41-4.61q5.73 0 8.79-2.44t3.05-6.2q0-3.86-3.1-6.21t-8.84-2.35q-5.64 0-8.93 2.35t-3.29 6.21q0 3.76 3.29 6.2t9.03 2.44m25.75 22.47v-5.08h26.61q3.66 0 5.78-1.83 2.11-1.83 2.11-5.03 0-3.01-2.11-4.7-2.12-1.69-5.78-1.69h-14.29q-3.48 0-5.27-1.64-1.78-1.65-1.97-4.09-.19-2.45 1.03-4.8l3.11-6.2q-3.48-2.07-5.5-5.5t-2.02-7.66v-.85q0-4.6 2.39-8.13 2.4-3.52 6.68-5.5 4.27-1.97 9.82-1.97 1.41 0 2.63.09l4.8-9.77h6.01l-5.73 10.81q5.07 1.69 8.13 5.45 3.05 3.76 3.05 8.74v1.13q0 4.7-2.39 8.32t-6.68 5.68q-4.27 2.07-9.82 2.07-3.48 0-6.58-.84l-2.44 4.7q-.47 1.03-.61 2.21-.15 1.17.61 2.02.75.84 2.63.84h13.16q5.73 0 9.26 2.92t3.52 8.36q0 5.36-3.57 8.65t-9.49 3.29zm20.59-36.94q3.01 0 6.02-1.08t5.03-3.62 2.02-7.15q0-4.88-3.67-7.89t-9.4-3.01-9.4 3.01-3.67 7.89q0 4.52 2.07 7.1t5.13 3.67 5.87 1.08m48.13 19.08q-6.58 0-11.66-2.96t-7.89-8.18-2.82-12.08v-.94q0-6.58 2.63-11.65t7.28-8.04 10.86-2.96q6.3 0 10.81 3.1t6.63 8.74 1.27 13.16h-33.56q.19 4.61 2.3 8.32 2.12 3.71 5.78 5.83 3.67 2.11 8.56 2.11 7.42 0 11.65-3.66l3.39 3.85q-2.54 2.54-6.54 3.95t-8.69 1.41m-1.6-41.55q-6.2 0-10.1 4.04-3.91 4.05-4.66 10.72h27.83q.09-6.77-3.53-10.76t-9.54-4m27.35 40.61v-8.65h7.24v8.65zm-350.8 114.67v-65.8h24.81q10.53 0 16.97 5.45t6.44 15.7q0 7.33-3.24 12.22t-8.98 7.14l14.19 25.29h-15.13l-12.41-23.31h-9.31v23.31zm24.15-54.61h-10.81v20.21h10.81q4.61 0 7.52-2.68 2.92-2.68 2.92-7.38 0-4.51-2.92-7.33t-7.52-2.82m46.16 55.55q-7.71 0-12.36-3.81-4.66-3.8-4.66-9.91 0-6.21 4.99-10.16 4.98-3.94 13.81-3.94 5.74 0 9.69 1.78v-3.76q0-4.04-2.35-5.68-2.35-1.65-5.93-1.65-3.38 0-7.05 1.27t-6.29 3.62l-5.55-8.27q3.1-3.39 8.41-5.41t11.33-2.02q8.65 0 14.19 4.47 5.55 4.46 5.55 12.92v22.28q0 3.66.28 7.33h-11.09v-4.79q-3.67 5.73-12.97 5.73m3.48-9.02q3.66 0 5.87-1.46t2.21-3.81-2.21-3.76-5.87-1.41q-3.58 0-5.78 1.41t-2.21 3.76q0 2.26 2.21 3.76 2.2 1.51 5.78 1.51m30.17 8.08v-46.06h12.03v5.17q2.82-3.67 6.58-4.89t6.68-1.22q7.8 0 12.45 5.12t4.65 14.34v27.54h-12.5v-25.57q0-5.26-2.25-7.66t-5.93-2.4q-3.94 0-6.58 2.64-2.63 2.63-2.63 7.8v25.19zm73.7.94q-7.05 0-12.51-3.01t-8.6-8.32-3.15-12.17v-1.03q0-6.96 3.2-12.22t8.65-8.23 12.41-2.96q5.07 0 9.63 2.12 4.56 2.11 7.29 5.78l-7.62 7.61q-1.69-2.07-4.13-3.1-2.45-1.04-5.17-1.04-4.99 0-8.37 3.25t-3.38 8.79v1.03q0 5.55 3.47 8.84t8.46 3.29q2.54 0 5.03-.94t4.56-3.11l7.43 7.52q-2.82 3.67-7.47 5.79-4.66 2.11-9.73 2.11m23.4-.94v-68.62h12.03v27.73q2.82-3.67 6.58-4.89t6.68-1.22q7.8 0 12.45 5.12 4.66 5.13 4.66 14.34v27.54h-12.51v-25.57q0-5.26-2.25-7.66t-5.92-2.4q-3.95 0-6.58 2.64-2.64 2.63-2.64 7.8v25.19zm72.95.94q-7.05 0-12.32-2.96-5.26-2.96-8.22-8.27t-2.96-12.46v-.94q0-6.48 2.77-11.79 2.77-5.32 7.75-8.42t11.75-3.1q7.05 0 12.04 3.43t7.28 9.68 1.27 14.71H694.6q.47 4.23 3.43 6.91t8.13 2.68q3.48 0 5.69-1.03 2.21-1.04 4.09-2.92l7.14 7.34q-2.82 3.57-7.33 5.35-4.51 1.79-10.15 1.79m-1.23-38.16q-4.23 0-6.58 2.68-2.35 2.67-3.1 7h18.33q-.19-4.7-2.58-7.19t-6.07-2.49m28.3 37.22v-46.06h12.12v6.39q1.7-3.85 4.94-5.31t7.28-1.46h3.58v12.32h-4.7q-5.17 0-7.95 2.25-2.77 2.26-2.77 6.49v25.38zm56.46 0v-44.93h5.73v7.89q2.54-4.98 6.67-6.9 4.14-1.93 8.18-1.93 5.17 0 8.98 2.35t5.59 7.33q1.88-3.67 4.56-5.78t5.64-3.01 5.69-.89q7.33 0 11.89 4.75t4.56 14.71v26.41h-5.83v-25.76q0-7.7-3.29-11.14-3.29-3.43-8.65-3.43-5.45 0-9.21 3.72-3.76 3.71-3.76 10.76v25.85h-5.92v-25.76q0-7.7-3.24-11.14-3.25-3.43-8.61-3.43-5.54 0-9.3 3.72-3.76 3.71-3.76 10.76v25.85zm93.71.94q-7.8 0-12.4-3.67t-4.61-9.58q0-3.95 2.26-6.96t6.25-4.75 9.16-1.74q4.14 0 7.29.99t5.31 2.77v-6.95q0-6.11-3.1-8.79t-8.37-2.68q-3.76 0-7.66 1.36-3.9 1.37-6.53 4.37l-2.92-4.23q3.01-3.47 7.71-5.21t9.68-1.74q7.71 0 12.41 4.13t4.7 12.51v14.28q0 7.52.28 14.95h-5.36l-.09-4.89q-4.04 5.83-14.01 5.83m1.41-4.61q5.74 0 8.79-2.44 3.06-2.44 3.06-6.2 0-3.86-3.1-6.21t-8.84-2.35q-5.64 0-8.93 2.35t-3.29 6.21q0 3.76 3.29 6.2t9.02 2.44m48.7 4.61q-6.21 0-10.96-2.91-4.74-2.92-7.42-8.18t-2.68-12.13v-.84q0-6.68 2.73-11.8t7.47-8.04 10.86-2.91q5.45 0 9.73 2.58 4.27 2.59 6.81 7.01v-32.34h6.02v68.62h-5.46v-9.21q-2.63 4.7-7.05 7.42-4.41 2.73-10.05 2.73m.75-5.36q4.6 0 8.27-2.25t5.78-6.3 2.12-9.5q0-5.35-2.12-9.4-2.11-4.04-5.78-6.34t-8.27-2.3-8.18 2.21-5.59 6.11-2.02 9.07v.84q0 5.36 2.02 9.4t5.59 6.25 8.18 2.21m54.52 5.36q-6.58 0-11.66-2.96t-7.89-8.18-2.82-12.08v-.94q0-6.58 2.63-11.65t7.28-8.04 10.86-2.96q6.3 0 10.81 3.1t6.63 8.74 1.27 13.16h-33.56q.19 4.61 2.3 8.32 2.12 3.71 5.78 5.83 3.67 2.11 8.56 2.11 7.42 0 11.65-3.66l3.39 3.85q-2.54 2.54-6.54 3.95t-8.69 1.41m-1.6-41.55q-6.2 0-10.1 4.04-3.91 4.05-4.66 10.72h27.83q.09-6.77-3.53-10.76t-9.54-4M435.44 868.72v-39.67h-9.02v-5.26h14.94v44.93zm-.38-55.27V803.3h6.68v10.15zm34.22 55.27q-3.01 0-5.64-1.22t-4.32-3.71-1.7-6.44v-28.3h-8.36v-5.26h8.36V812.6h5.93v11.19h12.5v5.26h-12.5v28.67q0 2.54 1.69 4.19 1.69 1.64 4.13 1.64h6.68v5.17zm48.79.85q-4.7 0-9.03-1.51-4.32-1.5-6.95-4.04l2.72-4.14q2.45 2.26 6.02 3.58 3.57 1.31 7.24 1.31 4.6 0 7.52-2.16t2.91-5.73q0-2.92-1.79-4.52-1.78-1.59-4.65-2.44t-6.01-1.64-5.97-2.07-4.61-3.62-1.79-6.58q0-5.83 4.33-9.5t11.56-3.66q4.14 0 7.76 1.27 3.61 1.27 6.34 3.33l-2.73 4.23q-2.35-1.88-5.26-2.91t-6.2-1.03q-4.52 0-7.29 2.16t-2.77 5.64q0 2.91 1.78 4.46 1.79 1.55 4.66 2.45 2.86.89 6.06 1.69t6.06 2.11 4.66 3.76q1.78 2.45 1.78 6.68 0 5.64-4.56 9.26t-11.79 3.62m26.32 17.95v-63.73h5.64v9.02q2.63-4.6 7-7.28t9.92-2.68q6.11 0 10.85 2.91 4.75 2.92 7.48 8.04 2.72 5.12 2.72 11.8v.84q0 6.86-2.68 12.13-2.68 5.26-7.42 8.18t-10.95 2.91q-5.36 0-9.69-2.54t-6.86-6.95v27.35zm21.8-23.22q4.61 0 8.18-2.21t5.6-6.25q2.02-4.04 2.02-9.4v-.84q0-5.17-2.02-9.07t-5.6-6.11-8.18-2.21-8.27 2.3q-3.66 2.3-5.78 6.34-2.11 4.05-2.11 9.4 0 5.46 2.11 9.5 2.12 4.04 5.78 6.3t8.27 2.25m51.42 5.36q-6.58 0-11.65-2.96t-7.9-8.18-2.82-12.08v-.94q0-6.58 2.63-11.65t7.29-8.04 10.85-2.96q6.3 0 10.81 3.1t6.63 8.74 1.27 13.16h-33.56q.19 4.61 2.31 8.32 2.11 3.71 5.78 5.83 3.66 2.11 8.55 2.11 7.43 0 11.66-3.66l3.38 3.85q-2.54 2.54-6.53 3.95t-8.7 1.41m-1.6-41.55q-6.2 0-10.1 4.04t-4.65 10.72h27.82q.09-6.77-3.52-10.76-3.62-4-9.55-4m42.12 41.55q-7.81 0-12.41-3.67t-4.61-9.58q0-3.95 2.26-6.96t6.25-4.75 9.16-1.74q4.14 0 7.29.99t5.31 2.77v-6.95q0-6.11-3.1-8.79t-8.37-2.68q-3.76 0-7.66 1.36-3.9 1.37-6.53 4.37l-2.92-4.23q3.01-3.47 7.71-5.21t9.68-1.74q7.71 0 12.41 4.13t4.7 12.51v14.28q0 7.52.28 14.95h-5.35l-.1-4.89q-4.04 5.83-14 5.83m1.41-4.61q5.73 0 8.79-2.44t3.05-6.2q0-3.86-3.1-6.21t-8.84-2.35q-5.64 0-8.93 2.35t-3.29 6.21q0 3.76 3.29 6.2t9.03 2.44m30.73 3.67V800.1h6.02v46.62l22.65-22.93h7.43l-17.48 17.86 19.27 27.07h-7.43l-16.07-22.75-8.37 8.56v14.19zm77.93.94q-7.8 0-12.41-3.67-4.6-3.66-4.6-9.58 0-3.95 2.25-6.96t6.25-4.75 9.17-1.74q4.13 0 7.28.99t5.31 2.77v-6.95q0-6.11-3.1-8.79t-8.36-2.68q-3.76 0-7.66 1.36-3.91 1.37-6.54 4.37l-2.91-4.23q3.01-3.47 7.71-5.21t9.68-1.74q7.71 0 12.41 4.13t4.7 12.51v14.28q0 7.52.28 14.95h-5.36l-.09-4.89q-4.05 5.83-14.01 5.83m1.41-4.61q5.73 0 8.79-2.44t3.05-6.2q0-3.86-3.1-6.21t-8.83-2.35q-5.64 0-8.93 2.35t-3.29 6.21q0 3.76 3.29 6.2t9.02 2.44m44.56 3.67q-3.01 0-5.64-1.22-2.64-1.22-4.33-3.71t-1.69-6.44v-28.3h-8.37v-5.26h8.37V812.6h5.92v11.19h12.5v5.26h-12.5v28.67q0 2.54 1.69 4.19 1.7 1.64 4.14 1.64h6.67v5.17zM443.99 984.24q-4.7 0-9.02-1.51-4.32-1.5-6.96-4.04l2.73-4.14q2.44 2.26 6.02 3.58 3.57 1.31 7.23 1.31 4.61 0 7.52-2.16 2.92-2.16 2.92-5.73 0-2.92-1.79-4.52-1.78-1.59-4.65-2.44t-6.02-1.64-5.97-2.07-4.6-3.62-1.79-6.58q0-5.83 4.33-9.5t11.56-3.66q4.13 0 7.75 1.27t6.35 3.33l-2.73 4.23q-2.35-1.88-5.26-2.91-2.92-1.03-6.21-1.03-4.51 0-7.28 2.16t-2.77 5.64q0 2.91 1.78 4.46 1.79 1.55 4.66 2.45 2.86.89 6.06 1.69t6.06 2.11q2.87 1.32 4.65 3.76 1.79 2.45 1.79 6.68 0 5.64-4.56 9.26t-11.8 3.62m45.97.09q-6.67 0-11.84-2.91t-8.09-8.04-2.91-11.89v-1.22q0-6.68 2.96-11.8t8.08-8.04 11.8-2.91q4.89 0 8.84 1.74 3.94 1.74 6.76 4.84l-3.76 3.76q-4.6-4.8-11.93-4.8-4.89 0-8.7 2.17t-5.97 6.06-2.16 8.98v1.22q0 5.17 2.21 9.07t6.02 6.06 8.69 2.16q7.33 0 12.03-4.79l3.67 3.76q-2.82 3.1-6.82 4.84t-8.88 1.74m38.16 0q-7.8 0-12.4-3.67t-4.61-9.58q0-3.95 2.26-6.96t6.25-4.75 9.16-1.74q4.14 0 7.29.99t5.31 2.77v-6.95q0-6.11-3.1-8.79t-8.37-2.68q-3.76 0-7.66 1.36-3.9 1.37-6.53 4.37l-2.92-4.23q3.01-3.47 7.71-5.21t9.68-1.74q7.71 0 12.41 4.13t4.7 12.51v14.28q0 7.52.28 14.95h-5.36l-.09-4.89q-4.04 5.83-14.01 5.83m1.41-4.61q5.74 0 8.79-2.44 3.06-2.44 3.06-6.2 0-3.86-3.1-6.21t-8.84-2.35q-5.64 0-8.93 2.35t-3.29 6.21q0 3.76 3.29 6.2t9.02 2.44m42.12 3.67q-5.17 0-8.32-3.01t-3.15-7.99v-52.45h-8.65v-5.17h14.66v57.72q0 2.44 1.65 4.09 1.64 1.64 4.09 1.64h4.04v5.17zm30.08.94q-6.58 0-11.66-2.96t-7.9-8.18-2.82-12.08v-.94q0-6.58 2.64-11.65 2.63-5.08 7.28-8.04t10.86-2.96q6.3 0 10.81 3.1t6.63 8.74 1.26 13.16h-33.55q.18 4.61 2.3 8.32t5.78 5.83 8.55 2.11q7.43 0 11.66-3.66l3.38 3.85q-2.53 2.54-6.53 3.95t-8.69 1.41m-1.6-41.55q-6.21 0-10.11 4.04t-4.65 10.72h27.82q.1-6.77-3.52-10.76t-9.54-4m27.35 40.61v-8.65h7.24v8.65z"/><path fill="#0c322c" fill-opacity=".2" d="M366.63 64h2v952h-2z"/><path fill="#0c322c" d="M66.53 517.16v-22.4h8.06q3.17 0 5.68 1.39t3.95 3.86q1.44 2.46 1.44 5.69v.36q0 2.43-.83 4.46t-2.35 3.52-3.54 2.3q-2.01.82-4.35.82zm7.74-18.72h-3.84v15.04h3.84q2.15 0 3.81-.93t2.62-2.61.96-3.88v-.36q0-2.17-.94-3.8-.94-1.64-2.61-2.55-1.66-.91-3.84-.91m16.23 18.72v-12.45h-2.82v-3.13h6.53v15.58zm-.16-18.69v-4.25h4.09v4.25zm15.04 19.01q-2.34 0-4.12-1.01-1.77-1.01-2.76-2.81-1-1.81-1-4.21v-.32q0-2.21.92-4 .91-1.79 2.59-2.83t3.92-1.04q2.33 0 4 1.13 1.66 1.14 2.43 3.22t.42 4.89h-10.63q.19 1.64 1.33 2.71t3.09 1.07q1.15 0 1.98-.32t1.51-.96l2.08 2.18q-.93 1.15-2.42 1.72t-3.34.58m-.42-13.25q-1.63 0-2.56 1.01t-1.18 2.64h7.04q-.07-1.73-.98-2.69t-2.32-.96m8.9 19.33v-3.04h9.44q1.56 0 1.56-1.41 0-1.31-1.56-1.31h-5.41q-1.25 0-1.92-.61t-.77-1.55.38-1.94l1-1.98q-1.19-.77-1.84-1.94-.66-1.16-.66-2.64v-.28q0-1.64.88-2.9t2.43-1.98 3.6-.72h.32l1.41-3.04h3.71l-2.01 3.68q1.6.7 2.52 1.98.93 1.28.93 2.94v.32q0 1.7-.88 3-.88 1.29-2.43 2.03t-3.57.73q-.77 0-1.47-.09l-.64 1.31q-.16.26-.1.53.07.27.52.27h4.54q1.98 0 3.23 1.02 1.25 1.03 1.25 3.24 0 1.88-1.3 3.13-1.29 1.25-3.34 1.25zm7.13-13.47q.74 0 1.49-.27.75-.28 1.26-.95.52-.67.52-1.85 0-1.25-.92-2.02-.91-.77-2.35-.77-1.47 0-2.38.77t-.91 2.02q0 1.18.51 1.85t1.26.95 1.52.27m17.25 7.39q-2.27 0-4.1-1.02-1.82-1.03-2.88-2.84t-1.05-4.14v-.29q0-2.33 1.05-4.13 1.06-1.79 2.88-2.8 1.83-1 4.1-1t4.08 1 2.86 2.8 1.06 4.1v.32q0 2.34-1.06 4.14-1.05 1.81-2.86 2.84t-4.08 1.02m0-3.26q1.92 0 3.12-1.33t1.2-3.41v-.32q0-2.05-1.2-3.34-1.2-1.3-3.12-1.3-1.89 0-3.1 1.31t-1.22 3.36v.29q0 2.08 1.22 3.41 1.21 1.33 3.1 1.33m18.66 2.94V498.5q0-1.63 1.05-2.68 1.06-1.06 2.69-1.06h10.69v3.58h-9.35q-.48 0-.81.34t-.34.82v5.47h9.73v3.52h-9.73v8.67zm23.96.32q-2.33 0-4.11-1.01-1.77-1.01-2.77-2.81-.99-1.81-.99-4.21v-.32q0-2.21.91-4 .92-1.79 2.6-2.83t3.92-1.04q2.33 0 4 1.13 1.66 1.14 2.43 3.22t.41 4.89h-10.62q.19 1.64 1.33 2.71 1.13 1.07 3.09 1.07 1.15 0 1.98-.32t1.5-.96l2.08 2.18q-.92 1.15-2.41 1.72t-3.35.58m-.41-13.25q-1.63 0-2.56 1.01t-1.19 2.64h7.04q-.06-1.73-.97-2.69t-2.32-.96m10.14 12.93v-15.58h3.55v2.27q.58-1.35 1.7-1.87 1.12-.53 2.5-.53h1.28v3.65h-1.57q-1.83 0-2.8.83-.98.83-.98 2.43v8.8zm11.75 0v-15.58h3.55v1.98q.96-1.38 2.29-1.84 1.32-.46 2.41-.46 2.63 0 4.21 1.71t1.58 4.91v9.28h-3.68v-8.67q0-2.05-.88-2.96t-2.25-.91q-1.51 0-2.53 1-1.02 1.01-1.02 2.93v8.61zm22.84.32q-2.65 0-4.22-1.3-1.57-1.29-1.57-3.34 0-2.08 1.71-3.44 1.72-1.36 4.56-1.36 2.15 0 3.56.77v-1.51q0-1.53-.87-2.17-.86-.64-2.21-.64-1.18 0-2.44.45-1.27.44-2.16 1.28l-1.67-2.5q1.03-1.15 2.8-1.81 1.78-.65 3.7-.65 2.88 0 4.69 1.48 1.8 1.49 1.8 4.37v5.03q0 1.28.02 2.52.02 1.25.08 2.5h-3.26l-.04-1.6q-1.31 1.92-4.48 1.92m1.03-2.72q1.37 0 2.21-.58.83-.57.83-1.5 0-.9-.83-1.47-.84-.58-2.24-.58-1.38 0-2.23.58-.85.57-.85 1.47 0 .93.85 1.5.85.58 2.26.58m-1.76-15.55 2.75-5.12h4.38l-3.29 5.12zm12.54 17.95v-15.58h3.55v1.98q.96-1.38 2.29-1.84t2.42-.46q2.62 0 4.21 1.71t1.58 4.91v9.28h-3.68v-8.67q0-2.05-.88-2.96t-2.26-.91q-1.5 0-2.52 1-1.03 1.01-1.03 2.93v8.61zm24.55.32q-2.12 0-3.78-.99t-2.62-2.79-.96-4.19v-.32q0-2.33.97-4.13.98-1.79 2.64-2.8t3.78-1q1.44 0 2.64.54t2.09 1.5v-9.5h3.68v23.36h-3.32v-2.11q-.93 1.15-2.24 1.79-1.32.64-2.88.64m.57-3.23q1.89 0 3.15-1.31 1.27-1.32 1.27-3.56 0-2.27-1.27-3.56-1.26-1.3-3.15-1.3-1.76 0-3.01 1.25t-1.24 3.42v.32q0 2.18 1.24 3.46 1.25 1.28 3.01 1.28m19.07 3.23q-2.33 0-4.11-1.01-1.77-1.01-2.77-2.81-.99-1.81-.99-4.21v-.32q0-2.21.91-4 .92-1.79 2.6-2.83t3.92-1.04q2.33 0 4 1.13 1.66 1.14 2.43 3.22t.41 4.89h-10.62q.19 1.64 1.33 2.71 1.13 1.07 3.09 1.07 1.15 0 1.98-.32t1.5-.96l2.08 2.18q-.92 1.15-2.41 1.72t-3.35.58m-.41-13.25q-1.63 0-2.56 1.01t-1.19 2.64h7.04q-.06-1.73-.97-2.69t-2.32-.96m9.02 12.93v-2.82l7.55-9.5h-7.45v-3.26h12.03v2.88l-7.68 9.47h7.9v3.23zM66.37 583.34v-21h7.05q3.33 0 5.35 1.74 2.03 1.74 2.03 4.86 0 3.09-2.03 4.82-2.02 1.72-5.35 1.72h-3.39v7.86zm7.23-17.88h-3.57v6.96h3.57q1.62 0 2.58-.97.96-.98.96-2.51t-.96-2.5-2.58-.98m14.25 17.88q-1.98 0-3.16-1.08t-1.19-2.97v-14.91h-2.43v-2.94h5.88v17.91q0 .48.32.8.31.31.79.31h1.53v2.88zm8.82.3q-2.49 0-3.96-1.21-1.47-1.22-1.47-3.14 0-1.95 1.61-3.22 1.6-1.28 4.27-1.28 2.01 0 3.33.72v-1.41q0-1.44-.81-2.04t-2.07-.6q-1.11 0-2.29.42-1.19.42-2.03 1.2l-1.56-2.34q.96-1.08 2.63-1.69 1.66-.62 3.46-.62 2.7 0 4.39 1.4 1.7 1.39 1.7 4.09v4.71q0 1.2.02 2.37.01 1.17.07 2.34h-3.06l-.03-1.5q-1.23 1.8-4.2 1.8m.96-2.55q1.29 0 2.07-.54t.78-1.41q0-.84-.78-1.38t-2.1-.54q-1.29 0-2.08.54-.8.54-.8 1.38 0 .87.8 1.41.79.54 2.11.54m15.51 2.25q-1.05 0-2.08-.36-1.04-.36-1.73-1.3t-.69-2.63v-7.38h-2.49v-2.94h2.49v-3.57h3.45v3.57h3.39v2.94h-3.39v7.65q0 .45.32.77.31.31.76.31h2.31v2.94zm6.6 0v-11.67h-2.52v-2.94h2.52v-3.03q0-1.98 1.25-3.12 1.24-1.14 3.37-1.14h2.46v2.88h-2.52q-.45 0-.76.32-.32.31-.32.79v3.3h3.6v2.94h-3.6v11.67zm15.66.3q-2.13 0-3.84-.96t-2.7-2.65-.99-3.89v-.27q0-2.19.99-3.87t2.7-2.62 3.84-.95 3.82.95q1.7.94 2.69 2.62t.99 3.84v.3q0 2.19-.99 3.89-.99 1.69-2.69 2.65-1.69.96-3.82.96m0-3.06q1.8 0 2.93-1.24 1.12-1.25 1.12-3.2v-.3q0-1.92-1.12-3.13-1.13-1.22-2.93-1.22-1.77 0-2.91 1.23t-1.14 3.15v.27q0 1.95 1.14 3.2 1.14 1.24 2.91 1.24m10.59 2.76v-14.61h3.33v2.13q.54-1.26 1.59-1.75 1.05-.5 2.34-.5h1.2v3.42h-1.47q-1.71 0-2.63.78t-.91 2.28v8.25zm11.01 0v-14.61h3.3v1.83q.84-1.23 2.01-1.68t2.25-.45q1.44 0 2.54.59 1.09.58 1.75 1.78.66-.96 1.52-1.47.85-.51 1.71-.7.85-.2 1.54-.2 2.37 0 3.87 1.53t1.5 4.5v8.88h-3.42v-8.37q0-1.77-.76-2.58-.77-.81-2.06-.81-1.32 0-2.17.89-.86.88-.86 2.5v8.37h-3.45v-8.37q0-1.77-.76-2.58-.77-.81-2.03-.81-1.32 0-2.19.89-.87.88-.87 2.5v8.37zm36.24 0q-1.53 0-2.52-.99t-.99-2.52v-17.49h3.69v16.44q0 .48.31.8.32.31.77.31h8.46v3.45zm18.09.3q-2.19 0-3.85-.94-1.67-.95-2.6-2.64t-.93-3.95v-.3q0-2.07.86-3.75.85-1.68 2.42-2.65 1.58-.98 3.68-.98 2.19 0 3.75 1.07 1.56 1.06 2.28 3.01t.39 4.59h-9.96q.18 1.53 1.24 2.54 1.07 1 2.9 1 1.08 0 1.86-.3t1.41-.9l1.95 2.04q-.87 1.08-2.26 1.62-1.4.54-3.14.54m-.39-12.42q-1.53 0-2.4.95-.87.94-1.11 2.47h6.6q-.06-1.62-.92-2.52-.85-.9-2.17-.9m13.86 12.42q-2.49 0-3.96-1.21-1.47-1.22-1.47-3.14 0-1.95 1.61-3.22 1.6-1.28 4.27-1.28 2.01 0 3.33.72v-1.41q0-1.44-.81-2.04t-2.07-.6q-1.11 0-2.29.42-1.19.42-2.03 1.2l-1.56-2.34q.96-1.08 2.63-1.69 1.66-.62 3.46-.62 2.7 0 4.4 1.4 1.69 1.39 1.69 4.09v4.71q0 1.2.02 2.37.01 1.17.07 2.34h-3.06l-.03-1.5q-1.23 1.8-4.2 1.8m.96-2.55q1.29 0 2.07-.54t.78-1.41q0-.84-.78-1.38t-2.1-.54q-1.29 0-2.09.54t-.79 1.38q0 .87.79 1.41.8.54 2.12.54m16.11 2.55q-1.98 0-3.54-.93t-2.46-2.61-.9-3.93v-.3q0-2.19.92-3.87.91-1.68 2.47-2.62t3.54-.95q1.35 0 2.48.51t1.96 1.41v-8.91h3.45v21.9h-3.12v-1.98q-.87 1.08-2.1 1.68t-2.7.6m.54-3.03q1.77 0 2.95-1.23t1.19-3.33q0-2.13-1.19-3.34-1.18-1.22-2.95-1.22-1.65 0-2.82 1.17t-1.17 3.21v.3q0 2.04 1.17 3.24t2.82 1.2"/></svg>