<svg xmlns="http://www.w3.org/2000/svg" width="1080" height="1080" viewBox="0 0 1080 1080"><path fill="#0c322c" d="M0 0h1080v1080H0z"/><path fill="#fff" d="M270.84 425q-20.2 0-37.81-6.82t-30.85-19.66q-13.24-12.83-20.75-30.44t-7.51-39.17v-4.92q0-21.56 7.51-39.17t20.75-30.44 30.85-19.66q17.61-6.82 37.81-6.82 17.2 0 32.08 4.91t26.34 14.2l-11.47 13.65q-19.38-15.02-46.95-15.02-22.11 0-39.86 9.83-17.74 9.83-27.98 27.44t-10.24 41.08v4.92q0 23.47 10.24 41.08t27.98 27.44 39.86 9.83q28.12 0 47.5-15.84l11.47 13.93q-11.74 9.55-26.89 14.6T270.84 425m84.36-3V222.71h16.65v92q5.19-9.83 12.97-15.42t16.24-8.06q8.46-2.45 15.83-2.45 22.12 0 36.04 14.06t13.92 42.99V422h-17.47v-73.98q0-22.93-10.37-33.04-10.38-10.1-26.21-10.1-10.92 0-20.07 4.92t-14.6 14.47-5.46 24.02V422zm203.65 2.73q-18.56 0-33.03-8.6t-22.66-23.75-8.19-35.08v-2.46q0-19.38 8.19-34.26t22.66-23.34 33.03-8.46q18.29 0 32.76 8.46t22.66 23.2 8.19 33.86v3q0 19.93-8.19 35.08t-22.66 23.75-32.76 8.6m0-15.56q13.65 0 24.03-6.69 10.37-6.69 16.24-18.29t5.87-26.89v-3q0-14.75-5.87-25.94t-16.24-17.61-24.03-6.41-24.16 6.55-16.51 17.88-6.01 26.07v2.46q0 15.29 6.01 26.89t16.51 18.29 24.16 6.69M659.86 422V306.79h-26.2v-15.28h43.4V422zm-1.09-160.52v-29.49h19.38v29.49zM773.7 424.73q-19.38 0-34.39-8.46t-23.48-23.34-8.46-34.54v-3.55q0-19.38 8.59-34.26t23.48-23.34 34.26-8.46q14.2 0 25.67 5.05 11.46 5.05 19.65 14.06l-10.92 10.92q-13.37-13.93-34.67-13.93-14.19 0-25.25 6.28t-17.34 17.61-6.28 26.07v3.55q0 15.02 6.42 26.35t17.47 17.6 25.25 6.28q21.3 0 34.95-13.92l10.65 10.92q-8.19 9.01-19.8 14.06-11.6 5.05-25.8 5.05m123.95 0q-19.11 0-33.86-8.6t-22.93-23.75q-8.19-15.15-8.19-35.08v-2.73q0-19.11 7.65-33.85 7.64-14.74 21.15-23.34 13.52-8.6 31.54-8.6 18.29 0 31.39 9.01t19.25 25.38 3.68 38.22h-97.46q.55 13.38 6.69 24.16t16.79 16.93 24.84 6.14q21.57 0 33.85-10.64l9.83 11.19q-7.37 7.37-18.97 11.46t-25.25 4.1m-4.64-120.67q-18.02 0-29.35 11.74t-13.52 31.13h80.81q.28-19.66-10.24-31.26t-27.7-11.61M181.57 755.05V624.56h16.65v22.93q7.37-14.47 19.38-20.07 12.02-5.59 23.75-5.59 15.02 0 26.08 6.82t16.24 21.3q5.46-10.65 13.24-16.79 7.78-6.15 16.38-8.74t16.52-2.59q21.29 0 34.53 13.78t13.24 42.73v76.71h-16.92v-74.8q0-22.39-9.56-32.35t-25.12-9.97q-15.83 0-26.75 10.79t-10.92 31.26v75.07h-17.2v-74.8q0-22.39-9.42-32.35t-24.98-9.97q-16.1 0-27.02 10.79t-10.92 31.26v75.07zm272.18 2.73q-22.66 0-36.04-10.65t-13.37-27.84q0-11.47 6.55-20.2 6.55-8.74 18.15-13.79t26.62-5.05q12.01 0 21.16 2.86 9.14 2.87 15.42 8.06v-20.2q0-17.75-9.01-25.53t-24.29-7.78q-10.92 0-22.25 3.96t-18.98 12.69l-8.46-12.28q8.74-10.1 22.39-15.15t28.11-5.05q22.39 0 36.04 12.01t13.65 36.31v41.49q0 21.84.82 43.41H494.7l-.27-14.2q-11.74 16.93-40.68 16.93m4.09-13.38q16.66 0 25.53-7.09t8.87-18.02q0-11.2-9.01-18.02t-25.66-6.83q-16.38 0-25.93 6.83t-9.56 18.02q0 10.92 9.56 18.02t26.2 7.09m129.41 10.65q-8.74 0-16.38-3.55-7.65-3.55-12.56-10.78-4.92-7.24-4.92-18.7v-82.18H529.1v-15.28h24.29v-32.49h17.2v32.49h36.31v15.28h-36.31v83.27q0 7.37 4.92 12.15t12.01 4.78h19.38v15.01zm87.63 0q-8.74 0-16.38-3.55-7.65-3.55-12.56-10.78-4.91-7.24-4.91-18.7v-82.18h-24.3v-15.28h24.3v-32.49h17.2v32.49h36.3v15.28h-36.3v83.27q0 7.37 4.91 12.15t12.01 4.78h19.38v15.01zm97.46 2.73q-19.11 0-33.85-8.6t-22.93-23.75-8.19-35.08v-2.73q0-19.11 7.64-33.85t21.16-23.34 31.53-8.6q18.29 0 31.39 9.01t19.25 25.38 3.69 38.22h-97.47q.55 13.38 6.69 24.16t16.79 16.93 24.85 6.14q21.56 0 33.85-10.64l9.83 11.19q-7.38 7.37-18.98 11.46t-25.25 4.1m-4.64-120.67q-18.02 0-29.35 11.74t-13.51 31.13h80.81q.27-19.66-10.24-31.26t-27.71-11.61m83.54 117.94V624.56h16.92v21.29q4.92-12.56 14.61-17.06 9.69-4.51 21.97-4.51h11.2v17.2h-12.56q-16.11 0-25.39 8.33t-9.28 26.07v79.17zm118.75 2.46q-13.65 0-26.21-4.37t-20.2-11.74l7.92-12.01q7.1 6.55 17.47 10.37t21.02 3.82q13.38 0 21.84-6.27 8.46-6.28 8.46-16.66 0-8.46-5.18-13.1-5.19-4.64-13.52-7.1t-17.47-4.78-17.33-6-13.38-10.51-5.19-19.11q0-16.93 12.56-27.58t33.58-10.64q12.01 0 22.52 3.68t18.43 9.69l-7.92 12.29q-6.82-5.46-15.29-8.46t-18.01-3.01q-13.11 0-21.16 6.28t-8.05 16.38q0 8.46 5.18 12.97 5.19 4.5 13.52 7.1t17.6 4.91q9.29 2.32 17.61 6.14 8.33 3.83 13.52 10.92t5.18 19.39q0 16.38-13.24 26.89t-34.26 10.51m72.35-2.46v-25.12h21.02v25.12z"/></svg>