<svg xmlns="http://www.w3.org/2000/svg" width="1080" height="1080" viewBox="0 0 1080 1080"><path fill="#0c322c" d="M0 0h1080v1080H0z"/><path fill="#30ba78" d="M86.96 192v-68.67q0-10.36 4.73-18.21 4.74-7.84 13.1-12.28t19.17-4.44h18.05v28.86h-16.13q-3.26 0-5.03 1.92-1.78 1.93-1.78 5.18v14.51h22.94V192zm63.64 0v-68.67q0-10.36 4.73-18.21 4.74-7.84 13.1-12.28t19.17-4.44h18.05v28.86h-16.13q-3.26 0-5.03 1.92-1.78 1.93-1.78 5.18v14.51h22.94V192z"/><path fill="#fff" d="M112.2 355.36V265.9H81.82v-8.54h70.28v8.54h-30.52v89.46zm49.7 0v-102.2h8.54v47.18q2.66-5.04 6.65-7.91t8.33-4.13 8.12-1.26q11.34 0 18.48 7.21t7.14 22.05v39.06h-8.96v-37.94q0-11.76-5.32-16.94t-13.44-5.18q-5.6 0-10.29 2.52t-7.49 7.42-2.8 12.32v37.8zm105 1.4q-9.8 0-17.36-4.41t-11.76-12.18-4.2-17.99v-1.4q0-9.8 3.92-17.36t10.85-11.97 16.17-4.41q9.38 0 16.1 4.62t9.87 13.02 1.89 19.6H242.4q.28 6.86 3.43 12.39t8.61 8.68 12.74 3.15q11.06 0 17.36-5.46l5.04 5.74q-3.78 3.78-9.73 5.88t-12.95 2.1m-2.38-61.88q-9.24 0-15.05 6.02t-6.93 15.96h41.44q.14-10.08-5.25-16.03t-14.21-5.95m107.8 61.88q-8.26 0-14.91-3.99t-10.43-11.13v13.72h-8.26v-102.2h8.96v48.16q3.78-6.58 10.15-10.43t14.49-3.85q9.1 0 16.17 4.34t11.13 11.97 4.06 17.57v1.26q0 10.22-3.99 18.06t-11.06 12.18-16.31 4.34m-1.12-7.98q6.86 0 12.18-3.29t8.33-9.31 3.01-14v-1.26q0-7.7-3.01-13.51t-8.33-9.1-12.18-3.29-12.32 3.43-8.61 9.45-3.15 14q0 8.12 3.15 14.14t8.61 9.38 12.32 3.36m76.58 7.98q-9.8 0-17.36-4.41t-11.76-12.18-4.2-17.99v-1.4q0-9.8 3.92-17.36t10.85-11.97 16.17-4.41q9.38 0 16.1 4.62t9.87 13.02 1.89 19.6h-49.98q.28 6.86 3.43 12.39t8.61 8.68 12.74 3.15q11.06 0 17.36-5.46l5.04 5.74q-3.78 3.78-9.73 5.88t-12.95 2.1m-2.38-61.88q-9.24 0-15.05 6.02t-6.93 15.96h41.44q.14-10.08-5.25-16.03t-14.21-5.95m60.62 61.74q-7 0-13.44-2.24t-10.36-6.02l4.06-6.16q3.64 3.36 8.96 5.32t10.78 1.96q6.86 0 11.2-3.22t4.34-8.54q0-4.34-2.66-6.72t-6.93-3.64-8.96-2.45-8.89-3.08-6.86-5.39-2.66-9.8q0-8.68 6.44-14.14t17.22-5.46q6.16 0 11.55 1.89t9.45 4.97l-4.06 6.3q-3.5-2.8-7.84-4.34t-9.24-1.54q-6.72 0-10.85 3.22t-4.13 8.4q0 4.34 2.66 6.65t6.93 3.64 9.03 2.52 9.03 3.15 6.93 5.6 2.66 9.94q0 8.4-6.79 13.79t-17.57 5.39m60.62-1.26q-4.48 0-8.4-1.82t-6.44-5.53-2.52-9.59v-42.14h-12.46v-7.84h12.46v-16.66h8.82v16.66h18.62v7.84H558.1v42.7q0 3.78 2.52 6.23t6.16 2.45h9.94v7.7zm65.38 0-19.88-66.92h8.96l16.38 57.82 16.94-57.82h9.38l16.94 57.54 16.52-57.54h8.82l-19.88 66.92h-10.08l-17.08-58.52-16.94 58.52zm105.7 1.4q-11.62 0-18.48-5.46t-6.86-14.28q0-5.88 3.36-10.36t9.31-7.07T738.7 317q6.16 0 10.85 1.47t7.91 4.13v-10.36q0-9.1-4.62-13.09t-12.46-3.99q-5.6 0-11.41 2.03t-9.73 6.51l-4.34-6.3q4.48-5.18 11.48-7.77t14.42-2.59q11.48 0 18.48 6.16t7 18.62v21.28q0 11.2.42 22.26h-7.98l-.14-7.28q-6.02 8.68-20.86 8.68m2.1-6.86q8.54 0 13.09-3.64t4.55-9.24q0-5.74-4.62-9.24t-13.16-3.5q-8.4 0-13.3 3.5t-4.9 9.24q0 5.6 4.9 9.24t13.44 3.64m36.54 33.46v-7.7h12.74q3.5 0 5.53-2.45t3.29-5.67l5.18-11.62-27.72-67.48h9.8L807.86 345l21.98-56.56h9.8l-32.62 79.38q-1.54 3.78-3.71 7.35t-5.67 5.88-8.96 2.31zm122.78-28q-4.48 0-8.4-1.82t-6.44-5.53-2.52-9.59v-42.14h-12.46v-7.84h12.46v-16.66h8.82v16.66h18.62v7.84H890.6v42.7q0 3.78 2.52 6.23t6.16 2.45h9.94v7.7zm49.42 1.4q-9.52 0-16.94-4.41T920 340.17t-4.2-17.99v-1.26q0-9.94 4.2-17.57t11.62-11.97 16.94-4.34q9.38 0 16.8 4.34t11.62 11.9 4.2 17.36v1.54q0 10.22-4.2 17.99t-11.62 12.18-16.8 4.41m0-7.98q7 0 12.32-3.43t8.33-9.38 3.01-13.79v-1.54q0-7.56-3.01-13.3t-8.33-9.03-12.32-3.29-12.39 3.36-8.47 9.17-3.08 13.37v1.26q0 7.84 3.08 13.79t8.47 9.38 12.39 3.43M91.06 554.16v-94.92h8.4v13.44q3.92-6.86 10.43-10.85t14.77-3.99q9.1 0 16.17 4.34t11.13 11.97 4.06 17.57v1.26q0 10.22-3.99 18.06t-11.06 12.18-16.31 4.34q-7.98 0-14.42-3.78t-10.22-10.36v40.74zm32.48-34.58q6.86 0 12.18-3.29t8.33-9.31 3.01-14v-1.26q0-7.7-3.01-13.51t-8.33-9.1-12.18-3.29-12.32 3.43-8.61 9.45-3.15 14q0 8.12 3.15 14.14t8.61 9.38 12.32 3.36m47.88 6.58v-66.92h8.68v10.92q2.52-6.44 7.49-8.75t11.27-2.31h5.74v8.82h-6.44q-8.26 0-13.02 4.27t-4.76 13.37v40.6zm70.28 1.4q-9.8 0-17.36-4.41t-11.76-12.18-4.2-17.99v-1.4q0-9.8 3.92-17.36t10.85-11.97 16.17-4.41q9.38 0 16.1 4.62t9.87 13.02 1.89 19.6H217.2q.28 6.86 3.43 12.39t8.61 8.68 12.74 3.15q11.06 0 17.36-5.46l5.04 5.74q-3.78 3.78-9.73 5.88t-12.95 2.1m-2.38-61.88q-9.24 0-15.05 6.02t-6.93 15.96h41.44q.14-10.08-5.25-16.03t-14.21-5.95m69.58 61.88q-9.24 0-16.31-4.34t-11.06-12.18-3.99-18.06v-1.26q0-9.94 4.06-17.57t11.13-11.97 16.17-4.34q8.12 0 14.49 3.85t10.15 10.43v-48.16h8.96v102.2h-8.12v-13.72q-3.92 7-10.5 11.06t-14.98 4.06m1.12-7.98q6.86 0 12.32-3.36t8.61-9.38 3.15-14.14q0-7.98-3.15-14t-8.61-9.45-12.32-3.43-12.18 3.29-8.33 9.1-3.01 13.51v1.26q0 7.98 3.01 14t8.33 9.31 12.18 3.29m57.54 6.58v-59.08h-13.44v-7.84h22.26v66.92zm-.56-82.32v-15.12h9.94v15.12zm58.94 83.72q-9.94 0-17.64-4.34t-12.04-11.97-4.34-17.71v-1.82q0-9.94 4.41-17.57t12.04-11.97 17.57-4.34q7.28 0 13.16 2.59t10.08 7.21l-5.6 5.6q-6.86-7.14-17.78-7.14-7.28 0-12.95 3.22t-8.89 9.03-3.22 13.37v1.82q0 7.7 3.29 13.51t8.96 9.03 12.95 3.22q10.92 0 17.92-7.14l5.46 5.6q-4.2 4.62-10.15 7.21t-13.23 2.59m58.24-1.4q-4.48 0-8.4-1.82t-6.44-5.53-2.52-9.59v-42.14h-12.46v-7.84h12.46v-16.66h8.82v16.66h18.62v7.84h-18.62v42.7q0 3.78 2.52 6.23t6.16 2.45h9.94v7.7zm74.62 0q-4.48 0-8.4-1.82t-6.44-5.53-2.52-9.59v-42.14h-12.46v-7.84h12.46v-16.66h8.82v16.66h18.62v7.84h-18.62v42.7q0 3.78 2.52 6.23t6.16 2.45h9.94v7.7zm23.52 0v-102.2h8.54v47.18q2.66-5.04 6.65-7.91t8.33-4.13 8.12-1.26q11.34 0 18.48 7.21t7.14 22.05v39.06h-8.96v-37.94q0-11.76-5.32-16.94t-13.44-5.18q-5.6 0-10.29 2.52t-7.49 7.42-2.8 12.32v37.8zm105 1.4q-9.8 0-17.36-4.41t-11.76-12.18-4.2-17.99v-1.4q0-9.8 3.92-17.36t10.85-11.97 16.17-4.41q9.38 0 16.1 4.62t9.87 13.02 1.89 19.6h-49.98q.28 6.86 3.43 12.39t8.61 8.68 12.74 3.15q11.06 0 17.36-5.46l5.04 5.74q-3.78 3.78-9.73 5.88t-12.95 2.1m-2.38-61.88q-9.24 0-15.05 6.02t-6.93 15.96h41.44q.14-10.08-5.25-16.03t-14.21-5.95M95.68 696.95v-59.08H82.94v-7.84h12.74v-18.34q0-7.7 4.9-12.32t12.6-4.62h11.06v7.7h-11.06q-3.78 0-6.23 2.45t-2.45 6.09v19.04h19.74v7.84H104.5v59.08zm64.82 1.4q-7.42 0-13.3-2.87t-9.24-8.96-3.36-16.03v-40.46h8.82v39.06q0 11.76 5.32 16.38t13.3 4.62q5.46 0 10.08-2.45t7.49-7.28 2.87-12.25v-38.08h8.68v66.92h-8.12v-11.06q-4.06 7-10.5 9.73t-12.04 2.73m72.1-1.4q-4.48 0-8.4-1.82t-6.44-5.53-2.52-9.59v-42.14h-12.46v-7.84h12.46v-16.66h8.82v16.66h18.62v7.84h-18.62v42.7q0 3.78 2.52 6.23t6.16 2.45h9.94v7.7zm48.44 1.4q-7.42 0-13.3-2.87t-9.24-8.96-3.36-16.03v-40.46h8.82v39.06q0 11.76 5.32 16.38t13.3 4.62q5.46 0 10.08-2.45t7.49-7.28 2.87-12.25v-38.08h8.68v66.92h-8.12v-11.06q-4.06 7-10.5 9.73t-12.04 2.73m50.68-1.4v-66.92h8.68v10.92q2.52-6.44 7.49-8.75t11.27-2.31h5.74v8.82h-6.44q-8.26 0-13.02 4.27t-4.76 13.37v40.6zm70.28 1.4q-9.8 0-17.36-4.41t-11.76-12.18-4.2-17.99v-1.4q0-9.8 3.92-17.36t10.85-11.97 16.17-4.41q9.38 0 16.1 4.62t9.87 13.02 1.89 19.6H377.5q.28 6.86 3.43 12.39t8.61 8.68 12.74 3.15q11.06 0 17.36-5.46l5.04 5.74q-3.78 3.78-9.73 5.88t-12.95 2.1m-2.38-61.88q-9.24 0-15.05 6.02t-6.93 15.96h41.44q.14-10.08-5.25-16.03t-14.21-5.95m77.7 60.48v-59.08h-13.44v-7.84h22.26v66.92zm-.56-82.32v-15.12h9.94v15.12zm47.32 83.58q-7 0-13.44-2.24t-10.36-6.02l4.06-6.16q3.64 3.36 8.96 5.32t10.78 1.96q6.86 0 11.2-3.22t4.34-8.54q0-4.34-2.66-6.72t-6.93-3.64-8.96-2.45-8.89-3.08-6.86-5.39-2.66-9.8q0-8.68 6.44-14.14t17.22-5.46q6.16 0 11.55 1.89t9.45 4.97l-4.06 6.3q-3.5-2.8-7.84-4.34t-9.24-1.54q-6.72 0-10.85 3.22t-4.13 8.4q0 4.34 2.66 6.65t6.93 3.64 9.03 2.52 9.03 3.15 6.93 5.6 2.66 9.94q0 8.4-6.79 13.79t-17.57 5.39m90.3-1.26q-4.48 0-8.4-1.82t-6.44-5.53-2.52-9.59v-42.14h-12.46v-7.84h12.46v-16.66h8.82v16.66h18.62v7.84h-18.62v42.7q0 3.78 2.52 6.23t6.16 2.45h9.94v7.7zm49.42 1.4q-9.52 0-16.94-4.41t-11.62-12.18-4.2-17.99v-1.26q0-9.94 4.2-17.57t11.62-11.97 16.94-4.34q9.38 0 16.8 4.34t11.62 11.9 4.2 17.36v1.54q0 10.22-4.2 17.99t-11.62 12.18-16.8 4.41m0-7.98q7 0 12.32-3.43t8.33-9.38 3.01-13.79v-1.54q0-7.56-3.01-13.3t-8.33-9.03-12.32-3.29-12.39 3.36-8.47 9.17-3.08 13.37v1.26q0 7.84 3.08 13.79t8.47 9.38 12.39 3.43M120.46 869.15q-9.94 0-17.64-4.34t-12.04-11.97-4.34-17.71v-1.82q0-9.94 4.41-17.57t12.04-11.97 17.57-4.34q7.28 0 13.16 2.59t10.08 7.21l-5.6 5.6q-6.86-7.14-17.78-7.14-7.28 0-12.95 3.22t-8.89 9.03-3.22 13.37v1.82q0 7.7 3.29 13.51t8.96 9.03 12.95 3.22q10.92 0 17.92-7.14l5.46 5.6q-4.2 4.62-10.15 7.21t-13.23 2.59m36.82-1.4v-66.92h8.68v10.92q2.52-6.44 7.49-8.75t11.27-2.31h5.74v8.82h-6.44q-8.26 0-13.02 4.27t-4.76 13.37v40.6zm70.28 1.4q-9.8 0-17.36-4.41t-11.76-12.18-4.2-17.99v-1.4q0-9.8 3.92-17.36t10.85-11.97 16.17-4.41q9.38 0 16.1 4.62t9.87 13.02 1.89 19.6h-49.98q.28 6.86 3.43 12.39t8.61 8.68 12.74 3.15q11.06 0 17.36-5.46l5.04 5.74q-3.78 3.78-9.73 5.88t-12.95 2.1m-2.38-61.88q-9.24 0-15.05 6.02t-6.93 15.96h41.44q.14-10.08-5.25-16.03t-14.21-5.95m62.72 61.88q-11.62 0-18.48-5.46t-6.86-14.28q0-5.88 3.36-10.36t9.31-7.07 13.65-2.59q6.16 0 10.85 1.47t7.91 4.13v-10.36q0-9.1-4.62-13.09t-12.46-3.99q-5.6 0-11.41 2.03t-9.73 6.51l-4.34-6.3q4.48-5.18 11.48-7.77t14.42-2.59q11.48 0 18.48 6.16t7 18.62v21.28q0 11.2.42 22.26h-7.98l-.14-7.28q-6.02 8.68-20.86 8.68m2.1-6.86q8.54 0 13.09-3.64t4.55-9.24q0-5.74-4.62-9.24t-13.16-3.5q-8.4 0-13.3 3.5t-4.9 9.24q0 5.6 4.9 9.24t13.44 3.64m66.36 5.46q-4.48 0-8.4-1.82t-6.44-5.53-2.52-9.59v-42.14h-12.46v-7.84H339v-16.66h8.82v16.66h18.62v7.84h-18.62v42.7q0 3.78 2.52 6.23t6.16 2.45h9.94v7.7zm49.98 1.4q-9.8 0-17.36-4.41t-11.76-12.18-4.2-17.99v-1.4q0-9.8 3.92-17.36t10.85-11.97 16.17-4.41q9.38 0 16.1 4.62t9.87 13.02 1.89 19.6h-49.98q.28 6.86 3.43 12.39t8.61 8.68 12.74 3.15q11.06 0 17.36-5.46l5.04 5.74q-3.78 3.78-9.73 5.88t-12.95 2.1m-2.38-61.88q-9.24 0-15.05 6.02t-6.93 15.96h41.44q.14-10.08-5.25-16.03t-14.21-5.95m77.7 60.48v-59.08h-13.44v-7.84h22.26v66.92zm-.56-82.32v-15.12h9.94v15.12zm50.96 82.32q-4.48 0-8.4-1.82t-6.44-5.53-2.52-9.59v-42.14h-12.46v-7.84h12.46v-16.66h8.82v16.66h18.62v7.84h-18.62v42.7q0 3.78 2.52 6.23t6.16 2.45h9.94v7.7zm21.42 0v-12.88h10.78v12.88z"/><path fill="#30ba78" fill-opacity=".2" d="M80 954h920v2H80z"/></svg>