<svg xmlns="http://www.w3.org/2000/svg" width="1080" height="1080" viewBox="0 0 1080 1080"><path fill="#30ba78" d="M0 0h1080v1080H0z"/><path fill="#0c322c" d="M94.96 391.69v-68.67q0-10.36 4.73-18.21 4.74-7.84 13.1-12.28t19.17-4.44h18.05v28.86h-16.13q-3.26 0-5.03 1.92-1.78 1.93-1.78 5.18v14.51h22.94v53.13zm63.64 0v-68.67q0-10.36 4.73-18.21 4.74-7.84 13.1-12.28t19.17-4.44h18.05v28.86h-16.13q-3.26 0-5.03 1.92-1.78 1.93-1.78 5.18v14.51h22.94v53.13zM89.47 529.05l30.62-79.1h8.93l30.74 79.1h-7.8l-8.7-22.6h-37.41l-8.7 22.6zm18.98-29.15h32.32l-16.16-42.15zm55.15 29.15v-6.89h14.24v-65.32H163.6v-6.89h36.27v6.89h-14.35v65.32h14.35v6.89zm89.15 1.13q-9.37 0-14.91-4.41t-5.54-11.52q0-4.75 2.71-8.36 2.72-3.62 7.52-5.71t11.02-2.09q4.97 0 8.75 1.18 3.79 1.19 6.39 3.34v-8.36q0-7.35-3.73-10.57t-10.06-3.22q-4.52 0-9.21 1.64t-7.85 5.25l-3.5-5.08q3.61-4.18 9.26-6.27t11.64-2.09q9.27 0 14.92 4.97t5.65 15.03v17.17q0 9.04.34 17.97h-6.45l-.11-5.88q-4.86 7.01-16.84 7.01m1.7-5.54q6.89 0 10.56-2.94t3.68-7.45q0-4.64-3.73-7.46t-10.62-2.83q-6.78 0-10.74 2.83-3.95 2.82-3.95 7.46 0 4.52 3.95 7.45t10.85 2.94m53.56 4.41q-3.61 0-6.78-1.47-3.16-1.47-5.2-4.46-2.03-3-2.03-7.74v-34.02h-10.06v-6.32H294v-13.45h7.12v13.45h15.03v6.32h-15.03v34.47q0 3.05 2.03 5.03 2.04 1.98 4.97 1.98h8.03v6.21zm60.23 0q-3.62 0-6.78-1.47t-5.2-4.46q-2.03-3-2.03-7.74v-34.02h-10.06v-6.32h10.06v-13.45h7.12v13.45h15.03v6.32h-15.03v34.47q0 3.05 2.03 5.03 2.04 1.98 4.97 1.98h8.03v6.21zm18.98 0v-82.49h6.9v38.08q2.14-4.07 5.36-6.38 3.23-2.32 6.73-3.34 3.5-1.01 6.55-1.01 9.16 0 14.92 5.82t5.76 17.79v31.53h-7.23v-30.62q0-9.49-4.29-13.68t-10.85-4.18q-4.52 0-8.31 2.04-3.78 2.03-6.04 5.99-2.26 3.95-2.26 9.94v30.51zm84.75 1.13q-7.91 0-14.01-3.56t-9.49-9.83-3.39-14.52v-1.13q0-7.91 3.16-14.01t8.76-9.66 13.05-3.56q7.57 0 13 3.73t7.96 10.5q2.55 6.78 1.53 15.82H452.2q.23 5.54 2.77 10t6.95 7.01q4.4 2.54 10.28 2.54 8.93 0 14.01-4.4l4.07 4.63q-3.05 3.05-7.85 4.74t-10.46 1.7m-1.92-49.95q-7.45 0-12.14 4.86t-5.6 12.89h33.45q.11-8.14-4.24-12.94-4.35-4.81-11.47-4.81m83.06 49.95q-7.91 0-14.01-3.56-6.11-3.56-9.5-9.83t-3.39-14.52v-1.13q0-7.91 3.17-14.01t8.76-9.66 13.05-3.56q7.57 0 12.99 3.73t7.97 10.5 1.52 15.82h-40.34q.23 5.54 2.77 10t6.95 7.01q4.41 2.54 10.28 2.54 8.93 0 14.02-4.4l4.06 4.63q-3.05 3.05-7.85 4.74t-10.45 1.7m-1.92-49.95q-7.46 0-12.15 4.86t-5.59 12.89h33.44q.12-8.14-4.23-12.94-4.35-4.81-11.47-4.81m56.16 49.95q-7.46 0-13.17-3.5t-8.92-9.83-3.22-14.58v-1.02q0-8.02 3.27-14.18t8.99-9.66q5.7-3.5 13.05-3.5 6.55 0 11.69 3.1 5.15 3.11 8.2 8.42v-38.87h7.23v82.49h-6.56v-11.07q-3.16 5.65-8.47 8.92-5.31 3.28-12.09 3.28m.9-6.44q5.54 0 9.95-2.71t6.95-7.57 2.54-11.42q0-6.44-2.54-11.3t-6.95-7.62-9.95-2.77-9.83 2.65-6.72 7.35-2.43 10.9v1.02q0 6.44 2.43 11.3t6.72 7.51 9.83 2.66m36.39 27.91v-6.1h31.98q4.4 0 6.95-2.21t2.54-6.04q0-3.62-2.54-5.65t-6.95-2.03h-17.18q-4.18 0-6.33-1.98-2.14-1.98-2.37-4.92t1.24-5.76l3.73-7.46q-4.18-2.48-6.61-6.61-2.43-4.12-2.43-9.21v-1.02q0-5.53 2.88-9.77 2.89-4.24 8.03-6.61t11.81-2.37q1.69 0 3.16.11l5.76-11.75h7.23l-6.89 12.99q6.1 2.04 9.78 6.56t3.67 10.51v1.35q0 5.65-2.88 10t-8.03 6.84-11.8 2.48q-4.19 0-7.91-1.01l-2.94 5.65q-.57 1.24-.74 2.65t.74 2.43 3.16 1.02h15.82q6.89 0 11.13 3.5t4.24 10.06q0 6.44-4.29 10.4t-11.42 3.95zm24.75-44.41q3.61 0 7.23-1.3 3.61-1.3 6.04-4.35t2.43-8.59q0-5.87-4.4-9.49-4.41-3.61-11.3-3.61t-11.3 3.61-4.41 9.49q0 5.43 2.48 8.53 2.49 3.11 6.16 4.41 3.68 1.3 7.07 1.3m57.85 22.94q-7.91 0-14.01-3.56t-9.49-9.83-3.39-14.52v-1.13q0-7.91 3.16-14.01t8.76-9.66 13.05-3.56q7.57 0 13 3.73t7.96 10.5 1.53 15.82h-40.34q.22 5.54 2.76 10 2.55 4.47 6.95 7.01t10.29 2.54q8.92 0 14.01-4.4l4.07 4.63q-3.05 3.05-7.86 4.74-4.8 1.7-10.45 1.7m-1.92-49.95q-7.46 0-12.15 4.86t-5.59 12.89h33.45q.11-8.14-4.24-12.94-4.35-4.81-11.47-4.81m62.72 48.82v-47.69h-10.85v-6.32h17.96v54.01zm-.46-66.44V450.4h8.03v12.21zm38.2 67.46q-5.65 0-10.85-1.81t-8.36-4.86l3.27-4.97q2.94 2.71 7.24 4.29 4.29 1.58 8.7 1.58 5.53 0 9.04-2.6 3.5-2.59 3.5-6.89 0-3.5-2.15-5.42t-5.59-2.94-7.23-1.98-7.18-2.48-5.53-4.35-2.15-7.91q0-7.01 5.2-11.42t13.9-4.4q4.97 0 9.32 1.52 4.35 1.53 7.63 4.01l-3.28 5.09q-2.83-2.26-6.33-3.5t-7.46-1.25q-5.42 0-8.76 2.6t-3.33 6.78q0 3.5 2.15 5.37 2.15 1.86 5.59 2.94 3.45 1.07 7.29 2.03t7.29 2.54 5.59 4.52 2.15 8.03q0 6.78-5.48 11.13t-14.18 4.35m31.64-1.02v-54.01h6.89v9.6q2.15-4.07 5.37-6.38 3.22-2.32 6.72-3.34 3.5-1.01 6.56-1.01 9.15 0 14.91 5.82t5.76 17.79v31.53h-7.23v-30.62q0-9.49-4.29-13.68t-10.85-4.18q-4.52 0-8.31 2.04-3.78 2.03-6.04 5.99-2.26 3.95-2.26 9.94v30.51zm54.69-53.56v-25.54h6.67v25.54zm38.65 53.56q-3.62 0-6.78-1.47t-5.2-4.46-2.04-7.74v-34.02h-10.05v-6.32h10.05v-13.45h7.12v13.45h15.03v6.32h-15.03v34.47q0 3.05 2.04 5.03 2.03 1.98 4.97 1.98h8.02v6.21zM113.09 668.04q-9.38 0-14.92-4.41t-5.54-11.52q0-4.75 2.72-8.36 2.71-3.62 7.51-5.71t11.02-2.09q4.97 0 8.75 1.18 3.79 1.19 6.39 3.34v-8.36q0-7.35-3.73-10.57t-10.06-3.22q-4.52 0-9.21 1.64t-7.85 5.25l-3.5-5.08q3.61-4.18 9.26-6.27t11.64-2.09q9.27 0 14.92 4.97t5.65 15.03v17.17q0 9.04.34 17.97h-6.44l-.12-5.88q-4.86 7.01-16.83 7.01m1.69-5.54q6.89 0 10.57-2.94 3.67-2.93 3.67-7.45 0-4.64-3.73-7.46t-10.62-2.83q-6.78 0-10.74 2.83-3.95 2.82-3.95 7.46 0 4.52 3.95 7.45t10.85 2.94m64.75 4.41v-47.69h-10.28v-6.32h10.28v-14.81q0-6.21 3.96-9.94t10.17-3.73h8.92v6.21h-8.92q-3.06 0-5.03 1.98t-1.98 4.92v15.37h15.93v6.32h-15.93v47.69zm52.55 1.13q-7.91 0-14.02-3.56t-9.49-9.83-3.39-14.52V639q0-7.91 3.17-14.01t8.75-9.66q5.6-3.56 13.05-3.56 7.58 0 13 3.73t7.97 10.5q2.54 6.78 1.52 15.82H212.3q.23 5.54 2.77 10t6.95 7.01 10.28 2.54q8.93 0 14.01-4.4l4.07 4.63q-3.05 3.05-7.85 4.74t-10.45 1.7m-1.93-49.95q-7.45 0-12.14 4.86t-5.6 12.89h33.45q.11-8.14-4.24-12.94-4.35-4.81-11.47-4.81m50.63 49.95q-9.38 0-14.92-4.41t-5.53-11.52q0-4.75 2.71-8.36 2.71-3.62 7.51-5.71t11.02-2.09q4.97 0 8.76 1.18 3.78 1.19 6.38 3.34v-8.36q0-7.35-3.73-10.57t-10.05-3.22q-4.52 0-9.21 1.64t-7.86 5.25l-3.5-5.08q3.62-4.18 9.27-6.27t11.63-2.09q9.27 0 14.92 4.97t5.65 15.03v17.17q0 9.04.34 17.97h-6.44l-.11-5.88q-4.86 7.01-16.84 7.01m1.69-5.54q6.9 0 10.57-2.94t3.67-7.45q0-4.64-3.73-7.46t-10.62-2.83q-6.78 0-10.73 2.83-3.96 2.82-3.96 7.46 0 4.52 3.96 7.45t10.84 2.94m53.57 4.41q-3.62 0-6.78-1.47t-5.2-4.46-2.04-7.74v-34.02h-10.05v-6.32h10.05v-13.45h7.12v13.45h15.03v6.32h-15.03v34.47q0 3.05 2.04 5.03 2.03 1.98 4.97 1.98h8.02v6.21zm39.09 1.13q-5.99 0-10.73-2.32t-7.46-7.23-2.71-12.94V612.9h7.12v31.52q0 9.5 4.29 13.22t10.74 3.73q4.4 0 8.13-1.97 3.73-1.98 6.05-5.88t2.31-9.89V612.9h7.01v54.01h-6.55v-8.93q-3.28 5.65-8.48 7.86t-9.72 2.2m40.91-1.13V612.9h7.01v8.81q2.03-5.2 6.04-7.06 4.01-1.87 9.1-1.87h4.63v7.12h-5.2q-6.66 0-10.51 3.45t-3.84 10.79v32.77zm56.73 1.13q-7.91 0-14.02-3.56t-9.49-9.83-3.39-14.52V639q0-7.91 3.17-14.01t8.75-9.66q5.6-3.56 13.05-3.56 7.58 0 13 3.73t7.97 10.5 1.52 15.82h-40.34q.23 5.54 2.77 10t6.95 7.01 10.28 2.54q8.93 0 14.01-4.4l4.07 4.63q-3.05 3.05-7.85 4.74t-10.45 1.7m-1.93-49.95q-7.45 0-12.14 4.86t-5.6 12.89h33.45q.11-8.14-4.24-12.94-4.35-4.81-11.47-4.81m32.89 48.82v-10.4h8.7v10.4zm40.68 0v-6.89h14.24V594.7h-14.24v-6.89h36.27v6.89h-14.35v65.32h14.35v6.89zm62.03 0q-3.61 0-6.78-1.47-3.16-1.47-5.19-4.46t-2.04-7.74v-34.02h-10.05v-6.32h10.05v-13.45h7.12v13.45h15.03v6.32h-15.03v34.47q0 3.05 2.04 5.03 2.03 1.98 4.97 1.98h8.02v6.21zm15.49-53.56v-25.54h6.66v25.54zm31.52 54.58q-5.65 0-10.85-1.81t-8.36-4.86l3.28-4.97q2.94 2.71 7.23 4.29t8.7 1.58q5.54 0 9.04-2.6 3.51-2.59 3.51-6.89 0-3.5-2.15-5.42t-5.6-2.94-7.23-1.98-7.17-2.48-5.54-4.35-2.15-7.91q0-7.01 5.2-11.42t13.9-4.4q4.97 0 9.32 1.52 4.35 1.53 7.63 4.01l-3.28 5.09q-2.82-2.26-6.32-3.5t-7.46-1.25q-5.43 0-8.76 2.6t-3.33 6.78q0 3.5 2.14 5.37 2.15 1.86 5.6 2.94t7.29 2.03 7.28 2.54 5.6 4.52q2.14 2.94 2.14 8.03 0 6.78-5.48 11.13t-14.18 4.35m65.43-1.02-16.05-54.01h7.24l13.22 46.66 13.67-46.66h7.57l13.67 46.44 13.34-46.44h7.12l-16.05 54.01h-8.14l-13.78-47.23-13.67 47.23zm69.72 0v-82.49h6.89v38.08q2.15-4.07 5.37-6.38 3.22-2.32 6.72-3.34 3.51-1.01 6.56-1.01 9.15 0 14.91 5.82t5.77 17.79v31.53h-7.23v-30.62q0-9.49-4.3-13.68t-10.85-4.18q-4.52 0-8.3 2.04-3.79 2.03-6.05 5.99-2.26 3.95-2.26 9.94v30.51zm84.75 1.13q-7.91 0-14.01-3.56t-9.49-9.83-3.39-14.52V639q0-7.91 3.16-14.01t8.76-9.66 13.05-3.56q7.57 0 12.99 3.73t7.97 10.5q2.54 6.78 1.53 15.82h-40.34q.22 5.54 2.76 10 2.55 4.47 6.95 7.01t10.29 2.54q8.92 0 14.01-4.4l4.07 4.63q-3.05 3.05-7.86 4.74-4.8 1.7-10.45 1.7m-1.92-49.95q-7.46 0-12.15 4.86t-5.59 12.89h33.45q.11-8.14-4.24-12.94-4.35-4.81-11.47-4.81m34.58 48.82V612.9h7v8.81q2.04-5.2 6.05-7.06 4.01-1.87 9.1-1.87h4.63v7.12h-5.2q-6.67 0-10.51 3.45t-3.84 10.79v32.77zm56.72 1.13q-7.91 0-14.01-3.56t-9.49-9.83-3.39-14.52V639q0-7.91 3.16-14.01t8.76-9.66 13.05-3.56q7.57 0 13 3.73t7.96 10.5q2.55 6.78 1.53 15.82h-40.34q.22 5.54 2.77 10t6.95 7.01 10.28 2.54q8.93 0 14.01-4.4l4.07 4.63q-3.05 3.05-7.85 4.74t-10.46 1.7m-1.92-49.95q-7.46 0-12.15 4.86-4.68 4.86-5.59 12.89h33.45q.11-8.14-4.24-12.94-4.35-4.81-11.47-4.81M114.22 804.77q-3.62 0-6.78-1.47t-5.2-4.46-2.04-7.74v-34.02H90.15v-6.32h10.05v-13.45h7.12v13.45h15.03v6.32h-15.03v34.47q0 3.05 2.04 5.03 2.03 1.98 4.97 1.98h8.02v6.21zm18.98 0v-82.49h6.89v38.08q2.15-4.07 5.37-6.38 3.22-2.32 6.72-3.34 3.51-1.01 6.56-1.01 9.15 0 14.91 5.82t5.77 17.79v31.53h-7.23v-30.62q0-9.49-4.3-13.68t-10.85-4.18q-4.52 0-8.3 2.04-3.79 2.03-6.05 5.99-2.26 3.95-2.26 9.94v30.51zm84.75 1.13q-7.91 0-14.01-3.56t-9.49-9.83-3.39-14.52v-1.13q0-7.91 3.16-14.01t8.76-9.66 13.05-3.56q7.57 0 12.99 3.73t7.97 10.5 1.53 15.82h-40.34q.22 5.54 2.76 10 2.55 4.47 6.95 7.01t10.29 2.54q8.92 0 14.01-4.4l4.07 4.63q-3.05 3.05-7.86 4.74-4.8 1.7-10.45 1.7m-1.92-49.95q-7.46 0-12.15 4.86t-5.59 12.89h33.45q.11-8.14-4.24-12.94-4.35-4.81-11.47-4.81m59.89 48.82v-54.01h7.01v8.81q2.03-5.2 6.04-7.06 4.01-1.87 9.1-1.87h4.63v7.12h-5.2q-6.66 0-10.51 3.45T283.15 772v32.77zm56.73 1.13q-7.91 0-14.02-3.56t-9.49-9.83-3.39-14.52v-1.13q0-7.91 3.17-14.01t8.75-9.66q5.6-3.56 13.05-3.56 7.58 0 13 3.73t7.97 10.5 1.52 15.82h-40.34q.23 5.54 2.77 10t6.95 7.01 10.28 2.54q8.93 0 14.01-4.4l4.07 4.63q-3.05 3.05-7.85 4.74t-10.45 1.7m-1.93-49.95q-7.45 0-12.14 4.86t-5.6 12.89h33.45q.11-8.14-4.24-12.94-4.35-4.81-11.47-4.81m50.63 49.95q-9.38 0-14.92-4.41t-5.53-11.52q0-4.75 2.71-8.36 2.71-3.62 7.51-5.71t11.02-2.09q4.97 0 8.76 1.18 3.78 1.19 6.38 3.34v-8.36q0-7.35-3.73-10.57t-10.05-3.22q-4.52 0-9.21 1.64t-7.86 5.25l-3.5-5.08q3.62-4.18 9.27-6.27t11.63-2.09q9.27 0 14.92 4.97t5.65 15.03v17.17q0 9.04.34 17.97h-6.44l-.11-5.88q-4.86 7.01-16.84 7.01m1.69-5.54q6.9 0 10.57-2.94t3.67-7.45q0-4.64-3.73-7.46t-10.62-2.83q-6.78 0-10.73 2.83-3.96 2.82-3.96 7.46 0 4.52 3.96 7.45t10.84 2.94m50.63 4.41q-6.22 0-10-3.62-3.79-3.61-3.79-9.6v-63.06h-10.39v-6.21h17.62v69.38q0 2.94 1.98 4.92t4.92 1.98h4.86v6.21zm46.44 0-16.05-54.01h7.24l13.22 46.66 13.67-46.66h7.57l13.67 46.44 13.34-46.44h7.12l-16.05 54.01h-8.13l-13.79-47.23-13.67 47.23zm91.98 1.13q-7.68 0-13.67-3.56t-9.38-9.83-3.39-14.52v-1.02q0-8.02 3.39-14.18t9.38-9.66 13.67-3.5q7.57 0 13.56 3.5t9.38 9.6 3.39 14.02v1.24q0 8.25-3.39 14.52t-9.38 9.83-13.56 3.56m0-6.44q5.65 0 9.95-2.77t6.72-7.57 2.43-11.13v-1.24q0-6.11-2.43-10.74t-6.72-7.29-9.95-2.65-10 2.71-6.83 7.4-2.49 10.79v1.02q0 6.33 2.49 11.13 2.48 4.8 6.83 7.57t10 2.77m38.76 5.31v-54.01h7.01v8.81q2.03-5.2 6.04-7.06 4.01-1.87 9.1-1.87h4.63v7.12h-5.2q-6.66 0-10.5 3.45-3.85 3.45-3.85 10.79v32.77zm50.06 0q-6.21 0-10-3.62-3.79-3.61-3.79-9.6v-63.06h-10.39v-6.21h17.63v69.38q0 2.94 1.97 4.92 1.98 1.98 4.92 1.98h4.86v6.21zm34.69 1.13q-7.46 0-13.16-3.5t-8.93-9.83-3.22-14.58v-1.02q0-8.02 3.28-14.18t8.98-9.66 13.05-3.5q6.56 0 11.7 3.1t8.19 8.42v-38.87h7.23v82.49h-6.55V793.7q-3.17 5.65-8.48 8.92-5.31 3.28-12.09 3.28m.91-6.44q5.53 0 9.94-2.71t6.95-7.57 2.54-11.42q0-6.44-2.54-11.3t-6.95-7.62-9.94-2.77-9.84 2.65q-4.29 2.66-6.72 7.35t-2.43 10.9v1.02q0 6.44 2.43 11.3t6.72 7.51 9.84 2.66M96.93 942.63v-54.01h6.89v9.49q3.05-5.99 8.02-8.31 4.98-2.31 9.83-2.31 6.22 0 10.8 2.82 4.57 2.83 6.72 8.82 2.26-4.41 5.48-6.95t6.78-3.62 6.84-1.07q8.81 0 14.29 5.7t5.48 17.69v31.75h-7v-30.96q0-9.27-3.96-13.39t-10.4-4.13q-6.55 0-11.07 4.47t-4.52 12.94v31.07h-7.12v-30.96q0-9.27-3.9-13.39t-10.34-4.13q-6.66 0-11.18 4.47t-4.52 12.94v31.07zm119.66 1.13q-7.91 0-14.01-3.56t-9.49-9.83-3.39-14.52v-1.13q0-7.91 3.16-14.01t8.76-9.66 13.05-3.56q7.57 0 13 3.73t7.96 10.5q2.55 6.78 1.53 15.82h-40.34q.23 5.54 2.77 10t6.95 7.01 10.28 2.54q8.93 0 14.01-4.4l4.07 4.63q-3.05 3.05-7.85 4.74t-10.46 1.7m-1.92-49.95q-7.45 0-12.14 4.86t-5.6 12.89h33.45q.11-8.14-4.24-12.94-4.35-4.81-11.47-4.81m57.75 49.95q-7.91 0-14.02-3.56t-9.49-9.83-3.39-14.52v-1.13q0-7.91 3.17-14.01t8.75-9.66q5.6-3.56 13.06-3.56 7.57 0 12.99 3.73t7.97 10.5 1.52 15.82h-40.34q.23 5.54 2.77 10t6.95 7.01 10.28 2.54q8.93 0 14.01-4.4l4.07 4.63q-3.05 3.05-7.85 4.74t-10.45 1.7m-1.92-49.95q-7.46 0-12.15 4.86t-5.6 12.89h33.45q.12-8.14-4.24-12.94-4.35-4.81-11.46-4.81m51.41 48.82q-3.62 0-6.78-1.47t-5.2-4.46q-2.03-3-2.03-7.74v-34.02h-10.06v-6.32h10.06v-13.45h7.12v13.45h15.03v6.32h-15.03v34.47q0 3.05 2.03 5.03 2.04 1.98 4.97 1.98h8.03v6.21zm33.34 1.02q-5.65 0-10.85-1.81t-8.36-4.86l3.27-4.97q2.94 2.71 7.23 4.29t8.71 1.58q5.53 0 9.04-2.6 3.5-2.59 3.5-6.89 0-3.5-2.15-5.42t-5.59-2.94-7.23-1.98-7.18-2.48-5.54-4.35q-2.14-2.83-2.14-7.91 0-7.01 5.19-11.42t13.9-4.4q4.98 0 9.33 1.52 4.35 1.53 7.62 4.01l-3.27 5.09q-2.83-2.26-6.33-3.5t-7.46-1.25q-5.42 0-8.76 2.6t-3.33 6.78q0 3.5 2.15 5.37 2.14 1.86 5.59 2.94t7.29 2.03 7.29 2.54 5.59 4.52 2.15 8.03q0 6.78-5.48 11.13t-14.18 4.35m80.68.11q-8.03 0-14.24-3.5t-9.72-9.66-3.5-14.3v-1.47q0-8.02 3.56-14.18t9.72-9.66q6.15-3.5 14.18-3.5 5.87 0 10.62 2.09t8.14 5.82l-4.52 4.52q-5.54-5.77-14.36-5.77-5.87 0-10.45 2.6t-7.17 7.29-2.6 10.79v1.47q0 6.22 2.65 10.91 2.66 4.69 7.23 7.28 4.58 2.6 10.46 2.6 8.81 0 14.46-5.76l4.41 4.52q-3.39 3.73-8.19 5.82-4.81 2.09-10.68 2.09m50.85 0q-7.69 0-13.68-3.56t-9.37-9.83-3.39-14.52v-1.02q0-8.02 3.39-14.18t9.37-9.66 13.68-3.5q7.57 0 13.56 3.5t9.38 9.6 3.39 14.02v1.24q0 8.25-3.39 14.52t-9.38 9.83-13.56 3.56m0-6.44q5.65 0 9.94-2.77 4.3-2.77 6.72-7.57 2.43-4.8 2.43-11.13v-1.24q0-6.11-2.43-10.74-2.42-4.63-6.72-7.29-4.29-2.65-9.94-2.65t-10 2.71-6.84 7.4-2.49 10.79v1.02q0 6.33 2.49 11.13t6.84 7.57 10 2.77m38.76 5.31v-54.01h6.89v9.49q3.05-5.99 8.02-8.31 4.97-2.31 9.83-2.31 6.22 0 10.79 2.82 4.58 2.83 6.73 8.82 2.26-4.41 5.48-6.95t6.78-3.62 6.84-1.07q8.81 0 14.29 5.7t5.48 17.69v31.75h-7.01v-30.96q0-9.27-3.95-13.39t-10.4-4.13q-6.55 0-11.07 4.47t-4.52 12.94v31.07h-7.12v-30.96q0-9.27-3.9-13.39t-10.34-4.13q-6.66 0-11.18 4.47t-4.52 12.94v31.07zm96.5 22.6v-76.61h6.78v10.84q3.16-5.53 8.42-8.75t11.92-3.22q7.34 0 13.05 3.5t8.98 9.66 3.28 14.18v1.02q0 8.25-3.22 14.58t-8.93 9.83-13.16 3.5q-6.44 0-11.64-3.05t-8.25-8.36v32.88zm26.21-27.91q5.54 0 9.84-2.66 4.29-2.65 6.72-7.51t2.43-11.3v-1.02q0-6.21-2.43-10.9t-6.72-7.35q-4.3-2.65-9.84-2.65t-9.94 2.77-6.95 7.62-2.54 11.3q0 6.56 2.54 11.42t6.95 7.57 9.94 2.71m58.76 6.44q-5.98 0-10.73-2.32t-7.46-7.23-2.71-12.94v-32.65h7.12v31.52q0 9.5 4.29 13.22t10.74 3.73q4.4 0 8.13-1.97 3.73-1.98 6.05-5.88t2.32-9.89v-30.73h7v54.01h-6.55v-8.93q-3.28 5.65-8.48 7.86t-9.72 2.2m58.2-1.13q-3.62 0-6.78-1.47t-5.2-4.46q-2.03-3-2.03-7.74v-34.02h-10.06v-6.32h10.06v-13.45h7.12v13.45h15.03v6.32h-15.03v34.47q0 3.05 2.03 5.03t4.97 1.98h8.03v6.21zm40.34 1.13q-7.91 0-14.01-3.56t-9.49-9.83-3.39-14.52v-1.13q0-7.91 3.16-14.01t8.76-9.66 13.05-3.56q7.57 0 12.99 3.73t7.97 10.5q2.54 6.78 1.53 15.82h-40.34q.22 5.54 2.76 10 2.55 4.47 6.95 7.01t10.29 2.54q8.92 0 14.01-4.4l4.07 4.63q-3.05 3.05-7.86 4.74-4.8 1.7-10.45 1.7m-1.92-49.95q-7.46 0-12.15 4.86t-5.59 12.89h33.45q.11-8.14-4.24-12.94-4.35-4.81-11.47-4.81m32.88 48.82v-10.4h8.7v10.4z"/><path fill="#0c322c" fill-opacity=".2" d="M88 233.69h904v2H88z"/><path fill="#0c322c" d="M90.53 116V93.6h8q3.55 0 5.69 1.81t2.15 5.23q0 2.59-1.2 4.24t-3.28 2.35l5.15 8.77h-4.51l-4.67-8.29h-3.43V116zm7.81-19.07h-3.91v7.49h3.91q1.79 0 2.89-.96 1.11-.96 1.11-2.76 0-1.72-1.11-2.75-1.1-1.02-2.89-1.02m16.22 19.39q-2.66 0-4.22-1.3-1.57-1.29-1.57-3.34 0-2.08 1.71-3.44t4.56-1.36q2.14 0 3.55.77v-1.51q0-1.53-.86-2.17-.87-.64-2.21-.64-1.18 0-2.45.45-1.26.44-2.16 1.28l-1.66-2.5q1.02-1.15 2.8-1.81 1.77-.65 3.69-.65 2.88 0 4.69 1.48 1.81 1.49 1.81 4.37v5.03q0 1.28.02 2.52.01 1.25.08 2.5h-3.27l-.03-1.6q-1.31 1.92-4.48 1.92m1.02-2.72q1.38 0 2.21-.58.83-.57.83-1.5 0-.9-.83-1.47-.83-.58-2.24-.58-1.37 0-2.22.58-.85.57-.85 1.47 0 .93.85 1.5.85.58 2.25.58m14.53 2.4-6.01-15.58h3.84l4.09 11.23 4.1-11.23h3.84L133.98 116zm13.51 0v-12.45h-2.82v-3.13h6.53V116zm-.16-18.69v-4.25h4.09v4.25zM159.04 116V93.6h7.52q3.55 0 5.71 1.86 2.16 1.85 2.16 5.18 0 3.3-2.16 5.14t-5.71 1.84h-3.62V116zm7.71-19.07h-3.81v7.42h3.81q1.73 0 2.75-1.04 1.03-1.04 1.03-2.67t-1.03-2.67-2.75-1.04m14.85 19.39q-2.66 0-4.22-1.3-1.57-1.29-1.57-3.34 0-2.08 1.71-3.44t4.56-1.36q2.14 0 3.55.77v-1.51q0-1.53-.86-2.17-.87-.64-2.21-.64-1.18 0-2.45.45-1.26.44-2.16 1.28l-1.66-2.5q1.02-1.15 2.8-1.81 1.77-.65 3.69-.65 2.88 0 4.69 1.48 1.81 1.49 1.81 4.37v5.03q0 1.28.02 2.52.01 1.25.08 2.5h-3.27l-.03-1.6q-1.31 1.92-4.48 1.92m1.02-2.72q1.38 0 2.21-.58.83-.57.83-1.5 0-.9-.83-1.47-.83-.58-2.24-.58-1.37 0-2.22.58-.85.57-.85 1.47 0 .93.85 1.5.85.58 2.25.58m16.55 2.4q-1.12 0-2.23-.38-1.1-.39-1.84-1.4-.73-1-.73-2.8v-7.87h-2.66v-3.13h2.66v-3.81h3.68v3.81h3.61v3.13h-3.61v8.16q0 .48.33.82.34.33.82.33h2.46V116zm12.25.32q-2.33 0-4.11-1.01-1.77-1.01-2.77-2.81-.99-1.81-.99-4.21v-.32q0-2.21.91-4 .92-1.79 2.6-2.83t3.92-1.04q2.33 0 4 1.13 1.66 1.14 2.43 3.22t.41 4.89H207.2q.19 1.64 1.33 2.71 1.13 1.07 3.09 1.07 1.15 0 1.98-.32t1.5-.96l2.08 2.18q-.92 1.15-2.41 1.72t-3.35.58m-.41-13.25q-1.63 0-2.56 1.01t-1.19 2.64h7.04q-.06-1.73-.97-2.69t-2.32-.96M225.76 116q-2.11 0-3.38-1.15-1.26-1.15-1.26-3.17v-15.9h-2.59v-3.14h6.27v19.1q0 .52.34.85.33.34.84.34h1.64V116zM90.37 182.19v-21h7.56q2.97 0 5.33 1.31 2.35 1.3 3.7 3.61t1.35 5.34v.33q0 2.28-.78 4.19-.78 1.9-2.2 3.3-1.43 1.39-3.32 2.16-1.89.76-4.08.76zm7.26-17.55h-3.6v14.1h3.6q2.01 0 3.57-.87t2.46-2.44q.9-1.58.9-3.65v-.33q0-2.04-.88-3.57-.89-1.53-2.45-2.38-1.56-.86-3.6-.86m20.34 17.85q-2.19 0-3.85-.94-1.67-.95-2.6-2.64t-.93-3.95v-.3q0-2.07.86-3.75.85-1.68 2.43-2.65 1.57-.98 3.67-.98 2.19 0 3.75 1.07 1.56 1.06 2.28 3.01t.39 4.59h-9.96q.18 1.53 1.25 2.54 1.06 1 2.89 1 1.08 0 1.86-.3t1.41-.9l1.95 2.04q-.87 1.08-2.27 1.62-1.39.54-3.13.54m-.39-12.42q-1.53 0-2.4.95-.87.94-1.11 2.47h6.6q-.06-1.62-.91-2.52t-2.18-.9m13.02 12.12-5.64-14.61h3.6l3.84 10.53 3.84-10.53h3.6l-5.61 14.61zm17.61.3q-2.19 0-3.85-.94-1.67-.95-2.6-2.64t-.93-3.95v-.3q0-2.07.85-3.75.86-1.68 2.43-2.65 1.58-.98 3.68-.98 2.19 0 3.75 1.07 1.56 1.06 2.28 3.01t.39 4.59h-9.96q.18 1.53 1.25 2.54 1.06 1 2.89 1 1.08 0 1.86-.3t1.41-.9l1.95 2.04q-.87 1.08-2.26 1.62-1.4.54-3.14.54m-.39-12.42q-1.53 0-2.4.95-.87.94-1.11 2.47h6.6q-.06-1.62-.91-2.52t-2.18-.9m13.83 12.12q-1.98 0-3.16-1.08t-1.19-2.97v-14.91h-2.43v-2.94h5.88v17.91q0 .48.32.8.31.31.79.31h1.53v2.88zm10.68.3q-2.13 0-3.84-.96t-2.7-2.65-.99-3.89v-.27q0-2.19.99-3.87t2.7-2.62 3.84-.95 3.83.95q1.69.94 2.68 2.62t.99 3.84v.3q0 2.19-.99 3.89-.99 1.69-2.68 2.65t-3.83.96m0-3.06q1.8 0 2.93-1.24 1.12-1.25 1.12-3.2v-.3q0-1.92-1.12-3.13-1.13-1.22-2.93-1.22-1.77 0-2.91 1.23t-1.14 3.15v.27q0 1.95 1.14 3.2 1.14 1.24 2.91 1.24m10.59 8.76v-20.61h3.24v1.83q.84-.99 2.04-1.56t2.61-.57q1.95 0 3.53.95 1.57.94 2.47 2.62t.9 3.87v.3q0 2.25-.9 3.93t-2.44 2.61-3.53.93q-1.35 0-2.49-.51t-1.98-1.41v7.62zm7.35-8.73q1.68 0 2.83-1.2t1.16-3.24v-.3q0-2.04-1.16-3.21-1.15-1.17-2.83-1.17-1.77 0-2.94 1.22-1.17 1.21-1.17 3.34 0 2.1 1.17 3.33t2.94 1.23m17.04 3.03q-2.19 0-3.85-.94-1.67-.95-2.6-2.64t-.93-3.95v-.3q0-2.07.86-3.75.85-1.68 2.42-2.65 1.58-.98 3.68-.98 2.19 0 3.75 1.07 1.56 1.06 2.28 3.01t.39 4.59h-9.96q.18 1.53 1.25 2.54 1.06 1 2.89 1 1.08 0 1.86-.3t1.41-.9l1.95 2.04q-.87 1.08-2.26 1.62-1.4.54-3.14.54m-.39-12.42q-1.53 0-2.4.95-.87.94-1.11 2.47h6.6q-.06-1.62-.91-2.52t-2.18-.9m9.51 12.12v-14.61h3.33v2.13q.54-1.26 1.59-1.75 1.05-.5 2.34-.5h1.2v3.42h-1.47q-1.71 0-2.63.78t-.91 2.28v8.25zm14.31 0 7.68-21h4.53l7.65 21h-3.78l-1.8-5.16h-8.7l-1.8 5.16zm6.69-8.28h6.48l-3.21-9.18zm20.94 8.58q-1.98 0-3.54-.93t-2.46-2.61-.9-3.93v-.3q0-2.19.92-3.87.91-1.68 2.47-2.62t3.54-.95q1.35 0 2.48.51t1.96 1.41v-8.91h3.45v21.9h-3.12v-1.98q-.87 1.08-2.1 1.68t-2.7.6m.54-3.03q1.77 0 2.95-1.23t1.19-3.33q0-2.13-1.19-3.34-1.18-1.22-2.95-1.22-1.65 0-2.82 1.17t-1.17 3.21v.3q0 2.04 1.17 3.24t2.82 1.2m15.18 2.73-5.64-14.61h3.6l3.84 10.53 3.84-10.53h3.6l-5.61 14.61zm17.73.3q-2.13 0-3.84-.96t-2.7-2.65-.99-3.89v-.27q0-2.19.99-3.87t2.7-2.62 3.84-.95 3.83.95q1.69.94 2.68 2.62t.99 3.84v.3q0 2.19-.99 3.89-.99 1.69-2.68 2.65t-3.83.96m0-3.06q1.8 0 2.93-1.24 1.12-1.25 1.12-3.2v-.3q0-1.92-1.12-3.13-1.13-1.22-2.93-1.22-1.77 0-2.91 1.23t-1.14 3.15v.27q0 1.95 1.14 3.2 1.14 1.24 2.91 1.24m17.28 3.06q-2.19 0-3.91-.94-1.73-.95-2.72-2.63t-.99-3.87v-.33q0-2.22 1.01-3.9 1-1.68 2.73-2.61 1.72-.93 3.88-.93 1.62 0 3.03.65 1.41.64 2.28 1.78l-2.1 2.13q-.6-.69-1.42-1.03-.83-.35-1.76-.35-1.8 0-2.98 1.14-1.19 1.14-1.19 3.12v.33q0 1.95 1.22 3.11 1.21 1.15 2.98 1.15.9 0 1.73-.31.82-.32 1.51-1.01l2.07 2.07q-.87 1.14-2.31 1.79-1.44.64-3.06.64m12.48 0q-2.49 0-3.96-1.21-1.47-1.22-1.47-3.14 0-1.95 1.61-3.22 1.6-1.28 4.27-1.28 2.01 0 3.33.72v-1.41q0-1.44-.81-2.04t-2.07-.6q-1.11 0-2.29.42-1.19.42-2.03 1.2l-1.56-2.34q.96-1.08 2.63-1.69 1.66-.62 3.46-.62 2.7 0 4.39 1.4 1.7 1.39 1.7 4.09v4.71q0 1.2.02 2.37.01 1.17.07 2.34h-3.06l-.03-1.5q-1.23 1.8-4.2 1.8m.96-2.55q1.29 0 2.07-.54t.78-1.41q0-.84-.78-1.38t-2.1-.54q-1.29 0-2.08.54-.8.54-.8 1.38 0 .87.8 1.41.79.54 2.11.54m15.51 2.25q-1.05 0-2.08-.36-1.04-.36-1.73-1.3t-.69-2.63v-7.38h-2.49v-2.94h2.49v-3.57H337v3.57h3.39v2.94H337v7.65q0 .45.32.77.31.31.76.31h2.31v2.94zm11.49.3q-2.19 0-3.85-.94-1.67-.95-2.6-2.64t-.93-3.95v-.3q0-2.07.86-3.75.85-1.68 2.43-2.65 1.57-.98 3.67-.98 2.19 0 3.75 1.07 1.56 1.06 2.28 3.01t.39 4.59h-9.96q.18 1.53 1.25 2.54 1.06 1 2.89 1 1.08 0 1.86-.3t1.41-.9l1.95 2.04q-.87 1.08-2.26 1.62-1.4.54-3.14.54m-.39-12.42q-1.53 0-2.4.95-.87.94-1.11 2.47h6.6q-.06-1.62-.91-2.52t-2.18-.9"/></svg>