<svg xmlns="http://www.w3.org/2000/svg" width="1080" height="1080" viewBox="0 0 1080 1080"><path fill="#f7f7f5" d="M0 0h1080v1080H0z"/><path fill="#0c322c" d="M102.54 499.44v-62.62H81.27v-5.98h49.2v5.98h-21.36v62.62zm34.79 0V427.9h5.98v33.03q1.86-3.53 4.65-5.54t5.83-2.89 5.69-.88q7.94 0 12.93 5.04 5 5.05 5 15.44v27.34h-6.27v-26.56q0-8.23-3.72-11.86t-9.41-3.62q-3.92 0-7.2 1.76-3.29 1.77-5.25 5.2t-1.96 8.62v26.46zm73.5.98q-6.86 0-12.15-3.09t-8.23-8.52-2.94-12.6v-.98q0-6.86 2.74-12.15t7.6-8.38 11.31-3.08q6.57 0 11.27 3.23 4.71 3.23 6.91 9.11t1.33 13.72h-34.99q.2 4.81 2.4 8.68 2.21 3.87 6.03 6.07t8.92 2.21q7.74 0 12.15-3.82l3.53 4.01q-2.65 2.65-6.81 4.12t-9.07 1.47m-1.67-43.32q-6.46 0-10.53 4.22t-4.85 11.17h29.01q.09-7.06-3.68-11.22t-9.95-4.17m75.46 43.32q-5.78 0-10.43-2.79-4.66-2.8-7.3-7.79v9.6h-5.79V427.9h6.28v33.71q2.64-4.6 7.1-7.3 4.46-2.69 10.14-2.69 6.37 0 11.32 3.03 4.95 3.04 7.79 8.38 2.85 5.34 2.85 12.3v.88q0 7.16-2.8 12.65t-7.74 8.52-11.42 3.04m-.78-5.59q4.8 0 8.53-2.3t5.83-6.52 2.1-9.8v-.88q0-5.39-2.1-9.46-2.11-4.06-5.83-6.36t-8.53-2.31-8.62 2.4q-3.83 2.4-6.03 6.62-2.21 4.21-2.21 9.8 0 5.68 2.21 9.9 2.2 4.21 6.03 6.56 3.82 2.35 8.62 2.35m53.61 5.59q-6.86 0-12.16-3.09t-8.23-8.52-2.94-12.6v-.98q0-6.86 2.75-12.15t7.59-8.38 11.32-3.08q6.57 0 11.27 3.23t6.91 9.11 1.32 13.72H320.3q.19 4.81 2.4 8.68t6.02 6.07q3.83 2.21 8.92 2.21 7.74 0 12.15-3.82l3.53 4.01q-2.64 2.65-6.81 4.12t-9.06 1.47m-1.67-43.32q-6.47 0-10.53 4.22-4.07 4.21-4.86 11.17h29.01q.1-7.06-3.67-11.22t-9.95-4.17m42.43 43.22q-4.9 0-9.4-1.57-4.51-1.56-7.26-4.21l2.85-4.31q2.54 2.35 6.27 3.72t7.54 1.37q4.81 0 7.84-2.25t3.04-5.98q0-3.04-1.86-4.7t-4.85-2.55q-2.99-.88-6.27-1.71-3.29-.84-6.23-2.16t-4.8-3.77-1.86-6.86q0-6.08 4.51-9.9t12.05-3.82q4.31 0 8.09 1.32 3.77 1.32 6.61 3.48l-2.84 4.41q-2.45-1.96-5.49-3.04t-6.47-1.08q-4.7 0-7.59 2.26t-2.89 5.88q0 3.03 1.86 4.65t4.85 2.55 6.32 1.76 6.32 2.21 4.85 3.92 1.87 6.96q0 5.88-4.76 9.65t-12.3 3.77m42.44-.88q-3.14 0-5.88-1.27-2.75-1.28-4.51-3.87-1.76-2.6-1.76-6.72v-29.5h-8.73v-5.48h8.73v-11.67h6.17v11.67h13.03v5.48h-13.03v29.89q0 2.65 1.76 4.37 1.77 1.71 4.32 1.71h6.95v5.39zm40.86 0v-41.36h-9.4v-5.48h15.58v46.84zm-.39-57.62v-10.59h6.96v10.59zm20.68 57.62V452.6h5.98v8.33q1.86-3.53 4.65-5.54t5.83-2.89 5.69-.88q7.94 0 12.93 5.04 5 5.05 5 15.44v27.34h-6.27v-26.56q0-8.23-3.72-11.86t-9.41-3.62q-3.92 0-7.2 1.76-3.29 1.77-5.25 5.2t-1.96 8.62v26.46zm55.76 0v-41.36h-8.92v-5.48h8.92v-12.84q0-5.39 3.43-8.63 3.43-3.23 8.82-3.23h7.74v5.39h-7.74q-2.64 0-4.36 1.72-1.71 1.71-1.71 4.26v13.33h13.81v5.48h-13.81v41.36zm27.93 0V452.6h6.08v7.64q1.76-4.51 5.24-6.12t7.89-1.62h4.02v6.17h-4.51q-5.78 0-9.11 2.99-3.34 2.99-3.34 9.36v28.42zm43.22.98q-8.13 0-12.94-3.82t-4.8-10q0-4.11 2.35-7.25t6.52-4.95 9.56-1.81q4.31 0 7.59 1.03t5.54 2.89v-7.25q0-6.37-3.24-9.17-3.23-2.79-8.72-2.79-3.92 0-7.98 1.42t-6.82 4.56l-3.03-4.41q3.13-3.63 8.03-5.44t10.1-1.81q8.03 0 12.93 4.31t4.9 13.03v14.9q0 7.84.3 15.58h-5.59l-.1-5.1q-4.21 6.08-14.6 6.08m1.47-4.8q5.98 0 9.16-2.55 3.19-2.55 3.19-6.47 0-4.02-3.24-6.47-3.23-2.45-9.21-2.45-5.88 0-9.31 2.45t-3.43 6.47q0 3.92 3.43 6.47t9.41 2.55m44.49 4.7q-4.9 0-9.41-1.57-4.5-1.56-7.25-4.21l2.84-4.31q2.55 2.35 6.28 3.72 3.72 1.37 7.54 1.37 4.8 0 7.84-2.25t3.04-5.98q0-3.04-1.86-4.7t-4.85-2.55q-2.99-.88-6.27-1.71-3.29-.84-6.23-2.16t-4.8-3.77-1.86-6.86q0-6.08 4.51-9.9t12.05-3.82q4.31 0 8.09 1.32 3.77 1.32 6.61 3.48l-2.84 4.41q-2.45-1.96-5.49-3.04t-6.47-1.08q-4.7 0-7.59 2.26t-2.89 5.88q0 3.03 1.86 4.65t4.85 2.55 6.32 1.76 6.32 2.21 4.85 3.92 1.86 6.96q0 5.88-4.75 9.65t-12.3 3.77m42.44-.88q-3.14 0-5.88-1.27-2.75-1.28-4.51-3.87-1.77-2.6-1.77-6.72v-29.5h-8.72v-5.48h8.72v-11.67h6.18v11.67h13.03v5.48h-13.03v29.89q0 2.65 1.76 4.37 1.77 1.71 4.31 1.71h6.96v5.39zm16.46 0V452.6h6.08v7.64q1.76-4.51 5.24-6.12t7.89-1.62h4.02v6.17h-4.51q-5.78 0-9.12 2.99t-3.33 9.36v28.42zm49 .98q-5.19 0-9.31-2.01t-6.47-6.27-2.35-11.22V452.6h6.17v27.34q0 8.23 3.73 11.46t9.31 3.24q3.82 0 7.05-1.72 3.24-1.71 5.25-5.09t2.01-8.58V452.6h6.07v46.84h-5.68v-7.74q-2.84 4.9-7.35 6.81t-8.43 1.91m56.06 0q-6.96 0-12.35-3.04t-8.43-8.38-3.04-12.39v-1.28q0-6.96 3.09-12.3t8.43-8.38 12.3-3.03q5.09 0 9.21 1.81 4.11 1.81 7.05 5.05l-3.92 3.92q-4.8-5-12.44-5-5.1 0-9.07 2.25t-6.22 6.32-2.25 9.36v1.28q0 5.39 2.3 9.45 2.3 4.07 6.27 6.32t9.07 2.26q7.64 0 12.54-5l3.82 3.92q-2.94 3.23-7.1 5.05t-9.26 1.81m40.76-.98q-3.13 0-5.88-1.27-2.74-1.28-4.5-3.87-1.77-2.6-1.77-6.72v-29.5h-8.72v-5.48h8.72v-11.67h6.18v11.67h13.03v5.48h-13.03v29.89q0 2.65 1.76 4.37 1.76 1.71 4.31 1.71h6.96v5.39zm33.91.98q-5.19 0-9.31-2.01t-6.47-6.27-2.35-11.22V452.6h6.18v27.34q0 8.23 3.72 11.46t9.31 3.24q3.82 0 7.06-1.72 3.23-1.71 5.24-5.09t2.01-8.58V452.6h6.07v46.84h-5.68v-7.74q-2.84 4.9-7.35 6.81t-8.43 1.91m35.48-.98V452.6h6.07v7.64q1.77-4.51 5.25-6.12t7.89-1.62H952v6.17h-4.5q-5.79 0-9.12 2.99t-3.33 9.36v28.42zm49.19.98q-6.86 0-12.15-3.09t-8.23-8.52-2.94-12.6v-.98q0-6.86 2.74-12.15t7.6-8.38 11.32-3.08q6.56 0 11.27 3.23t6.91 9.11 1.32 13.72h-34.99q.2 4.81 2.41 8.68t6.02 6.07 8.92 2.21q7.74 0 12.15-3.82l3.53 4.01q-2.65 2.65-6.81 4.12t-9.07 1.47m-1.66-43.32q-6.47 0-10.54 4.22t-4.85 11.17h29.01q.1-7.06-3.67-11.22t-9.95-4.17M91.27 618.98v-41.36h-9.41v-5.48h15.58v46.84zm-.39-57.62v-10.59h6.96v10.59zm33.12 58.5q-4.9 0-9.41-1.57-4.5-1.56-7.25-4.21l2.84-4.31q2.55 2.35 6.28 3.72 3.72 1.37 7.54 1.37 4.8 0 7.84-2.25t3.04-5.98q0-3.04-1.86-4.7t-4.85-2.55-6.27-1.71q-3.29-.84-6.23-2.16t-4.8-3.77-1.86-6.86q0-6.08 4.51-9.9t12.05-3.82q4.31 0 8.09 1.32 3.77 1.32 6.61 3.48l-2.84 4.41q-2.45-1.96-5.49-3.04t-6.47-1.08q-4.7 0-7.59 2.26t-2.89 5.88q0 3.03 1.86 4.65t4.85 2.55 6.32 1.76 6.32 2.21 4.85 3.92 1.86 6.96q0 5.88-4.75 9.65t-12.3 3.77m63.21-.88q-3.13 0-5.88-1.27-2.74-1.28-4.51-3.87-1.76-2.6-1.76-6.72v-29.5h-8.72v-5.48h8.72v-11.67h6.17v11.67h13.04v5.48h-13.04v29.89q0 2.65 1.77 4.37 1.76 1.71 4.31 1.71h6.96v5.39zm16.47 0v-71.54h5.97v33.03q1.87-3.53 4.66-5.54t5.83-2.89 5.68-.88q7.94 0 12.94 5.04t5 15.44v27.34h-6.27v-26.56q0-8.23-3.73-11.86t-9.41-3.62q-3.92 0-7.2 1.76-3.28 1.77-5.24 5.2t-1.96 8.62v26.46zm73.5.98q-6.86 0-12.16-3.09t-8.23-8.52q-2.94-5.44-2.94-12.6v-.98q0-6.86 2.75-12.15t7.59-8.38q4.85-3.08 11.32-3.08 6.57 0 11.27 3.23t6.91 9.11q2.2 5.88 1.32 13.72h-34.98q.19 4.81 2.4 8.68t6.02 6.07q3.83 2.21 8.92 2.21 7.74 0 12.15-3.82l3.53 4.01q-2.64 2.65-6.81 4.12t-9.06 1.47m-1.67-43.32q-6.47 0-10.53 4.22-4.07 4.21-4.86 11.17h29.01q.1-7.06-3.67-11.22t-9.95-4.17m51.94 42.34v-71.54h6.27v48.61l23.62-23.91h7.74l-18.23 18.62 20.09 28.22h-7.74l-16.76-23.72-8.72 8.92v14.8zm49.88 0v-41.36h-9.41v-5.48h15.59v46.84zm-.39-57.62v-10.59h6.96v10.59zm20.68 57.62v-46.84h5.98v8.33q1.86-3.53 4.65-5.54t5.83-2.89 5.69-.88q7.93 0 12.93 5.04t5 15.44v27.34h-6.27v-26.56q0-8.23-3.73-11.86t-9.4-3.62q-3.92 0-7.21 1.76-3.28 1.77-5.24 5.2t-1.96 8.62v26.46zm72.13.98q-6.47 0-11.42-3.04t-7.74-8.52-2.8-12.65v-.88q0-6.96 2.85-12.3 2.84-5.34 7.79-8.38 4.95-3.03 11.32-3.03 5.68 0 10.14 2.69 4.46 2.7 7.1 7.3v-33.71h6.28v71.54h-5.69v-9.6q-2.74 4.9-7.35 7.74t-10.48 2.84m.78-5.59q4.8 0 8.62-2.35 3.83-2.35 6.03-6.56 2.21-4.22 2.21-9.9 0-5.59-2.21-9.8t-6.03-6.62-8.62-2.4-8.53 2.31-5.83 6.36-2.1 9.46v.88q0 5.59 2.1 9.8t5.83 6.52 8.53 2.3m51.16 24.21v-5.39h8.91q2.45 0 3.88-1.71 1.42-1.72 2.3-3.97l3.62-8.14-19.4-47.23h6.86l15.88 39.59 15.38-39.59h6.86l-22.83 55.56q-1.08 2.65-2.6 5.15t-3.97 4.11-6.27 1.62zm70.85-18.62q-6.66 0-11.86-3.09t-8.13-8.52q-2.94-5.44-2.94-12.6v-.88q0-6.96 2.94-12.3t8.13-8.38q5.2-3.03 11.86-3.03 6.57 0 11.76 3.03 5.19 3.04 8.13 8.33t2.94 12.16v1.07q0 7.16-2.94 12.6t-8.13 8.52q-5.19 3.09-11.76 3.09m0-5.59q4.9 0 8.62-2.4 3.73-2.4 5.84-6.56t2.1-9.66v-1.07q0-5.3-2.1-9.31t-5.84-6.32q-3.72-2.31-8.62-2.31t-8.67 2.35-5.93 6.42-2.16 9.36v.88q0 5.49 2.16 9.66 2.15 4.16 5.93 6.56t8.67 2.4m51.06 5.59q-5.2 0-9.31-2.01t-6.47-6.27-2.35-11.22v-28.32h6.17v27.34q0 8.23 3.73 11.46t9.31 3.24q3.82 0 7.05-1.72 3.24-1.71 5.25-5.09t2-8.58v-26.65h6.08v46.84h-5.68v-7.74q-2.85 4.9-7.35 6.81t-8.43 1.91m57.43-.98v-46.84H707v8.33q1.87-3.53 4.66-5.54t5.83-2.89 5.68-.88q7.94 0 12.94 5.04t5 15.44v27.34h-6.27v-26.56q0-8.23-3.73-11.86t-9.41-3.62q-3.92 0-7.2 1.76-3.28 1.77-5.24 5.2t-1.96 8.62v26.46zm73.5.98q-6.86 0-12.16-3.09t-8.23-8.52q-2.94-5.44-2.94-12.6v-.98q0-6.86 2.75-12.15t7.59-8.38 11.32-3.08q6.57 0 11.27 3.23t6.91 9.11 1.32 13.72h-34.98q.19 4.81 2.4 8.68t6.02 6.07q3.83 2.21 8.92 2.21 7.74 0 12.15-3.82l3.53 4.01q-2.64 2.65-6.81 4.12t-9.06 1.47m-1.67-43.32q-6.47 0-10.53 4.22-4.07 4.21-4.86 11.17h29.01q.1-7.06-3.67-11.22t-9.95-4.17m41.94 42.34-18.91-46.84h6.47l15.78 39.39 15.68-39.39h6.46l-18.81 46.84zm52.53.98q-6.86 0-12.15-3.09t-8.23-8.52q-2.94-5.44-2.94-12.6v-.98q0-6.86 2.74-12.15t7.6-8.38 11.32-3.08q6.56 0 11.27 3.23t6.91 9.11 1.32 13.72h-34.99q.2 4.81 2.4 8.68 2.21 3.87 6.03 6.07t8.92 2.21q7.74 0 12.15-3.82l3.53 4.01q-2.65 2.65-6.81 4.12t-9.07 1.47m-1.66-43.32q-6.47 0-10.54 4.22t-4.85 11.17h29.01q.1-7.06-3.68-11.22-3.77-4.17-9.94-4.17m29.98 42.34v-46.84h6.08v7.64q1.76-4.51 5.24-6.12t7.89-1.62h4.02v6.17h-4.51q-5.78 0-9.11 2.99t-3.33 9.36v28.42zM87.74 738.53v-71.54h5.98v33.03q1.86-3.53 4.66-5.54t5.83-2.89 5.68-.88q7.94 0 12.94 5.04t4.99 15.44v27.34h-6.27v-26.56q0-8.23-3.72-11.86t-9.41-3.62q-3.92 0-7.2 1.76-3.29 1.77-5.25 5.2t-1.96 8.62v26.46zm67.43.98q-8.14 0-12.94-3.82t-4.8-10q0-4.11 2.35-7.25t6.52-4.95q4.16-1.81 9.55-1.81 4.31 0 7.6 1.03 3.28 1.03 5.53 2.89v-7.25q0-6.37-3.23-9.17t-8.72-2.79q-3.92 0-7.99 1.42t-6.81 4.56l-3.04-4.41q3.14-3.63 8.04-5.44t10.09-1.81q8.04 0 12.94 4.31t4.9 13.03v14.9q0 7.84.29 15.58h-5.58l-.1-5.1q-4.22 6.08-14.6 6.08m1.47-4.8q5.97 0 9.16-2.55 3.18-2.55 3.18-6.47 0-4.02-3.23-6.47t-9.21-2.45q-5.88 0-9.31 2.45t-3.43 6.47q0 3.92 3.43 6.47t9.41 2.55m43.9 3.82-18.91-46.84h6.46l15.78 39.39 15.68-39.39h6.47l-18.82 46.84zm52.53.98q-6.86 0-12.15-3.09t-8.24-8.52q-2.94-5.44-2.94-12.6v-.98q0-6.86 2.75-12.15t7.59-8.38 11.32-3.08q6.57 0 11.27 3.23 4.71 3.23 6.91 9.11t1.32 13.72h-34.98q.19 4.81 2.4 8.68t6.03 6.07 8.91 2.21q7.75 0 12.16-3.82l3.52 4.01q-2.64 2.65-6.81 4.12t-9.06 1.47m-1.67-43.32q-6.47 0-10.53 4.22-4.07 4.21-4.85 11.17h29q.1-7.06-3.67-11.22t-9.95-4.17m65.76 42.34q-3.14 0-5.88-1.27-2.74-1.28-4.51-3.87-1.76-2.6-1.76-6.72v-29.5h-8.72v-5.48h8.72v-11.67h6.17v11.67h13.04v5.48h-13.04v29.89q0 2.65 1.77 4.37 1.76 1.71 4.31 1.71h6.96v5.39zm34.59.98q-6.66 0-11.85-3.09-5.2-3.08-8.14-8.52t-2.94-12.6v-.88q0-6.96 2.94-12.3t8.14-8.38q5.19-3.03 11.85-3.03 6.57 0 11.76 3.03 5.2 3.04 8.14 8.33t2.94 12.16v1.07q0 7.16-2.94 12.6t-8.14 8.52q-5.19 3.09-11.76 3.09m0-5.59q4.9 0 8.63-2.4 3.72-2.4 5.83-6.56t2.11-9.66v-1.07q0-5.3-2.11-9.31t-5.83-6.32q-3.73-2.31-8.63-2.31t-8.67 2.35-5.93 6.42-2.15 9.36v.88q0 5.49 2.15 9.66 2.16 4.16 5.93 6.56t8.67 2.4m69.39 4.61q-3.14 0-5.88-1.27-2.75-1.28-4.51-3.87-1.76-2.6-1.76-6.72v-29.5h-8.73v-5.48h8.73v-11.67h6.17v11.67h13.03v5.48h-13.03v29.89q0 2.65 1.76 4.37 1.77 1.71 4.32 1.71h6.95v5.39zm16.46 0v-71.54h5.98v33.03q1.86-3.53 4.66-5.54t5.83-2.89 5.68-.88q7.94 0 12.94 5.04t4.99 15.44v27.34h-6.27v-26.56q0-8.23-3.72-11.86t-9.41-3.62q-3.92 0-7.2 1.76-3.29 1.77-5.25 5.2t-1.96 8.62v26.46zm56.06 0v-41.36h-9.41v-5.48h15.58v46.84zm-.39-57.62v-10.59h6.95v10.59zm20.67 57.62v-46.84h5.98v8.33q1.86-3.53 4.66-5.54t5.83-2.89 5.68-.88q7.94 0 12.94 5.04t5 15.44v27.34h-6.28v-26.56q0-8.23-3.72-11.86t-9.41-3.62q-3.92 0-7.2 1.76-3.28 1.77-5.24 5.2t-1.96 8.62v26.46zm53.41 0v-71.54h6.28v48.61l23.61-23.91h7.75l-18.23 18.62 20.09 28.22h-7.74l-16.76-23.72-8.72 8.92v14.8zm81.25.98q-8.14 0-12.94-3.82t-4.8-10q0-4.11 2.35-7.25t6.52-4.95 9.55-1.81q4.31 0 7.6 1.03 3.28 1.03 5.53 2.89v-7.25q0-6.37-3.23-9.17t-8.72-2.79q-3.92 0-7.99 1.42t-6.81 4.56l-3.04-4.41q3.14-3.63 8.04-5.44t10.09-1.81q8.04 0 12.94 4.31t4.9 13.03v14.9q0 7.84.29 15.58h-5.58l-.1-5.1q-4.22 6.08-14.6 6.08m1.47-4.8q5.97 0 9.16-2.55 3.18-2.55 3.18-6.47 0-4.02-3.23-6.47t-9.21-2.45q-5.88 0-9.31 2.45t-3.43 6.47q0 3.92 3.43 6.47t9.41 2.55m55.56 4.8q-5.78 0-10.43-2.79-4.66-2.8-7.31-7.79v9.6h-5.78v-71.54h6.27v33.71q2.65-4.6 7.11-7.3 4.46-2.69 10.14-2.69 6.37 0 11.32 3.03 4.95 3.04 7.79 8.38t2.84 12.3v.88q0 7.16-2.79 12.65t-7.74 8.52-11.42 3.04m-.78-5.59q4.8 0 8.52-2.3 3.73-2.3 5.84-6.52t2.1-9.8v-.88q0-5.39-2.1-9.46-2.11-4.06-5.84-6.36t-8.52-2.31-8.63 2.4q-3.82 2.4-6.02 6.62-2.21 4.21-2.21 9.8 0 5.68 2.21 9.9 2.2 4.21 6.02 6.56 3.83 2.35 8.63 2.35m53.21 5.59q-6.66 0-11.86-3.09t-8.13-8.52q-2.94-5.44-2.94-12.6v-.88q0-6.96 2.94-12.3t8.13-8.38q5.2-3.03 11.86-3.03 6.57 0 11.76 3.03 5.2 3.04 8.14 8.33t2.94 12.16v1.07q0 7.16-2.94 12.6t-8.14 8.52q-5.19 3.09-11.76 3.09m0-5.59q4.9 0 8.63-2.4 3.72-2.4 5.83-6.56t2.1-9.66v-1.07q0-5.3-2.1-9.31t-5.83-6.32-8.63-2.31-8.67 2.35-5.93 6.42-2.16 9.36v.88q0 5.49 2.16 9.66t5.93 6.56 8.67 2.4m51.06 5.59q-5.19 0-9.31-2.01t-6.47-6.27-2.35-11.22v-28.32h6.17v27.34q0 8.23 3.73 11.46t9.31 3.24q3.82 0 7.05-1.72 3.24-1.71 5.25-5.09t2.01-8.58v-26.65h6.07v46.84h-5.68v-7.74q-2.84 4.9-7.35 6.81t-8.43 1.91m50.47-.98q-3.14 0-5.88-1.27-2.74-1.28-4.51-3.87-1.76-2.6-1.76-6.72v-29.5h-8.72v-5.48h8.72v-11.67h6.17v11.67h13.04v5.48h-13.04v29.89q0 2.65 1.77 4.37 1.76 1.71 4.31 1.71h6.96v5.39zm14.99 0v-9.02h7.55v9.02z"/><path fill="#0c322c" fill-opacity=".12" d="M80 225.69h920v2H80z"/><path fill="#0c322c" d="m80.19 108 8.19-22.4h4.84l8.16 22.4h-4.04l-1.92-5.5h-9.28l-1.92 5.5zm7.14-8.83h6.91l-3.42-9.79zm16.41 8.83V92.42h3.52v1.95q.9-1.31 2.15-1.79t2.4-.48q1.53 0 2.7.62t1.87 1.9q.71-1.02 1.62-1.56.91-.55 1.82-.76.92-.2 1.65-.2 2.53 0 4.13 1.63t1.6 4.8V108h-3.65v-8.93q0-1.89-.81-2.75t-2.2-.86-2.32.94q-.91.94-.91 2.67V108h-3.68v-8.93q0-1.89-.81-2.75t-2.16-.86q-1.41 0-2.34.94t-.93 2.67V108zm28.64 0V95.55h-2.81v-3.13h6.53V108zm-.16-18.69v-4.25h4.1v4.25zm8.13 18.69V92.42h3.55v1.98q.96-1.38 2.29-1.84t2.42-.46q2.62 0 4.21 1.71t1.58 4.91V108h-3.68v-8.67q0-2.05-.88-2.96t-2.26-.91q-1.5 0-2.52 1-1.03 1.01-1.03 2.93V108zm22.85.32q-2.66 0-4.22-1.3-1.57-1.29-1.57-3.34 0-2.08 1.71-3.44t4.56-1.36q2.14 0 3.55.77v-1.51q0-1.53-.86-2.17-.87-.64-2.21-.64-1.18 0-2.45.45-1.26.44-2.16 1.28l-1.66-2.5q1.02-1.15 2.8-1.81 1.77-.65 3.69-.65 2.88 0 4.69 1.48 1.81 1.49 1.81 4.37v5.03q0 1.28.02 2.52.01 1.25.08 2.5h-3.27l-.03-1.6q-1.31 1.92-4.48 1.92m1.02-2.72q1.38 0 2.21-.58.83-.57.83-1.5 0-.9-.83-1.47-.83-.58-2.24-.58-1.37 0-2.22.58-.85.57-.85 1.47 0 .93.85 1.5.85.58 2.25.58m28.1 2.85q-3.17 0-5.66-1.46-2.5-1.45-3.94-4.06t-1.44-6.03v-.26q0-3.42 1.44-6t3.94-4.03 5.66-1.46 5.66 1.46q2.5 1.45 3.92 4.03 1.43 2.58 1.43 6v.26q0 3.42-1.43 6.03-1.42 2.61-3.92 4.06-2.49 1.46-5.66 1.46m0-3.84q2.05 0 3.62-.95 1.56-.94 2.46-2.67t.9-4.09v-.26q0-2.34-.9-4.06-.9-1.73-2.46-2.66-1.57-.93-3.62-.93t-3.63.93q-1.59.93-2.48 2.66-.9 1.72-.9 4.06v.26q0 2.36.9 4.09.89 1.73 2.48 2.67 1.58.95 3.63.95m14.27 3.39V84.64h3.68v14.11l5.89-6.33h4.54l-5.69 6.14 5.95 9.44h-4.54l-4.04-6.59-2.11 2.27V108zm21.03.32q-2.66 0-4.23-1.3-1.57-1.29-1.57-3.34 0-2.08 1.72-3.44 1.71-1.36 4.56-1.36 2.14 0 3.55.77v-1.51q0-1.53-.87-2.17-.86-.64-2.2-.64-1.19 0-2.45.45-1.27.44-2.16 1.28l-1.67-2.5q1.03-1.15 2.8-1.81 1.78-.65 3.7-.65 2.88 0 4.69 1.48 1.81 1.49 1.81 4.37v5.03l.01 2.52q.02 1.25.08 2.5h-3.26l-.03-1.6q-1.32 1.92-4.48 1.92m1.02-2.72q1.38 0 2.21-.58.83-.57.83-1.5 0-.9-.83-1.47-.83-.58-2.24-.58-1.38 0-2.23.58-.84.57-.84 1.47 0 .93.84 1.5.85.58 2.26.58m11.84 2.4V95.55h-2.69v-3.13h2.69v-3.24q0-2.11 1.33-3.32 1.33-1.22 3.6-1.22h2.62v3.07h-2.69q-.48 0-.81.34-.34.33-.34.85v3.52h3.84v3.13h-3.84V108zm16.7.32q-2.27 0-4.09-1.02-1.83-1.03-2.88-2.84-1.06-1.8-1.06-4.14v-.29q0-2.33 1.06-4.13 1.05-1.79 2.88-2.8t4.09-1q2.28 0 4.08 1 1.81 1.01 2.87 2.8 1.05 1.8 1.05 4.1v.32q0 2.34-1.05 4.14-1.06 1.81-2.87 2.84-1.8 1.02-4.08 1.02m0-3.26q1.92 0 3.12-1.33t1.2-3.41V100q0-2.05-1.2-3.34-1.2-1.3-3.12-1.3-1.88 0-3.1 1.31t-1.22 3.36v.29q0 2.08 1.22 3.41t3.1 1.33m11.3 2.94V92.42h3.55v2.27q.58-1.35 1.7-1.87 1.12-.53 2.49-.53h1.28v3.65h-1.56q-1.83 0-2.8.83-.98.83-.98 2.43v8.8zM82.37 174.19v-21h7.05q3.33 0 5.35 1.74 2.03 1.74 2.03 4.86 0 3.09-2.03 4.82-2.02 1.72-5.35 1.72h-3.39v7.86zm7.23-17.88h-3.57v6.96h3.57q1.62 0 2.58-.97.96-.98.96-2.51t-.96-2.5-2.58-.98m9.63 17.88v-14.61h3.33v2.13q.54-1.26 1.59-1.75 1.05-.5 2.34-.5h1.2v3.42h-1.47q-1.71 0-2.62.78t-.92 2.28v8.25zm12.24 0v-11.67h-2.64v-2.94h6.12v14.61zm-.15-17.52v-3.99h3.84v3.99zm7.62 17.52v-14.61h3.33v1.86q.9-1.29 2.15-1.72 1.24-.44 2.26-.44 2.46 0 3.95 1.61 1.48 1.6 1.48 4.6v8.7h-3.45v-8.13q0-1.92-.82-2.77-.83-.86-2.12-.86-1.41 0-2.37.95-.96.94-.96 2.74v8.07zm23.7.3q-2.19 0-3.92-.94-1.72-.95-2.71-2.63t-.99-3.87v-.33q0-2.22 1.01-3.9 1-1.68 2.73-2.61 1.72-.93 3.88-.93 1.62 0 3.03.65 1.41.64 2.28 1.78l-2.1 2.13q-.6-.69-1.42-1.03-.83-.35-1.76-.35-1.8 0-2.99 1.14-1.18 1.14-1.18 3.12v.33q0 1.95 1.22 3.11 1.21 1.15 2.98 1.15.9 0 1.73-.31.82-.32 1.51-1.01l2.07 2.07q-.87 1.14-2.31 1.79-1.44.64-3.06.64m9.3-.3v-11.67h-2.64v-2.94h6.12v14.61zm-.15-17.52v-3.99h3.84v3.99zm7.62 23.52v-20.61h3.24v1.83q.84-.99 2.04-1.56t2.61-.57q1.95 0 3.53.95 1.57.94 2.47 2.62t.9 3.87v.3q0 2.25-.9 3.93t-2.45 2.61-3.52.93q-1.35 0-2.49-.51t-1.98-1.41v7.62zm7.35-8.73q1.68 0 2.84-1.2 1.15-1.2 1.15-3.24v-.3q0-2.04-1.15-3.21-1.16-1.17-2.84-1.17-1.77 0-2.94 1.22-1.17 1.21-1.17 3.34 0 2.1 1.17 3.33t2.94 1.23m14.97 3.03q-2.49 0-3.96-1.21-1.47-1.22-1.47-3.14 0-1.95 1.61-3.22 1.6-1.28 4.27-1.28 2.01 0 3.33.72v-1.41q0-1.44-.81-2.04t-2.07-.6q-1.11 0-2.29.42-1.19.42-2.03 1.2l-1.56-2.34q.96-1.08 2.63-1.69 1.66-.62 3.46-.62 2.7 0 4.4 1.4 1.69 1.39 1.69 4.09v4.71q0 1.2.02 2.37.01 1.17.07 2.34h-3.06l-.03-1.5q-1.23 1.8-4.2 1.8m.96-2.55q1.29 0 2.07-.54t.78-1.41q0-.84-.78-1.38t-2.1-.54q-1.29 0-2.08.54-.8.54-.8 1.38 0 .87.8 1.41.79.54 2.11.54m14.43 2.25q-1.98 0-3.16-1.08t-1.19-2.97v-14.91h-2.43v-2.94h5.88v17.91q0 .48.32.8.31.31.79.31h1.53v2.88zm14.52 0q-1.53 0-2.5-.99-.98-.99-.98-2.52V156.7q0-1.53.98-2.52.97-.99 2.5-.99h10.23v3.36h-9q-.45 0-.77.32-.31.31-.31.76v4.41h9.45v3.21h-9.45v4.5q0 .45.31.77.32.31.77.31h9v3.36zm13.44 0v-14.61h3.33v1.86q.9-1.29 2.15-1.72 1.24-.44 2.26-.44 2.46 0 3.94 1.61 1.49 1.6 1.49 4.6v8.7h-3.45v-8.13q0-1.92-.82-2.77-.83-.86-2.12-.86-1.41 0-2.37.95-.96.94-.96 2.74v8.07zm15.84 6v-2.85h8.85q1.47 0 1.47-1.32 0-1.23-1.47-1.23h-5.07q-1.17 0-1.8-.57t-.72-1.45.36-1.82l.93-1.86q-1.11-.72-1.72-1.81-.62-1.1-.62-2.48v-.27q0-1.53.82-2.71.83-1.19 2.29-1.86 1.45-.68 3.37-.68h.3l1.32-2.85h3.48l-1.89 3.45q1.5.66 2.37 1.86t.87 2.76v.3q0 1.59-.82 2.81-.83 1.21-2.28 1.9-1.46.69-3.35.69-.72 0-1.38-.09l-.6 1.23q-.15.24-.09.5.06.25.48.25h4.26q1.86 0 3.03.96t1.17 3.03q0 1.77-1.21 2.94-1.22 1.17-3.14 1.17zm6.69-12.63q.69 0 1.4-.25.7-.26 1.18-.89t.48-1.74q0-1.17-.85-1.89-.86-.72-2.21-.72-1.38 0-2.23.72t-.86 1.89q0 1.11.48 1.74t1.19.89q.7.25 1.42.25m10.71 6.63v-11.67h-2.64v-2.94h6.12v14.61zm-.15-17.52v-3.99h3.84v3.99zm7.62 17.52v-14.61h3.33v1.86q.9-1.29 2.15-1.72 1.24-.44 2.26-.44 2.46 0 3.95 1.61 1.48 1.6 1.48 4.6v8.7h-3.45v-8.13q0-1.92-.82-2.77-.83-.86-2.12-.86-1.41 0-2.37.95-.96.94-.96 2.74v8.07zm23.49.3q-2.19 0-3.85-.94-1.67-.95-2.6-2.64t-.93-3.95v-.3q0-2.07.86-3.75.85-1.68 2.43-2.65 1.57-.98 3.67-.98 2.19 0 3.75 1.07 1.56 1.06 2.28 3.01t.39 4.59h-9.96q.18 1.53 1.25 2.54 1.06 1 2.89 1 1.08 0 1.86-.3t1.41-.9l1.95 2.04q-.87 1.08-2.26 1.62-1.4.54-3.14.54m-.39-12.42q-1.53 0-2.4.95-.87.94-1.11 2.47h6.6q-.06-1.62-.91-2.52t-2.18-.9m15.99 12.42q-2.19 0-3.85-.94-1.67-.95-2.6-2.64t-.93-3.95v-.3q0-2.07.86-3.75.85-1.68 2.43-2.65 1.57-.98 3.67-.98 2.19 0 3.75 1.07 1.56 1.06 2.28 3.01t.39 4.59h-9.96q.18 1.53 1.25 2.54 1.06 1 2.89 1 1.08 0 1.86-.3t1.41-.9l1.95 2.04q-.87 1.08-2.26 1.62-1.4.54-3.14.54m-.39-12.42q-1.53 0-2.4.95-.87.94-1.11 2.47h6.6q-.06-1.62-.91-2.52t-2.18-.9m9.51 12.12v-14.61h3.33v2.13q.54-1.26 1.59-1.75 1.05-.5 2.34-.5h1.2v3.42h-1.47q-1.71 0-2.63.78t-.91 2.28v8.25zm8.37 0v-4.05h4.02v5.79q0 1.11-.43 1.7-.44.58-1.1.81-.66.22-1.29.22h-1.29v-2.01h1.29q.36 0 .56-.22.19-.23.19-.56v-1.68zm19.41.42q-2.34 0-4.08-.87t-2.97-2.31l2.28-2.28q1.2 1.23 2.39 1.79 1.18.55 2.5.55 1.77 0 2.78-.82 1-.83 1-2.15 0-1.05-.57-1.68t-1.5-1.02-2.05-.72-2.24-.72-2.04-1.02-1.5-1.63-.57-2.57q0-1.95.92-3.39.91-1.44 2.55-2.22t3.85-.78q2.01 0 3.66.72t2.7 1.92l-2.34 2.34q-.9-.93-1.87-1.39-.98-.47-2.18-.47-1.65 0-2.64.8-.99.79-.99 2.11 0 .99.57 1.56t1.52.93 2.06.66q1.13.3 2.25.68 1.13.37 2.07 1 .95.63 1.52 1.68t.57 2.67q0 2.01-.96 3.5-.96 1.48-2.69 2.31-1.72.82-4 .82m19.05 0q-3.72 0-5.93-1.92t-2.2-5.76v-13.74h3.69v13.44q0 2.31 1.21 3.44 1.22 1.12 3.23 1.12 2.04 0 3.25-1.12 1.22-1.13 1.22-3.44v-13.44h3.69v13.74q0 3.84-2.23 5.76-2.24 1.92-5.93 1.92m18.3 0q-2.34 0-4.08-.87t-2.97-2.31l2.28-2.28q1.2 1.23 2.39 1.79 1.18.55 2.5.55 1.77 0 2.77-.82 1.01-.83 1.01-2.15 0-1.05-.57-1.68t-1.5-1.02-2.06-.72-2.23-.72-2.04-1.02-1.5-1.63-.57-2.57q0-1.95.91-3.39.92-1.44 2.55-2.22 1.64-.78 3.86-.78 2.01 0 3.66.72t2.7 1.92l-2.34 2.34q-.9-.93-1.88-1.39-.97-.47-2.17-.47-1.65 0-2.64.8-.99.79-.99 2.11 0 .99.57 1.56t1.52.93 2.07.66 2.25.68q1.12.37 2.07 1t1.51 1.68.57 2.67q0 2.01-.96 3.5-.96 1.48-2.68 2.31-1.73.82-4.01.82m14.4-.42q-1.53 0-2.51-.99t-.97-2.52V156.7q0-1.53.97-2.52.98-.99 2.51-.99h10.23v3.36h-9q-.45 0-.76.32-.32.31-.32.76v4.41h9.45v3.21h-9.45v4.5q0 .45.32.77.31.31.76.31h9v3.36z"/></svg>