<svg xmlns="http://www.w3.org/2000/svg" width="1280" height="720" viewBox="0 0 1280 720"><path fill="#fafafa" d="M0 0h1280v720H0z"/><path fill="#1a1a1a" d="M451.76 316.31q-1.76 0-3.06-.65t-2.22-1.73l1.91-1.91q.92.9 1.75 1.3.82.39 1.75.39 1.16 0 1.81-.53.65-.52.65-1.36 0-.7-.41-1.13t-1.07-.71q-.67-.27-1.48-.5t-1.6-.54q-.81-.31-1.48-.77t-1.07-1.22q-.41-.76-.41-1.91 0-1.45.68-2.51.68-1.07 1.91-1.65 1.24-.59 2.89-.59 1.54 0 2.79.55t2.07 1.48l-1.98 1.98q-.68-.71-1.37-1.06-.68-.35-1.51-.35-1.08 0-1.74.52-.66.51-.66 1.35 0 .66.42 1.04.41.39 1.1.64.68.25 1.49.46.82.21 1.62.5.8.28 1.48.76.69.47 1.1 1.24t.42 1.96q0 1.49-.72 2.61-.73 1.11-2.04 1.72-1.31.62-3.02.62m11.7-.31q-.79 0-1.59-.26-.81-.27-1.36-.98-.55-.72-.55-2.08v-5h-1.74v-2.46h1.74v-2.62h2.93v2.62h2.35v2.46h-2.35v5.24q0 .26.17.44t.44.18h1.74V316zm3.92 0v-10.78h2.83v1.5q.4-.91 1.16-1.25t1.7-.34h.84v2.88h-1.1q-1.21 0-1.86.53t-.65 1.52V316zm9.26 0v-8.32h-1.87v-2.46h4.79V316zm-.13-12.83v-3.08h3.23v3.08zm5.78 17.23v-15.18h2.73v1.12q.62-.64 1.45-.99.84-.35 1.78-.35 1.46 0 2.61.69 1.16.7 1.84 1.94t.68 2.87v.22q0 1.65-.67 2.89t-1.82 1.93-2.61.68q-.91 0-1.68-.31t-1.38-.88v5.37zm5.52-6.73q1.08 0 1.86-.78t.78-2.17v-.22q0-1.39-.78-2.17t-1.86-.78q-1.18 0-1.99.82-.8.81-.8 2.24 0 1.45.8 2.26.81.8 1.99.8m12.43 2.33v-16.06h2.82v6.49q.66-.86 1.54-1.14.88-.29 1.56-.29 1.83 0 2.92 1.2t1.09 3.35V316h-2.93v-5.98q0-1.24-.53-1.8t-1.38-.56q-.93 0-1.54.62-.62.61-.62 1.82v5.9zm13.36 0v-8.32h-1.87v-2.46h4.79V316zm-.13-12.83v-3.08h3.23v3.08zm10.27 13.05q-1.45 0-2.61-.68-1.15-.68-1.82-1.93-.67-1.24-.67-2.89v-.22q0-1.63.68-2.87t1.84-1.94 2.6-.69q.9 0 1.67.31t1.37.88v-6.25h2.92V316h-2.61v-1.25q-1.32 1.47-3.37 1.47m.48-2.55q1.17 0 1.97-.8.81-.81.81-2.26 0-1.43-.81-2.24-.8-.82-1.97-.82-1.1 0-1.88.78t-.78 2.17v.22q0 1.39.78 2.17t1.88.78m12.72 2.55q-1.45 0-2.61-.68-1.15-.68-1.82-1.93-.67-1.24-.67-2.89v-.22q0-1.63.68-2.87t1.83-1.94 2.61-.69q.9 0 1.67.31t1.37.88v-6.25h2.92V316h-2.61v-1.25q-1.32 1.47-3.37 1.47m.48-2.55q1.17 0 1.97-.8.81-.81.81-2.26 0-1.43-.81-2.24-.8-.82-1.97-.82-1.1 0-1.88.78t-.78 2.17v.22q0 1.39.78 2.17t1.88.78m13.09 2.55q-1.65 0-2.88-.69-1.23-.7-1.92-1.94-.7-1.24-.7-2.91v-.22q0-1.52.65-2.76.65-1.25 1.82-1.97 1.16-.73 2.75-.73 1.65 0 2.81.8 1.17.81 1.71 2.27t.3 3.44h-7.11q.11.99.8 1.62t1.91.63q.81 0 1.33-.25.51-.24.95-.68l1.68 1.72q-.66.83-1.72 1.25t-2.38.42m-.28-8.93q-.99 0-1.54.63-.55.62-.73 1.63h4.29q-.04-1.1-.6-1.68t-1.42-.58m6.95 8.71v-10.78H560v1.21q.66-.86 1.54-1.14.88-.29 1.56-.29 1.82 0 2.91 1.2t1.09 3.35V316h-2.92v-5.98q0-1.24-.53-1.8t-1.39-.56q-.92 0-1.54.62-.61.61-.61 1.82v5.9zm21.78.22q-1.45 0-2.61-.68-1.15-.68-1.82-1.93-.67-1.24-.67-2.89v-.22q0-1.63.68-2.87t1.83-1.94 2.61-.69q.9 0 1.67.31t1.37.88v-6.25h2.92V316h-2.61v-1.25q-1.32 1.47-3.37 1.47m.48-2.55q1.17 0 1.97-.8.81-.81.81-2.26 0-1.43-.81-2.24-.8-.82-1.97-.82-1.1 0-1.88.78t-.78 2.17v.22q0 1.39.78 2.17t1.88.78m11.51 2.55q-1.8 0-2.89-.89t-1.09-2.32q0-1.45 1.16-2.38 1.17-.92 3.24-.92 1.34 0 2.26.42v-.88q0-.95-.55-1.33t-1.38-.39q-.79 0-1.65.3-.86.29-1.48.84l-1.29-1.93q.72-.79 1.97-1.27 1.24-.47 2.65-.47 2.02 0 3.32 1.05 1.3 1.04 1.3 3.02v5.21q0 .86.06 1.72h-2.59v-1.12q-.86 1.34-3.04 1.34m.81-2.11q.86 0 1.38-.34t.52-.89-.52-.88-1.38-.33q-.83 0-1.35.33t-.52.88q0 .52.52.88.52.35 1.35.35m11.6 1.89q-.79 0-1.6-.26-.8-.27-1.35-.98-.55-.72-.55-2.08v-5h-1.74v-2.46h1.74v-2.62h2.93v2.62h2.35v2.46h-2.35v5.24q0 .26.17.44t.44.18h1.74V316zm7.19.22q-1.8 0-2.89-.89t-1.09-2.32q0-1.45 1.17-2.38 1.16-.92 3.23-.92 1.34 0 2.27.42v-.88q0-.95-.55-1.33t-1.39-.39q-.79 0-1.65.3-.86.29-1.47.84l-1.3-1.93q.72-.79 1.97-1.27 1.24-.47 2.65-.47 2.02 0 3.32 1.05 1.3 1.04 1.3 3.02v5.21q0 .86.06 1.72h-2.59v-1.12q-.86 1.34-3.04 1.34m.82-2.11q.85 0 1.37-.34t.52-.89-.52-.88-1.37-.33-1.36.33-.51.88q0 .52.51.88.52.35 1.36.35m13.06 1.89v-8.32h-1.8v-2.46h1.8v-1.98q0-1.56.96-2.43t2.61-.87h1.85v2.42h-1.87q-.27 0-.45.19-.19.18-.19.43v2.24h2.51v2.46h-2.51V316zm7.11 0v-10.78h2.84v1.5q.39-.91 1.15-1.25t1.71-.34h.83v2.88h-1.1q-1.21 0-1.85.53t-.65 1.52V316zm12.89.22q-1.6 0-2.88-.7-1.28-.71-2.02-1.95-.75-1.24-.75-2.87v-.22q0-1.61.75-2.84.74-1.23 2.02-1.94 1.28-.7 2.88-.7t2.86.7q1.28.71 2.02 1.94.73 1.23.73 2.84v.22q0 1.63-.73 2.87-.74 1.24-2.02 1.95-1.27.7-2.86.7m0-2.55q1.19 0 1.94-.84.75-.83.75-2.13v-.22q0-1.28-.75-2.1t-1.94-.83q-1.21 0-1.97.83-.76.82-.76 2.1v.22q0 1.3.76 2.13.76.84 1.97.84m7.7 2.33v-10.78h2.82v1.19q.61-.84 1.44-1.12.82-.29 1.57-.29.99 0 1.77.4.78.39 1.27 1.18.48-.63 1.11-.97.63-.35 1.23-.48.61-.13 1.09-.13 1.74 0 2.85 1.12t1.11 3.28v6.6h-2.9v-6.16q0-1.14-.5-1.66-.49-.52-1.33-.52t-1.39.57-.55 1.59V316h-2.92v-6.16q0-1.14-.49-1.66-.48-.52-1.29-.52-.86 0-1.42.57-.56.58-.56 1.59V316zm26.91.22q-1.81 0-2.89-.89-1.09-.89-1.09-2.32 0-1.45 1.16-2.38 1.17-.92 3.24-.92 1.34 0 2.26.42v-.88q0-.95-.55-1.33t-1.38-.39q-.8 0-1.65.3-.86.29-1.48.84l-1.3-1.93q.73-.79 1.97-1.27 1.25-.47 2.65-.47 2.03 0 3.33 1.05 1.29 1.04 1.29 3.02v5.21q0 .86.07 1.72h-2.6v-1.12q-.85 1.34-3.03 1.34m.81-2.11q.86 0 1.38-.34t.51-.89-.51-.88q-.52-.33-1.38-.33-.83 0-1.35.33t-.52.88q0 .52.52.88.52.35 1.35.35m7.39 1.89v-10.78h2.82v1.21q.66-.86 1.54-1.14.88-.29 1.56-.29 1.83 0 2.92 1.2t1.09 3.35V316h-2.93v-5.98q0-1.24-.53-1.8t-1.38-.56q-.93 0-1.54.62-.62.61-.62 1.82v5.9zm18.22 0v-8.32h-1.87v-2.46h4.8V316zm-.13-12.83v-3.08h3.23v3.08zm5.78 12.83v-10.78h2.82v1.19q.62-.84 1.44-1.12.83-.29 1.57-.29.99 0 1.77.4.79.39 1.27 1.18.48-.63 1.11-.97.63-.35 1.23-.48.61-.13 1.09-.13 1.74 0 2.85 1.12t1.11 3.28v6.6h-2.9v-6.16q0-1.14-.5-1.66-.49-.52-1.33-.52-.83 0-1.38.57-.55.58-.55 1.59V316h-2.93v-6.16q0-1.14-.48-1.66-.49-.52-1.3-.52-.86 0-1.42.57-.56.58-.56 1.59V316zm22.16.22q-1.81 0-2.89-.89-1.09-.89-1.09-2.32 0-1.45 1.16-2.38 1.17-.92 3.24-.92 1.34 0 2.26.42v-.88q0-.95-.55-1.33t-1.38-.39q-.8 0-1.65.3-.86.29-1.48.84l-1.3-1.93q.73-.79 1.97-1.27 1.25-.47 2.65-.47 2.03 0 3.33 1.05 1.29 1.04 1.29 3.02v5.21q0 .86.07 1.72h-2.6v-1.12q-.85 1.34-3.03 1.34m.81-2.11q.86 0 1.38-.34t.51-.89-.51-.88q-.52-.33-1.38-.33-.83 0-1.35.33t-.52.88q0 .52.52.88.52.35 1.35.35m6.67 6.29V318h6.58q.81 0 .81-.72 0-.73-.81-.73h-3.88q-.83 0-1.32-.43-.48-.43-.56-1.1-.07-.67.28-1.4l.66-1.34q-.79-.55-1.25-1.35t-.45-1.79v-.22q0-1.15.62-2.03t1.72-1.38 2.5-.51h.09l.93-2.02h2.94l-1.4 2.55q1.05.48 1.67 1.36t.61 2v.25q0 1.16-.61 2.08-.62.91-1.71 1.41-1.09.51-2.52.51-.41 0-.81-.04l-.42.83q-.06.13-.03.24t.21.11h3.17q1.36 0 2.23.73t.87 2.29q0 1.34-.9 2.22-.91.88-2.34.88zm4.9-9.46q.47 0 .93-.18t.76-.58q.29-.41.29-1.13 0-.77-.55-1.24-.55-.48-1.43-.48t-1.43.48-.55 1.24q0 .72.31 1.13t.76.58.91.18m11.88 5.28q-1.65 0-2.88-.69-1.23-.7-1.92-1.94-.7-1.24-.7-2.91v-.22q0-1.52.65-2.76.65-1.25 1.82-1.97 1.16-.73 2.75-.73 1.65 0 2.81.8 1.17.81 1.71 2.27t.3 3.44h-7.11q.11.99.8 1.62t1.91.63q.81 0 1.33-.25.51-.24.95-.68l1.68 1.72q-.66.83-1.72 1.25t-2.38.42m-.28-8.93q-.99 0-1.54.63-.55.62-.73 1.63h4.29q-.04-1.1-.6-1.68t-1.42-.58m16.72 8.93q-1.61 0-2.88-.7-1.28-.71-2.03-1.95t-.75-2.87v-.22q0-1.61.75-2.84t2.03-1.94q1.27-.7 2.88-.7 1.58 0 2.86.7 1.27.71 2.01 1.94t.74 2.84v.22q0 1.63-.74 2.87t-2.01 1.95-2.86.7m0-2.55q1.19 0 1.93-.84.75-.83.75-2.13v-.22q0-1.28-.75-2.1-.74-.83-1.93-.83-1.21 0-1.97.83-.76.82-.76 2.1v.22q0 1.3.76 2.13.76.84 1.97.84m7.7 2.33v-10.78h2.84v1.5q.39-.91 1.15-1.25t1.71-.34h.83v2.88h-1.1q-1.21 0-1.86.53t-.65 1.52V316zm12.82 0v-15.4h5.37q2.53 0 4.04 1.31t1.51 3.62-1.51 3.61-4.04 1.29h-2.24V316zm5.53-12.76h-2.4v4.62h2.4q1.07 0 1.7-.66t.63-1.67q0-.99-.63-1.64t-1.7-.65m7.52 12.76v-15.4h5.72q1.65 0 3.06.55t2.44 1.56 1.62 2.4.58 3.06v.22q0 1.67-.59 3.07-.6 1.39-1.64 2.41-1.05 1.01-2.45 1.57-1.39.56-3.02.56zm5.48-12.5h-2.36v9.6h2.36q1.38 0 2.46-.6 1.08-.59 1.69-1.65.6-1.05.6-2.46v-.22q0-1.41-.59-2.45-.6-1.05-1.68-1.63-1.07-.59-2.48-.59M823.4 316v-12.78q0-1.15.74-1.88.74-.74 1.88-.74h7.52v2.82h-6.4q-.26 0-.45.18-.19.19-.19.45v3.44h6.52v2.77h-6.52V316z"/><path fill="#555" d="M429.85 350v-9.8h3.3q1.37 0 2.45.6t1.71 1.68.63 2.45v.17q0 1.08-.36 1.97-.37.9-1.02 1.56t-1.52 1.01q-.87.36-1.89.36zm3.22-8.68h-2.03v7.56h2.03q1.05 0 1.87-.48.83-.49 1.31-1.34.47-.85.47-1.96v-.17q0-1.08-.47-1.89t-1.29-1.26-1.89-.46m6.49 8.68v-6.73h1.1v1.07q.25-.64.75-.87.49-.23 1.11-.23h.57v1.12h-.66q-.82 0-1.28.4-.45.41-.45 1.25V350zm6.57.14q-1.15 0-1.84-.56t-.69-1.46q0-.58.35-1.05.35-.46.95-.73.61-.27 1.37-.27 1.11 0 1.76.46v-.84q0-.83-.42-1.18-.43-.36-1.16-.36-.54 0-1.11.2t-.97.62l-.54-.79q.45-.52 1.18-.79.73-.26 1.5-.26 1.19 0 1.92.63.72.63.72 1.87v2.16q0 1.12.05 2.21h-1.01l-.02-.67q-.63.81-2.04.81m.29-.85q.77 0 1.2-.33.43-.32.43-.84 0-.51-.43-.83t-1.21-.31-1.22.31q-.45.32-.45.83t.46.84 1.22.33m4.09 3.51v-.95h4.02q.48 0 .74-.23.27-.23.27-.65 0-.4-.27-.61-.26-.22-.74-.22h-2.21q-.53 0-.81-.25-.27-.25-.3-.63-.04-.38.16-.76l.44-.91q-.51-.32-.81-.83-.29-.51-.29-1.14v-.13q0-.7.37-1.23t1.02-.83 1.49-.3l.31.01.69-1.41h1.13l-.87 1.61q.74.26 1.19.82t.44 1.3v.16q0 .71-.37 1.26-.38.54-1.03.86t-1.49.31q-.45 0-.87-.09l-.33.65q-.1.19-.06.4.03.22.38.22h1.97q.86 0 1.39.44t.53 1.31q0 .8-.54 1.31t-1.43.51zm3.08-5.63q.41 0 .81-.14t.69-.51q.28-.36.28-.97 0-.67-.5-1.09-.49-.41-1.28-.41-.78 0-1.28.41-.5.42-.5 1.09 0 .61.28.97t.7.51.8.14m9.77 2.97q-1.14 0-1.84-.56-.69-.56-.69-1.46 0-.58.35-1.05.35-.46.96-.73t1.36-.27q1.11 0 1.77.46v-.84q0-.83-.43-1.18-.43-.36-1.15-.36-.55 0-1.12.2-.56.2-.97.62l-.53-.79q.45-.52 1.17-.79.73-.26 1.5-.26 1.19 0 1.92.63t.73 1.87v2.16q0 1.12.04 2.21h-1.01l-.01-.67q-.63.81-2.05.81m.3-.85q.77 0 1.2-.33.42-.32.42-.84 0-.51-.42-.83-.43-.31-1.22-.31-.77 0-1.21.31-.45.32-.45.83t.45.84 1.23.33m7.29.71v-1.09h2.16q.4 0 .68-.27.27-.28.27-.68v-6.67h-2.63v-1.09h3.82v7.66q0 1.02-.58 1.58t-1.66.56zm6.69 0v-9.8h3.04q1.47 0 2.38.78.9.77.9 2.17 0 1.39-.9 2.17-.91.77-2.38.77h-1.85V350zm3.1-8.76h-1.91v3.85h1.91q.91 0 1.48-.53.56-.52.56-1.41t-.56-1.4-1.48-.51m6.33 8.76q-.68 0-1.12-.44t-.44-1.11v-6.7q0-.67.44-1.11t1.12-.44h4.52v1.09h-4.15q-.32 0-.53.22t-.22.52v2.54h4.6v1.05h-4.6v2.55q0 .3.22.52.21.22.53.22h4.15V350zm10.65.21q-1.44 0-2.54-.64-1.1-.63-1.72-1.76-.63-1.13-.63-2.6V345q0-1.47.64-2.6t1.76-1.77 2.57-.64q.93 0 1.72.3t1.42.86l-.81.86q-.49-.45-1.08-.66t-1.23-.21q-1.11 0-1.95.49-.85.49-1.33 1.36-.47.88-.47 2.01v.21q0 1.14.47 2.01.46.88 1.29 1.37t1.9.49q.96 0 1.66-.44.71-.43 1.1-1.17.38-.73.37-1.63h-2.59v-1.01h3.75q.15 1.54-.33 2.76t-1.51 1.92q-1.02.7-2.46.7m5.12-.21v-1.54h1.43v2.52q0 .6-.34.83t-.75.23h-.42v-.68h.42q.18 0 .27-.11t.09-.28V350zm6.29 0v-9.8h3.04q1.47 0 2.37.78.9.77.9 2.17 0 1.39-.9 2.17-.9.77-2.37.77h-1.85V350zm3.09-8.76h-1.9v3.85h1.9q.91 0 1.48-.53.57-.52.57-1.41t-.57-1.4-1.48-.51m4.86 8.76v-9.8h1.12l5.04 7.71v-7.71h1.19v9.8h-1.1l-5.06-7.71V350zm14.13.21q-1.44 0-2.54-.64-1.1-.63-1.72-1.76-.63-1.13-.63-2.6V345q0-1.47.64-2.6t1.76-1.77 2.57-.64q.93 0 1.72.3t1.42.86l-.81.86q-.49-.45-1.08-.66t-1.23-.21q-1.11 0-1.96.49t-1.32 1.36-.48 2.01v.21q0 1.14.47 2.01.47.88 1.3 1.37.82.49 1.9.49.95 0 1.66-.44.71-.43 1.09-1.17.39-.73.37-1.63h-2.59v-1.01h3.76q.15 1.54-.33 2.76-.49 1.22-1.51 1.92t-2.46.7m5.12-.21v-1.54h1.43v2.52q0 .6-.34.83t-.75.23h-.42v-.68h.42q.18 0 .27-.11t.09-.28V350zm8.72.17q-1.03 0-1.81-.37t-1.31-1.02l.76-.75q1.01 1.12 2.41 1.12.98 0 1.54-.49t.57-1.28q0-.56-.27-.9-.28-.34-.72-.55-.45-.2-1-.35l-1.08-.33q-.54-.18-1-.46t-.72-.73q-.28-.46-.28-1.19 0-.86.41-1.5t1.14-.99 1.71-.35q.89 0 1.59.3.7.29 1.16.79l-.77.77q-.41-.42-.89-.63t-1.09-.21q-.93 0-1.5.47t-.57 1.24q0 .53.28.85.27.31.72.5.46.19 1 .33.55.14 1.1.32.54.17 1 .45t.73.76.28 1.24q0 .91-.42 1.57-.43.66-1.2 1.02-.77.37-1.77.37m7.58-.17-3.64-9.8h1.26l3.02 8.3 3.01-8.3h1.28l-3.66 9.8zm10.37.21q-1.44 0-2.54-.64-1.1-.63-1.72-1.76t-.62-2.6V345q0-1.47.63-2.6.64-1.14 1.76-1.77t2.58-.64q.92 0 1.71.3t1.42.86l-.81.86q-.49-.45-1.08-.66t-1.23-.21q-1.11 0-1.95.49-.85.49-1.33 1.36-.47.88-.47 2.01v.21q0 1.14.47 2.01.47.88 1.29 1.37t1.91.49q.95 0 1.66-.44.7-.43 1.09-1.17.38-.73.37-1.63h-2.59v-1.01h3.75q.15 1.54-.33 2.76t-1.5 1.92-2.47.7m12-.07q-.97 0-1.72-.44-.76-.44-1.19-1.23-.44-.78-.44-1.8v-.13q0-.99.44-1.77.43-.78 1.19-1.21.75-.43 1.72-.43t1.72.43 1.19 1.2.44 1.75v.16q0 1.02-.44 1.8-.43.79-1.19 1.23-.75.44-1.72.44m0-1.01q.66 0 1.16-.31.49-.32.77-.87t.28-1.28v-.16q0-1.05-.61-1.71-.62-.67-1.6-.67-.64 0-1.15.31t-.79.86-.29 1.24v.13q0 .73.29 1.28t.79.87q.51.31 1.15.31m5 .87v-6.73h1.09v1.07q.25-.64.75-.87t1.11-.23h.58v1.12h-.66q-.83 0-1.28.4t-.46 1.25V350zm7.96 0v-9.8H591q1.47 0 2.38.78.9.77.9 2.17 0 1.39-.9 2.17-.91.77-2.38.77h-1.85V350zm3.1-8.76h-1.91v3.85h1.91q.91 0 1.48-.53.56-.52.56-1.41t-.56-1.4-1.48-.51m4.86 8.76v-9.8h3.3q1.37 0 2.45.6t1.71 1.68.63 2.45v.17q0 1.08-.37 1.97-.36.9-1.01 1.56t-1.52 1.01q-.87.36-1.89.36zm3.22-8.68h-2.03v7.56h2.03q1.05 0 1.87-.48.83-.49 1.3-1.34t.48-1.96v-.17q0-1.08-.47-1.89t-1.29-1.26q-.83-.46-1.89-.46m6.73 8.68v-8.25q0-.67.43-1.11.44-.44 1.12-.44h4.44v1.09h-4.06q-.32 0-.53.22t-.21.52v2.82h4.49v1.09h-4.49V350zm12.46.14q-1.15 0-1.84-.56t-.69-1.46q0-.58.35-1.05.35-.46.96-.73.6-.27 1.36-.27 1.11 0 1.76.46v-.84q0-.83-.42-1.18-.43-.36-1.16-.36-.54 0-1.11.2t-.97.62l-.54-.79q.45-.52 1.18-.79.73-.26 1.5-.26 1.19 0 1.92.63.72.63.72 1.87v2.16q0 1.12.05 2.21h-1.01l-.02-.67q-.63.81-2.04.81m.29-.85q.77 0 1.2-.33.43-.32.43-.84 0-.51-.43-.83t-1.21-.31-1.22.31q-.45.32-.45.83t.46.84 1.22.33m4.76.71v-6.73h1.1v1.07q.4-.7 1.04-.95.64-.26 1.18-.26 1.14 0 1.84.73.71.74.71 2.18V350h-1.13v-3.79q0-1.08-.49-1.56-.48-.49-1.22-.49-.77 0-1.33.53-.56.52-.56 1.53V350zm7.02 2.8v-.97h1.34q.3 0 .47-.2.18-.2.29-.48l.49-1.08-2.77-6.8h1.24l2.13 5.41 2.03-5.41h1.25l-3.22 7.92q-.16.39-.39.76-.23.36-.6.61-.37.24-.97.24zm8.86-2.8-1.93-6.73h1.13l1.51 5.58 1.59-5.58h1.19l1.59 5.57 1.51-5.57h1.12l-1.93 6.73h-1.29l-1.59-5.7-1.6 5.7zm9.09 0v-10.22h1.09v4.56q.4-.7 1.04-.95.64-.26 1.18-.26 1.14 0 1.85.73.7.74.7 2.18V350h-1.13v-3.79q0-1.08-.48-1.56-.49-.49-1.23-.49-.77 0-1.33.53-.56.52-.56 1.53V350zm10.79.14q-.99 0-1.76-.44-.76-.44-1.19-1.23-.42-.78-.42-1.8v-.14q0-.98.39-1.74.39-.77 1.1-1.22t1.66-.44q.96 0 1.65.47.68.48 1.01 1.34t.19 2.04h-4.87q.04.58.33 1.07.29.48.78.77.5.28 1.17.28.53 0 .95-.12.41-.13.72-.41l.64.7q-.39.42-1 .65-.61.22-1.35.22m-.22-6.03q-.84 0-1.37.53-.52.53-.64 1.41h3.78q-.01-.92-.5-1.43t-1.27-.51m4.48 5.89v-6.73h1.09v1.07q.25-.64.75-.87.49-.23 1.11-.23h.57v1.12h-.65q-.83 0-1.28.4t-.46 1.25V350zm7.44.14q-.99 0-1.75-.44-.77-.44-1.19-1.23-.43-.78-.43-1.8v-.14q0-.98.39-1.74.39-.77 1.11-1.22.71-.44 1.65-.44.97 0 1.65.47.69.48 1.02 1.34t.19 2.04h-4.88q.05.58.33 1.07.29.48.79.77.49.28 1.17.28.53 0 .94-.12.41-.13.72-.41l.65.7q-.4.42-1 .65-.61.22-1.36.22m-.22-6.03q-.84 0-1.36.53t-.64 1.41h3.78q-.02-.92-.51-1.43t-1.27-.51m10.64 6.03q-.97 0-1.72-.44-.76-.44-1.19-1.23-.44-.78-.44-1.8v-.13q0-.99.44-1.77.43-.78 1.19-1.21.75-.43 1.72-.43t1.72.43 1.19 1.2.44 1.75v.16q0 1.02-.44 1.8-.43.79-1.19 1.23-.75.44-1.72.44m0-1.01q.66 0 1.16-.31.49-.32.77-.87t.28-1.28v-.16q0-1.05-.61-1.71-.62-.67-1.6-.67-.64 0-1.15.31t-.79.86-.29 1.24v.13q0 .73.29 1.28t.79.87q.51.31 1.15.31m5 .87v-6.73h1.09v1.07q.41-.7 1.04-.95.64-.26 1.19-.26 1.13 0 1.84.73.7.74.7 2.18V350h-1.13v-3.79q0-1.08-.48-1.56-.49-.49-1.23-.49-.77 0-1.33.53-.56.52-.56 1.53V350zm10.06 0q-.46 0-.88-.17-.43-.18-.7-.57-.28-.39-.28-1.05v-3.96h-1.22v-.98h1.22v-1.67h1.12v1.67h1.78v.98h-1.78v4.03q0 .32.22.54.22.21.54.21h1.02v.97zm5.24.14q-.97 0-1.72-.44-.76-.44-1.19-1.23-.44-.78-.44-1.8v-.13q0-.99.44-1.77.43-.78 1.19-1.21.75-.43 1.72-.43t1.72.43 1.19 1.2.44 1.75v.16q0 1.02-.44 1.8-.43.79-1.19 1.23-.75.44-1.72.44m0-1.01q.66 0 1.15-.31.5-.32.78-.87t.28-1.28v-.16q0-1.05-.61-1.71-.62-.67-1.6-.67-.64 0-1.15.31t-.79.86-.29 1.24v.13q0 .73.29 1.28t.79.87q.51.31 1.15.31m10.42.87q-.47 0-.89-.17t-.7-.57-.28-1.05v-3.96h-1.21v-.98h1.21v-1.67h1.12v1.67h1.78v.98h-1.78v4.03q0 .32.22.54.22.21.54.21h1.02v.97zm2.54 0v-10.22h1.1v4.56q.4-.7 1.04-.95.64-.26 1.18-.26 1.14 0 1.84.73.71.74.71 2.18V350h-1.13v-3.79q0-1.08-.49-1.56-.48-.49-1.22-.49-.77 0-1.33.53-.56.52-.56 1.53V350zm8.29 0v-5.75h-1.31v-.98h2.43V350zm-.07-8.22v-1.62H724v1.62zm5.17 8.35q-.74 0-1.39-.23-.66-.24-1.06-.6l.5-.78q.38.32.9.51.52.2 1.05.2.63 0 1.02-.29t.39-.75q0-.39-.26-.6-.27-.22-.68-.34l-.86-.24q-.47-.12-.88-.31-.41-.2-.67-.56t-.26-1q0-.88.67-1.45.66-.56 1.78-.56.63 0 1.2.19.56.18.98.49l-.5.79q-.36-.27-.79-.42-.43-.16-.9-.16-.61 0-.98.29-.38.29-.38.75 0 .39.26.6.27.21.68.34l.89.24q.46.12.88.32t.68.58.26 1q0 .59-.32 1.03t-.9.7-1.31.26m9.42.01q-1.15 0-1.84-.56t-.69-1.46q0-.58.35-1.05.35-.46.96-.73.6-.27 1.36-.27 1.11 0 1.76.46v-.84q0-.83-.42-1.18-.43-.36-1.16-.36-.54 0-1.11.2t-.97.62l-.54-.79q.45-.52 1.18-.79.73-.26 1.5-.26 1.19 0 1.92.63.72.63.72 1.87v2.16q0 1.12.05 2.21h-1.01l-.02-.67q-.63.81-2.04.81m.29-.85q.77 0 1.2-.33.43-.32.43-.84 0-.51-.43-.83t-1.21-.31-1.22.31q-.45.32-.45.83t.46.84 1.22.33m4.76.71v-6.73h1.1v1.07q.25-.64.75-.87.49-.23 1.11-.23h.57v1.12h-.66q-.82 0-1.28.4-.45.41-.45 1.25V350zm7.45.14q-.99 0-1.75-.44-.77-.44-1.19-1.23-.43-.78-.43-1.8v-.14q0-.98.39-1.74.39-.77 1.11-1.22.71-.44 1.65-.44.96 0 1.65.47.69.48 1.02 1.34.32.86.18 2.04h-4.87q.04.58.33 1.07.29.48.79.77.49.28 1.16.28.54 0 .95-.12.41-.13.72-.41l.64.7q-.39.42-1 .65-.61.22-1.35.22m-.22-6.03q-.84 0-1.37.53-.52.53-.63 1.41h3.78q-.02-.92-.51-1.43t-1.27-.51m6.48 6.03q-1.15 0-1.84-.56t-.69-1.46q0-.58.35-1.05.35-.46.96-.73.6-.27 1.36-.27 1.11 0 1.76.46v-.84q0-.83-.42-1.18-.43-.36-1.16-.36-.54 0-1.11.2t-.97.62l-.54-.79q.45-.52 1.18-.79.73-.26 1.5-.26 1.19 0 1.92.63.72.63.72 1.87v2.16q0 1.12.05 2.21h-1.01l-.02-.67q-.63.81-2.04.81m.29-.85q.77 0 1.2-.33.43-.32.43-.84 0-.51-.43-.83t-1.21-.31-1.22.31q-.45.32-.45.83t.46.84 1.22.33m4.44.71v-1.54h1.43v2.52q0 .6-.34.83t-.75.23h-.42v-.68h.42q.18 0 .27-.11t.09-.28V350zm9.02.14q-.97 0-1.72-.44-.76-.44-1.19-1.23-.44-.78-.44-1.8v-.13q0-.99.44-1.77.43-.78 1.19-1.21.75-.43 1.72-.43.96 0 1.72.43t1.19 1.2.43 1.75v.16q0 1.02-.43 1.8-.43.79-1.19 1.23t-1.72.44m0-1.01q.66 0 1.15-.31.5-.32.78-.87t.28-1.28v-.16q0-1.05-.62-1.71-.61-.67-1.59-.67-.65 0-1.15.31t-.79.86-.29 1.24v.13q0 .73.29 1.28t.79.87q.5.31 1.15.31m5 .87v-6.73h1.09v1.07q.25-.64.75-.87.49-.23 1.11-.23h.57v1.12h-.65q-.83 0-1.28.4t-.46 1.25V350zm10.79.14q-.99 0-1.78-.43-.78-.44-1.22-1.21-.44-.78-.44-1.79v-.17q0-1.01.44-1.78.45-.77 1.23-1.2t1.77-.43q.74 0 1.35.27t1.03.76l-.7.7q-.64-.68-1.68-.68-.67 0-1.2.29t-.82.83-.3 1.24v.17q0 .71.3 1.25.31.54.84.84.52.29 1.19.29 1.03 0 1.7-.67l.68.68q-.4.49-1.02.77-.63.27-1.37.27m3.85-.14v-10.22h1.09v4.56q.41-.7 1.05-.95.63-.26 1.18-.26 1.13 0 1.84.73.71.74.71 2.18V350h-1.14v-3.79q0-1.08-.48-1.56-.48-.49-1.23-.49-.77 0-1.33.53-.56.52-.56 1.53V350zm10.77.14q-.97 0-1.73-.44-.75-.44-1.19-1.23-.43-.78-.43-1.8v-.13q0-.99.43-1.77.44-.78 1.19-1.21.76-.43 1.73-.43.96 0 1.72.43.75.43 1.19 1.2.43.76.43 1.75v.16q0 1.02-.43 1.8-.44.79-1.19 1.23-.76.44-1.72.44m0-1.01q.65 0 1.15-.31.5-.32.78-.87t.28-1.28v-.16q0-1.05-.62-1.71-.61-.67-1.59-.67-.65 0-1.15.31-.51.31-.79.86-.29.54-.29 1.24v.13q0 .73.29 1.28t.79.87q.5.31 1.15.31m7.89 1.01q-.96 0-1.72-.44t-1.19-1.23-.43-1.8v-.13q0-.99.43-1.77t1.19-1.21 1.72-.43q.97 0 1.72.43.76.43 1.19 1.2.44.76.44 1.75v.16q0 1.02-.44 1.8-.43.79-1.19 1.23-.75.44-1.72.44m0-1.01q.66 0 1.16-.31.49-.32.77-.87t.28-1.28v-.16q0-1.05-.61-1.71-.62-.67-1.6-.67-.64 0-1.15.31t-.79.86-.28 1.24v.13q0 .73.28 1.28t.79.87q.51.31 1.15.31m6.83 1q-.74 0-1.39-.23t-1.06-.6l.51-.78q.38.32.89.51.52.2 1.05.2.63 0 1.03-.29.39-.28.39-.75 0-.39-.27-.6-.26-.22-.67-.34l-.87-.24q-.46-.12-.87-.31-.42-.2-.67-.56t-.26-1q0-.88.66-1.45.67-.56 1.79-.56.63 0 1.19.19.57.18.99.49l-.5.79q-.37-.27-.79-.42-.43-.16-.91-.16-.6 0-.98.29t-.38.75q0 .39.27.6t.68.34l.88.24q.47.12.89.32t.68.58.26 1q0 .59-.32 1.03-.33.45-.9.7-.57.26-1.32.26m7.06.01q-.99 0-1.76-.44-.76-.44-1.19-1.23-.42-.78-.42-1.8v-.14q0-.98.39-1.74.39-.77 1.1-1.22t1.66-.44q.96 0 1.65.47.68.48 1.01 1.34t.19 2.04h-4.87q.04.58.33 1.07.29.48.78.77.5.28 1.17.28.53 0 .95-.12.41-.13.72-.41l.64.7q-.39.42-1 .65-.61.22-1.35.22m-.22-6.03q-.84 0-1.37.53-.52.53-.64 1.41h3.78q-.01-.92-.5-1.43t-1.27-.51m10.64 6.03q-.97 0-1.73-.44-.75-.44-1.19-1.23-.43-.78-.43-1.8v-.13q0-.99.43-1.77.44-.78 1.19-1.21.76-.43 1.73-.43.96 0 1.72.43.75.43 1.19 1.2.43.76.43 1.75v.16q0 1.02-.43 1.8-.44.79-1.19 1.23-.76.44-1.72.44m0-1.01q.65 0 1.15-.31.5-.32.78-.87t.28-1.28v-.16q0-1.05-.62-1.71-.61-.67-1.59-.67-.65 0-1.15.31-.51.31-.79.86-.29.54-.29 1.24v.13q0 .73.29 1.28t.79.87q.5.31 1.15.31m4.99.87v-6.73h1.1v1.07q.4-.7 1.04-.95.64-.26 1.18-.26 1.14 0 1.84.73.71.74.71 2.18V350h-1.13v-3.79q0-1.08-.49-1.56-.48-.49-1.22-.49-.77 0-1.33.53-.56.52-.56 1.53V350zm10.8.14q-1 0-1.76-.44t-1.19-1.23-.43-1.8v-.14q0-.98.4-1.74.39-.77 1.1-1.22t1.65-.44q.97 0 1.66.47.68.48 1.01 1.34t.19 2.04H846q.04.58.33 1.07.28.48.78.77.5.28 1.17.28.53 0 .95-.12.41-.13.72-.41l.64.7q-.39.42-1 .65-.61.22-1.35.22m-.23-6.03q-.84 0-1.36.53t-.64 1.41h3.78q-.01-.92-.5-1.43t-1.28-.51m-404.69 27.03q-.78 0-1.41-.36-.63-.35-1.02-.98v1.2h-1.04v-10.22h1.13v4.58q.4-.58 1-.9t1.34-.33q.91 0 1.63.43t1.12 1.2q.42.77.42 1.78v.13q0 1.03-.41 1.82-.41.78-1.12 1.22t-1.64.43m-.17-1.01q.63 0 1.13-.3t.79-.86.28-1.3v-.13q0-1.09-.62-1.75t-1.58-.66q-.64 0-1.14.31-.51.31-.8.88-.3.56-.3 1.32t.3 1.32.8.86 1.14.31m7.91 1.01q-.99 0-1.75-.44-.77-.44-1.19-1.23-.43-.78-.43-1.8v-.14q0-.98.39-1.74.39-.77 1.11-1.22.71-.44 1.65-.44.97 0 1.65.47.69.48 1.02 1.34t.19 2.04h-4.88q.05.58.33 1.07.29.48.79.77.49.28 1.17.28.53 0 .94-.12.41-.13.72-.41l.65.7q-.4.42-1 .65-.61.22-1.36.22m-.22-6.03q-.84 0-1.36.53t-.64 1.41h3.78q-.02-.92-.51-1.43t-1.27-.51m6.29 5.89q-.83 0-1.33-.47-.49-.47-.49-1.25v-7.53h-1.24v-.97h2.37v8.51q0 .32.21.53t.53.21h.65v.97zm4.73.14q-.97 0-1.72-.44-.76-.44-1.19-1.23-.44-.78-.44-1.8v-.13q0-.99.44-1.77.43-.78 1.19-1.21.75-.43 1.72-.43.96 0 1.72.43t1.19 1.2.43 1.75v.16q0 1.02-.43 1.8-.43.79-1.19 1.23t-1.72.44m0-1.01q.66 0 1.15-.31.5-.32.78-.87t.28-1.28v-.16q0-1.05-.62-1.71-.61-.67-1.59-.67-.65 0-1.15.31t-.79.86-.29 1.24v.13q0 .73.29 1.28t.79.87q.5.31 1.15.31m6.12.87-1.94-6.73h1.14l1.51 5.58 1.58-5.58h1.19l1.6 5.57 1.51-5.57h1.12l-1.93 6.73h-1.29l-1.6-5.7-1.59 5.7zm8.2 0v-1.54h1.37V371zm8.04 0-2.89-9.8h1.22l2.28 8.05 2.51-8.05h1.31l2.51 8.06 2.28-8.06h1.21l-2.87 9.8h-1.24l-2.54-8.3-2.55 8.3zm13.98.14q-.99 0-1.75-.44-.77-.44-1.19-1.23-.43-.78-.43-1.8v-.14q0-.98.39-1.74.39-.77 1.11-1.22.71-.44 1.65-.44.96 0 1.65.47.69.48 1.02 1.34.32.86.18 2.04h-4.87q.04.58.33 1.07.29.48.79.77.49.28 1.16.28.54 0 .95-.12.41-.13.72-.41l.64.7q-.39.42-1 .65-.61.22-1.35.22m-.22-6.03q-.84 0-1.37.53-.52.53-.63 1.41h3.78q-.02-.92-.51-1.43t-1.27-.51m3.71-.55v-3.36h1.05v3.36zm4.79 6.44q-.83 0-1.33-.47-.49-.47-.49-1.25v-7.53h-1.24v-.97h2.37v8.51q0 .32.21.53t.53.21h.65v.97zm3.76 0q-.82 0-1.32-.47t-.5-1.25v-7.53h-1.23v-.97h2.37v8.51q0 .32.21.53t.53.21h.64v.97zm6.96.13q-.74 0-1.39-.23t-1.06-.6l.5-.78q.38.32.9.51.52.2 1.05.2.63 0 1.02-.29t.39-.75q0-.39-.26-.6-.27-.22-.67-.34l-.87-.24q-.46-.12-.88-.31-.41-.2-.67-.56t-.26-1q0-.88.67-1.45.66-.56 1.78-.56.63 0 1.2.19.57.18.99.49l-.51.79q-.36-.27-.79-.42-.43-.16-.9-.16-.6 0-.98.29t-.38.75q0 .39.27.6.26.21.68.34l.88.24q.47.12.89.32t.68.58.25 1q0 .59-.32 1.03t-.89.7q-.58.26-1.32.26m4.14-.13v-10.22h1.1v4.56q.4-.7 1.04-.95.64-.26 1.18-.26 1.14 0 1.84.73.71.74.71 2.18V371h-1.13v-3.79q0-1.08-.49-1.56-.48-.49-1.22-.49-.77 0-1.33.53-.56.52-.56 1.53V371zm10.77.14q-.97 0-1.72-.44-.76-.44-1.19-1.23-.44-.78-.44-1.8v-.13q0-.99.44-1.77.43-.78 1.19-1.21.75-.43 1.72-.43t1.72.43 1.19 1.2.44 1.75v.16q0 1.02-.44 1.8-.43.79-1.19 1.23-.75.44-1.72.44m0-1.01q.66 0 1.16-.31.49-.32.77-.87t.28-1.28v-.16q0-1.05-.61-1.71-.62-.67-1.6-.67-.64 0-1.15.31t-.79.86-.29 1.24v.13q0 .73.29 1.28t.79.87q.51.31 1.15.31m6.12.87-1.93-6.73h1.13l1.51 5.58 1.58-5.58h1.19l1.6 5.57 1.51-5.57h1.12l-1.93 6.73h-1.29l-1.59-5.7-1.6 5.7zm11.23 2.8v-.97h1.34q.29 0 .47-.2t.29-.48l.49-1.08-2.78-6.8h1.25l2.13 5.41 2.03-5.41h1.24l-3.22 7.92q-.15.39-.38.76-.23.36-.6.61-.37.24-.98.24zm10.44-2.66q-.97 0-1.72-.44-.76-.44-1.19-1.23-.44-.78-.44-1.8v-.13q0-.99.44-1.77.43-.78 1.19-1.21.75-.43 1.72-.43t1.72.43 1.19 1.2.44 1.75v.16q0 1.02-.44 1.8-.43.79-1.19 1.23-.75.44-1.72.44m0-1.01q.66 0 1.16-.31.49-.32.77-.87t.28-1.28v-.16q0-1.05-.61-1.71-.62-.67-1.6-.67-.64 0-1.15.31t-.79.86-.29 1.24v.13q0 .73.29 1.28t.79.87q.51.31 1.15.31m7.5 1.01q-1.12 0-1.86-.66-.74-.67-.74-2.11v-4.1h1.13v3.9q0 1.08.49 1.51.48.42 1.21.42.75 0 1.31-.5.55-.5.55-1.53v-3.8h1.12V371h-1.01v-1.01q-.42.66-1.04.91-.62.24-1.16.24m10.73-.14q-.46 0-.89-.17t-.7-.57-.27-1.05v-3.96h-1.22v-.98h1.22v-1.67h1.12v1.67h1.77v.98h-1.77v4.03q0 .32.21.54.22.21.54.21h1.02v.97zm2.55 0v-10.22h1.09v4.56q.4-.7 1.04-.95.64-.26 1.18-.26 1.14 0 1.85.73.7.74.7 2.18V371h-1.13v-3.79q0-1.08-.48-1.56-.49-.49-1.23-.49-.77 0-1.33.53-.56.52-.56 1.53V371zm10.79.14q-.99 0-1.76-.44-.76-.44-1.19-1.23-.42-.78-.42-1.8v-.14q0-.98.39-1.74.39-.77 1.1-1.22t1.66-.44q.96 0 1.65.47.68.48 1.01 1.34t.19 2.04h-4.87q.04.58.33 1.07.29.48.78.77.5.28 1.17.28.53 0 .95-.12.41-.13.72-.41l.64.7q-.39.42-1 .65-.61.22-1.35.22m-.22-6.03q-.84 0-1.37.53-.52.53-.64 1.41h3.78q-.01-.92-.5-1.43t-1.27-.51m12.25 6.1q-1.45 0-2.54-.64-1.1-.63-1.73-1.76t-.62-2.6V366q0-1.47.64-2.6.63-1.14 1.75-1.77t2.58-.64q.92 0 1.72.3t1.42.86l-.82.86q-.49-.45-1.07-.66t-1.24-.21q-1.1 0-1.95.49t-1.32 1.36-.48 2.01v.21q0 1.14.47 2.01.47.88 1.3 1.37.82.49 1.9.49.95 0 1.66-.44.71-.43 1.09-1.17.39-.73.37-1.63h-2.59v-1.01h3.75q.16 1.54-.32 2.76-.49 1.22-1.51 1.92t-2.46.7m6-.21v-9.8h3.04q1.47 0 2.37.78.91.77.91 2.17 0 1.39-.91 2.17-.9.77-2.37.77h-1.85V371zm3.1-8.76h-1.91v3.85h1.91q.91 0 1.47-.53.57-.52.57-1.41t-.57-1.4-1.47-.51m7.29 8.93q-1.04 0-1.81-.37-.78-.37-1.31-1.02l.75-.75q1.01 1.12 2.41 1.12.98 0 1.55-.49t.57-1.28q0-.56-.28-.9-.27-.34-.72-.55-.45-.2-.99-.35l-1.09-.33q-.54-.18-.99-.46-.46-.28-.73-.73-.27-.46-.27-1.19 0-.86.4-1.5t1.15-.99q.73-.35 1.71-.35.88 0 1.58.3.7.29 1.16.79l-.77.77q-.4-.42-.88-.63-.49-.21-1.09-.21-.94 0-1.5.47t-.57 1.24q0 .53.27.85t.73.5q.45.19 1 .33t1.09.32 1 .45.74.76.28 1.24q0 .91-.43 1.57t-1.2 1.02-1.76.37m10.07-.17q-.83 0-1.33-.47-.49-.47-.49-1.25v-7.53h-1.24v-.97h2.37v8.51q0 .32.21.53t.53.21h.65v.97zm4.73.14q-.97 0-1.72-.44-.76-.44-1.19-1.23-.44-.78-.44-1.8v-.13q0-.99.44-1.77.43-.78 1.19-1.21.75-.43 1.72-.43.96 0 1.72.43t1.19 1.2.43 1.75v.16q0 1.02-.43 1.8-.43.79-1.19 1.23t-1.72.44m0-1.01q.66 0 1.15-.31.5-.32.78-.87t.28-1.28v-.16q0-1.05-.62-1.71-.61-.67-1.59-.67-.65 0-1.15.31t-.79.86-.29 1.24v.13q0 .73.29 1.28t.79.87q.5.31 1.15.31m7.99 1.01q-.99 0-1.78-.43-.78-.44-1.22-1.21-.44-.78-.44-1.79v-.17q0-1.01.45-1.78.44-.77 1.22-1.2t1.77-.43q.74 0 1.35.27t1.03.76l-.7.7q-.64-.68-1.68-.68-.67 0-1.19.29-.53.29-.83.83-.3.53-.3 1.24v.17q0 .71.31 1.25.3.54.83.84.52.29 1.2.29 1.02 0 1.69-.67l.69.68q-.41.49-1.03.77-.63.27-1.37.27m5.87 0q-1.15 0-1.84-.56t-.7-1.46q0-.58.35-1.05.35-.46.96-.73t1.37-.27q1.1 0 1.76.46v-.84q0-.83-.42-1.18-.43-.36-1.16-.36-.55 0-1.11.2t-.98.62l-.53-.79q.45-.52 1.18-.79.73-.26 1.5-.26 1.19 0 1.91.63.73.63.73 1.87v2.16q0 1.12.04 2.21h-1l-.02-.67q-.63.81-2.04.81m.29-.85q.77 0 1.2-.33.43-.32.43-.84 0-.51-.43-.83t-1.21-.31-1.22.31q-.45.32-.45.83t.46.84 1.22.33m6.97.71q-.46 0-.88-.17-.43-.18-.7-.57-.28-.39-.28-1.05v-3.96h-1.22v-.98h1.22v-1.67h1.12v1.67h1.78v.98h-1.78v4.03q0 .32.22.54.22.21.54.21h1.02v.97zm3.08 0v-5.75h-1.31v-.98h2.43V371zm-.07-8.22v-1.62h1.26v1.62zm6.21 8.36q-.97 0-1.73-.44-.75-.44-1.19-1.23-.43-.78-.43-1.8v-.13q0-.99.43-1.77.44-.78 1.19-1.21.76-.43 1.73-.43.96 0 1.72.43.75.43 1.19 1.2.43.76.43 1.75v.16q0 1.02-.43 1.8-.44.79-1.19 1.23-.76.44-1.72.44m0-1.01q.65 0 1.15-.31.5-.32.78-.87t.28-1.28v-.16q0-1.05-.62-1.71-.61-.67-1.59-.67-.65 0-1.15.31-.51.31-.79.86-.29.54-.29 1.24v.13q0 .73.29 1.28t.79.87q.5.31 1.15.31m4.99.87v-6.73h1.1v1.07q.4-.7 1.04-.95.64-.26 1.18-.26 1.14 0 1.84.73.71.74.71 2.18V371h-1.13v-3.79q0-1.08-.49-1.56-.48-.49-1.22-.49-.77 0-1.33.53-.56.52-.56 1.53V371zm7.55 0v-1.54H679v2.52q0 .6-.34.83t-.75.23h-.42v-.68h.42q.18 0 .27-.11t.09-.28V371zm9.11.14q-.99 0-1.77-.43-.79-.44-1.23-1.21-.44-.78-.44-1.79v-.17q0-1.01.45-1.78t1.22-1.2 1.77-.43q.75 0 1.36.27.6.27 1.02.76l-.7.7q-.64-.68-1.68-.68-.67 0-1.19.29-.53.29-.83.83-.3.53-.3 1.24v.17q0 .71.31 1.25t.83.84 1.2.29q1.02 0 1.69-.67l.69.68q-.41.49-1.03.77-.62.27-1.37.27m5.87 0q-1.15 0-1.84-.56t-.69-1.46q0-.58.35-1.05.35-.46.96-.73.6-.27 1.36-.27 1.11 0 1.76.46v-.84q0-.83-.42-1.18-.43-.36-1.16-.36-.54 0-1.11.2t-.97.62l-.54-.79q.45-.52 1.18-.79.73-.26 1.5-.26 1.19 0 1.92.63.72.63.72 1.87v2.16q0 1.12.05 2.21h-1.01l-.02-.67q-.63.81-2.04.81m.29-.85q.77 0 1.2-.33.43-.32.43-.84 0-.51-.43-.83t-1.21-.31-1.22.31q-.45.32-.45.83t.46.84 1.22.33m4.76.71v-6.73h1.08v1.06q.39-.69.99-.94.59-.26 1.15-.26.73 0 1.29.32.55.32.83.99.29-.5.69-.79t.83-.4q.42-.12.8-.12 1.09 0 1.78.7.69.71.69 2.17v4h-1.11v-3.86q0-1.04-.45-1.51t-1.17-.47q-.76 0-1.26.51-.51.51-.51 1.47V371h-1.12v-3.86q0-1.04-.44-1.51t-1.17-.47q-.75 0-1.26.51-.52.51-.52 1.47V371zm15.05.14q-.99 0-1.75-.44-.77-.44-1.19-1.23-.43-.78-.43-1.8v-.14q0-.98.39-1.74.39-.77 1.11-1.22.71-.44 1.65-.44.97 0 1.65.47.69.48 1.02 1.34t.19 2.04h-4.88q.05.58.33 1.07.29.48.79.77.49.28 1.17.28.53 0 .94-.12.41-.13.72-.41l.65.7q-.4.42-1 .65-.61.22-1.36.22m-.22-6.03q-.84 0-1.36.53t-.64 1.41h3.78q-.02-.92-.51-1.43t-1.27-.51m4.48 5.89v-6.73H718v1.07q.25-.64.75-.87t1.11-.23h.58v1.12h-.66q-.83 0-1.28.4t-.46 1.25V371zm6.57.14q-1.15 0-1.85-.56-.69-.56-.69-1.46 0-.58.35-1.05.35-.46.96-.73t1.37-.27q1.1 0 1.76.46v-.84q0-.83-.43-1.18-.42-.36-1.15-.36-.55 0-1.11.2t-.98.62l-.53-.79q.45-.52 1.18-.79.72-.26 1.49-.26 1.19 0 1.92.63t.73 1.87v2.16q0 1.12.04 2.21h-1.01l-.01-.67q-.63.81-2.04.81m.29-.85q.77 0 1.2-.33.42-.32.42-.84 0-.51-.42-.83-.43-.31-1.21-.31-.77 0-1.22.31-.45.32-.45.83t.46.84 1.22.33m4.44.71v-1.54h1.43v2.52q0 .6-.35.83t-.75.23h-.42v-.68h.42q.19 0 .28-.11t.09-.28V371zm8.13.14q-1.15 0-1.84-.56t-.69-1.46q0-.58.35-1.05.35-.46.96-.73t1.36-.27q1.11 0 1.77.46v-.84q0-.83-.43-1.18-.43-.36-1.16-.36-.54 0-1.11.2t-.97.62l-.53-.79q.44-.52 1.17-.79.73-.26 1.5-.26 1.19 0 1.92.63t.73 1.87v2.16q0 1.12.04 2.21h-1.01l-.01-.67q-.63.81-2.05.81m.3-.85q.77 0 1.19-.33.43-.32.43-.84 0-.51-.43-.83-.42-.31-1.21-.31-.77 0-1.22.31-.44.32-.44.83t.45.84 1.23.33m7.26.85q-1.12 0-1.86-.66-.74-.67-.74-2.11v-4.1h1.13v3.9q0 1.08.49 1.51.48.42 1.21.42.75 0 1.31-.5.55-.5.55-1.53v-3.8h1.12V371h-1.01v-1.01q-.42.66-1.04.91-.63.24-1.16.24m7.6-.14q-.46 0-.88-.17-.43-.18-.7-.57-.28-.39-.28-1.05v-3.96h-1.22v-.98h1.22v-1.67h1.12v1.67h1.78v.98h-1.78v4.03q0 .32.22.54.22.21.54.21h1.02v.97zm2.55 0v-10.22h1.09v4.56q.41-.7 1.05-.95.63-.26 1.18-.26 1.13 0 1.84.73.71.74.71 2.18V371h-1.14v-3.79q0-1.08-.48-1.56-.48-.49-1.22-.49-.77 0-1.33.53-.56.52-.56 1.53V371zm10.77.14q-.97 0-1.72-.44-.76-.44-1.19-1.23-.44-.78-.44-1.8v-.13q0-.99.44-1.77.43-.78 1.19-1.21.75-.43 1.72-.43.96 0 1.72.43t1.19 1.2.43 1.75v.16q0 1.02-.43 1.8-.43.79-1.19 1.23t-1.72.44m0-1.01q.66 0 1.15-.31.5-.32.78-.87t.28-1.28v-.16q0-1.05-.62-1.71-.61-.67-1.59-.67-.65 0-1.15.31t-.79.86-.29 1.24v.13q0 .73.29 1.28t.79.87q.5.31 1.15.31m5 .87v-6.73h1.09v1.07q.25-.64.75-.87.49-.23 1.11-.23h.57v1.12h-.65q-.83 0-1.28.4t-.46 1.25V371zm3.54 0v-1.54h1.43v2.52q0 .6-.35.83t-.75.23h-.42v-.68h.42q.19 0 .28-.11t.09-.28V371zm9.04.14q-.99 0-1.75-.44-.77-.44-1.19-1.23-.43-.78-.43-1.8v-.14q0-.98.39-1.74.39-.77 1.11-1.22.71-.44 1.65-.44.96 0 1.65.47.69.48 1.02 1.34.32.86.18 2.04h-4.87q.04.58.33 1.07.29.48.79.77.49.28 1.16.28.54 0 .95-.12.41-.13.72-.41l.64.7q-.39.42-1 .65-.61.22-1.35.22m-.22-6.03q-.84 0-1.37.53-.52.53-.63 1.41h3.78q-.02-.92-.51-1.43t-1.27-.51m7.19 6.03q-.92 0-1.63-.43-.72-.44-1.12-1.22-.41-.79-.41-1.82v-.13q0-1.01.41-1.78.42-.77 1.13-1.2t1.62-.43q.76 0 1.36.33.59.32.98.9v-4.58h1.14V371h-1.03v-1.22q-.4.65-1.03 1-.63.36-1.42.36m.16-1.01q.66 0 1.16-.31.5-.3.8-.86.29-.56.29-1.32t-.29-1.32-.8-.88-1.16-.31q-.94 0-1.56.66t-.63 1.75v.13q0 .74.29 1.3t.78.86 1.12.3m5.95.87v-5.75h-1.32v-.98h2.44V371zm-.07-8.22v-1.62h1.26v1.62zm5.6 8.22q-.46 0-.89-.17t-.7-.57-.27-1.05v-3.96h-1.22v-.98h1.22v-1.67h1.12v1.67h1.77v.98h-1.77v4.03q0 .32.21.54.22.21.54.21h1.02v.97zm5.23.14q-.96 0-1.72-.44-.75-.44-1.19-1.23-.43-.78-.43-1.8v-.13q0-.99.43-1.77.44-.78 1.19-1.21.76-.43 1.72-.43.97 0 1.73.43.75.43 1.19 1.2.43.76.43 1.75v.16q0 1.02-.43 1.8-.44.79-1.19 1.23-.76.44-1.73.44m0-1.01q.66 0 1.16-.31.5-.32.78-.87t.28-1.28v-.16q0-1.05-.62-1.71-.62-.67-1.6-.67-.64 0-1.14.31-.51.31-.79.86-.29.54-.29 1.24v.13q0 .73.29 1.28t.79.87q.5.31 1.14.31m5 .87v-6.73h1.09v1.07q.26-.64.75-.87.5-.23 1.12-.23h.57v1.12h-.66q-.82 0-1.28.4-.45.41-.45 1.25V371zm9.82.14q-1.15 0-1.84-.56t-.7-1.46q0-.58.35-1.05.35-.46.96-.73t1.37-.27q1.1 0 1.76.46v-.84q0-.83-.43-1.18-.42-.36-1.15-.36-.55 0-1.11.2t-.98.62l-.53-.79q.45-.52 1.18-.79.72-.26 1.49-.26 1.19 0 1.92.63t.73 1.87v2.16q0 1.12.04 2.21h-1.01l-.01-.67q-.63.81-2.04.81m.29-.85q.77 0 1.2-.33.42-.32.42-.84 0-.51-.42-.83-.43-.31-1.21-.31-.77 0-1.22.31-.45.32-.45.83t.46.84 1.22.33m4.76.71v-6.73h1.09v1.07q.41-.7 1.05-.95.63-.26 1.18-.26 1.13 0 1.84.73.71.74.71 2.18V371h-1.14v-3.79q0-1.08-.48-1.56-.48-.49-1.23-.49-.77 0-1.33.53-.56.52-.56 1.53V371zm10.58.14q-.92 0-1.63-.43-.72-.44-1.12-1.22-.41-.79-.41-1.82v-.13q0-1.01.41-1.78.42-.77 1.13-1.2t1.62-.43q.76 0 1.36.33.59.32.98.9v-4.58h1.14V371h-1.03v-1.22q-.4.65-1.03 1-.63.36-1.42.36m.16-1.01q.66 0 1.16-.31.5-.3.8-.86.29-.56.29-1.32t-.29-1.32-.8-.88-1.16-.31q-.94 0-1.56.66t-.63 1.75v.13q0 .74.29 1.3t.78.86 1.12.3m-389.47 22.01q-.93 0-1.64-.43-.72-.44-1.12-1.22-.41-.79-.41-1.82v-.13q0-1.01.42-1.78.41-.77 1.12-1.2t1.63-.43q.75 0 1.35.33.59.32.98.9v-4.58h1.14V392h-1.02v-1.22q-.41.65-1.04 1-.63.36-1.41.36m.15-1.01q.66 0 1.16-.31.51-.3.8-.86t.29-1.32-.29-1.32-.8-.88-1.16-.31q-.94 0-1.56.66t-.62 1.75v.13q0 .74.28 1.3t.78.86 1.12.3m8.32 1.01q-.97 0-1.73-.44-.75-.44-1.19-1.23-.43-.78-.43-1.8v-.13q0-.99.43-1.77.44-.78 1.19-1.21.76-.43 1.73-.43.96 0 1.72.43.75.43 1.19 1.2.43.76.43 1.75v.16q0 1.02-.43 1.8-.44.79-1.19 1.23-.76.44-1.72.44m0-1.01q.65 0 1.15-.31.5-.32.78-.87t.28-1.28v-.16q0-1.05-.62-1.71-.61-.67-1.59-.67-.65 0-1.15.31-.51.31-.79.86-.29.54-.29 1.24v.13q0 .73.29 1.28t.79.87q.5.31 1.15.31m7.99 1.01q-.99 0-1.78-.43-.78-.44-1.22-1.21-.44-.78-.44-1.79v-.17q0-1.01.44-1.78.45-.77 1.23-1.2t1.77-.43q.74 0 1.35.27t1.03.76l-.7.7q-.64-.68-1.68-.68-.67 0-1.2.29t-.82.83-.3 1.24v.17q0 .71.3 1.25.31.54.84.84.52.29 1.19.29 1.03 0 1.7-.67l.68.68q-.4.49-1.02.77-.63.27-1.37.27m6.36 0q-1.12 0-1.87-.66-.74-.67-.74-2.11v-4.1h1.14v3.9q0 1.08.48 1.51t1.21.42q.76 0 1.31-.5t.55-1.53v-3.8h1.12V392h-1.01v-1.01q-.42.66-1.04.91-.62.24-1.15.24m5.3-.14v-6.73h1.08v1.06q.39-.69.99-.94.59-.26 1.15-.26.73 0 1.28.32.56.32.84.99.29-.5.69-.79t.82-.4q.43-.12.81-.12 1.09 0 1.78.7.68.71.68 2.17v4h-1.1v-3.86q0-1.04-.45-1.51t-1.18-.47q-.75 0-1.26.51-.5.51-.5 1.47V392h-1.12v-3.86q0-1.04-.44-1.51t-1.17-.47q-.76 0-1.27.51t-.51 1.47V392zm15.05.14q-.99 0-1.75-.44-.77-.44-1.19-1.23-.43-.78-.43-1.8v-.14q0-.98.39-1.74.39-.77 1.11-1.22.71-.44 1.65-.44.96 0 1.65.47.69.48 1.02 1.34.32.86.18 2.04h-4.87q.04.58.33 1.07.29.48.79.77.49.28 1.16.28.54 0 .95-.12.41-.13.72-.41l.64.7q-.39.42-1 .65-.61.22-1.35.22m-.22-6.03q-.84 0-1.37.53-.52.53-.63 1.41h3.78q-.02-.92-.51-1.43t-1.27-.51m4.48 5.89v-6.73h1.09v1.07q.41-.7 1.04-.95.64-.26 1.19-.26 1.13 0 1.84.73.7.74.7 2.18V392h-1.13v-3.79q0-1.08-.48-1.56-.49-.49-1.23-.49-.77 0-1.33.53-.56.52-.56 1.53V392zm10.06 0q-.46 0-.88-.17-.43-.18-.7-.57-.28-.39-.28-1.05v-3.96h-1.22v-.98h1.22v-1.67h1.12v1.67h1.78v.98h-1.78v4.03q0 .32.22.54.22.21.54.21h1.02v.97zm5.81 0v-6.73h1.08v1.06q.39-.69.99-.94.59-.26 1.15-.26.73 0 1.29.32.55.32.83.99.29-.5.69-.79t.83-.4q.42-.12.8-.12 1.09 0 1.78.7.69.71.69 2.17v4h-1.11v-3.86q0-1.04-.45-1.51t-1.17-.47q-.76 0-1.26.51-.51.51-.51 1.47V392h-1.12v-3.86q0-1.04-.44-1.51t-1.17-.47q-.75 0-1.26.51-.52.51-.52 1.47V392zm15.05.14q-.99 0-1.75-.44-.77-.44-1.19-1.23-.43-.78-.43-1.8v-.14q0-.98.39-1.74.39-.77 1.11-1.22.71-.44 1.65-.44.97 0 1.65.47.69.48 1.02 1.34t.19 2.04h-4.88q.05.58.33 1.07.29.48.79.77.49.28 1.17.28.53 0 .94-.12.41-.13.72-.41l.65.7q-.4.42-1 .65-.61.22-1.36.22m-.22-6.03q-.84 0-1.36.53t-.64 1.41h3.78q-.02-.92-.51-1.43t-1.27-.51m6.72 5.89q-.46 0-.89-.17t-.7-.57-.27-1.05v-3.96h-1.22v-.98h1.22v-1.67h1.12v1.67h1.78v.98h-1.78v4.03q0 .32.22.54.21.21.53.21h1.03v.97zm4.56.14q-1.14 0-1.84-.56-.69-.56-.69-1.46 0-.58.35-1.05.35-.46.96-.73t1.36-.27q1.11 0 1.77.46v-.84q0-.83-.43-1.18-.43-.36-1.15-.36-.55 0-1.12.2-.56.2-.97.62l-.53-.79q.45-.52 1.17-.79.73-.26 1.5-.26 1.19 0 1.92.63t.73 1.87v2.16q0 1.12.04 2.21h-1.01l-.01-.67q-.63.81-2.05.81m.3-.85q.77 0 1.2-.33.42-.32.42-.84 0-.51-.42-.83-.43-.31-1.22-.31-.77 0-1.21.31-.45.32-.45.83t.45.84 1.23.33m7.47.85q-.92 0-1.63-.43-.72-.44-1.12-1.22-.41-.79-.41-1.82v-.13q0-1.01.41-1.78.42-.77 1.13-1.2t1.62-.43q.76 0 1.36.33.59.32.98.9v-4.58h1.14V392h-1.03v-1.22q-.4.65-1.03 1-.63.36-1.42.36m.16-1.01q.66 0 1.16-.31.5-.3.8-.86.29-.56.29-1.32t-.29-1.32-.8-.88-1.16-.31q-.94 0-1.56.66t-.63 1.75v.13q0 .74.29 1.3t.78.86 1.12.3m7.43 1.01q-1.15 0-1.84-.56t-.69-1.46q0-.58.35-1.05.35-.46.96-.73t1.36-.27q1.11 0 1.77.46v-.84q0-.83-.43-1.18-.43-.36-1.16-.36-.54 0-1.11.2t-.97.62l-.53-.79q.44-.52 1.17-.79.73-.26 1.5-.26 1.19 0 1.92.63t.73 1.87v2.16q0 1.12.04 2.21h-1.01l-.01-.67q-.63.81-2.05.81m.3-.85q.77 0 1.19-.33.43-.32.43-.84 0-.51-.43-.83-.42-.31-1.21-.31-.77 0-1.22.31-.44.32-.44.83t.45.84 1.23.33m6.97.71q-.46 0-.89-.17t-.7-.57-.27-1.05v-3.96h-1.22v-.98h1.22v-1.67h1.12v1.67h1.77v.98h-1.77v4.03q0 .32.21.54.22.21.54.21h1.02v.97zm4.56.14q-1.15 0-1.84-.56t-.69-1.46q0-.58.35-1.05.35-.46.96-.73t1.36-.27q1.11 0 1.77.46v-.84q0-.83-.43-1.18-.43-.36-1.16-.36-.54 0-1.11.2t-.97.62l-.53-.79q.44-.52 1.17-.79.73-.26 1.5-.26 1.19 0 1.92.63t.73 1.87v2.16q0 1.12.04 2.21h-1.01l-.01-.67q-.63.81-2.05.81m.3-.85q.77 0 1.19-.33.43-.32.43-.84 0-.51-.43-.83-.42-.31-1.21-.31-.77 0-1.22.31-.44.32-.44.83t.45.84 1.23.33m8.42.71v-5.75h-1.31v-.98h2.43V392zm-.07-8.22v-1.62h1.26v1.62zm5.6 8.22q-.46 0-.88-.17-.43-.18-.7-.57-.28-.39-.28-1.05v-3.96h-1.22v-.98h1.22v-1.67h1.12v1.67h1.78v.98h-1.78v4.03q0 .32.22.54.22.21.54.21h1.02v.97zm2.19-6.44v-3.36h1.05v3.36zm4.37 6.57q-.75 0-1.4-.23t-1.05-.6l.5-.78q.38.32.9.51.51.2 1.05.2.63 0 1.02-.29t.39-.75q0-.39-.27-.6-.26-.22-.67-.34l-.87-.24q-.46-.12-.87-.31-.41-.2-.67-.56t-.26-1q0-.88.66-1.45.67-.56 1.79-.56.63 0 1.2.19.56.18.98.49l-.5.79q-.37-.27-.79-.42-.43-.16-.91-.16-.6 0-.98.29-.37.29-.37.75 0 .39.26.6.27.21.68.34l.88.24q.47.12.89.32t.68.58.26 1q0 .59-.32 1.03t-.9.7-1.31.26m10.4.01q-1 0-1.78-.43-.78-.44-1.22-1.21-.45-.78-.45-1.79v-.17q0-1.01.45-1.78t1.23-1.2 1.77-.43q.74 0 1.35.27t1.03.76l-.7.7q-.65-.68-1.68-.68-.67 0-1.2.29t-.82.83q-.31.53-.31 1.24v.17q0 .71.31 1.25t.84.84 1.19.29q1.02 0 1.7-.67l.68.68q-.4.49-1.03.77-.62.27-1.36.27m5.86 0q-1.14 0-1.84-.56-.69-.56-.69-1.46 0-.58.35-1.05.35-.46.96-.73t1.36-.27q1.11 0 1.77.46v-.84q0-.83-.43-1.18-.43-.36-1.15-.36-.55 0-1.12.2-.56.2-.97.62l-.53-.79q.45-.52 1.17-.79.73-.26 1.5-.26 1.19 0 1.92.63t.73 1.87v2.16q0 1.12.04 2.21h-1.01l-.01-.67q-.63.81-2.05.81m.3-.85q.77 0 1.2-.33.42-.32.42-.84 0-.51-.42-.83-.43-.31-1.22-.31-.77 0-1.21.31-.45.32-.45.83t.45.84 1.23.33m4.76.71v-6.73h1.09v1.07q.25-.64.75-.87t1.11-.23h.58v1.12h-.66q-.83 0-1.28.4t-.46 1.25V392zm4.86 0v-6.73h1.09v1.07q.25-.64.75-.87.49-.23 1.11-.23h.57v1.12h-.65q-.83 0-1.28.4t-.46 1.25V392zm4.13 2.8v-.97h1.34q.29 0 .47-.2t.29-.48l.49-1.08-2.78-6.8h1.25l2.13 5.41 2.03-5.41h1.24l-3.22 7.92q-.15.39-.38.76-.23.36-.6.61-.37.24-.98.24zm8.2-2.8v-5.75h-1.32v-.98h2.44V392zm-.07-8.22v-1.62h1.26v1.62zm3.3 8.22v-6.73h1.1v1.07q.4-.7 1.04-.95.64-.26 1.18-.26 1.14 0 1.84.73.71.74.71 2.18V392h-1.13v-3.79q0-1.08-.49-1.56-.48-.49-1.22-.49-.77 0-1.33.53-.56.52-.56 1.53V392zm7.2 2.8v-.95h4.02q.47 0 .74-.23t.27-.65q0-.4-.27-.61-.27-.22-.74-.22h-2.21q-.54 0-.81-.25t-.31-.63.16-.76l.45-.91q-.52-.32-.81-.83t-.29-1.14v-.13q0-.7.37-1.23t1.02-.83 1.49-.3l.31.01.68-1.41h1.14l-.87 1.61q.74.26 1.18.82t.44 1.3v.16q0 .71-.37 1.26-.37.54-1.02.86t-1.49.31q-.45 0-.87-.09l-.33.65q-.1.19-.07.4.04.22.39.22h1.97q.86 0 1.39.44t.53 1.31q0 .8-.54 1.31t-1.43.51zm3.08-5.63q.41 0 .81-.14t.69-.51.28-.97q0-.67-.5-1.09-.5-.41-1.28-.41t-1.28.41-.5 1.09q0 .61.28.97t.7.51q.41.14.8.14m7.39-.54v-1.07h12.6v1.07zm19.77 3.37q-.46 0-.89-.17t-.7-.57-.27-1.05v-3.96h-1.22v-.98h1.22v-1.67h1.12v1.67h1.78v.98h-1.78v4.03q0 .32.22.54.21.21.53.21h1.03v.97zm2.55 0v-10.22h1.09v4.56q.41-.7 1.04-.95.64-.26 1.19-.26 1.13 0 1.84.73.7.74.7 2.18V392h-1.13v-3.79q0-1.08-.48-1.56-.49-.49-1.23-.49-.77 0-1.33.53-.56.52-.56 1.53V392zm10.79.14q-.99 0-1.75-.44-.77-.44-1.19-1.23-.43-.78-.43-1.8v-.14q0-.98.39-1.74.39-.77 1.11-1.22.71-.44 1.65-.44.96 0 1.65.47.69.48 1.02 1.34.32.86.18 2.04h-4.87q.04.58.33 1.07.29.48.79.77.49.28 1.16.28.54 0 .95-.12.41-.13.72-.41l.64.7q-.39.42-1 .65-.61.22-1.35.22m-.22-6.03q-.84 0-1.37.53-.52.53-.63 1.41h3.78q-.02-.92-.51-1.43t-1.27-.51m4.48 5.89v-6.73h1.09v1.07q.41-.7 1.04-.95.64-.26 1.19-.26 1.13 0 1.84.73.7.74.7 2.18V392h-1.13v-3.79q0-1.08-.48-1.56-.49-.49-1.23-.49-.77 0-1.33.53-.56.52-.56 1.53V392zm11.13 0v-10.22h1.09v4.56q.41-.7 1.04-.95.64-.26 1.19-.26 1.13 0 1.84.73.7.74.7 2.18V392h-1.13v-3.79q0-1.08-.48-1.56-.49-.49-1.23-.49-.77 0-1.33.53-.56.52-.56 1.53V392zm9.88.14q-1.15 0-1.84-.56t-.69-1.46q0-.58.35-1.05.35-.46.96-.73t1.36-.27q1.11 0 1.77.46v-.84q0-.83-.43-1.18-.43-.36-1.16-.36-.54 0-1.11.2t-.97.62l-.53-.79q.44-.52 1.17-.79.73-.26 1.5-.26 1.19 0 1.92.63t.73 1.87v2.16q0 1.12.04 2.21h-1.01l-.01-.67q-.63.81-2.05.81m.3-.85q.77 0 1.19-.33.43-.32.43-.84 0-.51-.43-.83-.42-.31-1.21-.31-.77 0-1.22.31-.44.32-.44.83t.45.84 1.23.33m4.76.71v-6.73h1.09v1.07q.4-.7 1.04-.95.64-.26 1.18-.26 1.14 0 1.85.73.7.74.7 2.18V392h-1.13v-3.79q0-1.08-.49-1.56-.48-.49-1.22-.49-.77 0-1.33.53-.56.52-.56 1.53V392zm10.58.14q-.92 0-1.64-.43-.71-.44-1.12-1.22-.4-.79-.4-1.82v-.13q0-1.01.41-1.78t1.13-1.2 1.62-.43q.76 0 1.35.33.6.32.99.9v-4.58h1.13V392h-1.02v-1.22q-.41.65-1.04 1-.63.36-1.41.36m.15-1.01q.66 0 1.17-.31.5-.3.79-.86t.3-1.32-.3-1.32q-.29-.57-.79-.88-.51-.31-1.17-.31-.93 0-1.56.66-.62.66-.62 1.75v.13q0 .74.29 1.3t.77.86 1.12.3m12.16 1.01q-.79 0-1.42-.36-.63-.35-1.02-.98v1.2h-1.04v-10.22h1.14v4.58q.39-.58.99-.9t1.35-.33q.91 0 1.62.43t1.13 1.2.41 1.78v.13q0 1.03-.41 1.82-.4.78-1.12 1.22-.71.43-1.63.43m-.17-1.01q.63 0 1.13-.3t.78-.86.29-1.3v-.13q0-1.09-.63-1.75-.62-.66-1.57-.66-.65 0-1.15.31t-.8.88-.29 1.32.29 1.32q.3.56.8.86.5.31 1.15.31m7 1.01q-1.15 0-1.84-.56t-.7-1.46q0-.58.35-1.05.35-.46.96-.73t1.37-.27q1.1 0 1.76.46v-.84q0-.83-.42-1.18-.43-.36-1.16-.36-.55 0-1.11.2t-.98.62l-.53-.79q.45-.52 1.18-.79.73-.26 1.5-.26 1.19 0 1.91.63.73.63.73 1.87v2.16q0 1.12.04 2.21h-1l-.02-.67q-.63.81-2.04.81m.29-.85q.77 0 1.2-.33.43-.32.43-.84 0-.51-.43-.83t-1.21-.31q-.77 0-1.22.31-.45.32-.45.83t.46.84 1.22.33m7.76.85q-1 0-1.78-.43-.78-.44-1.22-1.21-.45-.78-.45-1.79v-.17q0-1.01.45-1.78t1.23-1.2 1.77-.43q.74 0 1.35.27t1.03.76l-.7.7q-.65-.68-1.68-.68-.67 0-1.2.29t-.82.83q-.31.53-.31 1.24v.17q0 .71.31 1.25t.84.84q.52.29 1.19.29 1.02 0 1.7-.67l.68.68q-.4.49-1.03.77-.62.27-1.36.27m3.85-.14v-10.22h1.13v6.69l3.11-3.2h1.4l-2.56 2.67 2.77 4.06h-1.4l-2.18-3.23-1.14 1.19V392zm12.12.14q-1.15 0-1.84-.56t-.69-1.46q0-.58.35-1.05.35-.46.96-.73t1.36-.27q1.11 0 1.77.46v-.84q0-.83-.43-1.18-.43-.36-1.16-.36-.54 0-1.11.2t-.97.62l-.53-.79q.44-.52 1.17-.79.73-.26 1.5-.26 1.19 0 1.92.63t.73 1.87v2.16q0 1.12.04 2.21h-1.01l-.01-.67q-.63.81-2.05.81m.3-.85q.77 0 1.19-.33.43-.32.43-.84 0-.51-.43-.83-.42-.31-1.21-.31-.77 0-1.22.31-.44.32-.44.83t.45.84 1.23.33m11.01.85q-.99 0-1.77-.43-.79-.44-1.23-1.21-.44-.78-.44-1.79v-.17q0-1.01.45-1.78t1.22-1.2 1.77-.43q.75 0 1.36.27.6.27 1.02.76l-.7.7q-.64-.68-1.68-.68-.67 0-1.19.29-.53.29-.83.83-.3.53-.3 1.24v.17q0 .71.31 1.25t.83.84 1.2.29q1.02 0 1.69-.67l.69.68q-.41.49-1.03.77-.62.27-1.37.27m5.66-.14q-.83 0-1.32-.47t-.5-1.25v-7.53h-1.23v-.97h2.36v8.51q0 .32.21.53t.54.21h.64v.97zm4.76.14q-.99 0-1.76-.44-.76-.44-1.19-1.23-.42-.78-.42-1.8v-.14q0-.98.39-1.74.39-.77 1.1-1.22t1.66-.44q.96 0 1.65.47.68.48 1.01 1.34t.19 2.04h-4.87q.04.58.33 1.07.29.48.78.77.5.28 1.17.28.53 0 .95-.12.41-.13.72-.41l.64.7q-.39.42-1 .65-.61.22-1.35.22m-.22-6.03q-.84 0-1.37.53-.52.53-.64 1.41h3.78q-.01-.92-.5-1.43t-1.27-.51m6.48 6.03q-1.15 0-1.84-.56t-.7-1.46q0-.58.35-1.05.35-.46.96-.73t1.37-.27q1.1 0 1.76.46v-.84q0-.83-.42-1.18-.43-.36-1.16-.36-.55 0-1.11.2t-.98.62l-.53-.79q.45-.52 1.18-.79.73-.26 1.5-.26 1.19 0 1.91.63.73.63.73 1.87v2.16q0 1.12.04 2.21h-1l-.02-.67q-.63.81-2.04.81m.29-.85q.77 0 1.2-.33.43-.32.43-.84 0-.51-.43-.83t-1.21-.31-1.22.31q-.45.32-.45.83t.46.84 1.22.33m4.76.71v-6.73h1.09v1.07q.41-.7 1.05-.95.63-.26 1.18-.26 1.13 0 1.84.73.71.74.71 2.18V392h-1.14v-3.79q0-1.08-.48-1.56-.48-.49-1.22-.49-.77 0-1.33.53-.56.52-.56 1.53V392zm14.13.14q-1 0-1.78-.43-.78-.44-1.22-1.21-.45-.78-.45-1.79v-.17q0-1.01.45-1.78t1.23-1.2 1.77-.43q.74 0 1.35.27t1.03.76l-.7.7q-.65-.68-1.68-.68-.67 0-1.2.29t-.82.83q-.31.53-.31 1.24v.17q0 .71.31 1.25t.84.84q.52.29 1.19.29 1.02 0 1.7-.67l.68.68q-.4.49-1.03.77-.62.27-1.36.27m6.55 0q-.97 0-1.72-.44-.76-.44-1.19-1.23-.44-.78-.44-1.8v-.13q0-.99.44-1.77.43-.78 1.19-1.21.75-.43 1.72-.43t1.72.43 1.19 1.2.44 1.75v.16q0 1.02-.44 1.8-.43.79-1.19 1.23-.75.44-1.72.44m0-1.01q.66 0 1.16-.31.49-.32.77-.87t.28-1.28v-.16q0-1.05-.61-1.71-.62-.67-1.6-.67-.64 0-1.15.31t-.79.86-.29 1.24v.13q0 .73.29 1.28t.79.87q.51.31 1.15.31m5 3.67v-9.53h1.06v1.16q.39-.6 1.02-.95.62-.35 1.39-.35.91 0 1.62.43t1.13 1.2.41 1.78v.13q0 1.03-.4 1.82-.41.78-1.12 1.22t-1.64.43q-.74 0-1.34-.33t-1-.9v3.89zm3.3-3.67q.63 0 1.13-.3t.78-.86.29-1.3v-.13q0-1.09-.62-1.75-.63-.66-1.58-.66-.64 0-1.15.31t-.79.88q-.3.56-.3 1.32t.3 1.32.79.86q.51.31 1.15.31m4.13 3.67v-.97h1.35q.29 0 .47-.2t.28-.48l.49-1.08-2.77-6.8h1.25l2.12 5.41 2.03-5.41H834l-3.22 7.92q-.15.39-.38.76-.24.36-.61.61-.37.24-.97.24zm6.64-2.8v-1.54h1.37V392z"/><path fill="#2a8c5d" d="M445.71 484q-.72 0-1.17-.46-.46-.46-.46-1.18v-6.52q0-.72.46-1.18.45-.46 1.17-.46h4.77v1.57h-4.2q-.21 0-.36.14t-.14.36v2.06h4.41v1.5h-4.41v2.1q0 .21.14.36t.36.14h4.2V484zm7.96 0-2.63-6.82h1.68l1.79 4.92 1.79-4.92h1.68l-2.61 6.82zm8.22.14q-1.02 0-1.8-.44t-1.21-1.23-.43-1.84v-.14q0-.97.4-1.75.39-.79 1.13-1.24.73-.46 1.71-.46 1.03 0 1.75.5.73.5 1.07 1.41.33.91.18 2.14h-4.65q.09.71.58 1.18.5.47 1.35.47.51 0 .87-.14.37-.14.66-.42l.91.95q-.41.51-1.06.76t-1.46.25m-.18-5.8q-.72 0-1.12.45-.41.44-.52 1.15h3.08q-.03-.76-.43-1.18t-1.01-.42m4.44 5.66v-6.82h1.55v1q.25-.59.74-.82t1.09-.23h.56v1.59h-.68q-.8 0-1.23.37-.42.36-.42 1.06V484zm4.6 2.8v-1.37h1.49q.19 0 .3-.11.12-.12.2-.3l.42-.92-2.77-6.92h1.79l1.85 4.94 1.68-4.94h1.79l-3.15 7.91q-.15.39-.39.79t-.67.66-1.14.26zm10.35-2.8q-.49 0-.97-.17-.49-.17-.81-.61T479 482v-3.45h-1.16v-1.37H479v-1.66h1.61v1.66h1.58v1.37h-1.58v3.57q0 .21.15.36t.35.15h1.08V484zm2.52 0v-10.22h1.55v4.27q.42-.6 1-.8t1.06-.21q1.15 0 1.84.75t.69 2.15V484h-1.61v-3.79q0-.9-.38-1.3-.39-.4-.99-.4-.66 0-1.1.44t-.45 1.28V484zm8.41 0v-5.45h-1.23v-1.37h2.86V484zm-.07-8.18v-1.86h1.79v1.86zm3.56 8.18v-6.82h1.55v.87q.42-.6 1-.8t1.06-.21q1.15 0 1.84.75t.69 2.15V484h-1.61v-3.79q0-.9-.38-1.3-.39-.4-.99-.4-.66 0-1.1.44t-.45 1.28V484zm7.39 2.8v-1.33h4.13q.69 0 .69-.62 0-.57-.69-.57h-2.37q-.54 0-.84-.27-.29-.26-.33-.67t.17-.85l.43-.87q-.52-.34-.8-.85t-.29-1.15v-.13q0-.71.38-1.26.39-.56 1.07-.87.68-.32 1.57-.32h.14l.62-1.33h1.62l-.88 1.61q.7.31 1.11.87.4.56.4 1.29v.14q0 .74-.38 1.31-.39.56-1.07.89t-1.56.32q-.33 0-.64-.04l-.28.57q-.07.11-.04.23.02.12.22.12h1.99q.87 0 1.41.45.55.45.55 1.41 0 .83-.57 1.37t-1.46.55zm3.12-5.89q.32 0 .65-.12t.56-.42.22-.81q0-.54-.4-.88t-1.03-.34-1.04.34-.4.88q0 .52.22.81.23.3.56.42t.66.12m7.56 3.09v-10.22h1.56v4.27q.42-.6 1-.8t1.05-.21q1.15 0 1.85.75.69.75.69 2.15V484h-1.61v-3.79q0-.9-.39-1.3-.38-.4-.98-.4-.66 0-1.11.44t-.45 1.28V484zm10 .14q-1.16 0-1.85-.57t-.69-1.46q0-.91.75-1.5.75-.6 2-.6.94 0 1.55.34v-.66q0-.67-.38-.95-.37-.28-.96-.28-.52 0-1.07.19-.56.2-.95.56l-.73-1.09q.45-.5 1.23-.79t1.62-.29q1.26 0 2.05.65t.79 1.91v2.2l.01 1.11q0 .54.03 1.09h-1.43l-.01-.7q-.58.84-1.96.84m.45-1.19q.6 0 .96-.25.37-.25.37-.66 0-.39-.37-.64-.36-.26-.98-.26-.6 0-.97.26-.37.25-.37.64 0 .41.37.66t.99.25m4.71 3.85v-9.62h1.52v.86q.39-.47.95-.73.56-.27 1.22-.27.91 0 1.64.44.74.44 1.16 1.23.42.78.42 1.8v.14q0 1.05-.42 1.84-.42.78-1.14 1.22-.73.43-1.65.43-.63 0-1.16-.24t-.93-.66v3.56zm3.43-4.07q.79 0 1.33-.56t.54-1.52v-.14q0-.95-.54-1.49-.54-.55-1.33-.55-.82 0-1.37.57-.54.56-.54 1.56 0 .98.54 1.55.55.58 1.37.58m4.93 4.07v-9.62h1.51v.86q.4-.47.96-.73.56-.27 1.21-.27.91 0 1.65.44t1.15 1.23q.42.78.42 1.8v.14q0 1.05-.42 1.84-.42.78-1.14 1.22t-1.64.43q-.63 0-1.16-.24-.54-.24-.93-.66v3.56zm3.43-4.07q.79 0 1.33-.56.53-.56.53-1.52v-.14q0-.95-.53-1.49-.54-.55-1.33-.55-.82 0-1.37.57t-.55 1.56.55 1.55q.55.58 1.37.58m7.95 1.41q-1.02 0-1.79-.44-.78-.44-1.22-1.23t-.43-1.84v-.14q0-.97.4-1.75.4-.79 1.13-1.24.74-.46 1.72-.46 1.02 0 1.75.5t1.06 1.41.18 2.14h-4.64q.08.71.58 1.18t1.35.47q.5 0 .87-.14.36-.14.65-.42l.91.95q-.4.51-1.05.76t-1.47.25m-.18-5.8q-.71 0-1.12.45-.4.44-.52 1.15h3.08q-.02-.76-.42-1.18t-1.02-.42m4.44 5.66v-6.82h1.55v.87q.42-.6 1.01-.8.58-.21 1.05-.21 1.15 0 1.84.75t.7 2.15V484h-1.61v-3.79q0-.9-.39-1.3-.38-.4-.99-.4-.65 0-1.1.44t-.45 1.28V484zm9.98.13q-.81 0-1.49-.24t-1.13-.59l.7-1.11q.41.3.91.49.49.19 1.01.19.51 0 .81-.21t.3-.55-.25-.5q-.24-.17-.63-.28l-.84-.21q-.44-.12-.83-.33t-.64-.59-.26-1.02q0-.93.72-1.54.71-.6 1.92-.6.67 0 1.27.18.6.19 1.08.51l-.72 1.08q-.78-.54-1.65-.54-.49 0-.78.22t-.3.55q0 .31.26.49t.66.28l.85.23q.45.12.85.34t.65.6.26 1.02-.35 1.1q-.35.48-.96.75-.62.28-1.42.28m7.76-.13v-5.45h-1.23v-1.37h2.85V484zm-.07-8.18v-1.86h1.79v1.86zm3.55 8.18v-6.82h1.56v.87q.42-.6 1-.8t1.06-.21q1.14 0 1.84.75.69.75.69 2.15V484h-1.61v-3.79q0-.9-.38-1.3-.39-.4-.99-.4-.66 0-1.11.44t-.45 1.28V484zm10.25 2.8v-1.37h1.49q.19 0 .3-.11.12-.12.2-.3l.42-.92-2.77-6.92h1.79l1.85 4.94 1.68-4.94h1.79l-3.15 7.91q-.15.39-.39.79t-.67.66-1.14.26zm10.68-2.66q-.99 0-1.79-.45t-1.26-1.24-.46-1.81v-.13q0-1.02.46-1.8.46-.79 1.26-1.23t1.79-.44 1.79.44 1.25 1.23q.46.78.46 1.79v.14q0 1.02-.46 1.81t-1.25 1.24-1.79.45m0-1.43q.84 0 1.37-.58.52-.58.52-1.49v-.14q0-.9-.52-1.46-.53-.57-1.37-.57-.82 0-1.35.57-.54.58-.54 1.47v.13q0 .91.54 1.49.53.58 1.35.58m7.48 1.43q-1.12 0-1.87-.68t-.75-2.08v-4.2h1.61v3.89q0 .89.39 1.24.38.36.98.36.65 0 1.08-.41.42-.42.42-1.26v-3.82h1.61V484h-1.4v-.83q-.43.58-1.01.77t-1.06.2m5.35-.14v-6.82h1.55v1q.25-.59.74-.82t1.1-.23h.56v1.59h-.69q-.8 0-1.22.37-.43.36-.43 1.06V484zm11.6.14q-.68 0-1.26-.28-.57-.28-.98-.77v.91h-1.45v-10.22h1.61v4.16q.38-.42.91-.66t1.16-.24q.91 0 1.65.44t1.15 1.23q.42.78.42 1.8v.14q0 1.05-.42 1.84-.42.78-1.14 1.22t-1.65.43m-.26-1.41q.78 0 1.32-.56t.54-1.52v-.14q0-.95-.54-1.49-.54-.55-1.32-.55-.83 0-1.37.57t-.55 1.56.55 1.55q.54.58 1.37.58M624 484v-6.82h1.55v1q.25-.59.74-.82t1.09-.23h.56v1.59h-.68q-.8 0-1.23.37-.42.36-.42 1.06V484zm7.92.14q-.99 0-1.79-.45t-1.26-1.24-.46-1.81v-.13q0-1.02.46-1.8.46-.79 1.26-1.23t1.79-.44 1.79.44 1.25 1.23.46 1.79v.14q0 1.02-.46 1.81t-1.25 1.24-1.79.45m0-1.43q.84 0 1.37-.58.52-.58.52-1.49v-.14q0-.9-.52-1.46-.53-.57-1.37-.57-.83 0-1.36.57-.53.58-.53 1.47v.13q0 .91.53 1.49t1.36.58m6.01 1.29-1.82-6.82h1.59l1.25 5.17 1.38-5.17h1.7l1.38 5.15 1.25-5.15h1.6l-1.82 6.82h-1.87l-1.4-5.36-1.38 5.36zm11.5.13q-.81 0-1.49-.24t-1.12-.59l.7-1.11q.4.3.9.49t1.01.19.81-.21.3-.55-.24-.5q-.25-.17-.64-.28l-.83-.21q-.45-.12-.84-.33t-.64-.59-.25-1.02q0-.93.71-1.54.71-.6 1.92-.6.67 0 1.27.18.6.19 1.08.51l-.71 1.08q-.79-.54-1.66-.54-.49 0-.78.22t-.29.55q0 .31.26.49.25.17.65.28l.85.23q.45.12.85.34t.66.6.25 1.02-.35 1.1q-.35.48-.96.75-.62.28-1.42.28m7.16.01q-1.02 0-1.8-.44t-1.21-1.23-.44-1.84v-.14q0-.97.4-1.75.4-.79 1.14-1.24.73-.46 1.71-.46 1.02 0 1.75.5t1.07 1.41.18 2.14h-4.65q.08.71.58 1.18t1.35.47q.51 0 .87-.14t.66-.42l.91.95q-.41.51-1.06.76t-1.46.25m-.18-5.8q-.72 0-1.12.45-.41.44-.52 1.15h3.08q-.03-.76-.43-1.18t-1.01-.42m4.43 5.66v-6.82h1.56v1q.25-.59.74-.82t1.09-.23h.56v1.59h-.68q-.8 0-1.23.37-.43.36-.43 1.06V484zm3.97 0v-1.89h1.84V484zm8.37 0v-4.06l-3.47-5.74h1.86l2.48 4.09 2.47-4.09h1.87l-3.48 5.74V484zm7.67.14q-.99 0-1.79-.45t-1.26-1.24-.46-1.81v-.13q0-1.02.46-1.8.46-.79 1.26-1.23t1.79-.44 1.79.44 1.25 1.23.46 1.79v.14q0 1.02-.46 1.81t-1.25 1.24-1.79.45m0-1.43q.84 0 1.37-.58.52-.58.52-1.49v-.14q0-.9-.52-1.46-.53-.57-1.37-.57-.83 0-1.36.57-.53.58-.53 1.47v.13q0 .91.53 1.49t1.36.58m7.48 1.43q-1.12 0-1.87-.68t-.75-2.08v-4.2h1.61v3.89q0 .89.38 1.24.39.36.99.36.64 0 1.07-.41.43-.42.43-1.26v-3.82h1.61V484h-1.4v-.83q-.44.58-1.02.77t-1.05.2m5.34-.14v-6.82h1.56v1q.25-.59.74-.82t1.09-.23h.56v1.59h-.68q-.8 0-1.23.37-.43.36-.43 1.06V484zm8.4 0v-5.45h-1.17v-1.37h1.17v-1.41q0-.93.59-1.46.58-.53 1.57-.53h1.19v1.34h-1.22q-.21 0-.35.15-.15.15-.15.37v1.54h4.44V484h-1.61v-5.45h-2.83V484zm4.39-8.18v-1.86h1.77v1.86zm5.6 8.18q-.93 0-1.48-.5-.55-.51-.55-1.39v-6.96h-1.14v-1.37h2.75v8.36q0 .22.14.37t.37.15h.72V484zm4.92.14q-1.02 0-1.79-.44-.78-.44-1.22-1.23t-.43-1.84v-.14q0-.97.4-1.75.4-.79 1.13-1.24.74-.46 1.72-.46 1.02 0 1.75.5t1.06 1.41.18 2.14h-4.64q.08.71.58 1.18t1.35.47q.5 0 .87-.14.36-.14.65-.42l.91.95q-.4.51-1.05.76t-1.47.25m-.18-5.8q-.71 0-1.12.45-.4.44-.52 1.15h3.08q-.02-.76-.42-1.18t-1.02-.42m8.04 5.66v-5.45h-1.23v-1.37h2.85V484zm-.07-8.18v-1.86h1.79v1.86zm5.6 8.31q-.81 0-1.49-.24t-1.13-.59l.7-1.11q.41.3.9.49t1.02.19q.5 0 .8-.21t.3-.55-.24-.5q-.25-.17-.64-.28l-.83-.21q-.44-.12-.83-.33-.4-.21-.65-.59-.25-.39-.25-1.02 0-.93.71-1.54.72-.6 1.92-.6.67 0 1.28.18.6.19 1.07.51l-.71 1.08q-.78-.54-1.65-.54-.49 0-.79.22-.29.22-.29.55 0 .31.26.49t.66.28l.84.23q.45.12.85.34t.66.6.26 1.02-.35 1.1q-.35.48-.97.75-.61.28-1.41.28m7.25-.13v-6.82h1.55v.87q.42-.6 1.01-.8.58-.21 1.05-.21 1.15 0 1.84.75t.7 2.15V484h-1.61v-3.79q0-.9-.39-1.3-.38-.4-.99-.4-.65 0-1.1.44t-.45 1.28V484zm10.96.14q-1.02 0-1.8-.44-.77-.44-1.21-1.23t-.43-1.84v-.14q0-.97.4-1.75.4-.79 1.13-1.24.74-.46 1.72-.46 1.02 0 1.75.5.72.5 1.06 1.41t.18 2.14h-4.65q.09.71.59 1.18.49.47 1.35.47.5 0 .86-.14.37-.14.66-.42l.91.95q-.4.51-1.05.76-.66.25-1.47.25m-.18-5.8q-.71 0-1.12.45-.41.44-.52 1.15h3.08q-.03-.76-.42-1.18-.4-.42-1.02-.42m6.08 5.66-2.64-6.82h1.68l1.8 4.92 1.79-4.92h1.68l-2.62 6.82zm8.21.14q-1.02 0-1.8-.44-.77-.44-1.21-1.23t-.43-1.84v-.14q0-.97.4-1.75.4-.79 1.13-1.24.74-.46 1.72-.46 1.02 0 1.75.5t1.06 1.41q.34.91.18 2.14h-4.64q.08.71.58 1.18t1.35.47q.5 0 .87-.14.36-.14.65-.42l.91.95q-.4.51-1.05.76t-1.47.25m-.18-5.8q-.71 0-1.12.45-.4.44-.52 1.15h3.08q-.02-.76-.42-1.18t-1.02-.42m4.44 5.66v-6.82h1.55v1q.26-.59.75-.82t1.09-.23h.56v1.59h-.69q-.8 0-1.22.37-.43.36-.43 1.06V484zm10.44.14q-1.12 0-1.86-.68-.75-.68-.75-2.08v-4.2h1.61v3.89q0 .89.38 1.24.39.36.99.36.64 0 1.07-.41.43-.42.43-1.26v-3.82h1.61V484h-1.4v-.83q-.44.58-1.02.77t-1.06.2m5.35 2.66v-9.62h1.51v.86q.4-.47.96-.73.56-.27 1.21-.27.91 0 1.65.44t1.15 1.23.42 1.8v.14q0 1.05-.42 1.84-.42.78-1.14 1.22t-1.64.43q-.63 0-1.16-.24-.54-.24-.93-.66v3.56zm3.43-4.07q.79 0 1.33-.56.53-.56.53-1.52v-.14q0-.95-.53-1.49-.54-.55-1.33-.55-.82 0-1.37.57t-.55 1.56.55 1.55q.55.58 1.37.58m6.95 1.27q-.93 0-1.48-.5-.55-.51-.55-1.39v-6.96h-1.14v-1.37h2.75v8.36q0 .22.14.37t.37.15h.72V484zm4.98.14q-.99 0-1.79-.45t-1.26-1.24-.46-1.81v-.13q0-1.02.46-1.8.46-.79 1.26-1.23t1.79-.44 1.79.44 1.25 1.23.46 1.79v.14q0 1.02-.46 1.81t-1.25 1.24-1.79.45m0-1.43q.84 0 1.37-.58.52-.58.52-1.49v-.14q0-.9-.52-1.46-.53-.57-1.37-.57-.83 0-1.36.57-.53.58-.53 1.47v.13q0 .91.53 1.49t1.36.58m7 1.43q-1.16 0-1.85-.57-.68-.56-.68-1.46 0-.91.75-1.5.74-.6 1.99-.6.94 0 1.55.34v-.66q0-.67-.37-.95-.38-.28-.97-.28-.52 0-1.07.19-.55.2-.95.56l-.72-1.09q.44-.5 1.22-.79t1.62-.29q1.26 0 2.05.65t.79 1.91v2.2l.01 1.11q0 .54.03 1.09h-1.43l-.01-.7q-.57.84-1.96.84m.45-1.19q.6 0 .96-.25.37-.25.37-.66 0-.39-.37-.64-.36-.26-.98-.26-.6 0-.97.26-.37.25-.37.64 0 .41.37.66t.99.25m7.52 1.19q-.93 0-1.66-.43-.72-.44-1.14-1.22-.42-.79-.42-1.84v-.14q0-1.02.42-1.8.43-.79 1.16-1.23t1.65-.44q.63 0 1.16.24t.91.66v-4.16h1.61V484h-1.45v-.92q-.41.5-.98.78t-1.26.28m.25-1.41q.82 0 1.38-.58.55-.57.55-1.55 0-1-.55-1.56-.56-.57-1.38-.57-.77 0-1.32.55-.54.54-.54 1.49v.14q0 .96.54 1.52.55.56 1.32.56m8.34 1.41q-1.02 0-1.8-.44-.77-.44-1.21-1.23t-.43-1.84v-.14q0-.97.4-1.75.4-.79 1.13-1.24.74-.46 1.72-.46 1.02 0 1.75.5.72.5 1.06 1.41t.18 2.14h-4.65q.09.71.59 1.18.49.47 1.35.47.5 0 .86-.14.37-.14.66-.42l.91.95q-.4.51-1.05.76-.66.25-1.47.25m-.18-5.8q-.71 0-1.12.45-.41.44-.52 1.15h3.08q-.03-.76-.42-1.18-.4-.42-1.02-.42m7.24 5.8q-.93 0-1.65-.43-.73-.44-1.15-1.22-.42-.79-.42-1.84v-.14q0-1.02.43-1.8.42-.79 1.15-1.23t1.65-.44q.63 0 1.16.24t.91.66v-4.16h1.61V484h-1.45v-.92q-.41.5-.98.78t-1.26.28m.25-1.41q.83 0 1.38-.58.55-.57.55-1.55 0-1-.55-1.56t-1.38-.57q-.77 0-1.32.55-.54.54-.54 1.49v.14q0 .96.54 1.52.55.56 1.32.56m5.17 1.27v-1.89h1.84V484zm-233.83-45.8q-1.06 0-1.98-.37-.91-.36-1.61-1.03-.7-.68-1.1-1.59-.39-.92-.39-2.03v-.16q0-1.11.39-2.03.4-.91 1.1-1.59.7-.67 1.61-1.03.92-.37 1.98-.37 1 0 1.83.32.83.31 1.49.92l-1.27 1.48q-.84-.78-2.05-.78-.88 0-1.57.39t-1.09 1.08-.39 1.61v.16q0 .91.39 1.61.4.69 1.09 1.08t1.57.39q1.25 0 2.1-.85l1.28 1.48q-.67.63-1.53.97-.85.34-1.85.34m4.5-.2v-10.22h1.79v4.13q.42-.55.98-.73t.99-.18q1.17 0 1.86.76.69.77.69 2.14v4.1h-1.86v-3.81q0-.78-.34-1.14-.33-.36-.88-.36-.59 0-.98.4-.39.39-.39 1.16V438zm11.17.14q-1.02 0-1.83-.45t-1.29-1.24-.48-1.82v-.14q0-1.03.48-1.81.47-.78 1.29-1.23.81-.45 1.83-.45 1.01 0 1.82.45t1.28 1.23.47 1.81v.14q0 1.03-.47 1.82t-1.28 1.24-1.82.45m0-1.62q.76 0 1.23-.54.48-.53.48-1.35v-.14q0-.82-.48-1.34-.47-.53-1.23-.53-.77 0-1.25.53-.49.52-.49 1.34v.14q0 .82.49 1.35.48.54 1.25.54m8.09 1.62q-1.02 0-1.83-.45t-1.29-1.24-.48-1.82v-.14q0-1.03.48-1.81t1.29-1.23 1.83-.45q1.01 0 1.82.45t1.28 1.23.47 1.81v.14q0 1.03-.47 1.82t-1.28 1.24-1.82.45m0-1.62q.76 0 1.23-.54.48-.53.48-1.35v-.14q0-.82-.48-1.34-.47-.53-1.23-.53-.77 0-1.25.53-.48.52-.48 1.34v.14q0 .82.48 1.35t1.25.54m6.99 1.59q-.86 0-1.54-.24t-1.15-.58l.78-1.25q.44.28.92.46t.99.18q.43 0 .7-.17t.26-.46-.24-.42q-.25-.15-.62-.25l-.82-.21q-.43-.11-.81-.33-.38-.21-.62-.61-.25-.39-.25-1.03 0-.97.74-1.58.73-.62 1.99-.62.69 0 1.31.18t1.1.49l-.8 1.25q-.79-.51-1.63-.51-.44 0-.68.17t-.25.45q0 .28.25.43.24.14.63.25l.84.22q.44.12.83.35t.64.62.26 1.04q0 .63-.37 1.13-.36.5-1 .77t-1.46.27m7.19.03q-1.05 0-1.83-.44t-1.23-1.23-.44-1.86v-.14q0-.96.42-1.75.41-.8 1.15-1.26t1.75-.46q1.05 0 1.79.51.75.51 1.09 1.44t.19 2.19h-4.52q.07.63.51 1.03t1.21.4q.52 0 .85-.15.32-.16.6-.44l1.07 1.1q-.42.53-1.09.79-.68.27-1.52.27m-.18-5.68q-.63 0-.98.4-.35.39-.46 1.04h2.73q-.03-.7-.38-1.07-.36-.37-.91-.37m9.54 5.68q-1.15 0-1.84-.57t-.7-1.47q0-.93.74-1.52.75-.58 2.06-.58.86 0 1.44.26v-.56q0-.6-.35-.84-.35-.25-.88-.25-.5 0-1.05.19-.54.19-.94.54l-.82-1.23q.46-.51 1.25-.81t1.69-.3q1.29 0 2.11.67.83.66.83 1.92v3.32q0 .54.04 1.09h-1.65v-.71q-.55.85-1.93.85m.51-1.34q.55 0 .88-.22t.33-.57-.33-.56-.88-.21q-.53 0-.86.21t-.33.56q0 .34.33.56t.86.23m8.32 1.2v-5.29h-1.15v-1.57h1.15v-1.26q0-.99.61-1.55.61-.55 1.66-.55h1.17v1.54h-1.19q-.16 0-.28.12t-.12.27v1.43h4.51V438h-1.87v-5.29h-2.64V438zm4.41-8.16v-1.96h2.04v1.96zm5.87 8.16q-.98 0-1.56-.52-.59-.53-.59-1.45v-6.68h-1.07v-1.57h2.94v8.29q0 .15.11.27t.28.12h.75V438zm5.02.14q-1.05 0-1.83-.44-.79-.44-1.23-1.23t-.44-1.86v-.14q0-.96.42-1.75.41-.8 1.15-1.26t1.75-.46q1.05 0 1.79.51t1.09 1.44.19 2.19h-4.53q.07.63.52 1.03.44.4 1.21.4.51 0 .84-.15.33-.16.61-.44l1.07 1.1q-.42.53-1.1.79-.67.27-1.51.27m-.18-5.68q-.63 0-.98.4-.35.39-.46 1.04h2.73q-.03-.7-.39-1.07-.35-.37-.9-.37m7.62 5.54v-2.07h2.08V438zm3.3 0v-2.07h2.09V438zm-6.61 0v-2.07h2.09V438z"/></svg>