<svg xmlns="http://www.w3.org/2000/svg" width="512" height="512" viewBox="0 0 512 512"><rect width="512" height="512" fill="#0c322c" rx="102.4" ry="102.4"/><path fill="#fff" d="M58.33 346.42v-32.38h37.05V197.45H58.33v-32.38h115.8v32.38h-37.04v116.59h37.04v32.38zm210.11 3.89q-33.17 0-51.69-24.75-18.52-24.74-18.52-68.78v-1.81q0-44.3 18.52-69.05 18.52-24.74 51.69-24.74 46.11 0 62.17 42.23l-38.6 15.03q-2.33-10.62-8.29-16.32t-14.25-5.7q-14.76 0-21.76 13.47-6.99 13.47-6.99 45.08v1.81q0 31.35 6.99 44.82t21.76 13.47q8.29 0 14.38-5.83t8.94-16.19l38.6 13.21q-15.8 44.05-62.95 44.05m138.08 0q-33.16 0-51.68-24.75-18.53-24.74-18.53-68.78v-1.81q0-44.3 18.53-69.05 18.52-24.74 51.68-24.74t51.56 24.74 18.39 69.05v1.81q0 44.04-18.39 68.78t-51.56 24.75m0-35.24q14.25 0 20.86-13.47t6.6-44.82v-1.81q0-31.61-6.6-45.08-6.61-13.47-20.86-13.47t-20.98 13.47-6.74 45.08v1.81q0 31.35 6.74 44.82t20.98 13.47"/></svg>