<svg xmlns="http://www.w3.org/2000/svg" width="512" height="512" viewBox="0 0 512 512"><path fill="#fe7c3f" d="M0 0h512v512H0z"/><path fill="#fff" d="M171.11 374.47q-41.94 0-65.37-31.3-23.43-31.29-23.43-87v-2.29q0-56.03 23.43-87.33t65.37-31.29 65.21 31.29q23.27 31.3 23.27 87.33v2.29q0 55.71-23.27 87-23.27 31.3-65.21 31.3m0-44.57q18.02 0 26.38-17.04t8.36-56.69v-2.29q0-39.98-8.36-57.02t-26.38-17.04-26.54 17.04-8.52 57.02v2.29q0 39.65 8.52 56.69t26.54 17.04m177.93 44.57q-27.2 0-46.86-10.16t-34.08-26.54l32.45-32.12q13.43 14.09 25.55 20.32 12.13 6.22 24.91 6.22 14.42 0 23.43-7.04t9.01-18.19q0-9.5-5.9-15.4t-15.73-9.83-21.63-7.37-23.42-8.03q-11.64-4.59-21.47-11.8-9.83-7.2-15.73-18.51-5.89-11.3-5.89-28.34 0-22.29 10.32-38.51t29-25.06 43.58-8.85q24.25 0 43.74 8.68t31.95 23.1l-32.11 31.79q-10.16-10.49-20.64-15.89t-22.94-5.41q-14.09 0-22.45 6.39t-8.35 17.86q0 9.5 6.06 15.07t15.89 9.01 21.79 6.56 23.92 7.37 21.79 11.3 15.9 18.52 6.06 29.16q0 22.61-11.14 39.65t-30.97 26.54-46.04 9.51"/></svg>