<svg xmlns="http://www.w3.org/2000/svg" width="512" height="512" viewBox="0 0 512 512"><path fill="#0a9bd6" d="M0 0h512v512H0z"/><path fill="#fff" d="M65.04 350.13V160.54h38.19v86.4l60.94-86.4h41.99l-58.78 80.44 60.94 109.15h-45.77l-39.82-75.3-19.5 26.82v48.48zm201.79 2.71q-21.94 0-38.19-6.77-16.26-6.77-25.19-19.23t-8.94-29.53q0-17.6 11.1-29.92t30.88-16.12q-16.79-3.79-26.41-15.17-9.61-11.37-9.61-26.54 0-15.71 8.12-27.22 8.13-11.51 23.03-18.01t35.21-6.5q20.04 0 34.93 6.36t23.16 17.88q8.26 11.51 8.26 27.22 0 15.17-9.61 26.54-9.62 11.38-26.41 15.44 19.77 3.79 30.88 15.98t11.1 29.79q0 17.34-8.94 29.8t-25.19 19.23-38.18 6.77m.27-111.86q13.54 0 21.26-7.04t7.72-19.23q0-12.46-7.86-19.64-7.85-7.18-21.39-7.18t-21.27 7.18-7.72 19.64q0 12.18 7.86 19.23 7.85 7.04 21.4 7.04m-.27 81.79q15.16 0 24.1-7.85t8.94-21.13-8.8-20.99-23.97-7.72q-15.44 0-24.38 7.72t-8.94 20.99 8.94 21.13 24.11 7.85m136.5 31.15q-21.67 0-37.65-7.99t-27.35-21.26l23.56-23.56q10.57 11.37 21.13 16.65 10.56 5.29 21.94 5.29 13.54 0 21.94-6.78 8.39-6.77 8.39-17.6 0-8.67-5.01-13.95t-13.27-8.67q-8.26-3.38-18.15-6.23-9.88-2.84-19.77-6.63t-18.14-9.48q-8.27-5.69-13.28-15.03t-5.01-23.43q0-17.88 8.4-31.01t23.43-20.32 35.34-7.18q19.23 0 34.67 6.78 15.44 6.77 25.46 18.14l-23.56 23.3q-8.13-8.4-17.07-12.87t-19.5-4.47q-13.27 0-21.26 6.37t-7.99 16.92q0 8.67 5.15 13.68 5.14 5.01 13.54 7.99t18.42 5.55q10.02 2.58 19.91 6.1t18.28 9.21 13.54 15.16 5.15 24.11q0 18.42-8.94 32.23t-25.06 21.4-37.24 7.58"/></svg>