<svg xmlns="http://www.w3.org/2000/svg" width="512" height="512" viewBox="0 0 512 512"><defs><clipPath id="fcovclip-1" clipPathUnits="userSpaceOnUse"><rect width="512" height="512" fill="#fff" rx="102.4" ry="102.4"/></clipPath></defs><rect width="512" height="512" fill="#2453ff" rx="102.4" ry="102.4"/><g clip-path="url(#fcovclip-1)"><path fill="#fff" d="M66.47 352.13V157.88h58.28q24.14 0 42.18 11.37 18.04 11.38 27.89 32.75t9.85 51.34v2.77q0 30.25-9.85 51.62t-27.89 32.88-42.18 11.52zm56.89-160.12H105.6V318h17.76q19.98 0 30.53-15.54 10.54-15.54 10.54-46.35v-2.77q0-30.53-10.54-45.93-10.55-15.4-30.53-15.4m118.5 160.12q-14.43 0-23.73-9.3-9.3-9.29-9.3-23.72V190.9q0-14.43 9.3-23.73 9.3-9.29 23.73-9.29h92.4v33.3h-78.81q-3.33 0-5.69 2.22-2.35 2.22-2.35 5.55v39.68h81.03v31.64h-81.03v40.79q0 3.33 2.35 5.55t5.69 2.22h78.81v33.3zm145.41 0-56.61-194.25h40.23l37.75 142.36 37.46-142.36h40.51l-57.16 194.25z"/></g></svg>