<svg xmlns="http://www.w3.org/2000/svg" width="512" height="512" viewBox="0 0 512 512"><defs><clipPath id="fcovclip-1" clipPathUnits="userSpaceOnUse"><rect width="512" height="512" fill="#fff" rx="102.4" ry="102.4"/></clipPath></defs><rect width="512" height="512" fill="#0c322c" rx="102.4" ry="102.4"/><g clip-path="url(#fcovclip-1)"><path fill="#fff" d="M92.92 326.15q-16.19 0-27.89-6.05-11.71-6.05-20.29-15.8l19.31-19.12q8 8.39 15.22 12.1 7.21 3.7 14.82 3.7 8.58 0 13.95-4.19t5.36-10.83q0-5.66-3.51-9.17t-9.36-5.85-12.88-4.39-13.94-4.78q-6.93-2.73-12.78-7.02t-9.36-11.02-3.52-16.88q0-13.26 6.15-22.92 6.14-9.65 17.26-14.92t25.95-5.27q14.43 0 26.04 5.17t19.02 13.76l-19.12 18.92q-6.05-6.24-12.29-9.46t-13.65-3.22q-8.39 0-13.37 3.8-4.97 3.81-4.97 10.63 0 5.66 3.61 8.98 3.61 3.31 9.46 5.36t12.97 3.9 14.24 4.39 12.97 6.73 9.47 11.02q3.6 6.83 3.6 17.36 0 13.46-6.63 23.61t-18.43 15.8q-11.8 5.66-27.41 5.66m112.36 0q-24.97 0-37.06-12.39t-12.1-38.92v-88.17h31.41v87.98q0 12.87 4.29 18.92t13.46 6.05 13.46-6.05 4.29-18.92v-87.98h31.41v88.17q0 26.53-12.19 38.92t-36.97 12.39m106.12 0q-16.19 0-27.89-6.05-11.71-6.05-20.29-15.8l19.31-19.12q8 8.39 15.22 12.1 7.21 3.7 14.82 3.7 8.58 0 13.95-4.19t5.36-10.83q0-5.66-3.51-9.17t-9.36-5.85-12.88-4.39-13.94-4.78q-6.93-2.73-12.78-7.02t-9.36-11.02-3.52-16.88q0-13.26 6.15-22.92 6.14-9.65 17.26-14.92t25.95-5.27q14.43 0 26.04 5.17t19.02 13.76l-19.12 18.92q-6.04-6.24-12.29-9.46t-13.65-3.22q-8.39 0-13.36 3.8-4.98 3.81-4.98 10.63 0 5.66 3.61 8.98 3.61 3.31 9.46 5.36t12.97 3.9 14.24 4.39 12.98 6.73 9.46 11.02 3.61 17.36q0 13.46-6.64 23.61t-18.43 15.8q-11.8 5.66-27.41 5.66m92.08-2.93q-10.34 0-17.07-6.73t-6.73-17.07v-88.95q0-10.34 6.73-17.07t17.07-6.73h66.12V213h-55.2q-1.56 0-2.73 1.17-1.17 1.18-1.17 2.74v25.16h55.01v24.97H410.5v25.94q0 1.56 1.17 2.73 1.17 1.18 2.73 1.18h55.2v26.33z"/></g></svg>