<svg xmlns="http://www.w3.org/2000/svg" width="512" height="512" viewBox="0 0 512 512"><defs><clipPath id="fcovclip-1" clipPathUnits="userSpaceOnUse"><rect width="512" height="512" fill="#fff" rx="256" ry="256"/></clipPath></defs><rect width="512" height="512" fill="#30ba78" rx="256" ry="256"/><g clip-path="url(#fcovclip-1)"><path fill="#0c322c" d="M177.01 374.47q-44.24 0-68.98-31.3-24.74-31.29-24.74-87v-2.29q0-56.03 24.09-87.33 24.08-31.29 68.65-31.29 29.16 0 47.51 13.43t28.51 39.98l-48.83 19.01q-3.27-13.77-10.81-21.47t-18.68-7.7q-19.99 0-29 17.37t-9.01 58v2.29q0 40.64 10.16 58.17t32.11 17.53q13.11 0 23.27-13.93t9.83-38.83H175.7v-39.32h82.25q5.9 40.96-2.95 71.27t-29.17 46.86q-20.31 16.55-48.82 16.55m101.91-4.92V140.17h52.43v95.69l64.88-95.69h57.34l-68.81 96.67 72.09 132.71h-62.59l-43.25-85.52-19.66 27.52v58z"/></g></svg>