<svg xmlns="http://www.w3.org/2000/svg" viewBox="0 0 400 400"><circle cx="80" cy="80" r="6.5" fill="#30BA78"/><circle cx="140" cy="80" r="8.5" fill="#30BA78"/><circle cx="200" cy="80" r="8.9" fill="#30BA78"/><circle cx="260" cy="80" r="7.6" fill="#30BA78"/><circle cx="320" cy="80" r="5.4" fill="#30BA78"/><circle cx="80" cy="140" r="8.5" fill="#30BA78"/><circle cx="140" cy="140" r="8.9" fill="#30BA78"/><circle cx="200" cy="140" r="7.6" fill="#30BA78"/><circle cx="260" cy="140" r="5.4" fill="#30BA78"/><circle cx="320" cy="140" r="4.1" fill="#30BA78"/><circle cx="80" cy="200" r="8.9" fill="#30BA78"/><circle cx="140" cy="200" r="7.6" fill="#30BA78"/><circle cx="200" cy="200" r="5.4" fill="#30BA78"/><circle cx="260" cy="200" r="4.1" fill="#30BA78"/><circle cx="320" cy="200" r="4.6" fill="#30BA78"/><circle cx="80" cy="260" r="7.6" fill="#30BA78"/><circle cx="140" cy="260" r="5.4" fill="#30BA78"/><circle cx="200" cy="260" r="4.1" fill="#30BA78"/><circle cx="260" cy="260" r="4.6" fill="#30BA78"/><circle cx="320" cy="260" r="6.5" fill="#30BA78"/><circle cx="80" cy="320" r="5.4" fill="#30BA78"/><circle cx="140" cy="320" r="4.1" fill="#30BA78"/><circle cx="200" cy="320" r="4.6" fill="#30BA78"/><circle cx="260" cy="320" r="6.5" fill="#30BA78"/><circle cx="320" cy="320" r="8.5" fill="#30BA78"/></svg>