<svg xmlns="http://www.w3.org/2000/svg" viewBox="0 0 100 100" xmlns:c2pa="http://c2pa.org/manifest"><metadata><c2pa:manifest>AAAIFGp1bWIAAAAeanVtZGMycGEAEQAQgAAAqgA4m3EDYzJwYQAAAAfuanVtYgAAAEdqdW1kYzJtYQARABCAAACqADibcQN1cm46dXVpZDplMmM1OGU1YS01ZDMwLTQ0YTYtYTNiZi0wOGJhYTk1YWIzMTYAAAACmmp1bWIAAAApanVtZGMyYXMAEQAQgAAAqgA4m3EDYzJwYS5hc3NlcnRpb25zAAAAAJFqdW1iAAAAJmp1bWRjYm9yABEAEIAAAKoAOJtxA2MycGEuYWN0aW9ucwAAAABjY2JvcqFnYWN0aW9uc4GjZmFjdGlvbm5jMnBhLnB1Ymxpc2hlZG1zb2Z0d2FyZUFnZW50cUxvbGx5IGxvbGx5LnRvb2xzZHdoZW50MjAyNi0wNy0wNVQxOToxMzo0MloAAACranVtYgAAAChqdW1kY2JvcgARABCAAACqADibcQNjMnBhLmhhc2guZGF0YQAAAAB7Y2JvcqVqZXhjbHVzaW9uc4GiZXN0YXJ0GH1mbGVuZ3RoGQrIZG5hbWVuanVtYmYgbWFuaWZlc3RjYWxnZnNoYTI1NmRoYXNoWCBVS63X+vmw3oH6tr8QPhbfQrxz6EafdE0cmiZRirVaI2NwYWRIAAAAAAAAAAAAAACDanVtYgAAACxqdW1kY2JvcgARABCAAACqADibcQN0b29scy5sb2xseS5leHBvcnQAAAAAT2Nib3KjZHJvbGVwb2ZmaWNpYWwgY2F0YWxvZ2dzdXJmYWNlc2xvbGx5LnRvb2xzL2NhdGFsb2dmZW5naW5lbExvbGx5IDEuMTguMAAAAKpqdW1iAAAANmp1bWRqc29uABEAEIAAAKoAOJtxA3N0ZHMuc2NoZW1hLW9yZy5DcmVhdGl2ZVdvcmsAAAAAbGpzb257IkBjb250ZXh0IjoiaHR0cDovL3NjaGVtYS5vcmcvIiwiQHR5cGUiOiJDcmVhdGl2ZVdvcmsiLCJhdXRob3IiOlt7IkB0eXBlIjoiUGVyc29uIiwibmFtZSI6IlNVU0UifV19AAACkWp1bWIAAAAkanVtZGMyY2wAEQAQgAAAqgA4m3EDYzJwYS5jbGFpbQAAAAJlY2JvcqhoZGM6dGl0bGVlQ2hlc3NpZGM6Zm9ybWF0bWltYWdlL3N2Zyt4bWxqaW5zdGFuY2VJRHgtdXJuOnV1aWQ6ODViYmE3Y2YtYTk5Ni00OTQxLWFkY2ItYTBkZjA0ODJmYWY4b2NsYWltX2dlbmVyYXRvcnFMb2xseSBsb2xseS50b29sc3RjbGFpbV9nZW5lcmF0b3JfaW5mb4GiZG5hbWVlTG9sbHlndmVyc2lvbmYxLjE4LjBpc2lnbmF0dXJleBlzZWxmI2p1bWJmPWMycGEuc2lnbmF0dXJlamFzc2VydGlvbnOEomN1cmx4J3NlbGYjanVtYmY9YzJwYS5hc3NlcnRpb25zL2MycGEuYWN0aW9uc2RoYXNoWCDevxcHu7zFK03N18C3hNiCn2dWwJ1GbDHjnm7KCPiIVKJjdXJseClzZWxmI2p1bWJmPWMycGEuYXNzZXJ0aW9ucy9jMnBhLmhhc2guZGF0YWRoYXNoWCAXt4ZYPyZ7B+f21fMDVlaQ+hVV2FDQMQlLt/AfVisOZaJjdXJseC1zZWxmI2p1bWJmPWMycGEuYXNzZXJ0aW9ucy90b29scy5sb2xseS5leHBvcnRkaGFzaFgglxrk/d1wbHIGSxo4sTJCFCFjXk58FzBFDu2dKRICwyCiY3VybHg3c2VsZiNqdW1iZj1jMnBhLmFzc2VydGlvbnMvc3Rkcy5zY2hlbWEtb3JnLkNyZWF0aXZlV29ya2RoYXNoWCAdrkKWRdHD+TAO4EDm80tv9v7lPz1dZlo1u2ujGZ13J2NhbGdmc2hhMjU2AAACdGp1bWIAAAAoanVtZGMyY3MAEQAQgAAAqgA4m3EDYzJwYS5zaWduYXR1cmUAAAACRGNib3LShFkB86IBJhghgVkB6jCCAeYwggGMoAMCAQICCVsZZdF3dfcXIjAKBggqhkjOPQQDAjAjMQ4wDAYDVQQKDAVMb2xseTERMA8GA1UEAwwITG9sbHkgQ0EwHhcNMjYwNzA1MTkxMzQyWhcNMjgwOTEyMTkxNDQyWjA0MQ4wDAYDVQQKDAVMb2xseTEiMCAGA1UEAwwZTG9sbHkgQ29udGVudCBDcmVkZW50aWFsczBZMBMGByqGSM49AgEGCCqGSM49AwEHA0IABEld43O/rQkT/gYqVOqq6VF5YdBuKW6LUsdxkjCl9JTA3suFkYOgy4uSukKXv8xcNuvhlAOHM73h5tD4XcECfrejgZcwgZQwCQYDVR0TBAIwADAOBgNVHQ8BAf8EBAMCB4AwEwYDVR0lBAwwCgYIKwYBBQUHAwQwHQYDVR0OBBYEFMoGknficONqhRRSabNcNzMozGv7MB8GA1UdIwQYMBaAFJ3XSzsFZZJ6JOom0j/qU0bTBocuMCIGA1UdEQQbMBmBF2NyZWRlbnRpYWxzQGxvbGx5LnRvb2xzMAoGCCqGSM49BAMCA0gAMEUCIE4tgLR7PR0OtrkNqC+33cLVxBd5wCnvFmv9YSmmxPFwAiEA1AvgzUwZA9LYeU+r8PA9Alt+tYmVjxQijbVaGF955Myg9lhAVnw0Yfah90Y3tU9ooB8vgMVmz/r444/DtwqK5cCwM+ejXCwN6KG9bcPqiY5MKZJ/YUmTI7N4eGMFjP0TyuciQw==</c2pa:manifest></metadata><defs><style>.c1{fill:#30ba78}.c2{fill:#0c322c}</style></defs><path xmlns="http://www.w3.org/2000/svg" d="M9.994 5v16.25l10 7.5V40h5v30h-15v10h-5v15h30.012v-5H9.994v-5h30.012v-5H14.994v-5h30v-5h-15V40h15v-5h-20v-5h25v-5H23.328l-8.334-6.25V10h5v7.5h15V10h5v7.5h10v-5h-5V5h-15v7.5h-5V5Z" class="c2"/><path xmlns="http://www.w3.org/2000/svg" d="m84.994 1.258-3.457 1.431C65.967 9.14 57.74 18.494 53.812 29.967c-3.927 11.473-3.809 24.825-3.794 40.035v.754l5.258 7.924-5.282 5.285V95h45V83.965L88.53 77.5l6.332-6.332.112-.842c.93-7.063-1.523-14.431-5.22-20.722-1.482-2.525-3.196-4.81-4.995-6.905l10.275 3.215-.222-19.45-9.817-9.987Zm-5 7.824v9.441l9.84 10.012.121 10.55-17.46-5.462v5.344l1.28.717c3.72 2.075 8.362 6.824 11.668 12.453 3.163 5.383 5.044 11.514 4.582 16.797L83.96 75H58.953l-.018.018-.1-.018-3.802-5.732c-.012-14.876.047-27.566 3.51-37.682 3.205-9.364 9.42-16.688 21.451-22.504m-5 15.918v5h5v-5ZM61.025 80H83.96l6.035 6.035V90h-35v-3.965z" class="c1"/></svg>