<svg xmlns="http://www.w3.org/2000/svg" viewBox="0 0 40 40" xmlns:c2pa="http://c2pa.org/manifest"><metadata><c2pa:manifest>AAAIF2p1bWIAAAAeanVtZGMycGEAEQAQgAAAqgA4m3EDYzJwYQAAAAfxanVtYgAAAEdqdW1kYzJtYQARABCAAACqADibcQN1cm46dXVpZDo3OTgxMzA0Yy03ZThmLTQ0MTgtOGIwNi03NWI4MmQxMTc0NmQAAAACmmp1bWIAAAApanVtZGMyYXMAEQAQgAAAqgA4m3EDYzJwYS5hc3NlcnRpb25zAAAAAJFqdW1iAAAAJmp1bWRjYm9yABEAEIAAAKoAOJtxA2MycGEuYWN0aW9ucwAAAABjY2JvcqFnYWN0aW9uc4GjZmFjdGlvbm5jMnBhLnB1Ymxpc2hlZG1zb2Z0d2FyZUFnZW50cUxvbGx5IGxvbGx5LnRvb2xzZHdoZW50MjAyNi0wNy0wNVQxOToxMzo0MloAAACranVtYgAAAChqdW1kY2JvcgARABCAAACqADibcQNjMnBhLmhhc2guZGF0YQAAAAB7Y2JvcqVqZXhjbHVzaW9uc4GiZXN0YXJ0GHtmbGVuZ3RoGQrMZG5hbWVuanVtYmYgbWFuaWZlc3RjYWxnZnNoYTI1NmRoYXNoWCBXLSIFfoISfOyrEAY9IWeQRFf1pamu4N32J73HDucvyWNwYWRIAAAAAAAAAAAAAACDanVtYgAAACxqdW1kY2JvcgARABCAAACqADibcQN0b29scy5sb2xseS5leHBvcnQAAAAAT2Nib3KjZHJvbGVwb2ZmaWNpYWwgY2F0YWxvZ2dzdXJmYWNlc2xvbGx5LnRvb2xzL2NhdGFsb2dmZW5naW5lbExvbGx5IDEuMTguMAAAAKpqdW1iAAAANmp1bWRqc29uABEAEIAAAKoAOJtxA3N0ZHMuc2NoZW1hLW9yZy5DcmVhdGl2ZVdvcmsAAAAAbGpzb257IkBjb250ZXh0IjoiaHR0cDovL3NjaGVtYS5vcmcvIiwiQHR5cGUiOiJDcmVhdGl2ZVdvcmsiLCJhdXRob3IiOlt7IkB0eXBlIjoiUGVyc29uIiwibmFtZSI6IlNVU0UifV19AAAClGp1bWIAAAAkanVtZGMyY2wAEQAQgAAAqgA4m3EDYzJwYS5jbGFpbQAAAAJoY2JvcqhoZGM6dGl0bGVoUGxhbmV0IDJpZGM6Zm9ybWF0bWltYWdlL3N2Zyt4bWxqaW5zdGFuY2VJRHgtdXJuOnV1aWQ6YWFiZDczOWMtNDJlOC00YjgyLWIxZDctZjkwYjBkZTAwNTQ1b2NsYWltX2dlbmVyYXRvcnFMb2xseSBsb2xseS50b29sc3RjbGFpbV9nZW5lcmF0b3JfaW5mb4GiZG5hbWVlTG9sbHlndmVyc2lvbmYxLjE4LjBpc2lnbmF0dXJleBlzZWxmI2p1bWJmPWMycGEuc2lnbmF0dXJlamFzc2VydGlvbnOEomN1cmx4J3NlbGYjanVtYmY9YzJwYS5hc3NlcnRpb25zL2MycGEuYWN0aW9uc2RoYXNoWCDevxcHu7zFK03N18C3hNiCn2dWwJ1GbDHjnm7KCPiIVKJjdXJseClzZWxmI2p1bWJmPWMycGEuYXNzZXJ0aW9ucy9jMnBhLmhhc2guZGF0YWRoYXNoWCDUiNi5q+p+xg6lhVX21dXeSnd+S1f5Ii4lc5XJjzIcRaJjdXJseC1zZWxmI2p1bWJmPWMycGEuYXNzZXJ0aW9ucy90b29scy5sb2xseS5leHBvcnRkaGFzaFgglxrk/d1wbHIGSxo4sTJCFCFjXk58FzBFDu2dKRICwyCiY3VybHg3c2VsZiNqdW1iZj1jMnBhLmFzc2VydGlvbnMvc3Rkcy5zY2hlbWEtb3JnLkNyZWF0aXZlV29ya2RoYXNoWCAdrkKWRdHD+TAO4EDm80tv9v7lPz1dZlo1u2ujGZ13J2NhbGdmc2hhMjU2AAACdGp1bWIAAAAoanVtZGMyY3MAEQAQgAAAqgA4m3EDYzJwYS5zaWduYXR1cmUAAAACRGNib3LShFkB86IBJhghgVkB6jCCAeYwggGMoAMCAQICCVsZZdF3dfcXIjAKBggqhkjOPQQDAjAjMQ4wDAYDVQQKDAVMb2xseTERMA8GA1UEAwwITG9sbHkgQ0EwHhcNMjYwNzA1MTkxMzQyWhcNMjgwOTEyMTkxNDQyWjA0MQ4wDAYDVQQKDAVMb2xseTEiMCAGA1UEAwwZTG9sbHkgQ29udGVudCBDcmVkZW50aWFsczBZMBMGByqGSM49AgEGCCqGSM49AwEHA0IABEld43O/rQkT/gYqVOqq6VF5YdBuKW6LUsdxkjCl9JTA3suFkYOgy4uSukKXv8xcNuvhlAOHM73h5tD4XcECfrejgZcwgZQwCQYDVR0TBAIwADAOBgNVHQ8BAf8EBAMCB4AwEwYDVR0lBAwwCgYIKwYBBQUHAwQwHQYDVR0OBBYEFMoGknficONqhRRSabNcNzMozGv7MB8GA1UdIwQYMBaAFJ3XSzsFZZJ6JOom0j/qU0bTBocuMCIGA1UdEQQbMBmBF2NyZWRlbnRpYWxzQGxvbGx5LnRvb2xzMAoGCCqGSM49BAMCA0gAMEUCIE4tgLR7PR0OtrkNqC+33cLVxBd5wCnvFmv9YSmmxPFwAiEA1AvgzUwZA9LYeU+r8PA9Alt+tYmVjxQijbVaGF955Myg9lhAJ6cQeSoaghDpZiDCrRZTJppeBn6EfOByYT4XhPL4Dc0H6N6A/pIkzUxQVOZSm7WMpWCeQJ3sqmmWLnTjmTY37Q==</c2pa:manifest></metadata><defs><style>.c1{fill:#30ba78}.c2{fill:#0c322c}</style></defs><path xmlns="http://www.w3.org/2000/svg" d="M27.35 10.519c-5.272-4.038-12.854-3.042-16.899 2.22s-3.046 12.833 2.225 16.87 12.854 3.043 16.899-2.22 3.046-12.832-2.225-16.87m-1.22 1.586a10.007 10.007 0 0 1 1.857 14.068 10.046 10.046 0 0 1-14.092 1.85 10.007 10.007 0 0 1-1.856-14.067 10.046 10.046 0 0 1 14.092-1.851" class="c1"/><path xmlns="http://www.w3.org/2000/svg" d="M5.885 6.67c-.667.017-1.383.214-1.836.805-.368.478-.442 1.08-.373 1.61.069.531.263 1.045.539 1.595.551 1.098 1.455 2.339 2.658 3.724 2.405 2.772 6.008 6.092 10.29 9.371 4.28 3.28 8.424 5.895 11.728 7.496 1.652.801 3.087 1.353 4.293 1.6.602.124 1.15.178 1.68.108s1.09-.3 1.458-.778c.473-.615.462-1.39.283-2.064-.178-.675-.525-1.362-1.007-2.12-.881-1.383-2.248-2.998-3.97-4.754a12 12 0 0 1-.779 2.07c1.347 1.43 2.404 2.727 3.061 3.759.415.652.669 1.205.762 1.556.047.18.052.276.05.322.032-.01.035-.014.014.012-.021.028-.015.032-.014-.012-.02.007-.045.016-.122.026-.194.026-.551.011-1.014-.084-.926-.19-2.26-.682-3.822-1.44-3.124-1.514-7.192-4.072-11.385-7.285s-7.722-6.473-9.996-9.093c-1.137-1.31-1.958-2.468-2.381-3.31-.212-.422-.319-.764-.344-.956a.5.5 0 0 1-.006-.124c-.044.012-.039.017-.017-.01.02-.027.018-.024.017.01.04-.012.123-.03.284-.034.33-.008.885.074 1.57.277 1.186.352 2.785 1.061 4.6 2.035a12 12 0 0 1 1.813-1.295c-2.251-1.266-4.232-2.18-5.845-2.658-.808-.24-1.523-.376-2.19-.36" class="c2"/></svg>