<svg xmlns="http://www.w3.org/2000/svg" viewBox="0 0 40 40" xmlns:c2pa="http://c2pa.org/manifest"><metadata><c2pa:manifest>AAAIGWp1bWIAAAAeanVtZGMycGEAEQAQgAAAqgA4m3EDYzJwYQAAAAfzanVtYgAAAEdqdW1kYzJtYQARABCAAACqADibcQN1cm46dXVpZDo5MGNlMGJiZC03ZTY1LTQzMWEtYTEyMi04NTIyZGU4NGQzOTUAAAACmmp1bWIAAAApanVtZGMyYXMAEQAQgAAAqgA4m3EDYzJwYS5hc3NlcnRpb25zAAAAAJFqdW1iAAAAJmp1bWRjYm9yABEAEIAAAKoAOJtxA2MycGEuYWN0aW9ucwAAAABjY2JvcqFnYWN0aW9uc4GjZmFjdGlvbm5jMnBhLnB1Ymxpc2hlZG1zb2Z0d2FyZUFnZW50cUxvbGx5IGxvbGx5LnRvb2xzZHdoZW50MjAyNi0wNy0wNVQxOToxMzo0MloAAACranVtYgAAAChqdW1kY2JvcgARABCAAACqADibcQNjMnBhLmhhc2guZGF0YQAAAAB7Y2JvcqVqZXhjbHVzaW9uc4GiZXN0YXJ0GHtmbGVuZ3RoGQrMZG5hbWVuanVtYmYgbWFuaWZlc3RjYWxnZnNoYTI1NmRoYXNoWCAMzcFjgZl66uGTzrxqLjbfUqUxEgSfDJ7JixiFbCfyH2NwYWRIAAAAAAAAAAAAAACDanVtYgAAACxqdW1kY2JvcgARABCAAACqADibcQN0b29scy5sb2xseS5leHBvcnQAAAAAT2Nib3KjZHJvbGVwb2ZmaWNpYWwgY2F0YWxvZ2dzdXJmYWNlc2xvbGx5LnRvb2xzL2NhdGFsb2dmZW5naW5lbExvbGx5IDEuMTguMAAAAKpqdW1iAAAANmp1bWRqc29uABEAEIAAAKoAOJtxA3N0ZHMuc2NoZW1hLW9yZy5DcmVhdGl2ZVdvcmsAAAAAbGpzb257IkBjb250ZXh0IjoiaHR0cDovL3NjaGVtYS5vcmcvIiwiQHR5cGUiOiJDcmVhdGl2ZVdvcmsiLCJhdXRob3IiOlt7IkB0eXBlIjoiUGVyc29uIiwibmFtZSI6IlNVU0UifV19AAAClmp1bWIAAAAkanVtZGMyY2wAEQAQgAAAqgA4m3EDYzJwYS5jbGFpbQAAAAJqY2JvcqhoZGM6dGl0bGVqSGVhbHRoY2FyZWlkYzpmb3JtYXRtaW1hZ2Uvc3ZnK3htbGppbnN0YW5jZUlEeC11cm46dXVpZDoyNGQwMWVjYS01MTg3LTQwNDktOWE1MS00ZTQ4MzNiNzRjOTdvY2xhaW1fZ2VuZXJhdG9ycUxvbGx5IGxvbGx5LnRvb2xzdGNsYWltX2dlbmVyYXRvcl9pbmZvgaJkbmFtZWVMb2xseWd2ZXJzaW9uZjEuMTguMGlzaWduYXR1cmV4GXNlbGYjanVtYmY9YzJwYS5zaWduYXR1cmVqYXNzZXJ0aW9uc4SiY3VybHgnc2VsZiNqdW1iZj1jMnBhLmFzc2VydGlvbnMvYzJwYS5hY3Rpb25zZGhhc2hYIN6/Fwe7vMUrTc3XwLeE2IKfZ1bAnUZsMeOebsoI+IhUomN1cmx4KXNlbGYjanVtYmY9YzJwYS5hc3NlcnRpb25zL2MycGEuaGFzaC5kYXRhZGhhc2hYINDdl54qQLDwFKsc0VbeqHYmbIm8MOUVFOF4R6dsUNHMomN1cmx4LXNlbGYjanVtYmY9YzJwYS5hc3NlcnRpb25zL3Rvb2xzLmxvbGx5LmV4cG9ydGRoYXNoWCCXGuT93XBscgZLGjixMkIUIWNeTnwXMEUO7Z0pEgLDIKJjdXJseDdzZWxmI2p1bWJmPWMycGEuYXNzZXJ0aW9ucy9zdGRzLnNjaGVtYS1vcmcuQ3JlYXRpdmVXb3JrZGhhc2hYIB2uQpZF0cP5MA7gQObzS2/2/uU/PV1mWjW7a6MZnXcnY2FsZ2ZzaGEyNTYAAAJ0anVtYgAAAChqdW1kYzJjcwARABCAAACqADibcQNjMnBhLnNpZ25hdHVyZQAAAAJEY2JvctKEWQHzogEmGCGBWQHqMIIB5jCCAYygAwIBAgIJWxll0Xd19xciMAoGCCqGSM49BAMCMCMxDjAMBgNVBAoMBUxvbGx5MREwDwYDVQQDDAhMb2xseSBDQTAeFw0yNjA3MDUxOTEzNDJaFw0yODA5MTIxOTE0NDJaMDQxDjAMBgNVBAoMBUxvbGx5MSIwIAYDVQQDDBlMb2xseSBDb250ZW50IENyZWRlbnRpYWxzMFkwEwYHKoZIzj0CAQYIKoZIzj0DAQcDQgAESV3jc7+tCRP+BipU6qrpUXlh0G4pbotSx3GSMKX0lMDey4WRg6DLi5K6Qpe/zFw26+GUA4czveHm0PhdwQJ+t6OBlzCBlDAJBgNVHRMEAjAAMA4GA1UdDwEB/wQEAwIHgDATBgNVHSUEDDAKBggrBgEFBQcDBDAdBgNVHQ4EFgQUygaSd+Jw42qFFFJps1w3MyjMa/swHwYDVR0jBBgwFoAUnddLOwVlknok6ibSP+pTRtMGhy4wIgYDVR0RBBswGYEXY3JlZGVudGlhbHNAbG9sbHkudG9vbHMwCgYIKoZIzj0EAwIDSAAwRQIgTi2AtHs9HQ62uQ2oL7fdwtXEF3nAKe8Wa/1hKabE8XACIQDUC+DNTBkD0th5T6vw8D0CW361iZWPFCKNtVoYX3nkzKD2WEC3WAqZweVK1gJozpi9DAHnYD4meq3b3tR3A0OKa+6ldV1KnAtVd+mTswc8KsxBVBLcuLzR1jRoOzPxSmV8FNdM</c2pa:manifest></metadata><defs><style>.c1{fill:#30ba78}.c2{fill:#0c322c}</style></defs><path xmlns="http://www.w3.org/2000/svg" d="M11 7h2v4h-2zm3.99 0h2v4h-2z" class="c1"/><path xmlns="http://www.w3.org/2000/svg" d="M32 36H17c-2.21 0-4-1.79-4-4v-3h2v3c0 1.1.9 2 2 2h15c1.1 0 2-.9 2-2s-.9-2-2-2h-2c-2.21 0-4-1.79-4-4s1.79-4 4-4h2c1.1 0 2-.9 2-2s-.9-2-2-2h-2v-5h2v3c2.21 0 4 1.79 4 4s-1.79 4-4 4h-2c-1.1 0-2 .9-2 2s.9 2 2 2h2c2.21 0 4 1.79 4 4s-1.79 4-4 4" class="c2"/><path xmlns="http://www.w3.org/2000/svg" d="M31 14c-2.21 0-4-1.79-4-4s1.79-4 4-4 4 1.79 4 4-1.79 4-4 4m0-6c-1.1 0-2 .9-2 2s.9 2 2 2 2-.9 2-2-.9-2-2-2M8 24h12v2H8z" class="c1"/><path xmlns="http://www.w3.org/2000/svg" d="M11 22H7.28L5 15.16V12c0-2.21 1.79-4 4-4v2c-1.1 0-2 .9-2 2v2.84L8.72 20H11zm9.72 0H17v-2h2.28L21 14.84V12c0-1.1-.9-2-2-2V8c2.21 0 4 1.79 4 4v3.16zM11 28h6v2h-6z" class="c2"/></svg>