<svg xmlns="http://www.w3.org/2000/svg" viewBox="0 0 40 40" xmlns:c2pa="http://c2pa.org/manifest"><metadata><c2pa:manifest>AAAIFWp1bWIAAAAeanVtZGMycGEAEQAQgAAAqgA4m3EDYzJwYQAAAAfvanVtYgAAAEdqdW1kYzJtYQARABCAAACqADibcQN1cm46dXVpZDo4ZmM4NTcyOS1jMzdiLTQ5NGItYThhMC1jMGVmZTU5YjZiZWIAAAACmmp1bWIAAAApanVtZGMyYXMAEQAQgAAAqgA4m3EDYzJwYS5hc3NlcnRpb25zAAAAAJFqdW1iAAAAJmp1bWRjYm9yABEAEIAAAKoAOJtxA2MycGEuYWN0aW9ucwAAAABjY2JvcqFnYWN0aW9uc4GjZmFjdGlvbm5jMnBhLnB1Ymxpc2hlZG1zb2Z0d2FyZUFnZW50cUxvbGx5IGxvbGx5LnRvb2xzZHdoZW50MjAyNi0wNy0wNVQxOToxMzo0MloAAACranVtYgAAAChqdW1kY2JvcgARABCAAACqADibcQNjMnBhLmhhc2guZGF0YQAAAAB7Y2JvcqVqZXhjbHVzaW9uc4GiZXN0YXJ0GHtmbGVuZ3RoGQrIZG5hbWVuanVtYmYgbWFuaWZlc3RjYWxnZnNoYTI1NmRoYXNoWCDXb7SDd62szdwRv/9w0zQ5g2tPeHKlWS7wSIe7WlHoAGNwYWRIAAAAAAAAAAAAAACDanVtYgAAACxqdW1kY2JvcgARABCAAACqADibcQN0b29scy5sb2xseS5leHBvcnQAAAAAT2Nib3KjZHJvbGVwb2ZmaWNpYWwgY2F0YWxvZ2dzdXJmYWNlc2xvbGx5LnRvb2xzL2NhdGFsb2dmZW5naW5lbExvbGx5IDEuMTguMAAAAKpqdW1iAAAANmp1bWRqc29uABEAEIAAAKoAOJtxA3N0ZHMuc2NoZW1hLW9yZy5DcmVhdGl2ZVdvcmsAAAAAbGpzb257IkBjb250ZXh0IjoiaHR0cDovL3NjaGVtYS5vcmcvIiwiQHR5cGUiOiJDcmVhdGl2ZVdvcmsiLCJhdXRob3IiOlt7IkB0eXBlIjoiUGVyc29uIiwibmFtZSI6IlNVU0UifV19AAACkmp1bWIAAAAkanVtZGMyY2wAEQAQgAAAqgA4m3EDYzJwYS5jbGFpbQAAAAJmY2JvcqhoZGM6dGl0bGVmQ29uZmlnaWRjOmZvcm1hdG1pbWFnZS9zdmcreG1samluc3RhbmNlSUR4LXVybjp1dWlkOmMyZTdmZjliLTUzYjgtNDAyMy04NWFiLTU0NTI5N2U3ZGYzY29jbGFpbV9nZW5lcmF0b3JxTG9sbHkgbG9sbHkudG9vbHN0Y2xhaW1fZ2VuZXJhdG9yX2luZm+BomRuYW1lZUxvbGx5Z3ZlcnNpb25mMS4xOC4waXNpZ25hdHVyZXgZc2VsZiNqdW1iZj1jMnBhLnNpZ25hdHVyZWphc3NlcnRpb25zhKJjdXJseCdzZWxmI2p1bWJmPWMycGEuYXNzZXJ0aW9ucy9jMnBhLmFjdGlvbnNkaGFzaFgg3r8XB7u8xStNzdfAt4TYgp9nVsCdRmwx455uygj4iFSiY3VybHgpc2VsZiNqdW1iZj1jMnBhLmFzc2VydGlvbnMvYzJwYS5oYXNoLmRhdGFkaGFzaFgg0QK9+GgW6+7UQVXxRYZBCj6NMe2XlOWK/5S240APUJKiY3VybHgtc2VsZiNqdW1iZj1jMnBhLmFzc2VydGlvbnMvdG9vbHMubG9sbHkuZXhwb3J0ZGhhc2hYIJca5P3dcGxyBksaOLEyQhQhY15OfBcwRQ7tnSkSAsMgomN1cmx4N3NlbGYjanVtYmY9YzJwYS5hc3NlcnRpb25zL3N0ZHMuc2NoZW1hLW9yZy5DcmVhdGl2ZVdvcmtkaGFzaFggHa5ClkXRw/kwDuBA5vNLb/b+5T89XWZaNbtroxmddydjYWxnZnNoYTI1NgAAAnRqdW1iAAAAKGp1bWRjMmNzABEAEIAAAKoAOJtxA2MycGEuc2lnbmF0dXJlAAAAAkRjYm9y0oRZAfOiASYYIYFZAeowggHmMIIBjKADAgECAglbGWXRd3X3FyIwCgYIKoZIzj0EAwIwIzEOMAwGA1UECgwFTG9sbHkxETAPBgNVBAMMCExvbGx5IENBMB4XDTI2MDcwNTE5MTM0MloXDTI4MDkxMjE5MTQ0MlowNDEOMAwGA1UECgwFTG9sbHkxIjAgBgNVBAMMGUxvbGx5IENvbnRlbnQgQ3JlZGVudGlhbHMwWTATBgcqhkjOPQIBBggqhkjOPQMBBwNCAARJXeNzv60JE/4GKlTqqulReWHQbilui1LHcZIwpfSUwN7LhZGDoMuLkrpCl7/MXDbr4ZQDhzO94ebQ+F3BAn63o4GXMIGUMAkGA1UdEwQCMAAwDgYDVR0PAQH/BAQDAgeAMBMGA1UdJQQMMAoGCCsGAQUFBwMEMB0GA1UdDgQWBBTKBpJ34nDjaoUUUmmzXDczKMxr+zAfBgNVHSMEGDAWgBSd10s7BWWSeiTqJtI/6lNG0waHLjAiBgNVHREEGzAZgRdjcmVkZW50aWFsc0Bsb2xseS50b29sczAKBggqhkjOPQQDAgNIADBFAiBOLYC0ez0dDra5Dagvt93C1cQXecAp7xZr/WEppsTxcAIhANQL4M1MGQPS2HlPq/DwPQJbfrWJlY8UIo21WhhfeeTMoPZYQBwHmA2e/4x70tuh8TlWzpn6QzGJZpS02uyM8h/POD5Nb2sVSixI0rk2nNy5xwEpQqPmE0W7TFpjCNXK9ppA3TU=</c2pa:manifest></metadata><defs><style>.c1{fill:#30ba78}.c2{fill:#0c322c}</style></defs><path xmlns="http://www.w3.org/2000/svg" fill="#efefef" d="M35 34V6"/><path xmlns="http://www.w3.org/2000/svg" d="M34 6v18h2V6ZM13.775 6l-1.33 3.95-1.039.43-3.734-1.853-3.143 3.145 1.852 3.73-.434 1.048L2 17.78v4.44l3.947 1.33.434 1.047-1.852 3.73 3.143 3.146 3.734-1.853 1.04.43 1.33 3.95h4.449l1.33-3.95 1.039-.43 3.734 1.853 3.143-3.145-1.852-3.73.434-1.048L30 22.22v-4.44l-3.947-1.33-.434-1.047 1.852-3.73-3.143-3.146-3.734 1.853-1.04-.43L18.225 6Zm1.44 1.99h1.57l1.162 3.449 2.723 1.13 3.258-1.618 1.115 1.116-1.617 3.262 1.125 2.715L28 19.207v1.586l-3.45 1.163-1.124 2.715 1.617 3.262-1.115 1.116-3.258-1.616-2.723 1.128-1.162 3.448h-1.57l-1.162-3.448-2.723-1.128-3.258 1.616-1.115-1.116 1.617-3.262-1.125-2.715L4 20.793v-1.586l3.45-1.163 1.124-2.715-1.617-3.262 1.115-1.116 3.258 1.617 2.723-1.129zM34 27.99V34h2v-6.01z" class="c2"/><path xmlns="http://www.w3.org/2000/svg" d="M16 14c-3.296 0-5.988 2.692-5.988 5.988s2.692 5.99 5.988 5.99 5.988-2.694 5.988-5.99S19.296 14 16 14m0 2a3.973 3.973 0 0 1 3.988 3.988A3.974 3.974 0 0 1 16 23.978a3.974 3.974 0 0 1-3.988-3.99A3.973 3.973 0 0 1 16 16m16 8v6h6v-6zm2 2h2v2h-2z" class="c1"/></svg>