<svg xmlns="http://www.w3.org/2000/svg" viewBox="0 0 40 40" xmlns:c2pa="http://c2pa.org/manifest"><metadata><c2pa:manifest>AAAIGWp1bWIAAAAeanVtZGMycGEAEQAQgAAAqgA4m3EDYzJwYQAAAAfzanVtYgAAAEdqdW1kYzJtYQARABCAAACqADibcQN1cm46dXVpZDoxY2I5ZDNmNC0xZTRmLTRlY2YtYTA1Zi01NzkxNDQ2MjA5NGMAAAACmmp1bWIAAAApanVtZGMyYXMAEQAQgAAAqgA4m3EDYzJwYS5hc3NlcnRpb25zAAAAAJFqdW1iAAAAJmp1bWRjYm9yABEAEIAAAKoAOJtxA2MycGEuYWN0aW9ucwAAAABjY2JvcqFnYWN0aW9uc4GjZmFjdGlvbm5jMnBhLnB1Ymxpc2hlZG1zb2Z0d2FyZUFnZW50cUxvbGx5IGxvbGx5LnRvb2xzZHdoZW50MjAyNi0wNy0wNVQxOToxMzo0MloAAACranVtYgAAAChqdW1kY2JvcgARABCAAACqADibcQNjMnBhLmhhc2guZGF0YQAAAAB7Y2JvcqVqZXhjbHVzaW9uc4GiZXN0YXJ0GHtmbGVuZ3RoGQrMZG5hbWVuanVtYmYgbWFuaWZlc3RjYWxnZnNoYTI1NmRoYXNoWCAiMsCuFzyfNUb+MuzdvdH8aQcZs5yccXOjGbrfIUFfVmNwYWRIAAAAAAAAAAAAAACDanVtYgAAACxqdW1kY2JvcgARABCAAACqADibcQN0b29scy5sb2xseS5leHBvcnQAAAAAT2Nib3KjZHJvbGVwb2ZmaWNpYWwgY2F0YWxvZ2dzdXJmYWNlc2xvbGx5LnRvb2xzL2NhdGFsb2dmZW5naW5lbExvbGx5IDEuMTguMAAAAKpqdW1iAAAANmp1bWRqc29uABEAEIAAAKoAOJtxA3N0ZHMuc2NoZW1hLW9yZy5DcmVhdGl2ZVdvcmsAAAAAbGpzb257IkBjb250ZXh0IjoiaHR0cDovL3NjaGVtYS5vcmcvIiwiQHR5cGUiOiJDcmVhdGl2ZVdvcmsiLCJhdXRob3IiOlt7IkB0eXBlIjoiUGVyc29uIiwibmFtZSI6IlNVU0UifV19AAAClmp1bWIAAAAkanVtZGMyY2wAEQAQgAAAqgA4m3EDYzJwYS5jbGFpbQAAAAJqY2JvcqhoZGM6dGl0bGVqVmlydCBTdGFja2lkYzpmb3JtYXRtaW1hZ2Uvc3ZnK3htbGppbnN0YW5jZUlEeC11cm46dXVpZDowZjZlYzRjMS1kOWNkLTQyY2ItYjg5ZS03ZTVjMTFhY2Y5YzBvY2xhaW1fZ2VuZXJhdG9ycUxvbGx5IGxvbGx5LnRvb2xzdGNsYWltX2dlbmVyYXRvcl9pbmZvgaJkbmFtZWVMb2xseWd2ZXJzaW9uZjEuMTguMGlzaWduYXR1cmV4GXNlbGYjanVtYmY9YzJwYS5zaWduYXR1cmVqYXNzZXJ0aW9uc4SiY3VybHgnc2VsZiNqdW1iZj1jMnBhLmFzc2VydGlvbnMvYzJwYS5hY3Rpb25zZGhhc2hYIN6/Fwe7vMUrTc3XwLeE2IKfZ1bAnUZsMeOebsoI+IhUomN1cmx4KXNlbGYjanVtYmY9YzJwYS5hc3NlcnRpb25zL2MycGEuaGFzaC5kYXRhZGhhc2hYIBWeMR8bT2wDLgtjMv+Is1/DsEsxUMaLzHTn+DJDZDhfomN1cmx4LXNlbGYjanVtYmY9YzJwYS5hc3NlcnRpb25zL3Rvb2xzLmxvbGx5LmV4cG9ydGRoYXNoWCCXGuT93XBscgZLGjixMkIUIWNeTnwXMEUO7Z0pEgLDIKJjdXJseDdzZWxmI2p1bWJmPWMycGEuYXNzZXJ0aW9ucy9zdGRzLnNjaGVtYS1vcmcuQ3JlYXRpdmVXb3JrZGhhc2hYIB2uQpZF0cP5MA7gQObzS2/2/uU/PV1mWjW7a6MZnXcnY2FsZ2ZzaGEyNTYAAAJ0anVtYgAAAChqdW1kYzJjcwARABCAAACqADibcQNjMnBhLnNpZ25hdHVyZQAAAAJEY2JvctKEWQHzogEmGCGBWQHqMIIB5jCCAYygAwIBAgIJWxll0Xd19xciMAoGCCqGSM49BAMCMCMxDjAMBgNVBAoMBUxvbGx5MREwDwYDVQQDDAhMb2xseSBDQTAeFw0yNjA3MDUxOTEzNDJaFw0yODA5MTIxOTE0NDJaMDQxDjAMBgNVBAoMBUxvbGx5MSIwIAYDVQQDDBlMb2xseSBDb250ZW50IENyZWRlbnRpYWxzMFkwEwYHKoZIzj0CAQYIKoZIzj0DAQcDQgAESV3jc7+tCRP+BipU6qrpUXlh0G4pbotSx3GSMKX0lMDey4WRg6DLi5K6Qpe/zFw26+GUA4czveHm0PhdwQJ+t6OBlzCBlDAJBgNVHRMEAjAAMA4GA1UdDwEB/wQEAwIHgDATBgNVHSUEDDAKBggrBgEFBQcDBDAdBgNVHQ4EFgQUygaSd+Jw42qFFFJps1w3MyjMa/swHwYDVR0jBBgwFoAUnddLOwVlknok6ibSP+pTRtMGhy4wIgYDVR0RBBswGYEXY3JlZGVudGlhbHNAbG9sbHkudG9vbHMwCgYIKoZIzj0EAwIDSAAwRQIgTi2AtHs9HQ62uQ2oL7fdwtXEF3nAKe8Wa/1hKabE8XACIQDUC+DNTBkD0th5T6vw8D0CW361iZWPFCKNtVoYX3nkzKD2WEA9xc7nZq1XRLk1EuMgysL9v/dQwi3VqecarfMasNefWIcsu1sdA3f9f1/Ue6iqYhgkk3uwcfx4t0x5Aw/y00Pg</c2pa:manifest></metadata><defs><style>.c1{fill:#30ba78}.c2{fill:#0c322c}</style></defs><path xmlns="http://www.w3.org/2000/svg" d="M9.086 4 4 7.775V34h32V8.362l.006-.62L30.299 4zm.66 2h19.955l3.052 2H7.052zM6 10.014h28V16H6zM6 18h28v6H6zm0 8h28v6H6z" class="c1"/><path xmlns="http://www.w3.org/2000/svg" d="M0 21.998v4L2 26v-4zM0-.014v3.987h1.993V1.987H2v-.014h2v-2zM-.007 38 0 34.014h1.993L1.986 36h.007v.013h2v2zm0-10.002v4l2 .003v-4zm5.99 8.015.014 2h4l-.004-2zm5.996 0 .014 2h4l-.004-2zm6 0 .014 2h4l-.004-2zm6 0 .014 2h4l-.004-2zM39.993 38l-.007-3.987h-1.993L38 36h-.007v.013h-2v2zm-10.014-1.987.014 2h4l-.004-2zM0 5.998v4L2 10V6ZM39.993 0l-.007 3.987h-1.993L38 2h-.007v-.013h-2v-2zM38 21.998v4L40 26v-4zm0 5.987v4l2 .003v-4zM38 6.01v4l2 .003v-4zM5.983-.013l.014 2h4l-.004-2zm5.996 0 .014 2h4l-.004-2zm6 0 .014 2h4l-.004-2zm6 0 .014 2h4l-.004-2zm6 0 .014 2h4l-.004-2zM29 12.013v2m-1-1.999v2h2v-2zm-6 .999h4" class="c2"/><path xmlns="http://www.w3.org/2000/svg" d="M22 12.014v2h4v-2z" class="c1"/><path xmlns="http://www.w3.org/2000/svg" d="M29 20v2m-1-2v2h2v-2zm-6 1h4" class="c2"/><path xmlns="http://www.w3.org/2000/svg" d="M22 20v2h4v-2z" class="c1"/><path xmlns="http://www.w3.org/2000/svg" d="M0 11.998v4L2 16v-4zm38 0v4L40 16v-4zM29 28v2m-1-2v2h2v-2zm-6 1h4" class="c2"/><path xmlns="http://www.w3.org/2000/svg" d="M22 28v2h4v-2z" class="c1"/><path xmlns="http://www.w3.org/2000/svg" d="M0 18v2.101l2 .001v-2.1Zm38 0v2.101l2 .001v-2.1Z" class="c2"/></svg>