<svg xmlns="http://www.w3.org/2000/svg" viewBox="0 0 40 40" xmlns:c2pa="http://c2pa.org/manifest"><metadata><c2pa:manifest>AAAIGGp1bWIAAAAeanVtZGMycGEAEQAQgAAAqgA4m3EDYzJwYQAAAAfyanVtYgAAAEdqdW1kYzJtYQARABCAAACqADibcQN1cm46dXVpZDpiMGNmMGJiNy02OWRmLTQ0ZDMtYjMzNS00N2EzM2QzYWM0MTYAAAACmmp1bWIAAAApanVtZGMyYXMAEQAQgAAAqgA4m3EDYzJwYS5hc3NlcnRpb25zAAAAAJFqdW1iAAAAJmp1bWRjYm9yABEAEIAAAKoAOJtxA2MycGEuYWN0aW9ucwAAAABjY2JvcqFnYWN0aW9uc4GjZmFjdGlvbm5jMnBhLnB1Ymxpc2hlZG1zb2Z0d2FyZUFnZW50cUxvbGx5IGxvbGx5LnRvb2xzZHdoZW50MjAyNi0wNy0wNVQxOToxMzo0MloAAACranVtYgAAAChqdW1kY2JvcgARABCAAACqADibcQNjMnBhLmhhc2guZGF0YQAAAAB7Y2JvcqVqZXhjbHVzaW9uc4GiZXN0YXJ0GHtmbGVuZ3RoGQrMZG5hbWVuanVtYmYgbWFuaWZlc3RjYWxnZnNoYTI1NmRoYXNoWCAyqqjJSKd9kSSQD8u3YD8HxcNfbI9uQQtFFat+fOR8M2NwYWRIAAAAAAAAAAAAAACDanVtYgAAACxqdW1kY2JvcgARABCAAACqADibcQN0b29scy5sb2xseS5leHBvcnQAAAAAT2Nib3KjZHJvbGVwb2ZmaWNpYWwgY2F0YWxvZ2dzdXJmYWNlc2xvbGx5LnRvb2xzL2NhdGFsb2dmZW5naW5lbExvbGx5IDEuMTguMAAAAKpqdW1iAAAANmp1bWRqc29uABEAEIAAAKoAOJtxA3N0ZHMuc2NoZW1hLW9yZy5DcmVhdGl2ZVdvcmsAAAAAbGpzb257IkBjb250ZXh0IjoiaHR0cDovL3NjaGVtYS5vcmcvIiwiQHR5cGUiOiJDcmVhdGl2ZVdvcmsiLCJhdXRob3IiOlt7IkB0eXBlIjoiUGVyc29uIiwibmFtZSI6IlNVU0UifV19AAAClWp1bWIAAAAkanVtZGMyY2wAEQAQgAAAqgA4m3EDYzJwYS5jbGFpbQAAAAJpY2JvcqhoZGM6dGl0bGVpTGlnaHRidWxiaWRjOmZvcm1hdG1pbWFnZS9zdmcreG1samluc3RhbmNlSUR4LXVybjp1dWlkOjg4Mzc0NmI3LTQ4ZDQtNDAxYi1iMWJiLWY5YzVhZDFlN2JlOW9jbGFpbV9nZW5lcmF0b3JxTG9sbHkgbG9sbHkudG9vbHN0Y2xhaW1fZ2VuZXJhdG9yX2luZm+BomRuYW1lZUxvbGx5Z3ZlcnNpb25mMS4xOC4waXNpZ25hdHVyZXgZc2VsZiNqdW1iZj1jMnBhLnNpZ25hdHVyZWphc3NlcnRpb25zhKJjdXJseCdzZWxmI2p1bWJmPWMycGEuYXNzZXJ0aW9ucy9jMnBhLmFjdGlvbnNkaGFzaFgg3r8XB7u8xStNzdfAt4TYgp9nVsCdRmwx455uygj4iFSiY3VybHgpc2VsZiNqdW1iZj1jMnBhLmFzc2VydGlvbnMvYzJwYS5oYXNoLmRhdGFkaGFzaFggrIzu5wC7BmBIubKdk2zIU+AxzDwJ4vg3sqReD8+cORuiY3VybHgtc2VsZiNqdW1iZj1jMnBhLmFzc2VydGlvbnMvdG9vbHMubG9sbHkuZXhwb3J0ZGhhc2hYIJca5P3dcGxyBksaOLEyQhQhY15OfBcwRQ7tnSkSAsMgomN1cmx4N3NlbGYjanVtYmY9YzJwYS5hc3NlcnRpb25zL3N0ZHMuc2NoZW1hLW9yZy5DcmVhdGl2ZVdvcmtkaGFzaFggHa5ClkXRw/kwDuBA5vNLb/b+5T89XWZaNbtroxmddydjYWxnZnNoYTI1NgAAAnRqdW1iAAAAKGp1bWRjMmNzABEAEIAAAKoAOJtxA2MycGEuc2lnbmF0dXJlAAAAAkRjYm9y0oRZAfOiASYYIYFZAeowggHmMIIBjKADAgECAglbGWXRd3X3FyIwCgYIKoZIzj0EAwIwIzEOMAwGA1UECgwFTG9sbHkxETAPBgNVBAMMCExvbGx5IENBMB4XDTI2MDcwNTE5MTM0MloXDTI4MDkxMjE5MTQ0MlowNDEOMAwGA1UECgwFTG9sbHkxIjAgBgNVBAMMGUxvbGx5IENvbnRlbnQgQ3JlZGVudGlhbHMwWTATBgcqhkjOPQIBBggqhkjOPQMBBwNCAARJXeNzv60JE/4GKlTqqulReWHQbilui1LHcZIwpfSUwN7LhZGDoMuLkrpCl7/MXDbr4ZQDhzO94ebQ+F3BAn63o4GXMIGUMAkGA1UdEwQCMAAwDgYDVR0PAQH/BAQDAgeAMBMGA1UdJQQMMAoGCCsGAQUFBwMEMB0GA1UdDgQWBBTKBpJ34nDjaoUUUmmzXDczKMxr+zAfBgNVHSMEGDAWgBSd10s7BWWSeiTqJtI/6lNG0waHLjAiBgNVHREEGzAZgRdjcmVkZW50aWFsc0Bsb2xseS50b29sczAKBggqhkjOPQQDAgNIADBFAiBOLYC0ez0dDra5Dagvt93C1cQXecAp7xZr/WEppsTxcAIhANQL4M1MGQPS2HlPq/DwPQJbfrWJlY8UIo21WhhfeeTMoPZYQNT8oozfZQlnvn5poA9GWEjgOvQ4O3jCHiSo96GsKEWxOmCt7s0P7fphq8QLyJ0x2M7LO4GhSg27VSpxzOoB0V4=</c2pa:manifest></metadata><defs><style>.c1{fill:#30ba78}.c2{fill:#0c322c}</style></defs><path xmlns="http://www.w3.org/2000/svg" d="M32 12v6.42l-6 7.219V30H16v-4.404l-6-6.219V13H8v7.184l6 6.22V32h14v-5.639l6-7.22V12Z" class="c2"/><path xmlns="http://www.w3.org/2000/svg" d="M14 34v3.414L16.586 40h8.828L28 37.414V34Zm2 2h10v.586L24.586 38h-7.172L16 36.586Zm-.414-24-4 4 4 4H18v8h2v-8h4v-2h-4v-6zm.828 2H18v4h-1.586l-2-2z" class="c1"/><path xmlns="http://www.w3.org/2000/svg" d="M22 12v6h-4v2h4v8h2v-8h2.414l4-4-4-4zm2 2h1.586l2 2-2 2H24Z" class="c1"/><path xmlns="http://www.w3.org/2000/svg" d="M21 0C13.832 0 8 5.832 8 13h2c0-6.087 4.913-11 11-11s11 4.913 11 11h2c0-7.168-5.832-13-13-13" class="c2"/></svg>