<svg xmlns="http://www.w3.org/2000/svg" viewBox="0 0 300 300" xmlns:c2pa="http://c2pa.org/manifest"><metadata><c2pa:manifest>AAAIH2p1bWIAAAAeanVtZGMycGEAEQAQgAAAqgA4m3EDYzJwYQAAAAf5anVtYgAAAEdqdW1kYzJtYQARABCAAACqADibcQN1cm46dXVpZDo5Y2ZlYTBjMS04ODEwLTRlODAtOTc3My1lYTg1MTRmZjFhZDAAAAACmmp1bWIAAAApanVtZGMyYXMAEQAQgAAAqgA4m3EDYzJwYS5hc3NlcnRpb25zAAAAAJFqdW1iAAAAJmp1bWRjYm9yABEAEIAAAKoAOJtxA2MycGEuYWN0aW9ucwAAAABjY2JvcqFnYWN0aW9uc4GjZmFjdGlvbm5jMnBhLnB1Ymxpc2hlZG1zb2Z0d2FyZUFnZW50cUxvbGx5IGxvbGx5LnRvb2xzZHdoZW50MjAyNi0wNy0wNVQxOToxMzo0MloAAACranVtYgAAAChqdW1kY2JvcgARABCAAACqADibcQNjMnBhLmhhc2guZGF0YQAAAAB7Y2JvcqVqZXhjbHVzaW9uc4GiZXN0YXJ0GH1mbGVuZ3RoGQrUZG5hbWVuanVtYmYgbWFuaWZlc3RjYWxnZnNoYTI1NmRoYXNoWCC5Pq6O4s5KAr6EYrwvjC5bERlIzdAqs7BrzhmmHSOKZ2NwYWRIAAAAAAAAAAAAAACDanVtYgAAACxqdW1kY2JvcgARABCAAACqADibcQN0b29scy5sb2xseS5leHBvcnQAAAAAT2Nib3KjZHJvbGVwb2ZmaWNpYWwgY2F0YWxvZ2dzdXJmYWNlc2xvbGx5LnRvb2xzL2NhdGFsb2dmZW5naW5lbExvbGx5IDEuMTguMAAAAKpqdW1iAAAANmp1bWRqc29uABEAEIAAAKoAOJtxA3N0ZHMuc2NoZW1hLW9yZy5DcmVhdGl2ZVdvcmsAAAAAbGpzb257IkBjb250ZXh0IjoiaHR0cDovL3NjaGVtYS5vcmcvIiwiQHR5cGUiOiJDcmVhdGl2ZVdvcmsiLCJhdXRob3IiOlt7IkB0eXBlIjoiUGVyc29uIiwibmFtZSI6IlNVU0UifV19AAACnGp1bWIAAAAkanVtZGMyY2wAEQAQgAAAqgA4m3EDYzJwYS5jbGFpbQAAAAJwY2JvcqhoZGM6dGl0bGVwSW5ub3ZhdGlvbiBWYWx1ZWlkYzpmb3JtYXRtaW1hZ2Uvc3ZnK3htbGppbnN0YW5jZUlEeC11cm46dXVpZDoxMzRlY2E2NC01MzBlLTQwYTEtODc3ZC0wNzM3YmY4NzIwYTNvY2xhaW1fZ2VuZXJhdG9ycUxvbGx5IGxvbGx5LnRvb2xzdGNsYWltX2dlbmVyYXRvcl9pbmZvgaJkbmFtZWVMb2xseWd2ZXJzaW9uZjEuMTguMGlzaWduYXR1cmV4GXNlbGYjanVtYmY9YzJwYS5zaWduYXR1cmVqYXNzZXJ0aW9uc4SiY3VybHgnc2VsZiNqdW1iZj1jMnBhLmFzc2VydGlvbnMvYzJwYS5hY3Rpb25zZGhhc2hYIN6/Fwe7vMUrTc3XwLeE2IKfZ1bAnUZsMeOebsoI+IhUomN1cmx4KXNlbGYjanVtYmY9YzJwYS5hc3NlcnRpb25zL2MycGEuaGFzaC5kYXRhZGhhc2hYIKlmT46Neurg7RamlbWUp/B7LoV45SuYHskvFtd/xxhTomN1cmx4LXNlbGYjanVtYmY9YzJwYS5hc3NlcnRpb25zL3Rvb2xzLmxvbGx5LmV4cG9ydGRoYXNoWCCXGuT93XBscgZLGjixMkIUIWNeTnwXMEUO7Z0pEgLDIKJjdXJseDdzZWxmI2p1bWJmPWMycGEuYXNzZXJ0aW9ucy9zdGRzLnNjaGVtYS1vcmcuQ3JlYXRpdmVXb3JrZGhhc2hYIB2uQpZF0cP5MA7gQObzS2/2/uU/PV1mWjW7a6MZnXcnY2FsZ2ZzaGEyNTYAAAJ0anVtYgAAAChqdW1kYzJjcwARABCAAACqADibcQNjMnBhLnNpZ25hdHVyZQAAAAJEY2JvctKEWQHzogEmGCGBWQHqMIIB5jCCAYygAwIBAgIJWxll0Xd19xciMAoGCCqGSM49BAMCMCMxDjAMBgNVBAoMBUxvbGx5MREwDwYDVQQDDAhMb2xseSBDQTAeFw0yNjA3MDUxOTEzNDJaFw0yODA5MTIxOTE0NDJaMDQxDjAMBgNVBAoMBUxvbGx5MSIwIAYDVQQDDBlMb2xseSBDb250ZW50IENyZWRlbnRpYWxzMFkwEwYHKoZIzj0CAQYIKoZIzj0DAQcDQgAESV3jc7+tCRP+BipU6qrpUXlh0G4pbotSx3GSMKX0lMDey4WRg6DLi5K6Qpe/zFw26+GUA4czveHm0PhdwQJ+t6OBlzCBlDAJBgNVHRMEAjAAMA4GA1UdDwEB/wQEAwIHgDATBgNVHSUEDDAKBggrBgEFBQcDBDAdBgNVHQ4EFgQUygaSd+Jw42qFFFJps1w3MyjMa/swHwYDVR0jBBgwFoAUnddLOwVlknok6ibSP+pTRtMGhy4wIgYDVR0RBBswGYEXY3JlZGVudGlhbHNAbG9sbHkudG9vbHMwCgYIKoZIzj0EAwIDSAAwRQIgTi2AtHs9HQ62uQ2oL7fdwtXEF3nAKe8Wa/1hKabE8XACIQDUC+DNTBkD0th5T6vw8D0CW361iZWPFCKNtVoYX3nkzKD2WECRfD1z6JlIufL139h7fvo3Aq5B/to9LuCobvSf12t7AcNiNF5KLb+cjzg+Ss36z/y14Old+Zg7m6wEt7MxxQbO</c2pa:manifest></metadata><defs><style>.c1{fill:#30ba78}.c2{fill:#0c322c}</style></defs><path xmlns="http://www.w3.org/2000/svg" d="M133.7 221.05V67.4h14.9v157.05z" class="c2"/><path xmlns="http://www.w3.org/2000/svg" d="M137.4 153.7h36.7v15h-36.7z" class="c2"/><path xmlns="http://www.w3.org/2000/svg" d="M195.8 185.2c-13.2 0-24-10.7-24-24s10.7-24 24-24 24 10.7 24 24-10.7 24-24 24m0-33c-5 0-8.9 4.1-8.9 8.9s4.1 8.9 8.9 8.9 8.9-4.1 8.9-8.9-4.1-8.9-8.9-8.9m-53.9-76.5c-13.2 0-24-10.7-24-24s10.7-24 24-24 24 10.7 24 24-10.7 24-24 24m0-32.9c-5 0-8.9 4.1-8.9 8.9s4.1 8.9 8.9 8.9 8.9-4.1 8.9-8.9-4.1-8.9-8.9-8.9" class="c1"/><path xmlns="http://www.w3.org/2000/svg" d="M203.4 128.2h-62.2v-15h47.2V93h15z" class="c2"/><path xmlns="http://www.w3.org/2000/svg" d="M195.8 98.2c-13.2 0-24-10.7-24-24s10.7-24 24-24 24 10.7 24 24-10.7 24-24 24m0-32.9c-5 0-8.9 4.1-8.9 8.9s4.1 8.9 8.9 8.9 8.9-4.1 8.9-8.9-4.1-8.9-8.9-8.9" class="c1"/><path xmlns="http://www.w3.org/2000/svg" d="M102.2 113.2h37.5v15h-37.5z" class="c2"/><path xmlns="http://www.w3.org/2000/svg" d="M85.7 144.7c-13.2 0-24-10.7-24-24s10.7-24 24-24 24 10.7 24 24-10.7 24-24 24m0-33c-5 0-8.9 4.1-8.9 8.9s4.1 8.9 8.9 8.9 8.9-4.1 8.9-8.9-4.1-8.9-8.9-8.9" class="c1"/><path xmlns="http://www.w3.org/2000/svg" d="M212.2 299.34H88.6v-15h108.6v-28.08h-63.54v-35.27l8.16.72c2.93.26 5.95.39 8.98.39 56.89 0 103.17-46.28 103.17-103.17S207.69 15.77 150.8 15.77 47.63 62.05 47.63 118.93c0 36.9 19.91 71.23 51.97 89.58l3.77 2.16v45.73h-15v-37.13c-34.49-21.5-55.74-59.55-55.74-100.34C32.63 53.78 85.64.77 150.8.77s118.17 53.01 118.17 118.16S215.96 237.1 150.8 237.1c-.71 0-1.43 0-2.14-.02v4.18h63.54z" class="c2"/></svg>