<svg xmlns="http://www.w3.org/2000/svg" viewBox="0 0 40 40" xmlns:c2pa="http://c2pa.org/manifest"><metadata><c2pa:manifest>AAAIIGp1bWIAAAAeanVtZGMycGEAEQAQgAAAqgA4m3EDYzJwYQAAAAf6anVtYgAAAEdqdW1kYzJtYQARABCAAACqADibcQN1cm46dXVpZDpjZDk4ZmE1MC1mZDI2LTRjYTAtODhhMy0yNDY4MTZjNzMzOTcAAAACmmp1bWIAAAApanVtZGMyYXMAEQAQgAAAqgA4m3EDYzJwYS5hc3NlcnRpb25zAAAAAJFqdW1iAAAAJmp1bWRjYm9yABEAEIAAAKoAOJtxA2MycGEuYWN0aW9ucwAAAABjY2JvcqFnYWN0aW9uc4GjZmFjdGlvbm5jMnBhLnB1Ymxpc2hlZG1zb2Z0d2FyZUFnZW50cUxvbGx5IGxvbGx5LnRvb2xzZHdoZW50MjAyNi0wNy0wNVQxOToxMzo0MloAAACranVtYgAAAChqdW1kY2JvcgARABCAAACqADibcQNjMnBhLmhhc2guZGF0YQAAAAB7Y2JvcqVqZXhjbHVzaW9uc4GiZXN0YXJ0GHtmbGVuZ3RoGQrYZG5hbWVuanVtYmYgbWFuaWZlc3RjYWxnZnNoYTI1NmRoYXNoWCCiMgBOkMERXd8ecP/BQbjMexUw91LWT+oRlaWtO0Xyy2NwYWRIAAAAAAAAAAAAAACDanVtYgAAACxqdW1kY2JvcgARABCAAACqADibcQN0b29scy5sb2xseS5leHBvcnQAAAAAT2Nib3KjZHJvbGVwb2ZmaWNpYWwgY2F0YWxvZ2dzdXJmYWNlc2xvbGx5LnRvb2xzL2NhdGFsb2dmZW5naW5lbExvbGx5IDEuMTguMAAAAKpqdW1iAAAANmp1bWRqc29uABEAEIAAAKoAOJtxA3N0ZHMuc2NoZW1hLW9yZy5DcmVhdGl2ZVdvcmsAAAAAbGpzb257IkBjb250ZXh0IjoiaHR0cDovL3NjaGVtYS5vcmcvIiwiQHR5cGUiOiJDcmVhdGl2ZVdvcmsiLCJhdXRob3IiOlt7IkB0eXBlIjoiUGVyc29uIiwibmFtZSI6IlNVU0UifV19AAACnWp1bWIAAAAkanVtZGMyY2wAEQAQgAAAqgA4m3EDYzJwYS5jbGFpbQAAAAJxY2JvcqhoZGM6dGl0bGVxUGFydG5lciBIYW5kc2hha2VpZGM6Zm9ybWF0bWltYWdlL3N2Zyt4bWxqaW5zdGFuY2VJRHgtdXJuOnV1aWQ6N2U3M2Y2MTEtMTEzYi00MTU2LTg3N2MtNjUwZGQ0ZThhNTRkb2NsYWltX2dlbmVyYXRvcnFMb2xseSBsb2xseS50b29sc3RjbGFpbV9nZW5lcmF0b3JfaW5mb4GiZG5hbWVlTG9sbHlndmVyc2lvbmYxLjE4LjBpc2lnbmF0dXJleBlzZWxmI2p1bWJmPWMycGEuc2lnbmF0dXJlamFzc2VydGlvbnOEomN1cmx4J3NlbGYjanVtYmY9YzJwYS5hc3NlcnRpb25zL2MycGEuYWN0aW9uc2RoYXNoWCDevxcHu7zFK03N18C3hNiCn2dWwJ1GbDHjnm7KCPiIVKJjdXJseClzZWxmI2p1bWJmPWMycGEuYXNzZXJ0aW9ucy9jMnBhLmhhc2guZGF0YWRoYXNoWCBCj5BYrnWCp7BcDHSVVLNbYeZjrZJpXGvKYQ4W5mOq96JjdXJseC1zZWxmI2p1bWJmPWMycGEuYXNzZXJ0aW9ucy90b29scy5sb2xseS5leHBvcnRkaGFzaFgglxrk/d1wbHIGSxo4sTJCFCFjXk58FzBFDu2dKRICwyCiY3VybHg3c2VsZiNqdW1iZj1jMnBhLmFzc2VydGlvbnMvc3Rkcy5zY2hlbWEtb3JnLkNyZWF0aXZlV29ya2RoYXNoWCAdrkKWRdHD+TAO4EDm80tv9v7lPz1dZlo1u2ujGZ13J2NhbGdmc2hhMjU2AAACdGp1bWIAAAAoanVtZGMyY3MAEQAQgAAAqgA4m3EDYzJwYS5zaWduYXR1cmUAAAACRGNib3LShFkB86IBJhghgVkB6jCCAeYwggGMoAMCAQICCVsZZdF3dfcXIjAKBggqhkjOPQQDAjAjMQ4wDAYDVQQKDAVMb2xseTERMA8GA1UEAwwITG9sbHkgQ0EwHhcNMjYwNzA1MTkxMzQyWhcNMjgwOTEyMTkxNDQyWjA0MQ4wDAYDVQQKDAVMb2xseTEiMCAGA1UEAwwZTG9sbHkgQ29udGVudCBDcmVkZW50aWFsczBZMBMGByqGSM49AgEGCCqGSM49AwEHA0IABEld43O/rQkT/gYqVOqq6VF5YdBuKW6LUsdxkjCl9JTA3suFkYOgy4uSukKXv8xcNuvhlAOHM73h5tD4XcECfrejgZcwgZQwCQYDVR0TBAIwADAOBgNVHQ8BAf8EBAMCB4AwEwYDVR0lBAwwCgYIKwYBBQUHAwQwHQYDVR0OBBYEFMoGknficONqhRRSabNcNzMozGv7MB8GA1UdIwQYMBaAFJ3XSzsFZZJ6JOom0j/qU0bTBocuMCIGA1UdEQQbMBmBF2NyZWRlbnRpYWxzQGxvbGx5LnRvb2xzMAoGCCqGSM49BAMCA0gAMEUCIE4tgLR7PR0OtrkNqC+33cLVxBd5wCnvFmv9YSmmxPFwAiEA1AvgzUwZA9LYeU+r8PA9Alt+tYmVjxQijbVaGF955Myg9lhAVx7mWQ2PZ76VWW/E7O6IIgmn+XDWv/G6wDEH3ehcuXEA4PJClVhC3pg19mnFFB/ZPU5TLdX3+GlusNaKKrYRFQ==</c2pa:manifest></metadata><defs><style>.c1{fill:#30ba78}.c2{fill:#0c322c}</style></defs><path xmlns="http://www.w3.org/2000/svg" d="m8.291 29.289 4.498-4.497 1.414 1.414-4.497 4.497zm-1.979-3.972 3.5-3.5 1.414 1.414-3.5 3.5zm9.984 7.974 2.998-2.998 1.415 1.415-2.999 2.998zm-4.991-.975 4.498-4.497 1.414 1.414-4.497 4.497zM16 21.41 11.59 17l5-5h5l6.37-6.37 9.51 8.32-6.46 6.46L28.6 18h-9.17l-3.41 3.41ZM14.41 17 16 18.59 18.59 16h10.83l1.59 1.59 3.54-3.54-6.49-5.68L22.43 14h-5l-3 3Z" class="c1"/><path xmlns="http://www.w3.org/2000/svg" d="M21.29 34.71 10.13 23.54l-1-3L3.58 15 13 5.59 15.41 8H20v2h-5.41L13 8.41 6.41 15l4.46 4.46 1 3 10.84 10.83z" class="c2"/><path xmlns="http://www.w3.org/2000/svg" d="m20.286 27.707 1.415-1.415 4.999 5-1.414 1.414zm3.013-2.998 1.414-1.414 6.003 6.003-1.414 1.414zm2.987-3.008 1.415-1.414 4.999 5-1.414 1.414z" class="c2"/></svg>