<svg xmlns="http://www.w3.org/2000/svg" viewBox="0 0 40 40" xmlns:c2pa="http://c2pa.org/manifest"><metadata><c2pa:manifest>AAAIF2p1bWIAAAAeanVtZGMycGEAEQAQgAAAqgA4m3EDYzJwYQAAAAfxanVtYgAAAEdqdW1kYzJtYQARABCAAACqADibcQN1cm46dXVpZDphNmMzYjQwMi02MWM3LTRlYmQtODQwNi0zYjgwMjViMTMzNjMAAAACmmp1bWIAAAApanVtZGMyYXMAEQAQgAAAqgA4m3EDYzJwYS5hc3NlcnRpb25zAAAAAJFqdW1iAAAAJmp1bWRjYm9yABEAEIAAAKoAOJtxA2MycGEuYWN0aW9ucwAAAABjY2JvcqFnYWN0aW9uc4GjZmFjdGlvbm5jMnBhLnB1Ymxpc2hlZG1zb2Z0d2FyZUFnZW50cUxvbGx5IGxvbGx5LnRvb2xzZHdoZW50MjAyNi0wNy0wNVQxOToxMzo0MloAAACranVtYgAAAChqdW1kY2JvcgARABCAAACqADibcQNjMnBhLmhhc2guZGF0YQAAAAB7Y2JvcqVqZXhjbHVzaW9uc4GiZXN0YXJ0GHtmbGVuZ3RoGQrMZG5hbWVuanVtYmYgbWFuaWZlc3RjYWxnZnNoYTI1NmRoYXNoWCD8B31IcqtnxTRwEOV1LC0OJIJkoRk8LRyJwcC0frb9CmNwYWRIAAAAAAAAAAAAAACDanVtYgAAACxqdW1kY2JvcgARABCAAACqADibcQN0b29scy5sb2xseS5leHBvcnQAAAAAT2Nib3KjZHJvbGVwb2ZmaWNpYWwgY2F0YWxvZ2dzdXJmYWNlc2xvbGx5LnRvb2xzL2NhdGFsb2dmZW5naW5lbExvbGx5IDEuMTguMAAAAKpqdW1iAAAANmp1bWRqc29uABEAEIAAAKoAOJtxA3N0ZHMuc2NoZW1hLW9yZy5DcmVhdGl2ZVdvcmsAAAAAbGpzb257IkBjb250ZXh0IjoiaHR0cDovL3NjaGVtYS5vcmcvIiwiQHR5cGUiOiJDcmVhdGl2ZVdvcmsiLCJhdXRob3IiOlt7IkB0eXBlIjoiUGVyc29uIiwibmFtZSI6IlNVU0UifV19AAAClGp1bWIAAAAkanVtZGMyY2wAEQAQgAAAqgA4m3EDYzJwYS5jbGFpbQAAAAJoY2JvcqhoZGM6dGl0bGVoQ2hlY2tpbmdpZGM6Zm9ybWF0bWltYWdlL3N2Zyt4bWxqaW5zdGFuY2VJRHgtdXJuOnV1aWQ6YzQ0ZWNjYzQtMzMzYi00MTYxLWE2OTctYTZkZGZkYjAwYWYzb2NsYWltX2dlbmVyYXRvcnFMb2xseSBsb2xseS50b29sc3RjbGFpbV9nZW5lcmF0b3JfaW5mb4GiZG5hbWVlTG9sbHlndmVyc2lvbmYxLjE4LjBpc2lnbmF0dXJleBlzZWxmI2p1bWJmPWMycGEuc2lnbmF0dXJlamFzc2VydGlvbnOEomN1cmx4J3NlbGYjanVtYmY9YzJwYS5hc3NlcnRpb25zL2MycGEuYWN0aW9uc2RoYXNoWCDevxcHu7zFK03N18C3hNiCn2dWwJ1GbDHjnm7KCPiIVKJjdXJseClzZWxmI2p1bWJmPWMycGEuYXNzZXJ0aW9ucy9jMnBhLmhhc2guZGF0YWRoYXNoWCAiy1+/LOJN5vOJohvEl92z/1YDkV7Kp/RPsrHLRNLm+KJjdXJseC1zZWxmI2p1bWJmPWMycGEuYXNzZXJ0aW9ucy90b29scy5sb2xseS5leHBvcnRkaGFzaFgglxrk/d1wbHIGSxo4sTJCFCFjXk58FzBFDu2dKRICwyCiY3VybHg3c2VsZiNqdW1iZj1jMnBhLmFzc2VydGlvbnMvc3Rkcy5zY2hlbWEtb3JnLkNyZWF0aXZlV29ya2RoYXNoWCAdrkKWRdHD+TAO4EDm80tv9v7lPz1dZlo1u2ujGZ13J2NhbGdmc2hhMjU2AAACdGp1bWIAAAAoanVtZGMyY3MAEQAQgAAAqgA4m3EDYzJwYS5zaWduYXR1cmUAAAACRGNib3LShFkB86IBJhghgVkB6jCCAeYwggGMoAMCAQICCVsZZdF3dfcXIjAKBggqhkjOPQQDAjAjMQ4wDAYDVQQKDAVMb2xseTERMA8GA1UEAwwITG9sbHkgQ0EwHhcNMjYwNzA1MTkxMzQyWhcNMjgwOTEyMTkxNDQyWjA0MQ4wDAYDVQQKDAVMb2xseTEiMCAGA1UEAwwZTG9sbHkgQ29udGVudCBDcmVkZW50aWFsczBZMBMGByqGSM49AgEGCCqGSM49AwEHA0IABEld43O/rQkT/gYqVOqq6VF5YdBuKW6LUsdxkjCl9JTA3suFkYOgy4uSukKXv8xcNuvhlAOHM73h5tD4XcECfrejgZcwgZQwCQYDVR0TBAIwADAOBgNVHQ8BAf8EBAMCB4AwEwYDVR0lBAwwCgYIKwYBBQUHAwQwHQYDVR0OBBYEFMoGknficONqhRRSabNcNzMozGv7MB8GA1UdIwQYMBaAFJ3XSzsFZZJ6JOom0j/qU0bTBocuMCIGA1UdEQQbMBmBF2NyZWRlbnRpYWxzQGxvbGx5LnRvb2xzMAoGCCqGSM49BAMCA0gAMEUCIE4tgLR7PR0OtrkNqC+33cLVxBd5wCnvFmv9YSmmxPFwAiEA1AvgzUwZA9LYeU+r8PA9Alt+tYmVjxQijbVaGF955Myg9lhA+b4NagdA8f7W9mcm84z7k/15mKufbvH0DMdnIZ3ELdb12UyW5ViGq+kwM0KhJPD9RJKrtg/RT10OieuphUk5TQ==</c2pa:manifest></metadata><defs><style>.c1{fill:#30ba78}.c2{fill:#0c322c}</style></defs><path xmlns="http://www.w3.org/2000/svg" d="M33 12.586 30.586 15H26v9.414l7 7 7-7V15h-4.586Zm0 2.828L34.586 17H38v6.586l-5 5-5-5V17h3.414z" class="c1"/><path xmlns="http://www.w3.org/2000/svg" d="m36.057 18.797-3.325 3.338-1.29-1.291-1.415 1.414 2.71 2.707 4.736-4.758zM7 32c-2.197 0-4 1.803-4 4s1.803 4 4 4 4-1.803 4-4-1.803-4-4-4m0 2c1.116 0 2 .884 2 2s-.884 2-2 2-2-.884-2-2 .884-2 2-2m13-2c-2.197 0-4 1.803-4 4s1.803 4 4 4 4-1.803 4-4-1.803-4-4-4m0 2c1.116 0 2 .884 2 2s-.884 2-2 2-2-.884-2-2 .884-2 2-2m13-2c-2.197 0-4 1.803-4 4s1.803 4 4 4 4-1.803 4-4-1.803-4-4-4m0 2c1.116 0 2 .884 2 2s-.884 2-2 2-2-.884-2-2 .884-2 2-2" class="c2"/><path xmlns="http://www.w3.org/2000/svg" d="M10 35v2h7v-2zm13 0v2h7v-2z" class="c2"/><path xmlns="http://www.w3.org/2000/svg" d="M20 .586 17.586 3H13v9.414l7 7 7-7V3h-4.586Zm0 2.828L21.586 5H25v6.586l-5 5-5-5V5h3.414z" class="c1"/><path xmlns="http://www.w3.org/2000/svg" d="m23.057 6.797-3.325 3.338-1.29-1.291-1.415 1.414 2.71 2.707 4.736-4.758z" class="c2"/><path xmlns="http://www.w3.org/2000/svg" d="M7 12.586 4.586 15H0v9.414l7 7 7-7V15H9.414Zm0 2.828L8.586 17H12v6.586l-5 5-5-5V17h3.414z" class="c1"/><path xmlns="http://www.w3.org/2000/svg" d="m10.057 18.797-3.325 3.338-1.29-1.291-1.415 1.414 2.71 2.707 4.736-4.758Z" class="c2"/></svg>