<svg xmlns="http://www.w3.org/2000/svg" viewBox="0 0 1600 1000" width="1600" height="1000" preserveAspectRatio="xMidYMid slice" xmlns:c2pa="http://c2pa.org/manifest"><metadata><c2pa:manifest>AAAIImp1bWIAAAAeanVtZGMycGEAEQAQgAAAqgA4m3EDYzJwYQAAAAf8anVtYgAAAEdqdW1kYzJtYQARABCAAACqADibcQN1cm46dXVpZDo1YjA2ZjMwZi05NjhhLTQyYWYtYjBhZC05MjAxYzRmMGFmMTEAAAACmmp1bWIAAAApanVtZGMyYXMAEQAQgAAAqgA4m3EDYzJwYS5hc3NlcnRpb25zAAAAAJFqdW1iAAAAJmp1bWRjYm9yABEAEIAAAKoAOJtxA2MycGEuYWN0aW9ucwAAAABjY2JvcqFnYWN0aW9uc4GjZmFjdGlvbm5jMnBhLnB1Ymxpc2hlZG1zb2Z0d2FyZUFnZW50cUxvbGx5IGxvbGx5LnRvb2xzZHdoZW50MjAyNi0wNy0wNVQxOToxMzo0MloAAACranVtYgAAAChqdW1kY2JvcgARABCAAACqADibcQNjMnBhLmhhc2guZGF0YQAAAAB7Y2JvcqVqZXhjbHVzaW9uc4GiZXN0YXJ0GL9mbGVuZ3RoGQrYZG5hbWVuanVtYmYgbWFuaWZlc3RjYWxnZnNoYTI1NmRoYXNoWCDbd0HWfsYUNlrgTpMOYNRahZ+ZMVHrUciOcxwJFmgF2GNwYWRIAAAAAAAAAAAAAACDanVtYgAAACxqdW1kY2JvcgARABCAAACqADibcQN0b29scy5sb2xseS5leHBvcnQAAAAAT2Nib3KjZHJvbGVwb2ZmaWNpYWwgY2F0YWxvZ2dzdXJmYWNlc2xvbGx5LnRvb2xzL2NhdGFsb2dmZW5naW5lbExvbGx5IDEuMTguMAAAAKpqdW1iAAAANmp1bWRqc29uABEAEIAAAKoAOJtxA3N0ZHMuc2NoZW1hLW9yZy5DcmVhdGl2ZVdvcmsAAAAAbGpzb257IkBjb250ZXh0IjoiaHR0cDovL3NjaGVtYS5vcmcvIiwiQHR5cGUiOiJDcmVhdGl2ZVdvcmsiLCJhdXRob3IiOlt7IkB0eXBlIjoiUGVyc29uIiwibmFtZSI6IlNVU0UifV19AAACn2p1bWIAAAAkanVtZGMyY2wAEQAQgAAAqgA4m3EDYzJwYS5jbGFpbQAAAAJzY2JvcqhoZGM6dGl0bGVzUmFkaWFsIFJheXMgwrcgSmFkZWlkYzpmb3JtYXRtaW1hZ2Uvc3ZnK3htbGppbnN0YW5jZUlEeC11cm46dXVpZDo3NmZlZmIwYy1hMjBkLTRhMDctOWNlNi1lMTJiMTZjY2JkZjNvY2xhaW1fZ2VuZXJhdG9ycUxvbGx5IGxvbGx5LnRvb2xzdGNsYWltX2dlbmVyYXRvcl9pbmZvgaJkbmFtZWVMb2xseWd2ZXJzaW9uZjEuMTguMGlzaWduYXR1cmV4GXNlbGYjanVtYmY9YzJwYS5zaWduYXR1cmVqYXNzZXJ0aW9uc4SiY3VybHgnc2VsZiNqdW1iZj1jMnBhLmFzc2VydGlvbnMvYzJwYS5hY3Rpb25zZGhhc2hYIN6/Fwe7vMUrTc3XwLeE2IKfZ1bAnUZsMeOebsoI+IhUomN1cmx4KXNlbGYjanVtYmY9YzJwYS5hc3NlcnRpb25zL2MycGEuaGFzaC5kYXRhZGhhc2hYIGiN9PfdmNsXdgRozycCtMcsuirM5mCAYfgoopgIA5LeomN1cmx4LXNlbGYjanVtYmY9YzJwYS5hc3NlcnRpb25zL3Rvb2xzLmxvbGx5LmV4cG9ydGRoYXNoWCCXGuT93XBscgZLGjixMkIUIWNeTnwXMEUO7Z0pEgLDIKJjdXJseDdzZWxmI2p1bWJmPWMycGEuYXNzZXJ0aW9ucy9zdGRzLnNjaGVtYS1vcmcuQ3JlYXRpdmVXb3JrZGhhc2hYIB2uQpZF0cP5MA7gQObzS2/2/uU/PV1mWjW7a6MZnXcnY2FsZ2ZzaGEyNTYAAAJ0anVtYgAAAChqdW1kYzJjcwARABCAAACqADibcQNjMnBhLnNpZ25hdHVyZQAAAAJEY2JvctKEWQHzogEmGCGBWQHqMIIB5jCCAYygAwIBAgIJWxll0Xd19xciMAoGCCqGSM49BAMCMCMxDjAMBgNVBAoMBUxvbGx5MREwDwYDVQQDDAhMb2xseSBDQTAeFw0yNjA3MDUxOTEzNDJaFw0yODA5MTIxOTE0NDJaMDQxDjAMBgNVBAoMBUxvbGx5MSIwIAYDVQQDDBlMb2xseSBDb250ZW50IENyZWRlbnRpYWxzMFkwEwYHKoZIzj0CAQYIKoZIzj0DAQcDQgAESV3jc7+tCRP+BipU6qrpUXlh0G4pbotSx3GSMKX0lMDey4WRg6DLi5K6Qpe/zFw26+GUA4czveHm0PhdwQJ+t6OBlzCBlDAJBgNVHRMEAjAAMA4GA1UdDwEB/wQEAwIHgDATBgNVHSUEDDAKBggrBgEFBQcDBDAdBgNVHQ4EFgQUygaSd+Jw42qFFFJps1w3MyjMa/swHwYDVR0jBBgwFoAUnddLOwVlknok6ibSP+pTRtMGhy4wIgYDVR0RBBswGYEXY3JlZGVudGlhbHNAbG9sbHkudG9vbHMwCgYIKoZIzj0EAwIDSAAwRQIgTi2AtHs9HQ62uQ2oL7fdwtXEF3nAKe8Wa/1hKabE8XACIQDUC+DNTBkD0th5T6vw8D0CW361iZWPFCKNtVoYX3nkzKD2WEA9ojZseh+WQHGpCeXm6r80niqzFAfqol4Wsw5nfX2Zw7WVIcvrDznMewQJ7FayVcForLFYLRDvvUbiMdohf7Pl</c2pa:manifest></metadata>
  <rect width="1600" height="1000" fill="#f2fbf6"/>
  <path d="M180 120 L2280 120 L2275.5 257.35 Z" fill="#30ba78" fill-opacity="0.05"/>
  <path d="M180 120 L2208.44 663.52 L2168.55 795.02 Z" fill="#30ba78" fill-opacity="0.05"/>
  <path d="M180 120 L1998.65 1170 L1926.09 1286.7 Z" fill="#30ba78" fill-opacity="0.05"/>
  <path d="M180 120 L1664.92 1604.92 L1564.63 1698.86 Z" fill="#30ba78" fill-opacity="0.05"/>
  <path d="M180 120 L1230 1938.65 L1108.81 2003.43 Z" fill="#30ba78" fill-opacity="0.05"/>
  <path d="M180 120 L723.52 2148.44 L589.69 2179.65 Z" fill="#30ba78" fill-opacity="0.05"/>
  <path d="M180 120 L180 2220 L42.65 2215.5 Z" fill="#30ba78" fill-opacity="0.05"/>
  <path d="M180 120 L-363.52 2148.44 L-495.02 2108.55 Z" fill="#30ba78" fill-opacity="0.05"/>
  <path d="M180 120 L-870 1938.65 L-986.7 1866.09 Z" fill="#30ba78" fill-opacity="0.05"/>
  <path d="M180 120 L-1304.92 1604.92 L-1398.86 1504.63 Z" fill="#30ba78" fill-opacity="0.05"/>
  <path d="M180 120 L-1638.65 1170 L-1703.43 1048.81 Z" fill="#30ba78" fill-opacity="0.05"/>
  <path d="M180 120 L-1848.44 663.52 L-1879.65 529.69 Z" fill="#30ba78" fill-opacity="0.05"/>
  <path d="M180 120 L-1920 120 L-1915.5 -17.35 Z" fill="#30ba78" fill-opacity="0.05"/>
  <path d="M180 120 L-1848.44 -423.52 L-1808.55 -555.02 Z" fill="#30ba78" fill-opacity="0.05"/>
  <path d="M180 120 L-1638.65 -930 L-1566.09 -1046.7 Z" fill="#30ba78" fill-opacity="0.05"/>
  <path d="M180 120 L-1304.92 -1364.92 L-1204.63 -1458.86 Z" fill="#30ba78" fill-opacity="0.05"/>
  <path d="M180 120 L-870 -1698.65 L-748.81 -1763.43 Z" fill="#30ba78" fill-opacity="0.05"/>
  <path d="M180 120 L-363.52 -1908.44 L-229.69 -1939.65 Z" fill="#30ba78" fill-opacity="0.05"/>
  <path d="M180 120 L180 -1980 L317.35 -1975.5 Z" fill="#30ba78" fill-opacity="0.05"/>
  <path d="M180 120 L723.52 -1908.44 L855.02 -1868.55 Z" fill="#30ba78" fill-opacity="0.05"/>
  <path d="M180 120 L1230 -1698.65 L1346.7 -1626.09 Z" fill="#30ba78" fill-opacity="0.05"/>
  <path d="M180 120 L1664.92 -1364.92 L1758.86 -1264.63 Z" fill="#30ba78" fill-opacity="0.05"/>
  <path d="M180 120 L1998.65 -930 L2063.43 -808.81 Z" fill="#30ba78" fill-opacity="0.05"/>
  <path d="M180 120 L2208.44 -423.52 L2239.65 -289.69 Z" fill="#30ba78" fill-opacity="0.05"/>
</svg>
